<?xml version="1.0" encoding="UTF-8" standalone="no"?>
<!DOCTYPE svg PUBLIC "-//W3C//DTD SVG 1.1//EN"
 "http://www.w3.org/Graphics/SVG/1.1/DTD/svg11.dtd">
<!-- Generated by graphviz version 3.0.0 (20220413.0242)
 -->
<!-- Title: common.h Pages: 1 -->
<svg width="1768pt" height="375pt"
 viewBox="0.00 0.00 1767.50 375.00" xmlns="http://www.w3.org/2000/svg" xmlns:xlink="http://www.w3.org/1999/xlink">
<g id="graph0" class="graph" transform="scale(1 1) rotate(0) translate(4 371)">
<title>common.h</title>
<polygon fill="white" stroke="transparent" points="-4,4 -4,-371 1763.5,-371 1763.5,4 -4,4"/>
<!-- Node1 -->
<g id="node1" class="node">
<title>Node1</title>
<g id="a_node1"><a xlink:title=" ">
<polygon fill="#bfbfbf" stroke="black" points="744.5,-347.5 744.5,-366.5 821.5,-366.5 821.5,-347.5 744.5,-347.5"/>
<text text-anchor="middle" x="783" y="-354.5" font-family="Helvetica,sans-Serif" font-size="10.00">common.h</text>
</a>
</g>
</g>
<!-- Node2 -->
<g id="node2" class="node">
<title>Node2</title>
<g id="a_node2"><a xlink:href="hsqs_8h.html" target="_top" xlink:title=" ">
<polygon fill="white" stroke="black" points="616,-291.5 616,-310.5 730,-310.5 730,-291.5 616,-291.5"/>
<text text-anchor="middle" x="673" y="-298.5" font-family="Helvetica,sans-Serif" font-size="10.00">../src/hsqs.h</text>
</a>
</g>
</g>
<!-- Node1&#45;&gt;Node2 -->
<g id="edge1" class="edge">
<title>Node1&#45;&gt;Node2</title>
<path fill="none" stroke="midnightblue" d="M765.33,-347.32C747.61,-338.62 720.1,-325.12 699.71,-315.11"/>
<polygon fill="midnightblue" stroke="midnightblue" points="701.15,-311.92 690.63,-310.65 698.06,-318.2 701.15,-311.92"/>
</g>
<!-- Node25 -->
<g id="node25" class="node">
<title>Node25</title>
<g id="a_node25"><a xlink:title=" ">
<polygon fill="white" stroke="#bfbfbf" points="748.5,-291.5 748.5,-310.5 817.5,-310.5 817.5,-291.5 748.5,-291.5"/>
<text text-anchor="middle" x="783" y="-298.5" font-family="Helvetica,sans-Serif" font-size="10.00">ctype.h</text>
</a>
</g>
</g>
<!-- Node1&#45;&gt;Node25 -->
<g id="edge63" class="edge">
<title>Node1&#45;&gt;Node25</title>
<path fill="none" stroke="midnightblue" d="M783,-347.08C783,-340.01 783,-329.86 783,-320.99"/>
<polygon fill="midnightblue" stroke="midnightblue" points="786.5,-320.75 783,-310.75 779.5,-320.75 786.5,-320.75"/>
</g>
<!-- Node26 -->
<g id="node26" class="node">
<title>Node26</title>
<g id="a_node26"><a xlink:title=" ">
<polygon fill="white" stroke="#bfbfbf" points="835.5,-291.5 835.5,-310.5 912.5,-310.5 912.5,-291.5 835.5,-291.5"/>
<text text-anchor="middle" x="874" y="-298.5" font-family="Helvetica,sans-Serif" font-size="10.00">string.h</text>
</a>
</g>
</g>
<!-- Node1&#45;&gt;Node26 -->
<g id="edge64" class="edge">
<title>Node1&#45;&gt;Node26</title>
<path fill="none" stroke="midnightblue" d="M797.62,-347.32C811.95,-338.82 834.01,-325.73 850.75,-315.8"/>
<polygon fill="midnightblue" stroke="midnightblue" points="852.6,-318.77 859.42,-310.65 849.03,-312.75 852.6,-318.77"/>
</g>
<!-- Node3 -->
<g id="node3" class="node">
<title>Node3</title>
<g id="a_node3"><a xlink:href="compression__options__context_8h.html" target="_top" xlink:title=" ">
<polygon fill="white" stroke="black" points="447.5,-168.5 447.5,-198.5 606.5,-198.5 606.5,-168.5 447.5,-168.5"/>
<text text-anchor="start" x="455.5" y="-186.5" font-family="Helvetica,sans-Serif" font-size="10.00">context/compression</text>
<text text-anchor="middle" x="527" y="-175.5" font-family="Helvetica,sans-Serif" font-size="10.00">_options_context.h</text>
</a>
</g>
</g>
<!-- Node2&#45;&gt;Node3 -->
<g id="edge2" class="edge">
<title>Node2&#45;&gt;Node3</title>
<path fill="none" stroke="midnightblue" d="M662.03,-291.32C639.02,-273.11 585.18,-230.52 552.86,-204.96"/>
<polygon fill="midnightblue" stroke="midnightblue" points="554.77,-202 544.75,-198.55 550.43,-207.49 554.77,-202"/>
</g>
<!-- Node5 -->
<g id="node5" class="node">
<title>Node5</title>
<g id="a_node5"><a xlink:href="utils_8h.html" target="_top" xlink:title=" ">
<polygon fill="white" stroke="black" points="222,-56.5 222,-75.5 314,-75.5 314,-56.5 222,-56.5"/>
<text text-anchor="middle" x="268" y="-63.5" font-family="Helvetica,sans-Serif" font-size="10.00">../utils.h</text>
</a>
</g>
</g>
<!-- Node2&#45;&gt;Node5 -->
<g id="edge60" class="edge">
<title>Node2&#45;&gt;Node5</title>
<path fill="none" stroke="midnightblue" d="M615.69,-293.18C572.14,-286.73 511.36,-274.99 461,-255 416.51,-237.33 406.52,-228.72 369,-199 336.23,-173.05 327.82,-165.63 303,-132 292.08,-117.21 282.41,-98.59 276.02,-85.07"/>
<polygon fill="midnightblue" stroke="midnightblue" points="279.15,-83.51 271.8,-75.88 272.79,-86.43 279.15,-83.51"/>
</g>
<!-- Node7 -->
<g id="node7" class="node">
<title>Node7</title>
<g id="a_node7"><a xlink:title=" ">
<polygon fill="white" stroke="#bfbfbf" points="1174.5,-0.5 1174.5,-19.5 1251.5,-19.5 1251.5,-0.5 1174.5,-0.5"/>
<text text-anchor="middle" x="1213" y="-7.5" font-family="Helvetica,sans-Serif" font-size="10.00">stdint.h</text>
</a>
</g>
</g>
<!-- Node2&#45;&gt;Node7 -->
<g id="edge61" class="edge">
<title>Node2&#45;&gt;Node7</title>
<path fill="none" stroke="midnightblue" d="M730.01,-292.22C733.39,-291.8 736.74,-291.39 740,-291 841.53,-278.98 1654,-286.74 1654,-184.5 1654,-184.5 1654,-184.5 1654,-121 1654,-81.68 1629.03,-73.86 1594,-56 1536.99,-26.94 1350.93,-16.15 1261.65,-12.58"/>
<polygon fill="midnightblue" stroke="midnightblue" points="1261.64,-9.08 1251.52,-12.19 1261.37,-16.07 1261.64,-9.08"/>
</g>
<!-- Node10 -->
<g id="node10" class="node">
<title>Node10</title>
<g id="a_node10"><a xlink:href="superblock__context_8h.html" target="_top" xlink:title=" ">
<polygon fill="white" stroke="black" points="700,-168.5 700,-198.5 852,-198.5 852,-168.5 700,-168.5"/>
<text text-anchor="start" x="708" y="-186.5" font-family="Helvetica,sans-Serif" font-size="10.00">context/superblock</text>
<text text-anchor="middle" x="776" y="-175.5" font-family="Helvetica,sans-Serif" font-size="10.00">_context.h</text>
</a>
</g>
</g>
<!-- Node2&#45;&gt;Node10 -->
<g id="edge14" class="edge">
<title>Node2&#45;&gt;Node10</title>
<path fill="none" stroke="midnightblue" d="M673.57,-291.09C674.84,-277.65 678.93,-251.94 692,-235 702.14,-221.85 716.77,-211.38 730.98,-203.47"/>
<polygon fill="midnightblue" stroke="midnightblue" points="732.97,-206.37 740.2,-198.63 729.72,-200.17 732.97,-206.37"/>
</g>
<!-- Node11 -->
<g id="node11" class="node">
<title>Node11</title>
<g id="a_node11"><a xlink:href="mapper_8h.html" target="_top" xlink:title=" ">
<polygon fill="white" stroke="black" points="776,-112.5 776,-131.5 928,-131.5 928,-112.5 776,-112.5"/>
<text text-anchor="middle" x="852" y="-119.5" font-family="Helvetica,sans-Serif" font-size="10.00">../mapper/mapper.h</text>
</a>
</g>
</g>
<!-- Node2&#45;&gt;Node11 -->
<g id="edge41" class="edge">
<title>Node2&#45;&gt;Node11</title>
<path fill="none" stroke="midnightblue" d="M671.13,-291.19C666.71,-267.69 658.29,-202.96 691,-168 710.43,-147.24 738.56,-135.78 765.9,-129.54"/>
<polygon fill="midnightblue" stroke="midnightblue" points="766.83,-132.92 775.91,-127.47 765.41,-126.06 766.83,-132.92"/>
</g>
<!-- Node17 -->
<g id="node17" class="node">
<title>Node17</title>
<g id="a_node17"><a xlink:href="compression_8h.html" target="_top" xlink:title=" ">
<polygon fill="white" stroke="black" points="0,-56.5 0,-75.5 204,-75.5 204,-56.5 0,-56.5"/>
<text text-anchor="middle" x="102" y="-63.5" font-family="Helvetica,sans-Serif" font-size="10.00">compression/compression.h</text>
</a>
</g>
</g>
<!-- Node2&#45;&gt;Node17 -->
<g id="edge36" class="edge">
<title>Node2&#45;&gt;Node17</title>
<path fill="none" stroke="midnightblue" d="M615.85,-296.16C562.29,-291.16 480.7,-279.89 414,-255 293.49,-210.03 167.53,-117.85 120.85,-81.86"/>
<polygon fill="midnightblue" stroke="midnightblue" points="122.87,-79 112.83,-75.63 118.58,-84.53 122.87,-79"/>
</g>
<!-- Node18 -->
<g id="node18" class="node">
<title>Node18</title>
<g id="a_node18"><a xlink:href="error_8h.html" target="_top" xlink:title=" ">
<polygon fill="white" stroke="black" points="312.5,-112.5 312.5,-131.5 381.5,-131.5 381.5,-112.5 312.5,-112.5"/>
<text text-anchor="middle" x="347" y="-119.5" font-family="Helvetica,sans-Serif" font-size="10.00">error.h</text>
</a>
</g>
</g>
<!-- Node2&#45;&gt;Node18 -->
<g id="edge39" class="edge">
<title>Node2&#45;&gt;Node18</title>
<path fill="none" stroke="midnightblue" d="M628.05,-291.49C571.1,-278.96 472.09,-251.18 403,-199 382.23,-183.31 365.67,-157.84 356.1,-140.76"/>
<polygon fill="midnightblue" stroke="midnightblue" points="359.11,-138.96 351.29,-131.81 352.94,-142.27 359.11,-138.96"/>
</g>
<!-- Node19 -->
<g id="node19" class="node">
<title>Node19</title>
<g id="a_node19"><a xlink:href="fragment__table_8h.html" target="_top" xlink:title=" ">
<polygon fill="white" stroke="black" points="701,-235.5 701,-254.5 883,-254.5 883,-235.5 701,-235.5"/>
<text text-anchor="middle" x="792" y="-242.5" font-family="Helvetica,sans-Serif" font-size="10.00">table/fragment_table.h</text>
</a>
</g>
</g>
<!-- Node2&#45;&gt;Node19 -->
<g id="edge42" class="edge">
<title>Node2&#45;&gt;Node19</title>
<path fill="none" stroke="midnightblue" d="M691.86,-291.44C711.27,-282.64 741.73,-268.81 763.96,-258.72"/>
<polygon fill="midnightblue" stroke="midnightblue" points="765.57,-261.84 773.23,-254.52 762.68,-255.46 765.57,-261.84"/>
</g>
<!-- Node20 -->
<g id="node20" class="node">
<title>Node20</title>
<g id="a_node20"><a xlink:href="table_8h.html" target="_top" xlink:title=" ">
<polygon fill="white" stroke="black" points="1055.5,-174 1055.5,-193 1124.5,-193 1124.5,-174 1055.5,-174"/>
<text text-anchor="middle" x="1090" y="-181" font-family="Helvetica,sans-Serif" font-size="10.00">table.h</text>
</a>
</g>
</g>
<!-- Node2&#45;&gt;Node20 -->
<g id="edge47" class="edge">
<title>Node2&#45;&gt;Node20</title>
<path fill="none" stroke="midnightblue" d="M730.01,-292.24C733.39,-291.81 736.74,-291.4 740,-291 813.45,-282.07 1014.79,-303.11 1071,-255 1085.72,-242.4 1089.64,-219.7 1090.4,-203.46"/>
<polygon fill="midnightblue" stroke="midnightblue" points="1093.91,-203.05 1090.51,-193.02 1086.91,-202.98 1093.91,-203.05"/>
</g>
<!-- Node21 -->
<g id="node21" class="node">
<title>Node21</title>
<g id="a_node21"><a xlink:href="xattr__table_8h.html" target="_top" xlink:title=" ">
<polygon fill="white" stroke="black" points="902.5,-235.5 902.5,-254.5 1061.5,-254.5 1061.5,-235.5 902.5,-235.5"/>
<text text-anchor="middle" x="982" y="-242.5" font-family="Helvetica,sans-Serif" font-size="10.00">table/xattr_table.h</text>
</a>
</g>
</g>
<!-- Node2&#45;&gt;Node21 -->
<g id="edge48" class="edge">
<title>Node2&#45;&gt;Node21</title>
<path fill="none" stroke="midnightblue" d="M721.96,-291.44C776.54,-281.9 864.79,-266.48 923.1,-256.29"/>
<polygon fill="midnightblue" stroke="midnightblue" points="924.02,-259.69 933.27,-254.52 922.81,-252.79 924.02,-259.69"/>
</g>
<!-- Node24 -->
<g id="node24" class="node">
<title>Node24</title>
<g id="a_node24"><a xlink:title=" ">
<polygon fill="white" stroke="#bfbfbf" points="1682.5,-235.5 1682.5,-254.5 1759.5,-254.5 1759.5,-235.5 1682.5,-235.5"/>
<text text-anchor="middle" x="1721" y="-242.5" font-family="Helvetica,sans-Serif" font-size="10.00">stdlib.h</text>
</a>
</g>
</g>
<!-- Node2&#45;&gt;Node24 -->
<g id="edge62" class="edge">
<title>Node2&#45;&gt;Node24</title>
<path fill="none" stroke="midnightblue" d="M730.34,-291.93C733.61,-291.59 736.84,-291.27 740,-291 1151.22,-255.48 1257.45,-297.64 1668,-255 1669.31,-254.86 1670.63,-254.72 1671.96,-254.56"/>
<polygon fill="midnightblue" stroke="midnightblue" points="1672.85,-257.97 1682.29,-253.17 1671.91,-251.03 1672.85,-257.97"/>
</g>
<!-- Node4 -->
<g id="node4" class="node">
<title>Node4</title>
<g id="a_node4"><a xlink:href="buffer_8h.html" target="_top" xlink:title=" ">
<polygon fill="white" stroke="black" points="1091,-112.5 1091,-131.5 1265,-131.5 1265,-112.5 1091,-112.5"/>
<text text-anchor="middle" x="1178" y="-119.5" font-family="Helvetica,sans-Serif" font-size="10.00">../primitive/buffer.h</text>
</a>
</g>
</g>
<!-- Node3&#45;&gt;Node4 -->
<g id="edge3" class="edge">
<title>Node3&#45;&gt;Node4</title>
<path fill="none" stroke="midnightblue" d="M606.83,-175.2C726.33,-164.28 951.45,-143.71 1080.5,-131.91"/>
<polygon fill="midnightblue" stroke="midnightblue" points="1081.13,-135.37 1090.77,-130.97 1080.5,-128.4 1081.13,-135.37"/>
</g>
<!-- Node3&#45;&gt;Node5 -->
<g id="edge13" class="edge">
<title>Node3&#45;&gt;Node5</title>
<path fill="none" stroke="midnightblue" d="M511.53,-168.32C493.46,-152.48 462.07,-127.06 431,-112 397.27,-95.65 356.64,-84.41 324.38,-77.26"/>
<polygon fill="midnightblue" stroke="midnightblue" points="324.73,-73.76 314.22,-75.08 323.26,-80.6 324.73,-73.76"/>
</g>
<!-- Node4&#45;&gt;Node5 -->
<g id="edge4" class="edge">
<title>Node4&#45;&gt;Node5</title>
<path fill="none" stroke="midnightblue" d="M1090.86,-117.39C941.41,-110.93 626.59,-96.16 361,-76 349.12,-75.1 336.41,-73.97 324.31,-72.83"/>
<polygon fill="midnightblue" stroke="midnightblue" points="324.62,-69.34 314.33,-71.86 323.94,-76.31 324.62,-69.34"/>
</g>
<!-- Node6 -->
<g id="node6" class="node">
<title>Node6</title>
<g id="a_node6"><a xlink:title=" ">
<polygon fill="white" stroke="#bfbfbf" points="539.5,-0.5 539.5,-19.5 616.5,-19.5 616.5,-0.5 539.5,-0.5"/>
<text text-anchor="middle" x="578" y="-7.5" font-family="Helvetica,sans-Serif" font-size="10.00">stddef.h</text>
</a>
</g>
</g>
<!-- Node4&#45;&gt;Node6 -->
<g id="edge11" class="edge">
<title>Node4&#45;&gt;Node6</title>
<path fill="none" stroke="midnightblue" d="M1164.68,-112.46C1141.43,-98.03 1091.5,-69.14 1045,-56 896.8,-14.13 712.79,-9.56 626.69,-10.03"/>
<polygon fill="midnightblue" stroke="midnightblue" points="626.66,-6.53 616.68,-10.11 626.71,-13.53 626.66,-6.53"/>
</g>
<!-- Node4&#45;&gt;Node7 -->
<g id="edge12" class="edge">
<title>Node4&#45;&gt;Node7</title>
<path fill="none" stroke="midnightblue" d="M1248.17,-112.46C1270.32,-106.07 1292.52,-95.03 1306,-76 1323.13,-51.82 1288.01,-33.61 1256.14,-22.71"/>
<polygon fill="midnightblue" stroke="midnightblue" points="1257,-19.31 1246.41,-19.56 1254.85,-25.97 1257,-19.31"/>
</g>
<!-- Node8 -->
<g id="node8" class="node">
<title>Node8</title>
<g id="a_node8"><a xlink:href="superblock_8h.html" target="_top" xlink:title=" ">
<polygon fill="white" stroke="black" points="1129.5,-56.5 1129.5,-75.5 1296.5,-75.5 1296.5,-56.5 1129.5,-56.5"/>
<text text-anchor="middle" x="1213" y="-63.5" font-family="Helvetica,sans-Serif" font-size="10.00">../data/superblock.h</text>
</a>
</g>
</g>
<!-- Node4&#45;&gt;Node8 -->
<g id="edge7" class="edge">
<title>Node4&#45;&gt;Node8</title>
<path fill="none" stroke="midnightblue" d="M1183.78,-112.08C1188.67,-104.53 1195.83,-93.49 1201.83,-84.23"/>
<polygon fill="midnightblue" stroke="midnightblue" points="1204.83,-86.05 1207.33,-75.75 1198.95,-82.24 1204.83,-86.05"/>
</g>
<!-- Node9 -->
<g id="node9" class="node">
<title>Node9</title>
<g id="a_node9"><a xlink:title=" ">
<polygon fill="white" stroke="#bfbfbf" points="1352,-56.5 1352,-75.5 1436,-75.5 1436,-56.5 1352,-56.5"/>
<text text-anchor="middle" x="1394" y="-63.5" font-family="Helvetica,sans-Serif" font-size="10.00">stdbool.h</text>
</a>
</g>
</g>
<!-- Node4&#45;&gt;Node9 -->
<g id="edge10" class="edge">
<title>Node4&#45;&gt;Node9</title>
<path fill="none" stroke="midnightblue" d="M1212.23,-112.44C1249.51,-103.12 1309.27,-88.18 1350.01,-78"/>
<polygon fill="midnightblue" stroke="midnightblue" points="1351.08,-81.34 1359.93,-75.52 1349.38,-74.55 1351.08,-81.34"/>
</g>
<!-- Node5&#45;&gt;Node6 -->
<g id="edge5" class="edge">
<title>Node5&#45;&gt;Node6</title>
<path fill="none" stroke="midnightblue" d="M314.08,-56.97C371.67,-46.94 469.85,-29.84 528.85,-19.56"/>
<polygon fill="midnightblue" stroke="midnightblue" points="529.79,-22.95 539.04,-17.79 528.58,-16.06 529.79,-22.95"/>
</g>
<!-- Node5&#45;&gt;Node7 -->
<g id="edge6" class="edge">
<title>Node5&#45;&gt;Node7</title>
<path fill="none" stroke="midnightblue" d="M314.32,-60.11C329.22,-58.65 345.79,-57.14 361,-56 666.25,-33.18 1033.87,-17.88 1164.26,-12.83"/>
<polygon fill="midnightblue" stroke="midnightblue" points="1164.47,-16.32 1174.32,-12.44 1164.2,-9.33 1164.47,-16.32"/>
</g>
<!-- Node8&#45;&gt;Node6 -->
<g id="edge8" class="edge">
<title>Node8&#45;&gt;Node6</title>
<path fill="none" stroke="midnightblue" d="M1129.33,-57.88C994.89,-46.45 734.92,-24.34 626.91,-15.16"/>
<polygon fill="midnightblue" stroke="midnightblue" points="626.89,-11.65 616.63,-14.29 626.3,-18.62 626.89,-11.65"/>
</g>
<!-- Node8&#45;&gt;Node7 -->
<g id="edge9" class="edge">
<title>Node8&#45;&gt;Node7</title>
<path fill="none" stroke="midnightblue" d="M1213,-56.08C1213,-49.01 1213,-38.86 1213,-29.99"/>
<polygon fill="midnightblue" stroke="midnightblue" points="1216.5,-29.75 1213,-19.75 1209.5,-29.75 1216.5,-29.75"/>
</g>
<!-- Node10&#45;&gt;Node5 -->
<g id="edge33" class="edge">
<title>Node10&#45;&gt;Node5</title>
<path fill="none" stroke="midnightblue" d="M762.94,-168.27C746.7,-151.61 717.27,-124.68 686,-112 545.59,-55.08 497.6,-92.58 347,-76 339.74,-75.2 332.1,-74.35 324.55,-73.5"/>
<polygon fill="midnightblue" stroke="midnightblue" points="324.69,-69.99 314.36,-72.34 323.9,-76.94 324.69,-69.99"/>
</g>
<!-- Node10&#45;&gt;Node7 -->
<g id="edge35" class="edge">
<title>Node10&#45;&gt;Node7</title>
<path fill="none" stroke="midnightblue" d="M852.38,-169.27C855.63,-168.82 858.84,-168.39 862,-168 992.16,-151.83 1372.16,-185.07 1445,-76 1449.94,-68.61 1450.66,-62.86 1445,-56 1422.24,-28.4 1322.81,-17.52 1261.74,-13.39"/>
<polygon fill="midnightblue" stroke="midnightblue" points="1261.75,-9.88 1251.55,-12.74 1261.3,-16.87 1261.75,-9.88"/>
</g>
<!-- Node10&#45;&gt;Node8 -->
<g id="edge15" class="edge">
<title>Node10&#45;&gt;Node8</title>
<path fill="none" stroke="midnightblue" d="M829.15,-168.45C917.06,-145.22 1090.96,-99.26 1170.95,-78.11"/>
<polygon fill="midnightblue" stroke="midnightblue" points="1171.91,-81.48 1180.68,-75.54 1170.12,-74.71 1171.91,-81.48"/>
</g>
<!-- Node10&#45;&gt;Node9 -->
<g id="edge34" class="edge">
<title>Node10&#45;&gt;Node9</title>
<path fill="none" stroke="midnightblue" d="M852.39,-169.3C855.63,-168.84 858.85,-168.4 862,-168 1044.33,-144.7 1097.96,-184.88 1274,-132 1311.49,-120.74 1350.58,-96.93 1373.58,-81.47"/>
<polygon fill="midnightblue" stroke="midnightblue" points="1375.86,-84.15 1382.13,-75.61 1371.9,-78.38 1375.86,-84.15"/>
</g>
<!-- Node10&#45;&gt;Node11 -->
<g id="edge16" class="edge">
<title>Node10&#45;&gt;Node11</title>
<path fill="none" stroke="midnightblue" d="M794.01,-168.4C805.74,-159.22 821.02,-147.26 832.94,-137.92"/>
<polygon fill="midnightblue" stroke="midnightblue" points="835.22,-140.58 840.94,-131.66 830.91,-135.07 835.22,-140.58"/>
</g>
<!-- Node11&#45;&gt;Node5 -->
<g id="edge20" class="edge">
<title>Node11&#45;&gt;Node5</title>
<path fill="none" stroke="midnightblue" d="M775.9,-113.3C771.2,-112.85 766.53,-112.41 762,-112 569.25,-94.37 520.25,-98.37 328,-76 326.73,-75.85 325.45,-75.7 324.17,-75.54"/>
<polygon fill="midnightblue" stroke="midnightblue" points="324.51,-72.06 314.15,-74.24 323.61,-79 324.51,-72.06"/>
</g>
<!-- Node11&#45;&gt;Node6 -->
<g id="edge17" class="edge">
<title>Node11&#45;&gt;Node6</title>
<path fill="none" stroke="midnightblue" d="M775.9,-113.33C771.19,-112.88 766.53,-112.43 762,-112 717.47,-107.77 391.18,-109.02 361,-76 311.22,-21.55 450.9,-12 529.11,-10.78"/>
<polygon fill="midnightblue" stroke="midnightblue" points="529.3,-14.28 539.26,-10.66 529.22,-7.28 529.3,-14.28"/>
</g>
<!-- Node11&#45;&gt;Node7 -->
<g id="edge18" class="edge">
<title>Node11&#45;&gt;Node7</title>
<path fill="none" stroke="midnightblue" d="M896.55,-112.46C935.97,-104.47 994.86,-91.46 1045,-76 1094.83,-60.63 1151.03,-37.71 1184.15,-23.59"/>
<polygon fill="midnightblue" stroke="midnightblue" points="1185.85,-26.67 1193.66,-19.51 1183.09,-20.24 1185.85,-26.67"/>
</g>
<!-- Node12 -->
<g id="node12" class="node">
<title>Node12</title>
<g id="a_node12"><a xlink:title=" ">
<polygon fill="white" stroke="#bfbfbf" points="819.5,-56.5 819.5,-75.5 888.5,-75.5 888.5,-56.5 819.5,-56.5"/>
<text text-anchor="middle" x="854" y="-63.5" font-family="Helvetica,sans-Serif" font-size="10.00">stdio.h</text>
</a>
</g>
</g>
<!-- Node11&#45;&gt;Node12 -->
<g id="edge19" class="edge">
<title>Node11&#45;&gt;Node12</title>
<path fill="none" stroke="midnightblue" d="M852.33,-112.08C852.59,-105.01 852.97,-94.86 853.3,-85.99"/>
<polygon fill="midnightblue" stroke="midnightblue" points="856.8,-85.87 853.68,-75.75 849.81,-85.61 856.8,-85.87"/>
</g>
<!-- Node13 -->
<g id="node13" class="node">
<title>Node13</title>
<g id="a_node13"><a xlink:href="canary__mapper_8h.html" target="_top" xlink:title=" ">
<polygon fill="white" stroke="black" points="672.5,-56.5 672.5,-75.5 801.5,-75.5 801.5,-56.5 672.5,-56.5"/>
<text text-anchor="middle" x="737" y="-63.5" font-family="Helvetica,sans-Serif" font-size="10.00">canary_mapper.h</text>
</a>
</g>
</g>
<!-- Node11&#45;&gt;Node13 -->
<g id="edge21" class="edge">
<title>Node11&#45;&gt;Node13</title>
<path fill="none" stroke="midnightblue" d="M833.78,-112.44C815.1,-103.68 785.84,-89.94 764.38,-79.86"/>
<polygon fill="midnightblue" stroke="midnightblue" points="765.68,-76.6 755.14,-75.52 762.7,-82.93 765.68,-76.6"/>
</g>
<!-- Node14 -->
<g id="node14" class="node">
<title>Node14</title>
<g id="a_node14"><a xlink:href="mmap__full__mapper_8h.html" target="_top" xlink:title=" ">
<polygon fill="white" stroke="black" points="502,-56.5 502,-75.5 654,-75.5 654,-56.5 502,-56.5"/>
<text text-anchor="middle" x="578" y="-63.5" font-family="Helvetica,sans-Serif" font-size="10.00">mmap_full_mapper.h</text>
</a>
</g>
</g>
<!-- Node11&#45;&gt;Node14 -->
<g id="edge24" class="edge">
<title>Node11&#45;&gt;Node14</title>
<path fill="none" stroke="midnightblue" d="M808.58,-112.44C760.48,-102.96 682.91,-87.67 631.19,-77.48"/>
<polygon fill="midnightblue" stroke="midnightblue" points="631.7,-74.02 621.21,-75.52 630.35,-80.88 631.7,-74.02"/>
</g>
<!-- Node15 -->
<g id="node15" class="node">
<title>Node15</title>
<g id="a_node15"><a xlink:href="mmap__mapper_8h.html" target="_top" xlink:title=" ">
<polygon fill="white" stroke="black" points="370,-56.5 370,-75.5 484,-75.5 484,-56.5 370,-56.5"/>
<text text-anchor="middle" x="427" y="-63.5" font-family="Helvetica,sans-Serif" font-size="10.00">mmap_mapper.h</text>
</a>
</g>
</g>
<!-- Node11&#45;&gt;Node15 -->
<g id="edge27" class="edge">
<title>Node11&#45;&gt;Node15</title>
<path fill="none" stroke="midnightblue" d="M782.14,-112.47C711.97,-103.85 600.44,-90.01 494.17,-76.14"/>
<polygon fill="midnightblue" stroke="midnightblue" points="494.6,-72.67 484.23,-74.84 493.69,-79.61 494.6,-72.67"/>
</g>
<!-- Node16 -->
<g id="node16" class="node">
<title>Node16</title>
<g id="a_node16"><a xlink:href="static__mapper_8h.html" target="_top" xlink:title=" ">
<polygon fill="white" stroke="black" points="906.5,-56.5 906.5,-75.5 1035.5,-75.5 1035.5,-56.5 906.5,-56.5"/>
<text text-anchor="middle" x="971" y="-63.5" font-family="Helvetica,sans-Serif" font-size="10.00">static_mapper.h</text>
</a>
</g>
</g>
<!-- Node11&#45;&gt;Node16 -->
<g id="edge30" class="edge">
<title>Node11&#45;&gt;Node16</title>
<path fill="none" stroke="midnightblue" d="M870.86,-112.44C890.27,-103.64 920.73,-89.81 942.96,-79.72"/>
<polygon fill="midnightblue" stroke="midnightblue" points="944.57,-82.84 952.23,-75.52 941.68,-76.46 944.57,-82.84"/>
</g>
<!-- Node13&#45;&gt;Node6 -->
<g id="edge22" class="edge">
<title>Node13&#45;&gt;Node6</title>
<path fill="none" stroke="midnightblue" d="M711.81,-56.44C685.06,-47.36 642.6,-32.94 612.69,-22.78"/>
<polygon fill="midnightblue" stroke="midnightblue" points="613.67,-19.42 603.08,-19.52 611.42,-26.05 613.67,-19.42"/>
</g>
<!-- Node13&#45;&gt;Node7 -->
<g id="edge23" class="edge">
<title>Node13&#45;&gt;Node7</title>
<path fill="none" stroke="midnightblue" d="M801.57,-57.11C804.76,-56.73 807.91,-56.36 811,-56 938.41,-41.12 1088.66,-24.57 1164.29,-16.3"/>
<polygon fill="midnightblue" stroke="midnightblue" points="1164.9,-19.76 1174.46,-15.19 1164.14,-12.8 1164.9,-19.76"/>
</g>
<!-- Node14&#45;&gt;Node6 -->
<g id="edge25" class="edge">
<title>Node14&#45;&gt;Node6</title>
<path fill="none" stroke="midnightblue" d="M578,-56.08C578,-49.01 578,-38.86 578,-29.99"/>
<polygon fill="midnightblue" stroke="midnightblue" points="581.5,-29.75 578,-19.75 574.5,-29.75 581.5,-29.75"/>
</g>
<!-- Node14&#45;&gt;Node7 -->
<g id="edge26" class="edge">
<title>Node14&#45;&gt;Node7</title>
<path fill="none" stroke="midnightblue" d="M654.42,-56.91C657.66,-56.6 660.86,-56.29 664,-56 848.47,-38.79 1068.16,-21.86 1164.11,-14.64"/>
<polygon fill="midnightblue" stroke="midnightblue" points="1164.66,-18.11 1174.37,-13.87 1164.13,-11.12 1164.66,-18.11"/>
</g>
<!-- Node15&#45;&gt;Node6 -->
<g id="edge28" class="edge">
<title>Node15&#45;&gt;Node6</title>
<path fill="none" stroke="midnightblue" d="M450.93,-56.44C476.22,-47.4 516.3,-33.06 544.68,-22.92"/>
<polygon fill="midnightblue" stroke="midnightblue" points="545.95,-26.18 554.19,-19.52 543.59,-19.59 545.95,-26.18"/>
</g>
<!-- Node15&#45;&gt;Node7 -->
<g id="edge29" class="edge">
<title>Node15&#45;&gt;Node7</title>
<path fill="none" stroke="midnightblue" d="M484.21,-56.94C487.18,-56.6 490.12,-56.29 493,-56 744.94,-30.98 1047.94,-17.42 1164.27,-12.81"/>
<polygon fill="midnightblue" stroke="midnightblue" points="1164.43,-16.31 1174.29,-12.42 1164.16,-9.32 1164.43,-16.31"/>
</g>
<!-- Node16&#45;&gt;Node6 -->
<g id="edge31" class="edge">
<title>Node16&#45;&gt;Node6</title>
<path fill="none" stroke="midnightblue" d="M908.73,-56.44C830.54,-45.7 698.05,-27.5 626.8,-17.71"/>
<polygon fill="midnightblue" stroke="midnightblue" points="627.13,-14.22 616.75,-16.32 626.18,-21.15 627.13,-14.22"/>
</g>
<!-- Node16&#45;&gt;Node7 -->
<g id="edge32" class="edge">
<title>Node16&#45;&gt;Node7</title>
<path fill="none" stroke="midnightblue" d="M1009.35,-56.44C1051.47,-47.04 1119.21,-31.93 1164.87,-21.74"/>
<polygon fill="midnightblue" stroke="midnightblue" points="1165.84,-25.11 1174.83,-19.52 1164.31,-18.28 1165.84,-25.11"/>
</g>
<!-- Node17&#45;&gt;Node6 -->
<g id="edge37" class="edge">
<title>Node17&#45;&gt;Node6</title>
<path fill="none" stroke="midnightblue" d="M177.16,-56.47C275.87,-45.28 446.38,-25.93 529.55,-16.5"/>
<polygon fill="midnightblue" stroke="midnightblue" points="529.95,-19.97 539.49,-15.37 529.16,-13.02 529.95,-19.97"/>
</g>
<!-- Node17&#45;&gt;Node7 -->
<g id="edge38" class="edge">
<title>Node17&#45;&gt;Node7</title>
<path fill="none" stroke="midnightblue" d="M204.21,-56.57C207.17,-56.37 210.11,-56.18 213,-56 578.07,-32.99 1018.83,-17.4 1164.02,-12.58"/>
<polygon fill="midnightblue" stroke="midnightblue" points="1164.48,-16.07 1174.36,-12.24 1164.25,-9.07 1164.48,-16.07"/>
</g>
<!-- Node18&#45;&gt;Node5 -->
<g id="edge40" class="edge">
<title>Node18&#45;&gt;Node5</title>
<path fill="none" stroke="midnightblue" d="M334.31,-112.32C322.1,-103.98 303.42,-91.21 289,-81.35"/>
<polygon fill="midnightblue" stroke="midnightblue" points="290.89,-78.41 280.66,-75.65 286.94,-84.19 290.89,-78.41"/>
</g>
<!-- Node19&#45;&gt;Node5 -->
<g id="edge43" class="edge">
<title>Node19&#45;&gt;Node5</title>
<path fill="none" stroke="midnightblue" d="M700.91,-241.63C610.76,-237.67 480.39,-227.12 439,-199 402.47,-174.18 424.53,-140.74 391,-112 371.98,-95.69 346.54,-85.09 323.74,-78.29"/>
<polygon fill="midnightblue" stroke="midnightblue" points="324.39,-74.84 313.82,-75.52 322.51,-81.58 324.39,-74.84"/>
</g>
<!-- Node19&#45;&gt;Node20 -->
<g id="edge44" class="edge">
<title>Node19&#45;&gt;Node20</title>
<path fill="none" stroke="midnightblue" d="M855.7,-235.48C907.63,-227.88 982.64,-215.43 1047,-199 1050.21,-198.18 1053.52,-197.24 1056.81,-196.24"/>
<polygon fill="midnightblue" stroke="midnightblue" points="1058.08,-199.51 1066.53,-193.12 1055.94,-192.84 1058.08,-199.51"/>
</g>
<!-- Node20&#45;&gt;Node7 -->
<g id="edge46" class="edge">
<title>Node20&#45;&gt;Node7</title>
<path fill="none" stroke="midnightblue" d="M1112.57,-173.99C1119.37,-171.71 1126.91,-169.48 1134,-168 1217.46,-150.55 1458.61,-195.06 1516,-132 1538.74,-107.02 1538.06,-81.58 1516,-56 1483.82,-18.69 1339.5,-11.82 1262.22,-10.86"/>
<polygon fill="midnightblue" stroke="midnightblue" points="1261.81,-7.36 1251.78,-10.77 1261.75,-14.36 1261.81,-7.36"/>
</g>
<!-- Node20&#45;&gt;Node11 -->
<g id="edge45" class="edge">
<title>Node20&#45;&gt;Node11</title>
<path fill="none" stroke="midnightblue" d="M1066.02,-173.95C1059.86,-171.88 1053.22,-169.76 1047,-168 999.18,-154.46 943.92,-142 904.46,-133.64"/>
<polygon fill="midnightblue" stroke="midnightblue" points="905.03,-130.18 894.53,-131.55 903.59,-137.04 905.03,-130.18"/>
</g>
<!-- Node21&#45;&gt;Node5 -->
<g id="edge57" class="edge">
<title>Node21&#45;&gt;Node5</title>
<path fill="none" stroke="midnightblue" d="M914.54,-235.46C842.09,-225.96 731.86,-210.43 691,-199 656.26,-189.29 649.64,-181.02 616,-168 547.69,-141.56 531.23,-132.8 461,-112 414.36,-98.19 360.38,-85.91 321.39,-77.68"/>
<polygon fill="midnightblue" stroke="midnightblue" points="321.81,-74.19 311.31,-75.57 320.38,-81.05 321.81,-74.19"/>
</g>
<!-- Node21&#45;&gt;Node7 -->
<g id="edge59" class="edge">
<title>Node21&#45;&gt;Node7</title>
<path fill="none" stroke="midnightblue" d="M1061.57,-241.47C1208.37,-234.91 1512.48,-211.78 1574,-132 1594.63,-105.25 1596.36,-81.32 1574,-56 1553.65,-32.96 1355.44,-18.93 1261.68,-13.54"/>
<polygon fill="midnightblue" stroke="midnightblue" points="1261.77,-10.04 1251.59,-12.97 1261.38,-17.03 1261.77,-10.04"/>
</g>
<!-- Node21&#45;&gt;Node20 -->
<g id="edge58" class="edge">
<title>Node21&#45;&gt;Node20</title>
<path fill="none" stroke="midnightblue" d="M997.47,-235.48C1015.28,-225.67 1044.74,-209.43 1065.63,-197.92"/>
<polygon fill="midnightblue" stroke="midnightblue" points="1067.49,-200.9 1074.55,-193.01 1064.11,-194.77 1067.49,-200.9"/>
</g>
<!-- Node22 -->
<g id="node22" class="node">
<title>Node22</title>
<g id="a_node22"><a xlink:href="metablock__context_8h.html" target="_top" xlink:title=" ">
<polygon fill="white" stroke="black" points="870.5,-168.5 870.5,-198.5 1037.5,-198.5 1037.5,-168.5 870.5,-168.5"/>
<text text-anchor="start" x="878.5" y="-186.5" font-family="Helvetica,sans-Serif" font-size="10.00">../context/metablock</text>
<text text-anchor="middle" x="954" y="-175.5" font-family="Helvetica,sans-Serif" font-size="10.00">_context.h</text>
</a>
</g>
</g>
<!-- Node21&#45;&gt;Node22 -->
<g id="edge49" class="edge">
<title>Node21&#45;&gt;Node22</title>
<path fill="none" stroke="midnightblue" d="M977.99,-235.48C974.59,-228.25 969.54,-217.53 964.95,-207.78"/>
<polygon fill="midnightblue" stroke="midnightblue" points="968.02,-206.08 960.6,-198.52 961.69,-209.06 968.02,-206.08"/>
</g>
<!-- Node23 -->
<g id="node23" class="node">
<title>Node23</title>
<g id="a_node23"><a xlink:href="metablock__stream__context_8h.html" target="_top" xlink:title=" ">
<polygon fill="white" stroke="black" points="1142.5,-168.5 1142.5,-198.5 1309.5,-198.5 1309.5,-168.5 1142.5,-168.5"/>
<text text-anchor="start" x="1150.5" y="-186.5" font-family="Helvetica,sans-Serif" font-size="10.00">../context/metablock</text>
<text text-anchor="middle" x="1226" y="-175.5" font-family="Helvetica,sans-Serif" font-size="10.00">_stream_context.h</text>
</a>
</g>
</g>
<!-- Node21&#45;&gt;Node23 -->
<g id="edge54" class="edge">
<title>Node21&#45;&gt;Node23</title>
<path fill="none" stroke="midnightblue" d="M1016.96,-235.48C1053.79,-226.49 1112.7,-212.13 1158.61,-200.93"/>
<polygon fill="midnightblue" stroke="midnightblue" points="1159.61,-204.29 1168.49,-198.52 1157.95,-197.49 1159.61,-204.29"/>
</g>
<!-- Node22&#45;&gt;Node4 -->
<g id="edge51" class="edge">
<title>Node22&#45;&gt;Node4</title>
<path fill="none" stroke="midnightblue" d="M1006.8,-168.47C1046.29,-157.99 1099.56,-143.84 1136.13,-134.12"/>
<polygon fill="midnightblue" stroke="midnightblue" points="1137.21,-137.46 1145.98,-131.51 1135.41,-130.69 1137.21,-137.46"/>
</g>
<!-- Node22&#45;&gt;Node5 -->
<g id="edge52" class="edge">
<title>Node22&#45;&gt;Node5</title>
<path fill="none" stroke="midnightblue" d="M894.94,-168.43C857.87,-159.14 809.27,-146.11 767,-132 744.3,-124.42 740.26,-117.66 717,-112 556.47,-72.93 511.31,-93.35 347,-76 339.73,-75.23 332.09,-74.4 324.55,-73.56"/>
<polygon fill="midnightblue" stroke="midnightblue" points="324.68,-70.05 314.35,-72.41 323.9,-77.01 324.68,-70.05"/>
</g>
<!-- Node22&#45;&gt;Node7 -->
<g id="edge53" class="edge">
<title>Node22&#45;&gt;Node7</title>
<path fill="none" stroke="midnightblue" d="M1037.61,-169.18C1040.78,-168.76 1043.92,-168.37 1047,-168 1094.72,-162.29 1445.46,-167.37 1478,-132 1500.87,-107.14 1499.79,-81.81 1478,-56 1450.86,-23.87 1330.57,-14.68 1261.75,-12.05"/>
<polygon fill="midnightblue" stroke="midnightblue" points="1261.7,-8.54 1251.58,-11.69 1261.45,-15.54 1261.7,-8.54"/>
</g>
<!-- Node22&#45;&gt;Node11 -->
<g id="edge50" class="edge">
<title>Node22&#45;&gt;Node11</title>
<path fill="none" stroke="midnightblue" d="M929.83,-168.4C913.48,-158.86 891.99,-146.32 875.73,-136.84"/>
<polygon fill="midnightblue" stroke="midnightblue" points="877.24,-133.67 866.84,-131.66 873.72,-139.72 877.24,-133.67"/>
</g>
<!-- Node23&#45;&gt;Node4 -->
<g id="edge55" class="edge">
<title>Node23&#45;&gt;Node4</title>
<path fill="none" stroke="midnightblue" d="M1214.62,-168.4C1207.65,-159.75 1198.69,-148.64 1191.37,-139.58"/>
<polygon fill="midnightblue" stroke="midnightblue" points="1193.99,-137.24 1184.98,-131.66 1188.54,-141.64 1193.99,-137.24"/>
</g>
<!-- Node23&#45;&gt;Node7 -->
<g id="edge56" class="edge">
<title>Node23&#45;&gt;Node7</title>
<path fill="none" stroke="midnightblue" d="M1309.53,-181.56C1396.13,-178.6 1523.1,-168.02 1554,-132 1575.99,-106.36 1576.27,-81.4 1554,-56 1535.04,-34.38 1351.55,-19.82 1261.86,-13.93"/>
<polygon fill="midnightblue" stroke="midnightblue" points="1261.87,-10.43 1251.67,-13.27 1261.42,-17.41 1261.87,-10.43"/>
</g>
</g>
</svg>
