<?xml version="1.0" encoding="UTF-8" standalone="no"?>
<!DOCTYPE svg PUBLIC "-//W3C//DTD SVG 1.1//EN"
 "http://www.w3.org/Graphics/SVG/1.1/DTD/svg11.dtd">
<!-- Generated by graphviz version 3.0.0 (20220413.0242)
 -->
<!-- Title: curl_mapper.h Pages: 1 -->
<svg width="358pt" height="196pt"
 viewBox="0.00 0.00 357.50 196.00" xmlns="http://www.w3.org/2000/svg" xmlns:xlink="http://www.w3.org/1999/xlink">
<g id="graph0" class="graph" transform="scale(1 1) rotate(0) translate(4 192)">
<title>curl_mapper.h</title>
<polygon fill="white" stroke="transparent" points="-4,4 -4,-192 353.5,-192 353.5,4 -4,4"/>
<!-- Node1 -->
<g id="node1" class="node">
<title>Node1</title>
<g id="a_node1"><a xlink:title=" ">
<polygon fill="#bfbfbf" stroke="black" points="165,-168.5 165,-187.5 279,-187.5 279,-168.5 165,-168.5"/>
<text text-anchor="middle" x="222" y="-175.5" font-family="Helvetica,sans-Serif" font-size="10.00">curl_mapper.h</text>
</a>
</g>
</g>
<!-- Node2 -->
<g id="node2" class="node">
<title>Node2</title>
<g id="a_node2"><a xlink:href="buffer_8h.html" target="_top" xlink:title=" ">
<polygon fill="white" stroke="black" points="20,-112.5 20,-131.5 194,-131.5 194,-112.5 20,-112.5"/>
<text text-anchor="middle" x="107" y="-119.5" font-family="Helvetica,sans-Serif" font-size="10.00">../primitive/buffer.h</text>
</a>
</g>
</g>
<!-- Node1&#45;&gt;Node2 -->
<g id="edge1" class="edge">
<title>Node1&#45;&gt;Node2</title>
<path fill="none" stroke="midnightblue" d="M203.78,-168.44C185.1,-159.68 155.84,-145.94 134.38,-135.86"/>
<polygon fill="midnightblue" stroke="midnightblue" points="135.68,-132.6 125.14,-131.52 132.7,-138.93 135.68,-132.6"/>
</g>
<!-- Node5 -->
<g id="node5" class="node">
<title>Node5</title>
<g id="a_node5"><a xlink:title=" ">
<polygon fill="white" stroke="#bfbfbf" points="142.5,-0.5 142.5,-19.5 219.5,-19.5 219.5,-0.5 142.5,-0.5"/>
<text text-anchor="middle" x="181" y="-7.5" font-family="Helvetica,sans-Serif" font-size="10.00">stdint.h</text>
</a>
</g>
</g>
<!-- Node1&#45;&gt;Node5 -->
<g id="edge7" class="edge">
<title>Node1&#45;&gt;Node5</title>
<path fill="none" stroke="midnightblue" d="M221.52,-168.29C220.23,-148.11 215.84,-96.77 203,-56 200.03,-46.57 195.35,-36.63 191.08,-28.5"/>
<polygon fill="midnightblue" stroke="midnightblue" points="194.09,-26.71 186.2,-19.64 187.95,-30.09 194.09,-26.71"/>
</g>
<!-- Node7 -->
<g id="node7" class="node">
<title>Node7</title>
<g id="a_node7"><a xlink:title=" ">
<polygon fill="white" stroke="#bfbfbf" points="250.5,-112.5 250.5,-131.5 349.5,-131.5 349.5,-112.5 250.5,-112.5"/>
<text text-anchor="middle" x="300" y="-119.5" font-family="Helvetica,sans-Serif" font-size="10.00">curl/curl.h</text>
</a>
</g>
</g>
<!-- Node1&#45;&gt;Node7 -->
<g id="edge6" class="edge">
<title>Node1&#45;&gt;Node7</title>
<path fill="none" stroke="midnightblue" d="M234.53,-168.32C246.59,-159.98 265.03,-147.21 279.27,-137.35"/>
<polygon fill="midnightblue" stroke="midnightblue" points="281.27,-140.22 287.5,-131.65 277.28,-134.47 281.27,-140.22"/>
</g>
<!-- Node3 -->
<g id="node3" class="node">
<title>Node3</title>
<g id="a_node3"><a xlink:href="utils_8h.html" target="_top" xlink:title=" ">
<polygon fill="white" stroke="black" points="0,-56.5 0,-75.5 92,-75.5 92,-56.5 0,-56.5"/>
<text text-anchor="middle" x="46" y="-63.5" font-family="Helvetica,sans-Serif" font-size="10.00">../utils.h</text>
</a>
</g>
</g>
<!-- Node2&#45;&gt;Node3 -->
<g id="edge2" class="edge">
<title>Node2&#45;&gt;Node3</title>
<path fill="none" stroke="midnightblue" d="M97.2,-112.32C88.18,-104.34 74.59,-92.31 63.68,-82.65"/>
<polygon fill="midnightblue" stroke="midnightblue" points="65.79,-79.84 55.98,-75.83 61.15,-85.08 65.79,-79.84"/>
</g>
<!-- Node6 -->
<g id="node6" class="node">
<title>Node6</title>
<g id="a_node6"><a xlink:title=" ">
<polygon fill="white" stroke="#bfbfbf" points="110,-56.5 110,-75.5 194,-75.5 194,-56.5 110,-56.5"/>
<text text-anchor="middle" x="152" y="-63.5" font-family="Helvetica,sans-Serif" font-size="10.00">stdbool.h</text>
</a>
</g>
</g>
<!-- Node2&#45;&gt;Node6 -->
<g id="edge5" class="edge">
<title>Node2&#45;&gt;Node6</title>
<path fill="none" stroke="midnightblue" d="M114.43,-112.08C120.85,-104.38 130.31,-93.03 138.12,-83.65"/>
<polygon fill="midnightblue" stroke="midnightblue" points="140.99,-85.67 144.71,-75.75 135.62,-81.19 140.99,-85.67"/>
</g>
<!-- Node4 -->
<g id="node4" class="node">
<title>Node4</title>
<g id="a_node4"><a xlink:title=" ">
<polygon fill="white" stroke="#bfbfbf" points="7.5,-0.5 7.5,-19.5 84.5,-19.5 84.5,-0.5 7.5,-0.5"/>
<text text-anchor="middle" x="46" y="-7.5" font-family="Helvetica,sans-Serif" font-size="10.00">stddef.h</text>
</a>
</g>
</g>
<!-- Node3&#45;&gt;Node4 -->
<g id="edge3" class="edge">
<title>Node3&#45;&gt;Node4</title>
<path fill="none" stroke="midnightblue" d="M46,-56.08C46,-49.01 46,-38.86 46,-29.99"/>
<polygon fill="midnightblue" stroke="midnightblue" points="49.5,-29.75 46,-19.75 42.5,-29.75 49.5,-29.75"/>
</g>
<!-- Node3&#45;&gt;Node5 -->
<g id="edge4" class="edge">
<title>Node3&#45;&gt;Node5</title>
<path fill="none" stroke="midnightblue" d="M67.39,-56.44C89.71,-47.52 124.9,-33.44 150.21,-23.32"/>
<polygon fill="midnightblue" stroke="midnightblue" points="151.72,-26.48 159.71,-19.52 149.12,-19.98 151.72,-26.48"/>
</g>
</g>
</svg>
