<?xml version="1.0" encoding="UTF-8" standalone="no"?>
<!DOCTYPE svg PUBLIC "-//W3C//DTD SVG 1.1//EN"
 "http://www.w3.org/Graphics/SVG/1.1/DTD/svg11.dtd">
<!-- Generated by graphviz version 3.0.0 (20220413.0242)
 -->
<!-- Title: table Pages: 1 -->
<svg width="190pt" height="167pt"
 viewBox="0.00 0.00 190.00 167.00" xmlns="http://www.w3.org/2000/svg" xmlns:xlink="http://www.w3.org/1999/xlink">
<g id="graph0" class="graph" transform="scale(1 1) rotate(0) translate(4 163)">
<title>table</title>
<polygon fill="white" stroke="transparent" points="-4,4 -4,-163 186,-163 186,4 -4,4"/>
<g id="clust1" class="cluster">
<title>clusterdir_4444a2805dd47f54c48baa085de65586</title>
<g id="a_clust1"><a xlink:href="dir_4444a2805dd47f54c48baa085de65586.html" target="_top" xlink:title="src">
<polygon fill="#edf0f7" stroke="#7f7f7f" stroke-dasharray="5,2" points="8,-8 8,-151 174,-151 174,-8 8,-8"/>
<text text-anchor="middle" x="91" y="-139" font-family="Helvetica,sans-Serif" font-size="10.00">src</text>
</a>
</g>
</g>
<!-- dir_96dbfe7dd99a9efcae498b2c6b3f22c1 -->
<g id="node1" class="node">
<title>dir_96dbfe7dd99a9efcae498b2c6b3f22c1</title>
<g id="a_node1"><a xlink:href="dir_96dbfe7dd99a9efcae498b2c6b3f22c1.html" target="_top" xlink:title="context">
<polygon fill="#a2b4d6" stroke="#404040" points="85.5,-52 16.5,-52 16.5,-16 85.5,-16 85.5,-52"/>
<text text-anchor="middle" x="51" y="-31.5" font-family="Helvetica,sans-Serif" font-size="10.00">context</text>
</a>
</g>
</g>
<!-- dir_d95a473c4a82bfe2070f79612962da98 -->
<g id="node2" class="node">
<title>dir_d95a473c4a82bfe2070f79612962da98</title>
<g id="a_node2"><a xlink:href="dir_d95a473c4a82bfe2070f79612962da98.html" target="_top" xlink:title="mapper">
<polygon fill="#a2b4d6" stroke="#404040" points="166,-52 104,-52 104,-16 166,-16 166,-52"/>
<text text-anchor="middle" x="135" y="-31.5" font-family="Helvetica,sans-Serif" font-size="10.00">mapper</text>
</a>
</g>
</g>
<!-- dir_9ab2a4730925cdc689635cbce48f5fb0 -->
<g id="node3" class="node">
<title>dir_9ab2a4730925cdc689635cbce48f5fb0</title>
<g id="a_node3"><a xlink:href="dir_9ab2a4730925cdc689635cbce48f5fb0.html" target="_top" xlink:title="table">
<polygon fill="#edf0f7" stroke="#404040" stroke-width="2" points="120,-124 66,-124 66,-88 120,-88 120,-124"/>
<text text-anchor="middle" x="93" y="-103.5" font-family="Helvetica,sans-Serif" font-size="10.00">table</text>
</a>
</g>
</g>
<!-- dir_9ab2a4730925cdc689635cbce48f5fb0&#45;&gt;dir_96dbfe7dd99a9efcae498b2c6b3f22c1 -->
<g id="edge1" class="edge">
<title>dir_9ab2a4730925cdc689635cbce48f5fb0&#45;&gt;dir_96dbfe7dd99a9efcae498b2c6b3f22c1</title>
<path fill="none" stroke="black" d="M82.62,-87.7C77.74,-79.56 71.81,-69.69 66.42,-60.7"/>
<polygon fill="black" stroke="black" points="69.41,-58.88 61.26,-52.1 63.41,-62.48 69.41,-58.88"/>
<g id="a_edge1&#45;headlabel"><a xlink:href="dir_000011_000003.html" target="_top" xlink:title="2">
<text text-anchor="middle" x="73.69" y="-58" font-family="Helvetica,sans-Serif" font-size="10.00">2</text>
</a>
</g>
</g>
<!-- dir_9ab2a4730925cdc689635cbce48f5fb0&#45;&gt;dir_d95a473c4a82bfe2070f79612962da98 -->
<g id="edge2" class="edge">
<title>dir_9ab2a4730925cdc689635cbce48f5fb0&#45;&gt;dir_d95a473c4a82bfe2070f79612962da98</title>
<path fill="none" stroke="black" d="M103.38,-87.7C108.26,-79.56 114.19,-69.69 119.58,-60.7"/>
<polygon fill="black" stroke="black" points="122.59,-62.48 124.74,-52.1 116.59,-58.88 122.59,-62.48"/>
<g id="a_edge2&#45;headlabel"><a xlink:href="dir_000011_000008.html" target="_top" xlink:title="1">
<text text-anchor="middle" x="123.18" y="-64.52" font-family="Helvetica,sans-Serif" font-size="10.00">1</text>
</a>
</g>
</g>
</g>
</svg>
