<?xml version="1.0" encoding="UTF-8" standalone="no"?>
<!DOCTYPE svg PUBLIC "-//W3C//DTD SVG 1.1//EN"
 "http://www.w3.org/Graphics/SVG/1.1/DTD/svg11.dtd">
<!-- Generated by graphviz version 3.0.0 (20220413.0242)
 -->
<!-- Title: libsqsh Pages: 1 -->
<svg width="270pt" height="183pt"
 viewBox="0.00 0.00 270.00 183.00" xmlns="http://www.w3.org/2000/svg" xmlns:xlink="http://www.w3.org/1999/xlink">
<g id="graph0" class="graph" transform="scale(1 1) rotate(0) translate(4 179)">
<title>libsqsh</title>
<polygon fill="white" stroke="transparent" points="-4,4 -4,-179 266,-179 266,4 -4,4"/>
<g id="clust1" class="cluster">
<title>clusterdir_bf5a6642e4a2ec8691d45172aa2efe79</title>
<g id="a_clust1"><a xlink:href="dir_bf5a6642e4a2ec8691d45172aa2efe79.html" target="_top" xlink:title="libsqsh">
<polygon fill="#edf0f7" stroke="#7f7f7f" stroke-dasharray="5,2" points="8,-8 8,-167 254,-167 254,-8 8,-8"/>
<text text-anchor="middle" x="131" y="-155" font-family="Helvetica,sans-Serif" font-size="10.00">libsqsh</text>
</a>
</g>
</g>
<g id="clust2" class="cluster">
<title>clusterdir_7bea8aa7adab50784d6c0b22b0dd2031</title>
<g id="a_clust2"><a xlink:href="dir_7bea8aa7adab50784d6c0b22b0dd2031.html" target="_top">
<polygon fill="#edf0f7" stroke="#404040" stroke-width="2" points="16,-16 16,-140 246,-140 246,-16 16,-16"/>
</a>
</g>
</g>
<!-- dir_7bea8aa7adab50784d6c0b22b0dd2031 -->
<g id="node1" class="node">
<title>dir_7bea8aa7adab50784d6c0b22b0dd2031</title>
<text text-anchor="middle" x="203" y="-111.5" font-family="Helvetica,sans-Serif" font-size="10.00">libsqsh</text>
</g>
<!-- dir_68e2bdd47c74adc2834857583f6ea2f2 -->
<g id="node2" class="node">
<title>dir_68e2bdd47c74adc2834857583f6ea2f2</title>
<g id="a_node2"><a xlink:href="dir_68e2bdd47c74adc2834857583f6ea2f2.html" target="_top" xlink:title="bin">
<polygon fill="#a2b4d6" stroke="#404040" points="150,-132 96,-132 96,-96 150,-96 150,-132"/>
<text text-anchor="middle" x="123" y="-111.5" font-family="Helvetica,sans-Serif" font-size="10.00">bin</text>
</a>
</g>
</g>
<!-- dir_4444a2805dd47f54c48baa085de65586 -->
<g id="node3" class="node">
<title>dir_4444a2805dd47f54c48baa085de65586</title>
<g id="a_node3"><a xlink:href="dir_4444a2805dd47f54c48baa085de65586.html" target="_top" xlink:title="src">
<polygon fill="#a2b4d6" stroke="#404040" points="150,-60 96,-60 96,-24 150,-24 150,-60"/>
<text text-anchor="middle" x="123" y="-39.5" font-family="Helvetica,sans-Serif" font-size="10.00">src</text>
</a>
</g>
</g>
<!-- dir_68e2bdd47c74adc2834857583f6ea2f2&#45;&gt;dir_4444a2805dd47f54c48baa085de65586 -->
<g id="edge1" class="edge">
<title>dir_68e2bdd47c74adc2834857583f6ea2f2&#45;&gt;dir_4444a2805dd47f54c48baa085de65586</title>
<path fill="none" stroke="black" d="M123,-95.7C123,-87.98 123,-78.71 123,-70.11"/>
<polygon fill="black" stroke="black" points="126.5,-70.1 123,-60.1 119.5,-70.1 126.5,-70.1"/>
<g id="a_edge1&#45;headlabel"><a xlink:href="dir_000001_000010.html" target="_top" xlink:title="1">
<text text-anchor="middle" x="129.34" y="-71.2" font-family="Helvetica,sans-Serif" font-size="10.00">1</text>
</a>
</g>
</g>
<!-- dir_87f609dd048994e9bbf66152278543fc -->
<g id="node4" class="node">
<title>dir_87f609dd048994e9bbf66152278543fc</title>
<g id="a_node4"><a xlink:href="dir_87f609dd048994e9bbf66152278543fc.html" target="_top" xlink:title="test">
<polygon fill="#a2b4d6" stroke="#404040" points="78,-132 24,-132 24,-96 78,-96 78,-132"/>
<text text-anchor="middle" x="51" y="-111.5" font-family="Helvetica,sans-Serif" font-size="10.00">test</text>
</a>
</g>
</g>
</g>
</svg>
