<?xml version="1.0" encoding="UTF-8" standalone="no"?>
<!DOCTYPE svg PUBLIC "-//W3C//DTD SVG 1.1//EN"
 "http://www.w3.org/Graphics/SVG/1.1/DTD/svg11.dtd">
<!-- Generated by graphviz version 3.0.0 (20220413.0242)
 -->
<!-- Title: src Pages: 1 -->
<svg width="364pt" height="399pt"
 viewBox="0.00 0.00 364.00 399.00" xmlns="http://www.w3.org/2000/svg" xmlns:xlink="http://www.w3.org/1999/xlink">
<g id="graph0" class="graph" transform="scale(1 1) rotate(0) translate(4 395)">
<title>src</title>
<polygon fill="white" stroke="transparent" points="-4,4 -4,-395 360,-395 360,4 -4,4"/>
<g id="clust1" class="cluster">
<title>clusterdir_7bea8aa7adab50784d6c0b22b0dd2031</title>
<g id="a_clust1"><a xlink:href="dir_7bea8aa7adab50784d6c0b22b0dd2031.html" target="_top" xlink:title="libsqsh">
<polygon fill="#edf0f7" stroke="#7f7f7f" stroke-dasharray="5,2" points="8,-8 8,-383 348,-383 348,-8 8,-8"/>
<text text-anchor="middle" x="178" y="-371" font-family="Helvetica,sans-Serif" font-size="10.00">libsqsh</text>
</a>
</g>
</g>
<g id="clust2" class="cluster">
<title>clusterdir_4444a2805dd47f54c48baa085de65586</title>
<g id="a_clust2"><a xlink:href="dir_4444a2805dd47f54c48baa085de65586.html" target="_top">
<polygon fill="#edf0f7" stroke="#404040" stroke-width="2" points="16,-16 16,-356 340,-356 340,-16 16,-16"/>
</a>
</g>
</g>
<!-- dir_4444a2805dd47f54c48baa085de65586 -->
<g id="node1" class="node">
<title>dir_4444a2805dd47f54c48baa085de65586</title>
<text text-anchor="middle" x="190" y="-327.5" font-family="Helvetica,sans-Serif" font-size="10.00">src</text>
</g>
<!-- dir_4c22de6eb58464da09d07e38600b5750 -->
<g id="node2" class="node">
<title>dir_4c22de6eb58464da09d07e38600b5750</title>
<g id="a_node2"><a xlink:href="dir_4c22de6eb58464da09d07e38600b5750.html" target="_top" xlink:title="compression">
<polygon fill="#a2b4d6" stroke="#404040" points="331.5,-276 232.5,-276 232.5,-240 331.5,-240 331.5,-276"/>
<text text-anchor="middle" x="282" y="-255.5" font-family="Helvetica,sans-Serif" font-size="10.00">compression</text>
</a>
</g>
</g>
<!-- dir_4444a2805dd47f54c48baa085de65586&#45;&gt;dir_4c22de6eb58464da09d07e38600b5750 -->
<g id="edge1" class="edge">
<title>dir_4444a2805dd47f54c48baa085de65586&#45;&gt;dir_4c22de6eb58464da09d07e38600b5750</title>
<path fill="none" stroke="black" d="M212.74,-311.7C224.44,-302.8 238.86,-291.82 251.51,-282.2"/>
<polygon fill="black" stroke="black" points="253.68,-284.94 259.52,-276.1 249.44,-279.37 253.68,-284.94"/>
<g id="a_edge1&#45;headlabel"><a xlink:href="dir_000009_000001.html" target="_top" xlink:title="1">
<text text-anchor="middle" x="252.54" y="-286.88" font-family="Helvetica,sans-Serif" font-size="10.00">1</text>
</a>
</g>
</g>
<!-- dir_96dbfe7dd99a9efcae498b2c6b3f22c1 -->
<g id="node3" class="node">
<title>dir_96dbfe7dd99a9efcae498b2c6b3f22c1</title>
<g id="a_node3"><a xlink:href="dir_96dbfe7dd99a9efcae498b2c6b3f22c1.html" target="_top" xlink:title="context">
<polygon fill="#a2b4d6" stroke="#404040" points="147.5,-204 78.5,-204 78.5,-168 147.5,-168 147.5,-204"/>
<text text-anchor="middle" x="113" y="-183.5" font-family="Helvetica,sans-Serif" font-size="10.00">context</text>
</a>
</g>
</g>
<!-- dir_4444a2805dd47f54c48baa085de65586&#45;&gt;dir_96dbfe7dd99a9efcae498b2c6b3f22c1 -->
<g id="edge2" class="edge">
<title>dir_4444a2805dd47f54c48baa085de65586&#45;&gt;dir_96dbfe7dd99a9efcae498b2c6b3f22c1</title>
<path fill="none" stroke="black" d="M162.78,-320.59C119.36,-307.06 38.86,-281.39 35,-276 25.69,-262.98 27.51,-254.14 35,-240 42.54,-225.76 55.82,-214.63 69.3,-206.33"/>
<polygon fill="black" stroke="black" points="71.19,-209.28 78.13,-201.28 67.71,-203.21 71.19,-209.28"/>
<g id="a_edge2&#45;headlabel"><a xlink:href="dir_000009_000002.html" target="_top" xlink:title="7">
<text text-anchor="middle" x="69.48" y="-211.03" font-family="Helvetica,sans-Serif" font-size="10.00">7</text>
</a>
</g>
</g>
<!-- dir_d95a473c4a82bfe2070f79612962da98 -->
<g id="node6" class="node">
<title>dir_d95a473c4a82bfe2070f79612962da98</title>
<g id="a_node6"><a xlink:href="dir_d95a473c4a82bfe2070f79612962da98.html" target="_top" xlink:title="mapper">
<polygon fill="#a2b4d6" stroke="#404040" points="197,-132 135,-132 135,-96 197,-96 197,-132"/>
<text text-anchor="middle" x="166" y="-111.5" font-family="Helvetica,sans-Serif" font-size="10.00">mapper</text>
</a>
</g>
</g>
<!-- dir_4444a2805dd47f54c48baa085de65586&#45;&gt;dir_d95a473c4a82bfe2070f79612962da98 -->
<g id="edge4" class="edge">
<title>dir_4444a2805dd47f54c48baa085de65586&#45;&gt;dir_d95a473c4a82bfe2070f79612962da98</title>
<path fill="none" stroke="black" d="M195.41,-311.53C198.3,-301.29 201.55,-288.04 203,-276 208.81,-227.96 190.88,-173.3 177.99,-141.62"/>
<polygon fill="black" stroke="black" points="181.12,-140.04 174.02,-132.18 174.67,-142.75 181.12,-140.04"/>
<g id="a_edge4&#45;headlabel"><a xlink:href="dir_000009_000007.html" target="_top" xlink:title="4">
<text text-anchor="middle" x="185.13" y="-139.75" font-family="Helvetica,sans-Serif" font-size="10.00">4</text>
</a>
</g>
</g>
<!-- dir_9ab2a4730925cdc689635cbce48f5fb0 -->
<g id="node8" class="node">
<title>dir_9ab2a4730925cdc689635cbce48f5fb0</title>
<g id="a_node8"><a xlink:href="dir_9ab2a4730925cdc689635cbce48f5fb0.html" target="_top" xlink:title="table">
<polygon fill="#a2b4d6" stroke="#404040" points="194,-276 140,-276 140,-240 194,-240 194,-276"/>
<text text-anchor="middle" x="167" y="-255.5" font-family="Helvetica,sans-Serif" font-size="10.00">table</text>
</a>
</g>
</g>
<!-- dir_4444a2805dd47f54c48baa085de65586&#45;&gt;dir_9ab2a4730925cdc689635cbce48f5fb0 -->
<g id="edge3" class="edge">
<title>dir_4444a2805dd47f54c48baa085de65586&#45;&gt;dir_9ab2a4730925cdc689635cbce48f5fb0</title>
<path fill="none" stroke="black" d="M184.31,-311.7C181.75,-303.9 178.67,-294.51 175.82,-285.83"/>
<polygon fill="black" stroke="black" points="179.07,-284.51 172.62,-276.1 172.42,-286.7 179.07,-284.51"/>
<g id="a_edge3&#45;headlabel"><a xlink:href="dir_000009_000010.html" target="_top" xlink:title="3">
<text text-anchor="middle" x="182.89" y="-284.54" font-family="Helvetica,sans-Serif" font-size="10.00">3</text>
</a>
</g>
</g>
<!-- dir_96dbfe7dd99a9efcae498b2c6b3f22c1&#45;&gt;dir_d95a473c4a82bfe2070f79612962da98 -->
<g id="edge5" class="edge">
<title>dir_96dbfe7dd99a9efcae498b2c6b3f22c1&#45;&gt;dir_d95a473c4a82bfe2070f79612962da98</title>
<path fill="none" stroke="black" d="M126.1,-167.7C132.39,-159.39 140.05,-149.28 146.96,-140.14"/>
<polygon fill="black" stroke="black" points="149.8,-142.19 153.05,-132.1 144.22,-137.96 149.8,-142.19"/>
<g id="a_edge5&#45;headlabel"><a xlink:href="dir_000002_000007.html" target="_top" xlink:title="2">
<text text-anchor="middle" x="149.9" y="-144.27" font-family="Helvetica,sans-Serif" font-size="10.00">2</text>
</a>
</g>
</g>
<!-- dir_ff4788c606722a22cdbc33d788a79d47 -->
<g id="node7" class="node">
<title>dir_ff4788c606722a22cdbc33d788a79d47</title>
<g id="a_node7"><a xlink:href="dir_ff4788c606722a22cdbc33d788a79d47.html" target="_top" xlink:title="primitive">
<polygon fill="#a2b4d6" stroke="#404040" points="181,-60 97,-60 97,-24 181,-24 181,-60"/>
<text text-anchor="middle" x="139" y="-39.5" font-family="Helvetica,sans-Serif" font-size="10.00">primitive</text>
</a>
</g>
</g>
<!-- dir_96dbfe7dd99a9efcae498b2c6b3f22c1&#45;&gt;dir_ff4788c606722a22cdbc33d788a79d47 -->
<g id="edge6" class="edge">
<title>dir_96dbfe7dd99a9efcae498b2c6b3f22c1&#45;&gt;dir_ff4788c606722a22cdbc33d788a79d47</title>
<path fill="none" stroke="black" d="M115.01,-167.86C117.23,-149.87 121.15,-120.83 126,-96 127.66,-87.5 129.79,-78.31 131.85,-70.01"/>
<polygon fill="black" stroke="black" points="135.3,-70.65 134.37,-60.09 128.51,-68.92 135.3,-70.65"/>
<g id="a_edge6&#45;headlabel"><a xlink:href="dir_000002_000008.html" target="_top" xlink:title="4">
<text text-anchor="middle" x="137.16" y="-72.33" font-family="Helvetica,sans-Serif" font-size="10.00">4</text>
</a>
</g>
</g>
<!-- dir_efa0ca88bf165e461d58222aed34655b -->
<g id="node4" class="node">
<title>dir_efa0ca88bf165e461d58222aed34655b</title>
<g id="a_node4"><a xlink:href="dir_efa0ca88bf165e461d58222aed34655b.html" target="_top" xlink:title="data">
<polygon fill="#a2b4d6" stroke="#404040" points="123,-348 69,-348 69,-312 123,-312 123,-348"/>
<text text-anchor="middle" x="96" y="-327.5" font-family="Helvetica,sans-Serif" font-size="10.00">data</text>
</a>
</g>
</g>
<!-- dir_0f8520461cc9a434e5abc54627e26c4f -->
<g id="node5" class="node">
<title>dir_0f8520461cc9a434e5abc54627e26c4f</title>
<g id="a_node5"><a xlink:href="dir_0f8520461cc9a434e5abc54627e26c4f.html" target="_top" xlink:title="iterator">
<polygon fill="#a2b4d6" stroke="#404040" points="121.5,-276 44.5,-276 44.5,-240 121.5,-240 121.5,-276"/>
<text text-anchor="middle" x="83" y="-255.5" font-family="Helvetica,sans-Serif" font-size="10.00">iterator</text>
</a>
</g>
</g>
<!-- dir_0f8520461cc9a434e5abc54627e26c4f&#45;&gt;dir_96dbfe7dd99a9efcae498b2c6b3f22c1 -->
<g id="edge7" class="edge">
<title>dir_0f8520461cc9a434e5abc54627e26c4f&#45;&gt;dir_96dbfe7dd99a9efcae498b2c6b3f22c1</title>
<path fill="none" stroke="black" d="M90.42,-239.7C93.79,-231.81 97.87,-222.3 101.62,-213.55"/>
<polygon fill="black" stroke="black" points="104.95,-214.67 105.67,-204.1 98.51,-211.92 104.95,-214.67"/>
<g id="a_edge7&#45;headlabel"><a xlink:href="dir_000004_000002.html" target="_top" xlink:title="3">
<text text-anchor="middle" x="106.14" y="-216.6" font-family="Helvetica,sans-Serif" font-size="10.00">3</text>
</a>
</g>
</g>
<!-- dir_d95a473c4a82bfe2070f79612962da98&#45;&gt;dir_ff4788c606722a22cdbc33d788a79d47 -->
<g id="edge8" class="edge">
<title>dir_d95a473c4a82bfe2070f79612962da98&#45;&gt;dir_ff4788c606722a22cdbc33d788a79d47</title>
<path fill="none" stroke="black" d="M159.33,-95.7C156.29,-87.81 152.62,-78.3 149.24,-69.55"/>
<polygon fill="black" stroke="black" points="152.46,-68.17 145.6,-60.1 145.93,-70.69 152.46,-68.17"/>
<g id="a_edge8&#45;headlabel"><a xlink:href="dir_000007_000008.html" target="_top" xlink:title="1">
<text text-anchor="middle" x="156.4" y="-68.01" font-family="Helvetica,sans-Serif" font-size="10.00">1</text>
</a>
</g>
</g>
<!-- dir_9ab2a4730925cdc689635cbce48f5fb0&#45;&gt;dir_96dbfe7dd99a9efcae498b2c6b3f22c1 -->
<g id="edge9" class="edge">
<title>dir_9ab2a4730925cdc689635cbce48f5fb0&#45;&gt;dir_96dbfe7dd99a9efcae498b2c6b3f22c1</title>
<path fill="none" stroke="black" d="M153.65,-239.7C147.24,-231.39 139.44,-221.28 132.39,-212.14"/>
<polygon fill="black" stroke="black" points="135.07,-209.88 126.19,-204.1 129.53,-214.16 135.07,-209.88"/>
<g id="a_edge9&#45;headlabel"><a xlink:href="dir_000010_000002.html" target="_top" xlink:title="2">
<text text-anchor="middle" x="139.52" y="-208.5" font-family="Helvetica,sans-Serif" font-size="10.00">2</text>
</a>
</g>
</g>
<!-- dir_9ab2a4730925cdc689635cbce48f5fb0&#45;&gt;dir_d95a473c4a82bfe2070f79612962da98 -->
<g id="edge10" class="edge">
<title>dir_9ab2a4730925cdc689635cbce48f5fb0&#45;&gt;dir_d95a473c4a82bfe2070f79612962da98</title>
<path fill="none" stroke="black" d="M166.88,-239.87C166.71,-215.67 166.4,-171.21 166.19,-142.39"/>
<polygon fill="black" stroke="black" points="169.69,-142.16 166.12,-132.19 162.69,-142.21 169.69,-142.16"/>
<g id="a_edge10&#45;headlabel"><a xlink:href="dir_000010_000007.html" target="_top" xlink:title="1">
<text text-anchor="middle" x="172.56" y="-143.24" font-family="Helvetica,sans-Serif" font-size="10.00">1</text>
</a>
</g>
</g>
</g>
</svg>
