<?xml version="1.0" encoding="UTF-8" standalone="no"?>
<!DOCTYPE svg PUBLIC "-//W3C//DTD SVG 1.1//EN"
 "http://www.w3.org/Graphics/SVG/1.1/DTD/svg11.dtd">
<!-- Generated by graphviz version 2.49.3 (20211027.1534)
 -->
<!-- Title: fragment_table.h Pages: 1 -->
<!--zoomable 420 -->
<svg id="main" version="1.1" xmlns="http://www.w3.org/2000/svg" xmlns:xlink="http://www.w3.org/1999/xlink" xml:space="preserve" onload="init(evt)">
<style type="text/css"><![CDATA[
.edge:hover path { stroke: red; }
.edge:hover polygon { stroke: red; fill: red; }
]]></style>
<script type="text/javascript"><![CDATA[
var edges = document.getElementsByTagName('g');
if (edges && edges.length) {
  for (var i=0;i<edges.length;i++) {
    if (edges[i].id.substr(0,4)=='edge') {
      edges[i].setAttribute('class','edge');
    }
  }
}
]]></script>
        <defs>
                <circle id="rim" cx="0" cy="0" r="7"/>
                <circle id="rim2" cx="0" cy="0" r="3.5"/>
                <g id="zoomPlus">
                        <use xlink:href="#rim" fill="#404040">
                                <set attributeName="fill" to="#808080" begin="zoomplus.mouseover" end="zoomplus.mouseout"/>
                        </use>
                        <path d="M-4,0h8M0,-4v8" fill="none" stroke="white" stroke-width="1.5" pointer-events="none"/>
                </g>
                <g id="zoomMin">
                        <use xlink:href="#rim" fill="#404040">
                                <set attributeName="fill" to="#808080" begin="zoomminus.mouseover" end="zoomminus.mouseout"/>
                        </use>
                        <path d="M-4,0h8" fill="none" stroke="white" stroke-width="1.5" pointer-events="none"/>
                </g>
                <g id="dirArrow">
                        <path fill="none" stroke="white" stroke-width="1.5" d="M0,-3.0v7 M-2.5,-0.5L0,-3.0L2.5,-0.5"/>
                </g>
               <g id="resetDef">
                       <use xlink:href="#rim2" fill="#404040">
                               <set attributeName="fill" to="#808080" begin="reset.mouseover" end="reset.mouseout"/>
                       </use>
               </g>
        </defs>

<script type="text/javascript">
var viewWidth = 1325;
var viewHeight = 420;
var sectionId = 'dynsection-0';
</script>
<script xlink:href="svgpan.js"/>
<svg id="graph" class="graph">
<g id="viewport">
<title>fragment_table.h</title>
<polygon fill="white" stroke="transparent" points="-4,4 -4,-416 1320.53,-416 1320.53,4 -4,4"/>
<!-- Node1 -->
<g id="node1" class="node">
<title>Node1</title>
<g id="a_node1"><a xlink:title=" ">
<polygon fill="#bfbfbf" stroke="black" points="1179.53,-392.5 1179.53,-411.5 1316.53,-411.5 1316.53,-392.5 1179.53,-392.5"/>
<text text-anchor="middle" x="1248.03" y="-399.5" font-family="Helvetica,sans-Serif" font-size="10.00">fragment_table.h</text>
</a>
</g>
</g>
<!-- Node2 -->
<g id="node2" class="node">
<title>Node2</title>
<g id="a_node2"><a xlink:href="utils_8h.html" target="_top" xlink:title=" ">
<polygon fill="white" stroke="black" points="725.03,-56.5 725.03,-75.5 817.03,-75.5 817.03,-56.5 725.03,-56.5"/>
<text text-anchor="middle" x="771.03" y="-63.5" font-family="Helvetica,sans-Serif" font-size="10.00">../utils.h</text>
</a>
</g>
</g>
<!-- Node1&#45;&gt;Node2 -->
<g id="edge1" class="edge">
<title>Node1&#45;&gt;Node2</title>
<path fill="none" stroke="midnightblue" d="M1252.34,-392.41C1261.08,-374.2 1280.03,-330.18 1280.03,-291 1280.03,-291 1280.03,-291 1280.03,-233 1280.03,-138.56 959.32,-89.46 827.04,-73.22"/>
<polygon fill="midnightblue" stroke="midnightblue" points="827.44,-69.74 817.09,-72.02 826.6,-76.69 827.44,-69.74"/>
</g>
<!-- Node5 -->
<g id="node5" class="node">
<title>Node5</title>
<g id="a_node5"><a xlink:href="table_8h.html" target="_top" xlink:title=" ">
<polygon fill="white" stroke="black" points="1182.53,-336.5 1182.53,-355.5 1251.53,-355.5 1251.53,-336.5 1182.53,-336.5"/>
<text text-anchor="middle" x="1217.03" y="-343.5" font-family="Helvetica,sans-Serif" font-size="10.00">table.h</text>
</a>
</g>
</g>
<!-- Node1&#45;&gt;Node5 -->
<g id="edge4" class="edge">
<title>Node1&#45;&gt;Node5</title>
<path fill="none" stroke="midnightblue" d="M1242.91,-392.08C1238.62,-384.61 1232.37,-373.72 1227.08,-364.52"/>
<polygon fill="midnightblue" stroke="midnightblue" points="1230.06,-362.68 1222.05,-355.75 1223.99,-366.17 1230.06,-362.68"/>
</g>
<!-- Node3 -->
<g id="node3" class="node">
<title>Node3</title>
<g id="a_node3"><a xlink:title=" ">
<polygon fill="white" stroke="#bfbfbf" points="407.53,-0.5 407.53,-19.5 484.53,-19.5 484.53,-0.5 407.53,-0.5"/>
<text text-anchor="middle" x="446.03" y="-7.5" font-family="Helvetica,sans-Serif" font-size="10.00">stddef.h</text>
</a>
</g>
</g>
<!-- Node2&#45;&gt;Node3 -->
<g id="edge2" class="edge">
<title>Node2&#45;&gt;Node3</title>
<path fill="none" stroke="midnightblue" d="M724.81,-57.32C663.88,-47.2 557.16,-29.47 494.93,-19.13"/>
<polygon fill="midnightblue" stroke="midnightblue" points="495.4,-15.66 484.96,-17.47 494.25,-22.56 495.4,-15.66"/>
</g>
<!-- Node4 -->
<g id="node4" class="node">
<title>Node4</title>
<g id="a_node4"><a xlink:title=" ">
<polygon fill="white" stroke="#bfbfbf" points="806.53,-0.5 806.53,-19.5 883.53,-19.5 883.53,-0.5 806.53,-0.5"/>
<text text-anchor="middle" x="845.03" y="-7.5" font-family="Helvetica,sans-Serif" font-size="10.00">stdint.h</text>
</a>
</g>
</g>
<!-- Node2&#45;&gt;Node4 -->
<g id="edge3" class="edge">
<title>Node2&#45;&gt;Node4</title>
<path fill="none" stroke="midnightblue" d="M782.91,-56.32C794.18,-48.11 811.31,-35.6 824.73,-25.81"/>
<polygon fill="midnightblue" stroke="midnightblue" points="826.9,-28.56 832.92,-19.83 822.78,-22.9 826.9,-28.56"/>
</g>
<!-- Node5&#45;&gt;Node4 -->
<g id="edge40" class="edge">
<title>Node5&#45;&gt;Node4</title>
<path fill="none" stroke="midnightblue" d="M1220.27,-336.28C1234.27,-296.98 1285.26,-134.84 1205.03,-56 1162.02,-13.74 981.96,-9.52 893.92,-10.08"/>
<polygon fill="midnightblue" stroke="midnightblue" points="893.63,-6.58 883.66,-10.17 893.69,-13.58 893.63,-6.58"/>
</g>
<!-- Node6 -->
<g id="node6" class="node">
<title>Node6</title>
<g id="a_node6"><a xlink:href="mapper_8h.html" target="_top" xlink:title=" ">
<polygon fill="white" stroke="black" points="807.03,-280.5 807.03,-299.5 959.03,-299.5 959.03,-280.5 807.03,-280.5"/>
<text text-anchor="middle" x="883.03" y="-287.5" font-family="Helvetica,sans-Serif" font-size="10.00">../mapper/mapper.h</text>
</a>
</g>
</g>
<!-- Node5&#45;&gt;Node6 -->
<g id="edge5" class="edge">
<title>Node5&#45;&gt;Node6</title>
<path fill="none" stroke="midnightblue" d="M1182.23,-339.37C1126.33,-330.34 1015.74,-312.46 945.79,-301.15"/>
<polygon fill="midnightblue" stroke="midnightblue" points="946.21,-297.67 935.78,-299.53 945.09,-304.58 946.21,-297.67"/>
</g>
<!-- Node6&#45;&gt;Node3 -->
<g id="edge6" class="edge">
<title>Node6&#45;&gt;Node3</title>
<path fill="none" stroke="midnightblue" d="M806.68,-287.44C592.42,-282.06 1.03,-259.87 1.03,-179 1.03,-179 1.03,-179 1.03,-121 1.03,-90.9 -3.08,-75.29 20.03,-56 48.51,-32.21 291.55,-18.16 397.26,-13.13"/>
<polygon fill="midnightblue" stroke="midnightblue" points="397.52,-16.62 407.35,-12.65 397.19,-9.63 397.52,-16.62"/>
</g>
<!-- Node6&#45;&gt;Node4 -->
<g id="edge7" class="edge">
<title>Node6&#45;&gt;Node4</title>
<path fill="none" stroke="midnightblue" d="M930.34,-280.45C959.51,-273.7 996.79,-262.29 1026.03,-244 1118.81,-185.97 1257.15,-138.3 1185.03,-56 1166.13,-34.44 983.17,-19.85 893.75,-13.94"/>
<polygon fill="midnightblue" stroke="midnightblue" points="893.79,-10.44 883.58,-13.28 893.33,-17.42 893.79,-10.44"/>
</g>
<!-- Node7 -->
<g id="node7" class="node">
<title>Node7</title>
<g id="a_node7"><a xlink:title=" ">
<polygon fill="white" stroke="#bfbfbf" points="233.53,-224.5 233.53,-243.5 302.53,-243.5 302.53,-224.5 233.53,-224.5"/>
<text text-anchor="middle" x="268.03" y="-231.5" font-family="Helvetica,sans-Serif" font-size="10.00">stdio.h</text>
</a>
</g>
</g>
<!-- Node6&#45;&gt;Node7 -->
<g id="edge8" class="edge">
<title>Node6&#45;&gt;Node7</title>
<path fill="none" stroke="midnightblue" d="M806.78,-285.42C697.83,-279.74 491.48,-266.9 317.03,-244 315.72,-243.83 314.4,-243.65 313.07,-243.45"/>
<polygon fill="midnightblue" stroke="midnightblue" points="313.18,-239.93 302.75,-241.83 312.09,-246.84 313.18,-239.93"/>
</g>
<!-- Node8 -->
<g id="node8" class="node">
<title>Node8</title>
<g id="a_node8"><a xlink:href="canary__mapper_8h.html" target="_top" xlink:title=" ">
<polygon fill="white" stroke="black" points="215.53,-56.5 215.53,-75.5 344.53,-75.5 344.53,-56.5 215.53,-56.5"/>
<text text-anchor="middle" x="280.03" y="-63.5" font-family="Helvetica,sans-Serif" font-size="10.00">canary_mapper.h</text>
</a>
</g>
</g>
<!-- Node6&#45;&gt;Node8 -->
<g id="edge9" class="edge">
<title>Node6&#45;&gt;Node8</title>
<path fill="none" stroke="midnightblue" d="M822.32,-280.44C719.51,-263.99 507.01,-221.35 350.03,-132 327.86,-119.38 307.06,-98.46 293.98,-83.77"/>
<polygon fill="midnightblue" stroke="midnightblue" points="296.41,-81.23 287.23,-75.95 291.12,-85.81 296.41,-81.23"/>
</g>
<!-- Node9 -->
<g id="node9" class="node">
<title>Node9</title>
<g id="a_node9"><a xlink:href="curl__mapper_8h.html" target="_top" xlink:title=" ">
<polygon fill="white" stroke="black" points="826.03,-224.5 826.03,-243.5 940.03,-243.5 940.03,-224.5 826.03,-224.5"/>
<text text-anchor="middle" x="883.03" y="-231.5" font-family="Helvetica,sans-Serif" font-size="10.00">curl_mapper.h</text>
</a>
</g>
</g>
<!-- Node6&#45;&gt;Node9 -->
<g id="edge12" class="edge">
<title>Node6&#45;&gt;Node9</title>
<path fill="none" stroke="midnightblue" d="M883.03,-280.08C883.03,-273.01 883.03,-262.86 883.03,-253.99"/>
<polygon fill="midnightblue" stroke="midnightblue" points="886.53,-253.75 883.03,-243.75 879.53,-253.75 886.53,-253.75"/>
</g>
<!-- Node18 -->
<g id="node18" class="node">
<title>Node18</title>
<g id="a_node18"><a xlink:href="mmap__full__mapper_8h.html" target="_top" xlink:title=" ">
<polygon fill="white" stroke="black" points="873.03,-56.5 873.03,-75.5 1025.03,-75.5 1025.03,-56.5 873.03,-56.5"/>
<text text-anchor="middle" x="949.03" y="-63.5" font-family="Helvetica,sans-Serif" font-size="10.00">mmap_full_mapper.h</text>
</a>
</g>
</g>
<!-- Node6&#45;&gt;Node18 -->
<g id="edge31" class="edge">
<title>Node6&#45;&gt;Node18</title>
<path fill="none" stroke="midnightblue" d="M907.5,-280.48C941.98,-266.98 1003.48,-237.07 1029.03,-188 1050.09,-147.54 1001.3,-103.77 970.96,-81.62"/>
<polygon fill="midnightblue" stroke="midnightblue" points="972.79,-78.62 962.6,-75.71 968.75,-84.34 972.79,-78.62"/>
</g>
<!-- Node19 -->
<g id="node19" class="node">
<title>Node19</title>
<g id="a_node19"><a xlink:href="mmap__mapper_8h.html" target="_top" xlink:title=" ">
<polygon fill="white" stroke="black" points="1043.03,-56.5 1043.03,-75.5 1157.03,-75.5 1157.03,-56.5 1043.03,-56.5"/>
<text text-anchor="middle" x="1100.03" y="-63.5" font-family="Helvetica,sans-Serif" font-size="10.00">mmap_mapper.h</text>
</a>
</g>
</g>
<!-- Node6&#45;&gt;Node19 -->
<g id="edge34" class="edge">
<title>Node6&#45;&gt;Node19</title>
<path fill="none" stroke="midnightblue" d="M920.78,-280.49C945.59,-273.57 977.82,-261.97 1002.03,-244 1056.97,-203.2 1085.05,-121.97 1095.33,-85.49"/>
<polygon fill="midnightblue" stroke="midnightblue" points="1098.74,-86.27 1097.95,-75.7 1091.98,-84.45 1098.74,-86.27"/>
</g>
<!-- Node20 -->
<g id="node20" class="node">
<title>Node20</title>
<g id="a_node20"><a xlink:href="static__mapper_8h.html" target="_top" xlink:title=" ">
<polygon fill="white" stroke="black" points="29.53,-56.5 29.53,-75.5 158.53,-75.5 158.53,-56.5 29.53,-56.5"/>
<text text-anchor="middle" x="94.03" y="-63.5" font-family="Helvetica,sans-Serif" font-size="10.00">static_mapper.h</text>
</a>
</g>
</g>
<!-- Node6&#45;&gt;Node20 -->
<g id="edge37" class="edge">
<title>Node6&#45;&gt;Node20</title>
<path fill="none" stroke="midnightblue" d="M806.81,-287.36C644.42,-283.36 274.96,-271.34 225.03,-244 159.1,-207.9 117.17,-122.86 101.26,-85.34"/>
<polygon fill="midnightblue" stroke="midnightblue" points="104.35,-83.63 97.32,-75.71 97.87,-86.29 104.35,-83.63"/>
</g>
<!-- Node8&#45;&gt;Node3 -->
<g id="edge10" class="edge">
<title>Node8&#45;&gt;Node3</title>
<path fill="none" stroke="midnightblue" d="M306.33,-56.44C334.38,-47.32 378.97,-32.81 410.21,-22.65"/>
<polygon fill="midnightblue" stroke="midnightblue" points="411.42,-25.94 419.85,-19.52 409.25,-19.28 411.42,-25.94"/>
</g>
<!-- Node8&#45;&gt;Node4 -->
<g id="edge11" class="edge">
<title>Node8&#45;&gt;Node4</title>
<path fill="none" stroke="midnightblue" d="M344.59,-57.03C347.78,-56.68 350.94,-56.33 354.03,-56 515.94,-38.74 708.32,-22.28 796.5,-14.97"/>
<polygon fill="midnightblue" stroke="midnightblue" points="796.8,-18.45 806.47,-14.14 796.22,-11.48 796.8,-18.45"/>
</g>
<!-- Node9&#45;&gt;Node4 -->
<g id="edge30" class="edge">
<title>Node9&#45;&gt;Node4</title>
<path fill="none" stroke="midnightblue" d="M925.74,-224.49C1022.23,-203.47 1242.84,-144.33 1166.03,-56 1131.39,-16.17 975.17,-10.55 894.14,-10.39"/>
<polygon fill="midnightblue" stroke="midnightblue" points="893.69,-6.89 883.7,-10.4 893.7,-13.89 893.69,-6.89"/>
</g>
<!-- Node10 -->
<g id="node10" class="node">
<title>Node10</title>
<g id="a_node10"><a xlink:href="buffer_8h.html" target="_top" xlink:title=" ">
<polygon fill="white" stroke="black" points="359.03,-112.5 359.03,-131.5 533.03,-131.5 533.03,-112.5 359.03,-112.5"/>
<text text-anchor="middle" x="446.03" y="-119.5" font-family="Helvetica,sans-Serif" font-size="10.00">../primitive/buffer.h</text>
</a>
</g>
</g>
<!-- Node9&#45;&gt;Node10 -->
<g id="edge13" class="edge">
<title>Node9&#45;&gt;Node10</title>
<path fill="none" stroke="midnightblue" d="M841.87,-224.47C800.95,-215.84 736.45,-201.83 681.03,-188 611.58,-170.67 531.35,-147.88 484.87,-134.4"/>
<polygon fill="midnightblue" stroke="midnightblue" points="485.79,-131.02 475.21,-131.58 483.83,-137.74 485.79,-131.02"/>
</g>
<!-- Node13 -->
<g id="node13" class="node">
<title>Node13</title>
<g id="a_node13"><a xlink:href="lru__hashmap_8h.html" target="_top" xlink:title=" ">
<polygon fill="white" stroke="black" points="690.03,-168.5 690.03,-187.5 902.03,-187.5 902.03,-168.5 690.03,-168.5"/>
<text text-anchor="middle" x="796.03" y="-175.5" font-family="Helvetica,sans-Serif" font-size="10.00">../primitive/lru_hashmap.h</text>
</a>
</g>
</g>
<!-- Node9&#45;&gt;Node13 -->
<g id="edge21" class="edge">
<title>Node9&#45;&gt;Node13</title>
<path fill="none" stroke="midnightblue" d="M869.05,-224.32C855.48,-215.9 834.64,-202.97 818.7,-193.07"/>
<polygon fill="midnightblue" stroke="midnightblue" points="820.31,-189.95 809.97,-187.65 816.62,-195.9 820.31,-189.95"/>
</g>
<!-- Node17 -->
<g id="node17" class="node">
<title>Node17</title>
<g id="a_node17"><a xlink:title=" ">
<polygon fill="white" stroke="#bfbfbf" points="920.53,-168.5 920.53,-187.5 1019.53,-187.5 1019.53,-168.5 920.53,-168.5"/>
<text text-anchor="middle" x="970.03" y="-175.5" font-family="Helvetica,sans-Serif" font-size="10.00">curl/curl.h</text>
</a>
</g>
</g>
<!-- Node9&#45;&gt;Node17 -->
<g id="edge29" class="edge">
<title>Node9&#45;&gt;Node17</title>
<path fill="none" stroke="midnightblue" d="M897,-224.32C910.57,-215.9 931.41,-202.97 947.35,-193.07"/>
<polygon fill="midnightblue" stroke="midnightblue" points="949.43,-195.9 956.08,-187.65 945.74,-189.95 949.43,-195.9"/>
</g>
<!-- Node10&#45;&gt;Node2 -->
<g id="edge14" class="edge">
<title>Node10&#45;&gt;Node2</title>
<path fill="none" stroke="midnightblue" d="M497.52,-112.44C556.74,-102.6 653.64,-86.5 714.78,-76.34"/>
<polygon fill="midnightblue" stroke="midnightblue" points="715.73,-79.74 725.02,-74.64 714.59,-72.83 715.73,-79.74"/>
</g>
<!-- Node10&#45;&gt;Node3 -->
<g id="edge19" class="edge">
<title>Node10&#45;&gt;Node3</title>
<path fill="none" stroke="midnightblue" d="M359.01,-116.05C298.87,-110.6 226.33,-99.28 207.03,-76 201.35,-69.16 201.35,-62.84 207.03,-56 230.71,-27.45 334.48,-16.89 397.24,-13.08"/>
<polygon fill="midnightblue" stroke="midnightblue" points="397.53,-16.57 407.32,-12.5 397.14,-9.58 397.53,-16.57"/>
</g>
<!-- Node10&#45;&gt;Node4 -->
<g id="edge20" class="edge">
<title>Node10&#45;&gt;Node4</title>
<path fill="none" stroke="midnightblue" d="M487.14,-112.45C526.57,-104.02 587.67,-90.35 640.03,-76 700.61,-59.4 770.1,-36.54 810.63,-22.83"/>
<polygon fill="midnightblue" stroke="midnightblue" points="811.94,-26.08 820.28,-19.54 809.69,-19.45 811.94,-26.08"/>
</g>
<!-- Node11 -->
<g id="node11" class="node">
<title>Node11</title>
<g id="a_node11"><a xlink:href="superblock_8h.html" target="_top" xlink:title=" ">
<polygon fill="white" stroke="black" points="362.53,-56.5 362.53,-75.5 529.53,-75.5 529.53,-56.5 362.53,-56.5"/>
<text text-anchor="middle" x="446.03" y="-63.5" font-family="Helvetica,sans-Serif" font-size="10.00">../data/superblock.h</text>
</a>
</g>
</g>
<!-- Node10&#45;&gt;Node11 -->
<g id="edge15" class="edge">
<title>Node10&#45;&gt;Node11</title>
<path fill="none" stroke="midnightblue" d="M446.03,-112.08C446.03,-105.01 446.03,-94.86 446.03,-85.99"/>
<polygon fill="midnightblue" stroke="midnightblue" points="449.53,-85.75 446.03,-75.75 442.53,-85.75 449.53,-85.75"/>
</g>
<!-- Node12 -->
<g id="node12" class="node">
<title>Node12</title>
<g id="a_node12"><a xlink:title=" ">
<polygon fill="white" stroke="#bfbfbf" points="547.03,-56.5 547.03,-75.5 631.03,-75.5 631.03,-56.5 547.03,-56.5"/>
<text text-anchor="middle" x="589.03" y="-63.5" font-family="Helvetica,sans-Serif" font-size="10.00">stdbool.h</text>
</a>
</g>
</g>
<!-- Node10&#45;&gt;Node12 -->
<g id="edge18" class="edge">
<title>Node10&#45;&gt;Node12</title>
<path fill="none" stroke="midnightblue" d="M468.68,-112.44C492.43,-103.48 529.93,-89.31 556.76,-79.18"/>
<polygon fill="midnightblue" stroke="midnightblue" points="558.35,-82.32 566.47,-75.52 555.88,-75.77 558.35,-82.32"/>
</g>
<!-- Node11&#45;&gt;Node3 -->
<g id="edge16" class="edge">
<title>Node11&#45;&gt;Node3</title>
<path fill="none" stroke="midnightblue" d="M446.03,-56.08C446.03,-49.01 446.03,-38.86 446.03,-29.99"/>
<polygon fill="midnightblue" stroke="midnightblue" points="449.53,-29.75 446.03,-19.75 442.53,-29.75 449.53,-29.75"/>
</g>
<!-- Node11&#45;&gt;Node4 -->
<g id="edge17" class="edge">
<title>Node11&#45;&gt;Node4</title>
<path fill="none" stroke="midnightblue" d="M509.25,-56.44C588.94,-45.66 724.2,-27.35 796.33,-17.59"/>
<polygon fill="midnightblue" stroke="midnightblue" points="797.06,-21.02 806.5,-16.21 796.12,-14.09 797.06,-21.02"/>
</g>
<!-- Node13&#45;&gt;Node2 -->
<g id="edge22" class="edge">
<title>Node13&#45;&gt;Node2</title>
<path fill="none" stroke="midnightblue" d="M824.81,-168.46C855.44,-157.81 897.3,-137.82 880.03,-112 867.94,-93.94 847.14,-83.12 826.93,-76.64"/>
<polygon fill="midnightblue" stroke="midnightblue" points="827.68,-73.21 817.1,-73.8 825.73,-79.94 827.68,-73.21"/>
</g>
<!-- Node13&#45;&gt;Node4 -->
<g id="edge27" class="edge">
<title>Node13&#45;&gt;Node4</title>
<path fill="none" stroke="midnightblue" d="M840.72,-168.48C861.25,-162.09 883.72,-151.02 896.03,-132 911.59,-107.93 877.91,-101.08 864.03,-76 856.02,-61.53 851.08,-43.35 848.25,-29.89"/>
<polygon fill="midnightblue" stroke="midnightblue" points="851.65,-29.06 846.34,-19.89 844.77,-30.37 851.65,-29.06"/>
</g>
<!-- Node14 -->
<g id="node14" class="node">
<title>Node14</title>
<g id="a_node14"><a xlink:href="ref__count_8h.html" target="_top" xlink:title=" ">
<polygon fill="white" stroke="black" points="551.53,-112.5 551.53,-131.5 650.53,-131.5 650.53,-112.5 551.53,-112.5"/>
<text text-anchor="middle" x="601.03" y="-119.5" font-family="Helvetica,sans-Serif" font-size="10.00">ref_count.h</text>
</a>
</g>
</g>
<!-- Node13&#45;&gt;Node14 -->
<g id="edge23" class="edge">
<title>Node13&#45;&gt;Node14</title>
<path fill="none" stroke="midnightblue" d="M765.13,-168.44C731.75,-159.2 678.43,-144.44 641.68,-134.26"/>
<polygon fill="midnightblue" stroke="midnightblue" points="642.35,-130.81 631.78,-131.52 640.48,-137.56 642.35,-130.81"/>
</g>
<!-- Node15 -->
<g id="node15" class="node">
<title>Node15</title>
<g id="a_node15"><a xlink:title=" ">
<polygon fill="white" stroke="#bfbfbf" points="669.03,-112.5 669.03,-131.5 753.03,-131.5 753.03,-112.5 669.03,-112.5"/>
<text text-anchor="middle" x="711.03" y="-119.5" font-family="Helvetica,sans-Serif" font-size="10.00">pthread.h</text>
</a>
</g>
</g>
<!-- Node13&#45;&gt;Node15 -->
<g id="edge26" class="edge">
<title>Node13&#45;&gt;Node15</title>
<path fill="none" stroke="midnightblue" d="M782.37,-168.32C769.11,-159.9 748.76,-146.97 733.18,-137.07"/>
<polygon fill="midnightblue" stroke="midnightblue" points="734.97,-134.06 724.65,-131.65 731.21,-139.97 734.97,-134.06"/>
</g>
<!-- Node16 -->
<g id="node16" class="node">
<title>Node16</title>
<g id="a_node16"><a xlink:title=" ">
<polygon fill="white" stroke="#bfbfbf" points="771.53,-112.5 771.53,-131.5 870.53,-131.5 870.53,-112.5 771.53,-112.5"/>
<text text-anchor="middle" x="821.03" y="-119.5" font-family="Helvetica,sans-Serif" font-size="10.00">sys/types.h</text>
</a>
</g>
</g>
<!-- Node13&#45;&gt;Node16 -->
<g id="edge28" class="edge">
<title>Node13&#45;&gt;Node16</title>
<path fill="none" stroke="midnightblue" d="M800.15,-168.08C803.54,-160.77 808.44,-150.18 812.64,-141.1"/>
<polygon fill="midnightblue" stroke="midnightblue" points="815.95,-142.3 816.97,-131.75 809.6,-139.36 815.95,-142.3"/>
</g>
<!-- Node14&#45;&gt;Node2 -->
<g id="edge24" class="edge">
<title>Node14&#45;&gt;Node2</title>
<path fill="none" stroke="midnightblue" d="M627.96,-112.44C656.69,-103.32 702.35,-88.81 734.35,-78.65"/>
<polygon fill="midnightblue" stroke="midnightblue" points="735.74,-81.88 744.21,-75.52 733.62,-75.21 735.74,-81.88"/>
</g>
<!-- Node14&#45;&gt;Node3 -->
<g id="edge25" class="edge">
<title>Node14&#45;&gt;Node3</title>
<path fill="none" stroke="midnightblue" d="M612.92,-112.33C629.21,-99.42 654.84,-74.65 640.03,-56 622.22,-33.59 546.28,-21.34 494.86,-15.49"/>
<polygon fill="midnightblue" stroke="midnightblue" points="494.93,-11.97 484.61,-14.37 494.17,-18.93 494.93,-11.97"/>
</g>
<!-- Node18&#45;&gt;Node3 -->
<g id="edge32" class="edge">
<title>Node18&#45;&gt;Node3</title>
<path fill="none" stroke="midnightblue" d="M872.9,-56.83C768.16,-45.58 582.59,-25.66 494.73,-16.23"/>
<polygon fill="midnightblue" stroke="midnightblue" points="495.09,-12.75 484.77,-15.16 494.34,-19.71 495.09,-12.75"/>
</g>
<!-- Node18&#45;&gt;Node4 -->
<g id="edge33" class="edge">
<title>Node18&#45;&gt;Node4</title>
<path fill="none" stroke="midnightblue" d="M932.32,-56.32C915.71,-47.7 890.02,-34.36 870.8,-24.39"/>
<polygon fill="midnightblue" stroke="midnightblue" points="872.18,-21.16 861.69,-19.65 868.96,-27.37 872.18,-21.16"/>
</g>
<!-- Node19&#45;&gt;Node3 -->
<g id="edge35" class="edge">
<title>Node19&#45;&gt;Node3</title>
<path fill="none" stroke="midnightblue" d="M1042.81,-56.99C1039.84,-56.64 1036.9,-56.31 1034.03,-56 834.42,-34.77 595.66,-19.66 494.81,-13.75"/>
<polygon fill="midnightblue" stroke="midnightblue" points="494.81,-10.25 484.62,-13.16 494.4,-17.24 494.81,-10.25"/>
</g>
<!-- Node19&#45;&gt;Node4 -->
<g id="edge36" class="edge">
<title>Node19&#45;&gt;Node4</title>
<path fill="none" stroke="midnightblue" d="M1059.62,-56.44C1014.52,-46.89 941.56,-31.44 893.44,-21.25"/>
<polygon fill="midnightblue" stroke="midnightblue" points="894.08,-17.81 883.57,-19.16 892.63,-24.66 894.08,-17.81"/>
</g>
<!-- Node20&#45;&gt;Node3 -->
<g id="edge38" class="edge">
<title>Node20&#45;&gt;Node3</title>
<path fill="none" stroke="midnightblue" d="M149.8,-56.44C218.07,-45.97 332.57,-28.41 397.4,-18.46"/>
<polygon fill="midnightblue" stroke="midnightblue" points="398.01,-21.91 407.37,-16.93 396.95,-14.99 398.01,-21.91"/>
</g>
<!-- Node20&#45;&gt;Node4 -->
<g id="edge39" class="edge">
<title>Node20&#45;&gt;Node4</title>
<path fill="none" stroke="midnightblue" d="M158.55,-59.76C174.4,-58.5 191.33,-57.18 207.03,-56 426.7,-39.5 689.06,-21.55 796.02,-14.3"/>
<polygon fill="midnightblue" stroke="midnightblue" points="796.44,-17.78 806.18,-13.62 795.96,-10.8 796.44,-17.78"/>
</g>
</g>
</svg>
        <g id="navigator" transform="translate(0 0)" fill="#404254">
                <rect fill="#f2f5e9" fill-opacity="0.5" stroke="#606060" stroke-width=".5" x="0" y="0" width="60" height="60"/>
                <use id="zoomplus" xlink:href="#zoomPlus" x="17" y="9" onmousedown="handleZoom(evt,'in')"/>
                <use id="zoomminus" xlink:href="#zoomMin" x="42" y="9" onmousedown="handleZoom(evt,'out')"/>
                <use id="reset" xlink:href="#resetDef" x="30" y="36" onmousedown="handleReset()"/>
                <g id="arrowUp" xlink:href="#dirArrow" transform="translate(30 24)" onmousedown="handlePan(0,-1)">
                  <use xlink:href="#rim" fill="#404040">
                        <set attributeName="fill" to="#808080" begin="arrowUp.mouseover" end="arrowUp.mouseout"/>
                  </use>
                  <path fill="none" stroke="white" stroke-width="1.5" d="M0,-3.0v7 M-2.5,-0.5L0,-3.0L2.5,-0.5"/>
                </g>
                <g id="arrowRight" xlink:href="#dirArrow" transform="rotate(90) translate(36 -43)" onmousedown="handlePan(1,0)">
                  <use xlink:href="#rim" fill="#404040">
                        <set attributeName="fill" to="#808080" begin="arrowRight.mouseover" end="arrowRight.mouseout"/>
                  </use>
                  <path fill="none" stroke="white" stroke-width="1.5" d="M0,-3.0v7 M-2.5,-0.5L0,-3.0L2.5,-0.5"/>
                </g>
                <g id="arrowDown" xlink:href="#dirArrow" transform="rotate(180) translate(-30 -48)" onmousedown="handlePan(0,1)">
                  <use xlink:href="#rim" fill="#404040">
                        <set attributeName="fill" to="#808080" begin="arrowDown.mouseover" end="arrowDown.mouseout"/>
                  </use>
                  <path fill="none" stroke="white" stroke-width="1.5" d="M0,-3.0v7 M-2.5,-0.5L0,-3.0L2.5,-0.5"/>
                </g>
                <g id="arrowLeft" xlink:href="#dirArrow" transform="rotate(270) translate(-36 17)" onmousedown="handlePan(-1,0)">
                  <use xlink:href="#rim" fill="#404040">
                        <set attributeName="fill" to="#808080" begin="arrowLeft.mouseover" end="arrowLeft.mouseout"/>
                  </use>
                  <path fill="none" stroke="white" stroke-width="1.5" d="M0,-3.0v7 M-2.5,-0.5L0,-3.0L2.5,-0.5"/>
                </g>
        </g>
        <svg viewBox="0 0 15 15" width="100%" height="30px" preserveAspectRatio="xMaxYMin meet">
         <g id="arrow_out" transform="scale(0.3 0.3)">
          <a xlink:href="fragment__table_8h__incl_org.svg" target="_base">
           <rect id="button" ry="5" rx="5" y="6" x="6" height="38" width="38"
                fill="#f2f5e9" fill-opacity="0.5" stroke="#606060" stroke-width="1.0"/>
           <path id="arrow"
             d="M 11.500037,31.436501 C 11.940474,20.09759 22.043105,11.32322 32.158766,21.979434 L 37.068811,17.246167 C 37.068811,17.246167 37.088388,32 37.088388,32 L 22.160133,31.978069 C 22.160133,31.978069 26.997745,27.140456 26.997745,27.140456 C 18.528582,18.264221 13.291696,25.230495 11.500037,31.436501 z"
             style="fill:#404040;"/>
          </a>
         </g>
        </svg>
</svg>
