<?xml version="1.0" encoding="UTF-8" standalone="no"?>
<!DOCTYPE svg PUBLIC "-//W3C//DTD SVG 1.1//EN"
 "http://www.w3.org/Graphics/SVG/1.1/DTD/svg11.dtd">
<!-- Generated by graphviz version 8.0.5 (20230430.1635)
 -->
<!-- Title: Graph Legend Pages: 1 -->
<svg width="714pt" height="1148708pt"
 viewBox="0.00 0.00 713.53 1148708.15" xmlns="http://www.w3.org/2000/svg" xmlns:xlink="http://www.w3.org/1999/xlink">
<g id="graph0" class="graph" transform="scale(1 1) rotate(0) translate(4 1148704.15)">
<title>Graph Legend</title>
<!-- Node9 -->
<g id="node1" class="node">
<title>Node9</title>
<g id="a_node1"><a xlink:title=" ">
<polygon fill="#999999" stroke="#666666" points="446.28,-18.5 362.78,-18.5 362.78,0 446.28,0 446.28,-18.5"/>
<text text-anchor="middle" x="404.53" y="-5" font-family="Helvetica,sans-Serif" font-size="10.00">Inherited</text>
</a>
</g>
</g>
<!-- Node10 -->
<g id="node2" class="node">
<title>Node10</title>
<g id="a_node2"><a xlink:href="url.html" xlink:title=" ">
<polygon fill="white" stroke="#666666" points="146.03,-574359.33 55.03,-574359.33 55.03,-574340.83 146.03,-574340.83 146.03,-574359.33"/>
<text text-anchor="middle" x="100.53" y="-574345.83" font-family="Helvetica,sans-Serif" font-size="10.00">PublicBase</text>
</a>
</g>
</g>
<!-- Node10&#45;&gt;Node9 -->
<g id="edge1" class="edge">
<title>Node10&#45;&gt;Node9</title>
<path fill="none" stroke="#63b8ff" d="M100.52,-574330.1C98.81,-570540.23 -156.98,-452.07 154.53,-65 180.16,-33.15 298.09,-18.8 362.41,-13.25"/>
<polygon fill="#63b8ff" stroke="#63b8ff" points="97.02,-574329.78 100.52,-574339.78 104.02,-574329.78 97.02,-574329.78"/>
</g>
<!-- Node11 -->
<g id="node3" class="node">
<title>Node11</title>
<g id="a_node3"><a xlink:href="url.html" xlink:title=" ">
<polygon fill="#fff0f0" stroke="red" points="142.28,-1148700.15 58.78,-1148700.15 58.78,-1148681.65 142.28,-1148681.65 142.28,-1148700.15"/>
<text text-anchor="middle" x="100.53" y="-1148686.65" font-family="Helvetica,sans-Serif" font-size="10.00">Truncated</text>
</a>
</g>
</g>
<!-- Node11&#45;&gt;Node10 -->
<g id="edge2" class="edge">
<title>Node11&#45;&gt;Node10</title>
<path fill="none" stroke="#63b8ff" d="M100.53,-1148670.94C100.53,-1144889.6 100.53,-576927.94 100.53,-574359.81"/>
<polygon fill="#63b8ff" stroke="#63b8ff" points="97.03,-1148670.6 100.53,-1148680.6 104.03,-1148670.6 97.03,-1148670.6"/>
</g>
<!-- Node13 -->
<g id="node4" class="node">
<title>Node13</title>
<polygon fill="white" stroke="#666666" points="277.28,-574371.32 163.78,-574371.32 163.78,-574328.83 277.28,-574328.83 277.28,-574371.32"/>
<text text-anchor="middle" x="220.53" y="-574357.82" font-family="Helvetica,sans-Serif" font-size="10.00">ProtectedBase</text>
</g>
<!-- Node13&#45;&gt;Node9 -->
<g id="edge3" class="edge">
<title>Node13&#45;&gt;Node9</title>
<path fill="none" stroke="darkgreen" d="M220.53,-574317.76C221.09,-569455.6 286.53,-65 286.53,-65 303.18,-38.92 335.8,-25.08 362.53,-17.84"/>
<polygon fill="darkgreen" stroke="darkgreen" points="217.03,-574317.64 220.53,-574327.64 224.03,-574317.64 217.03,-574317.64"/>
</g>
<!-- Node14 -->
<g id="node5" class="node">
<title>Node14</title>
<polygon fill="white" stroke="#666666" points="393.78,-574363.08 295.28,-574363.08 295.28,-574337.08 393.78,-574337.08 393.78,-574363.08"/>
<text text-anchor="middle" x="344.53" y="-574349.58" font-family="Helvetica,sans-Serif" font-size="10.00">PrivateBase</text>
</g>
<!-- Node14&#45;&gt;Node9 -->
<g id="edge4" class="edge">
<title>Node14&#45;&gt;Node9</title>
<path fill="none" stroke="#8b1a1a" d="M344.52,-574326C343.88,-570177.4 257.05,-8010.4 402.53,-65 402.83,-48.64 403.63,-29.55 404.12,-18.78"/>
<polygon fill="#8b1a1a" stroke="#8b1a1a" points="341.02,-574325.85 344.53,-574335.85 348.02,-574325.85 341.02,-574325.85"/>
</g>
<!-- Node15 -->
<g id="node6" class="node">
<title>Node15</title>
<g id="a_node6"><a xlink:title=" ">
<polygon fill="#e0e0e0" stroke="#999999" points="517.53,-916654.08 411.53,-916654.08 411.53,-232046.08 517.53,-232046.08 517.53,-916654.08"/>
<text text-anchor="middle" x="464.53" y="-916640.58" font-family="Helvetica,sans-Serif" font-size="10.00">Undocumented</text>
</a>
</g>
</g>
<!-- Node15&#45;&gt;Node9 -->
<g id="edge5" class="edge">
<title>Node15&#45;&gt;Node9</title>
<path fill="none" stroke="#63b8ff" d="M483.81,-232034.7C482.3,-109138.2 467,-247.84 417.53,-36.5 416.04,-30.16 412.79,-23.6 409.91,-18.62"/>
<polygon fill="#63b8ff" stroke="#63b8ff" points="480.31,-232034.6 483.81,-232044.6 487.31,-232034.6 480.31,-232034.6"/>
</g>
<!-- Node16 -->
<g id="node7" class="node">
<title>Node16</title>
<polygon fill="white" stroke="#666666" points="641.53,-1148635.15 535.53,-1148635.15 535.53,-65 641.53,-65 641.53,-1148635.15"/>
<text text-anchor="middle" x="588.53" y="-1148621.65" font-family="Helvetica,sans-Serif" font-size="10.00">Templ&lt; int &gt;</text>
</g>
<!-- Node16&#45;&gt;Node9 -->
<g id="edge6" class="edge">
<title>Node16&#45;&gt;Node9</title>
<path fill="none" stroke="#63b8ff" d="M535.03,-78786.72C529.88,-31119.97 526.53,-65 526.53,-65 508.99,-37.91 474.53,-24.1 446.69,-17.13"/>
<polygon fill="#63b8ff" stroke="#63b8ff" points="531.53,-78786.63 535.03,-78796.63 538.53,-78786.63 531.53,-78786.63"/>
</g>
<!-- Node17 -->
<g id="node8" class="node">
<title>Node17</title>
<polygon fill="white" stroke="#666666" points="634.03,-1148700.15 543.03,-1148700.15 543.03,-1148681.65 634.03,-1148681.65 634.03,-1148700.15"/>
<text text-anchor="middle" x="588.53" y="-1148686.65" font-family="Helvetica,sans-Serif" font-size="10.00">Templ&lt; T &gt;</text>
</g>
<!-- Node17&#45;&gt;Node16 -->
<g id="edge7" class="edge">
<title>Node17&#45;&gt;Node16</title>
<path fill="none" stroke="orange" stroke-dasharray="5,2" d="M588.53,-1148670.63C588.53,-1148661.91 588.53,-1148650.24 588.53,-1148635.63"/>
<polygon fill="orange" stroke="orange" points="585.03,-1148670.6 588.53,-1148680.6 592.03,-1148670.6 585.03,-1148670.6"/>
<text text-anchor="middle" x="614.78" y="-1148654.15" font-family="Helvetica,sans-Serif" font-size="10.00">&lt; int &gt;</text>
</g>
<!-- Node18 -->
<g id="node9" class="node">
<title>Node18</title>
<polygon fill="white" stroke="#666666" points="705.53,-574359.33 659.53,-574359.33 659.53,-574340.83 705.53,-574340.83 705.53,-574359.33"/>
<text text-anchor="middle" x="682.53" y="-574345.83" font-family="Helvetica,sans-Serif" font-size="10.00">Used</text>
</g>
<!-- Node18&#45;&gt;Node9 -->
<g id="edge8" class="edge">
<title>Node18&#45;&gt;Node9</title>
<path fill="none" stroke="#9a32cd" stroke-dasharray="5,2" d="M682.53,-574330.08C682.31,-570537.66 650.53,-65 650.53,-65 625.45,-33.73 510.22,-19.17 446.76,-13.42"/>
<polygon fill="#9a32cd" stroke="#9a32cd" points="679.03,-574329.77 682.53,-574339.77 686.03,-574329.77 679.03,-574329.77"/>
<text text-anchor="middle" x="662.78" y="-37.5" font-family="Helvetica,sans-Serif" font-size="10.00">m_usedClass</text>
</g>
</g>
</svg>
