<?xml version="1.0" encoding="UTF-8" standalone="no"?>
<!DOCTYPE svg PUBLIC "-//W3C//DTD SVG 1.1//EN"
 "http://www.w3.org/Graphics/SVG/1.1/DTD/svg11.dtd">
<!-- Generated by graphviz version 7.0.4 (20221203.1631)
 -->
<!-- Title: Graph Legend Pages: 1 -->
<svg width="665pt" height="159pt"
 viewBox="0.00 0.00 664.50 159.00" xmlns="http://www.w3.org/2000/svg" xmlns:xlink="http://www.w3.org/1999/xlink">
<g id="graph0" class="graph" transform="scale(1 1) rotate(0) translate(4 155)">
<title>Graph Legend</title>
<!-- Node9 -->
<g id="node1" class="node">
<title>Node9</title>
<g id="a_node1"><a xlink:title=" ">
<polygon fill="#999999" stroke="#666666" points="394,-19 310,-19 310,0 394,0 394,-19"/>
<text text-anchor="middle" x="352" y="-7" font-family="Helvetica,sans-Serif" font-size="10.00">Inherited</text>
</a>
</g>
</g>
<!-- Node10 -->
<g id="node2" class="node">
<title>Node10</title>
<g id="a_node2"><a xlink:href="url.html" xlink:title=" ">
<polygon fill="white" stroke="#666666" points="92,-85 0,-85 0,-66 92,-66 92,-85"/>
<text text-anchor="middle" x="46" y="-73" font-family="Helvetica,sans-Serif" font-size="10.00">PublicBase</text>
</a>
</g>
</g>
<!-- Node10&#45;&gt;Node9 -->
<g id="edge1" class="edge">
<title>Node10&#45;&gt;Node9</title>
<path fill="none" stroke="#63b8ff" d="M99.99,-63.21C159.89,-50.68 255.29,-30.73 309.91,-19.3"/>
<polygon fill="#63b8ff" stroke="#63b8ff" points="99.42,-59.75 90.35,-65.22 100.86,-66.6 99.42,-59.75"/>
</g>
<!-- Node11 -->
<g id="node3" class="node">
<title>Node11</title>
<g id="a_node3"><a xlink:href="url.html" xlink:title=" ">
<polygon fill="#fff0f0" stroke="red" points="88,-151 4,-151 4,-132 88,-132 88,-151"/>
<text text-anchor="middle" x="46" y="-139" font-family="Helvetica,sans-Serif" font-size="10.00">Truncated</text>
</a>
</g>
</g>
<!-- Node11&#45;&gt;Node10 -->
<g id="edge2" class="edge">
<title>Node11&#45;&gt;Node10</title>
<path fill="none" stroke="#63b8ff" d="M46,-120.18C46,-108.44 46,-94.27 46,-85.32"/>
<polygon fill="#63b8ff" stroke="#63b8ff" points="42.5,-120.09 46,-130.09 49.5,-120.09 42.5,-120.09"/>
</g>
<!-- Node13 -->
<g id="node4" class="node">
<title>Node13</title>
<polygon fill="white" stroke="#666666" points="224,-85 110,-85 110,-66 224,-66 224,-85"/>
<text text-anchor="middle" x="167" y="-73" font-family="Helvetica,sans-Serif" font-size="10.00">ProtectedBase</text>
</g>
<!-- Node13&#45;&gt;Node9 -->
<g id="edge3" class="edge">
<title>Node13&#45;&gt;Node9</title>
<path fill="none" stroke="darkgreen" d="M203.32,-61.93C239.53,-49.41 294.22,-30.49 326.2,-19.43"/>
<polygon fill="darkgreen" stroke="darkgreen" points="202.46,-58.53 194.15,-65.11 204.75,-65.14 202.46,-58.53"/>
</g>
<!-- Node14 -->
<g id="node5" class="node">
<title>Node14</title>
<polygon fill="white" stroke="#666666" points="341.5,-85 242.5,-85 242.5,-66 341.5,-66 341.5,-85"/>
<text text-anchor="middle" x="292" y="-73" font-family="Helvetica,sans-Serif" font-size="10.00">PrivateBase</text>
</g>
<!-- Node14&#45;&gt;Node9 -->
<g id="edge4" class="edge">
<title>Node14&#45;&gt;Node9</title>
<path fill="none" stroke="#8b1a1a" d="M307.96,-57.48C319.47,-45.2 334.53,-29.13 343.73,-19.32"/>
<polygon fill="#8b1a1a" stroke="#8b1a1a" points="305.66,-54.81 301.38,-64.5 310.77,-59.6 305.66,-54.81"/>
</g>
<!-- Node15 -->
<g id="node6" class="node">
<title>Node15</title>
<g id="a_node6"><a xlink:title=" ">
<polygon fill="#e0e0e0" stroke="#999999" points="466.5,-85 359.5,-85 359.5,-66 466.5,-66 466.5,-85"/>
<text text-anchor="middle" x="413" y="-73" font-family="Helvetica,sans-Serif" font-size="10.00">Undocumented</text>
</a>
</g>
</g>
<!-- Node15&#45;&gt;Node9 -->
<g id="edge5" class="edge">
<title>Node15&#45;&gt;Node9</title>
<path fill="none" stroke="#63b8ff" d="M396.78,-57.48C385.08,-45.2 369.76,-29.13 360.41,-19.32"/>
<polygon fill="#63b8ff" stroke="#63b8ff" points="394.04,-59.68 403.47,-64.51 399.11,-54.85 394.04,-59.68"/>
</g>
<!-- Node16 -->
<g id="node7" class="node">
<title>Node16</title>
<polygon fill="white" stroke="#666666" points="591.5,-85 484.5,-85 484.5,-66 591.5,-66 591.5,-85"/>
<text text-anchor="middle" x="538" y="-73" font-family="Helvetica,sans-Serif" font-size="10.00">Templ&lt; int &gt;</text>
</g>
<!-- Node16&#45;&gt;Node9 -->
<g id="edge6" class="edge">
<title>Node16&#45;&gt;Node9</title>
<path fill="none" stroke="#63b8ff" d="M501.48,-61.93C465.08,-49.41 410.09,-30.49 377.94,-19.43"/>
<polygon fill="#63b8ff" stroke="#63b8ff" points="500.11,-65.16 510.71,-65.11 502.39,-58.55 500.11,-65.16"/>
</g>
<!-- Node17 -->
<g id="node8" class="node">
<title>Node17</title>
<polygon fill="white" stroke="#666666" points="584,-151 492,-151 492,-132 584,-132 584,-151"/>
<text text-anchor="middle" x="538" y="-139" font-family="Helvetica,sans-Serif" font-size="10.00">Templ&lt; T &gt;</text>
</g>
<!-- Node17&#45;&gt;Node16 -->
<g id="edge7" class="edge">
<title>Node17&#45;&gt;Node16</title>
<path fill="none" stroke="orange" stroke-dasharray="5,2" d="M538,-120.18C538,-108.44 538,-94.27 538,-85.32"/>
<polygon fill="orange" stroke="orange" points="534.5,-120.09 538,-130.09 541.5,-120.09 534.5,-120.09"/>
<text text-anchor="middle" x="564.5" y="-106" font-family="Helvetica,sans-Serif" font-size="10.00">&lt; int &gt;</text>
</g>
<!-- Node18 -->
<g id="node9" class="node">
<title>Node18</title>
<polygon fill="white" stroke="#666666" points="656.5,-85 609.5,-85 609.5,-66 656.5,-66 656.5,-85"/>
<text text-anchor="middle" x="633" y="-73" font-family="Helvetica,sans-Serif" font-size="10.00">Used</text>
</g>
<!-- Node18&#45;&gt;Node9 -->
<g id="edge8" class="edge">
<title>Node18&#45;&gt;Node9</title>
<path fill="none" stroke="#9a32cd" stroke-dasharray="5,2" d="M598.39,-65.43C521.18,-46.72 441.84,-29.49 394.42,-19.41"/>
<polygon fill="#9a32cd" stroke="#9a32cd" points="597.25,-68.76 607.79,-67.72 598.9,-61.95 597.25,-68.76"/>
<text text-anchor="middle" x="560.5" y="-40" font-family="Helvetica,sans-Serif" font-size="10.00">m_usedClass</text>
</g>
</g>
</svg>
