<?xml version="1.0" encoding="UTF-8" standalone="no"?>
<!DOCTYPE svg PUBLIC "-//W3C//DTD SVG 1.1//EN"
 "http://www.w3.org/Graphics/SVG/1.1/DTD/svg11.dtd">
<!-- Generated by graphviz version 2.49.3 (20211027.1534)
 -->
<!-- Title: hsqs.h Pages: 1 -->
<!--zoomable 498 -->
<svg id="main" version="1.1" xmlns="http://www.w3.org/2000/svg" xmlns:xlink="http://www.w3.org/1999/xlink" xml:space="preserve" onload="init(evt)">
<style type="text/css"><![CDATA[
.edge:hover path { stroke: red; }
.edge:hover polygon { stroke: red; fill: red; }
]]></style>
<script type="text/javascript"><![CDATA[
var edges = document.getElementsByTagName('g');
if (edges && edges.length) {
  for (var i=0;i<edges.length;i++) {
    if (edges[i].id.substr(0,4)=='edge') {
      edges[i].setAttribute('class','edge');
    }
  }
}
]]></script>
        <defs>
                <circle id="rim" cx="0" cy="0" r="7"/>
                <circle id="rim2" cx="0" cy="0" r="3.5"/>
                <g id="zoomPlus">
                        <use xlink:href="#rim" fill="#404040">
                                <set attributeName="fill" to="#808080" begin="zoomplus.mouseover" end="zoomplus.mouseout"/>
                        </use>
                        <path d="M-4,0h8M0,-4v8" fill="none" stroke="white" stroke-width="1.5" pointer-events="none"/>
                </g>
                <g id="zoomMin">
                        <use xlink:href="#rim" fill="#404040">
                                <set attributeName="fill" to="#808080" begin="zoomminus.mouseover" end="zoomminus.mouseout"/>
                        </use>
                        <path d="M-4,0h8" fill="none" stroke="white" stroke-width="1.5" pointer-events="none"/>
                </g>
                <g id="dirArrow">
                        <path fill="none" stroke="white" stroke-width="1.5" d="M0,-3.0v7 M-2.5,-0.5L0,-3.0L2.5,-0.5"/>
                </g>
               <g id="resetDef">
                       <use xlink:href="#rim2" fill="#404040">
                               <set attributeName="fill" to="#808080" begin="reset.mouseover" end="reset.mouseout"/>
                       </use>
               </g>
        </defs>

<script type="text/javascript">
var viewWidth = 1711;
var viewHeight = 498;
var sectionId = 'dynsection-0';
</script>
<script xlink:href="svgpan.js"/>
<svg id="graph" class="graph">
<g id="viewport">
<title>hsqs.h</title>
<polygon fill="white" stroke="transparent" points="-4,4 -4,-494 1707.29,-494 1707.29,4 -4,4"/>
<!-- Node1 -->
<g id="node1" class="node">
<title>Node1</title>
<g id="a_node1"><a xlink:title=" ">
<polygon fill="#bfbfbf" stroke="black" points="576.79,-470.5 576.79,-489.5 638.79,-489.5 638.79,-470.5 576.79,-470.5"/>
<text text-anchor="middle" x="607.79" y="-477.5" font-family="Helvetica,sans-Serif" font-size="10.00">hsqs.h</text>
</a>
</g>
</g>
<!-- Node2 -->
<g id="node2" class="node">
<title>Node2</title>
<g id="a_node2"><a xlink:href="compression__options__context_8h.html" target="_top" xlink:title=" ">
<polygon fill="white" stroke="black" points="843.29,-168.5 843.29,-198.5 1002.29,-198.5 1002.29,-168.5 843.29,-168.5"/>
<text text-anchor="start" x="851.29" y="-186.5" font-family="Helvetica,sans-Serif" font-size="10.00">context/compression</text>
<text text-anchor="middle" x="922.79" y="-175.5" font-family="Helvetica,sans-Serif" font-size="10.00">_options_context.h</text>
</a>
</g>
</g>
<!-- Node1&#45;&gt;Node2 -->
<g id="edge1" class="edge">
<title>Node1&#45;&gt;Node2</title>
<path fill="none" stroke="midnightblue" d="M639.22,-476.59C695.95,-471.67 812.48,-458.79 843.79,-434 914.15,-378.3 922.96,-260.03 923.32,-208.9"/>
<polygon fill="midnightblue" stroke="midnightblue" points="926.82,-208.77 923.28,-198.78 919.82,-208.79 926.82,-208.77"/>
</g>
<!-- Node4 -->
<g id="node4" class="node">
<title>Node4</title>
<g id="a_node4"><a xlink:href="utils_8h.html" target="_top" xlink:title=" ">
<polygon fill="white" stroke="black" points="665.79,-56.5 665.79,-75.5 757.79,-75.5 757.79,-56.5 665.79,-56.5"/>
<text text-anchor="middle" x="711.79" y="-63.5" font-family="Helvetica,sans-Serif" font-size="10.00">../utils.h</text>
</a>
</g>
</g>
<!-- Node1&#45;&gt;Node4 -->
<g id="edge66" class="edge">
<title>Node1&#45;&gt;Node4</title>
<path fill="none" stroke="midnightblue" d="M576.65,-479.24C459.35,-479.3 50.79,-471.76 50.79,-363.5 50.79,-363.5 50.79,-363.5 50.79,-300 50.79,-155.23 181.32,-163.05 316.79,-112 455.93,-59.57 504.12,-94.69 655.48,-76.06"/>
<polygon fill="midnightblue" stroke="midnightblue" points="656.13,-79.5 665.6,-74.75 655.24,-72.56 656.13,-79.5"/>
</g>
<!-- Node6 -->
<g id="node6" class="node">
<title>Node6</title>
<g id="a_node6"><a xlink:title=" ">
<polygon fill="white" stroke="#bfbfbf" points="1128.29,-0.5 1128.29,-19.5 1205.29,-19.5 1205.29,-0.5 1128.29,-0.5"/>
<text text-anchor="middle" x="1166.79" y="-7.5" font-family="Helvetica,sans-Serif" font-size="10.00">stdint.h</text>
</a>
</g>
</g>
<!-- Node1&#45;&gt;Node6 -->
<g id="edge67" class="edge">
<title>Node1&#45;&gt;Node6</title>
<path fill="none" stroke="midnightblue" d="M639.05,-478.72C807.33,-476.79 1597.79,-462.46 1597.79,-363.5 1597.79,-363.5 1597.79,-363.5 1597.79,-121 1597.79,-42.84 1328.29,-19.51 1215.51,-13.17"/>
<polygon fill="midnightblue" stroke="midnightblue" points="1215.59,-9.67 1205.42,-12.62 1215.21,-16.66 1215.59,-9.67"/>
</g>
<!-- Node9 -->
<g id="node9" class="node">
<title>Node9</title>
<g id="a_node9"><a xlink:href="superblock__context_8h.html" target="_top" xlink:title=" ">
<polygon fill="white" stroke="black" points="358.79,-347.5 358.79,-377.5 510.79,-377.5 510.79,-347.5 358.79,-347.5"/>
<text text-anchor="start" x="366.79" y="-365.5" font-family="Helvetica,sans-Serif" font-size="10.00">context/superblock</text>
<text text-anchor="middle" x="434.79" y="-354.5" font-family="Helvetica,sans-Serif" font-size="10.00">_context.h</text>
</a>
</g>
</g>
<!-- Node1&#45;&gt;Node9 -->
<g id="edge13" class="edge">
<title>Node1&#45;&gt;Node9</title>
<path fill="none" stroke="midnightblue" d="M576.35,-477.84C517.81,-474.96 395.68,-465.25 369.79,-434 354.97,-416.12 375.6,-396.79 397.44,-382.91"/>
<polygon fill="midnightblue" stroke="midnightblue" points="399.36,-385.84 406.13,-377.68 395.75,-379.84 399.36,-385.84"/>
</g>
<!-- Node10 -->
<g id="node10" class="node">
<title>Node10</title>
<g id="a_node10"><a xlink:href="mapper_8h.html" target="_top" xlink:title=" ">
<polygon fill="white" stroke="black" points="251.79,-291.5 251.79,-310.5 403.79,-310.5 403.79,-291.5 251.79,-291.5"/>
<text text-anchor="middle" x="327.79" y="-298.5" font-family="Helvetica,sans-Serif" font-size="10.00">../mapper/mapper.h</text>
</a>
</g>
</g>
<!-- Node1&#45;&gt;Node10 -->
<g id="edge47" class="edge">
<title>Node1&#45;&gt;Node10</title>
<path fill="none" stroke="midnightblue" d="M576.46,-477.38C517.34,-473.69 392.53,-462.63 361.79,-434 330.13,-404.52 326.35,-349.83 326.77,-320.97"/>
<polygon fill="midnightblue" stroke="midnightblue" points="330.28,-320.76 327.13,-310.64 323.29,-320.52 330.28,-320.76"/>
</g>
<!-- Node22 -->
<g id="node22" class="node">
<title>Node22</title>
<g id="a_node22"><a xlink:href="error_8h.html" target="_top" xlink:title=" ">
<polygon fill="white" stroke="black" points="567.29,-291.5 567.29,-310.5 636.29,-310.5 636.29,-291.5 567.29,-291.5"/>
<text text-anchor="middle" x="601.79" y="-298.5" font-family="Helvetica,sans-Serif" font-size="10.00">error.h</text>
</a>
</g>
</g>
<!-- Node1&#45;&gt;Node22 -->
<g id="edge45" class="edge">
<title>Node1&#45;&gt;Node22</title>
<path fill="none" stroke="midnightblue" d="M608.03,-470.34C608.56,-449.23 609.54,-393.44 606.79,-347 606.28,-338.36 605.28,-328.83 604.31,-320.77"/>
<polygon fill="midnightblue" stroke="midnightblue" points="607.75,-320.08 603.01,-310.6 600.81,-320.97 607.75,-320.08"/>
</g>
<!-- Node23 -->
<g id="node23" class="node">
<title>Node23</title>
<g id="a_node23"><a xlink:href="fragment__table_8h.html" target="_top" xlink:title=" ">
<polygon fill="white" stroke="black" points="378.79,-414.5 378.79,-433.5 560.79,-433.5 560.79,-414.5 378.79,-414.5"/>
<text text-anchor="middle" x="469.79" y="-421.5" font-family="Helvetica,sans-Serif" font-size="10.00">table/fragment_table.h</text>
</a>
</g>
</g>
<!-- Node1&#45;&gt;Node23 -->
<g id="edge48" class="edge">
<title>Node1&#45;&gt;Node23</title>
<path fill="none" stroke="midnightblue" d="M585.92,-470.44C563.01,-461.48 526.81,-447.31 500.92,-437.18"/>
<polygon fill="midnightblue" stroke="midnightblue" points="502.14,-433.9 491.55,-433.52 499.59,-440.42 502.14,-433.9"/>
</g>
<!-- Node24 -->
<g id="node24" class="node">
<title>Node24</title>
<g id="a_node24"><a xlink:href="table_8h.html" target="_top" xlink:title=" ">
<polygon fill="white" stroke="black" points="529.29,-353 529.29,-372 598.29,-372 598.29,-353 529.29,-353"/>
<text text-anchor="middle" x="563.79" y="-360" font-family="Helvetica,sans-Serif" font-size="10.00">table.h</text>
</a>
</g>
</g>
<!-- Node1&#45;&gt;Node24 -->
<g id="edge53" class="edge">
<title>Node1&#45;&gt;Node24</title>
<path fill="none" stroke="midnightblue" d="M604.48,-470.32C597.35,-451.59 580.38,-407.05 570.76,-381.79"/>
<polygon fill="midnightblue" stroke="midnightblue" points="573.96,-380.38 567.13,-372.28 567.42,-382.87 573.96,-380.38"/>
</g>
<!-- Node25 -->
<g id="node25" class="node">
<title>Node25</title>
<g id="a_node25"><a xlink:href="xattr__table_8h.html" target="_top" xlink:title=" ">
<polygon fill="white" stroke="black" points="675.29,-414.5 675.29,-433.5 834.29,-433.5 834.29,-414.5 675.29,-414.5"/>
<text text-anchor="middle" x="754.79" y="-421.5" font-family="Helvetica,sans-Serif" font-size="10.00">table/xattr_table.h</text>
</a>
</g>
</g>
<!-- Node1&#45;&gt;Node25 -->
<g id="edge54" class="edge">
<title>Node1&#45;&gt;Node25</title>
<path fill="none" stroke="midnightblue" d="M631.08,-470.44C655.6,-461.44 694.38,-447.19 721.99,-437.05"/>
<polygon fill="midnightblue" stroke="midnightblue" points="723.42,-440.25 731.6,-433.52 721.01,-433.68 723.42,-440.25"/>
</g>
<!-- Node28 -->
<g id="node28" class="node">
<title>Node28</title>
<g id="a_node28"><a xlink:title=" ">
<polygon fill="white" stroke="#bfbfbf" points="1626.29,-414.5 1626.29,-433.5 1703.29,-433.5 1703.29,-414.5 1626.29,-414.5"/>
<text text-anchor="middle" x="1664.79" y="-421.5" font-family="Helvetica,sans-Serif" font-size="10.00">stdlib.h</text>
</a>
</g>
</g>
<!-- Node1&#45;&gt;Node28 -->
<g id="edge68" class="edge">
<title>Node1&#45;&gt;Node28</title>
<path fill="none" stroke="midnightblue" d="M639.12,-479C762.96,-478.71 1230.11,-474.8 1611.79,-434 1613.09,-433.86 1614.41,-433.71 1615.75,-433.55"/>
<polygon fill="midnightblue" stroke="midnightblue" points="1616.64,-436.96 1626.08,-432.14 1615.7,-430.02 1616.64,-436.96"/>
</g>
<!-- Node3 -->
<g id="node3" class="node">
<title>Node3</title>
<g id="a_node3"><a xlink:href="buffer_8h.html" target="_top" xlink:title=" ">
<polygon fill="white" stroke="black" points="967.79,-112.5 967.79,-131.5 1119.79,-131.5 1119.79,-112.5 967.79,-112.5"/>
<text text-anchor="middle" x="1043.79" y="-119.5" font-family="Helvetica,sans-Serif" font-size="10.00">../buffer/buffer.h</text>
</a>
</g>
</g>
<!-- Node2&#45;&gt;Node3 -->
<g id="edge2" class="edge">
<title>Node2&#45;&gt;Node3</title>
<path fill="none" stroke="midnightblue" d="M951.46,-168.4C971.31,-158.64 997.55,-145.74 1016.98,-136.18"/>
<polygon fill="midnightblue" stroke="midnightblue" points="1018.75,-139.21 1026.18,-131.66 1015.66,-132.93 1018.75,-139.21"/>
</g>
<!-- Node2&#45;&gt;Node4 -->
<g id="edge12" class="edge">
<title>Node2&#45;&gt;Node4</title>
<path fill="none" stroke="midnightblue" d="M927.04,-168.28C930.77,-152.63 933.78,-127.63 920.79,-112 915.83,-106.04 828.32,-88.69 768.12,-77.36"/>
<polygon fill="midnightblue" stroke="midnightblue" points="768.44,-73.86 757.97,-75.45 767.15,-80.74 768.44,-73.86"/>
</g>
<!-- Node3&#45;&gt;Node4 -->
<g id="edge3" class="edge">
<title>Node3&#45;&gt;Node4</title>
<path fill="none" stroke="midnightblue" d="M991.2,-112.47C937.6,-103.78 851.77,-89.85 767.95,-76.19"/>
<polygon fill="midnightblue" stroke="midnightblue" points="768.43,-72.72 758,-74.57 767.31,-79.63 768.43,-72.72"/>
</g>
<!-- Node5 -->
<g id="node5" class="node">
<title>Node5</title>
<g id="a_node5"><a xlink:title=" ">
<polygon fill="white" stroke="#bfbfbf" points="429.29,-0.5 429.29,-19.5 506.29,-19.5 506.29,-0.5 429.29,-0.5"/>
<text text-anchor="middle" x="467.79" y="-7.5" font-family="Helvetica,sans-Serif" font-size="10.00">stddef.h</text>
</a>
</g>
</g>
<!-- Node3&#45;&gt;Node5 -->
<g id="edge10" class="edge">
<title>Node3&#45;&gt;Node5</title>
<path fill="none" stroke="midnightblue" d="M1012.78,-112.43C984.65,-104.27 942.28,-91.05 906.79,-76 889.22,-68.55 887.03,-61.61 868.79,-56 745.99,-18.27 593.36,-11.5 516.65,-10.7"/>
<polygon fill="midnightblue" stroke="midnightblue" points="516.36,-7.2 506.34,-10.62 516.31,-14.2 516.36,-7.2"/>
</g>
<!-- Node3&#45;&gt;Node6 -->
<g id="edge11" class="edge">
<title>Node3&#45;&gt;Node6</title>
<path fill="none" stroke="midnightblue" d="M1053.44,-112.37C1074.19,-93.81 1123.28,-49.91 1149.53,-26.44"/>
<polygon fill="midnightblue" stroke="midnightblue" points="1152.06,-28.87 1157.18,-19.59 1147.39,-23.65 1152.06,-28.87"/>
</g>
<!-- Node7 -->
<g id="node7" class="node">
<title>Node7</title>
<g id="a_node7"><a xlink:href="superblock_8h.html" target="_top" xlink:title=" ">
<polygon fill="white" stroke="black" points="915.29,-56.5 915.29,-75.5 1082.29,-75.5 1082.29,-56.5 915.29,-56.5"/>
<text text-anchor="middle" x="998.79" y="-63.5" font-family="Helvetica,sans-Serif" font-size="10.00">../data/superblock.h</text>
</a>
</g>
</g>
<!-- Node3&#45;&gt;Node7 -->
<g id="edge6" class="edge">
<title>Node3&#45;&gt;Node7</title>
<path fill="none" stroke="midnightblue" d="M1036.36,-112.08C1029.94,-104.38 1020.48,-93.03 1012.67,-83.65"/>
<polygon fill="midnightblue" stroke="midnightblue" points="1015.17,-81.19 1006.08,-75.75 1009.79,-85.67 1015.17,-81.19"/>
</g>
<!-- Node8 -->
<g id="node8" class="node">
<title>Node8</title>
<g id="a_node8"><a xlink:title=" ">
<polygon fill="white" stroke="#bfbfbf" points="775.79,-56.5 775.79,-75.5 859.79,-75.5 859.79,-56.5 775.79,-56.5"/>
<text text-anchor="middle" x="817.79" y="-63.5" font-family="Helvetica,sans-Serif" font-size="10.00">stdbool.h</text>
</a>
</g>
</g>
<!-- Node3&#45;&gt;Node8 -->
<g id="edge9" class="edge">
<title>Node3&#45;&gt;Node8</title>
<path fill="none" stroke="midnightblue" d="M1007.98,-112.44C968.8,-103.08 905.91,-88.06 863.27,-77.87"/>
<polygon fill="midnightblue" stroke="midnightblue" points="863.97,-74.44 853.43,-75.52 862.34,-81.24 863.97,-74.44"/>
</g>
<!-- Node4&#45;&gt;Node5 -->
<g id="edge4" class="edge">
<title>Node4&#45;&gt;Node5</title>
<path fill="none" stroke="midnightblue" d="M673.13,-56.44C630.65,-47.04 562.36,-31.93 516.31,-21.74"/>
<polygon fill="midnightblue" stroke="midnightblue" points="516.79,-18.26 506.27,-19.52 515.28,-25.09 516.79,-18.26"/>
</g>
<!-- Node4&#45;&gt;Node6 -->
<g id="edge5" class="edge">
<title>Node4&#45;&gt;Node6</title>
<path fill="none" stroke="midnightblue" d="M757.98,-57.27C760.96,-56.82 763.91,-56.4 766.79,-56 893.07,-38.58 1042.49,-23.13 1117.95,-15.7"/>
<polygon fill="midnightblue" stroke="midnightblue" points="1118.48,-19.16 1128.09,-14.7 1117.8,-12.19 1118.48,-19.16"/>
</g>
<!-- Node7&#45;&gt;Node5 -->
<g id="edge7" class="edge">
<title>Node7&#45;&gt;Node5</title>
<path fill="none" stroke="midnightblue" d="M915.24,-56.5C803.03,-45.09 607.27,-25.18 516.54,-15.96"/>
<polygon fill="midnightblue" stroke="midnightblue" points="516.83,-12.47 506.52,-14.94 516.12,-19.43 516.83,-12.47"/>
</g>
<!-- Node7&#45;&gt;Node6 -->
<g id="edge8" class="edge">
<title>Node7&#45;&gt;Node6</title>
<path fill="none" stroke="midnightblue" d="M1025.41,-56.44C1053.79,-47.32 1098.92,-32.81 1130.54,-22.65"/>
<polygon fill="midnightblue" stroke="midnightblue" points="1131.84,-25.91 1140.29,-19.52 1129.7,-19.24 1131.84,-25.91"/>
</g>
<!-- Node9&#45;&gt;Node4 -->
<g id="edge42" class="edge">
<title>Node9&#45;&gt;Node4</title>
<path fill="none" stroke="midnightblue" d="M437.35,-347.43C445.96,-304.47 478.02,-174.16 559.79,-112 575.93,-99.73 623.84,-86.68 661.6,-77.81"/>
<polygon fill="midnightblue" stroke="midnightblue" points="662.5,-81.19 671.45,-75.53 660.92,-74.37 662.5,-81.19"/>
</g>
<!-- Node9&#45;&gt;Node6 -->
<g id="edge44" class="edge">
<title>Node9&#45;&gt;Node6</title>
<path fill="none" stroke="midnightblue" d="M511.22,-348.32C514.11,-347.86 516.98,-347.42 519.79,-347 676.24,-323.47 1096.48,-346.17 1225.79,-255 1254.54,-234.73 1261.79,-219.68 1261.79,-184.5 1261.79,-184.5 1261.79,-184.5 1261.79,-121 1261.79,-77.74 1219.18,-43.09 1191.03,-24.91"/>
<polygon fill="midnightblue" stroke="midnightblue" points="1192.82,-21.9 1182.48,-19.6 1189.13,-27.85 1192.82,-21.9"/>
</g>
<!-- Node9&#45;&gt;Node8 -->
<g id="edge43" class="edge">
<title>Node9&#45;&gt;Node8</title>
<path fill="none" stroke="midnightblue" d="M445.93,-347.35C479.79,-305.27 586.25,-179.61 701.79,-112 725.93,-97.87 755.33,-86.52 778.49,-78.75"/>
<polygon fill="midnightblue" stroke="midnightblue" points="779.58,-82.08 788,-75.65 777.41,-75.43 779.58,-82.08"/>
</g>
<!-- Node9&#45;&gt;Node10 -->
<g id="edge14" class="edge">
<title>Node9&#45;&gt;Node10</title>
<path fill="none" stroke="midnightblue" d="M409.43,-347.4C392.12,-337.77 369.31,-325.09 352.2,-315.58"/>
<polygon fill="midnightblue" stroke="midnightblue" points="353.8,-312.46 343.36,-310.66 350.4,-318.58 353.8,-312.46"/>
</g>
<!-- Node10&#45;&gt;Node5 -->
<g id="edge15" class="edge">
<title>Node10&#45;&gt;Node5</title>
<path fill="none" stroke="midnightblue" d="M298.81,-291.48C205.22,-262.65 -77.28,-164.44 20.79,-56 47.11,-26.89 308.32,-15.74 418.82,-12.3"/>
<polygon fill="midnightblue" stroke="midnightblue" points="419.14,-15.79 429.03,-11.99 418.93,-8.8 419.14,-15.79"/>
</g>
<!-- Node10&#45;&gt;Node6 -->
<g id="edge16" class="edge">
<title>Node10&#45;&gt;Node6</title>
<path fill="none" stroke="midnightblue" d="M404.07,-296.67C616.02,-287.35 1197.03,-261.26 1204.79,-255 1230.03,-234.61 1223.79,-216.95 1223.79,-184.5 1223.79,-184.5 1223.79,-184.5 1223.79,-121 1223.79,-84.3 1198.47,-47.66 1181.58,-27.3"/>
<polygon fill="midnightblue" stroke="midnightblue" points="1184.14,-24.9 1174.95,-19.62 1178.83,-29.48 1184.14,-24.9"/>
</g>
<!-- Node11 -->
<g id="node11" class="node">
<title>Node11</title>
<g id="a_node11"><a xlink:title=" ">
<polygon fill="white" stroke="#bfbfbf" points="326.29,-235.5 326.29,-254.5 395.29,-254.5 395.29,-235.5 326.29,-235.5"/>
<text text-anchor="middle" x="360.79" y="-242.5" font-family="Helvetica,sans-Serif" font-size="10.00">stdio.h</text>
</a>
</g>
</g>
<!-- Node10&#45;&gt;Node11 -->
<g id="edge17" class="edge">
<title>Node10&#45;&gt;Node11</title>
<path fill="none" stroke="midnightblue" d="M333.24,-291.08C337.8,-283.61 344.46,-272.72 350.08,-263.52"/>
<polygon fill="midnightblue" stroke="midnightblue" points="353.21,-265.11 355.44,-254.75 347.24,-261.46 353.21,-265.11"/>
</g>
<!-- Node12 -->
<g id="node12" class="node">
<title>Node12</title>
<g id="a_node12"><a xlink:href="canary__mapper_8h.html" target="_top" xlink:title=" ">
<polygon fill="white" stroke="black" points="310.29,-56.5 310.29,-75.5 439.29,-75.5 439.29,-56.5 310.29,-56.5"/>
<text text-anchor="middle" x="374.79" y="-63.5" font-family="Helvetica,sans-Serif" font-size="10.00">canary_mapper.h</text>
</a>
</g>
</g>
<!-- Node10&#45;&gt;Node12 -->
<g id="edge18" class="edge">
<title>Node10&#45;&gt;Node12</title>
<path fill="none" stroke="midnightblue" d="M318.33,-291.5C288.61,-263.76 201.66,-174.13 245.79,-112 258.65,-93.89 279.37,-83.01 300.47,-76.49"/>
<polygon fill="midnightblue" stroke="midnightblue" points="301.47,-79.84 310.17,-73.79 299.6,-73.1 301.47,-79.84"/>
</g>
<!-- Node13 -->
<g id="node13" class="node">
<title>Node13</title>
<g id="a_node13"><a xlink:href="curl__mapper_8h.html" target="_top" xlink:title=" ">
<polygon fill="white" stroke="black" points="1081.79,-235.5 1081.79,-254.5 1195.79,-254.5 1195.79,-235.5 1081.79,-235.5"/>
<text text-anchor="middle" x="1138.79" y="-242.5" font-family="Helvetica,sans-Serif" font-size="10.00">curl_mapper.h</text>
</a>
</g>
</g>
<!-- Node10&#45;&gt;Node13 -->
<g id="edge21" class="edge">
<title>Node10&#45;&gt;Node13</title>
<path fill="none" stroke="midnightblue" d="M404.09,-294.92C561.77,-284.42 921.34,-260.48 1071.23,-250.5"/>
<polygon fill="midnightblue" stroke="midnightblue" points="1071.91,-253.96 1081.66,-249.8 1071.45,-246.98 1071.91,-253.96"/>
</g>
<!-- Node19 -->
<g id="node19" class="node">
<title>Node19</title>
<g id="a_node19"><a xlink:href="mmap__full__mapper_8h.html" target="_top" xlink:title=" ">
<polygon fill="white" stroke="black" points="495.79,-56.5 495.79,-75.5 647.79,-75.5 647.79,-56.5 495.79,-56.5"/>
<text text-anchor="middle" x="571.79" y="-63.5" font-family="Helvetica,sans-Serif" font-size="10.00">mmap_full_mapper.h</text>
</a>
</g>
</g>
<!-- Node10&#45;&gt;Node19 -->
<g id="edge33" class="edge">
<title>Node10&#45;&gt;Node19</title>
<path fill="none" stroke="midnightblue" d="M323.56,-291.22C310.08,-261.85 271.61,-165.85 316.79,-112 327.79,-98.89 415.91,-85.46 485.52,-76.72"/>
<polygon fill="midnightblue" stroke="midnightblue" points="486.15,-80.17 495.65,-75.47 485.29,-73.22 486.15,-80.17"/>
</g>
<!-- Node20 -->
<g id="node20" class="node">
<title>Node20</title>
<g id="a_node20"><a xlink:href="mmap__mapper_8h.html" target="_top" xlink:title=" ">
<polygon fill="white" stroke="black" points="177.79,-56.5 177.79,-75.5 291.79,-75.5 291.79,-56.5 177.79,-56.5"/>
<text text-anchor="middle" x="234.79" y="-63.5" font-family="Helvetica,sans-Serif" font-size="10.00">mmap_mapper.h</text>
</a>
</g>
</g>
<!-- Node10&#45;&gt;Node20 -->
<g id="edge36" class="edge">
<title>Node10&#45;&gt;Node20</title>
<path fill="none" stroke="midnightblue" d="M312.71,-291.44C299.28,-283.29 279.66,-270.07 265.79,-255 246.06,-233.58 239.63,-227.04 231.79,-199 220.81,-159.77 226.52,-111.4 231.04,-85.48"/>
<polygon fill="midnightblue" stroke="midnightblue" points="234.5,-86.03 232.91,-75.55 227.62,-84.73 234.5,-86.03"/>
</g>
<!-- Node21 -->
<g id="node21" class="node">
<title>Node21</title>
<g id="a_node21"><a xlink:href="static__mapper_8h.html" target="_top" xlink:title=" ">
<polygon fill="white" stroke="black" points="30.29,-56.5 30.29,-75.5 159.29,-75.5 159.29,-56.5 30.29,-56.5"/>
<text text-anchor="middle" x="94.79" y="-63.5" font-family="Helvetica,sans-Serif" font-size="10.00">static_mapper.h</text>
</a>
</g>
</g>
<!-- Node10&#45;&gt;Node21 -->
<g id="edge39" class="edge">
<title>Node10&#45;&gt;Node21</title>
<path fill="none" stroke="midnightblue" d="M306.58,-291.36C288.9,-283.52 263.64,-270.78 244.79,-255 182.17,-202.57 127.67,-120.5 105.44,-84.7"/>
<polygon fill="midnightblue" stroke="midnightblue" points="108.25,-82.59 100.04,-75.89 102.28,-86.24 108.25,-82.59"/>
</g>
<!-- Node12&#45;&gt;Node5 -->
<g id="edge19" class="edge">
<title>Node12&#45;&gt;Node5</title>
<path fill="none" stroke="midnightblue" d="M389.73,-56.32C404.37,-47.82 426.92,-34.73 444.03,-24.8"/>
<polygon fill="midnightblue" stroke="midnightblue" points="445.99,-27.7 452.88,-19.65 442.48,-21.65 445.99,-27.7"/>
</g>
<!-- Node12&#45;&gt;Node6 -->
<g id="edge20" class="edge">
<title>Node12&#45;&gt;Node6</title>
<path fill="none" stroke="midnightblue" d="M439.33,-59.66C454.87,-58.41 471.42,-57.13 486.79,-56 723.12,-38.69 1005.89,-20.92 1117.77,-14.01"/>
<polygon fill="midnightblue" stroke="midnightblue" points="1118.29,-17.48 1128.06,-13.37 1117.86,-10.49 1118.29,-17.48"/>
</g>
<!-- Node13&#45;&gt;Node3 -->
<g id="edge22" class="edge">
<title>Node13&#45;&gt;Node3</title>
<path fill="none" stroke="midnightblue" d="M1140.07,-235.11C1141.77,-219.9 1143.07,-188.54 1128.79,-168 1118.19,-152.76 1100.77,-142.27 1084.45,-135.27"/>
<polygon fill="midnightblue" stroke="midnightblue" points="1085.61,-131.97 1075.02,-131.55 1083.04,-138.48 1085.61,-131.97"/>
</g>
<!-- Node13&#45;&gt;Node6 -->
<g id="edge32" class="edge">
<title>Node13&#45;&gt;Node6</title>
<path fill="none" stroke="midnightblue" d="M1141.72,-235.46C1150.49,-209.04 1175.67,-126.14 1171.79,-56 1171.31,-47.36 1170.32,-37.83 1169.34,-29.77"/>
<polygon fill="midnightblue" stroke="midnightblue" points="1172.78,-29.07 1168.03,-19.6 1165.84,-29.97 1172.78,-29.07"/>
</g>
<!-- Node14 -->
<g id="node14" class="node">
<title>Node14</title>
<g id="a_node14"><a xlink:href="lru__hashmap_8h.html" target="_top" xlink:title=" ">
<polygon fill="white" stroke="black" points="642.79,-174 642.79,-193 824.79,-193 824.79,-174 642.79,-174"/>
<text text-anchor="middle" x="733.79" y="-181" font-family="Helvetica,sans-Serif" font-size="10.00">../cache/lru_hashmap.h</text>
</a>
</g>
</g>
<!-- Node13&#45;&gt;Node14 -->
<g id="edge23" class="edge">
<title>Node13&#45;&gt;Node14</title>
<path fill="none" stroke="midnightblue" d="M1081.62,-235.6C1008.06,-224.79 880.43,-206.04 801.92,-194.51"/>
<polygon fill="midnightblue" stroke="midnightblue" points="802.05,-190.99 791.65,-193 801.03,-197.92 802.05,-190.99"/>
</g>
<!-- Node18 -->
<g id="node18" class="node">
<title>Node18</title>
<g id="a_node18"><a xlink:title=" ">
<polygon fill="white" stroke="#bfbfbf" points="1020.29,-174 1020.29,-193 1119.29,-193 1119.29,-174 1020.29,-174"/>
<text text-anchor="middle" x="1069.79" y="-181" font-family="Helvetica,sans-Serif" font-size="10.00">curl/curl.h</text>
</a>
</g>
</g>
<!-- Node13&#45;&gt;Node18 -->
<g id="edge31" class="edge">
<title>Node13&#45;&gt;Node18</title>
<path fill="none" stroke="midnightblue" d="M1128.9,-235.48C1118.14,-226.2 1100.72,-211.17 1087.57,-199.83"/>
<polygon fill="midnightblue" stroke="midnightblue" points="1089.51,-196.89 1079.66,-193.01 1084.94,-202.19 1089.51,-196.89"/>
</g>
<!-- Node14&#45;&gt;Node4 -->
<g id="edge24" class="edge">
<title>Node14&#45;&gt;Node4</title>
<path fill="none" stroke="midnightblue" d="M726.2,-173.96C718.33,-164.48 706.53,-148.35 701.79,-132 697.31,-116.58 700.77,-98.49 704.8,-85.31"/>
<polygon fill="midnightblue" stroke="midnightblue" points="708.21,-86.16 708.15,-75.57 701.59,-83.88 708.21,-86.16"/>
</g>
<!-- Node14&#45;&gt;Node6 -->
<g id="edge29" class="edge">
<title>Node14&#45;&gt;Node6</title>
<path fill="none" stroke="midnightblue" d="M791.71,-173.97C805.8,-171.96 820.83,-169.86 834.79,-168 900.04,-159.32 1078.2,-174.11 1128.79,-132 1159.29,-106.61 1165.68,-56.99 1166.79,-29.84"/>
<polygon fill="midnightblue" stroke="midnightblue" points="1170.29,-29.79 1167,-19.72 1163.29,-29.65 1170.29,-29.79"/>
</g>
<!-- Node15 -->
<g id="node15" class="node">
<title>Node15</title>
<g id="a_node15"><a xlink:href="ref__count_8h.html" target="_top" xlink:title=" ">
<polygon fill="white" stroke="black" points="326.29,-112.5 326.29,-131.5 425.29,-131.5 425.29,-112.5 326.29,-112.5"/>
<text text-anchor="middle" x="375.79" y="-119.5" font-family="Helvetica,sans-Serif" font-size="10.00">ref_count.h</text>
</a>
</g>
</g>
<!-- Node14&#45;&gt;Node15 -->
<g id="edge25" class="edge">
<title>Node14&#45;&gt;Node15</title>
<path fill="none" stroke="midnightblue" d="M682.5,-173.98C617.17,-163.12 504.49,-144.39 435.41,-132.91"/>
<polygon fill="midnightblue" stroke="midnightblue" points="435.98,-129.46 425.54,-131.27 434.84,-136.36 435.98,-129.46"/>
</g>
<!-- Node16 -->
<g id="node16" class="node">
<title>Node16</title>
<g id="a_node16"><a xlink:title=" ">
<polygon fill="white" stroke="#bfbfbf" points="827.79,-112.5 827.79,-131.5 911.79,-131.5 911.79,-112.5 827.79,-112.5"/>
<text text-anchor="middle" x="869.79" y="-119.5" font-family="Helvetica,sans-Serif" font-size="10.00">pthread.h</text>
</a>
</g>
</g>
<!-- Node14&#45;&gt;Node16 -->
<g id="edge28" class="edge">
<title>Node14&#45;&gt;Node16</title>
<path fill="none" stroke="midnightblue" d="M753.27,-173.98C776.2,-163.95 814.47,-147.2 840.86,-135.65"/>
<polygon fill="midnightblue" stroke="midnightblue" points="842.58,-138.72 850.34,-131.51 839.77,-132.31 842.58,-138.72"/>
</g>
<!-- Node17 -->
<g id="node17" class="node">
<title>Node17</title>
<g id="a_node17"><a xlink:title=" ">
<polygon fill="white" stroke="#bfbfbf" points="710.29,-112.5 710.29,-131.5 809.29,-131.5 809.29,-112.5 710.29,-112.5"/>
<text text-anchor="middle" x="759.79" y="-119.5" font-family="Helvetica,sans-Serif" font-size="10.00">sys/types.h</text>
</a>
</g>
</g>
<!-- Node14&#45;&gt;Node17 -->
<g id="edge30" class="edge">
<title>Node14&#45;&gt;Node17</title>
<path fill="none" stroke="midnightblue" d="M737.51,-173.98C741.26,-165.4 747.15,-151.93 751.93,-140.98"/>
<polygon fill="midnightblue" stroke="midnightblue" points="755.27,-142.07 756.07,-131.51 748.86,-139.27 755.27,-142.07"/>
</g>
<!-- Node15&#45;&gt;Node4 -->
<g id="edge26" class="edge">
<title>Node15&#45;&gt;Node4</title>
<path fill="none" stroke="midnightblue" d="M425.54,-113.08C479.63,-104.47 568.89,-90.21 655.57,-76.19"/>
<polygon fill="midnightblue" stroke="midnightblue" points="656.26,-79.63 665.58,-74.57 655.15,-72.72 656.26,-79.63"/>
</g>
<!-- Node15&#45;&gt;Node5 -->
<g id="edge27" class="edge">
<title>Node15&#45;&gt;Node5</title>
<path fill="none" stroke="midnightblue" d="M397.65,-112.36C413.69,-104.96 434.85,-92.83 447.79,-76 458.12,-62.56 463.16,-43.74 465.58,-29.81"/>
<polygon fill="midnightblue" stroke="midnightblue" points="469.05,-30.28 467.02,-19.88 462.12,-29.28 469.05,-30.28"/>
</g>
<!-- Node19&#45;&gt;Node5 -->
<g id="edge34" class="edge">
<title>Node19&#45;&gt;Node5</title>
<path fill="none" stroke="midnightblue" d="M555.08,-56.32C538.48,-47.7 512.79,-34.36 493.57,-24.39"/>
<polygon fill="midnightblue" stroke="midnightblue" points="494.94,-21.16 484.46,-19.65 491.72,-27.37 494.94,-21.16"/>
</g>
<!-- Node19&#45;&gt;Node6 -->
<g id="edge35" class="edge">
<title>Node19&#45;&gt;Node6</title>
<path fill="none" stroke="midnightblue" d="M648.24,-56.84C651.12,-56.55 653.98,-56.27 656.79,-56 826.1,-39.57 1027.28,-22.56 1118.06,-15.01"/>
<polygon fill="midnightblue" stroke="midnightblue" points="1118.38,-18.5 1128.06,-14.18 1117.8,-11.52 1118.38,-18.5"/>
</g>
<!-- Node20&#45;&gt;Node5 -->
<g id="edge37" class="edge">
<title>Node20&#45;&gt;Node5</title>
<path fill="none" stroke="midnightblue" d="M271.71,-56.44C312.18,-47.06 377.21,-31.99 421.17,-21.8"/>
<polygon fill="midnightblue" stroke="midnightblue" points="422.09,-25.18 431.04,-19.52 420.51,-18.36 422.09,-25.18"/>
</g>
<!-- Node20&#45;&gt;Node6 -->
<g id="edge38" class="edge">
<title>Node20&#45;&gt;Node6</title>
<path fill="none" stroke="midnightblue" d="M291.99,-56.9C294.96,-56.57 297.91,-56.27 300.79,-56 610.9,-26.85 985.4,-15.42 1117.66,-12.11"/>
<polygon fill="midnightblue" stroke="midnightblue" points="1117.95,-15.61 1127.86,-11.86 1117.78,-8.61 1117.95,-15.61"/>
</g>
<!-- Node21&#45;&gt;Node5 -->
<g id="edge40" class="edge">
<title>Node21&#45;&gt;Node5</title>
<path fill="none" stroke="midnightblue" d="M153.89,-56.44C227.26,-45.82 351.02,-27.91 419.16,-18.04"/>
<polygon fill="midnightblue" stroke="midnightblue" points="419.8,-21.48 429.2,-16.59 418.8,-14.56 419.8,-21.48"/>
</g>
<!-- Node21&#45;&gt;Node6 -->
<g id="edge41" class="edge">
<title>Node21&#45;&gt;Node6</title>
<path fill="none" stroke="midnightblue" d="M159.33,-56.86C162.53,-56.55 165.69,-56.26 168.79,-56 532.59,-25.72 972.82,-14.81 1117.86,-11.89"/>
<polygon fill="midnightblue" stroke="midnightblue" points="1118.26,-15.38 1128.19,-11.69 1118.12,-8.38 1118.26,-15.38"/>
</g>
<!-- Node22&#45;&gt;Node4 -->
<g id="edge46" class="edge">
<title>Node22&#45;&gt;Node4</title>
<path fill="none" stroke="midnightblue" d="M597.85,-291.12C585.7,-262.24 551.95,-169.49 591.79,-112 600.73,-99.1 636.25,-86.76 666.34,-78.27"/>
<polygon fill="midnightblue" stroke="midnightblue" points="667.57,-81.56 676.29,-75.54 665.72,-74.81 667.57,-81.56"/>
</g>
<!-- Node23&#45;&gt;Node4 -->
<g id="edge49" class="edge">
<title>Node23&#45;&gt;Node4</title>
<path fill="none" stroke="midnightblue" d="M412.31,-414.49C333.67,-399.98 206.2,-364.58 242.79,-291 272.18,-231.89 435.32,-152.25 535.79,-112 574.56,-96.47 620.31,-84.96 655.45,-77.48"/>
<polygon fill="midnightblue" stroke="midnightblue" points="656.46,-80.84 665.53,-75.38 655.03,-73.99 656.46,-80.84"/>
</g>
<!-- Node23&#45;&gt;Node24 -->
<g id="edge50" class="edge">
<title>Node23&#45;&gt;Node24</title>
<path fill="none" stroke="midnightblue" d="M483.26,-414.48C498.47,-404.84 523.47,-389.02 541.59,-377.55"/>
<polygon fill="midnightblue" stroke="midnightblue" points="543.77,-380.31 550.35,-372.01 540.02,-374.4 543.77,-380.31"/>
</g>
<!-- Node24&#45;&gt;Node6 -->
<g id="edge52" class="edge">
<title>Node24&#45;&gt;Node6</title>
<path fill="none" stroke="midnightblue" d="M598.44,-357.28C622.41,-354.36 655.03,-350.42 683.79,-347 821.54,-330.63 1299.79,-384.72 1299.79,-246 1299.79,-246 1299.79,-246 1299.79,-121 1299.79,-90.2 1297.15,-78.18 1275.79,-56 1259.61,-39.19 1236.23,-28.43 1215.28,-21.67"/>
<polygon fill="midnightblue" stroke="midnightblue" points="1216.13,-18.27 1205.54,-18.74 1214.11,-24.97 1216.13,-18.27"/>
</g>
<!-- Node24&#45;&gt;Node10 -->
<g id="edge51" class="edge">
<title>Node24&#45;&gt;Node10</title>
<path fill="none" stroke="midnightblue" d="M539.24,-352.99C532.93,-350.92 526.14,-348.79 519.79,-347 472.44,-333.68 417.77,-321.14 378.9,-312.7"/>
<polygon fill="midnightblue" stroke="midnightblue" points="379.39,-309.22 368.88,-310.53 377.92,-316.06 379.39,-309.22"/>
</g>
<!-- Node25&#45;&gt;Node4 -->
<g id="edge63" class="edge">
<title>Node25&#45;&gt;Node4</title>
<path fill="none" stroke="midnightblue" d="M733.11,-414.38C717.22,-407 696.32,-394.87 683.79,-378 659.15,-344.85 639.4,-239.92 633.79,-199 631.92,-185.35 629.34,-181.04 633.79,-168 645.68,-133.14 675.02,-100.96 694.13,-82.68"/>
<polygon fill="midnightblue" stroke="midnightblue" points="696.67,-85.1 701.62,-75.73 691.91,-79.97 696.67,-85.1"/>
</g>
<!-- Node25&#45;&gt;Node6 -->
<g id="edge65" class="edge">
<title>Node25&#45;&gt;Node6</title>
<path fill="none" stroke="midnightblue" d="M834.55,-419.92C916.95,-415.39 1048.81,-404.39 1159.79,-378 1242.83,-358.25 1260.04,-341.45 1339.79,-311 1445.16,-270.76 1559.79,-297.29 1559.79,-184.5 1559.79,-184.5 1559.79,-184.5 1559.79,-121 1559.79,-50.29 1320.87,-22.97 1215.6,-14.37"/>
<polygon fill="midnightblue" stroke="midnightblue" points="1215.79,-10.87 1205.55,-13.57 1215.24,-17.85 1215.79,-10.87"/>
</g>
<!-- Node25&#45;&gt;Node24 -->
<g id="edge64" class="edge">
<title>Node25&#45;&gt;Node24</title>
<path fill="none" stroke="midnightblue" d="M727.42,-414.48C694.23,-404.14 638.14,-386.66 601.03,-375.1"/>
<polygon fill="midnightblue" stroke="midnightblue" points="601.69,-371.64 591.1,-372.01 599.61,-378.32 601.69,-371.64"/>
</g>
<!-- Node26 -->
<g id="node26" class="node">
<title>Node26</title>
<g id="a_node26"><a xlink:href="metablock__context_8h.html" target="_top" xlink:title=" ">
<polygon fill="white" stroke="black" points="692.29,-347.5 692.29,-377.5 859.29,-377.5 859.29,-347.5 692.29,-347.5"/>
<text text-anchor="start" x="700.29" y="-365.5" font-family="Helvetica,sans-Serif" font-size="10.00">../context/metablock</text>
<text text-anchor="middle" x="775.79" y="-354.5" font-family="Helvetica,sans-Serif" font-size="10.00">_context.h</text>
</a>
</g>
</g>
<!-- Node25&#45;&gt;Node26 -->
<g id="edge55" class="edge">
<title>Node25&#45;&gt;Node26</title>
<path fill="none" stroke="midnightblue" d="M757.8,-414.48C760.32,-407.32 764.05,-396.75 767.46,-387.08"/>
<polygon fill="midnightblue" stroke="midnightblue" points="770.81,-388.12 770.84,-377.52 764.21,-385.79 770.81,-388.12"/>
</g>
<!-- Node27 -->
<g id="node27" class="node">
<title>Node27</title>
<g id="a_node27"><a xlink:href="metablock__stream__context_8h.html" target="_top" xlink:title=" ">
<polygon fill="white" stroke="black" points="1327.29,-168.5 1327.29,-198.5 1494.29,-198.5 1494.29,-168.5 1327.29,-168.5"/>
<text text-anchor="start" x="1335.29" y="-186.5" font-family="Helvetica,sans-Serif" font-size="10.00">../context/metablock</text>
<text text-anchor="middle" x="1410.79" y="-175.5" font-family="Helvetica,sans-Serif" font-size="10.00">_stream_context.h</text>
</a>
</g>
</g>
<!-- Node25&#45;&gt;Node27 -->
<g id="edge60" class="edge">
<title>Node25&#45;&gt;Node27</title>
<path fill="none" stroke="midnightblue" d="M830.66,-414.48C964.01,-398.43 1233.88,-360.79 1313.79,-311 1354.52,-285.62 1384.57,-236.59 1399.73,-207.59"/>
<polygon fill="midnightblue" stroke="midnightblue" points="1402.89,-209.08 1404.29,-198.58 1396.65,-205.92 1402.89,-209.08"/>
</g>
<!-- Node26&#45;&gt;Node4 -->
<g id="edge58" class="edge">
<title>Node26&#45;&gt;Node4</title>
<path fill="none" stroke="midnightblue" d="M692.2,-352.86C638.09,-345.35 574.68,-332.25 557.79,-311 502.48,-241.41 520.91,-180.31 577.79,-112 588.89,-98.67 628.6,-86.34 661.93,-77.97"/>
<polygon fill="midnightblue" stroke="midnightblue" points="663.14,-81.27 672.03,-75.5 661.48,-74.47 663.14,-81.27"/>
</g>
<!-- Node26&#45;&gt;Node6 -->
<g id="edge59" class="edge">
<title>Node26&#45;&gt;Node6</title>
<path fill="none" stroke="midnightblue" d="M859.51,-358.1C989.01,-352.08 1231.56,-337.62 1313.79,-311 1407.05,-280.81 1455.16,-284.11 1503.79,-199 1570.68,-81.93 1324.11,-32.74 1215.6,-17.05"/>
<polygon fill="midnightblue" stroke="midnightblue" points="1215.94,-13.57 1205.55,-15.64 1214.96,-20.5 1215.94,-13.57"/>
</g>
<!-- Node26&#45;&gt;Node10 -->
<g id="edge57" class="edge">
<title>Node26&#45;&gt;Node10</title>
<path fill="none" stroke="midnightblue" d="M692.05,-350.38C608.62,-339.3 481.76,-322.45 401.89,-311.84"/>
<polygon fill="midnightblue" stroke="midnightblue" points="402.28,-308.36 391.91,-310.52 401.36,-315.3 402.28,-308.36"/>
</g>
<!-- Node26&#45;&gt;Node14 -->
<g id="edge56" class="edge">
<title>Node26&#45;&gt;Node14</title>
<path fill="none" stroke="midnightblue" d="M772.42,-347.31C764.9,-315.63 746.75,-239.11 738.28,-203.42"/>
<polygon fill="midnightblue" stroke="midnightblue" points="741.61,-202.3 735.89,-193.37 734.8,-203.91 741.61,-202.3"/>
</g>
<!-- Node27&#45;&gt;Node3 -->
<g id="edge61" class="edge">
<title>Node27&#45;&gt;Node3</title>
<path fill="none" stroke="midnightblue" d="M1327.05,-168.92C1259.96,-158.05 1167.29,-143.02 1106.48,-133.16"/>
<polygon fill="midnightblue" stroke="midnightblue" points="1106.69,-129.65 1096.26,-131.51 1105.57,-136.56 1106.69,-129.65"/>
</g>
<!-- Node27&#45;&gt;Node6 -->
<g id="edge62" class="edge">
<title>Node27&#45;&gt;Node6</title>
<path fill="none" stroke="midnightblue" d="M1403.82,-168.42C1390.18,-142.31 1357.44,-86.3 1313.79,-56 1284.54,-35.69 1245.85,-24.33 1215.5,-18.1"/>
<polygon fill="midnightblue" stroke="midnightblue" points="1216.04,-14.64 1205.56,-16.18 1214.71,-21.52 1216.04,-14.64"/>
</g>
</g>
</svg>
        <g id="navigator" transform="translate(0 0)" fill="#404254">
                <rect fill="#f2f5e9" fill-opacity="0.5" stroke="#606060" stroke-width=".5" x="0" y="0" width="60" height="60"/>
                <use id="zoomplus" xlink:href="#zoomPlus" x="17" y="9" onmousedown="handleZoom(evt,'in')"/>
                <use id="zoomminus" xlink:href="#zoomMin" x="42" y="9" onmousedown="handleZoom(evt,'out')"/>
                <use id="reset" xlink:href="#resetDef" x="30" y="36" onmousedown="handleReset()"/>
                <g id="arrowUp" xlink:href="#dirArrow" transform="translate(30 24)" onmousedown="handlePan(0,-1)">
                  <use xlink:href="#rim" fill="#404040">
                        <set attributeName="fill" to="#808080" begin="arrowUp.mouseover" end="arrowUp.mouseout"/>
                  </use>
                  <path fill="none" stroke="white" stroke-width="1.5" d="M0,-3.0v7 M-2.5,-0.5L0,-3.0L2.5,-0.5"/>
                </g>
                <g id="arrowRight" xlink:href="#dirArrow" transform="rotate(90) translate(36 -43)" onmousedown="handlePan(1,0)">
                  <use xlink:href="#rim" fill="#404040">
                        <set attributeName="fill" to="#808080" begin="arrowRight.mouseover" end="arrowRight.mouseout"/>
                  </use>
                  <path fill="none" stroke="white" stroke-width="1.5" d="M0,-3.0v7 M-2.5,-0.5L0,-3.0L2.5,-0.5"/>
                </g>
                <g id="arrowDown" xlink:href="#dirArrow" transform="rotate(180) translate(-30 -48)" onmousedown="handlePan(0,1)">
                  <use xlink:href="#rim" fill="#404040">
                        <set attributeName="fill" to="#808080" begin="arrowDown.mouseover" end="arrowDown.mouseout"/>
                  </use>
                  <path fill="none" stroke="white" stroke-width="1.5" d="M0,-3.0v7 M-2.5,-0.5L0,-3.0L2.5,-0.5"/>
                </g>
                <g id="arrowLeft" xlink:href="#dirArrow" transform="rotate(270) translate(-36 17)" onmousedown="handlePan(-1,0)">
                  <use xlink:href="#rim" fill="#404040">
                        <set attributeName="fill" to="#808080" begin="arrowLeft.mouseover" end="arrowLeft.mouseout"/>
                  </use>
                  <path fill="none" stroke="white" stroke-width="1.5" d="M0,-3.0v7 M-2.5,-0.5L0,-3.0L2.5,-0.5"/>
                </g>
        </g>
        <svg viewBox="0 0 15 15" width="100%" height="30px" preserveAspectRatio="xMaxYMin meet">
         <g id="arrow_out" transform="scale(0.3 0.3)">
          <a xlink:href="hsqs_8h__incl_org.svg" target="_base">
           <rect id="button" ry="5" rx="5" y="6" x="6" height="38" width="38"
                fill="#f2f5e9" fill-opacity="0.5" stroke="#606060" stroke-width="1.0"/>
           <path id="arrow"
             d="M 11.500037,31.436501 C 11.940474,20.09759 22.043105,11.32322 32.158766,21.979434 L 37.068811,17.246167 C 37.068811,17.246167 37.088388,32 37.088388,32 L 22.160133,31.978069 C 22.160133,31.978069 26.997745,27.140456 26.997745,27.140456 C 18.528582,18.264221 13.291696,25.230495 11.500037,31.436501 z"
             style="fill:#404040;"/>
          </a>
         </g>
        </svg>
</svg>
