<?xml version="1.0" encoding="UTF-8" standalone="no"?>
<!DOCTYPE svg PUBLIC "-//W3C//DTD SVG 1.1//EN"
 "http://www.w3.org/Graphics/SVG/1.1/DTD/svg11.dtd">
<!-- Generated by graphviz version 3.0.0 (20220413.0242)
 -->
<!-- Title: inode_context.h Pages: 1 -->
<svg width="446pt" height="252pt"
 viewBox="0.00 0.00 446.00 252.00" xmlns="http://www.w3.org/2000/svg" xmlns:xlink="http://www.w3.org/1999/xlink">
<g id="graph0" class="graph" transform="scale(1 1) rotate(0) translate(4 248)">
<title>inode_context.h</title>
<polygon fill="white" stroke="transparent" points="-4,4 -4,-248 442,-248 442,4 -4,4"/>
<!-- Node1 -->
<g id="node1" class="node">
<title>Node1</title>
<g id="a_node1"><a xlink:title=" ">
<polygon fill="#bfbfbf" stroke="black" points="83,-224.5 83,-243.5 212,-243.5 212,-224.5 83,-224.5"/>
<text text-anchor="middle" x="147.5" y="-231.5" font-family="Helvetica,sans-Serif" font-size="10.00">inode_context.h</text>
</a>
</g>
</g>
<!-- Node2 -->
<g id="node2" class="node">
<title>Node2</title>
<g id="a_node2"><a xlink:href="utils_8h.html" target="_top" xlink:title=" ">
<polygon fill="white" stroke="black" points="66.5,-56.5 66.5,-75.5 158.5,-75.5 158.5,-56.5 66.5,-56.5"/>
<text text-anchor="middle" x="112.5" y="-63.5" font-family="Helvetica,sans-Serif" font-size="10.00">../utils.h</text>
</a>
</g>
</g>
<!-- Node1&#45;&gt;Node2 -->
<g id="edge1" class="edge">
<title>Node1&#45;&gt;Node2</title>
<path fill="none" stroke="midnightblue" d="M133.13,-224.33C121.62,-216.47 106.31,-203.72 99.5,-188 84.72,-153.89 96.4,-109.5 105.15,-85.08"/>
<polygon fill="midnightblue" stroke="midnightblue" points="108.45,-86.24 108.74,-75.65 101.91,-83.75 108.45,-86.24"/>
</g>
<!-- Node4 -->
<g id="node4" class="node">
<title>Node4</title>
<g id="a_node4"><a xlink:title=" ">
<polygon fill="white" stroke="#bfbfbf" points="0,-0.5 0,-19.5 77,-19.5 77,-0.5 0,-0.5"/>
<text text-anchor="middle" x="38.5" y="-7.5" font-family="Helvetica,sans-Serif" font-size="10.00">stdint.h</text>
</a>
</g>
</g>
<!-- Node1&#45;&gt;Node4 -->
<g id="edge8" class="edge">
<title>Node1&#45;&gt;Node4</title>
<path fill="none" stroke="midnightblue" d="M131.98,-224.46C119.08,-216.59 101.16,-203.77 90.5,-188 56.32,-137.45 44.21,-64.1 40.26,-29.89"/>
<polygon fill="midnightblue" stroke="midnightblue" points="43.69,-29.1 39.17,-19.52 36.73,-29.83 43.69,-29.1"/>
</g>
<!-- Node5 -->
<g id="node5" class="node">
<title>Node5</title>
<g id="a_node5"><a xlink:href="metablock__stream__context_8h.html" target="_top" xlink:title=" ">
<polygon fill="white" stroke="black" points="108.5,-168.5 108.5,-187.5 320.5,-187.5 320.5,-168.5 108.5,-168.5"/>
<text text-anchor="middle" x="214.5" y="-175.5" font-family="Helvetica,sans-Serif" font-size="10.00">metablock_stream_context.h</text>
</a>
</g>
</g>
<!-- Node1&#45;&gt;Node5 -->
<g id="edge4" class="edge">
<title>Node1&#45;&gt;Node5</title>
<path fill="none" stroke="midnightblue" d="M158.26,-224.32C168.27,-216.26 183.39,-204.08 195.43,-194.37"/>
<polygon fill="midnightblue" stroke="midnightblue" points="197.95,-196.83 203.54,-187.83 193.56,-191.38 197.95,-196.83"/>
</g>
<!-- Node8 -->
<g id="node8" class="node">
<title>Node8</title>
<g id="a_node8"><a xlink:title=" ">
<polygon fill="white" stroke="#bfbfbf" points="339,-168.5 339,-187.5 438,-187.5 438,-168.5 339,-168.5"/>
<text text-anchor="middle" x="388.5" y="-175.5" font-family="Helvetica,sans-Serif" font-size="10.00">sys/types.h</text>
</a>
</g>
</g>
<!-- Node1&#45;&gt;Node8 -->
<g id="edge9" class="edge">
<title>Node1&#45;&gt;Node8</title>
<path fill="none" stroke="midnightblue" d="M185.69,-224.44C227.64,-215.04 295.09,-199.93 340.57,-189.74"/>
<polygon fill="midnightblue" stroke="midnightblue" points="341.5,-193.12 350.49,-187.52 339.97,-186.29 341.5,-193.12"/>
</g>
<!-- Node3 -->
<g id="node3" class="node">
<title>Node3</title>
<g id="a_node3"><a xlink:title=" ">
<polygon fill="white" stroke="#bfbfbf" points="95,-0.5 95,-19.5 172,-19.5 172,-0.5 95,-0.5"/>
<text text-anchor="middle" x="133.5" y="-7.5" font-family="Helvetica,sans-Serif" font-size="10.00">stddef.h</text>
</a>
</g>
</g>
<!-- Node2&#45;&gt;Node3 -->
<g id="edge2" class="edge">
<title>Node2&#45;&gt;Node3</title>
<path fill="none" stroke="midnightblue" d="M115.97,-56.08C118.81,-48.77 122.93,-38.18 126.46,-29.1"/>
<polygon fill="midnightblue" stroke="midnightblue" points="129.73,-30.34 130.1,-19.75 123.21,-27.8 129.73,-30.34"/>
</g>
<!-- Node2&#45;&gt;Node4 -->
<g id="edge3" class="edge">
<title>Node2&#45;&gt;Node4</title>
<path fill="none" stroke="midnightblue" d="M100.61,-56.32C89.35,-48.11 72.21,-35.6 58.79,-25.81"/>
<polygon fill="midnightblue" stroke="midnightblue" points="60.75,-22.9 50.61,-19.83 56.62,-28.56 60.75,-22.9"/>
</g>
<!-- Node6 -->
<g id="node6" class="node">
<title>Node6</title>
<g id="a_node6"><a xlink:href="buffer_8h.html" target="_top" xlink:title=" ">
<polygon fill="white" stroke="black" points="127.5,-112.5 127.5,-131.5 301.5,-131.5 301.5,-112.5 127.5,-112.5"/>
<text text-anchor="middle" x="214.5" y="-119.5" font-family="Helvetica,sans-Serif" font-size="10.00">../primitive/buffer.h</text>
</a>
</g>
</g>
<!-- Node5&#45;&gt;Node6 -->
<g id="edge5" class="edge">
<title>Node5&#45;&gt;Node6</title>
<path fill="none" stroke="midnightblue" d="M214.5,-168.08C214.5,-161.01 214.5,-150.86 214.5,-141.99"/>
<polygon fill="midnightblue" stroke="midnightblue" points="218,-141.75 214.5,-131.75 211,-141.75 218,-141.75"/>
</g>
<!-- Node6&#45;&gt;Node2 -->
<g id="edge6" class="edge">
<title>Node6&#45;&gt;Node2</title>
<path fill="none" stroke="midnightblue" d="M198.11,-112.32C181.83,-103.7 156.63,-90.36 137.78,-80.39"/>
<polygon fill="midnightblue" stroke="midnightblue" points="139.32,-77.24 128.85,-75.65 136.05,-83.43 139.32,-77.24"/>
</g>
<!-- Node7 -->
<g id="node7" class="node">
<title>Node7</title>
<g id="a_node7"><a xlink:title=" ">
<polygon fill="white" stroke="#bfbfbf" points="176.5,-56.5 176.5,-75.5 260.5,-75.5 260.5,-56.5 176.5,-56.5"/>
<text text-anchor="middle" x="218.5" y="-63.5" font-family="Helvetica,sans-Serif" font-size="10.00">stdbool.h</text>
</a>
</g>
</g>
<!-- Node6&#45;&gt;Node7 -->
<g id="edge7" class="edge">
<title>Node6&#45;&gt;Node7</title>
<path fill="none" stroke="midnightblue" d="M215.16,-112.08C215.68,-105.01 216.44,-94.86 217.09,-85.99"/>
<polygon fill="midnightblue" stroke="midnightblue" points="220.6,-85.98 217.85,-75.75 213.62,-85.47 220.6,-85.98"/>
</g>
</g>
</svg>
