<?xml version="1.0" encoding="UTF-8" standalone="no"?>
<!DOCTYPE svg PUBLIC "-//W3C//DTD SVG 1.1//EN"
 "http://www.w3.org/Graphics/SVG/1.1/DTD/svg11.dtd">
<!-- Generated by graphviz version 2.49.3 (20211027.1534)
 -->
<!-- Title: inode_context.h Pages: 1 -->
<svg width="656pt" height="252pt"
 viewBox="0.00 0.00 655.50 252.00" xmlns="http://www.w3.org/2000/svg" xmlns:xlink="http://www.w3.org/1999/xlink">
<g id="graph0" class="graph" transform="scale(1 1) rotate(0) translate(4 248)">
<title>inode_context.h</title>
<polygon fill="white" stroke="transparent" points="-4,4 -4,-248 651.5,-248 651.5,4 -4,4"/>
<!-- Node1 -->
<g id="node1" class="node">
<title>Node1</title>
<g id="a_node1"><a xlink:title=" ">
<polygon fill="#bfbfbf" stroke="black" points="388.5,-224.5 388.5,-243.5 517.5,-243.5 517.5,-224.5 388.5,-224.5"/>
<text text-anchor="middle" x="453" y="-231.5" font-family="Helvetica,sans-Serif" font-size="10.00">inode_context.h</text>
</a>
</g>
</g>
<!-- Node2 -->
<g id="node2" class="node">
<title>Node2</title>
<g id="a_node2"><a xlink:href="utils_8h.html" target="_top" xlink:title=" ">
<polygon fill="white" stroke="black" points="0,-56.5 0,-75.5 92,-75.5 92,-56.5 0,-56.5"/>
<text text-anchor="middle" x="46" y="-63.5" font-family="Helvetica,sans-Serif" font-size="10.00">../utils.h</text>
</a>
</g>
</g>
<!-- Node1&#45;&gt;Node2 -->
<g id="edge1" class="edge">
<title>Node1&#45;&gt;Node2</title>
<path fill="none" stroke="midnightblue" d="M404.47,-224.45C367.22,-217.07 314.89,-204.92 271,-188 192.46,-157.73 106.71,-105.84 67.61,-81.02"/>
<polygon fill="midnightblue" stroke="midnightblue" points="69.44,-78.04 59.13,-75.6 65.67,-83.94 69.44,-78.04"/>
</g>
<!-- Node4 -->
<g id="node4" class="node">
<title>Node4</title>
<g id="a_node4"><a xlink:title=" ">
<polygon fill="white" stroke="#bfbfbf" points="405.5,-0.5 405.5,-19.5 482.5,-19.5 482.5,-0.5 405.5,-0.5"/>
<text text-anchor="middle" x="444" y="-7.5" font-family="Helvetica,sans-Serif" font-size="10.00">stdint.h</text>
</a>
</g>
</g>
<!-- Node1&#45;&gt;Node4 -->
<g id="edge14" class="edge">
<title>Node1&#45;&gt;Node4</title>
<path fill="none" stroke="midnightblue" d="M467.37,-224.33C478.88,-216.47 494.19,-203.72 501,-188 504.53,-179.84 502.54,-176.75 501,-168 491.74,-115.35 466.25,-57.11 452.72,-28.63"/>
<polygon fill="midnightblue" stroke="midnightblue" points="455.83,-27.03 448.32,-19.56 449.53,-30.08 455.83,-27.03"/>
</g>
<!-- Node5 -->
<g id="node5" class="node">
<title>Node5</title>
<g id="a_node5"><a xlink:href="metablock__stream__context_8h.html" target="_top" xlink:title=" ">
<polygon fill="white" stroke="black" points="280,-168.5 280,-187.5 492,-187.5 492,-168.5 280,-168.5"/>
<text text-anchor="middle" x="386" y="-175.5" font-family="Helvetica,sans-Serif" font-size="10.00">metablock_stream_context.h</text>
</a>
</g>
</g>
<!-- Node1&#45;&gt;Node5 -->
<g id="edge4" class="edge">
<title>Node1&#45;&gt;Node5</title>
<path fill="none" stroke="midnightblue" d="M442.24,-224.32C432.23,-216.26 417.11,-204.08 405.07,-194.37"/>
<polygon fill="midnightblue" stroke="midnightblue" points="406.94,-191.38 396.96,-187.83 402.55,-196.83 406.94,-191.38"/>
</g>
<!-- Node9 -->
<g id="node9" class="node">
<title>Node9</title>
<g id="a_node9"><a xlink:title=" ">
<polygon fill="white" stroke="#bfbfbf" points="548.5,-168.5 548.5,-187.5 647.5,-187.5 647.5,-168.5 548.5,-168.5"/>
<text text-anchor="middle" x="598" y="-175.5" font-family="Helvetica,sans-Serif" font-size="10.00">sys/types.h</text>
</a>
</g>
</g>
<!-- Node1&#45;&gt;Node9 -->
<g id="edge15" class="edge">
<title>Node1&#45;&gt;Node9</title>
<path fill="none" stroke="midnightblue" d="M475.98,-224.44C500.16,-215.44 538.42,-201.19 565.65,-191.05"/>
<polygon fill="midnightblue" stroke="midnightblue" points="566.98,-194.29 575.13,-187.52 564.54,-187.73 566.98,-194.29"/>
</g>
<!-- Node3 -->
<g id="node3" class="node">
<title>Node3</title>
<g id="a_node3"><a xlink:title=" ">
<polygon fill="white" stroke="#bfbfbf" points="81.5,-0.5 81.5,-19.5 158.5,-19.5 158.5,-0.5 81.5,-0.5"/>
<text text-anchor="middle" x="120" y="-7.5" font-family="Helvetica,sans-Serif" font-size="10.00">stddef.h</text>
</a>
</g>
</g>
<!-- Node2&#45;&gt;Node3 -->
<g id="edge2" class="edge">
<title>Node2&#45;&gt;Node3</title>
<path fill="none" stroke="midnightblue" d="M57.89,-56.32C69.15,-48.11 86.29,-35.6 99.71,-25.81"/>
<polygon fill="midnightblue" stroke="midnightblue" points="101.88,-28.56 107.89,-19.83 97.75,-22.9 101.88,-28.56"/>
</g>
<!-- Node2&#45;&gt;Node4 -->
<g id="edge3" class="edge">
<title>Node2&#45;&gt;Node4</title>
<path fill="none" stroke="midnightblue" d="M92.04,-58.75C167.83,-48.47 318.14,-28.08 395.5,-17.58"/>
<polygon fill="midnightblue" stroke="midnightblue" points="396.03,-21.04 405.47,-16.23 395.09,-14.1 396.03,-21.04"/>
</g>
<!-- Node5&#45;&gt;Node4 -->
<g id="edge13" class="edge">
<title>Node5&#45;&gt;Node4</title>
<path fill="none" stroke="midnightblue" d="M393.55,-168.34C407.33,-151.8 435.91,-113.97 444,-76 447.27,-60.63 446.99,-42.76 446.04,-29.65"/>
<polygon fill="midnightblue" stroke="midnightblue" points="449.52,-29.17 445.12,-19.53 442.54,-29.81 449.52,-29.17"/>
</g>
<!-- Node6 -->
<g id="node6" class="node">
<title>Node6</title>
<g id="a_node6"><a xlink:href="buffer_8h.html" target="_top" xlink:title=" ">
<polygon fill="white" stroke="black" points="258,-112.5 258,-131.5 410,-131.5 410,-112.5 258,-112.5"/>
<text text-anchor="middle" x="334" y="-119.5" font-family="Helvetica,sans-Serif" font-size="10.00">../buffer/buffer.h</text>
</a>
</g>
</g>
<!-- Node5&#45;&gt;Node6 -->
<g id="edge5" class="edge">
<title>Node5&#45;&gt;Node6</title>
<path fill="none" stroke="midnightblue" d="M377.41,-168.08C369.84,-160.22 358.62,-148.57 349.49,-139.08"/>
<polygon fill="midnightblue" stroke="midnightblue" points="351.88,-136.53 342.43,-131.75 346.84,-141.38 351.88,-136.53"/>
</g>
<!-- Node6&#45;&gt;Node2 -->
<g id="edge6" class="edge">
<title>Node6&#45;&gt;Node2</title>
<path fill="none" stroke="midnightblue" d="M288.37,-112.44C237.7,-102.94 155.93,-87.61 101.57,-77.42"/>
<polygon fill="midnightblue" stroke="midnightblue" points="101.89,-73.92 91.42,-75.52 100.6,-80.8 101.89,-73.92"/>
</g>
<!-- Node6&#45;&gt;Node3 -->
<g id="edge11" class="edge">
<title>Node6&#45;&gt;Node3</title>
<path fill="none" stroke="midnightblue" d="M264.63,-112.48C216.2,-105.18 157.13,-93.11 139,-76 126.45,-64.16 122.05,-44.53 120.57,-29.93"/>
<polygon fill="midnightblue" stroke="midnightblue" points="124.04,-29.31 119.92,-19.55 117.05,-29.76 124.04,-29.31"/>
</g>
<!-- Node6&#45;&gt;Node4 -->
<g id="edge12" class="edge">
<title>Node6&#45;&gt;Node4</title>
<path fill="none" stroke="midnightblue" d="M365.96,-112.41C385.6,-105.58 409.82,-94.09 425,-76 435.97,-62.92 440.61,-43.77 442.57,-29.64"/>
<polygon fill="midnightblue" stroke="midnightblue" points="446.06,-29.91 443.64,-19.6 439.1,-29.17 446.06,-29.91"/>
</g>
<!-- Node7 -->
<g id="node7" class="node">
<title>Node7</title>
<g id="a_node7"><a xlink:href="superblock_8h.html" target="_top" xlink:title=" ">
<polygon fill="white" stroke="black" points="147.5,-56.5 147.5,-75.5 314.5,-75.5 314.5,-56.5 147.5,-56.5"/>
<text text-anchor="middle" x="231" y="-63.5" font-family="Helvetica,sans-Serif" font-size="10.00">../data/superblock.h</text>
</a>
</g>
</g>
<!-- Node6&#45;&gt;Node7 -->
<g id="edge7" class="edge">
<title>Node6&#45;&gt;Node7</title>
<path fill="none" stroke="midnightblue" d="M317.45,-112.32C301.01,-103.7 275.57,-90.36 256.53,-80.39"/>
<polygon fill="midnightblue" stroke="midnightblue" points="257.99,-77.2 247.51,-75.65 254.74,-83.4 257.99,-77.2"/>
</g>
<!-- Node8 -->
<g id="node8" class="node">
<title>Node8</title>
<g id="a_node8"><a xlink:title=" ">
<polygon fill="white" stroke="#bfbfbf" points="332,-56.5 332,-75.5 416,-75.5 416,-56.5 332,-56.5"/>
<text text-anchor="middle" x="374" y="-63.5" font-family="Helvetica,sans-Serif" font-size="10.00">stdbool.h</text>
</a>
</g>
</g>
<!-- Node6&#45;&gt;Node8 -->
<g id="edge10" class="edge">
<title>Node6&#45;&gt;Node8</title>
<path fill="none" stroke="midnightblue" d="M340.61,-112.08C346.26,-104.46 354.54,-93.26 361.45,-83.94"/>
<polygon fill="midnightblue" stroke="midnightblue" points="364.38,-85.87 367.52,-75.75 358.75,-81.7 364.38,-85.87"/>
</g>
<!-- Node7&#45;&gt;Node3 -->
<g id="edge8" class="edge">
<title>Node7&#45;&gt;Node3</title>
<path fill="none" stroke="midnightblue" d="M213.17,-56.32C195.28,-47.62 167.52,-34.12 146.95,-24.11"/>
<polygon fill="midnightblue" stroke="midnightblue" points="148.31,-20.88 137.79,-19.65 145.25,-27.18 148.31,-20.88"/>
</g>
<!-- Node7&#45;&gt;Node4 -->
<g id="edge9" class="edge">
<title>Node7&#45;&gt;Node4</title>
<path fill="none" stroke="midnightblue" d="M264.75,-56.44C301.52,-47.12 360.45,-32.18 400.62,-22"/>
<polygon fill="midnightblue" stroke="midnightblue" points="401.57,-25.37 410.41,-19.52 399.85,-18.58 401.57,-25.37"/>
</g>
</g>
</svg>
