<?xml version="1.0" encoding="UTF-8" standalone="no"?>
<!DOCTYPE svg PUBLIC "-//W3C//DTD SVG 1.1//EN"
 "http://www.w3.org/Graphics/SVG/1.1/DTD/svg11.dtd">
<!-- Generated by graphviz version 8.0.5 (20230430.1635)
 -->
<!-- Title: examples/list_dir.c Pages: 1 -->
<svg width="1276pt" height="3104671pt"
 viewBox="0.00 0.00 1275.99 3104671.14" xmlns="http://www.w3.org/2000/svg" xmlns:xlink="http://www.w3.org/1999/xlink">
<g id="graph0" class="graph" transform="scale(1 1) rotate(0) translate(4 3104667.14)">
<title>examples/list_dir.c</title>
<!-- Node1 -->
<g id="node1" class="node">
<title>Node1</title>
<g id="a_node1"><a xlink:title=" ">
<polygon fill="#999999" stroke="#666666" points="897.55,-3104663.14 739.05,-3104663.14 739.05,-3104644.64 897.55,-3104644.64 897.55,-3104663.14"/>
<text text-anchor="middle" x="818.3" y="-3104649.64" font-family="Helvetica,sans-Serif" font-size="10.00">examples/list_dir.c</text>
</a>
</g>
</g>
<!-- Node2 -->
<g id="node2" class="node">
<title>Node2</title>
<g id="a_node2"><a xlink:title=" ">
<polygon fill="#e0e0e0" stroke="#999999" points="541.3,-2716587.11 465.3,-2716587.11 465.3,-2716557.61 541.3,-2716557.61 541.3,-2716587.11"/>
<text text-anchor="middle" x="503.3" y="-2716573.61" font-family="Helvetica,sans-Serif" font-size="10.00">assert.h</text>
</a>
</g>
</g>
<!-- Node1&#45;&gt;Node2 -->
<g id="edge1" class="edge">
<title>Node1&#45;&gt;Node2</title>
<path fill="none" stroke="#63b8ff" d="M738.76,-3104650.71C668.97,-3104646.91 575.01,-3104636.6 551.3,-3104608.64 -316.08,-3103585.81 495.71,-2720152.35 503.25,-2716598.22"/>
<polygon fill="#63b8ff" stroke="#63b8ff" points="506.75,-2716598.39 503.27,-2716588.38 499.75,-2716598.38 506.75,-2716598.39"/>
</g>
<!-- Node3 -->
<g id="node3" class="node">
<title>Node3</title>
<g id="a_node3"><a xlink:href="sqsh_8h.html" target="_top" xlink:title=" ">
<polygon fill="white" stroke="#666666" points="620.8,-3104608.64 559.8,-3104608.64 559.8,-2328536.08 620.8,-2328536.08 620.8,-3104608.64"/>
<text text-anchor="middle" x="590.3" y="-3104595.14" font-family="Helvetica,sans-Serif" font-size="10.00">sqsh.h</text>
</a>
</g>
</g>
<!-- Node1&#45;&gt;Node3 -->
<g id="edge2" class="edge">
<title>Node1&#45;&gt;Node3</title>
<path fill="none" stroke="#63b8ff" d="M818.3,-3104644.51C817.36,-3103052.58 683.44,-2875101.52 621.31,-2769349.31"/>
<polygon fill="#63b8ff" stroke="#63b8ff" points="624.81,-2769349.42 621.3,-2769339.42 617.81,-2769349.42 624.81,-2769349.42"/>
</g>
<!-- Node13 -->
<g id="node13" class="node">
<title>Node13</title>
<g id="a_node13"><a xlink:title=" ">
<polygon fill="#e0e0e0" stroke="#999999" points="1037.55,-1552401.54 969.05,-1552401.54 969.05,-776160.38 1037.55,-776160.38 1037.55,-1552401.54"/>
<text text-anchor="middle" x="1003.3" y="-1552388.04" font-family="Helvetica,sans-Serif" font-size="10.00">stdio.h</text>
</a>
</g>
</g>
<!-- Node1&#45;&gt;Node13 -->
<g id="edge31" class="edge">
<title>Node1&#45;&gt;Node13</title>
<path fill="none" stroke="#63b8ff" d="M818.31,-3104644.4C819.14,-3102442.74 981.76,-2672572.61 1028.3,-2328500.08 1074.97,-1983583.4 1039.41,-1897354.22 1028.3,-1552437.54 1028.3,-1552429.3 1028.3,-1552421.07 1028.3,-1552412.83"/>
<polygon fill="#63b8ff" stroke="#63b8ff" points="1031.8,-1552413 1028.3,-1552403 1024.8,-1552413 1031.8,-1552413"/>
</g>
<!-- Node21 -->
<g id="node21" class="node">
<title>Node21</title>
<g id="a_node21"><a xlink:title=" ">
<polygon fill="#e0e0e0" stroke="#999999" points="1151.3,-2716581.61 1075.3,-2716581.61 1075.3,-2716563.11 1151.3,-2716563.11 1151.3,-2716581.61"/>
<text text-anchor="middle" x="1113.3" y="-2716568.11" font-family="Helvetica,sans-Serif" font-size="10.00">stdlib.h</text>
</a>
</g>
</g>
<!-- Node1&#45;&gt;Node21 -->
<g id="edge32" class="edge">
<title>Node1&#45;&gt;Node21</title>
<path fill="none" stroke="#63b8ff" d="M897.88,-3104649.14C960.55,-3104644.32 1040.66,-3104633.38 1061.3,-3104608.64 1491.16,-3104093.51 1116.39,-2719733.38 1113.32,-2716592.72"/>
<polygon fill="#63b8ff" stroke="#63b8ff" points="1116.82,-2716592.73 1113.31,-2716582.73 1109.82,-2716592.74 1116.82,-2716592.73"/>
</g>
<!-- Node4 -->
<g id="node4" class="node">
<title>Node4</title>
<g id="a_node4"><a xlink:href="sqsh__archive_8h.html" target="_top" xlink:title=" ">
<polygon fill="white" stroke="#666666" points="445.8,-1164290.21 324.8,-1164290.21 324.8,-1164271.71 445.8,-1164271.71 445.8,-1164290.21"/>
<text text-anchor="middle" x="385.3" y="-1164276.71" font-family="Helvetica,sans-Serif" font-size="10.00">sqsh_archive.h</text>
</a>
</g>
</g>
<!-- Node3&#45;&gt;Node4 -->
<g id="edge3" class="edge">
<title>Node3&#45;&gt;Node4</title>
<path fill="none" stroke="#63b8ff" d="M621.3,-2701404.6C763.61,-2629850.9 1315.41,-2329443.41 550.3,-2328536.08 489.26,-2328463.69 401.35,-2328572.48 340.3,-2328500.08 340.3,-2328500.08 340.3,-1552437.54 340.3,-1552437.54 350.25,-1380870.44 384.92,-1166646.88 385.3,-1164301.39"/>
<polygon fill="#63b8ff" stroke="#63b8ff" points="388.8,-1164301.62 385.3,-1164291.62 381.8,-1164301.62 388.8,-1164301.62"/>
</g>
<!-- Node5 -->
<g id="node5" class="node">
<title>Node5</title>
<g id="a_node5"><a xlink:href="sqsh__common_8h.html" target="_top" xlink:title=" ">
<polygon fill="white" stroke="#666666" points="570.05,-776124.38 456.55,-776124.38 456.55,-776098.38 570.05,-776098.38 570.05,-776124.38"/>
<text text-anchor="middle" x="513.3" y="-776110.88" font-family="Helvetica,sans-Serif" font-size="10.00">sqsh_common.h</text>
</a>
</g>
</g>
<!-- Node3&#45;&gt;Node5 -->
<g id="edge8" class="edge">
<title>Node3&#45;&gt;Node5</title>
<path fill="none" stroke="#63b8ff" d="M621.3,-2701434.75C763.79,-2629935.18 1316.93,-2329442.34 550.3,-2328536.08 488.02,-2328462.45 398.59,-2328573.72 336.3,-2328500.08 336.3,-2328500.08 316.3,-1552401.54 316.3,-1552401.54 316.3,-1552401.54 316.3,-776160.38 316.3,-776160.38 332.31,-776140.01 395.04,-776127.19 445.47,-776119.98"/>
<polygon fill="#63b8ff" stroke="#63b8ff" points="445.92,-776123.31 455.35,-776118.48 444.97,-776116.38 445.92,-776123.31"/>
</g>
<!-- Node9 -->
<g id="node9" class="node">
<title>Node9</title>
<g id="a_node9"><a xlink:href="sqsh__directory_8h.html" target="_top" xlink:title=" ">
<polygon fill="white" stroke="#666666" points="485.3,-2328500.08 349.3,-2328500.08 349.3,-1552437.54 485.3,-1552437.54 485.3,-2328500.08"/>
<text text-anchor="middle" x="417.3" y="-2328486.58" font-family="Helvetica,sans-Serif" font-size="10.00">sqsh_directory.h</text>
</a>
</g>
</g>
<!-- Node3&#45;&gt;Node9 -->
<g id="edge9" class="edge">
<title>Node3&#45;&gt;Node9</title>
<path fill="none" stroke="#63b8ff" d="M621.3,-2694638.78C732.94,-2612754.73 1080.58,-2329559.35 550.3,-2328536.08 537.54,-2328511.45 512.07,-2328524.71 499.3,-2328500.08 328.39,-2328170.32 321.02,-2210250.84 348.8,-2104506.55"/>
<polygon fill="#63b8ff" stroke="#63b8ff" points="352.3,-2104506.66 348.8,-2104496.66 345.3,-2104506.66 352.3,-2104506.66"/>
</g>
<!-- Node10 -->
<g id="node10" class="node">
<title>Node10</title>
<g id="a_node10"><a xlink:href="sqsh__file_8h.html" target="_top" xlink:title=" ">
<polygon fill="white" stroke="#666666" points="562.55,-1164293.96 464.05,-1164293.96 464.05,-1164267.96 562.55,-1164267.96 562.55,-1164293.96"/>
<text text-anchor="middle" x="513.3" y="-1164280.46" font-family="Helvetica,sans-Serif" font-size="10.00">sqsh_file.h</text>
</a>
</g>
</g>
<!-- Node3&#45;&gt;Node10 -->
<g id="edge19" class="edge">
<title>Node3&#45;&gt;Node10</title>
<path fill="none" stroke="#63b8ff" d="M621.3,-2694688.84C732.85,-2613046.53 1079.95,-2330779.16 550.3,-2328536.08 546.19,-2328518.67 536.41,-2328517.49 532.3,-2328500.08 532.3,-2328500.08 513.4,-1170310.99 513.3,-1164305.4"/>
<polygon fill="#63b8ff" stroke="#63b8ff" points="516.8,-1164305.45 513.3,-1164295.45 509.8,-1164305.45 516.8,-1164305.45"/>
</g>
<!-- Node11 -->
<g id="node11" class="node">
<title>Node11</title>
<g id="a_node11"><a xlink:href="sqsh__easy_8h.html" target="_top" xlink:title=" ">
<polygon fill="white" stroke="#666666" points="1173.55,-1940481.81 1075.05,-1940481.81 1075.05,-1940455.81 1173.55,-1940455.81 1173.55,-1940481.81"/>
<text text-anchor="middle" x="1124.3" y="-1940468.31" font-family="Helvetica,sans-Serif" font-size="10.00">sqsh_easy.h</text>
</a>
</g>
</g>
<!-- Node3&#45;&gt;Node11 -->
<g id="edge12" class="edge">
<title>Node3&#45;&gt;Node11</title>
<path fill="none" stroke="#63b8ff" d="M621.3,-2695009.28C704.37,-2636225.34 932.18,-2468215.58 1028.3,-2328500.08 1146.25,-2157072.56 1124.57,-1943044.13 1124.31,-1940492.84"/>
<polygon fill="#63b8ff" stroke="#63b8ff" points="1127.81,-1940493.28 1124.31,-1940483.28 1120.81,-1940493.28 1127.81,-1940493.28"/>
</g>
<!-- Node15 -->
<g id="node15" class="node">
<title>Node15</title>
<g id="a_node15"><a xlink:href="sqsh__error_8h.html" target="_top" xlink:title=" ">
<polygon fill="white" stroke="#666666" points="895.3,-1940489.98 789.3,-1940489.98 789.3,-1940447.64 895.3,-1940447.64 895.3,-1940489.98"/>
<text text-anchor="middle" x="842.3" y="-1940476.48" font-family="Helvetica,sans-Serif" font-size="10.00">sqsh_error.h</text>
</a>
</g>
</g>
<!-- Node3&#45;&gt;Node15 -->
<g id="edge17" class="edge">
<title>Node3&#45;&gt;Node15</title>
<path fill="none" stroke="#63b8ff" d="M621.3,-2664404.26C664.34,-2589900.48 741.27,-2448724.92 780.3,-2328500.08 835.91,-2157240.85 842.22,-1943464.39 842.3,-1940500.97"/>
<polygon fill="#63b8ff" stroke="#63b8ff" points="845.8,-1940501.16 842.3,-1940491.16 838.8,-1940501.16 845.8,-1940501.16"/>
</g>
<!-- Node16 -->
<g id="node16" class="node">
<title>Node16</title>
<g id="a_node16"><a xlink:href="sqsh__mapper_8h.html" target="_top" xlink:title=" ">
<polygon fill="white" stroke="#666666" points="771.05,-1940478.06 657.55,-1940478.06 657.55,-1940459.56 771.05,-1940459.56 771.05,-1940478.06"/>
<text text-anchor="middle" x="714.3" y="-1940464.56" font-family="Helvetica,sans-Serif" font-size="10.00">sqsh_mapper.h</text>
</a>
</g>
</g>
<!-- Node3&#45;&gt;Node16 -->
<g id="edge20" class="edge">
<title>Node3&#45;&gt;Node16</title>
<path fill="none" stroke="#63b8ff" d="M621.3,-2522546.16C657.88,-2293654.55 713.82,-1943495.64 714.3,-1940489.3"/>
<polygon fill="#63b8ff" stroke="#63b8ff" points="717.8,-1940489.49 714.3,-1940479.49 710.8,-1940489.49 717.8,-1940489.49"/>
</g>
<!-- Node17 -->
<g id="node17" class="node">
<title>Node17</title>
<g id="a_node17"><a xlink:href="sqsh__posix_8h.html" target="_top" xlink:title=" ">
<polygon fill="white" stroke="#666666" points="1019.3,-1940478.06 913.3,-1940478.06 913.3,-1940459.56 1019.3,-1940459.56 1019.3,-1940478.06"/>
<text text-anchor="middle" x="966.3" y="-1940464.56" font-family="Helvetica,sans-Serif" font-size="10.00">sqsh_posix.h</text>
</a>
</g>
</g>
<!-- Node3&#45;&gt;Node17 -->
<g id="edge21" class="edge">
<title>Node3&#45;&gt;Node17</title>
<path fill="none" stroke="#63b8ff" d="M621.3,-2686477.74C687.03,-2621251.75 839.65,-2461966.07 904.3,-2328500.08 987.39,-2156988.38 966.54,-1942833.97 966.31,-1940489.23"/>
<polygon fill="#63b8ff" stroke="#63b8ff" points="969.81,-1940489.47 966.31,-1940479.47 962.81,-1940489.47 969.81,-1940489.47"/>
</g>
<!-- Node18 -->
<g id="node18" class="node">
<title>Node18</title>
<g id="a_node18"><a xlink:href="sqsh__table_8h.html" target="_top" xlink:title=" ">
<polygon fill="white" stroke="#666666" points="144.3,-1164290.21 38.3,-1164290.21 38.3,-1164271.71 144.3,-1164271.71 144.3,-1164290.21"/>
<text text-anchor="middle" x="91.3" y="-1164276.71" font-family="Helvetica,sans-Serif" font-size="10.00">sqsh_table.h</text>
</a>
</g>
</g>
<!-- Node3&#45;&gt;Node18 -->
<g id="edge24" class="edge">
<title>Node3&#45;&gt;Node18</title>
<path fill="none" stroke="#63b8ff" d="M621.3,-2701941.24C766.92,-2631364.39 1343.43,-2329423.04 550.3,-2328536.08 454.61,-2328429.07 325,-2328607.1 229.3,-2328500.08 229.3,-2328500.08 91.95,-1169744.15 91.31,-1164301.19"/>
<polygon fill="#63b8ff" stroke="#63b8ff" points="94.81,-1164301.41 91.31,-1164291.41 87.81,-1164301.41 94.81,-1164301.41"/>
</g>
<!-- Node19 -->
<g id="node19" class="node">
<title>Node19</title>
<g id="a_node19"><a xlink:href="sqsh__tree_8h.html" target="_top" xlink:title=" ">
<polygon fill="white" stroke="#666666" points="639.55,-1940489.98 541.05,-1940489.98 541.05,-1940447.64 639.55,-1940447.64 639.55,-1940489.98"/>
<text text-anchor="middle" x="590.3" y="-1940476.48" font-family="Helvetica,sans-Serif" font-size="10.00">sqsh_tree.h</text>
</a>
</g>
</g>
<!-- Node3&#45;&gt;Node19 -->
<g id="edge26" class="edge">
<title>Node3&#45;&gt;Node19</title>
<path fill="none" stroke="#63b8ff" d="M590.3,-2328535.85C590.3,-2135930.77 590.3,-1943320.68 590.3,-1940501.15"/>
<polygon fill="#63b8ff" stroke="#63b8ff" points="593.8,-1940501.17 590.3,-1940491.17 586.8,-1940501.17 593.8,-1940501.17"/>
</g>
<!-- Node20 -->
<g id="node20" class="node">
<title>Node20</title>
<g id="a_node20"><a xlink:href="sqsh__xattr_8h.html" target="_top" xlink:title=" ">
<polygon fill="white" stroke="#666666" points="268.3,-1164293.96 162.3,-1164293.96 162.3,-1164267.96 268.3,-1164267.96 268.3,-1164293.96"/>
<text text-anchor="middle" x="215.3" y="-1164280.46" font-family="Helvetica,sans-Serif" font-size="10.00">sqsh_xattr.h</text>
</a>
</g>
</g>
<!-- Node3&#45;&gt;Node20 -->
<g id="edge29" class="edge">
<title>Node3&#45;&gt;Node20</title>
<path fill="none" stroke="#63b8ff" d="M621.3,-2701800.8C766.04,-2630965.57 1335.91,-2329428.66 550.3,-2328536.08 467.12,-2328441.57 352.49,-2328594.6 269.3,-2328500.08 269.3,-2328500.08 215.58,-1170310.99 215.31,-1164305.4"/>
<polygon fill="#63b8ff" stroke="#63b8ff" points="218.81,-1164305.45 215.3,-1164295.45 211.81,-1164305.45 218.81,-1164305.45"/>
</g>
<!-- Node4&#45;&gt;Node5 -->
<g id="edge4" class="edge">
<title>Node4&#45;&gt;Node5</title>
<path fill="none" stroke="#63b8ff" d="M385.3,-1164271.58C384.91,-1162199.76 312.24,-776464.41 455.3,-776160.38 460.86,-776148.58 470.89,-776138.69 481.07,-776131.01"/>
<polygon fill="#63b8ff" stroke="#63b8ff" points="482.73,-776133.42 488.94,-776124.83 478.74,-776127.67 482.73,-776133.42"/>
</g>
<!-- Node6 -->
<g id="node6" class="node">
<title>Node6</title>
<g id="a_node6"><a xlink:title=" ">
<polygon fill="#e0e0e0" stroke="#999999" points="457.05,-388044.19 373.55,-388044.19 373.55,-388018.19 457.05,-388018.19 457.05,-388044.19"/>
<text text-anchor="middle" x="415.3" y="-388030.69" font-family="Helvetica,sans-Serif" font-size="10.00">stdbool.h</text>
</a>
</g>
</g>
<!-- Node5&#45;&gt;Node6 -->
<g id="edge5" class="edge">
<title>Node5&#45;&gt;Node6</title>
<path fill="none" stroke="#63b8ff" d="M495.48,-776097.92C484.81,-776089.32 472.21,-776076.85 466.3,-776062.38 -547.41,-773578.62 406.73,-391457.11 415.25,-388055.04"/>
<polygon fill="#63b8ff" stroke="#63b8ff" points="418.75,-388055.28 415.27,-388045.27 411.75,-388055.26 418.75,-388055.28"/>
</g>
<!-- Node7 -->
<g id="node7" class="node">
<title>Node7</title>
<g id="a_node7"><a xlink:title=" ">
<polygon fill="#e0e0e0" stroke="#999999" points="551.3,-388052.36 475.3,-388052.36 475.3,-388010.02 551.3,-388010.02 551.3,-388052.36"/>
<text text-anchor="middle" x="513.3" y="-388038.86" font-family="Helvetica,sans-Serif" font-size="10.00">stddef.h</text>
</a>
</g>
</g>
<!-- Node5&#45;&gt;Node7 -->
<g id="edge6" class="edge">
<title>Node5&#45;&gt;Node7</title>
<path fill="none" stroke="#63b8ff" d="M513.3,-776098.22C513.3,-773616.69 513.3,-392042.72 513.3,-388063.53"/>
<polygon fill="#63b8ff" stroke="#63b8ff" points="516.8,-388063.65 513.3,-388053.65 509.8,-388063.65 516.8,-388063.65"/>
</g>
<!-- Node8 -->
<g id="node8" class="node">
<title>Node8</title>
<g id="a_node8"><a xlink:title=" ">
<polygon fill="#e0e0e0" stroke="#999999" points="645.3,-776062.38 569.3,-776062.38 569.3,0 645.3,0 645.3,-776062.38"/>
<text text-anchor="middle" x="607.3" y="-776048.88" font-family="Helvetica,sans-Serif" font-size="10.00">stdint.h</text>
</a>
</g>
</g>
<!-- Node5&#45;&gt;Node8 -->
<g id="edge7" class="edge">
<title>Node5&#45;&gt;Node8</title>
<path fill="none" stroke="#63b8ff" d="M531.13,-776097.92C541.8,-776089.32 554.4,-776076.85 560.3,-776062.38 1453.38,-773874.18 816.01,-477023.84 645.83,-404079.98"/>
<polygon fill="#63b8ff" stroke="#63b8ff" points="649.33,-404080.12 645.8,-404070.13 642.33,-404080.13 649.33,-404080.12"/>
</g>
<!-- Node9&#45;&gt;Node10 -->
<g id="edge10" class="edge">
<title>Node9&#45;&gt;Node10</title>
<path fill="none" stroke="#63b8ff" d="M465.3,-1552437.06C489.15,-1359588.39 513,-1166719.24 513.3,-1164304.87"/>
<polygon fill="#63b8ff" stroke="#63b8ff" points="516.8,-1164305.14 513.3,-1164295.14 509.8,-1164305.14 516.8,-1164305.14"/>
</g>
<!-- Node10&#45;&gt;Node5 -->
<g id="edge11" class="edge">
<title>Node10&#45;&gt;Node5</title>
<path fill="none" stroke="#63b8ff" d="M513.3,-1164267.8C513.3,-1161783.79 513.3,-779538.41 513.3,-776135.24"/>
<polygon fill="#63b8ff" stroke="#63b8ff" points="516.8,-776135.46 513.3,-776125.46 509.8,-776135.46 516.8,-776135.46"/>
</g>
<!-- Node11&#45;&gt;Node5 -->
<g id="edge13" class="edge">
<title>Node11&#45;&gt;Node5</title>
<path fill="none" stroke="#63b8ff" d="M1124.3,-1940455.34C1124.08,-1938573.79 1098.25,-1724117.5 1085.3,-1552401.54 1085.3,-1552401.54 1046.3,-776160.38 1046.3,-776160.38 1015.48,-776126.66 717.43,-776116.42 580.95,-776113.49"/>
<polygon fill="#63b8ff" stroke="#63b8ff" points="581.29,-776109.97 571.22,-776113.26 581.15,-776116.97 581.29,-776109.97"/>
</g>
<!-- Node12 -->
<g id="node12" class="node">
<title>Node12</title>
<g id="a_node12"><a xlink:title=" ">
<polygon fill="#e0e0e0" stroke="#999999" points="1241.55,-1164290.21 1173.05,-1164290.21 1173.05,-1164271.71 1241.55,-1164271.71 1241.55,-1164290.21"/>
<text text-anchor="middle" x="1207.3" y="-1164276.71" font-family="Helvetica,sans-Serif" font-size="10.00">fcntl.h</text>
</a>
</g>
</g>
<!-- Node11&#45;&gt;Node12 -->
<g id="edge14" class="edge">
<title>Node11&#45;&gt;Node12</title>
<path fill="none" stroke="#63b8ff" d="M1124.31,-1940455.63C1124.68,-1936929.03 1206.83,-1168752.61 1207.3,-1164301.38"/>
<polygon fill="#63b8ff" stroke="#63b8ff" points="1210.8,-1164301.52 1207.3,-1164291.52 1203.8,-1164301.52 1210.8,-1164301.52"/>
</g>
<!-- Node11&#45;&gt;Node13 -->
<g id="edge15" class="edge">
<title>Node11&#45;&gt;Node13</title>
<path fill="none" stroke="#63b8ff" d="M1124.31,-1940455.74C1126.25,-1937978.64 1424.28,-1555098.84 1061.3,-1552437.54 1059.06,-1552421.09 1053.55,-1552417.99 1051.3,-1552401.54 940.69,-1551590.42 946.75,-1408550.19 968.55,-1296374.4"/>
<polygon fill="#63b8ff" stroke="#63b8ff" points="972.05,-1296374.48 968.55,-1296364.48 965.05,-1296374.48 972.05,-1296374.48"/>
</g>
<!-- Node14 -->
<g id="node14" class="node">
<title>Node14</title>
<g id="a_node14"><a xlink:title=" ">
<polygon fill="#e0e0e0" stroke="#999999" points="1154.8,-1164302.13 1093.8,-1164302.13 1093.8,-1164259.79 1154.8,-1164259.79 1154.8,-1164302.13"/>
<text text-anchor="middle" x="1124.3" y="-1164288.63" font-family="Helvetica,sans-Serif" font-size="10.00">time.h</text>
</a>
</g>
</g>
<!-- Node11&#45;&gt;Node14 -->
<g id="edge16" class="edge">
<title>Node11&#45;&gt;Node14</title>
<path fill="none" stroke="#63b8ff" d="M1124.3,-1940455.63C1124.3,-1936931.78 1124.3,-1169950.83 1124.3,-1164313.19"/>
<polygon fill="#63b8ff" stroke="#63b8ff" points="1127.8,-1164313.23 1124.3,-1164303.23 1120.8,-1164313.23 1127.8,-1164313.23"/>
</g>
<!-- Node15&#45;&gt;Node5 -->
<g id="edge18" class="edge">
<title>Node15&#45;&gt;Node5</title>
<path fill="none" stroke="#63b8ff" d="M842.3,-1940447.46C842,-1938048.19 814.88,-1723927.04 780.3,-1552437.54 780.17,-1551763.69 920.08,-776748.58 591.3,-776160.38 583.88,-776147.09 571.09,-776137.02 558,-776129.63"/>
<polygon fill="#63b8ff" stroke="#63b8ff" points="559.97,-776126.2 549.48,-776124.72 556.76,-776132.42 559.97,-776126.2"/>
</g>
<!-- Node17&#45;&gt;Node5 -->
<g id="edge22" class="edge">
<title>Node17&#45;&gt;Node5</title>
<path fill="none" stroke="#63b8ff" d="M966.3,-1940459.15C966.11,-1938889.49 939.06,-1724263.88 904.3,-1552437.54 904.3,-1552437.54 714.3,-776160.38 714.3,-776160.38 697.8,-776139.48 632.86,-776126.68 581.2,-776119.61"/>
<polygon fill="#63b8ff" stroke="#63b8ff" points="581.77,-776116.02 571.4,-776118.19 580.85,-776122.96 581.77,-776116.02"/>
</g>
<!-- Node17&#45;&gt;Node13 -->
<g id="edge23" class="edge">
<title>Node17&#45;&gt;Node13</title>
<path fill="none" stroke="#63b8ff" d="M966.3,-1940459.21C966.38,-1938975.61 975.59,-1745700.34 984.8,-1552412.61"/>
<polygon fill="#63b8ff" stroke="#63b8ff" points="988.3,-1552412.82 984.8,-1552402.82 981.3,-1552412.82 988.3,-1552412.82"/>
</g>
<!-- Node18&#45;&gt;Node5 -->
<g id="edge25" class="edge">
<title>Node18&#45;&gt;Node5</title>
<path fill="none" stroke="#63b8ff" d="M91.3,-1164271.58C90.45,-1162199.49 -68.05,-776413.17 153.3,-776160.38 172.22,-776138.77 346.51,-776123.61 445.47,-776116.66"/>
<polygon fill="#63b8ff" stroke="#63b8ff" points="445.53,-776120.1 455.27,-776115.92 445.05,-776113.11 445.53,-776120.1"/>
</g>
<!-- Node19&#45;&gt;Node5 -->
<g id="edge27" class="edge">
<title>Node19&#45;&gt;Node5</title>
<path fill="none" stroke="#63b8ff" d="M590.3,-1940447.28C590.21,-1934825.1 571.3,-776160.38 571.3,-776160.38 565.75,-776148.58 555.72,-776138.69 545.54,-776131.01"/>
<polygon fill="#63b8ff" stroke="#63b8ff" points="547.87,-776127.67 537.66,-776124.83 543.88,-776133.42 547.87,-776127.67"/>
</g>
<!-- Node19&#45;&gt;Node10 -->
<g id="edge28" class="edge">
<title>Node19&#45;&gt;Node10</title>
<path fill="none" stroke="#63b8ff" d="M590.3,-1940447.45C589.85,-1935893.76 513.79,-1169169.02 513.31,-1164305.2"/>
<polygon fill="#63b8ff" stroke="#63b8ff" points="516.81,-1164305.39 513.31,-1164295.39 509.81,-1164305.39 516.81,-1164305.39"/>
</g>
<!-- Node20&#45;&gt;Node5 -->
<g id="edge30" class="edge">
<title>Node20&#45;&gt;Node5</title>
<path fill="none" stroke="#63b8ff" d="M215.3,-1164267.81C214.37,-1161774.68 70.35,-776420.86 282.3,-776160.38 302.61,-776135.43 384.96,-776123.02 445.57,-776117.16"/>
<polygon fill="#63b8ff" stroke="#63b8ff" points="445.6,-776120.58 455.24,-776116.18 444.96,-776113.61 445.6,-776120.58"/>
</g>
</g>
</svg>
