<?xml version="1.0" encoding="UTF-8" standalone="no"?>
<!DOCTYPE svg PUBLIC "-//W3C//DTD SVG 1.1//EN"
 "http://www.w3.org/Graphics/SVG/1.1/DTD/svg11.dtd">
<!-- Generated by graphviz version 8.0.5 (20230430.1635)
 -->
<!-- Title: examples/list_dir_ll.c Pages: 1 -->
<svg width="1099pt" height="2335pt"
 viewBox="0.00 0.00 1098.92 2335.45" xmlns="http://www.w3.org/2000/svg" xmlns:xlink="http://www.w3.org/1999/xlink">
<g id="graph0" class="graph" transform="scale(1 1) rotate(0) translate(4 2331.45)">
<title>examples/list_dir_ll.c</title>
<!-- Node1 -->
<g id="node1" class="node">
<title>Node1</title>
<g id="a_node1"><a xlink:title=" ">
<polygon fill="#999999" stroke="#666666" points="987.17,-2327.45 806.17,-2327.45 806.17,-2308.95 987.17,-2308.95 987.17,-2327.45"/>
<text text-anchor="middle" x="896.67" y="-2313.95" font-family="Helvetica,sans-Serif" font-size="10.00">examples/list_dir_ll.c</text>
</a>
</g>
</g>
<!-- Node2 -->
<g id="node2" class="node">
<title>Node2</title>
<g id="a_node2"><a xlink:href="sqsh_8h.html" target="_top" xlink:title=" ">
<polygon fill="white" stroke="#666666" points="518.17,-2272.95 457.17,-2272.95 457.17,-2254.45 518.17,-2254.45 518.17,-2272.95"/>
<text text-anchor="middle" x="487.67" y="-2259.45" font-family="Helvetica,sans-Serif" font-size="10.00">sqsh.h</text>
</a>
</g>
</g>
<!-- Node1&#45;&gt;Node2 -->
<g id="edge1" class="edge">
<title>Node1&#45;&gt;Node2</title>
<path fill="none" stroke="#63b8ff" d="M828.67,-2308.47C743.4,-2297.52 599.84,-2279.1 529.32,-2270.05"/>
<polygon fill="#63b8ff" stroke="#63b8ff" points="530.01,-2266.48 519.65,-2268.68 529.12,-2273.42 530.01,-2266.48"/>
</g>
<!-- Node12 -->
<g id="node12" class="node">
<title>Node12</title>
<g id="a_node12"><a xlink:title=" ">
<polygon fill="#e0e0e0" stroke="#999999" points="886.92,-1145.93 818.42,-1145.93 818.42,-1127.43 886.92,-1127.43 886.92,-1145.93"/>
<text text-anchor="middle" x="852.67" y="-1132.43" font-family="Helvetica,sans-Serif" font-size="10.00">stdio.h</text>
</a>
</g>
</g>
<!-- Node1&#45;&gt;Node12 -->
<g id="edge30" class="edge">
<title>Node1&#45;&gt;Node12</title>
<path fill="none" stroke="#63b8ff" d="M896.56,-2308.69C895.75,-2247.91 890.36,-1873.29 877.67,-1568.74 871.04,-1409.66 858.2,-1217.83 854.02,-1157.09"/>
<polygon fill="#63b8ff" stroke="#63b8ff" points="857.45,-1156.92 853.27,-1147.18 850.47,-1157.4 857.45,-1156.92"/>
</g>
<!-- Node20 -->
<g id="node20" class="node">
<title>Node20</title>
<g id="a_node20"><a xlink:title=" ">
<polygon fill="#e0e0e0" stroke="#999999" points="1000.67,-2272.95 924.67,-2272.95 924.67,-2254.45 1000.67,-2254.45 1000.67,-2272.95"/>
<text text-anchor="middle" x="962.67" y="-2259.45" font-family="Helvetica,sans-Serif" font-size="10.00">stdlib.h</text>
</a>
</g>
</g>
<!-- Node1&#45;&gt;Node20 -->
<g id="edge31" class="edge">
<title>Node1&#45;&gt;Node20</title>
<path fill="none" stroke="#63b8ff" d="M907.57,-2308.53C917.37,-2300.73 931.99,-2289.1 943.71,-2279.78"/>
<polygon fill="#63b8ff" stroke="#63b8ff" points="945.33,-2282.17 950.97,-2273.21 940.97,-2276.69 945.33,-2282.17"/>
</g>
<!-- Node3 -->
<g id="node3" class="node">
<title>Node3</title>
<g id="a_node3"><a xlink:href="sqsh__archive_8h.html" target="_top" xlink:title=" ">
<polygon fill="white" stroke="#666666" points="381.17,-1532.74 260.17,-1532.74 260.17,-740.62 381.17,-740.62 381.17,-1532.74"/>
<text text-anchor="middle" x="320.67" y="-1519.24" font-family="Helvetica,sans-Serif" font-size="10.00">sqsh_archive.h</text>
</a>
</g>
</g>
<!-- Node2&#45;&gt;Node3 -->
<g id="edge2" class="edge">
<title>Node2&#45;&gt;Node3</title>
<path fill="none" stroke="#63b8ff" d="M456.74,-2260.89C403.51,-2257.06 298.14,-2246.09 275.67,-2218.45 184.6,-2106.41 268.16,-1712.93 275.67,-1568.74 276.1,-1560.58 276.57,-1552.33 277.08,-1544.02"/>
<polygon fill="#63b8ff" stroke="#63b8ff" points="280.63,-1544.27 277.77,-1534.07 273.64,-1543.83 280.63,-1544.27"/>
</g>
<!-- Node4 -->
<g id="node4" class="node">
<title>Node4</title>
<g id="a_node4"><a xlink:href="sqsh__common_8h.html" target="_top" xlink:title=" ">
<polygon fill="white" stroke="#666666" points="505.42,-704.62 391.92,-704.62 391.92,-54.5 505.42,-54.5 505.42,-704.62"/>
<text text-anchor="middle" x="448.67" y="-691.12" font-family="Helvetica,sans-Serif" font-size="10.00">sqsh_common.h</text>
</a>
</g>
</g>
<!-- Node2&#45;&gt;Node4 -->
<g id="edge7" class="edge">
<title>Node2&#45;&gt;Node4</title>
<path fill="none" stroke="#63b8ff" d="M456.89,-2262.1C395.44,-2260.18 261.02,-2252.14 232.67,-2218.45 208.74,-2190.01 237.14,-794.85 251.67,-740.62 278.55,-640.29 338.69,-537.48 385.5,-467.54"/>
<polygon fill="#63b8ff" stroke="#63b8ff" points="388.74,-470 391.43,-459.75 382.93,-466.08 388.74,-470"/>
</g>
<!-- Node8 -->
<g id="node8" class="node">
<title>Node8</title>
<g id="a_node8"><a xlink:href="sqsh__directory_8h.html" target="_top" xlink:title=" ">
<polygon fill="white" stroke="#666666" points="420.67,-2218.26 284.67,-2218.26 284.67,-1568.93 420.67,-1568.93 420.67,-2218.26"/>
<text text-anchor="middle" x="352.67" y="-2204.76" font-family="Helvetica,sans-Serif" font-size="10.00">sqsh_directory.h</text>
</a>
</g>
</g>
<!-- Node2&#45;&gt;Node8 -->
<g id="edge8" class="edge">
<title>Node2&#45;&gt;Node8</title>
<path fill="none" stroke="#63b8ff" d="M472.86,-2254.05C460.8,-2246.24 444.24,-2233.67 434.67,-2218.45 431.75,-2213.81 428.94,-2209.08 426.23,-2204.26"/>
<polygon fill="#63b8ff" stroke="#63b8ff" points="428.98,-2203 421.13,-2195.88 422.83,-2206.34 428.98,-2203"/>
</g>
<!-- Node9 -->
<g id="node9" class="node">
<title>Node9</title>
<g id="a_node9"><a xlink:href="sqsh__file_8h.html" target="_top" xlink:title=" ">
<polygon fill="white" stroke="#666666" points="497.92,-1461.44 399.42,-1461.44 399.42,-811.92 497.92,-811.92 497.92,-1461.44"/>
<text text-anchor="middle" x="448.67" y="-1447.94" font-family="Helvetica,sans-Serif" font-size="10.00">sqsh_file.h</text>
</a>
</g>
</g>
<!-- Node2&#45;&gt;Node9 -->
<g id="edge18" class="edge">
<title>Node2&#45;&gt;Node9</title>
<path fill="none" stroke="#63b8ff" d="M482.59,-2254.25C477.7,-2245.6 470.63,-2231.61 467.67,-2218.45 436.94,-2081.71 435.6,-1736.6 439.82,-1472.84"/>
<polygon fill="#63b8ff" stroke="#63b8ff" points="443.33,-1472.97 440,-1462.92 436.34,-1472.86 443.33,-1472.97"/>
</g>
<!-- Node10 -->
<g id="node10" class="node">
<title>Node10</title>
<g id="a_node10"><a xlink:href="sqsh__easy_8h.html" target="_top" xlink:title=" ">
<polygon fill="white" stroke="#666666" points="1022.92,-2218.45 924.42,-2218.45 924.42,-1568.74 1022.92,-1568.74 1022.92,-2218.45"/>
<text text-anchor="middle" x="973.67" y="-2204.95" font-family="Helvetica,sans-Serif" font-size="10.00">sqsh_easy.h</text>
</a>
</g>
</g>
<!-- Node2&#45;&gt;Node10 -->
<g id="edge11" class="edge">
<title>Node2&#45;&gt;Node10</title>
<path fill="none" stroke="#63b8ff" d="M518.58,-2261.14C605.97,-2256.45 850.29,-2241.41 877.67,-2218.45 893.74,-2204.97 907.2,-2188.94 918.45,-2171.33"/>
<polygon fill="#63b8ff" stroke="#63b8ff" points="921.93,-2173.34 924.14,-2162.98 915.95,-2169.71 921.93,-2173.34"/>
</g>
<!-- Node14 -->
<g id="node14" class="node">
<title>Node14</title>
<g id="a_node14"><a xlink:href="sqsh__error_8h.html" target="_top" xlink:title=" ">
<polygon fill="white" stroke="#666666" points="685.67,-1145.93 579.67,-1145.93 579.67,-1127.43 685.67,-1127.43 685.67,-1145.93"/>
<text text-anchor="middle" x="632.67" y="-1132.43" font-family="Helvetica,sans-Serif" font-size="10.00">sqsh_error.h</text>
</a>
</g>
</g>
<!-- Node2&#45;&gt;Node14 -->
<g id="edge16" class="edge">
<title>Node2&#45;&gt;Node14</title>
<path fill="none" stroke="#63b8ff" d="M518.24,-2261.41C574.5,-2258.32 690.98,-2248.39 715.67,-2218.45 761.6,-2162.75 722.53,-1640.61 715.67,-1568.74 700.3,-1407.62 653.31,-1217.17 637.74,-1156.94"/>
<polygon fill="#63b8ff" stroke="#63b8ff" points="640.9,-1156.18 634.99,-1147.39 634.13,-1157.95 640.9,-1156.18"/>
</g>
<!-- Node15 -->
<g id="node15" class="node">
<title>Node15</title>
<g id="a_node15"><a xlink:href="sqsh__mapper_8h.html" target="_top" xlink:title=" ">
<polygon fill="white" stroke="#666666" points="706.42,-1914.79 592.92,-1914.79 592.92,-1872.4 706.42,-1872.4 706.42,-1914.79"/>
<text text-anchor="middle" x="649.67" y="-1901.29" font-family="Helvetica,sans-Serif" font-size="10.00">sqsh_mapper.h</text>
</a>
</g>
</g>
<!-- Node2&#45;&gt;Node15 -->
<g id="edge19" class="edge">
<title>Node2&#45;&gt;Node15</title>
<path fill="none" stroke="#63b8ff" d="M518.66,-2256.21C540.11,-2250.1 567.6,-2238.73 583.67,-2218.45 653.27,-2130.59 655.08,-1988.25 652.03,-1925.73"/>
<polygon fill="#63b8ff" stroke="#63b8ff" points="655.49,-1925.8 651.42,-1916.01 648.5,-1926.2 655.49,-1925.8"/>
</g>
<!-- Node16 -->
<g id="node16" class="node">
<title>Node16</title>
<g id="a_node16"><a xlink:href="sqsh__posix_8h.html" target="_top" xlink:title=" ">
<polygon fill="white" stroke="#666666" points="868.67,-1906.6 762.67,-1906.6 762.67,-1880.6 868.67,-1880.6 868.67,-1906.6"/>
<text text-anchor="middle" x="815.67" y="-1893.1" font-family="Helvetica,sans-Serif" font-size="10.00">sqsh_posix.h</text>
</a>
</g>
</g>
<!-- Node2&#45;&gt;Node16 -->
<g id="edge20" class="edge">
<title>Node2&#45;&gt;Node16</title>
<path fill="none" stroke="#63b8ff" d="M518.62,-2261.7C580.48,-2259.04 716.25,-2249.72 748.67,-2218.45 833.72,-2136.41 825.32,-1976.95 818.76,-1917.59"/>
<polygon fill="#63b8ff" stroke="#63b8ff" points="822.13,-1917.31 817.46,-1907.81 815.18,-1918.15 822.13,-1917.31"/>
</g>
<!-- Node17 -->
<g id="node17" class="node">
<title>Node17</title>
<g id="a_node17"><a xlink:href="sqsh__table_8h.html" target="_top" xlink:title=" ">
<polygon fill="white" stroke="#666666" points="137.67,-1902.85 31.67,-1902.85 31.67,-1884.35 137.67,-1884.35 137.67,-1902.85"/>
<text text-anchor="middle" x="84.67" y="-1889.35" font-family="Helvetica,sans-Serif" font-size="10.00">sqsh_table.h</text>
</a>
</g>
</g>
<!-- Node2&#45;&gt;Node17 -->
<g id="edge23" class="edge">
<title>Node2&#45;&gt;Node17</title>
<path fill="none" stroke="#63b8ff" d="M456.88,-2263.02C382.43,-2263.14 195.57,-2259.26 151.67,-2218.45 63.12,-2136.15 74.91,-1970.16 81.88,-1913.81"/>
<polygon fill="#63b8ff" stroke="#63b8ff" points="85.44,-1914.63 83.3,-1904.26 78.5,-1913.7 85.44,-1914.63"/>
</g>
<!-- Node18 -->
<g id="node18" class="node">
<title>Node18</title>
<g id="a_node18"><a xlink:href="sqsh__tree_8h.html" target="_top" xlink:title=" ">
<polygon fill="white" stroke="#666666" points="574.92,-1902.85 476.42,-1902.85 476.42,-1884.35 574.92,-1884.35 574.92,-1902.85"/>
<text text-anchor="middle" x="525.67" y="-1889.35" font-family="Helvetica,sans-Serif" font-size="10.00">sqsh_tree.h</text>
</a>
</g>
</g>
<!-- Node2&#45;&gt;Node18 -->
<g id="edge25" class="edge">
<title>Node2&#45;&gt;Node18</title>
<path fill="none" stroke="#63b8ff" d="M488.57,-2253.96C493.45,-2206.71 516.71,-1981.37 523.69,-1913.79"/>
<polygon fill="#63b8ff" stroke="#63b8ff" points="527.25,-1914.39 524.79,-1904.09 520.29,-1913.68 527.25,-1914.39"/>
</g>
<!-- Node19 -->
<g id="node19" class="node">
<title>Node19</title>
<g id="a_node19"><a xlink:href="sqsh__xattr_8h.html" target="_top" xlink:title=" ">
<polygon fill="white" stroke="#666666" points="203.67,-1145.93 97.67,-1145.93 97.67,-1127.43 203.67,-1127.43 203.67,-1145.93"/>
<text text-anchor="middle" x="150.67" y="-1132.43" font-family="Helvetica,sans-Serif" font-size="10.00">sqsh_xattr.h</text>
</a>
</g>
</g>
<!-- Node2&#45;&gt;Node19 -->
<g id="edge28" class="edge">
<title>Node2&#45;&gt;Node19</title>
<path fill="none" stroke="#63b8ff" d="M456.75,-2262.56C390.42,-2261.57 237.77,-2255.23 204.67,-2218.45 130.94,-2136.52 147.01,-1296.6 150.2,-1157.23"/>
<polygon fill="#63b8ff" stroke="#63b8ff" points="153.72,-1157.34 150.46,-1147.27 146.72,-1157.18 153.72,-1157.34"/>
</g>
<!-- Node3&#45;&gt;Node4 -->
<g id="edge3" class="edge">
<title>Node3&#45;&gt;Node4</title>
<path fill="none" stroke="#63b8ff" d="M381.62,-776.09C385.04,-755.95 388.46,-735.75 391.86,-715.71"/>
<polygon fill="#63b8ff" stroke="#63b8ff" points="395.47,-716.37 393.69,-705.92 388.57,-715.2 395.47,-716.37"/>
</g>
<!-- Node5 -->
<g id="node5" class="node">
<title>Node5</title>
<g id="a_node5"><a xlink:title=" ">
<polygon fill="#e0e0e0" stroke="#999999" points="392.42,-18.5 308.92,-18.5 308.92,0 392.42,0 392.42,-18.5"/>
<text text-anchor="middle" x="350.67" y="-5" font-family="Helvetica,sans-Serif" font-size="10.00">stdbool.h</text>
</a>
</g>
</g>
<!-- Node4&#45;&gt;Node5 -->
<g id="edge4" class="edge">
<title>Node4&#45;&gt;Node5</title>
<path fill="none" stroke="#63b8ff" d="M391.45,-163.51C376.61,-107.74 362.81,-55.86 355.69,-29.13"/>
<polygon fill="#63b8ff" stroke="#63b8ff" points="358.87,-28.46 352.92,-19.69 352.11,-30.26 358.87,-28.46"/>
</g>
<!-- Node6 -->
<g id="node6" class="node">
<title>Node6</title>
<g id="a_node6"><a xlink:title=" ">
<polygon fill="#e0e0e0" stroke="#999999" points="486.67,-18.5 410.67,-18.5 410.67,0 486.67,0 486.67,-18.5"/>
<text text-anchor="middle" x="448.67" y="-5" font-family="Helvetica,sans-Serif" font-size="10.00">stddef.h</text>
</a>
</g>
</g>
<!-- Node4&#45;&gt;Node6 -->
<g id="edge5" class="edge">
<title>Node4&#45;&gt;Node6</title>
<path fill="none" stroke="#63b8ff" d="M448.67,-54.31C448.67,-44.83 448.67,-36.56 448.67,-29.83"/>
<polygon fill="#63b8ff" stroke="#63b8ff" points="452.17,-29.85 448.67,-19.85 445.17,-29.85 452.17,-29.85"/>
</g>
<!-- Node7 -->
<g id="node7" class="node">
<title>Node7</title>
<g id="a_node7"><a xlink:title=" ">
<polygon fill="#e0e0e0" stroke="#999999" points="580.67,-18.5 504.67,-18.5 504.67,0 580.67,0 580.67,-18.5"/>
<text text-anchor="middle" x="542.67" y="-5" font-family="Helvetica,sans-Serif" font-size="10.00">stdint.h</text>
</a>
</g>
</g>
<!-- Node4&#45;&gt;Node7 -->
<g id="edge6" class="edge">
<title>Node4&#45;&gt;Node7</title>
<path fill="none" stroke="#63b8ff" d="M505.86,-154.49C519.12,-102.53 531.24,-55.02 537.73,-29.61"/>
<polygon fill="#63b8ff" stroke="#63b8ff" points="541.36,-30.54 540.44,-19.99 534.58,-28.81 541.36,-30.54"/>
</g>
<!-- Node8&#45;&gt;Node9 -->
<g id="edge9" class="edge">
<title>Node8&#45;&gt;Node9</title>
<path fill="none" stroke="#63b8ff" d="M393.87,-1568.61C397.91,-1536.81 402.02,-1504.5 406.08,-1472.6"/>
<polygon fill="#63b8ff" stroke="#63b8ff" points="409.66,-1473.15 407.45,-1462.79 402.72,-1472.27 409.66,-1473.15"/>
</g>
<!-- Node9&#45;&gt;Node4 -->
<g id="edge10" class="edge">
<title>Node9&#45;&gt;Node4</title>
<path fill="none" stroke="#63b8ff" d="M448.67,-811.61C448.67,-779.89 448.67,-747.66 448.67,-715.84"/>
<polygon fill="#63b8ff" stroke="#63b8ff" points="452.17,-716.06 448.67,-706.06 445.17,-716.06 452.17,-716.06"/>
</g>
<!-- Node10&#45;&gt;Node4 -->
<g id="edge12" class="edge">
<title>Node10&#45;&gt;Node4</title>
<path fill="none" stroke="#63b8ff" d="M937.65,-1568.52C936.59,-1556.44 935.6,-1544.49 934.67,-1532.74 927.75,-1444.89 935.65,-819.14 895.67,-740.62 812.56,-577.38 618.33,-462.93 515.42,-411.36"/>
<polygon fill="#63b8ff" stroke="#63b8ff" points="517.26,-407.87 506.75,-406.56 514.15,-414.14 517.26,-407.87"/>
</g>
<!-- Node11 -->
<g id="node11" class="node">
<title>Node11</title>
<g id="a_node11"><a xlink:title=" ">
<polygon fill="#e0e0e0" stroke="#999999" points="1090.92,-1145.93 1022.42,-1145.93 1022.42,-1127.43 1090.92,-1127.43 1090.92,-1145.93"/>
<text text-anchor="middle" x="1056.67" y="-1132.43" font-family="Helvetica,sans-Serif" font-size="10.00">fcntl.h</text>
</a>
</g>
</g>
<!-- Node10&#45;&gt;Node11 -->
<g id="edge13" class="edge">
<title>Node10&#45;&gt;Node11</title>
<path fill="none" stroke="#63b8ff" d="M1009.74,-1568.44C1011.07,-1556.39 1012.38,-1544.46 1013.67,-1532.74 1029.55,-1388.35 1048.4,-1214.23 1054.59,-1156.96"/>
<polygon fill="#63b8ff" stroke="#63b8ff" points="1058.14,-1157.62 1055.74,-1147.3 1051.19,-1156.86 1058.14,-1157.62"/>
</g>
<!-- Node10&#45;&gt;Node12 -->
<g id="edge14" class="edge">
<title>Node10&#45;&gt;Node12</title>
<path fill="none" stroke="#63b8ff" d="M923.98,-1628C919.66,-1607.91 915.21,-1587.98 910.67,-1568.74 906.86,-1552.58 903.9,-1549.03 900.67,-1532.74 872.35,-1390.05 858.15,-1214.84 853.99,-1157.12"/>
<polygon fill="#63b8ff" stroke="#63b8ff" points="857.43,-1157.11 853.24,-1147.37 850.45,-1157.59 857.43,-1157.11"/>
</g>
<!-- Node13 -->
<g id="node13" class="node">
<title>Node13</title>
<g id="a_node13"><a xlink:title=" ">
<polygon fill="#e0e0e0" stroke="#999999" points="1004.17,-1463.13 943.17,-1463.13 943.17,-810.23 1004.17,-810.23 1004.17,-1463.13"/>
<text text-anchor="middle" x="973.67" y="-1449.63" font-family="Helvetica,sans-Serif" font-size="10.00">time.h</text>
</a>
</g>
</g>
<!-- Node10&#45;&gt;Node13 -->
<g id="edge15" class="edge">
<title>Node10&#45;&gt;Node13</title>
<path fill="none" stroke="#63b8ff" d="M973.67,-1568.34C973.67,-1537.09 973.67,-1505.35 973.67,-1473.98"/>
<polygon fill="#63b8ff" stroke="#63b8ff" points="977.17,-1474.37 973.67,-1464.37 970.17,-1474.37 977.17,-1474.37"/>
</g>
<!-- Node14&#45;&gt;Node4 -->
<g id="edge17" class="edge">
<title>Node14&#45;&gt;Node4</title>
<path fill="none" stroke="#63b8ff" d="M630.69,-1127.05C621,-1084.77 577.43,-895.32 539.67,-740.62 529.77,-700.05 519.06,-656.97 508.57,-615.24"/>
<polygon fill="#63b8ff" stroke="#63b8ff" points="511.74,-614.5 505.91,-605.66 504.96,-616.21 511.74,-614.5"/>
</g>
<!-- Node16&#45;&gt;Node4 -->
<g id="edge21" class="edge">
<title>Node16&#45;&gt;Node4</title>
<path fill="none" stroke="#63b8ff" d="M815.21,-1880.34C811,-1771.26 777.35,-965.72 694.67,-740.62 653.85,-629.48 571.09,-519.75 512.88,-451.19"/>
<polygon fill="#63b8ff" stroke="#63b8ff" points="515.06,-449.36 505.9,-444.04 509.74,-453.91 515.06,-449.36"/>
</g>
<!-- Node16&#45;&gt;Node12 -->
<g id="edge22" class="edge">
<title>Node16&#45;&gt;Node12</title>
<path fill="none" stroke="#63b8ff" d="M816.28,-1880.12C820.59,-1792.16 846.4,-1265.6 851.71,-1157.19"/>
<polygon fill="#63b8ff" stroke="#63b8ff" points="855.25,-1157.49 852.25,-1147.33 848.26,-1157.15 855.25,-1157.49"/>
</g>
<!-- Node17&#45;&gt;Node4 -->
<g id="edge24" class="edge">
<title>Node17&#45;&gt;Node4</title>
<path fill="none" stroke="#63b8ff" d="M82.29,-1883.87C60.79,-1803.29 -95,-1181.92 88.67,-740.62 148.46,-596.97 296.22,-480.64 382.72,-421.97"/>
<polygon fill="#63b8ff" stroke="#63b8ff" points="384.32,-424.44 390.66,-415.96 380.41,-418.63 384.32,-424.44"/>
</g>
<!-- Node18&#45;&gt;Node4 -->
<g id="edge26" class="edge">
<title>Node18&#45;&gt;Node4</title>
<path fill="none" stroke="#63b8ff" d="M525.99,-1884.33C528.82,-1807.92 548.73,-1216.82 506.67,-740.62 505.94,-732.3 505.12,-723.89 504.24,-715.41"/>
<polygon fill="#63b8ff" stroke="#63b8ff" points="507.63,-715.21 503.09,-705.64 500.67,-715.95 507.63,-715.21"/>
</g>
<!-- Node18&#45;&gt;Node9 -->
<g id="edge27" class="edge">
<title>Node18&#45;&gt;Node9</title>
<path fill="none" stroke="#63b8ff" d="M524.78,-1883.86C520.44,-1841.3 500.99,-1650.59 482.84,-1472.64"/>
<polygon fill="#63b8ff" stroke="#63b8ff" points="486.22,-1472.35 481.73,-1462.75 479.26,-1473.06 486.22,-1472.35"/>
</g>
<!-- Node19&#45;&gt;Node4 -->
<g id="edge29" class="edge">
<title>Node19&#45;&gt;Node4</title>
<path fill="none" stroke="#63b8ff" d="M150.87,-1127C152.12,-1083.74 160.81,-887.57 217.67,-740.62 258.36,-635.45 332.04,-528.38 385.26,-458.66"/>
<polygon fill="#63b8ff" stroke="#63b8ff" points="388.33,-461.41 391.65,-451.34 382.78,-457.14 388.33,-461.41"/>
</g>
</g>
</svg>
