<?xml version="1.0" encoding="UTF-8" standalone="no"?>
<!DOCTYPE svg PUBLIC "-//W3C//DTD SVG 1.1//EN"
 "http://www.w3.org/Graphics/SVG/1.1/DTD/svg11.dtd">
<!-- Generated by graphviz version 8.0.5 (20230430.1635)
 -->
<!-- Title: examples/list_dir_ll.c Pages: 1 -->
<svg width="1155pt" height="1293160pt"
 viewBox="0.00 0.00 1154.91 1293160.45" xmlns="http://www.w3.org/2000/svg" xmlns:xlink="http://www.w3.org/1999/xlink">
<g id="graph0" class="graph" transform="scale(1 1) rotate(0) translate(4 1293156.45)">
<title>examples/list_dir_ll.c</title>
<!-- Node1 -->
<g id="node1" class="node">
<title>Node1</title>
<g id="a_node1"><a xlink:title=" ">
<polygon fill="#999999" stroke="#666666" points="1006.93,-1293152.45 825.93,-1293152.45 825.93,-1293133.95 1006.93,-1293133.95 1006.93,-1293152.45"/>
<text text-anchor="middle" x="916.43" y="-1293138.95" font-family="Helvetica,sans-Serif" font-size="10.00">examples/list_dir_ll.c</text>
</a>
</g>
</g>
<!-- Node2 -->
<g id="node2" class="node">
<title>Node2</title>
<g id="a_node2"><a xlink:href="sqsh_8h.html" target="_top" xlink:title=" ">
<polygon fill="white" stroke="#666666" points="537.93,-1293097.95 476.93,-1293097.95 476.93,-1293079.45 537.93,-1293079.45 537.93,-1293097.95"/>
<text text-anchor="middle" x="507.43" y="-1293084.45" font-family="Helvetica,sans-Serif" font-size="10.00">sqsh.h</text>
</a>
</g>
</g>
<!-- Node1&#45;&gt;Node2 -->
<g id="edge1" class="edge">
<title>Node1&#45;&gt;Node2</title>
<path fill="none" stroke="#63b8ff" d="M848.43,-1293133.47C763.16,-1293122.52 619.6,-1293104.1 549.08,-1293095.05"/>
<polygon fill="#63b8ff" stroke="#63b8ff" points="549.77,-1293091.48 539.41,-1293093.68 548.88,-1293098.42 549.77,-1293091.48"/>
</g>
<!-- Node12 -->
<g id="node12" class="node">
<title>Node12</title>
<g id="a_node12"><a xlink:title=" ">
<polygon fill="#e0e0e0" stroke="#999999" points="906.68,-646558.43 838.18,-646558.43 838.18,-646539.93 906.68,-646539.93 906.68,-646558.43"/>
<text text-anchor="middle" x="872.43" y="-646544.93" font-family="Helvetica,sans-Serif" font-size="10.00">stdio.h</text>
</a>
</g>
</g>
<!-- Node1&#45;&gt;Node12 -->
<g id="edge30" class="edge">
<title>Node1&#45;&gt;Node12</title>
<path fill="none" stroke="#63b8ff" d="M916.43,-1293133.52C916.4,-1291476.63 912.71,-1053018.26 897.43,-862118.74 889.82,-767016.89 872.68,-648314.87 872.43,-646569.65"/>
<polygon fill="#63b8ff" stroke="#63b8ff" points="875.93,-646569.73 872.43,-646559.73 868.93,-646569.73 875.93,-646569.73"/>
</g>
<!-- Node20 -->
<g id="node20" class="node">
<title>Node20</title>
<g id="a_node20"><a xlink:title=" ">
<polygon fill="#e0e0e0" stroke="#999999" points="1020.43,-1293097.95 944.43,-1293097.95 944.43,-1293079.45 1020.43,-1293079.45 1020.43,-1293097.95"/>
<text text-anchor="middle" x="982.43" y="-1293084.45" font-family="Helvetica,sans-Serif" font-size="10.00">stdlib.h</text>
</a>
</g>
</g>
<!-- Node1&#45;&gt;Node20 -->
<g id="edge31" class="edge">
<title>Node1&#45;&gt;Node20</title>
<path fill="none" stroke="#63b8ff" d="M927.33,-1293133.53C937.13,-1293125.73 951.75,-1293114.1 963.47,-1293104.78"/>
<polygon fill="#63b8ff" stroke="#63b8ff" points="965.09,-1293107.17 970.73,-1293098.21 960.73,-1293101.69 965.09,-1293107.17"/>
</g>
<!-- Node3 -->
<g id="node3" class="node">
<title>Node3</title>
<g id="a_node3"><a xlink:href="sqsh__archive_8h.html" target="_top" xlink:title=" ">
<polygon fill="white" stroke="#666666" points="400.93,-862082.74 279.93,-862082.74 279.93,-431015.62 400.93,-431015.62 400.93,-862082.74"/>
<text text-anchor="middle" x="340.43" y="-862069.24" font-family="Helvetica,sans-Serif" font-size="10.00">sqsh_archive.h</text>
</a>
</g>
</g>
<!-- Node2&#45;&gt;Node3 -->
<g id="edge2" class="edge">
<title>Node2&#45;&gt;Node3</title>
<path fill="none" stroke="#63b8ff" d="M476.49,-1293085.89C423.27,-1293082.06 317.9,-1293071.09 295.43,-1293043.45 295.43,-1293043.45 295.43,-862118.74 295.43,-862118.74 295.43,-862110.48 295.43,-862102.22 295.43,-862093.96"/>
<polygon fill="#63b8ff" stroke="#63b8ff" points="298.93,-862094.11 295.43,-862084.11 291.93,-862094.11 298.93,-862094.11"/>
</g>
<!-- Node4 -->
<g id="node4" class="node">
<title>Node4</title>
<g id="a_node4"><a xlink:href="sqsh__common_8h.html" target="_top" xlink:title=" ">
<polygon fill="white" stroke="#666666" points="525.18,-430979.62 411.68,-430979.62 411.68,-54.5 525.18,-54.5 525.18,-430979.62"/>
<text text-anchor="middle" x="468.43" y="-430966.12" font-family="Helvetica,sans-Serif" font-size="10.00">sqsh_common.h</text>
</a>
</g>
</g>
<!-- Node2&#45;&gt;Node4 -->
<g id="edge7" class="edge">
<title>Node2&#45;&gt;Node4</title>
<path fill="none" stroke="#63b8ff" d="M476.77,-1293086.04C422.83,-1293082.41 314.48,-1293071.7 291.43,-1293043.45 291.43,-1293043.45 271.43,-862082.74 271.43,-862082.74 269.21,-766290.05 227.64,-526808.3 271.43,-431015.62 297.6,-373757.68 362.89,-307942.17 411.17,-264264.83"/>
<polygon fill="#63b8ff" stroke="#63b8ff" points="414.67,-264264.84 411.18,-264254.83 407.67,-264264.83 414.67,-264264.84"/>
</g>
<!-- Node8 -->
<g id="node8" class="node">
<title>Node8</title>
<g id="a_node8"><a xlink:href="sqsh__directory_8h.html" target="_top" xlink:title=" ">
<polygon fill="white" stroke="#666666" points="440.43,-1293043.26 304.43,-1293043.26 304.43,-862118.93 440.43,-862118.93 440.43,-1293043.26"/>
<text text-anchor="middle" x="372.43" y="-1293029.76" font-family="Helvetica,sans-Serif" font-size="10.00">sqsh_directory.h</text>
</a>
</g>
</g>
<!-- Node2&#45;&gt;Node8 -->
<g id="edge8" class="edge">
<title>Node2&#45;&gt;Node8</title>
<path fill="none" stroke="#63b8ff" d="M490.59,-1293078.99C478.04,-1293071.46 461.85,-1293059.3 454.43,-1293043.45 449.77,-1293033.5 445.31,-1292838.13 441.05,-1292468.26"/>
<polygon fill="#63b8ff" stroke="#63b8ff" points="444.54,-1292468.23 440.93,-1292458.27 437.54,-1292468.31 444.54,-1292468.23"/>
</g>
<!-- Node9 -->
<g id="node9" class="node">
<title>Node9</title>
<g id="a_node9"><a xlink:href="sqsh__file_8h.html" target="_top" xlink:title=" ">
<polygon fill="white" stroke="#666666" points="517.68,-862011.44 419.18,-862011.44 419.18,-431086.92 517.68,-431086.92 517.68,-862011.44"/>
<text text-anchor="middle" x="468.43" y="-861997.94" font-family="Helvetica,sans-Serif" font-size="10.00">sqsh_file.h</text>
</a>
</g>
</g>
<!-- Node2&#45;&gt;Node9 -->
<g id="edge18" class="edge">
<title>Node2&#45;&gt;Node9</title>
<path fill="none" stroke="#63b8ff" d="M502.3,-1293079.26C497.37,-1293070.62 490.27,-1293056.64 487.43,-1293043.45 487.43,-1293043.45 480.29,-1050060.18 474.76,-862022.48"/>
<polygon fill="#63b8ff" stroke="#63b8ff" points="478.26,-862022.72 474.76,-862012.73 471.26,-862022.73 478.26,-862022.72"/>
</g>
<!-- Node10 -->
<g id="node10" class="node">
<title>Node10</title>
<g id="a_node10"><a xlink:href="sqsh__easy_8h.html" target="_top" xlink:title=" ">
<polygon fill="white" stroke="#666666" points="1042.68,-1293043.45 944.18,-1293043.45 944.18,-862118.74 1042.68,-862118.74 1042.68,-1293043.45"/>
<text text-anchor="middle" x="993.43" y="-1293029.95" font-family="Helvetica,sans-Serif" font-size="10.00">sqsh_easy.h</text>
</a>
</g>
</g>
<!-- Node2&#45;&gt;Node10 -->
<g id="edge11" class="edge">
<title>Node2&#45;&gt;Node10</title>
<path fill="none" stroke="#63b8ff" d="M538.37,-1293086.51C626.43,-1293082.81 873.59,-1293070.13 897.43,-1293043.45 1278.71,-1292616.65 1132.83,-1166757.51 1043.19,-1107621.14"/>
<polygon fill="#63b8ff" stroke="#63b8ff" points="1046.69,-1107621.31 1043.18,-1107611.32 1039.69,-1107621.32 1046.69,-1107621.31"/>
</g>
<!-- Node14 -->
<g id="node14" class="node">
<title>Node14</title>
<g id="a_node14"><a xlink:href="sqsh__error_8h.html" target="_top" xlink:title=" ">
<polygon fill="white" stroke="#666666" points="705.43,-646558.43 599.43,-646558.43 599.43,-646539.93 705.43,-646539.93 705.43,-646558.43"/>
<text text-anchor="middle" x="652.43" y="-646544.93" font-family="Helvetica,sans-Serif" font-size="10.00">sqsh_error.h</text>
</a>
</g>
</g>
<!-- Node2&#45;&gt;Node14 -->
<g id="edge16" class="edge">
<title>Node2&#45;&gt;Node14</title>
<path fill="none" stroke="#63b8ff" d="M538,-1293086.41C594.26,-1293083.32 710.74,-1293073.39 735.43,-1293043.45 735.43,-1293043.45 735.43,-862118.74 735.43,-862118.74 717.12,-767016.88 653.38,-648314.87 652.44,-646569.65"/>
<polygon fill="#63b8ff" stroke="#63b8ff" points="655.94,-646569.73 652.43,-646559.73 648.94,-646569.73 655.94,-646569.73"/>
</g>
<!-- Node15 -->
<g id="node15" class="node">
<title>Node15</title>
<g id="a_node15"><a xlink:href="sqsh__mapper_8h.html" target="_top" xlink:title=" ">
<polygon fill="white" stroke="#666666" points="726.18,-1077602.29 612.68,-1077602.29 612.68,-1077559.9 726.18,-1077559.9 726.18,-1077602.29"/>
<text text-anchor="middle" x="669.43" y="-1077588.79" font-family="Helvetica,sans-Serif" font-size="10.00">sqsh_mapper.h</text>
</a>
</g>
</g>
<!-- Node2&#45;&gt;Node15 -->
<g id="edge19" class="edge">
<title>Node2&#45;&gt;Node15</title>
<path fill="none" stroke="#63b8ff" d="M538.29,-1293082.48C560.58,-1293076.92 589.18,-1293065.7 603.43,-1293043.45 803.76,-1292730.63 671.3,-1080562.45 669.45,-1077613.13"/>
<polygon fill="#63b8ff" stroke="#63b8ff" points="672.95,-1077613.37 669.44,-1077603.37 665.95,-1077613.37 672.95,-1077613.37"/>
</g>
<!-- Node16 -->
<g id="node16" class="node">
<title>Node16</title>
<g id="a_node16"><a xlink:href="sqsh__posix_8h.html" target="_top" xlink:title=" ">
<polygon fill="white" stroke="#666666" points="888.43,-1077594.1 782.43,-1077594.1 782.43,-1077568.1 888.43,-1077568.1 888.43,-1077594.1"/>
<text text-anchor="middle" x="835.43" y="-1077580.6" font-family="Helvetica,sans-Serif" font-size="10.00">sqsh_posix.h</text>
</a>
</g>
</g>
<!-- Node2&#45;&gt;Node16 -->
<g id="edge20" class="edge">
<title>Node2&#45;&gt;Node16</title>
<path fill="none" stroke="#63b8ff" d="M537.97,-1293087.24C600.4,-1293085.59 739.21,-1293078.03 768.43,-1293043.45 1008.4,-1292759.45 837.52,-1080171.54 835.45,-1077605.51"/>
<polygon fill="#63b8ff" stroke="#63b8ff" points="838.95,-1077605.52 835.44,-1077595.53 831.95,-1077605.53 838.95,-1077605.52"/>
</g>
<!-- Node17 -->
<g id="node17" class="node">
<title>Node17</title>
<g id="a_node17"><a xlink:href="sqsh__table_8h.html" target="_top" xlink:title=" ">
<polygon fill="white" stroke="#666666" points="157.43,-1077590.35 51.43,-1077590.35 51.43,-1077571.85 157.43,-1077571.85 157.43,-1077590.35"/>
<text text-anchor="middle" x="104.43" y="-1077576.85" font-family="Helvetica,sans-Serif" font-size="10.00">sqsh_table.h</text>
</a>
</g>
</g>
<!-- Node2&#45;&gt;Node17 -->
<g id="edge23" class="edge">
<title>Node2&#45;&gt;Node17</title>
<path fill="none" stroke="#63b8ff" d="M476.56,-1293085.92C397.3,-1293081.04 191.43,-1293066.26 171.43,-1293043.45 -73.89,-1292763.79 102.47,-1079936.78 104.41,-1077601.46"/>
<polygon fill="#63b8ff" stroke="#63b8ff" points="107.91,-1077601.73 104.42,-1077591.73 100.91,-1077601.73 107.91,-1077601.73"/>
</g>
<!-- Node18 -->
<g id="node18" class="node">
<title>Node18</title>
<g id="a_node18"><a xlink:href="sqsh__tree_8h.html" target="_top" xlink:title=" ">
<polygon fill="white" stroke="#666666" points="594.68,-1077590.35 496.18,-1077590.35 496.18,-1077571.85 594.68,-1077571.85 594.68,-1077590.35"/>
<text text-anchor="middle" x="545.43" y="-1077576.85" font-family="Helvetica,sans-Serif" font-size="10.00">sqsh_tree.h</text>
</a>
</g>
</g>
<!-- Node2&#45;&gt;Node18 -->
<g id="edge25" class="edge">
<title>Node2&#45;&gt;Node18</title>
<path fill="none" stroke="#63b8ff" d="M507.43,-1293079.05C507.71,-1291520.78 545.02,-1079923.14 545.43,-1077601.34"/>
<polygon fill="#63b8ff" stroke="#63b8ff" points="548.93,-1077601.68 545.43,-1077591.68 541.93,-1077601.68 548.93,-1077601.68"/>
</g>
<!-- Node19 -->
<g id="node19" class="node">
<title>Node19</title>
<g id="a_node19"><a xlink:href="sqsh__xattr_8h.html" target="_top" xlink:title=" ">
<polygon fill="white" stroke="#666666" points="223.43,-646558.43 117.43,-646558.43 117.43,-646539.93 223.43,-646539.93 223.43,-646558.43"/>
<text text-anchor="middle" x="170.43" y="-646544.93" font-family="Helvetica,sans-Serif" font-size="10.00">sqsh_xattr.h</text>
</a>
</g>
</g>
<!-- Node2&#45;&gt;Node19 -->
<g id="edge28" class="edge">
<title>Node2&#45;&gt;Node19</title>
<path fill="none" stroke="#63b8ff" d="M476.62,-1293087.69C410.15,-1293086.94 256.64,-1293081.09 224.43,-1293043.45 224.43,-1293043.45 170.77,-650605.19 170.43,-646569.28"/>
<polygon fill="#63b8ff" stroke="#63b8ff" points="173.93,-646569.52 170.43,-646559.52 166.93,-646569.52 173.93,-646569.52"/>
</g>
<!-- Node3&#45;&gt;Node4 -->
<g id="edge3" class="edge">
<title>Node3&#45;&gt;Node4</title>
<path fill="none" stroke="#63b8ff" d="M401.43,-441135.49C404.68,-430192.05 407.94,-419213.81 411.18,-408313.95"/>
<polygon fill="#63b8ff" stroke="#63b8ff" points="414.68,-408313.97 411.18,-408303.97 407.68,-408313.97 414.68,-408313.97"/>
</g>
<!-- Node5 -->
<g id="node5" class="node">
<title>Node5</title>
<g id="a_node5"><a xlink:title=" ">
<polygon fill="#e0e0e0" stroke="#999999" points="412.18,-18.5 328.68,-18.5 328.68,0 412.18,0 412.18,-18.5"/>
<text text-anchor="middle" x="370.43" y="-5" font-family="Helvetica,sans-Serif" font-size="10.00">stdbool.h</text>
</a>
</g>
</g>
<!-- Node4&#45;&gt;Node5 -->
<g id="edge4" class="edge">
<title>Node4&#45;&gt;Node5</title>
<path fill="none" stroke="#63b8ff" d="M411.18,-89621.38C389.98,-43011.31 370.91,-1064.3 370.44,-29.8"/>
<polygon fill="#63b8ff" stroke="#63b8ff" points="373.94,-29.99 370.43,-20 366.94,-30 373.94,-29.99"/>
</g>
<!-- Node6 -->
<g id="node6" class="node">
<title>Node6</title>
<g id="a_node6"><a xlink:title=" ">
<polygon fill="#e0e0e0" stroke="#999999" points="506.43,-18.5 430.43,-18.5 430.43,0 506.43,0 506.43,-18.5"/>
<text text-anchor="middle" x="468.43" y="-5" font-family="Helvetica,sans-Serif" font-size="10.00">stddef.h</text>
</a>
</g>
</g>
<!-- Node4&#45;&gt;Node6 -->
<g id="edge5" class="edge">
<title>Node4&#45;&gt;Node6</title>
<path fill="none" stroke="#63b8ff" d="M468.43,-54.23C468.43,-44.47 468.43,-36.33 468.43,-29.81"/>
<polygon fill="#63b8ff" stroke="#63b8ff" points="471.93,-30 468.43,-20 464.93,-30 471.93,-30"/>
</g>
<!-- Node7 -->
<g id="node7" class="node">
<title>Node7</title>
<g id="a_node7"><a xlink:title=" ">
<polygon fill="#e0e0e0" stroke="#999999" points="600.43,-18.5 524.43,-18.5 524.43,0 600.43,0 600.43,-18.5"/>
<text text-anchor="middle" x="562.43" y="-5" font-family="Helvetica,sans-Serif" font-size="10.00">stdint.h</text>
</a>
</g>
</g>
<!-- Node4&#45;&gt;Node7 -->
<g id="edge6" class="edge">
<title>Node4&#45;&gt;Node7</title>
<path fill="none" stroke="#63b8ff" d="M525.68,-84263.87C545.05,-39843.63 561.99,-1024.08 562.42,-29.78"/>
<polygon fill="#63b8ff" stroke="#63b8ff" points="565.92,-29.83 562.43,-19.83 558.92,-29.83 565.92,-29.83"/>
</g>
<!-- Node8&#45;&gt;Node9 -->
<g id="edge9" class="edge">
<title>Node8&#45;&gt;Node9</title>
<path fill="none" stroke="#63b8ff" d="M420.42,-862118.47C420.42,-862086.52 420.43,-862054.57 420.44,-862022.62"/>
<polygon fill="#63b8ff" stroke="#63b8ff" points="423.94,-862022.79 420.44,-862012.78 416.94,-862022.78 423.94,-862022.79"/>
</g>
<!-- Node9&#45;&gt;Node4 -->
<g id="edge10" class="edge">
<title>Node9&#45;&gt;Node4</title>
<path fill="none" stroke="#63b8ff" d="M468.43,-431086.45C468.43,-431054.6 468.43,-431022.74 468.43,-430990.88"/>
<polygon fill="#63b8ff" stroke="#63b8ff" points="471.93,-430991.07 468.43,-430981.07 464.93,-430991.07 471.93,-430991.07"/>
</g>
<!-- Node10&#45;&gt;Node4 -->
<g id="edge12" class="edge">
<title>Node10&#45;&gt;Node4</title>
<path fill="none" stroke="#63b8ff" d="M954.43,-862118.37C954.43,-862106.49 954.43,-862094.62 954.43,-862082.74 947.93,-814186.4 967.27,-478911.94 915.43,-431015.62 838.19,-359654.62 627.9,-275001.48 525.71,-236478.68"/>
<polygon fill="#63b8ff" stroke="#63b8ff" points="529.21,-236479.09 525.68,-236469.1 522.21,-236479.11 529.21,-236479.09"/>
</g>
<!-- Node11 -->
<g id="node11" class="node">
<title>Node11</title>
<g id="a_node11"><a xlink:title=" ">
<polygon fill="#e0e0e0" stroke="#999999" points="1110.68,-646558.43 1042.18,-646558.43 1042.18,-646539.93 1110.68,-646539.93 1110.68,-646558.43"/>
<text text-anchor="middle" x="1076.43" y="-646544.93" font-family="Helvetica,sans-Serif" font-size="10.00">fcntl.h</text>
</a>
</g>
</g>
<!-- Node10&#45;&gt;Node11 -->
<g id="edge13" class="edge">
<title>Node10&#45;&gt;Node11</title>
<path fill="none" stroke="#63b8ff" d="M1034.92,-862118.47C1055.51,-755177.18 1076.11,-648218.39 1076.43,-646569.49"/>
<polygon fill="#63b8ff" stroke="#63b8ff" points="1079.93,-646569.67 1076.43,-646559.67 1072.93,-646569.66 1079.93,-646569.67"/>
</g>
<!-- Node10&#45;&gt;Node12 -->
<g id="edge14" class="edge">
<title>Node10&#45;&gt;Node12</title>
<path fill="none" stroke="#63b8ff" d="M1043.18,-1042224.1C1120.23,-981659.52 1230.36,-864316.75 930.43,-862118.74 928.18,-862102.29 922.67,-862099.2 920.43,-862082.74 719.22,-860607.86 870.75,-648892.53 872.41,-646569.44"/>
<polygon fill="#63b8ff" stroke="#63b8ff" points="875.92,-646569.77 872.42,-646559.77 868.92,-646569.77 875.92,-646569.77"/>
</g>
<!-- Node13 -->
<g id="node13" class="node">
<title>Node13</title>
<g id="a_node13"><a xlink:title=" ">
<polygon fill="#e0e0e0" stroke="#999999" points="1023.93,-862013.13 962.93,-862013.13 962.93,-431085.23 1023.93,-431085.23 1023.93,-862013.13"/>
<text text-anchor="middle" x="993.43" y="-861999.63" font-family="Helvetica,sans-Serif" font-size="10.00">time.h</text>
</a>
</g>
</g>
<!-- Node10&#45;&gt;Node13 -->
<g id="edge15" class="edge">
<title>Node10&#45;&gt;Node13</title>
<path fill="none" stroke="#63b8ff" d="M993.43,-862118.47C993.43,-862086.98 993.43,-862055.49 993.43,-862024.01"/>
<polygon fill="#63b8ff" stroke="#63b8ff" points="996.93,-862024.33 993.43,-862014.33 989.93,-862024.33 996.93,-862024.33"/>
</g>
<!-- Node14&#45;&gt;Node4 -->
<g id="edge17" class="edge">
<title>Node14&#45;&gt;Node4</title>
<path fill="none" stroke="#63b8ff" d="M652.43,-646539.7C651.84,-645159.49 579.47,-475643.45 525.68,-349640.03"/>
<polygon fill="#63b8ff" stroke="#63b8ff" points="529.18,-349640.21 525.68,-349630.22 522.18,-349640.22 529.18,-349640.21"/>
</g>
<!-- Node16&#45;&gt;Node4 -->
<g id="edge21" class="edge">
<title>Node16&#45;&gt;Node4</title>
<path fill="none" stroke="#63b8ff" d="M835.43,-1077567.7C835.28,-1074697.86 809.61,-574284.41 714.43,-431015.62 673.8,-369859.25 584.76,-298940.36 525.69,-255661.04"/>
<polygon fill="#63b8ff" stroke="#63b8ff" points="529.19,-255661.14 525.68,-255651.15 522.19,-255661.15 529.19,-255661.14"/>
</g>
<!-- Node16&#45;&gt;Node12 -->
<g id="edge22" class="edge">
<title>Node16&#45;&gt;Node12</title>
<path fill="none" stroke="#63b8ff" d="M835.43,-1077568.08C835.65,-1074963.44 872.14,-649861.66 872.43,-646569.4"/>
<polygon fill="#63b8ff" stroke="#63b8ff" points="875.93,-646569.61 872.43,-646559.61 868.93,-646569.61 875.93,-646569.61"/>
</g>
<!-- Node17&#45;&gt;Node4 -->
<g id="edge24" class="edge">
<title>Node17&#45;&gt;Node4</title>
<path fill="none" stroke="#63b8ff" d="M104.42,-1077571.61C103.1,-1075563.66 -131.81,-717570.7 108.43,-431015.62 165.79,-362589.98 324.94,-281943.15 411.16,-241462.42"/>
<polygon fill="#63b8ff" stroke="#63b8ff" points="414.66,-241462.78 411.18,-241452.77 407.66,-241462.76 414.66,-241462.78"/>
</g>
<!-- Node18&#45;&gt;Node4 -->
<g id="edge26" class="edge">
<title>Node18&#45;&gt;Node4</title>
<path fill="none" stroke="#63b8ff" d="M545.43,-1077571.61C545.56,-1075563.66 569.2,-717570.8 526.43,-431015.62 526.19,-429399.81 525.94,-427777.19 525.68,-426148.45"/>
<polygon fill="#63b8ff" stroke="#63b8ff" points="529.18,-426148.69 525.68,-426138.69 522.18,-426148.69 529.18,-426148.69"/>
</g>
<!-- Node18&#45;&gt;Node9 -->
<g id="edge27" class="edge">
<title>Node18&#45;&gt;Node9</title>
<path fill="none" stroke="#63b8ff" d="M545.43,-1077571.61C545.23,-1076475.01 526.07,-969241.65 506.92,-862022.4"/>
<polygon fill="#63b8ff" stroke="#63b8ff" points="510.42,-862022.66 506.92,-862012.66 503.42,-862022.66 510.42,-862022.66"/>
</g>
<!-- Node19&#45;&gt;Node4 -->
<g id="edge29" class="edge">
<title>Node19&#45;&gt;Node4</title>
<path fill="none" stroke="#63b8ff" d="M170.43,-646539.63C170.44,-645379.41 171.52,-526340.11 237.43,-431015.62 278.4,-371754.94 357.11,-303327.59 411.17,-259764.24"/>
<polygon fill="#63b8ff" stroke="#63b8ff" points="414.67,-259764.28 411.18,-259754.28 407.67,-259764.27 414.67,-259764.28"/>
</g>
</g>
</svg>
