<?xml version="1.0" encoding="UTF-8" standalone="no"?>
<!DOCTYPE svg PUBLIC "-//W3C//DTD SVG 1.1//EN"
 "http://www.w3.org/Graphics/SVG/1.1/DTD/svg11.dtd">
<!-- Generated by graphviz version 8.1.0 (0)
 -->
<!-- Title: examples/read_file.c Pages: 1 -->
<svg width="885pt" height="313pt"
 viewBox="0.00 0.00 885.12 312.50" xmlns="http://www.w3.org/2000/svg" xmlns:xlink="http://www.w3.org/1999/xlink">
<g id="graph0" class="graph" transform="scale(1 1) rotate(0) translate(4 308.5)">
<title>examples/read_file.c</title>
<!-- Node1 -->
<g id="Node000001" class="node">
<title>Node1</title>
<g id="a_Node000001"><a xlink:title=" ">
<polygon fill="#999999" stroke="#666666" points="628.38,-304.5 511.12,-304.5 511.12,-283.75 628.38,-283.75 628.38,-304.5"/>
<text text-anchor="middle" x="569.75" y="-291" font-family="Helvetica,sans-Serif" font-size="10.00">examples/read_file.c</text>
</a>
</g>
</g>
<!-- Node2 -->
<g id="Node000002" class="node">
<title>Node2</title>
<g id="a_Node000002"><a xlink:title=" ">
<polygon fill="#e0e0e0" stroke="#999999" points="374.25,-247.75 319.25,-247.75 319.25,-227 374.25,-227 374.25,-247.75"/>
<text text-anchor="middle" x="346.75" y="-234.25" font-family="Helvetica,sans-Serif" font-size="10.00">assert.h</text>
</a>
</g>
</g>
<!-- Node1&#45;&gt;Node2 -->
<g id="edge1_Node000001_Node000002" class="edge">
<title>Node1&#45;&gt;Node2</title>
<g id="a_edge1_Node000001_Node000002"><a xlink:title=" ">
<path fill="none" stroke="#63b8ff" d="M528.48,-283.32C492.85,-274.81 439.73,-262.01 385.2,-248.34"/>
<polygon fill="#63b8ff" stroke="#63b8ff" points="386.2,-244.73 375.65,-245.69 384.49,-251.52 386.2,-244.73"/>
</a>
</g>
</g>
<!-- Node3 -->
<g id="Node000003" class="node">
<title>Node3</title>
<g id="a_Node000003"><a xlink:href="sqsh_8h.html" target="_top" xlink:title=" ">
<polygon fill="white" stroke="#666666" points="439.5,-247.75 392,-247.75 392,-227 439.5,-227 439.5,-247.75"/>
<text text-anchor="middle" x="415.75" y="-234.25" font-family="Helvetica,sans-Serif" font-size="10.00">sqsh.h</text>
</a>
</g>
</g>
<!-- Node1&#45;&gt;Node3 -->
<g id="edge2_Node000001_Node000003" class="edge">
<title>Node1&#45;&gt;Node3</title>
<g id="a_edge2_Node000001_Node000003"><a xlink:title=" ">
<path fill="none" stroke="#63b8ff" d="M542.22,-283.34C516.29,-274.12 477.38,-260.29 449.57,-250.4"/>
<polygon fill="#63b8ff" stroke="#63b8ff" points="451.1,-246.87 440.51,-246.82 448.76,-253.47 451.1,-246.87"/>
</a>
</g>
</g>
<!-- Node13 -->
<g id="Node000013" class="node">
<title>Node13</title>
<g id="a_Node000013"><a xlink:title=" ">
<polygon fill="#e0e0e0" stroke="#999999" points="708.25,-134.25 659.25,-134.25 659.25,-113.5 708.25,-113.5 708.25,-134.25"/>
<text text-anchor="middle" x="683.75" y="-120.75" font-family="Helvetica,sans-Serif" font-size="10.00">stdio.h</text>
</a>
</g>
</g>
<!-- Node1&#45;&gt;Node13 -->
<g id="edge31_Node000001_Node000013" class="edge">
<title>Node1&#45;&gt;Node13</title>
<g id="a_edge31_Node000001_Node000013"><a xlink:title=" ">
<path fill="none" stroke="#63b8ff" d="M593.77,-283.26C625.92,-268.56 681.58,-237.57 704.75,-191 712.35,-175.73 705.11,-157.11 697.13,-143.53"/>
<polygon fill="#63b8ff" stroke="#63b8ff" points="699.76,-142.15 691.39,-135.65 693.88,-145.95 699.76,-142.15"/>
</a>
</g>
</g>
<!-- Node21 -->
<g id="Node000021" class="node">
<title>Node21</title>
<g id="a_Node000021"><a xlink:title=" ">
<polygon fill="#e0e0e0" stroke="#999999" points="803.75,-247.75 751.75,-247.75 751.75,-227 803.75,-227 803.75,-247.75"/>
<text text-anchor="middle" x="777.75" y="-234.25" font-family="Helvetica,sans-Serif" font-size="10.00">stdlib.h</text>
</a>
</g>
</g>
<!-- Node1&#45;&gt;Node21 -->
<g id="edge32_Node000001_Node000021" class="edge">
<title>Node1&#45;&gt;Node21</title>
<g id="a_edge32_Node000001_Node000021"><a xlink:title=" ">
<path fill="none" stroke="#63b8ff" d="M606.94,-283.34C644.8,-273.37 703.15,-258.01 740.89,-248.08"/>
<polygon fill="#63b8ff" stroke="#63b8ff" points="741.65,-251.23 750.43,-245.3 739.86,-244.46 741.65,-251.23"/>
</a>
</g>
</g>
<!-- Node4 -->
<g id="Node000004" class="node">
<title>Node4</title>
<g id="a_Node000004"><a xlink:href="sqsh__archive_8h.html" target="_top" xlink:title=" ">
<polygon fill="white" stroke="#666666" points="290.12,-134.25 201.38,-134.25 201.38,-113.5 290.12,-113.5 290.12,-134.25"/>
<text text-anchor="middle" x="245.75" y="-120.75" font-family="Helvetica,sans-Serif" font-size="10.00">sqsh_archive.h</text>
</a>
</g>
</g>
<!-- Node3&#45;&gt;Node4 -->
<g id="edge3_Node000003_Node000004" class="edge">
<title>Node3&#45;&gt;Node4</title>
<g id="a_edge3_Node000003_Node000004"><a xlink:title=" ">
<path fill="none" stroke="#63b8ff" d="M391.69,-229.14C389.02,-228.39 386.33,-227.66 383.75,-227 311.89,-208.56 267.21,-248.84 220.75,-191 209.4,-176.87 219.46,-157.04 230.01,-142.79"/>
<polygon fill="#63b8ff" stroke="#63b8ff" points="233.26,-145.33 236.79,-135.34 227.8,-140.95 233.26,-145.33"/>
</a>
</g>
</g>
<!-- Node5 -->
<g id="Node000005" class="node">
<title>Node5</title>
<g id="a_Node000005"><a xlink:href="sqsh__common_8h.html" target="_top" xlink:title=" ">
<polygon fill="white" stroke="#666666" points="399.5,-77.5 304,-77.5 304,-56.75 399.5,-56.75 399.5,-77.5"/>
<text text-anchor="middle" x="351.75" y="-64" font-family="Helvetica,sans-Serif" font-size="10.00">sqsh_common.h</text>
</a>
</g>
</g>
<!-- Node3&#45;&gt;Node5 -->
<g id="edge8_Node000003_Node000005" class="edge">
<title>Node3&#45;&gt;Node5</title>
<g id="a_edge8_Node000003_Node000005"><a xlink:title=" ">
<path fill="none" stroke="#63b8ff" d="M391.69,-229.1C389.02,-228.36 386.33,-227.65 383.75,-227 307.56,-207.94 269.04,-243.63 210.75,-191 191.11,-173.27 196.8,-160.4 192.75,-134.25 191.34,-125.14 187.2,-120.86 192.75,-113.5 205.06,-97.18 252.9,-84.97 292.92,-77.36"/>
<polygon fill="#63b8ff" stroke="#63b8ff" points="293.49,-80.63 302.69,-75.38 292.22,-73.74 293.49,-80.63"/>
</a>
</g>
</g>
<!-- Node9 -->
<g id="Node000009" class="node">
<title>Node9</title>
<g id="a_Node000009"><a xlink:href="sqsh__directory_8h.html" target="_top" xlink:title=" ">
<polygon fill="white" stroke="#666666" points="324.12,-191 229.38,-191 229.38,-170.25 324.12,-170.25 324.12,-191"/>
<text text-anchor="middle" x="276.75" y="-177.5" font-family="Helvetica,sans-Serif" font-size="10.00">sqsh_directory.h</text>
</a>
</g>
</g>
<!-- Node3&#45;&gt;Node9 -->
<g id="edge9_Node000003_Node000009" class="edge">
<title>Node3&#45;&gt;Node9</title>
<g id="a_edge9_Node000003_Node000009"><a xlink:title=" ">
<path fill="none" stroke="#63b8ff" d="M391.54,-226.84C369.49,-218.15 336.66,-205.22 311.76,-195.41"/>
<polygon fill="#63b8ff" stroke="#63b8ff" points="313.21,-191.83 302.62,-191.42 310.64,-198.34 313.21,-191.83"/>
</a>
</g>
</g>
<!-- Node10 -->
<g id="Node000010" class="node">
<title>Node10</title>
<g id="a_Node000010"><a xlink:href="sqsh__file_8h.html" target="_top" xlink:title=" ">
<polygon fill="white" stroke="#666666" points="385.62,-134.25 317.88,-134.25 317.88,-113.5 385.62,-113.5 385.62,-134.25"/>
<text text-anchor="middle" x="351.75" y="-120.75" font-family="Helvetica,sans-Serif" font-size="10.00">sqsh_file.h</text>
</a>
</g>
</g>
<!-- Node3&#45;&gt;Node10 -->
<g id="edge19_Node000003_Node000010" class="edge">
<title>Node3&#45;&gt;Node10</title>
<g id="a_edge19_Node000003_Node000010"><a xlink:title=" ">
<path fill="none" stroke="#63b8ff" d="M402.92,-226.52C392.8,-218.12 379.06,-205.16 370.75,-191 362.43,-176.82 357.56,-158.76 354.84,-145.11"/>
<polygon fill="#63b8ff" stroke="#63b8ff" points="358.15,-144.69 352.97,-135.44 351.25,-145.9 358.15,-144.69"/>
</a>
</g>
</g>
<!-- Node11 -->
<g id="Node000011" class="node">
<title>Node11</title>
<g id="a_Node000011"><a xlink:href="sqsh__easy_8h.html" target="_top" xlink:title=" ">
<polygon fill="white" stroke="#666666" points="826,-191 751.5,-191 751.5,-170.25 826,-170.25 826,-191"/>
<text text-anchor="middle" x="788.75" y="-177.5" font-family="Helvetica,sans-Serif" font-size="10.00">sqsh_easy.h</text>
</a>
</g>
</g>
<!-- Node3&#45;&gt;Node11 -->
<g id="edge12_Node000003_Node000011" class="edge">
<title>Node3&#45;&gt;Node11</title>
<g id="a_edge12_Node000003_Node000011"><a xlink:title=" ">
<path fill="none" stroke="#63b8ff" d="M439.94,-232.82C500.53,-223.93 659.75,-200.56 740.42,-188.72"/>
<polygon fill="#63b8ff" stroke="#63b8ff" points="740.88,-192.04 750.26,-187.13 739.86,-185.12 740.88,-192.04"/>
</a>
</g>
</g>
<!-- Node15 -->
<g id="Node000015" class="node">
<title>Node15</title>
<g id="a_Node000015"><a xlink:href="sqsh__error_8h.html" target="_top" xlink:title=" ">
<polygon fill="white" stroke="#666666" points="539.38,-134.25 464.12,-134.25 464.12,-113.5 539.38,-113.5 539.38,-134.25"/>
<text text-anchor="middle" x="501.75" y="-120.75" font-family="Helvetica,sans-Serif" font-size="10.00">sqsh_error.h</text>
</a>
</g>
</g>
<!-- Node3&#45;&gt;Node15 -->
<g id="edge17_Node000003_Node000015" class="edge">
<title>Node3&#45;&gt;Node15</title>
<g id="a_edge17_Node000003_Node000015"><a xlink:title=" ">
<path fill="none" stroke="#63b8ff" d="M439.73,-237.32C474.69,-237.23 538.75,-231.19 568.75,-191 583.36,-171.43 558.09,-152.18 534.52,-139.54"/>
<polygon fill="#63b8ff" stroke="#63b8ff" points="536.48,-136.11 525.98,-134.71 533.32,-142.35 536.48,-136.11"/>
</a>
</g>
</g>
<!-- Node16 -->
<g id="Node000016" class="node">
<title>Node16</title>
<g id="a_Node000016"><a xlink:href="sqsh__mapper_8h.html" target="_top" xlink:title=" ">
<polygon fill="white" stroke="#666666" points="559.5,-191 470,-191 470,-170.25 559.5,-170.25 559.5,-191"/>
<text text-anchor="middle" x="514.75" y="-177.5" font-family="Helvetica,sans-Serif" font-size="10.00">sqsh_mapper.h</text>
</a>
</g>
</g>
<!-- Node3&#45;&gt;Node16 -->
<g id="edge20_Node000003_Node000016" class="edge">
<title>Node3&#45;&gt;Node16</title>
<g id="a_edge20_Node000003_Node000016"><a xlink:title=" ">
<path fill="none" stroke="#63b8ff" d="M433.45,-226.59C448.51,-218.26 470.39,-206.16 487.66,-196.61"/>
<polygon fill="#63b8ff" stroke="#63b8ff" points="489.15,-199.23 496.2,-191.33 485.76,-193.11 489.15,-199.23"/>
</a>
</g>
</g>
<!-- Node17 -->
<g id="Node000017" class="node">
<title>Node17</title>
<g id="a_Node000017"><a xlink:href="sqsh__posix_8h.html" target="_top" xlink:title=" ">
<polygon fill="white" stroke="#666666" points="695.25,-191 616.25,-191 616.25,-170.25 695.25,-170.25 695.25,-191"/>
<text text-anchor="middle" x="655.75" y="-177.5" font-family="Helvetica,sans-Serif" font-size="10.00">sqsh_posix.h</text>
</a>
</g>
</g>
<!-- Node3&#45;&gt;Node17 -->
<g id="edge21_Node000003_Node000017" class="edge">
<title>Node3&#45;&gt;Node17</title>
<g id="a_edge21_Node000003_Node000017"><a xlink:title=" ">
<path fill="none" stroke="#63b8ff" d="M439.64,-230.93C478.16,-222.14 554.81,-204.65 605.69,-193.04"/>
<polygon fill="#63b8ff" stroke="#63b8ff" points="606.16,-196.3 615.14,-190.66 604.61,-189.47 606.16,-196.3"/>
</a>
</g>
</g>
<!-- Node18 -->
<g id="Node000018" class="node">
<title>Node18</title>
<g id="a_Node000018"><a xlink:href="sqsh__table_8h.html" target="_top" xlink:title=" ">
<polygon fill="white" stroke="#666666" points="77.5,-134.25 0,-134.25 0,-113.5 77.5,-113.5 77.5,-134.25"/>
<text text-anchor="middle" x="38.75" y="-120.75" font-family="Helvetica,sans-Serif" font-size="10.00">sqsh_table.h</text>
</a>
</g>
</g>
<!-- Node3&#45;&gt;Node18 -->
<g id="edge24_Node000003_Node000018" class="edge">
<title>Node3&#45;&gt;Node18</title>
<g id="a_edge24_Node000003_Node000018"><a xlink:title=" ">
<path fill="none" stroke="#63b8ff" d="M391.75,-228.85C389.07,-228.16 386.36,-227.52 383.75,-227 310.75,-212.48 105.24,-241.71 50.75,-191 38.48,-179.59 36.2,-160.17 36.57,-145.32"/>
<polygon fill="#63b8ff" stroke="#63b8ff" points="40.11,-145.84 37.28,-135.63 33.12,-145.37 40.11,-145.84"/>
</a>
</g>
</g>
<!-- Node19 -->
<g id="Node000019" class="node">
<title>Node19</title>
<g id="a_Node000019"><a xlink:href="sqsh__tree_8h.html" target="_top" xlink:title=" ">
<polygon fill="white" stroke="#666666" points="451.88,-191 379.62,-191 379.62,-170.25 451.88,-170.25 451.88,-191"/>
<text text-anchor="middle" x="415.75" y="-177.5" font-family="Helvetica,sans-Serif" font-size="10.00">sqsh_tree.h</text>
</a>
</g>
</g>
<!-- Node3&#45;&gt;Node19 -->
<g id="edge26_Node000003_Node000019" class="edge">
<title>Node3&#45;&gt;Node19</title>
<g id="a_edge26_Node000003_Node000019"><a xlink:title=" ">
<path fill="none" stroke="#63b8ff" d="M415.75,-226.59C415.75,-219.81 415.75,-210.55 415.75,-202.19"/>
<polygon fill="#63b8ff" stroke="#63b8ff" points="419.25,-202.33 415.75,-192.33 412.25,-202.33 419.25,-202.33"/>
</a>
</g>
</g>
<!-- Node20 -->
<g id="Node000020" class="node">
<title>Node20</title>
<g id="a_Node000020"><a xlink:href="sqsh__xattr_8h.html" target="_top" xlink:title=" ">
<polygon fill="white" stroke="#666666" points="135.38,-191 60.12,-191 60.12,-170.25 135.38,-170.25 135.38,-191"/>
<text text-anchor="middle" x="97.75" y="-177.5" font-family="Helvetica,sans-Serif" font-size="10.00">sqsh_xattr.h</text>
</a>
</g>
</g>
<!-- Node3&#45;&gt;Node20 -->
<g id="edge29_Node000003_Node000020" class="edge">
<title>Node3&#45;&gt;Node20</title>
<g id="a_edge29_Node000003_Node000020"><a xlink:title=" ">
<path fill="none" stroke="#63b8ff" d="M391.73,-228.97C389.05,-228.25 386.35,-227.58 383.75,-227 281.04,-204.16 253.54,-208.34 149.75,-191 148.62,-190.81 147.47,-190.62 146.32,-190.42"/>
<polygon fill="#63b8ff" stroke="#63b8ff" points="147.24,-186.86 136.79,-188.6 146.04,-193.75 147.24,-186.86"/>
</a>
</g>
</g>
<!-- Node4&#45;&gt;Node5 -->
<g id="edge4_Node000004_Node000005" class="edge">
<title>Node4&#45;&gt;Node5</title>
<g id="a_edge4_Node000004_Node000005"><a xlink:title=" ">
<path fill="none" stroke="#63b8ff" d="M264.7,-113.09C280.98,-104.68 304.69,-92.43 323.26,-82.84"/>
<polygon fill="#63b8ff" stroke="#63b8ff" points="324.68,-85.53 331.96,-77.83 321.47,-79.31 324.68,-85.53"/>
</a>
</g>
</g>
<!-- Node6 -->
<g id="Node000006" class="node">
<title>Node6</title>
<g id="a_Node000006"><a xlink:title=" ">
<polygon fill="#e0e0e0" stroke="#999999" points="306.25,-20.75 245.25,-20.75 245.25,0 306.25,0 306.25,-20.75"/>
<text text-anchor="middle" x="275.75" y="-7.25" font-family="Helvetica,sans-Serif" font-size="10.00">stdbool.h</text>
</a>
</g>
</g>
<!-- Node5&#45;&gt;Node6 -->
<g id="edge5_Node000005_Node000006" class="edge">
<title>Node5&#45;&gt;Node6</title>
<g id="a_edge5_Node000005_Node000006"><a xlink:title=" ">
<path fill="none" stroke="#63b8ff" d="M338.16,-56.34C327.03,-48.32 311.05,-36.81 298.05,-27.44"/>
<polygon fill="#63b8ff" stroke="#63b8ff" points="300.38,-24.08 290.22,-21.08 296.29,-29.76 300.38,-24.08"/>
</a>
</g>
</g>
<!-- Node7 -->
<g id="Node000007" class="node">
<title>Node7</title>
<g id="a_Node000007"><a xlink:title=" ">
<polygon fill="#e0e0e0" stroke="#999999" points="379.25,-20.75 324.25,-20.75 324.25,0 379.25,0 379.25,-20.75"/>
<text text-anchor="middle" x="351.75" y="-7.25" font-family="Helvetica,sans-Serif" font-size="10.00">stddef.h</text>
</a>
</g>
</g>
<!-- Node5&#45;&gt;Node7 -->
<g id="edge6_Node000005_Node000007" class="edge">
<title>Node5&#45;&gt;Node7</title>
<g id="a_edge6_Node000005_Node000007"><a xlink:title=" ">
<path fill="none" stroke="#63b8ff" d="M351.75,-56.34C351.75,-49.56 351.75,-40.3 351.75,-31.94"/>
<polygon fill="#63b8ff" stroke="#63b8ff" points="355.25,-32.08 351.75,-22.08 348.25,-32.08 355.25,-32.08"/>
</a>
</g>
</g>
<!-- Node8 -->
<g id="Node000008" class="node">
<title>Node8</title>
<g id="a_Node000008"><a xlink:title=" ">
<polygon fill="#e0e0e0" stroke="#999999" points="450.12,-20.75 397.38,-20.75 397.38,0 450.12,0 450.12,-20.75"/>
<text text-anchor="middle" x="423.75" y="-7.25" font-family="Helvetica,sans-Serif" font-size="10.00">stdint.h</text>
</a>
</g>
</g>
<!-- Node5&#45;&gt;Node8 -->
<g id="edge7_Node000005_Node000008" class="edge">
<title>Node5&#45;&gt;Node8</title>
<g id="a_edge7_Node000005_Node000008"><a xlink:title=" ">
<path fill="none" stroke="#63b8ff" d="M364.62,-56.34C375.07,-48.4 390.01,-37.03 402.26,-27.71"/>
<polygon fill="#63b8ff" stroke="#63b8ff" points="404.15,-29.92 409.99,-21.08 399.91,-24.35 404.15,-29.92"/>
</a>
</g>
</g>
<!-- Node9&#45;&gt;Node10 -->
<g id="edge10_Node000009_Node000010" class="edge">
<title>Node9&#45;&gt;Node10</title>
<g id="a_edge10_Node000009_Node000010"><a xlink:title=" ">
<path fill="none" stroke="#63b8ff" d="M290.16,-169.84C301.14,-161.82 316.91,-150.31 329.74,-140.94"/>
<polygon fill="#63b8ff" stroke="#63b8ff" points="331.44,-143.3 337.46,-134.58 327.32,-137.65 331.44,-143.3"/>
</a>
</g>
</g>
<!-- Node10&#45;&gt;Node5 -->
<g id="edge11_Node000010_Node000005" class="edge">
<title>Node10&#45;&gt;Node5</title>
<g id="a_edge11_Node000010_Node000005"><a xlink:title=" ">
<path fill="none" stroke="#63b8ff" d="M351.75,-113.09C351.75,-106.31 351.75,-97.05 351.75,-88.69"/>
<polygon fill="#63b8ff" stroke="#63b8ff" points="355.25,-88.83 351.75,-78.83 348.25,-88.83 355.25,-88.83"/>
</a>
</g>
</g>
<!-- Node11&#45;&gt;Node5 -->
<g id="edge13_Node000011_Node000005" class="edge">
<title>Node11&#45;&gt;Node5</title>
<g id="a_edge13_Node000011_Node000005"><a xlink:title=" ">
<path fill="none" stroke="#63b8ff" d="M781.73,-169.99C770.23,-155.03 745.84,-126.61 717.75,-113.5 664.56,-88.68 499.81,-76.14 410.59,-71.02"/>
<polygon fill="#63b8ff" stroke="#63b8ff" points="411.02,-67.48 400.84,-70.41 410.63,-74.47 411.02,-67.48"/>
</a>
</g>
</g>
<!-- Node12 -->
<g id="Node000012" class="node">
<title>Node12</title>
<g id="a_Node000012"><a xlink:title=" ">
<polygon fill="#e0e0e0" stroke="#999999" points="877.12,-134.25 830.38,-134.25 830.38,-113.5 877.12,-113.5 877.12,-134.25"/>
<text text-anchor="middle" x="853.75" y="-120.75" font-family="Helvetica,sans-Serif" font-size="10.00">fcntl.h</text>
</a>
</g>
</g>
<!-- Node11&#45;&gt;Node12 -->
<g id="edge14_Node000011_Node000012" class="edge">
<title>Node11&#45;&gt;Node12</title>
<g id="a_edge14_Node000011_Node000012"><a xlink:title=" ">
<path fill="none" stroke="#63b8ff" d="M800.37,-169.84C809.71,-161.97 823.03,-150.75 834.03,-141.49"/>
<polygon fill="#63b8ff" stroke="#63b8ff" points="835.84,-143.7 841.23,-134.58 831.33,-138.34 835.84,-143.7"/>
</a>
</g>
</g>
<!-- Node11&#45;&gt;Node13 -->
<g id="edge15_Node000011_Node000013" class="edge">
<title>Node11&#45;&gt;Node13</title>
<g id="a_edge15_Node000011_Node000013"><a xlink:title=" ">
<path fill="none" stroke="#63b8ff" d="M769.98,-169.84C753.85,-161.43 730.36,-149.18 711.97,-139.59"/>
<polygon fill="#63b8ff" stroke="#63b8ff" points="713.84,-136.1 703.36,-134.58 710.61,-142.31 713.84,-136.1"/>
</a>
</g>
</g>
<!-- Node14 -->
<g id="Node000014" class="node">
<title>Node14</title>
<g id="a_Node000014"><a xlink:title=" ">
<polygon fill="#e0e0e0" stroke="#999999" points="812.5,-134.25 765,-134.25 765,-113.5 812.5,-113.5 812.5,-134.25"/>
<text text-anchor="middle" x="788.75" y="-120.75" font-family="Helvetica,sans-Serif" font-size="10.00">time.h</text>
</a>
</g>
</g>
<!-- Node11&#45;&gt;Node14 -->
<g id="edge16_Node000011_Node000014" class="edge">
<title>Node11&#45;&gt;Node14</title>
<g id="a_edge16_Node000011_Node000014"><a xlink:title=" ">
<path fill="none" stroke="#63b8ff" d="M788.75,-169.84C788.75,-163.06 788.75,-153.8 788.75,-145.44"/>
<polygon fill="#63b8ff" stroke="#63b8ff" points="792.25,-145.58 788.75,-135.58 785.25,-145.58 792.25,-145.58"/>
</a>
</g>
</g>
<!-- Node15&#45;&gt;Node5 -->
<g id="edge18_Node000015_Node000005" class="edge">
<title>Node15&#45;&gt;Node5</title>
<g id="a_edge18_Node000015_Node000005"><a xlink:title=" ">
<path fill="none" stroke="#63b8ff" d="M474.93,-113.09C450.9,-104.32 415.43,-91.37 388.72,-81.62"/>
<polygon fill="#63b8ff" stroke="#63b8ff" points="390.18,-78.06 379.59,-77.92 387.78,-84.64 390.18,-78.06"/>
</a>
</g>
</g>
<!-- Node17&#45;&gt;Node5 -->
<g id="edge22_Node000017_Node000005" class="edge">
<title>Node17&#45;&gt;Node5</title>
<g id="a_edge22_Node000017_Node000005"><a xlink:title=" ">
<path fill="none" stroke="#63b8ff" d="M642.99,-169.79C623.66,-155.36 585.31,-128.53 548.75,-113.5 504,-95.11 450.32,-83.36 410.3,-76.44"/>
<polygon fill="#63b8ff" stroke="#63b8ff" points="411.09,-72.86 400.65,-74.66 409.94,-79.77 411.09,-72.86"/>
</a>
</g>
</g>
<!-- Node17&#45;&gt;Node13 -->
<g id="edge23_Node000017_Node000013" class="edge">
<title>Node17&#45;&gt;Node13</title>
<g id="a_edge23_Node000017_Node000013"><a xlink:title=" ">
<path fill="none" stroke="#63b8ff" d="M660.76,-169.84C664.38,-162.75 669.4,-152.94 673.82,-144.29"/>
<polygon fill="#63b8ff" stroke="#63b8ff" points="677.35,-146.08 678.79,-135.58 671.12,-142.89 677.35,-146.08"/>
</a>
</g>
</g>
<!-- Node18&#45;&gt;Node5 -->
<g id="edge25_Node000018_Node000005" class="edge">
<title>Node18&#45;&gt;Node5</title>
<g id="a_edge25_Node000018_Node000005"><a xlink:title=" ">
<path fill="none" stroke="#63b8ff" d="M77.76,-116.05C131.82,-106.59 229.98,-89.43 292.95,-78.41"/>
<polygon fill="#63b8ff" stroke="#63b8ff" points="293.26,-81.73 302.51,-76.56 292.06,-74.84 293.26,-81.73"/>
</a>
</g>
</g>
<!-- Node19&#45;&gt;Node5 -->
<g id="edge27_Node000019_Node000005" class="edge">
<title>Node19&#45;&gt;Node5</title>
<g id="a_edge27_Node000019_Node000005"><a xlink:title=" ">
<path fill="none" stroke="#63b8ff" d="M414.12,-170.09C411.54,-156.72 405.64,-131.97 394.75,-113.5 388.61,-103.09 379.68,-93.16 371.54,-85.25"/>
<polygon fill="#63b8ff" stroke="#63b8ff" points="374.22,-83.03 364.51,-78.81 369.47,-88.17 374.22,-83.03"/>
</a>
</g>
</g>
<!-- Node19&#45;&gt;Node10 -->
<g id="edge28_Node000019_Node000010" class="edge">
<title>Node19&#45;&gt;Node10</title>
<g id="a_edge28_Node000019_Node000010"><a xlink:title=" ">
<path fill="none" stroke="#63b8ff" d="M404.31,-169.84C395.12,-161.97 382,-150.75 371.17,-141.49"/>
<polygon fill="#63b8ff" stroke="#63b8ff" points="373.97,-138.42 364.09,-134.58 369.42,-143.74 373.97,-138.42"/>
</a>
</g>
</g>
<!-- Node20&#45;&gt;Node5 -->
<g id="edge30_Node000020_Node000005" class="edge">
<title>Node20&#45;&gt;Node5</title>
<g id="a_edge30_Node000020_Node000005"><a xlink:title=" ">
<path fill="none" stroke="#63b8ff" d="M102.64,-169.8C110.47,-155.12 127.27,-127.68 149.75,-113.5 192.96,-86.25 250.45,-75.27 293.05,-70.9"/>
<polygon fill="#63b8ff" stroke="#63b8ff" points="293.18,-74.31 302.82,-69.9 292.54,-67.34 293.18,-74.31"/>
</a>
</g>
</g>
</g>
</svg>
