<?xml version="1.0" encoding="UTF-8" standalone="no"?>
<!DOCTYPE svg PUBLIC "-//W3C//DTD SVG 1.1//EN"
 "http://www.w3.org/Graphics/SVG/1.1/DTD/svg11.dtd">
<!-- Generated by graphviz version 8.0.5 (20230430.1635)
 -->
<!-- Title: examples/readme_example.c Pages: 1 -->
<!--zoomable 3025512 -->
<svg id="main" version="1.1" xmlns="http://www.w3.org/2000/svg" xmlns:xlink="http://www.w3.org/1999/xlink" xml:space="preserve" onload="init(evt)">
<style type="text/css"><![CDATA[
.edge:hover path { stroke: red; }
.edge:hover polygon { stroke: red; fill: red; }
]]></style>
<script type="text/javascript"><![CDATA[
var edges = document.getElementsByTagName('g');
if (edges && edges.length) {
  for (var i=0;i<edges.length;i++) {
    if (edges[i].id.substr(0,4)=='edge') {
      edges[i].setAttribute('class','edge');
    }
  }
}
]]></script>
        <defs>
                <circle id="rim" cx="0" cy="0" r="7"/>
                <circle id="rim2" cx="0" cy="0" r="3.5"/>
                <g id="zoomPlus">
                        <use xlink:href="#rim" fill="#404040">
                                <set attributeName="fill" to="#808080" begin="zoomplus.mouseover" end="zoomplus.mouseout"/>
                        </use>
                        <path d="M-4,0h8M0,-4v8" fill="none" stroke="white" stroke-width="1.5" pointer-events="none"/>
                </g>
                <g id="zoomMin">
                        <use xlink:href="#rim" fill="#404040">
                                <set attributeName="fill" to="#808080" begin="zoomminus.mouseover" end="zoomminus.mouseout"/>
                        </use>
                        <path d="M-4,0h8" fill="none" stroke="white" stroke-width="1.5" pointer-events="none"/>
                </g>
                <g id="dirArrow">
                        <path fill="none" stroke="white" stroke-width="1.5" d="M0,-3.0v7 M-2.5,-0.5L0,-3.0L2.5,-0.5"/>
                </g>
               <g id="resetDef">
                       <use xlink:href="#rim2" fill="#404040">
                               <set attributeName="fill" to="#808080" begin="reset.mouseover" end="reset.mouseout"/>
                       </use>
               </g>
        </defs>

<script type="text/javascript">
var viewWidth = 1245;
var viewHeight = 3025512;
var sectionId = 'dynsection-0';
</script>
<script xlink:href="svgpan.js"/>
<svg id="graph" class="graph">
<g id="viewport">
<title>examples/readme_example.c</title>
<!-- Node1 -->
<g id="node1" class="node">
<title>Node1</title>
<g id="a_node1"><a xlink:title=" ">
<polygon fill="#999999" stroke="#666666" points="881.75,-3025504.19 678.25,-3025504.19 678.25,-3025485.69 881.75,-3025485.69 881.75,-3025504.19"/>
<text text-anchor="middle" x="780" y="-3025490.69" font-family="Helvetica,sans-Serif" font-size="10.00">examples/readme_example.c</text>
</a>
</g>
</g>
<!-- Node2 -->
<g id="node2" class="node">
<title>Node2</title>
<g id="a_node2"><a xlink:title=" ">
<polygon fill="#e0e0e0" stroke="#999999" points="503,-2790867.24 427,-2790867.24 427,-2790837.75 503,-2790837.75 503,-2790867.24"/>
<text text-anchor="middle" x="465" y="-2790853.74" font-family="Helvetica,sans-Serif" font-size="10.00">assert.h</text>
</a>
</g>
</g>
<!-- Node1&#45;&gt;Node2 -->
<g id="edge1" class="edge">
<title>Node1&#45;&gt;Node2</title>
<path fill="none" stroke="#63b8ff" d="M677.97,-3025490.34C611.85,-3025485.61 534.24,-3025474.72 513,-3025449.69 -534.4,-3024214.67 453,-2793647.8 464.89,-2790878.64"/>
<polygon fill="#63b8ff" stroke="#63b8ff" points="468.4,-2790878.75 464.94,-2790868.73 461.4,-2790878.72 468.4,-2790878.75"/>
</g>
<!-- Node3 -->
<g id="node3" class="node">
<title>Node3</title>
<g id="a_node3"><a xlink:href="sqsh_8h.html" target="_top" xlink:title=" ">
<polygon fill="white" stroke="#666666" points="582.5,-3025448.91 521.5,-3025448.91 521.5,-2556256.08 582.5,-2556256.08 582.5,-3025448.91"/>
<text text-anchor="middle" x="552" y="-3025435.41" font-family="Helvetica,sans-Serif" font-size="10.00">sqsh.h</text>
</a>
</g>
</g>
<!-- Node1&#45;&gt;Node3 -->
<g id="edge2" class="edge">
<title>Node1&#45;&gt;Node3</title>
<path fill="none" stroke="#63b8ff" d="M779.99,-3025485.43C778.78,-3024240.86 645.08,-2886642.81 583.01,-2822767.29"/>
<polygon fill="#63b8ff" stroke="#63b8ff" points="586.51,-2822767.32 583,-2822757.32 579.51,-2822767.33 586.51,-2822767.32"/>
</g>
<!-- Node13 -->
<g id="node13" class="node">
<title>Node13</title>
<g id="a_node13"><a xlink:title=" ">
<polygon fill="#e0e0e0" stroke="#999999" points="999.25,-1512724.74 930.75,-1512724.74 930.75,-1512706.24 999.25,-1512706.24 999.25,-1512724.74"/>
<text text-anchor="middle" x="965" y="-1512711.24" font-family="Helvetica,sans-Serif" font-size="10.00">stdio.h</text>
</a>
</g>
</g>
<!-- Node1&#45;&gt;Node13 -->
<g id="edge31" class="edge">
<title>Node1&#45;&gt;Node13</title>
<path fill="none" stroke="#63b8ff" d="M780.01,-3025485.45C781.08,-3023775.97 943.49,-2764098.41 990,-2556219.3 1041.74,-2324987.51 965.44,-1517315.86 965,-1512736.05"/>
<polygon fill="#63b8ff" stroke="#63b8ff" points="968.5,-1512736.2 965,-1512726.2 961.5,-1512736.2 968.5,-1512736.2"/>
</g>
<!-- Node21 -->
<g id="node21" class="node">
<title>Node21</title>
<g id="a_node21"><a xlink:title=" ">
<polygon fill="#e0e0e0" stroke="#999999" points="1113,-3025449.69 1037,-3025449.69 1037,-2556255.3 1113,-2556255.3 1113,-3025449.69"/>
<text text-anchor="middle" x="1075" y="-3025436.19" font-family="Helvetica,sans-Serif" font-size="10.00">stdlib.h</text>
</a>
</g>
</g>
<!-- Node1&#45;&gt;Node21 -->
<g id="edge32" class="edge">
<title>Node1&#45;&gt;Node21</title>
<path fill="none" stroke="#63b8ff" d="M882.06,-3025488.24C940.1,-3025482.63 1004.76,-3025471.54 1023,-3025449.69 1205.11,-3025231.47 1158.37,-2911075.55 1113.51,-2842107.69"/>
<polygon fill="#63b8ff" stroke="#63b8ff" points="1117.01,-2842108.03 1113.5,-2842098.03 1110.01,-2842108.04 1117.01,-2842108.03"/>
</g>
<!-- Node4 -->
<g id="node4" class="node">
<title>Node4</title>
<g id="a_node4"><a xlink:href="sqsh__archive_8h.html" target="_top" xlink:title=" ">
<polygon fill="white" stroke="#666666" points="407.5,-1747307.19 286.5,-1747307.19 286.5,-1278123.79 407.5,-1278123.79 407.5,-1747307.19"/>
<text text-anchor="middle" x="347" y="-1747293.69" font-family="Helvetica,sans-Serif" font-size="10.00">sqsh_archive.h</text>
</a>
</g>
</g>
<!-- Node3&#45;&gt;Node4 -->
<g id="edge3" class="edge">
<title>Node3&#45;&gt;Node4</title>
<path fill="none" stroke="#63b8ff" d="M583,-2783391.43C744.79,-2743523.93 1449.76,-2557367.31 512,-2556255.3 450.95,-2556182.91 363.04,-2556291.7 302,-2556219.3 302,-2556219.3 302,-2087036.57 302,-2087036.57 306.38,-1975321.05 315.54,-1851382.03 324.47,-1747318.31"/>
<polygon fill="#63b8ff" stroke="#63b8ff" points="327.97,-1747318.59 324.47,-1747308.59 320.97,-1747318.59 327.97,-1747318.59"/>
</g>
<!-- Node5 -->
<g id="node5" class="node">
<title>Node5</title>
<g id="a_node5"><a xlink:href="sqsh__common_8h.html" target="_top" xlink:title=" ">
<polygon fill="white" stroke="#666666" points="531.75,-938394.41 418.25,-938394.41 418.25,-469213.02 531.75,-469213.02 531.75,-938394.41"/>
<text text-anchor="middle" x="475" y="-938380.91" font-family="Helvetica,sans-Serif" font-size="10.00">sqsh_common.h</text>
</a>
</g>
</g>
<!-- Node3&#45;&gt;Node5 -->
<g id="edge8" class="edge">
<title>Node3&#45;&gt;Node5</title>
<path fill="none" stroke="#63b8ff" d="M583,-2783406.19C744.98,-2743569.75 1451.61,-2557365.99 512,-2556255.3 449.71,-2556181.67 360.29,-2556292.94 298,-2556219.3 298,-2556219.3 278,-2087000.57 278,-2087000.57 275.28,-1959381.66 224.42,-1066049.31 278,-938430.41 304.17,-876089.63 369.46,-804431.54 417.74,-756877.3"/>
<polygon fill="#63b8ff" stroke="#63b8ff" points="421.24,-756877.41 417.75,-756867.41 414.24,-756877.41 421.24,-756877.41"/>
</g>
<!-- Node9 -->
<g id="node9" class="node">
<title>Node9</title>
<g id="a_node9"><a xlink:href="sqsh__directory_8h.html" target="_top" xlink:title=" ">
<polygon fill="white" stroke="#666666" points="447,-2321637.19 311,-2321637.19 311,-2321618.69 447,-2321618.69 447,-2321637.19"/>
<text text-anchor="middle" x="379" y="-2321623.69" font-family="Helvetica,sans-Serif" font-size="10.00">sqsh_directory.h</text>
</a>
</g>
</g>
<!-- Node3&#45;&gt;Node9 -->
<g id="edge9" class="edge">
<title>Node3&#45;&gt;Node9</title>
<path fill="none" stroke="#63b8ff" d="M583,-2780128.18C711.34,-2734343.91 1164.54,-2557514.39 512,-2556255.3 499.23,-2556230.67 473.77,-2556243.93 461,-2556219.3 274.55,-2555859.62 377.9,-2324078.57 378.99,-2321648.18"/>
<polygon fill="#63b8ff" stroke="#63b8ff" points="382.49,-2321648.42 379,-2321638.42 375.49,-2321648.42 382.49,-2321648.42"/>
</g>
<!-- Node10 -->
<g id="node10" class="node">
<title>Node10</title>
<g id="a_node10"><a xlink:href="sqsh__file_8h.html" target="_top" xlink:title=" ">
<polygon fill="white" stroke="#666666" points="524.25,-1512724.74 425.75,-1512724.74 425.75,-1512706.24 524.25,-1512706.24 524.25,-1512724.74"/>
<text text-anchor="middle" x="475" y="-1512711.24" font-family="Helvetica,sans-Serif" font-size="10.00">sqsh_file.h</text>
</a>
</g>
</g>
<!-- Node3&#45;&gt;Node10 -->
<g id="edge19" class="edge">
<title>Node3&#45;&gt;Node10</title>
<path fill="none" stroke="#63b8ff" d="M583,-2780192.07C711.25,-2734702.76 1163.82,-2559015.41 512,-2556255.3 507.89,-2556237.89 498.11,-2556236.71 494,-2556219.3 494,-2556219.3 475.09,-1517866.21 475,-1512735.57"/>
<polygon fill="#63b8ff" stroke="#63b8ff" points="478.5,-1512735.98 475,-1512725.98 471.5,-1512735.98 478.5,-1512735.98"/>
</g>
<!-- Node11 -->
<g id="node11" class="node">
<title>Node11</title>
<g id="a_node11"><a xlink:href="sqsh__easy_8h.html" target="_top" xlink:title=" ">
<polygon fill="white" stroke="#666666" points="1135.25,-2321637.19 1036.75,-2321637.19 1036.75,-2321618.69 1135.25,-2321618.69 1135.25,-2321637.19"/>
<text text-anchor="middle" x="1086" y="-2321623.69" font-family="Helvetica,sans-Serif" font-size="10.00">sqsh_easy.h</text>
</a>
</g>
</g>
<!-- Node3&#45;&gt;Node11 -->
<g id="edge12" class="edge">
<title>Node3&#45;&gt;Node11</title>
<path fill="none" stroke="#63b8ff" d="M583,-2777814.57C666.07,-2742272.94 893.87,-2640692.7 990,-2556219.3 1107.82,-2452687.65 1086.31,-2323454.33 1086,-2321648.08"/>
<polygon fill="#63b8ff" stroke="#63b8ff" points="1089.5,-2321648.33 1086,-2321638.33 1082.5,-2321648.33 1089.5,-2321648.33"/>
</g>
<!-- Node15 -->
<g id="node15" class="node">
<title>Node15</title>
<g id="a_node15"><a xlink:href="sqsh__error_8h.html" target="_top" xlink:title=" ">
<polygon fill="white" stroke="#666666" points="857,-2321637.19 751,-2321637.19 751,-2321618.69 857,-2321618.69 857,-2321637.19"/>
<text text-anchor="middle" x="804" y="-2321623.69" font-family="Helvetica,sans-Serif" font-size="10.00">sqsh_error.h</text>
</a>
</g>
</g>
<!-- Node3&#45;&gt;Node15 -->
<g id="edge17" class="edge">
<title>Node3&#45;&gt;Node15</title>
<path fill="none" stroke="#63b8ff" d="M583,-2759310.69C626.03,-2714264.88 702.96,-2628908.58 742,-2556219.3 797.6,-2452687.6 803.91,-2323454.33 804,-2321648.08"/>
<polygon fill="#63b8ff" stroke="#63b8ff" points="807.5,-2321648.33 804,-2321638.33 800.5,-2321648.33 807.5,-2321648.33"/>
</g>
<!-- Node16 -->
<g id="node16" class="node">
<title>Node16</title>
<g id="a_node16"><a xlink:href="sqsh__mapper_8h.html" target="_top" xlink:title=" ">
<polygon fill="white" stroke="#666666" points="732.75,-2556154.29 619.25,-2556154.29 619.25,-2087101.58 732.75,-2087101.58 732.75,-2556154.29"/>
<text text-anchor="middle" x="676" y="-2556140.79" font-family="Helvetica,sans-Serif" font-size="10.00">sqsh_mapper.h</text>
</a>
</g>
</g>
<!-- Node3&#45;&gt;Node16 -->
<g id="edge20" class="edge">
<title>Node3&#45;&gt;Node16</title>
<path fill="none" stroke="#63b8ff" d="M583,-2673545.97C593.86,-2632449.69 606.43,-2584887.52 618.75,-2538276.52"/>
<polygon fill="#63b8ff" stroke="#63b8ff" points="622.25,-2538276.59 618.75,-2538266.59 615.25,-2538276.59 622.25,-2538276.59"/>
</g>
<!-- Node17 -->
<g id="node17" class="node">
<title>Node17</title>
<g id="a_node17"><a xlink:href="sqsh__posix_8h.html" target="_top" xlink:title=" ">
<polygon fill="white" stroke="#666666" points="981,-2556219.3 875,-2556219.3 875,-2087036.57 981,-2087036.57 981,-2556219.3"/>
<text text-anchor="middle" x="928" y="-2556205.8" font-family="Helvetica,sans-Serif" font-size="10.00">sqsh_posix.h</text>
</a>
</g>
</g>
<!-- Node3&#45;&gt;Node17 -->
<g id="edge21" class="edge">
<title>Node3&#45;&gt;Node17</title>
<path fill="none" stroke="#63b8ff" d="M583,-2772656.56C648.73,-2733220.22 801.34,-2636914.34 866,-2556219.3 868.96,-2552524.02 871.79,-2548795.99 874.49,-2545042.19"/>
<polygon fill="#63b8ff" stroke="#63b8ff" points="877.99,-2545042.52 874.5,-2545032.52 870.99,-2545042.52 877.99,-2545042.52"/>
</g>
<!-- Node18 -->
<g id="node18" class="node">
<title>Node18</title>
<g id="a_node18"><a xlink:href="sqsh__table_8h.html" target="_top" xlink:title=" ">
<polygon fill="white" stroke="#666666" points="106,-1747306.94 0,-1747306.94 0,-1278124.04 106,-1278124.04 106,-1747306.94"/>
<text text-anchor="middle" x="53" y="-1747293.44" font-family="Helvetica,sans-Serif" font-size="10.00">sqsh_table.h</text>
</a>
</g>
</g>
<!-- Node3&#45;&gt;Node18 -->
<g id="edge24" class="edge">
<title>Node3&#45;&gt;Node18</title>
<path fill="none" stroke="#63b8ff" d="M583,-2775423.05C683.6,-2723271.32 968.93,-2556768.28 512,-2556255.3 419.74,-2556151.73 294.26,-2556322.87 202,-2556219.3 -68.92,-2555915.16 115.06,-2087407.88 115,-2087000.57 98.61,-1975297.16 84.7,-1851372.14 74.22,-1747317.89"/>
<polygon fill="#63b8ff" stroke="#63b8ff" points="77.72,-1747318.17 74.22,-1747308.17 70.72,-1747318.17 77.72,-1747318.17"/>
</g>
<!-- Node19 -->
<g id="node19" class="node">
<title>Node19</title>
<g id="a_node19"><a xlink:href="sqsh__tree_8h.html" target="_top" xlink:title=" ">
<polygon fill="white" stroke="#666666" points="601.25,-2321637.19 502.75,-2321637.19 502.75,-2321618.69 601.25,-2321618.69 601.25,-2321637.19"/>
<text text-anchor="middle" x="552" y="-2321623.69" font-family="Helvetica,sans-Serif" font-size="10.00">sqsh_tree.h</text>
</a>
</g>
</g>
<!-- Node3&#45;&gt;Node19 -->
<g id="edge26" class="edge">
<title>Node3&#45;&gt;Node19</title>
<path fill="none" stroke="#63b8ff" d="M552,-2556255.65C552,-2439809.8 552,-2323358.88 552,-2321648.02"/>
<polygon fill="#63b8ff" stroke="#63b8ff" points="555.5,-2321648.31 552,-2321638.31 548.5,-2321648.31 555.5,-2321648.31"/>
</g>
<!-- Node20 -->
<g id="node20" class="node">
<title>Node20</title>
<g id="a_node20"><a xlink:href="sqsh__xattr_8h.html" target="_top" xlink:title=" ">
<polygon fill="white" stroke="#666666" points="230,-1512724.74 124,-1512724.74 124,-1512706.24 230,-1512706.24 230,-1512724.74"/>
<text text-anchor="middle" x="177" y="-1512711.24" font-family="Helvetica,sans-Serif" font-size="10.00">sqsh_xattr.h</text>
</a>
</g>
</g>
<!-- Node3&#45;&gt;Node20 -->
<g id="edge29" class="edge">
<title>Node3&#45;&gt;Node20</title>
<path fill="none" stroke="#63b8ff" d="M583,-2775306.29C683.07,-2723023.72 965.55,-2556770.58 512,-2556255.3 428.81,-2556160.79 314.19,-2556313.82 231,-2556219.3 231,-2556219.3 177.27,-1517866.21 177,-1512735.57"/>
<polygon fill="#63b8ff" stroke="#63b8ff" points="180.5,-1512735.98 177,-1512725.98 173.5,-1512735.98 180.5,-1512735.98"/>
</g>
<!-- Node4&#45;&gt;Node5 -->
<g id="edge4" class="edge">
<title>Node4&#45;&gt;Node5</title>
<path fill="none" stroke="#63b8ff" d="M368.95,-1278123.47C380.41,-1174067.08 396.38,-1050137.53 417,-938430.41 417.25,-937096.44 417.5,-935758.2 417.75,-934416.02"/>
<polygon fill="#63b8ff" stroke="#63b8ff" points="421.25,-934416.18 417.75,-934406.18 414.25,-934416.18 421.25,-934416.18"/>
</g>
<!-- Node6 -->
<g id="node6" class="node">
<title>Node6</title>
<g id="a_node6"><a xlink:title=" ">
<polygon fill="#e0e0e0" stroke="#999999" points="418.75,-469177.02 335.25,-469177.02 335.25,0 418.75,0 418.75,-469177.02"/>
<text text-anchor="middle" x="377" y="-469163.52" font-family="Helvetica,sans-Serif" font-size="10.00">stdbool.h</text>
</a>
</g>
</g>
<!-- Node5&#45;&gt;Node6 -->
<g id="edge5" class="edge">
<title>Node5&#45;&gt;Node6</title>
<path fill="none" stroke="#63b8ff" d="M426,-469212.56C423.75,-458407.33 421.49,-447602.06 419.25,-436888.42"/>
<polygon fill="#63b8ff" stroke="#63b8ff" points="422.75,-436888.63 419.25,-436878.63 415.75,-436888.63 422.75,-436888.63"/>
</g>
<!-- Node7 -->
<g id="node7" class="node">
<title>Node7</title>
<g id="a_node7"><a xlink:title=" ">
<polygon fill="#e0e0e0" stroke="#999999" points="513,-234597.76 437,-234597.76 437,-234579.26 513,-234579.26 513,-234597.76"/>
<text text-anchor="middle" x="475" y="-234584.26" font-family="Helvetica,sans-Serif" font-size="10.00">stddef.h</text>
</a>
</g>
</g>
<!-- Node5&#45;&gt;Node7 -->
<g id="edge6" class="edge">
<title>Node5&#45;&gt;Node7</title>
<path fill="none" stroke="#63b8ff" d="M475,-469212.56C475,-352768.69 475,-236319.43 475,-234608.59"/>
<polygon fill="#63b8ff" stroke="#63b8ff" points="478.5,-234608.89 475,-234598.89 471.5,-234608.89 478.5,-234608.89"/>
</g>
<!-- Node8 -->
<g id="node8" class="node">
<title>Node8</title>
<g id="a_node8"><a xlink:title=" ">
<polygon fill="#e0e0e0" stroke="#999999" points="607,-234601.51 531,-234601.51 531,-234575.51 607,-234575.51 607,-234601.51"/>
<text text-anchor="middle" x="569" y="-234588.01" font-family="Helvetica,sans-Serif" font-size="10.00">stdint.h</text>
</a>
</g>
</g>
<!-- Node5&#45;&gt;Node8 -->
<g id="edge7" class="edge">
<title>Node5&#45;&gt;Node8</title>
<path fill="none" stroke="#63b8ff" d="M522,-469212.56C545.31,-352854.52 568.62,-236491.09 569,-234612.56"/>
<polygon fill="#63b8ff" stroke="#63b8ff" points="572.5,-234612.82 569,-234602.82 565.5,-234612.82 572.5,-234612.82"/>
</g>
<!-- Node9&#45;&gt;Node10 -->
<g id="edge10" class="edge">
<title>Node9&#45;&gt;Node10</title>
<path fill="none" stroke="#63b8ff" d="M379,-2321618.54C379.23,-2320418.21 403.35,-2190795.24 417,-2087000.57 450.41,-1832914.84 474.78,-1515594.29 475,-1512735.94"/>
<polygon fill="#63b8ff" stroke="#63b8ff" points="478.5,-1512736.04 475,-1512726.04 471.5,-1512736.04 478.5,-1512736.04"/>
</g>
<!-- Node10&#45;&gt;Node5 -->
<g id="edge11" class="edge">
<title>Node10&#45;&gt;Node5</title>
<path fill="none" stroke="#63b8ff" d="M475,-1512705.81C475,-1510744.11 475,-1176565.95 475,-938405.69"/>
<polygon fill="#63b8ff" stroke="#63b8ff" points="478.5,-938405.79 475,-938395.79 471.5,-938405.79 478.5,-938405.79"/>
</g>
<!-- Node11&#45;&gt;Node5 -->
<g id="edge13" class="edge">
<title>Node11&#45;&gt;Node5</title>
<path fill="none" stroke="#63b8ff" d="M1086,-2321618.54C1085.74,-2320418.21 1057.39,-2190795.24 1047,-2087000.57 1043.81,-2055095.84 1044.78,-970335.12 1008,-938430.41 915.53,-858216.82 649.94,-762577.89 532.28,-722707.88"/>
<polygon fill="#63b8ff" stroke="#63b8ff" points="535.78,-722707.92 532.25,-722697.93 528.78,-722707.94 535.78,-722707.92"/>
</g>
<!-- Node12 -->
<g id="node12" class="node">
<title>Node12</title>
<g id="a_node12"><a xlink:title=" ">
<polygon fill="#e0e0e0" stroke="#999999" points="1203.25,-2087000.57 1134.75,-2087000.57 1134.75,-938430.41 1203.25,-938430.41 1203.25,-2087000.57"/>
<text text-anchor="middle" x="1169" y="-2086987.07" font-family="Helvetica,sans-Serif" font-size="10.00">fcntl.h</text>
</a>
</g>
</g>
<!-- Node11&#45;&gt;Node12 -->
<g id="edge14" class="edge">
<title>Node11&#45;&gt;Node12</title>
<path fill="none" stroke="#63b8ff" d="M1086,-2321618.54C1086.25,-2320418.21 1113.27,-2190795.24 1126,-2087000.57 1128.92,-2063215.93 1131.67,-2038877.19 1134.25,-2014294.16"/>
<polygon fill="#63b8ff" stroke="#63b8ff" points="1137.75,-2014294.19 1134.25,-2014284.19 1130.75,-2014294.19 1137.75,-2014294.19"/>
</g>
<!-- Node11&#45;&gt;Node13 -->
<g id="edge15" class="edge">
<title>Node11&#45;&gt;Node13</title>
<path fill="none" stroke="#63b8ff" d="M1086.01,-2321618.26C1088.66,-2319991.73 1461.92,-2090253.43 1023,-2087036.57 1020.76,-2087020.11 1015.24,-2087017.02 1013,-2087000.57 878.75,-2086015.97 964.43,-1516521.37 965,-1512735.45"/>
<polygon fill="#63b8ff" stroke="#63b8ff" points="968.5,-1512735.78 965,-1512725.78 961.5,-1512735.78 968.5,-1512735.78"/>
</g>
<!-- Node14 -->
<g id="node14" class="node">
<title>Node14</title>
<g id="a_node14"><a xlink:title=" ">
<polygon fill="#e0e0e0" stroke="#999999" points="1116.5,-1512724.74 1055.5,-1512724.74 1055.5,-1512706.24 1116.5,-1512706.24 1116.5,-1512724.74"/>
<text text-anchor="middle" x="1086" y="-1512711.24" font-family="Helvetica,sans-Serif" font-size="10.00">time.h</text>
</a>
</g>
</g>
<!-- Node11&#45;&gt;Node14 -->
<g id="edge16" class="edge">
<title>Node11&#45;&gt;Node14</title>
<path fill="none" stroke="#63b8ff" d="M1086,-2321618.26C1086,-2318577.42 1086,-1517281.38 1086,-1512735.9"/>
<polygon fill="#63b8ff" stroke="#63b8ff" points="1089.5,-1512736.13 1086,-1512726.13 1082.5,-1512736.13 1089.5,-1512736.13"/>
</g>
<!-- Node15&#45;&gt;Node5 -->
<g id="edge18" class="edge">
<title>Node15&#45;&gt;Node5</title>
<path fill="none" stroke="#63b8ff" d="M804,-2321618.42C803.75,-2318672.68 739.86,-1552002.48 567,-938430.41 557.73,-905511.09 545.14,-869993.72 532.25,-836799.33"/>
<polygon fill="#63b8ff" stroke="#63b8ff" points="535.75,-836799.69 532.25,-836789.7 528.75,-836799.7 535.75,-836799.69"/>
</g>
<!-- Node17&#45;&gt;Node5 -->
<g id="edge22" class="edge">
<title>Node17&#45;&gt;Node5</title>
<path fill="none" stroke="#63b8ff" d="M907.84,-2087036.14C875.53,-1752494.02 803.66,-1154900.67 687,-938430.41 653.02,-875373.07 582.61,-802782.99 532.26,-755247.09"/>
<polygon fill="#63b8ff" stroke="#63b8ff" points="535.76,-755247.21 532.25,-755237.21 528.76,-755247.22 535.76,-755247.21"/>
</g>
<!-- Node17&#45;&gt;Node13 -->
<g id="edge23" class="edge">
<title>Node17&#45;&gt;Node13</title>
<path fill="none" stroke="#63b8ff" d="M938.73,-2087036.19C949.61,-1849221.92 964.87,-1515660.1 965,-1512735.85"/>
<polygon fill="#63b8ff" stroke="#63b8ff" points="968.5,-1512736.12 965,-1512726.12 961.5,-1512736.12 968.5,-1512736.12"/>
</g>
<!-- Node18&#45;&gt;Node5 -->
<g id="edge25" class="edge">
<title>Node18&#45;&gt;Node5</title>
<path fill="none" stroke="#63b8ff" d="M2.75,-1278123.77C-0.04,-1174067.31 23.27,-1050137.62 115,-938430.41 175.95,-864202.19 332.54,-776764.61 417.73,-732534.76"/>
<polygon fill="#63b8ff" stroke="#63b8ff" points="421.23,-732534.88 417.75,-732524.87 414.23,-732534.87 421.23,-732534.88"/>
</g>
<!-- Node19&#45;&gt;Node5 -->
<g id="edge27" class="edge">
<title>Node19&#45;&gt;Node5</title>
<path fill="none" stroke="#63b8ff" d="M552,-2321618.42C552.23,-2318672.68 613.05,-1552002.49 533,-938430.41 532.76,-936590.46 532.51,-934742.39 532.25,-932887.06"/>
<polygon fill="#63b8ff" stroke="#63b8ff" points="535.75,-932887.17 532.25,-932877.17 528.75,-932887.17 535.75,-932887.17"/>
</g>
<!-- Node19&#45;&gt;Node10 -->
<g id="edge28" class="edge">
<title>Node19&#45;&gt;Node10</title>
<path fill="none" stroke="#63b8ff" d="M552,-2321618.26C551.71,-2318577.42 475.43,-1517281.38 475,-1512735.9"/>
<polygon fill="#63b8ff" stroke="#63b8ff" points="478.5,-1512736.13 475,-1512726.13 471.5,-1512736.14 478.5,-1512736.13"/>
</g>
<!-- Node20&#45;&gt;Node5 -->
<g id="edge30" class="edge">
<title>Node20&#45;&gt;Node5</title>
<path fill="none" stroke="#63b8ff" d="M177,-1512705.94C176.56,-1510806.7 103.88,-1192904.4 244,-938430.41 280.03,-872988.7 361.82,-797279.71 417.74,-749964.05"/>
<polygon fill="#63b8ff" stroke="#63b8ff" points="421.24,-749964.22 417.75,-749954.22 414.24,-749964.22 421.24,-749964.22"/>
</g>
</g>
</svg>
        <g id="navigator" transform="translate(0 0)" fill="#404254">
                <rect fill="#f2f5e9" fill-opacity="0.5" stroke="#606060" stroke-width=".5" x="0" y="0" width="60" height="60"/>
                <use id="zoomplus" xlink:href="#zoomPlus" x="17" y="9" onmousedown="handleZoom(evt,'in')"/>
                <use id="zoomminus" xlink:href="#zoomMin" x="42" y="9" onmousedown="handleZoom(evt,'out')"/>
                <use id="reset" xlink:href="#resetDef" x="30" y="36" onmousedown="handleReset()"/>
                <g id="arrowUp" xlink:href="#dirArrow" transform="translate(30 24)" onmousedown="handlePan(0,-1)">
                  <use xlink:href="#rim" fill="#404040">
                        <set attributeName="fill" to="#808080" begin="arrowUp.mouseover" end="arrowUp.mouseout"/>
                  </use>
                  <path fill="none" stroke="white" stroke-width="1.5" d="M0,-3.0v7 M-2.5,-0.5L0,-3.0L2.5,-0.5"/>
                </g>
                <g id="arrowRight" xlink:href="#dirArrow" transform="rotate(90) translate(36 -43)" onmousedown="handlePan(1,0)">
                  <use xlink:href="#rim" fill="#404040">
                        <set attributeName="fill" to="#808080" begin="arrowRight.mouseover" end="arrowRight.mouseout"/>
                  </use>
                  <path fill="none" stroke="white" stroke-width="1.5" d="M0,-3.0v7 M-2.5,-0.5L0,-3.0L2.5,-0.5"/>
                </g>
                <g id="arrowDown" xlink:href="#dirArrow" transform="rotate(180) translate(-30 -48)" onmousedown="handlePan(0,1)">
                  <use xlink:href="#rim" fill="#404040">
                        <set attributeName="fill" to="#808080" begin="arrowDown.mouseover" end="arrowDown.mouseout"/>
                  </use>
                  <path fill="none" stroke="white" stroke-width="1.5" d="M0,-3.0v7 M-2.5,-0.5L0,-3.0L2.5,-0.5"/>
                </g>
                <g id="arrowLeft" xlink:href="#dirArrow" transform="rotate(270) translate(-36 17)" onmousedown="handlePan(-1,0)">
                  <use xlink:href="#rim" fill="#404040">
                        <set attributeName="fill" to="#808080" begin="arrowLeft.mouseover" end="arrowLeft.mouseout"/>
                  </use>
                  <path fill="none" stroke="white" stroke-width="1.5" d="M0,-3.0v7 M-2.5,-0.5L0,-3.0L2.5,-0.5"/>
                </g>
        </g>
        <svg viewBox="0 0 15 15" width="100%" height="30px" preserveAspectRatio="xMaxYMin meet">
         <g id="arrow_out" transform="scale(0.3 0.3)">
          <a xlink:href="readme__example_8c__incl_org.svg" target="_base">
           <rect id="button" ry="5" rx="5" y="6" x="6" height="38" width="38"
                fill="#f2f5e9" fill-opacity="0.5" stroke="#606060" stroke-width="1.0"/>
           <path id="arrow"
             d="M 11.500037,31.436501 C 11.940474,20.09759 22.043105,11.32322 32.158766,21.979434 L 37.068811,17.246167 C 37.068811,17.246167 37.088388,32 37.088388,32 L 22.160133,31.978069 C 22.160133,31.978069 26.997745,27.140456 26.997745,27.140456 C 18.528582,18.264221 13.291696,25.230495 11.500037,31.436501 z"
             style="fill:#404040;"/>
          </a>
         </g>
        </svg>
</svg>
