<?xml version="1.0" encoding="UTF-8" standalone="no"?>
<!DOCTYPE svg PUBLIC "-//W3C//DTD SVG 1.1//EN"
 "http://www.w3.org/Graphics/SVG/1.1/DTD/svg11.dtd">
<!-- Generated by graphviz version 8.0.5 (20230430.1635)
 -->
<!-- Title: examples/read_file_ll.c Pages: 1 -->
<svg width="1067pt" height="323pt"
 viewBox="0.00 0.00 1067.25 323.08" xmlns="http://www.w3.org/2000/svg" xmlns:xlink="http://www.w3.org/1999/xlink">
<g id="graph0" class="graph" transform="scale(1 1) rotate(0) translate(4 319.08)">
<title>examples/read_file_ll.c</title>
<!-- Node1 -->
<g id="node1" class="node">
<title>Node1</title>
<g id="a_node1"><a xlink:title=" ">
<polygon fill="#999999" stroke="#666666" points="959.25,-315.08 770.75,-315.08 770.75,-296.58 959.25,-296.58 959.25,-315.08"/>
<text text-anchor="middle" x="865" y="-301.58" font-family="Helvetica,sans-Serif" font-size="10.00">examples/read_file_ll.c</text>
</a>
</g>
</g>
<!-- Node2 -->
<g id="node2" class="node">
<title>Node2</title>
<g id="a_node2"><a xlink:href="sqsh_8h.html" target="_top" xlink:title=" ">
<polygon fill="white" stroke="#666666" points="486.5,-260.58 425.5,-260.58 425.5,-241.99 486.5,-241.99 486.5,-260.58"/>
<text text-anchor="middle" x="456" y="-247.08" font-family="Helvetica,sans-Serif" font-size="10.00">sqsh.h</text>
</a>
</g>
</g>
<!-- Node1&#45;&gt;Node2 -->
<g id="edge1" class="edge">
<title>Node1&#45;&gt;Node2</title>
<path fill="none" stroke="#63b8ff" d="M797,-296.1C711.73,-285.14 568.17,-266.7 497.65,-257.64"/>
<polygon fill="#63b8ff" stroke="#63b8ff" points="498.34,-254.07 487.98,-256.27 497.45,-261.01 498.34,-254.07"/>
</g>
<!-- Node12 -->
<g id="node12" class="node">
<title>Node12</title>
<g id="a_node12"><a xlink:title=" ">
<polygon fill="#e0e0e0" stroke="#999999" points="855.25,-127.5 786.75,-127.5 786.75,-109 855.25,-109 855.25,-127.5"/>
<text text-anchor="middle" x="821" y="-114" font-family="Helvetica,sans-Serif" font-size="10.00">stdio.h</text>
</a>
</g>
</g>
<!-- Node1&#45;&gt;Node12 -->
<g id="edge30" class="edge">
<title>Node1&#45;&gt;Node12</title>
<path fill="none" stroke="#63b8ff" d="M864.97,-296.3C864.64,-273.9 862.23,-211.85 846,-163.5 842.91,-154.31 837.87,-144.86 833.12,-137.06"/>
<polygon fill="#63b8ff" stroke="#63b8ff" points="835.59,-135.44 827.23,-128.93 829.71,-139.23 835.59,-135.44"/>
</g>
<!-- Node20 -->
<g id="node20" class="node">
<title>Node20</title>
<g id="a_node20"><a xlink:title=" ">
<polygon fill="#e0e0e0" stroke="#999999" points="969,-260.54 893,-260.54 893,-242.04 969,-242.04 969,-260.54"/>
<text text-anchor="middle" x="931" y="-247.04" font-family="Helvetica,sans-Serif" font-size="10.00">stdlib.h</text>
</a>
</g>
</g>
<!-- Node1&#45;&gt;Node20 -->
<g id="edge31" class="edge">
<title>Node1&#45;&gt;Node20</title>
<path fill="none" stroke="#63b8ff" d="M875.9,-296.15C885.7,-288.35 900.32,-276.71 912.04,-267.38"/>
<polygon fill="#63b8ff" stroke="#63b8ff" points="913.66,-269.77 919.3,-260.8 909.3,-264.29 913.66,-269.77"/>
</g>
<!-- Node3 -->
<g id="node3" class="node">
<title>Node3</title>
<g id="a_node3"><a xlink:href="sqsh__archive_8h.html" target="_top" xlink:title=" ">
<polygon fill="white" stroke="#666666" points="349.5,-127.5 228.5,-127.5 228.5,-109 349.5,-109 349.5,-127.5"/>
<text text-anchor="middle" x="289" y="-114" font-family="Helvetica,sans-Serif" font-size="10.00">sqsh_archive.h</text>
</a>
</g>
</g>
<!-- Node2&#45;&gt;Node3 -->
<g id="edge2" class="edge">
<title>Node2&#45;&gt;Node3</title>
<path fill="none" stroke="#63b8ff" d="M425.06,-248.47C371.84,-244.63 266.47,-233.64 244,-205.99 232.09,-191.34 236.7,-180.92 244,-163.5 248.76,-152.13 258.03,-142.21 266.92,-134.66"/>
<polygon fill="#63b8ff" stroke="#63b8ff" points="268.8,-136.85 274.51,-127.93 264.48,-131.34 268.8,-136.85"/>
</g>
<!-- Node4 -->
<g id="node4" class="node">
<title>Node4</title>
<g id="a_node4"><a xlink:href="sqsh__common_8h.html" target="_top" xlink:title=" ">
<polygon fill="white" stroke="#666666" points="473.75,-73 360.25,-73 360.25,-54.5 473.75,-54.5 473.75,-73"/>
<text text-anchor="middle" x="417" y="-59.5" font-family="Helvetica,sans-Serif" font-size="10.00">sqsh_common.h</text>
</a>
</g>
</g>
<!-- Node2&#45;&gt;Node4 -->
<g id="edge7" class="edge">
<title>Node2&#45;&gt;Node4</title>
<path fill="none" stroke="#63b8ff" d="M425.07,-248.46C369.99,-244.54 258.18,-233.34 232,-205.99 207.59,-180.5 222.67,-162.69 220,-127.5 219.38,-119.3 214.86,-115.42 220,-109 236.12,-88.86 298.83,-77.25 349.23,-71.02"/>
<polygon fill="#63b8ff" stroke="#63b8ff" points="349.58,-74.38 359.1,-69.73 348.76,-67.43 349.58,-74.38"/>
</g>
<!-- Node8 -->
<g id="node8" class="node">
<title>Node8</title>
<g id="a_node8"><a xlink:href="sqsh__directory_8h.html" target="_top" xlink:title=" ">
<polygon fill="white" stroke="#666666" points="389,-194 253,-194 253,-175.5 389,-175.5 389,-194"/>
<text text-anchor="middle" x="321" y="-180.5" font-family="Helvetica,sans-Serif" font-size="10.00">sqsh_directory.h</text>
</a>
</g>
</g>
<!-- Node2&#45;&gt;Node8 -->
<g id="edge8" class="edge">
<title>Node2&#45;&gt;Node8</title>
<path fill="none" stroke="#63b8ff" d="M437.79,-241.58C414.92,-230.65 375.44,-211.77 348.79,-199.03"/>
<polygon fill="#63b8ff" stroke="#63b8ff" points="350.45,-195.47 339.92,-194.31 347.43,-201.78 350.45,-195.47"/>
</g>
<!-- Node9 -->
<g id="node9" class="node">
<title>Node9</title>
<g id="a_node9"><a xlink:href="sqsh__file_8h.html" target="_top" xlink:title=" ">
<polygon fill="white" stroke="#666666" points="466.25,-127.5 367.75,-127.5 367.75,-109 466.25,-109 466.25,-127.5"/>
<text text-anchor="middle" x="417" y="-114" font-family="Helvetica,sans-Serif" font-size="10.00">sqsh_file.h</text>
</a>
</g>
</g>
<!-- Node2&#45;&gt;Node9 -->
<g id="edge18" class="edge">
<title>Node2&#45;&gt;Node9</title>
<path fill="none" stroke="#63b8ff" d="M451.46,-241.68C447,-232.91 440.25,-218.81 436,-205.99 428.48,-183.28 423.09,-156.23 420.02,-138.45"/>
<polygon fill="#63b8ff" stroke="#63b8ff" points="423.34,-138.08 418.26,-128.78 416.43,-139.22 423.34,-138.08"/>
</g>
<!-- Node10 -->
<g id="node10" class="node">
<title>Node10</title>
<g id="a_node10"><a xlink:href="sqsh__easy_8h.html" target="_top" xlink:title=" ">
<polygon fill="white" stroke="#666666" points="991.25,-194 892.75,-194 892.75,-175.5 991.25,-175.5 991.25,-194"/>
<text text-anchor="middle" x="942" y="-180.5" font-family="Helvetica,sans-Serif" font-size="10.00">sqsh_easy.h</text>
</a>
</g>
</g>
<!-- Node2&#45;&gt;Node10 -->
<g id="edge11" class="edge">
<title>Node2&#45;&gt;Node10</title>
<path fill="none" stroke="#63b8ff" d="M486.98,-247.77C553.16,-242.18 713.15,-227.5 846,-205.99 861.85,-203.43 879.04,-200.01 894.44,-196.71"/>
<polygon fill="#63b8ff" stroke="#63b8ff" points="894.74,-200.01 903.77,-194.46 893.25,-193.17 894.74,-200.01"/>
</g>
<!-- Node14 -->
<g id="node14" class="node">
<title>Node14</title>
<g id="a_node14"><a xlink:href="sqsh__error_8h.html" target="_top" xlink:title=" ">
<polygon fill="white" stroke="#666666" points="654,-127.5 548,-127.5 548,-109 654,-109 654,-127.5"/>
<text text-anchor="middle" x="601" y="-114" font-family="Helvetica,sans-Serif" font-size="10.00">sqsh_error.h</text>
</a>
</g>
</g>
<!-- Node2&#45;&gt;Node14 -->
<g id="edge16" class="edge">
<title>Node2&#45;&gt;Node14</title>
<path fill="none" stroke="#63b8ff" d="M486.57,-248.99C542.83,-245.89 659.31,-235.94 684,-205.99 696.01,-191.42 693.72,-179.69 684,-163.5 675.18,-148.8 659.63,-138.71 644.36,-131.93"/>
<polygon fill="#63b8ff" stroke="#63b8ff" points="646.02,-128.42 635.43,-127.93 643.4,-134.92 646.02,-128.42"/>
</g>
<!-- Node15 -->
<g id="node15" class="node">
<title>Node15</title>
<g id="a_node15"><a xlink:href="sqsh__mapper_8h.html" target="_top" xlink:title=" ">
<polygon fill="white" stroke="#666666" points="674.75,-205.99 561.25,-205.99 561.25,-163.5 674.75,-163.5 674.75,-205.99"/>
<text text-anchor="middle" x="618" y="-192.49" font-family="Helvetica,sans-Serif" font-size="10.00">sqsh_mapper.h</text>
</a>
</g>
</g>
<!-- Node2&#45;&gt;Node15 -->
<g id="edge19" class="edge">
<title>Node2&#45;&gt;Node15</title>
<path fill="none" stroke="#63b8ff" d="M477.85,-241.58C497.92,-233.58 528.66,-221.34 556.24,-210.35"/>
<polygon fill="#63b8ff" stroke="#63b8ff" points="557.23,-213.32 565.23,-206.37 554.64,-206.82 557.23,-213.32"/>
</g>
<!-- Node16 -->
<g id="node16" class="node">
<title>Node16</title>
<g id="a_node16"><a xlink:href="sqsh__posix_8h.html" target="_top" xlink:title=" ">
<polygon fill="white" stroke="#666666" points="837,-197.75 731,-197.75 731,-171.75 837,-171.75 837,-197.75"/>
<text text-anchor="middle" x="784" y="-184.25" font-family="Helvetica,sans-Serif" font-size="10.00">sqsh_posix.h</text>
</a>
</g>
</g>
<!-- Node2&#45;&gt;Node16 -->
<g id="edge20" class="edge">
<title>Node2&#45;&gt;Node16</title>
<path fill="none" stroke="#63b8ff" d="M486.79,-246.34C535.86,-239.76 634.68,-225.34 717,-205.99 723.06,-204.57 729.38,-202.9 735.61,-201.15"/>
<polygon fill="#63b8ff" stroke="#63b8ff" points="736.33,-204.3 744.96,-198.14 734.38,-197.57 736.33,-204.3"/>
</g>
<!-- Node17 -->
<g id="node17" class="node">
<title>Node17</title>
<g id="a_node17"><a xlink:href="sqsh__table_8h.html" target="_top" xlink:title=" ">
<polygon fill="white" stroke="#666666" points="106,-194 0,-194 0,-175.5 106,-175.5 106,-194"/>
<text text-anchor="middle" x="53" y="-180.5" font-family="Helvetica,sans-Serif" font-size="10.00">sqsh_table.h</text>
</a>
</g>
</g>
<!-- Node2&#45;&gt;Node17 -->
<g id="edge23" class="edge">
<title>Node2&#45;&gt;Node17</title>
<path fill="none" stroke="#63b8ff" d="M425.14,-247.91C365.61,-242.94 231.01,-229.92 120,-205.99 109.71,-203.77 98.7,-200.74 88.65,-197.69"/>
<polygon fill="#63b8ff" stroke="#63b8ff" points="89.79,-194.07 79.2,-194.42 87.7,-200.75 89.79,-194.07"/>
</g>
<!-- Node18 -->
<g id="node18" class="node">
<title>Node18</title>
<g id="a_node18"><a xlink:href="sqsh__tree_8h.html" target="_top" xlink:title=" ">
<polygon fill="white" stroke="#666666" points="543.25,-194 444.75,-194 444.75,-175.5 543.25,-175.5 543.25,-194"/>
<text text-anchor="middle" x="494" y="-180.5" font-family="Helvetica,sans-Serif" font-size="10.00">sqsh_tree.h</text>
</a>
</g>
</g>
<!-- Node2&#45;&gt;Node18 -->
<g id="edge25" class="edge">
<title>Node2&#45;&gt;Node18</title>
<path fill="none" stroke="#63b8ff" d="M461.12,-241.58C466.82,-231.91 476.18,-216.01 483.46,-203.65"/>
<polygon fill="#63b8ff" stroke="#63b8ff" points="486.9,-205.71 488.96,-195.31 480.87,-202.15 486.9,-205.71"/>
</g>
<!-- Node19 -->
<g id="node19" class="node">
<title>Node19</title>
<g id="a_node19"><a xlink:href="sqsh__xattr_8h.html" target="_top" xlink:title=" ">
<polygon fill="white" stroke="#666666" points="172,-127.5 66,-127.5 66,-109 172,-109 172,-127.5"/>
<text text-anchor="middle" x="119" y="-114" font-family="Helvetica,sans-Serif" font-size="10.00">sqsh_xattr.h</text>
</a>
</g>
</g>
<!-- Node2&#45;&gt;Node19 -->
<g id="edge28" class="edge">
<title>Node2&#45;&gt;Node19</title>
<path fill="none" stroke="#63b8ff" d="M425.33,-248.68C360.9,-244.8 214.06,-233.16 173,-205.99 148.52,-189.8 133.13,-158.3 125.3,-138.05"/>
<polygon fill="#63b8ff" stroke="#63b8ff" points="128.32,-137.1 121.64,-128.88 121.73,-139.47 128.32,-137.1"/>
</g>
<!-- Node3&#45;&gt;Node4 -->
<g id="edge3" class="edge">
<title>Node3&#45;&gt;Node4</title>
<path fill="none" stroke="#63b8ff" d="M310.14,-108.58C330.7,-100.15 362.2,-87.23 385.68,-77.6"/>
<polygon fill="#63b8ff" stroke="#63b8ff" points="386.91,-80.47 394.83,-73.43 384.25,-73.99 386.91,-80.47"/>
</g>
<!-- Node5 -->
<g id="node5" class="node">
<title>Node5</title>
<g id="a_node5"><a xlink:title=" ">
<polygon fill="#e0e0e0" stroke="#999999" points="360.75,-18.5 277.25,-18.5 277.25,0 360.75,0 360.75,-18.5"/>
<text text-anchor="middle" x="319" y="-5" font-family="Helvetica,sans-Serif" font-size="10.00">stdbool.h</text>
</a>
</g>
</g>
<!-- Node4&#45;&gt;Node5 -->
<g id="edge4" class="edge">
<title>Node4&#45;&gt;Node5</title>
<path fill="none" stroke="#63b8ff" d="M400.82,-54.08C385.5,-45.87 362.25,-33.42 344.45,-23.89"/>
<polygon fill="#63b8ff" stroke="#63b8ff" points="346.67,-20.57 336.21,-18.93 343.37,-26.74 346.67,-20.57"/>
</g>
<!-- Node6 -->
<g id="node6" class="node">
<title>Node6</title>
<g id="a_node6"><a xlink:title=" ">
<polygon fill="#e0e0e0" stroke="#999999" points="455,-18.5 379,-18.5 379,0 455,0 455,-18.5"/>
<text text-anchor="middle" x="417" y="-5" font-family="Helvetica,sans-Serif" font-size="10.00">stddef.h</text>
</a>
</g>
</g>
<!-- Node4&#45;&gt;Node6 -->
<g id="edge5" class="edge">
<title>Node4&#45;&gt;Node6</title>
<path fill="none" stroke="#63b8ff" d="M417,-54.08C417,-47.43 417,-37.99 417,-29.58"/>
<polygon fill="#63b8ff" stroke="#63b8ff" points="420.5,-29.76 417,-19.76 413.5,-29.76 420.5,-29.76"/>
</g>
<!-- Node7 -->
<g id="node7" class="node">
<title>Node7</title>
<g id="a_node7"><a xlink:title=" ">
<polygon fill="#e0e0e0" stroke="#999999" points="549,-18.5 473,-18.5 473,0 549,0 549,-18.5"/>
<text text-anchor="middle" x="511" y="-5" font-family="Helvetica,sans-Serif" font-size="10.00">stdint.h</text>
</a>
</g>
</g>
<!-- Node4&#45;&gt;Node7 -->
<g id="edge6" class="edge">
<title>Node4&#45;&gt;Node7</title>
<path fill="none" stroke="#63b8ff" d="M432.52,-54.08C447.08,-45.95 469.1,-33.65 486.11,-24.15"/>
<polygon fill="#63b8ff" stroke="#63b8ff" points="487.43,-26.86 494.45,-18.93 484.02,-20.75 487.43,-26.86"/>
</g>
<!-- Node8&#45;&gt;Node9 -->
<g id="edge9" class="edge">
<title>Node8&#45;&gt;Node9</title>
<path fill="none" stroke="#63b8ff" d="M333.95,-175.05C349.64,-164.51 376.31,-146.59 395.19,-133.9"/>
<polygon fill="#63b8ff" stroke="#63b8ff" points="396.91,-136.29 403.26,-127.81 393.01,-130.48 396.91,-136.29"/>
</g>
<!-- Node9&#45;&gt;Node4 -->
<g id="edge10" class="edge">
<title>Node9&#45;&gt;Node4</title>
<path fill="none" stroke="#63b8ff" d="M417,-108.58C417,-101.93 417,-92.49 417,-84.08"/>
<polygon fill="#63b8ff" stroke="#63b8ff" points="420.5,-84.26 417,-74.26 413.5,-84.26 420.5,-84.26"/>
</g>
<!-- Node10&#45;&gt;Node4 -->
<g id="edge12" class="edge">
<title>Node10&#45;&gt;Node4</title>
<path fill="none" stroke="#63b8ff" d="M936.31,-175.39C924.8,-159.29 897.05,-124.21 864,-109 798.25,-78.74 592.83,-69.1 484.86,-66.08"/>
<polygon fill="#63b8ff" stroke="#63b8ff" points="485.18,-62.56 475.09,-65.79 485,-69.56 485.18,-62.56"/>
</g>
<!-- Node11 -->
<g id="node11" class="node">
<title>Node11</title>
<g id="a_node11"><a xlink:title=" ">
<polygon fill="#e0e0e0" stroke="#999999" points="1059.25,-127.5 990.75,-127.5 990.75,-109 1059.25,-109 1059.25,-127.5"/>
<text text-anchor="middle" x="1025" y="-114" font-family="Helvetica,sans-Serif" font-size="10.00">fcntl.h</text>
</a>
</g>
</g>
<!-- Node10&#45;&gt;Node11 -->
<g id="edge13" class="edge">
<title>Node10&#45;&gt;Node11</title>
<path fill="none" stroke="#63b8ff" d="M953.19,-175.05C966.63,-164.6 989.4,-146.91 1005.7,-134.25"/>
<polygon fill="#63b8ff" stroke="#63b8ff" points="1007.23,-136.71 1012.98,-127.81 1002.94,-131.18 1007.23,-136.71"/>
</g>
<!-- Node10&#45;&gt;Node12 -->
<g id="edge14" class="edge">
<title>Node10&#45;&gt;Node12</title>
<path fill="none" stroke="#63b8ff" d="M925.68,-175.05C905.36,-164.22 870.42,-145.59 846.54,-132.86"/>
<polygon fill="#63b8ff" stroke="#63b8ff" points="848.53,-129.43 838.06,-127.81 845.24,-135.6 848.53,-129.43"/>
</g>
<!-- Node13 -->
<g id="node13" class="node">
<title>Node13</title>
<g id="a_node13"><a xlink:title=" ">
<polygon fill="#e0e0e0" stroke="#999999" points="972.5,-127.5 911.5,-127.5 911.5,-109 972.5,-109 972.5,-127.5"/>
<text text-anchor="middle" x="942" y="-114" font-family="Helvetica,sans-Serif" font-size="10.00">time.h</text>
</a>
</g>
</g>
<!-- Node10&#45;&gt;Node13 -->
<g id="edge15" class="edge">
<title>Node10&#45;&gt;Node13</title>
<path fill="none" stroke="#63b8ff" d="M942,-175.05C942,-165.76 942,-150.76 942,-138.64"/>
<polygon fill="#63b8ff" stroke="#63b8ff" points="945.5,-138.81 942,-128.81 938.5,-138.81 945.5,-138.81"/>
</g>
<!-- Node14&#45;&gt;Node4 -->
<g id="edge17" class="edge">
<title>Node14&#45;&gt;Node4</title>
<path fill="none" stroke="#63b8ff" d="M570.62,-108.58C539.85,-99.8 492.08,-86.17 457.98,-76.44"/>
<polygon fill="#63b8ff" stroke="#63b8ff" points="459.01,-72.81 448.43,-73.43 457.08,-79.54 459.01,-72.81"/>
</g>
<!-- Node16&#45;&gt;Node4 -->
<g id="edge21" class="edge">
<title>Node16&#45;&gt;Node4</title>
<path fill="none" stroke="#63b8ff" d="M768.2,-171.25C746.03,-154.38 703.82,-124.63 663,-109 605.05,-86.81 535.08,-75.6 484.6,-70.03"/>
<polygon fill="#63b8ff" stroke="#63b8ff" points="485.13,-66.46 474.81,-68.9 484.39,-73.43 485.13,-66.46"/>
</g>
<!-- Node16&#45;&gt;Node12 -->
<g id="edge22" class="edge">
<title>Node16&#45;&gt;Node12</title>
<path fill="none" stroke="#63b8ff" d="M791.13,-171.31C796.67,-161.66 804.43,-148.14 810.65,-137.29"/>
<polygon fill="#63b8ff" stroke="#63b8ff" points="814.08,-139.35 816.02,-128.93 808.01,-135.86 814.08,-139.35"/>
</g>
<!-- Node17&#45;&gt;Node4 -->
<g id="edge24" class="edge">
<title>Node17&#45;&gt;Node4</title>
<path fill="none" stroke="#63b8ff" d="M50.3,-175C46.11,-159.48 40.15,-127.05 57,-109 76.57,-88.04 250.58,-74.5 349.33,-68.44"/>
<polygon fill="#63b8ff" stroke="#63b8ff" points="349.33,-71.88 359.1,-67.79 348.91,-64.9 349.33,-71.88"/>
</g>
<!-- Node18&#45;&gt;Node4 -->
<g id="edge26" class="edge">
<title>Node18&#45;&gt;Node4</title>
<path fill="none" stroke="#63b8ff" d="M493.63,-175.17C492.62,-160.47 488.88,-130 475,-109 466.93,-96.78 454.31,-86.57 442.91,-79.05"/>
<polygon fill="#63b8ff" stroke="#63b8ff" points="445.09,-75.67 434.74,-73.38 441.4,-81.62 445.09,-75.67"/>
</g>
<!-- Node18&#45;&gt;Node9 -->
<g id="edge27" class="edge">
<title>Node18&#45;&gt;Node9</title>
<path fill="none" stroke="#63b8ff" d="M483.62,-175.05C471.26,-164.7 450.42,-147.24 435.33,-134.6"/>
<polygon fill="#63b8ff" stroke="#63b8ff" points="438.13,-131.55 428.22,-127.81 433.64,-136.91 438.13,-131.55"/>
</g>
<!-- Node19&#45;&gt;Node4 -->
<g id="edge29" class="edge">
<title>Node19&#45;&gt;Node4</title>
<path fill="none" stroke="#63b8ff" d="M168.54,-108.52C220.21,-99.42 301.24,-85.14 356.62,-75.39"/>
<polygon fill="#63b8ff" stroke="#63b8ff" points="357.1,-78.68 366.34,-73.5 355.88,-71.79 357.1,-78.68"/>
</g>
</g>
</svg>
