<?xml version="1.0" encoding="UTF-8" standalone="no"?>
<!DOCTYPE svg PUBLIC "-//W3C//DTD SVG 1.1//EN"
 "http://www.w3.org/Graphics/SVG/1.1/DTD/svg11.dtd">
<!-- Generated by graphviz version 7.0.4 (20221203.1631)
 -->
<!-- Title: sqsh_primitive.h Pages: 1 -->
<svg width="329pt" height="247pt"
 viewBox="0.00 0.00 328.74 247.00" xmlns="http://www.w3.org/2000/svg" xmlns:xlink="http://www.w3.org/1999/xlink">
<g id="graph0" class="graph" transform="scale(1 1) rotate(0) translate(4 243)">
<title>sqsh_primitive.h</title>
<!-- Node1 -->
<g id="node1" class="node">
<title>Node1</title>
<g id="a_node1"><a xlink:title=" ">
<polygon fill="#999999" stroke="#666666" points="263.37,-239 126.37,-239 126.37,-220 263.37,-220 263.37,-239"/>
<text text-anchor="middle" x="194.87" y="-227" font-family="Helvetica,sans-Serif" font-size="10.00">sqsh_primitive.h</text>
</a>
</g>
</g>
<!-- Node2 -->
<g id="node2" class="node">
<title>Node2</title>
<g id="a_node2"><a xlink:href="sqsh__context_8h.html" target="_top" xlink:title=" ">
<polygon fill="white" stroke="#666666" points="302.87,-129 180.87,-129 180.87,-110 302.87,-110 302.87,-129"/>
<text text-anchor="middle" x="241.87" y="-117" font-family="Helvetica,sans-Serif" font-size="10.00">sqsh_context.h</text>
</a>
</g>
</g>
<!-- Node1&#45;&gt;Node2 -->
<g id="edge1" class="edge">
<title>Node1&#45;&gt;Node2</title>
<path fill="none" stroke="#63b8ff" d="M205.68,-209.92C210.05,-202.05 214.96,-192.71 218.87,-184 227.4,-164.95 235.18,-141.69 239.14,-129.29"/>
<polygon fill="#63b8ff" stroke="#63b8ff" points="202.69,-208.09 200.79,-218.51 208.77,-211.55 202.69,-208.09"/>
</g>
<!-- Node6 -->
<g id="node6" class="node">
<title>Node6</title>
<g id="a_node6"><a xlink:href="sqsh__mapper_8h.html" target="_top" xlink:title=" ">
<polygon fill="white" stroke="#666666" points="209.87,-184 95.87,-184 95.87,-165 209.87,-165 209.87,-184"/>
<text text-anchor="middle" x="152.87" y="-172" font-family="Helvetica,sans-Serif" font-size="10.00">sqsh_mapper.h</text>
</a>
</g>
</g>
<!-- Node1&#45;&gt;Node6 -->
<g id="edge6" class="edge">
<title>Node1&#45;&gt;Node6</title>
<path fill="none" stroke="#63b8ff" d="M180.94,-210.93C173.91,-202.06 165.68,-191.67 159.95,-184.44"/>
<polygon fill="#63b8ff" stroke="#63b8ff" points="178.04,-212.9 186.99,-218.56 183.52,-208.55 178.04,-212.9"/>
</g>
<!-- Node3 -->
<g id="node3" class="node">
<title>Node3</title>
<g id="a_node3"><a xlink:href="sqsh_8h.html" target="_top" xlink:title=" ">
<polygon fill="white" stroke="#666666" points="158.87,-74 96.87,-74 96.87,-55 158.87,-55 158.87,-74"/>
<text text-anchor="middle" x="127.87" y="-62" font-family="Helvetica,sans-Serif" font-size="10.00">sqsh.h</text>
</a>
</g>
</g>
<!-- Node2&#45;&gt;Node3 -->
<g id="edge2" class="edge">
<title>Node2&#45;&gt;Node3</title>
<path fill="none" stroke="#63b8ff" d="M212.11,-104.67C191.51,-95.09 164.7,-82.62 146.92,-74.36"/>
<polygon fill="#63b8ff" stroke="#63b8ff" points="210.61,-107.83 221.15,-108.87 213.56,-101.48 210.61,-107.83"/>
</g>
<!-- Node4 -->
<g id="node4" class="node">
<title>Node4</title>
<g id="a_node4"><a xlink:href="sqsh__private_8h.html" target="_top" xlink:title=" ">
<polygon fill="white" stroke="#666666" points="158.87,-19 36.87,-19 36.87,0 158.87,0 158.87,-19"/>
<text text-anchor="middle" x="97.87" y="-7" font-family="Helvetica,sans-Serif" font-size="10.00">sqsh_private.h</text>
</a>
</g>
</g>
<!-- Node2&#45;&gt;Node4 -->
<g id="edge5" class="edge">
<title>Node2&#45;&gt;Node4</title>
<path fill="none" stroke="#63b8ff" d="M277.53,-105.04C303.65,-93.16 331.96,-74.71 315.87,-55 296.38,-31.14 216.55,-19.74 159.14,-14.53"/>
<polygon fill="#63b8ff" stroke="#63b8ff" points="276.18,-101.81 268.37,-108.97 278.94,-108.24 276.18,-101.81"/>
</g>
<!-- Node5 -->
<g id="node5" class="node">
<title>Node5</title>
<g id="a_node5"><a xlink:href="sqsh__iterator_8h.html" target="_top" xlink:title=" ">
<polygon fill="white" stroke="#666666" points="306.37,-74 177.37,-74 177.37,-55 306.37,-55 306.37,-74"/>
<text text-anchor="middle" x="241.87" y="-62" font-family="Helvetica,sans-Serif" font-size="10.00">sqsh_iterator.h</text>
</a>
</g>
</g>
<!-- Node2&#45;&gt;Node5 -->
<g id="edge4" class="edge">
<title>Node2&#45;&gt;Node5</title>
<path fill="none" stroke="#63b8ff" d="M241.87,-98.35C241.87,-90.1 241.87,-80.97 241.87,-74.44"/>
<polygon fill="#63b8ff" stroke="#63b8ff" points="238.37,-98.23 241.87,-108.23 245.37,-98.23 238.37,-98.23"/>
</g>
<!-- Node3&#45;&gt;Node4 -->
<g id="edge3" class="edge">
<title>Node3&#45;&gt;Node4</title>
<path fill="none" stroke="#63b8ff" d="M117.28,-44.79C112.4,-36.18 106.84,-26.36 102.93,-19.44"/>
<polygon fill="#63b8ff" stroke="#63b8ff" points="114.19,-46.45 122.17,-53.43 120.29,-43 114.19,-46.45"/>
</g>
<!-- Node6&#45;&gt;Node2 -->
<g id="edge8" class="edge">
<title>Node6&#45;&gt;Node2</title>
<path fill="none" stroke="#63b8ff" d="M177.67,-158.73C193.52,-149.29 213.56,-137.36 226.99,-129.36"/>
<polygon fill="#63b8ff" stroke="#63b8ff" points="176.06,-155.61 169.26,-163.73 179.65,-161.63 176.06,-155.61"/>
</g>
<!-- Node6&#45;&gt;Node3 -->
<g id="edge7" class="edge">
<title>Node6&#45;&gt;Node3</title>
<path fill="none" stroke="#63b8ff" d="M148.25,-153.57C142.79,-129.98 133.94,-91.73 129.94,-74.46"/>
<polygon fill="#63b8ff" stroke="#63b8ff" points="144.81,-154.23 150.48,-163.19 151.63,-152.66 144.81,-154.23"/>
</g>
<!-- Node6&#45;&gt;Node4 -->
<g id="edge9" class="edge">
<title>Node6&#45;&gt;Node4</title>
<path fill="none" stroke="#63b8ff" d="M84.24,-169.76C55.88,-164.4 25.55,-152.93 7.87,-129 -22.69,-87.66 48.64,-38.98 81.92,-19.36"/>
<polygon fill="#63b8ff" stroke="#63b8ff" points="83.46,-173.18 93.9,-171.33 84.59,-166.27 83.46,-173.18"/>
</g>
<!-- Node7 -->
<g id="node7" class="node">
<title>Node7</title>
<g id="a_node7"><a xlink:href="sqsh__table_8h.html" target="_top" xlink:title=" ">
<polygon fill="white" stroke="#666666" points="124.37,-129 17.37,-129 17.37,-110 124.37,-110 124.37,-129"/>
<text text-anchor="middle" x="70.87" y="-117" font-family="Helvetica,sans-Serif" font-size="10.00">sqsh_table.h</text>
</a>
</g>
</g>
<!-- Node6&#45;&gt;Node7 -->
<g id="edge10" class="edge">
<title>Node6&#45;&gt;Node7</title>
<path fill="none" stroke="#63b8ff" d="M129.6,-158.46C115.06,-149.06 96.83,-137.28 84.57,-129.36"/>
<polygon fill="#63b8ff" stroke="#63b8ff" points="127.39,-161.2 137.68,-163.69 131.19,-155.32 127.39,-161.2"/>
</g>
<!-- Node7&#45;&gt;Node3 -->
<g id="edge11" class="edge">
<title>Node7&#45;&gt;Node3</title>
<path fill="none" stroke="#63b8ff" d="M88.81,-101.81C98.6,-92.72 110.31,-81.82 118.34,-74.36"/>
<polygon fill="#63b8ff" stroke="#63b8ff" points="86.58,-99.11 81.64,-108.48 91.35,-104.23 86.58,-99.11"/>
</g>
<!-- Node7&#45;&gt;Node4 -->
<g id="edge12" class="edge">
<title>Node7&#45;&gt;Node4</title>
<path fill="none" stroke="#63b8ff" d="M75.85,-98.57C81.74,-74.98 91.31,-36.73 95.63,-19.46"/>
<polygon fill="#63b8ff" stroke="#63b8ff" points="72.47,-97.64 73.44,-108.19 79.26,-99.34 72.47,-97.64"/>
</g>
</g>
</svg>
