<?xml version="1.0" encoding="UTF-8" standalone="no"?>
<!DOCTYPE svg PUBLIC "-//W3C//DTD SVG 1.1//EN"
 "http://www.w3.org/Graphics/SVG/1.1/DTD/svg11.dtd">
<!-- Generated by graphviz version 7.0.4 (20221203.1631)
 -->
<!-- Title: sqsh.h Pages: 1 -->
<svg width="706pt" height="302pt"
 viewBox="0.00 0.00 705.50 302.00" xmlns="http://www.w3.org/2000/svg" xmlns:xlink="http://www.w3.org/1999/xlink">
<g id="graph0" class="graph" transform="scale(1 1) rotate(0) translate(4 298)">
<title>sqsh.h</title>
<!-- Node1 -->
<g id="node1" class="node">
<title>Node1</title>
<g id="a_node1"><a xlink:title=" ">
<polygon fill="#999999" stroke="#666666" points="409,-294 347,-294 347,-275 409,-275 409,-294"/>
<text text-anchor="middle" x="378" y="-282" font-family="Helvetica,sans-Serif" font-size="10.00">sqsh.h</text>
</a>
</g>
</g>
<!-- Node2 -->
<g id="node2" class="node">
<title>Node2</title>
<g id="a_node2"><a xlink:href="sqsh__common_8h.html" target="_top" xlink:title=" ">
<polygon fill="white" stroke="#666666" points="114,-74 0,-74 0,-55 114,-55 114,-74"/>
<text text-anchor="middle" x="57" y="-62" font-family="Helvetica,sans-Serif" font-size="10.00">sqsh_common.h</text>
</a>
</g>
</g>
<!-- Node1&#45;&gt;Node2 -->
<g id="edge1" class="edge">
<title>Node1&#45;&gt;Node2</title>
<path fill="none" stroke="#63b8ff" d="M346.77,-281.61C302.85,-277.98 221.16,-267.66 158,-239 121.33,-222.36 108.04,-217.7 86,-184 66.06,-153.51 59.82,-110.49 57.88,-85.55"/>
<polygon fill="#63b8ff" stroke="#63b8ff" points="61.39,-85.6 57.29,-75.82 54.4,-86.02 61.39,-85.6"/>
</g>
<!-- Node4 -->
<g id="node4" class="node">
<title>Node4</title>
<g id="a_node4"><a xlink:title=" ">
<polygon fill="#e0e0e0" stroke="#999999" points="540.5,-19 463.5,-19 463.5,0 540.5,0 540.5,-19"/>
<text text-anchor="middle" x="502" y="-7" font-family="Helvetica,sans-Serif" font-size="10.00">stdint.h</text>
</a>
</g>
</g>
<!-- Node1&#45;&gt;Node4 -->
<g id="edge22" class="edge">
<title>Node1&#45;&gt;Node4</title>
<path fill="none" stroke="#63b8ff" d="M409.12,-281.81C468.47,-276.73 592,-256.44 592,-175.5 592,-175.5 592,-175.5 592,-118.5 592,-77.6 553.43,-43.96 526.79,-25.61"/>
<polygon fill="#63b8ff" stroke="#63b8ff" points="528.81,-22.75 518.53,-20.17 524.96,-28.6 528.81,-22.75"/>
</g>
<!-- Node5 -->
<g id="node5" class="node">
<title>Node5</title>
<g id="a_node5"><a xlink:href="sqsh__compression_8h.html" target="_top" xlink:title=" ">
<polygon fill="white" stroke="#666666" points="526,-74 374,-74 374,-55 526,-55 526,-74"/>
<text text-anchor="middle" x="450" y="-62" font-family="Helvetica,sans-Serif" font-size="10.00">sqsh_compression.h</text>
</a>
</g>
</g>
<!-- Node1&#45;&gt;Node5 -->
<g id="edge4" class="edge">
<title>Node1&#45;&gt;Node5</title>
<path fill="none" stroke="#63b8ff" d="M409.36,-279.38C433.73,-274.34 465.99,-263.26 482,-239 514.13,-190.3 480.74,-118.03 461.53,-84.21"/>
<polygon fill="#63b8ff" stroke="#63b8ff" points="464.55,-82.44 456.45,-75.61 458.53,-86 464.55,-82.44"/>
</g>
<!-- Node6 -->
<g id="node6" class="node">
<title>Node6</title>
<g id="a_node6"><a xlink:href="sqsh__context_8h.html" target="_top" xlink:title=" ">
<polygon fill="white" stroke="#666666" points="309,-239 187,-239 187,-220 309,-220 309,-239"/>
<text text-anchor="middle" x="248" y="-227" font-family="Helvetica,sans-Serif" font-size="10.00">sqsh_context.h</text>
</a>
</g>
</g>
<!-- Node1&#45;&gt;Node6 -->
<g id="edge7" class="edge">
<title>Node1&#45;&gt;Node6</title>
<path fill="none" stroke="#63b8ff" d="M355.95,-274.51C335.19,-266.04 303.84,-253.27 280.27,-243.66"/>
<polygon fill="#63b8ff" stroke="#63b8ff" points="281.71,-240.46 271.13,-239.93 279.07,-246.95 281.71,-240.46"/>
</g>
<!-- Node7 -->
<g id="node7" class="node">
<title>Node7</title>
<g id="a_node7"><a xlink:href="sqsh__mapper_8h.html" target="_top" xlink:title=" ">
<polygon fill="white" stroke="#666666" points="394,-184 280,-184 280,-165 394,-165 394,-184"/>
<text text-anchor="middle" x="337" y="-172" font-family="Helvetica,sans-Serif" font-size="10.00">sqsh_mapper.h</text>
</a>
</g>
</g>
<!-- Node1&#45;&gt;Node7 -->
<g id="edge19" class="edge">
<title>Node1&#45;&gt;Node7</title>
<path fill="none" stroke="#63b8ff" d="M373.46,-274.79C368.94,-265.93 361.98,-251.73 357,-239 351.32,-224.48 346.07,-207.63 342.38,-194.94"/>
<polygon fill="#63b8ff" stroke="#63b8ff" points="345.86,-194.38 339.76,-185.71 339.12,-196.29 345.86,-194.38"/>
</g>
<!-- Node11 -->
<g id="node11" class="node">
<title>Node11</title>
<g id="a_node11"><a xlink:href="sqsh__error_8h.html" target="_top" xlink:title=" ">
<polygon fill="white" stroke="#666666" points="202.5,-184 95.5,-184 95.5,-165 202.5,-165 202.5,-184"/>
<text text-anchor="middle" x="149" y="-172" font-family="Helvetica,sans-Serif" font-size="10.00">sqsh_error.h</text>
</a>
</g>
</g>
<!-- Node1&#45;&gt;Node11 -->
<g id="edge17" class="edge">
<title>Node1&#45;&gt;Node11</title>
<path fill="none" stroke="#63b8ff" d="M346.68,-279.96C297.13,-273.8 203.64,-259.76 178,-239 164.6,-228.15 157.13,-209.74 153.15,-195.53"/>
<polygon fill="#63b8ff" stroke="#63b8ff" points="156.57,-194.79 150.83,-185.88 149.76,-196.43 156.57,-194.79"/>
</g>
<!-- Node12 -->
<g id="node12" class="node">
<title>Node12</title>
<g id="a_node12"><a xlink:href="sqsh__table_8h.html" target="_top" xlink:title=" ">
<polygon fill="white" stroke="#666666" points="472.5,-239 365.5,-239 365.5,-220 472.5,-220 472.5,-239"/>
<text text-anchor="middle" x="419" y="-227" font-family="Helvetica,sans-Serif" font-size="10.00">sqsh_table.h</text>
</a>
</g>
</g>
<!-- Node1&#45;&gt;Node12 -->
<g id="edge20" class="edge">
<title>Node1&#45;&gt;Node12</title>
<path fill="none" stroke="#63b8ff" d="M384.77,-274.75C390.32,-267.58 398.34,-257.2 405.23,-248.3"/>
<polygon fill="#63b8ff" stroke="#63b8ff" points="407.81,-250.69 411.16,-240.64 402.27,-246.41 407.81,-250.69"/>
</g>
<!-- Node13 -->
<g id="node13" class="node">
<title>Node13</title>
<g id="a_node13"><a xlink:title=" ">
<polygon fill="#e0e0e0" stroke="#999999" points="697.5,-239 620.5,-239 620.5,-220 697.5,-220 697.5,-239"/>
<text text-anchor="middle" x="659" y="-227" font-family="Helvetica,sans-Serif" font-size="10.00">stdlib.h</text>
</a>
</g>
</g>
<!-- Node1&#45;&gt;Node13 -->
<g id="edge23" class="edge">
<title>Node1&#45;&gt;Node13</title>
<path fill="none" stroke="#63b8ff" d="M409.42,-277.57C457.89,-268.43 551.33,-250.81 609.11,-239.91"/>
<polygon fill="#63b8ff" stroke="#63b8ff" points="609.5,-243.4 618.68,-238.1 608.21,-236.52 609.5,-243.4"/>
</g>
<!-- Node3 -->
<g id="node3" class="node">
<title>Node3</title>
<g id="a_node3"><a xlink:title=" ">
<polygon fill="#e0e0e0" stroke="#999999" points="384.5,-19 307.5,-19 307.5,0 384.5,0 384.5,-19"/>
<text text-anchor="middle" x="346" y="-7" font-family="Helvetica,sans-Serif" font-size="10.00">stddef.h</text>
</a>
</g>
</g>
<!-- Node2&#45;&gt;Node3 -->
<g id="edge2" class="edge">
<title>Node2&#45;&gt;Node3</title>
<path fill="none" stroke="#63b8ff" d="M106.02,-54.51C158.99,-44.8 242.92,-29.4 296.19,-19.64"/>
<polygon fill="#63b8ff" stroke="#63b8ff" points="296.7,-23.1 305.9,-17.85 295.44,-16.21 296.7,-23.1"/>
</g>
<!-- Node2&#45;&gt;Node4 -->
<g id="edge3" class="edge">
<title>Node2&#45;&gt;Node4</title>
<path fill="none" stroke="#63b8ff" d="M114.23,-56.09C117.2,-55.72 120.13,-55.35 123,-55 240.96,-40.48 379.72,-24.46 452.2,-16.17"/>
<polygon fill="#63b8ff" stroke="#63b8ff" points="452.2,-19.69 461.74,-15.08 451.41,-12.73 452.2,-19.69"/>
</g>
<!-- Node5&#45;&gt;Node3 -->
<g id="edge5" class="edge">
<title>Node5&#45;&gt;Node3</title>
<path fill="none" stroke="#63b8ff" d="M432.36,-54.51C416.27,-46.31 392.25,-34.07 373.63,-24.58"/>
<polygon fill="#63b8ff" stroke="#63b8ff" points="375.23,-21.47 364.73,-20.05 372.05,-27.7 375.23,-21.47"/>
</g>
<!-- Node5&#45;&gt;Node4 -->
<g id="edge6" class="edge">
<title>Node5&#45;&gt;Node4</title>
<path fill="none" stroke="#63b8ff" d="M458.59,-54.75C465.84,-47.35 476.45,-36.54 485.37,-27.45"/>
<polygon fill="#63b8ff" stroke="#63b8ff" points="487.66,-30.11 492.17,-20.52 482.66,-25.21 487.66,-30.11"/>
</g>
<!-- Node6&#45;&gt;Node7 -->
<g id="edge8" class="edge">
<title>Node6&#45;&gt;Node7</title>
<path fill="none" stroke="#63b8ff" d="M263.1,-219.51C276.6,-211.47 296.65,-199.53 312.46,-190.11"/>
<polygon fill="#63b8ff" stroke="#63b8ff" points="314.02,-193.26 320.82,-185.13 310.44,-187.24 314.02,-193.26"/>
</g>
<!-- Node8 -->
<g id="node8" class="node">
<title>Node8</title>
<g id="a_node8"><a xlink:href="sqsh__primitive_8h.html" target="_top" xlink:title=" ">
<polygon fill="white" stroke="#666666" points="279.5,-129 142.5,-129 142.5,-110 279.5,-110 279.5,-129"/>
<text text-anchor="middle" x="211" y="-117" font-family="Helvetica,sans-Serif" font-size="10.00">sqsh_primitive.h</text>
</a>
</g>
</g>
<!-- Node6&#45;&gt;Node8 -->
<g id="edge16" class="edge">
<title>Node6&#45;&gt;Node8</title>
<path fill="none" stroke="#63b8ff" d="M244.97,-219.66C239.06,-202.42 225.87,-163.9 217.77,-140.27"/>
<polygon fill="#63b8ff" stroke="#63b8ff" points="221.11,-139.22 214.56,-130.89 214.49,-141.49 221.11,-139.22"/>
</g>
<!-- Node7&#45;&gt;Node3 -->
<g id="edge14" class="edge">
<title>Node7&#45;&gt;Node3</title>
<path fill="none" stroke="#63b8ff" d="M337.48,-164.74C338.88,-139.53 342.92,-66.36 344.89,-30.62"/>
<polygon fill="#63b8ff" stroke="#63b8ff" points="348.37,-31 345.43,-20.82 341.38,-30.61 348.37,-31"/>
</g>
<!-- Node7&#45;&gt;Node4 -->
<g id="edge15" class="edge">
<title>Node7&#45;&gt;Node4</title>
<path fill="none" stroke="#63b8ff" d="M384.25,-164.56C431.69,-152.8 502.29,-127.05 535,-74 544.43,-58.71 532.67,-40.43 520.66,-27.41"/>
<polygon fill="#63b8ff" stroke="#63b8ff" points="523.19,-24.99 513.63,-20.42 518.25,-29.95 523.19,-24.99"/>
</g>
<!-- Node7&#45;&gt;Node8 -->
<g id="edge9" class="edge">
<title>Node7&#45;&gt;Node8</title>
<path fill="none" stroke="#63b8ff" d="M315.63,-164.51C295.59,-156.08 265.4,-143.38 242.59,-133.79"/>
<polygon fill="#63b8ff" stroke="#63b8ff" points="244.03,-130.6 233.45,-129.94 241.31,-137.05 244.03,-130.6"/>
</g>
<!-- Node9 -->
<g id="node9" class="node">
<title>Node9</title>
<g id="a_node9"><a xlink:title=" ">
<polygon fill="#e0e0e0" stroke="#999999" points="318,-74 234,-74 234,-55 318,-55 318,-74"/>
<text text-anchor="middle" x="276" y="-62" font-family="Helvetica,sans-Serif" font-size="10.00">pthread.h</text>
</a>
</g>
</g>
<!-- Node7&#45;&gt;Node9 -->
<g id="edge13" class="edge">
<title>Node7&#45;&gt;Node9</title>
<path fill="none" stroke="#63b8ff" d="M332.01,-164.66C322.13,-147.18 299.91,-107.84 286.62,-84.3"/>
<polygon fill="#63b8ff" stroke="#63b8ff" points="289.77,-82.76 281.81,-75.78 283.68,-86.21 289.77,-82.76"/>
</g>
<!-- Node8&#45;&gt;Node2 -->
<g id="edge10" class="edge">
<title>Node8&#45;&gt;Node2</title>
<path fill="none" stroke="#63b8ff" d="M184.88,-109.51C159.8,-100.88 121.69,-87.76 93.6,-78.1"/>
<polygon fill="#63b8ff" stroke="#63b8ff" points="95.02,-74.88 84.43,-74.94 92.74,-81.5 95.02,-74.88"/>
</g>
<!-- Node8&#45;&gt;Node9 -->
<g id="edge11" class="edge">
<title>Node8&#45;&gt;Node9</title>
<path fill="none" stroke="#63b8ff" d="M222.03,-109.51C231.42,-101.85 245.15,-90.66 256.41,-81.47"/>
<polygon fill="#63b8ff" stroke="#63b8ff" points="258.43,-84.35 263.96,-75.31 254,-78.92 258.43,-84.35"/>
</g>
<!-- Node10 -->
<g id="node10" class="node">
<title>Node10</title>
<g id="a_node10"><a xlink:title=" ">
<polygon fill="#e0e0e0" stroke="#999999" points="216,-74 132,-74 132,-55 216,-55 216,-74"/>
<text text-anchor="middle" x="174" y="-62" font-family="Helvetica,sans-Serif" font-size="10.00">stdbool.h</text>
</a>
</g>
</g>
<!-- Node8&#45;&gt;Node10 -->
<g id="edge12" class="edge">
<title>Node8&#45;&gt;Node10</title>
<path fill="none" stroke="#63b8ff" d="M204.89,-109.75C199.99,-102.73 192.95,-92.64 186.83,-83.87"/>
<polygon fill="#63b8ff" stroke="#63b8ff" points="189.7,-81.88 181.11,-75.68 183.96,-85.89 189.7,-81.88"/>
</g>
<!-- Node11&#45;&gt;Node2 -->
<g id="edge18" class="edge">
<title>Node11&#45;&gt;Node2</title>
<path fill="none" stroke="#63b8ff" d="M141.47,-164.66C126.31,-146.86 91.85,-106.41 71.94,-83.04"/>
<polygon fill="#63b8ff" stroke="#63b8ff" points="74.76,-80.96 65.61,-75.61 69.43,-85.49 74.76,-80.96"/>
</g>
<!-- Node12&#45;&gt;Node7 -->
<g id="edge21" class="edge">
<title>Node12&#45;&gt;Node7</title>
<path fill="none" stroke="#63b8ff" d="M405.09,-219.51C392.76,-211.54 374.53,-199.75 360.03,-190.38"/>
<polygon fill="#63b8ff" stroke="#63b8ff" points="362.27,-187.67 351.98,-185.18 358.47,-193.55 362.27,-187.67"/>
</g>
</g>
</svg>
