<?xml version="1.0" encoding="UTF-8" standalone="no"?>
<!DOCTYPE svg PUBLIC "-//W3C//DTD SVG 1.1//EN"
 "http://www.w3.org/Graphics/SVG/1.1/DTD/svg11.dtd">
<!-- Generated by graphviz version 7.0.5 (20221223.1930)
 -->
<!-- Title: sqsh_context.h Pages: 1 -->
<!--zoomable 192 -->
<svg id="main" version="1.1" xmlns="http://www.w3.org/2000/svg" xmlns:xlink="http://www.w3.org/1999/xlink" xml:space="preserve" onload="init(evt)">
<style type="text/css"><![CDATA[
.edge:hover path { stroke: red; }
.edge:hover polygon { stroke: red; fill: red; }
]]></style>
<script type="text/javascript"><![CDATA[
var edges = document.getElementsByTagName('g');
if (edges && edges.length) {
  for (var i=0;i<edges.length;i++) {
    if (edges[i].id.substr(0,4)=='edge') {
      edges[i].setAttribute('class','edge');
    }
  }
}
]]></script>
        <defs>
                <circle id="rim" cx="0" cy="0" r="7"/>
                <circle id="rim2" cx="0" cy="0" r="3.5"/>
                <g id="zoomPlus">
                        <use xlink:href="#rim" fill="#404040">
                                <set attributeName="fill" to="#808080" begin="zoomplus.mouseover" end="zoomplus.mouseout"/>
                        </use>
                        <path d="M-4,0h8M0,-4v8" fill="none" stroke="white" stroke-width="1.5" pointer-events="none"/>
                </g>
                <g id="zoomMin">
                        <use xlink:href="#rim" fill="#404040">
                                <set attributeName="fill" to="#808080" begin="zoomminus.mouseover" end="zoomminus.mouseout"/>
                        </use>
                        <path d="M-4,0h8" fill="none" stroke="white" stroke-width="1.5" pointer-events="none"/>
                </g>
                <g id="dirArrow">
                        <path fill="none" stroke="white" stroke-width="1.5" d="M0,-3.0v7 M-2.5,-0.5L0,-3.0L2.5,-0.5"/>
                </g>
               <g id="resetDef">
                       <use xlink:href="#rim2" fill="#404040">
                               <set attributeName="fill" to="#808080" begin="reset.mouseover" end="reset.mouseout"/>
                       </use>
               </g>
        </defs>

<script type="text/javascript">
var viewWidth = 880;
var viewHeight = 192;
var sectionId = 'dynsection-1';
</script>
<script xlink:href="svgpan.js"/>
<svg id="graph" class="graph">
<g id="viewport">
<title>sqsh_context.h</title>
<!-- Node1 -->
<g id="node1" class="node">
<title>Node1</title>
<g id="a_node1"><a xlink:title=" ">
<polygon fill="#999999" stroke="#666666" points="267,-184 145,-184 145,-165 267,-165 267,-184"/>
<text text-anchor="middle" x="206" y="-172" font-family="Helvetica,sans-Serif" font-size="10.00">sqsh_context.h</text>
</a>
</g>
</g>
<!-- Node2 -->
<g id="node2" class="node">
<title>Node2</title>
<g id="a_node2"><a xlink:href="sqsh_8h.html" target="_top" xlink:title=" ">
<polygon fill="white" stroke="#666666" points="167,-129 105,-129 105,-110 167,-110 167,-129"/>
<text text-anchor="middle" x="136" y="-117" font-family="Helvetica,sans-Serif" font-size="10.00">sqsh.h</text>
</a>
</g>
</g>
<!-- Node1&#45;&gt;Node2 -->
<g id="edge1" class="edge">
<title>Node1&#45;&gt;Node2</title>
<path fill="none" stroke="#63b8ff" d="M185.05,-157.64C172.83,-148.39 157.86,-137.05 147.7,-129.36"/>
<polygon fill="#63b8ff" stroke="#63b8ff" points="182.83,-160.35 192.92,-163.6 187.06,-154.77 182.83,-160.35"/>
</g>
<!-- Node4 -->
<g id="node4" class="node">
<title>Node4</title>
<g id="a_node4"><a xlink:href="sqsh__context__private_8h.html" target="_top" xlink:title=" ">
<polygon fill="white" stroke="#666666" points="379,-129 197,-129 197,-110 379,-110 379,-129"/>
<text text-anchor="middle" x="288" y="-117" font-family="Helvetica,sans-Serif" font-size="10.00">sqsh_context_private.h</text>
</a>
</g>
</g>
<!-- Node1&#45;&gt;Node4 -->
<g id="edge3" class="edge">
<title>Node1&#45;&gt;Node4</title>
<path fill="none" stroke="#63b8ff" d="M229.27,-158.46C243.81,-149.06 262.04,-137.28 274.3,-129.36"/>
<polygon fill="#63b8ff" stroke="#63b8ff" points="227.68,-155.32 221.18,-163.69 231.48,-161.2 227.68,-155.32"/>
</g>
<!-- Node3 -->
<g id="node3" class="node">
<title>Node3</title>
<g id="a_node3"><a xlink:href="sqsh__private_8h.html" target="_top" xlink:title=" ">
<polygon fill="white" stroke="#666666" points="122,-19 0,-19 0,0 122,0 122,-19"/>
<text text-anchor="middle" x="61" y="-7" font-family="Helvetica,sans-Serif" font-size="10.00">sqsh_private.h</text>
</a>
</g>
</g>
<!-- Node2&#45;&gt;Node3 -->
<g id="edge2" class="edge">
<title>Node2&#45;&gt;Node3</title>
<path fill="none" stroke="#63b8ff" d="M93.92,-108.13C76.23,-101.46 57.38,-90.79 47,-74 36.32,-56.71 47.58,-32.34 55.21,-19.4"/>
<polygon fill="#63b8ff" stroke="#63b8ff" points="92.67,-111.4 103.26,-111.29 94.91,-104.77 92.67,-111.4"/>
</g>
<!-- Node4&#45;&gt;Node3 -->
<g id="edge7" class="edge">
<title>Node4&#45;&gt;Node3</title>
<path fill="none" stroke="#63b8ff" d="M194.42,-107.88C147.49,-100.75 97.05,-89.74 80,-74 64.44,-59.64 61.43,-33.12 60.97,-19.34"/>
<polygon fill="#63b8ff" stroke="#63b8ff" points="193.73,-111.32 204.13,-109.3 194.74,-104.39 193.73,-111.32"/>
</g>
<!-- Node5 -->
<g id="node5" class="node">
<title>Node5</title>
<g id="a_node5"><a xlink:href="sqsh__directory__private_8h.html" target="_top" xlink:title=" ">
<polygon fill="white" stroke="#666666" points="286.5,-74 89.5,-74 89.5,-55 286.5,-55 286.5,-74"/>
<text text-anchor="middle" x="188" y="-62" font-family="Helvetica,sans-Serif" font-size="10.00">sqsh_directory_private.h</text>
</a>
</g>
</g>
<!-- Node4&#45;&gt;Node5 -->
<g id="edge4" class="edge">
<title>Node4&#45;&gt;Node5</title>
<path fill="none" stroke="#63b8ff" d="M260.89,-104.13C242.96,-94.63 220.02,-82.47 204.71,-74.36"/>
<polygon fill="#63b8ff" stroke="#63b8ff" points="259.22,-107.21 269.7,-108.8 262.5,-101.02 259.22,-107.21"/>
</g>
<!-- Node6 -->
<g id="node6" class="node">
<title>Node6</title>
<g id="a_node6"><a xlink:href="sqsh__inode__private_8h.html" target="_top" xlink:title=" ">
<polygon fill="white" stroke="#666666" points="471.5,-74 304.5,-74 304.5,-55 471.5,-55 471.5,-74"/>
<text text-anchor="middle" x="388" y="-62" font-family="Helvetica,sans-Serif" font-size="10.00">sqsh_inode_private.h</text>
</a>
</g>
</g>
<!-- Node4&#45;&gt;Node6 -->
<g id="edge5" class="edge">
<title>Node4&#45;&gt;Node6</title>
<path fill="none" stroke="#63b8ff" d="M315.11,-104.13C333.04,-94.63 355.98,-82.47 371.29,-74.36"/>
<polygon fill="#63b8ff" stroke="#63b8ff" points="313.5,-101.02 306.3,-108.8 316.78,-107.21 313.5,-101.02"/>
</g>
<!-- Node7 -->
<g id="node7" class="node">
<title>Node7</title>
<g id="a_node7"><a xlink:href="sqsh__metablock__private_8h.html" target="_top" xlink:title=" ">
<polygon fill="white" stroke="#666666" points="686.5,-74 489.5,-74 489.5,-55 686.5,-55 686.5,-74"/>
<text text-anchor="middle" x="588" y="-62" font-family="Helvetica,sans-Serif" font-size="10.00">sqsh_metablock_private.h</text>
</a>
</g>
</g>
<!-- Node4&#45;&gt;Node7 -->
<g id="edge6" class="edge">
<title>Node4&#45;&gt;Node7</title>
<path fill="none" stroke="#63b8ff" d="M349.96,-107.55C405.31,-97.77 485.42,-83.62 537.11,-74.49"/>
<polygon fill="#63b8ff" stroke="#63b8ff" points="349.62,-104.06 340.38,-109.25 350.84,-110.95 349.62,-104.06"/>
</g>
<!-- Node8 -->
<g id="node8" class="node">
<title>Node8</title>
<g id="a_node8"><a xlink:href="sqsh__xattr__private_8h.html" target="_top" xlink:title=" ">
<polygon fill="white" stroke="#666666" points="871.5,-74 704.5,-74 704.5,-55 871.5,-55 871.5,-74"/>
<text text-anchor="middle" x="788" y="-62" font-family="Helvetica,sans-Serif" font-size="10.00">sqsh_xattr_private.h</text>
</a>
</g>
</g>
<!-- Node4&#45;&gt;Node8 -->
<g id="edge8" class="edge">
<title>Node4&#45;&gt;Node8</title>
<path fill="none" stroke="#63b8ff" d="M384.17,-108.31C476.85,-98.48 615.67,-83.77 704.02,-74.4"/>
<polygon fill="#63b8ff" stroke="#63b8ff" points="383.9,-104.82 374.32,-109.35 384.64,-111.78 383.9,-104.82"/>
</g>
<!-- Node8&#45;&gt;Node3 -->
<g id="edge9" class="edge">
<title>Node8&#45;&gt;Node3</title>
<path fill="none" stroke="#63b8ff" d="M693.03,-54.77C477.11,-37.35 233.75,-21.43 122.33,-14.34"/>
<polygon fill="#63b8ff" stroke="#63b8ff" points="692.51,-58.24 702.76,-55.56 693.08,-51.27 692.51,-58.24"/>
</g>
</g>
</svg>
        <g id="navigator" transform="translate(0 0)" fill="#404254">
                <rect fill="#f2f5e9" fill-opacity="0.5" stroke="#606060" stroke-width=".5" x="0" y="0" width="60" height="60"/>
                <use id="zoomplus" xlink:href="#zoomPlus" x="17" y="9" onmousedown="handleZoom(evt,'in')"/>
                <use id="zoomminus" xlink:href="#zoomMin" x="42" y="9" onmousedown="handleZoom(evt,'out')"/>
                <use id="reset" xlink:href="#resetDef" x="30" y="36" onmousedown="handleReset()"/>
                <g id="arrowUp" xlink:href="#dirArrow" transform="translate(30 24)" onmousedown="handlePan(0,-1)">
                  <use xlink:href="#rim" fill="#404040">
                        <set attributeName="fill" to="#808080" begin="arrowUp.mouseover" end="arrowUp.mouseout"/>
                  </use>
                  <path fill="none" stroke="white" stroke-width="1.5" d="M0,-3.0v7 M-2.5,-0.5L0,-3.0L2.5,-0.5"/>
                </g>
                <g id="arrowRight" xlink:href="#dirArrow" transform="rotate(90) translate(36 -43)" onmousedown="handlePan(1,0)">
                  <use xlink:href="#rim" fill="#404040">
                        <set attributeName="fill" to="#808080" begin="arrowRight.mouseover" end="arrowRight.mouseout"/>
                  </use>
                  <path fill="none" stroke="white" stroke-width="1.5" d="M0,-3.0v7 M-2.5,-0.5L0,-3.0L2.5,-0.5"/>
                </g>
                <g id="arrowDown" xlink:href="#dirArrow" transform="rotate(180) translate(-30 -48)" onmousedown="handlePan(0,1)">
                  <use xlink:href="#rim" fill="#404040">
                        <set attributeName="fill" to="#808080" begin="arrowDown.mouseover" end="arrowDown.mouseout"/>
                  </use>
                  <path fill="none" stroke="white" stroke-width="1.5" d="M0,-3.0v7 M-2.5,-0.5L0,-3.0L2.5,-0.5"/>
                </g>
                <g id="arrowLeft" xlink:href="#dirArrow" transform="rotate(270) translate(-36 17)" onmousedown="handlePan(-1,0)">
                  <use xlink:href="#rim" fill="#404040">
                        <set attributeName="fill" to="#808080" begin="arrowLeft.mouseover" end="arrowLeft.mouseout"/>
                  </use>
                  <path fill="none" stroke="white" stroke-width="1.5" d="M0,-3.0v7 M-2.5,-0.5L0,-3.0L2.5,-0.5"/>
                </g>
        </g>
        <svg viewBox="0 0 15 15" width="100%" height="30px" preserveAspectRatio="xMaxYMin meet">
         <g id="arrow_out" transform="scale(0.3 0.3)">
          <a xlink:href="sqsh__context_8h__dep__incl_org.svg" target="_base">
           <rect id="button" ry="5" rx="5" y="6" x="6" height="38" width="38"
                fill="#f2f5e9" fill-opacity="0.5" stroke="#606060" stroke-width="1.0"/>
           <path id="arrow"
             d="M 11.500037,31.436501 C 11.940474,20.09759 22.043105,11.32322 32.158766,21.979434 L 37.068811,17.246167 C 37.068811,17.246167 37.088388,32 37.088388,32 L 22.160133,31.978069 C 22.160133,31.978069 26.997745,27.140456 26.997745,27.140456 C 18.528582,18.264221 13.291696,25.230495 11.500037,31.436501 z"
             style="fill:#404040;"/>
          </a>
         </g>
        </svg>
</svg>
