<?xml version="1.0" encoding="UTF-8" standalone="no"?>
<!DOCTYPE svg PUBLIC "-//W3C//DTD SVG 1.1//EN"
 "http://www.w3.org/Graphics/SVG/1.1/DTD/svg11.dtd">
<!-- Generated by graphviz version 7.0.5 (20221223.1930)
 -->
<!-- Title: sqsh_iterator.h Pages: 1 -->
<svg width="327pt" height="247pt"
 viewBox="0.00 0.00 326.50 247.00" xmlns="http://www.w3.org/2000/svg" xmlns:xlink="http://www.w3.org/1999/xlink">
<g id="graph0" class="graph" transform="scale(1 1) rotate(0) translate(4 243)">
<title>sqsh_iterator.h</title>
<!-- Node1 -->
<g id="node1" class="node">
<title>Node1</title>
<g id="a_node1"><a xlink:title=" ">
<polygon fill="#999999" stroke="#666666" points="230,-239 101,-239 101,-220 230,-220 230,-239"/>
<text text-anchor="middle" x="165.5" y="-227" font-family="Helvetica,sans-Serif" font-size="10.00">sqsh_iterator.h</text>
</a>
</g>
</g>
<!-- Node2 -->
<g id="node2" class="node">
<title>Node2</title>
<g id="a_node2"><a xlink:href="sqsh__common_8h.html" target="_top" xlink:title=" ">
<polygon fill="white" stroke="#666666" points="168.5,-74 54.5,-74 54.5,-55 168.5,-55 168.5,-74"/>
<text text-anchor="middle" x="111.5" y="-62" font-family="Helvetica,sans-Serif" font-size="10.00">sqsh_common.h</text>
</a>
</g>
</g>
<!-- Node1&#45;&gt;Node2 -->
<g id="edge1" class="edge">
<title>Node1&#45;&gt;Node2</title>
<path fill="none" stroke="#63b8ff" d="M160.87,-219.82C156.28,-210.99 149.27,-196.81 144.5,-184 131.87,-150.07 121.5,-109.11 115.93,-85.31"/>
<polygon fill="#63b8ff" stroke="#63b8ff" points="119.39,-84.73 113.75,-75.76 112.56,-86.29 119.39,-84.73"/>
</g>
<!-- Node6 -->
<g id="node6" class="node">
<title>Node6</title>
<g id="a_node6"><a xlink:href="sqsh__context_8h.html" target="_top" xlink:title=" ">
<polygon fill="white" stroke="#666666" points="275.5,-184 153.5,-184 153.5,-165 275.5,-165 275.5,-184"/>
<text text-anchor="middle" x="214.5" y="-172" font-family="Helvetica,sans-Serif" font-size="10.00">sqsh_context.h</text>
</a>
</g>
</g>
<!-- Node1&#45;&gt;Node6 -->
<g id="edge5" class="edge">
<title>Node1&#45;&gt;Node6</title>
<path fill="none" stroke="#63b8ff" d="M173.59,-219.75C180.36,-212.43 190.22,-201.76 198.56,-192.74"/>
<polygon fill="#63b8ff" stroke="#63b8ff" points="200.99,-195.27 205.21,-185.55 195.85,-190.52 200.99,-195.27"/>
</g>
<!-- Node3 -->
<g id="node3" class="node">
<title>Node3</title>
<g id="a_node3"><a xlink:title=" ">
<polygon fill="#e0e0e0" stroke="#999999" points="318.5,-19 234.5,-19 234.5,0 318.5,0 318.5,-19"/>
<text text-anchor="middle" x="276.5" y="-7" font-family="Helvetica,sans-Serif" font-size="10.00">stdbool.h</text>
</a>
</g>
</g>
<!-- Node2&#45;&gt;Node3 -->
<g id="edge2" class="edge">
<title>Node2&#45;&gt;Node3</title>
<path fill="none" stroke="#63b8ff" d="M139.49,-54.51C166.59,-45.8 207.91,-32.53 238.08,-22.84"/>
<polygon fill="#63b8ff" stroke="#63b8ff" points="238.76,-26.3 247.21,-19.91 236.62,-19.64 238.76,-26.3"/>
</g>
<!-- Node4 -->
<g id="node4" class="node">
<title>Node4</title>
<g id="a_node4"><a xlink:title=" ">
<polygon fill="#e0e0e0" stroke="#999999" points="77,-19 0,-19 0,0 77,0 77,-19"/>
<text text-anchor="middle" x="38.5" y="-7" font-family="Helvetica,sans-Serif" font-size="10.00">stddef.h</text>
</a>
</g>
</g>
<!-- Node2&#45;&gt;Node4 -->
<g id="edge3" class="edge">
<title>Node2&#45;&gt;Node4</title>
<path fill="none" stroke="#63b8ff" d="M99.12,-54.51C88.35,-46.7 72.53,-35.21 59.75,-25.93"/>
<polygon fill="#63b8ff" stroke="#63b8ff" points="62.07,-23.29 51.93,-20.25 57.96,-28.95 62.07,-23.29"/>
</g>
<!-- Node5 -->
<g id="node5" class="node">
<title>Node5</title>
<g id="a_node5"><a xlink:title=" ">
<polygon fill="#e0e0e0" stroke="#999999" points="172,-19 95,-19 95,0 172,0 172,-19"/>
<text text-anchor="middle" x="133.5" y="-7" font-family="Helvetica,sans-Serif" font-size="10.00">stdint.h</text>
</a>
</g>
</g>
<!-- Node2&#45;&gt;Node5 -->
<g id="edge4" class="edge">
<title>Node2&#45;&gt;Node5</title>
<path fill="none" stroke="#63b8ff" d="M115.13,-54.75C117.92,-48.04 121.87,-38.52 125.4,-30.02"/>
<polygon fill="#63b8ff" stroke="#63b8ff" points="128.61,-31.42 129.21,-20.84 122.14,-28.73 128.61,-31.42"/>
</g>
<!-- Node7 -->
<g id="node7" class="node">
<title>Node7</title>
<g id="a_node7"><a xlink:href="sqsh__primitive_8h.html" target="_top" xlink:title=" ">
<polygon fill="white" stroke="#666666" points="292,-129 155,-129 155,-110 292,-110 292,-129"/>
<text text-anchor="middle" x="223.5" y="-117" font-family="Helvetica,sans-Serif" font-size="10.00">sqsh_primitive.h</text>
</a>
</g>
</g>
<!-- Node6&#45;&gt;Node7 -->
<g id="edge6" class="edge">
<title>Node6&#45;&gt;Node7</title>
<path fill="none" stroke="#63b8ff" d="M215.99,-164.75C217.1,-158.19 218.67,-148.95 220.09,-140.6"/>
<polygon fill="#63b8ff" stroke="#63b8ff" points="223.5,-141.38 221.73,-130.93 216.6,-140.21 223.5,-141.38"/>
</g>
<!-- Node7&#45;&gt;Node2 -->
<g id="edge7" class="edge">
<title>Node7&#45;&gt;Node2</title>
<path fill="none" stroke="#63b8ff" d="M204.5,-109.51C186.94,-101.2 160.58,-88.73 140.41,-79.18"/>
<polygon fill="#63b8ff" stroke="#63b8ff" points="142.12,-76.12 131.59,-75.01 139.13,-82.45 142.12,-76.12"/>
</g>
<!-- Node7&#45;&gt;Node3 -->
<g id="edge9" class="edge">
<title>Node7&#45;&gt;Node3</title>
<path fill="none" stroke="#63b8ff" d="M241.81,-109.65C254.98,-102.17 271.73,-90.1 279.5,-74 286.04,-60.44 284.76,-43.3 282.14,-30.25"/>
<polygon fill="#63b8ff" stroke="#63b8ff" points="285.58,-29.58 279.78,-20.71 278.78,-31.25 285.58,-29.58"/>
</g>
<!-- Node8 -->
<g id="node8" class="node">
<title>Node8</title>
<g id="a_node8"><a xlink:title=" ">
<polygon fill="#e0e0e0" stroke="#999999" points="270.5,-74 186.5,-74 186.5,-55 270.5,-55 270.5,-74"/>
<text text-anchor="middle" x="228.5" y="-62" font-family="Helvetica,sans-Serif" font-size="10.00">pthread.h</text>
</a>
</g>
</g>
<!-- Node7&#45;&gt;Node8 -->
<g id="edge8" class="edge">
<title>Node7&#45;&gt;Node8</title>
<path fill="none" stroke="#63b8ff" d="M224.33,-109.75C224.94,-103.27 225.8,-94.16 226.58,-85.9"/>
<polygon fill="#63b8ff" stroke="#63b8ff" points="230.06,-86.23 227.51,-75.95 223.09,-85.58 230.06,-86.23"/>
</g>
</g>
</svg>
