<?xml version="1.0" encoding="UTF-8" standalone="no"?>
<!DOCTYPE svg PUBLIC "-//W3C//DTD SVG 1.1//EN"
 "http://www.w3.org/Graphics/SVG/1.1/DTD/svg11.dtd">
<!-- Generated by graphviz version 7.0.5 (20221223.1930)
 -->
<!-- Title: sqsh_private.h Pages: 1 -->
<!--zoomable 357 -->
<svg id="main" version="1.1" xmlns="http://www.w3.org/2000/svg" xmlns:xlink="http://www.w3.org/1999/xlink" xml:space="preserve" onload="init(evt)">
<style type="text/css"><![CDATA[
.edge:hover path { stroke: red; }
.edge:hover polygon { stroke: red; fill: red; }
]]></style>
<script type="text/javascript"><![CDATA[
var edges = document.getElementsByTagName('g');
if (edges && edges.length) {
  for (var i=0;i<edges.length;i++) {
    if (edges[i].id.substr(0,4)=='edge') {
      edges[i].setAttribute('class','edge');
    }
  }
}
]]></script>
        <defs>
                <circle id="rim" cx="0" cy="0" r="7"/>
                <circle id="rim2" cx="0" cy="0" r="3.5"/>
                <g id="zoomPlus">
                        <use xlink:href="#rim" fill="#404040">
                                <set attributeName="fill" to="#808080" begin="zoomplus.mouseover" end="zoomplus.mouseout"/>
                        </use>
                        <path d="M-4,0h8M0,-4v8" fill="none" stroke="white" stroke-width="1.5" pointer-events="none"/>
                </g>
                <g id="zoomMin">
                        <use xlink:href="#rim" fill="#404040">
                                <set attributeName="fill" to="#808080" begin="zoomminus.mouseover" end="zoomminus.mouseout"/>
                        </use>
                        <path d="M-4,0h8" fill="none" stroke="white" stroke-width="1.5" pointer-events="none"/>
                </g>
                <g id="dirArrow">
                        <path fill="none" stroke="white" stroke-width="1.5" d="M0,-3.0v7 M-2.5,-0.5L0,-3.0L2.5,-0.5"/>
                </g>
               <g id="resetDef">
                       <use xlink:href="#rim2" fill="#404040">
                               <set attributeName="fill" to="#808080" begin="reset.mouseover" end="reset.mouseout"/>
                       </use>
               </g>
        </defs>

<script type="text/javascript">
var viewWidth = 839;
var viewHeight = 357;
var sectionId = 'dynsection-0';
</script>
<script xlink:href="svgpan.js"/>
<svg id="graph" class="graph">
<g id="viewport">
<title>sqsh_private.h</title>
<!-- Node1 -->
<g id="node1" class="node">
<title>Node1</title>
<g id="a_node1"><a xlink:title=" ">
<polygon fill="#999999" stroke="#666666" points="595.24,-349 473.24,-349 473.24,-330 595.24,-330 595.24,-349"/>
<text text-anchor="middle" x="534.24" y="-337" font-family="Helvetica,sans-Serif" font-size="10.00">sqsh_private.h</text>
</a>
</g>
</g>
<!-- Node2 -->
<g id="node2" class="node">
<title>Node2</title>
<g id="a_node2"><a xlink:href="sqsh_8h.html" target="_top" xlink:title=" ">
<polygon fill="white" stroke="#666666" points="497.24,-294 435.24,-294 435.24,-275 497.24,-275 497.24,-294"/>
<text text-anchor="middle" x="466.24" y="-282" font-family="Helvetica,sans-Serif" font-size="10.00">sqsh.h</text>
</a>
</g>
</g>
<!-- Node1&#45;&gt;Node2 -->
<g id="edge1" class="edge">
<title>Node1&#45;&gt;Node2</title>
<path fill="none" stroke="#63b8ff" d="M522.7,-329.51C512.77,-321.77 498.22,-310.43 486.38,-301.2"/>
<polygon fill="#63b8ff" stroke="#63b8ff" points="488.83,-298.68 478.79,-295.29 484.53,-304.2 488.83,-298.68"/>
</g>
<!-- Node3 -->
<g id="node3" class="node">
<title>Node3</title>
<g id="a_node3"><a xlink:href="sqsh__common_8h.html" target="_top" xlink:title=" ">
<polygon fill="white" stroke="#666666" points="535.24,-74 421.24,-74 421.24,-55 535.24,-55 535.24,-74"/>
<text text-anchor="middle" x="478.24" y="-62" font-family="Helvetica,sans-Serif" font-size="10.00">sqsh_common.h</text>
</a>
</g>
</g>
<!-- Node1&#45;&gt;Node3 -->
<g id="edge19" class="edge">
<title>Node1&#45;&gt;Node3</title>
<path fill="none" stroke="#63b8ff" d="M534.24,-329.54C534.24,-311.03 534.24,-267.25 534.24,-230.5 534.24,-230.5 534.24,-230.5 534.24,-173.5 534.24,-138.47 510.73,-103.5 494.18,-83.21"/>
<polygon fill="#63b8ff" stroke="#63b8ff" points="496.88,-80.98 487.72,-75.65 491.55,-85.53 496.88,-80.98"/>
</g>
<!-- Node6 -->
<g id="node6" class="node">
<title>Node6</title>
<g id="a_node6"><a xlink:title=" ">
<polygon fill="#e0e0e0" stroke="#999999" points="730.74,-19 653.74,-19 653.74,0 730.74,0 730.74,-19"/>
<text text-anchor="middle" x="692.24" y="-7" font-family="Helvetica,sans-Serif" font-size="10.00">stdint.h</text>
</a>
</g>
</g>
<!-- Node1&#45;&gt;Node6 -->
<g id="edge32" class="edge">
<title>Node1&#45;&gt;Node6</title>
<path fill="none" stroke="#63b8ff" d="M592.2,-329.53C678.64,-314.5 831.24,-280.84 831.24,-230.5 831.24,-230.5 831.24,-230.5 831.24,-118.5 831.24,-68.81 775.16,-38.67 734.25,-23.3"/>
<polygon fill="#63b8ff" stroke="#63b8ff" points="735.45,-20.01 724.86,-19.94 733.1,-26.6 735.45,-20.01"/>
</g>
<!-- Node10 -->
<g id="node10" class="node">
<title>Node10</title>
<g id="a_node10"><a xlink:href="sqsh__error_8h.html" target="_top" xlink:title=" ">
<polygon fill="white" stroke="#666666" points="669.74,-239 562.74,-239 562.74,-220 669.74,-220 669.74,-239"/>
<text text-anchor="middle" x="616.24" y="-227" font-family="Helvetica,sans-Serif" font-size="10.00">sqsh_error.h</text>
</a>
</g>
</g>
<!-- Node1&#45;&gt;Node10 -->
<g id="edge27" class="edge">
<title>Node1&#45;&gt;Node10</title>
<path fill="none" stroke="#63b8ff" d="M540.95,-329.66C554.4,-311.94 584.9,-271.77 602.68,-248.35"/>
<polygon fill="#63b8ff" stroke="#63b8ff" points="605.26,-250.75 608.52,-240.67 599.68,-246.51 605.26,-250.75"/>
</g>
<!-- Node11 -->
<g id="node11" class="node">
<title>Node11</title>
<g id="a_node11"><a xlink:href="sqsh__mapper_8h.html" target="_top" xlink:title=" ">
<polygon fill="white" stroke="#666666" points="198.24,-184 84.24,-184 84.24,-165 198.24,-165 198.24,-184"/>
<text text-anchor="middle" x="141.24" y="-172" font-family="Helvetica,sans-Serif" font-size="10.00">sqsh_mapper.h</text>
</a>
</g>
</g>
<!-- Node1&#45;&gt;Node11 -->
<g id="edge28" class="edge">
<title>Node1&#45;&gt;Node11</title>
<path fill="none" stroke="#63b8ff" d="M473.08,-337.88C340.96,-335.91 38.22,-327.72 7.24,-294 -10.43,-274.78 8.73,-241.19 30.24,-220 45.65,-204.82 66.9,-194.62 86.69,-187.87"/>
<polygon fill="#63b8ff" stroke="#63b8ff" points="87.56,-191.26 96.04,-184.92 85.46,-184.59 87.56,-191.26"/>
</g>
<!-- Node13 -->
<g id="node13" class="node">
<title>Node13</title>
<g id="a_node13"><a xlink:title=" ">
<polygon fill="#e0e0e0" stroke="#999999" points="764.74,-239 687.74,-239 687.74,-220 764.74,-220 764.74,-239"/>
<text text-anchor="middle" x="726.24" y="-227" font-family="Helvetica,sans-Serif" font-size="10.00">stdlib.h</text>
</a>
</g>
</g>
<!-- Node1&#45;&gt;Node13 -->
<g id="edge33" class="edge">
<title>Node1&#45;&gt;Node13</title>
<path fill="none" stroke="#63b8ff" d="M549.95,-329.66C583,-311.07 659.98,-267.77 700.4,-245.03"/>
<polygon fill="#63b8ff" stroke="#63b8ff" points="701.99,-248.16 708.99,-240.2 698.56,-242.05 701.99,-248.16"/>
</g>
<!-- Node14 -->
<g id="node14" class="node">
<title>Node14</title>
<g id="a_node14"><a xlink:href="sqsh__compression__private_8h.html" target="_top" xlink:title=" ">
<polygon fill="white" stroke="#666666" points="765.24,-74 553.24,-74 553.24,-55 765.24,-55 765.24,-74"/>
<text text-anchor="middle" x="659.24" y="-62" font-family="Helvetica,sans-Serif" font-size="10.00">sqsh_compression_private.h</text>
</a>
</g>
</g>
<!-- Node1&#45;&gt;Node14 -->
<g id="edge20" class="edge">
<title>Node1&#45;&gt;Node14</title>
<path fill="none" stroke="#63b8ff" d="M595.55,-332.06C652.74,-322.43 734.95,-298.46 774.24,-239 812.96,-180.4 726.59,-110.77 682.76,-80.64"/>
<polygon fill="#63b8ff" stroke="#63b8ff" points="684.88,-77.85 674.63,-75.18 680.98,-83.66 684.88,-77.85"/>
</g>
<!-- Node15 -->
<g id="node15" class="node">
<title>Node15</title>
<g id="a_node15"><a xlink:href="sqsh__context__private_8h.html" target="_top" xlink:title=" ">
<polygon fill="white" stroke="#666666" points="392.24,-239 210.24,-239 210.24,-220 392.24,-220 392.24,-239"/>
<text text-anchor="middle" x="301.24" y="-227" font-family="Helvetica,sans-Serif" font-size="10.00">sqsh_context_private.h</text>
</a>
</g>
</g>
<!-- Node1&#45;&gt;Node15 -->
<g id="edge23" class="edge">
<title>Node1&#45;&gt;Node15</title>
<path fill="none" stroke="#63b8ff" d="M511.25,-329.64C489.23,-321.01 455.17,-307.29 426.24,-294 391.59,-278.09 352.55,-257.88 327.46,-244.59"/>
<polygon fill="#63b8ff" stroke="#63b8ff" points="329.42,-241.67 318.95,-240.06 326.13,-247.84 329.42,-241.67"/>
</g>
<!-- Node16 -->
<g id="node16" class="node">
<title>Node16</title>
<g id="a_node16"><a xlink:href="sqsh__table__private_8h.html" target="_top" xlink:title=" ">
<polygon fill="white" stroke="#666666" points="183.74,-294 16.74,-294 16.74,-275 183.74,-275 183.74,-294"/>
<text text-anchor="middle" x="100.24" y="-282" font-family="Helvetica,sans-Serif" font-size="10.00">sqsh_table_private.h</text>
</a>
</g>
</g>
<!-- Node1&#45;&gt;Node16 -->
<g id="edge29" class="edge">
<title>Node1&#45;&gt;Node16</title>
<path fill="none" stroke="#63b8ff" d="M472.97,-331.02C397.8,-321.84 269.94,-306.22 185.27,-295.88"/>
<polygon fill="#63b8ff" stroke="#63b8ff" points="185.73,-292.42 175.38,-294.68 184.89,-299.36 185.73,-292.42"/>
</g>
<!-- Node2&#45;&gt;Node3 -->
<g id="edge2" class="edge">
<title>Node2&#45;&gt;Node3</title>
<path fill="none" stroke="#63b8ff" d="M466.72,-274.68C468.49,-242.57 474.61,-131.33 477.14,-85.49"/>
<polygon fill="#63b8ff" stroke="#63b8ff" points="480.62,-85.88 477.67,-75.7 473.63,-85.49 480.62,-85.88"/>
</g>
<!-- Node2&#45;&gt;Node6 -->
<g id="edge17" class="edge">
<title>Node2&#45;&gt;Node6</title>
<path fill="none" stroke="#63b8ff" d="M477.93,-274.7C494.52,-262.27 525.9,-238.99 553.24,-220 649.92,-152.84 718.47,-177.67 774.24,-74 786.42,-51.35 759.48,-34.21 733.29,-23.48"/>
<polygon fill="#63b8ff" stroke="#63b8ff" points="734.61,-20.24 724.02,-19.95 732.12,-26.78 734.61,-20.24"/>
</g>
<!-- Node7 -->
<g id="node7" class="node">
<title>Node7</title>
<g id="a_node7"><a xlink:href="sqsh__context_8h.html" target="_top" xlink:title=" ">
<polygon fill="white" stroke="#666666" points="430.24,-184 308.24,-184 308.24,-165 430.24,-165 430.24,-184"/>
<text text-anchor="middle" x="369.24" y="-172" font-family="Helvetica,sans-Serif" font-size="10.00">sqsh_context.h</text>
</a>
</g>
</g>
<!-- Node2&#45;&gt;Node7 -->
<g id="edge6" class="edge">
<title>Node2&#45;&gt;Node7</title>
<path fill="none" stroke="#63b8ff" d="M458.3,-274.66C442.24,-256.78 405.65,-216.05 384.71,-192.73"/>
<polygon fill="#63b8ff" stroke="#63b8ff" points="387.58,-190.69 378.29,-185.59 382.37,-195.36 387.58,-190.69"/>
</g>
<!-- Node2&#45;&gt;Node10 -->
<g id="edge11" class="edge">
<title>Node2&#45;&gt;Node10</title>
<path fill="none" stroke="#63b8ff" d="M491.68,-274.51C516,-265.92 552.89,-252.88 580.22,-243.22"/>
<polygon fill="#63b8ff" stroke="#63b8ff" points="581.23,-246.58 589.49,-239.95 578.89,-239.98 581.23,-246.58"/>
</g>
<!-- Node2&#45;&gt;Node11 -->
<g id="edge13" class="edge">
<title>Node2&#45;&gt;Node11</title>
<path fill="none" stroke="#63b8ff" d="M435.1,-280.77C374.12,-275.02 241.37,-260.41 201.24,-239 181.01,-228.21 163.76,-208.03 153.01,-193.31"/>
<polygon fill="#63b8ff" stroke="#63b8ff" points="156.1,-191.62 147.52,-185.41 150.36,-195.62 156.1,-191.62"/>
</g>
<!-- Node12 -->
<g id="node12" class="node">
<title>Node12</title>
<g id="a_node12"><a xlink:href="sqsh__table_8h.html" target="_top" xlink:title=" ">
<polygon fill="white" stroke="#666666" points="153.74,-239 46.74,-239 46.74,-220 153.74,-220 153.74,-239"/>
<text text-anchor="middle" x="100.24" y="-227" font-family="Helvetica,sans-Serif" font-size="10.00">sqsh_table.h</text>
</a>
</g>
</g>
<!-- Node2&#45;&gt;Node12 -->
<g id="edge15" class="edge">
<title>Node2&#45;&gt;Node12</title>
<path fill="none" stroke="#63b8ff" d="M435.03,-278.98C375.55,-270.37 244.81,-251.44 165.46,-239.94"/>
<polygon fill="#63b8ff" stroke="#63b8ff" points="166.03,-236.49 155.63,-238.52 165.03,-243.42 166.03,-236.49"/>
</g>
<!-- Node2&#45;&gt;Node13 -->
<g id="edge18" class="edge">
<title>Node2&#45;&gt;Node13</title>
<path fill="none" stroke="#63b8ff" d="M497.6,-277.11C542.02,-268.05 623.7,-251.4 676.46,-240.65"/>
<polygon fill="#63b8ff" stroke="#63b8ff" points="676.99,-244.11 686.09,-238.68 675.59,-237.25 676.99,-244.11"/>
</g>
<!-- Node4 -->
<g id="node4" class="node">
<title>Node4</title>
<g id="a_node4"><a xlink:title=" ">
<polygon fill="#e0e0e0" stroke="#999999" points="486.24,-19 402.24,-19 402.24,0 486.24,0 486.24,-19"/>
<text text-anchor="middle" x="444.24" y="-7" font-family="Helvetica,sans-Serif" font-size="10.00">stdbool.h</text>
</a>
</g>
</g>
<!-- Node3&#45;&gt;Node4 -->
<g id="edge3" class="edge">
<title>Node3&#45;&gt;Node4</title>
<path fill="none" stroke="#63b8ff" d="M472.62,-54.75C468.12,-47.73 461.65,-37.64 456.02,-28.87"/>
<polygon fill="#63b8ff" stroke="#63b8ff" points="459.13,-27.24 450.79,-20.72 453.24,-31.02 459.13,-27.24"/>
</g>
<!-- Node5 -->
<g id="node5" class="node">
<title>Node5</title>
<g id="a_node5"><a xlink:title=" ">
<polygon fill="#e0e0e0" stroke="#999999" points="617.74,-19 540.74,-19 540.74,0 617.74,0 617.74,-19"/>
<text text-anchor="middle" x="579.24" y="-7" font-family="Helvetica,sans-Serif" font-size="10.00">stddef.h</text>
</a>
</g>
</g>
<!-- Node3&#45;&gt;Node5 -->
<g id="edge4" class="edge">
<title>Node3&#45;&gt;Node5</title>
<path fill="none" stroke="#63b8ff" d="M495.37,-54.51C510.99,-46.31 534.32,-34.07 552.41,-24.58"/>
<polygon fill="#63b8ff" stroke="#63b8ff" points="553.79,-27.81 561.01,-20.06 550.53,-21.61 553.79,-27.81"/>
</g>
<!-- Node3&#45;&gt;Node6 -->
<g id="edge5" class="edge">
<title>Node3&#45;&gt;Node6</title>
<path fill="none" stroke="#63b8ff" d="M514.54,-54.51C550.46,-45.61 605.63,-31.95 644.96,-22.21"/>
<polygon fill="#63b8ff" stroke="#63b8ff" points="645.78,-25.61 654.64,-19.81 644.1,-18.82 645.78,-25.61"/>
</g>
<!-- Node8 -->
<g id="node8" class="node">
<title>Node8</title>
<g id="a_node8"><a xlink:href="sqsh__primitive_8h.html" target="_top" xlink:title=" ">
<polygon fill="white" stroke="#666666" points="410.74,-129 273.74,-129 273.74,-110 410.74,-110 410.74,-129"/>
<text text-anchor="middle" x="342.24" y="-117" font-family="Helvetica,sans-Serif" font-size="10.00">sqsh_primitive.h</text>
</a>
</g>
</g>
<!-- Node7&#45;&gt;Node8 -->
<g id="edge7" class="edge">
<title>Node7&#45;&gt;Node8</title>
<path fill="none" stroke="#63b8ff" d="M364.78,-164.75C361.28,-157.88 356.29,-148.08 351.89,-139.45"/>
<polygon fill="#63b8ff" stroke="#63b8ff" points="355.14,-138.11 347.48,-130.79 348.9,-141.29 355.14,-138.11"/>
</g>
<!-- Node8&#45;&gt;Node3 -->
<g id="edge8" class="edge">
<title>Node8&#45;&gt;Node3</title>
<path fill="none" stroke="#63b8ff" d="M365.31,-109.51C387.12,-101.01 420.11,-88.15 444.81,-78.53"/>
<polygon fill="#63b8ff" stroke="#63b8ff" points="446.05,-81.8 454.1,-74.91 443.51,-75.28 446.05,-81.8"/>
</g>
<!-- Node8&#45;&gt;Node4 -->
<g id="edge10" class="edge">
<title>Node8&#45;&gt;Node4</title>
<path fill="none" stroke="#63b8ff" d="M350.58,-109.66C367.47,-91.78 405.94,-51.05 427.96,-27.73"/>
<polygon fill="#63b8ff" stroke="#63b8ff" points="430.41,-30.23 434.73,-20.56 425.32,-25.43 430.41,-30.23"/>
</g>
<!-- Node9 -->
<g id="node9" class="node">
<title>Node9</title>
<g id="a_node9"><a xlink:title=" ">
<polygon fill="#e0e0e0" stroke="#999999" points="365.24,-74 281.24,-74 281.24,-55 365.24,-55 365.24,-74"/>
<text text-anchor="middle" x="323.24" y="-62" font-family="Helvetica,sans-Serif" font-size="10.00">pthread.h</text>
</a>
</g>
</g>
<!-- Node8&#45;&gt;Node9 -->
<g id="edge9" class="edge">
<title>Node8&#45;&gt;Node9</title>
<path fill="none" stroke="#63b8ff" d="M339.1,-109.75C336.69,-103.04 333.28,-93.52 330.23,-85.02"/>
<polygon fill="#63b8ff" stroke="#63b8ff" points="333.62,-84.1 326.95,-75.87 327.03,-86.46 333.62,-84.1"/>
</g>
<!-- Node10&#45;&gt;Node3 -->
<g id="edge12" class="edge">
<title>Node10&#45;&gt;Node3</title>
<path fill="none" stroke="#63b8ff" d="M612.85,-219.53C604.54,-198.39 581.34,-144.64 548.24,-110 536.5,-97.72 520.72,-87.31 507.12,-79.65"/>
<polygon fill="#63b8ff" stroke="#63b8ff" points="509.04,-76.71 498.57,-75.07 505.72,-82.88 509.04,-76.71"/>
</g>
<!-- Node11&#45;&gt;Node8 -->
<g id="edge14" class="edge">
<title>Node11&#45;&gt;Node8</title>
<path fill="none" stroke="#63b8ff" d="M175.33,-164.51C208.93,-155.65 260.45,-142.07 297.36,-132.33"/>
<polygon fill="#63b8ff" stroke="#63b8ff" points="298.07,-135.77 306.84,-129.83 296.28,-129 298.07,-135.77"/>
</g>
<!-- Node12&#45;&gt;Node11 -->
<g id="edge16" class="edge">
<title>Node12&#45;&gt;Node11</title>
<path fill="none" stroke="#63b8ff" d="M107.01,-219.75C112.55,-212.58 120.58,-202.2 127.46,-193.3"/>
<polygon fill="#63b8ff" stroke="#63b8ff" points="130.04,-195.69 133.39,-185.64 124.5,-191.41 130.04,-195.69"/>
</g>
<!-- Node14&#45;&gt;Node5 -->
<g id="edge21" class="edge">
<title>Node14&#45;&gt;Node5</title>
<path fill="none" stroke="#63b8ff" d="M645.66,-54.51C633.75,-46.62 616.19,-34.98 602.11,-25.65"/>
<polygon fill="#63b8ff" stroke="#63b8ff" points="604.14,-22.8 593.87,-20.19 600.27,-28.63 604.14,-22.8"/>
</g>
<!-- Node14&#45;&gt;Node6 -->
<g id="edge22" class="edge">
<title>Node14&#45;&gt;Node6</title>
<path fill="none" stroke="#63b8ff" d="M664.68,-54.75C669.01,-47.81 675.2,-37.86 680.62,-29.16"/>
<polygon fill="#63b8ff" stroke="#63b8ff" points="683.55,-31.07 685.87,-20.73 677.61,-27.37 683.55,-31.07"/>
</g>
<!-- Node15&#45;&gt;Node7 -->
<g id="edge24" class="edge">
<title>Node15&#45;&gt;Node7</title>
<path fill="none" stroke="#63b8ff" d="M312.77,-219.51C322.7,-211.77 337.25,-200.43 349.09,-191.2"/>
<polygon fill="#63b8ff" stroke="#63b8ff" points="350.94,-194.2 356.68,-185.29 346.64,-188.68 350.94,-194.2"/>
</g>
<!-- Node15&#45;&gt;Node8 -->
<g id="edge26" class="edge">
<title>Node15&#45;&gt;Node8</title>
<path fill="none" stroke="#63b8ff" d="M298.84,-219.9C295.81,-207.32 291.8,-183.41 299.24,-165 303.67,-154.03 312.25,-144.26 320.59,-136.69"/>
<polygon fill="#63b8ff" stroke="#63b8ff" points="322.74,-139.45 328.17,-130.36 318.25,-134.08 322.74,-139.45"/>
</g>
<!-- Node15&#45;&gt;Node11 -->
<g id="edge25" class="edge">
<title>Node15&#45;&gt;Node11</title>
<path fill="none" stroke="#63b8ff" d="M274.09,-219.51C247.93,-210.84 208.1,-197.65 178.87,-187.97"/>
<polygon fill="#63b8ff" stroke="#63b8ff" points="180.27,-184.74 169.68,-184.92 178.07,-191.39 180.27,-184.74"/>
</g>
<!-- Node16&#45;&gt;Node11 -->
<g id="edge30" class="edge">
<title>Node16&#45;&gt;Node11</title>
<path fill="none" stroke="#63b8ff" d="M79.59,-274.68C56.02,-263.3 22.52,-242.29 37.24,-220 47.27,-204.8 63.68,-194.77 80.54,-188.16"/>
<polygon fill="#63b8ff" stroke="#63b8ff" points="81.33,-191.59 89.61,-184.97 79.01,-184.99 81.33,-191.59"/>
</g>
<!-- Node16&#45;&gt;Node12 -->
<g id="edge31" class="edge">
<title>Node16&#45;&gt;Node12</title>
<path fill="none" stroke="#63b8ff" d="M100.24,-274.75C100.24,-268.27 100.24,-259.16 100.24,-250.9"/>
<polygon fill="#63b8ff" stroke="#63b8ff" points="103.74,-250.96 100.24,-240.96 96.74,-250.96 103.74,-250.96"/>
</g>
</g>
</svg>
        <g id="navigator" transform="translate(0 0)" fill="#404254">
                <rect fill="#f2f5e9" fill-opacity="0.5" stroke="#606060" stroke-width=".5" x="0" y="0" width="60" height="60"/>
                <use id="zoomplus" xlink:href="#zoomPlus" x="17" y="9" onmousedown="handleZoom(evt,'in')"/>
                <use id="zoomminus" xlink:href="#zoomMin" x="42" y="9" onmousedown="handleZoom(evt,'out')"/>
                <use id="reset" xlink:href="#resetDef" x="30" y="36" onmousedown="handleReset()"/>
                <g id="arrowUp" xlink:href="#dirArrow" transform="translate(30 24)" onmousedown="handlePan(0,-1)">
                  <use xlink:href="#rim" fill="#404040">
                        <set attributeName="fill" to="#808080" begin="arrowUp.mouseover" end="arrowUp.mouseout"/>
                  </use>
                  <path fill="none" stroke="white" stroke-width="1.5" d="M0,-3.0v7 M-2.5,-0.5L0,-3.0L2.5,-0.5"/>
                </g>
                <g id="arrowRight" xlink:href="#dirArrow" transform="rotate(90) translate(36 -43)" onmousedown="handlePan(1,0)">
                  <use xlink:href="#rim" fill="#404040">
                        <set attributeName="fill" to="#808080" begin="arrowRight.mouseover" end="arrowRight.mouseout"/>
                  </use>
                  <path fill="none" stroke="white" stroke-width="1.5" d="M0,-3.0v7 M-2.5,-0.5L0,-3.0L2.5,-0.5"/>
                </g>
                <g id="arrowDown" xlink:href="#dirArrow" transform="rotate(180) translate(-30 -48)" onmousedown="handlePan(0,1)">
                  <use xlink:href="#rim" fill="#404040">
                        <set attributeName="fill" to="#808080" begin="arrowDown.mouseover" end="arrowDown.mouseout"/>
                  </use>
                  <path fill="none" stroke="white" stroke-width="1.5" d="M0,-3.0v7 M-2.5,-0.5L0,-3.0L2.5,-0.5"/>
                </g>
                <g id="arrowLeft" xlink:href="#dirArrow" transform="rotate(270) translate(-36 17)" onmousedown="handlePan(-1,0)">
                  <use xlink:href="#rim" fill="#404040">
                        <set attributeName="fill" to="#808080" begin="arrowLeft.mouseover" end="arrowLeft.mouseout"/>
                  </use>
                  <path fill="none" stroke="white" stroke-width="1.5" d="M0,-3.0v7 M-2.5,-0.5L0,-3.0L2.5,-0.5"/>
                </g>
        </g>
        <svg viewBox="0 0 15 15" width="100%" height="30px" preserveAspectRatio="xMaxYMin meet">
         <g id="arrow_out" transform="scale(0.3 0.3)">
          <a xlink:href="sqsh__private_8h__incl_org.svg" target="_base">
           <rect id="button" ry="5" rx="5" y="6" x="6" height="38" width="38"
                fill="#f2f5e9" fill-opacity="0.5" stroke="#606060" stroke-width="1.0"/>
           <path id="arrow"
             d="M 11.500037,31.436501 C 11.940474,20.09759 22.043105,11.32322 32.158766,21.979434 L 37.068811,17.246167 C 37.068811,17.246167 37.088388,32 37.088388,32 L 22.160133,31.978069 C 22.160133,31.978069 26.997745,27.140456 26.997745,27.140456 C 18.528582,18.264221 13.291696,25.230495 11.500037,31.436501 z"
             style="fill:#404040;"/>
          </a>
         </g>
        </svg>
</svg>
