<?xml version="1.0" encoding="UTF-8" standalone="no"?>
<!DOCTYPE svg PUBLIC "-//W3C//DTD SVG 1.1//EN"
 "http://www.w3.org/Graphics/SVG/1.1/DTD/svg11.dtd">
<!-- Generated by graphviz version 3.0.0 (20220413.0242)
 -->
<!-- Title: sqsh_mapper.h Pages: 1 -->
<svg width="376pt" height="196pt"
 viewBox="0.00 0.00 375.90 196.00" xmlns="http://www.w3.org/2000/svg" xmlns:xlink="http://www.w3.org/1999/xlink">
<g id="graph0" class="graph" transform="scale(1 1) rotate(0) translate(4 192)">
<title>sqsh_mapper.h</title>
<polygon fill="white" stroke="transparent" points="-4,4 -4,-192 371.9,-192 371.9,4 -4,4"/>
<!-- Node1 -->
<g id="node1" class="node">
<title>Node1</title>
<g id="a_node1"><a xlink:title=" ">
<polygon fill="#bfbfbf" stroke="black" points="149.9,-168.5 149.9,-187.5 263.9,-187.5 263.9,-168.5 149.9,-168.5"/>
<text text-anchor="middle" x="206.9" y="-175.5" font-family="Helvetica,sans-Serif" font-size="10.00">sqsh_mapper.h</text>
</a>
</g>
</g>
<!-- Node2 -->
<g id="node2" class="node">
<title>Node2</title>
<g id="a_node2"><a xlink:href="sqsh__primitive_8h.html" target="_top" xlink:title=" ">
<polygon fill="white" stroke="black" points="90.4,-112.5 90.4,-131.5 227.4,-131.5 227.4,-112.5 90.4,-112.5"/>
<text text-anchor="middle" x="158.9" y="-119.5" font-family="Helvetica,sans-Serif" font-size="10.00">sqsh_primitive.h</text>
</a>
</g>
</g>
<!-- Node1&#45;&gt;Node2 -->
<g id="edge1" class="edge">
<title>Node1&#45;&gt;Node2</title>
<path fill="none" stroke="midnightblue" d="M198.98,-168.08C192.06,-160.3 181.84,-148.8 173.45,-139.37"/>
<polygon fill="midnightblue" stroke="midnightblue" points="175.94,-136.9 166.68,-131.75 170.71,-141.55 175.94,-136.9"/>
</g>
<!-- Node4 -->
<g id="node4" class="node">
<title>Node4</title>
<g id="a_node4"><a xlink:title=" ">
<polygon fill="white" stroke="#bfbfbf" points="33.4,-0.5 33.4,-19.5 110.4,-19.5 110.4,-0.5 33.4,-0.5"/>
<text text-anchor="middle" x="71.9" y="-7.5" font-family="Helvetica,sans-Serif" font-size="10.00">stddef.h</text>
</a>
</g>
</g>
<!-- Node1&#45;&gt;Node4 -->
<g id="edge7" class="edge">
<title>Node1&#45;&gt;Node4</title>
<path fill="none" stroke="midnightblue" d="M153.12,-168.46C102.89,-157.17 31.5,-131.73 2.9,-76 -8.32,-54.12 17.06,-35.64 40.14,-24.04"/>
<polygon fill="midnightblue" stroke="midnightblue" points="41.9,-27.08 49.45,-19.65 38.91,-20.75 41.9,-27.08"/>
</g>
<!-- Node5 -->
<g id="node5" class="node">
<title>Node5</title>
<g id="a_node5"><a xlink:title=" ">
<polygon fill="white" stroke="#bfbfbf" points="174.4,-0.5 174.4,-19.5 251.4,-19.5 251.4,-0.5 174.4,-0.5"/>
<text text-anchor="middle" x="212.9" y="-7.5" font-family="Helvetica,sans-Serif" font-size="10.00">stdint.h</text>
</a>
</g>
</g>
<!-- Node1&#45;&gt;Node5 -->
<g id="edge8" class="edge">
<title>Node1&#45;&gt;Node5</title>
<path fill="none" stroke="midnightblue" d="M215.12,-168.18C222.45,-159.66 232.66,-146.02 236.9,-132 246.69,-99.67 245.1,-88.77 236.9,-56 234.47,-46.25 229.47,-36.29 224.66,-28.23"/>
<polygon fill="midnightblue" stroke="midnightblue" points="227.6,-26.32 219.27,-19.77 221.69,-30.08 227.6,-26.32"/>
</g>
<!-- Node7 -->
<g id="node7" class="node">
<title>Node7</title>
<g id="a_node7"><a xlink:title=" ">
<polygon fill="white" stroke="#bfbfbf" points="283.9,-112.5 283.9,-131.5 367.9,-131.5 367.9,-112.5 283.9,-112.5"/>
<text text-anchor="middle" x="325.9" y="-119.5" font-family="Helvetica,sans-Serif" font-size="10.00">pthread.h</text>
</a>
</g>
</g>
<!-- Node1&#45;&gt;Node7 -->
<g id="edge6" class="edge">
<title>Node1&#45;&gt;Node7</title>
<path fill="none" stroke="midnightblue" d="M225.76,-168.44C245.17,-159.64 275.63,-145.81 297.87,-135.72"/>
<polygon fill="midnightblue" stroke="midnightblue" points="299.48,-138.84 307.14,-131.52 296.58,-132.46 299.48,-138.84"/>
</g>
<!-- Node3 -->
<g id="node3" class="node">
<title>Node3</title>
<g id="a_node3"><a xlink:href="sqsh__common_8h.html" target="_top" xlink:title=" ">
<polygon fill="white" stroke="black" points="113.9,-56.5 113.9,-75.5 227.9,-75.5 227.9,-56.5 113.9,-56.5"/>
<text text-anchor="middle" x="170.9" y="-63.5" font-family="Helvetica,sans-Serif" font-size="10.00">sqsh_common.h</text>
</a>
</g>
</g>
<!-- Node2&#45;&gt;Node3 -->
<g id="edge2" class="edge">
<title>Node2&#45;&gt;Node3</title>
<path fill="none" stroke="midnightblue" d="M160.89,-112.08C162.48,-104.93 164.76,-94.64 166.75,-85.69"/>
<polygon fill="midnightblue" stroke="midnightblue" points="170.21,-86.27 168.96,-75.75 163.37,-84.75 170.21,-86.27"/>
</g>
<!-- Node6 -->
<g id="node6" class="node">
<title>Node6</title>
<g id="a_node6"><a xlink:title=" ">
<polygon fill="white" stroke="#bfbfbf" points="11.9,-56.5 11.9,-75.5 95.9,-75.5 95.9,-56.5 11.9,-56.5"/>
<text text-anchor="middle" x="53.9" y="-63.5" font-family="Helvetica,sans-Serif" font-size="10.00">stdbool.h</text>
</a>
</g>
</g>
<!-- Node2&#45;&gt;Node6 -->
<g id="edge5" class="edge">
<title>Node2&#45;&gt;Node6</title>
<path fill="none" stroke="midnightblue" d="M142.03,-112.32C125.2,-103.66 99.1,-90.24 79.67,-80.25"/>
<polygon fill="midnightblue" stroke="midnightblue" points="81.23,-77.12 70.73,-75.65 78.02,-83.34 81.23,-77.12"/>
</g>
<!-- Node3&#45;&gt;Node4 -->
<g id="edge3" class="edge">
<title>Node3&#45;&gt;Node4</title>
<path fill="none" stroke="midnightblue" d="M155,-56.32C139.27,-47.74 114.96,-34.49 96.7,-24.52"/>
<polygon fill="midnightblue" stroke="midnightblue" points="98.23,-21.37 87.77,-19.65 94.87,-27.52 98.23,-21.37"/>
</g>
<!-- Node3&#45;&gt;Node5 -->
<g id="edge4" class="edge">
<title>Node3&#45;&gt;Node5</title>
<path fill="none" stroke="midnightblue" d="M177.84,-56.08C183.83,-48.38 192.66,-37.03 199.95,-27.65"/>
<polygon fill="midnightblue" stroke="midnightblue" points="202.72,-29.79 206.1,-19.75 197.2,-25.5 202.72,-29.79"/>
</g>
</g>
</svg>
