<?xml version="1.0" encoding="UTF-8" standalone="no"?>
<!DOCTYPE svg PUBLIC "-//W3C//DTD SVG 1.1//EN"
 "http://www.w3.org/Graphics/SVG/1.1/DTD/svg11.dtd">
<!-- Generated by graphviz version 8.0.5 (20230430.1635)
 -->
<!-- Title: include/sqsh_easy.h Pages: 1 -->
<!--zoomable 187233 -->
<svg id="main" version="1.1" xmlns="http://www.w3.org/2000/svg" xmlns:xlink="http://www.w3.org/1999/xlink" xml:space="preserve" onload="init(evt)">
<style type="text/css"><![CDATA[
.edge:hover path { stroke: red; }
.edge:hover polygon { stroke: red; fill: red; }
]]></style>
<script type="text/javascript"><![CDATA[
var edges = document.getElementsByTagName('g');
if (edges && edges.length) {
  for (var i=0;i<edges.length;i++) {
    if (edges[i].id.substr(0,4)=='edge') {
      edges[i].setAttribute('class','edge');
    }
  }
}
]]></script>
        <defs>
                <circle id="rim" cx="0" cy="0" r="7"/>
                <circle id="rim2" cx="0" cy="0" r="3.5"/>
                <g id="zoomPlus">
                        <use xlink:href="#rim" fill="#404040">
                                <set attributeName="fill" to="#808080" begin="zoomplus.mouseover" end="zoomplus.mouseout"/>
                        </use>
                        <path d="M-4,0h8M0,-4v8" fill="none" stroke="white" stroke-width="1.5" pointer-events="none"/>
                </g>
                <g id="zoomMin">
                        <use xlink:href="#rim" fill="#404040">
                                <set attributeName="fill" to="#808080" begin="zoomminus.mouseover" end="zoomminus.mouseout"/>
                        </use>
                        <path d="M-4,0h8" fill="none" stroke="white" stroke-width="1.5" pointer-events="none"/>
                </g>
                <g id="dirArrow">
                        <path fill="none" stroke="white" stroke-width="1.5" d="M0,-3.0v7 M-2.5,-0.5L0,-3.0L2.5,-0.5"/>
                </g>
               <g id="resetDef">
                       <use xlink:href="#rim2" fill="#404040">
                               <set attributeName="fill" to="#808080" begin="reset.mouseover" end="reset.mouseout"/>
                       </use>
               </g>
        </defs>

<script type="text/javascript">
var viewWidth = 1398;
var viewHeight = 187233;
var sectionId = 'dynsection-1';
</script>
<script xlink:href="svgpan.js"/>
<svg id="graph" class="graph">
<g id="viewport">
<title>include/sqsh_easy.h</title>
<!-- Node1 -->
<g id="node1" class="node">
<title>Node1</title>
<g id="a_node1"><a xlink:title=" ">
<polygon fill="#999999" stroke="#666666" points="755.5,-187225.1 597,-187225.1 597,-187206.6 755.5,-187206.6 755.5,-187225.1"/>
<text text-anchor="middle" x="676.25" y="-187211.6" font-family="Helvetica,sans-Serif" font-size="10.00">include/sqsh_easy.h</text>
</a>
</g>
</g>
<!-- Node2 -->
<g id="node2" class="node">
<title>Node2</title>
<g id="a_node2"><a xlink:href="sqsh_8h.html" target="_top" xlink:title=" ">
<polygon fill="white" stroke="#666666" points="736.75,-187170.6 615.75,-187170.6 615.75,-187152.1 736.75,-187152.1 736.75,-187170.6"/>
<text text-anchor="middle" x="676.25" y="-187157.1" font-family="Helvetica,sans-Serif" font-size="10.00">include/sqsh.h</text>
</a>
</g>
</g>
<!-- Node1&#45;&gt;Node2 -->
<g id="edge1" class="edge">
<title>Node1&#45;&gt;Node2</title>
<path fill="none" stroke="#63b8ff" d="M676.25,-187195.32C676.25,-187186.89 676.25,-187177.47 676.25,-187170.86"/>
<polygon fill="#63b8ff" stroke="#63b8ff" points="672.75,-187195.18 676.25,-187205.18 679.75,-187195.18 672.75,-187195.18"/>
</g>
<!-- Node3 -->
<g id="node3" class="node">
<title>Node3</title>
<g id="a_node3"><a xlink:href="list__dir_8c.html" target="_top" xlink:title=" ">
<polygon fill="white" stroke="#666666" points="158.5,-93567.3 0,-93567.3 0,-93548.8 158.5,-93548.8 158.5,-93567.3"/>
<text text-anchor="middle" x="79.25" y="-93553.8" font-family="Helvetica,sans-Serif" font-size="10.00">examples/list_dir.c</text>
</a>
</g>
</g>
<!-- Node2&#45;&gt;Node3 -->
<g id="edge2" class="edge">
<title>Node2&#45;&gt;Node3</title>
<path fill="none" stroke="#63b8ff" d="M604.35,-187159.36C471,-187156.78 196.2,-187147.65 167.25,-187116.1 -51.19,-186878.07 77.81,-94581.46 79.24,-93567.47"/>
<polygon fill="#63b8ff" stroke="#63b8ff" points="604.19,-187162.88 614.25,-187159.57 604.32,-187155.88 604.19,-187162.88"/>
</g>
<!-- Node4 -->
<g id="node4" class="node">
<title>Node4</title>
<g id="a_node4"><a xlink:href="list__dir__ll_8c.html" target="_top" xlink:title=" ">
<polygon fill="white" stroke="#666666" points="357.75,-187115.47 176.75,-187115.47 176.75,-0.63 357.75,-0.63 357.75,-187115.47"/>
<text text-anchor="middle" x="267.25" y="-187101.97" font-family="Helvetica,sans-Serif" font-size="10.00">examples/list_dir_ll.c</text>
</a>
</g>
</g>
<!-- Node2&#45;&gt;Node4 -->
<g id="edge3" class="edge">
<title>Node2&#45;&gt;Node4</title>
<path fill="none" stroke="#63b8ff" d="M604.28,-187160.52C522.51,-187159.01 396.45,-187150.88 366.25,-187116.1 363.52,-187112.96 360.84,-187094.52 358.22,-187061.19"/>
<polygon fill="#63b8ff" stroke="#63b8ff" points="604.21,-187164.04 614.26,-187160.69 604.32,-187157.04 604.21,-187164.04"/>
</g>
<!-- Node5 -->
<g id="node5" class="node">
<title>Node5</title>
<g id="a_node5"><a xlink:href="list__xattrs_8c.html" target="_top" xlink:title=" ">
<polygon fill="white" stroke="#666666" points="556.75,-187116.1 375.75,-187116.1 375.75,0 556.75,0 556.75,-187116.1"/>
<text text-anchor="middle" x="466.25" y="-187102.6" font-family="Helvetica,sans-Serif" font-size="10.00">examples/list_xattrs.c</text>
</a>
</g>
</g>
<!-- Node2&#45;&gt;Node5 -->
<g id="edge4" class="edge">
<title>Node2&#45;&gt;Node5</title>
<path fill="none" stroke="#63b8ff" d="M610.15,-187148.21C592.67,-187141.67 575.77,-187131.6 565.25,-187116.1 562.53,-187112.1 559.85,-187102.97 557.2,-187088.79"/>
<polygon fill="#63b8ff" stroke="#63b8ff" points="608.87,-187151.81 619.46,-187151.67 611.1,-187145.17 608.87,-187151.81"/>
</g>
<!-- Node6 -->
<g id="node6" class="node">
<title>Node6</title>
<g id="a_node6"><a xlink:href="list__xattrs__ll_8c.html" target="_top" xlink:title=" ">
<polygon fill="white" stroke="#666666" points="778,-93567.3 574.5,-93567.3 574.5,-93548.8 778,-93548.8 778,-93567.3"/>
<text text-anchor="middle" x="676.25" y="-93553.8" font-family="Helvetica,sans-Serif" font-size="10.00">examples/list_xattrs_ll.c</text>
</a>
</g>
</g>
<!-- Node2&#45;&gt;Node6 -->
<g id="edge5" class="edge">
<title>Node2&#45;&gt;Node6</title>
<path fill="none" stroke="#63b8ff" d="M676.25,-187140.97C676.25,-185616.08 676.25,-94592.88 676.25,-93567.78"/>
<polygon fill="#63b8ff" stroke="#63b8ff" points="672.75,-187140.91 676.25,-187150.91 679.75,-187140.91 672.75,-187140.91"/>
</g>
<!-- Node7 -->
<g id="node7" class="node">
<title>Node7</title>
<g id="a_node7"><a xlink:href="read__file_8c.html" target="_top" xlink:title=" ">
<polygon fill="white" stroke="#666666" points="962.25,-93567.3 796.25,-93567.3 796.25,-93548.8 962.25,-93548.8 962.25,-93567.3"/>
<text text-anchor="middle" x="879.25" y="-93553.8" font-family="Helvetica,sans-Serif" font-size="10.00">examples/read_file.c</text>
</a>
</g>
</g>
<!-- Node2&#45;&gt;Node7 -->
<g id="edge6" class="edge">
<title>Node2&#45;&gt;Node7</title>
<path fill="none" stroke="#63b8ff" d="M742.35,-187148.21C759.83,-187141.67 776.73,-187131.6 787.25,-187116.1 968.66,-186848.78 880.24,-94581.14 879.26,-93567.46"/>
<polygon fill="#63b8ff" stroke="#63b8ff" points="741.4,-187145.17 733.04,-187151.67 743.63,-187151.81 741.4,-187145.17"/>
</g>
<!-- Node8 -->
<g id="node8" class="node">
<title>Node8</title>
<g id="a_node8"><a xlink:href="read__file__ll_8c.html" target="_top" xlink:title=" ">
<polygon fill="white" stroke="#666666" points="1168.5,-93579.27 980,-93579.27 980,-93536.83 1168.5,-93536.83 1168.5,-93579.27"/>
<text text-anchor="middle" x="1074.25" y="-93565.77" font-family="Helvetica,sans-Serif" font-size="10.00">examples/read_file_ll.c</text>
</a>
</g>
</g>
<!-- Node2&#45;&gt;Node8 -->
<g id="edge7" class="edge">
<title>Node2&#45;&gt;Node8</title>
<path fill="none" stroke="#63b8ff" d="M747.66,-187159.92C825.55,-187157.74 942.95,-187148.93 971.25,-187116.1 1181.54,-186872.18 1076.1,-95158.22 1074.27,-93579.66"/>
<polygon fill="#63b8ff" stroke="#63b8ff" points="747.85,-187156.43 737.94,-187160.18 748.03,-187163.43 747.85,-187156.43"/>
</g>
<!-- Node9 -->
<g id="node9" class="node">
<title>Node9</title>
<g id="a_node9"><a xlink:href="readme__example_8c.html" target="_top" xlink:title=" ">
<polygon fill="white" stroke="#666666" points="1390,-93571.05 1186.5,-93571.05 1186.5,-93545.05 1390,-93545.05 1390,-93571.05"/>
<text text-anchor="middle" x="1288.25" y="-93557.55" font-family="Helvetica,sans-Serif" font-size="10.00">examples/readme_example.c</text>
</a>
</g>
</g>
<!-- Node2&#45;&gt;Node9 -->
<g id="edge8" class="edge">
<title>Node2&#45;&gt;Node9</title>
<path fill="none" stroke="#63b8ff" d="M748.02,-187159.26C879.64,-187156.5 1148.84,-187147.09 1177.25,-187116.1 1395.31,-186878.21 1289.67,-94785.27 1288.26,-93571.16"/>
<polygon fill="#63b8ff" stroke="#63b8ff" points="748.18,-187155.77 738.25,-187159.47 748.32,-187162.77 748.18,-187155.77"/>
</g>
</g>
</svg>
        <g id="navigator" transform="translate(0 0)" fill="#404254">
                <rect fill="#f2f5e9" fill-opacity="0.5" stroke="#606060" stroke-width=".5" x="0" y="0" width="60" height="60"/>
                <use id="zoomplus" xlink:href="#zoomPlus" x="17" y="9" onmousedown="handleZoom(evt,'in')"/>
                <use id="zoomminus" xlink:href="#zoomMin" x="42" y="9" onmousedown="handleZoom(evt,'out')"/>
                <use id="reset" xlink:href="#resetDef" x="30" y="36" onmousedown="handleReset()"/>
                <g id="arrowUp" xlink:href="#dirArrow" transform="translate(30 24)" onmousedown="handlePan(0,-1)">
                  <use xlink:href="#rim" fill="#404040">
                        <set attributeName="fill" to="#808080" begin="arrowUp.mouseover" end="arrowUp.mouseout"/>
                  </use>
                  <path fill="none" stroke="white" stroke-width="1.5" d="M0,-3.0v7 M-2.5,-0.5L0,-3.0L2.5,-0.5"/>
                </g>
                <g id="arrowRight" xlink:href="#dirArrow" transform="rotate(90) translate(36 -43)" onmousedown="handlePan(1,0)">
                  <use xlink:href="#rim" fill="#404040">
                        <set attributeName="fill" to="#808080" begin="arrowRight.mouseover" end="arrowRight.mouseout"/>
                  </use>
                  <path fill="none" stroke="white" stroke-width="1.5" d="M0,-3.0v7 M-2.5,-0.5L0,-3.0L2.5,-0.5"/>
                </g>
                <g id="arrowDown" xlink:href="#dirArrow" transform="rotate(180) translate(-30 -48)" onmousedown="handlePan(0,1)">
                  <use xlink:href="#rim" fill="#404040">
                        <set attributeName="fill" to="#808080" begin="arrowDown.mouseover" end="arrowDown.mouseout"/>
                  </use>
                  <path fill="none" stroke="white" stroke-width="1.5" d="M0,-3.0v7 M-2.5,-0.5L0,-3.0L2.5,-0.5"/>
                </g>
                <g id="arrowLeft" xlink:href="#dirArrow" transform="rotate(270) translate(-36 17)" onmousedown="handlePan(-1,0)">
                  <use xlink:href="#rim" fill="#404040">
                        <set attributeName="fill" to="#808080" begin="arrowLeft.mouseover" end="arrowLeft.mouseout"/>
                  </use>
                  <path fill="none" stroke="white" stroke-width="1.5" d="M0,-3.0v7 M-2.5,-0.5L0,-3.0L2.5,-0.5"/>
                </g>
        </g>
        <svg viewBox="0 0 15 15" width="100%" height="30px" preserveAspectRatio="xMaxYMin meet">
         <g id="arrow_out" transform="scale(0.3 0.3)">
          <a xlink:href="sqsh__easy_8h__dep__incl_org.svg" target="_base">
           <rect id="button" ry="5" rx="5" y="6" x="6" height="38" width="38"
                fill="#f2f5e9" fill-opacity="0.5" stroke="#606060" stroke-width="1.0"/>
           <path id="arrow"
             d="M 11.500037,31.436501 C 11.940474,20.09759 22.043105,11.32322 32.158766,21.979434 L 37.068811,17.246167 C 37.068811,17.246167 37.088388,32 37.088388,32 L 22.160133,31.978069 C 22.160133,31.978069 26.997745,27.140456 26.997745,27.140456 C 18.528582,18.264221 13.291696,25.230495 11.500037,31.436501 z"
             style="fill:#404040;"/>
          </a>
         </g>
        </svg>
</svg>
