<?xml version="1.0" encoding="UTF-8" standalone="no"?>
<!DOCTYPE svg PUBLIC "-//W3C//DTD SVG 1.1//EN"
 "http://www.w3.org/Graphics/SVG/1.1/DTD/svg11.dtd">
<!-- Generated by graphviz version 8.0.5 (20230430.1635)
 -->
<!-- Title: include/sqsh_reader_private.h Pages: 1 -->
<svg width="501pt" height="2141737pt"
 viewBox="0.00 0.00 500.90 2141737.09" xmlns="http://www.w3.org/2000/svg" xmlns:xlink="http://www.w3.org/1999/xlink">
<g id="graph0" class="graph" transform="scale(1 1) rotate(0) translate(4 2141733.09)">
<title>include/sqsh_reader_private.h</title>
<!-- Node1 -->
<g id="node1" class="node">
<title>Node1</title>
<g id="a_node1"><a xlink:title=" ">
<polygon fill="#999999" stroke="#666666" points="379.65,-2141729.09 221.15,-2141729.09 221.15,-1070916.49 379.65,-1070916.49 379.65,-2141729.09"/>
<text text-anchor="start" x="229.15" y="-2141715.59" font-family="Helvetica,sans-Serif" font-size="10.00">include/sqsh_reader</text>
<text text-anchor="middle" x="300.4" y="-2141705.09" font-family="Helvetica,sans-Serif" font-size="10.00">_private.h</text>
</a>
</g>
</g>
<!-- Node2 -->
<g id="node2" class="node">
<title>Node2</title>
<g id="a_node2"><a xlink:href="sqsh__common_8h.html" target="_top" xlink:title=" ">
<polygon fill="white" stroke="#666666" points="199.15,-1070880.49 85.65,-1070880.49 85.65,-78.31 199.15,-78.31 199.15,-1070880.49"/>
<text text-anchor="middle" x="142.4" y="-1070866.99" font-family="Helvetica,sans-Serif" font-size="10.00">sqsh_common.h</text>
</a>
</g>
</g>
<!-- Node1&#45;&gt;Node2 -->
<g id="edge1" class="edge">
<title>Node1&#45;&gt;Node2</title>
<path fill="none" stroke="#63b8ff" d="M220.65,-1150952.11C216.37,-1123859.31 212.25,-1097011.24 208.4,-1070880.49 205.44,-1050878.23 202.52,-1030455.63 199.65,-1009824.68"/>
<polygon fill="#63b8ff" stroke="#63b8ff" points="203.15,-1009824.82 199.65,-1009814.82 196.15,-1009824.82 203.15,-1009824.82"/>
</g>
<!-- Node6 -->
<g id="node6" class="node">
<title>Node6</title>
<g id="a_node6"><a xlink:title=" ">
<polygon fill="#e0e0e0" stroke="#999999" points="383.4,-535492.4 217.4,-535492.4 217.4,-535466.4 383.4,-535466.4 383.4,-535492.4"/>
<text text-anchor="middle" x="300.4" y="-535478.9" font-family="Helvetica,sans-Serif" font-size="10.00">cextras/collection.h</text>
</a>
</g>
</g>
<!-- Node1&#45;&gt;Node6 -->
<g id="edge5" class="edge">
<title>Node1&#45;&gt;Node6</title>
<path fill="none" stroke="#63b8ff" d="M300.4,-1070916.03C300.4,-804637.1 300.4,-538353.24 300.4,-535503.48"/>
<polygon fill="#63b8ff" stroke="#63b8ff" points="303.9,-535503.64 300.4,-535493.64 296.9,-535503.64 303.9,-535503.64"/>
</g>
<!-- Node7 -->
<g id="node7" class="node">
<title>Node7</title>
<g id="a_node7"><a xlink:title=" ">
<polygon fill="#e0e0e0" stroke="#999999" points="492.9,-535488.65 401.9,-535488.65 401.9,-535470.15 492.9,-535470.15 492.9,-535488.65"/>
<text text-anchor="middle" x="447.4" y="-535475.15" font-family="Helvetica,sans-Serif" font-size="10.00">sys/wait.h</text>
</a>
</g>
</g>
<!-- Node1&#45;&gt;Node7 -->
<g id="edge6" class="edge">
<title>Node1&#45;&gt;Node7</title>
<path fill="none" stroke="#63b8ff" d="M380.15,-1155143.61C384.5,-1126629.06 388.62,-1098358.18 392.4,-1070880.49 424.91,-834042.04 447.19,-538271.95 447.39,-535500.03"/>
<polygon fill="#63b8ff" stroke="#63b8ff" points="450.89,-535500.04 447.39,-535490.04 443.89,-535500.04 450.89,-535500.04"/>
</g>
<!-- Node3 -->
<g id="node3" class="node">
<title>Node3</title>
<g id="a_node3"><a xlink:title=" ">
<polygon fill="#e0e0e0" stroke="#999999" points="86.15,-30.44 2.65,-30.44 2.65,-11.87 86.15,-11.87 86.15,-30.44"/>
<text text-anchor="middle" x="44.4" y="-16.94" font-family="Helvetica,sans-Serif" font-size="10.00">stdbool.h</text>
</a>
</g>
</g>
<!-- Node2&#45;&gt;Node3 -->
<g id="edge2" class="edge">
<title>Node2&#45;&gt;Node3</title>
<path fill="none" stroke="#63b8ff" d="M85.15,-222673.96C63.85,-106330.09 44.7,-1679.51 44.4,-41.64"/>
<polygon fill="#63b8ff" stroke="#63b8ff" points="47.9,-41.85 44.4,-31.85 40.9,-41.86 47.9,-41.85"/>
</g>
<!-- Node4 -->
<g id="node4" class="node">
<title>Node4</title>
<g id="a_node4"><a xlink:title=" ">
<polygon fill="#e0e0e0" stroke="#999999" points="180.4,-34.16 104.4,-34.16 104.4,-8.16 180.4,-8.16 180.4,-34.16"/>
<text text-anchor="middle" x="142.4" y="-20.66" font-family="Helvetica,sans-Serif" font-size="10.00">stddef.h</text>
</a>
</g>
</g>
<!-- Node2&#45;&gt;Node4 -->
<g id="edge3" class="edge">
<title>Node2&#45;&gt;Node4</title>
<path fill="none" stroke="#63b8ff" d="M142.4,-77.95C142.4,-64.7 142.4,-53.8 142.4,-45.26"/>
<polygon fill="#63b8ff" stroke="#63b8ff" points="145.9,-45.44 142.4,-35.44 138.9,-45.44 145.9,-45.44"/>
</g>
<!-- Node5 -->
<g id="node5" class="node">
<title>Node5</title>
<g id="a_node5"><a xlink:title=" ">
<polygon fill="#e0e0e0" stroke="#999999" points="274.4,-42.31 198.4,-42.31 198.4,0 274.4,0 274.4,-42.31"/>
<text text-anchor="middle" x="236.4" y="-28.81" font-family="Helvetica,sans-Serif" font-size="10.00">stdint.h</text>
</a>
</g>
</g>
<!-- Node2&#45;&gt;Node5 -->
<g id="edge4" class="edge">
<title>Node2&#45;&gt;Node5</title>
<path fill="none" stroke="#63b8ff" d="M85.15,-437773.2C4.29,-283676.05 -101.41,-1393.61 208.4,-78.31 210.49,-69.42 214.22,-60.32 218.29,-52.11"/>
<polygon fill="#63b8ff" stroke="#63b8ff" points="221.73,-54.09 223.33,-43.61 215.55,-50.8 221.73,-54.09"/>
</g>
</g>
</svg>
