<?xml version="1.0" encoding="UTF-8" standalone="no"?>
<!DOCTYPE svg PUBLIC "-//W3C//DTD SVG 1.1//EN"
 "http://www.w3.org/Graphics/SVG/1.1/DTD/svg11.dtd">
<!-- Generated by graphviz version 8.0.5 (20230430.1635)
 -->
<!-- Title: sqsh.h Pages: 1 -->
<!--zoomable 2161829 -->
<svg id="main" version="1.1" xmlns="http://www.w3.org/2000/svg" xmlns:xlink="http://www.w3.org/1999/xlink" xml:space="preserve" onload="init(evt)">
<style type="text/css"><![CDATA[
.edge:hover path { stroke: red; }
.edge:hover polygon { stroke: red; fill: red; }
]]></style>
<script type="text/javascript"><![CDATA[
var edges = document.getElementsByTagName('g');
if (edges && edges.length) {
  for (var i=0;i<edges.length;i++) {
    if (edges[i].id.substr(0,4)=='edge') {
      edges[i].setAttribute('class','edge');
    }
  }
}
]]></script>
        <defs>
                <circle id="rim" cx="0" cy="0" r="7"/>
                <circle id="rim2" cx="0" cy="0" r="3.5"/>
                <g id="zoomPlus">
                        <use xlink:href="#rim" fill="#404040">
                                <set attributeName="fill" to="#808080" begin="zoomplus.mouseover" end="zoomplus.mouseout"/>
                        </use>
                        <path d="M-4,0h8M0,-4v8" fill="none" stroke="white" stroke-width="1.5" pointer-events="none"/>
                </g>
                <g id="zoomMin">
                        <use xlink:href="#rim" fill="#404040">
                                <set attributeName="fill" to="#808080" begin="zoomminus.mouseover" end="zoomminus.mouseout"/>
                        </use>
                        <path d="M-4,0h8" fill="none" stroke="white" stroke-width="1.5" pointer-events="none"/>
                </g>
                <g id="dirArrow">
                        <path fill="none" stroke="white" stroke-width="1.5" d="M0,-3.0v7 M-2.5,-0.5L0,-3.0L2.5,-0.5"/>
                </g>
               <g id="resetDef">
                       <use xlink:href="#rim2" fill="#404040">
                               <set attributeName="fill" to="#808080" begin="reset.mouseover" end="reset.mouseout"/>
                       </use>
               </g>
        </defs>

<script type="text/javascript">
var viewWidth = 1011;
var viewHeight = 2161829;
var sectionId = 'dynsection-0';
</script>
<script xlink:href="svgpan.js"/>
<svg id="graph" class="graph">
<g id="viewport">
<title>sqsh.h</title>
<!-- Node1 -->
<g id="node1" class="node">
<title>Node1</title>
<g id="a_node1"><a xlink:title=" ">
<polygon fill="#999999" stroke="#666666" points="570.43,-2161820.95 509.43,-2161820.95 509.43,-2161802.45 570.43,-2161802.45 570.43,-2161820.95"/>
<text text-anchor="middle" x="539.93" y="-2161807.45" font-family="Helvetica,sans-Serif" font-size="10.00">sqsh.h</text>
</a>
</g>
</g>
<!-- Node2 -->
<g id="node2" class="node">
<title>Node2</title>
<g id="a_node2"><a xlink:href="sqsh__archive_8h.html" target="_top" xlink:title=" ">
<polygon fill="white" stroke="#666666" points="991.43,-1801428.63 870.43,-1801428.63 870.43,-1801410.13 991.43,-1801410.13 991.43,-1801428.63"/>
<text text-anchor="middle" x="930.93" y="-1801415.13" font-family="Helvetica,sans-Serif" font-size="10.00">sqsh_archive.h</text>
</a>
</g>
</g>
<!-- Node1&#45;&gt;Node2 -->
<g id="edge1" class="edge">
<title>Node1&#45;&gt;Node2</title>
<path fill="none" stroke="#63b8ff" d="M570.82,-2161809.24C654.55,-2161804.96 881.02,-2161791.2 902.93,-2161766.45 1109.43,-2161533.27 932.45,-1804466.17 930.94,-1801439.73"/>
<polygon fill="#63b8ff" stroke="#63b8ff" points="934.44,-1801439.88 930.94,-1801429.88 927.44,-1801439.88 934.44,-1801439.88"/>
</g>
<!-- Node3 -->
<g id="node3" class="node">
<title>Node3</title>
<g id="a_node3"><a xlink:href="sqsh__common_8h.html" target="_top" xlink:title=" ">
<polygon fill="white" stroke="#666666" points="736.68,-1441114.81 623.18,-1441114.81 623.18,-720575.45 736.68,-720575.45 736.68,-1441114.81"/>
<text text-anchor="middle" x="679.93" y="-1441101.31" font-family="Helvetica,sans-Serif" font-size="10.00">sqsh_common.h</text>
</a>
</g>
</g>
<!-- Node1&#45;&gt;Node3 -->
<g id="edge11" class="edge">
<title>Node1&#45;&gt;Node3</title>
<path fill="none" stroke="#63b8ff" d="M570.79,-2161809.58C649.59,-2161806.33 856.35,-2161795.22 917.93,-2161766.45 963.93,-2161744.96 980.85,-2161734.59 1000.93,-2161687.96 1000.93,-2161687.96 1000.93,-1441150.81 1000.93,-1441150.81 951.3,-1329728.21 815.33,-1198923.65 737.2,-1129653.35"/>
<polygon fill="#63b8ff" stroke="#63b8ff" points="740.69,-1129653.64 737.18,-1129643.65 733.69,-1129653.65 740.69,-1129653.64"/>
</g>
<!-- Node7 -->
<g id="node7" class="node">
<title>Node7</title>
<g id="a_node7"><a xlink:href="sqsh__chrome_8h.html" target="_top" xlink:title=" ">
<polygon fill="white" stroke="#666666" points="596.68,-2161754.45 483.18,-2161754.45 483.18,-2161735.95 596.68,-2161735.95 596.68,-2161754.45"/>
<text text-anchor="middle" x="539.93" y="-2161740.95" font-family="Helvetica,sans-Serif" font-size="10.00">sqsh_chrome.h</text>
</a>
</g>
</g>
<!-- Node1&#45;&gt;Node7 -->
<g id="edge6" class="edge">
<title>Node1&#45;&gt;Node7</title>
<path fill="none" stroke="#63b8ff" d="M539.93,-2161802C539.93,-2161792.72 539.93,-2161777.71 539.93,-2161765.59"/>
<polygon fill="#63b8ff" stroke="#63b8ff" points="543.43,-2161765.76 539.93,-2161755.76 536.43,-2161765.76 543.43,-2161765.76"/>
</g>
<!-- Node11 -->
<g id="node11" class="node">
<title>Node11</title>
<g id="a_node11"><a xlink:href="sqsh__directory_8h.html" target="_top" xlink:title=" ">
<polygon fill="white" stroke="#666666" points="148.93,-2161754.45 12.93,-2161754.45 12.93,-2161735.95 148.93,-2161735.95 148.93,-2161754.45"/>
<text text-anchor="middle" x="80.93" y="-2161740.95" font-family="Helvetica,sans-Serif" font-size="10.00">sqsh_directory.h</text>
</a>
</g>
</g>
<!-- Node1&#45;&gt;Node11 -->
<g id="edge12" class="edge">
<title>Node1&#45;&gt;Node11</title>
<path fill="none" stroke="#63b8ff" d="M508.95,-2161808.39C444.28,-2161803.27 290.35,-2161789.57 162.93,-2161766.45 149.75,-2161764.06 135.52,-2161760.79 122.68,-2161757.58"/>
<polygon fill="#63b8ff" stroke="#63b8ff" points="123.83,-2161754.01 113.28,-2161754.92 122.1,-2161760.79 123.83,-2161754.01"/>
</g>
<!-- Node12 -->
<g id="node12" class="node">
<title>Node12</title>
<g id="a_node12"><a xlink:href="sqsh__inode_8h.html" target="_top" xlink:title=" ">
<polygon fill="white" stroke="#666666" points="205.93,-1801428.63 99.93,-1801428.63 99.93,-1801410.13 205.93,-1801410.13 205.93,-1801428.63"/>
<text text-anchor="middle" x="152.93" y="-1801415.13" font-family="Helvetica,sans-Serif" font-size="10.00">sqsh_inode.h</text>
</a>
</g>
</g>
<!-- Node1&#45;&gt;Node12 -->
<g id="edge19" class="edge">
<title>Node1&#45;&gt;Node12</title>
<path fill="none" stroke="#63b8ff" d="M509.21,-2161809.03C428.73,-2161804.34 216.52,-2161789.85 195.93,-2161766.45 -215.53,-2161298.73 149.81,-1804464.18 152.91,-1801439.72"/>
<polygon fill="#63b8ff" stroke="#63b8ff" points="156.41,-1801439.88 152.92,-1801429.88 149.41,-1801439.87 156.41,-1801439.88"/>
</g>
<!-- Node13 -->
<g id="node13" class="node">
<title>Node13</title>
<g id="a_node13"><a xlink:href="sqsh__error_8h.html" target="_top" xlink:title=" ">
<polygon fill="white" stroke="#666666" points="426.93,-2161766.45 320.93,-2161766.45 320.93,-2161723.96 426.93,-2161723.96 426.93,-2161766.45"/>
<text text-anchor="middle" x="373.93" y="-2161752.95" font-family="Helvetica,sans-Serif" font-size="10.00">sqsh_error.h</text>
</a>
</g>
</g>
<!-- Node1&#45;&gt;Node13 -->
<g id="edge15" class="edge">
<title>Node1&#45;&gt;Node13</title>
<path fill="none" stroke="#63b8ff" d="M517.55,-2161802C496.97,-2161794.01 465.48,-2161781.77 437.22,-2161770.79"/>
<polygon fill="#63b8ff" stroke="#63b8ff" points="438.57,-2161767.18 427.98,-2161766.82 436.04,-2161773.7 438.57,-2161767.18"/>
</g>
<!-- Node14 -->
<g id="node14" class="node">
<title>Node14</title>
<g id="a_node14"><a xlink:href="sqsh__file_8h.html" target="_top" xlink:title=" ">
<polygon fill="white" stroke="#666666" points="398.18,-1801428.63 299.68,-1801428.63 299.68,-1801410.13 398.18,-1801410.13 398.18,-1801428.63"/>
<text text-anchor="middle" x="348.93" y="-1801415.13" font-family="Helvetica,sans-Serif" font-size="10.00">sqsh_file.h</text>
</a>
</g>
</g>
<!-- Node1&#45;&gt;Node14 -->
<g id="edge17" class="edge">
<title>Node1&#45;&gt;Node14</title>
<path fill="none" stroke="#63b8ff" d="M524.38,-2161801.98C510.42,-2161793.77 489.75,-2161780.64 473.93,-2161766.45 469.69,-2161762.65 409.89,-2161693.31 407.93,-2161687.96 194.57,-2161102.83 347.62,-1804462.52 348.93,-1801439.71"/>
<polygon fill="#63b8ff" stroke="#63b8ff" points="352.43,-1801439.87 348.93,-1801429.87 345.43,-1801439.87 352.43,-1801439.87"/>
</g>
<!-- Node15 -->
<g id="node15" class="node">
<title>Node15</title>
<g id="a_node15"><a xlink:href="sqsh__mapper_8h.html" target="_top" xlink:title=" ">
<polygon fill="white" stroke="#666666" points="766.68,-2161754.45 653.18,-2161754.45 653.18,-2161735.95 766.68,-2161735.95 766.68,-2161754.45"/>
<text text-anchor="middle" x="709.93" y="-2161740.95" font-family="Helvetica,sans-Serif" font-size="10.00">sqsh_mapper.h</text>
</a>
</g>
</g>
<!-- Node1&#45;&gt;Node15 -->
<g id="edge20" class="edge">
<title>Node1&#45;&gt;Node15</title>
<path fill="none" stroke="#63b8ff" d="M562.86,-2161802C592.22,-2161790.86 643.3,-2161771.48 676.87,-2161758.75"/>
<polygon fill="#63b8ff" stroke="#63b8ff" points="677.99,-2161761.69 686.1,-2161754.87 675.51,-2161755.14 677.99,-2161761.69"/>
</g>
<!-- Node16 -->
<g id="node16" class="node">
<title>Node16</title>
<g id="a_node16"><a xlink:href="sqsh__table_8h.html" target="_top" xlink:title=" ">
<polygon fill="white" stroke="#666666" points="813.93,-1801428.63 707.93,-1801428.63 707.93,-1801410.13 813.93,-1801410.13 813.93,-1801428.63"/>
<text text-anchor="middle" x="760.93" y="-1801415.13" font-family="Helvetica,sans-Serif" font-size="10.00">sqsh_table.h</text>
</a>
</g>
</g>
<!-- Node1&#45;&gt;Node16 -->
<g id="edge21" class="edge">
<title>Node1&#45;&gt;Node16</title>
<path fill="none" stroke="#63b8ff" d="M555.11,-2161802.03C569.01,-2161793.75 589.8,-2161780.48 605.93,-2161766.45 625.05,-2161749.82 626.4,-2161742.25 643.93,-2161723.96 659.81,-2161707.4 672.01,-2161709.09 680.93,-2161687.96 923.27,-2161114.22 762.31,-1804462.62 760.94,-1801439.71"/>
<polygon fill="#63b8ff" stroke="#63b8ff" points="764.44,-1801439.87 760.94,-1801429.87 757.44,-1801439.87 764.44,-1801439.87"/>
</g>
<!-- Node17 -->
<g id="node17" class="node">
<title>Node17</title>
<g id="a_node17"><a xlink:href="sqsh__tree_8h.html" target="_top" xlink:title=" ">
<polygon fill="white" stroke="#666666" points="303.18,-2161758.2 204.68,-2161758.2 204.68,-2161732.2 303.18,-2161732.2 303.18,-2161758.2"/>
<text text-anchor="middle" x="253.93" y="-2161744.7" font-family="Helvetica,sans-Serif" font-size="10.00">sqsh_tree.h</text>
</a>
</g>
</g>
<!-- Node1&#45;&gt;Node17 -->
<g id="edge23" class="edge">
<title>Node1&#45;&gt;Node17</title>
<path fill="none" stroke="#63b8ff" d="M509,-2161806.15C464.85,-2161799.33 381.42,-2161785.22 311.93,-2161766.45 307.04,-2161765.13 301.97,-2161763.6 296.95,-2161761.99"/>
<polygon fill="#63b8ff" stroke="#63b8ff" points="298.39,-2161758.45 287.8,-2161758.6 296.18,-2161765.09 298.39,-2161758.45"/>
</g>
<!-- Node18 -->
<g id="node18" class="node">
<title>Node18</title>
<g id="a_node18"><a xlink:href="sqsh__xattr_8h.html" target="_top" xlink:title=" ">
<polygon fill="white" stroke="#666666" points="893.93,-2161766.45 787.93,-2161766.45 787.93,-2161723.96 893.93,-2161723.96 893.93,-2161766.45"/>
<text text-anchor="middle" x="840.93" y="-2161752.95" font-family="Helvetica,sans-Serif" font-size="10.00">sqsh_xattr.h</text>
</a>
</g>
</g>
<!-- Node1&#45;&gt;Node18 -->
<g id="edge26" class="edge">
<title>Node1&#45;&gt;Node18</title>
<path fill="none" stroke="#63b8ff" d="M570.73,-2161806.1C616.02,-2161799.08 703.11,-2161784.55 775.93,-2161766.45 776.29,-2161766.36 776.64,-2161766.27 777,-2161766.18"/>
<polygon fill="#63b8ff" stroke="#63b8ff" points="777.75,-2161769.34 786.51,-2161763.39 775.95,-2161762.58 777.75,-2161769.34"/>
</g>
<!-- Node2&#45;&gt;Node3 -->
<g id="edge2" class="edge">
<title>Node2&#45;&gt;Node3</title>
<path fill="none" stroke="#63b8ff" d="M930.93,-1801409.8C930.79,-1799904.16 911.5,-1600663.81 855.93,-1441150.81 825.53,-1353865.13 775.98,-1254685.17 737.19,-1182510.54"/>
<polygon fill="#63b8ff" stroke="#63b8ff" points="740.69,-1182510.8 737.18,-1182500.8 733.69,-1182510.8 740.69,-1182510.8"/>
</g>
<!-- Node4 -->
<g id="node4" class="node">
<title>Node4</title>
<g id="a_node4"><a xlink:title=" ">
<polygon fill="#e0e0e0" stroke="#999999" points="623.68,-720539.45 540.18,-720539.45 540.18,0 623.68,0 623.68,-720539.45"/>
<text text-anchor="middle" x="581.93" y="-720525.95" font-family="Helvetica,sans-Serif" font-size="10.00">stdbool.h</text>
</a>
</g>
</g>
<!-- Node3&#45;&gt;Node4 -->
<g id="edge3" class="edge">
<title>Node3&#45;&gt;Node4</title>
<path fill="none" stroke="#63b8ff" d="M630.94,-720574.95C628.68,-703982.04 626.42,-687389.09 624.18,-670936.86"/>
<polygon fill="#63b8ff" stroke="#63b8ff" points="627.68,-670936.94 624.18,-670926.94 620.68,-670936.94 627.68,-670936.94"/>
</g>
<!-- Node5 -->
<g id="node5" class="node">
<title>Node5</title>
<g id="a_node5"><a xlink:title=" ">
<polygon fill="#e0e0e0" stroke="#999999" points="717.93,-360279.01 641.93,-360279.01 641.93,-360260.43 717.93,-360260.43 717.93,-360279.01"/>
<text text-anchor="middle" x="679.93" y="-360265.51" font-family="Helvetica,sans-Serif" font-size="10.00">stddef.h</text>
</a>
</g>
</g>
<!-- Node3&#45;&gt;Node5 -->
<g id="edge4" class="edge">
<title>Node3&#45;&gt;Node5</title>
<path fill="none" stroke="#63b8ff" d="M679.93,-720574.95C679.93,-541512.84 679.93,-362444.97 679.93,-360290.36"/>
<polygon fill="#63b8ff" stroke="#63b8ff" points="683.43,-360290.48 679.93,-360280.48 676.43,-360290.48 683.43,-360290.48"/>
</g>
<!-- Node6 -->
<g id="node6" class="node">
<title>Node6</title>
<g id="a_node6"><a xlink:title=" ">
<polygon fill="#e0e0e0" stroke="#999999" points="811.93,-360278.97 735.93,-360278.97 735.93,-360260.47 811.93,-360260.47 811.93,-360278.97"/>
<text text-anchor="middle" x="773.93" y="-360265.47" font-family="Helvetica,sans-Serif" font-size="10.00">stdint.h</text>
</a>
</g>
</g>
<!-- Node3&#45;&gt;Node6 -->
<g id="edge5" class="edge">
<title>Node3&#45;&gt;Node6</title>
<path fill="none" stroke="#63b8ff" d="M726.93,-720574.95C750.29,-541501.87 773.65,-362423.02 773.93,-360289.97"/>
<polygon fill="#63b8ff" stroke="#63b8ff" points="777.43,-360290.22 773.93,-360280.22 770.43,-360290.22 777.43,-360290.22"/>
</g>
<!-- Node7&#45;&gt;Node3 -->
<g id="edge7" class="edge">
<title>Node7&#45;&gt;Node3</title>
<path fill="none" stroke="#63b8ff" d="M566.73,-2161735.53C598.98,-2161724.48 650.19,-2161704.8 660.93,-2161687.96 660.93,-2161687.96 668.07,-1755491.43 673.6,-1441125.77"/>
<polygon fill="#63b8ff" stroke="#63b8ff" points="677.1,-1441125.98 673.6,-1441115.98 670.1,-1441125.98 677.1,-1441125.98"/>
</g>
<!-- Node8 -->
<g id="node8" class="node">
<title>Node8</title>
<g id="a_node8"><a xlink:title=" ">
<polygon fill="#e0e0e0" stroke="#999999" points="485.18,-1801428.63 416.68,-1801428.63 416.68,-1801410.13 485.18,-1801410.13 485.18,-1801428.63"/>
<text text-anchor="middle" x="450.93" y="-1801415.13" font-family="Helvetica,sans-Serif" font-size="10.00">fcntl.h</text>
</a>
</g>
</g>
<!-- Node7&#45;&gt;Node8 -->
<g id="edge8" class="edge">
<title>Node7&#45;&gt;Node8</title>
<path fill="none" stroke="#63b8ff" d="M529.71,-2161735.5C518.69,-2161725.38 501.81,-2161707.55 494.93,-2161687.96 391.83,-2161394.11 450.43,-1804464.99 450.93,-1801439.72"/>
<polygon fill="#63b8ff" stroke="#63b8ff" points="454.43,-1801439.88 450.93,-1801429.88 447.43,-1801439.88 454.43,-1801439.88"/>
</g>
<!-- Node9 -->
<g id="node9" class="node">
<title>Node9</title>
<g id="a_node9"><a xlink:title=" ">
<polygon fill="#e0e0e0" stroke="#999999" points="572.18,-2161687.96 503.68,-2161687.96 503.68,-1441150.81 572.18,-1441150.81 572.18,-2161687.96"/>
<text text-anchor="middle" x="537.93" y="-2161674.46" font-family="Helvetica,sans-Serif" font-size="10.00">stdio.h</text>
</a>
</g>
</g>
<!-- Node7&#45;&gt;Node9 -->
<g id="edge9" class="edge">
<title>Node7&#45;&gt;Node9</title>
<path fill="none" stroke="#63b8ff" d="M539.93,-2161735.7C539.93,-2161728.26 539.93,-2161715.94 539.93,-2161698.78"/>
<polygon fill="#63b8ff" stroke="#63b8ff" points="543.43,-2161699.12 539.93,-2161689.12 536.43,-2161699.12 543.43,-2161699.12"/>
</g>
<!-- Node10 -->
<g id="node10" class="node">
<title>Node10</title>
<g id="a_node10"><a xlink:title=" ">
<polygon fill="#e0e0e0" stroke="#999999" points="651.43,-2161608.3 590.43,-2161608.3 590.43,-1441230.47 651.43,-1441230.47 651.43,-2161608.3"/>
<text text-anchor="middle" x="620.93" y="-2161594.8" font-family="Helvetica,sans-Serif" font-size="10.00">time.h</text>
</a>
</g>
</g>
<!-- Node7&#45;&gt;Node10 -->
<g id="edge10" class="edge">
<title>Node7&#45;&gt;Node10</title>
<path fill="none" stroke="#63b8ff" d="M548.91,-2161735.68C558.95,-2161725.45 574.64,-2161707.26 580.93,-2161687.96 584.08,-2161678.3 587.06,-2161289.41 589.89,-2160545.91"/>
<polygon fill="#63b8ff" stroke="#63b8ff" points="593.4,-2160545.95 589.93,-2160535.94 586.4,-2160545.93 593.4,-2160545.95"/>
</g>
<!-- Node11&#45;&gt;Node12 -->
<g id="edge13" class="edge">
<title>Node11&#45;&gt;Node12</title>
<path fill="none" stroke="#63b8ff" d="M80.94,-2161735.7C81.34,-2159732.27 152.33,-1804450.9 152.93,-1801439.63"/>
<polygon fill="#63b8ff" stroke="#63b8ff" points="156.43,-1801439.84 152.93,-1801429.84 149.43,-1801439.84 156.43,-1801439.84"/>
</g>
<!-- Node12&#45;&gt;Node3 -->
<g id="edge14" class="edge">
<title>Node12&#45;&gt;Node3</title>
<path fill="none" stroke="#63b8ff" d="M152.93,-1801409.8C152.56,-1799904.16 103.28,-1600663.77 219.93,-1441150.81 307.24,-1321775.08 520.01,-1180151.8 622.67,-1115790.2"/>
<polygon fill="#63b8ff" stroke="#63b8ff" points="626.17,-1115790.52 622.68,-1115780.52 619.17,-1115790.51 626.17,-1115790.52"/>
</g>
<!-- Node13&#45;&gt;Node3 -->
<g id="edge16" class="edge">
<title>Node13&#45;&gt;Node3</title>
<path fill="none" stroke="#63b8ff" d="M327.24,-2161723.6C312.96,-2161714.8 298.93,-2161703.03 290.93,-2161687.96 290.93,-2161687.96 290.93,-1441150.81 290.93,-1441150.81 353.74,-1324804 530.63,-1187324.27 622.67,-1120836.91"/>
<polygon fill="#63b8ff" stroke="#63b8ff" points="626.17,-1120837.27 622.68,-1120827.26 619.17,-1120837.26 626.17,-1120837.27"/>
</g>
<!-- Node14&#45;&gt;Node3 -->
<g id="edge18" class="edge">
<title>Node14&#45;&gt;Node3</title>
<path fill="none" stroke="#63b8ff" d="M348.93,-1801409.8C348.82,-1799904.16 334.66,-1600663.8 407.93,-1441150.81 456.19,-1336086.99 558.21,-1213790.27 622.67,-1142099.07"/>
<polygon fill="#63b8ff" stroke="#63b8ff" points="626.17,-1142099.41 622.68,-1142089.41 619.17,-1142099.41 626.17,-1142099.41"/>
</g>
<!-- Node16&#45;&gt;Node3 -->
<g id="edge22" class="edge">
<title>Node16&#45;&gt;Node3</title>
<path fill="none" stroke="#63b8ff" d="M760.93,-1801409.89C760.77,-1799989.01 740.6,-1620556.46 720.43,-1441125.99"/>
<polygon fill="#63b8ff" stroke="#63b8ff" points="723.93,-1441126.21 720.43,-1441116.21 716.93,-1441126.21 723.93,-1441126.21"/>
</g>
<!-- Node17&#45;&gt;Node3 -->
<g id="edge24" class="edge">
<title>Node17&#45;&gt;Node3</title>
<path fill="none" stroke="#63b8ff" d="M253.93,-2161731.82C253.62,-2158702.66 196.18,-1600847.72 286.93,-1441150.81 353.05,-1324807.67 530.54,-1187332.93 622.67,-1120843.2"/>
<polygon fill="#63b8ff" stroke="#63b8ff" points="626.17,-1120843.55 622.68,-1120833.55 619.17,-1120843.54 626.17,-1120843.55"/>
</g>
<!-- Node17&#45;&gt;Node12 -->
<g id="edge25" class="edge">
<title>Node17&#45;&gt;Node12</title>
<path fill="none" stroke="#63b8ff" d="M243.64,-2161731.74C235.41,-2161720.92 224.53,-2161704.44 219.93,-2161687.96 -114.65,-2160488.11 150.66,-1804457.31 152.92,-1801439.67"/>
<polygon fill="#63b8ff" stroke="#63b8ff" points="156.42,-1801439.86 152.93,-1801429.86 149.42,-1801439.86 156.42,-1801439.86"/>
</g>
<!-- Node18&#45;&gt;Node3 -->
<g id="edge27" class="edge">
<title>Node18&#45;&gt;Node3</title>
<path fill="none" stroke="#63b8ff" d="M840.94,-2161723.55C841.34,-2158422.53 890.21,-1760085.31 822.93,-1441150.81 805.76,-1359743.84 769.09,-1267990.79 737.19,-1197449.07"/>
<polygon fill="#63b8ff" stroke="#63b8ff" points="740.69,-1197449.17 737.18,-1197439.17 733.69,-1197449.17 740.69,-1197449.17"/>
</g>
</g>
</svg>
        <g id="navigator" transform="translate(0 0)" fill="#404254">
                <rect fill="#f2f5e9" fill-opacity="0.5" stroke="#606060" stroke-width=".5" x="0" y="0" width="60" height="60"/>
                <use id="zoomplus" xlink:href="#zoomPlus" x="17" y="9" onmousedown="handleZoom(evt,'in')"/>
                <use id="zoomminus" xlink:href="#zoomMin" x="42" y="9" onmousedown="handleZoom(evt,'out')"/>
                <use id="reset" xlink:href="#resetDef" x="30" y="36" onmousedown="handleReset()"/>
                <g id="arrowUp" xlink:href="#dirArrow" transform="translate(30 24)" onmousedown="handlePan(0,-1)">
                  <use xlink:href="#rim" fill="#404040">
                        <set attributeName="fill" to="#808080" begin="arrowUp.mouseover" end="arrowUp.mouseout"/>
                  </use>
                  <path fill="none" stroke="white" stroke-width="1.5" d="M0,-3.0v7 M-2.5,-0.5L0,-3.0L2.5,-0.5"/>
                </g>
                <g id="arrowRight" xlink:href="#dirArrow" transform="rotate(90) translate(36 -43)" onmousedown="handlePan(1,0)">
                  <use xlink:href="#rim" fill="#404040">
                        <set attributeName="fill" to="#808080" begin="arrowRight.mouseover" end="arrowRight.mouseout"/>
                  </use>
                  <path fill="none" stroke="white" stroke-width="1.5" d="M0,-3.0v7 M-2.5,-0.5L0,-3.0L2.5,-0.5"/>
                </g>
                <g id="arrowDown" xlink:href="#dirArrow" transform="rotate(180) translate(-30 -48)" onmousedown="handlePan(0,1)">
                  <use xlink:href="#rim" fill="#404040">
                        <set attributeName="fill" to="#808080" begin="arrowDown.mouseover" end="arrowDown.mouseout"/>
                  </use>
                  <path fill="none" stroke="white" stroke-width="1.5" d="M0,-3.0v7 M-2.5,-0.5L0,-3.0L2.5,-0.5"/>
                </g>
                <g id="arrowLeft" xlink:href="#dirArrow" transform="rotate(270) translate(-36 17)" onmousedown="handlePan(-1,0)">
                  <use xlink:href="#rim" fill="#404040">
                        <set attributeName="fill" to="#808080" begin="arrowLeft.mouseover" end="arrowLeft.mouseout"/>
                  </use>
                  <path fill="none" stroke="white" stroke-width="1.5" d="M0,-3.0v7 M-2.5,-0.5L0,-3.0L2.5,-0.5"/>
                </g>
        </g>
        <svg viewBox="0 0 15 15" width="100%" height="30px" preserveAspectRatio="xMaxYMin meet">
         <g id="arrow_out" transform="scale(0.3 0.3)">
          <a xlink:href="sqsh_8h__incl_org.svg" target="_base">
           <rect id="button" ry="5" rx="5" y="6" x="6" height="38" width="38"
                fill="#f2f5e9" fill-opacity="0.5" stroke="#606060" stroke-width="1.0"/>
           <path id="arrow"
             d="M 11.500037,31.436501 C 11.940474,20.09759 22.043105,11.32322 32.158766,21.979434 L 37.068811,17.246167 C 37.068811,17.246167 37.088388,32 37.088388,32 L 22.160133,31.978069 C 22.160133,31.978069 26.997745,27.140456 26.997745,27.140456 C 18.528582,18.264221 13.291696,25.230495 11.500037,31.436501 z"
             style="fill:#404040;"/>
          </a>
         </g>
        </svg>
</svg>
