<?xml version="1.0" encoding="UTF-8" standalone="no"?>
<!DOCTYPE svg PUBLIC "-//W3C//DTD SVG 1.1//EN"
 "http://www.w3.org/Graphics/SVG/1.1/DTD/svg11.dtd">
<!-- Generated by graphviz version 3.0.0 (20220413.0242)
 -->
<!-- Title: sqsh_primitive.h Pages: 1 -->
<svg width="355pt" height="140pt"
 viewBox="0.00 0.00 354.50 140.00" xmlns="http://www.w3.org/2000/svg" xmlns:xlink="http://www.w3.org/1999/xlink">
<g id="graph0" class="graph" transform="scale(1 1) rotate(0) translate(4 136)">
<title>sqsh_primitive.h</title>
<polygon fill="white" stroke="transparent" points="-4,4 -4,-136 350.5,-136 350.5,4 -4,4"/>
<!-- Node1 -->
<g id="node1" class="node">
<title>Node1</title>
<g id="a_node1"><a xlink:title=" ">
<polygon fill="#bfbfbf" stroke="black" points="134,-112.5 134,-131.5 271,-131.5 271,-112.5 134,-112.5"/>
<text text-anchor="middle" x="202.5" y="-119.5" font-family="Helvetica,sans-Serif" font-size="10.00">sqsh_primitive.h</text>
</a>
</g>
</g>
<!-- Node2 -->
<g id="node2" class="node">
<title>Node2</title>
<g id="a_node2"><a xlink:href="sqsh__common_8h.html" target="_top" xlink:title=" ">
<polygon fill="white" stroke="black" points="28.5,-56.5 28.5,-75.5 142.5,-75.5 142.5,-56.5 28.5,-56.5"/>
<text text-anchor="middle" x="85.5" y="-63.5" font-family="Helvetica,sans-Serif" font-size="10.00">sqsh_common.h</text>
</a>
</g>
</g>
<!-- Node1&#45;&gt;Node2 -->
<g id="edge1" class="edge">
<title>Node1&#45;&gt;Node2</title>
<path fill="none" stroke="midnightblue" d="M183.96,-112.44C164.88,-103.64 134.93,-89.81 113.06,-79.72"/>
<polygon fill="midnightblue" stroke="midnightblue" points="114.5,-76.53 103.95,-75.52 111.57,-82.88 114.5,-76.53"/>
</g>
<!-- Node5 -->
<g id="node5" class="node">
<title>Node5</title>
<g id="a_node5"><a xlink:title=" ">
<polygon fill="white" stroke="#bfbfbf" points="160.5,-56.5 160.5,-75.5 244.5,-75.5 244.5,-56.5 160.5,-56.5"/>
<text text-anchor="middle" x="202.5" y="-63.5" font-family="Helvetica,sans-Serif" font-size="10.00">pthread.h</text>
</a>
</g>
</g>
<!-- Node1&#45;&gt;Node5 -->
<g id="edge4" class="edge">
<title>Node1&#45;&gt;Node5</title>
<path fill="none" stroke="midnightblue" d="M202.5,-112.08C202.5,-105.01 202.5,-94.86 202.5,-85.99"/>
<polygon fill="midnightblue" stroke="midnightblue" points="206,-85.75 202.5,-75.75 199,-85.75 206,-85.75"/>
</g>
<!-- Node6 -->
<g id="node6" class="node">
<title>Node6</title>
<g id="a_node6"><a xlink:title=" ">
<polygon fill="white" stroke="#bfbfbf" points="262.5,-56.5 262.5,-75.5 346.5,-75.5 346.5,-56.5 262.5,-56.5"/>
<text text-anchor="middle" x="304.5" y="-63.5" font-family="Helvetica,sans-Serif" font-size="10.00">stdbool.h</text>
</a>
</g>
</g>
<!-- Node1&#45;&gt;Node6 -->
<g id="edge5" class="edge">
<title>Node1&#45;&gt;Node6</title>
<path fill="none" stroke="midnightblue" d="M218.89,-112.32C235.17,-103.7 260.37,-90.36 279.22,-80.39"/>
<polygon fill="midnightblue" stroke="midnightblue" points="280.95,-83.43 288.15,-75.65 277.68,-77.24 280.95,-83.43"/>
</g>
<!-- Node3 -->
<g id="node3" class="node">
<title>Node3</title>
<g id="a_node3"><a xlink:title=" ">
<polygon fill="white" stroke="#bfbfbf" points="0,-0.5 0,-19.5 77,-19.5 77,-0.5 0,-0.5"/>
<text text-anchor="middle" x="38.5" y="-7.5" font-family="Helvetica,sans-Serif" font-size="10.00">stddef.h</text>
</a>
</g>
</g>
<!-- Node2&#45;&gt;Node3 -->
<g id="edge2" class="edge">
<title>Node2&#45;&gt;Node3</title>
<path fill="none" stroke="midnightblue" d="M77.74,-56.08C70.96,-48.3 60.96,-36.8 52.74,-27.37"/>
<polygon fill="midnightblue" stroke="midnightblue" points="55.32,-25 46.12,-19.75 50.04,-29.59 55.32,-25"/>
</g>
<!-- Node4 -->
<g id="node4" class="node">
<title>Node4</title>
<g id="a_node4"><a xlink:title=" ">
<polygon fill="white" stroke="#bfbfbf" points="95,-0.5 95,-19.5 172,-19.5 172,-0.5 95,-0.5"/>
<text text-anchor="middle" x="133.5" y="-7.5" font-family="Helvetica,sans-Serif" font-size="10.00">stdint.h</text>
</a>
</g>
</g>
<!-- Node2&#45;&gt;Node4 -->
<g id="edge3" class="edge">
<title>Node2&#45;&gt;Node4</title>
<path fill="none" stroke="midnightblue" d="M93.43,-56.08C100.35,-48.3 110.57,-36.8 118.95,-27.37"/>
<polygon fill="midnightblue" stroke="midnightblue" points="121.69,-29.55 125.72,-19.75 116.46,-24.9 121.69,-29.55"/>
</g>
</g>
</svg>
