<?xml version="1.0" encoding="UTF-8" standalone="no"?>
<!DOCTYPE svg PUBLIC "-//W3C//DTD SVG 1.1//EN"
 "http://www.w3.org/Graphics/SVG/1.1/DTD/svg11.dtd">
<!-- Generated by graphviz version 7.0.4 (20221203.1631)
 -->
<!-- Title: sqsh_primitive.h Pages: 1 -->
<svg width="556pt" height="247pt"
 viewBox="0.00 0.00 555.71 247.00" xmlns="http://www.w3.org/2000/svg" xmlns:xlink="http://www.w3.org/1999/xlink">
<g id="graph0" class="graph" transform="scale(1 1) rotate(0) translate(4 243)">
<title>sqsh_primitive.h</title>
<!-- Node1 -->
<g id="node1" class="node">
<title>Node1</title>
<g id="a_node1"><a xlink:title=" ">
<polygon fill="#999999" stroke="#666666" points="322.71,-239 185.71,-239 185.71,-220 322.71,-220 322.71,-239"/>
<text text-anchor="middle" x="254.21" y="-227" font-family="Helvetica,sans-Serif" font-size="10.00">sqsh_primitive.h</text>
</a>
</g>
</g>
<!-- Node2 -->
<g id="node2" class="node">
<title>Node2</title>
<g id="a_node2"><a xlink:href="sqsh__context_8h.html" target="_top" xlink:title=" ">
<polygon fill="white" stroke="#666666" points="315.21,-184 193.21,-184 193.21,-165 315.21,-165 315.21,-184"/>
<text text-anchor="middle" x="254.21" y="-172" font-family="Helvetica,sans-Serif" font-size="10.00">sqsh_context.h</text>
</a>
</g>
</g>
<!-- Node1&#45;&gt;Node2 -->
<g id="edge1" class="edge">
<title>Node1&#45;&gt;Node2</title>
<path fill="none" stroke="#63b8ff" d="M254.21,-208.35C254.21,-200.1 254.21,-190.97 254.21,-184.44"/>
<polygon fill="#63b8ff" stroke="#63b8ff" points="250.71,-208.23 254.21,-218.23 257.71,-208.23 250.71,-208.23"/>
</g>
<!-- Node5 -->
<g id="node5" class="node">
<title>Node5</title>
<g id="a_node5"><a xlink:href="sqsh__context__private_8h.html" target="_top" xlink:title=" ">
<polygon fill="white" stroke="#666666" points="400.21,-129 218.21,-129 218.21,-110 400.21,-110 400.21,-129"/>
<text text-anchor="middle" x="309.21" y="-117" font-family="Helvetica,sans-Serif" font-size="10.00">sqsh_context_private.h</text>
</a>
</g>
</g>
<!-- Node1&#45;&gt;Node5 -->
<g id="edge9" class="edge">
<title>Node1&#45;&gt;Node5</title>
<path fill="none" stroke="#63b8ff" d="M289.7,-214.82C303,-207.75 316.7,-197.68 324.21,-184 334.03,-166.13 322.62,-142 314.99,-129.24"/>
<polygon fill="#63b8ff" stroke="#63b8ff" points="288.56,-211.48 281.08,-218.99 291.61,-217.79 288.56,-211.48"/>
</g>
<!-- Node8 -->
<g id="node8" class="node">
<title>Node8</title>
<g id="a_node8"><a xlink:href="sqsh__mapper_8h.html" target="_top" xlink:title=" ">
<polygon fill="white" stroke="#666666" points="175.21,-184 61.21,-184 61.21,-165 175.21,-165 175.21,-184"/>
<text text-anchor="middle" x="118.21" y="-172" font-family="Helvetica,sans-Serif" font-size="10.00">sqsh_mapper.h</text>
</a>
</g>
</g>
<!-- Node1&#45;&gt;Node8 -->
<g id="edge10" class="edge">
<title>Node1&#45;&gt;Node8</title>
<path fill="none" stroke="#63b8ff" d="M220.73,-215.45C195.91,-205.78 162.74,-192.85 140.94,-184.36"/>
<polygon fill="#63b8ff" stroke="#63b8ff" points="219.14,-218.59 229.73,-218.96 221.68,-212.07 219.14,-218.59"/>
</g>
<!-- Node3 -->
<g id="node3" class="node">
<title>Node3</title>
<g id="a_node3"><a xlink:href="sqsh_8h.html" target="_top" xlink:title=" ">
<polygon fill="white" stroke="#666666" points="177.21,-74 115.21,-74 115.21,-55 177.21,-55 177.21,-74"/>
<text text-anchor="middle" x="146.21" y="-62" font-family="Helvetica,sans-Serif" font-size="10.00">sqsh.h</text>
</a>
</g>
</g>
<!-- Node2&#45;&gt;Node3 -->
<g id="edge2" class="edge">
<title>Node2&#45;&gt;Node3</title>
<path fill="none" stroke="#63b8ff" d="M237.24,-156.79C228.79,-148.46 218.44,-138.22 209.21,-129 189.65,-109.47 166.83,-86.4 154.74,-74.15"/>
<polygon fill="#63b8ff" stroke="#63b8ff" points="234.56,-159.07 244.14,-163.6 239.48,-154.08 234.56,-159.07"/>
</g>
<!-- Node2&#45;&gt;Node5 -->
<g id="edge4" class="edge">
<title>Node2&#45;&gt;Node5</title>
<path fill="none" stroke="#63b8ff" d="M271.56,-156.78C280.96,-147.72 292.2,-136.9 299.93,-129.44"/>
<polygon fill="#63b8ff" stroke="#63b8ff" points="269.16,-154.24 264.38,-163.7 274.01,-159.28 269.16,-154.24"/>
</g>
<!-- Node7 -->
<g id="node7" class="node">
<title>Node7</title>
<g id="a_node7"><a xlink:href="sqsh__iterator_8h.html" target="_top" xlink:title=" ">
<polygon fill="white" stroke="#666666" points="547.71,-129 418.71,-129 418.71,-110 547.71,-110 547.71,-129"/>
<text text-anchor="middle" x="483.21" y="-117" font-family="Helvetica,sans-Serif" font-size="10.00">sqsh_iterator.h</text>
</a>
</g>
</g>
<!-- Node2&#45;&gt;Node7 -->
<g id="edge7" class="edge">
<title>Node2&#45;&gt;Node7</title>
<path fill="none" stroke="#63b8ff" d="M304.2,-161.93C346.39,-152.17 405.94,-138.38 444.56,-129.45"/>
<polygon fill="#63b8ff" stroke="#63b8ff" points="303.49,-158.5 294.53,-164.17 305.06,-165.32 303.49,-158.5"/>
</g>
<!-- Node4 -->
<g id="node4" class="node">
<title>Node4</title>
<g id="a_node4"><a xlink:href="sqsh__private_8h.html" target="_top" xlink:title=" ">
<polygon fill="white" stroke="#666666" points="166.21,-19 44.21,-19 44.21,0 166.21,0 166.21,-19"/>
<text text-anchor="middle" x="105.21" y="-7" font-family="Helvetica,sans-Serif" font-size="10.00">sqsh_private.h</text>
</a>
</g>
</g>
<!-- Node3&#45;&gt;Node4 -->
<g id="edge3" class="edge">
<title>Node3&#45;&gt;Node4</title>
<path fill="none" stroke="#63b8ff" d="M132.4,-45.65C125.58,-36.84 117.66,-26.59 112.13,-19.44"/>
<polygon fill="#63b8ff" stroke="#63b8ff" points="129.63,-47.78 138.51,-53.55 135.16,-43.5 129.63,-47.78"/>
</g>
<!-- Node5&#45;&gt;Node4 -->
<g id="edge6" class="edge">
<title>Node5&#45;&gt;Node4</title>
<path fill="none" stroke="#63b8ff" d="M282.59,-104.41C239.97,-81.84 157.61,-38.24 122.14,-19.46"/>
<polygon fill="#63b8ff" stroke="#63b8ff" points="280.7,-107.37 291.18,-108.95 283.98,-101.18 280.7,-107.37"/>
</g>
<!-- Node6 -->
<g id="node6" class="node">
<title>Node6</title>
<g id="a_node6"><a xlink:href="sqsh__iterator__private_8h.html" target="_top" xlink:title=" ">
<polygon fill="white" stroke="#666666" points="530.71,-74 341.71,-74 341.71,-55 530.71,-55 530.71,-74"/>
<text text-anchor="middle" x="436.21" y="-62" font-family="Helvetica,sans-Serif" font-size="10.00">sqsh_iterator_private.h</text>
</a>
</g>
</g>
<!-- Node5&#45;&gt;Node6 -->
<g id="edge5" class="edge">
<title>Node5&#45;&gt;Node6</title>
<path fill="none" stroke="#63b8ff" d="M341.1,-105.19C364.21,-95.55 394.81,-82.78 414.99,-74.36"/>
<polygon fill="#63b8ff" stroke="#63b8ff" points="340.03,-101.84 332.15,-108.93 342.73,-108.31 340.03,-101.84"/>
</g>
<!-- Node7&#45;&gt;Node6 -->
<g id="edge8" class="edge">
<title>Node7&#45;&gt;Node6</title>
<path fill="none" stroke="#63b8ff" d="M467.88,-101.22C459.96,-92.28 450.62,-81.74 444.14,-74.44"/>
<polygon fill="#63b8ff" stroke="#63b8ff" points="465.19,-103.46 474.45,-108.62 470.43,-98.81 465.19,-103.46"/>
</g>
<!-- Node8&#45;&gt;Node3 -->
<g id="edge11" class="edge">
<title>Node8&#45;&gt;Node3</title>
<path fill="none" stroke="#63b8ff" d="M125.38,-153.94C128.06,-146.24 130.98,-137.26 133.21,-129 138.43,-109.66 142.68,-86.52 144.78,-74.21"/>
<polygon fill="#63b8ff" stroke="#63b8ff" points="122.11,-152.71 122.03,-163.31 128.7,-155.07 122.11,-152.71"/>
</g>
<!-- Node8&#45;&gt;Node4 -->
<g id="edge13" class="edge">
<title>Node8&#45;&gt;Node4</title>
<path fill="none" stroke="#63b8ff" d="M51.12,-160.85C33.99,-154.26 17.52,-144.24 7.21,-129 -22.33,-85.33 52.04,-38.51 87.57,-19.39"/>
<polygon fill="#63b8ff" stroke="#63b8ff" points="49.8,-164.09 60.39,-164.03 52.07,-157.47 49.8,-164.09"/>
</g>
<!-- Node8&#45;&gt;Node5 -->
<g id="edge12" class="edge">
<title>Node8&#45;&gt;Node5</title>
<path fill="none" stroke="#63b8ff" d="M161.49,-161.49C196.57,-151.76 245.24,-138.25 276.97,-129.45"/>
<polygon fill="#63b8ff" stroke="#63b8ff" points="160.77,-158.06 152.07,-164.1 162.64,-164.8 160.77,-158.06"/>
</g>
<!-- Node9 -->
<g id="node9" class="node">
<title>Node9</title>
<g id="a_node9"><a xlink:href="sqsh__table_8h.html" target="_top" xlink:title=" ">
<polygon fill="white" stroke="#666666" points="123.71,-129 16.71,-129 16.71,-110 123.71,-110 123.71,-129"/>
<text text-anchor="middle" x="70.21" y="-117" font-family="Helvetica,sans-Serif" font-size="10.00">sqsh_table.h</text>
</a>
</g>
</g>
<!-- Node8&#45;&gt;Node9 -->
<g id="edge14" class="edge">
<title>Node8&#45;&gt;Node9</title>
<path fill="none" stroke="#63b8ff" d="M102.56,-156.22C94.46,-147.28 84.92,-136.74 78.31,-129.44"/>
<polygon fill="#63b8ff" stroke="#63b8ff" points="99.96,-158.56 109.27,-163.63 105.15,-153.86 99.96,-158.56"/>
</g>
<!-- Node9&#45;&gt;Node3 -->
<g id="edge15" class="edge">
<title>Node9&#45;&gt;Node3</title>
<path fill="none" stroke="#63b8ff" d="M92.17,-103.19C105.58,-93.84 122.26,-82.21 133.51,-74.36"/>
<polygon fill="#63b8ff" stroke="#63b8ff" points="90.55,-100.05 84.34,-108.64 94.55,-105.79 90.55,-100.05"/>
</g>
<!-- Node9&#45;&gt;Node4 -->
<g id="edge16" class="edge">
<title>Node9&#45;&gt;Node4</title>
<path fill="none" stroke="#63b8ff" d="M76.56,-98.9C84.2,-75.33 96.69,-36.81 102.31,-19.46"/>
<polygon fill="#63b8ff" stroke="#63b8ff" points="73.3,-97.63 73.54,-108.22 79.95,-99.79 73.3,-97.63"/>
</g>
</g>
</svg>
