<?xml version="1.0" encoding="UTF-8" standalone="no"?>
<!DOCTYPE svg PUBLIC "-//W3C//DTD SVG 1.1//EN"
 "http://www.w3.org/Graphics/SVG/1.1/DTD/svg11.dtd">
<!-- Generated by graphviz version 7.0.5 (20221223.1930)
 -->
<!-- Title: sqsh_mapper_private.h Pages: 1 -->
<svg width="904pt" height="247pt"
 viewBox="0.00 0.00 903.50 247.00" xmlns="http://www.w3.org/2000/svg" xmlns:xlink="http://www.w3.org/1999/xlink">
<g id="graph0" class="graph" transform="scale(1 1) rotate(0) translate(4 243)">
<title>sqsh_mapper_private.h</title>
<!-- Node1 -->
<g id="node1" class="node">
<title>Node1</title>
<g id="a_node1"><a xlink:title=" ">
<polygon fill="#999999" stroke="#666666" points="670,-239 496,-239 496,-220 670,-220 670,-239"/>
<text text-anchor="middle" x="583" y="-227" font-family="Helvetica,sans-Serif" font-size="10.00">sqsh_mapper_private.h</text>
</a>
</g>
</g>
<!-- Node2 -->
<g id="node2" class="node">
<title>Node2</title>
<g id="a_node2"><a xlink:href="sqsh__metablock__private_8h.html" target="_top" xlink:title=" ">
<polygon fill="white" stroke="#666666" points="581.5,-184 384.5,-184 384.5,-165 581.5,-165 581.5,-184"/>
<text text-anchor="middle" x="483" y="-172" font-family="Helvetica,sans-Serif" font-size="10.00">sqsh_metablock_private.h</text>
</a>
</g>
</g>
<!-- Node1&#45;&gt;Node2 -->
<g id="edge1" class="edge">
<title>Node1&#45;&gt;Node2</title>
<path fill="none" stroke="#63b8ff" d="M555.89,-214.13C537.96,-204.63 515.02,-192.47 499.71,-184.36"/>
<polygon fill="#63b8ff" stroke="#63b8ff" points="554.22,-217.21 564.7,-218.8 557.5,-211.02 554.22,-217.21"/>
</g>
<!-- Node8 -->
<g id="node8" class="node">
<title>Node8</title>
<g id="a_node8"><a xlink:href="sqsh__table__private_8h.html" target="_top" xlink:title=" ">
<polygon fill="white" stroke="#666666" points="766.5,-184 599.5,-184 599.5,-165 766.5,-165 766.5,-184"/>
<text text-anchor="middle" x="683" y="-172" font-family="Helvetica,sans-Serif" font-size="10.00">sqsh_table_private.h</text>
</a>
</g>
</g>
<!-- Node1&#45;&gt;Node8 -->
<g id="edge7" class="edge">
<title>Node1&#45;&gt;Node8</title>
<path fill="none" stroke="#63b8ff" d="M610.11,-214.13C628.04,-204.63 650.98,-192.47 666.29,-184.36"/>
<polygon fill="#63b8ff" stroke="#63b8ff" points="608.5,-211.02 601.3,-218.8 611.78,-217.21 608.5,-211.02"/>
</g>
<!-- Node3 -->
<g id="node3" class="node">
<title>Node3</title>
<g id="a_node3"><a xlink:href="sqsh__chrome__private_8h.html" target="_top" xlink:title=" ">
<polygon fill="white" stroke="#666666" points="174,-129 0,-129 0,-110 174,-110 174,-129"/>
<text text-anchor="middle" x="87" y="-117" font-family="Helvetica,sans-Serif" font-size="10.00">sqsh_chrome_private.h</text>
</a>
</g>
</g>
<!-- Node2&#45;&gt;Node3 -->
<g id="edge2" class="edge">
<title>Node2&#45;&gt;Node3</title>
<path fill="none" stroke="#63b8ff" d="M404.84,-163.04C331.69,-153.25 223.54,-138.77 154.17,-129.49"/>
<polygon fill="#63b8ff" stroke="#63b8ff" points="403.95,-166.45 414.32,-164.31 404.88,-159.51 403.95,-166.45"/>
</g>
<!-- Node4 -->
<g id="node4" class="node">
<title>Node4</title>
<g id="a_node4"><a xlink:href="sqsh__directory__private_8h.html" target="_top" xlink:title=" ">
<polygon fill="white" stroke="#666666" points="389.5,-129 192.5,-129 192.5,-110 389.5,-110 389.5,-129"/>
<text text-anchor="middle" x="291" y="-117" font-family="Helvetica,sans-Serif" font-size="10.00">sqsh_directory_private.h</text>
</a>
</g>
</g>
<!-- Node2&#45;&gt;Node4 -->
<g id="edge3" class="edge">
<title>Node2&#45;&gt;Node4</title>
<path fill="none" stroke="#63b8ff" d="M439.5,-161.49C404.23,-151.76 355.31,-138.25 323.41,-129.45"/>
<polygon fill="#63b8ff" stroke="#63b8ff" points="438.4,-164.82 448.97,-164.11 440.26,-158.07 438.4,-164.82"/>
</g>
<!-- Node5 -->
<g id="node5" class="node">
<title>Node5</title>
<g id="a_node5"><a xlink:href="sqsh__inode__private_8h.html" target="_top" xlink:title=" ">
<polygon fill="white" stroke="#666666" points="574.5,-129 407.5,-129 407.5,-110 574.5,-110 574.5,-129"/>
<text text-anchor="middle" x="491" y="-117" font-family="Helvetica,sans-Serif" font-size="10.00">sqsh_inode_private.h</text>
</a>
</g>
</g>
<!-- Node2&#45;&gt;Node5 -->
<g id="edge4" class="edge">
<title>Node2&#45;&gt;Node5</title>
<path fill="none" stroke="#63b8ff" d="M486,-153.64C487.25,-145.31 488.65,-136.05 489.65,-129.44"/>
<polygon fill="#63b8ff" stroke="#63b8ff" points="482.58,-152.84 484.55,-163.25 489.5,-153.89 482.58,-152.84"/>
</g>
<!-- Node6 -->
<g id="node6" class="node">
<title>Node6</title>
<g id="a_node6"><a xlink:href="sqsh__xattr__private_8h.html" target="_top" xlink:title=" ">
<polygon fill="white" stroke="#666666" points="759.5,-129 592.5,-129 592.5,-110 759.5,-110 759.5,-129"/>
<text text-anchor="middle" x="676" y="-117" font-family="Helvetica,sans-Serif" font-size="10.00">sqsh_xattr_private.h</text>
</a>
</g>
</g>
<!-- Node2&#45;&gt;Node6 -->
<g id="edge5" class="edge">
<title>Node2&#45;&gt;Node6</title>
<path fill="none" stroke="#63b8ff" d="M526.73,-161.49C562.18,-151.76 611.36,-138.25 643.42,-129.45"/>
<polygon fill="#63b8ff" stroke="#63b8ff" points="525.92,-158.09 517.2,-164.11 527.77,-164.84 525.92,-158.09"/>
</g>
<!-- Node7 -->
<g id="node7" class="node">
<title>Node7</title>
<g id="a_node7"><a xlink:href="sqsh__archive__private_8h.html" target="_top" xlink:title=" ">
<polygon fill="white" stroke="#666666" points="842,-19 660,-19 660,0 842,0 842,-19"/>
<text text-anchor="middle" x="751" y="-7" font-family="Helvetica,sans-Serif" font-size="10.00">sqsh_archive_private.h</text>
</a>
</g>
</g>
<!-- Node6&#45;&gt;Node7 -->
<g id="edge6" class="edge">
<title>Node6&#45;&gt;Node7</title>
<path fill="none" stroke="#63b8ff" d="M688.5,-100.49C704.74,-77.11 732.46,-37.2 744.78,-19.46"/>
<polygon fill="#63b8ff" stroke="#63b8ff" points="685.83,-98.21 683,-108.42 691.58,-102.2 685.83,-98.21"/>
</g>
<!-- Node8&#45;&gt;Node6 -->
<g id="edge11" class="edge">
<title>Node8&#45;&gt;Node6</title>
<path fill="none" stroke="#63b8ff" d="M680.34,-153.35C679.25,-145.1 678.04,-135.97 677.18,-129.44"/>
<polygon fill="#63b8ff" stroke="#63b8ff" points="676.87,-153.79 681.65,-163.25 683.81,-152.88 676.87,-153.79"/>
</g>
<!-- Node9 -->
<g id="node9" class="node">
<title>Node9</title>
<g id="a_node9"><a xlink:href="sqsh__file_8h.html" target="_top" xlink:title=" ">
<polygon fill="white" stroke="#666666" points="876.5,-129 777.5,-129 777.5,-110 876.5,-110 876.5,-129"/>
<text text-anchor="middle" x="827" y="-117" font-family="Helvetica,sans-Serif" font-size="10.00">sqsh_file.h</text>
</a>
</g>
</g>
<!-- Node8&#45;&gt;Node9 -->
<g id="edge8" class="edge">
<title>Node8&#45;&gt;Node9</title>
<path fill="none" stroke="#63b8ff" d="M718.09,-160.58C744.41,-150.9 779.75,-137.89 802.93,-129.36"/>
<polygon fill="#63b8ff" stroke="#63b8ff" points="717.02,-157.25 708.85,-163.99 719.44,-163.82 717.02,-157.25"/>
</g>
<!-- Node10 -->
<g id="node10" class="node">
<title>Node10</title>
<g id="a_node10"><a xlink:href="sqsh__file__private_8h.html" target="_top" xlink:title=" ">
<polygon fill="white" stroke="#666666" points="895.5,-74 736.5,-74 736.5,-55 895.5,-55 895.5,-74"/>
<text text-anchor="middle" x="816" y="-62" font-family="Helvetica,sans-Serif" font-size="10.00">sqsh_file_private.h</text>
</a>
</g>
</g>
<!-- Node9&#45;&gt;Node10 -->
<g id="edge9" class="edge">
<title>Node9&#45;&gt;Node10</title>
<path fill="none" stroke="#63b8ff" d="M822.88,-98.64C821.15,-90.31 819.23,-81.05 817.86,-74.44"/>
<polygon fill="#63b8ff" stroke="#63b8ff" points="819.42,-99.19 824.88,-108.27 826.27,-97.76 819.42,-99.19"/>
</g>
<!-- Node10&#45;&gt;Node7 -->
<g id="edge10" class="edge">
<title>Node10&#45;&gt;Node7</title>
<path fill="none" stroke="#63b8ff" d="M796.21,-47.37C784.92,-38.16 771.21,-26.98 761.86,-19.36"/>
<polygon fill="#63b8ff" stroke="#63b8ff" points="793.84,-49.95 803.8,-53.55 798.26,-44.52 793.84,-49.95"/>
</g>
</g>
</svg>
