<?xml version="1.0" encoding="UTF-8" standalone="no"?>
<!DOCTYPE svg PUBLIC "-//W3C//DTD SVG 1.1//EN"
 "http://www.w3.org/Graphics/SVG/1.1/DTD/svg11.dtd">
<!-- Generated by graphviz version 7.0.4 (20221203.1631)
 -->
<!-- Title: sqsh_primitive.h Pages: 1 -->
<!--zoomable 247 -->
<svg id="main" version="1.1" xmlns="http://www.w3.org/2000/svg" xmlns:xlink="http://www.w3.org/1999/xlink" xml:space="preserve" onload="init(evt)">
<style type="text/css"><![CDATA[
.edge:hover path { stroke: red; }
.edge:hover polygon { stroke: red; fill: red; }
]]></style>
<script type="text/javascript"><![CDATA[
var edges = document.getElementsByTagName('g');
if (edges && edges.length) {
  for (var i=0;i<edges.length;i++) {
    if (edges[i].id.substr(0,4)=='edge') {
      edges[i].setAttribute('class','edge');
    }
  }
}
]]></script>
        <defs>
                <circle id="rim" cx="0" cy="0" r="7"/>
                <circle id="rim2" cx="0" cy="0" r="3.5"/>
                <g id="zoomPlus">
                        <use xlink:href="#rim" fill="#404040">
                                <set attributeName="fill" to="#808080" begin="zoomplus.mouseover" end="zoomplus.mouseout"/>
                        </use>
                        <path d="M-4,0h8M0,-4v8" fill="none" stroke="white" stroke-width="1.5" pointer-events="none"/>
                </g>
                <g id="zoomMin">
                        <use xlink:href="#rim" fill="#404040">
                                <set attributeName="fill" to="#808080" begin="zoomminus.mouseover" end="zoomminus.mouseout"/>
                        </use>
                        <path d="M-4,0h8" fill="none" stroke="white" stroke-width="1.5" pointer-events="none"/>
                </g>
                <g id="dirArrow">
                        <path fill="none" stroke="white" stroke-width="1.5" d="M0,-3.0v7 M-2.5,-0.5L0,-3.0L2.5,-0.5"/>
                </g>
               <g id="resetDef">
                       <use xlink:href="#rim2" fill="#404040">
                               <set attributeName="fill" to="#808080" begin="reset.mouseover" end="reset.mouseout"/>
                       </use>
               </g>
        </defs>

<script type="text/javascript">
var viewWidth = 556;
var viewHeight = 247;
var sectionId = 'dynsection-1';
</script>
<script xlink:href="svgpan.js"/>
<svg id="graph" class="graph">
<g id="viewport">
<title>sqsh_primitive.h</title>
<!-- Node1 -->
<g id="node1" class="node">
<title>Node1</title>
<g id="a_node1"><a xlink:title=" ">
<polygon fill="#999999" stroke="#666666" points="322.71,-239 185.71,-239 185.71,-220 322.71,-220 322.71,-239"/>
<text text-anchor="middle" x="254.21" y="-227" font-family="Helvetica,sans-Serif" font-size="10.00">sqsh_primitive.h</text>
</a>
</g>
</g>
<!-- Node2 -->
<g id="node2" class="node">
<title>Node2</title>
<g id="a_node2"><a xlink:href="sqsh__context_8h.html" target="_top" xlink:title=" ">
<polygon fill="white" stroke="#666666" points="315.21,-184 193.21,-184 193.21,-165 315.21,-165 315.21,-184"/>
<text text-anchor="middle" x="254.21" y="-172" font-family="Helvetica,sans-Serif" font-size="10.00">sqsh_context.h</text>
</a>
</g>
</g>
<!-- Node1&#45;&gt;Node2 -->
<g id="edge1" class="edge">
<title>Node1&#45;&gt;Node2</title>
<path fill="none" stroke="#63b8ff" d="M254.21,-208.35C254.21,-200.1 254.21,-190.97 254.21,-184.44"/>
<polygon fill="#63b8ff" stroke="#63b8ff" points="250.71,-208.23 254.21,-218.23 257.71,-208.23 250.71,-208.23"/>
</g>
<!-- Node5 -->
<g id="node5" class="node">
<title>Node5</title>
<g id="a_node5"><a xlink:href="sqsh__context__private_8h.html" target="_top" xlink:title=" ">
<polygon fill="white" stroke="#666666" points="400.21,-129 218.21,-129 218.21,-110 400.21,-110 400.21,-129"/>
<text text-anchor="middle" x="309.21" y="-117" font-family="Helvetica,sans-Serif" font-size="10.00">sqsh_context_private.h</text>
</a>
</g>
</g>
<!-- Node1&#45;&gt;Node5 -->
<g id="edge9" class="edge">
<title>Node1&#45;&gt;Node5</title>
<path fill="none" stroke="#63b8ff" d="M289.7,-214.82C303,-207.75 316.7,-197.68 324.21,-184 334.03,-166.13 322.62,-142 314.99,-129.24"/>
<polygon fill="#63b8ff" stroke="#63b8ff" points="288.56,-211.48 281.08,-218.99 291.61,-217.79 288.56,-211.48"/>
</g>
<!-- Node8 -->
<g id="node8" class="node">
<title>Node8</title>
<g id="a_node8"><a xlink:href="sqsh__mapper_8h.html" target="_top" xlink:title=" ">
<polygon fill="white" stroke="#666666" points="175.21,-184 61.21,-184 61.21,-165 175.21,-165 175.21,-184"/>
<text text-anchor="middle" x="118.21" y="-172" font-family="Helvetica,sans-Serif" font-size="10.00">sqsh_mapper.h</text>
</a>
</g>
</g>
<!-- Node1&#45;&gt;Node8 -->
<g id="edge10" class="edge">
<title>Node1&#45;&gt;Node8</title>
<path fill="none" stroke="#63b8ff" d="M220.73,-215.45C195.91,-205.78 162.74,-192.85 140.94,-184.36"/>
<polygon fill="#63b8ff" stroke="#63b8ff" points="219.14,-218.59 229.73,-218.96 221.68,-212.07 219.14,-218.59"/>
</g>
<!-- Node3 -->
<g id="node3" class="node">
<title>Node3</title>
<g id="a_node3"><a xlink:href="sqsh_8h.html" target="_top" xlink:title=" ">
<polygon fill="white" stroke="#666666" points="177.21,-74 115.21,-74 115.21,-55 177.21,-55 177.21,-74"/>
<text text-anchor="middle" x="146.21" y="-62" font-family="Helvetica,sans-Serif" font-size="10.00">sqsh.h</text>
</a>
</g>
</g>
<!-- Node2&#45;&gt;Node3 -->
<g id="edge2" class="edge">
<title>Node2&#45;&gt;Node3</title>
<path fill="none" stroke="#63b8ff" d="M237.24,-156.79C228.79,-148.46 218.44,-138.22 209.21,-129 189.65,-109.47 166.83,-86.4 154.74,-74.15"/>
<polygon fill="#63b8ff" stroke="#63b8ff" points="234.56,-159.07 244.14,-163.6 239.48,-154.08 234.56,-159.07"/>
</g>
<!-- Node2&#45;&gt;Node5 -->
<g id="edge4" class="edge">
<title>Node2&#45;&gt;Node5</title>
<path fill="none" stroke="#63b8ff" d="M271.56,-156.78C280.96,-147.72 292.2,-136.9 299.93,-129.44"/>
<polygon fill="#63b8ff" stroke="#63b8ff" points="269.16,-154.24 264.38,-163.7 274.01,-159.28 269.16,-154.24"/>
</g>
<!-- Node7 -->
<g id="node7" class="node">
<title>Node7</title>
<g id="a_node7"><a xlink:href="sqsh__iterator_8h.html" target="_top" xlink:title=" ">
<polygon fill="white" stroke="#666666" points="547.71,-129 418.71,-129 418.71,-110 547.71,-110 547.71,-129"/>
<text text-anchor="middle" x="483.21" y="-117" font-family="Helvetica,sans-Serif" font-size="10.00">sqsh_iterator.h</text>
</a>
</g>
</g>
<!-- Node2&#45;&gt;Node7 -->
<g id="edge7" class="edge">
<title>Node2&#45;&gt;Node7</title>
<path fill="none" stroke="#63b8ff" d="M304.2,-161.93C346.39,-152.17 405.94,-138.38 444.56,-129.45"/>
<polygon fill="#63b8ff" stroke="#63b8ff" points="303.49,-158.5 294.53,-164.17 305.06,-165.32 303.49,-158.5"/>
</g>
<!-- Node4 -->
<g id="node4" class="node">
<title>Node4</title>
<g id="a_node4"><a xlink:href="sqsh__private_8h.html" target="_top" xlink:title=" ">
<polygon fill="white" stroke="#666666" points="166.21,-19 44.21,-19 44.21,0 166.21,0 166.21,-19"/>
<text text-anchor="middle" x="105.21" y="-7" font-family="Helvetica,sans-Serif" font-size="10.00">sqsh_private.h</text>
</a>
</g>
</g>
<!-- Node3&#45;&gt;Node4 -->
<g id="edge3" class="edge">
<title>Node3&#45;&gt;Node4</title>
<path fill="none" stroke="#63b8ff" d="M132.4,-45.65C125.58,-36.84 117.66,-26.59 112.13,-19.44"/>
<polygon fill="#63b8ff" stroke="#63b8ff" points="129.63,-47.78 138.51,-53.55 135.16,-43.5 129.63,-47.78"/>
</g>
<!-- Node5&#45;&gt;Node4 -->
<g id="edge6" class="edge">
<title>Node5&#45;&gt;Node4</title>
<path fill="none" stroke="#63b8ff" d="M282.59,-104.41C239.97,-81.84 157.61,-38.24 122.14,-19.46"/>
<polygon fill="#63b8ff" stroke="#63b8ff" points="280.7,-107.37 291.18,-108.95 283.98,-101.18 280.7,-107.37"/>
</g>
<!-- Node6 -->
<g id="node6" class="node">
<title>Node6</title>
<g id="a_node6"><a xlink:href="sqsh__iterator__private_8h.html" target="_top" xlink:title=" ">
<polygon fill="white" stroke="#666666" points="530.71,-74 341.71,-74 341.71,-55 530.71,-55 530.71,-74"/>
<text text-anchor="middle" x="436.21" y="-62" font-family="Helvetica,sans-Serif" font-size="10.00">sqsh_iterator_private.h</text>
</a>
</g>
</g>
<!-- Node5&#45;&gt;Node6 -->
<g id="edge5" class="edge">
<title>Node5&#45;&gt;Node6</title>
<path fill="none" stroke="#63b8ff" d="M341.1,-105.19C364.21,-95.55 394.81,-82.78 414.99,-74.36"/>
<polygon fill="#63b8ff" stroke="#63b8ff" points="340.03,-101.84 332.15,-108.93 342.73,-108.31 340.03,-101.84"/>
</g>
<!-- Node7&#45;&gt;Node6 -->
<g id="edge8" class="edge">
<title>Node7&#45;&gt;Node6</title>
<path fill="none" stroke="#63b8ff" d="M467.88,-101.22C459.96,-92.28 450.62,-81.74 444.14,-74.44"/>
<polygon fill="#63b8ff" stroke="#63b8ff" points="465.19,-103.46 474.45,-108.62 470.43,-98.81 465.19,-103.46"/>
</g>
<!-- Node8&#45;&gt;Node3 -->
<g id="edge11" class="edge">
<title>Node8&#45;&gt;Node3</title>
<path fill="none" stroke="#63b8ff" d="M125.38,-153.94C128.06,-146.24 130.98,-137.26 133.21,-129 138.43,-109.66 142.68,-86.52 144.78,-74.21"/>
<polygon fill="#63b8ff" stroke="#63b8ff" points="122.11,-152.71 122.03,-163.31 128.7,-155.07 122.11,-152.71"/>
</g>
<!-- Node8&#45;&gt;Node4 -->
<g id="edge13" class="edge">
<title>Node8&#45;&gt;Node4</title>
<path fill="none" stroke="#63b8ff" d="M51.12,-160.85C33.99,-154.26 17.52,-144.24 7.21,-129 -22.33,-85.33 52.04,-38.51 87.57,-19.39"/>
<polygon fill="#63b8ff" stroke="#63b8ff" points="49.8,-164.09 60.39,-164.03 52.07,-157.47 49.8,-164.09"/>
</g>
<!-- Node8&#45;&gt;Node5 -->
<g id="edge12" class="edge">
<title>Node8&#45;&gt;Node5</title>
<path fill="none" stroke="#63b8ff" d="M161.49,-161.49C196.57,-151.76 245.24,-138.25 276.97,-129.45"/>
<polygon fill="#63b8ff" stroke="#63b8ff" points="160.77,-158.06 152.07,-164.1 162.64,-164.8 160.77,-158.06"/>
</g>
<!-- Node9 -->
<g id="node9" class="node">
<title>Node9</title>
<g id="a_node9"><a xlink:href="sqsh__table_8h.html" target="_top" xlink:title=" ">
<polygon fill="white" stroke="#666666" points="123.71,-129 16.71,-129 16.71,-110 123.71,-110 123.71,-129"/>
<text text-anchor="middle" x="70.21" y="-117" font-family="Helvetica,sans-Serif" font-size="10.00">sqsh_table.h</text>
</a>
</g>
</g>
<!-- Node8&#45;&gt;Node9 -->
<g id="edge14" class="edge">
<title>Node8&#45;&gt;Node9</title>
<path fill="none" stroke="#63b8ff" d="M102.56,-156.22C94.46,-147.28 84.92,-136.74 78.31,-129.44"/>
<polygon fill="#63b8ff" stroke="#63b8ff" points="99.96,-158.56 109.27,-163.63 105.15,-153.86 99.96,-158.56"/>
</g>
<!-- Node9&#45;&gt;Node3 -->
<g id="edge15" class="edge">
<title>Node9&#45;&gt;Node3</title>
<path fill="none" stroke="#63b8ff" d="M92.17,-103.19C105.58,-93.84 122.26,-82.21 133.51,-74.36"/>
<polygon fill="#63b8ff" stroke="#63b8ff" points="90.55,-100.05 84.34,-108.64 94.55,-105.79 90.55,-100.05"/>
</g>
<!-- Node9&#45;&gt;Node4 -->
<g id="edge16" class="edge">
<title>Node9&#45;&gt;Node4</title>
<path fill="none" stroke="#63b8ff" d="M76.56,-98.9C84.2,-75.33 96.69,-36.81 102.31,-19.46"/>
<polygon fill="#63b8ff" stroke="#63b8ff" points="73.3,-97.63 73.54,-108.22 79.95,-99.79 73.3,-97.63"/>
</g>
</g>
</svg>
        <g id="navigator" transform="translate(0 0)" fill="#404254">
                <rect fill="#f2f5e9" fill-opacity="0.5" stroke="#606060" stroke-width=".5" x="0" y="0" width="60" height="60"/>
                <use id="zoomplus" xlink:href="#zoomPlus" x="17" y="9" onmousedown="handleZoom(evt,'in')"/>
                <use id="zoomminus" xlink:href="#zoomMin" x="42" y="9" onmousedown="handleZoom(evt,'out')"/>
                <use id="reset" xlink:href="#resetDef" x="30" y="36" onmousedown="handleReset()"/>
                <g id="arrowUp" xlink:href="#dirArrow" transform="translate(30 24)" onmousedown="handlePan(0,-1)">
                  <use xlink:href="#rim" fill="#404040">
                        <set attributeName="fill" to="#808080" begin="arrowUp.mouseover" end="arrowUp.mouseout"/>
                  </use>
                  <path fill="none" stroke="white" stroke-width="1.5" d="M0,-3.0v7 M-2.5,-0.5L0,-3.0L2.5,-0.5"/>
                </g>
                <g id="arrowRight" xlink:href="#dirArrow" transform="rotate(90) translate(36 -43)" onmousedown="handlePan(1,0)">
                  <use xlink:href="#rim" fill="#404040">
                        <set attributeName="fill" to="#808080" begin="arrowRight.mouseover" end="arrowRight.mouseout"/>
                  </use>
                  <path fill="none" stroke="white" stroke-width="1.5" d="M0,-3.0v7 M-2.5,-0.5L0,-3.0L2.5,-0.5"/>
                </g>
                <g id="arrowDown" xlink:href="#dirArrow" transform="rotate(180) translate(-30 -48)" onmousedown="handlePan(0,1)">
                  <use xlink:href="#rim" fill="#404040">
                        <set attributeName="fill" to="#808080" begin="arrowDown.mouseover" end="arrowDown.mouseout"/>
                  </use>
                  <path fill="none" stroke="white" stroke-width="1.5" d="M0,-3.0v7 M-2.5,-0.5L0,-3.0L2.5,-0.5"/>
                </g>
                <g id="arrowLeft" xlink:href="#dirArrow" transform="rotate(270) translate(-36 17)" onmousedown="handlePan(-1,0)">
                  <use xlink:href="#rim" fill="#404040">
                        <set attributeName="fill" to="#808080" begin="arrowLeft.mouseover" end="arrowLeft.mouseout"/>
                  </use>
                  <path fill="none" stroke="white" stroke-width="1.5" d="M0,-3.0v7 M-2.5,-0.5L0,-3.0L2.5,-0.5"/>
                </g>
        </g>
        <svg viewBox="0 0 15 15" width="100%" height="30px" preserveAspectRatio="xMaxYMin meet">
         <g id="arrow_out" transform="scale(0.3 0.3)">
          <a xlink:href="sqsh__primitive_8h__dep__incl_org.svg" target="_base">
           <rect id="button" ry="5" rx="5" y="6" x="6" height="38" width="38"
                fill="#f2f5e9" fill-opacity="0.5" stroke="#606060" stroke-width="1.0"/>
           <path id="arrow"
             d="M 11.500037,31.436501 C 11.940474,20.09759 22.043105,11.32322 32.158766,21.979434 L 37.068811,17.246167 C 37.068811,17.246167 37.088388,32 37.088388,32 L 22.160133,31.978069 C 22.160133,31.978069 26.997745,27.140456 26.997745,27.140456 C 18.528582,18.264221 13.291696,25.230495 11.500037,31.436501 z"
             style="fill:#404040;"/>
          </a>
         </g>
        </svg>
</svg>
