<?xml version="1.0" encoding="UTF-8" standalone="no"?>
<!DOCTYPE svg PUBLIC "-//W3C//DTD SVG 1.1//EN"
 "http://www.w3.org/Graphics/SVG/1.1/DTD/svg11.dtd">
<!-- Generated by graphviz version 8.0.5 (20230430.1635)
 -->
<!-- Title: include/sqsh_file.h Pages: 1 -->
<svg width="1717pt" height="2581421pt"
 viewBox="0.00 0.00 1716.75 2581420.96" xmlns="http://www.w3.org/2000/svg" xmlns:xlink="http://www.w3.org/1999/xlink">
<g id="graph0" class="graph" transform="scale(1 1) rotate(0) translate(4 2581416.96)">
<title>include/sqsh_file.h</title>
<!-- Node1 -->
<g id="node1" class="node">
<title>Node1</title>
<g id="a_node1"><a xlink:title=" ">
<polygon fill="#999999" stroke="#666666" points="1259,-2581412.96 1100.5,-2581412.96 1100.5,-1865060.27 1259,-1865060.27 1259,-2581412.96"/>
<text text-anchor="middle" x="1179.75" y="-2581399.46" font-family="Helvetica,sans-Serif" font-size="10.00">include/sqsh_file.h</text>
</a>
</g>
</g>
<!-- Node2 -->
<g id="node2" class="node">
<title>Node2</title>
<g id="a_node2"><a xlink:href="sqsh_8h.html" target="_top" xlink:title=" ">
<polygon fill="white" stroke="#666666" points="978.25,-1506797.22 857.25,-1506797.22 857.25,-1506778.71 978.25,-1506778.71 978.25,-1506797.22"/>
<text text-anchor="middle" x="917.75" y="-1506783.72" font-family="Helvetica,sans-Serif" font-size="10.00">include/sqsh.h</text>
</a>
</g>
</g>
<!-- Node1&#45;&gt;Node2 -->
<g id="edge1" class="edge">
<title>Node1&#45;&gt;Node2</title>
<path fill="none" stroke="#63b8ff" d="M1099.99,-2087460.49C1063.11,-2020495.36 1021.63,-1938518.86 994.75,-1865024.27 936.75,-1706411.09 917.89,-1508294.65 917.75,-1506797.5"/>
<polygon fill="#63b8ff" stroke="#63b8ff" points="1096.49,-2087460.23 1100,-2087470.22 1103.49,-2087460.22 1096.49,-2087460.23"/>
</g>
<!-- Node10 -->
<g id="node10" class="node">
<title>Node10</title>
<g id="a_node10"><a xlink:href="sqsh__directory_8h.html" target="_top" xlink:title=" ">
<polygon fill="white" stroke="#666666" points="1375.75,-1865024.27 1179.75,-1865024.27 1179.75,-1865005.77 1375.75,-1865005.77 1375.75,-1865024.27"/>
<text text-anchor="middle" x="1277.75" y="-1865010.77" font-family="Helvetica,sans-Serif" font-size="10.00">include/sqsh_directory.h</text>
</a>
</g>
</g>
<!-- Node1&#45;&gt;Node10 -->
<g id="edge9" class="edge">
<title>Node1&#45;&gt;Node10</title>
<path fill="none" stroke="#63b8ff" d="M1259.5,-1931714.78C1270.19,-1892661.61 1277.6,-1865576.01 1277.75,-1865024.6"/>
<polygon fill="#63b8ff" stroke="#63b8ff" points="1256,-1931714.5 1259.5,-1931724.5 1263,-1931714.51 1256,-1931714.5"/>
</g>
<!-- Node13 -->
<g id="node13" class="node">
<title>Node13</title>
<g id="a_node13"><a xlink:href="sqsh__file__private_8h.html" target="_top" xlink:title=" ">
<polygon fill="white" stroke="#666666" points="1622,-1865024.27 1403.5,-1865024.27 1403.5,-1865005.77 1622,-1865005.77 1622,-1865024.27"/>
<text text-anchor="middle" x="1512.75" y="-1865010.77" font-family="Helvetica,sans-Serif" font-size="10.00">include/sqsh_file_private.h</text>
</a>
</g>
</g>
<!-- Node1&#45;&gt;Node13 -->
<g id="edge13" class="edge">
<title>Node1&#45;&gt;Node13</title>
<path fill="none" stroke="#63b8ff" d="M1259.51,-2137435.13C1357.62,-2031898.99 1511.47,-1866396.64 1512.74,-1865024.61"/>
<polygon fill="#63b8ff" stroke="#63b8ff" points="1256.01,-2137435 1259.5,-2137445 1263.01,-2137435 1256.01,-2137435"/>
</g>
<!-- Node15 -->
<g id="node15" class="node">
<title>Node15</title>
<g id="a_node15"><a xlink:href="sqsh__tree_8h.html" target="_top" xlink:title=" ">
<polygon fill="white" stroke="#666666" points="1162,-1865024.27 1003.5,-1865024.27 1003.5,-1865005.77 1162,-1865005.77 1162,-1865024.27"/>
<text text-anchor="middle" x="1082.75" y="-1865010.77" font-family="Helvetica,sans-Serif" font-size="10.00">include/sqsh_tree.h</text>
</a>
</g>
</g>
<!-- Node1&#45;&gt;Node15 -->
<g id="edge17" class="edge">
<title>Node1&#45;&gt;Node15</title>
<path fill="none" stroke="#63b8ff" d="M1100,-1928709.53C1089.86,-1891277.65 1082.9,-1865560.45 1082.75,-1865024.56"/>
<polygon fill="#63b8ff" stroke="#63b8ff" points="1096.5,-1928709.24 1100,-1928719.24 1103.5,-1928709.24 1096.5,-1928709.24"/>
</g>
<!-- Node3 -->
<g id="node3" class="node">
<title>Node3</title>
<g id="a_node3"><a xlink:href="list__dir_8c.html" target="_top" xlink:title=" ">
<polygon fill="white" stroke="#666666" points="992,-932460.77 833.5,-932460.77 833.5,-216109.38 992,-216109.38 992,-932460.77"/>
<text text-anchor="middle" x="912.75" y="-932447.27" font-family="Helvetica,sans-Serif" font-size="10.00">examples/list_dir.c</text>
</a>
</g>
</g>
<!-- Node2&#45;&gt;Node3 -->
<g id="edge2" class="edge">
<title>Node2&#45;&gt;Node3</title>
<path fill="none" stroke="#63b8ff" d="M917.75,-1506767.56C917.73,-1503946.71 916.07,-1194166.25 914.67,-932461.04"/>
<polygon fill="#63b8ff" stroke="#63b8ff" points="914.25,-1506767.51 917.75,-1506777.51 921.25,-1506767.51 914.25,-1506767.51"/>
</g>
<!-- Node4 -->
<g id="node4" class="node">
<title>Node4</title>
<g id="a_node4"><a xlink:href="list__dir__ll_8c.html" target="_top" xlink:title=" ">
<polygon fill="white" stroke="#666666" points="1191.25,-574294.33 1010.25,-574294.33 1010.25,-574275.83 1191.25,-574275.83 1191.25,-574294.33"/>
<text text-anchor="middle" x="1100.75" y="-574280.83" font-family="Helvetica,sans-Serif" font-size="10.00">examples/list_dir_ll.c</text>
</a>
</g>
</g>
<!-- Node2&#45;&gt;Node4 -->
<g id="edge3" class="edge">
<title>Node2&#45;&gt;Node4</title>
<path fill="none" stroke="#63b8ff" d="M917.75,-1506767.82C918.32,-1504531.83 968.63,-1306875.06 1000.75,-1148570.15 1052.39,-894096.13 1100.46,-576193.87 1100.75,-574294.63"/>
<polygon fill="#63b8ff" stroke="#63b8ff" points="914.25,-1506767.43 917.75,-1506777.43 921.25,-1506767.43 914.25,-1506767.43"/>
</g>
<!-- Node5 -->
<g id="node5" class="node">
<title>Node5</title>
<g id="a_node5"><a xlink:href="list__xattrs_8c.html" target="_top" xlink:title=" ">
<polygon fill="white" stroke="#666666" points="1390.25,-574306.25 1209.25,-574306.25 1209.25,-574263.9 1390.25,-574263.9 1390.25,-574306.25"/>
<text text-anchor="middle" x="1299.75" y="-574292.75" font-family="Helvetica,sans-Serif" font-size="10.00">examples/list_xattrs.c</text>
</a>
</g>
</g>
<!-- Node2&#45;&gt;Node5 -->
<g id="edge4" class="edge">
<title>Node2&#45;&gt;Node5</title>
<path fill="none" stroke="#63b8ff" d="M917.66,-1506767.42C903.56,-1503753.38 -732.39,-1153181.8 1164.75,-1148606.15 1173.42,-1148585.25 1192.09,-1148591.06 1200.75,-1148570.15 1390.9,-1148111.19 1300.38,-578236.9 1299.75,-574306.5"/>
<polygon fill="#63b8ff" stroke="#63b8ff" points="914.16,-1506767.27 917.71,-1506777.25 921.16,-1506767.24 914.16,-1506767.27"/>
</g>
<!-- Node6 -->
<g id="node6" class="node">
<title>Node6</title>
<g id="a_node6"><a xlink:href="list__xattrs__ll_8c.html" target="_top" xlink:title=" ">
<polygon fill="white" stroke="#666666" points="203.5,-574298.08 0,-574298.08 0,-574272.08 203.5,-574272.08 203.5,-574298.08"/>
<text text-anchor="middle" x="101.75" y="-574284.58" font-family="Helvetica,sans-Serif" font-size="10.00">examples/list_xattrs_ll.c</text>
</a>
</g>
</g>
<!-- Node2&#45;&gt;Node6 -->
<g id="edge5" class="edge">
<title>Node2&#45;&gt;Node6</title>
<path fill="none" stroke="#63b8ff" d="M917.7,-1506767.82C911.72,-1504531.83 383.83,-1306875.27 212.75,-1148570.15 -62.09,-894252.06 100.57,-576583.07 101.74,-574298.47"/>
<polygon fill="#63b8ff" stroke="#63b8ff" points="914.2,-1506767.44 917.73,-1506777.43 921.2,-1506767.42 914.2,-1506767.44"/>
</g>
<!-- Node7 -->
<g id="node7" class="node">
<title>Node7</title>
<g id="a_node7"><a xlink:href="read__file_8c.html" target="_top" xlink:title=" ">
<polygon fill="white" stroke="#666666" points="387.75,-574294.33 221.75,-574294.33 221.75,-574275.83 387.75,-574275.83 387.75,-574294.33"/>
<text text-anchor="middle" x="304.75" y="-574280.83" font-family="Helvetica,sans-Serif" font-size="10.00">examples/read_file.c</text>
</a>
</g>
</g>
<!-- Node2&#45;&gt;Node7 -->
<g id="edge6" class="edge">
<title>Node2&#45;&gt;Node7</title>
<path fill="none" stroke="#63b8ff" d="M917.71,-1506767.82C913.31,-1504531.83 524.55,-1306875.18 396.75,-1148570.15 191.31,-894096.21 304.07,-576193.87 304.75,-574294.63"/>
<polygon fill="#63b8ff" stroke="#63b8ff" points="914.21,-1506767.43 917.73,-1506777.43 921.21,-1506767.42 914.21,-1506767.43"/>
</g>
<!-- Node8 -->
<g id="node8" class="node">
<title>Node8</title>
<g id="a_node8"><a xlink:href="read__file__ll_8c.html" target="_top" xlink:title=" ">
<polygon fill="white" stroke="#666666" points="594,-1148570.15 405.5,-1148570.15 405.5,0 594,0 594,-1148570.15"/>
<text text-anchor="middle" x="499.75" y="-1148556.65" font-family="Helvetica,sans-Serif" font-size="10.00">examples/read_file_ll.c</text>
</a>
</g>
</g>
<!-- Node2&#45;&gt;Node8 -->
<g id="edge7" class="edge">
<title>Node2&#45;&gt;Node8</title>
<path fill="none" stroke="#63b8ff" d="M917.73,-1506767.82C915.14,-1504531.83 686.55,-1306875.1 602.75,-1148570.15 599.93,-1143238.43 597.18,-1137878.86 594.5,-1132494.94"/>
<polygon fill="#63b8ff" stroke="#63b8ff" points="914.23,-1506767.43 917.74,-1506777.43 921.23,-1506767.42 914.23,-1506767.43"/>
</g>
<!-- Node9 -->
<g id="node9" class="node">
<title>Node9</title>
<g id="a_node9"><a xlink:href="readme__example_8c.html" target="_top" xlink:title=" ">
<polygon fill="white" stroke="#666666" points="815.5,-932391.84 612,-932391.84 612,-216178.31 815.5,-216178.31 815.5,-932391.84"/>
<text text-anchor="middle" x="713.75" y="-932378.34" font-family="Helvetica,sans-Serif" font-size="10.00">examples/readme_example.c</text>
</a>
</g>
</g>
<!-- Node2&#45;&gt;Node9 -->
<g id="edge8" class="edge">
<title>Node2&#45;&gt;Node9</title>
<path fill="none" stroke="#63b8ff" d="M917.74,-1506767.82C917.1,-1504531.83 860.6,-1306875.06 824.75,-1148570.15 808.92,-1078675.11 793.44,-1003995 779.3,-932391.98"/>
<polygon fill="#63b8ff" stroke="#63b8ff" points="914.24,-1506767.43 917.75,-1506777.43 921.24,-1506767.43 914.24,-1506767.43"/>
</g>
<!-- Node10&#45;&gt;Node2 -->
<g id="edge10" class="edge">
<title>Node10&#45;&gt;Node2</title>
<path fill="none" stroke="#63b8ff" d="M1277.73,-1864994.81C1274.72,-1861995.52 919.75,-1508783.56 917.76,-1506797.37"/>
<polygon fill="#63b8ff" stroke="#63b8ff" points="1274.23,-1864994.57 1277.74,-1865004.57 1281.23,-1864994.57 1274.23,-1864994.57"/>
</g>
<!-- Node11 -->
<g id="node11" class="node">
<title>Node11</title>
<g id="a_node11"><a xlink:href="sqsh__directory__private_8h.html" target="_top" xlink:title=" ">
<polygon fill="white" stroke="#666666" points="1486.25,-1506806.21 1305.25,-1506806.21 1305.25,-1506769.71 1486.25,-1506769.71 1486.25,-1506806.21"/>
<text text-anchor="start" x="1313.25" y="-1506792.71" font-family="Helvetica,sans-Serif" font-size="10.00">include/sqsh_directory</text>
<text text-anchor="middle" x="1395.75" y="-1506774.71" font-family="Helvetica,sans-Serif" font-size="10.00">_private.h</text>
</a>
</g>
</g>
<!-- Node10&#45;&gt;Node11 -->
<g id="edge11" class="edge">
<title>Node10&#45;&gt;Node11</title>
<path fill="none" stroke="#63b8ff" d="M1277.76,-1864994.83C1278.74,-1862000.56 1394.8,-1509670.66 1395.74,-1506806.52"/>
<polygon fill="#63b8ff" stroke="#63b8ff" points="1274.26,-1864994.57 1277.75,-1865004.57 1281.26,-1864994.57 1274.26,-1864994.57"/>
</g>
<!-- Node12 -->
<g id="node12" class="node">
<title>Node12</title>
<g id="a_node12"><a xlink:href="sqsh__tree__private_8h.html" target="_top" xlink:title=" ">
<polygon fill="white" stroke="#666666" points="1627,-932440.91 1408.5,-932440.91 1408.5,-216129.24 1627,-216129.24 1627,-932440.91"/>
<text text-anchor="middle" x="1517.75" y="-932427.41" font-family="Helvetica,sans-Serif" font-size="10.00">include/sqsh_tree_private.h</text>
</a>
</g>
</g>
<!-- Node11&#45;&gt;Node12 -->
<g id="edge12" class="edge">
<title>Node11&#45;&gt;Node12</title>
<path fill="none" stroke="#63b8ff" d="M1395.75,-1506758.61C1396.2,-1503353.17 1436.69,-1193900.06 1470.89,-932441.41"/>
<polygon fill="#63b8ff" stroke="#63b8ff" points="1392.25,-1506758.47 1395.75,-1506768.48 1399.25,-1506758.48 1392.25,-1506758.47"/>
</g>
<!-- Node13&#45;&gt;Node11 -->
<g id="edge15" class="edge">
<title>Node13&#45;&gt;Node11</title>
<path fill="none" stroke="#63b8ff" d="M1506.38,-1864994.92C1504.12,-1864987.2 1501.87,-1864978.16 1500.75,-1864969.77 1173.34,-1862514.24 1393.94,-1509670.73 1395.74,-1506806.5"/>
<polygon fill="#63b8ff" stroke="#63b8ff" points="1503.32,-1864995.86 1509.66,-1865004.35 1510,-1864993.76 1503.32,-1864995.86"/>
</g>
<!-- Node13&#45;&gt;Node12 -->
<g id="edge16" class="edge">
<title>Node13&#45;&gt;Node12</title>
<path fill="none" stroke="#63b8ff" d="M1512.75,-1864994.43C1512.76,-1861220.69 1514.89,-1313096.34 1516.36,-932441.37"/>
<polygon fill="#63b8ff" stroke="#63b8ff" points="1509.25,-1864994.37 1512.75,-1865004.37 1516.25,-1864994.37 1509.25,-1864994.37"/>
</g>
<!-- Node14 -->
<g id="node14" class="node">
<title>Node14</title>
<g id="a_node14"><a xlink:href="sqsh__archive__private_8h.html" target="_top" xlink:title=" ">
<polygon fill="white" stroke="#666666" points="1708.75,-1864969.77 1542.75,-1864969.77 1542.75,-1148606.15 1708.75,-1148606.15 1708.75,-1864969.77"/>
<text text-anchor="start" x="1550.75" y="-1864956.27" font-family="Helvetica,sans-Serif" font-size="10.00">include/sqsh_archive</text>
<text text-anchor="middle" x="1625.75" y="-1148611.15" font-family="Helvetica,sans-Serif" font-size="10.00">_private.h</text>
</a>
</g>
</g>
<!-- Node13&#45;&gt;Node14 -->
<g id="edge14" class="edge">
<title>Node13&#45;&gt;Node14</title>
<path fill="none" stroke="#63b8ff" d="M1521.12,-1864995.36C1524.17,-1864987.61 1527.23,-1864978.42 1528.75,-1864969.77 1533.4,-1864943.23 1537.9,-1864749.68 1542.25,-1864396.37"/>
<polygon fill="#63b8ff" stroke="#63b8ff" points="1517.53,-1864993.88 1516.86,-1865004.46 1523.98,-1864996.61 1517.53,-1864993.88"/>
</g>
<!-- Node15&#45;&gt;Node2 -->
<g id="edge18" class="edge">
<title>Node15&#45;&gt;Node2</title>
<path fill="none" stroke="#63b8ff" d="M1082.74,-1864994.81C1081.36,-1861995.52 918.67,-1508783.56 917.75,-1506797.37"/>
<polygon fill="#63b8ff" stroke="#63b8ff" points="1079.24,-1864994.57 1082.75,-1865004.57 1086.24,-1864994.57 1079.24,-1864994.57"/>
</g>
<!-- Node15&#45;&gt;Node12 -->
<g id="edge19" class="edge">
<title>Node15&#45;&gt;Node12</title>
<path fill="none" stroke="#63b8ff" d="M1082.75,-1864994.49C1081.87,-1860697.63 937.81,-1149111.69 1296.75,-1148606.15 1324.82,-1148566.61 1371.68,-1148609.7 1399.75,-1148570.15 1767.74,-1148051.83 1714.46,-914753.76 1627.5,-745711.35"/>
<polygon fill="#63b8ff" stroke="#63b8ff" points="1079.25,-1864994.32 1082.75,-1865004.32 1086.25,-1864994.32 1079.25,-1864994.32"/>
</g>
</g>
</svg>
