<?xml version="1.0" encoding="UTF-8" standalone="no"?>
<!DOCTYPE svg PUBLIC "-//W3C//DTD SVG 1.1//EN"
 "http://www.w3.org/Graphics/SVG/1.1/DTD/svg11.dtd">
<!-- Generated by graphviz version 8.0.5 (20230430.1635)
 -->
<!-- Title: include/sqsh_archive.h Pages: 1 -->
<svg width="1398pt" height="1777843pt"
 viewBox="0.00 0.00 1398.00 1777843.31" xmlns="http://www.w3.org/2000/svg" xmlns:xlink="http://www.w3.org/1999/xlink">
<g id="graph0" class="graph" transform="scale(1 1) rotate(0) translate(4 1777839.31)">
<title>include/sqsh_archive.h</title>
<!-- Node1 -->
<g id="node1" class="node">
<title>Node1</title>
<g id="a_node1"><a xlink:title=" ">
<polygon fill="#999999" stroke="#666666" points="847.75,-1777835.31 666.75,-1777835.31 666.75,-1777816.81 847.75,-1777816.81 847.75,-1777835.31"/>
<text text-anchor="middle" x="757.25" y="-1777821.81" font-family="Helvetica,sans-Serif" font-size="10.00">include/sqsh_archive.h</text>
</a>
</g>
</g>
<!-- Node2 -->
<g id="node2" class="node">
<title>Node2</title>
<g id="a_node2"><a xlink:href="sqsh_8h.html" target="_top" xlink:title=" ">
<polygon fill="white" stroke="#666666" points="736.75,-1777780.81 615.75,-1777780.81 615.75,-888846.1 736.75,-888846.1 736.75,-1777780.81"/>
<text text-anchor="middle" x="676.25" y="-1777767.31" font-family="Helvetica,sans-Serif" font-size="10.00">include/sqsh.h</text>
</a>
</g>
</g>
<!-- Node1&#45;&gt;Node2 -->
<g id="edge1" class="edge">
<title>Node1&#45;&gt;Node2</title>
<path fill="none" stroke="#63b8ff" d="M751.41,-1777805.92C749.34,-1777798.2 747.27,-1777789.16 746.25,-1777780.81 -563.25,-1767091.95 358.36,-1436907.72 615.25,-1352705.41"/>
<polygon fill="#63b8ff" stroke="#63b8ff" points="748.29,-1777806.72 754.42,-1777815.36 755.01,-1777804.78 748.29,-1777806.72"/>
</g>
<!-- Node10 -->
<g id="node10" class="node">
<title>Node10</title>
<g id="a_node10"><a xlink:href="sqsh__archive__private_8h.html" target="_top" xlink:title=" ">
<polygon fill="white" stroke="#666666" points="921.25,-1333339.91 755.25,-1333339.91 755.25,-1333287 921.25,-1333287 921.25,-1333339.91"/>
<text text-anchor="start" x="763.25" y="-1333326.41" font-family="Helvetica,sans-Serif" font-size="10.00">include/sqsh_archive</text>
<text text-anchor="middle" x="838.25" y="-1333292" font-family="Helvetica,sans-Serif" font-size="10.00">_private.h</text>
</a>
</g>
</g>
<!-- Node1&#45;&gt;Node10 -->
<g id="edge9" class="edge">
<title>Node1&#45;&gt;Node10</title>
<path fill="none" stroke="#63b8ff" d="M757.25,-1777805.48C757.87,-1774436.07 837.54,-1337214.69 838.25,-1333340.36"/>
<polygon fill="#63b8ff" stroke="#63b8ff" points="753.75,-1777805.31 757.25,-1777815.31 760.75,-1777805.31 753.75,-1777805.31"/>
</g>
<!-- Node3 -->
<g id="node3" class="node">
<title>Node3</title>
<g id="a_node3"><a xlink:href="list__dir_8c.html" target="_top" xlink:title=" ">
<polygon fill="white" stroke="#666666" points="158.5,-444414.3 0,-444414.3 0,-444395.8 158.5,-444395.8 158.5,-444414.3"/>
<text text-anchor="middle" x="79.25" y="-444400.8" font-family="Helvetica,sans-Serif" font-size="10.00">examples/list_dir.c</text>
</a>
</g>
</g>
<!-- Node2&#45;&gt;Node3 -->
<g id="edge2" class="edge">
<title>Node2&#45;&gt;Node3</title>
<path fill="none" stroke="#63b8ff" d="M615.23,-1291541.54C503.12,-1212779.23 266.71,-1036915.63 167.25,-888810.1 35.06,-691972.32 78.95,-446093.21 79.25,-444414.69"/>
<polygon fill="#63b8ff" stroke="#63b8ff" points="611.74,-1291541.36 615.25,-1291551.35 618.74,-1291541.35 611.74,-1291541.36"/>
</g>
<!-- Node4 -->
<g id="node4" class="node">
<title>Node4</title>
<g id="a_node4"><a xlink:href="list__dir__ll_8c.html" target="_top" xlink:title=" ">
<polygon fill="white" stroke="#666666" points="357.75,-888809.47 176.75,-888809.47 176.75,-0.63 357.75,-0.63 357.75,-888809.47"/>
<text text-anchor="middle" x="267.25" y="-888795.97" font-family="Helvetica,sans-Serif" font-size="10.00">examples/list_dir_ll.c</text>
</a>
</g>
</g>
<!-- Node2&#45;&gt;Node4 -->
<g id="edge3" class="edge">
<title>Node2&#45;&gt;Node4</title>
<path fill="none" stroke="#63b8ff" d="M615.24,-1260946.48C543.51,-1172976.34 426.61,-1020002.96 366.25,-888810.1 363.51,-882851.9 360.84,-876848.76 358.25,-870808.82"/>
<polygon fill="#63b8ff" stroke="#63b8ff" points="611.74,-1260946.31 615.25,-1260956.3 618.74,-1260946.3 611.74,-1260946.31"/>
</g>
<!-- Node5 -->
<g id="node5" class="node">
<title>Node5</title>
<g id="a_node5"><a xlink:href="list__xattrs_8c.html" target="_top" xlink:title=" ">
<polygon fill="white" stroke="#666666" points="556.75,-888810.1 375.75,-888810.1 375.75,0 556.75,0 556.75,-888810.1"/>
<text text-anchor="middle" x="466.25" y="-888796.6" font-family="Helvetica,sans-Serif" font-size="10.00">examples/list_xattrs.c</text>
</a>
</g>
</g>
<!-- Node2&#45;&gt;Node5 -->
<g id="edge4" class="edge">
<title>Node2&#45;&gt;Node5</title>
<path fill="none" stroke="#63b8ff" d="M615.25,-1093762.88C598.67,-1027382.17 580.96,-955298.98 565.25,-888810.1 562.6,-877584.89 559.93,-866200.19 557.25,-854710.39"/>
<polygon fill="#63b8ff" stroke="#63b8ff" points="611.75,-1093762.51 615.25,-1093772.51 618.75,-1093762.51 611.75,-1093762.51"/>
</g>
<!-- Node6 -->
<g id="node6" class="node">
<title>Node6</title>
<g id="a_node6"><a xlink:href="list__xattrs__ll_8c.html" target="_top" xlink:title=" ">
<polygon fill="white" stroke="#666666" points="778,-444418.05 574.5,-444418.05 574.5,-444392.05 778,-444392.05 778,-444418.05"/>
<text text-anchor="middle" x="676.25" y="-444404.55" font-family="Helvetica,sans-Serif" font-size="10.00">examples/list_xattrs_ll.c</text>
</a>
</g>
</g>
<!-- Node2&#45;&gt;Node6 -->
<g id="edge5" class="edge">
<title>Node2&#45;&gt;Node6</title>
<path fill="none" stroke="#63b8ff" d="M676.25,-888835.14C676.25,-667566.01 676.25,-446304.85 676.25,-444418.2"/>
<polygon fill="#63b8ff" stroke="#63b8ff" points="672.75,-888834.9 676.25,-888844.9 679.75,-888834.9 672.75,-888834.9"/>
</g>
<!-- Node7 -->
<g id="node7" class="node">
<title>Node7</title>
<g id="a_node7"><a xlink:href="read__file_8c.html" target="_top" xlink:title=" ">
<polygon fill="white" stroke="#666666" points="962.25,-444414.3 796.25,-444414.3 796.25,-444395.8 962.25,-444395.8 962.25,-444414.3"/>
<text text-anchor="middle" x="879.25" y="-444400.8" font-family="Helvetica,sans-Serif" font-size="10.00">examples/read_file.c</text>
</a>
</g>
</g>
<!-- Node2&#45;&gt;Node7 -->
<g id="edge6" class="edge">
<title>Node2&#45;&gt;Node7</title>
<path fill="none" stroke="#63b8ff" d="M615.22,-1309608.77C387.08,-1217892.62 -348.12,-891262.87 746.25,-888846.1 756.25,-888824.01 777.25,-888832.19 787.25,-888810.1 1104.71,-888109.08 880.41,-446677.98 879.25,-444414.78"/>
<polygon fill="#63b8ff" stroke="#63b8ff" points="611.73,-1309608.54 615.25,-1309618.53 618.73,-1309608.52 611.73,-1309608.54"/>
</g>
<!-- Node8 -->
<g id="node8" class="node">
<title>Node8</title>
<g id="a_node8"><a xlink:href="read__file__ll_8c.html" target="_top" xlink:title=" ">
<polygon fill="white" stroke="#666666" points="1168.5,-444414.3 980,-444414.3 980,-444395.8 1168.5,-444395.8 1168.5,-444414.3"/>
<text text-anchor="middle" x="1074.25" y="-444400.8" font-family="Helvetica,sans-Serif" font-size="10.00">examples/read_file_ll.c</text>
</a>
</g>
</g>
<!-- Node2&#45;&gt;Node8 -->
<g id="edge7" class="edge">
<title>Node2&#45;&gt;Node8</title>
<path fill="none" stroke="#63b8ff" d="M615.23,-1302248.32C425.44,-1201438.67 -93.17,-889830.35 746.25,-888846.1 811.97,-888769.05 905.53,-888887.15 971.25,-888810.1 1220.95,-888517.35 1075,-446680.07 1074.25,-444414.79"/>
<polygon fill="#63b8ff" stroke="#63b8ff" points="611.73,-1302248.29 615.25,-1302258.28 618.73,-1302248.28 611.73,-1302248.29"/>
</g>
<!-- Node9 -->
<g id="node9" class="node">
<title>Node9</title>
<g id="a_node9"><a xlink:href="readme__example_8c.html" target="_top" xlink:title=" ">
<polygon fill="white" stroke="#666666" points="1390,-444414.3 1186.5,-444414.3 1186.5,-444395.8 1390,-444395.8 1390,-444414.3"/>
<text text-anchor="middle" x="1288.25" y="-444400.8" font-family="Helvetica,sans-Serif" font-size="10.00">examples/readme_example.c</text>
</a>
</g>
</g>
<!-- Node2&#45;&gt;Node9 -->
<g id="edge8" class="edge">
<title>Node2&#45;&gt;Node9</title>
<path fill="none" stroke="#63b8ff" d="M615.23,-1303695.75C418.93,-1204454.13 -133.87,-889802.65 746.25,-888846.1 811.33,-888775.37 1112.17,-888880.83 1177.25,-888810.1 1437.8,-888526.96 1289.02,-446680.12 1288.25,-444414.79"/>
<polygon fill="#63b8ff" stroke="#63b8ff" points="611.73,-1303695.55 615.25,-1303705.54 618.73,-1303695.54 611.73,-1303695.55"/>
</g>
</g>
</svg>
