<?xml version="1.0" encoding="UTF-8" standalone="no"?>
<!DOCTYPE svg PUBLIC "-//W3C//DTD SVG 1.1//EN"
 "http://www.w3.org/Graphics/SVG/1.1/DTD/svg11.dtd">
<!-- Generated by graphviz version 8.0.5 (20230430.1635)
 -->
<!-- Title: include/sqsh_error.h Pages: 1 -->
<!--zoomable 2621539 -->
<svg id="main" version="1.1" xmlns="http://www.w3.org/2000/svg" xmlns:xlink="http://www.w3.org/1999/xlink" xml:space="preserve" onload="init(evt)">
<style type="text/css"><![CDATA[
.edge:hover path { stroke: red; }
.edge:hover polygon { stroke: red; fill: red; }
]]></style>
<script type="text/javascript"><![CDATA[
var edges = document.getElementsByTagName('g');
if (edges && edges.length) {
  for (var i=0;i<edges.length;i++) {
    if (edges[i].id.substr(0,4)=='edge') {
      edges[i].setAttribute('class','edge');
    }
  }
}
]]></script>
        <defs>
                <circle id="rim" cx="0" cy="0" r="7"/>
                <circle id="rim2" cx="0" cy="0" r="3.5"/>
                <g id="zoomPlus">
                        <use xlink:href="#rim" fill="#404040">
                                <set attributeName="fill" to="#808080" begin="zoomplus.mouseover" end="zoomplus.mouseout"/>
                        </use>
                        <path d="M-4,0h8M0,-4v8" fill="none" stroke="white" stroke-width="1.5" pointer-events="none"/>
                </g>
                <g id="zoomMin">
                        <use xlink:href="#rim" fill="#404040">
                                <set attributeName="fill" to="#808080" begin="zoomminus.mouseover" end="zoomminus.mouseout"/>
                        </use>
                        <path d="M-4,0h8" fill="none" stroke="white" stroke-width="1.5" pointer-events="none"/>
                </g>
                <g id="dirArrow">
                        <path fill="none" stroke="white" stroke-width="1.5" d="M0,-3.0v7 M-2.5,-0.5L0,-3.0L2.5,-0.5"/>
                </g>
               <g id="resetDef">
                       <use xlink:href="#rim2" fill="#404040">
                               <set attributeName="fill" to="#808080" begin="reset.mouseover" end="reset.mouseout"/>
                       </use>
               </g>
        </defs>

<script type="text/javascript">
var viewWidth = 1398;
var viewHeight = 2621539;
var sectionId = 'dynsection-1';
</script>
<script xlink:href="svgpan.js"/>
<svg id="graph" class="graph">
<g id="viewport">
<title>include/sqsh_error.h</title>
<!-- Node1 -->
<g id="node1" class="node">
<title>Node1</title>
<g id="a_node1"><a xlink:title=" ">
<polygon fill="#999999" stroke="#666666" points="840.25,-2621531.2 674.25,-2621531.2 674.25,-2621512.69 840.25,-2621512.69 840.25,-2621531.2"/>
<text text-anchor="middle" x="757.25" y="-2621517.7" font-family="Helvetica,sans-Serif" font-size="10.00">include/sqsh_error.h</text>
</a>
</g>
</g>
<!-- Node2 -->
<g id="node2" class="node">
<title>Node2</title>
<g id="a_node2"><a xlink:href="sqsh_8h.html" target="_top" xlink:title=" ">
<polygon fill="white" stroke="#666666" points="736.75,-2621476.69 615.75,-2621476.69 615.75,-1310814.69 736.75,-1310814.69 736.75,-2621476.69"/>
<text text-anchor="middle" x="676.25" y="-2621463.19" font-family="Helvetica,sans-Serif" font-size="10.00">include/sqsh.h</text>
</a>
</g>
</g>
<!-- Node1&#45;&gt;Node2 -->
<g id="edge1" class="edge">
<title>Node1&#45;&gt;Node2</title>
<path fill="none" stroke="#63b8ff" d="M751.41,-2621501.8C749.34,-2621494.08 747.27,-2621485.04 746.25,-2621476.69 -191.51,-2613819.68 410.04,-2148393.32 615.25,-2006661.37"/>
<polygon fill="#63b8ff" stroke="#63b8ff" points="748.29,-2621502.61 754.42,-2621511.25 755.01,-2621500.67 748.29,-2621502.61"/>
</g>
<!-- Node10 -->
<g id="node10" class="node">
<title>Node10</title>
<g id="a_node10"><a xlink:href="sqsh__archive__private_8h.html" target="_top" xlink:title=" ">
<polygon fill="white" stroke="#666666" points="921.25,-1966160.19 755.25,-1966160.19 755.25,-1966131.19 921.25,-1966131.19 921.25,-1966160.19"/>
<text text-anchor="start" x="763.25" y="-1966146.69" font-family="Helvetica,sans-Serif" font-size="10.00">include/sqsh_archive</text>
<text text-anchor="middle" x="838.25" y="-1966136.19" font-family="Helvetica,sans-Serif" font-size="10.00">_private.h</text>
</a>
</g>
</g>
<!-- Node1&#45;&gt;Node10 -->
<g id="edge9" class="edge">
<title>Node1&#45;&gt;Node10</title>
<path fill="none" stroke="#63b8ff" d="M757.25,-2621501.25C757.76,-2617385.06 837.82,-1969603.86 838.25,-1966160.47"/>
<polygon fill="#63b8ff" stroke="#63b8ff" points="753.75,-2621501.24 757.25,-2621511.24 760.75,-2621501.24 753.75,-2621501.24"/>
</g>
<!-- Node3 -->
<g id="node3" class="node">
<title>Node3</title>
<g id="a_node3"><a xlink:href="list__dir_8c.html" target="_top" xlink:title=" ">
<polygon fill="white" stroke="#666666" points="158.5,-1310721.05 0,-1310721.05 0,-57.64 158.5,-57.64 158.5,-1310721.05"/>
<text text-anchor="middle" x="79.25" y="-1310707.55" font-family="Helvetica,sans-Serif" font-size="10.00">examples/list_dir.c</text>
</a>
</g>
</g>
<!-- Node2&#45;&gt;Node3 -->
<g id="edge2" class="edge">
<title>Node2&#45;&gt;Node3</title>
<path fill="none" stroke="#63b8ff" d="M615.24,-1904563.84C503.12,-1788440.8 266.71,-1529146.08 167.25,-1310778.69 164.42,-1304565.22 161.67,-1298318.63 159,-1292043.13"/>
<polygon fill="#63b8ff" stroke="#63b8ff" points="611.74,-1904563.81 615.25,-1904573.8 618.74,-1904563.8 611.74,-1904563.81"/>
</g>
<!-- Node4 -->
<g id="node4" class="node">
<title>Node4</title>
<g id="a_node4"><a xlink:href="list__dir__ll_8c.html" target="_top" xlink:title=" ">
<polygon fill="white" stroke="#666666" points="357.75,-1310778.69 176.75,-1310778.69 176.75,0 357.75,0 357.75,-1310778.69"/>
<text text-anchor="middle" x="267.25" y="-1310765.19" font-family="Helvetica,sans-Serif" font-size="10.00">examples/list_dir_ll.c</text>
</a>
</g>
</g>
<!-- Node2&#45;&gt;Node4 -->
<g id="edge3" class="edge">
<title>Node2&#45;&gt;Node4</title>
<path fill="none" stroke="#63b8ff" d="M615.24,-1859457.07C543.51,-1729756.71 426.61,-1504210.68 366.25,-1310778.69 363.51,-1301993.45 360.84,-1293141.96 358.25,-1284236.23"/>
<polygon fill="#63b8ff" stroke="#63b8ff" points="611.74,-1859456.83 615.25,-1859466.83 618.74,-1859456.83 611.74,-1859456.83"/>
</g>
<!-- Node5 -->
<g id="node5" class="node">
<title>Node5</title>
<g id="a_node5"><a xlink:href="list__xattrs_8c.html" target="_top" xlink:title=" ">
<polygon fill="white" stroke="#666666" points="556.75,-655398.59 375.75,-655398.59 375.75,-655380.09 556.75,-655380.09 556.75,-655398.59"/>
<text text-anchor="middle" x="466.25" y="-655385.09" font-family="Helvetica,sans-Serif" font-size="10.00">examples/list_xattrs.c</text>
</a>
</g>
</g>
<!-- Node2&#45;&gt;Node5 -->
<g id="edge4" class="edge">
<title>Node2&#45;&gt;Node5</title>
<path fill="none" stroke="#63b8ff" d="M615.25,-1612976.98C598.67,-1515101.06 580.96,-1408815.24 565.25,-1310778.69 518.71,-1020312.79 466.54,-657434.3 466.25,-655398.94"/>
<polygon fill="#63b8ff" stroke="#63b8ff" points="611.75,-1612976.9 615.25,-1612986.9 618.75,-1612976.9 611.75,-1612976.9"/>
</g>
<!-- Node6 -->
<g id="node6" class="node">
<title>Node6</title>
<g id="a_node6"><a xlink:href="list__xattrs__ll_8c.html" target="_top" xlink:title=" ">
<polygon fill="white" stroke="#666666" points="778,-655398.59 574.5,-655398.59 574.5,-655380.09 778,-655380.09 778,-655398.59"/>
<text text-anchor="middle" x="676.25" y="-655385.09" font-family="Helvetica,sans-Serif" font-size="10.00">examples/list_xattrs_ll.c</text>
</a>
</g>
</g>
<!-- Node2&#45;&gt;Node6 -->
<g id="edge5" class="edge">
<title>Node2&#45;&gt;Node6</title>
<path fill="none" stroke="#63b8ff" d="M676.25,-1310803.64C676.25,-984063.09 676.25,-657310.56 676.25,-655398.77"/>
<polygon fill="#63b8ff" stroke="#63b8ff" points="672.75,-1310803.39 676.25,-1310813.39 679.75,-1310803.39 672.75,-1310803.39"/>
</g>
<!-- Node7 -->
<g id="node7" class="node">
<title>Node7</title>
<g id="a_node7"><a xlink:href="read__file_8c.html" target="_top" xlink:title=" ">
<polygon fill="white" stroke="#666666" points="962.25,-655398.59 796.25,-655398.59 796.25,-655380.09 962.25,-655380.09 962.25,-655398.59"/>
<text text-anchor="middle" x="879.25" y="-655385.09" font-family="Helvetica,sans-Serif" font-size="10.00">examples/read_file.c</text>
</a>
</g>
</g>
<!-- Node2&#45;&gt;Node7 -->
<g id="edge6" class="edge">
<title>Node2&#45;&gt;Node7</title>
<path fill="none" stroke="#63b8ff" d="M615.24,-1916885.75C435.14,-1764768.44 -34.42,-1312538.81 746.25,-1310814.69 756.25,-1310792.6 777.25,-1310800.78 787.25,-1310778.69 1021.43,-1310261.52 879.85,-658145.38 879.25,-655399.04"/>
<polygon fill="#63b8ff" stroke="#63b8ff" points="611.74,-1916885.63 615.25,-1916895.63 618.74,-1916885.62 611.74,-1916885.63"/>
</g>
<!-- Node8 -->
<g id="node8" class="node">
<title>Node8</title>
<g id="a_node8"><a xlink:href="read__file__ll_8c.html" target="_top" xlink:title=" ">
<polygon fill="white" stroke="#666666" points="1168.5,-655398.59 980,-655398.59 980,-655380.09 1168.5,-655380.09 1168.5,-655398.59"/>
<text text-anchor="middle" x="1074.25" y="-655385.09" font-family="Helvetica,sans-Serif" font-size="10.00">examples/read_file_ll.c</text>
</a>
</g>
</g>
<!-- Node2&#45;&gt;Node8 -->
<g id="edge7" class="edge">
<title>Node2&#45;&gt;Node8</title>
<path fill="none" stroke="#63b8ff" d="M615.23,-1936311.28C361.32,-1808347.86 -539.77,-1312322.67 746.25,-1310814.69 811.96,-1310737.63 905.53,-1310855.74 971.25,-1310778.69 1339.65,-1310346.73 1075.37,-658145.74 1074.25,-655399.04"/>
<polygon fill="#63b8ff" stroke="#63b8ff" points="611.73,-1936311.27 615.25,-1936321.26 618.73,-1936311.26 611.73,-1936311.27"/>
</g>
<!-- Node9 -->
<g id="node9" class="node">
<title>Node9</title>
<g id="a_node9"><a xlink:href="readme__example_8c.html" target="_top" xlink:title=" ">
<polygon fill="white" stroke="#666666" points="1390,-655402.34 1186.5,-655402.34 1186.5,-655376.34 1390,-655376.34 1390,-655402.34"/>
<text text-anchor="middle" x="1288.25" y="-655388.84" font-family="Helvetica,sans-Serif" font-size="10.00">examples/readme_example.c</text>
</a>
</g>
</g>
<!-- Node2&#45;&gt;Node9 -->
<g id="edge8" class="edge">
<title>Node2&#45;&gt;Node9</title>
<path fill="none" stroke="#63b8ff" d="M615.23,-1937651.48C353.59,-1811846.69 -600.38,-1312278.33 746.25,-1310814.69 811.32,-1310743.96 1112.17,-1310849.41 1177.25,-1310778.69 1561.5,-1310361.08 1289.62,-658664.29 1288.26,-655402.63"/>
<polygon fill="#63b8ff" stroke="#63b8ff" points="611.73,-1937651.28 615.25,-1937661.28 618.73,-1937651.27 611.73,-1937651.28"/>
</g>
</g>
</svg>
        <g id="navigator" transform="translate(0 0)" fill="#404254">
                <rect fill="#f2f5e9" fill-opacity="0.5" stroke="#606060" stroke-width=".5" x="0" y="0" width="60" height="60"/>
                <use id="zoomplus" xlink:href="#zoomPlus" x="17" y="9" onmousedown="handleZoom(evt,'in')"/>
                <use id="zoomminus" xlink:href="#zoomMin" x="42" y="9" onmousedown="handleZoom(evt,'out')"/>
                <use id="reset" xlink:href="#resetDef" x="30" y="36" onmousedown="handleReset()"/>
                <g id="arrowUp" xlink:href="#dirArrow" transform="translate(30 24)" onmousedown="handlePan(0,-1)">
                  <use xlink:href="#rim" fill="#404040">
                        <set attributeName="fill" to="#808080" begin="arrowUp.mouseover" end="arrowUp.mouseout"/>
                  </use>
                  <path fill="none" stroke="white" stroke-width="1.5" d="M0,-3.0v7 M-2.5,-0.5L0,-3.0L2.5,-0.5"/>
                </g>
                <g id="arrowRight" xlink:href="#dirArrow" transform="rotate(90) translate(36 -43)" onmousedown="handlePan(1,0)">
                  <use xlink:href="#rim" fill="#404040">
                        <set attributeName="fill" to="#808080" begin="arrowRight.mouseover" end="arrowRight.mouseout"/>
                  </use>
                  <path fill="none" stroke="white" stroke-width="1.5" d="M0,-3.0v7 M-2.5,-0.5L0,-3.0L2.5,-0.5"/>
                </g>
                <g id="arrowDown" xlink:href="#dirArrow" transform="rotate(180) translate(-30 -48)" onmousedown="handlePan(0,1)">
                  <use xlink:href="#rim" fill="#404040">
                        <set attributeName="fill" to="#808080" begin="arrowDown.mouseover" end="arrowDown.mouseout"/>
                  </use>
                  <path fill="none" stroke="white" stroke-width="1.5" d="M0,-3.0v7 M-2.5,-0.5L0,-3.0L2.5,-0.5"/>
                </g>
                <g id="arrowLeft" xlink:href="#dirArrow" transform="rotate(270) translate(-36 17)" onmousedown="handlePan(-1,0)">
                  <use xlink:href="#rim" fill="#404040">
                        <set attributeName="fill" to="#808080" begin="arrowLeft.mouseover" end="arrowLeft.mouseout"/>
                  </use>
                  <path fill="none" stroke="white" stroke-width="1.5" d="M0,-3.0v7 M-2.5,-0.5L0,-3.0L2.5,-0.5"/>
                </g>
        </g>
        <svg viewBox="0 0 15 15" width="100%" height="30px" preserveAspectRatio="xMaxYMin meet">
         <g id="arrow_out" transform="scale(0.3 0.3)">
          <a xlink:href="sqsh__error_8h__dep__incl_org.svg" target="_base">
           <rect id="button" ry="5" rx="5" y="6" x="6" height="38" width="38"
                fill="#f2f5e9" fill-opacity="0.5" stroke="#606060" stroke-width="1.0"/>
           <path id="arrow"
             d="M 11.500037,31.436501 C 11.940474,20.09759 22.043105,11.32322 32.158766,21.979434 L 37.068811,17.246167 C 37.068811,17.246167 37.088388,32 37.088388,32 L 22.160133,31.978069 C 22.160133,31.978069 26.997745,27.140456 26.997745,27.140456 C 18.528582,18.264221 13.291696,25.230495 11.500037,31.436501 z"
             style="fill:#404040;"/>
          </a>
         </g>
        </svg>
</svg>
