<?xml version="1.0" encoding="UTF-8" standalone="no"?>
<!DOCTYPE svg PUBLIC "-//W3C//DTD SVG 1.1//EN"
 "http://www.w3.org/Graphics/SVG/1.1/DTD/svg11.dtd">
<!-- Generated by graphviz version 7.0.5 (20221223.1930)
 -->
<!-- Title: sqsh_mapper.h Pages: 1 -->
<svg width="809pt" height="302pt"
 viewBox="0.00 0.00 809.00 302.00" xmlns="http://www.w3.org/2000/svg" xmlns:xlink="http://www.w3.org/1999/xlink">
<g id="graph0" class="graph" transform="scale(1 1) rotate(0) translate(4 298)">
<title>sqsh_mapper.h</title>
<!-- Node1 -->
<g id="node1" class="node">
<title>Node1</title>
<g id="a_node1"><a xlink:title=" ">
<polygon fill="#999999" stroke="#666666" points="515.5,-294 401.5,-294 401.5,-275 515.5,-275 515.5,-294"/>
<text text-anchor="middle" x="458.5" y="-282" font-family="Helvetica,sans-Serif" font-size="10.00">sqsh_mapper.h</text>
</a>
</g>
</g>
<!-- Node2 -->
<g id="node2" class="node">
<title>Node2</title>
<g id="a_node2"><a xlink:href="sqsh__mapper__private_8h.html" target="_top" xlink:title=" ">
<polygon fill="white" stroke="#666666" points="545.5,-239 371.5,-239 371.5,-220 545.5,-220 545.5,-239"/>
<text text-anchor="middle" x="458.5" y="-227" font-family="Helvetica,sans-Serif" font-size="10.00">sqsh_mapper_private.h</text>
</a>
</g>
</g>
<!-- Node1&#45;&gt;Node2 -->
<g id="edge1" class="edge">
<title>Node1&#45;&gt;Node2</title>
<path fill="none" stroke="#63b8ff" d="M458.5,-263.35C458.5,-255.1 458.5,-245.97 458.5,-239.44"/>
<polygon fill="#63b8ff" stroke="#63b8ff" points="455,-263.23 458.5,-273.23 462,-263.23 455,-263.23"/>
</g>
<!-- Node3 -->
<g id="node3" class="node">
<title>Node3</title>
<g id="a_node3"><a xlink:href="sqsh__metablock__private_8h.html" target="_top" xlink:title=" ">
<polygon fill="white" stroke="#666666" points="457,-184 260,-184 260,-165 457,-165 457,-184"/>
<text text-anchor="middle" x="358.5" y="-172" font-family="Helvetica,sans-Serif" font-size="10.00">sqsh_metablock_private.h</text>
</a>
</g>
</g>
<!-- Node2&#45;&gt;Node3 -->
<g id="edge2" class="edge">
<title>Node2&#45;&gt;Node3</title>
<path fill="none" stroke="#63b8ff" d="M431.39,-214.13C413.46,-204.63 390.52,-192.47 375.21,-184.36"/>
<polygon fill="#63b8ff" stroke="#63b8ff" points="429.72,-217.21 440.2,-218.8 433,-211.02 429.72,-217.21"/>
</g>
<!-- Node9 -->
<g id="node9" class="node">
<title>Node9</title>
<g id="a_node9"><a xlink:href="sqsh__table__private_8h.html" target="_top" xlink:title=" ">
<polygon fill="white" stroke="#666666" points="680,-184 513,-184 513,-165 680,-165 680,-184"/>
<text text-anchor="middle" x="596.5" y="-172" font-family="Helvetica,sans-Serif" font-size="10.00">sqsh_table_private.h</text>
</a>
</g>
</g>
<!-- Node2&#45;&gt;Node9 -->
<g id="edge9" class="edge">
<title>Node2&#45;&gt;Node9</title>
<path fill="none" stroke="#63b8ff" d="M492.47,-215.45C517.66,-205.78 551.32,-192.85 573.44,-184.36"/>
<polygon fill="#63b8ff" stroke="#63b8ff" points="491.4,-212.11 483.32,-218.97 493.91,-218.65 491.4,-212.11"/>
</g>
<!-- Node4 -->
<g id="node4" class="node">
<title>Node4</title>
<g id="a_node4"><a xlink:href="sqsh__directory__private_8h.html" target="_top" xlink:title=" ">
<polygon fill="white" stroke="#666666" points="382,-129 185,-129 185,-110 382,-110 382,-129"/>
<text text-anchor="middle" x="283.5" y="-117" font-family="Helvetica,sans-Serif" font-size="10.00">sqsh_directory_private.h</text>
</a>
</g>
</g>
<!-- Node3&#45;&gt;Node4 -->
<g id="edge3" class="edge">
<title>Node3&#45;&gt;Node4</title>
<path fill="none" stroke="#63b8ff" d="M336.45,-157.92C323.28,-148.61 307.03,-137.13 296.03,-129.36"/>
<polygon fill="#63b8ff" stroke="#63b8ff" points="334.35,-160.72 344.54,-163.64 338.39,-155.01 334.35,-160.72"/>
</g>
<!-- Node6 -->
<g id="node6" class="node">
<title>Node6</title>
<g id="a_node6"><a xlink:href="sqsh__inode__private_8h.html" target="_top" xlink:title=" ">
<polygon fill="white" stroke="#666666" points="167,-129 0,-129 0,-110 167,-110 167,-129"/>
<text text-anchor="middle" x="83.5" y="-117" font-family="Helvetica,sans-Serif" font-size="10.00">sqsh_inode_private.h</text>
</a>
</g>
</g>
<!-- Node3&#45;&gt;Node6 -->
<g id="edge5" class="edge">
<title>Node3&#45;&gt;Node6</title>
<path fill="none" stroke="#63b8ff" d="M300.73,-162.37C249.94,-152.58 176.99,-138.52 129.92,-129.45"/>
<polygon fill="#63b8ff" stroke="#63b8ff" points="299.88,-165.77 310.36,-164.22 301.21,-158.89 299.88,-165.77"/>
</g>
<!-- Node7 -->
<g id="node7" class="node">
<title>Node7</title>
<g id="a_node7"><a xlink:href="sqsh__xattr__private_8h.html" target="_top" xlink:title=" ">
<polygon fill="white" stroke="#666666" points="567,-129 400,-129 400,-110 567,-110 567,-129"/>
<text text-anchor="middle" x="483.5" y="-117" font-family="Helvetica,sans-Serif" font-size="10.00">sqsh_xattr_private.h</text>
</a>
</g>
</g>
<!-- Node3&#45;&gt;Node7 -->
<g id="edge7" class="edge">
<title>Node3&#45;&gt;Node7</title>
<path fill="none" stroke="#63b8ff" d="M390.19,-160.06C412.9,-150.43 442.84,-137.74 462.61,-129.36"/>
<polygon fill="#63b8ff" stroke="#63b8ff" points="388.94,-156.79 381.1,-163.92 391.67,-163.24 388.94,-156.79"/>
</g>
<!-- Node5 -->
<g id="node5" class="node">
<title>Node5</title>
<g id="a_node5"><a xlink:href="sqsh__tree__private_8h.html" target="_top" xlink:title=" ">
<polygon fill="white" stroke="#666666" points="363,-74 204,-74 204,-55 363,-55 363,-74"/>
<text text-anchor="middle" x="283.5" y="-62" font-family="Helvetica,sans-Serif" font-size="10.00">sqsh_tree_private.h</text>
</a>
</g>
</g>
<!-- Node4&#45;&gt;Node5 -->
<g id="edge4" class="edge">
<title>Node4&#45;&gt;Node5</title>
<path fill="none" stroke="#63b8ff" d="M283.5,-98.35C283.5,-90.1 283.5,-80.97 283.5,-74.44"/>
<polygon fill="#63b8ff" stroke="#63b8ff" points="280,-98.23 283.5,-108.23 287,-98.23 280,-98.23"/>
</g>
<!-- Node6&#45;&gt;Node5 -->
<g id="edge6" class="edge">
<title>Node6&#45;&gt;Node5</title>
<path fill="none" stroke="#63b8ff" d="M128.34,-106.62C165.11,-96.87 216.37,-83.29 249.74,-74.45"/>
<polygon fill="#63b8ff" stroke="#63b8ff" points="127.66,-103.18 118.89,-109.12 129.45,-109.94 127.66,-103.18"/>
</g>
<!-- Node8 -->
<g id="node8" class="node">
<title>Node8</title>
<g id="a_node8"><a xlink:href="sqsh__archive__private_8h.html" target="_top" xlink:title=" ">
<polygon fill="white" stroke="#666666" points="668.5,-19 486.5,-19 486.5,0 668.5,0 668.5,-19"/>
<text text-anchor="middle" x="577.5" y="-7" font-family="Helvetica,sans-Serif" font-size="10.00">sqsh_archive_private.h</text>
</a>
</g>
</g>
<!-- Node7&#45;&gt;Node8 -->
<g id="edge8" class="edge">
<title>Node7&#45;&gt;Node8</title>
<path fill="none" stroke="#63b8ff" d="M498.63,-101.12C518.9,-77.83 554.12,-37.36 569.7,-19.46"/>
<polygon fill="#63b8ff" stroke="#63b8ff" points="496.11,-98.68 492.19,-108.52 501.39,-103.28 496.11,-98.68"/>
</g>
<!-- Node9&#45;&gt;Node7 -->
<g id="edge15" class="edge">
<title>Node9&#45;&gt;Node7</title>
<path fill="none" stroke="#63b8ff" d="M567.01,-159.67C546.58,-150.09 520.01,-137.62 502.39,-129.36"/>
<polygon fill="#63b8ff" stroke="#63b8ff" points="565.42,-162.79 575.96,-163.87 568.39,-156.45 565.42,-162.79"/>
</g>
<!-- Node10 -->
<g id="node10" class="node">
<title>Node10</title>
<g id="a_node10"><a xlink:href="sqsh__file_8h.html" target="_top" xlink:title=" ">
<polygon fill="white" stroke="#666666" points="801,-129 702,-129 702,-110 801,-110 801,-129"/>
<text text-anchor="middle" x="751.5" y="-117" font-family="Helvetica,sans-Serif" font-size="10.00">sqsh_file.h</text>
</a>
</g>
</g>
<!-- Node9&#45;&gt;Node10 -->
<g id="edge10" class="edge">
<title>Node9&#45;&gt;Node10</title>
<path fill="none" stroke="#63b8ff" d="M633.48,-160.85C661.8,-151.17 700.14,-138.06 725.34,-129.45"/>
<polygon fill="#63b8ff" stroke="#63b8ff" points="632.56,-157.47 624.23,-164.02 634.82,-164.1 632.56,-157.47"/>
</g>
<!-- Node12 -->
<g id="node12" class="node">
<title>Node12</title>
<g id="a_node12"><a xlink:href="sqsh__tree_8h.html" target="_top" xlink:title=" ">
<polygon fill="white" stroke="#666666" points="684,-129 585,-129 585,-110 684,-110 684,-129"/>
<text text-anchor="middle" x="634.5" y="-117" font-family="Helvetica,sans-Serif" font-size="10.00">sqsh_tree.h</text>
</a>
</g>
</g>
<!-- Node9&#45;&gt;Node12 -->
<g id="edge13" class="edge">
<title>Node9&#45;&gt;Node12</title>
<path fill="none" stroke="#63b8ff" d="M609.3,-155.65C615.62,-146.84 622.96,-136.59 628.09,-129.44"/>
<polygon fill="#63b8ff" stroke="#63b8ff" points="606.64,-153.35 603.66,-163.52 612.33,-157.43 606.64,-153.35"/>
</g>
<!-- Node11 -->
<g id="node11" class="node">
<title>Node11</title>
<g id="a_node11"><a xlink:href="sqsh__file__private_8h.html" target="_top" xlink:title=" ">
<polygon fill="white" stroke="#666666" points="791,-74 632,-74 632,-55 791,-55 791,-74"/>
<text text-anchor="middle" x="711.5" y="-62" font-family="Helvetica,sans-Serif" font-size="10.00">sqsh_file_private.h</text>
</a>
</g>
</g>
<!-- Node10&#45;&gt;Node11 -->
<g id="edge11" class="edge">
<title>Node10&#45;&gt;Node11</title>
<path fill="none" stroke="#63b8ff" d="M738.03,-100.65C731.38,-91.84 723.64,-81.59 718.25,-74.44"/>
<polygon fill="#63b8ff" stroke="#63b8ff" points="735.17,-102.67 743.98,-108.54 740.75,-98.45 735.17,-102.67"/>
</g>
<!-- Node11&#45;&gt;Node8 -->
<g id="edge12" class="edge">
<title>Node11&#45;&gt;Node8</title>
<path fill="none" stroke="#63b8ff" d="M678.19,-50.32C653.77,-40.67 621.28,-27.82 599.9,-19.36"/>
<polygon fill="#63b8ff" stroke="#63b8ff" points="676.77,-53.53 687.36,-53.95 679.35,-47.02 676.77,-53.53"/>
</g>
<!-- Node12&#45;&gt;Node5 -->
<g id="edge14" class="edge">
<title>Node12&#45;&gt;Node5</title>
<path fill="none" stroke="#63b8ff" d="M573.33,-109.26C508.57,-99.48 407.02,-84.15 342.93,-74.47"/>
<polygon fill="#63b8ff" stroke="#63b8ff" points="572.68,-112.7 583.09,-110.74 573.72,-105.78 572.68,-112.7"/>
</g>
</g>
</svg>
