<?xml version="1.0" encoding="UTF-8" standalone="no"?>
<!DOCTYPE svg PUBLIC "-//W3C//DTD SVG 1.1//EN"
 "http://www.w3.org/Graphics/SVG/1.1/DTD/svg11.dtd">
<!-- Generated by graphviz version 7.0.5 (20221223.1930)
 -->
<!-- Title: sqsh_common.h Pages: 1 -->
<!--zoomable 357 -->
<svg id="main" version="1.1" xmlns="http://www.w3.org/2000/svg" xmlns:xlink="http://www.w3.org/1999/xlink" xml:space="preserve" onload="init(evt)">
<style type="text/css"><![CDATA[
.edge:hover path { stroke: red; }
.edge:hover polygon { stroke: red; fill: red; }
]]></style>
<script type="text/javascript"><![CDATA[
var edges = document.getElementsByTagName('g');
if (edges && edges.length) {
  for (var i=0;i<edges.length;i++) {
    if (edges[i].id.substr(0,4)=='edge') {
      edges[i].setAttribute('class','edge');
    }
  }
}
]]></script>
        <defs>
                <circle id="rim" cx="0" cy="0" r="7"/>
                <circle id="rim2" cx="0" cy="0" r="3.5"/>
                <g id="zoomPlus">
                        <use xlink:href="#rim" fill="#404040">
                                <set attributeName="fill" to="#808080" begin="zoomplus.mouseover" end="zoomplus.mouseout"/>
                        </use>
                        <path d="M-4,0h8M0,-4v8" fill="none" stroke="white" stroke-width="1.5" pointer-events="none"/>
                </g>
                <g id="zoomMin">
                        <use xlink:href="#rim" fill="#404040">
                                <set attributeName="fill" to="#808080" begin="zoomminus.mouseover" end="zoomminus.mouseout"/>
                        </use>
                        <path d="M-4,0h8" fill="none" stroke="white" stroke-width="1.5" pointer-events="none"/>
                </g>
                <g id="dirArrow">
                        <path fill="none" stroke="white" stroke-width="1.5" d="M0,-3.0v7 M-2.5,-0.5L0,-3.0L2.5,-0.5"/>
                </g>
               <g id="resetDef">
                       <use xlink:href="#rim2" fill="#404040">
                               <set attributeName="fill" to="#808080" begin="reset.mouseover" end="reset.mouseout"/>
                       </use>
               </g>
        </defs>

<script type="text/javascript">
var viewWidth = 1190;
var viewHeight = 357;
var sectionId = 'dynsection-1';
</script>
<script xlink:href="svgpan.js"/>
<svg id="graph" class="graph">
<g id="viewport">
<title>sqsh_common.h</title>
<!-- Node1 -->
<g id="node1" class="node">
<title>Node1</title>
<g id="a_node1"><a xlink:title=" ">
<polygon fill="#999999" stroke="#666666" points="613,-349 499,-349 499,-330 613,-330 613,-349"/>
<text text-anchor="middle" x="556" y="-337" font-family="Helvetica,sans-Serif" font-size="10.00">sqsh_common.h</text>
</a>
</g>
</g>
<!-- Node2 -->
<g id="node2" class="node">
<title>Node2</title>
<g id="a_node2"><a xlink:href="sqsh__archive_8h.html" target="_top" xlink:title=" ">
<polygon fill="white" stroke="#666666" points="122,-74 0,-74 0,-55 122,-55 122,-74"/>
<text text-anchor="middle" x="61" y="-62" font-family="Helvetica,sans-Serif" font-size="10.00">sqsh_archive.h</text>
</a>
</g>
</g>
<!-- Node1&#45;&gt;Node2 -->
<g id="edge1" class="edge">
<title>Node1&#45;&gt;Node2</title>
<path fill="none" stroke="#63b8ff" d="M487.57,-336.86C357.4,-331.86 87,-311.71 87,-230.5 87,-230.5 87,-230.5 87,-173.5 87,-135.7 71.76,-92.47 64.62,-74.29"/>
<polygon fill="#63b8ff" stroke="#63b8ff" points="487.33,-340.35 497.45,-337.21 487.58,-333.35 487.33,-340.35"/>
</g>
<!-- Node4 -->
<g id="node4" class="node">
<title>Node4</title>
<g id="a_node4"><a xlink:href="sqsh__chrome_8h.html" target="_top" xlink:title=" ">
<polygon fill="white" stroke="#666666" points="364,-294 250,-294 250,-275 364,-275 364,-294"/>
<text text-anchor="middle" x="307" y="-282" font-family="Helvetica,sans-Serif" font-size="10.00">sqsh_chrome.h</text>
</a>
</g>
</g>
<!-- Node1&#45;&gt;Node4 -->
<g id="edge3" class="edge">
<title>Node1&#45;&gt;Node4</title>
<path fill="none" stroke="#63b8ff" d="M502.53,-327.12C456.6,-317.34 391.29,-303.44 349.03,-294.45"/>
<polygon fill="#63b8ff" stroke="#63b8ff" points="501.77,-330.54 512.28,-329.19 503.23,-323.69 501.77,-330.54"/>
</g>
<!-- Node5 -->
<g id="node5" class="node">
<title>Node5</title>
<g id="a_node5"><a xlink:href="sqsh__error_8h.html" target="_top" xlink:title=" ">
<polygon fill="white" stroke="#666666" points="259.5,-184 152.5,-184 152.5,-165 259.5,-165 259.5,-184"/>
<text text-anchor="middle" x="206" y="-172" font-family="Helvetica,sans-Serif" font-size="10.00">sqsh_error.h</text>
</a>
</g>
</g>
<!-- Node1&#45;&gt;Node5 -->
<g id="edge4" class="edge">
<title>Node1&#45;&gt;Node5</title>
<path fill="none" stroke="#63b8ff" d="M526.41,-324.72C456.61,-292.21 283.26,-211.48 225.26,-184.47"/>
<polygon fill="#63b8ff" stroke="#63b8ff" points="524.77,-327.82 535.31,-328.87 527.72,-321.47 524.77,-327.82"/>
</g>
<!-- Node6 -->
<g id="node6" class="node">
<title>Node6</title>
<g id="a_node6"><a xlink:href="sqsh__inode_8h.html" target="_top" xlink:title=" ">
<polygon fill="white" stroke="#666666" points="527.5,-239 420.5,-239 420.5,-220 527.5,-220 527.5,-239"/>
<text text-anchor="middle" x="474" y="-227" font-family="Helvetica,sans-Serif" font-size="10.00">sqsh_inode.h</text>
</a>
</g>
</g>
<!-- Node1&#45;&gt;Node6 -->
<g id="edge6" class="edge">
<title>Node1&#45;&gt;Node6</title>
<path fill="none" stroke="#63b8ff" d="M542.33,-320.49C524.58,-297.11 494.28,-257.2 480.8,-239.46"/>
<polygon fill="#63b8ff" stroke="#63b8ff" points="539.54,-322.61 548.37,-328.46 545.11,-318.38 539.54,-322.61"/>
</g>
<!-- Node11 -->
<g id="node11" class="node">
<title>Node11</title>
<g id="a_node11"><a xlink:href="sqsh__tree_8h.html" target="_top" xlink:title=" ">
<polygon fill="white" stroke="#666666" points="677.5,-129 578.5,-129 578.5,-110 677.5,-110 677.5,-129"/>
<text text-anchor="middle" x="628" y="-117" font-family="Helvetica,sans-Serif" font-size="10.00">sqsh_tree.h</text>
</a>
</g>
</g>
<!-- Node1&#45;&gt;Node11 -->
<g id="edge36" class="edge">
<title>Node1&#45;&gt;Node11</title>
<path fill="none" stroke="#63b8ff" d="M553.58,-318.43C550.47,-284.59 548.28,-215 575,-165 583.32,-149.42 599.56,-137.06 611.88,-129.36"/>
<polygon fill="#63b8ff" stroke="#63b8ff" points="550.06,-318.45 554.6,-328.02 557.03,-317.71 550.06,-318.45"/>
</g>
<!-- Node12 -->
<g id="node12" class="node">
<title>Node12</title>
<g id="a_node12"><a xlink:href="sqsh__primitive__private_8h.html" target="_top" xlink:title=" ">
<polygon fill="white" stroke="#666666" points="781.5,-294 584.5,-294 584.5,-275 781.5,-275 781.5,-294"/>
<text text-anchor="middle" x="683" y="-282" font-family="Helvetica,sans-Serif" font-size="10.00">sqsh_primitive_private.h</text>
</a>
</g>
</g>
<!-- Node1&#45;&gt;Node12 -->
<g id="edge14" class="edge">
<title>Node1&#45;&gt;Node12</title>
<path fill="none" stroke="#63b8ff" d="M587.89,-325.19C610.99,-315.55 641.6,-302.78 661.77,-294.36"/>
<polygon fill="#63b8ff" stroke="#63b8ff" points="586.82,-321.84 578.94,-328.93 589.52,-328.31 586.82,-321.84"/>
</g>
<!-- Node20 -->
<g id="node20" class="node">
<title>Node20</title>
<g id="a_node20"><a xlink:href="sqsh__table_8h.html" target="_top" xlink:title=" ">
<polygon fill="white" stroke="#666666" points="1099.5,-294 992.5,-294 992.5,-275 1099.5,-275 1099.5,-294"/>
<text text-anchor="middle" x="1046" y="-282" font-family="Helvetica,sans-Serif" font-size="10.00">sqsh_table.h</text>
</a>
</g>
</g>
<!-- Node1&#45;&gt;Node20 -->
<g id="edge30" class="edge">
<title>Node1&#45;&gt;Node20</title>
<path fill="none" stroke="#63b8ff" d="M624.62,-331.99C709.04,-323.84 856.7,-309.1 983,-294 985.96,-293.65 988.99,-293.27 992.06,-292.89"/>
<polygon fill="#63b8ff" stroke="#63b8ff" points="624.51,-328.49 614.89,-332.93 625.18,-335.46 624.51,-328.49"/>
</g>
<!-- Node21 -->
<g id="node21" class="node">
<title>Node21</title>
<g id="a_node21"><a xlink:href="sqsh__thread__private_8h.html" target="_top" xlink:title=" ">
<polygon fill="white" stroke="#666666" points="974,-294 800,-294 800,-275 974,-275 974,-294"/>
<text text-anchor="middle" x="887" y="-282" font-family="Helvetica,sans-Serif" font-size="10.00">sqsh_thread_private.h</text>
</a>
</g>
</g>
<!-- Node1&#45;&gt;Node21 -->
<g id="edge32" class="edge">
<title>Node1&#45;&gt;Node21</title>
<path fill="none" stroke="#63b8ff" d="M623.22,-327.74C684.33,-317.95 773.47,-303.68 830.85,-294.49"/>
<polygon fill="#63b8ff" stroke="#63b8ff" points="622.96,-324.23 613.64,-329.27 624.07,-331.14 622.96,-324.23"/>
</g>
<!-- Node22 -->
<g id="node22" class="node">
<title>Node22</title>
<g id="a_node22"><a xlink:href="sqsh__xattr_8h.html" target="_top" xlink:title=" ">
<polygon fill="white" stroke="#666666" points="1181.5,-239 1074.5,-239 1074.5,-220 1181.5,-220 1181.5,-239"/>
<text text-anchor="middle" x="1128" y="-227" font-family="Helvetica,sans-Serif" font-size="10.00">sqsh_xattr.h</text>
</a>
</g>
</g>
<!-- Node1&#45;&gt;Node22 -->
<g id="edge37" class="edge">
<title>Node1&#45;&gt;Node22</title>
<path fill="none" stroke="#63b8ff" d="M624.62,-337.2C764.17,-333.95 1070.98,-323.51 1108,-294 1124.81,-280.6 1127.75,-253.15 1128.1,-239.14"/>
<polygon fill="#63b8ff" stroke="#63b8ff" points="624.69,-333.7 614.78,-337.42 624.85,-340.7 624.69,-333.7"/>
</g>
<!-- Node3 -->
<g id="node3" class="node">
<title>Node3</title>
<g id="a_node3"><a xlink:href="sqsh__archive__private_8h.html" target="_top" xlink:title=" ">
<polygon fill="white" stroke="#666666" points="870,-19 688,-19 688,0 870,0 870,-19"/>
<text text-anchor="middle" x="779" y="-7" font-family="Helvetica,sans-Serif" font-size="10.00">sqsh_archive_private.h</text>
</a>
</g>
</g>
<!-- Node2&#45;&gt;Node3 -->
<g id="edge2" class="edge">
<title>Node2&#45;&gt;Node3</title>
<path fill="none" stroke="#63b8ff" d="M133.49,-55.23C134.33,-55.15 135.17,-55.08 136,-55 332.27,-37.1 562.83,-22.76 687.59,-15.56"/>
<polygon fill="#63b8ff" stroke="#63b8ff" points="133.49,-51.72 123.88,-56.18 134.17,-58.68 133.49,-51.72"/>
</g>
<!-- Node5&#45;&gt;Node3 -->
<g id="edge5" class="edge">
<title>Node5&#45;&gt;Node3</title>
<path fill="none" stroke="#63b8ff" d="M185.67,-157.14C171.61,-143.85 157.37,-124.91 169,-110 231.28,-30.15 533.33,-13.96 687.72,-10.96"/>
<polygon fill="#63b8ff" stroke="#63b8ff" points="183.2,-159.64 193.02,-163.61 187.82,-154.38 183.2,-159.64"/>
</g>
<!-- Node7 -->
<g id="node7" class="node">
<title>Node7</title>
<g id="a_node7"><a xlink:href="sqsh__directory_8h.html" target="_top" xlink:title=" ">
<polygon fill="white" stroke="#666666" points="436.5,-184 299.5,-184 299.5,-165 436.5,-165 436.5,-184"/>
<text text-anchor="middle" x="368" y="-172" font-family="Helvetica,sans-Serif" font-size="10.00">sqsh_directory.h</text>
</a>
</g>
</g>
<!-- Node6&#45;&gt;Node7 -->
<g id="edge7" class="edge">
<title>Node6&#45;&gt;Node7</title>
<path fill="none" stroke="#63b8ff" d="M445.8,-214.4C426.72,-204.86 402.1,-192.55 385.72,-184.36"/>
<polygon fill="#63b8ff" stroke="#63b8ff" points="444.16,-217.49 454.66,-218.83 447.29,-211.23 444.16,-217.49"/>
</g>
<!-- Node10 -->
<g id="node10" class="node">
<title>Node10</title>
<g id="a_node10"><a xlink:href="sqsh__inode__private_8h.html" target="_top" xlink:title=" ">
<polygon fill="white" stroke="#666666" points="560.5,-129 393.5,-129 393.5,-110 560.5,-110 560.5,-129"/>
<text text-anchor="middle" x="477" y="-117" font-family="Helvetica,sans-Serif" font-size="10.00">sqsh_inode_private.h</text>
</a>
</g>
</g>
<!-- Node6&#45;&gt;Node10 -->
<g id="edge10" class="edge">
<title>Node6&#45;&gt;Node10</title>
<path fill="none" stroke="#63b8ff" d="M474.56,-208.24C475.22,-184.63 476.27,-146.65 476.75,-129.46"/>
<polygon fill="#63b8ff" stroke="#63b8ff" points="471.07,-208.06 474.29,-218.15 478.06,-208.25 471.07,-208.06"/>
</g>
<!-- Node6&#45;&gt;Node11 -->
<g id="edge12" class="edge">
<title>Node6&#45;&gt;Node11</title>
<path fill="none" stroke="#63b8ff" d="M489.32,-211.85C502.45,-198.18 522.29,-178.9 542,-165 562.74,-150.37 588.94,-137.51 606.93,-129.43"/>
<polygon fill="#63b8ff" stroke="#63b8ff" points="487.08,-209.12 482.78,-218.8 492.18,-213.92 487.08,-209.12"/>
</g>
<!-- Node8 -->
<g id="node8" class="node">
<title>Node8</title>
<g id="a_node8"><a xlink:href="sqsh__directory__private_8h.html" target="_top" xlink:title=" ">
<polygon fill="white" stroke="#666666" points="375.5,-129 178.5,-129 178.5,-110 375.5,-110 375.5,-129"/>
<text text-anchor="middle" x="277" y="-117" font-family="Helvetica,sans-Serif" font-size="10.00">sqsh_directory_private.h</text>
</a>
</g>
</g>
<!-- Node7&#45;&gt;Node8 -->
<g id="edge8" class="edge">
<title>Node7&#45;&gt;Node8</title>
<path fill="none" stroke="#63b8ff" d="M342.64,-158.73C326.43,-149.29 305.94,-137.36 292.21,-129.36"/>
<polygon fill="#63b8ff" stroke="#63b8ff" points="340.85,-161.74 351.26,-163.75 344.38,-155.69 340.85,-161.74"/>
</g>
<!-- Node9 -->
<g id="node9" class="node">
<title>Node9</title>
<g id="a_node9"><a xlink:href="sqsh__tree__private_8h.html" target="_top" xlink:title=" ">
<polygon fill="white" stroke="#666666" points="556.5,-74 397.5,-74 397.5,-55 556.5,-55 556.5,-74"/>
<text text-anchor="middle" x="477" y="-62" font-family="Helvetica,sans-Serif" font-size="10.00">sqsh_tree_private.h</text>
</a>
</g>
</g>
<!-- Node8&#45;&gt;Node9 -->
<g id="edge9" class="edge">
<title>Node8&#45;&gt;Node9</title>
<path fill="none" stroke="#63b8ff" d="M321.84,-106.62C358.61,-96.87 409.87,-83.29 443.24,-74.45"/>
<polygon fill="#63b8ff" stroke="#63b8ff" points="321.16,-103.18 312.39,-109.12 322.95,-109.94 321.16,-103.18"/>
</g>
<!-- Node10&#45;&gt;Node9 -->
<g id="edge11" class="edge">
<title>Node10&#45;&gt;Node9</title>
<path fill="none" stroke="#63b8ff" d="M477,-98.35C477,-90.1 477,-80.97 477,-74.44"/>
<polygon fill="#63b8ff" stroke="#63b8ff" points="473.5,-98.23 477,-108.23 480.5,-98.23 473.5,-98.23"/>
</g>
<!-- Node11&#45;&gt;Node9 -->
<g id="edge13" class="edge">
<title>Node11&#45;&gt;Node9</title>
<path fill="none" stroke="#63b8ff" d="M591.6,-105.73C564.06,-96.06 526.92,-83.02 502.49,-74.45"/>
<polygon fill="#63b8ff" stroke="#63b8ff" points="590.36,-109 600.96,-109.01 592.68,-102.39 590.36,-109"/>
</g>
<!-- Node13 -->
<g id="node13" class="node">
<title>Node13</title>
<g id="a_node13"><a xlink:href="sqsh__extract__private_8h.html" target="_top" xlink:title=" ">
<polygon fill="white" stroke="#666666" points="775,-239 593,-239 593,-220 775,-220 775,-239"/>
<text text-anchor="middle" x="684" y="-227" font-family="Helvetica,sans-Serif" font-size="10.00">sqsh_extract_private.h</text>
</a>
</g>
</g>
<!-- Node12&#45;&gt;Node13 -->
<g id="edge15" class="edge">
<title>Node12&#45;&gt;Node13</title>
<path fill="none" stroke="#63b8ff" d="M683.38,-263.35C683.54,-255.1 683.71,-245.97 683.83,-239.44"/>
<polygon fill="#63b8ff" stroke="#63b8ff" points="679.88,-263.17 683.19,-273.23 686.88,-263.3 679.88,-263.17"/>
</g>
<!-- Node19 -->
<g id="node19" class="node">
<title>Node19</title>
<g id="a_node19"><a xlink:href="sqsh__mapper__private_8h.html" target="_top" xlink:title=" ">
<polygon fill="white" stroke="#666666" points="968,-239 794,-239 794,-220 968,-220 968,-239"/>
<text text-anchor="middle" x="881" y="-227" font-family="Helvetica,sans-Serif" font-size="10.00">sqsh_mapper_private.h</text>
</a>
</g>
</g>
<!-- Node12&#45;&gt;Node19 -->
<g id="edge27" class="edge">
<title>Node12&#45;&gt;Node19</title>
<path fill="none" stroke="#63b8ff" d="M727.39,-271.62C763.8,-261.87 814.54,-248.29 847.58,-239.45"/>
<polygon fill="#63b8ff" stroke="#63b8ff" points="726.8,-268.15 718.05,-274.12 728.62,-274.91 726.8,-268.15"/>
</g>
<!-- Node14 -->
<g id="node14" class="node">
<title>Node14</title>
<g id="a_node14"><a xlink:href="sqsh__metablock__private_8h.html" target="_top" xlink:title=" ">
<polygon fill="white" stroke="#666666" points="781.5,-184 584.5,-184 584.5,-165 781.5,-165 781.5,-184"/>
<text text-anchor="middle" x="683" y="-172" font-family="Helvetica,sans-Serif" font-size="10.00">sqsh_metablock_private.h</text>
</a>
</g>
</g>
<!-- Node13&#45;&gt;Node14 -->
<g id="edge16" class="edge">
<title>Node13&#45;&gt;Node14</title>
<path fill="none" stroke="#63b8ff" d="M683.62,-208.35C683.46,-200.1 683.29,-190.97 683.17,-184.44"/>
<polygon fill="#63b8ff" stroke="#63b8ff" points="680.12,-208.3 683.81,-218.23 687.12,-208.17 680.12,-208.3"/>
</g>
<!-- Node16 -->
<g id="node16" class="node">
<title>Node16</title>
<g id="a_node16"><a xlink:href="sqsh__table__private_8h.html" target="_top" xlink:title=" ">
<polygon fill="white" stroke="#666666" points="966.5,-184 799.5,-184 799.5,-165 966.5,-165 966.5,-184"/>
<text text-anchor="middle" x="883" y="-172" font-family="Helvetica,sans-Serif" font-size="10.00">sqsh_table_private.h</text>
</a>
</g>
</g>
<!-- Node13&#45;&gt;Node16 -->
<g id="edge21" class="edge">
<title>Node13&#45;&gt;Node16</title>
<path fill="none" stroke="#63b8ff" d="M728.61,-216.62C765.2,-206.87 816.21,-193.29 849.41,-184.45"/>
<polygon fill="#63b8ff" stroke="#63b8ff" points="727.98,-213.16 719.22,-219.12 729.78,-219.93 727.98,-213.16"/>
</g>
<!-- Node14&#45;&gt;Node8 -->
<g id="edge17" class="edge">
<title>Node14&#45;&gt;Node8</title>
<path fill="none" stroke="#63b8ff" d="M602.87,-163.04C527.87,-153.25 416.99,-138.77 345.87,-129.49"/>
<polygon fill="#63b8ff" stroke="#63b8ff" points="602.26,-166.49 612.63,-164.31 603.16,-159.55 602.26,-166.49"/>
</g>
<!-- Node14&#45;&gt;Node10 -->
<g id="edge18" class="edge">
<title>Node14&#45;&gt;Node10</title>
<path fill="none" stroke="#63b8ff" d="M637.3,-161.74C599.39,-151.99 546.29,-138.33 511.77,-129.45"/>
<polygon fill="#63b8ff" stroke="#63b8ff" points="636.03,-165.03 646.59,-164.13 637.78,-158.25 636.03,-165.03"/>
</g>
<!-- Node15 -->
<g id="node15" class="node">
<title>Node15</title>
<g id="a_node15"><a xlink:href="sqsh__xattr__private_8h.html" target="_top" xlink:title=" ">
<polygon fill="white" stroke="#666666" points="862.5,-129 695.5,-129 695.5,-110 862.5,-110 862.5,-129"/>
<text text-anchor="middle" x="779" y="-117" font-family="Helvetica,sans-Serif" font-size="10.00">sqsh_xattr_private.h</text>
</a>
</g>
</g>
<!-- Node14&#45;&gt;Node15 -->
<g id="edge19" class="edge">
<title>Node14&#45;&gt;Node15</title>
<path fill="none" stroke="#63b8ff" d="M709.26,-159C726.44,-149.52 748.33,-137.43 762.96,-129.36"/>
<polygon fill="#63b8ff" stroke="#63b8ff" points="707.67,-155.88 700.61,-163.78 711.06,-162.01 707.67,-155.88"/>
</g>
<!-- Node15&#45;&gt;Node3 -->
<g id="edge20" class="edge">
<title>Node15&#45;&gt;Node3</title>
<path fill="none" stroke="#63b8ff" d="M779,-98.24C779,-74.63 779,-36.65 779,-19.46"/>
<polygon fill="#63b8ff" stroke="#63b8ff" points="775.5,-98.15 779,-108.15 782.5,-98.15 775.5,-98.15"/>
</g>
<!-- Node16&#45;&gt;Node11 -->
<g id="edge25" class="edge">
<title>Node16&#45;&gt;Node11</title>
<path fill="none" stroke="#63b8ff" d="M828.54,-162.18C781.49,-152.4 714.42,-138.46 671.04,-129.45"/>
<polygon fill="#63b8ff" stroke="#63b8ff" points="827.76,-165.59 838.26,-164.2 829.18,-158.74 827.76,-165.59"/>
</g>
<!-- Node16&#45;&gt;Node15 -->
<g id="edge26" class="edge">
<title>Node16&#45;&gt;Node15</title>
<path fill="none" stroke="#63b8ff" d="M855.33,-159.4C836.61,-149.86 812.45,-137.55 796.38,-129.36"/>
<polygon fill="#63b8ff" stroke="#63b8ff" points="853.51,-162.4 864.01,-163.82 856.69,-156.16 853.51,-162.4"/>
</g>
<!-- Node17 -->
<g id="node17" class="node">
<title>Node17</title>
<g id="a_node17"><a xlink:href="sqsh__file_8h.html" target="_top" xlink:title=" ">
<polygon fill="white" stroke="#666666" points="979.5,-129 880.5,-129 880.5,-110 979.5,-110 979.5,-129"/>
<text text-anchor="middle" x="930" y="-117" font-family="Helvetica,sans-Serif" font-size="10.00">sqsh_file.h</text>
</a>
</g>
</g>
<!-- Node16&#45;&gt;Node17 -->
<g id="edge22" class="edge">
<title>Node16&#45;&gt;Node17</title>
<path fill="none" stroke="#63b8ff" d="M898.33,-156.22C906.25,-147.28 915.6,-136.74 922.07,-129.44"/>
<polygon fill="#63b8ff" stroke="#63b8ff" points="895.78,-153.81 891.77,-163.62 901.02,-158.46 895.78,-153.81"/>
</g>
<!-- Node18 -->
<g id="node18" class="node">
<title>Node18</title>
<g id="a_node18"><a xlink:href="sqsh__file__private_8h.html" target="_top" xlink:title=" ">
<polygon fill="white" stroke="#666666" points="973.5,-74 814.5,-74 814.5,-55 973.5,-55 973.5,-74"/>
<text text-anchor="middle" x="894" y="-62" font-family="Helvetica,sans-Serif" font-size="10.00">sqsh_file_private.h</text>
</a>
</g>
</g>
<!-- Node17&#45;&gt;Node18 -->
<g id="edge23" class="edge">
<title>Node17&#45;&gt;Node18</title>
<path fill="none" stroke="#63b8ff" d="M917.68,-100.36C911.74,-91.62 904.88,-81.51 900.07,-74.44"/>
<polygon fill="#63b8ff" stroke="#63b8ff" points="914.69,-102.19 923.2,-108.5 920.48,-98.26 914.69,-102.19"/>
</g>
<!-- Node18&#45;&gt;Node3 -->
<g id="edge24" class="edge">
<title>Node18&#45;&gt;Node3</title>
<path fill="none" stroke="#63b8ff" d="M864.27,-49.8C843.45,-40.2 816.24,-27.66 798.22,-19.36"/>
<polygon fill="#63b8ff" stroke="#63b8ff" points="862.57,-52.87 873.12,-53.88 865.5,-46.51 862.57,-52.87"/>
</g>
<!-- Node19&#45;&gt;Node14 -->
<g id="edge28" class="edge">
<title>Node19&#45;&gt;Node14</title>
<path fill="none" stroke="#63b8ff" d="M836.61,-216.62C800.2,-206.87 749.46,-193.29 716.42,-184.45"/>
<polygon fill="#63b8ff" stroke="#63b8ff" points="835.38,-219.91 845.95,-219.12 837.2,-213.15 835.38,-219.91"/>
</g>
<!-- Node19&#45;&gt;Node16 -->
<g id="edge29" class="edge">
<title>Node19&#45;&gt;Node16</title>
<path fill="none" stroke="#63b8ff" d="M881.76,-208.35C882.07,-200.1 882.42,-190.97 882.66,-184.44"/>
<polygon fill="#63b8ff" stroke="#63b8ff" points="878.27,-208.11 881.39,-218.24 885.26,-208.37 878.27,-208.11"/>
</g>
<!-- Node20&#45;&gt;Node16 -->
<g id="edge31" class="edge">
<title>Node20&#45;&gt;Node16</title>
<path fill="none" stroke="#63b8ff" d="M1030.54,-266.68C1017.27,-252.92 997.16,-233.58 977,-220 954.69,-204.96 926.51,-192.36 906.85,-184.44"/>
<polygon fill="#63b8ff" stroke="#63b8ff" points="1027.75,-268.83 1037.16,-273.7 1032.84,-264.02 1027.75,-268.83"/>
</g>
<!-- Node21&#45;&gt;Node3 -->
<g id="edge33" class="edge">
<title>Node21&#45;&gt;Node3</title>
<path fill="none" stroke="#63b8ff" d="M926.66,-270.51C943.79,-263.35 963.05,-253.02 977,-239 999.15,-216.74 1008,-206.91 1008,-175.5 1008,-175.5 1008,-175.5 1008,-118.5 1008,-88 1005.34,-74.62 982,-55 962.53,-38.63 902.92,-26.8 853.3,-19.46"/>
<polygon fill="#63b8ff" stroke="#63b8ff" points="925.78,-267.1 917.75,-274.01 928.34,-273.62 925.78,-267.1"/>
</g>
<!-- Node21&#45;&gt;Node13 -->
<g id="edge34" class="edge">
<title>Node21&#45;&gt;Node13</title>
<path fill="none" stroke="#63b8ff" d="M841.49,-271.62C804.16,-261.87 752.14,-248.29 718.27,-239.45"/>
<polygon fill="#63b8ff" stroke="#63b8ff" points="840.54,-274.99 851.1,-274.13 842.31,-268.21 840.54,-274.99"/>
</g>
<!-- Node21&#45;&gt;Node19 -->
<g id="edge35" class="edge">
<title>Node21&#45;&gt;Node19</title>
<path fill="none" stroke="#63b8ff" d="M884.72,-263.35C883.78,-255.1 882.75,-245.97 882.01,-239.44"/>
<polygon fill="#63b8ff" stroke="#63b8ff" points="881.24,-263.7 885.84,-273.24 888.19,-262.91 881.24,-263.7"/>
</g>
<!-- Node22&#45;&gt;Node15 -->
<g id="edge38" class="edge">
<title>Node22&#45;&gt;Node15</title>
<path fill="none" stroke="#63b8ff" d="M1099.27,-214.85C1068.93,-200.84 1019.42,-179.15 975,-165 926.29,-149.49 869.14,-137.16 829.17,-129.45"/>
<polygon fill="#63b8ff" stroke="#63b8ff" points="1097.63,-217.94 1108.17,-218.99 1100.58,-211.6 1097.63,-217.94"/>
</g>
</g>
</svg>
        <g id="navigator" transform="translate(0 0)" fill="#404254">
                <rect fill="#f2f5e9" fill-opacity="0.5" stroke="#606060" stroke-width=".5" x="0" y="0" width="60" height="60"/>
                <use id="zoomplus" xlink:href="#zoomPlus" x="17" y="9" onmousedown="handleZoom(evt,'in')"/>
                <use id="zoomminus" xlink:href="#zoomMin" x="42" y="9" onmousedown="handleZoom(evt,'out')"/>
                <use id="reset" xlink:href="#resetDef" x="30" y="36" onmousedown="handleReset()"/>
                <g id="arrowUp" xlink:href="#dirArrow" transform="translate(30 24)" onmousedown="handlePan(0,-1)">
                  <use xlink:href="#rim" fill="#404040">
                        <set attributeName="fill" to="#808080" begin="arrowUp.mouseover" end="arrowUp.mouseout"/>
                  </use>
                  <path fill="none" stroke="white" stroke-width="1.5" d="M0,-3.0v7 M-2.5,-0.5L0,-3.0L2.5,-0.5"/>
                </g>
                <g id="arrowRight" xlink:href="#dirArrow" transform="rotate(90) translate(36 -43)" onmousedown="handlePan(1,0)">
                  <use xlink:href="#rim" fill="#404040">
                        <set attributeName="fill" to="#808080" begin="arrowRight.mouseover" end="arrowRight.mouseout"/>
                  </use>
                  <path fill="none" stroke="white" stroke-width="1.5" d="M0,-3.0v7 M-2.5,-0.5L0,-3.0L2.5,-0.5"/>
                </g>
                <g id="arrowDown" xlink:href="#dirArrow" transform="rotate(180) translate(-30 -48)" onmousedown="handlePan(0,1)">
                  <use xlink:href="#rim" fill="#404040">
                        <set attributeName="fill" to="#808080" begin="arrowDown.mouseover" end="arrowDown.mouseout"/>
                  </use>
                  <path fill="none" stroke="white" stroke-width="1.5" d="M0,-3.0v7 M-2.5,-0.5L0,-3.0L2.5,-0.5"/>
                </g>
                <g id="arrowLeft" xlink:href="#dirArrow" transform="rotate(270) translate(-36 17)" onmousedown="handlePan(-1,0)">
                  <use xlink:href="#rim" fill="#404040">
                        <set attributeName="fill" to="#808080" begin="arrowLeft.mouseover" end="arrowLeft.mouseout"/>
                  </use>
                  <path fill="none" stroke="white" stroke-width="1.5" d="M0,-3.0v7 M-2.5,-0.5L0,-3.0L2.5,-0.5"/>
                </g>
        </g>
        <svg viewBox="0 0 15 15" width="100%" height="30px" preserveAspectRatio="xMaxYMin meet">
         <g id="arrow_out" transform="scale(0.3 0.3)">
          <a xlink:href="sqsh__common_8h__dep__incl_org.svg" target="_base">
           <rect id="button" ry="5" rx="5" y="6" x="6" height="38" width="38"
                fill="#f2f5e9" fill-opacity="0.5" stroke="#606060" stroke-width="1.0"/>
           <path id="arrow"
             d="M 11.500037,31.436501 C 11.940474,20.09759 22.043105,11.32322 32.158766,21.979434 L 37.068811,17.246167 C 37.068811,17.246167 37.088388,32 37.088388,32 L 22.160133,31.978069 C 22.160133,31.978069 26.997745,27.140456 26.997745,27.140456 C 18.528582,18.264221 13.291696,25.230495 11.500037,31.436501 z"
             style="fill:#404040;"/>
          </a>
         </g>
        </svg>
</svg>
