<?xml version="1.0" encoding="UTF-8" standalone="no"?>
<!DOCTYPE svg PUBLIC "-//W3C//DTD SVG 1.1//EN"
 "http://www.w3.org/Graphics/SVG/1.1/DTD/svg11.dtd">
<!-- Generated by graphviz version 7.0.5 (20221223.1930)
 -->
<!-- Title: sqsh_mapper_private.h Pages: 1 -->
<svg width="475pt" height="192pt"
 viewBox="0.00 0.00 474.50 192.00" xmlns="http://www.w3.org/2000/svg" xmlns:xlink="http://www.w3.org/1999/xlink">
<g id="graph0" class="graph" transform="scale(1 1) rotate(0) translate(4 188)">
<title>sqsh_mapper_private.h</title>
<!-- Node1 -->
<g id="node1" class="node">
<title>Node1</title>
<g id="a_node1"><a xlink:title=" ">
<polygon fill="#999999" stroke="#666666" points="261,-184 87,-184 87,-165 261,-165 261,-184"/>
<text text-anchor="middle" x="174" y="-172" font-family="Helvetica,sans-Serif" font-size="10.00">sqsh_mapper_private.h</text>
</a>
</g>
</g>
<!-- Node2 -->
<g id="node2" class="node">
<title>Node2</title>
<g id="a_node2"><a xlink:href="sqsh__mapper_8h.html" target="_top" xlink:title=" ">
<polygon fill="white" stroke="#666666" points="114,-129 0,-129 0,-110 114,-110 114,-129"/>
<text text-anchor="middle" x="57" y="-117" font-family="Helvetica,sans-Serif" font-size="10.00">sqsh_mapper.h</text>
</a>
</g>
</g>
<!-- Node1&#45;&gt;Node2 -->
<g id="edge1" class="edge">
<title>Node1&#45;&gt;Node2</title>
<path fill="none" stroke="#63b8ff" d="M154.15,-164.51C135.72,-156.16 108.02,-143.61 86.91,-134.05"/>
<polygon fill="#63b8ff" stroke="#63b8ff" points="88.49,-130.92 77.93,-129.98 85.6,-137.3 88.49,-130.92"/>
</g>
<!-- Node3 -->
<g id="node3" class="node">
<title>Node3</title>
<g id="a_node3"><a xlink:title=" ">
<polygon fill="#e0e0e0" stroke="#999999" points="216,-129 132,-129 132,-110 216,-110 216,-129"/>
<text text-anchor="middle" x="174" y="-117" font-family="Helvetica,sans-Serif" font-size="10.00">pthread.h</text>
</a>
</g>
</g>
<!-- Node1&#45;&gt;Node3 -->
<g id="edge2" class="edge">
<title>Node1&#45;&gt;Node3</title>
<path fill="none" stroke="#63b8ff" d="M174,-164.75C174,-158.27 174,-149.16 174,-140.9"/>
<polygon fill="#63b8ff" stroke="#63b8ff" points="177.5,-140.96 174,-130.96 170.5,-140.96 177.5,-140.96"/>
</g>
<!-- Node4 -->
<g id="node4" class="node">
<title>Node4</title>
<g id="a_node4"><a xlink:href="sqsh__primitive__private_8h.html" target="_top" xlink:title=" ">
<polygon fill="white" stroke="#666666" points="431.5,-129 234.5,-129 234.5,-110 431.5,-110 431.5,-129"/>
<text text-anchor="middle" x="333" y="-117" font-family="Helvetica,sans-Serif" font-size="10.00">sqsh_primitive_private.h</text>
</a>
</g>
</g>
<!-- Node1&#45;&gt;Node4 -->
<g id="edge3" class="edge">
<title>Node1&#45;&gt;Node4</title>
<path fill="none" stroke="#63b8ff" d="M200.97,-164.51C226.98,-155.84 266.55,-142.65 295.6,-132.97"/>
<polygon fill="#63b8ff" stroke="#63b8ff" points="296.35,-136.41 304.73,-129.92 294.13,-129.77 296.35,-136.41"/>
</g>
<!-- Node5 -->
<g id="node5" class="node">
<title>Node5</title>
<g id="a_node5"><a xlink:href="sqsh__common_8h.html" target="_top" xlink:title=" ">
<polygon fill="white" stroke="#666666" points="390,-74 276,-74 276,-55 390,-55 390,-74"/>
<text text-anchor="middle" x="333" y="-62" font-family="Helvetica,sans-Serif" font-size="10.00">sqsh_common.h</text>
</a>
</g>
</g>
<!-- Node4&#45;&gt;Node5 -->
<g id="edge4" class="edge">
<title>Node4&#45;&gt;Node5</title>
<path fill="none" stroke="#63b8ff" d="M333,-109.75C333,-103.27 333,-94.16 333,-85.9"/>
<polygon fill="#63b8ff" stroke="#63b8ff" points="336.5,-85.96 333,-75.96 329.5,-85.96 336.5,-85.96"/>
</g>
<!-- Node6 -->
<g id="node6" class="node">
<title>Node6</title>
<g id="a_node6"><a xlink:title=" ">
<polygon fill="#e0e0e0" stroke="#999999" points="276,-19 192,-19 192,0 276,0 276,-19"/>
<text text-anchor="middle" x="234" y="-7" font-family="Helvetica,sans-Serif" font-size="10.00">stdbool.h</text>
</a>
</g>
</g>
<!-- Node5&#45;&gt;Node6 -->
<g id="edge5" class="edge">
<title>Node5&#45;&gt;Node6</title>
<path fill="none" stroke="#63b8ff" d="M316.21,-54.51C300.9,-46.31 278.03,-34.07 260.3,-24.58"/>
<polygon fill="#63b8ff" stroke="#63b8ff" points="262.35,-21.71 251.88,-20.07 259.04,-27.88 262.35,-21.71"/>
</g>
<!-- Node7 -->
<g id="node7" class="node">
<title>Node7</title>
<g id="a_node7"><a xlink:title=" ">
<polygon fill="#e0e0e0" stroke="#999999" points="371.5,-19 294.5,-19 294.5,0 371.5,0 371.5,-19"/>
<text text-anchor="middle" x="333" y="-7" font-family="Helvetica,sans-Serif" font-size="10.00">stddef.h</text>
</a>
</g>
</g>
<!-- Node5&#45;&gt;Node7 -->
<g id="edge6" class="edge">
<title>Node5&#45;&gt;Node7</title>
<path fill="none" stroke="#63b8ff" d="M333,-54.75C333,-48.27 333,-39.16 333,-30.9"/>
<polygon fill="#63b8ff" stroke="#63b8ff" points="336.5,-30.96 333,-20.96 329.5,-30.96 336.5,-30.96"/>
</g>
<!-- Node8 -->
<g id="node8" class="node">
<title>Node8</title>
<g id="a_node8"><a xlink:title=" ">
<polygon fill="#e0e0e0" stroke="#999999" points="466.5,-19 389.5,-19 389.5,0 466.5,0 466.5,-19"/>
<text text-anchor="middle" x="428" y="-7" font-family="Helvetica,sans-Serif" font-size="10.00">stdint.h</text>
</a>
</g>
</g>
<!-- Node5&#45;&gt;Node8 -->
<g id="edge7" class="edge">
<title>Node5&#45;&gt;Node8</title>
<path fill="none" stroke="#63b8ff" d="M349.12,-54.51C363.67,-46.39 385.34,-34.3 402.29,-24.85"/>
<polygon fill="#63b8ff" stroke="#63b8ff" points="403.77,-28.02 410.8,-20.1 400.36,-21.91 403.77,-28.02"/>
</g>
</g>
</svg>
