<?xml version="1.0" encoding="UTF-8" standalone="no"?>
<!DOCTYPE svg PUBLIC "-//W3C//DTD SVG 1.1//EN"
 "http://www.w3.org/Graphics/SVG/1.1/DTD/svg11.dtd">
<!-- Generated by graphviz version 8.0.5 (20230430.1635)
 -->
<!-- Title: sqsh_table_private.h Pages: 1 -->
<!--zoomable 4684694 -->
<svg id="main" version="1.1" xmlns="http://www.w3.org/2000/svg" xmlns:xlink="http://www.w3.org/1999/xlink" xml:space="preserve" onload="init(evt)">
<style type="text/css"><![CDATA[
.edge:hover path { stroke: red; }
.edge:hover polygon { stroke: red; fill: red; }
]]></style>
<script type="text/javascript"><![CDATA[
var edges = document.getElementsByTagName('g');
if (edges && edges.length) {
  for (var i=0;i<edges.length;i++) {
    if (edges[i].id.substr(0,4)=='edge') {
      edges[i].setAttribute('class','edge');
    }
  }
}
]]></script>
        <defs>
                <circle id="rim" cx="0" cy="0" r="7"/>
                <circle id="rim2" cx="0" cy="0" r="3.5"/>
                <g id="zoomPlus">
                        <use xlink:href="#rim" fill="#404040">
                                <set attributeName="fill" to="#808080" begin="zoomplus.mouseover" end="zoomplus.mouseout"/>
                        </use>
                        <path d="M-4,0h8M0,-4v8" fill="none" stroke="white" stroke-width="1.5" pointer-events="none"/>
                </g>
                <g id="zoomMin">
                        <use xlink:href="#rim" fill="#404040">
                                <set attributeName="fill" to="#808080" begin="zoomminus.mouseover" end="zoomminus.mouseout"/>
                        </use>
                        <path d="M-4,0h8" fill="none" stroke="white" stroke-width="1.5" pointer-events="none"/>
                </g>
                <g id="dirArrow">
                        <path fill="none" stroke="white" stroke-width="1.5" d="M0,-3.0v7 M-2.5,-0.5L0,-3.0L2.5,-0.5"/>
                </g>
               <g id="resetDef">
                       <use xlink:href="#rim2" fill="#404040">
                               <set attributeName="fill" to="#808080" begin="reset.mouseover" end="reset.mouseout"/>
                       </use>
               </g>
        </defs>

<script type="text/javascript">
var viewWidth = 740;
var viewHeight = 4684694;
var sectionId = 'dynsection-0';
</script>
<script xlink:href="svgpan.js"/>
<svg id="graph" class="graph">
<g id="viewport">
<title>sqsh_table_private.h</title>
<!-- Node1 -->
<g id="node1" class="node">
<title>Node1</title>
<g id="a_node1"><a xlink:title=" ">
<polygon fill="#999999" stroke="#666666" points="298,-4684686.39 132,-4684686.39 132,-4684667.89 298,-4684667.89 298,-4684686.39"/>
<text text-anchor="middle" x="215" y="-4684672.89" font-family="Helvetica,sans-Serif" font-size="10.00">sqsh_table_private.h</text>
</a>
</g>
</g>
<!-- Node2 -->
<g id="node2" class="node">
<title>Node2</title>
<g id="a_node2"><a xlink:href="sqsh__extract__private_8h.html" target="_top" xlink:title=" ">
<polygon fill="white" stroke="#666666" points="305.5,-3903909.55 124.5,-3903909.55 124.5,-3903891.04 305.5,-3903891.04 305.5,-3903909.55"/>
<text text-anchor="middle" x="215" y="-3903896.05" font-family="Helvetica,sans-Serif" font-size="10.00">sqsh_extract_private.h</text>
</a>
</g>
</g>
<!-- Node1&#45;&gt;Node2 -->
<g id="edge1" class="edge">
<title>Node1&#45;&gt;Node2</title>
<path fill="none" stroke="#63b8ff" d="M215,-4684667.49C215,-4681685.44 215,-3908401.68 215,-3903920.84"/>
<polygon fill="#63b8ff" stroke="#63b8ff" points="218.5,-3903920.91 215,-3903910.91 211.5,-3903920.91 218.5,-3903920.91"/>
</g>
<!-- Node10 -->
<g id="node10" class="node">
<title>Node10</title>
<g id="a_node10"><a xlink:href="sqsh__mapper__private_8h.html" target="_top" xlink:title=" ">
<polygon fill="white" stroke="#666666" points="496.75,-4684631.89 323.25,-4684631.89 323.25,-3123168.7 496.75,-3123168.7 496.75,-4684631.89"/>
<text text-anchor="middle" x="410" y="-4684618.39" font-family="Helvetica,sans-Serif" font-size="10.00">sqsh_mapper_private.h</text>
</a>
</g>
</g>
<!-- Node1&#45;&gt;Node10 -->
<g id="edge10" class="edge">
<title>Node1&#45;&gt;Node10</title>
<path fill="none" stroke="#63b8ff" d="M260.52,-4684667.43C280.49,-4684661.11 302.07,-4684650.29 314,-4684631.89 868.94,-4683776.12 643.06,-4242128.25 497.26,-4023554.79"/>
<polygon fill="#63b8ff" stroke="#63b8ff" points="500.76,-4023554.84 497.25,-4023544.84 493.76,-4023554.84 500.76,-4023554.84"/>
</g>
<!-- Node13 -->
<g id="node13" class="node">
<title>Node13</title>
<g id="a_node13"><a xlink:href="sqsh__table_8h.html" target="_top" xlink:title=" ">
<polygon fill="white" stroke="#666666" points="106,-3903909.55 0,-3903909.55 0,-3903891.05 106,-3903891.05 106,-3903909.55"/>
<text text-anchor="middle" x="53" y="-3903896.05" font-family="Helvetica,sans-Serif" font-size="10.00">sqsh_table.h</text>
</a>
</g>
</g>
<!-- Node1&#45;&gt;Node13 -->
<g id="edge15" class="edge">
<title>Node1&#45;&gt;Node13</title>
<path fill="none" stroke="#63b8ff" d="M168.77,-4684667.47C148.67,-4684661.16 127.02,-4684650.34 115,-4684631.89 115,-4684631.89 53.36,-3908418.75 53,-3903920.92"/>
<polygon fill="#63b8ff" stroke="#63b8ff" points="56.5,-3903920.94 53,-3903910.94 49.5,-3903920.94 56.5,-3903920.94"/>
</g>
<!-- Node3 -->
<g id="node3" class="node">
<title>Node3</title>
<g id="a_node3"><a xlink:href="sqsh__primitive__private_8h.html" target="_top" xlink:title=" ">
<polygon fill="white" stroke="#666666" points="277,-3123132.7 81,-3123132.7 81,-1561623.59 277,-1561623.59 277,-3123132.7"/>
<text text-anchor="middle" x="179" y="-3123119.2" font-family="Helvetica,sans-Serif" font-size="10.00">sqsh_primitive_private.h</text>
</a>
</g>
</g>
<!-- Node2&#45;&gt;Node3 -->
<g id="edge2" class="edge">
<title>Node2&#45;&gt;Node3</title>
<path fill="none" stroke="#63b8ff" d="M215,-3903890.86C214.95,-3901802.54 205.98,-3512473.92 197,-3123143.79"/>
<polygon fill="#63b8ff" stroke="#63b8ff" points="200.5,-3123143.93 197,-3123133.93 193.5,-3123143.93 200.5,-3123143.93"/>
</g>
<!-- Node8 -->
<g id="node8" class="node">
<title>Node8</title>
<g id="a_node8"><a xlink:href="sqsh__thread__private_8h.html" target="_top" xlink:title=" ">
<polygon fill="white" stroke="#666666" points="468.75,-2342391.15 295.25,-2342391.15 295.25,-2342365.15 468.75,-2342365.15 468.75,-2342391.15"/>
<text text-anchor="middle" x="382" y="-2342377.65" font-family="Helvetica,sans-Serif" font-size="10.00">sqsh_thread_private.h</text>
</a>
</g>
</g>
<!-- Node2&#45;&gt;Node8 -->
<g id="edge7" class="edge">
<title>Node2&#45;&gt;Node8</title>
<path fill="none" stroke="#63b8ff" d="M215,-3903890.86C215.45,-3899717.89 381.26,-2349307.15 382,-2342402.28"/>
<polygon fill="#63b8ff" stroke="#63b8ff" points="385.5,-2342402.35 382,-2342392.35 378.5,-2342402.35 385.5,-2342402.35"/>
</g>
<!-- Node4 -->
<g id="node4" class="node">
<title>Node4</title>
<g id="a_node4"><a xlink:href="sqsh__common_8h.html" target="_top" xlink:title=" ">
<polygon fill="white" stroke="#666666" points="235.75,-1561587.59 122.25,-1561587.59 122.25,-78.4 235.75,-78.4 235.75,-1561587.59"/>
<text text-anchor="middle" x="179" y="-1561574.09" font-family="Helvetica,sans-Serif" font-size="10.00">sqsh_common.h</text>
</a>
</g>
</g>
<!-- Node3&#45;&gt;Node4 -->
<g id="edge3" class="edge">
<title>Node3&#45;&gt;Node4</title>
<path fill="none" stroke="#63b8ff" d="M179,-1561623.16C179,-1561615.1 179,-1561607.04 179,-1561598.97"/>
<polygon fill="#63b8ff" stroke="#63b8ff" points="182.5,-1561598.98 179,-1561588.98 175.5,-1561598.98 182.5,-1561598.98"/>
</g>
<!-- Node5 -->
<g id="node5" class="node">
<title>Node5</title>
<g id="a_node5"><a xlink:title=" ">
<polygon fill="#e0e0e0" stroke="#999999" points="122.75,-30.45 39.25,-30.45 39.25,-11.95 122.75,-11.95 122.75,-30.45"/>
<text text-anchor="middle" x="81" y="-16.95" font-family="Helvetica,sans-Serif" font-size="10.00">stdbool.h</text>
</a>
</g>
</g>
<!-- Node4&#45;&gt;Node5 -->
<g id="edge4" class="edge">
<title>Node4&#45;&gt;Node5</title>
<path fill="none" stroke="#63b8ff" d="M121.75,-324695.9C100.43,-154802.45 81.25,-2008.52 81,-41.41"/>
<polygon fill="#63b8ff" stroke="#63b8ff" points="84.5,-41.61 81,-31.61 77.5,-41.61 84.5,-41.61"/>
</g>
<!-- Node6 -->
<g id="node6" class="node">
<title>Node6</title>
<g id="a_node6"><a xlink:title=" ">
<polygon fill="#e0e0e0" stroke="#999999" points="217,-34.2 141,-34.2 141,-8.2 217,-8.2 217,-34.2"/>
<text text-anchor="middle" x="179" y="-20.7" font-family="Helvetica,sans-Serif" font-size="10.00">stddef.h</text>
</a>
</g>
</g>
<!-- Node4&#45;&gt;Node6 -->
<g id="edge5" class="edge">
<title>Node4&#45;&gt;Node6</title>
<path fill="none" stroke="#63b8ff" d="M179,-78.22C179,-64.91 179,-53.97 179,-45.39"/>
<polygon fill="#63b8ff" stroke="#63b8ff" points="182.5,-45.53 179,-35.53 175.5,-45.53 182.5,-45.53"/>
</g>
<!-- Node7 -->
<g id="node7" class="node">
<title>Node7</title>
<g id="a_node7"><a xlink:title=" ">
<polygon fill="#e0e0e0" stroke="#999999" points="311,-42.4 235,-42.4 235,0 311,0 311,-42.4"/>
<text text-anchor="middle" x="273" y="-28.9" font-family="Helvetica,sans-Serif" font-size="10.00">stdint.h</text>
</a>
</g>
</g>
<!-- Node4&#45;&gt;Node7 -->
<g id="edge6" class="edge">
<title>Node4&#45;&gt;Node7</title>
<path fill="none" stroke="#63b8ff" d="M236.25,-305285.66C255.71,-143642.2 272.71,-2468.34 273,-53.64"/>
<polygon fill="#63b8ff" stroke="#63b8ff" points="276.5,-53.82 273,-43.82 269.5,-53.82 276.5,-53.82"/>
</g>
<!-- Node8&#45;&gt;Node4 -->
<g id="edge9" class="edge">
<title>Node8&#45;&gt;Node4</title>
<path fill="none" stroke="#63b8ff" d="M382,-2342365.04C381.69,-2339730.54 330.97,-1907566.2 286,-1561623.59 270.34,-1441175.05 252.66,-1310274.7 236.25,-1190689.25"/>
<polygon fill="#63b8ff" stroke="#63b8ff" points="239.75,-1190689.3 236.25,-1190679.3 232.75,-1190689.3 239.75,-1190689.3"/>
</g>
<!-- Node9 -->
<g id="node9" class="node">
<title>Node9</title>
<g id="a_node9"><a xlink:title=" ">
<polygon fill="#e0e0e0" stroke="#999999" points="423.75,-1561564.51 340.25,-1561564.51 340.25,-101.48 423.75,-101.48 423.75,-1561564.51"/>
<text text-anchor="middle" x="382" y="-1561551.01" font-family="Helvetica,sans-Serif" font-size="10.00">pthread.h</text>
</a>
</g>
</g>
<!-- Node8&#45;&gt;Node9 -->
<g id="edge8" class="edge">
<title>Node8&#45;&gt;Node9</title>
<path fill="none" stroke="#63b8ff" d="M382,-2342364.9C382,-2339851.39 382,-1950708.62 382,-1561575.73"/>
<polygon fill="#63b8ff" stroke="#63b8ff" points="385.5,-1561575.87 382,-1561565.87 378.5,-1561575.87 385.5,-1561575.87"/>
</g>
<!-- Node10&#45;&gt;Node3 -->
<g id="edge12" class="edge">
<title>Node10&#45;&gt;Node3</title>
<path fill="none" stroke="#63b8ff" d="M497.25,-3808059.29C673.77,-3599964.22 1001.01,-3125170.63 314,-3123168.7 307.42,-3123149.53 292.58,-3123151.87 286,-3123132.7 283.15,-3123124.39 280.35,-3122984.9 277.61,-3122717.66"/>
<polygon fill="#63b8ff" stroke="#63b8ff" points="281.1,-3122717.84 277.5,-3122707.88 274.1,-3122717.91 281.1,-3122717.84"/>
</g>
<!-- Node10&#45;&gt;Node8 -->
<g id="edge13" class="edge">
<title>Node10&#45;&gt;Node8</title>
<path fill="none" stroke="#63b8ff" d="M396,-3123168.26C389.03,-2734516.41 382.06,-2345854.96 382,-2342402.32"/>
<polygon fill="#63b8ff" stroke="#63b8ff" points="385.5,-2342402.39 382,-2342392.39 378.5,-2342402.39 385.5,-2342402.39"/>
</g>
<!-- Node11 -->
<g id="node11" class="node">
<title>Node11</title>
<g id="a_node11"><a xlink:href="sqsh__mapper_8h.html" target="_top" xlink:title=" ">
<polygon fill="white" stroke="#666666" points="708.75,-2342387.4 595.25,-2342387.4 595.25,-2342368.9 708.75,-2342368.9 708.75,-2342387.4"/>
<text text-anchor="middle" x="652" y="-2342373.9" font-family="Helvetica,sans-Serif" font-size="10.00">sqsh_mapper.h</text>
</a>
</g>
</g>
<!-- Node10&#45;&gt;Node11 -->
<g id="edge11" class="edge">
<title>Node10&#45;&gt;Node11</title>
<path fill="none" stroke="#63b8ff" d="M497.25,-3565666.74C529.92,-3428333.48 564.52,-3268156.88 587,-3123132.7 640.57,-2777474.84 651.91,-2345737.14 652,-2342398.63"/>
<polygon fill="#63b8ff" stroke="#63b8ff" points="655.5,-2342398.69 652,-2342388.69 648.5,-2342398.69 655.5,-2342398.69"/>
</g>
<!-- Node12 -->
<g id="node12" class="node">
<title>Node12</title>
<g id="a_node12"><a xlink:title=" ">
<polygon fill="#e0e0e0" stroke="#999999" points="577.5,-2342387.4 486.5,-2342387.4 486.5,-2342368.9 577.5,-2342368.9 577.5,-2342387.4"/>
<text text-anchor="middle" x="532" y="-2342373.9" font-family="Helvetica,sans-Serif" font-size="10.00">sys/wait.h</text>
</a>
</g>
</g>
<!-- Node10&#45;&gt;Node12 -->
<g id="edge14" class="edge">
<title>Node10&#45;&gt;Node12</title>
<path fill="none" stroke="#63b8ff" d="M478,-3123168.44C478,-3123156.53 478,-3123144.62 478,-3123132.7 505.01,-2777474.84 531.79,-2345737.14 532,-2342398.63"/>
<polygon fill="#63b8ff" stroke="#63b8ff" points="535.5,-2342398.69 532,-2342388.69 528.5,-2342398.69 535.5,-2342398.69"/>
</g>
<!-- Node13&#45;&gt;Node4 -->
<g id="edge16" class="edge">
<title>Node13&#45;&gt;Node4</title>
<path fill="none" stroke="#63b8ff" d="M53,-3903890.57C52.83,-3900008.16 -3.44,-2601078.32 72,-1561623.59 82.28,-1419934.82 102.01,-1263783.02 121.75,-1128600.09"/>
<polygon fill="#63b8ff" stroke="#63b8ff" points="125.25,-1128600.26 121.75,-1128590.26 118.25,-1128600.26 125.25,-1128600.26"/>
</g>
</g>
</svg>
        <g id="navigator" transform="translate(0 0)" fill="#404254">
                <rect fill="#f2f5e9" fill-opacity="0.5" stroke="#606060" stroke-width=".5" x="0" y="0" width="60" height="60"/>
                <use id="zoomplus" xlink:href="#zoomPlus" x="17" y="9" onmousedown="handleZoom(evt,'in')"/>
                <use id="zoomminus" xlink:href="#zoomMin" x="42" y="9" onmousedown="handleZoom(evt,'out')"/>
                <use id="reset" xlink:href="#resetDef" x="30" y="36" onmousedown="handleReset()"/>
                <g id="arrowUp" xlink:href="#dirArrow" transform="translate(30 24)" onmousedown="handlePan(0,-1)">
                  <use xlink:href="#rim" fill="#404040">
                        <set attributeName="fill" to="#808080" begin="arrowUp.mouseover" end="arrowUp.mouseout"/>
                  </use>
                  <path fill="none" stroke="white" stroke-width="1.5" d="M0,-3.0v7 M-2.5,-0.5L0,-3.0L2.5,-0.5"/>
                </g>
                <g id="arrowRight" xlink:href="#dirArrow" transform="rotate(90) translate(36 -43)" onmousedown="handlePan(1,0)">
                  <use xlink:href="#rim" fill="#404040">
                        <set attributeName="fill" to="#808080" begin="arrowRight.mouseover" end="arrowRight.mouseout"/>
                  </use>
                  <path fill="none" stroke="white" stroke-width="1.5" d="M0,-3.0v7 M-2.5,-0.5L0,-3.0L2.5,-0.5"/>
                </g>
                <g id="arrowDown" xlink:href="#dirArrow" transform="rotate(180) translate(-30 -48)" onmousedown="handlePan(0,1)">
                  <use xlink:href="#rim" fill="#404040">
                        <set attributeName="fill" to="#808080" begin="arrowDown.mouseover" end="arrowDown.mouseout"/>
                  </use>
                  <path fill="none" stroke="white" stroke-width="1.5" d="M0,-3.0v7 M-2.5,-0.5L0,-3.0L2.5,-0.5"/>
                </g>
                <g id="arrowLeft" xlink:href="#dirArrow" transform="rotate(270) translate(-36 17)" onmousedown="handlePan(-1,0)">
                  <use xlink:href="#rim" fill="#404040">
                        <set attributeName="fill" to="#808080" begin="arrowLeft.mouseover" end="arrowLeft.mouseout"/>
                  </use>
                  <path fill="none" stroke="white" stroke-width="1.5" d="M0,-3.0v7 M-2.5,-0.5L0,-3.0L2.5,-0.5"/>
                </g>
        </g>
        <svg viewBox="0 0 15 15" width="100%" height="30px" preserveAspectRatio="xMaxYMin meet">
         <g id="arrow_out" transform="scale(0.3 0.3)">
          <a xlink:href="sqsh__table__private_8h__incl_org.svg" target="_base">
           <rect id="button" ry="5" rx="5" y="6" x="6" height="38" width="38"
                fill="#f2f5e9" fill-opacity="0.5" stroke="#606060" stroke-width="1.0"/>
           <path id="arrow"
             d="M 11.500037,31.436501 C 11.940474,20.09759 22.043105,11.32322 32.158766,21.979434 L 37.068811,17.246167 C 37.068811,17.246167 37.088388,32 37.088388,32 L 22.160133,31.978069 C 22.160133,31.978069 26.997745,27.140456 26.997745,27.140456 C 18.528582,18.264221 13.291696,25.230495 11.500037,31.436501 z"
             style="fill:#404040;"/>
          </a>
         </g>
        </svg>
</svg>
