<?xml version="1.0" encoding="UTF-8" standalone="no"?>
<!DOCTYPE svg PUBLIC "-//W3C//DTD SVG 1.1//EN"
 "http://www.w3.org/Graphics/SVG/1.1/DTD/svg11.dtd">
<!-- Generated by graphviz version 8.1.0 (0)
 -->
<!-- Title: include/sqsh_extract_private.h Pages: 1 -->
<svg width="347pt" height="212pt"
 viewBox="0.00 0.00 347.00 211.75" xmlns="http://www.w3.org/2000/svg" xmlns:xlink="http://www.w3.org/1999/xlink">
<g id="graph0" class="graph" transform="scale(1 1) rotate(0) translate(4 207.75)">
<title>include/sqsh_extract_private.h</title>
<!-- Node1 -->
<g id="Node000001" class="node">
<title>Node1</title>
<g id="a_Node000001"><a xlink:title=" ">
<polygon fill="#999999" stroke="#666666" points="181.88,-203.75 65.38,-203.75 65.38,-170.25 181.88,-170.25 181.88,-203.75"/>
<text text-anchor="start" x="73.38" y="-190.25" font-family="Helvetica,sans-Serif" font-size="10.00">include/sqsh_extract</text>
<text text-anchor="middle" x="123.62" y="-177.5" font-family="Helvetica,sans-Serif" font-size="10.00">_private.h</text>
</a>
</g>
</g>
<!-- Node2 -->
<g id="Node000002" class="node">
<title>Node2</title>
<g id="a_Node000002"><a xlink:title=" ">
<polygon fill="#e0e0e0" stroke="#999999" points="111.25,-134.25 0,-134.25 0,-113.5 111.25,-113.5 111.25,-134.25"/>
<text text-anchor="middle" x="55.62" y="-120.75" font-family="Helvetica,sans-Serif" font-size="10.00">cextras/collection.h</text>
</a>
</g>
</g>
<!-- Node1&#45;&gt;Node2 -->
<g id="edge1_Node000001_Node000002" class="edge">
<title>Node1&#45;&gt;Node2</title>
<g id="a_edge1_Node000001_Node000002"><a xlink:title=" ">
<path fill="none" stroke="#63b8ff" d="M105.76,-169.94C96.14,-161.3 84.28,-150.63 74.51,-141.85"/>
<polygon fill="#63b8ff" stroke="#63b8ff" points="77.35,-139.8 67.57,-135.72 72.67,-145.01 77.35,-139.8"/>
</a>
</g>
</g>
<!-- Node3 -->
<g id="Node000003" class="node">
<title>Node3</title>
<g id="a_Node000003"><a xlink:href="sqsh__thread__private_8h.html" target="_top" xlink:title=" ">
<polygon fill="white" stroke="#666666" points="253.62,-134.25 129.62,-134.25 129.62,-113.5 253.62,-113.5 253.62,-134.25"/>
<text text-anchor="middle" x="191.62" y="-120.75" font-family="Helvetica,sans-Serif" font-size="10.00">sqsh_thread_private.h</text>
</a>
</g>
</g>
<!-- Node1&#45;&gt;Node3 -->
<g id="edge2_Node000001_Node000003" class="edge">
<title>Node1&#45;&gt;Node3</title>
<g id="a_edge2_Node000001_Node000003"><a xlink:title=" ">
<path fill="none" stroke="#63b8ff" d="M141.49,-169.94C151.11,-161.3 162.97,-150.63 172.74,-141.85"/>
<polygon fill="#63b8ff" stroke="#63b8ff" points="174.58,-145.01 179.68,-135.72 169.9,-139.8 174.58,-145.01"/>
</a>
</g>
</g>
<!-- Node4 -->
<g id="Node000004" class="node">
<title>Node4</title>
<g id="a_Node000004"><a xlink:title=" ">
<polygon fill="#e0e0e0" stroke="#999999" points="174.88,-77.5 112.38,-77.5 112.38,-56.75 174.88,-56.75 174.88,-77.5"/>
<text text-anchor="middle" x="143.62" y="-64" font-family="Helvetica,sans-Serif" font-size="10.00">pthread.h</text>
</a>
</g>
</g>
<!-- Node3&#45;&gt;Node4 -->
<g id="edge3_Node000003_Node000004" class="edge">
<title>Node3&#45;&gt;Node4</title>
<g id="a_edge3_Node000003_Node000004"><a xlink:title=" ">
<path fill="none" stroke="#63b8ff" d="M183.04,-113.09C176.42,-105.53 167.09,-94.89 159.16,-85.85"/>
<polygon fill="#63b8ff" stroke="#63b8ff" points="161.36,-84.04 152.13,-78.83 156.09,-88.66 161.36,-84.04"/>
</a>
</g>
</g>
<!-- Node5 -->
<g id="Node000005" class="node">
<title>Node5</title>
<g id="a_Node000005"><a xlink:href="sqsh__common_8h.html" target="_top" xlink:title=" ">
<polygon fill="white" stroke="#666666" points="288.38,-77.5 192.88,-77.5 192.88,-56.75 288.38,-56.75 288.38,-77.5"/>
<text text-anchor="middle" x="240.62" y="-64" font-family="Helvetica,sans-Serif" font-size="10.00">sqsh_common.h</text>
</a>
</g>
</g>
<!-- Node3&#45;&gt;Node5 -->
<g id="edge4_Node000003_Node000005" class="edge">
<title>Node3&#45;&gt;Node5</title>
<g id="a_edge4_Node000003_Node000005"><a xlink:title=" ">
<path fill="none" stroke="#63b8ff" d="M200.39,-113.09C207.14,-105.53 216.67,-94.89 224.76,-85.85"/>
<polygon fill="#63b8ff" stroke="#63b8ff" points="226.88,-88.61 230.94,-78.83 221.66,-83.95 226.88,-88.61"/>
</a>
</g>
</g>
<!-- Node6 -->
<g id="Node000006" class="node">
<title>Node6</title>
<g id="a_Node000006"><a xlink:title=" ">
<polygon fill="#e0e0e0" stroke="#999999" points="195.12,-20.75 134.12,-20.75 134.12,0 195.12,0 195.12,-20.75"/>
<text text-anchor="middle" x="164.62" y="-7.25" font-family="Helvetica,sans-Serif" font-size="10.00">stdbool.h</text>
</a>
</g>
</g>
<!-- Node5&#45;&gt;Node6 -->
<g id="edge5_Node000005_Node000006" class="edge">
<title>Node5&#45;&gt;Node6</title>
<g id="a_edge5_Node000005_Node000006"><a xlink:title=" ">
<path fill="none" stroke="#63b8ff" d="M227.04,-56.34C215.91,-48.32 199.93,-36.81 186.92,-27.44"/>
<polygon fill="#63b8ff" stroke="#63b8ff" points="189.25,-24.08 179.09,-21.08 185.16,-29.76 189.25,-24.08"/>
</a>
</g>
</g>
<!-- Node7 -->
<g id="Node000007" class="node">
<title>Node7</title>
<g id="a_Node000007"><a xlink:title=" ">
<polygon fill="#e0e0e0" stroke="#999999" points="268.12,-20.75 213.12,-20.75 213.12,0 268.12,0 268.12,-20.75"/>
<text text-anchor="middle" x="240.62" y="-7.25" font-family="Helvetica,sans-Serif" font-size="10.00">stddef.h</text>
</a>
</g>
</g>
<!-- Node5&#45;&gt;Node7 -->
<g id="edge6_Node000005_Node000007" class="edge">
<title>Node5&#45;&gt;Node7</title>
<g id="a_edge6_Node000005_Node000007"><a xlink:title=" ">
<path fill="none" stroke="#63b8ff" d="M240.62,-56.34C240.62,-49.56 240.62,-40.3 240.62,-31.94"/>
<polygon fill="#63b8ff" stroke="#63b8ff" points="244.13,-32.08 240.62,-22.08 237.13,-32.08 244.13,-32.08"/>
</a>
</g>
</g>
<!-- Node8 -->
<g id="Node000008" class="node">
<title>Node8</title>
<g id="a_Node000008"><a xlink:title=" ">
<polygon fill="#e0e0e0" stroke="#999999" points="339,-20.75 286.25,-20.75 286.25,0 339,0 339,-20.75"/>
<text text-anchor="middle" x="312.62" y="-7.25" font-family="Helvetica,sans-Serif" font-size="10.00">stdint.h</text>
</a>
</g>
</g>
<!-- Node5&#45;&gt;Node8 -->
<g id="edge7_Node000005_Node000008" class="edge">
<title>Node5&#45;&gt;Node8</title>
<g id="a_edge7_Node000005_Node000008"><a xlink:title=" ">
<path fill="none" stroke="#63b8ff" d="M253.5,-56.34C263.94,-48.4 278.89,-37.03 291.14,-27.71"/>
<polygon fill="#63b8ff" stroke="#63b8ff" points="293.02,-29.92 298.86,-21.08 288.79,-24.35 293.02,-29.92"/>
</a>
</g>
</g>
</g>
</svg>
