<?xml version="1.0" encoding="UTF-8" standalone="no"?>
<!DOCTYPE svg PUBLIC "-//W3C//DTD SVG 1.1//EN"
 "http://www.w3.org/Graphics/SVG/1.1/DTD/svg11.dtd">
<!-- Generated by graphviz version 7.0.4 (20221203.1631)
 -->
<!-- Title: /__w/libsqsh/libsqsh/include/sqsh_common.h Pages: 1 -->
<!--zoomable 390 -->
<svg id="main" version="1.1" xmlns="http://www.w3.org/2000/svg" xmlns:xlink="http://www.w3.org/1999/xlink" xml:space="preserve" onload="init(evt)">
<style type="text/css"><![CDATA[
.edge:hover path { stroke: red; }
.edge:hover polygon { stroke: red; fill: red; }
]]></style>
<script type="text/javascript"><![CDATA[
var edges = document.getElementsByTagName('g');
if (edges && edges.length) {
  for (var i=0;i<edges.length;i++) {
    if (edges[i].id.substr(0,4)=='edge') {
      edges[i].setAttribute('class','edge');
    }
  }
}
]]></script>
        <defs>
                <circle id="rim" cx="0" cy="0" r="7"/>
                <circle id="rim2" cx="0" cy="0" r="3.5"/>
                <g id="zoomPlus">
                        <use xlink:href="#rim" fill="#404040">
                                <set attributeName="fill" to="#808080" begin="zoomplus.mouseover" end="zoomplus.mouseout"/>
                        </use>
                        <path d="M-4,0h8M0,-4v8" fill="none" stroke="white" stroke-width="1.5" pointer-events="none"/>
                </g>
                <g id="zoomMin">
                        <use xlink:href="#rim" fill="#404040">
                                <set attributeName="fill" to="#808080" begin="zoomminus.mouseover" end="zoomminus.mouseout"/>
                        </use>
                        <path d="M-4,0h8" fill="none" stroke="white" stroke-width="1.5" pointer-events="none"/>
                </g>
                <g id="dirArrow">
                        <path fill="none" stroke="white" stroke-width="1.5" d="M0,-3.0v7 M-2.5,-0.5L0,-3.0L2.5,-0.5"/>
                </g>
               <g id="resetDef">
                       <use xlink:href="#rim2" fill="#404040">
                               <set attributeName="fill" to="#808080" begin="reset.mouseover" end="reset.mouseout"/>
                       </use>
               </g>
        </defs>

<script type="text/javascript">
var viewWidth = 1218;
var viewHeight = 390;
var sectionId = 'dynsection-1';
</script>
<script xlink:href="svgpan.js"/>
<svg id="graph" class="graph">
<g id="viewport">
<title>/__w/libsqsh/libsqsh/include/sqsh_common.h</title>
<!-- Node1 -->
<g id="node1" class="node">
<title>Node1</title>
<g id="a_node1"><a xlink:title=" ">
<polygon fill="#999999" stroke="#666666" points="842,-382 660,-382 660,-352 842,-352 842,-382"/>
<text text-anchor="start" x="668" y="-370" font-family="Helvetica,sans-Serif" font-size="10.00">/__w/libsqsh/libsqsh</text>
<text text-anchor="middle" x="751" y="-359" font-family="Helvetica,sans-Serif" font-size="10.00">/include/sqsh_common.h</text>
</a>
</g>
</g>
<!-- Node2 -->
<g id="node2" class="node">
<title>Node2</title>
<g id="a_node2"><a xlink:href="sqsh_8h.html" target="_top" xlink:title=" ">
<polygon fill="white" stroke="#666666" points="354.5,-101.5 187.5,-101.5 187.5,-71.5 354.5,-71.5 354.5,-101.5"/>
<text text-anchor="start" x="195.5" y="-89.5" font-family="Helvetica,sans-Serif" font-size="10.00">/__w/libsqsh/libsqsh</text>
<text text-anchor="middle" x="271" y="-78.5" font-family="Helvetica,sans-Serif" font-size="10.00">/include/sqsh.h</text>
</a>
</g>
</g>
<!-- Node1&#45;&gt;Node2 -->
<g id="edge1" class="edge">
<title>Node1&#45;&gt;Node2</title>
<path fill="none" stroke="#63b8ff" d="M648.69,-353.48C557.45,-338.95 422.67,-308.99 319,-250 281.27,-228.53 264.48,-223.74 247,-184 234.77,-156.19 250.7,-121.01 261.85,-101.73"/>
<polygon fill="#63b8ff" stroke="#63b8ff" points="647.96,-356.91 658.38,-354.99 649.03,-349.99 647.96,-356.91"/>
</g>
<!-- Node3 -->
<g id="node3" class="node">
<title>Node3</title>
<g id="a_node3"><a xlink:href="sqsh__private_8h.html" target="_top" xlink:title=" ">
<polygon fill="white" stroke="#666666" points="535.5,-30 346.5,-30 346.5,0 535.5,0 535.5,-30"/>
<text text-anchor="start" x="354.5" y="-18" font-family="Helvetica,sans-Serif" font-size="10.00">/__w/libsqsh/libsqsh</text>
<text text-anchor="middle" x="441" y="-7" font-family="Helvetica,sans-Serif" font-size="10.00">/include/sqsh_private.h</text>
</a>
</g>
</g>
<!-- Node1&#45;&gt;Node3 -->
<g id="edge25" class="edge">
<title>Node1&#45;&gt;Node3</title>
<path fill="none" stroke="#63b8ff" d="M831.68,-348.32C888.32,-330.61 954,-296.94 954,-236 954,-236 954,-236 954,-162.5 954,-143.84 983.29,-126.9 856,-66 801.17,-39.77 640.43,-26.46 535.84,-20.39"/>
<polygon fill="#63b8ff" stroke="#63b8ff" points="830.89,-344.91 822.31,-351.12 832.89,-351.61 830.89,-344.91"/>
</g>
<!-- Node4 -->
<g id="node4" class="node">
<title>Node4</title>
<g id="a_node4"><a xlink:href="sqsh__data_8h.html" target="_top" xlink:title=" ">
<polygon fill="white" stroke="#666666" points="1164.5,-316 997.5,-316 997.5,-286 1164.5,-286 1164.5,-316"/>
<text text-anchor="start" x="1005.5" y="-304" font-family="Helvetica,sans-Serif" font-size="10.00">/__w/libsqsh/libsqsh</text>
<text text-anchor="middle" x="1081" y="-293" font-family="Helvetica,sans-Serif" font-size="10.00">/include/sqsh_data.h</text>
</a>
</g>
</g>
<!-- Node1&#45;&gt;Node4 -->
<g id="edge3" class="edge">
<title>Node1&#45;&gt;Node4</title>
<path fill="none" stroke="#63b8ff" d="M836.48,-349.42C889.15,-339.21 956.02,-326.24 1006.52,-316.45"/>
<polygon fill="#63b8ff" stroke="#63b8ff" points="836.11,-345.93 826.96,-351.27 837.44,-352.8 836.11,-345.93"/>
</g>
<!-- Node6 -->
<g id="node6" class="node">
<title>Node6</title>
<g id="a_node6"><a xlink:href="sqsh__error_8h.html" target="_top" xlink:title=" ">
<polygon fill="white" stroke="#666666" points="174,-178.5 0,-178.5 0,-148.5 174,-148.5 174,-178.5"/>
<text text-anchor="start" x="8" y="-166.5" font-family="Helvetica,sans-Serif" font-size="10.00">/__w/libsqsh/libsqsh</text>
<text text-anchor="middle" x="87" y="-155.5" font-family="Helvetica,sans-Serif" font-size="10.00">/include/sqsh_error.h</text>
</a>
</g>
</g>
<!-- Node1&#45;&gt;Node6 -->
<g id="edge5" class="edge">
<title>Node1&#45;&gt;Node6</title>
<path fill="none" stroke="#63b8ff" d="M648.39,-361.67C496.76,-354.56 226.54,-338.87 188,-316 133.91,-283.89 102.88,-210.16 91.75,-178.91"/>
<polygon fill="#63b8ff" stroke="#63b8ff" points="647.88,-365.15 658.03,-362.12 648.2,-358.16 647.88,-365.15"/>
</g>
<!-- Node7 -->
<g id="node7" class="node">
<title>Node7</title>
<g id="a_node7"><a xlink:href="sqsh__iterator_8h.html" target="_top" xlink:title=" ">
<polygon fill="white" stroke="#666666" points="925.5,-178.5 728.5,-178.5 728.5,-148.5 925.5,-148.5 925.5,-178.5"/>
<text text-anchor="start" x="736.5" y="-166.5" font-family="Helvetica,sans-Serif" font-size="10.00">/__w/libsqsh/libsqsh</text>
<text text-anchor="middle" x="827" y="-155.5" font-family="Helvetica,sans-Serif" font-size="10.00">/include/sqsh_iterator.h</text>
</a>
</g>
</g>
<!-- Node1&#45;&gt;Node7 -->
<g id="edge8" class="edge">
<title>Node1&#45;&gt;Node7</title>
<path fill="none" stroke="#63b8ff" d="M760.46,-340.92C776.56,-298.23 808.79,-212.78 821.58,-178.86"/>
<polygon fill="#63b8ff" stroke="#63b8ff" points="757.25,-339.5 757,-350.09 763.8,-341.97 757.25,-339.5"/>
</g>
<!-- Node9 -->
<g id="node9" class="node">
<title>Node9</title>
<g id="a_node9"><a xlink:href="sqsh__primitive_8h.html" target="_top" xlink:title=" ">
<polygon fill="white" stroke="#666666" points="751,-316 547,-316 547,-286 751,-286 751,-316"/>
<text text-anchor="start" x="555" y="-304" font-family="Helvetica,sans-Serif" font-size="10.00">/__w/libsqsh/libsqsh</text>
<text text-anchor="middle" x="649" y="-293" font-family="Helvetica,sans-Serif" font-size="10.00">/include/sqsh_primitive.h</text>
</a>
</g>
</g>
<!-- Node1&#45;&gt;Node9 -->
<g id="edge10" class="edge">
<title>Node1&#45;&gt;Node9</title>
<path fill="none" stroke="#63b8ff" d="M718.55,-345.64C703.34,-336.09 685.58,-324.95 671.81,-316.31"/>
<polygon fill="#63b8ff" stroke="#63b8ff" points="716.5,-348.48 726.83,-350.83 720.22,-342.55 716.5,-348.48"/>
</g>
<!-- Node2&#45;&gt;Node3 -->
<g id="edge2" class="edge">
<title>Node2&#45;&gt;Node3</title>
<path fill="none" stroke="#63b8ff" d="M316.57,-66.87C344.59,-55.41 379.96,-40.95 405.82,-30.38"/>
<polygon fill="#63b8ff" stroke="#63b8ff" points="315.56,-63.5 307.63,-70.53 318.21,-69.98 315.56,-63.5"/>
</g>
<!-- Node5 -->
<g id="node5" class="node">
<title>Node5</title>
<g id="a_node5"><a xlink:href="sqsh__data__private_8h.html" target="_top" xlink:title=" ">
<polygon fill="white" stroke="#666666" points="1209.5,-250 982.5,-250 982.5,-220 1209.5,-220 1209.5,-250"/>
<text text-anchor="start" x="990.5" y="-238" font-family="Helvetica,sans-Serif" font-size="10.00">/__w/libsqsh/libsqsh</text>
<text text-anchor="middle" x="1096" y="-227" font-family="Helvetica,sans-Serif" font-size="10.00">/include/sqsh_data_private.h</text>
</a>
</g>
</g>
<!-- Node4&#45;&gt;Node5 -->
<g id="edge4" class="edge">
<title>Node4&#45;&gt;Node5</title>
<path fill="none" stroke="#63b8ff" d="M1086.93,-274.68C1088.89,-266.34 1090.99,-257.37 1092.68,-250.16"/>
<polygon fill="#63b8ff" stroke="#63b8ff" points="1083.55,-273.79 1084.67,-284.32 1090.36,-275.39 1083.55,-273.79"/>
</g>
<!-- Node6&#45;&gt;Node2 -->
<g id="edge6" class="edge">
<title>Node6&#45;&gt;Node2</title>
<path fill="none" stroke="#63b8ff" d="M132.85,-143.81C164.65,-130.85 206.39,-113.84 235.63,-101.92"/>
<polygon fill="#63b8ff" stroke="#63b8ff" points="131.82,-140.45 123.88,-147.47 134.46,-146.93 131.82,-140.45"/>
</g>
<!-- Node6&#45;&gt;Node3 -->
<g id="edge7" class="edge">
<title>Node6&#45;&gt;Node3</title>
<path fill="none" stroke="#63b8ff" d="M102.6,-138.82C118.72,-116.37 145.98,-83.54 178,-66 229.36,-37.86 293.87,-25.31 346.15,-19.81"/>
<polygon fill="#63b8ff" stroke="#63b8ff" points="99.9,-136.57 97.07,-146.78 105.65,-140.57 99.9,-136.57"/>
</g>
<!-- Node8 -->
<g id="node8" class="node">
<title>Node8</title>
<g id="a_node8"><a xlink:href="sqsh__iterator__private_8h.html" target="_top" xlink:title=" ">
<polygon fill="white" stroke="#666666" points="847,-107 665,-107 665,-66 847,-66 847,-107"/>
<text text-anchor="start" x="673" y="-95" font-family="Helvetica,sans-Serif" font-size="10.00">/__w/libsqsh/libsqsh</text>
<text text-anchor="start" x="673" y="-84" font-family="Helvetica,sans-Serif" font-size="10.00">/include/sqsh_iterator</text>
<text text-anchor="middle" x="756" y="-73" font-family="Helvetica,sans-Serif" font-size="10.00">_private.h</text>
</a>
</g>
</g>
<!-- Node7&#45;&gt;Node8 -->
<g id="edge9" class="edge">
<title>Node7&#45;&gt;Node8</title>
<path fill="none" stroke="#63b8ff" d="M805.55,-139.84C795.73,-129.47 784.21,-117.3 774.75,-107.3"/>
<polygon fill="#63b8ff" stroke="#63b8ff" points="802.85,-142.08 812.27,-146.94 807.94,-137.27 802.85,-142.08"/>
</g>
<!-- Node10 -->
<g id="node10" class="node">
<title>Node10</title>
<g id="a_node10"><a xlink:href="sqsh__context_8h.html" target="_top" xlink:title=" ">
<polygon fill="white" stroke="#666666" points="717.5,-250 528.5,-250 528.5,-220 717.5,-220 717.5,-250"/>
<text text-anchor="start" x="536.5" y="-238" font-family="Helvetica,sans-Serif" font-size="10.00">/__w/libsqsh/libsqsh</text>
<text text-anchor="middle" x="623" y="-227" font-family="Helvetica,sans-Serif" font-size="10.00">/include/sqsh_context.h</text>
</a>
</g>
</g>
<!-- Node9&#45;&gt;Node10 -->
<g id="edge11" class="edge">
<title>Node9&#45;&gt;Node10</title>
<path fill="none" stroke="#63b8ff" d="M638.95,-275.25C635.49,-266.75 631.75,-257.53 628.75,-250.16"/>
<polygon fill="#63b8ff" stroke="#63b8ff" points="635.65,-276.45 642.66,-284.39 642.14,-273.81 635.65,-276.45"/>
</g>
<!-- Node11 -->
<g id="node11" class="node">
<title>Node11</title>
<g id="a_node11"><a xlink:href="sqsh__context__private_8h.html" target="_top" xlink:title=" ">
<polygon fill="white" stroke="#666666" points="710,-184 536,-184 536,-143 710,-143 710,-184"/>
<text text-anchor="start" x="544" y="-172" font-family="Helvetica,sans-Serif" font-size="10.00">/__w/libsqsh/libsqsh</text>
<text text-anchor="start" x="544" y="-161" font-family="Helvetica,sans-Serif" font-size="10.00">/include/sqsh_context</text>
<text text-anchor="middle" x="623" y="-150" font-family="Helvetica,sans-Serif" font-size="10.00">_private.h</text>
</a>
</g>
</g>
<!-- Node9&#45;&gt;Node11 -->
<g id="edge17" class="edge">
<title>Node9&#45;&gt;Node11</title>
<path fill="none" stroke="#63b8ff" d="M696.44,-280.01C708.57,-272.47 720.12,-262.58 727,-250 733.4,-238.3 733.86,-231.43 727,-220 717.58,-204.29 702.03,-192.78 685.8,-184.46"/>
<polygon fill="#63b8ff" stroke="#63b8ff" points="694.95,-276.83 687.98,-284.81 698.4,-282.91 694.95,-276.83"/>
</g>
<!-- Node12 -->
<g id="node12" class="node">
<title>Node12</title>
<g id="a_node12"><a xlink:href="sqsh__mapper_8h.html" target="_top" xlink:title=" ">
<polygon fill="white" stroke="#666666" points="510,-250 328,-250 328,-220 510,-220 510,-250"/>
<text text-anchor="start" x="336" y="-238" font-family="Helvetica,sans-Serif" font-size="10.00">/__w/libsqsh/libsqsh</text>
<text text-anchor="middle" x="419" y="-227" font-family="Helvetica,sans-Serif" font-size="10.00">/include/sqsh_mapper.h</text>
</a>
</g>
</g>
<!-- Node9&#45;&gt;Node12 -->
<g id="edge18" class="edge">
<title>Node9&#45;&gt;Node12</title>
<path fill="none" stroke="#63b8ff" d="M586.15,-282.51C549.91,-272.43 504.89,-259.9 470.71,-250.39"/>
<polygon fill="#63b8ff" stroke="#63b8ff" points="585.07,-285.84 595.64,-285.15 586.94,-279.1 585.07,-285.84"/>
</g>
<!-- Node10&#45;&gt;Node2 -->
<g id="edge12" class="edge">
<title>Node10&#45;&gt;Node2</title>
<path fill="none" stroke="#63b8ff" d="M585.25,-214.5C567.54,-205.31 546.15,-194.15 527,-184 493.09,-166.02 486.4,-157.84 451,-143 410.89,-126.19 363.87,-111.86 327.95,-101.98"/>
<polygon fill="#63b8ff" stroke="#63b8ff" points="583.38,-217.48 593.87,-218.97 586.61,-211.26 583.38,-217.48"/>
</g>
<!-- Node10&#45;&gt;Node7 -->
<g id="edge16" class="edge">
<title>Node10&#45;&gt;Node7</title>
<path fill="none" stroke="#63b8ff" d="M675.91,-215.97C709.81,-204.42 753.21,-189.64 784.79,-178.88"/>
<polygon fill="#63b8ff" stroke="#63b8ff" points="675.04,-212.57 666.7,-219.11 677.3,-219.2 675.04,-212.57"/>
</g>
<!-- Node10&#45;&gt;Node11 -->
<g id="edge13" class="edge">
<title>Node10&#45;&gt;Node11</title>
<path fill="none" stroke="#63b8ff" d="M623,-208.36C623,-200.45 623,-191.87 623,-184.42"/>
<polygon fill="#63b8ff" stroke="#63b8ff" points="619.5,-208.09 623,-218.09 626.5,-208.09 619.5,-208.09"/>
</g>
<!-- Node11&#45;&gt;Node3 -->
<g id="edge15" class="edge">
<title>Node11&#45;&gt;Node3</title>
<path fill="none" stroke="#63b8ff" d="M589.67,-135.67C551.15,-104.67 489.19,-54.79 458.87,-30.39"/>
<polygon fill="#63b8ff" stroke="#63b8ff" points="587.29,-138.25 597.28,-141.79 591.68,-132.8 587.29,-138.25"/>
</g>
<!-- Node11&#45;&gt;Node8 -->
<g id="edge14" class="edge">
<title>Node11&#45;&gt;Node8</title>
<path fill="none" stroke="#63b8ff" d="M668.09,-137.08C685.2,-127.42 704.44,-116.58 720.54,-107.49"/>
<polygon fill="#63b8ff" stroke="#63b8ff" points="666.6,-133.89 659.61,-141.85 670.04,-139.99 666.6,-133.89"/>
</g>
<!-- Node12&#45;&gt;Node2 -->
<g id="edge19" class="edge">
<title>Node12&#45;&gt;Node2</title>
<path fill="none" stroke="#63b8ff" d="M316.97,-222.64C294.41,-215.14 273.06,-203.13 259,-184 241.1,-159.65 254.1,-122.17 263.54,-101.83"/>
<polygon fill="#63b8ff" stroke="#63b8ff" points="315.73,-225.92 326.31,-225.43 317.73,-219.21 315.73,-225.92"/>
</g>
<!-- Node12&#45;&gt;Node3 -->
<g id="edge21" class="edge">
<title>Node12&#45;&gt;Node3</title>
<path fill="none" stroke="#63b8ff" d="M437.92,-210.5C443.22,-202.55 448.27,-193.32 451,-184 467.08,-129.04 452.68,-59.76 445.04,-30.3"/>
<polygon fill="#63b8ff" stroke="#63b8ff" points="435.12,-208.4 432.12,-218.56 440.8,-212.49 435.12,-208.4"/>
</g>
<!-- Node12&#45;&gt;Node11 -->
<g id="edge20" class="edge">
<title>Node12&#45;&gt;Node11</title>
<path fill="none" stroke="#63b8ff" d="M471.8,-216.01C500.21,-206.33 535.31,-194.37 564.54,-184.42"/>
<polygon fill="#63b8ff" stroke="#63b8ff" points="471.04,-212.57 462.7,-219.11 473.3,-219.2 471.04,-212.57"/>
</g>
<!-- Node13 -->
<g id="node13" class="node">
<title>Node13</title>
<g id="a_node13"><a xlink:href="sqsh__table_8h.html" target="_top" xlink:title=" ">
<polygon fill="white" stroke="#666666" points="442,-178.5 268,-178.5 268,-148.5 442,-148.5 442,-178.5"/>
<text text-anchor="start" x="276" y="-166.5" font-family="Helvetica,sans-Serif" font-size="10.00">/__w/libsqsh/libsqsh</text>
<text text-anchor="middle" x="355" y="-155.5" font-family="Helvetica,sans-Serif" font-size="10.00">/include/sqsh_table.h</text>
</a>
</g>
</g>
<!-- Node12&#45;&gt;Node13 -->
<g id="edge22" class="edge">
<title>Node12&#45;&gt;Node13</title>
<path fill="none" stroke="#63b8ff" d="M397.97,-211.17C388.18,-200.53 376.82,-188.2 368.24,-178.88"/>
<polygon fill="#63b8ff" stroke="#63b8ff" points="395.37,-213.5 404.71,-218.49 400.51,-208.76 395.37,-213.5"/>
</g>
<!-- Node13&#45;&gt;Node2 -->
<g id="edge23" class="edge">
<title>Node13&#45;&gt;Node2</title>
<path fill="none" stroke="#63b8ff" d="M330.58,-140.7C316.6,-128.22 299.45,-112.9 287.15,-101.92"/>
<polygon fill="#63b8ff" stroke="#63b8ff" points="327.88,-142.98 337.67,-147.03 332.55,-137.76 327.88,-142.98"/>
</g>
<!-- Node13&#45;&gt;Node3 -->
<g id="edge24" class="edge">
<title>Node13&#45;&gt;Node3</title>
<path fill="none" stroke="#63b8ff" d="M369,-138.65C387.07,-107.86 417.95,-55.27 432.69,-30.16"/>
<polygon fill="#63b8ff" stroke="#63b8ff" points="366.21,-136.49 364.17,-146.88 372.25,-140.03 366.21,-136.49"/>
</g>
</g>
</svg>
        <g id="navigator" transform="translate(0 0)" fill="#404254">
                <rect fill="#f2f5e9" fill-opacity="0.5" stroke="#606060" stroke-width=".5" x="0" y="0" width="60" height="60"/>
                <use id="zoomplus" xlink:href="#zoomPlus" x="17" y="9" onmousedown="handleZoom(evt,'in')"/>
                <use id="zoomminus" xlink:href="#zoomMin" x="42" y="9" onmousedown="handleZoom(evt,'out')"/>
                <use id="reset" xlink:href="#resetDef" x="30" y="36" onmousedown="handleReset()"/>
                <g id="arrowUp" xlink:href="#dirArrow" transform="translate(30 24)" onmousedown="handlePan(0,-1)">
                  <use xlink:href="#rim" fill="#404040">
                        <set attributeName="fill" to="#808080" begin="arrowUp.mouseover" end="arrowUp.mouseout"/>
                  </use>
                  <path fill="none" stroke="white" stroke-width="1.5" d="M0,-3.0v7 M-2.5,-0.5L0,-3.0L2.5,-0.5"/>
                </g>
                <g id="arrowRight" xlink:href="#dirArrow" transform="rotate(90) translate(36 -43)" onmousedown="handlePan(1,0)">
                  <use xlink:href="#rim" fill="#404040">
                        <set attributeName="fill" to="#808080" begin="arrowRight.mouseover" end="arrowRight.mouseout"/>
                  </use>
                  <path fill="none" stroke="white" stroke-width="1.5" d="M0,-3.0v7 M-2.5,-0.5L0,-3.0L2.5,-0.5"/>
                </g>
                <g id="arrowDown" xlink:href="#dirArrow" transform="rotate(180) translate(-30 -48)" onmousedown="handlePan(0,1)">
                  <use xlink:href="#rim" fill="#404040">
                        <set attributeName="fill" to="#808080" begin="arrowDown.mouseover" end="arrowDown.mouseout"/>
                  </use>
                  <path fill="none" stroke="white" stroke-width="1.5" d="M0,-3.0v7 M-2.5,-0.5L0,-3.0L2.5,-0.5"/>
                </g>
                <g id="arrowLeft" xlink:href="#dirArrow" transform="rotate(270) translate(-36 17)" onmousedown="handlePan(-1,0)">
                  <use xlink:href="#rim" fill="#404040">
                        <set attributeName="fill" to="#808080" begin="arrowLeft.mouseover" end="arrowLeft.mouseout"/>
                  </use>
                  <path fill="none" stroke="white" stroke-width="1.5" d="M0,-3.0v7 M-2.5,-0.5L0,-3.0L2.5,-0.5"/>
                </g>
        </g>
        <svg viewBox="0 0 15 15" width="100%" height="30px" preserveAspectRatio="xMaxYMin meet">
         <g id="arrow_out" transform="scale(0.3 0.3)">
          <a xlink:href="sqsh__common_8h__dep__incl_org.svg" target="_base">
           <rect id="button" ry="5" rx="5" y="6" x="6" height="38" width="38"
                fill="#f2f5e9" fill-opacity="0.5" stroke="#606060" stroke-width="1.0"/>
           <path id="arrow"
             d="M 11.500037,31.436501 C 11.940474,20.09759 22.043105,11.32322 32.158766,21.979434 L 37.068811,17.246167 C 37.068811,17.246167 37.088388,32 37.088388,32 L 22.160133,31.978069 C 22.160133,31.978069 26.997745,27.140456 26.997745,27.140456 C 18.528582,18.264221 13.291696,25.230495 11.500037,31.436501 z"
             style="fill:#404040;"/>
          </a>
         </g>
        </svg>
</svg>
