<?xml version="1.0" encoding="UTF-8" standalone="no"?>
<!DOCTYPE svg PUBLIC "-//W3C//DTD SVG 1.1//EN"
 "http://www.w3.org/Graphics/SVG/1.1/DTD/svg11.dtd">
<!-- Generated by graphviz version 8.1.0 (0)
 -->
<!-- Title: include/sqsh_tree.h Pages: 1 -->
<svg width="714pt" height="142pt"
 viewBox="0.00 0.00 714.12 142.25" xmlns="http://www.w3.org/2000/svg" xmlns:xlink="http://www.w3.org/1999/xlink">
<g id="graph0" class="graph" transform="scale(1 1) rotate(0) translate(4 138.25)">
<title>include/sqsh_tree.h</title>
<!-- Node1 -->
<g id="Node000001" class="node">
<title>Node1</title>
<g id="a_Node000001"><a xlink:title=" ">
<polygon fill="#999999" stroke="#666666" points="445,-134.25 334.5,-134.25 334.5,-113.5 445,-113.5 445,-134.25"/>
<text text-anchor="middle" x="389.75" y="-120.75" font-family="Helvetica,sans-Serif" font-size="10.00">include/sqsh_tree.h</text>
</a>
</g>
</g>
<!-- Node2 -->
<g id="Node000002" class="node">
<title>Node2</title>
<g id="a_Node000002"><a xlink:href="sqsh_8h.html" target="_top" xlink:title=" ">
<polygon fill="white" stroke="#666666" points="364.62,-77.5 278.88,-77.5 278.88,-56.75 364.62,-56.75 364.62,-77.5"/>
<text text-anchor="middle" x="321.75" y="-64" font-family="Helvetica,sans-Serif" font-size="10.00">include/sqsh.h</text>
</a>
</g>
</g>
<!-- Node1&#45;&gt;Node2 -->
<g id="edge1_Node000001_Node000002" class="edge">
<title>Node1&#45;&gt;Node2</title>
<g id="a_edge1_Node000001_Node000002"><a xlink:title=" ">
<path fill="none" stroke="#63b8ff" d="M369.33,-106.44C357.74,-97.11 343.63,-85.75 333.8,-77.83"/>
<polygon fill="#63b8ff" stroke="#63b8ff" points="366.61,-109.54 376.59,-113.09 371,-104.09 366.61,-109.54"/>
</a>
</g>
</g>
<!-- Node8 -->
<g id="Node000008" class="node">
<title>Node8</title>
<g id="a_Node000008"><a xlink:href="sqsh__tree__private_8h.html" target="_top" xlink:title=" ">
<polygon fill="white" stroke="#666666" points="532.88,-77.5 382.62,-77.5 382.62,-56.75 532.88,-56.75 532.88,-77.5"/>
<text text-anchor="middle" x="457.75" y="-64" font-family="Helvetica,sans-Serif" font-size="10.00">include/sqsh_tree_private.h</text>
</a>
</g>
</g>
<!-- Node1&#45;&gt;Node8 -->
<g id="edge7_Node000001_Node000008" class="edge">
<title>Node1&#45;&gt;Node8</title>
<g id="a_edge7_Node000001_Node000008"><a xlink:title=" ">
<path fill="none" stroke="#63b8ff" d="M410.17,-106.44C421.76,-97.11 435.87,-85.75 445.7,-77.83"/>
<polygon fill="#63b8ff" stroke="#63b8ff" points="408.5,-104.09 402.91,-113.09 412.89,-109.54 408.5,-104.09"/>
</a>
</g>
</g>
<!-- Node3 -->
<g id="Node000003" class="node">
<title>Node3</title>
<g id="a_Node000003"><a xlink:href="list__dir_8c.html" target="_top" xlink:title=" ">
<polygon fill="white" stroke="#666666" points="107.5,-20.75 0,-20.75 0,0 107.5,0 107.5,-20.75"/>
<text text-anchor="middle" x="53.75" y="-7.25" font-family="Helvetica,sans-Serif" font-size="10.00">examples/list_dir.c</text>
</a>
</g>
</g>
<!-- Node2&#45;&gt;Node3 -->
<g id="edge2_Node000002_Node000003" class="edge">
<title>Node2&#45;&gt;Node3</title>
<g id="a_edge2_Node000002_Node000003"><a xlink:title=" ">
<path fill="none" stroke="#63b8ff" d="M267.79,-55.1C219.29,-45.19 148.7,-30.77 102.03,-21.24"/>
<polygon fill="#63b8ff" stroke="#63b8ff" points="266.9,-58.7 277.39,-57.27 268.3,-51.84 266.9,-58.7"/>
</a>
</g>
</g>
<!-- Node4 -->
<g id="Node000004" class="node">
<title>Node4</title>
<g id="a_Node000004"><a xlink:href="list__dir__ll_8c.html" target="_top" xlink:title=" ">
<polygon fill="white" stroke="#666666" points="245.5,-20.75 126,-20.75 126,0 245.5,0 245.5,-20.75"/>
<text text-anchor="middle" x="185.75" y="-7.25" font-family="Helvetica,sans-Serif" font-size="10.00">examples/list_dir_ll.c</text>
</a>
</g>
</g>
<!-- Node2&#45;&gt;Node4 -->
<g id="edge3_Node000002_Node000004" class="edge">
<title>Node2&#45;&gt;Node4</title>
<g id="a_edge3_Node000002_Node000004"><a xlink:title=" ">
<path fill="none" stroke="#63b8ff" d="M287.25,-52.24C263.07,-42.5 231.35,-29.73 209.85,-21.08"/>
<polygon fill="#63b8ff" stroke="#63b8ff" points="285.85,-55.85 296.44,-56.34 288.47,-49.36 285.85,-55.85"/>
</a>
</g>
</g>
<!-- Node5 -->
<g id="Node000005" class="node">
<title>Node5</title>
<g id="a_Node000005"><a xlink:href="read__file_8c.html" target="_top" xlink:title=" ">
<polygon fill="white" stroke="#666666" points="380.38,-20.75 263.12,-20.75 263.12,0 380.38,0 380.38,-20.75"/>
<text text-anchor="middle" x="321.75" y="-7.25" font-family="Helvetica,sans-Serif" font-size="10.00">examples/read_file.c</text>
</a>
</g>
</g>
<!-- Node2&#45;&gt;Node5 -->
<g id="edge4_Node000002_Node000005" class="edge">
<title>Node2&#45;&gt;Node5</title>
<g id="a_edge4_Node000002_Node000005"><a xlink:title=" ">
<path fill="none" stroke="#63b8ff" d="M321.75,-45.46C321.75,-37.09 321.75,-27.83 321.75,-21.08"/>
<polygon fill="#63b8ff" stroke="#63b8ff" points="318.25,-45.34 321.75,-55.34 325.25,-45.34 318.25,-45.34"/>
</a>
</g>
</g>
<!-- Node6 -->
<g id="Node000006" class="node">
<title>Node6</title>
<g id="a_Node000006"><a xlink:href="read__file__ll_8c.html" target="_top" xlink:title=" ">
<polygon fill="white" stroke="#666666" points="527,-20.75 398.5,-20.75 398.5,0 527,0 527,-20.75"/>
<text text-anchor="middle" x="462.75" y="-7.25" font-family="Helvetica,sans-Serif" font-size="10.00">examples/read_file_ll.c</text>
</a>
</g>
</g>
<!-- Node2&#45;&gt;Node6 -->
<g id="edge5_Node000002_Node000006" class="edge">
<title>Node2&#45;&gt;Node6</title>
<g id="a_edge5_Node000002_Node000006"><a xlink:title=" ">
<path fill="none" stroke="#63b8ff" d="M357.18,-52.37C382.29,-42.62 415.37,-29.77 437.76,-21.08"/>
<polygon fill="#63b8ff" stroke="#63b8ff" points="356.01,-49.45 347.96,-56.34 358.55,-55.98 356.01,-49.45"/>
</a>
</g>
</g>
<!-- Node7 -->
<g id="Node000007" class="node">
<title>Node7</title>
<g id="a_Node000007"><a xlink:href="readme__example_8c.html" target="_top" xlink:title=" ">
<polygon fill="white" stroke="#666666" points="706.12,-20.75 545.38,-20.75 545.38,0 706.12,0 706.12,-20.75"/>
<text text-anchor="middle" x="625.75" y="-7.25" font-family="Helvetica,sans-Serif" font-size="10.00">examples/readme_example.c</text>
</a>
</g>
</g>
<!-- Node2&#45;&gt;Node7 -->
<g id="edge6_Node000002_Node000007" class="edge">
<title>Node2&#45;&gt;Node7</title>
<g id="a_edge6_Node000002_Node000007"><a xlink:title=" ">
<path fill="none" stroke="#63b8ff" d="M375.7,-56.4C449.07,-43.18 522.53,-29.95 571.18,-21.2"/>
<polygon fill="#63b8ff" stroke="#63b8ff" points="375.1,-53.13 365.88,-58.35 376.34,-60.02 375.1,-53.13"/>
</a>
</g>
</g>
</g>
</svg>
