<?xml version="1.0" encoding="UTF-8" standalone="no"?>
<!DOCTYPE svg PUBLIC "-//W3C//DTD SVG 1.1//EN"
 "http://www.w3.org/Graphics/SVG/1.1/DTD/svg11.dtd">
<!-- Generated by graphviz version 7.0.4 (20221203.1631)
 -->
<!-- Title: sqsh_compression.h Pages: 1 -->
<svg width="160pt" height="137pt"
 viewBox="0.00 0.00 160.00 137.00" xmlns="http://www.w3.org/2000/svg" xmlns:xlink="http://www.w3.org/1999/xlink">
<g id="graph0" class="graph" transform="scale(1 1) rotate(0) translate(4 133)">
<title>sqsh_compression.h</title>
<!-- Node1 -->
<g id="node1" class="node">
<title>Node1</title>
<g id="a_node1"><a xlink:title=" ">
<polygon fill="#999999" stroke="#666666" points="152,-129 0,-129 0,-110 152,-110 152,-129"/>
<text text-anchor="middle" x="76" y="-117" font-family="Helvetica,sans-Serif" font-size="10.00">sqsh_compression.h</text>
</a>
</g>
</g>
<!-- Node2 -->
<g id="node2" class="node">
<title>Node2</title>
<g id="a_node2"><a xlink:href="sqsh_8h.html" target="_top" xlink:title=" ">
<polygon fill="white" stroke="#666666" points="78,-74 16,-74 16,-55 78,-55 78,-74"/>
<text text-anchor="middle" x="47" y="-62" font-family="Helvetica,sans-Serif" font-size="10.00">sqsh.h</text>
</a>
</g>
</g>
<!-- Node1&#45;&gt;Node2 -->
<g id="edge1" class="edge">
<title>Node1&#45;&gt;Node2</title>
<path fill="none" stroke="#63b8ff" d="M65.76,-99.79C61.05,-91.18 55.68,-81.36 51.89,-74.44"/>
<polygon fill="#63b8ff" stroke="#63b8ff" points="62.61,-101.33 70.48,-108.42 68.75,-97.97 62.61,-101.33"/>
</g>
<!-- Node3 -->
<g id="node3" class="node">
<title>Node3</title>
<g id="a_node3"><a xlink:href="sqsh__private_8h.html" target="_top" xlink:title=" ">
<polygon fill="white" stroke="#666666" points="137,-19 15,-19 15,0 137,0 137,-19"/>
<text text-anchor="middle" x="76" y="-7" font-family="Helvetica,sans-Serif" font-size="10.00">sqsh_private.h</text>
</a>
</g>
</g>
<!-- Node1&#45;&gt;Node3 -->
<g id="edge3" class="edge">
<title>Node1&#45;&gt;Node3</title>
<path fill="none" stroke="#63b8ff" d="M81.99,-98.7C84.01,-91.06 86,-82.2 87,-74 89.41,-54.23 83.15,-31.25 79.11,-19.09"/>
<polygon fill="#63b8ff" stroke="#63b8ff" points="78.63,-97.72 79.25,-108.3 85.36,-99.64 78.63,-97.72"/>
</g>
<!-- Node2&#45;&gt;Node3 -->
<g id="edge2" class="edge">
<title>Node2&#45;&gt;Node3</title>
<path fill="none" stroke="#63b8ff" d="M57.24,-44.79C61.95,-36.18 67.32,-26.36 71.11,-19.44"/>
<polygon fill="#63b8ff" stroke="#63b8ff" points="54.25,-42.97 52.52,-53.42 60.39,-46.33 54.25,-42.97"/>
</g>
</g>
</svg>
