<?xml version="1.0" encoding="UTF-8" standalone="no"?>
<!DOCTYPE svg PUBLIC "-//W3C//DTD SVG 1.1//EN"
 "http://www.w3.org/Graphics/SVG/1.1/DTD/svg11.dtd">
<!-- Generated by graphviz version 3.0.0 (20220413.0242)
 -->
<!-- Title: sqsh_data.h Pages: 1 -->
<svg width="262pt" height="140pt"
 viewBox="0.00 0.00 262.00 140.00" xmlns="http://www.w3.org/2000/svg" xmlns:xlink="http://www.w3.org/1999/xlink">
<g id="graph0" class="graph" transform="scale(1 1) rotate(0) translate(4 136)">
<title>sqsh_data.h</title>
<polygon fill="white" stroke="transparent" points="-4,4 -4,-136 258,-136 258,4 -4,4"/>
<!-- Node1 -->
<g id="node1" class="node">
<title>Node1</title>
<g id="a_node1"><a xlink:title=" ">
<polygon fill="#bfbfbf" stroke="black" points="92.5,-112.5 92.5,-131.5 191.5,-131.5 191.5,-112.5 92.5,-112.5"/>
<text text-anchor="middle" x="142" y="-119.5" font-family="Helvetica,sans-Serif" font-size="10.00">sqsh_data.h</text>
</a>
</g>
</g>
<!-- Node2 -->
<g id="node2" class="node">
<title>Node2</title>
<g id="a_node2"><a xlink:href="sqsh__common_8h.html" target="_top" xlink:title=" ">
<polygon fill="white" stroke="black" points="0,-56.5 0,-75.5 114,-75.5 114,-56.5 0,-56.5"/>
<text text-anchor="middle" x="57" y="-63.5" font-family="Helvetica,sans-Serif" font-size="10.00">sqsh_common.h</text>
</a>
</g>
</g>
<!-- Node1&#45;&gt;Node2 -->
<g id="edge1" class="edge">
<title>Node1&#45;&gt;Node2</title>
<path fill="none" stroke="midnightblue" d="M128.34,-112.32C115.08,-103.9 94.73,-90.97 79.15,-81.07"/>
<polygon fill="midnightblue" stroke="midnightblue" points="80.94,-78.06 70.62,-75.65 77.19,-83.97 80.94,-78.06"/>
</g>
<!-- Node4 -->
<g id="node4" class="node">
<title>Node4</title>
<g id="a_node4"><a xlink:title=" ">
<polygon fill="white" stroke="#bfbfbf" points="103.5,-0.5 103.5,-19.5 180.5,-19.5 180.5,-0.5 103.5,-0.5"/>
<text text-anchor="middle" x="142" y="-7.5" font-family="Helvetica,sans-Serif" font-size="10.00">stdint.h</text>
</a>
</g>
</g>
<!-- Node1&#45;&gt;Node4 -->
<g id="edge5" class="edge">
<title>Node1&#45;&gt;Node4</title>
<path fill="none" stroke="midnightblue" d="M142,-112.37C142,-94.62 142,-53.67 142,-29.6"/>
<polygon fill="midnightblue" stroke="midnightblue" points="145.5,-29.59 142,-19.59 138.5,-29.59 145.5,-29.59"/>
</g>
<!-- Node5 -->
<g id="node5" class="node">
<title>Node5</title>
<g id="a_node5"><a xlink:title=" ">
<polygon fill="white" stroke="#bfbfbf" points="170,-56.5 170,-75.5 254,-75.5 254,-56.5 170,-56.5"/>
<text text-anchor="middle" x="212" y="-63.5" font-family="Helvetica,sans-Serif" font-size="10.00">stdbool.h</text>
</a>
</g>
</g>
<!-- Node1&#45;&gt;Node5 -->
<g id="edge4" class="edge">
<title>Node1&#45;&gt;Node5</title>
<path fill="none" stroke="midnightblue" d="M153.25,-112.32C163.8,-104.18 179.8,-91.84 192.44,-82.09"/>
<polygon fill="midnightblue" stroke="midnightblue" points="194.77,-84.71 200.55,-75.83 190.49,-79.17 194.77,-84.71"/>
</g>
<!-- Node3 -->
<g id="node3" class="node">
<title>Node3</title>
<g id="a_node3"><a xlink:title=" ">
<polygon fill="white" stroke="#bfbfbf" points="8.5,-0.5 8.5,-19.5 85.5,-19.5 85.5,-0.5 8.5,-0.5"/>
<text text-anchor="middle" x="47" y="-7.5" font-family="Helvetica,sans-Serif" font-size="10.00">stddef.h</text>
</a>
</g>
</g>
<!-- Node2&#45;&gt;Node3 -->
<g id="edge2" class="edge">
<title>Node2&#45;&gt;Node3</title>
<path fill="none" stroke="midnightblue" d="M55.35,-56.08C54.02,-48.93 52.12,-38.64 50.46,-29.69"/>
<polygon fill="midnightblue" stroke="midnightblue" points="53.88,-28.95 48.62,-19.75 47,-30.22 53.88,-28.95"/>
</g>
<!-- Node2&#45;&gt;Node4 -->
<g id="edge3" class="edge">
<title>Node2&#45;&gt;Node4</title>
<path fill="none" stroke="midnightblue" d="M70.66,-56.32C83.92,-47.9 104.27,-34.97 119.85,-25.07"/>
<polygon fill="midnightblue" stroke="midnightblue" points="121.81,-27.97 128.38,-19.65 118.06,-22.06 121.81,-27.97"/>
</g>
</g>
</svg>
