<?xml version="1.0" encoding="UTF-8" standalone="no"?>
<!DOCTYPE svg PUBLIC "-//W3C//DTD SVG 1.1//EN"
 "http://www.w3.org/Graphics/SVG/1.1/DTD/svg11.dtd">
<!-- Generated by graphviz version 8.0.5 (20230430.1635)
 -->
<!-- Title: sqsh_file_private.h Pages: 1 -->
<!--zoomable 291 -->
<svg id="main" version="1.1" xmlns="http://www.w3.org/2000/svg" xmlns:xlink="http://www.w3.org/1999/xlink" xml:space="preserve" onload="init(evt)">
<style type="text/css"><![CDATA[
.edge:hover path { stroke: red; }
.edge:hover polygon { stroke: red; fill: red; }
]]></style>
<script type="text/javascript"><![CDATA[
var edges = document.getElementsByTagName('g');
if (edges && edges.length) {
  for (var i=0;i<edges.length;i++) {
    if (edges[i].id.substr(0,4)=='edge') {
      edges[i].setAttribute('class','edge');
    }
  }
}
]]></script>
        <defs>
                <circle id="rim" cx="0" cy="0" r="7"/>
                <circle id="rim2" cx="0" cy="0" r="3.5"/>
                <g id="zoomPlus">
                        <use xlink:href="#rim" fill="#404040">
                                <set attributeName="fill" to="#808080" begin="zoomplus.mouseover" end="zoomplus.mouseout"/>
                        </use>
                        <path d="M-4,0h8M0,-4v8" fill="none" stroke="white" stroke-width="1.5" pointer-events="none"/>
                </g>
                <g id="zoomMin">
                        <use xlink:href="#rim" fill="#404040">
                                <set attributeName="fill" to="#808080" begin="zoomminus.mouseover" end="zoomminus.mouseout"/>
                        </use>
                        <path d="M-4,0h8" fill="none" stroke="white" stroke-width="1.5" pointer-events="none"/>
                </g>
                <g id="dirArrow">
                        <path fill="none" stroke="white" stroke-width="1.5" d="M0,-3.0v7 M-2.5,-0.5L0,-3.0L2.5,-0.5"/>
                </g>
               <g id="resetDef">
                       <use xlink:href="#rim2" fill="#404040">
                               <set attributeName="fill" to="#808080" begin="reset.mouseover" end="reset.mouseout"/>
                       </use>
               </g>
        </defs>

<script type="text/javascript">
var viewWidth = 713;
var viewHeight = 291;
var sectionId = 'dynsection-0';
</script>
<script xlink:href="svgpan.js"/>
<svg id="graph" class="graph">
<g id="viewport">
<title>sqsh_file_private.h</title>
<!-- Node1 -->
<g id="node1" class="node">
<title>Node1</title>
<g id="a_node1"><a xlink:title=" ">
<polygon fill="#999999" stroke="#666666" points="286.5,-282.96 128,-282.96 128,-264.46 286.5,-264.46 286.5,-282.96"/>
<text text-anchor="middle" x="207.25" y="-269.46" font-family="Helvetica,sans-Serif" font-size="10.00">sqsh_file_private.h</text>
</a>
</g>
</g>
<!-- Node2 -->
<g id="node2" class="node">
<title>Node2</title>
<g id="a_node2"><a xlink:href="sqsh__file_8h.html" target="_top" xlink:title=" ">
<polygon fill="white" stroke="#666666" points="98.5,-216.48 0,-216.48 0,-197.98 98.5,-197.98 98.5,-216.48"/>
<text text-anchor="middle" x="49.25" y="-202.98" font-family="Helvetica,sans-Serif" font-size="10.00">sqsh_file.h</text>
</a>
</g>
</g>
<!-- Node1&#45;&gt;Node2 -->
<g id="edge1" class="edge">
<title>Node1&#45;&gt;Node2</title>
<path fill="none" stroke="#63b8ff" d="M185.94,-264.01C158.77,-252.92 111.59,-233.67 80.39,-220.94"/>
<polygon fill="#63b8ff" stroke="#63b8ff" points="82.05,-217.43 71.47,-216.89 79.41,-223.91 82.05,-217.43"/>
</g>
<!-- Node7 -->
<g id="node7" class="node">
<title>Node7</title>
<g id="a_node7"><a xlink:href="sqsh__extract__private_8h.html" target="_top" xlink:title=" ">
<polygon fill="white" stroke="#666666" points="297.75,-228.46 116.75,-228.46 116.75,-186 297.75,-186 297.75,-228.46"/>
<text text-anchor="middle" x="207.25" y="-214.96" font-family="Helvetica,sans-Serif" font-size="10.00">sqsh_extract_private.h</text>
</a>
</g>
</g>
<!-- Node1&#45;&gt;Node7 -->
<g id="edge6" class="edge">
<title>Node1&#45;&gt;Node7</title>
<path fill="none" stroke="#63b8ff" d="M207.25,-264.01C207.25,-257.61 207.25,-248.48 207.25,-239.46"/>
<polygon fill="#63b8ff" stroke="#63b8ff" points="210.75,-239.7 207.25,-229.7 203.75,-239.7 210.75,-239.7"/>
</g>
<!-- Node11 -->
<g id="node11" class="node">
<title>Node11</title>
<g id="a_node11"><a xlink:href="sqsh__mapper__private_8h.html" target="_top" xlink:title=" ">
<polygon fill="white" stroke="#666666" points="489,-216.48 315.5,-216.48 315.5,-197.98 489,-197.98 489,-216.48"/>
<text text-anchor="middle" x="402.25" y="-202.98" font-family="Helvetica,sans-Serif" font-size="10.00">sqsh_mapper_private.h</text>
</a>
</g>
</g>
<!-- Node1&#45;&gt;Node11 -->
<g id="edge12" class="edge">
<title>Node1&#45;&gt;Node11</title>
<path fill="none" stroke="#63b8ff" d="M233.55,-264.01C267.66,-252.73 327.35,-233 365.81,-220.28"/>
<polygon fill="#63b8ff" stroke="#63b8ff" points="366.66,-223.35 375.06,-216.89 364.46,-216.71 366.66,-223.35"/>
</g>
<!-- Node3 -->
<g id="node3" class="node">
<title>Node3</title>
<g id="a_node3"><a xlink:href="sqsh__common_8h.html" target="_top" xlink:title=" ">
<polygon fill="white" stroke="#666666" points="232,-88 118.5,-88 118.5,-62 232,-62 232,-88"/>
<text text-anchor="middle" x="175.25" y="-74.5" font-family="Helvetica,sans-Serif" font-size="10.00">sqsh_common.h</text>
</a>
</g>
</g>
<!-- Node2&#45;&gt;Node3 -->
<g id="edge2" class="edge">
<title>Node2&#45;&gt;Node3</title>
<path fill="none" stroke="#63b8ff" d="M48.88,-197.96C48.59,-181.86 50.2,-145.96 68.25,-124 79.98,-109.74 96.83,-99.55 113.69,-92.35"/>
<polygon fill="#63b8ff" stroke="#63b8ff" points="114.57,-95.37 122.59,-88.45 112,-88.86 114.57,-95.37"/>
</g>
<!-- Node4 -->
<g id="node4" class="node">
<title>Node4</title>
<g id="a_node4"><a xlink:title=" ">
<polygon fill="#e0e0e0" stroke="#999999" points="119,-26 35.5,-26 35.5,0 119,0 119,-26"/>
<text text-anchor="middle" x="77.25" y="-12.5" font-family="Helvetica,sans-Serif" font-size="10.00">stdbool.h</text>
</a>
</g>
</g>
<!-- Node3&#45;&gt;Node4 -->
<g id="edge3" class="edge">
<title>Node3&#45;&gt;Node4</title>
<path fill="none" stroke="#63b8ff" d="M154.94,-61.57C141.02,-53.04 122.31,-41.59 106.75,-32.06"/>
<polygon fill="#63b8ff" stroke="#63b8ff" points="108.89,-28.65 98.53,-26.42 105.23,-34.62 108.89,-28.65"/>
</g>
<!-- Node5 -->
<g id="node5" class="node">
<title>Node5</title>
<g id="a_node5"><a xlink:title=" ">
<polygon fill="#e0e0e0" stroke="#999999" points="213.25,-22.25 137.25,-22.25 137.25,-3.75 213.25,-3.75 213.25,-22.25"/>
<text text-anchor="middle" x="175.25" y="-8.75" font-family="Helvetica,sans-Serif" font-size="10.00">stddef.h</text>
</a>
</g>
</g>
<!-- Node3&#45;&gt;Node5 -->
<g id="edge4" class="edge">
<title>Node3&#45;&gt;Node5</title>
<path fill="none" stroke="#63b8ff" d="M175.25,-61.57C175.25,-53.45 175.25,-42.69 175.25,-33.46"/>
<polygon fill="#63b8ff" stroke="#63b8ff" points="178.75,-33.55 175.25,-23.55 171.75,-33.55 178.75,-33.55"/>
</g>
<!-- Node6 -->
<g id="node6" class="node">
<title>Node6</title>
<g id="a_node6"><a xlink:title=" ">
<polygon fill="#e0e0e0" stroke="#999999" points="307.25,-22.25 231.25,-22.25 231.25,-3.75 307.25,-3.75 307.25,-22.25"/>
<text text-anchor="middle" x="269.25" y="-8.75" font-family="Helvetica,sans-Serif" font-size="10.00">stdint.h</text>
</a>
</g>
</g>
<!-- Node3&#45;&gt;Node6 -->
<g id="edge5" class="edge">
<title>Node3&#45;&gt;Node6</title>
<path fill="none" stroke="#63b8ff" d="M194.73,-61.57C209.78,-51.96 230.65,-38.64 246.47,-28.54"/>
<polygon fill="#63b8ff" stroke="#63b8ff" points="248.03,-31.06 254.58,-22.73 244.26,-25.16 248.03,-31.06"/>
</g>
<!-- Node8 -->
<g id="node8" class="node">
<title>Node8</title>
<g id="a_node8"><a xlink:href="sqsh__primitive__private_8h.html" target="_top" xlink:title=" ">
<polygon fill="white" stroke="#666666" points="273.25,-150 77.25,-150 77.25,-124 273.25,-124 273.25,-150"/>
<text text-anchor="middle" x="175.25" y="-136.5" font-family="Helvetica,sans-Serif" font-size="10.00">sqsh_primitive_private.h</text>
</a>
</g>
</g>
<!-- Node7&#45;&gt;Node8 -->
<g id="edge7" class="edge">
<title>Node7&#45;&gt;Node8</title>
<path fill="none" stroke="#63b8ff" d="M197.65,-185.76C193.82,-177.59 189.4,-168.17 185.51,-159.87"/>
<polygon fill="#63b8ff" stroke="#63b8ff" points="188.35,-158.69 180.94,-151.12 182.01,-161.66 188.35,-158.69"/>
</g>
<!-- Node9 -->
<g id="node9" class="node">
<title>Node9</title>
<g id="a_node9"><a xlink:href="sqsh__thread__private_8h.html" target="_top" xlink:title=" ">
<polygon fill="white" stroke="#666666" points="465,-146.25 291.5,-146.25 291.5,-127.75 465,-127.75 465,-146.25"/>
<text text-anchor="middle" x="378.25" y="-132.75" font-family="Helvetica,sans-Serif" font-size="10.00">sqsh_thread_private.h</text>
</a>
</g>
</g>
<!-- Node7&#45;&gt;Node9 -->
<g id="edge9" class="edge">
<title>Node7&#45;&gt;Node9</title>
<path fill="none" stroke="#63b8ff" d="M259.02,-185.57C287.45,-174.23 321.8,-160.52 346.32,-150.74"/>
<polygon fill="#63b8ff" stroke="#63b8ff" points="347.51,-153.63 355.5,-146.68 344.92,-147.13 347.51,-153.63"/>
</g>
<!-- Node8&#45;&gt;Node3 -->
<g id="edge8" class="edge">
<title>Node8&#45;&gt;Node3</title>
<path fill="none" stroke="#63b8ff" d="M175.25,-123.57C175.25,-116.57 175.25,-107.6 175.25,-99.34"/>
<polygon fill="#63b8ff" stroke="#63b8ff" points="178.75,-99.42 175.25,-89.42 171.75,-99.42 178.75,-99.42"/>
</g>
<!-- Node9&#45;&gt;Node3 -->
<g id="edge11" class="edge">
<title>Node9&#45;&gt;Node3</title>
<path fill="none" stroke="#63b8ff" d="M348.73,-127.28C317.17,-117.95 266.48,-102.96 228.02,-91.6"/>
<polygon fill="#63b8ff" stroke="#63b8ff" points="229.11,-87.97 218.53,-88.5 227.12,-94.69 229.11,-87.97"/>
</g>
<!-- Node10 -->
<g id="node10" class="node">
<title>Node10</title>
<g id="a_node10"><a xlink:title=" ">
<polygon fill="#e0e0e0" stroke="#999999" points="420,-84.25 336.5,-84.25 336.5,-65.75 420,-65.75 420,-84.25"/>
<text text-anchor="middle" x="378.25" y="-70.75" font-family="Helvetica,sans-Serif" font-size="10.00">pthread.h</text>
</a>
</g>
</g>
<!-- Node9&#45;&gt;Node10 -->
<g id="edge10" class="edge">
<title>Node9&#45;&gt;Node10</title>
<path fill="none" stroke="#63b8ff" d="M378.25,-127.4C378.25,-119.12 378.25,-106.28 378.25,-95.51"/>
<polygon fill="#63b8ff" stroke="#63b8ff" points="381.75,-95.58 378.25,-85.58 374.75,-95.58 381.75,-95.58"/>
</g>
<!-- Node11&#45;&gt;Node8 -->
<g id="edge14" class="edge">
<title>Node11&#45;&gt;Node8</title>
<path fill="none" stroke="#63b8ff" d="M373.5,-197.59C336.72,-186.53 272.36,-167.19 226.96,-153.54"/>
<polygon fill="#63b8ff" stroke="#63b8ff" points="228.02,-149.91 217.43,-150.38 226,-156.61 228.02,-149.91"/>
</g>
<!-- Node11&#45;&gt;Node9 -->
<g id="edge15" class="edge">
<title>Node11&#45;&gt;Node9</title>
<path fill="none" stroke="#63b8ff" d="M399.21,-197.59C395.58,-187.28 389.42,-169.76 384.71,-156.38"/>
<polygon fill="#63b8ff" stroke="#63b8ff" points="387.81,-155.63 381.19,-147.36 381.21,-157.95 387.81,-155.63"/>
</g>
<!-- Node12 -->
<g id="node12" class="node">
<title>Node12</title>
<g id="a_node12"><a xlink:href="sqsh__mapper_8h.html" target="_top" xlink:title=" ">
<polygon fill="white" stroke="#666666" points="705,-146.25 591.5,-146.25 591.5,-127.75 705,-127.75 705,-146.25"/>
<text text-anchor="middle" x="648.25" y="-132.75" font-family="Helvetica,sans-Serif" font-size="10.00">sqsh_mapper.h</text>
</a>
</g>
</g>
<!-- Node11&#45;&gt;Node12 -->
<g id="edge13" class="edge">
<title>Node11&#45;&gt;Node12</title>
<path fill="none" stroke="#63b8ff" d="M433.66,-197.52C477.61,-185.33 557.56,-163.15 606.49,-149.58"/>
<polygon fill="#63b8ff" stroke="#63b8ff" points="607.33,-152.7 616.03,-146.66 605.46,-145.96 607.33,-152.7"/>
</g>
<!-- Node13 -->
<g id="node13" class="node">
<title>Node13</title>
<g id="a_node13"><a xlink:title=" ">
<polygon fill="#e0e0e0" stroke="#999999" points="573.75,-146.25 482.75,-146.25 482.75,-127.75 573.75,-127.75 573.75,-146.25"/>
<text text-anchor="middle" x="528.25" y="-132.75" font-family="Helvetica,sans-Serif" font-size="10.00">sys/wait.h</text>
</a>
</g>
</g>
<!-- Node11&#45;&gt;Node13 -->
<g id="edge16" class="edge">
<title>Node11&#45;&gt;Node13</title>
<path fill="none" stroke="#63b8ff" d="M418.21,-197.59C439.51,-186.05 477.48,-165.49 502.77,-151.8"/>
<polygon fill="#63b8ff" stroke="#63b8ff" points="504.29,-154.41 511.42,-146.57 500.96,-148.25 504.29,-154.41"/>
</g>
</g>
</svg>
        <g id="navigator" transform="translate(0 0)" fill="#404254">
                <rect fill="#f2f5e9" fill-opacity="0.5" stroke="#606060" stroke-width=".5" x="0" y="0" width="60" height="60"/>
                <use id="zoomplus" xlink:href="#zoomPlus" x="17" y="9" onmousedown="handleZoom(evt,'in')"/>
                <use id="zoomminus" xlink:href="#zoomMin" x="42" y="9" onmousedown="handleZoom(evt,'out')"/>
                <use id="reset" xlink:href="#resetDef" x="30" y="36" onmousedown="handleReset()"/>
                <g id="arrowUp" xlink:href="#dirArrow" transform="translate(30 24)" onmousedown="handlePan(0,-1)">
                  <use xlink:href="#rim" fill="#404040">
                        <set attributeName="fill" to="#808080" begin="arrowUp.mouseover" end="arrowUp.mouseout"/>
                  </use>
                  <path fill="none" stroke="white" stroke-width="1.5" d="M0,-3.0v7 M-2.5,-0.5L0,-3.0L2.5,-0.5"/>
                </g>
                <g id="arrowRight" xlink:href="#dirArrow" transform="rotate(90) translate(36 -43)" onmousedown="handlePan(1,0)">
                  <use xlink:href="#rim" fill="#404040">
                        <set attributeName="fill" to="#808080" begin="arrowRight.mouseover" end="arrowRight.mouseout"/>
                  </use>
                  <path fill="none" stroke="white" stroke-width="1.5" d="M0,-3.0v7 M-2.5,-0.5L0,-3.0L2.5,-0.5"/>
                </g>
                <g id="arrowDown" xlink:href="#dirArrow" transform="rotate(180) translate(-30 -48)" onmousedown="handlePan(0,1)">
                  <use xlink:href="#rim" fill="#404040">
                        <set attributeName="fill" to="#808080" begin="arrowDown.mouseover" end="arrowDown.mouseout"/>
                  </use>
                  <path fill="none" stroke="white" stroke-width="1.5" d="M0,-3.0v7 M-2.5,-0.5L0,-3.0L2.5,-0.5"/>
                </g>
                <g id="arrowLeft" xlink:href="#dirArrow" transform="rotate(270) translate(-36 17)" onmousedown="handlePan(-1,0)">
                  <use xlink:href="#rim" fill="#404040">
                        <set attributeName="fill" to="#808080" begin="arrowLeft.mouseover" end="arrowLeft.mouseout"/>
                  </use>
                  <path fill="none" stroke="white" stroke-width="1.5" d="M0,-3.0v7 M-2.5,-0.5L0,-3.0L2.5,-0.5"/>
                </g>
        </g>
        <svg viewBox="0 0 15 15" width="100%" height="30px" preserveAspectRatio="xMaxYMin meet">
         <g id="arrow_out" transform="scale(0.3 0.3)">
          <a xlink:href="sqsh__file__private_8h__incl_org.svg" target="_base">
           <rect id="button" ry="5" rx="5" y="6" x="6" height="38" width="38"
                fill="#f2f5e9" fill-opacity="0.5" stroke="#606060" stroke-width="1.0"/>
           <path id="arrow"
             d="M 11.500037,31.436501 C 11.940474,20.09759 22.043105,11.32322 32.158766,21.979434 L 37.068811,17.246167 C 37.068811,17.246167 37.088388,32 37.088388,32 L 22.160133,31.978069 C 22.160133,31.978069 26.997745,27.140456 26.997745,27.140456 C 18.528582,18.264221 13.291696,25.230495 11.500037,31.436501 z"
             style="fill:#404040;"/>
          </a>
         </g>
        </svg>
</svg>
