<?xml version="1.0" encoding="UTF-8" standalone="no"?>
<!DOCTYPE svg PUBLIC "-//W3C//DTD SVG 1.1//EN"
 "http://www.w3.org/Graphics/SVG/1.1/DTD/svg11.dtd">
<!-- Generated by graphviz version 7.0.5 (20221223.1930)
 -->
<!-- Title: sqsh_xattr_private.h Pages: 1 -->
<svg width="651pt" height="302pt"
 viewBox="0.00 0.00 650.50 302.00" xmlns="http://www.w3.org/2000/svg" xmlns:xlink="http://www.w3.org/1999/xlink">
<g id="graph0" class="graph" transform="scale(1 1) rotate(0) translate(4 298)">
<title>sqsh_xattr_private.h</title>
<!-- Node1 -->
<g id="node1" class="node">
<title>Node1</title>
<g id="a_node1"><a xlink:title=" ">
<polygon fill="#999999" stroke="#666666" points="313,-294 146,-294 146,-275 313,-275 313,-294"/>
<text text-anchor="middle" x="229.5" y="-282" font-family="Helvetica,sans-Serif" font-size="10.00">sqsh_xattr_private.h</text>
</a>
</g>
</g>
<!-- Node2 -->
<g id="node2" class="node">
<title>Node2</title>
<g id="a_node2"><a xlink:href="sqsh__metablock__private_8h.html" target="_top" xlink:title=" ">
<polygon fill="white" stroke="#666666" points="528,-239 331,-239 331,-220 528,-220 528,-239"/>
<text text-anchor="middle" x="429.5" y="-227" font-family="Helvetica,sans-Serif" font-size="10.00">sqsh_metablock_private.h</text>
</a>
</g>
</g>
<!-- Node1&#45;&gt;Node2 -->
<g id="edge1" class="edge">
<title>Node1&#45;&gt;Node2</title>
<path fill="none" stroke="#63b8ff" d="M263.43,-274.51C296.86,-265.65 348.12,-252.07 384.85,-242.33"/>
<polygon fill="#63b8ff" stroke="#63b8ff" points="385.51,-245.78 394.28,-239.83 383.71,-239.01 385.51,-245.78"/>
</g>
<!-- Node13 -->
<g id="node13" class="node">
<title>Node13</title>
<g id="a_node13"><a xlink:href="sqsh__table__private_8h.html" target="_top" xlink:title=" ">
<polygon fill="white" stroke="#666666" points="313,-239 146,-239 146,-220 313,-220 313,-239"/>
<text text-anchor="middle" x="229.5" y="-227" font-family="Helvetica,sans-Serif" font-size="10.00">sqsh_table_private.h</text>
</a>
</g>
</g>
<!-- Node1&#45;&gt;Node13 -->
<g id="edge15" class="edge">
<title>Node1&#45;&gt;Node13</title>
<path fill="none" stroke="#63b8ff" d="M229.5,-274.75C229.5,-268.27 229.5,-259.16 229.5,-250.9"/>
<polygon fill="#63b8ff" stroke="#63b8ff" points="233,-250.96 229.5,-240.96 226,-250.96 233,-250.96"/>
</g>
<!-- Node15 -->
<g id="node15" class="node">
<title>Node15</title>
<g id="a_node15"><a xlink:href="sqsh__xattr_8h.html" target="_top" xlink:title=" ">
<polygon fill="white" stroke="#666666" points="107,-239 0,-239 0,-220 107,-220 107,-239"/>
<text text-anchor="middle" x="53.5" y="-227" font-family="Helvetica,sans-Serif" font-size="10.00">sqsh_xattr.h</text>
</a>
</g>
</g>
<!-- Node1&#45;&gt;Node15 -->
<g id="edge20" class="edge">
<title>Node1&#45;&gt;Node15</title>
<path fill="none" stroke="#63b8ff" d="M199.64,-274.51C170.61,-265.76 126.28,-252.42 94.06,-242.71"/>
<polygon fill="#63b8ff" stroke="#63b8ff" points="95.24,-239.41 84.66,-239.88 93.22,-246.12 95.24,-239.41"/>
</g>
<!-- Node3 -->
<g id="node3" class="node">
<title>Node3</title>
<g id="a_node3"><a xlink:href="sqsh__extract__private_8h.html" target="_top" xlink:title=" ">
<polygon fill="white" stroke="#666666" points="346.5,-184 164.5,-184 164.5,-165 346.5,-165 346.5,-184"/>
<text text-anchor="middle" x="255.5" y="-172" font-family="Helvetica,sans-Serif" font-size="10.00">sqsh_extract_private.h</text>
</a>
</g>
</g>
<!-- Node2&#45;&gt;Node3 -->
<g id="edge2" class="edge">
<title>Node2&#45;&gt;Node3</title>
<path fill="none" stroke="#63b8ff" d="M399.98,-219.51C371.27,-210.76 327.45,-197.42 295.59,-187.71"/>
<polygon fill="#63b8ff" stroke="#63b8ff" points="296.9,-184.45 286.32,-184.89 294.86,-191.15 296.9,-184.45"/>
</g>
<!-- Node11 -->
<g id="node11" class="node">
<title>Node11</title>
<g id="a_node11"><a xlink:href="sqsh__mapper__private_8h.html" target="_top" xlink:title=" ">
<polygon fill="white" stroke="#666666" points="538.5,-184 364.5,-184 364.5,-165 538.5,-165 538.5,-184"/>
<text text-anchor="middle" x="451.5" y="-172" font-family="Helvetica,sans-Serif" font-size="10.00">sqsh_mapper_private.h</text>
</a>
</g>
</g>
<!-- Node2&#45;&gt;Node11 -->
<g id="edge11" class="edge">
<title>Node2&#45;&gt;Node11</title>
<path fill="none" stroke="#63b8ff" d="M433.13,-219.75C435.92,-213.04 439.87,-203.52 443.4,-195.02"/>
<polygon fill="#63b8ff" stroke="#63b8ff" points="446.61,-196.42 447.21,-185.84 440.14,-193.73 446.61,-196.42"/>
</g>
<!-- Node4 -->
<g id="node4" class="node">
<title>Node4</title>
<g id="a_node4"><a xlink:href="sqsh__primitive__private_8h.html" target="_top" xlink:title=" ">
<polygon fill="white" stroke="#666666" points="318,-129 121,-129 121,-110 318,-110 318,-129"/>
<text text-anchor="middle" x="219.5" y="-117" font-family="Helvetica,sans-Serif" font-size="10.00">sqsh_primitive_private.h</text>
</a>
</g>
</g>
<!-- Node3&#45;&gt;Node4 -->
<g id="edge3" class="edge">
<title>Node3&#45;&gt;Node4</title>
<path fill="none" stroke="#63b8ff" d="M249.56,-164.75C244.79,-157.73 237.94,-147.64 231.98,-138.87"/>
<polygon fill="#63b8ff" stroke="#63b8ff" points="234.94,-137 226.42,-130.69 229.15,-140.93 234.94,-137"/>
</g>
<!-- Node9 -->
<g id="node9" class="node">
<title>Node9</title>
<g id="a_node9"><a xlink:href="sqsh__thread__private_8h.html" target="_top" xlink:title=" ">
<polygon fill="white" stroke="#666666" points="510.5,-129 336.5,-129 336.5,-110 510.5,-110 510.5,-129"/>
<text text-anchor="middle" x="423.5" y="-117" font-family="Helvetica,sans-Serif" font-size="10.00">sqsh_thread_private.h</text>
</a>
</g>
</g>
<!-- Node3&#45;&gt;Node9 -->
<g id="edge8" class="edge">
<title>Node3&#45;&gt;Node9</title>
<path fill="none" stroke="#63b8ff" d="M284,-164.51C311.6,-155.8 353.66,-142.53 384.38,-132.84"/>
<polygon fill="#63b8ff" stroke="#63b8ff" points="385.22,-136.25 393.7,-129.9 383.11,-129.57 385.22,-136.25"/>
</g>
<!-- Node5 -->
<g id="node5" class="node">
<title>Node5</title>
<g id="a_node5"><a xlink:href="sqsh__common_8h.html" target="_top" xlink:title=" ">
<polygon fill="white" stroke="#666666" points="213.5,-74 99.5,-74 99.5,-55 213.5,-55 213.5,-74"/>
<text text-anchor="middle" x="156.5" y="-62" font-family="Helvetica,sans-Serif" font-size="10.00">sqsh_common.h</text>
</a>
</g>
</g>
<!-- Node4&#45;&gt;Node5 -->
<g id="edge4" class="edge">
<title>Node4&#45;&gt;Node5</title>
<path fill="none" stroke="#63b8ff" d="M208.81,-109.51C199.8,-101.93 186.67,-90.88 175.82,-81.75"/>
<polygon fill="#63b8ff" stroke="#63b8ff" points="178.09,-79.09 168.19,-75.33 173.59,-84.45 178.09,-79.09"/>
</g>
<!-- Node6 -->
<g id="node6" class="node">
<title>Node6</title>
<g id="a_node6"><a xlink:title=" ">
<polygon fill="#e0e0e0" stroke="#999999" points="99.5,-19 15.5,-19 15.5,0 99.5,0 99.5,-19"/>
<text text-anchor="middle" x="57.5" y="-7" font-family="Helvetica,sans-Serif" font-size="10.00">stdbool.h</text>
</a>
</g>
</g>
<!-- Node5&#45;&gt;Node6 -->
<g id="edge5" class="edge">
<title>Node5&#45;&gt;Node6</title>
<path fill="none" stroke="#63b8ff" d="M139.71,-54.51C124.4,-46.31 101.53,-34.07 83.8,-24.58"/>
<polygon fill="#63b8ff" stroke="#63b8ff" points="85.85,-21.71 75.38,-20.07 82.54,-27.88 85.85,-21.71"/>
</g>
<!-- Node7 -->
<g id="node7" class="node">
<title>Node7</title>
<g id="a_node7"><a xlink:title=" ">
<polygon fill="#e0e0e0" stroke="#999999" points="195,-19 118,-19 118,0 195,0 195,-19"/>
<text text-anchor="middle" x="156.5" y="-7" font-family="Helvetica,sans-Serif" font-size="10.00">stddef.h</text>
</a>
</g>
</g>
<!-- Node5&#45;&gt;Node7 -->
<g id="edge6" class="edge">
<title>Node5&#45;&gt;Node7</title>
<path fill="none" stroke="#63b8ff" d="M156.5,-54.75C156.5,-48.27 156.5,-39.16 156.5,-30.9"/>
<polygon fill="#63b8ff" stroke="#63b8ff" points="160,-30.96 156.5,-20.96 153,-30.96 160,-30.96"/>
</g>
<!-- Node8 -->
<g id="node8" class="node">
<title>Node8</title>
<g id="a_node8"><a xlink:title=" ">
<polygon fill="#e0e0e0" stroke="#999999" points="290,-19 213,-19 213,0 290,0 290,-19"/>
<text text-anchor="middle" x="251.5" y="-7" font-family="Helvetica,sans-Serif" font-size="10.00">stdint.h</text>
</a>
</g>
</g>
<!-- Node5&#45;&gt;Node8 -->
<g id="edge7" class="edge">
<title>Node5&#45;&gt;Node8</title>
<path fill="none" stroke="#63b8ff" d="M172.62,-54.51C187.17,-46.39 208.84,-34.3 225.79,-24.85"/>
<polygon fill="#63b8ff" stroke="#63b8ff" points="227.27,-28.02 234.3,-20.1 223.86,-21.91 227.27,-28.02"/>
</g>
<!-- Node9&#45;&gt;Node5 -->
<g id="edge10" class="edge">
<title>Node9&#45;&gt;Node5</title>
<path fill="none" stroke="#63b8ff" d="M378.21,-109.51C332.52,-100.44 261.88,-86.42 212.66,-76.65"/>
<polygon fill="#63b8ff" stroke="#63b8ff" points="213.54,-73.26 203.05,-74.74 212.18,-80.12 213.54,-73.26"/>
</g>
<!-- Node10 -->
<g id="node10" class="node">
<title>Node10</title>
<g id="a_node10"><a xlink:title=" ">
<polygon fill="#e0e0e0" stroke="#999999" points="465.5,-74 381.5,-74 381.5,-55 465.5,-55 465.5,-74"/>
<text text-anchor="middle" x="423.5" y="-62" font-family="Helvetica,sans-Serif" font-size="10.00">pthread.h</text>
</a>
</g>
</g>
<!-- Node9&#45;&gt;Node10 -->
<g id="edge9" class="edge">
<title>Node9&#45;&gt;Node10</title>
<path fill="none" stroke="#63b8ff" d="M423.5,-109.75C423.5,-103.27 423.5,-94.16 423.5,-85.9"/>
<polygon fill="#63b8ff" stroke="#63b8ff" points="427,-85.96 423.5,-75.96 420,-85.96 427,-85.96"/>
</g>
<!-- Node11&#45;&gt;Node4 -->
<g id="edge13" class="edge">
<title>Node11&#45;&gt;Node4</title>
<path fill="none" stroke="#63b8ff" d="M412.14,-164.51C372.86,-155.54 312.36,-141.71 269.65,-131.96"/>
<polygon fill="#63b8ff" stroke="#63b8ff" points="270.66,-128.6 260.14,-129.78 269.11,-135.42 270.66,-128.6"/>
</g>
<!-- Node11&#45;&gt;Node9 -->
<g id="edge14" class="edge">
<title>Node11&#45;&gt;Node9</title>
<path fill="none" stroke="#63b8ff" d="M446.88,-164.75C443.25,-157.88 438.07,-148.08 433.51,-139.45"/>
<polygon fill="#63b8ff" stroke="#63b8ff" points="436.7,-137.99 428.93,-130.78 430.51,-141.26 436.7,-137.99"/>
</g>
<!-- Node12 -->
<g id="node12" class="node">
<title>Node12</title>
<g id="a_node12"><a xlink:href="sqsh__mapper_8h.html" target="_top" xlink:title=" ">
<polygon fill="white" stroke="#666666" points="642.5,-129 528.5,-129 528.5,-110 642.5,-110 642.5,-129"/>
<text text-anchor="middle" x="585.5" y="-117" font-family="Helvetica,sans-Serif" font-size="10.00">sqsh_mapper.h</text>
</a>
</g>
</g>
<!-- Node11&#45;&gt;Node12 -->
<g id="edge12" class="edge">
<title>Node11&#45;&gt;Node12</title>
<path fill="none" stroke="#63b8ff" d="M474.23,-164.51C495.73,-156.01 528.23,-143.15 552.57,-133.53"/>
<polygon fill="#63b8ff" stroke="#63b8ff" points="553.69,-136.85 561.7,-129.91 551.11,-130.34 553.69,-136.85"/>
</g>
<!-- Node13&#45;&gt;Node3 -->
<g id="edge16" class="edge">
<title>Node13&#45;&gt;Node3</title>
<path fill="none" stroke="#63b8ff" d="M233.79,-219.75C237.12,-212.96 241.86,-203.3 246.06,-194.73"/>
<polygon fill="#63b8ff" stroke="#63b8ff" points="249.18,-196.32 250.45,-185.8 242.9,-193.24 249.18,-196.32"/>
</g>
<!-- Node13&#45;&gt;Node11 -->
<g id="edge17" class="edge">
<title>Node13&#45;&gt;Node11</title>
<path fill="none" stroke="#63b8ff" d="M267.16,-219.51C304.59,-210.57 362.15,-196.83 402.98,-187.08"/>
<polygon fill="#63b8ff" stroke="#63b8ff" points="403.64,-190.52 412.55,-184.8 402.02,-183.72 403.64,-190.52"/>
</g>
<!-- Node14 -->
<g id="node14" class="node">
<title>Node14</title>
<g id="a_node14"><a xlink:href="sqsh__table_8h.html" target="_top" xlink:title=" ">
<polygon fill="white" stroke="#666666" points="146,-184 39,-184 39,-165 146,-165 146,-184"/>
<text text-anchor="middle" x="92.5" y="-172" font-family="Helvetica,sans-Serif" font-size="10.00">sqsh_table.h</text>
</a>
</g>
</g>
<!-- Node13&#45;&gt;Node14 -->
<g id="edge18" class="edge">
<title>Node13&#45;&gt;Node14</title>
<path fill="none" stroke="#63b8ff" d="M206.26,-219.51C184.18,-210.97 150.75,-198.03 125.83,-188.4"/>
<polygon fill="#63b8ff" stroke="#63b8ff" points="127.4,-185.25 116.81,-184.9 124.87,-191.78 127.4,-185.25"/>
</g>
<!-- Node14&#45;&gt;Node5 -->
<g id="edge19" class="edge">
<title>Node14&#45;&gt;Node5</title>
<path fill="none" stroke="#63b8ff" d="M93.71,-164.73C95.77,-151.94 100.84,-127.76 111.5,-110 117.88,-99.37 127.38,-89.47 136,-81.72"/>
<polygon fill="#63b8ff" stroke="#63b8ff" points="138.01,-84.61 143.36,-75.46 133.48,-79.27 138.01,-84.61"/>
</g>
<!-- Node15&#45;&gt;Node5 -->
<g id="edge21" class="edge">
<title>Node15&#45;&gt;Node5</title>
<path fill="none" stroke="#63b8ff" d="M45.64,-219.67C35.56,-207.22 20.4,-183.9 29.5,-165 49.18,-124.14 94.77,-95.17 125.62,-79.39"/>
<polygon fill="#63b8ff" stroke="#63b8ff" points="127.06,-82.58 134.49,-75.02 123.97,-76.29 127.06,-82.58"/>
</g>
</g>
</svg>
