<?xml version="1.0" encoding="UTF-8" standalone="no"?>
<!DOCTYPE svg PUBLIC "-//W3C//DTD SVG 1.1//EN"
 "http://www.w3.org/Graphics/SVG/1.1/DTD/svg11.dtd">
<!-- Generated by graphviz version 8.0.5 (20230430.1635)
 -->
<!-- Title: include/sqsh_metablock_private.h Pages: 1 -->
<!--zoomable 320721 -->
<svg id="main" version="1.1" xmlns="http://www.w3.org/2000/svg" xmlns:xlink="http://www.w3.org/1999/xlink" xml:space="preserve" onload="init(evt)">
<style type="text/css"><![CDATA[
.edge:hover path { stroke: red; }
.edge:hover polygon { stroke: red; fill: red; }
]]></style>
<script type="text/javascript"><![CDATA[
var edges = document.getElementsByTagName('g');
if (edges && edges.length) {
  for (var i=0;i<edges.length;i++) {
    if (edges[i].id.substr(0,4)=='edge') {
      edges[i].setAttribute('class','edge');
    }
  }
}
]]></script>
        <defs>
                <circle id="rim" cx="0" cy="0" r="7"/>
                <circle id="rim2" cx="0" cy="0" r="3.5"/>
                <g id="zoomPlus">
                        <use xlink:href="#rim" fill="#404040">
                                <set attributeName="fill" to="#808080" begin="zoomplus.mouseover" end="zoomplus.mouseout"/>
                        </use>
                        <path d="M-4,0h8M0,-4v8" fill="none" stroke="white" stroke-width="1.5" pointer-events="none"/>
                </g>
                <g id="zoomMin">
                        <use xlink:href="#rim" fill="#404040">
                                <set attributeName="fill" to="#808080" begin="zoomminus.mouseover" end="zoomminus.mouseout"/>
                        </use>
                        <path d="M-4,0h8" fill="none" stroke="white" stroke-width="1.5" pointer-events="none"/>
                </g>
                <g id="dirArrow">
                        <path fill="none" stroke="white" stroke-width="1.5" d="M0,-3.0v7 M-2.5,-0.5L0,-3.0L2.5,-0.5"/>
                </g>
               <g id="resetDef">
                       <use xlink:href="#rim2" fill="#404040">
                               <set attributeName="fill" to="#808080" begin="reset.mouseover" end="reset.mouseout"/>
                       </use>
               </g>
        </defs>

<script type="text/javascript">
var viewWidth = 623;
var viewHeight = 320721;
var sectionId = 'dynsection-0';
</script>
<script xlink:href="svgpan.js"/>
<svg id="graph" class="graph">
<g id="viewport">
<title>include/sqsh_metablock_private.h</title>
<!-- Node1 -->
<g id="node1" class="node">
<title>Node1</title>
<g id="a_node1"><a xlink:title=" ">
<polygon fill="#999999" stroke="#666666" points="286.6,-320712.78 105.6,-320712.78 105.6,-320683.78 286.6,-320683.78 286.6,-320712.78"/>
<text text-anchor="start" x="113.6" y="-320699.28" font-family="Helvetica,sans-Serif" font-size="10.00">include/sqsh_metablock</text>
<text text-anchor="middle" x="196.1" y="-320688.78" font-family="Helvetica,sans-Serif" font-size="10.00">_private.h</text>
</a>
</g>
</g>
<!-- Node2 -->
<g id="node2" class="node">
<title>Node2</title>
<g id="a_node2"><a xlink:href="sqsh__extract__private_8h.html" target="_top" xlink:title=" ">
<polygon fill="white" stroke="#666666" points="189.6,-320585.67 8.6,-320585.67 8.6,-213815.91 189.6,-213815.91 189.6,-320585.67"/>
<text text-anchor="middle" x="99.1" y="-320572.17" font-family="Helvetica,sans-Serif" font-size="10.00">sqsh_extract_private.h</text>
</a>
</g>
</g>
<!-- Node1&#45;&gt;Node2 -->
<g id="edge1" class="edge">
<title>Node1&#45;&gt;Node2</title>
<path fill="none" stroke="#63b8ff" d="M196.08,-320683.55C195.82,-320544.01 193.65,-319347.25 190.12,-317399"/>
<polygon fill="#63b8ff" stroke="#63b8ff" points="193.62,-317399.27 190.1,-317389.27 186.62,-317399.28 193.62,-317399.27"/>
</g>
<!-- Node10 -->
<g id="node10" class="node">
<title>Node10</title>
<g id="a_node10"><a xlink:href="sqsh__mapper__private_8h.html" target="_top" xlink:title=" ">
<polygon fill="white" stroke="#666666" points="397.85,-320647.78 224.35,-320647.78 224.35,-213753.8 397.85,-213753.8 397.85,-320647.78"/>
<text text-anchor="middle" x="311.1" y="-320634.28" font-family="Helvetica,sans-Serif" font-size="10.00">sqsh_mapper_private.h</text>
</a>
</g>
</g>
<!-- Node1&#45;&gt;Node10 -->
<g id="edge9" class="edge">
<title>Node1&#45;&gt;Node10</title>
<path fill="none" stroke="#63b8ff" d="M196.8,-320683.41C197.27,-320673.49 197.85,-320659.82 198.1,-320647.78 528.16,-305116.62 474.84,-287041.07 398.43,-276391.75"/>
<polygon fill="#63b8ff" stroke="#63b8ff" points="401.92,-276392 398.35,-276382.02 394.92,-276392.05 401.92,-276392"/>
</g>
<!-- Node3 -->
<g id="node3" class="node">
<title>Node3</title>
<g id="a_node3"><a xlink:title=" ">
<polygon fill="#e0e0e0" stroke="#999999" points="276.1,-213655.8 110.1,-213655.8 110.1,-106761.98 276.1,-106761.98 276.1,-213655.8"/>
<text text-anchor="middle" x="193.1" y="-213642.3" font-family="Helvetica,sans-Serif" font-size="10.00">cextras/collection.h</text>
</a>
</g>
</g>
<!-- Node2&#45;&gt;Node3 -->
<g id="edge2" class="edge">
<title>Node2&#45;&gt;Node3</title>
<path fill="none" stroke="#63b8ff" d="M8.1,-218593.14C6.22,-216948.31 4.54,-215319.56 3.1,-213717.8 3.09,-213706.24 -3.51,-213701.27 3.1,-213691.8 29.66,-213653.75 74.51,-213693.82 101.1,-213655.8 103.52,-213652.34 105.9,-213642.04 108.23,-213625.05"/>
<polygon fill="#63b8ff" stroke="#63b8ff" points="111.81,-213625.64 109.6,-213615.28 104.87,-213624.76 111.81,-213625.64"/>
</g>
<!-- Node4 -->
<g id="node4" class="node">
<title>Node4</title>
<g id="a_node4"><a xlink:href="sqsh__thread__private_8h.html" target="_top" xlink:title=" ">
<polygon fill="white" stroke="#666666" points="185.85,-213714.05 12.35,-213714.05 12.35,-213695.55 185.85,-213695.55 185.85,-213714.05"/>
<text text-anchor="middle" x="99.1" y="-213700.55" font-family="Helvetica,sans-Serif" font-size="10.00">sqsh_thread_private.h</text>
</a>
</g>
</g>
<!-- Node2&#45;&gt;Node4 -->
<g id="edge3" class="edge">
<title>Node2&#45;&gt;Node4</title>
<path fill="none" stroke="#63b8ff" d="M99.1,-213815.41C99.1,-213773.07 99.1,-213742.77 99.1,-213724.9"/>
<polygon fill="#63b8ff" stroke="#63b8ff" points="102.6,-213725.1 99.1,-213715.1 95.6,-213725.1 102.6,-213725.1"/>
</g>
<!-- Node5 -->
<g id="node5" class="node">
<title>Node5</title>
<g id="a_node5"><a xlink:title=" ">
<polygon fill="#e0e0e0" stroke="#999999" points="91.85,-160230.08 8.35,-160230.08 8.35,-160187.7 91.85,-160187.7 91.85,-160230.08"/>
<text text-anchor="middle" x="50.1" y="-160216.58" font-family="Helvetica,sans-Serif" font-size="10.00">pthread.h</text>
</a>
</g>
</g>
<!-- Node4&#45;&gt;Node5 -->
<g id="edge4" class="edge">
<title>Node4&#45;&gt;Node5</title>
<path fill="none" stroke="#63b8ff" d="M99.09,-213695.23C98.4,-212934.02 51.46,-161695.4 50.13,-160241.43"/>
<polygon fill="#63b8ff" stroke="#63b8ff" points="53.63,-160241.55 50.12,-160231.55 46.63,-160241.56 53.63,-160241.55"/>
</g>
<!-- Node6 -->
<g id="node6" class="node">
<title>Node6</title>
<g id="a_node6"><a xlink:href="sqsh__common_8h.html" target="_top" xlink:title=" ">
<polygon fill="white" stroke="#666666" points="407.85,-160221.89 294.35,-160221.89 294.35,-160195.89 407.85,-160195.89 407.85,-160221.89"/>
<text text-anchor="middle" x="351.1" y="-160208.39" font-family="Helvetica,sans-Serif" font-size="10.00">sqsh_common.h</text>
</a>
</g>
</g>
<!-- Node4&#45;&gt;Node6 -->
<g id="edge5" class="edge">
<title>Node4&#45;&gt;Node6</title>
<path fill="none" stroke="#63b8ff" d="M166.8,-213695.09C213.77,-213687.5 270.44,-213674.7 285.1,-213655.8 509.84,-213366.07 354.94,-161483.82 351.17,-160232.88"/>
<polygon fill="#63b8ff" stroke="#63b8ff" points="354.67,-160233.12 351.14,-160223.13 347.67,-160233.14 354.67,-160233.12"/>
</g>
<!-- Node7 -->
<g id="node7" class="node">
<title>Node7</title>
<g id="a_node7"><a xlink:title=" ">
<polygon fill="#e0e0e0" stroke="#999999" points="294.85,-53375.99 211.35,-53375.99 211.35,-53349.99 294.85,-53349.99 294.85,-53375.99"/>
<text text-anchor="middle" x="253.1" y="-53362.49" font-family="Helvetica,sans-Serif" font-size="10.00">stdbool.h</text>
</a>
</g>
</g>
<!-- Node6&#45;&gt;Node7 -->
<g id="edge6" class="edge">
<title>Node6&#45;&gt;Node7</title>
<path fill="none" stroke="#63b8ff" d="M351.09,-160195.52C349.9,-158892.91 254.75,-55156.64 253.12,-53386.9"/>
<polygon fill="#63b8ff" stroke="#63b8ff" points="256.62,-53387.21 253.11,-53377.21 249.62,-53387.21 256.62,-53387.21"/>
</g>
<!-- Node8 -->
<g id="node8" class="node">
<title>Node8</title>
<g id="a_node8"><a xlink:title=" ">
<polygon fill="#e0e0e0" stroke="#999999" points="389.1,-53384.18 313.1,-53384.18 313.1,-53341.8 389.1,-53341.8 389.1,-53384.18"/>
<text text-anchor="middle" x="351.1" y="-53370.68" font-family="Helvetica,sans-Serif" font-size="10.00">stddef.h</text>
</a>
</g>
</g>
<!-- Node6&#45;&gt;Node8 -->
<g id="edge7" class="edge">
<title>Node6&#45;&gt;Node8</title>
<path fill="none" stroke="#63b8ff" d="M351.1,-160195.52C351.1,-158894.83 351.1,-55462.68 351.1,-53395.4"/>
<polygon fill="#63b8ff" stroke="#63b8ff" points="354.6,-53395.43 351.1,-53385.43 347.6,-53395.43 354.6,-53395.43"/>
</g>
<!-- Node9 -->
<g id="node9" class="node">
<title>Node9</title>
<g id="a_node9"><a xlink:title=" ">
<polygon fill="#e0e0e0" stroke="#999999" points="483.1,-106725.98 407.1,-106725.98 407.1,0 483.1,0 483.1,-106725.98"/>
<text text-anchor="middle" x="445.1" y="-106712.48" font-family="Helvetica,sans-Serif" font-size="10.00">stdint.h</text>
</a>
</g>
</g>
<!-- Node6&#45;&gt;Node9 -->
<g id="edge8" class="edge">
<title>Node6&#45;&gt;Node9</title>
<path fill="none" stroke="#63b8ff" d="M351.11,-160195.52C351.76,-159462.72 380.92,-126312.39 406.59,-97134.96"/>
<polygon fill="#63b8ff" stroke="#63b8ff" points="410.09,-97135.28 406.6,-97125.28 403.09,-97135.27 410.09,-97135.28"/>
</g>
<!-- Node10&#45;&gt;Node3 -->
<g id="edge16" class="edge">
<title>Node10&#45;&gt;Node3</title>
<path fill="none" stroke="#63b8ff" d="M233.14,-213753.44C233.13,-213741.56 233.12,-213729.68 233.1,-213717.8 233.08,-213700.82 233.07,-213683.84 233.05,-213666.85"/>
<polygon fill="#63b8ff" stroke="#63b8ff" points="236.55,-213667.27 233.03,-213657.28 229.55,-213667.28 236.55,-213667.27"/>
</g>
<!-- Node10&#45;&gt;Node4 -->
<g id="edge15" class="edge">
<title>Node10&#45;&gt;Node4</title>
<path fill="none" stroke="#63b8ff" d="M398.35,-259610.73C551.35,-245087.9 798.19,-214709.4 198.1,-213753.8 187.26,-213736.53 168.25,-213725.32 149.77,-213718.11"/>
<polygon fill="#63b8ff" stroke="#63b8ff" points="151.2,-213714.55 140.61,-213714.51 148.86,-213721.15 151.2,-213714.55"/>
</g>
<!-- Node11 -->
<g id="node11" class="node">
<title>Node11</title>
<g id="a_node11"><a xlink:href="sqsh__mapper_8h.html" target="_top" xlink:title=" ">
<polygon fill="white" stroke="#666666" points="547.85,-213717.8 434.35,-213717.8 434.35,-213691.8 547.85,-213691.8 547.85,-213717.8"/>
<text text-anchor="middle" x="491.1" y="-213704.3" font-family="Helvetica,sans-Serif" font-size="10.00">sqsh_mapper.h</text>
</a>
</g>
</g>
<!-- Node10&#45;&gt;Node11 -->
<g id="edge10" class="edge">
<title>Node10&#45;&gt;Node11</title>
<path fill="none" stroke="#63b8ff" d="M398.35,-241270.26C443.17,-227951.43 488.89,-214362.07 491.03,-213728.82"/>
<polygon fill="#63b8ff" stroke="#63b8ff" points="494.53,-213729.29 491.06,-213719.27 487.53,-213729.26 494.53,-213729.29"/>
</g>
<!-- Node12 -->
<g id="node12" class="node">
<title>Node12</title>
<g id="a_node12"><a xlink:href="sqsh__reader__private_8h.html" target="_top" xlink:title=" ">
<polygon fill="white" stroke="#666666" points="415.85,-213717.8 242.35,-213717.8 242.35,-213691.8 415.85,-213691.8 415.85,-213717.8"/>
<text text-anchor="middle" x="329.1" y="-213704.3" font-family="Helvetica,sans-Serif" font-size="10.00">sqsh_reader_private.h</text>
</a>
</g>
</g>
<!-- Node10&#45;&gt;Node12 -->
<g id="edge11" class="edge">
<title>Node10&#45;&gt;Node12</title>
<path fill="none" stroke="#63b8ff" d="M329.09,-213753.46C329.09,-213743.86 329.09,-213735.7 329.09,-213728.98"/>
<polygon fill="#63b8ff" stroke="#63b8ff" points="332.59,-213729.16 329.1,-213719.16 325.59,-213729.16 332.59,-213729.16"/>
</g>
<!-- Node13 -->
<g id="node13" class="node">
<title>Node13</title>
<g id="a_node13"><a xlink:title=" ">
<polygon fill="#e0e0e0" stroke="#999999" points="558.6,-213654.95 467.6,-213654.95 467.6,-106762.83 558.6,-106762.83 558.6,-213654.95"/>
<text text-anchor="middle" x="513.1" y="-213641.45" font-family="Helvetica,sans-Serif" font-size="10.00">sys/wait.h</text>
</a>
</g>
</g>
<!-- Node10&#45;&gt;Node13 -->
<g id="edge17" class="edge">
<title>Node10&#45;&gt;Node13</title>
<path fill="none" stroke="#63b8ff" d="M398.35,-252231.9C456.36,-241508.56 527.19,-226723.7 557.1,-213717.8 582.6,-202629.21 574.76,-190248.01 559.12,-180190.42"/>
<polygon fill="#63b8ff" stroke="#63b8ff" points="562.62,-180190.83 559.1,-180180.83 555.62,-180190.84 562.62,-180190.83"/>
</g>
<!-- Node12&#45;&gt;Node3 -->
<g id="edge13" class="edge">
<title>Node12&#45;&gt;Node3</title>
<path fill="none" stroke="#63b8ff" d="M312.84,-213691.49C302.76,-213682.77 290.69,-213670.12 285.1,-213655.8 282.77,-213649.82 280.47,-213639.95 278.21,-213626.26"/>
<polygon fill="#63b8ff" stroke="#63b8ff" points="281.55,-213625.97 276.57,-213616.62 274.63,-213627.03 281.55,-213625.97"/>
</g>
<!-- Node12&#45;&gt;Node6 -->
<g id="edge12" class="edge">
<title>Node12&#45;&gt;Node6</title>
<path fill="none" stroke="#63b8ff" d="M329.11,-213691.47C329.48,-212778.86 350.58,-161482.29 351.09,-160233.08"/>
<polygon fill="#63b8ff" stroke="#63b8ff" points="354.59,-160233.34 351.1,-160223.34 347.59,-160233.33 354.59,-160233.34"/>
</g>
<!-- Node12&#45;&gt;Node13 -->
<g id="edge14" class="edge">
<title>Node12&#45;&gt;Node13</title>
<path fill="none" stroke="#63b8ff" d="M371.39,-213691.42C388.73,-213684.03 407.05,-213672.7 417.1,-213655.8 690.13,-213196.82 619.99,-185734.83 559.14,-170361.59"/>
<polygon fill="#63b8ff" stroke="#63b8ff" points="562.64,-170361.67 559.1,-170351.69 555.64,-170361.7 562.64,-170361.67"/>
</g>
</g>
</svg>
        <g id="navigator" transform="translate(0 0)" fill="#404254">
                <rect fill="#f2f5e9" fill-opacity="0.5" stroke="#606060" stroke-width=".5" x="0" y="0" width="60" height="60"/>
                <use id="zoomplus" xlink:href="#zoomPlus" x="17" y="9" onmousedown="handleZoom(evt,'in')"/>
                <use id="zoomminus" xlink:href="#zoomMin" x="42" y="9" onmousedown="handleZoom(evt,'out')"/>
                <use id="reset" xlink:href="#resetDef" x="30" y="36" onmousedown="handleReset()"/>
                <g id="arrowUp" xlink:href="#dirArrow" transform="translate(30 24)" onmousedown="handlePan(0,-1)">
                  <use xlink:href="#rim" fill="#404040">
                        <set attributeName="fill" to="#808080" begin="arrowUp.mouseover" end="arrowUp.mouseout"/>
                  </use>
                  <path fill="none" stroke="white" stroke-width="1.5" d="M0,-3.0v7 M-2.5,-0.5L0,-3.0L2.5,-0.5"/>
                </g>
                <g id="arrowRight" xlink:href="#dirArrow" transform="rotate(90) translate(36 -43)" onmousedown="handlePan(1,0)">
                  <use xlink:href="#rim" fill="#404040">
                        <set attributeName="fill" to="#808080" begin="arrowRight.mouseover" end="arrowRight.mouseout"/>
                  </use>
                  <path fill="none" stroke="white" stroke-width="1.5" d="M0,-3.0v7 M-2.5,-0.5L0,-3.0L2.5,-0.5"/>
                </g>
                <g id="arrowDown" xlink:href="#dirArrow" transform="rotate(180) translate(-30 -48)" onmousedown="handlePan(0,1)">
                  <use xlink:href="#rim" fill="#404040">
                        <set attributeName="fill" to="#808080" begin="arrowDown.mouseover" end="arrowDown.mouseout"/>
                  </use>
                  <path fill="none" stroke="white" stroke-width="1.5" d="M0,-3.0v7 M-2.5,-0.5L0,-3.0L2.5,-0.5"/>
                </g>
                <g id="arrowLeft" xlink:href="#dirArrow" transform="rotate(270) translate(-36 17)" onmousedown="handlePan(-1,0)">
                  <use xlink:href="#rim" fill="#404040">
                        <set attributeName="fill" to="#808080" begin="arrowLeft.mouseover" end="arrowLeft.mouseout"/>
                  </use>
                  <path fill="none" stroke="white" stroke-width="1.5" d="M0,-3.0v7 M-2.5,-0.5L0,-3.0L2.5,-0.5"/>
                </g>
        </g>
        <svg viewBox="0 0 15 15" width="100%" height="30px" preserveAspectRatio="xMaxYMin meet">
         <g id="arrow_out" transform="scale(0.3 0.3)">
          <a xlink:href="sqsh__metablock__private_8h__incl_org.svg" target="_base">
           <rect id="button" ry="5" rx="5" y="6" x="6" height="38" width="38"
                fill="#f2f5e9" fill-opacity="0.5" stroke="#606060" stroke-width="1.0"/>
           <path id="arrow"
             d="M 11.500037,31.436501 C 11.940474,20.09759 22.043105,11.32322 32.158766,21.979434 L 37.068811,17.246167 C 37.068811,17.246167 37.088388,32 37.088388,32 L 22.160133,31.978069 C 22.160133,31.978069 26.997745,27.140456 26.997745,27.140456 C 18.528582,18.264221 13.291696,25.230495 11.500037,31.436501 z"
             style="fill:#404040;"/>
          </a>
         </g>
        </svg>
</svg>
