<?xml version="1.0" encoding="UTF-8" standalone="no"?>
<!DOCTYPE svg PUBLIC "-//W3C//DTD SVG 1.1//EN"
 "http://www.w3.org/Graphics/SVG/1.1/DTD/svg11.dtd">
<!-- Generated by graphviz version 8.1.0 (0)
 -->
<!-- Title: include/sqsh_xattr_private.h Pages: 1 -->
<svg width="590pt" height="325pt"
 viewBox="0.00 0.00 590.24 325.25" xmlns="http://www.w3.org/2000/svg" xmlns:xlink="http://www.w3.org/1999/xlink">
<g id="graph0" class="graph" transform="scale(1 1) rotate(0) translate(4 321.25)">
<title>include/sqsh_xattr_private.h</title>
<!-- Node1 -->
<g id="Node000001" class="node">
<title>Node1</title>
<g id="a_Node000001"><a xlink:title=" ">
<polygon fill="#999999" stroke="#666666" points="358.49,-317.25 253.24,-317.25 253.24,-283.75 358.49,-283.75 358.49,-317.25"/>
<text text-anchor="start" x="261.24" y="-303.75" font-family="Helvetica,sans-Serif" font-size="10.00">include/sqsh_xattr</text>
<text text-anchor="middle" x="305.86" y="-291" font-family="Helvetica,sans-Serif" font-size="10.00">_private.h</text>
</a>
</g>
</g>
<!-- Node2 -->
<g id="Node000002" class="node">
<title>Node2</title>
<g id="a_Node000002"><a xlink:href="sqsh__metablock__private_8h.html" target="_top" xlink:title=" ">
<polygon fill="white" stroke="#666666" points="228.99,-247.75 84.74,-247.75 84.74,-227 228.99,-227 228.99,-247.75"/>
<text text-anchor="middle" x="156.86" y="-234.25" font-family="Helvetica,sans-Serif" font-size="10.00">sqsh_metablock_private.h</text>
</a>
</g>
</g>
<!-- Node1&#45;&gt;Node2 -->
<g id="edge1_Node000001_Node000002" class="edge">
<title>Node1&#45;&gt;Node2</title>
<g id="a_edge1_Node000001_Node000002"><a xlink:title=" ">
<path fill="none" stroke="#63b8ff" d="M266.33,-283.28C242.81,-273.63 213.28,-261.52 190.82,-252.3"/>
<polygon fill="#63b8ff" stroke="#63b8ff" points="192.31,-248.72 181.73,-248.17 189.65,-255.2 192.31,-248.72"/>
</a>
</g>
</g>
<!-- Node15 -->
<g id="Node000015" class="node">
<title>Node15</title>
<g id="a_Node000015"><a xlink:href="sqsh__table__private_8h.html" target="_top" xlink:title=" ">
<polygon fill="white" stroke="#666666" points="364.49,-247.75 247.24,-247.75 247.24,-227 364.49,-227 364.49,-247.75"/>
<text text-anchor="middle" x="305.86" y="-234.25" font-family="Helvetica,sans-Serif" font-size="10.00">sqsh_table_private.h</text>
</a>
</g>
</g>
<!-- Node1&#45;&gt;Node15 -->
<g id="edge19_Node000001_Node000015" class="edge">
<title>Node1&#45;&gt;Node15</title>
<g id="a_edge19_Node000001_Node000015"><a xlink:title=" ">
<path fill="none" stroke="#63b8ff" d="M305.86,-283.44C305.86,-276.02 305.86,-267.11 305.86,-259.18"/>
<polygon fill="#63b8ff" stroke="#63b8ff" points="309.36,-259.22 305.86,-249.22 302.36,-259.22 309.36,-259.22"/>
</a>
</g>
</g>
<!-- Node17 -->
<g id="Node000017" class="node">
<title>Node17</title>
<g id="a_Node000017"><a xlink:href="sqsh__xattr_8h.html" target="_top" xlink:title=" ">
<polygon fill="white" stroke="#666666" points="508.49,-247.75 433.24,-247.75 433.24,-227 508.49,-227 508.49,-247.75"/>
<text text-anchor="middle" x="470.86" y="-234.25" font-family="Helvetica,sans-Serif" font-size="10.00">sqsh_xattr.h</text>
</a>
</g>
</g>
<!-- Node1&#45;&gt;Node17 -->
<g id="edge24_Node000001_Node000017" class="edge">
<title>Node1&#45;&gt;Node17</title>
<g id="a_edge24_Node000001_Node000017"><a xlink:title=" ">
<path fill="none" stroke="#63b8ff" d="M349.65,-283.28C376.05,-273.5 409.28,-261.19 434.28,-251.93"/>
<polygon fill="#63b8ff" stroke="#63b8ff" points="435.28,-254.92 443.44,-248.17 432.84,-248.36 435.28,-254.92"/>
</a>
</g>
</g>
<!-- Node3 -->
<g id="Node000003" class="node">
<title>Node3</title>
<g id="a_Node000003"><a xlink:href="sqsh__extract__private_8h.html" target="_top" xlink:title=" ">
<polygon fill="white" stroke="#666666" points="147.36,-191 20.36,-191 20.36,-170.25 147.36,-170.25 147.36,-191"/>
<text text-anchor="middle" x="83.86" y="-177.5" font-family="Helvetica,sans-Serif" font-size="10.00">sqsh_extract_private.h</text>
</a>
</g>
</g>
<!-- Node2&#45;&gt;Node3 -->
<g id="edge2_Node000002_Node000003" class="edge">
<title>Node2&#45;&gt;Node3</title>
<g id="a_edge2_Node000002_Node000003"><a xlink:title=" ">
<path fill="none" stroke="#63b8ff" d="M143.81,-226.59C133.12,-218.57 117.77,-207.06 105.28,-197.69"/>
<polygon fill="#63b8ff" stroke="#63b8ff" points="107.9,-194.53 97.8,-191.33 103.7,-200.13 107.9,-194.53"/>
</a>
</g>
</g>
<!-- Node11 -->
<g id="Node000011" class="node">
<title>Node11</title>
<g id="a_Node000011"><a xlink:href="sqsh__mapper__private_8h.html" target="_top" xlink:title=" ">
<polygon fill="white" stroke="#666666" points="303.86,-191 173.86,-191 173.86,-170.25 303.86,-170.25 303.86,-191"/>
<text text-anchor="middle" x="238.86" y="-177.5" font-family="Helvetica,sans-Serif" font-size="10.00">sqsh_mapper_private.h</text>
</a>
</g>
</g>
<!-- Node2&#45;&gt;Node11 -->
<g id="edge10_Node000002_Node000011" class="edge">
<title>Node2&#45;&gt;Node11</title>
<g id="a_edge10_Node000002_Node000011"><a xlink:title=" ">
<path fill="none" stroke="#63b8ff" d="M171.52,-226.59C183.65,-218.49 201.11,-206.83 215.21,-197.42"/>
<polygon fill="#63b8ff" stroke="#63b8ff" points="216.96,-199.79 223.33,-191.33 213.07,-193.97 216.96,-199.79"/>
</a>
</g>
</g>
<!-- Node4 -->
<g id="Node000004" class="node">
<title>Node4</title>
<g id="a_Node000004"><a xlink:title=" ">
<polygon fill="#e0e0e0" stroke="#999999" points="228.49,-77.5 117.24,-77.5 117.24,-56.75 228.49,-56.75 228.49,-77.5"/>
<text text-anchor="middle" x="172.86" y="-64" font-family="Helvetica,sans-Serif" font-size="10.00">cextras/collection.h</text>
</a>
</g>
</g>
<!-- Node3&#45;&gt;Node4 -->
<g id="edge3_Node000003_Node000004" class="edge">
<title>Node3&#45;&gt;Node4</title>
<g id="a_edge3_Node000003_Node000004"><a xlink:title=" ">
<path fill="none" stroke="#63b8ff" d="M55.27,-169.8C25.86,-158.13 -13.3,-137.21 4.86,-113.5 11.77,-104.48 68.58,-90.39 114.25,-80.31"/>
<polygon fill="#63b8ff" stroke="#63b8ff" points="114.97,-83.51 123.99,-77.96 113.47,-76.68 114.97,-83.51"/>
</a>
</g>
</g>
<!-- Node5 -->
<g id="Node000005" class="node">
<title>Node5</title>
<g id="a_Node000005"><a xlink:href="sqsh__thread__private_8h.html" target="_top" xlink:title=" ">
<polygon fill="white" stroke="#666666" points="137.86,-134.25 13.86,-134.25 13.86,-113.5 137.86,-113.5 137.86,-134.25"/>
<text text-anchor="middle" x="75.86" y="-120.75" font-family="Helvetica,sans-Serif" font-size="10.00">sqsh_thread_private.h</text>
</a>
</g>
</g>
<!-- Node3&#45;&gt;Node5 -->
<g id="edge4_Node000003_Node000005" class="edge">
<title>Node3&#45;&gt;Node5</title>
<g id="a_edge4_Node000003_Node000005"><a xlink:title=" ">
<path fill="none" stroke="#63b8ff" d="M82.43,-169.84C81.44,-163.06 80.09,-153.8 78.87,-145.44"/>
<polygon fill="#63b8ff" stroke="#63b8ff" points="82.19,-144.97 77.28,-135.58 75.26,-145.98 82.19,-144.97"/>
</a>
</g>
</g>
<!-- Node6 -->
<g id="Node000006" class="node">
<title>Node6</title>
<g id="a_Node000006"><a xlink:title=" ">
<polygon fill="#e0e0e0" stroke="#999999" points="99.11,-77.5 36.61,-77.5 36.61,-56.75 99.11,-56.75 99.11,-77.5"/>
<text text-anchor="middle" x="67.86" y="-64" font-family="Helvetica,sans-Serif" font-size="10.00">pthread.h</text>
</a>
</g>
</g>
<!-- Node5&#45;&gt;Node6 -->
<g id="edge5_Node000005_Node000006" class="edge">
<title>Node5&#45;&gt;Node6</title>
<g id="a_edge5_Node000005_Node000006"><a xlink:title=" ">
<path fill="none" stroke="#63b8ff" d="M74.43,-113.09C73.44,-106.31 72.09,-97.05 70.87,-88.69"/>
<polygon fill="#63b8ff" stroke="#63b8ff" points="74.19,-88.22 69.28,-78.83 67.26,-89.23 74.19,-88.22"/>
</a>
</g>
</g>
<!-- Node7 -->
<g id="Node000007" class="node">
<title>Node7</title>
<g id="a_Node000007"><a xlink:href="sqsh__common_8h.html" target="_top" xlink:title=" ">
<polygon fill="white" stroke="#666666" points="531.61,-77.5 436.11,-77.5 436.11,-56.75 531.61,-56.75 531.61,-77.5"/>
<text text-anchor="middle" x="483.86" y="-64" font-family="Helvetica,sans-Serif" font-size="10.00">sqsh_common.h</text>
</a>
</g>
</g>
<!-- Node5&#45;&gt;Node7 -->
<g id="edge6_Node000005_Node000007" class="edge">
<title>Node5&#45;&gt;Node7</title>
<g id="a_edge6_Node000005_Node000007"><a xlink:title=" ">
<path fill="none" stroke="#63b8ff" d="M138.27,-114.5C216.25,-104.04 348.69,-86.26 424.99,-76.03"/>
<polygon fill="#63b8ff" stroke="#63b8ff" points="425.37,-79.37 434.82,-74.57 424.44,-72.43 425.37,-79.37"/>
</a>
</g>
</g>
<!-- Node8 -->
<g id="Node000008" class="node">
<title>Node8</title>
<g id="a_Node000008"><a xlink:title=" ">
<polygon fill="#e0e0e0" stroke="#999999" points="438.36,-20.75 377.36,-20.75 377.36,0 438.36,0 438.36,-20.75"/>
<text text-anchor="middle" x="407.86" y="-7.25" font-family="Helvetica,sans-Serif" font-size="10.00">stdbool.h</text>
</a>
</g>
</g>
<!-- Node7&#45;&gt;Node8 -->
<g id="edge7_Node000007_Node000008" class="edge">
<title>Node7&#45;&gt;Node8</title>
<g id="a_edge7_Node000007_Node000008"><a xlink:title=" ">
<path fill="none" stroke="#63b8ff" d="M470.28,-56.34C459.15,-48.32 443.17,-36.81 430.16,-27.44"/>
<polygon fill="#63b8ff" stroke="#63b8ff" points="432.49,-24.08 422.33,-21.08 428.4,-29.76 432.49,-24.08"/>
</a>
</g>
</g>
<!-- Node9 -->
<g id="Node000009" class="node">
<title>Node9</title>
<g id="a_Node000009"><a xlink:title=" ">
<polygon fill="#e0e0e0" stroke="#999999" points="511.36,-20.75 456.36,-20.75 456.36,0 511.36,0 511.36,-20.75"/>
<text text-anchor="middle" x="483.86" y="-7.25" font-family="Helvetica,sans-Serif" font-size="10.00">stddef.h</text>
</a>
</g>
</g>
<!-- Node7&#45;&gt;Node9 -->
<g id="edge8_Node000007_Node000009" class="edge">
<title>Node7&#45;&gt;Node9</title>
<g id="a_edge8_Node000007_Node000009"><a xlink:title=" ">
<path fill="none" stroke="#63b8ff" d="M483.86,-56.34C483.86,-49.56 483.86,-40.3 483.86,-31.94"/>
<polygon fill="#63b8ff" stroke="#63b8ff" points="487.36,-32.08 483.86,-22.08 480.36,-32.08 487.36,-32.08"/>
</a>
</g>
</g>
<!-- Node10 -->
<g id="Node000010" class="node">
<title>Node10</title>
<g id="a_Node000010"><a xlink:title=" ">
<polygon fill="#e0e0e0" stroke="#999999" points="582.24,-20.75 529.49,-20.75 529.49,0 582.24,0 582.24,-20.75"/>
<text text-anchor="middle" x="555.86" y="-7.25" font-family="Helvetica,sans-Serif" font-size="10.00">stdint.h</text>
</a>
</g>
</g>
<!-- Node7&#45;&gt;Node10 -->
<g id="edge9_Node000007_Node000010" class="edge">
<title>Node7&#45;&gt;Node10</title>
<g id="a_edge9_Node000007_Node000010"><a xlink:title=" ">
<path fill="none" stroke="#63b8ff" d="M496.74,-56.34C507.18,-48.4 522.13,-37.03 534.38,-27.71"/>
<polygon fill="#63b8ff" stroke="#63b8ff" points="536.26,-29.92 542.1,-21.08 532.02,-24.35 536.26,-29.92"/>
</a>
</g>
</g>
<!-- Node11&#45;&gt;Node4 -->
<g id="edge17_Node000011_Node000004" class="edge">
<title>Node11&#45;&gt;Node4</title>
<g id="a_edge17_Node000011_Node000004"><a xlink:title=" ">
<path fill="none" stroke="#63b8ff" d="M221.73,-169.76C209.47,-161.78 193.65,-149.4 184.86,-134.25 176.8,-120.36 173.94,-102.28 173.02,-88.54"/>
<polygon fill="#63b8ff" stroke="#63b8ff" points="176.49,-88.66 172.62,-78.8 169.49,-88.92 176.49,-88.66"/>
</a>
</g>
</g>
<!-- Node11&#45;&gt;Node5 -->
<g id="edge16_Node000011_Node000005" class="edge">
<title>Node11&#45;&gt;Node5</title>
<g id="a_edge16_Node000011_Node000005"><a xlink:title=" ">
<path fill="none" stroke="#63b8ff" d="M209.72,-169.84C183.38,-160.99 144.38,-147.89 115.27,-138.11"/>
<polygon fill="#63b8ff" stroke="#63b8ff" points="116.62,-134.54 106.03,-134.67 114.39,-141.17 116.62,-134.54"/>
</a>
</g>
</g>
<!-- Node12 -->
<g id="Node000012" class="node">
<title>Node12</title>
<g id="a_Node000012"><a xlink:href="sqsh__mapper_8h.html" target="_top" xlink:title=" ">
<polygon fill="white" stroke="#666666" points="283.61,-134.25 194.11,-134.25 194.11,-113.5 283.61,-113.5 283.61,-134.25"/>
<text text-anchor="middle" x="238.86" y="-120.75" font-family="Helvetica,sans-Serif" font-size="10.00">sqsh_mapper.h</text>
</a>
</g>
</g>
<!-- Node11&#45;&gt;Node12 -->
<g id="edge11_Node000011_Node000012" class="edge">
<title>Node11&#45;&gt;Node12</title>
<g id="a_edge11_Node000011_Node000012"><a xlink:title=" ">
<path fill="none" stroke="#63b8ff" d="M238.86,-169.84C238.86,-163.06 238.86,-153.8 238.86,-145.44"/>
<polygon fill="#63b8ff" stroke="#63b8ff" points="242.36,-145.58 238.86,-135.58 235.36,-145.58 242.36,-145.58"/>
</a>
</g>
</g>
<!-- Node13 -->
<g id="Node000013" class="node">
<title>Node13</title>
<g id="a_Node000013"><a xlink:href="sqsh__reader__private_8h.html" target="_top" xlink:title=" ">
<polygon fill="white" stroke="#666666" points="425.86,-134.25 301.86,-134.25 301.86,-113.5 425.86,-113.5 425.86,-134.25"/>
<text text-anchor="middle" x="363.86" y="-120.75" font-family="Helvetica,sans-Serif" font-size="10.00">sqsh_reader_private.h</text>
</a>
</g>
</g>
<!-- Node11&#45;&gt;Node13 -->
<g id="edge12_Node000011_Node000013" class="edge">
<title>Node11&#45;&gt;Node13</title>
<g id="a_edge12_Node000011_Node000013"><a xlink:title=" ">
<path fill="none" stroke="#63b8ff" d="M261.21,-169.84C280.85,-161.23 309.67,-148.61 331.78,-138.93"/>
<polygon fill="#63b8ff" stroke="#63b8ff" points="332.95,-141.8 340.71,-134.58 330.15,-135.38 332.95,-141.8"/>
</a>
</g>
</g>
<!-- Node14 -->
<g id="Node000014" class="node">
<title>Node14</title>
<g id="a_Node000014"><a xlink:title=" ">
<polygon fill="#e0e0e0" stroke="#999999" points="403.61,-77.5 338.11,-77.5 338.11,-56.75 403.61,-56.75 403.61,-77.5"/>
<text text-anchor="middle" x="370.86" y="-64" font-family="Helvetica,sans-Serif" font-size="10.00">sys/wait.h</text>
</a>
</g>
</g>
<!-- Node11&#45;&gt;Node14 -->
<g id="edge18_Node000011_Node000014" class="edge">
<title>Node11&#45;&gt;Node14</title>
<g id="a_edge18_Node000011_Node000014"><a xlink:title=" ">
<path fill="none" stroke="#63b8ff" d="M304.22,-173.18C354.72,-166.69 418.64,-154.65 434.86,-134.25 449.83,-115.43 425.08,-95.88 402.14,-82.97"/>
<polygon fill="#63b8ff" stroke="#63b8ff" points="404.01,-79.47 393.54,-77.86 400.72,-85.65 404.01,-79.47"/>
</a>
</g>
</g>
<!-- Node13&#45;&gt;Node4 -->
<g id="edge14_Node000013_Node000004" class="edge">
<title>Node13&#45;&gt;Node4</title>
<g id="a_edge14_Node000013_Node000004"><a xlink:title=" ">
<path fill="none" stroke="#63b8ff" d="M329.72,-113.09C298.31,-104.08 251.54,-90.68 217.25,-80.85"/>
<polygon fill="#63b8ff" stroke="#63b8ff" points="218.61,-77.31 208.04,-77.92 216.69,-84.04 218.61,-77.31"/>
</a>
</g>
</g>
<!-- Node13&#45;&gt;Node7 -->
<g id="edge13_Node000013_Node000007" class="edge">
<title>Node13&#45;&gt;Node7</title>
<g id="a_edge13_Node000013_Node000007"><a xlink:title=" ">
<path fill="none" stroke="#63b8ff" d="M385.32,-113.09C404.09,-104.52 431.59,-91.98 452.77,-82.31"/>
<polygon fill="#63b8ff" stroke="#63b8ff" points="453.95,-85.16 461.6,-77.83 451.05,-78.8 453.95,-85.16"/>
</a>
</g>
</g>
<!-- Node13&#45;&gt;Node14 -->
<g id="edge15_Node000013_Node000014" class="edge">
<title>Node13&#45;&gt;Node14</title>
<g id="a_edge15_Node000013_Node000014"><a xlink:title=" ">
<path fill="none" stroke="#63b8ff" d="M365.12,-113.09C365.98,-106.31 367.17,-97.05 368.24,-88.69"/>
<polygon fill="#63b8ff" stroke="#63b8ff" points="371.83,-89.19 369.62,-78.83 364.88,-88.3 371.83,-89.19"/>
</a>
</g>
</g>
<!-- Node15&#45;&gt;Node3 -->
<g id="edge20_Node000015_Node000003" class="edge">
<title>Node15&#45;&gt;Node3</title>
<g id="a_edge20_Node000015_Node000003"><a xlink:title=" ">
<path fill="none" stroke="#63b8ff" d="M265.92,-226.52C229.1,-217.44 174.28,-203.92 134.42,-194.09"/>
<polygon fill="#63b8ff" stroke="#63b8ff" points="135.41,-190.49 124.86,-191.49 133.73,-197.28 135.41,-190.49"/>
</a>
</g>
</g>
<!-- Node15&#45;&gt;Node11 -->
<g id="edge21_Node000015_Node000011" class="edge">
<title>Node15&#45;&gt;Node11</title>
<g id="a_edge21_Node000015_Node000011"><a xlink:title=" ">
<path fill="none" stroke="#63b8ff" d="M293.89,-226.59C284.26,-218.72 270.53,-207.5 259.19,-198.24"/>
<polygon fill="#63b8ff" stroke="#63b8ff" points="261.7,-194.95 251.74,-191.33 257.27,-200.37 261.7,-194.95"/>
</a>
</g>
</g>
<!-- Node16 -->
<g id="Node000016" class="node">
<title>Node16</title>
<g id="a_Node000016"><a xlink:href="sqsh__table_8h.html" target="_top" xlink:title=" ">
<polygon fill="white" stroke="#666666" points="450.61,-191 373.11,-191 373.11,-170.25 450.61,-170.25 450.61,-191"/>
<text text-anchor="middle" x="411.86" y="-177.5" font-family="Helvetica,sans-Serif" font-size="10.00">sqsh_table.h</text>
</a>
</g>
</g>
<!-- Node15&#45;&gt;Node16 -->
<g id="edge22_Node000015_Node000016" class="edge">
<title>Node15&#45;&gt;Node16</title>
<g id="a_edge22_Node000015_Node000016"><a xlink:title=" ">
<path fill="none" stroke="#63b8ff" d="M324.81,-226.59C341.09,-218.18 364.81,-205.93 383.37,-196.34"/>
<polygon fill="#63b8ff" stroke="#63b8ff" points="384.8,-199.03 392.08,-191.33 381.59,-192.81 384.8,-199.03"/>
</a>
</g>
</g>
<!-- Node16&#45;&gt;Node7 -->
<g id="edge23_Node000016_Node000007" class="edge">
<title>Node16&#45;&gt;Node7</title>
<g id="a_edge23_Node000016_Node000007"><a xlink:title=" ">
<path fill="none" stroke="#63b8ff" d="M429.11,-169.92C441.72,-161.93 458.24,-149.48 467.86,-134.25 476.55,-120.5 480.52,-102.42 482.34,-88.64"/>
<polygon fill="#63b8ff" stroke="#63b8ff" points="485.9,-89.16 483.44,-78.85 478.94,-88.44 485.9,-89.16"/>
</a>
</g>
</g>
<!-- Node17&#45;&gt;Node7 -->
<g id="edge25_Node000017_Node000007" class="edge">
<title>Node17&#45;&gt;Node7</title>
<g id="a_edge25_Node000017_Node000007"><a xlink:title=" ">
<path fill="none" stroke="#63b8ff" d="M472.92,-226.58C476.61,-208.45 484.2,-168.42 486.86,-134.25 487.58,-125.06 487.17,-122.72 486.86,-113.5 486.6,-105.42 486.06,-96.55 485.52,-88.81"/>
<polygon fill="#63b8ff" stroke="#63b8ff" points="488.94,-88.56 484.69,-78.85 481.96,-89.09 488.94,-88.56"/>
</a>
</g>
</g>
</g>
</svg>
