<?xml version="1.0" encoding="UTF-8" standalone="no"?>
<!DOCTYPE svg PUBLIC "-//W3C//DTD SVG 1.1//EN"
 "http://www.w3.org/Graphics/SVG/1.1/DTD/svg11.dtd">
<!-- Generated by graphviz version 8.0.5 (20230430.1635)
 -->
<!-- Title: include/sqsh_common.h Pages: 1 -->
<svg width="280pt" height="666034pt"
 viewBox="0.00 0.00 279.75 666033.64" xmlns="http://www.w3.org/2000/svg" xmlns:xlink="http://www.w3.org/1999/xlink">
<g id="graph0" class="graph" transform="scale(1 1) rotate(0) translate(4 666029.64)">
<title>include/sqsh_common.h</title>
<!-- Node1 -->
<g id="node1" class="node">
<title>Node1</title>
<g id="a_node1"><a xlink:title=" ">
<polygon fill="#999999" stroke="#666666" points="226.5,-666025.64 53,-666025.64 53,-666007.14 226.5,-666007.14 226.5,-666025.64"/>
<text text-anchor="middle" x="139.75" y="-666012.14" font-family="Helvetica,sans-Serif" font-size="10.00">include/sqsh_common.h</text>
</a>
</g>
</g>
<!-- Node2 -->
<g id="node2" class="node">
<title>Node2</title>
<g id="a_node2"><a xlink:title=" ">
<polygon fill="#e0e0e0" stroke="#999999" points="83.5,-332994.82 0,-332994.82 0,-332976.32 83.5,-332976.32 83.5,-332994.82"/>
<text text-anchor="middle" x="41.75" y="-332981.32" font-family="Helvetica,sans-Serif" font-size="10.00">stdbool.h</text>
</a>
</g>
</g>
<!-- Node1&#45;&gt;Node2 -->
<g id="edge1" class="edge">
<title>Node1&#45;&gt;Node2</title>
<path fill="none" stroke="#63b8ff" d="M125.68,-666006.85C114.41,-665999.12 99.42,-665986.58 92.75,-665971.14 -21.39,-665706.98 41.19,-335921.76 41.75,-333006.02"/>
<polygon fill="#63b8ff" stroke="#63b8ff" points="45.25,-333006.12 41.75,-332996.12 38.25,-333006.12 45.25,-333006.12"/>
</g>
<!-- Node3 -->
<g id="node3" class="node">
<title>Node3</title>
<g id="a_node3"><a xlink:title=" ">
<polygon fill="#e0e0e0" stroke="#999999" points="177.75,-665971.14 101.75,-665971.14 101.75,0 177.75,0 177.75,-665971.14"/>
<text text-anchor="middle" x="139.75" y="-665957.64" font-family="Helvetica,sans-Serif" font-size="10.00">stddef.h</text>
</a>
</g>
</g>
<!-- Node1&#45;&gt;Node3 -->
<g id="edge2" class="edge">
<title>Node1&#45;&gt;Node3</title>
<path fill="none" stroke="#63b8ff" d="M139.75,-666006.84C139.75,-666001.31 139.75,-665993.1 139.75,-665982.24"/>
<polygon fill="#63b8ff" stroke="#63b8ff" points="143.25,-665982.51 139.75,-665972.51 136.25,-665982.51 143.25,-665982.51"/>
</g>
<!-- Node4 -->
<g id="node4" class="node">
<title>Node4</title>
<g id="a_node4"><a xlink:title=" ">
<polygon fill="#e0e0e0" stroke="#999999" points="271.75,-332998.57 195.75,-332998.57 195.75,-332972.57 271.75,-332972.57 271.75,-332998.57"/>
<text text-anchor="middle" x="233.75" y="-332985.07" font-family="Helvetica,sans-Serif" font-size="10.00">stdint.h</text>
</a>
</g>
</g>
<!-- Node1&#45;&gt;Node4 -->
<g id="edge3" class="edge">
<title>Node1&#45;&gt;Node4</title>
<path fill="none" stroke="#63b8ff" d="M153.82,-666006.85C165.09,-665999.12 180.08,-665986.58 186.75,-665971.14 300.84,-665707.09 234.4,-336204.57 233.75,-333009.95"/>
<polygon fill="#63b8ff" stroke="#63b8ff" points="237.25,-333010.05 233.75,-333000.05 230.25,-333010.05 237.25,-333010.05"/>
</g>
</g>
</svg>
