<?xml version="1.0" encoding="UTF-8" standalone="no"?>
<!DOCTYPE svg PUBLIC "-//W3C//DTD SVG 1.1//EN"
 "http://www.w3.org/Graphics/SVG/1.1/DTD/svg11.dtd">
<!-- Generated by graphviz version 7.0.4 (20221203.1631)
 -->
<!-- Title: sqsh_context_private.h Pages: 1 -->
<svg width="355pt" height="247pt"
 viewBox="0.00 0.00 354.59 247.00" xmlns="http://www.w3.org/2000/svg" xmlns:xlink="http://www.w3.org/1999/xlink">
<g id="graph0" class="graph" transform="scale(1 1) rotate(0) translate(4 243)">
<title>sqsh_context_private.h</title>
<!-- Node1 -->
<g id="node1" class="node">
<title>Node1</title>
<g id="a_node1"><a xlink:title=" ">
<polygon fill="#999999" stroke="#666666" points="309.75,-239 127.75,-239 127.75,-220 309.75,-220 309.75,-239"/>
<text text-anchor="middle" x="218.75" y="-227" font-family="Helvetica,sans-Serif" font-size="10.00">sqsh_context_private.h</text>
</a>
</g>
</g>
<!-- Node2 -->
<g id="node2" class="node">
<title>Node2</title>
<g id="a_node2"><a xlink:href="sqsh__mapper_8h.html" target="_top" xlink:title=" ">
<polygon fill="white" stroke="#666666" points="318.75,-184 204.75,-184 204.75,-165 318.75,-165 318.75,-184"/>
<text text-anchor="middle" x="261.75" y="-172" font-family="Helvetica,sans-Serif" font-size="10.00">sqsh_mapper.h</text>
</a>
</g>
</g>
<!-- Node1&#45;&gt;Node2 -->
<g id="edge1" class="edge">
<title>Node1&#45;&gt;Node2</title>
<path fill="none" stroke="#63b8ff" d="M225.85,-219.75C231.66,-212.58 240.08,-202.2 247.3,-193.3"/>
<polygon fill="#63b8ff" stroke="#63b8ff" points="249.96,-195.59 253.54,-185.62 244.52,-191.18 249.96,-195.59"/>
</g>
<!-- Node3 -->
<g id="node3" class="node">
<title>Node3</title>
<g id="a_node3"><a xlink:href="sqsh__primitive_8h.html" target="_top" xlink:title=" ">
<polygon fill="white" stroke="#666666" points="245.25,-129 108.25,-129 108.25,-110 245.25,-110 245.25,-129"/>
<text text-anchor="middle" x="176.75" y="-117" font-family="Helvetica,sans-Serif" font-size="10.00">sqsh_primitive.h</text>
</a>
</g>
</g>
<!-- Node1&#45;&gt;Node3 -->
<g id="edge11" class="edge">
<title>Node1&#45;&gt;Node3</title>
<path fill="none" stroke="#63b8ff" d="M213.48,-219.53C208.45,-210.71 200.89,-196.74 195.75,-184 189.99,-169.76 185.07,-153.1 181.68,-140.42"/>
<polygon fill="#63b8ff" stroke="#63b8ff" points="185.08,-139.58 179.2,-130.77 178.3,-141.33 185.08,-139.58"/>
</g>
<!-- Node2&#45;&gt;Node3 -->
<g id="edge2" class="edge">
<title>Node2&#45;&gt;Node3</title>
<path fill="none" stroke="#63b8ff" d="M247.33,-164.51C234.55,-156.54 215.65,-144.75 200.62,-135.38"/>
<polygon fill="#63b8ff" stroke="#63b8ff" points="202.58,-132.48 192.24,-130.16 198.87,-138.42 202.58,-132.48"/>
</g>
<!-- Node5 -->
<g id="node5" class="node">
<title>Node5</title>
<g id="a_node5"><a xlink:title=" ">
<polygon fill="#e0e0e0" stroke="#999999" points="280.25,-19 203.25,-19 203.25,0 280.25,0 280.25,-19"/>
<text text-anchor="middle" x="241.75" y="-7" font-family="Helvetica,sans-Serif" font-size="10.00">stddef.h</text>
</a>
</g>
</g>
<!-- Node2&#45;&gt;Node5 -->
<g id="edge9" class="edge">
<title>Node2&#45;&gt;Node5</title>
<path fill="none" stroke="#63b8ff" d="M275.57,-164.62C304.43,-144.95 366.29,-96.2 339.75,-55 328.84,-38.06 309.73,-27.5 291.26,-20.94"/>
<polygon fill="#63b8ff" stroke="#63b8ff" points="292.57,-17.68 281.98,-17.99 290.45,-24.35 292.57,-17.68"/>
</g>
<!-- Node6 -->
<g id="node6" class="node">
<title>Node6</title>
<g id="a_node6"><a xlink:title=" ">
<polygon fill="#e0e0e0" stroke="#999999" points="139.25,-19 62.25,-19 62.25,0 139.25,0 139.25,-19"/>
<text text-anchor="middle" x="100.75" y="-7" font-family="Helvetica,sans-Serif" font-size="10.00">stdint.h</text>
</a>
</g>
</g>
<!-- Node2&#45;&gt;Node6 -->
<g id="edge10" class="edge">
<title>Node2&#45;&gt;Node6</title>
<path fill="none" stroke="#63b8ff" d="M204.4,-170.97C141.38,-164.64 43.79,-143.46 3.75,-74 -10.46,-49.35 20.58,-32.57 51.25,-22.47"/>
<polygon fill="#63b8ff" stroke="#63b8ff" points="52.02,-25.9 60.56,-19.62 49.97,-19.2 52.02,-25.9"/>
</g>
<!-- Node7 -->
<g id="node7" class="node">
<title>Node7</title>
<g id="a_node7"><a xlink:title=" ">
<polygon fill="#e0e0e0" stroke="#999999" points="330.75,-74 246.75,-74 246.75,-55 330.75,-55 330.75,-74"/>
<text text-anchor="middle" x="288.75" y="-62" font-family="Helvetica,sans-Serif" font-size="10.00">pthread.h</text>
</a>
</g>
</g>
<!-- Node2&#45;&gt;Node7 -->
<g id="edge8" class="edge">
<title>Node2&#45;&gt;Node7</title>
<path fill="none" stroke="#63b8ff" d="M263.96,-164.66C268.25,-147.5 277.81,-109.26 283.72,-85.6"/>
<polygon fill="#63b8ff" stroke="#63b8ff" points="287.11,-86.48 286.14,-75.93 280.32,-84.78 287.11,-86.48"/>
</g>
<!-- Node4 -->
<g id="node4" class="node">
<title>Node4</title>
<g id="a_node4"><a xlink:href="sqsh__common_8h.html" target="_top" xlink:title=" ">
<polygon fill="white" stroke="#666666" points="228.75,-74 114.75,-74 114.75,-55 228.75,-55 228.75,-74"/>
<text text-anchor="middle" x="171.75" y="-62" font-family="Helvetica,sans-Serif" font-size="10.00">sqsh_common.h</text>
</a>
</g>
</g>
<!-- Node3&#45;&gt;Node4 -->
<g id="edge3" class="edge">
<title>Node3&#45;&gt;Node4</title>
<path fill="none" stroke="#63b8ff" d="M175.92,-109.75C175.31,-103.27 174.45,-94.16 173.67,-85.9"/>
<polygon fill="#63b8ff" stroke="#63b8ff" points="177.16,-85.58 172.73,-75.95 170.19,-86.23 177.16,-85.58"/>
</g>
<!-- Node3&#45;&gt;Node7 -->
<g id="edge6" class="edge">
<title>Node3&#45;&gt;Node7</title>
<path fill="none" stroke="#63b8ff" d="M195.75,-109.51C213.31,-101.2 239.66,-88.73 259.84,-79.18"/>
<polygon fill="#63b8ff" stroke="#63b8ff" points="261.12,-82.45 268.66,-75.01 258.12,-76.12 261.12,-82.45"/>
</g>
<!-- Node8 -->
<g id="node8" class="node">
<title>Node8</title>
<g id="a_node8"><a xlink:title=" ">
<polygon fill="#e0e0e0" stroke="#999999" points="96.75,-74 12.75,-74 12.75,-55 96.75,-55 96.75,-74"/>
<text text-anchor="middle" x="54.75" y="-62" font-family="Helvetica,sans-Serif" font-size="10.00">stdbool.h</text>
</a>
</g>
</g>
<!-- Node3&#45;&gt;Node8 -->
<g id="edge7" class="edge">
<title>Node3&#45;&gt;Node8</title>
<path fill="none" stroke="#63b8ff" d="M156.05,-109.51C136.74,-101.12 107.68,-88.5 85.63,-78.92"/>
<polygon fill="#63b8ff" stroke="#63b8ff" points="87.09,-75.74 76.53,-74.96 84.3,-82.16 87.09,-75.74"/>
</g>
<!-- Node4&#45;&gt;Node5 -->
<g id="edge4" class="edge">
<title>Node4&#45;&gt;Node5</title>
<path fill="none" stroke="#63b8ff" d="M183.62,-54.51C193.84,-46.77 208.82,-35.43 221.01,-26.2"/>
<polygon fill="#63b8ff" stroke="#63b8ff" points="222.98,-29.1 228.84,-20.27 218.76,-23.52 222.98,-29.1"/>
</g>
<!-- Node4&#45;&gt;Node6 -->
<g id="edge5" class="edge">
<title>Node4&#45;&gt;Node6</title>
<path fill="none" stroke="#63b8ff" d="M159.7,-54.51C149.34,-46.77 134.15,-35.43 121.78,-26.2"/>
<polygon fill="#63b8ff" stroke="#63b8ff" points="123.93,-23.44 113.83,-20.26 119.75,-29.05 123.93,-23.44"/>
</g>
</g>
</svg>
