<?xml version="1.0" encoding="UTF-8" standalone="no"?>
<!DOCTYPE svg PUBLIC "-//W3C//DTD SVG 1.1//EN"
 "http://www.w3.org/Graphics/SVG/1.1/DTD/svg11.dtd">
<!-- Generated by graphviz version 8.0.5 (20230430.1635)
 -->
<!-- Title: include/sqsh_reader_private.h Pages: 1 -->
<!--zoomable 2538394 -->
<svg id="main" version="1.1" xmlns="http://www.w3.org/2000/svg" xmlns:xlink="http://www.w3.org/1999/xlink" xml:space="preserve" onload="init(evt)">
<style type="text/css"><![CDATA[
.edge:hover path { stroke: red; }
.edge:hover polygon { stroke: red; fill: red; }
]]></style>
<script type="text/javascript"><![CDATA[
var edges = document.getElementsByTagName('g');
if (edges && edges.length) {
  for (var i=0;i<edges.length;i++) {
    if (edges[i].id.substr(0,4)=='edge') {
      edges[i].setAttribute('class','edge');
    }
  }
}
]]></script>
        <defs>
                <circle id="rim" cx="0" cy="0" r="7"/>
                <circle id="rim2" cx="0" cy="0" r="3.5"/>
                <g id="zoomPlus">
                        <use xlink:href="#rim" fill="#404040">
                                <set attributeName="fill" to="#808080" begin="zoomplus.mouseover" end="zoomplus.mouseout"/>
                        </use>
                        <path d="M-4,0h8M0,-4v8" fill="none" stroke="white" stroke-width="1.5" pointer-events="none"/>
                </g>
                <g id="zoomMin">
                        <use xlink:href="#rim" fill="#404040">
                                <set attributeName="fill" to="#808080" begin="zoomminus.mouseover" end="zoomminus.mouseout"/>
                        </use>
                        <path d="M-4,0h8" fill="none" stroke="white" stroke-width="1.5" pointer-events="none"/>
                </g>
                <g id="dirArrow">
                        <path fill="none" stroke="white" stroke-width="1.5" d="M0,-3.0v7 M-2.5,-0.5L0,-3.0L2.5,-0.5"/>
                </g>
               <g id="resetDef">
                       <use xlink:href="#rim2" fill="#404040">
                               <set attributeName="fill" to="#808080" begin="reset.mouseover" end="reset.mouseout"/>
                       </use>
               </g>
        </defs>

<script type="text/javascript">
var viewWidth = 505;
var viewHeight = 2538394;
var sectionId = 'dynsection-1';
</script>
<script xlink:href="svgpan.js"/>
<svg id="graph" class="graph">
<g id="viewport">
<title>include/sqsh_reader_private.h</title>
<!-- Node1 -->
<g id="node1" class="node">
<title>Node1</title>
<g id="a_node1"><a xlink:title=" ">
<polygon fill="#999999" stroke="#666666" points="212.5,-2538386.31 54,-2538386.31 54,-2538357.31 212.5,-2538357.31 212.5,-2538386.31"/>
<text text-anchor="start" x="62" y="-2538372.81" font-family="Helvetica,sans-Serif" font-size="10.00">include/sqsh_reader</text>
<text text-anchor="middle" x="133.25" y="-2538362.31" font-family="Helvetica,sans-Serif" font-size="10.00">_private.h</text>
</a>
</g>
</g>
<!-- Node2 -->
<g id="node2" class="node">
<title>Node2</title>
<g id="a_node2"><a xlink:href="sqsh__file__private_8h.html" target="_top" xlink:title=" ">
<polygon fill="white" stroke="#666666" points="218.5,-951918.08 0,-951918.08 0,-951899.58 218.5,-951899.58 218.5,-951918.08"/>
<text text-anchor="middle" x="109.25" y="-951904.58" font-family="Helvetica,sans-Serif" font-size="10.00">include/sqsh_file_private.h</text>
</a>
</g>
</g>
<!-- Node1&#45;&gt;Node2 -->
<g id="edge1" class="edge">
<title>Node1&#45;&gt;Node2</title>
<path fill="none" stroke="#63b8ff" d="M128.12,-2538346.59C122.59,-2538319.08 114.18,-2538272.78 111.25,-2538232.45 -88.35,-2535489.37 108.72,-956159.74 109.25,-951918.38"/>
<polygon fill="#63b8ff" stroke="#63b8ff" points="124.85,-2538347.06 130.29,-2538356.15 131.7,-2538345.65 124.85,-2538347.06"/>
</g>
<!-- Node6 -->
<g id="node6" class="node">
<title>Node6</title>
<g id="a_node6"><a xlink:href="sqsh__mapper__private_8h.html" target="_top" xlink:title=" ">
<polygon fill="white" stroke="#666666" points="291.5,-2538321.31 133,-2538321.31 133,-2538268.45 291.5,-2538268.45 291.5,-2538321.31"/>
<text text-anchor="start" x="141" y="-2538307.81" font-family="Helvetica,sans-Serif" font-size="10.00">include/sqsh_mapper</text>
<text text-anchor="middle" x="212.25" y="-2538273.45" font-family="Helvetica,sans-Serif" font-size="10.00">_private.h</text>
</a>
</g>
</g>
<!-- Node1&#45;&gt;Node6 -->
<g id="edge6" class="edge">
<title>Node1&#45;&gt;Node6</title>
<path fill="none" stroke="#63b8ff" d="M155.64,-2538349.57C164.8,-2538340.89 175.47,-2538330.76 185.07,-2538321.66"/>
<polygon fill="#63b8ff" stroke="#63b8ff" points="153.59,-2538346.64 148.74,-2538356.07 158.4,-2538351.72 153.59,-2538346.64"/>
</g>
<!-- Node3 -->
<g id="node3" class="node">
<title>Node3</title>
<g id="a_node3"><a xlink:href="sqsh__archive__private_8h.html" target="_top" xlink:title=" ">
<polygon fill="white" stroke="#666666" points="468.25,-317353.39 302.25,-317353.39 302.25,-317300.53 468.25,-317300.53 468.25,-317353.39"/>
<text text-anchor="start" x="310.25" y="-317339.89" font-family="Helvetica,sans-Serif" font-size="10.00">include/sqsh_archive</text>
<text text-anchor="middle" x="385.25" y="-317305.53" font-family="Helvetica,sans-Serif" font-size="10.00">_private.h</text>
</a>
</g>
</g>
<!-- Node2&#45;&gt;Node3 -->
<g id="edge2" class="edge">
<title>Node2&#45;&gt;Node3</title>
<path fill="none" stroke="#63b8ff" d="M109.26,-951888.62C110.73,-949781.6 232.28,-774774.39 293.25,-634599.43 354.15,-494571.04 384.82,-319779.12 385.25,-317353.49"/>
<polygon fill="#63b8ff" stroke="#63b8ff" points="105.76,-951888.26 109.26,-951898.26 112.76,-951888.26 105.76,-951888.26"/>
</g>
<!-- Node4 -->
<g id="node4" class="node">
<title>Node4</title>
<g id="a_node4"><a xlink:href="sqsh__directory__private_8h.html" target="_top" xlink:title=" ">
<polygon fill="white" stroke="#666666" points="283.75,-634599.43 102.75,-634599.43 102.75,-54.5 283.75,-54.5 283.75,-634599.43"/>
<text text-anchor="start" x="110.75" y="-634585.93" font-family="Helvetica,sans-Serif" font-size="10.00">include/sqsh_directory</text>
<text text-anchor="middle" x="193.25" y="-634575.43" font-family="Helvetica,sans-Serif" font-size="10.00">_private.h</text>
</a>
</g>
</g>
<!-- Node2&#45;&gt;Node4 -->
<g id="edge3" class="edge">
<title>Node2&#45;&gt;Node4</title>
<path fill="none" stroke="#63b8ff" d="M109.25,-951888.38C109.52,-949877.21 130.39,-792235.57 151.25,-634599.87"/>
<polygon fill="#63b8ff" stroke="#63b8ff" points="105.75,-951888.15 109.25,-951898.15 112.75,-951888.15 105.75,-951888.15"/>
</g>
<!-- Node5 -->
<g id="node5" class="node">
<title>Node5</title>
<g id="a_node5"><a xlink:href="sqsh__tree__private_8h.html" target="_top" xlink:title=" ">
<polygon fill="white" stroke="#666666" points="242.5,-18.5 24,-18.5 24,0 242.5,0 242.5,-18.5"/>
<text text-anchor="middle" x="133.25" y="-5" font-family="Helvetica,sans-Serif" font-size="10.00">include/sqsh_tree_private.h</text>
</a>
</g>
</g>
<!-- Node2&#45;&gt;Node5 -->
<g id="edge5" class="edge">
<title>Node2&#45;&gt;Node5</title>
<path fill="none" stroke="#63b8ff" d="M109.25,-951888.62C109.1,-949781.6 96.78,-774774.38 93.25,-634599.43 93.24,-634048.61 -104.65,-568.54 93.25,-54.5 98.91,-39.81 111.95,-26.96 121.61,-18.95"/>
<polygon fill="#63b8ff" stroke="#63b8ff" points="105.75,-951888.26 109.25,-951898.26 112.75,-951888.26 105.75,-951888.26"/>
</g>
<!-- Node4&#45;&gt;Node5 -->
<g id="edge4" class="edge">
<title>Node4&#45;&gt;Node5</title>
<path fill="none" stroke="#63b8ff" d="M133.26,-43.16C133.25,-32.53 133.25,-24.46 133.25,-18.98"/>
<polygon fill="#63b8ff" stroke="#63b8ff" points="129.76,-43.14 133.26,-53.14 136.76,-43.14 129.76,-43.14"/>
</g>
<!-- Node6&#45;&gt;Node2 -->
<g id="edge7" class="edge">
<title>Node6&#45;&gt;Node2</title>
<path fill="none" stroke="#63b8ff" d="M159.72,-2538261.24C150.62,-2538253.03 142.43,-2538243.39 137.25,-2538232.45 137.25,-2538232.45 109.33,-956167.11 109.25,-951918.4"/>
<polygon fill="#63b8ff" stroke="#63b8ff" points="156.98,-2538264.35 166.9,-2538268.09 161.48,-2538258.99 156.98,-2538264.35"/>
</g>
<!-- Node7 -->
<g id="node7" class="node">
<title>Node7</title>
<g id="a_node7"><a xlink:href="sqsh__metablock__private_8h.html" target="_top" xlink:title=" ">
<polygon fill="white" stroke="#666666" points="327.75,-2538232.45 146.75,-2538232.45 146.75,-1269218.23 327.75,-1269218.23 327.75,-2538232.45"/>
<text text-anchor="start" x="154.75" y="-2538218.95" font-family="Helvetica,sans-Serif" font-size="10.00">include/sqsh_metablock</text>
<text text-anchor="middle" x="237.25" y="-1903690.86" font-family="Helvetica,sans-Serif" font-size="10.00">_private.h</text>
</a>
</g>
</g>
<!-- Node6&#45;&gt;Node7 -->
<g id="edge8" class="edge">
<title>Node6&#45;&gt;Node7</title>
<path fill="none" stroke="#63b8ff" d="M212.25,-2538257.08C212.25,-2538250.04 212.25,-2538241.99 212.25,-2538232.93"/>
<polygon fill="#63b8ff" stroke="#63b8ff" points="208.75,-2538256.99 212.25,-2538266.99 215.75,-2538256.99 208.75,-2538256.99"/>
</g>
<!-- Node9 -->
<g id="node9" class="node">
<title>Node9</title>
<g id="a_node9"><a xlink:href="sqsh__table__private_8h.html" target="_top" xlink:title=" ">
<polygon fill="white" stroke="#666666" points="496.75,-1903751.77 345.75,-1903751.77 345.75,-1903698.91 496.75,-1903698.91 496.75,-1903751.77"/>
<text text-anchor="start" x="353.75" y="-1903738.27" font-family="Helvetica,sans-Serif" font-size="10.00">include/sqsh_table</text>
<text text-anchor="middle" x="421.25" y="-1903727.77" font-family="Helvetica,sans-Serif" font-size="10.00">_private.h</text>
</a>
</g>
</g>
<!-- Node6&#45;&gt;Node9 -->
<g id="edge13" class="edge">
<title>Node6&#45;&gt;Node9</title>
<path fill="none" stroke="#63b8ff" d="M301.36,-2538265.76C315.63,-2538257.31 328.55,-2538246.42 337.25,-2538232.45 627.38,-2537766.67 422.77,-1908400.24 421.26,-1903752.21"/>
<polygon fill="#63b8ff" stroke="#63b8ff" points="299.91,-2538263.11 292.81,-2538270.97 303.27,-2538269.25 299.91,-2538263.11"/>
</g>
<!-- Node7&#45;&gt;Node2 -->
<g id="edge10" class="edge">
<title>Node7&#45;&gt;Node2</title>
<path fill="none" stroke="#63b8ff" d="M151.92,-1269206.86C128.52,-1095238.19 109.42,-953198.1 109.25,-951918.54"/>
<polygon fill="#63b8ff" stroke="#63b8ff" points="148.42,-1269206.81 151.92,-1269216.81 155.42,-1269206.81 148.42,-1269206.81"/>
</g>
<!-- Node7&#45;&gt;Node4 -->
<g id="edge9" class="edge">
<title>Node7&#45;&gt;Node4</title>
<path fill="none" stroke="#63b8ff" d="M244.61,-1269207.26C243.65,-1066453.04 239.12,-841097.51 227.25,-634635.43 227.25,-634623.59 227.25,-634611.76 227.25,-634599.92"/>
<polygon fill="#63b8ff" stroke="#63b8ff" points="241.11,-1269206.99 244.61,-1269216.99 248.11,-1269206.99 241.11,-1269206.99"/>
</g>
<!-- Node8 -->
<g id="node8" class="node">
<title>Node8</title>
<g id="a_node8"><a xlink:href="sqsh__xattr__private_8h.html" target="_top" xlink:title=" ">
<polygon fill="white" stroke="#666666" points="460.75,-1269182.23 309.75,-1269182.23 309.75,-634635.43 460.75,-634635.43 460.75,-1269182.23"/>
<text text-anchor="start" x="317.75" y="-1269168.73" font-family="Helvetica,sans-Serif" font-size="10.00">include/sqsh_xattr</text>
<text text-anchor="middle" x="385.25" y="-634640.43" font-family="Helvetica,sans-Serif" font-size="10.00">_private.h</text>
</a>
</g>
</g>
<!-- Node7&#45;&gt;Node8 -->
<g id="edge11" class="edge">
<title>Node7&#45;&gt;Node8</title>
<path fill="none" stroke="#63b8ff" d="M328.25,-1318476.53C330.84,-1301827.3 333.4,-1285366.82 335.92,-1269182.71"/>
<polygon fill="#63b8ff" stroke="#63b8ff" points="324.75,-1318476.2 328.25,-1318486.2 331.75,-1318476.2 324.75,-1318476.2"/>
</g>
<!-- Node8&#45;&gt;Node3 -->
<g id="edge12" class="edge">
<title>Node8&#45;&gt;Node3</title>
<path fill="none" stroke="#63b8ff" d="M385.25,-634624.33C385.25,-477148.89 385.25,-319671.35 385.25,-317353.86"/>
<polygon fill="#63b8ff" stroke="#63b8ff" points="381.75,-634624.14 385.25,-634634.14 388.75,-634624.14 381.75,-634624.14"/>
</g>
<!-- Node9&#45;&gt;Node8 -->
<g id="edge14" class="edge">
<title>Node9&#45;&gt;Node8</title>
<path fill="none" stroke="#63b8ff" d="M421.25,-1903687.77C421.09,-1899545.65 407.66,-1544401.81 397.25,-1269182.43"/>
<polygon fill="#63b8ff" stroke="#63b8ff" points="417.75,-1903687.59 421.25,-1903697.59 424.75,-1903687.59 417.75,-1903687.59"/>
</g>
</g>
</svg>
        <g id="navigator" transform="translate(0 0)" fill="#404254">
                <rect fill="#f2f5e9" fill-opacity="0.5" stroke="#606060" stroke-width=".5" x="0" y="0" width="60" height="60"/>
                <use id="zoomplus" xlink:href="#zoomPlus" x="17" y="9" onmousedown="handleZoom(evt,'in')"/>
                <use id="zoomminus" xlink:href="#zoomMin" x="42" y="9" onmousedown="handleZoom(evt,'out')"/>
                <use id="reset" xlink:href="#resetDef" x="30" y="36" onmousedown="handleReset()"/>
                <g id="arrowUp" xlink:href="#dirArrow" transform="translate(30 24)" onmousedown="handlePan(0,-1)">
                  <use xlink:href="#rim" fill="#404040">
                        <set attributeName="fill" to="#808080" begin="arrowUp.mouseover" end="arrowUp.mouseout"/>
                  </use>
                  <path fill="none" stroke="white" stroke-width="1.5" d="M0,-3.0v7 M-2.5,-0.5L0,-3.0L2.5,-0.5"/>
                </g>
                <g id="arrowRight" xlink:href="#dirArrow" transform="rotate(90) translate(36 -43)" onmousedown="handlePan(1,0)">
                  <use xlink:href="#rim" fill="#404040">
                        <set attributeName="fill" to="#808080" begin="arrowRight.mouseover" end="arrowRight.mouseout"/>
                  </use>
                  <path fill="none" stroke="white" stroke-width="1.5" d="M0,-3.0v7 M-2.5,-0.5L0,-3.0L2.5,-0.5"/>
                </g>
                <g id="arrowDown" xlink:href="#dirArrow" transform="rotate(180) translate(-30 -48)" onmousedown="handlePan(0,1)">
                  <use xlink:href="#rim" fill="#404040">
                        <set attributeName="fill" to="#808080" begin="arrowDown.mouseover" end="arrowDown.mouseout"/>
                  </use>
                  <path fill="none" stroke="white" stroke-width="1.5" d="M0,-3.0v7 M-2.5,-0.5L0,-3.0L2.5,-0.5"/>
                </g>
                <g id="arrowLeft" xlink:href="#dirArrow" transform="rotate(270) translate(-36 17)" onmousedown="handlePan(-1,0)">
                  <use xlink:href="#rim" fill="#404040">
                        <set attributeName="fill" to="#808080" begin="arrowLeft.mouseover" end="arrowLeft.mouseout"/>
                  </use>
                  <path fill="none" stroke="white" stroke-width="1.5" d="M0,-3.0v7 M-2.5,-0.5L0,-3.0L2.5,-0.5"/>
                </g>
        </g>
        <svg viewBox="0 0 15 15" width="100%" height="30px" preserveAspectRatio="xMaxYMin meet">
         <g id="arrow_out" transform="scale(0.3 0.3)">
          <a xlink:href="sqsh__reader__private_8h__dep__incl_org.svg" target="_base">
           <rect id="button" ry="5" rx="5" y="6" x="6" height="38" width="38"
                fill="#f2f5e9" fill-opacity="0.5" stroke="#606060" stroke-width="1.0"/>
           <path id="arrow"
             d="M 11.500037,31.436501 C 11.940474,20.09759 22.043105,11.32322 32.158766,21.979434 L 37.068811,17.246167 C 37.068811,17.246167 37.088388,32 37.088388,32 L 22.160133,31.978069 C 22.160133,31.978069 26.997745,27.140456 26.997745,27.140456 C 18.528582,18.264221 13.291696,25.230495 11.500037,31.436501 z"
             style="fill:#404040;"/>
          </a>
         </g>
        </svg>
</svg>
