<?xml version="1.0" encoding="UTF-8" standalone="no"?>
<!DOCTYPE svg PUBLIC "-//W3C//DTD SVG 1.1//EN"
 "http://www.w3.org/Graphics/SVG/1.1/DTD/svg11.dtd">
<!-- Generated by graphviz version 8.0.5 (20230430.1635)
 -->
<!-- Title: include/sqsh_table_private.h Pages: 1 -->
<svg width="174pt" height="2475814pt"
 viewBox="0.00 0.00 174.00 2475814.44" xmlns="http://www.w3.org/2000/svg" xmlns:xlink="http://www.w3.org/1999/xlink">
<g id="graph0" class="graph" transform="scale(1 1) rotate(0) translate(4 2475810.44)">
<title>include/sqsh_table_private.h</title>
<!-- Node1 -->
<g id="node1" class="node">
<title>Node1</title>
<g id="a_node1"><a xlink:title=" ">
<polygon fill="#999999" stroke="#666666" points="158.5,-2475806.44 7.5,-2475806.44 7.5,-2475777.44 158.5,-2475777.44 158.5,-2475806.44"/>
<text text-anchor="start" x="15.5" y="-2475792.94" font-family="Helvetica,sans-Serif" font-size="10.00">include/sqsh_table</text>
<text text-anchor="middle" x="83" y="-2475782.44" font-family="Helvetica,sans-Serif" font-size="10.00">_private.h</text>
</a>
</g>
</g>
<!-- Node2 -->
<g id="node2" class="node">
<title>Node2</title>
<g id="a_node2"><a xlink:href="sqsh__xattr__private_8h.html" target="_top" xlink:title=" ">
<polygon fill="white" stroke="#666666" points="158.5,-2475741.44 7.5,-2475741.44 7.5,-72.5 158.5,-72.5 158.5,-2475741.44"/>
<text text-anchor="start" x="15.5" y="-2475727.94" font-family="Helvetica,sans-Serif" font-size="10.00">include/sqsh_xattr</text>
<text text-anchor="middle" x="83" y="-1237897.52" font-family="Helvetica,sans-Serif" font-size="10.00">_private.h</text>
</a>
</g>
</g>
<!-- Node1&#45;&gt;Node2 -->
<g id="edge1" class="edge">
<title>Node1&#45;&gt;Node2</title>
<path fill="none" stroke="#63b8ff" d="M83,-2475766.23C83,-2475759.46 83,-2475751.3 83,-2475741.76"/>
<polygon fill="#63b8ff" stroke="#63b8ff" points="79.5,-2475766.23 83,-2475776.23 86.5,-2475766.23 79.5,-2475766.23"/>
</g>
<!-- Node3 -->
<g id="node3" class="node">
<title>Node3</title>
<g id="a_node3"><a xlink:href="sqsh__archive__private_8h.html" target="_top" xlink:title=" ">
<polygon fill="white" stroke="#666666" points="166,-36.5 0,-36.5 0,0 166,0 166,-36.5"/>
<text text-anchor="start" x="8" y="-23" font-family="Helvetica,sans-Serif" font-size="10.00">include/sqsh_archive</text>
<text text-anchor="middle" x="83" y="-12.5" font-family="Helvetica,sans-Serif" font-size="10.00">_private.h</text>
</a>
</g>
</g>
<!-- Node2&#45;&gt;Node3 -->
<g id="edge2" class="edge">
<title>Node2&#45;&gt;Node3</title>
<path fill="none" stroke="#63b8ff" d="M83,-61.4C83,-51.54 83,-43.4 83,-37"/>
<polygon fill="#63b8ff" stroke="#63b8ff" points="79.5,-61.3 83,-71.3 86.5,-61.3 79.5,-61.3"/>
</g>
</g>
</svg>
