<?xml version="1.0" encoding="UTF-8" standalone="no"?>
<!DOCTYPE svg PUBLIC "-//W3C//DTD SVG 1.1//EN"
 "http://www.w3.org/Graphics/SVG/1.1/DTD/svg11.dtd">
<!-- Generated by graphviz version 8.0.5 (20230430.1635)
 -->
<!-- Title: include/sqsh_xattr_private.h Pages: 1 -->
<svg width="777pt" height="2982095pt"
 viewBox="0.00 0.00 777.15 2982095.27" xmlns="http://www.w3.org/2000/svg" xmlns:xlink="http://www.w3.org/1999/xlink">
<g id="graph0" class="graph" transform="scale(1 1) rotate(0) translate(4 2982091.27)">
<title>include/sqsh_xattr_private.h</title>
<!-- Node1 -->
<g id="node1" class="node">
<title>Node1</title>
<g id="a_node1"><a xlink:title=" ">
<polygon fill="#999999" stroke="#666666" points="505.65,-2982087.27 354.65,-2982087.27 354.65,-2523847.96 505.65,-2523847.96 505.65,-2982087.27"/>
<text text-anchor="start" x="362.65" y="-2982073.77" font-family="Helvetica,sans-Serif" font-size="10.00">include/sqsh_xattr</text>
<text text-anchor="middle" x="430.15" y="-2523852.96" font-family="Helvetica,sans-Serif" font-size="10.00">_private.h</text>
</a>
</g>
</g>
<!-- Node2 -->
<g id="node2" class="node">
<title>Node2</title>
<g id="a_node2"><a xlink:href="sqsh__metablock__private_8h.html" target="_top" xlink:title=" ">
<polygon fill="white" stroke="#666666" points="329.15,-1949536.13 133.15,-1949536.13 133.15,-1949517.63 329.15,-1949517.63 329.15,-1949536.13"/>
<text text-anchor="middle" x="231.15" y="-1949522.63" font-family="Helvetica,sans-Serif" font-size="10.00">sqsh_metablock_private.h</text>
</a>
</g>
</g>
<!-- Node1&#45;&gt;Node2 -->
<g id="edge1" class="edge">
<title>Node1&#45;&gt;Node2</title>
<path fill="none" stroke="#63b8ff" d="M354.15,-2572763.9C348.28,-2556213.59 342.82,-2539702.85 338.15,-2523811.96 263.48,-2269726.24 231.44,-1952405.69 231.15,-1949547.33"/>
<polygon fill="#63b8ff" stroke="#63b8ff" points="234.65,-1949547.43 231.15,-1949537.43 227.65,-1949547.44 234.65,-1949547.43"/>
</g>
<!-- Node15 -->
<g id="node15" class="node">
<title>Node15</title>
<g id="a_node15"><a xlink:href="sqsh__table__private_8h.html" target="_top" xlink:title=" ">
<polygon fill="white" stroke="#666666" points="513.15,-2523811.96 347.15,-2523811.96 347.15,-1375241.81 513.15,-1375241.81 513.15,-2523811.96"/>
<text text-anchor="middle" x="430.15" y="-2523798.46" font-family="Helvetica,sans-Serif" font-size="10.00">sqsh_table_private.h</text>
</a>
</g>
</g>
<!-- Node1&#45;&gt;Node15 -->
<g id="edge19" class="edge">
<title>Node1&#45;&gt;Node15</title>
<path fill="none" stroke="#63b8ff" d="M430.15,-2523847.63C430.15,-2523839.44 430.15,-2523831.25 430.15,-2523823.07"/>
<polygon fill="#63b8ff" stroke="#63b8ff" points="433.65,-2523823.3 430.15,-2523813.3 426.65,-2523823.3 433.65,-2523823.3"/>
</g>
<!-- Node17 -->
<g id="node17" class="node">
<title>Node17</title>
<g id="a_node17"><a xlink:href="sqsh__xattr_8h.html" target="_top" xlink:title=" ">
<polygon fill="white" stroke="#666666" points="686.15,-1949536.13 580.15,-1949536.13 580.15,-1949517.63 686.15,-1949517.63 686.15,-1949536.13"/>
<text text-anchor="middle" x="633.15" y="-1949522.63" font-family="Helvetica,sans-Serif" font-size="10.00">sqsh_xattr.h</text>
</a>
</g>
</g>
<!-- Node1&#45;&gt;Node17 -->
<g id="edge24" class="edge">
<title>Node1&#45;&gt;Node17</title>
<path fill="none" stroke="#63b8ff" d="M506.15,-2572432.21C512.01,-2555993.01 517.46,-2539596.69 522.15,-2523811.96 597.71,-2269726.24 632.83,-1952405.69 633.15,-1949547.33"/>
<polygon fill="#63b8ff" stroke="#63b8ff" points="636.65,-1949547.44 633.15,-1949537.43 629.65,-1949547.43 636.65,-1949547.44"/>
</g>
<!-- Node3 -->
<g id="node3" class="node">
<title>Node3</title>
<g id="a_node3"><a xlink:href="sqsh__extract__private_8h.html" target="_top" xlink:title=" ">
<polygon fill="white" stroke="#666666" points="224.65,-1146047.46 43.65,-1146047.46 43.65,-1146021.46 224.65,-1146021.46 224.65,-1146047.46"/>
<text text-anchor="middle" x="134.15" y="-1146033.96" font-family="Helvetica,sans-Serif" font-size="10.00">sqsh_extract_private.h</text>
</a>
</g>
</g>
<!-- Node2&#45;&gt;Node3 -->
<g id="edge2" class="edge">
<title>Node2&#45;&gt;Node3</title>
<path fill="none" stroke="#63b8ff" d="M231.15,-1949517.27C230.79,-1946497.63 134.75,-1151007.94 134.16,-1146058.65"/>
<polygon fill="#63b8ff" stroke="#63b8ff" points="137.66,-1146058.69 134.15,-1146048.69 130.66,-1146058.69 137.66,-1146058.69"/>
</g>
<!-- Node11 -->
<g id="node11" class="node">
<title>Node11</title>
<g id="a_node11"><a xlink:href="sqsh__mapper__private_8h.html" target="_top" xlink:title=" ">
<polygon fill="white" stroke="#666666" points="417.9,-1375148.57 244.4,-1375148.57 244.4,-916920.35 417.9,-916920.35 417.9,-1375148.57"/>
<text text-anchor="middle" x="331.15" y="-1375135.07" font-family="Helvetica,sans-Serif" font-size="10.00">sqsh_mapper_private.h</text>
</a>
</g>
</g>
<!-- Node2&#45;&gt;Node11 -->
<g id="edge10" class="edge">
<title>Node2&#45;&gt;Node11</title>
<path fill="none" stroke="#63b8ff" d="M231.15,-1949517.27C231.4,-1947557.96 273.17,-1611958.2 302.64,-1375159.66"/>
<polygon fill="#63b8ff" stroke="#63b8ff" points="306.14,-1375159.82 302.64,-1375149.82 299.14,-1375159.82 306.14,-1375159.82"/>
</g>
<!-- Node4 -->
<g id="node4" class="node">
<title>Node4</title>
<g id="a_node4"><a xlink:title=" ">
<polygon fill="#e0e0e0" stroke="#999999" points="343.15,-687580.52 177.15,-687580.52 177.15,-687562.02 343.15,-687562.02 343.15,-687580.52"/>
<text text-anchor="middle" x="260.15" y="-687567.02" font-family="Helvetica,sans-Serif" font-size="10.00">cextras/collection.h</text>
</a>
</g>
</g>
<!-- Node3&#45;&gt;Node4 -->
<g id="edge3" class="edge">
<title>Node3&#45;&gt;Node4</title>
<path fill="none" stroke="#63b8ff" d="M134.15,-1146021.18C133.28,-1144588.69 57.03,-1018118.37 35.15,-916827.12 35.15,-916808.31 23.72,-916799.73 35.15,-916784.79 72.37,-916736.16 130.93,-916797.42 168.15,-916748.79 649.33,-916120.31 264.28,-689990.16 260.19,-687591.48"/>
<polygon fill="#63b8ff" stroke="#63b8ff" points="263.68,-687591.83 260.17,-687581.84 256.68,-687591.84 263.68,-687591.83"/>
</g>
<!-- Node5 -->
<g id="node5" class="node">
<title>Node5</title>
<g id="a_node5"><a xlink:href="sqsh__thread__private_8h.html" target="_top" xlink:title=" ">
<polygon fill="white" stroke="#666666" points="217.9,-916815.2 44.4,-916815.2 44.4,-916796.7 217.9,-916796.7 217.9,-916815.2"/>
<text text-anchor="middle" x="131.15" y="-916801.7" font-family="Helvetica,sans-Serif" font-size="10.00">sqsh_thread_private.h</text>
</a>
</g>
</g>
<!-- Node3&#45;&gt;Node5 -->
<g id="edge4" class="edge">
<title>Node3&#45;&gt;Node5</title>
<path fill="none" stroke="#63b8ff" d="M134.15,-1146021.3C134.13,-1144116.94 131.18,-919211.72 131.15,-916826.07"/>
<polygon fill="#63b8ff" stroke="#63b8ff" points="134.65,-916826.48 131.15,-916816.48 127.65,-916826.48 134.65,-916826.48"/>
</g>
<!-- Node6 -->
<g id="node6" class="node">
<title>Node6</title>
<g id="a_node6"><a xlink:title=" ">
<polygon fill="#e0e0e0" stroke="#999999" points="158.9,-916685.65 75.4,-916685.65 75.4,-458456.88 158.9,-458456.88 158.9,-916685.65"/>
<text text-anchor="middle" x="117.15" y="-916672.15" font-family="Helvetica,sans-Serif" font-size="10.00">pthread.h</text>
</a>
</g>
</g>
<!-- Node5&#45;&gt;Node6 -->
<g id="edge5" class="edge">
<title>Node5&#45;&gt;Node6</title>
<path fill="none" stroke="#63b8ff" d="M131.15,-916796.36C131.15,-916781.73 131.15,-916748.47 131.15,-916696.91"/>
<polygon fill="#63b8ff" stroke="#63b8ff" points="134.65,-916697 131.15,-916687 127.65,-916697 134.65,-916697"/>
</g>
<!-- Node7 -->
<g id="node7" class="node">
<title>Node7</title>
<g id="a_node7"><a xlink:href="sqsh__common_8h.html" target="_top" xlink:title=" ">
<polygon fill="white" stroke="#666666" points="693.9,-916748.79 580.4,-916748.79 580.4,-458393.74 693.9,-458393.74 693.9,-916748.79"/>
<text text-anchor="middle" x="637.15" y="-916735.29" font-family="Helvetica,sans-Serif" font-size="10.00">sqsh_common.h</text>
</a>
</g>
</g>
<!-- Node5&#45;&gt;Node7 -->
<g id="edge6" class="edge">
<title>Node5&#45;&gt;Node7</title>
<path fill="none" stroke="#63b8ff" d="M186.85,-916796.25C210.91,-916792.57 239.4,-916788.33 265.15,-916784.79 329.49,-916775.96 512.15,-916797.45 555.15,-916748.79 688.8,-916597.58 707.97,-857641.74 694.41,-799572.56"/>
<polygon fill="#63b8ff" stroke="#63b8ff" points="697.9,-799572.59 694.4,-799562.59 690.9,-799572.59 697.9,-799572.59"/>
</g>
<!-- Node8 -->
<g id="node8" class="node">
<title>Node8</title>
<g id="a_node8"><a xlink:title=" ">
<polygon fill="#e0e0e0" stroke="#999999" points="580.9,-229188.12 497.4,-229188.12 497.4,-229169.62 580.9,-229169.62 580.9,-229188.12"/>
<text text-anchor="middle" x="539.15" y="-229174.62" font-family="Helvetica,sans-Serif" font-size="10.00">stdbool.h</text>
</a>
</g>
</g>
<!-- Node7&#45;&gt;Node8 -->
<g id="edge7" class="edge">
<title>Node7&#45;&gt;Node8</title>
<path fill="none" stroke="#63b8ff" d="M588.16,-458393.43C563.84,-344655.6 539.52,-230911.74 539.16,-229199.45"/>
<polygon fill="#63b8ff" stroke="#63b8ff" points="542.66,-229199.47 539.15,-229189.47 535.66,-229199.47 542.66,-229199.47"/>
</g>
<!-- Node9 -->
<g id="node9" class="node">
<title>Node9</title>
<g id="a_node9"><a xlink:title=" ">
<polygon fill="#e0e0e0" stroke="#999999" points="675.15,-229188.12 599.15,-229188.12 599.15,-229169.62 675.15,-229169.62 675.15,-229188.12"/>
<text text-anchor="middle" x="637.15" y="-229174.62" font-family="Helvetica,sans-Serif" font-size="10.00">stddef.h</text>
</a>
</g>
</g>
<!-- Node7&#45;&gt;Node9 -->
<g id="edge8" class="edge">
<title>Node7&#45;&gt;Node9</title>
<path fill="none" stroke="#63b8ff" d="M637.15,-458393.43C637.15,-344655.6 637.15,-230911.74 637.15,-229199.45"/>
<polygon fill="#63b8ff" stroke="#63b8ff" points="640.65,-229199.47 637.15,-229189.47 633.65,-229199.47 640.65,-229199.47"/>
</g>
<!-- Node10 -->
<g id="node10" class="node">
<title>Node10</title>
<g id="a_node10"><a xlink:title=" ">
<polygon fill="#e0e0e0" stroke="#999999" points="769.15,-458357.74 693.15,-458357.74 693.15,0 769.15,0 769.15,-458357.74"/>
<text text-anchor="middle" x="731.15" y="-458344.24" font-family="Helvetica,sans-Serif" font-size="10.00">stdint.h</text>
</a>
</g>
</g>
<!-- Node7&#45;&gt;Node10 -->
<g id="edge9" class="edge">
<title>Node7&#45;&gt;Node10</title>
<path fill="none" stroke="#63b8ff" d="M684.15,-458393.43C687,-444506.34 689.84,-430619.16 692.65,-416935.82"/>
<polygon fill="#63b8ff" stroke="#63b8ff" points="696.15,-416935.85 692.65,-416925.85 689.15,-416935.85 696.15,-416935.85"/>
</g>
<!-- Node11&#45;&gt;Node4 -->
<g id="edge17" class="edge">
<title>Node11&#45;&gt;Node4</title>
<path fill="none" stroke="#63b8ff" d="M265.17,-916920.1C265.16,-916889.1 265.16,-916858.11 265.15,-916827.12 249.48,-815662.53 260,-689387.12 260.15,-687591.63"/>
<polygon fill="#63b8ff" stroke="#63b8ff" points="263.65,-687591.91 260.15,-687581.91 256.65,-687591.91 263.65,-687591.91"/>
</g>
<!-- Node11&#45;&gt;Node5 -->
<g id="edge16" class="edge">
<title>Node11&#45;&gt;Node5</title>
<path fill="none" stroke="#63b8ff" d="M418.4,-1058515.05C463.45,-993965.05 467.55,-917259.56 233.15,-916863.12 220.51,-916841.73 196.5,-916827.94 174.95,-916819.37"/>
<polygon fill="#63b8ff" stroke="#63b8ff" points="176.22,-916815.74 165.63,-916815.58 173.81,-916822.31 176.22,-916815.74"/>
</g>
<!-- Node12 -->
<g id="node12" class="node">
<title>Node12</title>
<g id="a_node12"><a xlink:href="sqsh__mapper_8h.html" target="_top" xlink:title=" ">
<polygon fill="white" stroke="#666666" points="387.9,-916815.2 274.4,-916815.2 274.4,-916796.7 387.9,-916796.7 387.9,-916815.2"/>
<text text-anchor="middle" x="331.15" y="-916801.7" font-family="Helvetica,sans-Serif" font-size="10.00">sqsh_mapper.h</text>
</a>
</g>
</g>
<!-- Node11&#45;&gt;Node12 -->
<g id="edge11" class="edge">
<title>Node11&#45;&gt;Node12</title>
<path fill="none" stroke="#63b8ff" d="M331.15,-916920.03C331.15,-916875.93 331.15,-916844.62 331.15,-916826.29"/>
<polygon fill="#63b8ff" stroke="#63b8ff" points="334.65,-916826.46 331.15,-916816.46 327.65,-916826.46 334.65,-916826.46"/>
</g>
<!-- Node13 -->
<g id="node13" class="node">
<title>Node13</title>
<g id="a_node13"><a xlink:href="sqsh__reader__private_8h.html" target="_top" xlink:title=" ">
<polygon fill="white" stroke="#666666" points="579.9,-916827.12 406.4,-916827.12 406.4,-916784.79 579.9,-916784.79 579.9,-916827.12"/>
<text text-anchor="middle" x="493.15" y="-916813.62" font-family="Helvetica,sans-Serif" font-size="10.00">sqsh_reader_private.h</text>
</a>
</g>
</g>
<!-- Node11&#45;&gt;Node13 -->
<g id="edge12" class="edge">
<title>Node11&#45;&gt;Node13</title>
<path fill="none" stroke="#63b8ff" d="M418.4,-924010.14C437.1,-919709.94 458.86,-917179.4 484.15,-916863.12 484.81,-916854.93 485.99,-916846.13 487.28,-916837.98"/>
<polygon fill="#63b8ff" stroke="#63b8ff" points="490.85,-916838.84 489.08,-916828.4 483.95,-916837.67 490.85,-916838.84"/>
</g>
<!-- Node14 -->
<g id="node14" class="node">
<title>Node14</title>
<g id="a_node14"><a xlink:title=" ">
<polygon fill="#e0e0e0" stroke="#999999" points="546.65,-687592.43 455.65,-687592.43 455.65,-687550.1 546.65,-687550.1 546.65,-687592.43"/>
<text text-anchor="middle" x="501.15" y="-687578.93" font-family="Helvetica,sans-Serif" font-size="10.00">sys/wait.h</text>
</a>
</g>
</g>
<!-- Node11&#45;&gt;Node14 -->
<g id="edge18" class="edge">
<title>Node11&#45;&gt;Node14</title>
<path fill="none" stroke="#63b8ff" d="M418.4,-924690.71C436.9,-919712.32 458.64,-916898.8 484.15,-916863.12 512.84,-916822.98 560.48,-916867.26 589.15,-916827.12 600.09,-916811.81 593.47,-916803.1 589.15,-916784.79 585.04,-916767.38 575.27,-916766.2 571.15,-916748.79 207.75,-915210.45 497.16,-690656.74 501.11,-687603.68"/>
<polygon fill="#63b8ff" stroke="#63b8ff" points="504.61,-687603.8 501.13,-687593.8 497.61,-687603.79 504.61,-687603.8"/>
</g>
<!-- Node13&#45;&gt;Node4 -->
<g id="edge14" class="edge">
<title>Node13&#45;&gt;Node4</title>
<path fill="none" stroke="#63b8ff" d="M469.89,-916784.34C460.62,-916774.6 451.02,-916762.18 446.15,-916748.79 175.62,-916004.93 259.25,-689988.94 260.15,-687591.47"/>
<polygon fill="#63b8ff" stroke="#63b8ff" points="263.65,-687591.83 260.15,-687581.83 256.65,-687591.83 263.65,-687591.83"/>
</g>
<!-- Node13&#45;&gt;Node7 -->
<g id="edge13" class="edge">
<title>Node13&#45;&gt;Node7</title>
<path fill="none" stroke="#63b8ff" d="M525.31,-916784.46C536.99,-916775.14 548.85,-916763 555.15,-916748.79 759.83,-916287.45 737.86,-824220.57 694.41,-756934.85"/>
<polygon fill="#63b8ff" stroke="#63b8ff" points="697.91,-756935.07 694.4,-756925.07 690.91,-756935.08 697.91,-756935.07"/>
</g>
<!-- Node13&#45;&gt;Node14 -->
<g id="edge15" class="edge">
<title>Node13&#45;&gt;Node14</title>
<path fill="none" stroke="#63b8ff" d="M493.15,-916784.74C493.24,-914338.02 501.05,-690644.88 501.15,-687603.56"/>
<polygon fill="#63b8ff" stroke="#63b8ff" points="504.65,-687603.72 501.15,-687593.72 497.65,-687603.72 504.65,-687603.72"/>
</g>
<!-- Node15&#45;&gt;Node3 -->
<g id="edge20" class="edge">
<title>Node15&#45;&gt;Node3</title>
<path fill="none" stroke="#63b8ff" d="M346.65,-1375424.43C343.87,-1375307.12 341.03,-1375245.87 338.15,-1375241.81 310.08,-1375202.27 263.23,-1375245.35 235.15,-1375205.81 -222.88,-1374560.82 129.97,-1148702.54 134.12,-1146058.85"/>
<polygon fill="#63b8ff" stroke="#63b8ff" points="137.62,-1146058.95 134.13,-1146048.94 130.62,-1146058.93 137.62,-1146058.95"/>
</g>
<!-- Node15&#45;&gt;Node11 -->
<g id="edge21" class="edge">
<title>Node15&#45;&gt;Node11</title>
<path fill="none" stroke="#63b8ff" d="M359.39,-1375241.33C359.39,-1375214.11 359.39,-1375186.89 359.38,-1375159.68"/>
<polygon fill="#63b8ff" stroke="#63b8ff" points="362.88,-1375159.84 359.38,-1375149.84 355.88,-1375159.84 362.88,-1375159.84"/>
</g>
<!-- Node16 -->
<g id="node16" class="node">
<title>Node16</title>
<g id="a_node16"><a xlink:href="sqsh__table_8h.html" target="_top" xlink:title=" ">
<polygon fill="white" stroke="#666666" points="599.15,-1375205.81 493.15,-1375205.81 493.15,-916863.12 599.15,-916863.12 599.15,-1375205.81"/>
<text text-anchor="middle" x="546.15" y="-1375192.31" font-family="Helvetica,sans-Serif" font-size="10.00">sqsh_table.h</text>
</a>
</g>
</g>
<!-- Node15&#45;&gt;Node16 -->
<g id="edge22" class="edge">
<title>Node15&#45;&gt;Node16</title>
<path fill="none" stroke="#63b8ff" d="M513.06,-1375241.33C513.06,-1375233.28 513.06,-1375225.22 513.07,-1375217.17"/>
<polygon fill="#63b8ff" stroke="#63b8ff" points="516.57,-1375217.19 513.07,-1375207.18 509.57,-1375217.18 516.57,-1375217.19"/>
</g>
<!-- Node16&#45;&gt;Node7 -->
<g id="edge23" class="edge">
<title>Node16&#45;&gt;Node7</title>
<path fill="none" stroke="#63b8ff" d="M599.65,-1002356.09C608.55,-974007.39 616.66,-944479.01 622.15,-916827.12 622.16,-916804.82 622.16,-916782.52 622.17,-916760.22"/>
<polygon fill="#63b8ff" stroke="#63b8ff" points="625.67,-916760.28 622.17,-916750.28 618.67,-916760.28 625.67,-916760.28"/>
</g>
<!-- Node17&#45;&gt;Node7 -->
<g id="edge25" class="edge">
<title>Node17&#45;&gt;Node7</title>
<path fill="none" stroke="#63b8ff" d="M633.15,-1949517.43C633.16,-1946779.3 635.28,-1279822.3 636.43,-916760.02"/>
<polygon fill="#63b8ff" stroke="#63b8ff" points="639.93,-916760.11 636.43,-916750.11 632.93,-916760.11 639.93,-916760.11"/>
</g>
</g>
</svg>
