<?xml version="1.0" encoding="UTF-8" standalone="no"?>
<!DOCTYPE svg PUBLIC "-//W3C//DTD SVG 1.1//EN"
 "http://www.w3.org/Graphics/SVG/1.1/DTD/svg11.dtd">
<!-- Generated by graphviz version 8.0.5 (20230430.1635)
 -->
<!-- Title: include/sqsh.h Pages: 1 -->
<!--zoomable 268 -->
<svg id="main" version="1.1" xmlns="http://www.w3.org/2000/svg" xmlns:xlink="http://www.w3.org/1999/xlink" xml:space="preserve" onload="init(evt)">
<style type="text/css"><![CDATA[
.edge:hover path { stroke: red; }
.edge:hover polygon { stroke: red; fill: red; }
]]></style>
<script type="text/javascript"><![CDATA[
var edges = document.getElementsByTagName('g');
if (edges && edges.length) {
  for (var i=0;i<edges.length;i++) {
    if (edges[i].id.substr(0,4)=='edge') {
      edges[i].setAttribute('class','edge');
    }
  }
}
]]></script>
        <defs>
                <circle id="rim" cx="0" cy="0" r="7"/>
                <circle id="rim2" cx="0" cy="0" r="3.5"/>
                <g id="zoomPlus">
                        <use xlink:href="#rim" fill="#404040">
                                <set attributeName="fill" to="#808080" begin="zoomplus.mouseover" end="zoomplus.mouseout"/>
                        </use>
                        <path d="M-4,0h8M0,-4v8" fill="none" stroke="white" stroke-width="1.5" pointer-events="none"/>
                </g>
                <g id="zoomMin">
                        <use xlink:href="#rim" fill="#404040">
                                <set attributeName="fill" to="#808080" begin="zoomminus.mouseover" end="zoomminus.mouseout"/>
                        </use>
                        <path d="M-4,0h8" fill="none" stroke="white" stroke-width="1.5" pointer-events="none"/>
                </g>
                <g id="dirArrow">
                        <path fill="none" stroke="white" stroke-width="1.5" d="M0,-3.0v7 M-2.5,-0.5L0,-3.0L2.5,-0.5"/>
                </g>
               <g id="resetDef">
                       <use xlink:href="#rim2" fill="#404040">
                               <set attributeName="fill" to="#808080" begin="reset.mouseover" end="reset.mouseout"/>
                       </use>
               </g>
        </defs>

<script type="text/javascript">
var viewWidth = 1141;
var viewHeight = 268;
var sectionId = 'dynsection-0';
</script>
<script xlink:href="svgpan.js"/>
<svg id="graph" class="graph">
<g id="viewport">
<title>include/sqsh.h</title>
<!-- Node1 -->
<g id="node1" class="node">
<title>Node1</title>
<g id="a_node1"><a xlink:title=" ">
<polygon fill="#999999" stroke="#666666" points="705.5,-260.38 584.5,-260.38 584.5,-241.88 705.5,-241.88 705.5,-260.38"/>
<text text-anchor="middle" x="645" y="-246.88" font-family="Helvetica,sans-Serif" font-size="10.00">include/sqsh.h</text>
</a>
</g>
</g>
<!-- Node2 -->
<g id="node2" class="node">
<title>Node2</title>
<g id="a_node2"><a xlink:href="sqsh__archive_8h.html" target="_top" xlink:title=" ">
<polygon fill="white" stroke="#666666" points="735.5,-127.5 614.5,-127.5 614.5,-109 735.5,-109 735.5,-127.5"/>
<text text-anchor="middle" x="675" y="-114" font-family="Helvetica,sans-Serif" font-size="10.00">sqsh_archive.h</text>
</a>
</g>
</g>
<!-- Node1&#45;&gt;Node2 -->
<g id="edge1" class="edge">
<title>Node1&#45;&gt;Node2</title>
<path fill="none" stroke="#63b8ff" d="M646.81,-241.5C650.1,-225.91 657.34,-191.99 664,-163.5 665.94,-155.21 668.19,-146.07 670.15,-138.26"/>
<polygon fill="#63b8ff" stroke="#63b8ff" points="673.76,-139.27 672.82,-128.72 666.97,-137.55 673.76,-139.27"/>
</g>
<!-- Node3 -->
<g id="node3" class="node">
<title>Node3</title>
<g id="a_node3"><a xlink:href="sqsh__common_8h.html" target="_top" xlink:title=" ">
<polygon fill="white" stroke="#666666" points="642.75,-73 529.25,-73 529.25,-54.5 642.75,-54.5 642.75,-73"/>
<text text-anchor="middle" x="586" y="-59.5" font-family="Helvetica,sans-Serif" font-size="10.00">sqsh_common.h</text>
</a>
</g>
</g>
<!-- Node1&#45;&gt;Node3 -->
<g id="edge6" class="edge">
<title>Node1&#45;&gt;Node3</title>
<path fill="none" stroke="#63b8ff" d="M698.45,-241.4C736.94,-233.91 784.09,-221.79 796,-205.88 807.29,-190.8 802.92,-181.02 796,-163.5 773.95,-107.67 706.44,-83.38 653.85,-72.82"/>
<polygon fill="#63b8ff" stroke="#63b8ff" points="654.69,-69.23 644.21,-70.83 653.4,-76.11 654.69,-69.23"/>
</g>
<!-- Node7 -->
<g id="node7" class="node">
<title>Node7</title>
<g id="a_node7"><a xlink:href="sqsh__directory_8h.html" target="_top" xlink:title=" ">
<polygon fill="white" stroke="#666666" points="1133,-193.94 997,-193.94 997,-175.44 1133,-175.44 1133,-193.94"/>
<text text-anchor="middle" x="1065" y="-180.44" font-family="Helvetica,sans-Serif" font-size="10.00">sqsh_directory.h</text>
</a>
</g>
</g>
<!-- Node1&#45;&gt;Node7 -->
<g id="edge7" class="edge">
<title>Node1&#45;&gt;Node7</title>
<path fill="none" stroke="#63b8ff" d="M705.77,-244.23C773.68,-237.17 886.74,-223.97 983,-205.88 996.06,-203.43 1010.15,-200.18 1022.9,-197.01"/>
<polygon fill="#63b8ff" stroke="#63b8ff" points="1023.42,-200.23 1032.25,-194.38 1021.69,-193.45 1023.42,-200.23"/>
</g>
<!-- Node8 -->
<g id="node8" class="node">
<title>Node8</title>
<g id="a_node8"><a xlink:href="sqsh__file_8h.html" target="_top" xlink:title=" ">
<polygon fill="white" stroke="#666666" points="1008.25,-127.5 909.75,-127.5 909.75,-109 1008.25,-109 1008.25,-127.5"/>
<text text-anchor="middle" x="959" y="-114" font-family="Helvetica,sans-Serif" font-size="10.00">sqsh_file.h</text>
</a>
</g>
</g>
<!-- Node1&#45;&gt;Node8 -->
<g id="edge17" class="edge">
<title>Node1&#45;&gt;Node8</title>
<path fill="none" stroke="#63b8ff" d="M705.85,-249.82C785.08,-248.04 917.34,-239.89 950,-205.88 967,-188.18 966.06,-158.1 963.1,-138.45"/>
<polygon fill="#63b8ff" stroke="#63b8ff" points="966.38,-137.97 961.13,-128.77 959.5,-139.24 966.38,-137.97"/>
</g>
<!-- Node9 -->
<g id="node9" class="node">
<title>Node9</title>
<g id="a_node9"><a xlink:href="sqsh__easy_8h.html" target="_top" xlink:title=" ">
<polygon fill="white" stroke="#666666" points="369.25,-205.88 270.75,-205.88 270.75,-163.5 369.25,-163.5 369.25,-205.88"/>
<text text-anchor="middle" x="320" y="-192.38" font-family="Helvetica,sans-Serif" font-size="10.00">sqsh_easy.h</text>
</a>
</g>
</g>
<!-- Node1&#45;&gt;Node9 -->
<g id="edge10" class="edge">
<title>Node1&#45;&gt;Node9</title>
<path fill="none" stroke="#63b8ff" d="M584.21,-243.06C532.14,-236.33 455.08,-224.77 380.07,-206.21"/>
<polygon fill="#63b8ff" stroke="#63b8ff" points="381.06,-202.6 370.5,-203.55 379.34,-209.39 381.06,-202.6"/>
</g>
<!-- Node13 -->
<g id="node13" class="node">
<title>Node13</title>
<g id="a_node13"><a xlink:href="sqsh__error_8h.html" target="_top" xlink:title=" ">
<polygon fill="white" stroke="#666666" points="106,-127.5 0,-127.5 0,-109 106,-109 106,-127.5"/>
<text text-anchor="middle" x="53" y="-114" font-family="Helvetica,sans-Serif" font-size="10.00">sqsh_error.h</text>
</a>
</g>
</g>
<!-- Node1&#45;&gt;Node13 -->
<g id="edge15" class="edge">
<title>Node1&#45;&gt;Node13</title>
<path fill="none" stroke="#63b8ff" d="M584.03,-247.06C480.69,-241.33 275.68,-227.62 207,-205.88 155.2,-189.48 101.36,-154.31 73.1,-134.19"/>
<polygon fill="#63b8ff" stroke="#63b8ff" points="75.37,-130.78 65.22,-127.75 71.26,-136.45 75.37,-130.78"/>
</g>
<!-- Node14 -->
<g id="node14" class="node">
<title>Node14</title>
<g id="a_node14"><a xlink:href="sqsh__mapper_8h.html" target="_top" xlink:title=" ">
<polygon fill="white" stroke="#666666" points="786.75,-193.94 673.25,-193.94 673.25,-175.44 786.75,-175.44 786.75,-193.94"/>
<text text-anchor="middle" x="730" y="-180.44" font-family="Helvetica,sans-Serif" font-size="10.00">sqsh_mapper.h</text>
</a>
</g>
</g>
<!-- Node1&#45;&gt;Node14 -->
<g id="edge18" class="edge">
<title>Node1&#45;&gt;Node14</title>
<path fill="none" stroke="#63b8ff" d="M656.46,-241.44C670.23,-231 693.54,-213.33 710.23,-200.68"/>
<polygon fill="#63b8ff" stroke="#63b8ff" points="711.86,-203.07 717.72,-194.24 707.63,-197.5 711.86,-203.07"/>
</g>
<!-- Node15 -->
<g id="node15" class="node">
<title>Node15</title>
<g id="a_node15"><a xlink:href="sqsh__posix_8h.html" target="_top" xlink:title=" ">
<polygon fill="white" stroke="#666666" points="493,-193.94 387,-193.94 387,-175.44 493,-175.44 493,-193.94"/>
<text text-anchor="middle" x="440" y="-180.44" font-family="Helvetica,sans-Serif" font-size="10.00">sqsh_posix.h</text>
</a>
</g>
</g>
<!-- Node1&#45;&gt;Node15 -->
<g id="edge19" class="edge">
<title>Node1&#45;&gt;Node15</title>
<path fill="none" stroke="#63b8ff" d="M616.47,-241.44C587.58,-232.6 541.63,-218.46 502,-205.88 493.81,-203.28 485.02,-200.44 476.71,-197.74"/>
<polygon fill="#63b8ff" stroke="#63b8ff" points="478.12,-194.19 467.52,-194.42 475.95,-200.85 478.12,-194.19"/>
</g>
<!-- Node16 -->
<g id="node16" class="node">
<title>Node16</title>
<g id="a_node16"><a xlink:href="sqsh__table_8h.html" target="_top" xlink:title=" ">
<polygon fill="white" stroke="#666666" points="230,-127.5 124,-127.5 124,-109 230,-109 230,-127.5"/>
<text text-anchor="middle" x="177" y="-114" font-family="Helvetica,sans-Serif" font-size="10.00">sqsh_table.h</text>
</a>
</g>
</g>
<!-- Node1&#45;&gt;Node16 -->
<g id="edge22" class="edge">
<title>Node1&#45;&gt;Node16</title>
<path fill="none" stroke="#63b8ff" d="M584.28,-248.02C490.97,-243.96 317.32,-232.94 262,-205.88 229.79,-190.13 202.85,-157.04 188.4,-136.63"/>
<polygon fill="#63b8ff" stroke="#63b8ff" points="190.87,-135.04 182.34,-128.75 185.09,-138.98 190.87,-135.04"/>
</g>
<!-- Node17 -->
<g id="node17" class="node">
<title>Node17</title>
<g id="a_node17"><a xlink:href="sqsh__tree_8h.html" target="_top" xlink:title=" ">
<polygon fill="white" stroke="#666666" points="941.25,-193.94 842.75,-193.94 842.75,-175.44 941.25,-175.44 941.25,-193.94"/>
<text text-anchor="middle" x="892" y="-180.44" font-family="Helvetica,sans-Serif" font-size="10.00">sqsh_tree.h</text>
</a>
</g>
</g>
<!-- Node1&#45;&gt;Node17 -->
<g id="edge24" class="edge">
<title>Node1&#45;&gt;Node17</title>
<path fill="none" stroke="#63b8ff" d="M685.06,-241.4C722.48,-233.02 779.8,-219.66 829,-205.88 837.81,-203.41 847.23,-200.53 856.03,-197.72"/>
<polygon fill="#63b8ff" stroke="#63b8ff" points="856.95,-200.78 865.38,-194.37 854.79,-194.12 856.95,-200.78"/>
</g>
<!-- Node18 -->
<g id="node18" class="node">
<title>Node18</title>
<g id="a_node18"><a xlink:href="sqsh__xattr_8h.html" target="_top" xlink:title=" ">
<polygon fill="white" stroke="#666666" points="617,-193.94 511,-193.94 511,-175.44 617,-175.44 617,-193.94"/>
<text text-anchor="middle" x="564" y="-180.44" font-family="Helvetica,sans-Serif" font-size="10.00">sqsh_xattr.h</text>
</a>
</g>
</g>
<!-- Node1&#45;&gt;Node18 -->
<g id="edge27" class="edge">
<title>Node1&#45;&gt;Node18</title>
<path fill="none" stroke="#63b8ff" d="M634.08,-241.44C621.08,-231.1 599.15,-213.66 583.28,-201.03"/>
<polygon fill="#63b8ff" stroke="#63b8ff" points="585.76,-197.73 575.75,-194.24 581.4,-203.21 585.76,-197.73"/>
</g>
<!-- Node2&#45;&gt;Node3 -->
<g id="edge2" class="edge">
<title>Node2&#45;&gt;Node3</title>
<path fill="none" stroke="#63b8ff" d="M660.3,-108.58C646.65,-100.53 626.06,-88.38 610.02,-78.92"/>
<polygon fill="#63b8ff" stroke="#63b8ff" points="612.11,-75.5 601.72,-73.43 608.55,-81.53 612.11,-75.5"/>
</g>
<!-- Node4 -->
<g id="node4" class="node">
<title>Node4</title>
<g id="a_node4"><a xlink:title=" ">
<polygon fill="#e0e0e0" stroke="#999999" points="529.75,-18.5 446.25,-18.5 446.25,0 529.75,0 529.75,-18.5"/>
<text text-anchor="middle" x="488" y="-5" font-family="Helvetica,sans-Serif" font-size="10.00">stdbool.h</text>
</a>
</g>
</g>
<!-- Node3&#45;&gt;Node4 -->
<g id="edge3" class="edge">
<title>Node3&#45;&gt;Node4</title>
<path fill="none" stroke="#63b8ff" d="M569.82,-54.08C554.5,-45.87 531.25,-33.42 513.45,-23.89"/>
<polygon fill="#63b8ff" stroke="#63b8ff" points="515.67,-20.57 505.21,-18.93 512.37,-26.74 515.67,-20.57"/>
</g>
<!-- Node5 -->
<g id="node5" class="node">
<title>Node5</title>
<g id="a_node5"><a xlink:title=" ">
<polygon fill="#e0e0e0" stroke="#999999" points="624,-18.5 548,-18.5 548,0 624,0 624,-18.5"/>
<text text-anchor="middle" x="586" y="-5" font-family="Helvetica,sans-Serif" font-size="10.00">stddef.h</text>
</a>
</g>
</g>
<!-- Node3&#45;&gt;Node5 -->
<g id="edge4" class="edge">
<title>Node3&#45;&gt;Node5</title>
<path fill="none" stroke="#63b8ff" d="M586,-54.08C586,-47.43 586,-37.99 586,-29.58"/>
<polygon fill="#63b8ff" stroke="#63b8ff" points="589.5,-29.76 586,-19.76 582.5,-29.76 589.5,-29.76"/>
</g>
<!-- Node6 -->
<g id="node6" class="node">
<title>Node6</title>
<g id="a_node6"><a xlink:title=" ">
<polygon fill="#e0e0e0" stroke="#999999" points="718,-18.5 642,-18.5 642,0 718,0 718,-18.5"/>
<text text-anchor="middle" x="680" y="-5" font-family="Helvetica,sans-Serif" font-size="10.00">stdint.h</text>
</a>
</g>
</g>
<!-- Node3&#45;&gt;Node6 -->
<g id="edge5" class="edge">
<title>Node3&#45;&gt;Node6</title>
<path fill="none" stroke="#63b8ff" d="M601.52,-54.08C616.08,-45.95 638.1,-33.65 655.11,-24.15"/>
<polygon fill="#63b8ff" stroke="#63b8ff" points="656.43,-26.86 663.45,-18.93 653.02,-20.75 656.43,-26.86"/>
</g>
<!-- Node7&#45;&gt;Node8 -->
<g id="edge8" class="edge">
<title>Node7&#45;&gt;Node8</title>
<path fill="none" stroke="#63b8ff" d="M1050.7,-175C1033.14,-164.32 1003.11,-146.07 982.22,-133.37"/>
<polygon fill="#63b8ff" stroke="#63b8ff" points="984.43,-130.01 974.07,-127.8 980.8,-135.99 984.43,-130.01"/>
</g>
<!-- Node8&#45;&gt;Node3 -->
<g id="edge9" class="edge">
<title>Node8&#45;&gt;Node3</title>
<path fill="none" stroke="#63b8ff" d="M909.47,-110.28C843.74,-101.03 727.42,-84.65 653.64,-74.27"/>
<polygon fill="#63b8ff" stroke="#63b8ff" points="654.47,-70.71 644.08,-72.78 653.49,-77.64 654.47,-70.71"/>
</g>
<!-- Node9&#45;&gt;Node3 -->
<g id="edge11" class="edge">
<title>Node9&#45;&gt;Node3</title>
<path fill="none" stroke="#63b8ff" d="M295.08,-163.31C278.69,-147.48 262.69,-125.51 277,-109 307.58,-73.73 436.92,-65.89 518.26,-64.54"/>
<polygon fill="#63b8ff" stroke="#63b8ff" points="517.97,-68.03 527.92,-64.39 517.87,-61.03 517.97,-68.03"/>
</g>
<!-- Node10 -->
<g id="node10" class="node">
<title>Node10</title>
<g id="a_node10"><a xlink:title=" ">
<polygon fill="#e0e0e0" stroke="#999999" points="354.25,-127.5 285.75,-127.5 285.75,-109 354.25,-109 354.25,-127.5"/>
<text text-anchor="middle" x="320" y="-114" font-family="Helvetica,sans-Serif" font-size="10.00">fcntl.h</text>
</a>
</g>
</g>
<!-- Node9&#45;&gt;Node10 -->
<g id="edge12" class="edge">
<title>Node9&#45;&gt;Node10</title>
<path fill="none" stroke="#63b8ff" d="M320,-163.3C320,-155.46 320,-146.54 320,-138.78"/>
<polygon fill="#63b8ff" stroke="#63b8ff" points="323.5,-138.87 320,-128.87 316.5,-138.87 323.5,-138.87"/>
</g>
<!-- Node11 -->
<g id="node11" class="node">
<title>Node11</title>
<g id="a_node11"><a xlink:title=" ">
<polygon fill="#e0e0e0" stroke="#999999" points="520.25,-127.5 451.75,-127.5 451.75,-109 520.25,-109 520.25,-127.5"/>
<text text-anchor="middle" x="486" y="-114" font-family="Helvetica,sans-Serif" font-size="10.00">stdio.h</text>
</a>
</g>
</g>
<!-- Node9&#45;&gt;Node11 -->
<g id="edge13" class="edge">
<title>Node9&#45;&gt;Node11</title>
<path fill="none" stroke="#63b8ff" d="M369.36,-164.53C396.66,-153.93 429.82,-141.06 453.79,-131.75"/>
<polygon fill="#63b8ff" stroke="#63b8ff" points="454.72,-134.76 462.78,-127.88 452.19,-128.23 454.72,-134.76"/>
</g>
<!-- Node12 -->
<g id="node12" class="node">
<title>Node12</title>
<g id="a_node12"><a xlink:title=" ">
<polygon fill="#e0e0e0" stroke="#999999" points="433.5,-127.5 372.5,-127.5 372.5,-109 433.5,-109 433.5,-127.5"/>
<text text-anchor="middle" x="403" y="-114" font-family="Helvetica,sans-Serif" font-size="10.00">time.h</text>
</a>
</g>
</g>
<!-- Node9&#45;&gt;Node12 -->
<g id="edge14" class="edge">
<title>Node9&#45;&gt;Node12</title>
<path fill="none" stroke="#63b8ff" d="M346.26,-163.3C358.28,-153.97 372.29,-143.1 383.37,-134.49"/>
<polygon fill="#63b8ff" stroke="#63b8ff" points="385.14,-136.77 390.89,-127.87 380.85,-131.24 385.14,-136.77"/>
</g>
<!-- Node13&#45;&gt;Node3 -->
<g id="edge16" class="edge">
<title>Node13&#45;&gt;Node3</title>
<path fill="none" stroke="#63b8ff" d="M106.42,-110.01C109.32,-109.66 112.19,-109.32 115,-109 258.31,-92.74 426.64,-77.96 518.23,-70.29"/>
<polygon fill="#63b8ff" stroke="#63b8ff" points="518.34,-73.71 528.01,-69.39 517.76,-66.73 518.34,-73.71"/>
</g>
<!-- Node15&#45;&gt;Node3 -->
<g id="edge20" class="edge">
<title>Node15&#45;&gt;Node3</title>
<path fill="none" stroke="#63b8ff" d="M456.65,-174.97C475.24,-164.84 505.77,-147 529,-127.5 545.67,-113.51 562.1,-94.74 573.01,-81.39"/>
<polygon fill="#63b8ff" stroke="#63b8ff" points="576.1,-84.13 579.61,-74.13 570.63,-79.76 576.1,-84.13"/>
</g>
<!-- Node15&#45;&gt;Node11 -->
<g id="edge21" class="edge">
<title>Node15&#45;&gt;Node11</title>
<path fill="none" stroke="#63b8ff" d="M446.2,-175C453.24,-165.14 464.88,-148.83 473.76,-136.39"/>
<polygon fill="#63b8ff" stroke="#63b8ff" points="476.93,-138.98 479.89,-128.8 471.24,-134.91 476.93,-138.98"/>
</g>
<!-- Node16&#45;&gt;Node3 -->
<g id="edge23" class="edge">
<title>Node16&#45;&gt;Node3</title>
<path fill="none" stroke="#63b8ff" d="M230.47,-110.39C304.35,-100.9 437.64,-83.79 518.35,-73.43"/>
<polygon fill="#63b8ff" stroke="#63b8ff" points="518.43,-76.82 527.9,-72.08 517.53,-69.88 518.43,-76.82"/>
</g>
<!-- Node17&#45;&gt;Node3 -->
<g id="edge25" class="edge">
<title>Node17&#45;&gt;Node3</title>
<path fill="none" stroke="#63b8ff" d="M887.44,-175.08C878.53,-159.18 857.18,-125.33 829,-109 775.51,-78.01 705.2,-67.89 653.97,-64.96"/>
<polygon fill="#63b8ff" stroke="#63b8ff" points="654.18,-61.42 644.02,-64.43 653.84,-68.41 654.18,-61.42"/>
</g>
<!-- Node17&#45;&gt;Node8 -->
<g id="edge26" class="edge">
<title>Node17&#45;&gt;Node8</title>
<path fill="none" stroke="#63b8ff" d="M901.04,-175C911.58,-164.85 929.25,-147.87 942.31,-135.3"/>
<polygon fill="#63b8ff" stroke="#63b8ff" points="944.33,-138.26 949.11,-128.8 939.47,-133.21 944.33,-138.26"/>
</g>
<!-- Node18&#45;&gt;Node3 -->
<g id="edge28" class="edge">
<title>Node18&#45;&gt;Node3</title>
<path fill="none" stroke="#63b8ff" d="M565.58,-175.14C569.09,-156.19 577.58,-110.3 582.43,-84.04"/>
<polygon fill="#63b8ff" stroke="#63b8ff" points="586.05,-84.7 584.43,-74.23 579.17,-83.42 586.05,-84.7"/>
</g>
</g>
</svg>
        <g id="navigator" transform="translate(0 0)" fill="#404254">
                <rect fill="#f2f5e9" fill-opacity="0.5" stroke="#606060" stroke-width=".5" x="0" y="0" width="60" height="60"/>
                <use id="zoomplus" xlink:href="#zoomPlus" x="17" y="9" onmousedown="handleZoom(evt,'in')"/>
                <use id="zoomminus" xlink:href="#zoomMin" x="42" y="9" onmousedown="handleZoom(evt,'out')"/>
                <use id="reset" xlink:href="#resetDef" x="30" y="36" onmousedown="handleReset()"/>
                <g id="arrowUp" xlink:href="#dirArrow" transform="translate(30 24)" onmousedown="handlePan(0,-1)">
                  <use xlink:href="#rim" fill="#404040">
                        <set attributeName="fill" to="#808080" begin="arrowUp.mouseover" end="arrowUp.mouseout"/>
                  </use>
                  <path fill="none" stroke="white" stroke-width="1.5" d="M0,-3.0v7 M-2.5,-0.5L0,-3.0L2.5,-0.5"/>
                </g>
                <g id="arrowRight" xlink:href="#dirArrow" transform="rotate(90) translate(36 -43)" onmousedown="handlePan(1,0)">
                  <use xlink:href="#rim" fill="#404040">
                        <set attributeName="fill" to="#808080" begin="arrowRight.mouseover" end="arrowRight.mouseout"/>
                  </use>
                  <path fill="none" stroke="white" stroke-width="1.5" d="M0,-3.0v7 M-2.5,-0.5L0,-3.0L2.5,-0.5"/>
                </g>
                <g id="arrowDown" xlink:href="#dirArrow" transform="rotate(180) translate(-30 -48)" onmousedown="handlePan(0,1)">
                  <use xlink:href="#rim" fill="#404040">
                        <set attributeName="fill" to="#808080" begin="arrowDown.mouseover" end="arrowDown.mouseout"/>
                  </use>
                  <path fill="none" stroke="white" stroke-width="1.5" d="M0,-3.0v7 M-2.5,-0.5L0,-3.0L2.5,-0.5"/>
                </g>
                <g id="arrowLeft" xlink:href="#dirArrow" transform="rotate(270) translate(-36 17)" onmousedown="handlePan(-1,0)">
                  <use xlink:href="#rim" fill="#404040">
                        <set attributeName="fill" to="#808080" begin="arrowLeft.mouseover" end="arrowLeft.mouseout"/>
                  </use>
                  <path fill="none" stroke="white" stroke-width="1.5" d="M0,-3.0v7 M-2.5,-0.5L0,-3.0L2.5,-0.5"/>
                </g>
        </g>
        <svg viewBox="0 0 15 15" width="100%" height="30px" preserveAspectRatio="xMaxYMin meet">
         <g id="arrow_out" transform="scale(0.3 0.3)">
          <a xlink:href="sqsh_8h__incl_org.svg" target="_base">
           <rect id="button" ry="5" rx="5" y="6" x="6" height="38" width="38"
                fill="#f2f5e9" fill-opacity="0.5" stroke="#606060" stroke-width="1.0"/>
           <path id="arrow"
             d="M 11.500037,31.436501 C 11.940474,20.09759 22.043105,11.32322 32.158766,21.979434 L 37.068811,17.246167 C 37.068811,17.246167 37.088388,32 37.088388,32 L 22.160133,31.978069 C 22.160133,31.978069 26.997745,27.140456 26.997745,27.140456 C 18.528582,18.264221 13.291696,25.230495 11.500037,31.436501 z"
             style="fill:#404040;"/>
          </a>
         </g>
        </svg>
</svg>
