<?xml version="1.0" encoding="UTF-8" standalone="no"?>
<!DOCTYPE svg PUBLIC "-//W3C//DTD SVG 1.1//EN"
 "http://www.w3.org/Graphics/SVG/1.1/DTD/svg11.dtd">
<!-- Generated by graphviz version 8.0.5 (20230430.1635)
 -->
<!-- Title: sqsh_tree.h Pages: 1 -->
<svg width="260pt" height="1533210pt"
 viewBox="0.00 0.00 260.20 1533210.20" xmlns="http://www.w3.org/2000/svg" xmlns:xlink="http://www.w3.org/1999/xlink">
<g id="graph0" class="graph" transform="scale(1 1) rotate(0) translate(4 1533206.2)">
<title>sqsh_tree.h</title>
<!-- Node1 -->
<g id="node1" class="node">
<title>Node1</title>
<g id="a_node1"><a xlink:title=" ">
<polygon fill="#999999" stroke="#666666" points="158.2,-1533202.2 59.7,-1533202.2 59.7,-1533183.7 158.2,-1533183.7 158.2,-1533202.2"/>
<text text-anchor="middle" x="108.95" y="-1533188.7" font-family="Helvetica,sans-Serif" font-size="10.00">sqsh_tree.h</text>
</a>
</g>
</g>
<!-- Node2 -->
<g id="node2" class="node">
<title>Node2</title>
<g id="a_node2"><a xlink:href="sqsh_8h.html" target="_top" xlink:title=" ">
<polygon fill="white" stroke="#666666" points="75.45,-1533105.22 14.45,-1533105.22 14.45,-42.47 75.45,-42.47 75.45,-1533105.22"/>
<text text-anchor="middle" x="44.95" y="-1533091.72" font-family="Helvetica,sans-Serif" font-size="10.00">sqsh.h</text>
</a>
</g>
</g>
<!-- Node1&#45;&gt;Node2 -->
<g id="edge1" class="edge">
<title>Node1&#45;&gt;Node2</title>
<path fill="none" stroke="#63b8ff" d="M96.73,-1533174.25C92.07,-1533166.47 87.31,-1533157.01 84.95,-1533147.7 -16.56,-1532747.68 -7.54,-1237984.76 13.95,-1014139.52"/>
<polygon fill="#63b8ff" stroke="#63b8ff" points="94.23,-1533175.83 102.59,-1533182.34 100.11,-1533172.04 94.23,-1533175.83"/>
</g>
<!-- Node3 -->
<g id="node3" class="node">
<title>Node3</title>
<g id="a_node3"><a xlink:href="sqsh__tree__private_8h.html" target="_top" xlink:title=" ">
<polygon fill="white" stroke="#666666" points="252.2,-1533147.7 93.7,-1533147.7 93.7,0 252.2,0 252.2,-1533147.7"/>
<text text-anchor="middle" x="172.95" y="-1533134.2" font-family="Helvetica,sans-Serif" font-size="10.00">sqsh_tree_private.h</text>
</a>
</g>
</g>
<!-- Node1&#45;&gt;Node3 -->
<g id="edge2" class="edge">
<title>Node1&#45;&gt;Node3</title>
<path fill="none" stroke="#63b8ff" d="M108.95,-1533172.65C108.95,-1533166.11 108.95,-1533157.92 108.95,-1533148.07"/>
<polygon fill="#63b8ff" stroke="#63b8ff" points="105.45,-1533172.46 108.95,-1533182.46 112.45,-1533172.46 105.45,-1533172.46"/>
</g>
</g>
</svg>
