<?xml version="1.0" encoding="UTF-8" standalone="no"?>
<!DOCTYPE svg PUBLIC "-//W3C//DTD SVG 1.1//EN"
 "http://www.w3.org/Graphics/SVG/1.1/DTD/svg11.dtd">
<!-- Generated by graphviz version 7.0.5 (20221223.1930)
 -->
<!-- Title: sqsh.h Pages: 1 -->
<svg width="488pt" height="302pt"
 viewBox="0.00 0.00 487.50 302.00" xmlns="http://www.w3.org/2000/svg" xmlns:xlink="http://www.w3.org/1999/xlink">
<g id="graph0" class="graph" transform="scale(1 1) rotate(0) translate(4 298)">
<title>sqsh.h</title>
<!-- Node1 -->
<g id="node1" class="node">
<title>Node1</title>
<g id="a_node1"><a xlink:title=" ">
<polygon fill="#999999" stroke="#666666" points="228.5,-294 166.5,-294 166.5,-275 228.5,-275 228.5,-294"/>
<text text-anchor="middle" x="197.5" y="-282" font-family="Helvetica,sans-Serif" font-size="10.00">sqsh.h</text>
</a>
</g>
</g>
<!-- Node2 -->
<g id="node2" class="node">
<title>Node2</title>
<g id="a_node2"><a xlink:href="sqsh__common_8h.html" target="_top" xlink:title=" ">
<polygon fill="white" stroke="#666666" points="200.5,-74 86.5,-74 86.5,-55 200.5,-55 200.5,-74"/>
<text text-anchor="middle" x="143.5" y="-62" font-family="Helvetica,sans-Serif" font-size="10.00">sqsh_common.h</text>
</a>
</g>
</g>
<!-- Node1&#45;&gt;Node2 -->
<g id="edge1" class="edge">
<title>Node1&#45;&gt;Node2</title>
<path fill="none" stroke="#63b8ff" d="M181.7,-274.71C156.78,-259.83 109.24,-227.02 90.5,-184 74.69,-147.7 105.54,-105.42 126.45,-82.46"/>
<polygon fill="#63b8ff" stroke="#63b8ff" points="128.72,-85.15 133.08,-75.49 123.65,-80.32 128.72,-85.15"/>
</g>
<!-- Node5 -->
<g id="node5" class="node">
<title>Node5</title>
<g id="a_node5"><a xlink:title=" ">
<polygon fill="#e0e0e0" stroke="#999999" points="77,-19 0,-19 0,0 77,0 77,-19"/>
<text text-anchor="middle" x="38.5" y="-7" font-family="Helvetica,sans-Serif" font-size="10.00">stdint.h</text>
</a>
</g>
</g>
<!-- Node1&#45;&gt;Node5 -->
<g id="edge16" class="edge">
<title>Node1&#45;&gt;Node5</title>
<path fill="none" stroke="#63b8ff" d="M166.27,-277.65C118.68,-266.73 33.5,-238.4 33.5,-175.5 33.5,-175.5 33.5,-175.5 33.5,-118.5 33.5,-87.89 35.53,-52.45 37,-30.76"/>
<polygon fill="#63b8ff" stroke="#63b8ff" points="40.48,-31.19 37.7,-20.96 33.5,-30.69 40.48,-31.19"/>
</g>
<!-- Node6 -->
<g id="node6" class="node">
<title>Node6</title>
<g id="a_node6"><a xlink:href="sqsh__context_8h.html" target="_top" xlink:title=" ">
<polygon fill="white" stroke="#666666" points="479.5,-184 357.5,-184 357.5,-165 479.5,-165 479.5,-184"/>
<text text-anchor="middle" x="418.5" y="-172" font-family="Helvetica,sans-Serif" font-size="10.00">sqsh_context.h</text>
</a>
</g>
</g>
<!-- Node1&#45;&gt;Node6 -->
<g id="edge5" class="edge">
<title>Node1&#45;&gt;Node6</title>
<path fill="none" stroke="#63b8ff" d="M228.9,-277.65C259.26,-271.14 305.93,-258.83 342.5,-239 365.53,-226.51 388.07,-206.39 402.54,-192.15"/>
<polygon fill="#63b8ff" stroke="#63b8ff" points="404.84,-194.81 409.38,-185.24 399.86,-189.89 404.84,-194.81"/>
</g>
<!-- Node9 -->
<g id="node9" class="node">
<title>Node9</title>
<g id="a_node9"><a xlink:href="sqsh__error_8h.html" target="_top" xlink:title=" ">
<polygon fill="white" stroke="#666666" points="207,-184 100,-184 100,-165 207,-165 207,-184"/>
<text text-anchor="middle" x="153.5" y="-172" font-family="Helvetica,sans-Serif" font-size="10.00">sqsh_error.h</text>
</a>
</g>
</g>
<!-- Node1&#45;&gt;Node9 -->
<g id="edge10" class="edge">
<title>Node1&#45;&gt;Node9</title>
<path fill="none" stroke="#63b8ff" d="M193.9,-274.66C186.84,-257.34 171.04,-218.55 161.42,-194.95"/>
<polygon fill="#63b8ff" stroke="#63b8ff" points="164.74,-193.8 157.72,-185.86 158.25,-196.44 164.74,-193.8"/>
</g>
<!-- Node10 -->
<g id="node10" class="node">
<title>Node10</title>
<g id="a_node10"><a xlink:href="sqsh__mapper_8h.html" target="_top" xlink:title=" ">
<polygon fill="white" stroke="#666666" points="339.5,-184 225.5,-184 225.5,-165 339.5,-165 339.5,-184"/>
<text text-anchor="middle" x="282.5" y="-172" font-family="Helvetica,sans-Serif" font-size="10.00">sqsh_mapper.h</text>
</a>
</g>
</g>
<!-- Node1&#45;&gt;Node10 -->
<g id="edge12" class="edge">
<title>Node1&#45;&gt;Node10</title>
<path fill="none" stroke="#63b8ff" d="M198.41,-274.89C200.15,-261.87 204.97,-236.9 217.5,-220 226.82,-207.43 240.79,-197.21 253.39,-189.74"/>
<polygon fill="#63b8ff" stroke="#63b8ff" points="254.73,-193.01 261.77,-185.09 251.33,-186.89 254.73,-193.01"/>
</g>
<!-- Node11 -->
<g id="node11" class="node">
<title>Node11</title>
<g id="a_node11"><a xlink:href="sqsh__table_8h.html" target="_top" xlink:title=" ">
<polygon fill="white" stroke="#666666" points="333,-239 226,-239 226,-220 333,-220 333,-239"/>
<text text-anchor="middle" x="279.5" y="-227" font-family="Helvetica,sans-Serif" font-size="10.00">sqsh_table.h</text>
</a>
</g>
</g>
<!-- Node1&#45;&gt;Node11 -->
<g id="edge14" class="edge">
<title>Node1&#45;&gt;Node11</title>
<path fill="none" stroke="#63b8ff" d="M211.41,-274.51C223.74,-266.54 241.97,-254.75 256.47,-245.38"/>
<polygon fill="#63b8ff" stroke="#63b8ff" points="258.03,-248.55 264.52,-240.18 254.23,-242.67 258.03,-248.55"/>
</g>
<!-- Node12 -->
<g id="node12" class="node">
<title>Node12</title>
<g id="a_node12"><a xlink:title=" ">
<polygon fill="#e0e0e0" stroke="#999999" points="467,-239 390,-239 390,-220 467,-220 467,-239"/>
<text text-anchor="middle" x="428.5" y="-227" font-family="Helvetica,sans-Serif" font-size="10.00">stdlib.h</text>
</a>
</g>
</g>
<!-- Node1&#45;&gt;Node12 -->
<g id="edge17" class="edge">
<title>Node1&#45;&gt;Node12</title>
<path fill="none" stroke="#63b8ff" d="M228.65,-276.35C267.14,-267.52 333.1,-252.39 378.66,-241.94"/>
<polygon fill="#63b8ff" stroke="#63b8ff" points="379.33,-245.37 388.29,-239.72 377.76,-238.55 379.33,-245.37"/>
</g>
<!-- Node3 -->
<g id="node3" class="node">
<title>Node3</title>
<g id="a_node3"><a xlink:title=" ">
<polygon fill="#e0e0e0" stroke="#999999" points="277.5,-19 193.5,-19 193.5,0 277.5,0 277.5,-19"/>
<text text-anchor="middle" x="235.5" y="-7" font-family="Helvetica,sans-Serif" font-size="10.00">stdbool.h</text>
</a>
</g>
</g>
<!-- Node2&#45;&gt;Node3 -->
<g id="edge2" class="edge">
<title>Node2&#45;&gt;Node3</title>
<path fill="none" stroke="#63b8ff" d="M159.11,-54.51C173.2,-46.39 194.19,-34.3 210.6,-24.85"/>
<polygon fill="#63b8ff" stroke="#63b8ff" points="211.89,-28.14 218.81,-20.11 208.4,-22.07 211.89,-28.14"/>
</g>
<!-- Node4 -->
<g id="node4" class="node">
<title>Node4</title>
<g id="a_node4"><a xlink:title=" ">
<polygon fill="#e0e0e0" stroke="#999999" points="175,-19 98,-19 98,0 175,0 175,-19"/>
<text text-anchor="middle" x="136.5" y="-7" font-family="Helvetica,sans-Serif" font-size="10.00">stddef.h</text>
</a>
</g>
</g>
<!-- Node2&#45;&gt;Node4 -->
<g id="edge3" class="edge">
<title>Node2&#45;&gt;Node4</title>
<path fill="none" stroke="#63b8ff" d="M142.34,-54.75C141.48,-48.19 140.26,-38.95 139.16,-30.6"/>
<polygon fill="#63b8ff" stroke="#63b8ff" points="142.66,-30.4 137.88,-20.94 135.72,-31.31 142.66,-30.4"/>
</g>
<!-- Node2&#45;&gt;Node5 -->
<g id="edge4" class="edge">
<title>Node2&#45;&gt;Node5</title>
<path fill="none" stroke="#63b8ff" d="M125.69,-54.51C109.37,-46.27 84.97,-33.96 66.13,-24.45"/>
<polygon fill="#63b8ff" stroke="#63b8ff" points="67.9,-21.42 57.4,-20.04 64.75,-27.67 67.9,-21.42"/>
</g>
<!-- Node7 -->
<g id="node7" class="node">
<title>Node7</title>
<g id="a_node7"><a xlink:href="sqsh__primitive_8h.html" target="_top" xlink:title=" ">
<polygon fill="white" stroke="#666666" points="351,-129 214,-129 214,-110 351,-110 351,-129"/>
<text text-anchor="middle" x="282.5" y="-117" font-family="Helvetica,sans-Serif" font-size="10.00">sqsh_primitive.h</text>
</a>
</g>
</g>
<!-- Node6&#45;&gt;Node7 -->
<g id="edge6" class="edge">
<title>Node6&#45;&gt;Node7</title>
<path fill="none" stroke="#63b8ff" d="M395.43,-164.51C373.61,-156.01 340.62,-143.15 315.92,-133.53"/>
<polygon fill="#63b8ff" stroke="#63b8ff" points="317.23,-130.28 306.64,-129.91 314.69,-136.8 317.23,-130.28"/>
</g>
<!-- Node7&#45;&gt;Node2 -->
<g id="edge7" class="edge">
<title>Node7&#45;&gt;Node2</title>
<path fill="none" stroke="#63b8ff" d="M258.92,-109.51C236.52,-100.97 202.6,-88.03 177.32,-78.4"/>
<polygon fill="#63b8ff" stroke="#63b8ff" points="178.74,-75.19 168.15,-74.9 176.24,-81.73 178.74,-75.19"/>
</g>
<!-- Node7&#45;&gt;Node3 -->
<g id="edge9" class="edge">
<title>Node7&#45;&gt;Node3</title>
<path fill="none" stroke="#63b8ff" d="M275.95,-109.7C269.73,-101.01 260.46,-87.13 254.5,-74 248.15,-60.01 243.26,-43.34 240.03,-30.6"/>
<polygon fill="#63b8ff" stroke="#63b8ff" points="243.43,-29.79 237.71,-20.87 236.62,-31.41 243.43,-29.79"/>
</g>
<!-- Node8 -->
<g id="node8" class="node">
<title>Node8</title>
<g id="a_node8"><a xlink:title=" ">
<polygon fill="#e0e0e0" stroke="#999999" points="347.5,-74 263.5,-74 263.5,-55 347.5,-55 347.5,-74"/>
<text text-anchor="middle" x="305.5" y="-62" font-family="Helvetica,sans-Serif" font-size="10.00">pthread.h</text>
</a>
</g>
</g>
<!-- Node7&#45;&gt;Node8 -->
<g id="edge8" class="edge">
<title>Node7&#45;&gt;Node8</title>
<path fill="none" stroke="#63b8ff" d="M286.3,-109.75C289.24,-102.96 293.44,-93.3 297.15,-84.73"/>
<polygon fill="#63b8ff" stroke="#63b8ff" points="300.25,-86.4 301.02,-75.83 293.83,-83.61 300.25,-86.4"/>
</g>
<!-- Node9&#45;&gt;Node2 -->
<g id="edge11" class="edge">
<title>Node9&#45;&gt;Node2</title>
<path fill="none" stroke="#63b8ff" d="M152.68,-164.66C151.1,-147.57 147.58,-109.61 145.39,-85.92"/>
<polygon fill="#63b8ff" stroke="#63b8ff" points="148.88,-85.6 144.47,-75.97 141.91,-86.25 148.88,-85.6"/>
</g>
<!-- Node10&#45;&gt;Node7 -->
<g id="edge13" class="edge">
<title>Node10&#45;&gt;Node7</title>
<path fill="none" stroke="#63b8ff" d="M282.5,-164.75C282.5,-158.27 282.5,-149.16 282.5,-140.9"/>
<polygon fill="#63b8ff" stroke="#63b8ff" points="286,-140.96 282.5,-130.96 279,-140.96 286,-140.96"/>
</g>
<!-- Node11&#45;&gt;Node10 -->
<g id="edge15" class="edge">
<title>Node11&#45;&gt;Node10</title>
<path fill="none" stroke="#63b8ff" d="M280,-219.75C280.36,-213.27 280.88,-204.16 281.35,-195.9"/>
<polygon fill="#63b8ff" stroke="#63b8ff" points="284.84,-196.13 281.91,-185.95 277.85,-195.74 284.84,-196.13"/>
</g>
</g>
</svg>
