<?xml version="1.0" encoding="UTF-8" standalone="no"?>
<!DOCTYPE svg PUBLIC "-//W3C//DTD SVG 1.1//EN"
 "http://www.w3.org/Graphics/SVG/1.1/DTD/svg11.dtd">
<!-- Generated by graphviz version 7.0.4 (20221203.1631)
 -->
<!-- Title: sqsh_primitive.h Pages: 1 -->
<svg width="602pt" height="247pt"
 viewBox="0.00 0.00 601.88 247.00" xmlns="http://www.w3.org/2000/svg" xmlns:xlink="http://www.w3.org/1999/xlink">
<g id="graph0" class="graph" transform="scale(1 1) rotate(0) translate(4 243)">
<title>sqsh_primitive.h</title>
<!-- Node1 -->
<g id="node1" class="node">
<title>Node1</title>
<g id="a_node1"><a xlink:title=" ">
<polygon fill="#999999" stroke="#666666" points="398,-239 261,-239 261,-220 398,-220 398,-239"/>
<text text-anchor="middle" x="329.5" y="-227" font-family="Helvetica,sans-Serif" font-size="10.00">sqsh_primitive.h</text>
</a>
</g>
</g>
<!-- Node2 -->
<g id="node2" class="node">
<title>Node2</title>
<g id="a_node2"><a xlink:href="sqsh__context_8h.html" target="_top" xlink:title=" ">
<polygon fill="white" stroke="#666666" points="390.5,-184 268.5,-184 268.5,-165 390.5,-165 390.5,-184"/>
<text text-anchor="middle" x="329.5" y="-172" font-family="Helvetica,sans-Serif" font-size="10.00">sqsh_context.h</text>
</a>
</g>
</g>
<!-- Node1&#45;&gt;Node2 -->
<g id="edge1" class="edge">
<title>Node1&#45;&gt;Node2</title>
<path fill="none" stroke="#63b8ff" d="M329.5,-208.35C329.5,-200.1 329.5,-190.97 329.5,-184.44"/>
<polygon fill="#63b8ff" stroke="#63b8ff" points="326,-208.23 329.5,-218.23 333,-208.23 326,-208.23"/>
</g>
<!-- Node5 -->
<g id="node5" class="node">
<title>Node5</title>
<g id="a_node5"><a xlink:href="sqsh__context__private_8h.html" target="_top" xlink:title=" ">
<polygon fill="white" stroke="#666666" points="331.5,-129 149.5,-129 149.5,-110 331.5,-110 331.5,-129"/>
<text text-anchor="middle" x="240.5" y="-117" font-family="Helvetica,sans-Serif" font-size="10.00">sqsh_context_private.h</text>
</a>
</g>
</g>
<!-- Node1&#45;&gt;Node5 -->
<g id="edge9" class="edge">
<title>Node1&#45;&gt;Node5</title>
<path fill="none" stroke="#63b8ff" d="M297.62,-214.54C284.15,-207.2 269.33,-197 259.5,-184 246.87,-167.3 242.59,-142.25 241.18,-129.16"/>
<polygon fill="#63b8ff" stroke="#63b8ff" points="295.71,-217.49 306.21,-218.9 298.88,-211.25 295.71,-217.49"/>
</g>
<!-- Node8 -->
<g id="node8" class="node">
<title>Node8</title>
<g id="a_node8"><a xlink:href="sqsh__mapper_8h.html" target="_top" xlink:title=" ">
<polygon fill="white" stroke="#666666" points="529.5,-184 415.5,-184 415.5,-165 529.5,-165 529.5,-184"/>
<text text-anchor="middle" x="472.5" y="-172" font-family="Helvetica,sans-Serif" font-size="10.00">sqsh_mapper.h</text>
</a>
</g>
</g>
<!-- Node1&#45;&gt;Node8 -->
<g id="edge10" class="edge">
<title>Node1&#45;&gt;Node8</title>
<path fill="none" stroke="#63b8ff" d="M364.35,-215.58C390.49,-205.9 425.58,-192.89 448.6,-184.36"/>
<polygon fill="#63b8ff" stroke="#63b8ff" points="363.34,-212.23 355.18,-218.98 365.77,-218.79 363.34,-212.23"/>
</g>
<!-- Node3 -->
<g id="node3" class="node">
<title>Node3</title>
<g id="a_node3"><a xlink:href="sqsh_8h.html" target="_top" xlink:title=" ">
<polygon fill="white" stroke="#666666" points="390.5,-74 328.5,-74 328.5,-55 390.5,-55 390.5,-74"/>
<text text-anchor="middle" x="359.5" y="-62" font-family="Helvetica,sans-Serif" font-size="10.00">sqsh.h</text>
</a>
</g>
</g>
<!-- Node2&#45;&gt;Node3 -->
<g id="edge2" class="edge">
<title>Node2&#45;&gt;Node3</title>
<path fill="none" stroke="#63b8ff" d="M335.04,-153.57C341.59,-129.98 352.21,-91.73 357.01,-74.46"/>
<polygon fill="#63b8ff" stroke="#63b8ff" points="331.66,-152.63 332.36,-163.2 338.41,-154.51 331.66,-152.63"/>
</g>
<!-- Node2&#45;&gt;Node5 -->
<g id="edge4" class="edge">
<title>Node2&#45;&gt;Node5</title>
<path fill="none" stroke="#63b8ff" d="M304.7,-158.73C288.84,-149.29 268.81,-137.36 255.37,-129.36"/>
<polygon fill="#63b8ff" stroke="#63b8ff" points="302.72,-161.63 313.1,-163.73 306.3,-155.61 302.72,-161.63"/>
</g>
<!-- Node7 -->
<g id="node7" class="node">
<title>Node7</title>
<g id="a_node7"><a xlink:href="sqsh__iterator_8h.html" target="_top" xlink:title=" ">
<polygon fill="white" stroke="#666666" points="131,-129 2,-129 2,-110 131,-110 131,-129"/>
<text text-anchor="middle" x="66.5" y="-117" font-family="Helvetica,sans-Serif" font-size="10.00">sqsh_iterator.h</text>
</a>
</g>
</g>
<!-- Node2&#45;&gt;Node7 -->
<g id="edge7" class="edge">
<title>Node2&#45;&gt;Node7</title>
<path fill="none" stroke="#63b8ff" d="M273.64,-162.24C225.1,-152.46 155.72,-138.48 110.89,-129.45"/>
<polygon fill="#63b8ff" stroke="#63b8ff" points="272.91,-165.67 283.4,-164.21 274.29,-158.8 272.91,-165.67"/>
</g>
<!-- Node4 -->
<g id="node4" class="node">
<title>Node4</title>
<g id="a_node4"><a xlink:href="sqsh__private_8h.html" target="_top" xlink:title=" ">
<polygon fill="white" stroke="#666666" points="486.5,-19 364.5,-19 364.5,0 486.5,0 486.5,-19"/>
<text text-anchor="middle" x="425.5" y="-7" font-family="Helvetica,sans-Serif" font-size="10.00">sqsh_private.h</text>
</a>
</g>
</g>
<!-- Node3&#45;&gt;Node4 -->
<g id="edge3" class="edge">
<title>Node3&#45;&gt;Node4</title>
<path fill="none" stroke="#63b8ff" d="M379.59,-47.37C391.05,-38.16 404.98,-26.98 414.47,-19.36"/>
<polygon fill="#63b8ff" stroke="#63b8ff" points="377.48,-44.57 371.88,-53.56 381.86,-50.03 377.48,-44.57"/>
</g>
<!-- Node5&#45;&gt;Node4 -->
<g id="edge6" class="edge">
<title>Node5&#45;&gt;Node4</title>
<path fill="none" stroke="#63b8ff" d="M258.03,-102C273.38,-88.17 296.71,-68.57 319.5,-55 345.05,-39.78 376.77,-27.2 398.82,-19.35"/>
<polygon fill="#63b8ff" stroke="#63b8ff" points="255.7,-99.39 250.7,-108.73 260.44,-104.55 255.7,-99.39"/>
</g>
<!-- Node6 -->
<g id="node6" class="node">
<title>Node6</title>
<g id="a_node6"><a xlink:href="sqsh__iterator__private_8h.html" target="_top" xlink:title=" ">
<polygon fill="white" stroke="#666666" points="189,-74 0,-74 0,-55 189,-55 189,-74"/>
<text text-anchor="middle" x="94.5" y="-62" font-family="Helvetica,sans-Serif" font-size="10.00">sqsh_iterator_private.h</text>
</a>
</g>
</g>
<!-- Node5&#45;&gt;Node6 -->
<g id="edge5" class="edge">
<title>Node5&#45;&gt;Node6</title>
<path fill="none" stroke="#63b8ff" d="M204.92,-105.58C178.24,-95.9 142.41,-82.89 118.9,-74.36"/>
<polygon fill="#63b8ff" stroke="#63b8ff" points="203.72,-108.87 214.31,-108.99 206.1,-102.29 203.72,-108.87"/>
</g>
<!-- Node7&#45;&gt;Node6 -->
<g id="edge8" class="edge">
<title>Node7&#45;&gt;Node6</title>
<path fill="none" stroke="#63b8ff" d="M76.38,-99.79C80.93,-91.18 86.12,-81.36 89.78,-74.44"/>
<polygon fill="#63b8ff" stroke="#63b8ff" points="73.41,-97.93 71.83,-108.41 79.6,-101.2 73.41,-97.93"/>
</g>
<!-- Node8&#45;&gt;Node3 -->
<g id="edge11" class="edge">
<title>Node8&#45;&gt;Node3</title>
<path fill="none" stroke="#63b8ff" d="M451.76,-157.92C441.19,-149.68 428.32,-139.19 417.5,-129 397.94,-110.57 377.21,-86.67 366.63,-74.09"/>
<polygon fill="#63b8ff" stroke="#63b8ff" points="449.44,-160.55 459.5,-163.86 453.7,-154.99 449.44,-160.55"/>
</g>
<!-- Node8&#45;&gt;Node4 -->
<g id="edge13" class="edge">
<title>Node8&#45;&gt;Node4</title>
<path fill="none" stroke="#63b8ff" d="M509.26,-160.24C525.56,-152.96 544.05,-142.6 557.5,-129 582.22,-103.99 606.77,-83 585.5,-55 573.16,-38.76 525.58,-26.88 485.48,-19.5"/>
<polygon fill="#63b8ff" stroke="#63b8ff" points="508.2,-156.89 500.34,-164 510.91,-163.34 508.2,-156.89"/>
</g>
<!-- Node8&#45;&gt;Node5 -->
<g id="edge12" class="edge">
<title>Node8&#45;&gt;Node5</title>
<path fill="none" stroke="#63b8ff" d="M422.13,-161.99C379.37,-152.22 318.87,-138.4 279.66,-129.45"/>
<polygon fill="#63b8ff" stroke="#63b8ff" points="421.14,-165.36 431.67,-164.17 422.7,-158.53 421.14,-165.36"/>
</g>
<!-- Node9 -->
<g id="node9" class="node">
<title>Node9</title>
<g id="a_node9"><a xlink:href="sqsh__table_8h.html" target="_top" xlink:title=" ">
<polygon fill="white" stroke="#666666" points="533,-129 426,-129 426,-110 533,-110 533,-129"/>
<text text-anchor="middle" x="479.5" y="-117" font-family="Helvetica,sans-Serif" font-size="10.00">sqsh_table.h</text>
</a>
</g>
</g>
<!-- Node8&#45;&gt;Node9 -->
<g id="edge14" class="edge">
<title>Node8&#45;&gt;Node9</title>
<path fill="none" stroke="#63b8ff" d="M475.16,-153.35C476.25,-145.1 477.46,-135.97 478.32,-129.44"/>
<polygon fill="#63b8ff" stroke="#63b8ff" points="471.69,-152.88 473.85,-163.25 478.63,-153.79 471.69,-152.88"/>
</g>
<!-- Node10 -->
<g id="node10" class="node">
<title>Node10</title>
<g id="a_node10"><a xlink:href="sqsh__table__private_8h.html" target="_top" xlink:title=" ">
<polygon fill="white" stroke="#666666" points="576,-74 409,-74 409,-55 576,-55 576,-74"/>
<text text-anchor="middle" x="492.5" y="-62" font-family="Helvetica,sans-Serif" font-size="10.00">sqsh_table_private.h</text>
</a>
</g>
</g>
<!-- Node8&#45;&gt;Node10 -->
<g id="edge18" class="edge">
<title>Node8&#45;&gt;Node10</title>
<path fill="none" stroke="#63b8ff" d="M507.99,-159.82C521.29,-152.75 534.99,-142.68 542.5,-129 554.19,-107.72 527.24,-86.2 508.54,-74.49"/>
<polygon fill="#63b8ff" stroke="#63b8ff" points="506.85,-156.48 499.37,-163.99 509.9,-162.79 506.85,-156.48"/>
</g>
<!-- Node9&#45;&gt;Node3 -->
<g id="edge15" class="edge">
<title>Node9&#45;&gt;Node3</title>
<path fill="none" stroke="#63b8ff" d="M448.78,-104.93C427.01,-95.32 398.45,-82.7 379.56,-74.36"/>
<polygon fill="#63b8ff" stroke="#63b8ff" points="447.2,-108.06 457.76,-108.9 450.03,-101.66 447.2,-108.06"/>
</g>
<!-- Node9&#45;&gt;Node10 -->
<g id="edge16" class="edge">
<title>Node9&#45;&gt;Node10</title>
<path fill="none" stroke="#63b8ff" d="M484.37,-98.64C486.41,-90.31 488.69,-81.05 490.31,-74.44"/>
<polygon fill="#63b8ff" stroke="#63b8ff" points="480.99,-97.73 482.01,-108.28 487.79,-99.4 480.99,-97.73"/>
</g>
<!-- Node10&#45;&gt;Node4 -->
<g id="edge17" class="edge">
<title>Node10&#45;&gt;Node4</title>
<path fill="none" stroke="#63b8ff" d="M472.45,-47.64C460.75,-38.39 446.43,-27.05 436.7,-19.36"/>
<polygon fill="#63b8ff" stroke="#63b8ff" points="469.93,-50.11 479.95,-53.57 474.28,-44.62 469.93,-50.11"/>
</g>
</g>
</svg>
