<?xml version="1.0" encoding="UTF-8" standalone="no"?>
<!DOCTYPE svg PUBLIC "-//W3C//DTD SVG 1.1//EN"
 "http://www.w3.org/Graphics/SVG/1.1/DTD/svg11.dtd">
<!-- Generated by graphviz version 7.0.4 (20221203.1631)
 -->
<!-- Title: sqsh_private.h Pages: 1 -->
<!--zoomable 357 -->
<svg id="main" version="1.1" xmlns="http://www.w3.org/2000/svg" xmlns:xlink="http://www.w3.org/1999/xlink" xml:space="preserve" onload="init(evt)">
<style type="text/css"><![CDATA[
.edge:hover path { stroke: red; }
.edge:hover polygon { stroke: red; fill: red; }
]]></style>
<script type="text/javascript"><![CDATA[
var edges = document.getElementsByTagName('g');
if (edges && edges.length) {
  for (var i=0;i<edges.length;i++) {
    if (edges[i].id.substr(0,4)=='edge') {
      edges[i].setAttribute('class','edge');
    }
  }
}
]]></script>
        <defs>
                <circle id="rim" cx="0" cy="0" r="7"/>
                <circle id="rim2" cx="0" cy="0" r="3.5"/>
                <g id="zoomPlus">
                        <use xlink:href="#rim" fill="#404040">
                                <set attributeName="fill" to="#808080" begin="zoomplus.mouseover" end="zoomplus.mouseout"/>
                        </use>
                        <path d="M-4,0h8M0,-4v8" fill="none" stroke="white" stroke-width="1.5" pointer-events="none"/>
                </g>
                <g id="zoomMin">
                        <use xlink:href="#rim" fill="#404040">
                                <set attributeName="fill" to="#808080" begin="zoomminus.mouseover" end="zoomminus.mouseout"/>
                        </use>
                        <path d="M-4,0h8" fill="none" stroke="white" stroke-width="1.5" pointer-events="none"/>
                </g>
                <g id="dirArrow">
                        <path fill="none" stroke="white" stroke-width="1.5" d="M0,-3.0v7 M-2.5,-0.5L0,-3.0L2.5,-0.5"/>
                </g>
               <g id="resetDef">
                       <use xlink:href="#rim2" fill="#404040">
                               <set attributeName="fill" to="#808080" begin="reset.mouseover" end="reset.mouseout"/>
                       </use>
               </g>
        </defs>

<script type="text/javascript">
var viewWidth = 761;
var viewHeight = 357;
var sectionId = 'dynsection-0';
</script>
<script xlink:href="svgpan.js"/>
<svg id="graph" class="graph">
<g id="viewport">
<title>sqsh_private.h</title>
<!-- Node1 -->
<g id="node1" class="node">
<title>Node1</title>
<g id="a_node1"><a xlink:title=" ">
<polygon fill="#999999" stroke="#666666" points="533,-349 411,-349 411,-330 533,-330 533,-349"/>
<text text-anchor="middle" x="472" y="-337" font-family="Helvetica,sans-Serif" font-size="10.00">sqsh_private.h</text>
</a>
</g>
</g>
<!-- Node2 -->
<g id="node2" class="node">
<title>Node2</title>
<g id="a_node2"><a xlink:href="sqsh__common_8h.html" target="_top" xlink:title=" ">
<polygon fill="white" stroke="#666666" points="494,-74 380,-74 380,-55 494,-55 494,-74"/>
<text text-anchor="middle" x="437" y="-62" font-family="Helvetica,sans-Serif" font-size="10.00">sqsh_common.h</text>
</a>
</g>
</g>
<!-- Node1&#45;&gt;Node2 -->
<g id="edge1" class="edge">
<title>Node1&#45;&gt;Node2</title>
<path fill="none" stroke="#63b8ff" d="M524.15,-329.55C576.36,-317.26 649,-289.54 649,-230.5 649,-230.5 649,-230.5 649,-173.5 649,-135.78 541.1,-96.91 479.26,-77.73"/>
<polygon fill="#63b8ff" stroke="#63b8ff" points="480.32,-74.4 469.73,-74.83 478.27,-81.09 480.32,-74.4"/>
</g>
<!-- Node4 -->
<g id="node4" class="node">
<title>Node4</title>
<g id="a_node4"><a xlink:title=" ">
<polygon fill="#e0e0e0" stroke="#999999" points="522.5,-19 445.5,-19 445.5,0 522.5,0 522.5,-19"/>
<text text-anchor="middle" x="484" y="-7" font-family="Helvetica,sans-Serif" font-size="10.00">stdint.h</text>
</a>
</g>
</g>
<!-- Node1&#45;&gt;Node4 -->
<g id="edge30" class="edge">
<title>Node1&#45;&gt;Node4</title>
<path fill="none" stroke="#63b8ff" d="M533.33,-333.08C575.47,-327.5 631.76,-316.31 677,-294 716.17,-274.68 752,-274.18 752,-230.5 752,-230.5 752,-230.5 752,-118.5 752,-89.04 754.98,-74.61 733,-55 704.31,-29.41 598.37,-18 534.29,-13.36"/>
<polygon fill="#63b8ff" stroke="#63b8ff" points="534.56,-9.87 524.34,-12.67 534.08,-16.85 534.56,-9.87"/>
</g>
<!-- Node5 -->
<g id="node5" class="node">
<title>Node5</title>
<g id="a_node5"><a xlink:href="sqsh__compression__private_8h.html" target="_top" xlink:title=" ">
<polygon fill="white" stroke="#666666" points="724,-74 512,-74 512,-55 724,-55 724,-74"/>
<text text-anchor="middle" x="618" y="-62" font-family="Helvetica,sans-Serif" font-size="10.00">sqsh_compression_private.h</text>
</a>
</g>
</g>
<!-- Node1&#45;&gt;Node5 -->
<g id="edge4" class="edge">
<title>Node1&#45;&gt;Node5</title>
<path fill="none" stroke="#63b8ff" d="M533.32,-333.51C596.87,-324.59 687,-299.74 687,-230.5 687,-230.5 687,-230.5 687,-173.5 687,-136.29 657.55,-101.6 637.13,-82.02"/>
<polygon fill="#63b8ff" stroke="#63b8ff" points="639.63,-79.57 629.9,-75.39 634.9,-84.73 639.63,-79.57"/>
</g>
<!-- Node6 -->
<g id="node6" class="node">
<title>Node6</title>
<g id="a_node6"><a xlink:href="sqsh__context_8h.html" target="_top" xlink:title=" ">
<polygon fill="white" stroke="#666666" points="122,-239 0,-239 0,-220 122,-220 122,-239"/>
<text text-anchor="middle" x="61" y="-227" font-family="Helvetica,sans-Serif" font-size="10.00">sqsh_context.h</text>
</a>
</g>
</g>
<!-- Node1&#45;&gt;Node6 -->
<g id="edge7" class="edge">
<title>Node1&#45;&gt;Node6</title>
<path fill="none" stroke="#63b8ff" d="M410.77,-334.53C327.62,-328.44 183.88,-315.22 136,-294 111.97,-283.35 89.71,-262.53 75.78,-247.63"/>
<polygon fill="#63b8ff" stroke="#63b8ff" points="78.55,-245.48 69.26,-240.39 73.35,-250.16 78.55,-245.48"/>
</g>
<!-- Node7 -->
<g id="node7" class="node">
<title>Node7</title>
<g id="a_node7"><a xlink:href="sqsh__mapper_8h.html" target="_top" xlink:title=" ">
<polygon fill="white" stroke="#666666" points="257,-184 143,-184 143,-165 257,-165 257,-184"/>
<text text-anchor="middle" x="200" y="-172" font-family="Helvetica,sans-Serif" font-size="10.00">sqsh_mapper.h</text>
</a>
</g>
</g>
<!-- Node1&#45;&gt;Node7 -->
<g id="edge19" class="edge">
<title>Node1&#45;&gt;Node7</title>
<path fill="none" stroke="#63b8ff" d="M420.49,-329.51C341.55,-314.51 196.81,-281.76 169,-239 159.33,-224.13 170.48,-205.79 182.01,-192.65"/>
<polygon fill="#63b8ff" stroke="#63b8ff" points="184.38,-195.24 188.76,-185.59 179.32,-190.4 184.38,-195.24"/>
</g>
<!-- Node11 -->
<g id="node11" class="node">
<title>Node11</title>
<g id="a_node11"><a xlink:href="sqsh__error_8h.html" target="_top" xlink:title=" ">
<polygon fill="white" stroke="#666666" points="525.5,-239 418.5,-239 418.5,-220 525.5,-220 525.5,-239"/>
<text text-anchor="middle" x="472" y="-227" font-family="Helvetica,sans-Serif" font-size="10.00">sqsh_error.h</text>
</a>
</g>
</g>
<!-- Node1&#45;&gt;Node11 -->
<g id="edge17" class="edge">
<title>Node1&#45;&gt;Node11</title>
<path fill="none" stroke="#63b8ff" d="M472,-329.66C472,-312.57 472,-274.61 472,-250.92"/>
<polygon fill="#63b8ff" stroke="#63b8ff" points="475.5,-250.97 472,-240.97 468.5,-250.97 475.5,-250.97"/>
</g>
<!-- Node12 -->
<g id="node12" class="node">
<title>Node12</title>
<g id="a_node12"><a xlink:href="sqsh__table_8h.html" target="_top" xlink:title=" ">
<polygon fill="white" stroke="#666666" points="285.5,-239 178.5,-239 178.5,-220 285.5,-220 285.5,-239"/>
<text text-anchor="middle" x="232" y="-227" font-family="Helvetica,sans-Serif" font-size="10.00">sqsh_table.h</text>
</a>
</g>
</g>
<!-- Node1&#45;&gt;Node12 -->
<g id="edge20" class="edge">
<title>Node1&#45;&gt;Node12</title>
<path fill="none" stroke="#63b8ff" d="M434.47,-329.56C405.47,-321.97 364.71,-309.79 331,-294 302.34,-280.58 272.1,-260.13 252.69,-246.09"/>
<polygon fill="#63b8ff" stroke="#63b8ff" points="254.95,-243.4 244.82,-240.3 250.8,-249.04 254.95,-243.4"/>
</g>
<!-- Node13 -->
<g id="node13" class="node">
<title>Node13</title>
<g id="a_node13"><a xlink:href="sqsh_8h.html" target="_top" xlink:title=" ">
<polygon fill="white" stroke="#666666" points="402,-294 340,-294 340,-275 402,-275 402,-294"/>
<text text-anchor="middle" x="371" y="-282" font-family="Helvetica,sans-Serif" font-size="10.00">sqsh.h</text>
</a>
</g>
</g>
<!-- Node1&#45;&gt;Node13 -->
<g id="edge22" class="edge">
<title>Node1&#45;&gt;Node13</title>
<path fill="none" stroke="#63b8ff" d="M454.87,-329.51C439.25,-321.31 415.92,-309.07 397.83,-299.58"/>
<polygon fill="#63b8ff" stroke="#63b8ff" points="399.7,-296.61 389.22,-295.06 396.45,-302.81 399.7,-296.61"/>
</g>
<!-- Node14 -->
<g id="node14" class="node">
<title>Node14</title>
<g id="a_node14"><a xlink:title=" ">
<polygon fill="#e0e0e0" stroke="#999999" points="620.5,-239 543.5,-239 543.5,-220 620.5,-220 620.5,-239"/>
<text text-anchor="middle" x="582" y="-227" font-family="Helvetica,sans-Serif" font-size="10.00">stdlib.h</text>
</a>
</g>
</g>
<!-- Node1&#45;&gt;Node14 -->
<g id="edge31" class="edge">
<title>Node1&#45;&gt;Node14</title>
<path fill="none" stroke="#63b8ff" d="M481,-329.66C499.29,-311.7 541.07,-270.69 564.76,-247.42"/>
<polygon fill="#63b8ff" stroke="#63b8ff" points="567.11,-250.02 571.79,-240.52 562.21,-245.03 567.11,-250.02"/>
</g>
<!-- Node3 -->
<g id="node3" class="node">
<title>Node3</title>
<g id="a_node3"><a xlink:title=" ">
<polygon fill="#e0e0e0" stroke="#999999" points="427.5,-19 350.5,-19 350.5,0 427.5,0 427.5,-19"/>
<text text-anchor="middle" x="389" y="-7" font-family="Helvetica,sans-Serif" font-size="10.00">stddef.h</text>
</a>
</g>
</g>
<!-- Node2&#45;&gt;Node3 -->
<g id="edge2" class="edge">
<title>Node2&#45;&gt;Node3</title>
<path fill="none" stroke="#63b8ff" d="M429.07,-54.75C422.44,-47.43 412.78,-36.76 404.61,-27.74"/>
<polygon fill="#63b8ff" stroke="#63b8ff" points="407.42,-25.63 398.11,-20.56 402.23,-30.33 407.42,-25.63"/>
</g>
<!-- Node2&#45;&gt;Node4 -->
<g id="edge3" class="edge">
<title>Node2&#45;&gt;Node4</title>
<path fill="none" stroke="#63b8ff" d="M444.76,-54.75C451.19,-47.5 460.51,-36.98 468.46,-28.02"/>
<polygon fill="#63b8ff" stroke="#63b8ff" points="471.05,-30.38 475.07,-20.57 465.81,-25.73 471.05,-30.38"/>
</g>
<!-- Node5&#45;&gt;Node3 -->
<g id="edge5" class="edge">
<title>Node5&#45;&gt;Node3</title>
<path fill="none" stroke="#63b8ff" d="M579.15,-54.51C540.46,-45.55 480.91,-31.77 438.78,-22.02"/>
<polygon fill="#63b8ff" stroke="#63b8ff" points="439.66,-18.63 429.13,-19.79 438.08,-25.45 439.66,-18.63"/>
</g>
<!-- Node5&#45;&gt;Node4 -->
<g id="edge6" class="edge">
<title>Node5&#45;&gt;Node4</title>
<path fill="none" stroke="#63b8ff" d="M595.27,-54.51C573.77,-46.01 541.27,-33.15 516.93,-23.53"/>
<polygon fill="#63b8ff" stroke="#63b8ff" points="518.39,-20.34 507.8,-19.91 515.81,-26.85 518.39,-20.34"/>
</g>
<!-- Node6&#45;&gt;Node7 -->
<g id="edge8" class="edge">
<title>Node6&#45;&gt;Node7</title>
<path fill="none" stroke="#63b8ff" d="M84.58,-219.51C106.98,-210.97 140.9,-198.03 166.18,-188.4"/>
<polygon fill="#63b8ff" stroke="#63b8ff" points="167.26,-191.73 175.35,-184.9 164.76,-185.19 167.26,-191.73"/>
</g>
<!-- Node8 -->
<g id="node8" class="node">
<title>Node8</title>
<g id="a_node8"><a xlink:href="sqsh__primitive_8h.html" target="_top" xlink:title=" ">
<polygon fill="white" stroke="#666666" points="237.5,-129 100.5,-129 100.5,-110 237.5,-110 237.5,-129"/>
<text text-anchor="middle" x="169" y="-117" font-family="Helvetica,sans-Serif" font-size="10.00">sqsh_primitive.h</text>
</a>
</g>
</g>
<!-- Node6&#45;&gt;Node8 -->
<g id="edge16" class="edge">
<title>Node6&#45;&gt;Node8</title>
<path fill="none" stroke="#63b8ff" d="M69.84,-219.66C87.8,-201.7 128.81,-160.69 152.08,-137.42"/>
<polygon fill="#63b8ff" stroke="#63b8ff" points="154.37,-140.08 158.97,-130.53 149.42,-135.13 154.37,-140.08"/>
</g>
<!-- Node7&#45;&gt;Node3 -->
<g id="edge14" class="edge">
<title>Node7&#45;&gt;Node3</title>
<path fill="none" stroke="#63b8ff" d="M145.46,-164.54C124.83,-158.21 103.37,-147.41 91,-129 72.66,-101.7 69.53,-79.91 91,-55 122.38,-18.58 262.34,-11.52 338.77,-10.43"/>
<polygon fill="#63b8ff" stroke="#63b8ff" points="338.54,-13.93 348.5,-10.33 338.46,-6.94 338.54,-13.93"/>
</g>
<!-- Node7&#45;&gt;Node4 -->
<g id="edge15" class="edge">
<title>Node7&#45;&gt;Node4</title>
<path fill="none" stroke="#63b8ff" d="M214,-164.57C227.09,-156 246.98,-142.41 263,-129 298.91,-98.95 297.77,-78.97 338,-55 367.57,-37.38 404.73,-26.19 434.15,-19.43"/>
<polygon fill="#63b8ff" stroke="#63b8ff" points="434.52,-22.93 443.54,-17.38 433.03,-16.09 434.52,-22.93"/>
</g>
<!-- Node7&#45;&gt;Node8 -->
<g id="edge9" class="edge">
<title>Node7&#45;&gt;Node8</title>
<path fill="none" stroke="#63b8ff" d="M194.88,-164.75C190.82,-157.81 185.01,-147.86 179.91,-139.16"/>
<polygon fill="#63b8ff" stroke="#63b8ff" points="183.06,-137.61 174.99,-130.75 177.02,-141.15 183.06,-137.61"/>
</g>
<!-- Node9 -->
<g id="node9" class="node">
<title>Node9</title>
<g id="a_node9"><a xlink:title=" ">
<polygon fill="#e0e0e0" stroke="#999999" points="286,-74 202,-74 202,-55 286,-55 286,-74"/>
<text text-anchor="middle" x="244" y="-62" font-family="Helvetica,sans-Serif" font-size="10.00">pthread.h</text>
</a>
</g>
</g>
<!-- Node7&#45;&gt;Node9 -->
<g id="edge13" class="edge">
<title>Node7&#45;&gt;Node9</title>
<path fill="none" stroke="#63b8ff" d="M214.23,-164.51C225.21,-156.65 239.58,-144.14 246,-129 251.87,-115.15 250.92,-98.03 248.75,-85.06"/>
<polygon fill="#63b8ff" stroke="#63b8ff" points="252.25,-84.69 246.78,-75.62 245.39,-86.12 252.25,-84.69"/>
</g>
<!-- Node8&#45;&gt;Node2 -->
<g id="edge10" class="edge">
<title>Node8&#45;&gt;Node2</title>
<path fill="none" stroke="#63b8ff" d="M214.46,-109.51C260.32,-100.44 331.22,-86.42 380.63,-76.65"/>
<polygon fill="#63b8ff" stroke="#63b8ff" points="381.15,-80.11 390.28,-74.74 379.79,-73.25 381.15,-80.11"/>
</g>
<!-- Node8&#45;&gt;Node9 -->
<g id="edge11" class="edge">
<title>Node8&#45;&gt;Node9</title>
<path fill="none" stroke="#63b8ff" d="M181.72,-109.51C192.78,-101.7 209.04,-90.21 222.17,-80.93"/>
<polygon fill="#63b8ff" stroke="#63b8ff" points="224.08,-83.86 230.23,-75.23 220.04,-78.14 224.08,-83.86"/>
</g>
<!-- Node10 -->
<g id="node10" class="node">
<title>Node10</title>
<g id="a_node10"><a xlink:title=" ">
<polygon fill="#e0e0e0" stroke="#999999" points="184,-74 100,-74 100,-55 184,-55 184,-74"/>
<text text-anchor="middle" x="142" y="-62" font-family="Helvetica,sans-Serif" font-size="10.00">stdbool.h</text>
</a>
</g>
</g>
<!-- Node8&#45;&gt;Node10 -->
<g id="edge12" class="edge">
<title>Node8&#45;&gt;Node10</title>
<path fill="none" stroke="#63b8ff" d="M164.54,-109.75C161.05,-102.88 156.05,-93.08 151.65,-84.45"/>
<polygon fill="#63b8ff" stroke="#63b8ff" points="154.9,-83.11 147.24,-75.79 148.66,-86.29 154.9,-83.11"/>
</g>
<!-- Node11&#45;&gt;Node2 -->
<g id="edge18" class="edge">
<title>Node11&#45;&gt;Node2</title>
<path fill="none" stroke="#63b8ff" d="M470.12,-219.74C464.68,-194.42 448.86,-120.72 441.22,-85.16"/>
<polygon fill="#63b8ff" stroke="#63b8ff" points="444.73,-84.83 439.21,-75.79 437.89,-86.3 444.73,-84.83"/>
</g>
<!-- Node12&#45;&gt;Node7 -->
<g id="edge21" class="edge">
<title>Node12&#45;&gt;Node7</title>
<path fill="none" stroke="#63b8ff" d="M226.72,-219.75C222.53,-212.81 216.52,-202.86 211.27,-194.16"/>
<polygon fill="#63b8ff" stroke="#63b8ff" points="214.35,-192.49 206.18,-185.74 208.35,-196.11 214.35,-192.49"/>
</g>
<!-- Node13&#45;&gt;Node2 -->
<g id="edge23" class="edge">
<title>Node13&#45;&gt;Node2</title>
<path fill="none" stroke="#63b8ff" d="M373.67,-274.68C383.41,-242.5 417.21,-130.86 431.04,-85.2"/>
<polygon fill="#63b8ff" stroke="#63b8ff" points="434.38,-86.22 433.93,-75.64 427.68,-84.19 434.38,-86.22"/>
</g>
<!-- Node13&#45;&gt;Node4 -->
<g id="edge28" class="edge">
<title>Node13&#45;&gt;Node4</title>
<path fill="none" stroke="#63b8ff" d="M368.36,-274.63C363.14,-256.3 352,-212.81 352,-175.5 352,-175.5 352,-175.5 352,-118.5 352,-89.04 351.07,-76.69 371,-55 387.48,-37.07 412.08,-26.26 434.13,-19.8"/>
<polygon fill="#63b8ff" stroke="#63b8ff" points="434.82,-23.24 443.58,-17.27 433.01,-16.47 434.82,-23.24"/>
</g>
<!-- Node13&#45;&gt;Node6 -->
<g id="edge24" class="edge">
<title>Node13&#45;&gt;Node6</title>
<path fill="none" stroke="#63b8ff" d="M339.57,-278.13C289.37,-269.54 190.09,-252.57 124.63,-241.38"/>
<polygon fill="#63b8ff" stroke="#63b8ff" points="125.57,-237.99 115.12,-239.75 124.39,-244.89 125.57,-237.99"/>
</g>
<!-- Node13&#45;&gt;Node7 -->
<g id="edge26" class="edge">
<title>Node13&#45;&gt;Node7</title>
<path fill="none" stroke="#63b8ff" d="M362.09,-274.89C348.31,-261.87 320.62,-236.91 294,-220 274.85,-207.84 251.86,-196.89 233.4,-188.9"/>
<polygon fill="#63b8ff" stroke="#63b8ff" points="234.82,-185.7 224.25,-185.03 232.09,-192.15 234.82,-185.7"/>
</g>
<!-- Node13&#45;&gt;Node11 -->
<g id="edge25" class="edge">
<title>Node13&#45;&gt;Node11</title>
<path fill="none" stroke="#63b8ff" d="M388.13,-274.51C403.75,-266.31 427.08,-254.07 445.17,-244.58"/>
<polygon fill="#63b8ff" stroke="#63b8ff" points="446.55,-247.81 453.78,-240.06 443.3,-241.61 446.55,-247.81"/>
</g>
<!-- Node13&#45;&gt;Node12 -->
<g id="edge27" class="edge">
<title>Node13&#45;&gt;Node12</title>
<path fill="none" stroke="#63b8ff" d="M347.42,-274.51C325.02,-265.97 291.1,-253.03 265.82,-243.4"/>
<polygon fill="#63b8ff" stroke="#63b8ff" points="267.24,-240.19 256.65,-239.9 264.74,-246.73 267.24,-240.19"/>
</g>
<!-- Node13&#45;&gt;Node14 -->
<g id="edge29" class="edge">
<title>Node13&#45;&gt;Node14</title>
<path fill="none" stroke="#63b8ff" d="M402.13,-275.68C437.34,-266.84 495.03,-252.35 535.56,-242.16"/>
<polygon fill="#63b8ff" stroke="#63b8ff" points="536.19,-245.62 545.04,-239.78 534.49,-238.83 536.19,-245.62"/>
</g>
</g>
</svg>
        <g id="navigator" transform="translate(0 0)" fill="#404254">
                <rect fill="#f2f5e9" fill-opacity="0.5" stroke="#606060" stroke-width=".5" x="0" y="0" width="60" height="60"/>
                <use id="zoomplus" xlink:href="#zoomPlus" x="17" y="9" onmousedown="handleZoom(evt,'in')"/>
                <use id="zoomminus" xlink:href="#zoomMin" x="42" y="9" onmousedown="handleZoom(evt,'out')"/>
                <use id="reset" xlink:href="#resetDef" x="30" y="36" onmousedown="handleReset()"/>
                <g id="arrowUp" xlink:href="#dirArrow" transform="translate(30 24)" onmousedown="handlePan(0,-1)">
                  <use xlink:href="#rim" fill="#404040">
                        <set attributeName="fill" to="#808080" begin="arrowUp.mouseover" end="arrowUp.mouseout"/>
                  </use>
                  <path fill="none" stroke="white" stroke-width="1.5" d="M0,-3.0v7 M-2.5,-0.5L0,-3.0L2.5,-0.5"/>
                </g>
                <g id="arrowRight" xlink:href="#dirArrow" transform="rotate(90) translate(36 -43)" onmousedown="handlePan(1,0)">
                  <use xlink:href="#rim" fill="#404040">
                        <set attributeName="fill" to="#808080" begin="arrowRight.mouseover" end="arrowRight.mouseout"/>
                  </use>
                  <path fill="none" stroke="white" stroke-width="1.5" d="M0,-3.0v7 M-2.5,-0.5L0,-3.0L2.5,-0.5"/>
                </g>
                <g id="arrowDown" xlink:href="#dirArrow" transform="rotate(180) translate(-30 -48)" onmousedown="handlePan(0,1)">
                  <use xlink:href="#rim" fill="#404040">
                        <set attributeName="fill" to="#808080" begin="arrowDown.mouseover" end="arrowDown.mouseout"/>
                  </use>
                  <path fill="none" stroke="white" stroke-width="1.5" d="M0,-3.0v7 M-2.5,-0.5L0,-3.0L2.5,-0.5"/>
                </g>
                <g id="arrowLeft" xlink:href="#dirArrow" transform="rotate(270) translate(-36 17)" onmousedown="handlePan(-1,0)">
                  <use xlink:href="#rim" fill="#404040">
                        <set attributeName="fill" to="#808080" begin="arrowLeft.mouseover" end="arrowLeft.mouseout"/>
                  </use>
                  <path fill="none" stroke="white" stroke-width="1.5" d="M0,-3.0v7 M-2.5,-0.5L0,-3.0L2.5,-0.5"/>
                </g>
        </g>
        <svg viewBox="0 0 15 15" width="100%" height="30px" preserveAspectRatio="xMaxYMin meet">
         <g id="arrow_out" transform="scale(0.3 0.3)">
          <a xlink:href="sqsh__private_8h__incl_org.svg" target="_base">
           <rect id="button" ry="5" rx="5" y="6" x="6" height="38" width="38"
                fill="#f2f5e9" fill-opacity="0.5" stroke="#606060" stroke-width="1.0"/>
           <path id="arrow"
             d="M 11.500037,31.436501 C 11.940474,20.09759 22.043105,11.32322 32.158766,21.979434 L 37.068811,17.246167 C 37.068811,17.246167 37.088388,32 37.088388,32 L 22.160133,31.978069 C 22.160133,31.978069 26.997745,27.140456 26.997745,27.140456 C 18.528582,18.264221 13.291696,25.230495 11.500037,31.436501 z"
             style="fill:#404040;"/>
          </a>
         </g>
        </svg>
</svg>
