<?xml version="1.0" encoding="UTF-8" standalone="no"?>
<!DOCTYPE svg PUBLIC "-//W3C//DTD SVG 1.1//EN"
 "http://www.w3.org/Graphics/SVG/1.1/DTD/svg11.dtd">
<!-- Generated by graphviz version 8.0.5 (20230430.1635)
 -->
<!-- Title: include/sqsh_tree.h Pages: 1 -->
<svg width="1398pt" height="183pt"
 viewBox="0.00 0.00 1398.00 183.43" xmlns="http://www.w3.org/2000/svg" xmlns:xlink="http://www.w3.org/1999/xlink">
<g id="graph0" class="graph" transform="scale(1 1) rotate(0) translate(4 179.43)">
<title>include/sqsh_tree.h</title>
<!-- Node1 -->
<g id="node1" class="node">
<title>Node1</title>
<g id="a_node1"><a xlink:title=" ">
<polygon fill="#999999" stroke="#666666" points="849.5,-175.43 691,-175.43 691,-156.86 849.5,-156.86 849.5,-175.43"/>
<text text-anchor="middle" x="770.25" y="-161.93" font-family="Helvetica,sans-Serif" font-size="10.00">include/sqsh_tree.h</text>
</a>
</g>
</g>
<!-- Node2 -->
<g id="node2" class="node">
<title>Node2</title>
<g id="a_node2"><a xlink:href="sqsh_8h.html" target="_top" xlink:title=" ">
<polygon fill="white" stroke="#666666" points="736.75,-108.89 615.75,-108.89 615.75,-90.39 736.75,-90.39 736.75,-108.89"/>
<text text-anchor="middle" x="676.25" y="-95.39" font-family="Helvetica,sans-Serif" font-size="10.00">include/sqsh.h</text>
</a>
</g>
</g>
<!-- Node1&#45;&gt;Node2 -->
<g id="edge1" class="edge">
<title>Node1&#45;&gt;Node2</title>
<path fill="none" stroke="#63b8ff" d="M748.66,-150.33C730.1,-137.6 703.99,-119.68 688.73,-109.21"/>
<polygon fill="#63b8ff" stroke="#63b8ff" points="746.35,-153.67 756.57,-156.45 750.31,-147.9 746.35,-153.67"/>
</g>
<!-- Node10 -->
<g id="node10" class="node">
<title>Node10</title>
<g id="a_node10"><a xlink:href="sqsh__tree__private_8h.html" target="_top" xlink:title=" ">
<polygon fill="white" stroke="#666666" points="973.5,-120.86 755,-120.86 755,-78.43 973.5,-78.43 973.5,-120.86"/>
<text text-anchor="middle" x="864.25" y="-107.36" font-family="Helvetica,sans-Serif" font-size="10.00">include/sqsh_tree_private.h</text>
</a>
</g>
</g>
<!-- Node1&#45;&gt;Node10 -->
<g id="edge9" class="edge">
<title>Node1&#45;&gt;Node10</title>
<path fill="none" stroke="#63b8ff" d="M791.8,-150.36C804.43,-141.69 820.57,-130.62 834.41,-121.12"/>
<polygon fill="#63b8ff" stroke="#63b8ff" points="790.19,-147.9 783.93,-156.45 794.15,-153.67 790.19,-147.9"/>
</g>
<!-- Node3 -->
<g id="node3" class="node">
<title>Node3</title>
<g id="a_node3"><a xlink:href="list__dir_8c.html" target="_top" xlink:title=" ">
<polygon fill="white" stroke="#666666" points="158.5,-30.46 0,-30.46 0,-11.96 158.5,-11.96 158.5,-30.46"/>
<text text-anchor="middle" x="79.25" y="-16.96" font-family="Helvetica,sans-Serif" font-size="10.00">examples/list_dir.c</text>
</a>
</g>
</g>
<!-- Node2&#45;&gt;Node3 -->
<g id="edge2" class="edge">
<title>Node2&#45;&gt;Node3</title>
<path fill="none" stroke="#63b8ff" d="M604.86,-93.38C506.06,-85.51 322.29,-68.71 167.25,-42.43 149.17,-39.36 129.23,-34.88 112.91,-30.91"/>
<polygon fill="#63b8ff" stroke="#63b8ff" points="604.36,-96.93 614.6,-94.23 604.91,-89.96 604.36,-96.93"/>
</g>
<!-- Node4 -->
<g id="node4" class="node">
<title>Node4</title>
<g id="a_node4"><a xlink:href="list__dir__ll_8c.html" target="_top" xlink:title=" ">
<polygon fill="white" stroke="#666666" points="357.75,-30.46 176.75,-30.46 176.75,-11.96 357.75,-11.96 357.75,-30.46"/>
<text text-anchor="middle" x="267.25" y="-16.96" font-family="Helvetica,sans-Serif" font-size="10.00">examples/list_dir_ll.c</text>
</a>
</g>
</g>
<!-- Node2&#45;&gt;Node4 -->
<g id="edge3" class="edge">
<title>Node2&#45;&gt;Node4</title>
<path fill="none" stroke="#63b8ff" d="M615.79,-88.09C553.26,-77.07 452.82,-59.11 366.25,-42.43 347.3,-38.78 326.36,-34.53 308.63,-30.88"/>
<polygon fill="#63b8ff" stroke="#63b8ff" points="614.8,-91.64 625.25,-89.93 616.01,-84.75 614.8,-91.64"/>
</g>
<!-- Node5 -->
<g id="node5" class="node">
<title>Node5</title>
<g id="a_node5"><a xlink:href="list__xattrs_8c.html" target="_top" xlink:title=" ">
<polygon fill="white" stroke="#666666" points="556.75,-42.43 375.75,-42.43 375.75,0 556.75,0 556.75,-42.43"/>
<text text-anchor="middle" x="466.25" y="-28.93" font-family="Helvetica,sans-Serif" font-size="10.00">examples/list_xattrs.c</text>
</a>
</g>
</g>
<!-- Node2&#45;&gt;Node5 -->
<g id="edge4" class="edge">
<title>Node2&#45;&gt;Node5</title>
<path fill="none" stroke="#63b8ff" d="M642.33,-86.3C610.13,-74.58 561.12,-56.74 522.98,-42.86"/>
<polygon fill="#63b8ff" stroke="#63b8ff" points="640.97,-89.89 651.57,-90.03 643.37,-83.32 640.97,-89.89"/>
</g>
<!-- Node6 -->
<g id="node6" class="node">
<title>Node6</title>
<g id="a_node6"><a xlink:href="list__xattrs__ll_8c.html" target="_top" xlink:title=" ">
<polygon fill="white" stroke="#666666" points="778,-34.21 574.5,-34.21 574.5,-8.21 778,-8.21 778,-34.21"/>
<text text-anchor="middle" x="676.25" y="-20.71" font-family="Helvetica,sans-Serif" font-size="10.00">examples/list_xattrs_ll.c</text>
</a>
</g>
</g>
<!-- Node2&#45;&gt;Node6 -->
<g id="edge5" class="edge">
<title>Node2&#45;&gt;Node6</title>
<path fill="none" stroke="#63b8ff" d="M676.25,-79.26C676.25,-65.19 676.25,-46.58 676.25,-34.5"/>
<polygon fill="#63b8ff" stroke="#63b8ff" points="672.75,-79.17 676.25,-89.17 679.75,-79.17 672.75,-79.17"/>
</g>
<!-- Node7 -->
<g id="node7" class="node">
<title>Node7</title>
<g id="a_node7"><a xlink:href="read__file_8c.html" target="_top" xlink:title=" ">
<polygon fill="white" stroke="#666666" points="962.25,-30.46 796.25,-30.46 796.25,-11.96 962.25,-11.96 962.25,-30.46"/>
<text text-anchor="middle" x="879.25" y="-16.96" font-family="Helvetica,sans-Serif" font-size="10.00">examples/read_file.c</text>
</a>
</g>
</g>
<!-- Node2&#45;&gt;Node7 -->
<g id="edge6" class="edge">
<title>Node2&#45;&gt;Node7</title>
<path fill="none" stroke="#63b8ff" d="M709.23,-86.23C750.5,-70.69 820.12,-44.48 856.13,-30.92"/>
<polygon fill="#63b8ff" stroke="#63b8ff" points="708.27,-83.23 700.14,-90.03 710.73,-89.78 708.27,-83.23"/>
</g>
<!-- Node8 -->
<g id="node8" class="node">
<title>Node8</title>
<g id="a_node8"><a xlink:href="read__file__ll_8c.html" target="_top" xlink:title=" ">
<polygon fill="white" stroke="#666666" points="1168.5,-30.46 980,-30.46 980,-11.96 1168.5,-11.96 1168.5,-30.46"/>
<text text-anchor="middle" x="1074.25" y="-16.96" font-family="Helvetica,sans-Serif" font-size="10.00">examples/read_file_ll.c</text>
</a>
</g>
</g>
<!-- Node2&#45;&gt;Node8 -->
<g id="edge7" class="edge">
<title>Node2&#45;&gt;Node8</title>
<path fill="none" stroke="#63b8ff" d="M713.78,-86.89C724.23,-83.87 735.62,-80.81 746.25,-78.43 845.08,-56.34 871.55,-60.18 971.25,-42.43 991.07,-38.9 1012.98,-34.65 1031.47,-30.96"/>
<polygon fill="#63b8ff" stroke="#63b8ff" points="712.9,-83.8 704.31,-89.99 714.89,-90.51 712.9,-83.8"/>
</g>
<!-- Node9 -->
<g id="node9" class="node">
<title>Node9</title>
<g id="a_node9"><a xlink:href="readme__example_8c.html" target="_top" xlink:title=" ">
<polygon fill="white" stroke="#666666" points="1390,-30.46 1186.5,-30.46 1186.5,-11.96 1390,-11.96 1390,-30.46"/>
<text text-anchor="middle" x="1288.25" y="-16.96" font-family="Helvetica,sans-Serif" font-size="10.00">examples/readme_example.c</text>
</a>
</g>
</g>
<!-- Node2&#45;&gt;Node9 -->
<g id="edge8" class="edge">
<title>Node2&#45;&gt;Node9</title>
<path fill="none" stroke="#63b8ff" d="M712.26,-86.77C723.08,-83.6 735.05,-80.49 746.25,-78.43 935.29,-43.59 986.69,-67.68 1177.25,-42.43 1199.97,-39.42 1225.11,-34.94 1245.71,-30.96"/>
<polygon fill="#63b8ff" stroke="#63b8ff" points="711.44,-83.66 702.89,-89.92 713.47,-90.36 711.44,-83.66"/>
</g>
</g>
</svg>
