<?xml version="1.0" encoding="UTF-8" standalone="no"?>
<!DOCTYPE svg PUBLIC "-//W3C//DTD SVG 1.1//EN"
 "http://www.w3.org/Graphics/SVG/1.1/DTD/svg11.dtd">
<!-- Generated by graphviz version 3.0.0 (20220413.0242)
 -->
<!-- Title: sqsh.h Pages: 1 -->
<!--zoomable 319 -->
<svg id="main" version="1.1" xmlns="http://www.w3.org/2000/svg" xmlns:xlink="http://www.w3.org/1999/xlink" xml:space="preserve" onload="init(evt)">
<style type="text/css"><![CDATA[
.edge:hover path { stroke: red; }
.edge:hover polygon { stroke: red; fill: red; }
]]></style>
<script type="text/javascript"><![CDATA[
var edges = document.getElementsByTagName('g');
if (edges && edges.length) {
  for (var i=0;i<edges.length;i++) {
    if (edges[i].id.substr(0,4)=='edge') {
      edges[i].setAttribute('class','edge');
    }
  }
}
]]></script>
        <defs>
                <circle id="rim" cx="0" cy="0" r="7"/>
                <circle id="rim2" cx="0" cy="0" r="3.5"/>
                <g id="zoomPlus">
                        <use xlink:href="#rim" fill="#404040">
                                <set attributeName="fill" to="#808080" begin="zoomplus.mouseover" end="zoomplus.mouseout"/>
                        </use>
                        <path d="M-4,0h8M0,-4v8" fill="none" stroke="white" stroke-width="1.5" pointer-events="none"/>
                </g>
                <g id="zoomMin">
                        <use xlink:href="#rim" fill="#404040">
                                <set attributeName="fill" to="#808080" begin="zoomminus.mouseover" end="zoomminus.mouseout"/>
                        </use>
                        <path d="M-4,0h8" fill="none" stroke="white" stroke-width="1.5" pointer-events="none"/>
                </g>
                <g id="dirArrow">
                        <path fill="none" stroke="white" stroke-width="1.5" d="M0,-3.0v7 M-2.5,-0.5L0,-3.0L2.5,-0.5"/>
                </g>
               <g id="resetDef">
                       <use xlink:href="#rim2" fill="#404040">
                               <set attributeName="fill" to="#808080" begin="reset.mouseover" end="reset.mouseout"/>
                       </use>
               </g>
        </defs>

<script type="text/javascript">
var viewWidth = 1729;
var viewHeight = 319;
var sectionId = 'dynsection-0';
</script>
<script xlink:href="svgpan.js"/>
<svg id="graph" class="graph">
<g id="viewport">
<title>sqsh.h</title>
<polygon fill="white" stroke="transparent" points="-4,4 -4,-315 1724.5,-315 1724.5,4 -4,4"/>
<!-- Node1 -->
<g id="node1" class="node">
<title>Node1</title>
<g id="a_node1"><a xlink:title=" ">
<polygon fill="#bfbfbf" stroke="black" points="1231,-291.5 1231,-310.5 1293,-310.5 1293,-291.5 1231,-291.5"/>
<text text-anchor="middle" x="1262" y="-298.5" font-family="Helvetica,sans-Serif" font-size="10.00">sqsh.h</text>
</a>
</g>
</g>
<!-- Node2 -->
<g id="node2" class="node">
<title>Node2</title>
<g id="a_node2"><a xlink:href="compression_8h.html" target="_top" xlink:title=" ">
<polygon fill="white" stroke="black" points="0,-56.5 0,-75.5 204,-75.5 204,-56.5 0,-56.5"/>
<text text-anchor="middle" x="102" y="-63.5" font-family="Helvetica,sans-Serif" font-size="10.00">compression/compression.h</text>
</a>
</g>
</g>
<!-- Node1&#45;&gt;Node2 -->
<g id="edge1" class="edge">
<title>Node1&#45;&gt;Node2</title>
<path fill="none" stroke="midnightblue" d="M1230.73,-300.51C1139.94,-301.4 868.92,-299.82 650,-255 444.47,-212.92 210.07,-114.61 130.29,-79.63"/>
<polygon fill="midnightblue" stroke="midnightblue" points="131.48,-76.33 120.91,-75.5 128.65,-82.74 131.48,-76.33"/>
</g>
<!-- Node4 -->
<g id="node4" class="node">
<title>Node4</title>
<g id="a_node4"><a xlink:title=" ">
<polygon fill="white" stroke="#bfbfbf" points="786.5,-0.5 786.5,-19.5 863.5,-19.5 863.5,-0.5 786.5,-0.5"/>
<text text-anchor="middle" x="825" y="-7.5" font-family="Helvetica,sans-Serif" font-size="10.00">stdint.h</text>
</a>
</g>
</g>
<!-- Node1&#45;&gt;Node4 -->
<g id="edge51" class="edge">
<title>Node1&#45;&gt;Node4</title>
<path fill="none" stroke="midnightblue" d="M1293.25,-299.47C1343.83,-297.58 1445.85,-289.4 1524,-255 1570.83,-234.39 1615,-235.66 1615,-184.5 1615,-184.5 1615,-184.5 1615,-121 1615,-45.77 1045.74,-19 873.68,-12.62"/>
<polygon fill="midnightblue" stroke="midnightblue" points="873.76,-9.12 863.64,-12.26 873.5,-16.12 873.76,-9.12"/>
</g>
<!-- Node5 -->
<g id="node5" class="node">
<title>Node5</title>
<g id="a_node5"><a xlink:href="compression__options__context_8h.html" target="_top" xlink:title=" ">
<polygon fill="white" stroke="black" points="1182.5,-168.5 1182.5,-198.5 1341.5,-198.5 1341.5,-168.5 1182.5,-168.5"/>
<text text-anchor="start" x="1190.5" y="-186.5" font-family="Helvetica,sans-Serif" font-size="10.00">context/compression</text>
<text text-anchor="middle" x="1262" y="-175.5" font-family="Helvetica,sans-Serif" font-size="10.00">_options_context.h</text>
</a>
</g>
</g>
<!-- Node1&#45;&gt;Node5 -->
<g id="edge4" class="edge">
<title>Node1&#45;&gt;Node5</title>
<path fill="none" stroke="midnightblue" d="M1262,-291.32C1262,-273.97 1262,-234.46 1262,-208.66"/>
<polygon fill="midnightblue" stroke="midnightblue" points="1265.5,-208.55 1262,-198.55 1258.5,-208.55 1265.5,-208.55"/>
</g>
<!-- Node7 -->
<g id="node7" class="node">
<title>Node7</title>
<g id="a_node7"><a xlink:href="utils_8h.html" target="_top" xlink:title=" ">
<polygon fill="white" stroke="black" points="1022,-56.5 1022,-75.5 1114,-75.5 1114,-56.5 1022,-56.5"/>
<text text-anchor="middle" x="1068" y="-63.5" font-family="Helvetica,sans-Serif" font-size="10.00">../utils.h</text>
</a>
</g>
</g>
<!-- Node1&#45;&gt;Node7 -->
<g id="edge50" class="edge">
<title>Node1&#45;&gt;Node7</title>
<path fill="none" stroke="midnightblue" d="M1275.63,-291.39C1306.4,-270.82 1376.52,-216.91 1350,-168 1307.15,-88.97 1193.58,-70.62 1124.34,-67.03"/>
<polygon fill="midnightblue" stroke="midnightblue" points="1124.18,-63.52 1114.04,-66.59 1123.88,-70.52 1124.18,-63.52"/>
</g>
<!-- Node9 -->
<g id="node9" class="node">
<title>Node9</title>
<g id="a_node9"><a xlink:href="superblock__context_8h.html" target="_top" xlink:title=" ">
<polygon fill="white" stroke="black" points="1397,-168.5 1397,-198.5 1549,-198.5 1549,-168.5 1397,-168.5"/>
<text text-anchor="start" x="1405" y="-186.5" font-family="Helvetica,sans-Serif" font-size="10.00">context/superblock</text>
<text text-anchor="middle" x="1473" y="-175.5" font-family="Helvetica,sans-Serif" font-size="10.00">_context.h</text>
</a>
</g>
</g>
<!-- Node1&#45;&gt;Node9 -->
<g id="edge11" class="edge">
<title>Node1&#45;&gt;Node9</title>
<path fill="none" stroke="midnightblue" d="M1292.73,-291.46C1317.89,-283.79 1353.96,-271.26 1383,-255 1407.71,-241.17 1432.83,-220.86 1450.23,-205.59"/>
<polygon fill="midnightblue" stroke="midnightblue" points="1452.98,-207.82 1458.11,-198.55 1448.32,-202.6 1452.98,-207.82"/>
</g>
<!-- Node10 -->
<g id="node10" class="node">
<title>Node10</title>
<g id="a_node10"><a xlink:href="mapper_8h.html" target="_top" xlink:title=" ">
<polygon fill="white" stroke="black" points="567,-112.5 567,-131.5 719,-131.5 719,-112.5 567,-112.5"/>
<text text-anchor="middle" x="643" y="-119.5" font-family="Helvetica,sans-Serif" font-size="10.00">../mapper/mapper.h</text>
</a>
</g>
</g>
<!-- Node1&#45;&gt;Node10 -->
<g id="edge34" class="edge">
<title>Node1&#45;&gt;Node10</title>
<path fill="none" stroke="midnightblue" d="M1230.65,-299.21C1116.02,-296.12 723.81,-283.53 676,-255 650.59,-239.84 648.34,-227.39 640,-199 636.12,-185.78 639.54,-181.77 640,-168 640.29,-159.38 640.88,-149.85 641.47,-141.79"/>
<polygon fill="midnightblue" stroke="midnightblue" points="644.97,-141.86 642.25,-131.62 637.99,-141.32 644.97,-141.86"/>
</g>
<!-- Node16 -->
<g id="node16" class="node">
<title>Node16</title>
<g id="a_node16"><a xlink:href="error_8h.html" target="_top" xlink:title=" ">
<polygon fill="white" stroke="black" points="1514.5,-112.5 1514.5,-131.5 1583.5,-131.5 1583.5,-112.5 1514.5,-112.5"/>
<text text-anchor="middle" x="1549" y="-119.5" font-family="Helvetica,sans-Serif" font-size="10.00">error.h</text>
</a>
</g>
</g>
<!-- Node1&#45;&gt;Node16 -->
<g id="edge32" class="edge">
<title>Node1&#45;&gt;Node16</title>
<path fill="none" stroke="midnightblue" d="M1293.22,-300.41C1356.23,-299.31 1497.71,-286.7 1558,-199 1569.61,-182.11 1563.96,-157.99 1557.64,-141.48"/>
<polygon fill="midnightblue" stroke="midnightblue" points="1560.69,-139.72 1553.56,-131.88 1554.25,-142.45 1560.69,-139.72"/>
</g>
<!-- Node17 -->
<g id="node17" class="node">
<title>Node17</title>
<g id="a_node17"><a xlink:href="fragment__table_8h.html" target="_top" xlink:title=" ">
<polygon fill="white" stroke="black" points="699,-235.5 699,-254.5 881,-254.5 881,-235.5 699,-235.5"/>
<text text-anchor="middle" x="790" y="-242.5" font-family="Helvetica,sans-Serif" font-size="10.00">table/fragment_table.h</text>
</a>
</g>
</g>
<!-- Node1&#45;&gt;Node17 -->
<g id="edge35" class="edge">
<title>Node1&#45;&gt;Node17</title>
<path fill="none" stroke="midnightblue" d="M1230.67,-296.42C1159.06,-288.22 981.41,-267.9 874.82,-255.7"/>
<polygon fill="midnightblue" stroke="midnightblue" points="875.06,-252.21 864.73,-254.55 874.27,-259.16 875.06,-252.21"/>
</g>
<!-- Node18 -->
<g id="node18" class="node">
<title>Node18</title>
<g id="a_node18"><a xlink:href="table_8h.html" target="_top" xlink:title=" ">
<polygon fill="white" stroke="black" points="649.5,-174 649.5,-193 718.5,-193 718.5,-174 649.5,-174"/>
<text text-anchor="middle" x="684" y="-181" font-family="Helvetica,sans-Serif" font-size="10.00">table.h</text>
</a>
</g>
</g>
<!-- Node1&#45;&gt;Node18 -->
<g id="edge39" class="edge">
<title>Node1&#45;&gt;Node18</title>
<path fill="none" stroke="midnightblue" d="M1230.87,-299.85C1117.11,-299.01 728.55,-293.31 690,-255 676.69,-241.77 677.13,-219.23 679.65,-203.2"/>
<polygon fill="midnightblue" stroke="midnightblue" points="683.09,-203.82 681.58,-193.33 676.22,-202.48 683.09,-203.82"/>
</g>
<!-- Node19 -->
<g id="node19" class="node">
<title>Node19</title>
<g id="a_node19"><a xlink:href="xattr__table_8h.html" target="_top" xlink:title=" ">
<polygon fill="white" stroke="black" points="899.5,-235.5 899.5,-254.5 1058.5,-254.5 1058.5,-235.5 899.5,-235.5"/>
<text text-anchor="middle" x="979" y="-242.5" font-family="Helvetica,sans-Serif" font-size="10.00">table/xattr_table.h</text>
</a>
</g>
</g>
<!-- Node1&#45;&gt;Node19 -->
<g id="edge40" class="edge">
<title>Node1&#45;&gt;Node19</title>
<path fill="none" stroke="midnightblue" d="M1230.9,-294.07C1183.4,-285 1092.1,-267.58 1033.44,-256.39"/>
<polygon fill="midnightblue" stroke="midnightblue" points="1034.08,-252.95 1023.6,-254.51 1032.77,-259.82 1034.08,-252.95"/>
</g>
<!-- Node22 -->
<g id="node22" class="node">
<title>Node22</title>
<g id="a_node22"><a xlink:title=" ">
<polygon fill="white" stroke="#bfbfbf" points="1643.5,-235.5 1643.5,-254.5 1720.5,-254.5 1720.5,-235.5 1643.5,-235.5"/>
<text text-anchor="middle" x="1682" y="-242.5" font-family="Helvetica,sans-Serif" font-size="10.00">stdlib.h</text>
</a>
</g>
</g>
<!-- Node1&#45;&gt;Node22 -->
<g id="edge52" class="edge">
<title>Node1&#45;&gt;Node22</title>
<path fill="none" stroke="midnightblue" d="M1293.48,-296.64C1357.03,-289.74 1505.14,-273.1 1629,-255 1630.3,-254.81 1631.61,-254.61 1632.94,-254.41"/>
<polygon fill="midnightblue" stroke="midnightblue" points="1633.91,-257.8 1643.25,-252.79 1632.82,-250.89 1633.91,-257.8"/>
</g>
<!-- Node3 -->
<g id="node3" class="node">
<title>Node3</title>
<g id="a_node3"><a xlink:title=" ">
<polygon fill="white" stroke="#bfbfbf" points="445.5,-0.5 445.5,-19.5 522.5,-19.5 522.5,-0.5 445.5,-0.5"/>
<text text-anchor="middle" x="484" y="-7.5" font-family="Helvetica,sans-Serif" font-size="10.00">stddef.h</text>
</a>
</g>
</g>
<!-- Node2&#45;&gt;Node3 -->
<g id="edge2" class="edge">
<title>Node2&#45;&gt;Node3</title>
<path fill="none" stroke="midnightblue" d="M162.53,-56.44C237.97,-45.78 365.43,-27.76 435.03,-17.92"/>
<polygon fill="midnightblue" stroke="midnightblue" points="435.87,-21.34 445.28,-16.47 434.89,-14.41 435.87,-21.34"/>
</g>
<!-- Node2&#45;&gt;Node4 -->
<g id="edge3" class="edge">
<title>Node2&#45;&gt;Node4</title>
<path fill="none" stroke="midnightblue" d="M204.05,-57.38C361.99,-45.58 659.58,-23.36 776.28,-14.64"/>
<polygon fill="midnightblue" stroke="midnightblue" points="776.64,-18.12 786.35,-13.89 776.12,-11.14 776.64,-18.12"/>
</g>
<!-- Node6 -->
<g id="node6" class="node">
<title>Node6</title>
<g id="a_node6"><a xlink:href="buffer_8h.html" target="_top" xlink:title=" ">
<polygon fill="white" stroke="black" points="1060,-112.5 1060,-131.5 1234,-131.5 1234,-112.5 1060,-112.5"/>
<text text-anchor="middle" x="1147" y="-119.5" font-family="Helvetica,sans-Serif" font-size="10.00">../primitive/buffer.h</text>
</a>
</g>
</g>
<!-- Node5&#45;&gt;Node6 -->
<g id="edge5" class="edge">
<title>Node5&#45;&gt;Node6</title>
<path fill="none" stroke="midnightblue" d="M1234.75,-168.4C1215.97,-158.68 1191.17,-145.86 1172.73,-136.31"/>
<polygon fill="midnightblue" stroke="midnightblue" points="1174.22,-133.14 1163.73,-131.66 1171.01,-139.36 1174.22,-133.14"/>
</g>
<!-- Node5&#45;&gt;Node7 -->
<g id="edge10" class="edge">
<title>Node5&#45;&gt;Node7</title>
<path fill="none" stroke="midnightblue" d="M1262.17,-168.26C1261.55,-152.35 1258.06,-126.88 1243,-112 1211.77,-81.13 1162.36,-70.56 1124,-67.33"/>
<polygon fill="midnightblue" stroke="midnightblue" points="1124.22,-63.83 1114,-66.63 1123.73,-70.82 1124.22,-63.83"/>
</g>
<!-- Node6&#45;&gt;Node7 -->
<g id="edge6" class="edge">
<title>Node6&#45;&gt;Node7</title>
<path fill="none" stroke="midnightblue" d="M1134.31,-112.32C1122.1,-103.98 1103.42,-91.21 1089,-81.35"/>
<polygon fill="midnightblue" stroke="midnightblue" points="1090.89,-78.41 1080.66,-75.65 1086.94,-84.19 1090.89,-78.41"/>
</g>
<!-- Node8 -->
<g id="node8" class="node">
<title>Node8</title>
<g id="a_node8"><a xlink:title=" ">
<polygon fill="white" stroke="#bfbfbf" points="1252,-56.5 1252,-75.5 1336,-75.5 1336,-56.5 1252,-56.5"/>
<text text-anchor="middle" x="1294" y="-63.5" font-family="Helvetica,sans-Serif" font-size="10.00">stdbool.h</text>
</a>
</g>
</g>
<!-- Node6&#45;&gt;Node8 -->
<g id="edge9" class="edge">
<title>Node6&#45;&gt;Node8</title>
<path fill="none" stroke="midnightblue" d="M1170.29,-112.44C1194.81,-103.44 1233.6,-89.19 1261.2,-79.05"/>
<polygon fill="midnightblue" stroke="midnightblue" points="1262.64,-82.25 1270.82,-75.52 1260.22,-75.68 1262.64,-82.25"/>
</g>
<!-- Node7&#45;&gt;Node3 -->
<g id="edge7" class="edge">
<title>Node7&#45;&gt;Node3</title>
<path fill="none" stroke="midnightblue" d="M1021.63,-60.52C1006.45,-59.07 989.51,-57.45 974,-56 812.42,-40.84 620.81,-23.4 532.72,-15.41"/>
<polygon fill="midnightblue" stroke="midnightblue" points="533.03,-11.92 522.75,-14.51 532.4,-18.9 533.03,-11.92"/>
</g>
<!-- Node7&#45;&gt;Node4 -->
<g id="edge8" class="edge">
<title>Node7&#45;&gt;Node4</title>
<path fill="none" stroke="midnightblue" d="M1029.5,-56.44C987.19,-47.04 919.18,-31.93 873.33,-21.74"/>
<polygon fill="midnightblue" stroke="midnightblue" points="873.85,-18.27 863.32,-19.52 872.33,-25.1 873.85,-18.27"/>
</g>
<!-- Node9&#45;&gt;Node4 -->
<g id="edge31" class="edge">
<title>Node9&#45;&gt;Node4</title>
<path fill="none" stroke="midnightblue" d="M1470.57,-168.3C1467.3,-152.89 1460.18,-128.33 1446,-112 1412.34,-73.25 1394.09,-70.99 1345,-56 1257.7,-29.35 985.77,-16.78 873.86,-12.63"/>
<polygon fill="midnightblue" stroke="midnightblue" points="873.98,-9.13 863.86,-12.26 873.73,-16.13 873.98,-9.13"/>
</g>
<!-- Node9&#45;&gt;Node7 -->
<g id="edge29" class="edge">
<title>Node9&#45;&gt;Node7</title>
<path fill="none" stroke="midnightblue" d="M1459.86,-168.46C1443.54,-151.98 1414.04,-125.24 1383,-112 1337.59,-92.63 1202.05,-78.37 1124.36,-71.53"/>
<polygon fill="midnightblue" stroke="midnightblue" points="1124.53,-68.03 1114.26,-70.65 1123.92,-75.01 1124.53,-68.03"/>
</g>
<!-- Node9&#45;&gt;Node8 -->
<g id="edge30" class="edge">
<title>Node9&#45;&gt;Node8</title>
<path fill="none" stroke="midnightblue" d="M1465.91,-168.35C1457.32,-152.52 1441.4,-127.13 1421,-112 1398.95,-95.66 1370.43,-84.84 1346.01,-77.92"/>
<polygon fill="midnightblue" stroke="midnightblue" points="1346.74,-74.49 1336.18,-75.28 1344.93,-81.25 1346.74,-74.49"/>
</g>
<!-- Node9&#45;&gt;Node10 -->
<g id="edge12" class="edge">
<title>Node9&#45;&gt;Node10</title>
<path fill="none" stroke="midnightblue" d="M1396.96,-172.89C1381.44,-171.11 1365.2,-169.38 1350,-168 1126.61,-147.74 862.7,-133.51 729.37,-127"/>
<polygon fill="midnightblue" stroke="midnightblue" points="729.38,-123.49 719.22,-126.5 729.04,-130.49 729.38,-123.49"/>
</g>
<!-- Node10&#45;&gt;Node3 -->
<g id="edge13" class="edge">
<title>Node10&#45;&gt;Node3</title>
<path fill="none" stroke="midnightblue" d="M566.64,-117.61C458.53,-112.01 271.6,-99.1 251,-76 245.08,-69.37 245.34,-62.86 251,-56 273.87,-28.29 373.73,-17.45 435.05,-13.36"/>
<polygon fill="midnightblue" stroke="midnightblue" points="435.53,-16.83 445.29,-12.71 435.09,-9.85 435.53,-16.83"/>
</g>
<!-- Node10&#45;&gt;Node4 -->
<g id="edge14" class="edge">
<title>Node10&#45;&gt;Node4</title>
<path fill="none" stroke="midnightblue" d="M698.73,-112.49C756.44,-103.1 839.52,-87.78 849,-76 860.37,-61.88 850.03,-41.85 839.61,-27.77"/>
<polygon fill="midnightblue" stroke="midnightblue" points="842.28,-25.51 833.3,-19.88 836.81,-29.88 842.28,-25.51"/>
</g>
<!-- Node10&#45;&gt;Node7 -->
<g id="edge16" class="edge">
<title>Node10&#45;&gt;Node7</title>
<path fill="none" stroke="midnightblue" d="M710.34,-112.44C793.67,-101.86 934.04,-84.02 1011.84,-74.14"/>
<polygon fill="midnightblue" stroke="midnightblue" points="1012.45,-77.59 1021.93,-72.85 1011.57,-70.64 1012.45,-77.59"/>
</g>
<!-- Node11 -->
<g id="node11" class="node">
<title>Node11</title>
<g id="a_node11"><a xlink:title=" ">
<polygon fill="white" stroke="#bfbfbf" points="896.5,-56.5 896.5,-75.5 965.5,-75.5 965.5,-56.5 896.5,-56.5"/>
<text text-anchor="middle" x="931" y="-63.5" font-family="Helvetica,sans-Serif" font-size="10.00">stdio.h</text>
</a>
</g>
</g>
<!-- Node10&#45;&gt;Node11 -->
<g id="edge15" class="edge">
<title>Node10&#45;&gt;Node11</title>
<path fill="none" stroke="midnightblue" d="M688.63,-112.44C742.87,-102.27 832.77,-85.42 886.51,-75.34"/>
<polygon fill="midnightblue" stroke="midnightblue" points="887.24,-78.77 896.43,-73.48 885.95,-71.89 887.24,-78.77"/>
</g>
<!-- Node12 -->
<g id="node12" class="node">
<title>Node12</title>
<g id="a_node12"><a xlink:href="canary__mapper_8h.html" target="_top" xlink:title=" ">
<polygon fill="white" stroke="black" points="578.5,-56.5 578.5,-75.5 707.5,-75.5 707.5,-56.5 578.5,-56.5"/>
<text text-anchor="middle" x="643" y="-63.5" font-family="Helvetica,sans-Serif" font-size="10.00">canary_mapper.h</text>
</a>
</g>
</g>
<!-- Node10&#45;&gt;Node12 -->
<g id="edge17" class="edge">
<title>Node10&#45;&gt;Node12</title>
<path fill="none" stroke="midnightblue" d="M643,-112.08C643,-105.01 643,-94.86 643,-85.99"/>
<polygon fill="midnightblue" stroke="midnightblue" points="646.5,-85.75 643,-75.75 639.5,-85.75 646.5,-85.75"/>
</g>
<!-- Node13 -->
<g id="node13" class="node">
<title>Node13</title>
<g id="a_node13"><a xlink:href="mmap__full__mapper_8h.html" target="_top" xlink:title=" ">
<polygon fill="white" stroke="black" points="408,-56.5 408,-75.5 560,-75.5 560,-56.5 408,-56.5"/>
<text text-anchor="middle" x="484" y="-63.5" font-family="Helvetica,sans-Serif" font-size="10.00">mmap_full_mapper.h</text>
</a>
</g>
</g>
<!-- Node10&#45;&gt;Node13 -->
<g id="edge20" class="edge">
<title>Node10&#45;&gt;Node13</title>
<path fill="none" stroke="midnightblue" d="M617.81,-112.44C591.06,-103.36 548.6,-88.94 518.69,-78.78"/>
<polygon fill="midnightblue" stroke="midnightblue" points="519.67,-75.42 509.08,-75.52 517.42,-82.05 519.67,-75.42"/>
</g>
<!-- Node14 -->
<g id="node14" class="node">
<title>Node14</title>
<g id="a_node14"><a xlink:href="mmap__mapper_8h.html" target="_top" xlink:title=" ">
<polygon fill="white" stroke="black" points="726,-56.5 726,-75.5 840,-75.5 840,-56.5 726,-56.5"/>
<text text-anchor="middle" x="783" y="-63.5" font-family="Helvetica,sans-Serif" font-size="10.00">mmap_mapper.h</text>
</a>
</g>
</g>
<!-- Node10&#45;&gt;Node14 -->
<g id="edge23" class="edge">
<title>Node10&#45;&gt;Node14</title>
<path fill="none" stroke="midnightblue" d="M665.18,-112.44C688.43,-103.48 725.15,-89.31 751.42,-79.18"/>
<polygon fill="midnightblue" stroke="midnightblue" points="752.85,-82.38 760.92,-75.52 750.33,-75.85 752.85,-82.38"/>
</g>
<!-- Node15 -->
<g id="node15" class="node">
<title>Node15</title>
<g id="a_node15"><a xlink:href="static__mapper_8h.html" target="_top" xlink:title=" ">
<polygon fill="white" stroke="black" points="260.5,-56.5 260.5,-75.5 389.5,-75.5 389.5,-56.5 260.5,-56.5"/>
<text text-anchor="middle" x="325" y="-63.5" font-family="Helvetica,sans-Serif" font-size="10.00">static_mapper.h</text>
</a>
</g>
</g>
<!-- Node10&#45;&gt;Node15 -->
<g id="edge26" class="edge">
<title>Node10&#45;&gt;Node15</title>
<path fill="none" stroke="midnightblue" d="M592.61,-112.44C536.32,-102.89 445.25,-87.42 385.24,-77.23"/>
<polygon fill="midnightblue" stroke="midnightblue" points="385.6,-73.74 375.15,-75.52 384.43,-80.64 385.6,-73.74"/>
</g>
<!-- Node12&#45;&gt;Node3 -->
<g id="edge18" class="edge">
<title>Node12&#45;&gt;Node3</title>
<path fill="none" stroke="midnightblue" d="M617.81,-56.44C591.06,-47.36 548.6,-32.94 518.69,-22.78"/>
<polygon fill="midnightblue" stroke="midnightblue" points="519.67,-19.42 509.08,-19.52 517.42,-26.05 519.67,-19.42"/>
</g>
<!-- Node12&#45;&gt;Node4 -->
<g id="edge19" class="edge">
<title>Node12&#45;&gt;Node4</title>
<path fill="none" stroke="midnightblue" d="M671.84,-56.44C702.86,-47.24 752.33,-32.56 786.62,-22.39"/>
<polygon fill="midnightblue" stroke="midnightblue" points="787.71,-25.72 796.3,-19.52 785.71,-19.01 787.71,-25.72"/>
</g>
<!-- Node13&#45;&gt;Node3 -->
<g id="edge21" class="edge">
<title>Node13&#45;&gt;Node3</title>
<path fill="none" stroke="midnightblue" d="M484,-56.08C484,-49.01 484,-38.86 484,-29.99"/>
<polygon fill="midnightblue" stroke="midnightblue" points="487.5,-29.75 484,-19.75 480.5,-29.75 487.5,-29.75"/>
</g>
<!-- Node13&#45;&gt;Node4 -->
<g id="edge22" class="edge">
<title>Node13&#45;&gt;Node4</title>
<path fill="none" stroke="midnightblue" d="M538.03,-56.44C603.5,-46.08 712.84,-28.76 775.97,-18.76"/>
<polygon fill="midnightblue" stroke="midnightblue" points="776.74,-22.19 786.07,-17.16 775.65,-15.27 776.74,-22.19"/>
</g>
<!-- Node14&#45;&gt;Node3 -->
<g id="edge24" class="edge">
<title>Node14&#45;&gt;Node3</title>
<path fill="none" stroke="midnightblue" d="M735.62,-56.44C680.13,-46.42 588.66,-29.9 532.63,-19.78"/>
<polygon fill="midnightblue" stroke="midnightblue" points="533.06,-16.3 522.6,-17.97 531.82,-23.19 533.06,-16.3"/>
</g>
<!-- Node14&#45;&gt;Node4 -->
<g id="edge25" class="edge">
<title>Node14&#45;&gt;Node4</title>
<path fill="none" stroke="midnightblue" d="M789.94,-56.08C795.93,-48.38 804.75,-37.03 812.05,-27.65"/>
<polygon fill="midnightblue" stroke="midnightblue" points="814.82,-29.79 818.19,-19.75 809.29,-25.5 814.82,-29.79"/>
</g>
<!-- Node15&#45;&gt;Node3 -->
<g id="edge27" class="edge">
<title>Node15&#45;&gt;Node3</title>
<path fill="none" stroke="midnightblue" d="M350.19,-56.44C376.94,-47.36 419.4,-32.94 449.31,-22.78"/>
<polygon fill="midnightblue" stroke="midnightblue" points="450.58,-26.05 458.92,-19.52 448.33,-19.42 450.58,-26.05"/>
</g>
<!-- Node15&#45;&gt;Node4 -->
<g id="edge28" class="edge">
<title>Node15&#45;&gt;Node4</title>
<path fill="none" stroke="midnightblue" d="M389.57,-57.09C392.76,-56.71 395.91,-56.35 399,-56 535.49,-40.49 696.79,-23.94 776.04,-15.92"/>
<polygon fill="midnightblue" stroke="midnightblue" points="776.61,-19.38 786.21,-14.89 775.91,-12.41 776.61,-19.38"/>
</g>
<!-- Node16&#45;&gt;Node7 -->
<g id="edge33" class="edge">
<title>Node16&#45;&gt;Node7</title>
<path fill="none" stroke="midnightblue" d="M1514.41,-117.12C1432.25,-107.89 1224.78,-84.6 1124.28,-73.32"/>
<polygon fill="midnightblue" stroke="midnightblue" points="1124.64,-69.84 1114.31,-72.2 1123.86,-76.79 1124.64,-69.84"/>
</g>
<!-- Node17&#45;&gt;Node7 -->
<g id="edge36" class="edge">
<title>Node17&#45;&gt;Node7</title>
<path fill="none" stroke="midnightblue" d="M788.65,-235.23C786.78,-220.72 784.52,-191.05 793,-168 803.93,-138.3 809.99,-128.51 837,-112 865.69,-94.46 953,-80.87 1011.68,-73.4"/>
<polygon fill="midnightblue" stroke="midnightblue" points="1012.43,-76.84 1021.92,-72.13 1011.56,-69.89 1012.43,-76.84"/>
</g>
<!-- Node17&#45;&gt;Node18 -->
<g id="edge37" class="edge">
<title>Node17&#45;&gt;Node18</title>
<path fill="none" stroke="midnightblue" d="M774.81,-235.48C757.34,-225.67 728.42,-209.43 707.92,-197.92"/>
<polygon fill="midnightblue" stroke="midnightblue" points="709.59,-194.85 699.16,-193.01 706.17,-200.96 709.59,-194.85"/>
</g>
<!-- Node18&#45;&gt;Node10 -->
<g id="edge38" class="edge">
<title>Node18&#45;&gt;Node10</title>
<path fill="none" stroke="midnightblue" d="M678.13,-173.98C672.04,-165.14 662.36,-151.09 654.7,-139.98"/>
<polygon fill="midnightblue" stroke="midnightblue" points="657.42,-137.76 648.86,-131.51 651.66,-141.73 657.42,-137.76"/>
</g>
<!-- Node19&#45;&gt;Node7 -->
<g id="edge48" class="edge">
<title>Node19&#45;&gt;Node7</title>
<path fill="none" stroke="midnightblue" d="M912.15,-235.47C868.27,-228.35 816.59,-216.5 803,-199 794.55,-188.12 795.18,-179.35 803,-168 849.84,-100.02 949,-77.76 1011.85,-70.5"/>
<polygon fill="midnightblue" stroke="midnightblue" points="1012.42,-73.96 1021.99,-69.42 1011.68,-67 1012.42,-73.96"/>
</g>
<!-- Node19&#45;&gt;Node18 -->
<g id="edge49" class="edge">
<title>Node19&#45;&gt;Node18</title>
<path fill="none" stroke="midnightblue" d="M936.73,-235.48C881.54,-224.34 785.33,-204.94 728.88,-193.55"/>
<polygon fill="midnightblue" stroke="midnightblue" points="729.31,-190.07 718.82,-191.52 727.93,-196.93 729.31,-190.07"/>
</g>
<!-- Node20 -->
<g id="node20" class="node">
<title>Node20</title>
<g id="a_node20"><a xlink:href="metablock__context_8h.html" target="_top" xlink:title=" ">
<polygon fill="white" stroke="black" points="812.5,-168.5 812.5,-198.5 979.5,-198.5 979.5,-168.5 812.5,-168.5"/>
<text text-anchor="start" x="820.5" y="-186.5" font-family="Helvetica,sans-Serif" font-size="10.00">../context/metablock</text>
<text text-anchor="middle" x="896" y="-175.5" font-family="Helvetica,sans-Serif" font-size="10.00">_context.h</text>
</a>
</g>
</g>
<!-- Node19&#45;&gt;Node20 -->
<g id="edge41" class="edge">
<title>Node19&#45;&gt;Node20</title>
<path fill="none" stroke="midnightblue" d="M967.11,-235.48C955.87,-227.42 938.58,-215.02 923.86,-204.47"/>
<polygon fill="midnightblue" stroke="midnightblue" points="925.73,-201.5 915.56,-198.52 921.65,-207.19 925.73,-201.5"/>
</g>
<!-- Node21 -->
<g id="node21" class="node">
<title>Node21</title>
<g id="a_node21"><a xlink:href="metablock__stream__context_8h.html" target="_top" xlink:title=" ">
<polygon fill="white" stroke="black" points="997.5,-168.5 997.5,-198.5 1164.5,-198.5 1164.5,-168.5 997.5,-168.5"/>
<text text-anchor="start" x="1005.5" y="-186.5" font-family="Helvetica,sans-Serif" font-size="10.00">../context/metablock</text>
<text text-anchor="middle" x="1081" y="-175.5" font-family="Helvetica,sans-Serif" font-size="10.00">_stream_context.h</text>
</a>
</g>
</g>
<!-- Node19&#45;&gt;Node21 -->
<g id="edge46" class="edge">
<title>Node19&#45;&gt;Node21</title>
<path fill="none" stroke="midnightblue" d="M993.61,-235.48C1007.82,-227.19 1029.87,-214.32 1048.27,-203.59"/>
<polygon fill="midnightblue" stroke="midnightblue" points="1050.09,-206.58 1056.96,-198.52 1046.56,-200.54 1050.09,-206.58"/>
</g>
<!-- Node20&#45;&gt;Node4 -->
<g id="edge45" class="edge">
<title>Node20&#45;&gt;Node4</title>
<path fill="none" stroke="midnightblue" d="M916.21,-168.33C947.89,-144.38 1002.77,-94.74 974,-56 951.15,-25.23 907.89,-14.74 873.84,-11.51"/>
<polygon fill="midnightblue" stroke="midnightblue" points="873.84,-8 863.6,-10.72 873.31,-14.98 873.84,-8"/>
</g>
<!-- Node20&#45;&gt;Node6 -->
<g id="edge43" class="edge">
<title>Node20&#45;&gt;Node6</title>
<path fill="none" stroke="midnightblue" d="M955.17,-168.47C999.79,-157.9 1060.12,-143.59 1101.13,-133.87"/>
<polygon fill="midnightblue" stroke="midnightblue" points="1102.19,-137.22 1111.12,-131.51 1100.58,-130.41 1102.19,-137.22"/>
</g>
<!-- Node20&#45;&gt;Node7 -->
<g id="edge44" class="edge">
<title>Node20&#45;&gt;Node7</title>
<path fill="none" stroke="midnightblue" d="M937.51,-168.4C959.6,-159.8 986.54,-147.46 1008,-132 1026.98,-118.32 1044.63,-97.9 1055.8,-83.6"/>
<polygon fill="midnightblue" stroke="midnightblue" points="1058.61,-85.69 1061.87,-75.61 1053.03,-81.46 1058.61,-85.69"/>
</g>
<!-- Node20&#45;&gt;Node10 -->
<g id="edge42" class="edge">
<title>Node20&#45;&gt;Node10</title>
<path fill="none" stroke="midnightblue" d="M836.36,-168.47C791.29,-157.87 730.31,-143.53 688.97,-133.81"/>
<polygon fill="midnightblue" stroke="midnightblue" points="689.71,-130.39 679.17,-131.51 688.1,-137.2 689.71,-130.39"/>
</g>
<!-- Node21&#45;&gt;Node6 -->
<g id="edge47" class="edge">
<title>Node21&#45;&gt;Node6</title>
<path fill="none" stroke="midnightblue" d="M1096.64,-168.4C1106.63,-159.4 1119.58,-147.72 1129.85,-138.47"/>
<polygon fill="midnightblue" stroke="midnightblue" points="1132.31,-140.95 1137.4,-131.66 1127.63,-135.75 1132.31,-140.95"/>
</g>
</g>
</svg>
        <g id="navigator" transform="translate(0 0)" fill="#404254">
                <rect fill="#f2f5e9" fill-opacity="0.5" stroke="#606060" stroke-width=".5" x="0" y="0" width="60" height="60"/>
                <use id="zoomplus" xlink:href="#zoomPlus" x="17" y="9" onmousedown="handleZoom(evt,'in')"/>
                <use id="zoomminus" xlink:href="#zoomMin" x="42" y="9" onmousedown="handleZoom(evt,'out')"/>
                <use id="reset" xlink:href="#resetDef" x="30" y="36" onmousedown="handleReset()"/>
                <g id="arrowUp" xlink:href="#dirArrow" transform="translate(30 24)" onmousedown="handlePan(0,-1)">
                  <use xlink:href="#rim" fill="#404040">
                        <set attributeName="fill" to="#808080" begin="arrowUp.mouseover" end="arrowUp.mouseout"/>
                  </use>
                  <path fill="none" stroke="white" stroke-width="1.5" d="M0,-3.0v7 M-2.5,-0.5L0,-3.0L2.5,-0.5"/>
                </g>
                <g id="arrowRight" xlink:href="#dirArrow" transform="rotate(90) translate(36 -43)" onmousedown="handlePan(1,0)">
                  <use xlink:href="#rim" fill="#404040">
                        <set attributeName="fill" to="#808080" begin="arrowRight.mouseover" end="arrowRight.mouseout"/>
                  </use>
                  <path fill="none" stroke="white" stroke-width="1.5" d="M0,-3.0v7 M-2.5,-0.5L0,-3.0L2.5,-0.5"/>
                </g>
                <g id="arrowDown" xlink:href="#dirArrow" transform="rotate(180) translate(-30 -48)" onmousedown="handlePan(0,1)">
                  <use xlink:href="#rim" fill="#404040">
                        <set attributeName="fill" to="#808080" begin="arrowDown.mouseover" end="arrowDown.mouseout"/>
                  </use>
                  <path fill="none" stroke="white" stroke-width="1.5" d="M0,-3.0v7 M-2.5,-0.5L0,-3.0L2.5,-0.5"/>
                </g>
                <g id="arrowLeft" xlink:href="#dirArrow" transform="rotate(270) translate(-36 17)" onmousedown="handlePan(-1,0)">
                  <use xlink:href="#rim" fill="#404040">
                        <set attributeName="fill" to="#808080" begin="arrowLeft.mouseover" end="arrowLeft.mouseout"/>
                  </use>
                  <path fill="none" stroke="white" stroke-width="1.5" d="M0,-3.0v7 M-2.5,-0.5L0,-3.0L2.5,-0.5"/>
                </g>
        </g>
        <svg viewBox="0 0 15 15" width="100%" height="30px" preserveAspectRatio="xMaxYMin meet">
         <g id="arrow_out" transform="scale(0.3 0.3)">
          <a xlink:href="sqsh_8h__incl_org.svg" target="_base">
           <rect id="button" ry="5" rx="5" y="6" x="6" height="38" width="38"
                fill="#f2f5e9" fill-opacity="0.5" stroke="#606060" stroke-width="1.0"/>
           <path id="arrow"
             d="M 11.500037,31.436501 C 11.940474,20.09759 22.043105,11.32322 32.158766,21.979434 L 37.068811,17.246167 C 37.068811,17.246167 37.088388,32 37.088388,32 L 22.160133,31.978069 C 22.160133,31.978069 26.997745,27.140456 26.997745,27.140456 C 18.528582,18.264221 13.291696,25.230495 11.500037,31.436501 z"
             style="fill:#404040;"/>
          </a>
         </g>
        </svg>
</svg>
