<?xml version="1.0" encoding="UTF-8" standalone="no"?>
<!DOCTYPE svg PUBLIC "-//W3C//DTD SVG 1.1//EN"
 "http://www.w3.org/Graphics/SVG/1.1/DTD/svg11.dtd">
<!-- Generated by graphviz version 7.0.4 (20221203.1631)
 -->
<!-- Title: /__w/libsqsh/libsqsh/include/sqsh_mapper.h Pages: 1 -->
<svg width="484pt" height="258pt"
 viewBox="0.00 0.00 484.27 258.00" xmlns="http://www.w3.org/2000/svg" xmlns:xlink="http://www.w3.org/1999/xlink">
<g id="graph0" class="graph" transform="scale(1 1) rotate(0) translate(4 254)">
<title>/__w/libsqsh/libsqsh/include/sqsh_mapper.h</title>
<!-- Node1 -->
<g id="node1" class="node">
<title>Node1</title>
<g id="a_node1"><a xlink:title=" ">
<polygon fill="#999999" stroke="#666666" points="349.5,-250 167.5,-250 167.5,-220 349.5,-220 349.5,-250"/>
<text text-anchor="start" x="175.5" y="-238" font-family="Helvetica,sans-Serif" font-size="10.00">/__w/libsqsh/libsqsh</text>
<text text-anchor="middle" x="258.5" y="-227" font-family="Helvetica,sans-Serif" font-size="10.00">/include/sqsh_mapper.h</text>
</a>
</g>
</g>
<!-- Node2 -->
<g id="node2" class="node">
<title>Node2</title>
<g id="a_node2"><a xlink:href="sqsh_8h.html" target="_top" xlink:title=" ">
<polygon fill="white" stroke="#666666" points="167,-101.5 0,-101.5 0,-71.5 167,-71.5 167,-101.5"/>
<text text-anchor="start" x="8" y="-89.5" font-family="Helvetica,sans-Serif" font-size="10.00">/__w/libsqsh/libsqsh</text>
<text text-anchor="middle" x="83.5" y="-78.5" font-family="Helvetica,sans-Serif" font-size="10.00">/include/sqsh.h</text>
</a>
</g>
</g>
<!-- Node1&#45;&gt;Node2 -->
<g id="edge1" class="edge">
<title>Node1&#45;&gt;Node2</title>
<path fill="none" stroke="#63b8ff" d="M156,-218.87C116.66,-210.78 78.32,-199.29 66.5,-184 47.88,-159.91 63.61,-122.33 74.76,-101.9"/>
<polygon fill="#63b8ff" stroke="#63b8ff" points="155.13,-222.26 165.62,-220.76 156.49,-215.4 155.13,-222.26"/>
</g>
<!-- Node3 -->
<g id="node3" class="node">
<title>Node3</title>
<g id="a_node3"><a xlink:href="sqsh__private_8h.html" target="_top" xlink:title=" ">
<polygon fill="white" stroke="#666666" points="309,-30 120,-30 120,0 309,0 309,-30"/>
<text text-anchor="start" x="128" y="-18" font-family="Helvetica,sans-Serif" font-size="10.00">/__w/libsqsh/libsqsh</text>
<text text-anchor="middle" x="214.5" y="-7" font-family="Helvetica,sans-Serif" font-size="10.00">/include/sqsh_private.h</text>
</a>
</g>
</g>
<!-- Node1&#45;&gt;Node3 -->
<g id="edge6" class="edge">
<title>Node1&#45;&gt;Node3</title>
<path fill="none" stroke="#63b8ff" d="M361.05,-218.67C400.28,-210.56 438.51,-199.1 450.5,-184 483.11,-142.92 485.56,-106.72 452.5,-66 434.31,-43.59 367.64,-30.85 309.47,-23.85"/>
<polygon fill="#63b8ff" stroke="#63b8ff" points="360.59,-215.19 351.47,-220.58 361.96,-222.06 360.59,-215.19"/>
</g>
<!-- Node4 -->
<g id="node4" class="node">
<title>Node4</title>
<g id="a_node4"><a xlink:href="sqsh__context__private_8h.html" target="_top" xlink:title=" ">
<polygon fill="white" stroke="#666666" points="441.5,-184 267.5,-184 267.5,-143 441.5,-143 441.5,-184"/>
<text text-anchor="start" x="275.5" y="-172" font-family="Helvetica,sans-Serif" font-size="10.00">/__w/libsqsh/libsqsh</text>
<text text-anchor="start" x="275.5" y="-161" font-family="Helvetica,sans-Serif" font-size="10.00">/include/sqsh_context</text>
<text text-anchor="middle" x="354.5" y="-150" font-family="Helvetica,sans-Serif" font-size="10.00">_private.h</text>
</a>
</g>
</g>
<!-- Node1&#45;&gt;Node4 -->
<g id="edge3" class="edge">
<title>Node1&#45;&gt;Node4</title>
<path fill="none" stroke="#63b8ff" d="M287.5,-213C300.04,-203.93 314.63,-193.37 326.99,-184.42"/>
<polygon fill="#63b8ff" stroke="#63b8ff" points="285.66,-210.01 279.62,-218.71 289.77,-215.68 285.66,-210.01"/>
</g>
<!-- Node6 -->
<g id="node6" class="node">
<title>Node6</title>
<g id="a_node6"><a xlink:href="sqsh__table_8h.html" target="_top" xlink:title=" ">
<polygon fill="white" stroke="#666666" points="249.5,-178.5 75.5,-178.5 75.5,-148.5 249.5,-148.5 249.5,-178.5"/>
<text text-anchor="start" x="83.5" y="-166.5" font-family="Helvetica,sans-Serif" font-size="10.00">/__w/libsqsh/libsqsh</text>
<text text-anchor="middle" x="162.5" y="-155.5" font-family="Helvetica,sans-Serif" font-size="10.00">/include/sqsh_table.h</text>
</a>
</g>
</g>
<!-- Node1&#45;&gt;Node6 -->
<g id="edge7" class="edge">
<title>Node1&#45;&gt;Node6</title>
<path fill="none" stroke="#63b8ff" d="M229.58,-213.06C214.33,-202.02 196,-188.76 182.37,-178.88"/>
<polygon fill="#63b8ff" stroke="#63b8ff" points="227.23,-215.68 237.38,-218.71 231.34,-210.01 227.23,-215.68"/>
</g>
<!-- Node2&#45;&gt;Node3 -->
<g id="edge2" class="edge">
<title>Node2&#45;&gt;Node3</title>
<path fill="none" stroke="#63b8ff" d="M120.63,-65.8C141.88,-54.53 168.08,-40.63 187.39,-30.38"/>
<polygon fill="#63b8ff" stroke="#63b8ff" points="119.17,-62.61 111.98,-70.39 122.45,-68.8 119.17,-62.61"/>
</g>
<!-- Node4&#45;&gt;Node3 -->
<g id="edge5" class="edge">
<title>Node4&#45;&gt;Node3</title>
<path fill="none" stroke="#63b8ff" d="M292.36,-137.34C277.9,-129.29 263.53,-119.22 252.5,-107 232.2,-84.5 221.81,-49.61 217.32,-30.22"/>
<polygon fill="#63b8ff" stroke="#63b8ff" points="290.52,-140.33 301,-141.89 293.78,-134.14 290.52,-140.33"/>
</g>
<!-- Node5 -->
<g id="node5" class="node">
<title>Node5</title>
<g id="a_node5"><a xlink:href="sqsh__iterator__private_8h.html" target="_top" xlink:title=" ">
<polygon fill="white" stroke="#666666" points="443.5,-107 261.5,-107 261.5,-66 443.5,-66 443.5,-107"/>
<text text-anchor="start" x="269.5" y="-95" font-family="Helvetica,sans-Serif" font-size="10.00">/__w/libsqsh/libsqsh</text>
<text text-anchor="start" x="269.5" y="-84" font-family="Helvetica,sans-Serif" font-size="10.00">/include/sqsh_iterator</text>
<text text-anchor="middle" x="352.5" y="-73" font-family="Helvetica,sans-Serif" font-size="10.00">_private.h</text>
</a>
</g>
</g>
<!-- Node4&#45;&gt;Node5 -->
<g id="edge4" class="edge">
<title>Node4&#45;&gt;Node5</title>
<path fill="none" stroke="#63b8ff" d="M353.67,-131.36C353.45,-123.24 353.23,-114.7 353.03,-107.33"/>
<polygon fill="#63b8ff" stroke="#63b8ff" points="350.17,-131.38 353.93,-141.28 357.17,-131.19 350.17,-131.38"/>
</g>
<!-- Node6&#45;&gt;Node2 -->
<g id="edge8" class="edge">
<title>Node6&#45;&gt;Node2</title>
<path fill="none" stroke="#63b8ff" d="M139.16,-140.34C126.08,-127.93 110.15,-112.8 98.69,-101.92"/>
<polygon fill="#63b8ff" stroke="#63b8ff" points="136.51,-142.65 146.17,-147 141.33,-137.57 136.51,-142.65"/>
</g>
<!-- Node6&#45;&gt;Node3 -->
<g id="edge9" class="edge">
<title>Node6&#45;&gt;Node3</title>
<path fill="none" stroke="#63b8ff" d="M171.4,-137.44C182.38,-106.5 200.68,-54.94 209.48,-30.16"/>
<polygon fill="#63b8ff" stroke="#63b8ff" points="168.13,-136.17 168.09,-146.76 174.73,-138.51 168.13,-136.17"/>
</g>
</g>
</svg>
