<?xml version="1.0" encoding="UTF-8" standalone="no"?>
<!DOCTYPE svg PUBLIC "-//W3C//DTD SVG 1.1//EN"
 "http://www.w3.org/Graphics/SVG/1.1/DTD/svg11.dtd">
<!-- Generated by graphviz version 8.0.5 (20230430.1635)
 -->
<!-- Title: include/sqsh_xattr_private.h Pages: 1 -->
<!--zoomable 506349 -->
<svg id="main" version="1.1" xmlns="http://www.w3.org/2000/svg" xmlns:xlink="http://www.w3.org/1999/xlink" xml:space="preserve" onload="init(evt)">
<style type="text/css"><![CDATA[
.edge:hover path { stroke: red; }
.edge:hover polygon { stroke: red; fill: red; }
]]></style>
<script type="text/javascript"><![CDATA[
var edges = document.getElementsByTagName('g');
if (edges && edges.length) {
  for (var i=0;i<edges.length;i++) {
    if (edges[i].id.substr(0,4)=='edge') {
      edges[i].setAttribute('class','edge');
    }
  }
}
]]></script>
        <defs>
                <circle id="rim" cx="0" cy="0" r="7"/>
                <circle id="rim2" cx="0" cy="0" r="3.5"/>
                <g id="zoomPlus">
                        <use xlink:href="#rim" fill="#404040">
                                <set attributeName="fill" to="#808080" begin="zoomplus.mouseover" end="zoomplus.mouseout"/>
                        </use>
                        <path d="M-4,0h8M0,-4v8" fill="none" stroke="white" stroke-width="1.5" pointer-events="none"/>
                </g>
                <g id="zoomMin">
                        <use xlink:href="#rim" fill="#404040">
                                <set attributeName="fill" to="#808080" begin="zoomminus.mouseover" end="zoomminus.mouseout"/>
                        </use>
                        <path d="M-4,0h8" fill="none" stroke="white" stroke-width="1.5" pointer-events="none"/>
                </g>
                <g id="dirArrow">
                        <path fill="none" stroke="white" stroke-width="1.5" d="M0,-3.0v7 M-2.5,-0.5L0,-3.0L2.5,-0.5"/>
                </g>
               <g id="resetDef">
                       <use xlink:href="#rim2" fill="#404040">
                               <set attributeName="fill" to="#808080" begin="reset.mouseover" end="reset.mouseout"/>
                       </use>
               </g>
        </defs>

<script type="text/javascript">
var viewWidth = 784;
var viewHeight = 506349;
var sectionId = 'dynsection-0';
</script>
<script xlink:href="svgpan.js"/>
<svg id="graph" class="graph">
<g id="viewport">
<title>include/sqsh_xattr_private.h</title>
<!-- Node1 -->
<g id="node1" class="node">
<title>Node1</title>
<g id="a_node1"><a xlink:title=" ">
<polygon fill="#999999" stroke="#666666" points="473.79,-506341.2 322.79,-506341.2 322.79,-506312.2 473.79,-506312.2 473.79,-506341.2"/>
<text text-anchor="start" x="330.79" y="-506327.7" font-family="Helvetica,sans-Serif" font-size="10.00">include/sqsh_xattr</text>
<text text-anchor="middle" x="398.29" y="-506317.2" font-family="Helvetica,sans-Serif" font-size="10.00">_private.h</text>
</a>
</g>
</g>
<!-- Node2 -->
<g id="node2" class="node">
<title>Node2</title>
<g id="a_node2"><a xlink:href="sqsh__metablock__private_8h.html" target="_top" xlink:title=" ">
<polygon fill="white" stroke="#666666" points="297.29,-506272.45 101.29,-506272.45 101.29,-506253.94 297.29,-506253.94 297.29,-506272.45"/>
<text text-anchor="middle" x="199.29" y="-506258.95" font-family="Helvetica,sans-Serif" font-size="10.00">sqsh_metablock_private.h</text>
</a>
</g>
</g>
<!-- Node1&#45;&gt;Node2 -->
<g id="edge1" class="edge">
<title>Node1&#45;&gt;Node2</title>
<path fill="none" stroke="#63b8ff" d="M353.14,-506311.74C318.27,-506300.96 270.55,-506286.22 237.55,-506276.02"/>
<polygon fill="#63b8ff" stroke="#63b8ff" points="238.97,-506272.48 228.38,-506272.88 236.9,-506279.17 238.97,-506272.48"/>
</g>
<!-- Node15 -->
<g id="node15" class="node">
<title>Node15</title>
<g id="a_node15"><a xlink:href="sqsh__table__private_8h.html" target="_top" xlink:title=" ">
<polygon fill="white" stroke="#666666" points="481.29,-506272.45 315.29,-506272.45 315.29,-506253.95 481.29,-506253.95 481.29,-506272.45"/>
<text text-anchor="middle" x="398.29" y="-506258.95" font-family="Helvetica,sans-Serif" font-size="10.00">sqsh_table_private.h</text>
</a>
</g>
</g>
<!-- Node1&#45;&gt;Node15 -->
<g id="edge19" class="edge">
<title>Node1&#45;&gt;Node15</title>
<path fill="none" stroke="#63b8ff" d="M398.29,-506311.74C398.29,-506303.36 398.29,-506292.58 398.29,-506283.41"/>
<polygon fill="#63b8ff" stroke="#63b8ff" points="401.79,-506283.61 398.29,-506273.61 394.79,-506283.61 401.79,-506283.61"/>
</g>
<!-- Node17 -->
<g id="node17" class="node">
<title>Node17</title>
<g id="a_node17"><a xlink:href="sqsh__xattr_8h.html" target="_top" xlink:title=" ">
<polygon fill="white" stroke="#666666" points="654.29,-506276.2 548.29,-506276.2 548.29,-506250.2 654.29,-506250.2 654.29,-506276.2"/>
<text text-anchor="middle" x="601.29" y="-506262.7" font-family="Helvetica,sans-Serif" font-size="10.00">sqsh_xattr.h</text>
</a>
</g>
</g>
<!-- Node1&#45;&gt;Node17 -->
<g id="edge24" class="edge">
<title>Node1&#45;&gt;Node17</title>
<path fill="none" stroke="#63b8ff" d="M444.36,-506311.74C475.81,-506302.21 517.52,-506289.58 550.03,-506279.73"/>
<polygon fill="#63b8ff" stroke="#63b8ff" points="550.68,-506282.88 559.23,-506276.63 548.65,-506276.18 550.68,-506282.88"/>
</g>
<!-- Node3 -->
<g id="node3" class="node">
<title>Node3</title>
<g id="a_node3"><a xlink:href="sqsh__extract__private_8h.html" target="_top" xlink:title=" ">
<polygon fill="white" stroke="#666666" points="192.79,-506214.2 11.79,-506214.2 11.79,-337520.53 192.79,-337520.53 192.79,-506214.2"/>
<text text-anchor="middle" x="102.29" y="-506200.7" font-family="Helvetica,sans-Serif" font-size="10.00">sqsh_extract_private.h</text>
</a>
</g>
</g>
<!-- Node2&#45;&gt;Node3 -->
<g id="edge2" class="edge">
<title>Node2&#45;&gt;Node3</title>
<path fill="none" stroke="#63b8ff" d="M199.28,-506253.54C199.12,-506110.57 196.93,-504204.04 193.31,-501052.92"/>
<polygon fill="#63b8ff" stroke="#63b8ff" points="196.81,-501052.93 193.29,-501042.94 189.81,-501052.94 196.81,-501052.93"/>
</g>
<!-- Node11 -->
<g id="node11" class="node">
<title>Node11</title>
<g id="a_node11"><a xlink:href="sqsh__mapper__private_8h.html" target="_top" xlink:title=" ">
<polygon fill="white" stroke="#666666" points="386.04,-421876.61 212.54,-421876.61 212.54,-421858.11 386.04,-421858.11 386.04,-421876.61"/>
<text text-anchor="middle" x="299.29" y="-421863.11" font-family="Helvetica,sans-Serif" font-size="10.00">sqsh_mapper_private.h</text>
</a>
</g>
</g>
<!-- Node2&#45;&gt;Node11 -->
<g id="edge10" class="edge">
<title>Node2&#45;&gt;Node11</title>
<path fill="none" stroke="#63b8ff" d="M199.75,-506253.7C200.24,-506244.11 201,-506228.04 201.29,-506214.2 598.41,-487662.11 305.28,-423174.15 299.38,-421887.88"/>
<polygon fill="#63b8ff" stroke="#63b8ff" points="302.88,-421887.87 299.33,-421877.88 295.88,-421887.9 302.88,-421887.87"/>
</g>
<!-- Node4 -->
<g id="node4" class="node">
<title>Node4</title>
<g id="a_node4"><a xlink:title=" ">
<polygon fill="#e0e0e0" stroke="#999999" points="311.29,-337422.53 145.29,-337422.53 145.29,-168730.12 311.29,-168730.12 311.29,-337422.53"/>
<text text-anchor="middle" x="228.29" y="-337409.03" font-family="Helvetica,sans-Serif" font-size="10.00">cextras/collection.h</text>
</a>
</g>
</g>
<!-- Node3&#45;&gt;Node4 -->
<g id="edge3" class="edge">
<title>Node3&#45;&gt;Node4</title>
<path fill="none" stroke="#63b8ff" d="M11.29,-348815.94C8.18,-344983.48 5.47,-341188.28 3.29,-337484.53 3.29,-337472.98 -3.73,-337467.71 3.29,-337458.53 40.51,-337409.9 99.05,-337471.14 136.29,-337422.53 324.52,-337176.87 339.52,-313644 311.81,-291500.9"/>
<polygon fill="#63b8ff" stroke="#63b8ff" points="315.31,-291500.99 311.79,-291491 308.31,-291501 315.31,-291500.99"/>
</g>
<!-- Node5 -->
<g id="node5" class="node">
<title>Node5</title>
<g id="a_node5"><a xlink:href="sqsh__thread__private_8h.html" target="_top" xlink:title=" ">
<polygon fill="white" stroke="#666666" points="186.04,-337484.53 12.54,-337484.53 12.54,-337458.53 186.04,-337458.53 186.04,-337484.53"/>
<text text-anchor="middle" x="99.29" y="-337471.03" font-family="Helvetica,sans-Serif" font-size="10.00">sqsh_thread_private.h</text>
</a>
</g>
</g>
<!-- Node3&#45;&gt;Node5 -->
<g id="edge4" class="edge">
<title>Node3&#45;&gt;Node5</title>
<path fill="none" stroke="#63b8ff" d="M99.3,-337520.26C99.29,-337510.64 99.29,-337502.46 99.29,-337495.73"/>
<polygon fill="#63b8ff" stroke="#63b8ff" points="102.79,-337495.9 99.29,-337485.9 95.79,-337495.9 102.79,-337495.9"/>
</g>
<!-- Node6 -->
<g id="node6" class="node">
<title>Node6</title>
<g id="a_node6"><a xlink:title=" ">
<polygon fill="#e0e0e0" stroke="#999999" points="127.04,-253089.33 43.54,-253089.33 43.54,-253063.33 127.04,-253063.33 127.04,-253089.33"/>
<text text-anchor="middle" x="85.29" y="-253075.83" font-family="Helvetica,sans-Serif" font-size="10.00">pthread.h</text>
</a>
</g>
</g>
<!-- Node5&#45;&gt;Node6 -->
<g id="edge5" class="edge">
<title>Node5&#45;&gt;Node6</title>
<path fill="none" stroke="#63b8ff" d="M99.29,-337458.33C99.1,-336311.42 85.56,-254681.82 85.3,-253100.6"/>
<polygon fill="#63b8ff" stroke="#63b8ff" points="88.8,-253100.78 85.3,-253090.78 81.8,-253100.78 88.8,-253100.78"/>
</g>
<!-- Node7 -->
<g id="node7" class="node">
<title>Node7</title>
<g id="a_node7"><a xlink:href="sqsh__common_8h.html" target="_top" xlink:title=" ">
<polygon fill="white" stroke="#666666" points="662.04,-253085.58 548.54,-253085.58 548.54,-253067.08 662.04,-253067.08 662.04,-253085.58"/>
<text text-anchor="middle" x="605.29" y="-253072.08" font-family="Helvetica,sans-Serif" font-size="10.00">sqsh_common.h</text>
</a>
</g>
</g>
<!-- Node5&#45;&gt;Node7 -->
<g id="edge6" class="edge">
<title>Node5&#45;&gt;Node7</title>
<path fill="none" stroke="#63b8ff" d="M186.47,-337462.12C308.93,-337450.1 517.72,-337428.77 523.29,-337422.53 910.24,-336989.73 610.69,-254553.07 605.36,-253096.85"/>
<polygon fill="#63b8ff" stroke="#63b8ff" points="608.86,-253096.92 605.33,-253086.93 601.86,-253096.95 608.86,-253096.92"/>
</g>
<!-- Node8 -->
<g id="node8" class="node">
<title>Node8</title>
<g id="a_node8"><a xlink:title=" ">
<polygon fill="#e0e0e0" stroke="#999999" points="549.04,-84356.31 465.54,-84356.31 465.54,-84337.81 549.04,-84337.81 549.04,-84356.31"/>
<text text-anchor="middle" x="507.29" y="-84342.81" font-family="Helvetica,sans-Serif" font-size="10.00">stdbool.h</text>
</a>
</g>
</g>
<!-- Node7&#45;&gt;Node8 -->
<g id="edge7" class="edge">
<title>Node7&#45;&gt;Node8</title>
<path fill="none" stroke="#63b8ff" d="M605.29,-253066.63C604.49,-251686.3 508.5,-86422.21 507.3,-84367.38"/>
<polygon fill="#63b8ff" stroke="#63b8ff" points="510.8,-84367.68 507.3,-84357.68 503.8,-84367.69 510.8,-84367.68"/>
</g>
<!-- Node9 -->
<g id="node9" class="node">
<title>Node9</title>
<g id="a_node9"><a xlink:title=" ">
<polygon fill="#e0e0e0" stroke="#999999" points="643.29,-84360.06 567.29,-84360.06 567.29,-84334.06 643.29,-84334.06 643.29,-84360.06"/>
<text text-anchor="middle" x="605.29" y="-84346.56" font-family="Helvetica,sans-Serif" font-size="10.00">stddef.h</text>
</a>
</g>
</g>
<!-- Node7&#45;&gt;Node9 -->
<g id="edge8" class="edge">
<title>Node7&#45;&gt;Node9</title>
<path fill="none" stroke="#63b8ff" d="M605.29,-253066.63C605.29,-251687.06 605.29,-86604.72 605.29,-84370.94"/>
<polygon fill="#63b8ff" stroke="#63b8ff" points="608.79,-84371.29 605.29,-84361.29 601.79,-84371.29 608.79,-84371.29"/>
</g>
<!-- Node10 -->
<g id="node10" class="node">
<title>Node10</title>
<g id="a_node10"><a xlink:title=" ">
<polygon fill="#e0e0e0" stroke="#999999" points="737.29,-168694.12 661.29,-168694.12 661.29,0 737.29,0 737.29,-168694.12"/>
<text text-anchor="middle" x="699.29" y="-168680.62" font-family="Helvetica,sans-Serif" font-size="10.00">stdint.h</text>
</a>
</g>
</g>
<!-- Node7&#45;&gt;Node10 -->
<g id="edge9" class="edge">
<title>Node7&#45;&gt;Node10</title>
<path fill="none" stroke="#63b8ff" d="M605.3,-253066.63C605.73,-252290.61 635.02,-199715.73 660.79,-153464.95"/>
<polygon fill="#63b8ff" stroke="#63b8ff" points="664.29,-153465.1 660.79,-153455.09 657.29,-153465.09 664.29,-153465.1"/>
</g>
<!-- Node11&#45;&gt;Node4 -->
<g id="edge17" class="edge">
<title>Node11&#45;&gt;Node4</title>
<path fill="none" stroke="#63b8ff" d="M299.28,-421857.81C298.51,-421134.45 248.95,-374694.58 233.29,-337484.53 233.29,-337467.47 233.28,-337450.4 233.27,-337433.33"/>
<polygon fill="#63b8ff" stroke="#63b8ff" points="236.77,-337433.7 233.27,-337423.7 229.77,-337433.7 236.77,-337433.7"/>
</g>
<!-- Node11&#45;&gt;Node5 -->
<g id="edge16" class="edge">
<title>Node11&#45;&gt;Node5</title>
<path fill="none" stroke="#63b8ff" d="M299.32,-421857.76C301.81,-420886.59 513.59,-338012.01 201.29,-337520.53 192.3,-337506.37 177.89,-337496.31 162.7,-337489.2"/>
<polygon fill="#63b8ff" stroke="#63b8ff" points="164.23,-337485.62 153.66,-337484.93 161.49,-337492.06 164.23,-337485.62"/>
</g>
<!-- Node12 -->
<g id="node12" class="node">
<title>Node12</title>
<g id="a_node12"><a xlink:href="sqsh__mapper_8h.html" target="_top" xlink:title=" ">
<polygon fill="white" stroke="#666666" points="356.04,-337480.78 242.54,-337480.78 242.54,-337462.28 356.04,-337462.28 356.04,-337480.78"/>
<text text-anchor="middle" x="299.29" y="-337467.28" font-family="Helvetica,sans-Serif" font-size="10.00">sqsh_mapper.h</text>
</a>
</g>
</g>
<!-- Node11&#45;&gt;Node12 -->
<g id="edge11" class="edge">
<title>Node11&#45;&gt;Node12</title>
<path fill="none" stroke="#63b8ff" d="M299.29,-421857.7C299.29,-420888.9 299.29,-338939.51 299.29,-337491.94"/>
<polygon fill="#63b8ff" stroke="#63b8ff" points="302.79,-337492.09 299.29,-337482.09 295.79,-337492.09 302.79,-337492.09"/>
</g>
<!-- Node13 -->
<g id="node13" class="node">
<title>Node13</title>
<g id="a_node13"><a xlink:href="sqsh__reader__private_8h.html" target="_top" xlink:title=" ">
<polygon fill="white" stroke="#666666" points="548.04,-337484.53 374.54,-337484.53 374.54,-337458.53 548.04,-337458.53 548.04,-337484.53"/>
<text text-anchor="middle" x="461.29" y="-337471.03" font-family="Helvetica,sans-Serif" font-size="10.00">sqsh_reader_private.h</text>
</a>
</g>
</g>
<!-- Node11&#45;&gt;Node13 -->
<g id="edge12" class="edge">
<title>Node11&#45;&gt;Node13</title>
<path fill="none" stroke="#63b8ff" d="M299.26,-421857.84C295.91,-420915.84 17.04,-342158.01 452.29,-337520.53 453.07,-337512.25 454.57,-337503.27 456.13,-337495.34"/>
<polygon fill="#63b8ff" stroke="#63b8ff" points="459.74,-337496.18 458.38,-337485.68 452.89,-337494.74 459.74,-337496.18"/>
</g>
<!-- Node14 -->
<g id="node14" class="node">
<title>Node14</title>
<g id="a_node14"><a xlink:title=" ">
<polygon fill="#e0e0e0" stroke="#999999" points="514.79,-253085.58 423.79,-253085.58 423.79,-253067.08 514.79,-253067.08 514.79,-253085.58"/>
<text text-anchor="middle" x="469.29" y="-253072.08" font-family="Helvetica,sans-Serif" font-size="10.00">sys/wait.h</text>
</a>
</g>
</g>
<!-- Node11&#45;&gt;Node14 -->
<g id="edge18" class="edge">
<title>Node11&#45;&gt;Node14</title>
<path fill="none" stroke="#63b8ff" d="M299.27,-421857.76C297.11,-420886.38 113.41,-337994.06 452.29,-337520.53 481,-337480.41 528.62,-337524.68 557.29,-337484.53 564.01,-337475.13 559.95,-337469.78 557.29,-337458.53 553.18,-337441.12 543.41,-337439.94 539.29,-337422.53 272.06,-336292.59 465.8,-254540.76 469.25,-253096.69"/>
<polygon fill="#63b8ff" stroke="#63b8ff" points="472.75,-253096.87 469.27,-253086.86 465.75,-253096.85 472.75,-253096.87"/>
</g>
<!-- Node13&#45;&gt;Node4 -->
<g id="edge14" class="edge">
<title>Node13&#45;&gt;Node4</title>
<path fill="none" stroke="#63b8ff" d="M443.48,-337458.07C432.81,-337449.47 420.21,-337436.99 414.29,-337422.53 374.9,-337326.31 341.04,-336582.75 312.04,-335307.51"/>
<polygon fill="#63b8ff" stroke="#63b8ff" points="315.52,-335307.65 311.79,-335297.73 308.52,-335307.8 315.52,-335307.65"/>
</g>
<!-- Node13&#45;&gt;Node7 -->
<g id="edge13" class="edge">
<title>Node13&#45;&gt;Node7</title>
<path fill="none" stroke="#63b8ff" d="M486.85,-337458.07C500.35,-337449.98 515.67,-337438.05 523.29,-337422.53 1035.1,-336380.3 612.89,-254542.31 605.39,-253096.71"/>
<polygon fill="#63b8ff" stroke="#63b8ff" points="608.89,-253096.85 605.34,-253086.87 601.89,-253096.89 608.89,-253096.85"/>
</g>
<!-- Node13&#45;&gt;Node14 -->
<g id="edge15" class="edge">
<title>Node13&#45;&gt;Node14</title>
<path fill="none" stroke="#63b8ff" d="M461.29,-337458.33C461.4,-336310.43 469.15,-254541.07 469.29,-253096.69"/>
<polygon fill="#63b8ff" stroke="#63b8ff" points="472.79,-253096.86 469.29,-253086.86 465.79,-253096.86 472.79,-253096.86"/>
</g>
<!-- Node15&#45;&gt;Node3 -->
<g id="edge20" class="edge">
<title>Node15&#45;&gt;Node3</title>
<path fill="none" stroke="#63b8ff" d="M350.16,-506253.53C295.43,-506243.19 212.44,-506225.85 203.29,-506214.2 200.59,-506210.74 197.91,-506202.61 195.27,-506189.87"/>
<polygon fill="#63b8ff" stroke="#63b8ff" points="198.56,-506189.4 193.26,-506180.23 191.68,-506190.7 198.56,-506189.4"/>
</g>
<!-- Node15&#45;&gt;Node11 -->
<g id="edge21" class="edge">
<title>Node15&#45;&gt;Node11</title>
<path fill="none" stroke="#63b8ff" d="M398.28,-506253.54C397.15,-505284.74 301.01,-423335.34 299.32,-421887.77"/>
<polygon fill="#63b8ff" stroke="#63b8ff" points="302.82,-421887.92 299.3,-421877.92 295.82,-421887.92 302.82,-421887.92"/>
</g>
<!-- Node16 -->
<g id="node16" class="node">
<title>Node16</title>
<g id="a_node16"><a xlink:href="sqsh__table_8h.html" target="_top" xlink:title=" ">
<polygon fill="white" stroke="#666666" points="567.29,-421876.61 461.29,-421876.61 461.29,-421858.11 567.29,-421858.11 567.29,-421876.61"/>
<text text-anchor="middle" x="514.29" y="-421863.11" font-family="Helvetica,sans-Serif" font-size="10.00">sqsh_table.h</text>
</a>
</g>
</g>
<!-- Node15&#45;&gt;Node16 -->
<g id="edge22" class="edge">
<title>Node15&#45;&gt;Node16</title>
<path fill="none" stroke="#63b8ff" d="M398.31,-506253.54C399.64,-505284.74 512.28,-423335.34 514.27,-421887.77"/>
<polygon fill="#63b8ff" stroke="#63b8ff" points="517.77,-421887.93 514.28,-421877.92 510.77,-421887.92 517.77,-421887.93"/>
</g>
<!-- Node16&#45;&gt;Node7 -->
<g id="edge23" class="edge">
<title>Node16&#45;&gt;Node7</title>
<path fill="none" stroke="#63b8ff" d="M514.3,-421857.81C515.16,-421134.45 570.23,-374694.58 590.29,-337484.53 610.28,-300413.24 605.41,-254183.57 605.3,-253096.85"/>
<polygon fill="#63b8ff" stroke="#63b8ff" points="608.8,-253096.89 605.29,-253086.89 601.8,-253096.89 608.8,-253096.89"/>
</g>
<!-- Node17&#45;&gt;Node7 -->
<g id="edge25" class="edge">
<title>Node17&#45;&gt;Node7</title>
<path fill="none" stroke="#63b8ff" d="M601.29,-506250C601.32,-505026.85 603.19,-412002.36 604.29,-337484.53 604.84,-300413.24 605.28,-254183.57 605.29,-253096.85"/>
<polygon fill="#63b8ff" stroke="#63b8ff" points="608.79,-253096.89 605.29,-253086.89 601.79,-253096.89 608.79,-253096.89"/>
</g>
</g>
</svg>
        <g id="navigator" transform="translate(0 0)" fill="#404254">
                <rect fill="#f2f5e9" fill-opacity="0.5" stroke="#606060" stroke-width=".5" x="0" y="0" width="60" height="60"/>
                <use id="zoomplus" xlink:href="#zoomPlus" x="17" y="9" onmousedown="handleZoom(evt,'in')"/>
                <use id="zoomminus" xlink:href="#zoomMin" x="42" y="9" onmousedown="handleZoom(evt,'out')"/>
                <use id="reset" xlink:href="#resetDef" x="30" y="36" onmousedown="handleReset()"/>
                <g id="arrowUp" xlink:href="#dirArrow" transform="translate(30 24)" onmousedown="handlePan(0,-1)">
                  <use xlink:href="#rim" fill="#404040">
                        <set attributeName="fill" to="#808080" begin="arrowUp.mouseover" end="arrowUp.mouseout"/>
                  </use>
                  <path fill="none" stroke="white" stroke-width="1.5" d="M0,-3.0v7 M-2.5,-0.5L0,-3.0L2.5,-0.5"/>
                </g>
                <g id="arrowRight" xlink:href="#dirArrow" transform="rotate(90) translate(36 -43)" onmousedown="handlePan(1,0)">
                  <use xlink:href="#rim" fill="#404040">
                        <set attributeName="fill" to="#808080" begin="arrowRight.mouseover" end="arrowRight.mouseout"/>
                  </use>
                  <path fill="none" stroke="white" stroke-width="1.5" d="M0,-3.0v7 M-2.5,-0.5L0,-3.0L2.5,-0.5"/>
                </g>
                <g id="arrowDown" xlink:href="#dirArrow" transform="rotate(180) translate(-30 -48)" onmousedown="handlePan(0,1)">
                  <use xlink:href="#rim" fill="#404040">
                        <set attributeName="fill" to="#808080" begin="arrowDown.mouseover" end="arrowDown.mouseout"/>
                  </use>
                  <path fill="none" stroke="white" stroke-width="1.5" d="M0,-3.0v7 M-2.5,-0.5L0,-3.0L2.5,-0.5"/>
                </g>
                <g id="arrowLeft" xlink:href="#dirArrow" transform="rotate(270) translate(-36 17)" onmousedown="handlePan(-1,0)">
                  <use xlink:href="#rim" fill="#404040">
                        <set attributeName="fill" to="#808080" begin="arrowLeft.mouseover" end="arrowLeft.mouseout"/>
                  </use>
                  <path fill="none" stroke="white" stroke-width="1.5" d="M0,-3.0v7 M-2.5,-0.5L0,-3.0L2.5,-0.5"/>
                </g>
        </g>
        <svg viewBox="0 0 15 15" width="100%" height="30px" preserveAspectRatio="xMaxYMin meet">
         <g id="arrow_out" transform="scale(0.3 0.3)">
          <a xlink:href="sqsh__xattr__private_8h__incl_org.svg" target="_base">
           <rect id="button" ry="5" rx="5" y="6" x="6" height="38" width="38"
                fill="#f2f5e9" fill-opacity="0.5" stroke="#606060" stroke-width="1.0"/>
           <path id="arrow"
             d="M 11.500037,31.436501 C 11.940474,20.09759 22.043105,11.32322 32.158766,21.979434 L 37.068811,17.246167 C 37.068811,17.246167 37.088388,32 37.088388,32 L 22.160133,31.978069 C 22.160133,31.978069 26.997745,27.140456 26.997745,27.140456 C 18.528582,18.264221 13.291696,25.230495 11.500037,31.436501 z"
             style="fill:#404040;"/>
          </a>
         </g>
        </svg>
</svg>
