<?xml version="1.0" encoding="UTF-8" standalone="no"?>
<!DOCTYPE svg PUBLIC "-//W3C//DTD SVG 1.1//EN"
 "http://www.w3.org/Graphics/SVG/1.1/DTD/svg11.dtd">
<!-- Generated by graphviz version 8.0.5 (20230430.1635)
 -->
<!-- Title: sqsh_archive.h Pages: 1 -->
<svg width="268pt" height="89pt"
 viewBox="0.00 0.00 268.00 88.50" xmlns="http://www.w3.org/2000/svg" xmlns:xlink="http://www.w3.org/1999/xlink">
<g id="graph0" class="graph" transform="scale(1 1) rotate(0) translate(4 84.5)">
<title>sqsh_archive.h</title>
<!-- Node1 -->
<g id="node1" class="node">
<title>Node1</title>
<g id="a_node1"><a xlink:title=" ">
<polygon fill="#999999" stroke="#666666" points="160,-80.5 39,-80.5 39,-62 160,-62 160,-80.5"/>
<text text-anchor="middle" x="99.5" y="-67" font-family="Helvetica,sans-Serif" font-size="10.00">sqsh_archive.h</text>
</a>
</g>
</g>
<!-- Node2 -->
<g id="node2" class="node">
<title>Node2</title>
<g id="a_node2"><a xlink:href="sqsh_8h.html" target="_top" xlink:title=" ">
<polygon fill="white" stroke="#666666" points="61,-22.25 0,-22.25 0,-3.75 61,-3.75 61,-22.25"/>
<text text-anchor="middle" x="30.5" y="-8.75" font-family="Helvetica,sans-Serif" font-size="10.00">sqsh.h</text>
</a>
</g>
</g>
<!-- Node1&#45;&gt;Node2 -->
<g id="edge1" class="edge">
<title>Node1&#45;&gt;Node2</title>
<path fill="none" stroke="#63b8ff" d="M80.53,-54.78C67.81,-44.42 51.55,-31.16 41.08,-22.62"/>
<polygon fill="#63b8ff" stroke="#63b8ff" points="78.06,-58.1 88.02,-61.71 82.48,-52.68 78.06,-58.1"/>
</g>
<!-- Node3 -->
<g id="node3" class="node">
<title>Node3</title>
<g id="a_node3"><a xlink:href="sqsh__archive__private_8h.html" target="_top" xlink:title=" ">
<polygon fill="white" stroke="#666666" points="260,-26 79,-26 79,0 260,0 260,-26"/>
<text text-anchor="middle" x="169.5" y="-12.5" font-family="Helvetica,sans-Serif" font-size="10.00">sqsh_archive_private.h</text>
</a>
</g>
</g>
<!-- Node1&#45;&gt;Node3 -->
<g id="edge2" class="edge">
<title>Node1&#45;&gt;Node3</title>
<path fill="none" stroke="#63b8ff" d="M118.38,-55.08C129.57,-46.09 143.57,-34.84 154.09,-26.39"/>
<polygon fill="#63b8ff" stroke="#63b8ff" points="116.73,-52.71 111.13,-61.71 121.12,-58.17 116.73,-52.71"/>
</g>
</g>
</svg>
