<?xml version="1.0" encoding="UTF-8" standalone="no"?>
<!DOCTYPE svg PUBLIC "-//W3C//DTD SVG 1.1//EN"
 "http://www.w3.org/Graphics/SVG/1.1/DTD/svg11.dtd">
<!-- Generated by graphviz version 8.0.5 (20230430.1635)
 -->
<!-- Title: include/sqsh_common.h Pages: 1 -->
<svg width="2077pt" height="3532399pt"
 viewBox="0.00 0.00 2076.92 3532399.11" xmlns="http://www.w3.org/2000/svg" xmlns:xlink="http://www.w3.org/1999/xlink">
<g id="graph0" class="graph" transform="scale(1 1) rotate(0) translate(4 3532395.11)">
<title>include/sqsh_common.h</title>
<!-- Node1 -->
<g id="node1" class="node">
<title>Node1</title>
<g id="a_node1"><a xlink:title=" ">
<polygon fill="#999999" stroke="#666666" points="1234.89,-3532391.11 1061.39,-3532391.11 1061.39,-3532372.61 1234.89,-3532372.61 1234.89,-3532391.11"/>
<text text-anchor="middle" x="1148.14" y="-3532377.61" font-family="Helvetica,sans-Serif" font-size="10.00">include/sqsh_common.h</text>
</a>
</g>
</g>
<!-- Node2 -->
<g id="node2" class="node">
<title>Node2</title>
<g id="a_node2"><a xlink:href="sqsh_8h.html" target="_top" xlink:title=" ">
<polygon fill="white" stroke="#666666" points="1303.64,-1260232.58 1182.64,-1260232.58 1182.64,-208.45 1303.64,-208.45 1303.64,-1260232.58"/>
<text text-anchor="middle" x="1243.14" y="-1260219.08" font-family="Helvetica,sans-Serif" font-size="10.00">include/sqsh.h</text>
</a>
</g>
</g>
<!-- Node1&#45;&gt;Node2 -->
<g id="edge1" class="edge">
<title>Node1&#45;&gt;Node2</title>
<path fill="none" stroke="#63b8ff" d="M1148.14,-3532361.6C1148.23,-3526981.66 1167.14,-2396320.6 1167.14,-2396320.6 1170.77,-2396303.47 1179.5,-2396301.72 1183.14,-2396284.6 1183.14,-2396284.6 1204.5,-1767437.92 1221.73,-1260233.07"/>
<polygon fill="#63b8ff" stroke="#63b8ff" points="1144.64,-3532361.28 1148.14,-3532371.28 1151.64,-3532361.28 1144.64,-3532361.28"/>
</g>
<!-- Node10 -->
<g id="node10" class="node">
<title>Node10</title>
<g id="a_node10"><a xlink:href="sqsh__archive_8h.html" target="_top" xlink:title=" ">
<polygon fill="white" stroke="#666666" points="1674.64,-1828285.84 1493.64,-1828285.84 1493.64,-1828267.34 1674.64,-1828267.34 1674.64,-1828285.84"/>
<text text-anchor="middle" x="1584.14" y="-1828272.34" font-family="Helvetica,sans-Serif" font-size="10.00">include/sqsh_archive.h</text>
</a>
</g>
</g>
<!-- Node1&#45;&gt;Node10 -->
<g id="edge9" class="edge">
<title>Node1&#45;&gt;Node10</title>
<path fill="none" stroke="#63b8ff" d="M1246.05,-3532376.53C1356.02,-3532370.65 1521.76,-3532358.28 1541.14,-3532336.61 1541.14,-3532336.61 1584.03,-1832643.1 1584.14,-1828285.98"/>
<polygon fill="#63b8ff" stroke="#63b8ff" points="1246.06,-3532373.08 1236.26,-3532377.1 1246.43,-3532380.07 1246.06,-3532373.08"/>
</g>
<!-- Node12 -->
<g id="node12" class="node">
<title>Node12</title>
<g id="a_node12"><a xlink:href="sqsh__easy_8h.html" target="_top" xlink:title=" ">
<polygon fill="white" stroke="#666666" points="1334.39,-2964337.85 1175.89,-2964337.85 1175.89,-2964319.35 1334.39,-2964319.35 1334.39,-2964337.85"/>
<text text-anchor="middle" x="1255.14" y="-2964324.35" font-family="Helvetica,sans-Serif" font-size="10.00">include/sqsh_easy.h</text>
</a>
</g>
</g>
<!-- Node1&#45;&gt;Node12 -->
<g id="edge12" class="edge">
<title>Node1&#45;&gt;Node12</title>
<path fill="none" stroke="#63b8ff" d="M1155.47,-3532362.1C1158.13,-3532354.34 1160.81,-3532345.17 1162.14,-3532336.61 1462.6,-3530391.89 1256.07,-2966883.38 1255.14,-2964338.25"/>
<polygon fill="#63b8ff" stroke="#63b8ff" points="1151.91,-3532360.64 1151.74,-3532371.23 1158.48,-3532363.06 1151.91,-3532360.64"/>
</g>
<!-- Node13 -->
<g id="node13" class="node">
<title>Node13</title>
<g id="a_node13"><a xlink:href="sqsh__error_8h.html" target="_top" xlink:title=" ">
<polygon fill="white" stroke="#666666" points="1475.14,-1828285.84 1309.14,-1828285.84 1309.14,-1828267.34 1475.14,-1828267.34 1475.14,-1828285.84"/>
<text text-anchor="middle" x="1392.14" y="-1828272.34" font-family="Helvetica,sans-Serif" font-size="10.00">include/sqsh_error.h</text>
</a>
</g>
</g>
<!-- Node1&#45;&gt;Node13 -->
<g id="edge14" class="edge">
<title>Node1&#45;&gt;Node13</title>
<path fill="none" stroke="#63b8ff" d="M1246.1,-3532376.08C1352.14,-3532369.88 1508.69,-3532357.33 1527.14,-3532336.61 1527.14,-3532336.61 1527.14,-2396320.6 1527.14,-2396320.6 1516.86,-2396298.26 1495.41,-2396306.93 1485.14,-2396284.6 1279.54,-2395837.67 1391.63,-1830838.13 1392.13,-1828286.26"/>
<polygon fill="#63b8ff" stroke="#63b8ff" points="1246.14,-3532372.63 1236.36,-3532376.69 1246.54,-3532379.62 1246.14,-3532372.63"/>
</g>
<!-- Node14 -->
<g id="node14" class="node">
<title>Node14</title>
<g id="a_node14"><a xlink:href="sqsh__file_8h.html" target="_top" xlink:title=" ">
<polygon fill="white" stroke="#666666" points="1120.39,-2964349.83 961.89,-2964349.83 961.89,-2964307.38 1120.39,-2964307.38 1120.39,-2964349.83"/>
<text text-anchor="middle" x="1041.14" y="-2964336.33" font-family="Helvetica,sans-Serif" font-size="10.00">include/sqsh_file.h</text>
</a>
</g>
</g>
<!-- Node1&#45;&gt;Node14 -->
<g id="edge17" class="edge">
<title>Node1&#45;&gt;Node14</title>
<path fill="none" stroke="#63b8ff" d="M1140.8,-3532362.1C1138.14,-3532354.34 1135.46,-3532345.17 1134.14,-3532336.61 834.04,-3530394.27 1039.69,-2968261.41 1041.13,-2964350.11"/>
<polygon fill="#63b8ff" stroke="#63b8ff" points="1137.79,-3532363.06 1144.54,-3532371.23 1144.36,-3532360.64 1137.79,-3532363.06"/>
</g>
<!-- Node19 -->
<g id="node19" class="node">
<title>Node19</title>
<g id="a_node19"><a xlink:href="sqsh__tree_8h.html" target="_top" xlink:title=" ">
<polygon fill="white" stroke="#666666" points="1851.39,-1828285.84 1692.89,-1828285.84 1692.89,-1828267.34 1851.39,-1828267.34 1851.39,-1828285.84"/>
<text text-anchor="middle" x="1772.14" y="-1828272.34" font-family="Helvetica,sans-Serif" font-size="10.00">include/sqsh_tree.h</text>
</a>
</g>
</g>
<!-- Node1&#45;&gt;Node19 -->
<g id="edge53" class="edge">
<title>Node1&#45;&gt;Node19</title>
<path fill="none" stroke="#63b8ff" d="M1245.79,-3532377.35C1363.39,-3532372.11 1547.88,-3532360.21 1569.14,-3532336.61 2557.72,-3531238.8 1774.15,-1832640.29 1772.14,-1828285.97"/>
<polygon fill="#63b8ff" stroke="#63b8ff" points="1245.82,-3532373.89 1235.98,-3532377.83 1246.13,-3532380.89 1245.82,-3532373.89"/>
</g>
<!-- Node20 -->
<g id="node20" class="node">
<title>Node20</title>
<g id="a_node20"><a xlink:href="sqsh__posix_8h.html" target="_top" xlink:title=" ">
<polygon fill="white" stroke="#666666" points="1518.14,-2964337.85 1352.14,-2964337.85 1352.14,-2964319.35 1518.14,-2964319.35 1518.14,-2964337.85"/>
<text text-anchor="middle" x="1435.14" y="-2964324.35" font-family="Helvetica,sans-Serif" font-size="10.00">include/sqsh_posix.h</text>
</a>
</g>
</g>
<!-- Node1&#45;&gt;Node20 -->
<g id="edge30" class="edge">
<title>Node1&#45;&gt;Node20</title>
<path fill="none" stroke="#63b8ff" d="M1243.43,-3532370.49C1286.26,-3532363.68 1330.11,-3532352.92 1343.14,-3532336.61 1650.13,-3531952.2 1436.11,-2966890.43 1435.14,-2964338.27"/>
<polygon fill="#63b8ff" stroke="#63b8ff" points="1242.95,-3532367.18 1233.59,-3532372.14 1244,-3532374.1 1242.95,-3532367.18"/>
</g>
<!-- Node21 -->
<g id="node21" class="node">
<title>Node21</title>
<g id="a_node21"><a xlink:href="sqsh__reader__private_8h.html" target="_top" xlink:title=" ">
<polygon fill="white" stroke="#666666" points="212.39,-3532336.61 53.89,-3532336.61 53.89,-2396320.6 212.39,-2396320.6 212.39,-3532336.61"/>
<text text-anchor="start" x="61.89" y="-3532323.11" font-family="Helvetica,sans-Serif" font-size="10.00">include/sqsh_reader</text>
<text text-anchor="middle" x="133.14" y="-3532312.61" font-family="Helvetica,sans-Serif" font-size="10.00">_private.h</text>
</a>
</g>
</g>
<!-- Node1&#45;&gt;Node21 -->
<g id="edge32" class="edge">
<title>Node1&#45;&gt;Node21</title>
<path fill="none" stroke="#63b8ff" d="M1050.06,-3532378.72C848.72,-3532373.86 405.68,-3532360.49 383.14,-3532336.61 -79.67,-3531846.47 -26.56,-3266591.35 53.39,-3098787.21"/>
<polygon fill="#63b8ff" stroke="#63b8ff" points="1049.84,-3532382.24 1059.92,-3532378.98 1050.01,-3532375.24 1049.84,-3532382.24"/>
</g>
<!-- Node26 -->
<g id="node26" class="node">
<title>Node26</title>
<g id="a_node26"><a xlink:href="sqsh__table_8h.html" target="_top" xlink:title=" ">
<polygon fill="white" stroke="#666666" points="741.14,-1828285.84 575.14,-1828285.84 575.14,-1828267.34 741.14,-1828267.34 741.14,-1828285.84"/>
<text text-anchor="middle" x="658.14" y="-1828272.34" font-family="Helvetica,sans-Serif" font-size="10.00">include/sqsh_table.h</text>
</a>
</g>
</g>
<!-- Node1&#45;&gt;Node26 -->
<g id="edge43" class="edge">
<title>Node1&#45;&gt;Node26</title>
<path fill="none" stroke="#63b8ff" d="M1050.04,-3532377.91C981.5,-3532373.54 898.42,-3532362.81 876.14,-3532336.61 876.14,-3532336.61 658.7,-1832643.1 658.14,-1828285.98"/>
<polygon fill="#63b8ff" stroke="#63b8ff" points="1049.72,-3532381.46 1059.91,-3532378.56 1050.13,-3532374.47 1049.72,-3532381.46"/>
</g>
<!-- Node27 -->
<g id="node27" class="node">
<title>Node27</title>
<g id="a_node27"><a xlink:href="sqsh__thread__private_8h.html" target="_top" xlink:title=" ">
<polygon fill="white" stroke="#666666" points="550.39,-2964343.1 391.89,-2964343.1 391.89,-2964314.1 550.39,-2964314.1 550.39,-2964343.1"/>
<text text-anchor="start" x="399.89" y="-2964329.6" font-family="Helvetica,sans-Serif" font-size="10.00">include/sqsh_thread</text>
<text text-anchor="middle" x="471.14" y="-2964319.1" font-family="Helvetica,sans-Serif" font-size="10.00">_private.h</text>
</a>
</g>
</g>
<!-- Node1&#45;&gt;Node27 -->
<g id="edge46" class="edge">
<title>Node1&#45;&gt;Node27</title>
<path fill="none" stroke="#63b8ff" d="M1050.03,-3532376.27C942.3,-3532370.19 781.97,-3532357.72 763.14,-3532336.61 108.55,-3531602.86 469.05,-2967579.55 471.13,-2964343.58"/>
<polygon fill="#63b8ff" stroke="#63b8ff" points="1049.76,-3532379.81 1059.94,-3532376.87 1050.14,-3532372.82 1049.76,-3532379.81"/>
</g>
<!-- Node29 -->
<g id="node29" class="node">
<title>Node29</title>
<g id="a_node29"><a xlink:href="sqsh__xattr_8h.html" target="_top" xlink:title=" ">
<polygon fill="white" stroke="#666666" points="925.14,-1828285.84 759.14,-1828285.84 759.14,-1828267.34 925.14,-1828267.34 925.14,-1828285.84"/>
<text text-anchor="middle" x="842.14" y="-1828272.34" font-family="Helvetica,sans-Serif" font-size="10.00">include/sqsh_xattr.h</text>
</a>
</g>
</g>
<!-- Node1&#45;&gt;Node29 -->
<g id="edge54" class="edge">
<title>Node1&#45;&gt;Node29</title>
<path fill="none" stroke="#63b8ff" d="M1052.84,-3532370.49C1010.01,-3532363.68 966.17,-3532352.93 953.14,-3532336.61 953.14,-3532336.61 842.42,-1832643.1 842.14,-1828285.98"/>
<polygon fill="#63b8ff" stroke="#63b8ff" points="1052.27,-3532374.1 1062.68,-3532372.14 1053.32,-3532367.18 1052.27,-3532374.1"/>
</g>
<!-- Node3 -->
<g id="node3" class="node">
<title>Node3</title>
<g id="a_node3"><a xlink:href="list__dir_8c.html" target="_top" xlink:title=" ">
<polygon fill="white" stroke="#666666" points="1804.39,-167.2 1645.89,-167.2 1645.89,-148.7 1804.39,-148.7 1804.39,-167.2"/>
<text text-anchor="middle" x="1725.14" y="-153.7" font-family="Helvetica,sans-Serif" font-size="10.00">examples/list_dir.c</text>
</a>
</g>
</g>
<!-- Node2&#45;&gt;Node3 -->
<g id="edge2" class="edge">
<title>Node2&#45;&gt;Node3</title>
<path fill="none" stroke="#63b8ff" d="M1304.14,-550471.16C1433.47,-381420.78 1723.54,-2249.18 1725.13,-167.56"/>
<polygon fill="#63b8ff" stroke="#63b8ff" points="1300.64,-550470.8 1304.14,-550480.8 1307.64,-550470.81 1300.64,-550470.8"/>
</g>
<!-- Node4 -->
<g id="node4" class="node">
<title>Node4</title>
<g id="a_node4"><a xlink:href="list__dir__ll_8c.html" target="_top" xlink:title=" ">
<polygon fill="white" stroke="#666666" points="2003.64,-167.2 1822.64,-167.2 1822.64,-148.7 2003.64,-148.7 2003.64,-167.2"/>
<text text-anchor="middle" x="1913.14" y="-153.7" font-family="Helvetica,sans-Serif" font-size="10.00">examples/list_dir_ll.c</text>
</a>
</g>
</g>
<!-- Node2&#45;&gt;Node4 -->
<g id="edge3" class="edge">
<title>Node2&#45;&gt;Node4</title>
<path fill="none" stroke="#63b8ff" d="M1304.15,-572845.2C1468.94,-417880.62 1910.81,-2347.69 1913.13,-167.56"/>
<polygon fill="#63b8ff" stroke="#63b8ff" points="1300.65,-572844.84 1304.14,-572854.84 1307.65,-572844.85 1300.65,-572844.84"/>
</g>
<!-- Node5 -->
<g id="node5" class="node">
<title>Node5</title>
<g id="a_node5"><a xlink:href="list__xattrs_8c.html" target="_top" xlink:title=" ">
<polygon fill="white" stroke="#666666" points="794.64,-167.2 613.64,-167.2 613.64,-148.7 794.64,-148.7 794.64,-167.2"/>
<text text-anchor="middle" x="704.14" y="-153.7" font-family="Helvetica,sans-Serif" font-size="10.00">examples/list_xattrs.c</text>
</a>
</g>
</g>
<!-- Node2&#45;&gt;Node5 -->
<g id="edge4" class="edge">
<title>Node2&#45;&gt;Node5</title>
<path fill="none" stroke="#63b8ff" d="M1182.13,-558903.42C1041.41,-394412.32 705.94,-2272.54 704.14,-167.46"/>
<polygon fill="#63b8ff" stroke="#63b8ff" points="1178.63,-558903.25 1182.14,-558913.24 1185.63,-558903.24 1178.63,-558903.25"/>
</g>
<!-- Node6 -->
<g id="node6" class="node">
<title>Node6</title>
<g id="a_node6"><a xlink:href="list__xattrs__ll_8c.html" target="_top" xlink:title=" ">
<polygon fill="white" stroke="#666666" points="1015.89,-167.2 812.39,-167.2 812.39,-148.7 1015.89,-148.7 1015.89,-167.2"/>
<text text-anchor="middle" x="914.14" y="-153.7" font-family="Helvetica,sans-Serif" font-size="10.00">examples/list_xattrs_ll.c</text>
</a>
</g>
</g>
<!-- Node2&#45;&gt;Node6 -->
<g id="edge5" class="edge">
<title>Node2&#45;&gt;Node6</title>
<path fill="none" stroke="#63b8ff" d="M1182.13,-513388.89C1087.29,-331756.48 915.15,-2097.54 914.14,-167.47"/>
<polygon fill="#63b8ff" stroke="#63b8ff" points="1178.63,-513388.8 1182.14,-513398.8 1185.63,-513388.8 1178.63,-513388.8"/>
</g>
<!-- Node7 -->
<g id="node7" class="node">
<title>Node7</title>
<g id="a_node7"><a xlink:href="read__file_8c.html" target="_top" xlink:title=" ">
<polygon fill="white" stroke="#666666" points="1200.14,-167.2 1034.14,-167.2 1034.14,-148.7 1200.14,-148.7 1200.14,-167.2"/>
<text text-anchor="middle" x="1117.14" y="-153.7" font-family="Helvetica,sans-Serif" font-size="10.00">examples/read_file.c</text>
</a>
</g>
</g>
<!-- Node2&#45;&gt;Node7 -->
<g id="edge6" class="edge">
<title>Node2&#45;&gt;Node7</title>
<path fill="none" stroke="#63b8ff" d="M1182.13,-325179.47C1150.12,-165082.77 1117.41,-1542.35 1117.14,-167.68"/>
<polygon fill="#63b8ff" stroke="#63b8ff" points="1178.63,-325179.47 1182.14,-325189.47 1185.63,-325179.46 1178.63,-325179.47"/>
</g>
<!-- Node8 -->
<g id="node8" class="node">
<title>Node8</title>
<g id="a_node8"><a xlink:href="read__file__ll_8c.html" target="_top" xlink:title=" ">
<polygon fill="white" stroke="#666666" points="1406.39,-167.2 1217.89,-167.2 1217.89,-148.7 1406.39,-148.7 1406.39,-167.2"/>
<text text-anchor="middle" x="1312.14" y="-153.7" font-family="Helvetica,sans-Serif" font-size="10.00">examples/read_file_ll.c</text>
</a>
</g>
</g>
<!-- Node2&#45;&gt;Node8 -->
<g id="edge7" class="edge">
<title>Node2&#45;&gt;Node8</title>
<path fill="none" stroke="#63b8ff" d="M1304.14,-73198.86C1308.98,-28963.53 1312.07,-728.33 1312.14,-167.47"/>
<polygon fill="#63b8ff" stroke="#63b8ff" points="1300.64,-73198.74 1304.14,-73208.74 1307.64,-73198.74 1300.64,-73198.74"/>
</g>
<!-- Node9 -->
<g id="node9" class="node">
<title>Node9</title>
<g id="a_node9"><a xlink:href="readme__example_8c.html" target="_top" xlink:title=" ">
<polygon fill="white" stroke="#666666" points="1627.89,-167.2 1424.39,-167.2 1424.39,-148.7 1627.89,-148.7 1627.89,-167.2"/>
<text text-anchor="middle" x="1526.14" y="-153.7" font-family="Helvetica,sans-Serif" font-size="10.00">examples/readme_example.c</text>
</a>
</g>
</g>
<!-- Node2&#45;&gt;Node9 -->
<g id="edge8" class="edge">
<title>Node2&#45;&gt;Node9</title>
<path fill="none" stroke="#63b8ff" d="M1304.14,-494400.78C1387.08,-309758.85 1525.29,-2044.03 1526.13,-167.57"/>
<polygon fill="#63b8ff" stroke="#63b8ff" points="1300.64,-494400.61 1304.14,-494410.61 1307.64,-494400.61 1300.64,-494400.61"/>
</g>
<!-- Node10&#45;&gt;Node2 -->
<g id="edge10" class="edge">
<title>Node10&#45;&gt;Node2</title>
<path fill="none" stroke="#63b8ff" d="M1584.13,-1828256.35C1583.87,-1825429.24 1554.32,-1511577.08 1484.14,-1260268.58 1436.84,-1090903.58 1358.59,-895929.34 1304.14,-768281.27"/>
<polygon fill="#63b8ff" stroke="#63b8ff" points="1580.63,-1828256.13 1584.14,-1828266.13 1587.63,-1828256.13 1580.63,-1828256.13"/>
</g>
<!-- Node11 -->
<g id="node11" class="node">
<title>Node11</title>
<g id="a_node11"><a xlink:href="sqsh__archive__private_8h.html" target="_top" xlink:title=" ">
<polygon fill="white" stroke="#666666" points="630.14,-107.45 464.14,-107.45 464.14,-78.45 630.14,-78.45 630.14,-107.45"/>
<text text-anchor="start" x="472.14" y="-93.95" font-family="Helvetica,sans-Serif" font-size="10.00">include/sqsh_archive</text>
<text text-anchor="middle" x="547.14" y="-83.45" font-family="Helvetica,sans-Serif" font-size="10.00">_private.h</text>
</a>
</g>
</g>
<!-- Node10&#45;&gt;Node11 -->
<g id="edge11" class="edge">
<title>Node10&#45;&gt;Node11</title>
<path fill="none" stroke="#63b8ff" d="M1584.13,-1828256.12C1583.01,-1824439.6 1418.26,-1260681.83 1684.14,-1260268.58 1705.01,-1260236.13 1742.26,-1260265.03 1763.14,-1260232.58 1763.14,-1260232.58 2028.14,-172.45 2028.14,-172.45 2028.14,-159.56 2037.1,-152.72 2028.14,-143.45 1979.32,-92.97 936.13,-92.6 630.54,-93.57"/>
<polygon fill="#63b8ff" stroke="#63b8ff" points="1580.63,-1828255.92 1584.13,-1828265.92 1587.63,-1828255.92 1580.63,-1828255.92"/>
</g>
<!-- Node12&#45;&gt;Node2 -->
<g id="edge13" class="edge">
<title>Node12&#45;&gt;Node2</title>
<path fill="none" stroke="#63b8ff" d="M1255.14,-2964308.31C1255.11,-2959223.32 1249.92,-1949784.96 1246.38,-1260233.02"/>
<polygon fill="#63b8ff" stroke="#63b8ff" points="1251.64,-2964308.16 1255.14,-2964318.16 1258.64,-2964308.16 1251.64,-2964308.16"/>
</g>
<!-- Node13&#45;&gt;Node2 -->
<g id="edge15" class="edge">
<title>Node13&#45;&gt;Node2</title>
<path fill="none" stroke="#63b8ff" d="M1392.13,-1828255.92C1391.75,-1825130.81 1345.12,-1450242.85 1304.14,-1120699.94"/>
<polygon fill="#63b8ff" stroke="#63b8ff" points="1388.63,-1828255.89 1392.14,-1828265.89 1395.63,-1828255.89 1388.63,-1828255.89"/>
</g>
<!-- Node13&#45;&gt;Node11 -->
<g id="edge16" class="edge">
<title>Node13&#45;&gt;Node11</title>
<path fill="none" stroke="#63b8ff" d="M1392.14,-1828256.35C1392.31,-1825429.24 1411.91,-1511577.08 1485.14,-1260268.58 1648.32,-700225.83 1895.8,-560215.21 2013.14,-172.45 2013.14,-159.56 2022.1,-152.72 2013.14,-143.45 1964.86,-93.52 933.96,-92.74 630.48,-93.61"/>
<polygon fill="#63b8ff" stroke="#63b8ff" points="1388.64,-1828256.13 1392.14,-1828266.13 1395.64,-1828256.13 1388.64,-1828256.13"/>
</g>
<!-- Node14&#45;&gt;Node2 -->
<g id="edge18" class="edge">
<title>Node14&#45;&gt;Node2</title>
<path fill="none" stroke="#63b8ff" d="M1041.12,-2964296.29C1038.82,-2959469.72 771.89,-2398250.66 1134.14,-2396320.6 1137.3,-2396303.72 1144.97,-2396301.47 1148.14,-2396284.6 1148.14,-2396284.6 1191.14,-1260268.58 1191.14,-1260268.58 1191.14,-1260256.69 1191.14,-1260244.81 1191.14,-1260232.93"/>
<polygon fill="#63b8ff" stroke="#63b8ff" points="1037.62,-2964296.1 1041.13,-2964306.1 1044.62,-2964296.09 1037.62,-2964296.1"/>
</g>
<!-- Node15 -->
<g id="node15" class="node">
<title>Node15</title>
<g id="a_node15"><a xlink:href="sqsh__directory_8h.html" target="_top" xlink:title=" ">
<polygon fill="white" stroke="#666666" points="1139.14,-1828285.84 943.14,-1828285.84 943.14,-1828267.34 1139.14,-1828267.34 1139.14,-1828285.84"/>
<text text-anchor="middle" x="1041.14" y="-1828272.34" font-family="Helvetica,sans-Serif" font-size="10.00">include/sqsh_directory.h</text>
</a>
</g>
</g>
<!-- Node14&#45;&gt;Node15 -->
<g id="edge19" class="edge">
<title>Node14&#45;&gt;Node15</title>
<path fill="none" stroke="#63b8ff" d="M1041.14,-2964296.29C1041.14,-2957455.03 1041.14,-1831860.61 1041.14,-1828286.12"/>
<polygon fill="#63b8ff" stroke="#63b8ff" points="1037.64,-2964296.07 1041.14,-2964306.07 1044.64,-2964296.07 1037.64,-2964296.07"/>
</g>
<!-- Node18 -->
<g id="node18" class="node">
<title>Node18</title>
<g id="a_node18"><a xlink:href="sqsh__file__private_8h.html" target="_top" xlink:title=" ">
<polygon fill="white" stroke="#666666" points="249.39,-170.95 30.89,-170.95 30.89,-144.95 249.39,-144.95 249.39,-170.95"/>
<text text-anchor="middle" x="140.14" y="-157.45" font-family="Helvetica,sans-Serif" font-size="10.00">include/sqsh_file_private.h</text>
</a>
</g>
</g>
<!-- Node14&#45;&gt;Node18 -->
<g id="edge23" class="edge">
<title>Node14&#45;&gt;Node18</title>
<path fill="none" stroke="#63b8ff" d="M1041.15,-2964296.22C1042.54,-2959459.49 1203.79,-2397061.21 559.14,-2396320.6 483.41,-2396233.6 377.83,-2396371.62 302.14,-2396284.6 302.14,-2396284.6 221.14,-1260268.58 221.14,-1260268.58 198.78,-1260234.67 159.5,-1260266.49 137.14,-1260232.58 137.14,-1260232.58 137.14,-208.45 137.14,-208.45 137.52,-195.72 138.46,-181.16 139.19,-171.15"/>
<polygon fill="#63b8ff" stroke="#63b8ff" points="1037.65,-2964296.05 1041.14,-2964306.05 1044.65,-2964296.05 1037.65,-2964296.05"/>
</g>
<!-- Node14&#45;&gt;Node19 -->
<g id="edge27" class="edge">
<title>Node14&#45;&gt;Node19</title>
<path fill="none" stroke="#63b8ff" d="M1041.12,-2964296.2C1039.34,-2959456.21 832.22,-2396679.56 1167.14,-2396320.6 1245.7,-2396236.39 1605.57,-2396368.81 1684.14,-2396284.6 2355.31,-2395565.17 1774.77,-1830836.9 1772.15,-1828286.25"/>
<polygon fill="#63b8ff" stroke="#63b8ff" points="1037.63,-2964296.04 1041.13,-2964306.04 1044.63,-2964296.04 1037.63,-2964296.04"/>
</g>
<!-- Node15&#45;&gt;Node2 -->
<g id="edge20" class="edge">
<title>Node15&#45;&gt;Node2</title>
<path fill="none" stroke="#63b8ff" d="M1041.14,-1828256.1C1041.73,-1824730.37 1122.89,-1343414.37 1182.14,-992009.99"/>
<polygon fill="#63b8ff" stroke="#63b8ff" points="1037.64,-1828255.89 1041.14,-1828265.89 1044.64,-1828255.89 1037.64,-1828255.89"/>
</g>
<!-- Node16 -->
<g id="node16" class="node">
<title>Node16</title>
<g id="a_node16"><a xlink:href="sqsh__directory__private_8h.html" target="_top" xlink:title=" ">
<polygon fill="white" stroke="#666666" points="367.64,-107.45 186.64,-107.45 186.64,-78.45 367.64,-78.45 367.64,-107.45"/>
<text text-anchor="start" x="194.64" y="-93.95" font-family="Helvetica,sans-Serif" font-size="10.00">include/sqsh_directory</text>
<text text-anchor="middle" x="277.14" y="-83.45" font-family="Helvetica,sans-Serif" font-size="10.00">_private.h</text>
</a>
</g>
</g>
<!-- Node15&#45;&gt;Node16 -->
<g id="edge21" class="edge">
<title>Node15&#45;&gt;Node16</title>
<path fill="none" stroke="#63b8ff" d="M1041.13,-1828256.35C1040.7,-1825429.24 992.91,-1511577.08 934.14,-1260268.58 933.62,-1258080.97 1334.87,-2262.48 582.14,-208.45 569.12,-172.92 559.75,-162.65 527.14,-143.45 479.09,-115.17 417.78,-102.74 367.9,-97.4"/>
<polygon fill="#63b8ff" stroke="#63b8ff" points="1037.63,-1828256.13 1041.14,-1828266.13 1044.63,-1828256.13 1037.63,-1828256.13"/>
</g>
<!-- Node17 -->
<g id="node17" class="node">
<title>Node17</title>
<g id="a_node17"><a xlink:href="sqsh__tree__private_8h.html" target="_top" xlink:title=" ">
<polygon fill="white" stroke="#666666" points="386.39,-42.45 167.89,-42.45 167.89,0 386.39,0 386.39,-42.45"/>
<text text-anchor="middle" x="277.14" y="-28.95" font-family="Helvetica,sans-Serif" font-size="10.00">include/sqsh_tree_private.h</text>
</a>
</g>
</g>
<!-- Node16&#45;&gt;Node17 -->
<g id="edge22" class="edge">
<title>Node16&#45;&gt;Node17</title>
<path fill="none" stroke="#63b8ff" d="M277.14,-67.26C277.14,-59.27 277.14,-50.51 277.14,-42.85"/>
<polygon fill="#63b8ff" stroke="#63b8ff" points="273.64,-67.18 277.14,-77.18 280.64,-67.18 273.64,-67.18"/>
</g>
<!-- Node18&#45;&gt;Node11 -->
<g id="edge24" class="edge">
<title>Node18&#45;&gt;Node11</title>
<path fill="none" stroke="#63b8ff" d="M231.06,-142.88C300.72,-132.1 396.04,-117.34 463.75,-106.86"/>
<polygon fill="#63b8ff" stroke="#63b8ff" points="230.89,-139.52 221.55,-144.51 231.96,-146.43 230.89,-139.52"/>
</g>
<!-- Node18&#45;&gt;Node16 -->
<g id="edge25" class="edge">
<title>Node18&#45;&gt;Node16</title>
<path fill="none" stroke="#63b8ff" d="M177.11,-139.95C198.94,-129.91 226.23,-117.36 246.79,-107.91"/>
<polygon fill="#63b8ff" stroke="#63b8ff" points="175.83,-137.15 168.2,-144.51 178.75,-143.51 175.83,-137.15"/>
</g>
<!-- Node18&#45;&gt;Node17 -->
<g id="edge26" class="edge">
<title>Node18&#45;&gt;Node17</title>
<path fill="none" stroke="#63b8ff" d="M146.55,-134.56C152.33,-117.57 162.23,-94.47 177.14,-78.45 190.84,-63.73 209.3,-51.87 226.62,-42.91"/>
<polygon fill="#63b8ff" stroke="#63b8ff" points="143.02,-133.13 143.34,-143.72 149.7,-135.24 143.02,-133.13"/>
</g>
<!-- Node19&#45;&gt;Node2 -->
<g id="edge28" class="edge">
<title>Node19&#45;&gt;Node2</title>
<path fill="none" stroke="#63b8ff" d="M1772.14,-1828256.35C1772.31,-1825429.24 1791.56,-1511577.06 1684.14,-1260268.58 1597.06,-1056555.74 1403.28,-815793.13 1304.14,-699701.26"/>
<polygon fill="#63b8ff" stroke="#63b8ff" points="1768.64,-1828256.13 1772.14,-1828266.13 1775.64,-1828256.13 1768.64,-1828256.13"/>
</g>
<!-- Node19&#45;&gt;Node17 -->
<g id="edge29" class="edge">
<title>Node19&#45;&gt;Node17</title>
<path fill="none" stroke="#63b8ff" d="M1772.14,-1828256.35C1772.98,-1825429.06 1865.47,-1511557.02 1909.14,-1260232.58 2006.45,-700205.86 2013.36,-560199.18 2043.14,-172.45 2043.14,-159.56 2051.93,-152.87 2043.14,-143.45 1986.39,-82.68 763.26,-38.02 386.57,-25.66"/>
<polygon fill="#63b8ff" stroke="#63b8ff" points="1768.64,-1828256.13 1772.14,-1828266.13 1775.64,-1828256.13 1768.64,-1828256.13"/>
</g>
<!-- Node20&#45;&gt;Node2 -->
<g id="edge31" class="edge">
<title>Node20&#45;&gt;Node2</title>
<path fill="none" stroke="#63b8ff" d="M1435.14,-2964308.14C1435.92,-2960491.83 1551.09,-2396765.82 1343.14,-2396320.6 1332.59,-2396298.01 1310.68,-2396307.18 1300.14,-2396284.6 1300.14,-2396284.6 1279.84,-1767437.92 1263.47,-1260233.07"/>
<polygon fill="#63b8ff" stroke="#63b8ff" points="1431.64,-2964307.93 1435.14,-2964317.93 1438.64,-2964307.93 1431.64,-2964307.93"/>
</g>
<!-- Node21&#45;&gt;Node18 -->
<g id="edge33" class="edge">
<title>Node21&#45;&gt;Node18</title>
<path fill="none" stroke="#63b8ff" d="M53.39,-2482984.44C50.13,-2453647.29 47.33,-2424569.82 45.14,-2396284.6 6.03,-1891388.59 37.32,-1765164.59 45.14,-1260268.58 45.14,-1260268.58 84.14,-208.45 84.14,-208.45 91.23,-192.72 106.07,-179.97 118.69,-171.36"/>
<polygon fill="#63b8ff" stroke="#63b8ff" points="49.89,-2482984.19 53.39,-2482994.19 56.89,-2482984.19 49.89,-2482984.19"/>
</g>
<!-- Node22 -->
<g id="node22" class="node">
<title>Node22</title>
<g id="a_node22"><a xlink:href="sqsh__mapper__private_8h.html" target="_top" xlink:title=" ">
<polygon fill="white" stroke="#666666" points="212.39,-2396284.6 53.89,-2396284.6 53.89,-1260268.58 212.39,-1260268.58 212.39,-2396284.6"/>
<text text-anchor="start" x="61.89" y="-2396271.1" font-family="Helvetica,sans-Serif" font-size="10.00">include/sqsh_mapper</text>
<text text-anchor="middle" x="133.14" y="-1260273.58" font-family="Helvetica,sans-Serif" font-size="10.00">_private.h</text>
</a>
</g>
</g>
<!-- Node21&#45;&gt;Node22 -->
<g id="edge34" class="edge">
<title>Node21&#45;&gt;Node22</title>
<path fill="none" stroke="#63b8ff" d="M133.14,-2396309.58C133.14,-2396301.29 133.14,-2396293 133.14,-2396284.72"/>
<polygon fill="#63b8ff" stroke="#63b8ff" points="129.64,-2396309.47 133.14,-2396319.47 136.64,-2396309.47 129.64,-2396309.47"/>
</g>
<!-- Node22&#45;&gt;Node18 -->
<g id="edge35" class="edge">
<title>Node22&#45;&gt;Node18</title>
<path fill="none" stroke="#63b8ff" d="M88.14,-1260257.44C88.14,-1260249.15 88.14,-1260240.86 88.14,-1260232.58 88.14,-1260232.58 88.14,-208.45 88.14,-208.45 94.77,-192.99 108.86,-180.07 120.71,-171.31"/>
<polygon fill="#63b8ff" stroke="#63b8ff" points="84.64,-1260257.33 88.14,-1260267.33 91.64,-1260257.33 84.64,-1260257.33"/>
</g>
<!-- Node23 -->
<g id="node23" class="node">
<title>Node23</title>
<g id="a_node23"><a xlink:href="sqsh__metablock__private_8h.html" target="_top" xlink:title=" ">
<polygon fill="white" stroke="#666666" points="349.64,-630235.01 168.64,-630235.01 168.64,-630206.01 349.64,-630206.01 349.64,-630235.01"/>
<text text-anchor="start" x="176.64" y="-630221.51" font-family="Helvetica,sans-Serif" font-size="10.00">include/sqsh_metablock</text>
<text text-anchor="middle" x="259.14" y="-630211.01" font-family="Helvetica,sans-Serif" font-size="10.00">_private.h</text>
</a>
</g>
</g>
<!-- Node22&#45;&gt;Node23 -->
<g id="edge36" class="edge">
<title>Node22&#45;&gt;Node23</title>
<path fill="none" stroke="#63b8ff" d="M192.88,-1260257.52C225.3,-951944.05 258.88,-632647.43 259.14,-630235.27"/>
<polygon fill="#63b8ff" stroke="#63b8ff" points="189.38,-1260257.11 192.87,-1260267.11 196.38,-1260257.11 189.38,-1260257.11"/>
</g>
<!-- Node25 -->
<g id="node25" class="node">
<title>Node25</title>
<g id="a_node25"><a xlink:href="sqsh__table__private_8h.html" target="_top" xlink:title=" ">
<polygon fill="white" stroke="#666666" points="518.64,-630235.01 367.64,-630235.01 367.64,-630206.01 518.64,-630206.01 518.64,-630235.01"/>
<text text-anchor="start" x="375.64" y="-630221.51" font-family="Helvetica,sans-Serif" font-size="10.00">include/sqsh_table</text>
<text text-anchor="middle" x="443.14" y="-630211.01" font-family="Helvetica,sans-Serif" font-size="10.00">_private.h</text>
</a>
</g>
</g>
<!-- Node22&#45;&gt;Node25 -->
<g id="edge41" class="edge">
<title>Node22&#45;&gt;Node25</title>
<path fill="none" stroke="#63b8ff" d="M212.9,-1296972.5C236.29,-1273969.62 265.58,-1260335.51 302.14,-1260268.58 316.32,-1260242.61 343.96,-1260258.55 358.14,-1260232.58 619.52,-1259753.89 444.1,-633636.57 443.14,-630235.42"/>
<polygon fill="#63b8ff" stroke="#63b8ff" points="209.4,-1296972.29 212.89,-1296982.3 216.4,-1296972.3 209.4,-1296972.29"/>
</g>
<!-- Node23&#45;&gt;Node16 -->
<g id="edge37" class="edge">
<title>Node23&#45;&gt;Node16</title>
<path fill="none" stroke="#63b8ff" d="M259.14,-630194.71C259.27,-625669.68 277.04,-3490.61 277.14,-107.8"/>
<polygon fill="#63b8ff" stroke="#63b8ff" points="255.64,-630194.59 259.14,-630204.59 262.64,-630194.59 255.64,-630194.59"/>
</g>
<!-- Node23&#45;&gt;Node18 -->
<g id="edge38" class="edge">
<title>Node23&#45;&gt;Node18</title>
<path fill="none" stroke="#63b8ff" d="M259.14,-630194.77C260.55,-625670.73 453.75,-2367.36 154.14,-208.45 152.34,-195.54 148.04,-181.25 144.68,-171.36"/>
<polygon fill="#63b8ff" stroke="#63b8ff" points="255.64,-630194.64 259.14,-630204.65 262.64,-630194.65 255.64,-630194.64"/>
</g>
<!-- Node24 -->
<g id="node24" class="node">
<title>Node24</title>
<g id="a_node24"><a xlink:href="sqsh__xattr__private_8h.html" target="_top" xlink:title=" ">
<polygon fill="white" stroke="#666666" points="518.64,-172.45 367.64,-172.45 367.64,-143.45 518.64,-143.45 518.64,-172.45"/>
<text text-anchor="start" x="375.64" y="-158.95" font-family="Helvetica,sans-Serif" font-size="10.00">include/sqsh_xattr</text>
<text text-anchor="middle" x="443.14" y="-148.45" font-family="Helvetica,sans-Serif" font-size="10.00">_private.h</text>
</a>
</g>
</g>
<!-- Node23&#45;&gt;Node24 -->
<g id="edge39" class="edge">
<title>Node23&#45;&gt;Node24</title>
<path fill="none" stroke="#63b8ff" d="M259.13,-630194.7C257.88,-625658.49 86.53,-680.84 358.14,-208.45 367.58,-192.02 384.82,-180.53 401.31,-172.79"/>
<polygon fill="#63b8ff" stroke="#63b8ff" points="255.63,-630194.61 259.13,-630204.61 262.63,-630194.61 255.63,-630194.61"/>
</g>
<!-- Node24&#45;&gt;Node11 -->
<g id="edge40" class="edge">
<title>Node24&#45;&gt;Node11</title>
<path fill="none" stroke="#63b8ff" d="M475.59,-137.29C491.33,-127.76 509.86,-116.53 524.12,-107.9"/>
<polygon fill="#63b8ff" stroke="#63b8ff" points="473.96,-134.8 467.22,-142.97 477.58,-140.78 473.96,-134.8"/>
</g>
<!-- Node25&#45;&gt;Node24 -->
<g id="edge42" class="edge">
<title>Node25&#45;&gt;Node24</title>
<path fill="none" stroke="#63b8ff" d="M443.14,-630194.71C443.14,-625670.15 443.14,-3555.26 443.14,-172.8"/>
<polygon fill="#63b8ff" stroke="#63b8ff" points="439.64,-630194.6 443.14,-630204.6 446.64,-630194.6 439.64,-630194.6"/>
</g>
<!-- Node26&#45;&gt;Node2 -->
<g id="edge44" class="edge">
<title>Node26&#45;&gt;Node2</title>
<path fill="none" stroke="#63b8ff" d="M658.13,-1828256.35C657.89,-1825429.24 631.46,-1511577.06 750.14,-1260268.58 848.53,-1051905.35 1073.46,-804781.48 1182.14,-691947.6"/>
<polygon fill="#63b8ff" stroke="#63b8ff" points="654.63,-1828256.13 658.14,-1828266.13 661.63,-1828256.13 654.63,-1828256.13"/>
</g>
<!-- Node26&#45;&gt;Node25 -->
<g id="edge45" class="edge">
<title>Node26&#45;&gt;Node25</title>
<path fill="none" stroke="#63b8ff" d="M658.13,-1828256.07C657.14,-1822705.57 443.97,-634878.7 443.14,-630235.17"/>
<polygon fill="#63b8ff" stroke="#63b8ff" points="654.63,-1828255.89 658.13,-1828265.89 661.63,-1828255.89 654.63,-1828255.89"/>
</g>
<!-- Node27&#45;&gt;Node11 -->
<g id="edge47" class="edge">
<title>Node27&#45;&gt;Node11</title>
<path fill="none" stroke="#63b8ff" d="M471.14,-2964303.03C471.36,-2958756.28 508.74,-2015378.96 527.14,-1260232.58 540.75,-701606.67 547.1,-3682.29 547.14,-107.74"/>
<polygon fill="#63b8ff" stroke="#63b8ff" points="467.64,-2964302.9 471.14,-2964312.9 474.64,-2964302.9 467.64,-2964302.9"/>
</g>
<!-- Node27&#45;&gt;Node22 -->
<g id="edge52" class="edge">
<title>Node27&#45;&gt;Node22</title>
<path fill="none" stroke="#63b8ff" d="M471.12,-2964302.82C469.4,-2961096.45 300.86,-2647455.04 226.14,-2396284.6 221.51,-2380718.73 217.09,-2364912.91 212.89,-2348955.92"/>
<polygon fill="#63b8ff" stroke="#63b8ff" points="467.62,-2964302.63 471.13,-2964312.63 474.62,-2964302.62 467.62,-2964302.63"/>
</g>
<!-- Node28 -->
<g id="node28" class="node">
<title>Node28</title>
<g id="a_node28"><a xlink:href="sqsh__extract__private_8h.html" target="_top" xlink:title=" ">
<polygon fill="white" stroke="#666666" points="477.14,-1828291.13 311.14,-1828291.13 311.14,-1828262.05 477.14,-1828262.05 477.14,-1828291.13"/>
<text text-anchor="start" x="319.14" y="-1828277.63" font-family="Helvetica,sans-Serif" font-size="10.00">include/sqsh_extract</text>
<text text-anchor="middle" x="394.14" y="-1828267.05" font-family="Helvetica,sans-Serif" font-size="10.00">_private.h</text>
</a>
</g>
</g>
<!-- Node27&#45;&gt;Node28 -->
<g id="edge48" class="edge">
<title>Node27&#45;&gt;Node28</title>
<path fill="none" stroke="#63b8ff" d="M471.13,-2964302.84C470.72,-2958217.94 394.44,-1832827.86 394.14,-1828291.34"/>
<polygon fill="#63b8ff" stroke="#63b8ff" points="467.63,-2964302.79 471.14,-2964312.79 474.63,-2964302.79 467.63,-2964302.79"/>
</g>
<!-- Node28&#45;&gt;Node18 -->
<g id="edge49" class="edge">
<title>Node28&#45;&gt;Node18</title>
<path fill="none" stroke="#63b8ff" d="M394.14,-1828250.91C395.2,-1823956.46 533.26,-1260672.74 254.14,-1260268.58 228.48,-1260231.42 184.79,-1260269.73 159.14,-1260232.58 159.14,-1260232.58 140.2,-4692.49 140.14,-171.19"/>
<polygon fill="#63b8ff" stroke="#63b8ff" points="390.64,-1828250.6 394.14,-1828260.6 397.64,-1828250.6 390.64,-1828250.6"/>
</g>
<!-- Node28&#45;&gt;Node23 -->
<g id="edge50" class="edge">
<title>Node28&#45;&gt;Node23</title>
<path fill="none" stroke="#63b8ff" d="M394.13,-1828250.92C393.43,-1822013.7 259.66,-634875.5 259.14,-630235.15"/>
<polygon fill="#63b8ff" stroke="#63b8ff" points="390.63,-1828250.89 394.14,-1828260.89 397.63,-1828250.89 390.63,-1828250.89"/>
</g>
<!-- Node28&#45;&gt;Node25 -->
<g id="edge51" class="edge">
<title>Node28&#45;&gt;Node25</title>
<path fill="none" stroke="#63b8ff" d="M394.14,-1828250.92C394.39,-1822013.7 442.95,-634875.5 443.14,-630235.15"/>
<polygon fill="#63b8ff" stroke="#63b8ff" points="390.64,-1828250.89 394.14,-1828260.89 397.64,-1828250.89 390.64,-1828250.89"/>
</g>
<!-- Node29&#45;&gt;Node2 -->
<g id="edge55" class="edge">
<title>Node29&#45;&gt;Node2</title>
<path fill="none" stroke="#63b8ff" d="M842.14,-1828256.35C842.23,-1825429.24 852.16,-1511577.07 934.14,-1260268.58 994.7,-1074621.34 1110.77,-858204.2 1182.14,-733415.51"/>
<polygon fill="#63b8ff" stroke="#63b8ff" points="838.64,-1828256.13 842.14,-1828266.13 845.64,-1828256.13 838.64,-1828256.13"/>
</g>
<!-- Node29&#45;&gt;Node24 -->
<g id="edge56" class="edge">
<title>Node29&#45;&gt;Node24</title>
<path fill="none" stroke="#63b8ff" d="M842.14,-1828256.12C843.56,-1824439.43 1051.61,-1260656.63 750.14,-1260268.58 710.46,-1260217.5 648.81,-1260283.65 609.14,-1260232.58 609.14,-1260232.58 527.14,-208.45 527.14,-208.45 517.81,-192.14 500.78,-180.67 484.48,-172.9"/>
<polygon fill="#63b8ff" stroke="#63b8ff" points="838.64,-1828255.91 842.14,-1828265.92 845.64,-1828255.92 838.64,-1828255.91"/>
</g>
</g>
</svg>
