<?xml version="1.0" encoding="UTF-8" standalone="no"?>
<!DOCTYPE svg PUBLIC "-//W3C//DTD SVG 1.1//EN"
 "http://www.w3.org/Graphics/SVG/1.1/DTD/svg11.dtd">
<!-- Generated by graphviz version 7.0.5 (20221223.1930)
 -->
<!-- Title: sqsh_inode.h Pages: 1 -->
<svg width="515pt" height="192pt"
 viewBox="0.00 0.00 515.00 192.00" xmlns="http://www.w3.org/2000/svg" xmlns:xlink="http://www.w3.org/1999/xlink">
<g id="graph0" class="graph" transform="scale(1 1) rotate(0) translate(4 188)">
<title>sqsh_inode.h</title>
<!-- Node1 -->
<g id="node1" class="node">
<title>Node1</title>
<g id="a_node1"><a xlink:title=" ">
<polygon fill="#999999" stroke="#666666" points="322,-184 215,-184 215,-165 322,-165 322,-184"/>
<text text-anchor="middle" x="268.5" y="-172" font-family="Helvetica,sans-Serif" font-size="10.00">sqsh_inode.h</text>
</a>
</g>
</g>
<!-- Node2 -->
<g id="node2" class="node">
<title>Node2</title>
<g id="a_node2"><a xlink:href="sqsh__directory_8h.html" target="_top" xlink:title=" ">
<polygon fill="white" stroke="#666666" points="167,-129 30,-129 30,-110 167,-110 167,-129"/>
<text text-anchor="middle" x="98.5" y="-117" font-family="Helvetica,sans-Serif" font-size="10.00">sqsh_directory.h</text>
</a>
</g>
</g>
<!-- Node1&#45;&gt;Node2 -->
<g id="edge1" class="edge">
<title>Node1&#45;&gt;Node2</title>
<path fill="none" stroke="#63b8ff" d="M228.76,-161.11C197.63,-151.41 155.07,-138.14 127.2,-129.45"/>
<polygon fill="#63b8ff" stroke="#63b8ff" points="227.63,-164.42 238.22,-164.06 229.71,-157.74 227.63,-164.42"/>
</g>
<!-- Node4 -->
<g id="node4" class="node">
<title>Node4</title>
<g id="a_node4"><a xlink:href="sqsh__inode__private_8h.html" target="_top" xlink:title=" ">
<polygon fill="white" stroke="#666666" points="352,-129 185,-129 185,-110 352,-110 352,-129"/>
<text text-anchor="middle" x="268.5" y="-117" font-family="Helvetica,sans-Serif" font-size="10.00">sqsh_inode_private.h</text>
</a>
</g>
</g>
<!-- Node1&#45;&gt;Node4 -->
<g id="edge3" class="edge">
<title>Node1&#45;&gt;Node4</title>
<path fill="none" stroke="#63b8ff" d="M268.5,-153.35C268.5,-145.1 268.5,-135.97 268.5,-129.44"/>
<polygon fill="#63b8ff" stroke="#63b8ff" points="265,-153.23 268.5,-163.23 272,-153.23 265,-153.23"/>
</g>
<!-- Node5 -->
<g id="node5" class="node">
<title>Node5</title>
<g id="a_node5"><a xlink:href="sqsh__xattr_8h.html" target="_top" xlink:title=" ">
<polygon fill="white" stroke="#666666" points="477,-129 370,-129 370,-110 477,-110 477,-129"/>
<text text-anchor="middle" x="423.5" y="-117" font-family="Helvetica,sans-Serif" font-size="10.00">sqsh_xattr.h</text>
</a>
</g>
</g>
<!-- Node1&#45;&gt;Node5 -->
<g id="edge4" class="edge">
<title>Node1&#45;&gt;Node5</title>
<path fill="none" stroke="#63b8ff" d="M305.48,-160.85C333.8,-151.17 372.14,-138.06 397.34,-129.45"/>
<polygon fill="#63b8ff" stroke="#63b8ff" points="304.56,-157.47 296.23,-164.02 306.82,-164.1 304.56,-157.47"/>
</g>
<!-- Node3 -->
<g id="node3" class="node">
<title>Node3</title>
<g id="a_node3"><a xlink:href="sqsh__directory__private_8h.html" target="_top" xlink:title=" ">
<polygon fill="white" stroke="#666666" points="197,-74 0,-74 0,-55 197,-55 197,-74"/>
<text text-anchor="middle" x="98.5" y="-62" font-family="Helvetica,sans-Serif" font-size="10.00">sqsh_directory_private.h</text>
</a>
</g>
</g>
<!-- Node2&#45;&gt;Node3 -->
<g id="edge2" class="edge">
<title>Node2&#45;&gt;Node3</title>
<path fill="none" stroke="#63b8ff" d="M98.5,-98.35C98.5,-90.1 98.5,-80.97 98.5,-74.44"/>
<polygon fill="#63b8ff" stroke="#63b8ff" points="95,-98.23 98.5,-108.23 102,-98.23 95,-98.23"/>
</g>
<!-- Node6 -->
<g id="node6" class="node">
<title>Node6</title>
<g id="a_node6"><a xlink:href="sqsh__xattr__private_8h.html" target="_top" xlink:title=" ">
<polygon fill="white" stroke="#666666" points="507,-74 340,-74 340,-55 507,-55 507,-74"/>
<text text-anchor="middle" x="423.5" y="-62" font-family="Helvetica,sans-Serif" font-size="10.00">sqsh_xattr_private.h</text>
</a>
</g>
</g>
<!-- Node5&#45;&gt;Node6 -->
<g id="edge5" class="edge">
<title>Node5&#45;&gt;Node6</title>
<path fill="none" stroke="#63b8ff" d="M423.5,-98.35C423.5,-90.1 423.5,-80.97 423.5,-74.44"/>
<polygon fill="#63b8ff" stroke="#63b8ff" points="420,-98.23 423.5,-108.23 427,-98.23 420,-98.23"/>
</g>
<!-- Node7 -->
<g id="node7" class="node">
<title>Node7</title>
<g id="a_node7"><a xlink:href="sqsh__private_8h.html" target="_top" xlink:title=" ">
<polygon fill="white" stroke="#666666" points="484.5,-19 362.5,-19 362.5,0 484.5,0 484.5,-19"/>
<text text-anchor="middle" x="423.5" y="-7" font-family="Helvetica,sans-Serif" font-size="10.00">sqsh_private.h</text>
</a>
</g>
</g>
<!-- Node6&#45;&gt;Node7 -->
<g id="edge6" class="edge">
<title>Node6&#45;&gt;Node7</title>
<path fill="none" stroke="#63b8ff" d="M423.5,-43.35C423.5,-35.1 423.5,-25.97 423.5,-19.44"/>
<polygon fill="#63b8ff" stroke="#63b8ff" points="420,-43.23 423.5,-53.23 427,-43.23 420,-43.23"/>
</g>
</g>
</svg>
