<?xml version="1.0" encoding="UTF-8" standalone="no"?>
<!DOCTYPE svg PUBLIC "-//W3C//DTD SVG 1.1//EN"
 "http://www.w3.org/Graphics/SVG/1.1/DTD/svg11.dtd">
<!-- Generated by graphviz version 8.0.5 (20230430.1635)
 -->
<!-- Title: include/sqsh_archive.h Pages: 1 -->
<svg width="280pt" height="1265492pt"
 viewBox="0.00 0.00 279.75 1265491.58" xmlns="http://www.w3.org/2000/svg" xmlns:xlink="http://www.w3.org/1999/xlink">
<g id="graph0" class="graph" transform="scale(1 1) rotate(0) translate(4 1265487.58)">
<title>include/sqsh_archive.h</title>
<!-- Node1 -->
<g id="node1" class="node">
<title>Node1</title>
<g id="a_node1"><a xlink:title=" ">
<polygon fill="#999999" stroke="#666666" points="230.25,-1265483.58 49.25,-1265483.58 49.25,-1265465.08 230.25,-1265465.08 230.25,-1265483.58"/>
<text text-anchor="middle" x="139.75" y="-1265470.08" font-family="Helvetica,sans-Serif" font-size="10.00">include/sqsh_archive.h</text>
</a>
</g>
</g>
<!-- Node2 -->
<g id="node2" class="node">
<title>Node2</title>
<g id="a_node2"><a xlink:href="sqsh__common_8h.html" target="_top" xlink:title=" ">
<polygon fill="white" stroke="#666666" points="196.5,-1265429.08 83,-1265429.08 83,-1265410.58 196.5,-1265410.58 196.5,-1265429.08"/>
<text text-anchor="middle" x="139.75" y="-1265415.58" font-family="Helvetica,sans-Serif" font-size="10.00">sqsh_common.h</text>
</a>
</g>
</g>
<!-- Node1&#45;&gt;Node2 -->
<g id="edge1" class="edge">
<title>Node1&#45;&gt;Node2</title>
<path fill="none" stroke="#63b8ff" d="M139.75,-1265464.66C139.75,-1265458.01 139.75,-1265448.57 139.75,-1265440.15"/>
<polygon fill="#63b8ff" stroke="#63b8ff" points="143.25,-1265440.34 139.75,-1265430.34 136.25,-1265440.34 143.25,-1265440.34"/>
</g>
<!-- Node3 -->
<g id="node3" class="node">
<title>Node3</title>
<g id="a_node3"><a xlink:title=" ">
<polygon fill="#e0e0e0" stroke="#999999" points="83.5,-1265374.58 0,-1265374.58 0,0 83.5,0 83.5,-1265374.58"/>
<text text-anchor="middle" x="41.75" y="-1265361.08" font-family="Helvetica,sans-Serif" font-size="10.00">stdbool.h</text>
</a>
</g>
</g>
<!-- Node2&#45;&gt;Node3 -->
<g id="edge2" class="edge">
<title>Node2&#45;&gt;Node3</title>
<path fill="none" stroke="#63b8ff" d="M125.68,-1265410.29C114.41,-1265402.55 99.42,-1265390.01 92.75,-1265374.58 92.75,-1265374.58 89.21,-1221489.79 84,-1156835.9"/>
<polygon fill="#63b8ff" stroke="#63b8ff" points="87.5,-1156836.17 84,-1156826.17 80.5,-1156836.17 87.5,-1156836.17"/>
</g>
<!-- Node4 -->
<g id="node4" class="node">
<title>Node4</title>
<g id="a_node4"><a xlink:title=" ">
<polygon fill="#e0e0e0" stroke="#999999" points="177.75,-632696.58 101.75,-632696.58 101.75,-632678 177.75,-632678 177.75,-632696.58"/>
<text text-anchor="middle" x="139.75" y="-632683.08" font-family="Helvetica,sans-Serif" font-size="10.00">stddef.h</text>
</a>
</g>
</g>
<!-- Node2&#45;&gt;Node4 -->
<g id="edge3" class="edge">
<title>Node2&#45;&gt;Node4</title>
<path fill="none" stroke="#63b8ff" d="M139.75,-1265410.18C139.75,-1262727.02 139.75,-636716.65 139.75,-632707.63"/>
<polygon fill="#63b8ff" stroke="#63b8ff" points="143.25,-632707.9 139.75,-632697.9 136.25,-632707.9 143.25,-632707.9"/>
</g>
<!-- Node5 -->
<g id="node5" class="node">
<title>Node5</title>
<g id="a_node5"><a xlink:title=" ">
<polygon fill="#e0e0e0" stroke="#999999" points="271.75,-632708.49 195.75,-632708.49 195.75,-632666.09 271.75,-632666.09 271.75,-632708.49"/>
<text text-anchor="middle" x="233.75" y="-632694.99" font-family="Helvetica,sans-Serif" font-size="10.00">stdint.h</text>
</a>
</g>
</g>
<!-- Node2&#45;&gt;Node5 -->
<g id="edge4" class="edge">
<title>Node2&#45;&gt;Node5</title>
<path fill="none" stroke="#63b8ff" d="M153.82,-1265410.29C165.09,-1265402.55 180.08,-1265390.01 186.75,-1265374.58 186.75,-1265374.58 233.37,-637810.64 233.75,-632719.43"/>
<polygon fill="#63b8ff" stroke="#63b8ff" points="237.25,-632719.86 233.75,-632709.86 230.25,-632719.86 237.25,-632719.86"/>
</g>
</g>
</svg>
