<?xml version="1.0" encoding="UTF-8" standalone="no"?>
<!DOCTYPE svg PUBLIC "-//W3C//DTD SVG 1.1//EN"
 "http://www.w3.org/Graphics/SVG/1.1/DTD/svg11.dtd">
<!-- Generated by graphviz version 8.0.5 (20230430.1635)
 -->
<!-- Title: sqsh_directory.h Pages: 1 -->
<svg width="284pt" height="1764628pt"
 viewBox="0.00 0.00 283.50 1764628.38" xmlns="http://www.w3.org/2000/svg" xmlns:xlink="http://www.w3.org/1999/xlink">
<g id="graph0" class="graph" transform="scale(1 1) rotate(0) translate(4 1764624.38)">
<title>sqsh_directory.h</title>
<!-- Node1 -->
<g id="node1" class="node">
<title>Node1</title>
<g id="a_node1"><a xlink:title=" ">
<polygon fill="#999999" stroke="#666666" points="171.5,-1764620.38 35.5,-1764620.38 35.5,-1764601.88 171.5,-1764601.88 171.5,-1764620.38"/>
<text text-anchor="middle" x="103.5" y="-1764606.88" font-family="Helvetica,sans-Serif" font-size="10.00">sqsh_directory.h</text>
</a>
</g>
</g>
<!-- Node2 -->
<g id="node2" class="node">
<title>Node2</title>
<g id="a_node2"><a xlink:href="sqsh_8h.html" target="_top" xlink:title=" ">
<polygon fill="white" stroke="#666666" points="61,-1323482.26 0,-1323482.26 0,-1323463.76 61,-1323463.76 61,-1323482.26"/>
<text text-anchor="middle" x="30.5" y="-1323468.76" font-family="Helvetica,sans-Serif" font-size="10.00">sqsh.h</text>
</a>
</g>
</g>
<!-- Node1&#45;&gt;Node2 -->
<g id="edge1" class="edge">
<title>Node1&#45;&gt;Node2</title>
<path fill="none" stroke="#63b8ff" d="M87.15,-1764593.57C80.63,-1764585.83 73.88,-1764576.08 70.5,-1764565.88 -49.79,-1764203.41 30.09,-1325730.71 30.5,-1323482.68"/>
<polygon fill="#63b8ff" stroke="#63b8ff" points="84.17,-1764595.59 93.48,-1764600.64 89.35,-1764590.89 84.17,-1764595.59"/>
</g>
<!-- Node3 -->
<g id="node3" class="node">
<title>Node3</title>
<g id="a_node3"><a xlink:href="sqsh__directory__private_8h.html" target="_top" xlink:title=" ">
<polygon fill="white" stroke="#666666" points="275.5,-1764565.88 79.5,-1764565.88 79.5,-882380.14 275.5,-882380.14 275.5,-1764565.88"/>
<text text-anchor="middle" x="177.5" y="-1764552.38" font-family="Helvetica,sans-Serif" font-size="10.00">sqsh_directory_private.h</text>
</a>
</g>
</g>
<!-- Node1&#45;&gt;Node3 -->
<g id="edge2" class="edge">
<title>Node1&#45;&gt;Node3</title>
<path fill="none" stroke="#63b8ff" d="M103.5,-1764590.57C103.5,-1764584.01 103.51,-1764575.79 103.51,-1764565.93"/>
<polygon fill="#63b8ff" stroke="#63b8ff" points="100,-1764590.45 103.5,-1764600.45 107,-1764590.45 100,-1764590.45"/>
</g>
<!-- Node4 -->
<g id="node4" class="node">
<title>Node4</title>
<g id="a_node4"><a xlink:href="sqsh__tree__private_8h.html" target="_top" xlink:title=" ">
<polygon fill="white" stroke="#666666" points="256.75,-882344.14 98.25,-882344.14 98.25,0 256.75,0 256.75,-882344.14"/>
<text text-anchor="middle" x="177.5" y="-882330.64" font-family="Helvetica,sans-Serif" font-size="10.00">sqsh_tree_private.h</text>
</a>
</g>
</g>
<!-- Node3&#45;&gt;Node4 -->
<g id="edge3" class="edge">
<title>Node3&#45;&gt;Node4</title>
<path fill="none" stroke="#63b8ff" d="M177.5,-882368.71C177.5,-882360.68 177.5,-882352.65 177.5,-882344.62"/>
<polygon fill="#63b8ff" stroke="#63b8ff" points="174,-882368.65 177.5,-882378.65 181,-882368.65 174,-882368.65"/>
</g>
</g>
</svg>
