<?xml version="1.0" encoding="UTF-8" standalone="no"?>
<!DOCTYPE svg PUBLIC "-//W3C//DTD SVG 1.1//EN"
 "http://www.w3.org/Graphics/SVG/1.1/DTD/svg11.dtd">
<!-- Generated by graphviz version 8.0.5 (20230430.1635)
 -->
<!-- Title: include/sqsh_directory.h Pages: 1 -->
<svg width="1635pt" height="392743pt"
 viewBox="0.00 0.00 1634.50 392742.73" xmlns="http://www.w3.org/2000/svg" xmlns:xlink="http://www.w3.org/1999/xlink">
<g id="graph0" class="graph" transform="scale(1 1) rotate(0) translate(4 392738.73)">
<title>include/sqsh_directory.h</title>
<!-- Node1 -->
<g id="node1" class="node">
<title>Node1</title>
<g id="a_node1"><a xlink:title=" ">
<polygon fill="#999999" stroke="#666666" points="959.25,-392734.73 763.25,-392734.73 763.25,-392716.23 959.25,-392716.23 959.25,-392734.73"/>
<text text-anchor="middle" x="861.25" y="-392721.23" font-family="Helvetica,sans-Serif" font-size="10.00">include/sqsh_directory.h</text>
</a>
</g>
</g>
<!-- Node2 -->
<g id="node2" class="node">
<title>Node2</title>
<g id="a_node2"><a xlink:href="sqsh_8h.html" target="_top" xlink:title=" ">
<polygon fill="white" stroke="#666666" points="837.75,-392663.06 716.75,-392663.06 716.75,-392644.56 837.75,-392644.56 837.75,-392663.06"/>
<text text-anchor="middle" x="777.25" y="-392649.56" font-family="Helvetica,sans-Serif" font-size="10.00">include/sqsh.h</text>
</a>
</g>
</g>
<!-- Node1&#45;&gt;Node2 -->
<g id="edge1" class="edge">
<title>Node1&#45;&gt;Node2</title>
<path fill="none" stroke="#63b8ff" d="M842.88,-392709.24C825.95,-392695.2 801.41,-392674.85 787.63,-392663.42"/>
<polygon fill="#63b8ff" stroke="#63b8ff" points="840.02,-392712.24 849.95,-392715.93 844.49,-392706.86 840.02,-392712.24"/>
</g>
<!-- Node10 -->
<g id="node10" class="node">
<title>Node10</title>
<g id="a_node10"><a xlink:href="sqsh__directory__private_8h.html" target="_top" xlink:title=" ">
<polygon fill="white" stroke="#666666" points="1321.75,-392680.23 1140.75,-392680.23 1140.75,-392627.4 1321.75,-392627.4 1321.75,-392680.23"/>
<text text-anchor="start" x="1148.75" y="-392666.73" font-family="Helvetica,sans-Serif" font-size="10.00">include/sqsh_directory</text>
<text text-anchor="middle" x="1231.25" y="-392632.4" font-family="Helvetica,sans-Serif" font-size="10.00">_private.h</text>
</a>
</g>
</g>
<!-- Node1&#45;&gt;Node10 -->
<g id="edge9" class="edge">
<title>Node1&#45;&gt;Node10</title>
<path fill="none" stroke="#63b8ff" d="M918.01,-392713.79C977.25,-392702.64 1071.02,-392684.98 1140.54,-392671.89"/>
<polygon fill="#63b8ff" stroke="#63b8ff" points="917.54,-392710.5 908.36,-392715.79 918.84,-392717.38 917.54,-392710.5"/>
</g>
<!-- Node3 -->
<g id="node3" class="node">
<title>Node3</title>
<g id="a_node3"><a xlink:href="list__dir_8c.html" target="_top" xlink:title=" ">
<polygon fill="white" stroke="#666666" points="158.5,-392591.4 0,-392591.4 0,0 158.5,0 158.5,-392591.4"/>
<text text-anchor="middle" x="79.25" y="-392577.9" font-family="Helvetica,sans-Serif" font-size="10.00">examples/list_dir.c</text>
</a>
</g>
</g>
<!-- Node2&#45;&gt;Node3 -->
<g id="edge2" class="edge">
<title>Node2&#45;&gt;Node3</title>
<path fill="none" stroke="#63b8ff" d="M705.78,-392650.89C552.44,-392646.03 202.82,-392630.71 167.25,-392591.4 164.44,-392588.29 161.68,-392555.57 158.98,-392493.96"/>
<polygon fill="#63b8ff" stroke="#63b8ff" points="705.37,-392654.41 715.48,-392651.22 705.59,-392647.41 705.37,-392654.41"/>
</g>
<!-- Node4 -->
<g id="node4" class="node">
<title>Node4</title>
<g id="a_node4"><a xlink:href="list__dir__ll_8c.html" target="_top" xlink:title=" ">
<polygon fill="white" stroke="#666666" points="357.75,-196302.9 176.75,-196302.9 176.75,-196288.5 357.75,-196288.5 357.75,-196302.9"/>
<text text-anchor="middle" x="267.25" y="-196286.2" font-family="Helvetica,sans-Serif" font-size="10.00">examples/list_dir_ll.c</text>
</a>
</g>
</g>
<!-- Node2&#45;&gt;Node4 -->
<g id="edge3" class="edge">
<title>Node2&#45;&gt;Node4</title>
<path fill="none" stroke="#63b8ff" d="M705.35,-392652.86C599.39,-392651.22 409.19,-392641.21 366.25,-392591.4 144.46,-392334.14 266.44,-197586.81 267.25,-196303.07"/>
<polygon fill="#63b8ff" stroke="#63b8ff" points="705.22,-392656.37 715.27,-392653 705.31,-392649.37 705.22,-392656.37"/>
</g>
<!-- Node5 -->
<g id="node5" class="node">
<title>Node5</title>
<g id="a_node5"><a xlink:href="list__xattrs_8c.html" target="_top" xlink:title=" ">
<polygon fill="white" stroke="#666666" points="556.75,-196310.45 375.75,-196310.45 375.75,-196280.95 556.75,-196280.95 556.75,-196310.45"/>
<text text-anchor="middle" x="466.25" y="-196296.95" font-family="Helvetica,sans-Serif" font-size="10.00">examples/list_xattrs.c</text>
</a>
</g>
</g>
<!-- Node2&#45;&gt;Node5 -->
<g id="edge4" class="edge">
<title>Node2&#45;&gt;Node5</title>
<path fill="none" stroke="#63b8ff" d="M709.24,-392642.14C654.09,-392631.93 582.74,-392614.66 565.25,-392591.4 361.46,-392320.34 465.22,-198206.31 466.24,-196310.67"/>
<polygon fill="#63b8ff" stroke="#63b8ff" points="708.57,-392645.76 719.04,-392644.09 709.82,-392638.87 708.57,-392645.76"/>
</g>
<!-- Node6 -->
<g id="node6" class="node">
<title>Node6</title>
<g id="a_node6"><a xlink:href="list__xattrs__ll_8c.html" target="_top" xlink:title=" ">
<polygon fill="white" stroke="#666666" points="778,-196308.7 574.5,-196308.7 574.5,-196282.7 778,-196282.7 778,-196308.7"/>
<text text-anchor="middle" x="676.25" y="-196295.2" font-family="Helvetica,sans-Serif" font-size="10.00">examples/list_xattrs_ll.c</text>
</a>
</g>
</g>
<!-- Node2&#45;&gt;Node6 -->
<g id="edge5" class="edge">
<title>Node2&#45;&gt;Node6</title>
<path fill="none" stroke="#63b8ff" d="M777.24,-392633.19C776.09,-390399.04 677.16,-198073.09 676.26,-196308.91"/>
<polygon fill="#63b8ff" stroke="#63b8ff" points="773.74,-392633.13 777.25,-392643.12 780.74,-392633.12 773.74,-392633.13"/>
</g>
<!-- Node7 -->
<g id="node7" class="node">
<title>Node7</title>
<g id="a_node7"><a xlink:href="read__file_8c.html" target="_top" xlink:title=" ">
<polygon fill="white" stroke="#666666" points="962.25,-196304.95 796.25,-196304.95 796.25,-196286.45 962.25,-196286.45 962.25,-196304.95"/>
<text text-anchor="middle" x="879.25" y="-196291.45" font-family="Helvetica,sans-Serif" font-size="10.00">examples/read_file.c</text>
</a>
</g>
</g>
<!-- Node2&#45;&gt;Node7 -->
<g id="edge6" class="edge">
<title>Node2&#45;&gt;Node7</title>
<path fill="none" stroke="#63b8ff" d="M781.2,-392633.55C783.47,-392621.49 786.1,-392605.61 787.25,-392591.4 1006.83,-389884.46 880.23,-197782.57 879.26,-196305.26"/>
<polygon fill="#63b8ff" stroke="#63b8ff" points="777.62,-392632.63 779.12,-392643.12 784.49,-392633.99 777.62,-392632.63"/>
</g>
<!-- Node8 -->
<g id="node8" class="node">
<title>Node8</title>
<g id="a_node8"><a xlink:href="read__file__ll_8c.html" target="_top" xlink:title=" ">
<polygon fill="white" stroke="#666666" points="1168.5,-196304.95 980,-196304.95 980,-196286.45 1168.5,-196286.45 1168.5,-196304.95"/>
<text text-anchor="middle" x="1074.25" y="-196291.45" font-family="Helvetica,sans-Serif" font-size="10.00">examples/read_file_ll.c</text>
</a>
</g>
</g>
<!-- Node2&#45;&gt;Node8 -->
<g id="edge7" class="edge">
<title>Node2&#45;&gt;Node8</title>
<path fill="none" stroke="#63b8ff" d="M848.69,-392650.24C891.68,-392644.55 943.34,-392629.49 971.25,-392591.4 1171.9,-392317.56 1075,-197801.28 1074.25,-196305.37"/>
<polygon fill="#63b8ff" stroke="#63b8ff" points="848.49,-392646.85 838.96,-392651.49 849.3,-392653.81 848.49,-392646.85"/>
</g>
<!-- Node9 -->
<g id="node9" class="node">
<title>Node9</title>
<g id="a_node9"><a xlink:href="readme__example_8c.html" target="_top" xlink:title=" ">
<polygon fill="white" stroke="#666666" points="1390,-196304.95 1186.5,-196304.95 1186.5,-196286.45 1390,-196286.45 1390,-196304.95"/>
<text text-anchor="middle" x="1288.25" y="-196291.45" font-family="Helvetica,sans-Serif" font-size="10.00">examples/readme_example.c</text>
</a>
</g>
</g>
<!-- Node2&#45;&gt;Node9 -->
<g id="edge8" class="edge">
<title>Node2&#45;&gt;Node9</title>
<path fill="none" stroke="#63b8ff" d="M849.21,-392652.51C952.72,-392650.38 1135.79,-392639.68 1177.25,-392591.4 1398.41,-392333.84 1289.1,-197801.41 1288.25,-196305.37"/>
<polygon fill="#63b8ff" stroke="#63b8ff" points="849.16,-392649.03 839.22,-392652.71 849.28,-392656.03 849.16,-392649.03"/>
</g>
<!-- Node11 -->
<g id="node11" class="node">
<title>Node11</title>
<g id="a_node11"><a xlink:href="sqsh__tree__private_8h.html" target="_top" xlink:title=" ">
<polygon fill="white" stroke="#666666" points="1626.5,-392499.89 1408,-392499.89 1408,-91.51 1626.5,-91.51 1626.5,-392499.89"/>
<text text-anchor="middle" x="1517.25" y="-392486.39" font-family="Helvetica,sans-Serif" font-size="10.00">include/sqsh_tree_private.h</text>
</a>
</g>
</g>
<!-- Node10&#45;&gt;Node11 -->
<g id="edge10" class="edge">
<title>Node10&#45;&gt;Node11</title>
<path fill="none" stroke="#63b8ff" d="M1332.47,-392637.33C1358.43,-392628.28 1383.46,-392613.97 1399.25,-392591.4 1403.61,-392585.16 1407.9,-392554.57 1412.1,-392500.18"/>
<polygon fill="#63b8ff" stroke="#63b8ff" points="1331.55,-392634.27 1323.1,-392640.67 1333.69,-392640.94 1331.55,-392634.27"/>
</g>
</g>
</svg>
