<?xml version="1.0" encoding="UTF-8" standalone="no"?>
<!DOCTYPE svg PUBLIC "-//W3C//DTD SVG 1.1//EN"
 "http://www.w3.org/Graphics/SVG/1.1/DTD/svg11.dtd">
<!-- Generated by graphviz version 8.0.5 (20230430.1635)
 -->
<!-- Title: sqsh_table_private.h Pages: 1 -->
<svg width="189pt" height="276490pt"
 viewBox="0.00 0.00 189.00 276490.12" xmlns="http://www.w3.org/2000/svg" xmlns:xlink="http://www.w3.org/1999/xlink">
<g id="graph0" class="graph" transform="scale(1 1) rotate(0) translate(4 276486.12)">
<title>sqsh_table_private.h</title>
<!-- Node1 -->
<g id="node1" class="node">
<title>Node1</title>
<g id="a_node1"><a xlink:title=" ">
<polygon fill="#999999" stroke="#666666" points="173.5,-276482.12 7.5,-276482.12 7.5,-276463.62 173.5,-276463.62 173.5,-276482.12"/>
<text text-anchor="middle" x="90.5" y="-276468.62" font-family="Helvetica,sans-Serif" font-size="10.00">sqsh_table_private.h</text>
</a>
</g>
</g>
<!-- Node2 -->
<g id="node2" class="node">
<title>Node2</title>
<g id="a_node2"><a xlink:href="sqsh__xattr__private_8h.html" target="_top" xlink:title=" ">
<polygon fill="white" stroke="#666666" points="173.5,-276427.62 7.5,-276427.62 7.5,-276409.12 173.5,-276409.12 173.5,-276427.62"/>
<text text-anchor="middle" x="90.5" y="-276414.12" font-family="Helvetica,sans-Serif" font-size="10.00">sqsh_xattr_private.h</text>
</a>
</g>
</g>
<!-- Node1&#45;&gt;Node2 -->
<g id="edge1" class="edge">
<title>Node1&#45;&gt;Node2</title>
<path fill="none" stroke="#63b8ff" d="M90.5,-276452.34C90.5,-276443.91 90.5,-276434.48 90.5,-276427.88"/>
<polygon fill="#63b8ff" stroke="#63b8ff" points="87,-276452.2 90.5,-276462.2 94,-276452.2 87,-276452.2"/>
</g>
<!-- Node3 -->
<g id="node3" class="node">
<title>Node3</title>
<g id="a_node3"><a xlink:href="sqsh__archive__private_8h.html" target="_top" xlink:title=" ">
<polygon fill="white" stroke="#666666" points="181,-276373.12 0,-276373.12 0,0 181,0 181,-276373.12"/>
<text text-anchor="middle" x="90.5" y="-276359.62" font-family="Helvetica,sans-Serif" font-size="10.00">sqsh_archive_private.h</text>
</a>
</g>
</g>
<!-- Node2&#45;&gt;Node3 -->
<g id="edge2" class="edge">
<title>Node2&#45;&gt;Node3</title>
<path fill="none" stroke="#63b8ff" d="M90.5,-276398.12C90.5,-276391.58 90.5,-276383.37 90.5,-276373.52"/>
<polygon fill="#63b8ff" stroke="#63b8ff" points="87,-276397.94 90.5,-276407.94 94,-276397.94 87,-276397.94"/>
</g>
</g>
</svg>
