<?xml version="1.0" encoding="UTF-8" standalone="no"?>
<!DOCTYPE svg PUBLIC "-//W3C//DTD SVG 1.1//EN"
 "http://www.w3.org/Graphics/SVG/1.1/DTD/svg11.dtd">
<!-- Generated by graphviz version 7.0.4 (20221203.1631)
 -->
<!-- Title: sqsh_common.h Pages: 1 -->
<svg width="946pt" height="302pt"
 viewBox="0.00 0.00 945.50 302.00" xmlns="http://www.w3.org/2000/svg" xmlns:xlink="http://www.w3.org/1999/xlink">
<g id="graph0" class="graph" transform="scale(1 1) rotate(0) translate(4 298)">
<title>sqsh_common.h</title>
<!-- Node1 -->
<g id="node1" class="node">
<title>Node1</title>
<g id="a_node1"><a xlink:title=" ">
<polygon fill="#999999" stroke="#666666" points="423,-294 309,-294 309,-275 423,-275 423,-294"/>
<text text-anchor="middle" x="366" y="-282" font-family="Helvetica,sans-Serif" font-size="10.00">sqsh_common.h</text>
</a>
</g>
</g>
<!-- Node2 -->
<g id="node2" class="node">
<title>Node2</title>
<g id="a_node2"><a xlink:href="sqsh_8h.html" target="_top" xlink:title=" ">
<polygon fill="white" stroke="#666666" points="292,-74 230,-74 230,-55 292,-55 292,-74"/>
<text text-anchor="middle" x="261" y="-62" font-family="Helvetica,sans-Serif" font-size="10.00">sqsh.h</text>
</a>
</g>
</g>
<!-- Node1&#45;&gt;Node2 -->
<g id="edge1" class="edge">
<title>Node1&#45;&gt;Node2</title>
<path fill="none" stroke="#63b8ff" d="M347.39,-266.95C319.62,-240.87 268.54,-187.17 249,-129 242.64,-110.07 250.93,-86.76 256.57,-74.32"/>
<polygon fill="#63b8ff" stroke="#63b8ff" points="344.98,-269.49 354.71,-273.68 349.71,-264.34 344.98,-269.49"/>
</g>
<!-- Node3 -->
<g id="node3" class="node">
<title>Node3</title>
<g id="a_node3"><a xlink:href="sqsh__private_8h.html" target="_top" xlink:title=" ">
<polygon fill="white" stroke="#666666" points="293,-19 171,-19 171,0 293,0 293,-19"/>
<text text-anchor="middle" x="232" y="-7" font-family="Helvetica,sans-Serif" font-size="10.00">sqsh_private.h</text>
</a>
</g>
</g>
<!-- Node1&#45;&gt;Node3 -->
<g id="edge30" class="edge">
<title>Node1&#45;&gt;Node3</title>
<path fill="none" stroke="#63b8ff" d="M297.59,-277.37C191.65,-265.97 0,-236.86 0,-175.5 0,-175.5 0,-175.5 0,-118.5 0,-43.08 102.01,-20.2 170.74,-13.34"/>
<polygon fill="#63b8ff" stroke="#63b8ff" points="297,-280.83 307.31,-278.39 297.73,-273.87 297,-280.83"/>
</g>
<!-- Node4 -->
<g id="node4" class="node">
<title>Node4</title>
<g id="a_node4"><a xlink:href="sqsh__data_8h.html" target="_top" xlink:title=" ">
<polygon fill="white" stroke="#666666" points="937.5,-239 838.5,-239 838.5,-220 937.5,-220 937.5,-239"/>
<text text-anchor="middle" x="888" y="-227" font-family="Helvetica,sans-Serif" font-size="10.00">sqsh_data.h</text>
</a>
</g>
</g>
<!-- Node1&#45;&gt;Node4 -->
<g id="edge3" class="edge">
<title>Node1&#45;&gt;Node4</title>
<path fill="none" stroke="#63b8ff" d="M434.55,-277.6C524.17,-269.71 686,-254.86 824,-239 828.57,-238.48 833.31,-237.9 838.06,-237.31"/>
<polygon fill="#63b8ff" stroke="#63b8ff" points="434.35,-274.1 424.7,-278.46 434.97,-281.07 434.35,-274.1"/>
</g>
<!-- Node5 -->
<g id="node5" class="node">
<title>Node5</title>
<g id="a_node5"><a xlink:href="sqsh__error_8h.html" target="_top" xlink:title=" ">
<polygon fill="white" stroke="#666666" points="135.5,-129 28.5,-129 28.5,-110 135.5,-110 135.5,-129"/>
<text text-anchor="middle" x="82" y="-117" font-family="Helvetica,sans-Serif" font-size="10.00">sqsh_error.h</text>
</a>
</g>
</g>
<!-- Node1&#45;&gt;Node5 -->
<g id="edge4" class="edge">
<title>Node1&#45;&gt;Node5</title>
<path fill="none" stroke="#63b8ff" d="M297.36,-275.57C243.27,-268.19 173.24,-255.82 150,-239 110.61,-210.49 90.7,-151.65 84.33,-129.34"/>
<polygon fill="#63b8ff" stroke="#63b8ff" points="296.77,-279.02 307.14,-276.86 297.69,-272.08 296.77,-279.02"/>
</g>
<!-- Node6 -->
<g id="node6" class="node">
<title>Node6</title>
<g id="a_node6"><a xlink:href="sqsh__iterator_8h.html" target="_top" xlink:title=" ">
<polygon fill="white" stroke="#666666" points="929.5,-129 800.5,-129 800.5,-110 929.5,-110 929.5,-129"/>
<text text-anchor="middle" x="865" y="-117" font-family="Helvetica,sans-Serif" font-size="10.00">sqsh_iterator.h</text>
</a>
</g>
</g>
<!-- Node1&#45;&gt;Node6 -->
<g id="edge7" class="edge">
<title>Node1&#45;&gt;Node6</title>
<path fill="none" stroke="#63b8ff" d="M434.65,-277.73C492.24,-271.68 576.2,-260.03 647,-239 704.4,-221.95 717.59,-212.96 770,-184 801.25,-166.73 835.52,-142.35 853.12,-129.4"/>
<polygon fill="#63b8ff" stroke="#63b8ff" points="434.59,-274.21 425,-278.71 435.3,-281.18 434.59,-274.21"/>
</g>
<!-- Node8 -->
<g id="node8" class="node">
<title>Node8</title>
<g id="a_node8"><a xlink:href="sqsh__primitive_8h.html" target="_top" xlink:title=" ">
<polygon fill="white" stroke="#666666" points="637.5,-239 500.5,-239 500.5,-220 637.5,-220 637.5,-239"/>
<text text-anchor="middle" x="569" y="-227" font-family="Helvetica,sans-Serif" font-size="10.00">sqsh_primitive.h</text>
</a>
</g>
</g>
<!-- Node1&#45;&gt;Node8 -->
<g id="edge9" class="edge">
<title>Node1&#45;&gt;Node8</title>
<path fill="none" stroke="#63b8ff" d="M411.51,-271.62C448.84,-261.87 500.86,-248.29 534.73,-239.45"/>
<polygon fill="#63b8ff" stroke="#63b8ff" points="410.69,-268.21 401.9,-274.13 412.46,-274.99 410.69,-268.21"/>
</g>
<!-- Node2&#45;&gt;Node3 -->
<g id="edge2" class="edge">
<title>Node2&#45;&gt;Node3</title>
<path fill="none" stroke="#63b8ff" d="M250.76,-44.79C246.05,-36.18 240.68,-26.36 236.89,-19.44"/>
<polygon fill="#63b8ff" stroke="#63b8ff" points="247.61,-46.33 255.48,-53.42 253.75,-42.97 247.61,-46.33"/>
</g>
<!-- Node5&#45;&gt;Node2 -->
<g id="edge5" class="edge">
<title>Node5&#45;&gt;Node2</title>
<path fill="none" stroke="#63b8ff" d="M122.98,-106.36C155.83,-96.64 201.18,-83.21 230.79,-74.45"/>
<polygon fill="#63b8ff" stroke="#63b8ff" points="122.41,-102.88 113.82,-109.08 124.4,-109.6 122.41,-102.88"/>
</g>
<!-- Node5&#45;&gt;Node3 -->
<g id="edge6" class="edge">
<title>Node5&#45;&gt;Node3</title>
<path fill="none" stroke="#63b8ff" d="M103.61,-102.94C135.47,-80 194.03,-37.84 219.56,-19.46"/>
<polygon fill="#63b8ff" stroke="#63b8ff" points="101.57,-100.09 95.5,-108.78 105.66,-105.77 101.57,-100.09"/>
</g>
<!-- Node7 -->
<g id="node7" class="node">
<title>Node7</title>
<g id="a_node7"><a xlink:href="sqsh__iterator__private_8h.html" target="_top" xlink:title=" ">
<polygon fill="white" stroke="#666666" points="835.5,-19 646.5,-19 646.5,0 835.5,0 835.5,-19"/>
<text text-anchor="middle" x="741" y="-7" font-family="Helvetica,sans-Serif" font-size="10.00">sqsh_iterator_private.h</text>
</a>
</g>
</g>
<!-- Node6&#45;&gt;Node7 -->
<g id="edge8" class="edge">
<title>Node6&#45;&gt;Node7</title>
<path fill="none" stroke="#63b8ff" d="M846.45,-102.34C819.97,-79.28 772.21,-37.68 751.29,-19.46"/>
<polygon fill="#63b8ff" stroke="#63b8ff" points="843.87,-104.74 853.71,-108.67 848.47,-99.46 843.87,-104.74"/>
</g>
<!-- Node9 -->
<g id="node9" class="node">
<title>Node9</title>
<g id="a_node9"><a xlink:href="sqsh__context_8h.html" target="_top" xlink:title=" ">
<polygon fill="white" stroke="#666666" points="744,-184 622,-184 622,-165 744,-165 744,-184"/>
<text text-anchor="middle" x="683" y="-172" font-family="Helvetica,sans-Serif" font-size="10.00">sqsh_context.h</text>
</a>
</g>
</g>
<!-- Node8&#45;&gt;Node9 -->
<g id="edge10" class="edge">
<title>Node8&#45;&gt;Node9</title>
<path fill="none" stroke="#63b8ff" d="M598.76,-214.67C619.36,-205.09 646.17,-192.62 663.95,-184.36"/>
<polygon fill="#63b8ff" stroke="#63b8ff" points="597.3,-211.48 589.71,-218.87 600.25,-217.83 597.3,-211.48"/>
</g>
<!-- Node10 -->
<g id="node10" class="node">
<title>Node10</title>
<g id="a_node10"><a xlink:href="sqsh__context__private_8h.html" target="_top" xlink:title=" ">
<polygon fill="white" stroke="#666666" points="751,-74 569,-74 569,-55 751,-55 751,-74"/>
<text text-anchor="middle" x="660" y="-62" font-family="Helvetica,sans-Serif" font-size="10.00">sqsh_context_private.h</text>
</a>
</g>
</g>
<!-- Node8&#45;&gt;Node10 -->
<g id="edge18" class="edge">
<title>Node8&#45;&gt;Node10</title>
<path fill="none" stroke="#63b8ff" d="M649.07,-219C692.42,-212.03 739.77,-200.81 753,-184 785.19,-143.1 711.14,-94.18 676.57,-74.43"/>
<polygon fill="#63b8ff" stroke="#63b8ff" points="648.72,-215.51 639.37,-220.49 649.78,-222.43 648.72,-215.51"/>
</g>
<!-- Node11 -->
<g id="node11" class="node">
<title>Node11</title>
<g id="a_node11"><a xlink:href="sqsh__metablock__private_8h.html" target="_top" xlink:title=" ">
<polygon fill="white" stroke="#666666" points="667.5,-129 470.5,-129 470.5,-110 667.5,-110 667.5,-129"/>
<text text-anchor="middle" x="569" y="-117" font-family="Helvetica,sans-Serif" font-size="10.00">sqsh_metablock_private.h</text>
</a>
</g>
</g>
<!-- Node8&#45;&gt;Node11 -->
<g id="edge29" class="edge">
<title>Node8&#45;&gt;Node11</title>
<path fill="none" stroke="#63b8ff" d="M569,-208.24C569,-184.63 569,-146.65 569,-129.46"/>
<polygon fill="#63b8ff" stroke="#63b8ff" points="565.5,-208.15 569,-218.15 572.5,-208.15 565.5,-208.15"/>
</g>
<!-- Node12 -->
<g id="node12" class="node">
<title>Node12</title>
<g id="a_node12"><a xlink:href="sqsh__mapper_8h.html" target="_top" xlink:title=" ">
<polygon fill="white" stroke="#666666" points="461,-184 347,-184 347,-165 461,-165 461,-184"/>
<text text-anchor="middle" x="404" y="-172" font-family="Helvetica,sans-Serif" font-size="10.00">sqsh_mapper.h</text>
</a>
</g>
</g>
<!-- Node8&#45;&gt;Node12 -->
<g id="edge19" class="edge">
<title>Node8&#45;&gt;Node12</title>
<path fill="none" stroke="#63b8ff" d="M530.43,-216.11C500.22,-206.41 458.91,-193.14 431.85,-184.45"/>
<polygon fill="#63b8ff" stroke="#63b8ff" points="528.98,-219.32 539.57,-219.05 531.12,-212.66 528.98,-219.32"/>
</g>
<!-- Node9&#45;&gt;Node2 -->
<g id="edge11" class="edge">
<title>Node9&#45;&gt;Node2</title>
<path fill="none" stroke="#63b8ff" d="M687.09,-153.65C688.74,-139.53 688.13,-121.15 677,-110 617.85,-50.76 384.78,-86.52 302,-74 298.84,-73.52 295.55,-72.96 292.28,-72.35"/>
<polygon fill="#63b8ff" stroke="#63b8ff" points="683.69,-152.75 685.51,-163.18 690.6,-153.89 683.69,-152.75"/>
</g>
<!-- Node9&#45;&gt;Node6 -->
<g id="edge15" class="edge">
<title>Node9&#45;&gt;Node6</title>
<path fill="none" stroke="#63b8ff" d="M724.67,-161.36C758.07,-151.64 804.17,-138.21 834.28,-129.45"/>
<polygon fill="#63b8ff" stroke="#63b8ff" points="723.95,-157.93 715.33,-164.09 725.91,-164.65 723.95,-157.93"/>
</g>
<!-- Node9&#45;&gt;Node10 -->
<g id="edge12" class="edge">
<title>Node9&#45;&gt;Node10</title>
<path fill="none" stroke="#63b8ff" d="M698.47,-156.13C707.91,-143.32 716.96,-125.5 710,-110 702.96,-94.31 687.35,-81.89 675.43,-74.2"/>
<polygon fill="#63b8ff" stroke="#63b8ff" points="695.95,-153.68 692.38,-163.65 701.39,-158.08 695.95,-153.68"/>
</g>
<!-- Node9&#45;&gt;Node11 -->
<g id="edge16" class="edge">
<title>Node9&#45;&gt;Node11</title>
<path fill="none" stroke="#63b8ff" d="M653.24,-159.67C632.64,-150.09 605.83,-137.62 588.05,-129.36"/>
<polygon fill="#63b8ff" stroke="#63b8ff" points="651.75,-162.83 662.29,-163.87 654.7,-156.48 651.75,-162.83"/>
</g>
<!-- Node10&#45;&gt;Node3 -->
<g id="edge14" class="edge">
<title>Node10&#45;&gt;Node3</title>
<path fill="none" stroke="#63b8ff" d="M576.21,-53.12C493.13,-42.84 367.78,-27.31 293.49,-18.11"/>
<polygon fill="#63b8ff" stroke="#63b8ff" points="575.54,-56.57 585.89,-54.32 576.4,-49.62 575.54,-56.57"/>
</g>
<!-- Node10&#45;&gt;Node7 -->
<g id="edge13" class="edge">
<title>Node10&#45;&gt;Node7</title>
<path fill="none" stroke="#63b8ff" d="M682.99,-48.46C697.35,-39.06 715.35,-27.28 727.46,-19.36"/>
<polygon fill="#63b8ff" stroke="#63b8ff" points="681.46,-45.28 675.01,-53.68 685.29,-51.13 681.46,-45.28"/>
</g>
<!-- Node11&#45;&gt;Node10 -->
<g id="edge17" class="edge">
<title>Node11&#45;&gt;Node10</title>
<path fill="none" stroke="#63b8ff" d="M594.36,-103.73C610.57,-94.29 631.06,-82.36 644.79,-74.36"/>
<polygon fill="#63b8ff" stroke="#63b8ff" points="592.62,-100.69 585.74,-108.75 596.15,-106.74 592.62,-100.69"/>
</g>
<!-- Node12&#45;&gt;Node2 -->
<g id="edge20" class="edge">
<title>Node12&#45;&gt;Node2</title>
<path fill="none" stroke="#63b8ff" d="M335.5,-169.57C307.43,-164.16 277.48,-152.7 260,-129 248.09,-112.85 253.62,-87.57 257.81,-74.3"/>
<polygon fill="#63b8ff" stroke="#63b8ff" points="334.61,-172.97 345.05,-171.16 335.77,-166.06 334.61,-172.97"/>
</g>
<!-- Node12&#45;&gt;Node3 -->
<g id="edge23" class="edge">
<title>Node12&#45;&gt;Node3</title>
<path fill="none" stroke="#63b8ff" d="M335.83,-166.21C306.5,-160.17 273.42,-149.14 249,-129 221.87,-106.62 216.75,-89.91 221,-55 222.54,-42.36 226.45,-28.14 229.17,-19.25"/>
<polygon fill="#63b8ff" stroke="#63b8ff" points="334.9,-169.6 345.37,-168.01 336.19,-162.72 334.9,-169.6"/>
</g>
<!-- Node12&#45;&gt;Node10 -->
<g id="edge21" class="edge">
<title>Node12&#45;&gt;Node10</title>
<path fill="none" stroke="#63b8ff" d="M416.04,-155.07C426.48,-140.6 442.88,-121.1 462,-110 494.3,-91.25 533.8,-80.4 569,-74.12"/>
<polygon fill="#63b8ff" stroke="#63b8ff" points="413.18,-153.06 410.4,-163.28 418.95,-157.02 413.18,-153.06"/>
</g>
<!-- Node12&#45;&gt;Node11 -->
<g id="edge22" class="edge">
<title>Node12&#45;&gt;Node11</title>
<path fill="none" stroke="#63b8ff" d="M442.57,-161.11C472.78,-151.41 514.09,-138.14 541.15,-129.45"/>
<polygon fill="#63b8ff" stroke="#63b8ff" points="441.88,-157.66 433.43,-164.05 444.02,-164.32 441.88,-157.66"/>
</g>
<!-- Node13 -->
<g id="node13" class="node">
<title>Node13</title>
<g id="a_node13"><a xlink:href="sqsh__table_8h.html" target="_top" xlink:title=" ">
<polygon fill="white" stroke="#666666" points="375.5,-129 268.5,-129 268.5,-110 375.5,-110 375.5,-129"/>
<text text-anchor="middle" x="322" y="-117" font-family="Helvetica,sans-Serif" font-size="10.00">sqsh_table.h</text>
</a>
</g>
</g>
<!-- Node12&#45;&gt;Node13 -->
<g id="edge24" class="edge">
<title>Node12&#45;&gt;Node13</title>
<path fill="none" stroke="#63b8ff" d="M380.73,-158.46C366.19,-149.06 347.96,-137.28 335.7,-129.36"/>
<polygon fill="#63b8ff" stroke="#63b8ff" points="378.52,-161.2 388.82,-163.69 382.32,-155.32 378.52,-161.2"/>
</g>
<!-- Node14 -->
<g id="node14" class="node">
<title>Node14</title>
<g id="a_node14"><a xlink:href="sqsh__table__private_8h.html" target="_top" xlink:title=" ">
<polygon fill="white" stroke="#666666" points="477.5,-74 310.5,-74 310.5,-55 477.5,-55 477.5,-74"/>
<text text-anchor="middle" x="394" y="-62" font-family="Helvetica,sans-Serif" font-size="10.00">sqsh_table_private.h</text>
</a>
</g>
</g>
<!-- Node12&#45;&gt;Node14 -->
<g id="edge28" class="edge">
<title>Node12&#45;&gt;Node14</title>
<path fill="none" stroke="#63b8ff" d="M402.12,-153.24C399.94,-129.63 396.42,-91.65 394.83,-74.46"/>
<polygon fill="#63b8ff" stroke="#63b8ff" points="398.63,-153.52 403.04,-163.15 405.61,-152.87 398.63,-153.52"/>
</g>
<!-- Node13&#45;&gt;Node2 -->
<g id="edge25" class="edge">
<title>Node13&#45;&gt;Node2</title>
<path fill="none" stroke="#63b8ff" d="M303.11,-102.09C292.58,-92.94 279.88,-81.9 271.19,-74.36"/>
<polygon fill="#63b8ff" stroke="#63b8ff" points="300.67,-104.6 310.51,-108.52 305.26,-99.32 300.67,-104.6"/>
</g>
<!-- Node13&#45;&gt;Node14 -->
<g id="edge26" class="edge">
<title>Node13&#45;&gt;Node14</title>
<path fill="none" stroke="#63b8ff" d="M343.17,-102.92C355.81,-93.61 371.41,-82.13 381.97,-74.36"/>
<polygon fill="#63b8ff" stroke="#63b8ff" points="341.41,-99.87 335.43,-108.61 345.56,-105.5 341.41,-99.87"/>
</g>
<!-- Node14&#45;&gt;Node3 -->
<g id="edge27" class="edge">
<title>Node14&#45;&gt;Node3</title>
<path fill="none" stroke="#63b8ff" d="M355.74,-50.98C326.11,-41.29 285.79,-28.1 259.35,-19.45"/>
<polygon fill="#63b8ff" stroke="#63b8ff" points="354.49,-54.26 365.08,-54.04 356.66,-47.6 354.49,-54.26"/>
</g>
</g>
</svg>
