<?xml version="1.0" encoding="UTF-8" standalone="no"?>
<!DOCTYPE svg PUBLIC "-//W3C//DTD SVG 1.1//EN"
 "http://www.w3.org/Graphics/SVG/1.1/DTD/svg11.dtd">
<!-- Generated by graphviz version 7.0.4 (20221203.1631)
 -->
<!-- Title: sqsh_mapper.h Pages: 1 -->
<svg width="550pt" height="192pt"
 viewBox="0.00 0.00 550.45 192.00" xmlns="http://www.w3.org/2000/svg" xmlns:xlink="http://www.w3.org/1999/xlink">
<g id="graph0" class="graph" transform="scale(1 1) rotate(0) translate(4 188)">
<title>sqsh_mapper.h</title>
<!-- Node1 -->
<g id="node1" class="node">
<title>Node1</title>
<g id="a_node1"><a xlink:title=" ">
<polygon fill="#999999" stroke="#666666" points="332.5,-184 218.5,-184 218.5,-165 332.5,-165 332.5,-184"/>
<text text-anchor="middle" x="275.5" y="-172" font-family="Helvetica,sans-Serif" font-size="10.00">sqsh_mapper.h</text>
</a>
</g>
</g>
<!-- Node2 -->
<g id="node2" class="node">
<title>Node2</title>
<g id="a_node2"><a xlink:href="sqsh_8h.html" target="_top" xlink:title=" ">
<polygon fill="white" stroke="#666666" points="247.5,-74 185.5,-74 185.5,-55 247.5,-55 247.5,-74"/>
<text text-anchor="middle" x="216.5" y="-62" font-family="Helvetica,sans-Serif" font-size="10.00">sqsh.h</text>
</a>
</g>
</g>
<!-- Node1&#45;&gt;Node2 -->
<g id="edge1" class="edge">
<title>Node1&#45;&gt;Node2</title>
<path fill="none" stroke="#63b8ff" d="M243.8,-159.23C231.72,-152.02 219.24,-142.01 212.5,-129 203.36,-111.34 209.05,-87.12 213.23,-74.3"/>
<polygon fill="#63b8ff" stroke="#63b8ff" points="241.94,-162.2 252.4,-163.9 245.28,-156.05 241.94,-162.2"/>
</g>
<!-- Node3 -->
<g id="node3" class="node">
<title>Node3</title>
<g id="a_node3"><a xlink:href="sqsh__private_8h.html" target="_top" xlink:title=" ">
<polygon fill="white" stroke="#666666" points="306.5,-19 184.5,-19 184.5,0 306.5,0 306.5,-19"/>
<text text-anchor="middle" x="245.5" y="-7" font-family="Helvetica,sans-Serif" font-size="10.00">sqsh_private.h</text>
</a>
</g>
</g>
<!-- Node1&#45;&gt;Node3 -->
<g id="edge8" class="edge">
<title>Node1&#45;&gt;Node3</title>
<path fill="none" stroke="#63b8ff" d="M344.25,-171.59C413.68,-168.04 514.08,-157.9 538.5,-129 543.95,-122.55 543.42,-116.86 538.5,-110 485.93,-36.64 376.18,-16.71 306.93,-11.68"/>
<polygon fill="#63b8ff" stroke="#63b8ff" points="344.29,-168.08 334.47,-172.05 344.63,-175.07 344.29,-168.08"/>
</g>
<!-- Node4 -->
<g id="node4" class="node">
<title>Node4</title>
<g id="a_node4"><a xlink:href="sqsh__context_8h.html" target="_top" xlink:title=" ">
<polygon fill="white" stroke="#666666" points="165.5,-129 43.5,-129 43.5,-110 165.5,-110 165.5,-129"/>
<text text-anchor="middle" x="104.5" y="-117" font-family="Helvetica,sans-Serif" font-size="10.00">sqsh_context.h</text>
</a>
</g>
</g>
<!-- Node1&#45;&gt;Node4 -->
<g id="edge3" class="edge">
<title>Node1&#45;&gt;Node4</title>
<path fill="none" stroke="#63b8ff" d="M235.53,-161.11C204.21,-151.41 161.4,-138.14 133.36,-129.45"/>
<polygon fill="#63b8ff" stroke="#63b8ff" points="234.46,-164.44 245.05,-164.06 236.53,-157.76 234.46,-164.44"/>
</g>
<!-- Node6 -->
<g id="node6" class="node">
<title>Node6</title>
<g id="a_node6"><a xlink:href="sqsh__context__private_8h.html" target="_top" xlink:title=" ">
<polygon fill="white" stroke="#666666" points="529.5,-129 347.5,-129 347.5,-110 529.5,-110 529.5,-129"/>
<text text-anchor="middle" x="438.5" y="-117" font-family="Helvetica,sans-Serif" font-size="10.00">sqsh_context_private.h</text>
</a>
</g>
</g>
<!-- Node1&#45;&gt;Node6 -->
<g id="edge7" class="edge">
<title>Node1&#45;&gt;Node6</title>
<path fill="none" stroke="#63b8ff" d="M314,-160.98C343.81,-151.29 384.38,-138.1 410.99,-129.45"/>
<polygon fill="#63b8ff" stroke="#63b8ff" points="313.02,-157.62 304.59,-164.04 315.18,-164.28 313.02,-157.62"/>
</g>
<!-- Node7 -->
<g id="node7" class="node">
<title>Node7</title>
<g id="a_node7"><a xlink:href="sqsh__table_8h.html" target="_top" xlink:title=" ">
<polygon fill="white" stroke="#666666" points="329,-129 222,-129 222,-110 329,-110 329,-129"/>
<text text-anchor="middle" x="275.5" y="-117" font-family="Helvetica,sans-Serif" font-size="10.00">sqsh_table.h</text>
</a>
</g>
</g>
<!-- Node1&#45;&gt;Node7 -->
<g id="edge9" class="edge">
<title>Node1&#45;&gt;Node7</title>
<path fill="none" stroke="#63b8ff" d="M275.5,-153.35C275.5,-145.1 275.5,-135.97 275.5,-129.44"/>
<polygon fill="#63b8ff" stroke="#63b8ff" points="272,-153.23 275.5,-163.23 279,-153.23 272,-153.23"/>
</g>
<!-- Node2&#45;&gt;Node3 -->
<g id="edge2" class="edge">
<title>Node2&#45;&gt;Node3</title>
<path fill="none" stroke="#63b8ff" d="M226.74,-44.79C231.45,-36.18 236.82,-26.36 240.61,-19.44"/>
<polygon fill="#63b8ff" stroke="#63b8ff" points="223.75,-42.97 222.02,-53.42 229.89,-46.33 223.75,-42.97"/>
</g>
<!-- Node4&#45;&gt;Node2 -->
<g id="edge4" class="edge">
<title>Node4&#45;&gt;Node2</title>
<path fill="none" stroke="#63b8ff" d="M133.73,-104.67C153.97,-95.09 180.31,-82.62 197.78,-74.36"/>
<polygon fill="#63b8ff" stroke="#63b8ff" points="132.41,-101.42 124.87,-108.86 135.4,-107.75 132.41,-101.42"/>
</g>
<!-- Node4&#45;&gt;Node3 -->
<g id="edge6" class="edge">
<title>Node4&#45;&gt;Node3</title>
<path fill="none" stroke="#63b8ff" d="M121.73,-101.99C135.94,-88.69 156.88,-69.85 176.5,-55 194.23,-41.58 215.98,-27.99 230.26,-19.42"/>
<polygon fill="#63b8ff" stroke="#63b8ff" points="119.4,-99.37 114.54,-108.78 124.21,-104.45 119.4,-99.37"/>
</g>
<!-- Node5 -->
<g id="node5" class="node">
<title>Node5</title>
<g id="a_node5"><a xlink:href="sqsh__iterator_8h.html" target="_top" xlink:title=" ">
<polygon fill="white" stroke="#666666" points="129,-74 0,-74 0,-55 129,-55 129,-74"/>
<text text-anchor="middle" x="64.5" y="-62" font-family="Helvetica,sans-Serif" font-size="10.00">sqsh_iterator.h</text>
</a>
</g>
</g>
<!-- Node4&#45;&gt;Node5 -->
<g id="edge5" class="edge">
<title>Node4&#45;&gt;Node5</title>
<path fill="none" stroke="#63b8ff" d="M91.03,-100.65C84.38,-91.84 76.64,-81.59 71.25,-74.44"/>
<polygon fill="#63b8ff" stroke="#63b8ff" points="88.17,-102.67 96.98,-108.54 93.75,-98.45 88.17,-102.67"/>
</g>
<!-- Node7&#45;&gt;Node2 -->
<g id="edge10" class="edge">
<title>Node7&#45;&gt;Node2</title>
<path fill="none" stroke="#63b8ff" d="M257.23,-102.09C247.04,-92.94 234.76,-81.9 226.36,-74.36"/>
<polygon fill="#63b8ff" stroke="#63b8ff" points="254.59,-104.42 264.37,-108.5 259.27,-99.21 254.59,-104.42"/>
</g>
<!-- Node7&#45;&gt;Node3 -->
<g id="edge11" class="edge">
<title>Node7&#45;&gt;Node3</title>
<path fill="none" stroke="#63b8ff" d="M269.96,-98.57C263.41,-74.98 252.79,-36.73 247.99,-19.46"/>
<polygon fill="#63b8ff" stroke="#63b8ff" points="266.59,-99.51 272.64,-108.2 273.34,-97.63 266.59,-99.51"/>
</g>
</g>
</svg>
