<?xml version="1.0" encoding="UTF-8" standalone="no"?>
<!DOCTYPE svg PUBLIC "-//W3C//DTD SVG 1.1//EN"
 "http://www.w3.org/Graphics/SVG/1.1/DTD/svg11.dtd">
<!-- Generated by graphviz version 8.0.5 (20230430.1635)
 -->
<!-- Title: include/sqsh_posix.h Pages: 1 -->
<svg width="291pt" height="1048071pt"
 viewBox="0.00 0.00 291.00 1048070.76" xmlns="http://www.w3.org/2000/svg" xmlns:xlink="http://www.w3.org/1999/xlink">
<g id="graph0" class="graph" transform="scale(1 1) rotate(0) translate(4 1048066.76)">
<title>include/sqsh_posix.h</title>
<!-- Node1 -->
<g id="node1" class="node">
<title>Node1</title>
<g id="a_node1"><a xlink:title=" ">
<polygon fill="#999999" stroke="#666666" points="276.75,-1048062.76 110.75,-1048062.76 110.75,-1048044.26 276.75,-1048044.26 276.75,-1048062.76"/>
<text text-anchor="middle" x="193.75" y="-1048049.26" font-family="Helvetica,sans-Serif" font-size="10.00">include/sqsh_posix.h</text>
</a>
</g>
</g>
<!-- Node2 -->
<g id="node2" class="node">
<title>Node2</title>
<g id="a_node2"><a xlink:href="sqsh__common_8h.html" target="_top" xlink:title=" ">
<polygon fill="white" stroke="#666666" points="196.5,-1048008.26 83,-1048008.26 83,-1047989.76 196.5,-1047989.76 196.5,-1048008.26"/>
<text text-anchor="middle" x="139.75" y="-1047994.76" font-family="Helvetica,sans-Serif" font-size="10.00">sqsh_common.h</text>
</a>
</g>
</g>
<!-- Node1&#45;&gt;Node2 -->
<g id="edge1" class="edge">
<title>Node1&#45;&gt;Node2</title>
<path fill="none" stroke="#63b8ff" d="M184.83,-1048043.84C177.05,-1048036.27 165.55,-1048025.1 156.12,-1048015.92"/>
<polygon fill="#63b8ff" stroke="#63b8ff" points="159.11,-1048013.98 149.5,-1048009.52 154.23,-1048019 159.11,-1048013.98"/>
</g>
<!-- Node6 -->
<g id="node6" class="node">
<title>Node6</title>
<g id="a_node6"><a xlink:title=" ">
<polygon fill="#e0e0e0" stroke="#999999" points="283,-1048008.26 214.5,-1048008.26 214.5,-1047989.76 283,-1047989.76 283,-1048008.26"/>
<text text-anchor="middle" x="248.75" y="-1047994.76" font-family="Helvetica,sans-Serif" font-size="10.00">stdio.h</text>
</a>
</g>
</g>
<!-- Node1&#45;&gt;Node6 -->
<g id="edge5" class="edge">
<title>Node1&#45;&gt;Node6</title>
<path fill="none" stroke="#63b8ff" d="M202.83,-1048043.84C210.76,-1048036.27 222.47,-1048025.1 232.08,-1048015.92"/>
<polygon fill="#63b8ff" stroke="#63b8ff" points="234.02,-1048018.96 238.84,-1048009.52 229.19,-1048013.89 234.02,-1048018.96"/>
</g>
<!-- Node3 -->
<g id="node3" class="node">
<title>Node3</title>
<g id="a_node3"><a xlink:title=" ">
<polygon fill="#e0e0e0" stroke="#999999" points="83.5,-1047953.76 0,-1047953.76 0,0 83.5,0 83.5,-1047953.76"/>
<text text-anchor="middle" x="41.75" y="-1047940.26" font-family="Helvetica,sans-Serif" font-size="10.00">stdbool.h</text>
</a>
</g>
</g>
<!-- Node2&#45;&gt;Node3 -->
<g id="edge2" class="edge">
<title>Node2&#45;&gt;Node3</title>
<path fill="none" stroke="#63b8ff" d="M125.68,-1047989.47C114.41,-1047981.73 99.42,-1047969.19 92.75,-1047953.76 89.78,-1047946.9 86.9,-1047798.57 84.1,-1047513.43"/>
<polygon fill="#63b8ff" stroke="#63b8ff" points="87.59,-1047513.76 84,-1047503.8 80.59,-1047513.83 87.59,-1047513.76"/>
</g>
<!-- Node4 -->
<g id="node4" class="node">
<title>Node4</title>
<g id="a_node4"><a xlink:title=" ">
<polygon fill="#e0e0e0" stroke="#999999" points="177.75,-523986.13 101.75,-523986.13 101.75,-523967.63 177.75,-523967.63 177.75,-523986.13"/>
<text text-anchor="middle" x="139.75" y="-523972.63" font-family="Helvetica,sans-Serif" font-size="10.00">stddef.h</text>
</a>
</g>
</g>
<!-- Node2&#45;&gt;Node4 -->
<g id="edge3" class="edge">
<title>Node2&#45;&gt;Node4</title>
<path fill="none" stroke="#63b8ff" d="M139.75,-1047989.57C139.75,-1045578.56 139.75,-527629.69 139.75,-523997.08"/>
<polygon fill="#63b8ff" stroke="#63b8ff" points="143.25,-523997.29 139.75,-523987.29 136.25,-523997.29 143.25,-523997.29"/>
</g>
<!-- Node5 -->
<g id="node5" class="node">
<title>Node5</title>
<g id="a_node5"><a xlink:title=" ">
<polygon fill="#e0e0e0" stroke="#999999" points="271.75,-523986.13 195.75,-523986.13 195.75,-523967.63 271.75,-523967.63 271.75,-523986.13"/>
<text text-anchor="middle" x="233.75" y="-523972.63" font-family="Helvetica,sans-Serif" font-size="10.00">stdint.h</text>
</a>
</g>
</g>
<!-- Node2&#45;&gt;Node5 -->
<g id="edge4" class="edge">
<title>Node2&#45;&gt;Node5</title>
<path fill="none" stroke="#63b8ff" d="M153.82,-1047989.47C165.09,-1047981.73 180.08,-1047969.19 186.75,-1047953.76 366.51,-1047537.69 234.68,-527643.44 233.75,-523997.15"/>
<polygon fill="#63b8ff" stroke="#63b8ff" points="237.25,-523997.32 233.75,-523987.32 230.25,-523997.32 237.25,-523997.32"/>
</g>
</g>
</svg>
