<?xml version="1.0" encoding="UTF-8" standalone="no"?>
<!DOCTYPE svg PUBLIC "-//W3C//DTD SVG 1.1//EN"
 "http://www.w3.org/Graphics/SVG/1.1/DTD/svg11.dtd">
<!-- Generated by graphviz version 8.0.5 (20230430.1635)
 -->
<!-- Title: sqsh_file.h Pages: 1 -->
<svg width="280pt" height="204831pt"
 viewBox="0.00 0.00 279.75 204830.83" xmlns="http://www.w3.org/2000/svg" xmlns:xlink="http://www.w3.org/1999/xlink">
<g id="graph0" class="graph" transform="scale(1 1) rotate(0) translate(4 204826.83)">
<title>sqsh_file.h</title>
<!-- Node1 -->
<g id="node1" class="node">
<title>Node1</title>
<g id="a_node1"><a xlink:title=" ">
<polygon fill="#999999" stroke="#666666" points="189,-204822.83 90.5,-204822.83 90.5,-204804.33 189,-204804.33 189,-204822.83"/>
<text text-anchor="middle" x="139.75" y="-204809.33" font-family="Helvetica,sans-Serif" font-size="10.00">sqsh_file.h</text>
</a>
</g>
</g>
<!-- Node2 -->
<g id="node2" class="node">
<title>Node2</title>
<g id="a_node2"><a xlink:href="sqsh__common_8h.html" target="_top" xlink:title=" ">
<polygon fill="white" stroke="#666666" points="196.5,-204768.33 83,-204768.33 83,-204749.83 196.5,-204749.83 196.5,-204768.33"/>
<text text-anchor="middle" x="139.75" y="-204754.83" font-family="Helvetica,sans-Serif" font-size="10.00">sqsh_common.h</text>
</a>
</g>
</g>
<!-- Node1&#45;&gt;Node2 -->
<g id="edge1" class="edge">
<title>Node1&#45;&gt;Node2</title>
<path fill="none" stroke="#63b8ff" d="M139.75,-204803.91C139.75,-204797.26 139.75,-204787.82 139.75,-204779.41"/>
<polygon fill="#63b8ff" stroke="#63b8ff" points="143.25,-204779.59 139.75,-204769.59 136.25,-204779.59 143.25,-204779.59"/>
</g>
<!-- Node3 -->
<g id="node3" class="node">
<title>Node3</title>
<g id="a_node3"><a xlink:title=" ">
<polygon fill="#e0e0e0" stroke="#999999" points="83.5,-204713.83 0,-204713.83 0,0 83.5,0 83.5,-204713.83"/>
<text text-anchor="middle" x="41.75" y="-204700.33" font-family="Helvetica,sans-Serif" font-size="10.00">stdbool.h</text>
</a>
</g>
</g>
<!-- Node2&#45;&gt;Node3 -->
<g id="edge2" class="edge">
<title>Node2&#45;&gt;Node3</title>
<path fill="none" stroke="#63b8ff" d="M125.68,-204749.54C114.41,-204741.8 99.42,-204729.26 92.75,-204713.83 89.84,-204707.09 87.02,-204656.95 84.3,-204565.21"/>
<polygon fill="#63b8ff" stroke="#63b8ff" points="87.78,-204565.31 83.99,-204555.41 80.78,-204565.51 87.78,-204565.31"/>
</g>
<!-- Node4 -->
<g id="node4" class="node">
<title>Node4</title>
<g id="a_node4"><a xlink:title=" ">
<polygon fill="#e0e0e0" stroke="#999999" points="177.75,-102366.17 101.75,-102366.17 101.75,-102347.67 177.75,-102347.67 177.75,-102366.17"/>
<text text-anchor="middle" x="139.75" y="-102352.67" font-family="Helvetica,sans-Serif" font-size="10.00">stddef.h</text>
</a>
</g>
</g>
<!-- Node2&#45;&gt;Node4 -->
<g id="edge3" class="edge">
<title>Node2&#45;&gt;Node4</title>
<path fill="none" stroke="#63b8ff" d="M139.75,-204749.65C139.75,-203694.46 139.75,-103981.23 139.75,-102377.47"/>
<polygon fill="#63b8ff" stroke="#63b8ff" points="143.25,-102377.65 139.75,-102367.65 136.25,-102377.65 143.25,-102377.65"/>
</g>
<!-- Node5 -->
<g id="node5" class="node">
<title>Node5</title>
<g id="a_node5"><a xlink:title=" ">
<polygon fill="#e0e0e0" stroke="#999999" points="271.75,-204633.44 195.75,-204633.44 195.75,-80.39 271.75,-80.39 271.75,-204633.44"/>
<text text-anchor="middle" x="233.75" y="-204619.94" font-family="Helvetica,sans-Serif" font-size="10.00">stdint.h</text>
</a>
</g>
</g>
<!-- Node2&#45;&gt;Node5 -->
<g id="edge4" class="edge">
<title>Node2&#45;&gt;Node5</title>
<path fill="none" stroke="#63b8ff" d="M153.82,-204749.54C165.09,-204741.8 180.08,-204729.26 186.75,-204713.83 189.57,-204707.31 192.29,-204660.2 194.92,-204574.11"/>
<polygon fill="#63b8ff" stroke="#63b8ff" points="198.45,-204574.23 195.25,-204564.13 191.45,-204574.02 198.45,-204574.23"/>
</g>
</g>
</svg>
