<?xml version="1.0" encoding="UTF-8" standalone="no"?>
<!DOCTYPE svg PUBLIC "-//W3C//DTD SVG 1.1//EN"
 "http://www.w3.org/Graphics/SVG/1.1/DTD/svg11.dtd">
<!-- Generated by graphviz version 7.0.5 (20221223.1930)
 -->
<!-- Title: sqsh_context_private.h Pages: 1 -->
<svg width="317pt" height="247pt"
 viewBox="0.00 0.00 317.00 247.00" xmlns="http://www.w3.org/2000/svg" xmlns:xlink="http://www.w3.org/1999/xlink">
<g id="graph0" class="graph" transform="scale(1 1) rotate(0) translate(4 243)">
<title>sqsh_context_private.h</title>
<!-- Node1 -->
<g id="node1" class="node">
<title>Node1</title>
<g id="a_node1"><a xlink:title=" ">
<polygon fill="#999999" stroke="#666666" points="241,-239 59,-239 59,-220 241,-220 241,-239"/>
<text text-anchor="middle" x="150" y="-227" font-family="Helvetica,sans-Serif" font-size="10.00">sqsh_context_private.h</text>
</a>
</g>
</g>
<!-- Node2 -->
<g id="node2" class="node">
<title>Node2</title>
<g id="a_node2"><a xlink:href="sqsh__context_8h.html" target="_top" xlink:title=" ">
<polygon fill="white" stroke="#666666" points="122,-184 0,-184 0,-165 122,-165 122,-184"/>
<text text-anchor="middle" x="61" y="-172" font-family="Helvetica,sans-Serif" font-size="10.00">sqsh_context.h</text>
</a>
</g>
</g>
<!-- Node1&#45;&gt;Node2 -->
<g id="edge1" class="edge">
<title>Node1&#45;&gt;Node2</title>
<path fill="none" stroke="#63b8ff" d="M134.9,-219.51C121.4,-211.47 101.35,-199.53 85.54,-190.11"/>
<polygon fill="#63b8ff" stroke="#63b8ff" points="87.56,-187.24 77.18,-185.13 83.98,-193.26 87.56,-187.24"/>
</g>
<!-- Node3 -->
<g id="node3" class="node">
<title>Node3</title>
<g id="a_node3"><a xlink:href="sqsh__primitive_8h.html" target="_top" xlink:title=" ">
<polygon fill="white" stroke="#666666" points="218.5,-129 81.5,-129 81.5,-110 218.5,-110 218.5,-129"/>
<text text-anchor="middle" x="150" y="-117" font-family="Helvetica,sans-Serif" font-size="10.00">sqsh_primitive.h</text>
</a>
</g>
</g>
<!-- Node1&#45;&gt;Node3 -->
<g id="edge11" class="edge">
<title>Node1&#45;&gt;Node3</title>
<path fill="none" stroke="#63b8ff" d="M150,-219.66C150,-202.57 150,-164.61 150,-140.92"/>
<polygon fill="#63b8ff" stroke="#63b8ff" points="153.5,-140.97 150,-130.97 146.5,-140.97 153.5,-140.97"/>
</g>
<!-- Node9 -->
<g id="node9" class="node">
<title>Node9</title>
<g id="a_node9"><a xlink:href="sqsh__mapper_8h.html" target="_top" xlink:title=" ">
<polygon fill="white" stroke="#666666" points="292,-184 178,-184 178,-165 292,-165 292,-184"/>
<text text-anchor="middle" x="235" y="-172" font-family="Helvetica,sans-Serif" font-size="10.00">sqsh_mapper.h</text>
</a>
</g>
</g>
<!-- Node1&#45;&gt;Node9 -->
<g id="edge9" class="edge">
<title>Node1&#45;&gt;Node9</title>
<path fill="none" stroke="#63b8ff" d="M164.42,-219.51C177.2,-211.54 196.1,-199.75 211.13,-190.38"/>
<polygon fill="#63b8ff" stroke="#63b8ff" points="212.88,-193.42 219.51,-185.16 209.17,-187.48 212.88,-193.42"/>
</g>
<!-- Node2&#45;&gt;Node3 -->
<g id="edge2" class="edge">
<title>Node2&#45;&gt;Node3</title>
<path fill="none" stroke="#63b8ff" d="M76.1,-164.51C89.6,-156.47 109.65,-144.53 125.46,-135.11"/>
<polygon fill="#63b8ff" stroke="#63b8ff" points="127.02,-138.26 133.82,-130.13 123.44,-132.24 127.02,-138.26"/>
</g>
<!-- Node4 -->
<g id="node4" class="node">
<title>Node4</title>
<g id="a_node4"><a xlink:href="sqsh__common_8h.html" target="_top" xlink:title=" ">
<polygon fill="white" stroke="#666666" points="207,-74 93,-74 93,-55 207,-55 207,-74"/>
<text text-anchor="middle" x="150" y="-62" font-family="Helvetica,sans-Serif" font-size="10.00">sqsh_common.h</text>
</a>
</g>
</g>
<!-- Node3&#45;&gt;Node4 -->
<g id="edge3" class="edge">
<title>Node3&#45;&gt;Node4</title>
<path fill="none" stroke="#63b8ff" d="M150,-109.75C150,-103.27 150,-94.16 150,-85.9"/>
<polygon fill="#63b8ff" stroke="#63b8ff" points="153.5,-85.96 150,-75.96 146.5,-85.96 153.5,-85.96"/>
</g>
<!-- Node5 -->
<g id="node5" class="node">
<title>Node5</title>
<g id="a_node5"><a xlink:title=" ">
<polygon fill="#e0e0e0" stroke="#999999" points="97,-19 13,-19 13,0 97,0 97,-19"/>
<text text-anchor="middle" x="55" y="-7" font-family="Helvetica,sans-Serif" font-size="10.00">stdbool.h</text>
</a>
</g>
</g>
<!-- Node3&#45;&gt;Node5 -->
<g id="edge8" class="edge">
<title>Node3&#45;&gt;Node5</title>
<path fill="none" stroke="#63b8ff" d="M131.44,-109.6C116.95,-101.87 97.13,-89.5 84,-74 73.08,-61.12 65.46,-43.44 60.78,-30.01"/>
<polygon fill="#63b8ff" stroke="#63b8ff" points="64.14,-29.03 57.76,-20.57 57.47,-31.16 64.14,-29.03"/>
</g>
<!-- Node8 -->
<g id="node8" class="node">
<title>Node8</title>
<g id="a_node8"><a xlink:title=" ">
<polygon fill="#e0e0e0" stroke="#999999" points="309,-74 225,-74 225,-55 309,-55 309,-74"/>
<text text-anchor="middle" x="267" y="-62" font-family="Helvetica,sans-Serif" font-size="10.00">pthread.h</text>
</a>
</g>
</g>
<!-- Node3&#45;&gt;Node8 -->
<g id="edge7" class="edge">
<title>Node3&#45;&gt;Node8</title>
<path fill="none" stroke="#63b8ff" d="M169.85,-109.51C188.28,-101.16 215.98,-88.61 237.09,-79.05"/>
<polygon fill="#63b8ff" stroke="#63b8ff" points="238.4,-82.3 246.07,-74.98 235.51,-75.92 238.4,-82.3"/>
</g>
<!-- Node4&#45;&gt;Node5 -->
<g id="edge4" class="edge">
<title>Node4&#45;&gt;Node5</title>
<path fill="none" stroke="#63b8ff" d="M133.88,-54.51C119.33,-46.39 97.66,-34.3 80.71,-24.85"/>
<polygon fill="#63b8ff" stroke="#63b8ff" points="82.64,-21.91 72.2,-20.1 79.23,-28.02 82.64,-21.91"/>
</g>
<!-- Node6 -->
<g id="node6" class="node">
<title>Node6</title>
<g id="a_node6"><a xlink:title=" ">
<polygon fill="#e0e0e0" stroke="#999999" points="192.5,-19 115.5,-19 115.5,0 192.5,0 192.5,-19"/>
<text text-anchor="middle" x="154" y="-7" font-family="Helvetica,sans-Serif" font-size="10.00">stddef.h</text>
</a>
</g>
</g>
<!-- Node4&#45;&gt;Node6 -->
<g id="edge5" class="edge">
<title>Node4&#45;&gt;Node6</title>
<path fill="none" stroke="#63b8ff" d="M150.66,-54.75C151.15,-48.27 151.84,-39.16 152.46,-30.9"/>
<polygon fill="#63b8ff" stroke="#63b8ff" points="155.95,-31.19 153.21,-20.95 148.97,-30.66 155.95,-31.19"/>
</g>
<!-- Node7 -->
<g id="node7" class="node">
<title>Node7</title>
<g id="a_node7"><a xlink:title=" ">
<polygon fill="#e0e0e0" stroke="#999999" points="287.5,-19 210.5,-19 210.5,0 287.5,0 287.5,-19"/>
<text text-anchor="middle" x="249" y="-7" font-family="Helvetica,sans-Serif" font-size="10.00">stdint.h</text>
</a>
</g>
</g>
<!-- Node4&#45;&gt;Node7 -->
<g id="edge6" class="edge">
<title>Node4&#45;&gt;Node7</title>
<path fill="none" stroke="#63b8ff" d="M166.79,-54.51C182.1,-46.31 204.97,-34.07 222.7,-24.58"/>
<polygon fill="#63b8ff" stroke="#63b8ff" points="223.96,-27.88 231.12,-20.07 220.65,-21.71 223.96,-27.88"/>
</g>
<!-- Node9&#45;&gt;Node3 -->
<g id="edge10" class="edge">
<title>Node9&#45;&gt;Node3</title>
<path fill="none" stroke="#63b8ff" d="M220.58,-164.51C207.8,-156.54 188.9,-144.75 173.87,-135.38"/>
<polygon fill="#63b8ff" stroke="#63b8ff" points="175.83,-132.48 165.49,-130.16 172.12,-138.42 175.83,-132.48"/>
</g>
</g>
</svg>
