<?xml version="1.0" encoding="UTF-8" standalone="no"?>
<!DOCTYPE svg PUBLIC "-//W3C//DTD SVG 1.1//EN"
 "http://www.w3.org/Graphics/SVG/1.1/DTD/svg11.dtd">
<!-- Generated by graphviz version 8.0.5 (20230430.1635)
 -->
<!-- Title: include/sqsh_common.h Pages: 1 -->
<svg width="2217pt" height="87955pt"
 viewBox="0.00 0.00 2217.10 87955.37" xmlns="http://www.w3.org/2000/svg" xmlns:xlink="http://www.w3.org/1999/xlink">
<g id="graph0" class="graph" transform="scale(1 1) rotate(0) translate(4 87951.37)">
<title>include/sqsh_common.h</title>
<!-- Node1 -->
<g id="node1" class="node">
<title>Node1</title>
<g id="a_node1"><a xlink:title=" ">
<polygon fill="#999999" stroke="#666666" points="1276.09,-87947.37 1102.59,-87947.37 1102.59,-87928.87 1276.09,-87928.87 1276.09,-87947.37"/>
<text text-anchor="middle" x="1189.34" y="-87933.87" font-family="Helvetica,sans-Serif" font-size="10.00">include/sqsh_common.h</text>
</a>
</g>
</g>
<!-- Node2 -->
<g id="node2" class="node">
<title>Node2</title>
<g id="a_node2"><a xlink:href="sqsh_8h.html" target="_top" xlink:title=" ">
<polygon fill="white" stroke="#666666" points="1344.84,-87715.03 1223.84,-87715.03 1223.84,-43810.83 1344.84,-43810.83 1344.84,-87715.03"/>
<text text-anchor="middle" x="1284.34" y="-87701.53" font-family="Helvetica,sans-Serif" font-size="10.00">include/sqsh.h</text>
</a>
</g>
</g>
<!-- Node1&#45;&gt;Node2 -->
<g id="edge1" class="edge">
<title>Node1&#45;&gt;Node2</title>
<path fill="none" stroke="#63b8ff" d="M1191.59,-87917.82C1194.93,-87888.23 1201.03,-87829.86 1203.34,-87780.11 1529.72,-80736.46 1427.78,-72411.69 1345.33,-68309.82"/>
<polygon fill="#63b8ff" stroke="#63b8ff" points="1188.02,-87917.29 1190.35,-87927.63 1194.97,-87918.09 1188.02,-87917.29"/>
</g>
<!-- Node10 -->
<g id="node10" class="node">
<title>Node10</title>
<g id="a_node10"><a xlink:href="sqsh__archive_8h.html" target="_top" xlink:title=" ">
<polygon fill="white" stroke="#666666" points="1715.84,-87774.82 1534.84,-87774.82 1534.84,-87756.32 1715.84,-87756.32 1715.84,-87774.82"/>
<text text-anchor="middle" x="1625.34" y="-87761.32" font-family="Helvetica,sans-Serif" font-size="10.00">include/sqsh_archive.h</text>
</a>
</g>
</g>
<!-- Node1&#45;&gt;Node10 -->
<g id="edge9" class="edge">
<title>Node1&#45;&gt;Node10</title>
<path fill="none" stroke="#63b8ff" d="M1287.06,-87931.96C1398.02,-87925.24 1566.68,-87912.02 1589.34,-87892.87 1625.56,-87862.26 1626.69,-87798.01 1625.84,-87774.99"/>
<polygon fill="#63b8ff" stroke="#63b8ff" points="1286.95,-87928.52 1277.17,-87932.61 1287.37,-87935.51 1286.95,-87928.52"/>
</g>
<!-- Node12 -->
<g id="node12" class="node">
<title>Node12</title>
<g id="a_node12"><a xlink:href="sqsh__easy_8h.html" target="_top" xlink:title=" ">
<polygon fill="white" stroke="#666666" points="1375.59,-87867.49 1217.09,-87867.49 1217.09,-87841.49 1375.59,-87841.49 1375.59,-87867.49"/>
<text text-anchor="middle" x="1296.34" y="-87853.99" font-family="Helvetica,sans-Serif" font-size="10.00">include/sqsh_easy.h</text>
</a>
</g>
</g>
<!-- Node1&#45;&gt;Node12 -->
<g id="edge12" class="edge">
<title>Node1&#45;&gt;Node12</title>
<path fill="none" stroke="#63b8ff" d="M1209.33,-87921.87C1229.77,-87906.27 1261.15,-87882.33 1280.11,-87867.87"/>
<polygon fill="#63b8ff" stroke="#63b8ff" points="1207.62,-87919.53 1201.79,-87928.38 1211.86,-87925.1 1207.62,-87919.53"/>
</g>
<!-- Node13 -->
<g id="node13" class="node">
<title>Node13</title>
<g id="a_node13"><a xlink:href="sqsh__error_8h.html" target="_top" xlink:title=" ">
<polygon fill="white" stroke="#666666" points="1516.34,-87774.82 1350.34,-87774.82 1350.34,-87756.32 1516.34,-87756.32 1516.34,-87774.82"/>
<text text-anchor="middle" x="1433.34" y="-87761.32" font-family="Helvetica,sans-Serif" font-size="10.00">include/sqsh_error.h</text>
</a>
</g>
</g>
<!-- Node1&#45;&gt;Node13 -->
<g id="edge14" class="edge">
<title>Node1&#45;&gt;Node13</title>
<path fill="none" stroke="#63b8ff" d="M1287.3,-87932.34C1393.34,-87926.14 1549.89,-87913.59 1568.34,-87892.87 1591.02,-87867.38 1587.87,-87844.08 1568.34,-87816.11 1553.19,-87794.41 1527.44,-87782.19 1502.46,-87775.31"/>
<polygon fill="#63b8ff" stroke="#63b8ff" points="1287.34,-87928.89 1277.56,-87932.96 1287.74,-87935.88 1287.34,-87928.89"/>
</g>
<!-- Node14 -->
<g id="node14" class="node">
<title>Node14</title>
<g id="a_node14"><a xlink:href="sqsh__file_8h.html" target="_top" xlink:title=" ">
<polygon fill="white" stroke="#666666" points="1161.59,-87863.74 1003.09,-87863.74 1003.09,-87845.24 1161.59,-87845.24 1161.59,-87863.74"/>
<text text-anchor="middle" x="1082.34" y="-87850.24" font-family="Helvetica,sans-Serif" font-size="10.00">include/sqsh_file.h</text>
</a>
</g>
</g>
<!-- Node1&#45;&gt;Node14 -->
<g id="edge17" class="edge">
<title>Node1&#45;&gt;Node14</title>
<path fill="none" stroke="#63b8ff" d="M1169.2,-87921.76C1146.88,-87904.73 1111.67,-87877.87 1093.71,-87864.16"/>
<polygon fill="#63b8ff" stroke="#63b8ff" points="1166.81,-87925.1 1176.89,-87928.38 1171.06,-87919.53 1166.81,-87925.1"/>
</g>
<!-- Node19 -->
<g id="node19" class="node">
<title>Node19</title>
<g id="a_node19"><a xlink:href="sqsh__tree_8h.html" target="_top" xlink:title=" ">
<polygon fill="white" stroke="#666666" points="1892.59,-87774.82 1734.09,-87774.82 1734.09,-87756.32 1892.59,-87756.32 1892.59,-87774.82"/>
<text text-anchor="middle" x="1813.34" y="-87761.32" font-family="Helvetica,sans-Serif" font-size="10.00">include/sqsh_tree.h</text>
</a>
</g>
</g>
<!-- Node1&#45;&gt;Node19 -->
<g id="edge53" class="edge">
<title>Node1&#45;&gt;Node19</title>
<path fill="none" stroke="#63b8ff" d="M1287.44,-87932.44C1395.26,-87926.34 1561.05,-87913.9 1620.34,-87892.87 1698.84,-87865.02 1777.18,-87799.05 1803.81,-87775.29"/>
<polygon fill="#63b8ff" stroke="#63b8ff" points="1287.33,-87928.99 1277.54,-87933.04 1287.72,-87935.98 1287.33,-87928.99"/>
</g>
<!-- Node20 -->
<g id="node20" class="node">
<title>Node20</title>
<g id="a_node20"><a xlink:href="sqsh__posix_8h.html" target="_top" xlink:title=" ">
<polygon fill="white" stroke="#666666" points="1559.34,-87863.74 1393.34,-87863.74 1393.34,-87845.24 1559.34,-87845.24 1559.34,-87863.74"/>
<text text-anchor="middle" x="1476.34" y="-87850.24" font-family="Helvetica,sans-Serif" font-size="10.00">include/sqsh_posix.h</text>
</a>
</g>
</g>
<!-- Node1&#45;&gt;Node20 -->
<g id="edge30" class="edge">
<title>Node1&#45;&gt;Node20</title>
<path fill="none" stroke="#63b8ff" d="M1248.25,-87926.35C1287.28,-87918.59 1339.38,-87907 1384.34,-87892.87 1410.32,-87884.7 1439.28,-87872.38 1457.64,-87864.14"/>
<polygon fill="#63b8ff" stroke="#63b8ff" points="1247.74,-87923.08 1238.6,-87928.44 1249.09,-87929.95 1247.74,-87923.08"/>
</g>
<!-- Node21 -->
<g id="node21" class="node">
<title>Node21</title>
<g id="a_node21"><a xlink:href="sqsh__reader__private_8h.html" target="_top" xlink:title=" ">
<polygon fill="white" stroke="#666666" points="253.59,-87880.93 95.09,-87880.93 95.09,-87828.05 253.59,-87828.05 253.59,-87880.93"/>
<text text-anchor="start" x="103.09" y="-87867.43" font-family="Helvetica,sans-Serif" font-size="10.00">include/sqsh_reader</text>
<text text-anchor="middle" x="174.34" y="-87833.05" font-family="Helvetica,sans-Serif" font-size="10.00">_private.h</text>
</a>
</g>
</g>
<!-- Node1&#45;&gt;Node21 -->
<g id="edge32" class="edge">
<title>Node1&#45;&gt;Node21</title>
<path fill="none" stroke="#63b8ff" d="M1091.55,-87934.3C945.86,-87929.46 663.33,-87917.6 424.34,-87892.87 367.15,-87886.95 303.03,-87877.3 254.04,-87869.29"/>
<polygon fill="#63b8ff" stroke="#63b8ff" points="1091.12,-87937.82 1101.23,-87934.65 1091.35,-87930.82 1091.12,-87937.82"/>
</g>
<!-- Node26 -->
<g id="node26" class="node">
<title>Node26</title>
<g id="a_node26"><a xlink:href="sqsh__table_8h.html" target="_top" xlink:title=" ">
<polygon fill="white" stroke="#666666" points="782.34,-87774.82 616.34,-87774.82 616.34,-87756.32 782.34,-87756.32 782.34,-87774.82"/>
<text text-anchor="middle" x="699.34" y="-87761.32" font-family="Helvetica,sans-Serif" font-size="10.00">include/sqsh_table.h</text>
</a>
</g>
</g>
<!-- Node1&#45;&gt;Node26 -->
<g id="edge43" class="edge">
<title>Node1&#45;&gt;Node26</title>
<path fill="none" stroke="#63b8ff" d="M1091.18,-87930.37C1037.43,-87924.46 970.35,-87913.43 913.34,-87892.87 828.92,-87862.43 740.41,-87798.08 710.18,-87775.01"/>
<polygon fill="#63b8ff" stroke="#63b8ff" points="1090.78,-87933.95 1101.09,-87931.52 1091.51,-87926.99 1090.78,-87933.95"/>
</g>
<!-- Node27 -->
<g id="node27" class="node">
<title>Node27</title>
<g id="a_node27"><a xlink:href="sqsh__thread__private_8h.html" target="_top" xlink:title=" ">
<polygon fill="white" stroke="#666666" points="591.59,-87892.87 433.09,-87892.87 433.09,-87816.11 591.59,-87816.11 591.59,-87892.87"/>
<text text-anchor="start" x="441.09" y="-87879.37" font-family="Helvetica,sans-Serif" font-size="10.00">include/sqsh_thread</text>
<text text-anchor="middle" x="512.34" y="-87844.99" font-family="Helvetica,sans-Serif" font-size="10.00">_private.h</text>
</a>
</g>
</g>
<!-- Node1&#45;&gt;Node27 -->
<g id="edge46" class="edge">
<title>Node1&#45;&gt;Node27</title>
<path fill="none" stroke="#63b8ff" d="M1100.02,-87927.18C1021.96,-87918.42 905.6,-87905.17 804.34,-87892.87 732.42,-87884.13 650.62,-87873.61 591.93,-87865.96"/>
<polygon fill="#63b8ff" stroke="#63b8ff" points="1099.45,-87930.75 1109.77,-87928.39 1100.23,-87923.8 1099.45,-87930.75"/>
</g>
<!-- Node29 -->
<g id="node29" class="node">
<title>Node29</title>
<g id="a_node29"><a xlink:href="sqsh__xattr_8h.html" target="_top" xlink:title=" ">
<polygon fill="white" stroke="#666666" points="966.34,-87774.82 800.34,-87774.82 800.34,-87756.32 966.34,-87756.32 966.34,-87774.82"/>
<text text-anchor="middle" x="883.34" y="-87761.32" font-family="Helvetica,sans-Serif" font-size="10.00">include/sqsh_xattr.h</text>
</a>
</g>
</g>
<!-- Node1&#45;&gt;Node29 -->
<g id="edge54" class="edge">
<title>Node1&#45;&gt;Node29</title>
<path fill="none" stroke="#63b8ff" d="M1091.96,-87927.3C1059.27,-87920.89 1023.68,-87910.32 994.34,-87892.87 942.4,-87861.98 901.88,-87798.47 888.27,-87775.28"/>
<polygon fill="#63b8ff" stroke="#63b8ff" points="1090.99,-87930.86 1101.46,-87929.23 1092.26,-87923.98 1090.99,-87930.86"/>
</g>
<!-- Node3 -->
<g id="node3" class="node">
<title>Node3</title>
<g id="a_node3"><a xlink:href="list__dir_8c.html" target="_top" xlink:title=" ">
<polygon fill="white" stroke="#666666" points="1845.59,-43774.83 1687.09,-43774.83 1687.09,-119.5 1845.59,-119.5 1845.59,-43774.83"/>
<text text-anchor="middle" x="1766.34" y="-43761.33" font-family="Helvetica,sans-Serif" font-size="10.00">examples/list_dir.c</text>
</a>
</g>
</g>
<!-- Node2&#45;&gt;Node3 -->
<g id="edge2" class="edge">
<title>Node2&#45;&gt;Node3</title>
<path fill="none" stroke="#63b8ff" d="M1345.56,-63026.13C1435.86,-58867.85 1602.25,-50707.22 1678.34,-43774.83 1681.18,-43516.25 1683.92,-43255.94 1686.59,-42994.19"/>
<polygon fill="#63b8ff" stroke="#63b8ff" points="1342.05,-63025.71 1345.33,-63035.79 1349.05,-63025.87 1342.05,-63025.71"/>
</g>
<!-- Node4 -->
<g id="node4" class="node">
<title>Node4</title>
<g id="a_node4"><a xlink:href="list__dir__ll_8c.html" target="_top" xlink:title=" ">
<polygon fill="white" stroke="#666666" points="2044.84,-43774.79 1863.84,-43774.79 1863.84,-119.54 2044.84,-119.54 2044.84,-43774.79"/>
<text text-anchor="middle" x="1954.34" y="-43761.29" font-family="Helvetica,sans-Serif" font-size="10.00">examples/list_dir_ll.c</text>
</a>
</g>
</g>
<!-- Node2&#45;&gt;Node4 -->
<g id="edge3" class="edge">
<title>Node2&#45;&gt;Node4</title>
<path fill="none" stroke="#63b8ff" d="M1345.67,-63910.5C1468.04,-60127.97 1740.48,-51240.09 1854.34,-43774.83 1857.42,-43572.5 1860.42,-43369.12 1863.34,-43164.82"/>
<polygon fill="#63b8ff" stroke="#63b8ff" points="1342.15,-63910.13 1345.33,-63920.24 1349.15,-63910.36 1342.15,-63910.13"/>
</g>
<!-- Node5 -->
<g id="node5" class="node">
<title>Node5</title>
<g id="a_node5"><a xlink:href="list__xattrs_8c.html" target="_top" xlink:title=" ">
<polygon fill="white" stroke="#666666" points="835.84,-21956.41 654.84,-21956.41 654.84,-21937.91 835.84,-21937.91 835.84,-21956.41"/>
<text text-anchor="middle" x="745.34" y="-21942.91" font-family="Helvetica,sans-Serif" font-size="10.00">examples/list_xattrs.c</text>
</a>
</g>
</g>
<!-- Node2&#45;&gt;Node5 -->
<g id="edge4" class="edge">
<title>Node2&#45;&gt;Node5</title>
<path fill="none" stroke="#63b8ff" d="M1223.08,-63317.53C1124.13,-59258.92 931.46,-50873.16 844.34,-43774.83 727.12,-34223.92 744.75,-22320.62 745.32,-21956.72"/>
<polygon fill="#63b8ff" stroke="#63b8ff" points="1219.6,-63317.39 1223.34,-63327.3 1226.59,-63317.22 1219.6,-63317.39"/>
</g>
<!-- Node6 -->
<g id="node6" class="node">
<title>Node6</title>
<g id="a_node6"><a xlink:href="list__xattrs__ll_8c.html" target="_top" xlink:title=" ">
<polygon fill="white" stroke="#666666" points="1057.09,-21956.41 853.59,-21956.41 853.59,-21937.91 1057.09,-21937.91 1057.09,-21956.41"/>
<text text-anchor="middle" x="955.34" y="-21942.91" font-family="Helvetica,sans-Serif" font-size="10.00">examples/list_xattrs_ll.c</text>
</a>
</g>
</g>
<!-- Node2&#45;&gt;Node6 -->
<g id="edge5" class="edge">
<title>Node2&#45;&gt;Node6</title>
<path fill="none" stroke="#63b8ff" d="M1223.22,-60333.46C1174.88,-55883.53 1108.69,-49421.42 1066.34,-43774.83 994.7,-34223.44 956.52,-22320.61 955.36,-21956.72"/>
<polygon fill="#63b8ff" stroke="#63b8ff" points="1219.73,-60333.1 1223.34,-60343.06 1226.73,-60333.02 1219.73,-60333.1"/>
</g>
<!-- Node7 -->
<g id="node7" class="node">
<title>Node7</title>
<g id="a_node7"><a xlink:href="read__file_8c.html" target="_top" xlink:title=" ">
<polygon fill="white" stroke="#666666" points="1241.34,-21956.41 1075.34,-21956.41 1075.34,-21937.91 1241.34,-21937.91 1241.34,-21956.41"/>
<text text-anchor="middle" x="1158.34" y="-21942.91" font-family="Helvetica,sans-Serif" font-size="10.00">examples/read_file.c</text>
</a>
</g>
</g>
<!-- Node2&#45;&gt;Node7 -->
<g id="edge6" class="edge">
<title>Node2&#45;&gt;Node7</title>
<path fill="none" stroke="#63b8ff" d="M1223.31,-44539.82C1191.67,-33540.37 1159.38,-22310.51 1158.36,-21956.75"/>
<polygon fill="#63b8ff" stroke="#63b8ff" points="1219.81,-44539.66 1223.34,-44549.65 1226.81,-44539.64 1219.81,-44539.66"/>
</g>
<!-- Node8 -->
<g id="node8" class="node">
<title>Node8</title>
<g id="a_node8"><a xlink:href="read__file__ll_8c.html" target="_top" xlink:title=" ">
<polygon fill="white" stroke="#666666" points="1447.59,-21968.35 1259.09,-21968.35 1259.09,-21925.97 1447.59,-21925.97 1447.59,-21968.35"/>
<text text-anchor="middle" x="1353.34" y="-21954.85" font-family="Helvetica,sans-Serif" font-size="10.00">examples/read_file_ll.c</text>
</a>
</g>
</g>
<!-- Node2&#45;&gt;Node8 -->
<g id="edge7" class="edge">
<title>Node2&#45;&gt;Node8</title>
<path fill="none" stroke="#63b8ff" d="M1318.92,-43799.68C1335.71,-33139.79 1352.47,-22497.38 1353.31,-21968.71"/>
<polygon fill="#63b8ff" stroke="#63b8ff" points="1315.42,-43799.42 1318.91,-43809.42 1322.42,-43799.43 1315.42,-43799.42"/>
</g>
<!-- Node9 -->
<g id="node9" class="node">
<title>Node9</title>
<g id="a_node9"><a xlink:href="readme__example_8c.html" target="_top" xlink:title=" ">
<polygon fill="white" stroke="#666666" points="1669.09,-21960.16 1465.59,-21960.16 1465.59,-21934.16 1669.09,-21934.16 1669.09,-21960.16"/>
<text text-anchor="middle" x="1567.34" y="-21946.66" font-family="Helvetica,sans-Serif" font-size="10.00">examples/readme_example.c</text>
</a>
</g>
</g>
<!-- Node2&#45;&gt;Node9 -->
<g id="edge8" class="edge">
<title>Node2&#45;&gt;Node9</title>
<path fill="none" stroke="#63b8ff" d="M1345.42,-58586.48C1380.77,-54289.83 1424.42,-48719.6 1456.34,-43774.83 1517.79,-34254.16 1565.54,-22397.32 1567.29,-21960.6"/>
<polygon fill="#63b8ff" stroke="#63b8ff" points="1341.92,-58586.08 1345.34,-58596.11 1348.92,-58586.13 1341.92,-58586.08"/>
</g>
<!-- Node10&#45;&gt;Node2 -->
<g id="edge10" class="edge">
<title>Node10&#45;&gt;Node2</title>
<path fill="none" stroke="#63b8ff" d="M1625.04,-87745.12C1616.78,-87212.67 1441.1,-75878.16 1345.33,-69699.15"/>
<polygon fill="#63b8ff" stroke="#63b8ff" points="1621.55,-87745 1625.2,-87754.94 1628.55,-87744.89 1621.55,-87745"/>
</g>
<!-- Node11 -->
<g id="node11" class="node">
<title>Node11</title>
<g id="a_node11"><a xlink:href="sqsh__archive__private_8h.html" target="_top" xlink:title=" ">
<polygon fill="white" stroke="#666666" points="671.34,-83.5 505.34,-83.5 505.34,-54.5 671.34,-54.5 671.34,-83.5"/>
<text text-anchor="start" x="513.34" y="-70" font-family="Helvetica,sans-Serif" font-size="10.00">include/sqsh_archive</text>
<text text-anchor="middle" x="588.34" y="-59.5" font-family="Helvetica,sans-Serif" font-size="10.00">_private.h</text>
</a>
</g>
</g>
<!-- Node10&#45;&gt;Node11 -->
<g id="edge11" class="edge">
<title>Node10&#45;&gt;Node11</title>
<path fill="none" stroke="#63b8ff" d="M1699.41,-87752.78C1720.99,-87745.54 1742.25,-87733.87 1755.34,-87715.03 2103.48,-87213.77 2077.09,-44385.12 2079.34,-43774.83 2079.9,-43623.25 2184.73,-228.45 2079.34,-119.5 2030.15,-68.66 978.75,-68.54 671.78,-69.6"/>
<polygon fill="#63b8ff" stroke="#63b8ff" points="1698.72,-87749.64 1690.17,-87755.9 1700.76,-87756.34 1698.72,-87749.64"/>
</g>
<!-- Node12&#45;&gt;Node2 -->
<g id="edge13" class="edge">
<title>Node12&#45;&gt;Node2</title>
<path fill="none" stroke="#63b8ff" d="M1296.32,-87830.41C1296.31,-87807.96 1296.29,-87769.33 1296.26,-87715.46"/>
<polygon fill="#63b8ff" stroke="#63b8ff" points="1292.83,-87830.22 1296.33,-87840.21 1299.83,-87830.21 1292.83,-87830.22"/>
</g>
<!-- Node13&#45;&gt;Node2 -->
<g id="edge15" class="edge">
<title>Node13&#45;&gt;Node2</title>
<path fill="none" stroke="#63b8ff" d="M1433.21,-87745.17C1430.46,-87340.01 1385.23,-80661 1345.34,-74770.85"/>
<polygon fill="#63b8ff" stroke="#63b8ff" points="1429.71,-87744.97 1433.28,-87754.94 1436.71,-87744.92 1429.71,-87744.97"/>
</g>
<!-- Node13&#45;&gt;Node11 -->
<g id="edge16" class="edge">
<title>Node13&#45;&gt;Node11</title>
<path fill="none" stroke="#63b8ff" d="M1433.72,-87745.22C1448.99,-86969.35 1918.58,-63008.64 2054.34,-43774.83 2054.87,-43699.04 2107.02,-173.99 2054.34,-119.5 2006.06,-69.57 975.16,-68.79 671.68,-69.65"/>
<polygon fill="#63b8ff" stroke="#63b8ff" points="1430.2,-87745.08 1433.5,-87755.14 1437.2,-87745.21 1430.2,-87745.08"/>
</g>
<!-- Node14&#45;&gt;Node2 -->
<g id="edge18" class="edge">
<title>Node14&#45;&gt;Node2</title>
<path fill="none" stroke="#63b8ff" d="M1116.15,-87840.56C1141.35,-87828.92 1173.96,-87809.15 1189.34,-87780.11 2160.69,-85945.73 1552.03,-71373.33 1345.33,-67000.3"/>
<polygon fill="#63b8ff" stroke="#63b8ff" points="1114.98,-87837.69 1107.23,-87844.91 1117.79,-87844.1 1114.98,-87837.69"/>
</g>
<!-- Node15 -->
<g id="node15" class="node">
<title>Node15</title>
<g id="a_node15"><a xlink:href="sqsh__directory_8h.html" target="_top" xlink:title=" ">
<polygon fill="white" stroke="#666666" points="1180.34,-87774.82 984.34,-87774.82 984.34,-87756.32 1180.34,-87756.32 1180.34,-87774.82"/>
<text text-anchor="middle" x="1082.34" y="-87761.32" font-family="Helvetica,sans-Serif" font-size="10.00">include/sqsh_directory.h</text>
</a>
</g>
</g>
<!-- Node14&#45;&gt;Node15 -->
<g id="edge19" class="edge">
<title>Node14&#45;&gt;Node15</title>
<path fill="none" stroke="#63b8ff" d="M1082.34,-87833.91C1082.34,-87815.49 1082.34,-87788.76 1082.34,-87775.18"/>
<polygon fill="#63b8ff" stroke="#63b8ff" points="1078.84,-87833.84 1082.34,-87843.84 1085.84,-87833.84 1078.84,-87833.84"/>
</g>
<!-- Node18 -->
<g id="node18" class="node">
<title>Node18</title>
<g id="a_node18"><a xlink:href="sqsh__file__private_8h.html" target="_top" xlink:title=" ">
<polygon fill="white" stroke="#666666" points="290.59,-21956.41 72.09,-21956.41 72.09,-21937.91 290.59,-21937.91 290.59,-21956.41"/>
<text text-anchor="middle" x="181.34" y="-21942.91" font-family="Helvetica,sans-Serif" font-size="10.00">include/sqsh_file_private.h</text>
</a>
</g>
</g>
<!-- Node14&#45;&gt;Node18 -->
<g id="edge23" class="edge">
<title>Node14&#45;&gt;Node18</title>
<path fill="none" stroke="#63b8ff" d="M991.86,-87847.3C822.69,-87835.26 464.64,-87807.46 343.34,-87780.11 306.03,-87771.69 298.39,-87763.8 262.34,-87751.03 216.63,-87734.83 187.41,-87754.57 159.34,-87715.03 115.22,-87652.87 159.3,-43887.05 159.34,-43810.83 164.15,-34243.54 180.81,-22321.22 181.33,-21956.73"/>
<polygon fill="#63b8ff" stroke="#63b8ff" points="991.5,-87850.85 1001.73,-87848.07 992,-87843.87 991.5,-87850.85"/>
</g>
<!-- Node14&#45;&gt;Node19 -->
<g id="edge27" class="edge">
<title>Node14&#45;&gt;Node19</title>
<path fill="none" stroke="#63b8ff" d="M1115.74,-87841.4C1140.86,-87832.84 1176.31,-87821.9 1208.34,-87816.11 1434.99,-87775.1 1496.42,-87805.64 1725.34,-87780.11 1737.01,-87778.8 1749.51,-87777.08 1761.32,-87775.3"/>
<polygon fill="#63b8ff" stroke="#63b8ff" points="1114.95,-87838.31 1106.65,-87844.89 1117.25,-87844.93 1114.95,-87838.31"/>
</g>
<!-- Node15&#45;&gt;Node2 -->
<g id="edge20" class="edge">
<title>Node15&#45;&gt;Node2</title>
<path fill="none" stroke="#63b8ff" d="M1082.52,-87745.13C1086.75,-87283.78 1165.49,-78708.4 1223.34,-72407.55"/>
<polygon fill="#63b8ff" stroke="#63b8ff" points="1079.01,-87744.91 1082.42,-87754.94 1086.01,-87744.98 1079.01,-87744.91"/>
</g>
<!-- Node16 -->
<g id="node16" class="node">
<title>Node16</title>
<g id="a_node16"><a xlink:href="sqsh__directory__private_8h.html" target="_top" xlink:title=" ">
<polygon fill="white" stroke="#666666" points="408.84,-83.5 227.84,-83.5 227.84,-54.5 408.84,-54.5 408.84,-83.5"/>
<text text-anchor="start" x="235.84" y="-70" font-family="Helvetica,sans-Serif" font-size="10.00">include/sqsh_directory</text>
<text text-anchor="middle" x="318.34" y="-59.5" font-family="Helvetica,sans-Serif" font-size="10.00">_private.h</text>
</a>
</g>
</g>
<!-- Node15&#45;&gt;Node16 -->
<g id="edge21" class="edge">
<title>Node15&#45;&gt;Node16</title>
<path fill="none" stroke="#63b8ff" d="M1082.08,-87745.22C1071.88,-86969.32 757.83,-63007.82 645.34,-43774.83 644.89,-43699.04 616.5,-178.02 568.34,-119.5 548.17,-94.99 472.06,-82.4 409.06,-76.07"/>
<polygon fill="#63b8ff" stroke="#63b8ff" points="1078.59,-87745.19 1082.23,-87755.14 1085.59,-87745.1 1078.59,-87745.19"/>
</g>
<!-- Node17 -->
<g id="node17" class="node">
<title>Node17</title>
<g id="a_node17"><a xlink:href="sqsh__tree__private_8h.html" target="_top" xlink:title=" ">
<polygon fill="white" stroke="#666666" points="427.59,-18.5 209.09,-18.5 209.09,0 427.59,0 427.59,-18.5"/>
<text text-anchor="middle" x="318.34" y="-5" font-family="Helvetica,sans-Serif" font-size="10.00">include/sqsh_tree_private.h</text>
</a>
</g>
</g>
<!-- Node16&#45;&gt;Node17 -->
<g id="edge22" class="edge">
<title>Node16&#45;&gt;Node17</title>
<path fill="none" stroke="#63b8ff" d="M318.34,-43.19C318.34,-34.52 318.34,-25.36 318.34,-18.9"/>
<polygon fill="#63b8ff" stroke="#63b8ff" points="314.84,-43.02 318.34,-53.02 321.84,-43.02 314.84,-43.02"/>
</g>
<!-- Node18&#45;&gt;Node11 -->
<g id="edge24" class="edge">
<title>Node18&#45;&gt;Node11</title>
<path fill="none" stroke="#63b8ff" d="M180.85,-21926.66C163,-21211.51 -333.14,-1058.79 399.34,-119.5 412.79,-102.25 460.68,-89.81 504.88,-81.72"/>
<polygon fill="#63b8ff" stroke="#63b8ff" points="177.37,-21926.72 181.12,-21936.63 184.37,-21926.55 177.37,-21926.72"/>
</g>
<!-- Node18&#45;&gt;Node16 -->
<g id="edge25" class="edge">
<title>Node18&#45;&gt;Node16</title>
<path fill="none" stroke="#63b8ff" d="M181.12,-21926.75C173.56,-21238.73 -29.36,-2476.7 304.34,-119.5 306.09,-107.12 310.11,-93.48 313.4,-83.65"/>
<polygon fill="#63b8ff" stroke="#63b8ff" points="177.63,-21926.59 181.24,-21936.55 184.63,-21926.51 177.63,-21926.59"/>
</g>
<!-- Node18&#45;&gt;Node17 -->
<g id="edge26" class="edge">
<title>Node18&#45;&gt;Node17</title>
<path fill="none" stroke="#63b8ff" d="M181.07,-21926.46C171.12,-21198.71 -108.01,-554.86 218.34,-54.5 230.37,-36.05 252.03,-25.24 272.12,-18.93"/>
<polygon fill="#63b8ff" stroke="#63b8ff" points="177.58,-21926.47 181.22,-21936.42 184.58,-21926.38 177.58,-21926.47"/>
</g>
<!-- Node19&#45;&gt;Node2 -->
<g id="edge28" class="edge">
<title>Node19&#45;&gt;Node2</title>
<path fill="none" stroke="#63b8ff" d="M1812.88,-87745.34C1799.11,-87172.78 1481.44,-73961.26 1345.34,-68300.8"/>
<polygon fill="#63b8ff" stroke="#63b8ff" points="1809.39,-87745.03 1813.13,-87754.94 1816.39,-87744.86 1809.39,-87745.03"/>
</g>
<!-- Node19&#45;&gt;Node17 -->
<g id="edge29" class="edge">
<title>Node19&#45;&gt;Node17</title>
<path fill="none" stroke="#63b8ff" d="M1876.27,-87752.55C1897.02,-87745.28 1917.95,-87733.64 1930.34,-87715.03 2268.48,-87206.98 2115.05,-44385.11 2116.34,-43774.83 2116.98,-43471.67 2324.1,-340.27 2116.34,-119.5 2058.27,-57.8 809.61,-22.26 428.08,-12.82"/>
<polygon fill="#63b8ff" stroke="#63b8ff" points="1875.28,-87749.51 1866.8,-87755.88 1877.39,-87756.19 1875.28,-87749.51"/>
</g>
<!-- Node20&#45;&gt;Node2 -->
<g id="edge31" class="edge">
<title>Node20&#45;&gt;Node2</title>
<path fill="none" stroke="#63b8ff" d="M1444.35,-87840.61C1408.21,-87825.33 1352.9,-87799.5 1341.34,-87780.11 264.83,-85975.01 996.03,-71020.23 1223.35,-66843.61"/>
<polygon fill="#63b8ff" stroke="#63b8ff" points="1442.85,-87844.19 1453.43,-87844.81 1445.54,-87837.73 1442.85,-87844.19"/>
</g>
<!-- Node21&#45;&gt;Node18 -->
<g id="edge33" class="edge">
<title>Node21&#45;&gt;Node18</title>
<path fill="none" stroke="#63b8ff" d="M120.64,-87821.18C106.89,-87810.03 93.88,-87796.22 86.34,-87780.11 80.86,-87768.4 86.34,-87763.95 86.34,-87751.03 89.67,-68222.05 62.27,-63339.77 101.34,-43810.83 120.47,-34243.5 179.48,-22321.22 181.29,-21956.73"/>
<polygon fill="#63b8ff" stroke="#63b8ff" points="118.18,-87824.47 128.24,-87827.78 122.43,-87818.92 118.18,-87824.47"/>
</g>
<!-- Node22 -->
<g id="node22" class="node">
<title>Node22</title>
<g id="a_node22"><a xlink:href="sqsh__mapper__private_8h.html" target="_top" xlink:title=" ">
<polygon fill="white" stroke="#666666" points="253.59,-87780.11 95.09,-87780.11 95.09,-87751.03 253.59,-87751.03 253.59,-87780.11"/>
<text text-anchor="start" x="103.09" y="-87766.61" font-family="Helvetica,sans-Serif" font-size="10.00">include/sqsh_mapper</text>
<text text-anchor="middle" x="174.34" y="-87756.03" font-family="Helvetica,sans-Serif" font-size="10.00">_private.h</text>
</a>
</g>
</g>
<!-- Node21&#45;&gt;Node22 -->
<g id="edge34" class="edge">
<title>Node21&#45;&gt;Node22</title>
<path fill="none" stroke="#63b8ff" d="M174.34,-87817.2C174.34,-87804.11 174.34,-87790.12 174.34,-87780.17"/>
<polygon fill="#63b8ff" stroke="#63b8ff" points="170.84,-87816.88 174.34,-87826.88 177.84,-87816.88 170.84,-87816.88"/>
</g>
<!-- Node22&#45;&gt;Node18 -->
<g id="edge35" class="edge">
<title>Node22&#45;&gt;Node18</title>
<path fill="none" stroke="#63b8ff" d="M148.4,-87743.01C140.76,-87735.1 133.38,-87725.48 129.34,-87715.03 74.39,-87572.83 129.16,-43963.27 129.34,-43810.83 140.72,-34243.52 180.1,-22321.22 181.31,-21956.73"/>
<polygon fill="#63b8ff" stroke="#63b8ff" points="145.68,-87745.22 155.32,-87749.62 150.53,-87740.17 145.68,-87745.22"/>
</g>
<!-- Node23 -->
<g id="node23" class="node">
<title>Node23</title>
<g id="a_node23"><a xlink:href="sqsh__metablock__private_8h.html" target="_top" xlink:title=" ">
<polygon fill="white" stroke="#666666" points="390.84,-65777.43 209.84,-65777.43 209.84,-65748.43 390.84,-65748.43 390.84,-65777.43"/>
<text text-anchor="start" x="217.84" y="-65763.93" font-family="Helvetica,sans-Serif" font-size="10.00">include/sqsh_metablock</text>
<text text-anchor="middle" x="300.34" y="-65753.43" font-family="Helvetica,sans-Serif" font-size="10.00">_private.h</text>
</a>
</g>
</g>
<!-- Node22&#45;&gt;Node23 -->
<g id="edge36" class="edge">
<title>Node22&#45;&gt;Node23</title>
<path fill="none" stroke="#63b8ff" d="M174.48,-87739.78C179.14,-86926.72 296.8,-66382.24 300.26,-65777.55"/>
<polygon fill="#63b8ff" stroke="#63b8ff" points="170.98,-87739.52 174.42,-87749.54 177.98,-87739.56 170.98,-87739.52"/>
</g>
<!-- Node25 -->
<g id="node25" class="node">
<title>Node25</title>
<g id="a_node25"><a xlink:href="sqsh__table__private_8h.html" target="_top" xlink:title=" ">
<polygon fill="white" stroke="#666666" points="559.84,-65777.43 408.84,-65777.43 408.84,-65748.43 559.84,-65748.43 559.84,-65777.43"/>
<text text-anchor="start" x="416.84" y="-65763.93" font-family="Helvetica,sans-Serif" font-size="10.00">include/sqsh_table</text>
<text text-anchor="middle" x="484.34" y="-65753.43" font-family="Helvetica,sans-Serif" font-size="10.00">_private.h</text>
</a>
</g>
</g>
<!-- Node22&#45;&gt;Node25 -->
<g id="edge41" class="edge">
<title>Node22&#45;&gt;Node25</title>
<path fill="none" stroke="#63b8ff" d="M264.84,-87756.1C319.67,-87748.88 382.24,-87736.22 399.34,-87715.03 588,-87481.24 487.39,-66395.47 484.4,-65777.77"/>
<polygon fill="#63b8ff" stroke="#63b8ff" points="264.47,-87752.74 254.99,-87757.47 265.35,-87759.69 264.47,-87752.74"/>
</g>
<!-- Node23&#45;&gt;Node16 -->
<g id="edge37" class="edge">
<title>Node23&#45;&gt;Node16</title>
<path fill="none" stroke="#63b8ff" d="M300.34,-65737.2C300.74,-64305.23 318.04,-1150.49 318.33,-83.67"/>
<polygon fill="#63b8ff" stroke="#63b8ff" points="296.84,-65737.02 300.34,-65747.02 303.84,-65737.03 296.84,-65737.02"/>
</g>
<!-- Node23&#45;&gt;Node18 -->
<g id="edge38" class="edge">
<title>Node23&#45;&gt;Node18</title>
<path fill="none" stroke="#63b8ff" d="M300.27,-65737.38C297.12,-64576.75 183.23,-22644.96 181.36,-21956.73"/>
<polygon fill="#63b8ff" stroke="#63b8ff" points="296.77,-65737.21 300.3,-65747.2 303.77,-65737.19 296.77,-65737.21"/>
</g>
<!-- Node24 -->
<g id="node24" class="node">
<title>Node24</title>
<g id="a_node24"><a xlink:href="sqsh__xattr__private_8h.html" target="_top" xlink:title=" ">
<polygon fill="white" stroke="#666666" points="559.84,-21961.66 408.84,-21961.66 408.84,-21932.66 559.84,-21932.66 559.84,-21961.66"/>
<text text-anchor="start" x="416.84" y="-21948.16" font-family="Helvetica,sans-Serif" font-size="10.00">include/sqsh_xattr</text>
<text text-anchor="middle" x="484.34" y="-21937.66" font-family="Helvetica,sans-Serif" font-size="10.00">_private.h</text>
</a>
</g>
</g>
<!-- Node23&#45;&gt;Node24 -->
<g id="edge39" class="edge">
<title>Node23&#45;&gt;Node24</title>
<path fill="none" stroke="#63b8ff" d="M300.44,-65737.41C305.3,-64579.99 480.63,-22831.22 484.28,-21961.93"/>
<polygon fill="#63b8ff" stroke="#63b8ff" points="296.94,-65737.19 300.4,-65747.2 303.94,-65737.22 296.94,-65737.19"/>
</g>
<!-- Node24&#45;&gt;Node11 -->
<g id="edge40" class="edge">
<title>Node24&#45;&gt;Node11</title>
<path fill="none" stroke="#63b8ff" d="M484.03,-21921.59C474.33,-21150.43 243.2,-2471.38 574.34,-119.5 576.08,-107.12 580.1,-93.48 583.39,-83.65"/>
<polygon fill="#63b8ff" stroke="#63b8ff" points="480.54,-21921.56 484.16,-21931.51 487.54,-21921.47 480.54,-21921.56"/>
</g>
<!-- Node25&#45;&gt;Node24 -->
<g id="edge42" class="edge">
<title>Node25&#45;&gt;Node24</title>
<path fill="none" stroke="#63b8ff" d="M484.34,-65737.41C484.34,-64579.99 484.34,-22831.22 484.34,-21961.93"/>
<polygon fill="#63b8ff" stroke="#63b8ff" points="480.84,-65737.2 484.34,-65747.2 487.84,-65737.2 480.84,-65737.2"/>
</g>
<!-- Node26&#45;&gt;Node2 -->
<g id="edge44" class="edge">
<title>Node26&#45;&gt;Node2</title>
<path fill="none" stroke="#63b8ff" d="M699.85,-87745.16C715.37,-87161.56 1076.71,-73572.5 1223.34,-68057.94"/>
<polygon fill="#63b8ff" stroke="#63b8ff" points="696.33,-87744.85 699.57,-87754.94 703.33,-87745.04 696.33,-87744.85"/>
</g>
<!-- Node26&#45;&gt;Node25 -->
<g id="edge45" class="edge">
<title>Node26&#45;&gt;Node25</title>
<path fill="none" stroke="#63b8ff" d="M658.58,-87751.81C641.13,-87744.1 622.47,-87732.33 612.34,-87715.03 308.86,-87196.47 479.17,-66387.12 484.22,-65777.59"/>
<polygon fill="#63b8ff" stroke="#63b8ff" points="657.06,-87755.37 667.65,-87755.89 659.7,-87748.89 657.06,-87755.37"/>
</g>
<!-- Node27&#45;&gt;Node11 -->
<g id="edge47" class="edge">
<title>Node27&#45;&gt;Node11</title>
<path fill="none" stroke="#63b8ff" d="M536.84,-87805.99C548.93,-87779.9 562.21,-87746.51 568.34,-87715.03 683.8,-87121.97 589.74,-1340.47 588.35,-83.94"/>
<polygon fill="#63b8ff" stroke="#63b8ff" points="533.4,-87804.09 532.28,-87814.62 539.72,-87807.08 533.4,-87804.09"/>
</g>
<!-- Node27&#45;&gt;Node22 -->
<g id="edge52" class="edge">
<title>Node27&#45;&gt;Node22</title>
<path fill="none" stroke="#63b8ff" d="M422.15,-87830.3C360.51,-87814.44 280.83,-87793.95 228.69,-87780.55"/>
<polygon fill="#63b8ff" stroke="#63b8ff" points="421.11,-87833.9 431.66,-87833 422.85,-87827.12 421.11,-87833.9"/>
</g>
<!-- Node28 -->
<g id="node28" class="node">
<title>Node28</title>
<g id="a_node28"><a xlink:href="sqsh__extract__private_8h.html" target="_top" xlink:title=" ">
<polygon fill="white" stroke="#666666" points="518.34,-87780.07 352.34,-87780.07 352.34,-87751.07 518.34,-87751.07 518.34,-87780.07"/>
<text text-anchor="start" x="360.34" y="-87766.57" font-family="Helvetica,sans-Serif" font-size="10.00">include/sqsh_extract</text>
<text text-anchor="middle" x="435.34" y="-87756.07" font-family="Helvetica,sans-Serif" font-size="10.00">_private.h</text>
</a>
</g>
</g>
<!-- Node27&#45;&gt;Node28 -->
<g id="edge48" class="edge">
<title>Node27&#45;&gt;Node28</title>
<path fill="none" stroke="#63b8ff" d="M471.67,-87807.58C462.79,-87797.56 454.07,-87787.71 447.39,-87780.18"/>
<polygon fill="#63b8ff" stroke="#63b8ff" points="468.54,-87809.45 477.79,-87814.62 473.78,-87804.81 468.54,-87809.45"/>
</g>
<!-- Node28&#45;&gt;Node18 -->
<g id="edge49" class="edge">
<title>Node28&#45;&gt;Node18</title>
<path fill="none" stroke="#63b8ff" d="M341.25,-87756.71C283.89,-87749.74 218.27,-87737.13 200.34,-87715.03 128.87,-87626.95 180.64,-22811.19 181.33,-21956.69"/>
<polygon fill="#63b8ff" stroke="#63b8ff" points="340.51,-87760.26 350.85,-87757.94 341.32,-87753.31 340.51,-87760.26"/>
</g>
<!-- Node28&#45;&gt;Node23 -->
<g id="edge50" class="edge">
<title>Node28&#45;&gt;Node23</title>
<path fill="none" stroke="#63b8ff" d="M414.71,-87742.41C408.54,-87734.38 402.56,-87724.86 399.34,-87715.03 25.47,-86573.33 292.13,-66378.87 300.15,-65777.63"/>
<polygon fill="#63b8ff" stroke="#63b8ff" points="412.55,-87744.29 421.62,-87749.76 417.94,-87739.83 412.55,-87744.29"/>
</g>
<!-- Node28&#45;&gt;Node25 -->
<g id="edge51" class="edge">
<title>Node28&#45;&gt;Node25</title>
<path fill="none" stroke="#63b8ff" d="M435.39,-87740.09C437.19,-86932.01 482.96,-66382.47 484.31,-65777.55"/>
<polygon fill="#63b8ff" stroke="#63b8ff" points="431.89,-87740 435.37,-87750 438.89,-87740.01 431.89,-87740"/>
</g>
<!-- Node29&#45;&gt;Node2 -->
<g id="edge55" class="edge">
<title>Node29&#45;&gt;Node2</title>
<path fill="none" stroke="#63b8ff" d="M883.69,-87745.1C893.72,-87195.05 1113.7,-75125.77 1223.34,-69110.45"/>
<polygon fill="#63b8ff" stroke="#63b8ff" points="880.18,-87744.88 883.49,-87754.94 887.18,-87745.01 880.18,-87744.88"/>
</g>
<!-- Node29&#45;&gt;Node24 -->
<g id="edge56" class="edge">
<title>Node29&#45;&gt;Node24</title>
<path fill="none" stroke="#63b8ff" d="M813.25,-87754.19C748.48,-87743.89 660.72,-87727.82 650.34,-87715.03 602.32,-87655.83 568.56,-43887.05 568.34,-43810.83 541.14,-34283.84 486.52,-22421.69 484.4,-21961.96"/>
<polygon fill="#63b8ff" stroke="#63b8ff" points="812.42,-87757.76 822.84,-87755.86 813.51,-87750.85 812.42,-87757.76"/>
</g>
</g>
</svg>
