<?xml version="1.0" encoding="UTF-8" standalone="no"?>
<!DOCTYPE svg PUBLIC "-//W3C//DTD SVG 1.1//EN"
 "http://www.w3.org/Graphics/SVG/1.1/DTD/svg11.dtd">
<!-- Generated by graphviz version 8.0.5 (20230430.1635)
 -->
<!-- Title: include/sqsh.h Pages: 1 -->
<svg width="1398pt" height="2866779pt"
 viewBox="0.00 0.00 1398.00 2866779.07" xmlns="http://www.w3.org/2000/svg" xmlns:xlink="http://www.w3.org/1999/xlink">
<g id="graph0" class="graph" transform="scale(1 1) rotate(0) translate(4 2866775.07)">
<title>include/sqsh.h</title>
<!-- Node1 -->
<g id="node1" class="node">
<title>Node1</title>
<g id="a_node1"><a xlink:title=" ">
<polygon fill="#999999" stroke="#666666" points="736.75,-2866771.07 615.75,-2866771.07 615.75,-1433417.26 736.75,-1433417.26 736.75,-2866771.07"/>
<text text-anchor="middle" x="676.25" y="-2866757.57" font-family="Helvetica,sans-Serif" font-size="10.00">include/sqsh.h</text>
</a>
</g>
</g>
<!-- Node2 -->
<g id="node2" class="node">
<title>Node2</title>
<g id="a_node2"><a xlink:href="list__dir_8c.html" target="_top" xlink:title=" ">
<polygon fill="white" stroke="#666666" points="158.5,-716699.88 0,-716699.88 0,-716681.38 158.5,-716681.38 158.5,-716699.88"/>
<text text-anchor="middle" x="79.25" y="-716686.38" font-family="Helvetica,sans-Serif" font-size="10.00">examples/list_dir.c</text>
</a>
</g>
</g>
<!-- Node1&#45;&gt;Node2 -->
<g id="edge1" class="edge">
<title>Node1&#45;&gt;Node2</title>
<path fill="none" stroke="#63b8ff" d="M615.24,-2082749.09C503.12,-1955756.82 266.71,-1672189.73 167.25,-1433381.26 34.94,-1115707.98 79.01,-718829.61 79.25,-716700.23"/>
<polygon fill="#63b8ff" stroke="#63b8ff" points="611.74,-2082749 615.25,-2082758.99 618.74,-2082748.99 611.74,-2082749"/>
</g>
<!-- Node3 -->
<g id="node3" class="node">
<title>Node3</title>
<g id="a_node3"><a xlink:href="list__dir__ll_8c.html" target="_top" xlink:title=" ">
<polygon fill="white" stroke="#666666" points="357.75,-1433368.19 176.75,-1433368.19 176.75,-13.07 357.75,-13.07 357.75,-1433368.19"/>
<text text-anchor="middle" x="267.25" y="-1433354.69" font-family="Helvetica,sans-Serif" font-size="10.00">examples/list_dir_ll.c</text>
</a>
</g>
</g>
<!-- Node1&#45;&gt;Node3 -->
<g id="edge2" class="edge">
<title>Node1&#45;&gt;Node3</title>
<path fill="none" stroke="#63b8ff" d="M615.24,-2033419.19C543.52,-1891578.18 426.61,-1644919.66 366.25,-1433381.26 363.51,-1423773.84 360.84,-1414093.98 358.25,-1404354.78"/>
<polygon fill="#63b8ff" stroke="#63b8ff" points="611.74,-2033419.15 615.25,-2033429.14 618.74,-2033419.14 611.74,-2033419.15"/>
</g>
<!-- Node4 -->
<g id="node4" class="node">
<title>Node4</title>
<g id="a_node4"><a xlink:href="list__xattrs_8c.html" target="_top" xlink:title=" ">
<polygon fill="white" stroke="#666666" points="556.75,-716699.88 375.75,-716699.88 375.75,-716681.38 556.75,-716681.38 556.75,-716699.88"/>
<text text-anchor="middle" x="466.25" y="-716686.38" font-family="Helvetica,sans-Serif" font-size="10.00">examples/list_xattrs.c</text>
</a>
</g>
</g>
<!-- Node1&#45;&gt;Node4 -->
<g id="edge3" class="edge">
<title>Node1&#45;&gt;Node4</title>
<path fill="none" stroke="#63b8ff" d="M615.25,-1763864.12C598.67,-1656827.26 580.96,-1540593.62 565.25,-1433381.26 518.71,-1115707.96 466.53,-718829.61 466.25,-716700.23"/>
<polygon fill="#63b8ff" stroke="#63b8ff" points="611.75,-1763863.84 615.25,-1763873.84 618.75,-1763863.84 611.75,-1763863.84"/>
</g>
<!-- Node5 -->
<g id="node5" class="node">
<title>Node5</title>
<g id="a_node5"><a xlink:href="list__xattrs__ll_8c.html" target="_top" xlink:title=" ">
<polygon fill="white" stroke="#666666" points="778,-716699.88 574.5,-716699.88 574.5,-716681.38 778,-716681.38 778,-716699.88"/>
<text text-anchor="middle" x="676.25" y="-716686.38" font-family="Helvetica,sans-Serif" font-size="10.00">examples/list_xattrs_ll.c</text>
</a>
</g>
</g>
<!-- Node1&#45;&gt;Node5 -->
<g id="edge4" class="edge">
<title>Node1&#45;&gt;Node5</title>
<path fill="none" stroke="#63b8ff" d="M676.25,-1433406.01C676.25,-1076057.22 676.25,-718703.92 676.25,-716700.1"/>
<polygon fill="#63b8ff" stroke="#63b8ff" points="672.75,-1433406 676.25,-1433416 679.75,-1433406 672.75,-1433406"/>
</g>
<!-- Node6 -->
<g id="node6" class="node">
<title>Node6</title>
<g id="a_node6"><a xlink:href="read__file_8c.html" target="_top" xlink:title=" ">
<polygon fill="white" stroke="#666666" points="962.25,-716711.81 796.25,-716711.81 796.25,-716669.44 962.25,-716669.44 962.25,-716711.81"/>
<text text-anchor="middle" x="879.25" y="-716698.31" font-family="Helvetica,sans-Serif" font-size="10.00">examples/read_file.c</text>
</a>
</g>
</g>
<!-- Node1&#45;&gt;Node6 -->
<g id="edge5" class="edge">
<title>Node1&#45;&gt;Node6</title>
<path fill="none" stroke="#63b8ff" d="M737.25,-1768323.7C754.04,-1660061.4 771.86,-1542084.39 787.25,-1433381.26 832.17,-1116174.55 878.86,-719995.3 879.25,-716712.17"/>
<polygon fill="#63b8ff" stroke="#63b8ff" points="733.75,-1768323.54 737.25,-1768333.54 740.75,-1768323.54 733.75,-1768323.54"/>
</g>
<!-- Node7 -->
<g id="node7" class="node">
<title>Node7</title>
<g id="a_node7"><a xlink:href="read__file__ll_8c.html" target="_top" xlink:title=" ">
<polygon fill="white" stroke="#666666" points="1168.5,-716703.63 980,-716703.63 980,-716677.63 1168.5,-716677.63 1168.5,-716703.63"/>
<text text-anchor="middle" x="1074.25" y="-716690.13" font-family="Helvetica,sans-Serif" font-size="10.00">examples/read_file_ll.c</text>
</a>
</g>
</g>
<!-- Node1&#45;&gt;Node7 -->
<g id="edge6" class="edge">
<title>Node1&#45;&gt;Node7</title>
<path fill="none" stroke="#63b8ff" d="M737.26,-2026316.34C805.33,-1883451.69 913.48,-1641430.85 971.25,-1433381.26 1059.41,-1115882.94 1074.16,-719266.79 1074.25,-716704.11"/>
<polygon fill="#63b8ff" stroke="#63b8ff" points="733.75,-2026315.96 737.25,-2026325.96 740.75,-2026315.96 733.75,-2026315.96"/>
</g>
<!-- Node8 -->
<g id="node8" class="node">
<title>Node8</title>
<g id="a_node8"><a xlink:href="readme__example_8c.html" target="_top" xlink:title=" ">
<polygon fill="white" stroke="#666666" points="1390,-1433381.26 1186.5,-1433381.26 1186.5,0 1390,0 1390,-1433381.26"/>
<text text-anchor="middle" x="1288.25" y="-1433367.76" font-family="Helvetica,sans-Serif" font-size="10.00">examples/readme_example.c</text>
</a>
</g>
</g>
<!-- Node1&#45;&gt;Node8 -->
<g id="edge7" class="edge">
<title>Node1&#45;&gt;Node8</title>
<path fill="none" stroke="#63b8ff" d="M737.26,-2080743.03C847.03,-1952790.85 1075.82,-1670940.31 1177.25,-1433381.26 1180.24,-1426368.67 1183.16,-1419317.48 1186,-1412232.79"/>
<polygon fill="#63b8ff" stroke="#63b8ff" points="733.76,-2080743.01 737.25,-2080753.02 740.76,-2080743.02 733.76,-2080743.01"/>
</g>
</g>
</svg>
