<?xml version="1.0" encoding="UTF-8" standalone="no"?>
<!DOCTYPE svg PUBLIC "-//W3C//DTD SVG 1.1//EN"
 "http://www.w3.org/Graphics/SVG/1.1/DTD/svg11.dtd">
<!-- Generated by graphviz version 8.1.0 (0)
 -->
<!-- Title: include/sqsh_archive_private.h Pages: 1 -->
<svg width="856pt" height="382pt"
 viewBox="0.00 0.00 856.00 382.00" xmlns="http://www.w3.org/2000/svg" xmlns:xlink="http://www.w3.org/1999/xlink">
<g id="graph0" class="graph" transform="scale(1 1) rotate(0) translate(4 378)">
<title>include/sqsh_archive_private.h</title>
<!-- Node1 -->
<g id="Node000001" class="node">
<title>Node1</title>
<g id="a_Node000001"><a xlink:title=" ">
<polygon fill="#999999" stroke="#666666" points="224.38,-374 106.38,-374 106.38,-340.5 224.38,-340.5 224.38,-374"/>
<text text-anchor="start" x="114.38" y="-360.5" font-family="Helvetica,sans-Serif" font-size="10.00">include/sqsh_archive</text>
<text text-anchor="middle" x="165.38" y="-347.75" font-family="Helvetica,sans-Serif" font-size="10.00">_private.h</text>
</a>
</g>
</g>
<!-- Node2 -->
<g id="Node000002" class="node">
<title>Node2</title>
<g id="a_Node000002"><a xlink:href="sqsh__archive_8h.html" target="_top" xlink:title=" ">
<polygon fill="white" stroke="#666666" points="88.75,-191 0,-191 0,-170.25 88.75,-170.25 88.75,-191"/>
<text text-anchor="middle" x="44.38" y="-177.5" font-family="Helvetica,sans-Serif" font-size="10.00">sqsh_archive.h</text>
</a>
</g>
</g>
<!-- Node1&#45;&gt;Node2 -->
<g id="edge1_Node000001_Node000002" class="edge">
<title>Node1&#45;&gt;Node2</title>
<g id="a_edge1_Node000001_Node000002"><a xlink:title=" ">
<path fill="none" stroke="#63b8ff" d="M106.04,-342.5C85.74,-334.76 64.98,-322.8 52.38,-304.5 31.24,-273.81 35.18,-227.95 39.84,-201.8"/>
<polygon fill="#63b8ff" stroke="#63b8ff" points="43.41,-202.8 41.95,-192.3 36.55,-201.42 43.41,-202.8"/>
</a>
</g>
</g>
<!-- Node7 -->
<g id="Node000007" class="node">
<title>Node7</title>
<g id="a_Node000007"><a xlink:href="sqsh__error_8h.html" target="_top" xlink:title=" ">
<polygon fill="white" stroke="#666666" points="137,-304.5 61.75,-304.5 61.75,-283.75 137,-283.75 137,-304.5"/>
<text text-anchor="middle" x="99.38" y="-291" font-family="Helvetica,sans-Serif" font-size="10.00">sqsh_error.h</text>
</a>
</g>
</g>
<!-- Node1&#45;&gt;Node7 -->
<g id="edge6_Node000001_Node000007" class="edge">
<title>Node1&#45;&gt;Node7</title>
<g id="a_edge6_Node000001_Node000007"><a xlink:title=" ">
<path fill="none" stroke="#63b8ff" d="M148.03,-340.19C138.79,-331.63 127.42,-321.1 117.99,-312.37"/>
<polygon fill="#63b8ff" stroke="#63b8ff" points="120.72,-310.19 111,-305.97 115.96,-315.33 120.72,-310.19"/>
</a>
</g>
</g>
<!-- Node8 -->
<g id="Node000008" class="node">
<title>Node8</title>
<g id="a_Node000008"><a xlink:href="sqsh__file__private_8h.html" target="_top" xlink:title=" ">
<polygon fill="white" stroke="#666666" points="563.12,-304.5 455.62,-304.5 455.62,-283.75 563.12,-283.75 563.12,-304.5"/>
<text text-anchor="middle" x="509.38" y="-291" font-family="Helvetica,sans-Serif" font-size="10.00">sqsh_file_private.h</text>
</a>
</g>
</g>
<!-- Node1&#45;&gt;Node8 -->
<g id="edge8_Node000001_Node000008" class="edge">
<title>Node1&#45;&gt;Node8</title>
<g id="a_edge8_Node000001_Node000008"><a xlink:title=" ">
<path fill="none" stroke="#63b8ff" d="M224.51,-345.74C285.8,-334.85 381.32,-317.88 444.61,-306.63"/>
<polygon fill="#63b8ff" stroke="#63b8ff" points="445.02,-309.94 454.25,-304.74 443.8,-303.05 445.02,-309.94"/>
</a>
</g>
</g>
<!-- Node12 -->
<g id="Node000012" class="node">
<title>Node12</title>
<g id="a_Node000012"><a xlink:href="sqsh__thread__private_8h.html" target="_top" xlink:title=" ">
<polygon fill="white" stroke="#666666" points="476.38,-134.25 352.38,-134.25 352.38,-113.5 476.38,-113.5 476.38,-134.25"/>
<text text-anchor="middle" x="414.38" y="-120.75" font-family="Helvetica,sans-Serif" font-size="10.00">sqsh_thread_private.h</text>
</a>
</g>
</g>
<!-- Node1&#45;&gt;Node12 -->
<g id="edge29_Node000001_Node000012" class="edge">
<title>Node1&#45;&gt;Node12</title>
<g id="a_edge29_Node000001_Node000012"><a xlink:title=" ">
<path fill="none" stroke="#63b8ff" d="M162.67,-340.11C159.19,-313.67 156.24,-260.72 181.38,-227 219.42,-175.95 288.49,-150.01 341.58,-137.09"/>
<polygon fill="#63b8ff" stroke="#63b8ff" points="342.03,-140.35 350.98,-134.68 340.44,-133.53 342.03,-140.35"/>
</a>
</g>
</g>
<!-- Node19 -->
<g id="Node000019" class="node">
<title>Node19</title>
<g id="a_Node000019"><a xlink:href="sqsh__xattr__private_8h.html" target="_top" xlink:title=" ">
<polygon fill="white" stroke="#666666" points="398.25,-304.5 282.5,-304.5 282.5,-283.75 398.25,-283.75 398.25,-304.5"/>
<text text-anchor="middle" x="340.38" y="-291" font-family="Helvetica,sans-Serif" font-size="10.00">sqsh_xattr_private.h</text>
</a>
</g>
</g>
<!-- Node1&#45;&gt;Node19 -->
<g id="edge30_Node000001_Node000019" class="edge">
<title>Node1&#45;&gt;Node19</title>
<g id="a_edge30_Node000001_Node000019"><a xlink:title=" ">
<path fill="none" stroke="#63b8ff" d="M211.81,-340.03C240.06,-330.16 275.69,-317.72 302.28,-308.43"/>
<polygon fill="#63b8ff" stroke="#63b8ff" points="303.06,-311.52 311.35,-304.92 300.75,-304.91 303.06,-311.52"/>
</a>
</g>
</g>
<!-- Node3 -->
<g id="Node000003" class="node">
<title>Node3</title>
<g id="a_Node000003"><a xlink:href="sqsh__common_8h.html" target="_top" xlink:title=" ">
<polygon fill="white" stroke="#666666" points="310.12,-77.5 214.62,-77.5 214.62,-56.75 310.12,-56.75 310.12,-77.5"/>
<text text-anchor="middle" x="262.38" y="-64" font-family="Helvetica,sans-Serif" font-size="10.00">sqsh_common.h</text>
</a>
</g>
</g>
<!-- Node2&#45;&gt;Node3 -->
<g id="edge2_Node000002_Node000003" class="edge">
<title>Node2&#45;&gt;Node3</title>
<g id="a_edge2_Node000002_Node000003"><a xlink:title=" ">
<path fill="none" stroke="#63b8ff" d="M50.66,-169.99C60.56,-155.56 81.19,-128.44 105.38,-113.5 135.17,-95.09 172.74,-83.88 203.65,-77.21"/>
<polygon fill="#63b8ff" stroke="#63b8ff" points="204.19,-80.47 213.29,-75.04 202.79,-73.61 204.19,-80.47"/>
</a>
</g>
</g>
<!-- Node4 -->
<g id="Node000004" class="node">
<title>Node4</title>
<g id="a_Node000004"><a xlink:title=" ">
<polygon fill="#e0e0e0" stroke="#999999" points="216.88,-20.75 155.88,-20.75 155.88,0 216.88,0 216.88,-20.75"/>
<text text-anchor="middle" x="186.38" y="-7.25" font-family="Helvetica,sans-Serif" font-size="10.00">stdbool.h</text>
</a>
</g>
</g>
<!-- Node3&#45;&gt;Node4 -->
<g id="edge3_Node000003_Node000004" class="edge">
<title>Node3&#45;&gt;Node4</title>
<g id="a_edge3_Node000003_Node000004"><a xlink:title=" ">
<path fill="none" stroke="#63b8ff" d="M248.79,-56.34C237.66,-48.32 221.68,-36.81 208.67,-27.44"/>
<polygon fill="#63b8ff" stroke="#63b8ff" points="211,-24.08 200.84,-21.08 206.91,-29.76 211,-24.08"/>
</a>
</g>
</g>
<!-- Node5 -->
<g id="Node000005" class="node">
<title>Node5</title>
<g id="a_Node000005"><a xlink:title=" ">
<polygon fill="#e0e0e0" stroke="#999999" points="289.88,-20.75 234.88,-20.75 234.88,0 289.88,0 289.88,-20.75"/>
<text text-anchor="middle" x="262.38" y="-7.25" font-family="Helvetica,sans-Serif" font-size="10.00">stddef.h</text>
</a>
</g>
</g>
<!-- Node3&#45;&gt;Node5 -->
<g id="edge4_Node000003_Node000005" class="edge">
<title>Node3&#45;&gt;Node5</title>
<g id="a_edge4_Node000003_Node000005"><a xlink:title=" ">
<path fill="none" stroke="#63b8ff" d="M262.38,-56.34C262.38,-49.56 262.38,-40.3 262.38,-31.94"/>
<polygon fill="#63b8ff" stroke="#63b8ff" points="265.88,-32.08 262.38,-22.08 258.88,-32.08 265.88,-32.08"/>
</a>
</g>
</g>
<!-- Node6 -->
<g id="Node000006" class="node">
<title>Node6</title>
<g id="a_Node000006"><a xlink:title=" ">
<polygon fill="#e0e0e0" stroke="#999999" points="360.75,-20.75 308,-20.75 308,0 360.75,0 360.75,-20.75"/>
<text text-anchor="middle" x="334.38" y="-7.25" font-family="Helvetica,sans-Serif" font-size="10.00">stdint.h</text>
</a>
</g>
</g>
<!-- Node3&#45;&gt;Node6 -->
<g id="edge5_Node000003_Node000006" class="edge">
<title>Node3&#45;&gt;Node6</title>
<g id="a_edge5_Node000003_Node000006"><a xlink:title=" ">
<path fill="none" stroke="#63b8ff" d="M275.25,-56.34C285.69,-48.4 300.64,-37.03 312.89,-27.71"/>
<polygon fill="#63b8ff" stroke="#63b8ff" points="314.77,-29.92 320.61,-21.08 310.54,-24.35 314.77,-29.92"/>
</a>
</g>
</g>
<!-- Node7&#45;&gt;Node3 -->
<g id="edge7_Node000007_Node000003" class="edge">
<title>Node7&#45;&gt;Node3</title>
<g id="a_edge7_Node000007_Node000003"><a xlink:title=" ">
<path fill="none" stroke="#63b8ff" d="M101.64,-283.48C107.05,-261.78 122.27,-208.04 148.38,-170.25 173.28,-134.19 213.41,-102.21 238.82,-84.01"/>
<polygon fill="#63b8ff" stroke="#63b8ff" points="240.59,-86.34 246.77,-77.74 236.57,-80.61 240.59,-86.34"/>
</a>
</g>
</g>
<!-- Node9 -->
<g id="Node000009" class="node">
<title>Node9</title>
<g id="a_Node000009"><a xlink:href="sqsh__file_8h.html" target="_top" xlink:title=" ">
<polygon fill="white" stroke="#666666" points="296.25,-134.25 228.5,-134.25 228.5,-113.5 296.25,-113.5 296.25,-134.25"/>
<text text-anchor="middle" x="262.38" y="-120.75" font-family="Helvetica,sans-Serif" font-size="10.00">sqsh_file.h</text>
</a>
</g>
</g>
<!-- Node8&#45;&gt;Node9 -->
<g id="edge9_Node000008_Node000009" class="edge">
<title>Node8&#45;&gt;Node9</title>
<g id="a_edge9_Node000008_Node000009"><a xlink:title=" ">
<path fill="none" stroke="#63b8ff" d="M455.41,-286.25C405.04,-278.85 334.57,-265.69 313.38,-247.75 282.2,-221.36 269.76,-172.8 265.05,-145.29"/>
<polygon fill="#63b8ff" stroke="#63b8ff" points="268.39,-144.96 263.43,-135.6 261.46,-146.01 268.39,-144.96"/>
</a>
</g>
</g>
<!-- Node10 -->
<g id="Node000010" class="node">
<title>Node10</title>
<g id="a_Node000010"><a xlink:href="sqsh__extract__private_8h.html" target="_top" xlink:title=" ">
<polygon fill="white" stroke="#666666" points="693.88,-191 566.88,-191 566.88,-170.25 693.88,-170.25 693.88,-191"/>
<text text-anchor="middle" x="630.38" y="-177.5" font-family="Helvetica,sans-Serif" font-size="10.00">sqsh_extract_private.h</text>
</a>
</g>
</g>
<!-- Node8&#45;&gt;Node10 -->
<g id="edge11_Node000008_Node000010" class="edge">
<title>Node8&#45;&gt;Node10</title>
<g id="a_edge11_Node000008_Node000010"><a xlink:title=" ">
<path fill="none" stroke="#63b8ff" d="M563.54,-290.49C594.04,-285.9 629.84,-274.61 649.38,-247.75 659.65,-233.62 651.98,-214.05 643.52,-199.87"/>
<polygon fill="#63b8ff" stroke="#63b8ff" points="646.15,-198.5 637.75,-192.05 640.29,-202.33 646.15,-198.5"/>
</a>
</g>
</g>
<!-- Node14 -->
<g id="Node000014" class="node">
<title>Node14</title>
<g id="a_Node000014"><a xlink:href="sqsh__mapper__private_8h.html" target="_top" xlink:title=" ">
<polygon fill="white" stroke="#666666" points="548.38,-191 418.38,-191 418.38,-170.25 548.38,-170.25 548.38,-191"/>
<text text-anchor="middle" x="483.38" y="-177.5" font-family="Helvetica,sans-Serif" font-size="10.00">sqsh_mapper_private.h</text>
</a>
</g>
</g>
<!-- Node8&#45;&gt;Node14 -->
<g id="edge16_Node000008_Node000014" class="edge">
<title>Node8&#45;&gt;Node14</title>
<g id="a_edge16_Node000008_Node000014"><a xlink:title=" ">
<path fill="none" stroke="#63b8ff" d="M503.31,-283.47C498.06,-274.56 490.79,-260.79 487.38,-247.75 483.45,-232.76 482.55,-215.23 482.58,-201.98"/>
<polygon fill="#63b8ff" stroke="#63b8ff" points="486.09,-202.3 482.8,-192.22 479.09,-202.15 486.09,-202.3"/>
</a>
</g>
</g>
<!-- Node16 -->
<g id="Node000016" class="node">
<title>Node16</title>
<g id="a_Node000016"><a xlink:href="sqsh__reader__private_8h.html" target="_top" xlink:title=" ">
<polygon fill="white" stroke="#666666" points="764.38,-134.25 640.38,-134.25 640.38,-113.5 764.38,-113.5 764.38,-134.25"/>
<text text-anchor="middle" x="702.38" y="-120.75" font-family="Helvetica,sans-Serif" font-size="10.00">sqsh_reader_private.h</text>
</a>
</g>
</g>
<!-- Node8&#45;&gt;Node16 -->
<g id="edge28_Node000008_Node000016" class="edge">
<title>Node8&#45;&gt;Node16</title>
<g id="a_edge28_Node000008_Node000016"><a xlink:title=" ">
<path fill="none" stroke="#63b8ff" d="M563.31,-286.85C595.41,-280.95 635.56,-269.58 665.38,-247.75 689.87,-229.82 694.55,-220.04 703.38,-191 707.87,-176.2 707.36,-158.66 705.86,-145.36"/>
<polygon fill="#63b8ff" stroke="#63b8ff" points="709.2,-144.96 704.33,-135.55 702.27,-145.94 709.2,-144.96"/>
</a>
</g>
</g>
<!-- Node18 -->
<g id="Node000018" class="node">
<title>Node18</title>
<g id="a_Node000018"><a xlink:href="sqsh__metablock__private_8h.html" target="_top" xlink:title=" ">
<polygon fill="white" stroke="#666666" points="640.5,-247.75 496.25,-247.75 496.25,-227 640.5,-227 640.5,-247.75"/>
<text text-anchor="middle" x="568.38" y="-234.25" font-family="Helvetica,sans-Serif" font-size="10.00">sqsh_metablock_private.h</text>
</a>
</g>
</g>
<!-- Node8&#45;&gt;Node18 -->
<g id="edge25_Node000008_Node000018" class="edge">
<title>Node8&#45;&gt;Node18</title>
<g id="a_edge25_Node000008_Node000018"><a xlink:title=" ">
<path fill="none" stroke="#63b8ff" d="M519.92,-283.34C528.23,-275.63 540.01,-264.7 549.88,-255.54"/>
<polygon fill="#63b8ff" stroke="#63b8ff" points="551.97,-258.45 556.92,-249.08 547.21,-253.32 551.97,-258.45"/>
</a>
</g>
</g>
<!-- Node9&#45;&gt;Node3 -->
<g id="edge10_Node000009_Node000003" class="edge">
<title>Node9&#45;&gt;Node3</title>
<g id="a_edge10_Node000009_Node000003"><a xlink:title=" ">
<path fill="none" stroke="#63b8ff" d="M262.38,-113.09C262.38,-106.31 262.38,-97.05 262.38,-88.69"/>
<polygon fill="#63b8ff" stroke="#63b8ff" points="265.88,-88.83 262.38,-78.83 258.88,-88.83 265.88,-88.83"/>
</a>
</g>
</g>
<!-- Node11 -->
<g id="Node000011" class="node">
<title>Node11</title>
<g id="a_Node000011"><a xlink:title=" ">
<polygon fill="#e0e0e0" stroke="#999999" points="848,-77.5 736.75,-77.5 736.75,-56.75 848,-56.75 848,-77.5"/>
<text text-anchor="middle" x="792.38" y="-64" font-family="Helvetica,sans-Serif" font-size="10.00">cextras/collection.h</text>
</a>
</g>
</g>
<!-- Node10&#45;&gt;Node11 -->
<g id="edge12_Node000010_Node000011" class="edge">
<title>Node10&#45;&gt;Node11</title>
<g id="a_edge12_Node000010_Node000011"><a xlink:title=" ">
<path fill="none" stroke="#63b8ff" d="M693.97,-171.48C738.51,-164.32 792.46,-152.21 806.38,-134.25 816.79,-120.81 810.93,-101.41 803.89,-87.1"/>
<polygon fill="#63b8ff" stroke="#63b8ff" points="806.64,-85.83 798.76,-78.73 800.49,-89.19 806.64,-85.83"/>
</a>
</g>
</g>
<!-- Node10&#45;&gt;Node12 -->
<g id="edge13_Node000010_Node000012" class="edge">
<title>Node10&#45;&gt;Node12</title>
<g id="a_edge13_Node000010_Node000012"><a xlink:title=" ">
<path fill="none" stroke="#63b8ff" d="M591.76,-169.84C555.93,-160.76 502.44,-147.2 463.57,-137.34"/>
<polygon fill="#63b8ff" stroke="#63b8ff" points="464.57,-133.73 454.02,-134.67 462.85,-140.52 464.57,-133.73"/>
</a>
</g>
</g>
<!-- Node12&#45;&gt;Node3 -->
<g id="edge15_Node000012_Node000003" class="edge">
<title>Node12&#45;&gt;Node3</title>
<g id="a_edge15_Node000012_Node000003"><a xlink:title=" ">
<path fill="none" stroke="#63b8ff" d="M387.2,-113.09C362.85,-104.32 326.91,-91.37 299.83,-81.62"/>
<polygon fill="#63b8ff" stroke="#63b8ff" points="301.16,-78.02 290.57,-77.92 298.79,-84.6 301.16,-78.02"/>
</a>
</g>
</g>
<!-- Node13 -->
<g id="Node000013" class="node">
<title>Node13</title>
<g id="a_Node000013"><a xlink:title=" ">
<polygon fill="#e0e0e0" stroke="#999999" points="445.62,-77.5 383.12,-77.5 383.12,-56.75 445.62,-56.75 445.62,-77.5"/>
<text text-anchor="middle" x="414.38" y="-64" font-family="Helvetica,sans-Serif" font-size="10.00">pthread.h</text>
</a>
</g>
</g>
<!-- Node12&#45;&gt;Node13 -->
<g id="edge14_Node000012_Node000013" class="edge">
<title>Node12&#45;&gt;Node13</title>
<g id="a_edge14_Node000012_Node000013"><a xlink:title=" ">
<path fill="none" stroke="#63b8ff" d="M414.38,-113.09C414.38,-106.31 414.38,-97.05 414.38,-88.69"/>
<polygon fill="#63b8ff" stroke="#63b8ff" points="417.88,-88.83 414.38,-78.83 410.88,-88.83 417.88,-88.83"/>
</a>
</g>
</g>
<!-- Node14&#45;&gt;Node11 -->
<g id="edge23_Node000014_Node000011" class="edge">
<title>Node14&#45;&gt;Node11</title>
<g id="a_edge23_Node000014_Node000011"><a xlink:title=" ">
<path fill="none" stroke="#63b8ff" d="M548.53,-171.23C631.43,-160.28 764.98,-141.66 773.38,-134.25 786.24,-122.9 790.65,-103.47 792.04,-88.61"/>
<polygon fill="#63b8ff" stroke="#63b8ff" points="795.57,-89.07 792.62,-78.9 788.58,-88.7 795.57,-89.07"/>
</a>
</g>
</g>
<!-- Node14&#45;&gt;Node12 -->
<g id="edge22_Node000014_Node000012" class="edge">
<title>Node14&#45;&gt;Node12</title>
<g id="a_edge22_Node000014_Node000012"><a xlink:title=" ">
<path fill="none" stroke="#63b8ff" d="M471.04,-169.84C461.03,-161.9 446.71,-150.53 434.97,-141.21"/>
<polygon fill="#63b8ff" stroke="#63b8ff" points="437.61,-138.05 427.6,-134.58 433.26,-143.54 437.61,-138.05"/>
</a>
</g>
</g>
<!-- Node15 -->
<g id="Node000015" class="node">
<title>Node15</title>
<g id="a_Node000015"><a xlink:href="sqsh__mapper_8h.html" target="_top" xlink:title=" ">
<polygon fill="white" stroke="#666666" points="584.12,-134.25 494.62,-134.25 494.62,-113.5 584.12,-113.5 584.12,-134.25"/>
<text text-anchor="middle" x="539.38" y="-120.75" font-family="Helvetica,sans-Serif" font-size="10.00">sqsh_mapper.h</text>
</a>
</g>
</g>
<!-- Node14&#45;&gt;Node15 -->
<g id="edge17_Node000014_Node000015" class="edge">
<title>Node14&#45;&gt;Node15</title>
<g id="a_edge17_Node000014_Node000015"><a xlink:title=" ">
<path fill="none" stroke="#63b8ff" d="M493.39,-169.84C501.27,-162.13 512.45,-151.2 521.82,-142.04"/>
<polygon fill="#63b8ff" stroke="#63b8ff" points="523.75,-145.07 528.45,-135.58 518.85,-140.07 523.75,-145.07"/>
</a>
</g>
</g>
<!-- Node14&#45;&gt;Node16 -->
<g id="edge18_Node000014_Node000016" class="edge">
<title>Node14&#45;&gt;Node16</title>
<g id="a_edge18_Node000014_Node000016"><a xlink:title=" ">
<path fill="none" stroke="#63b8ff" d="M522.78,-169.77C559.03,-160.71 612.95,-147.23 652.25,-137.41"/>
<polygon fill="#63b8ff" stroke="#63b8ff" points="653.06,-140.56 661.92,-134.74 651.37,-133.77 653.06,-140.56"/>
</a>
</g>
</g>
<!-- Node17 -->
<g id="Node000017" class="node">
<title>Node17</title>
<g id="a_Node000017"><a xlink:title=" ">
<polygon fill="#e0e0e0" stroke="#999999" points="682.12,-77.5 616.62,-77.5 616.62,-56.75 682.12,-56.75 682.12,-77.5"/>
<text text-anchor="middle" x="649.38" y="-64" font-family="Helvetica,sans-Serif" font-size="10.00">sys/wait.h</text>
</a>
</g>
</g>
<!-- Node14&#45;&gt;Node17 -->
<g id="edge24_Node000014_Node000017" class="edge">
<title>Node14&#45;&gt;Node17</title>
<g id="a_edge24_Node000014_Node000017"><a xlink:title=" ">
<path fill="none" stroke="#63b8ff" d="M518.76,-169.8C541.48,-162.39 570.83,-150.67 593.38,-134.25 611.16,-121.29 626.9,-101.56 637.13,-87.02"/>
<polygon fill="#63b8ff" stroke="#63b8ff" points="640.57,-89.17 643.29,-78.93 634.78,-85.25 640.57,-89.17"/>
</a>
</g>
</g>
<!-- Node16&#45;&gt;Node3 -->
<g id="edge19_Node000016_Node000003" class="edge">
<title>Node16&#45;&gt;Node3</title>
<g id="a_edge19_Node000016_Node000003"><a xlink:title=" ">
<path fill="none" stroke="#63b8ff" d="M640.27,-115.15C555.36,-104.58 404.15,-85.77 321.07,-75.43"/>
<polygon fill="#63b8ff" stroke="#63b8ff" points="321.66,-71.85 311.3,-74.09 320.8,-78.8 321.66,-71.85"/>
</a>
</g>
</g>
<!-- Node16&#45;&gt;Node11 -->
<g id="edge20_Node000016_Node000011" class="edge">
<title>Node16&#45;&gt;Node11</title>
<g id="a_edge20_Node000016_Node000011"><a xlink:title=" ">
<path fill="none" stroke="#63b8ff" d="M718.47,-113.09C732.03,-104.83 751.68,-92.88 767.3,-83.38"/>
<polygon fill="#63b8ff" stroke="#63b8ff" points="768.7,-86.02 775.42,-77.83 765.06,-80.04 768.7,-86.02"/>
</a>
</g>
</g>
<!-- Node16&#45;&gt;Node17 -->
<g id="edge21_Node000016_Node000017" class="edge">
<title>Node16&#45;&gt;Node17</title>
<g id="a_edge21_Node000016_Node000017"><a xlink:title=" ">
<path fill="none" stroke="#63b8ff" d="M692.9,-113.09C685.51,-105.46 675.07,-94.67 666.26,-85.57"/>
<polygon fill="#63b8ff" stroke="#63b8ff" points="669.24,-83.58 659.77,-78.83 664.21,-88.45 669.24,-83.58"/>
</a>
</g>
</g>
<!-- Node18&#45;&gt;Node10 -->
<g id="edge26_Node000018_Node000010" class="edge">
<title>Node18&#45;&gt;Node10</title>
<g id="a_edge26_Node000018_Node000010"><a xlink:title=" ">
<path fill="none" stroke="#63b8ff" d="M579.46,-226.59C588.28,-218.8 600.82,-207.72 611.25,-198.51"/>
<polygon fill="#63b8ff" stroke="#63b8ff" points="613.21,-201.57 618.39,-192.33 608.57,-196.32 613.21,-201.57"/>
</a>
</g>
</g>
<!-- Node18&#45;&gt;Node14 -->
<g id="edge27_Node000018_Node000014" class="edge">
<title>Node18&#45;&gt;Node14</title>
<g id="a_edge27_Node000018_Node000014"><a xlink:title=" ">
<path fill="none" stroke="#63b8ff" d="M553.18,-226.59C540.49,-218.41 522.16,-206.61 507.47,-197.15"/>
<polygon fill="#63b8ff" stroke="#63b8ff" points="509.74,-193.8 499.44,-191.33 505.95,-199.69 509.74,-193.8"/>
</a>
</g>
</g>
<!-- Node19&#45;&gt;Node18 -->
<g id="edge31_Node000019_Node000018" class="edge">
<title>Node19&#45;&gt;Node18</title>
<g id="a_edge31_Node000019_Node000018"><a xlink:title=" ">
<path fill="none" stroke="#63b8ff" d="M381.4,-283.27C419.3,-274.17 475.75,-260.62 516.71,-250.78"/>
<polygon fill="#63b8ff" stroke="#63b8ff" points="517.39,-253.98 526.3,-248.24 515.75,-247.17 517.39,-253.98"/>
</a>
</g>
</g>
<!-- Node20 -->
<g id="Node000020" class="node">
<title>Node20</title>
<g id="a_Node000020"><a xlink:href="sqsh__table__private_8h.html" target="_top" xlink:title=" ">
<polygon fill="white" stroke="#666666" points="440,-247.75 322.75,-247.75 322.75,-227 440,-227 440,-247.75"/>
<text text-anchor="middle" x="381.38" y="-234.25" font-family="Helvetica,sans-Serif" font-size="10.00">sqsh_table_private.h</text>
</a>
</g>
</g>
<!-- Node19&#45;&gt;Node20 -->
<g id="edge32_Node000019_Node000020" class="edge">
<title>Node19&#45;&gt;Node20</title>
<g id="a_edge32_Node000019_Node000020"><a xlink:title=" ">
<path fill="none" stroke="#63b8ff" d="M347.7,-283.34C353.24,-275.94 361.01,-265.57 367.68,-256.66"/>
<polygon fill="#63b8ff" stroke="#63b8ff" points="370.92,-259.18 374.11,-249.08 365.31,-254.98 370.92,-259.18"/>
</a>
</g>
</g>
<!-- Node22 -->
<g id="Node000022" class="node">
<title>Node22</title>
<g id="a_Node000022"><a xlink:href="sqsh__xattr_8h.html" target="_top" xlink:title=" ">
<polygon fill="white" stroke="#666666" points="266,-247.75 190.75,-247.75 190.75,-227 266,-227 266,-247.75"/>
<text text-anchor="middle" x="228.38" y="-234.25" font-family="Helvetica,sans-Serif" font-size="10.00">sqsh_xattr.h</text>
</a>
</g>
</g>
<!-- Node19&#45;&gt;Node22 -->
<g id="edge37_Node000019_Node000022" class="edge">
<title>Node19&#45;&gt;Node22</title>
<g id="a_edge37_Node000019_Node000022"><a xlink:title=" ">
<path fill="none" stroke="#63b8ff" d="M320.35,-283.34C302.99,-274.85 277.63,-262.45 257.94,-252.83"/>
<polygon fill="#63b8ff" stroke="#63b8ff" points="259.75,-249.33 249.23,-248.08 256.67,-255.61 259.75,-249.33"/>
</a>
</g>
</g>
<!-- Node20&#45;&gt;Node10 -->
<g id="edge33_Node000020_Node000010" class="edge">
<title>Node20&#45;&gt;Node10</title>
<g id="a_edge33_Node000020_Node000010"><a xlink:title=" ">
<path fill="none" stroke="#63b8ff" d="M426.18,-226.52C467.83,-217.37 530.01,-203.69 574.81,-193.84"/>
<polygon fill="#63b8ff" stroke="#63b8ff" points="575.5,-197.06 584.51,-191.49 573.99,-190.22 575.5,-197.06"/>
</a>
</g>
</g>
<!-- Node20&#45;&gt;Node14 -->
<g id="edge34_Node000020_Node000014" class="edge">
<title>Node20&#45;&gt;Node14</title>
<g id="a_edge34_Node000020_Node000014"><a xlink:title=" ">
<path fill="none" stroke="#63b8ff" d="M399.61,-226.59C415.2,-218.22 437.88,-206.04 455.71,-196.47"/>
<polygon fill="#63b8ff" stroke="#63b8ff" points="457.14,-199.14 464.3,-191.33 453.83,-192.97 457.14,-199.14"/>
</a>
</g>
</g>
<!-- Node21 -->
<g id="Node000021" class="node">
<title>Node21</title>
<g id="a_Node000021"><a xlink:href="sqsh__table_8h.html" target="_top" xlink:title=" ">
<polygon fill="white" stroke="#666666" points="400.12,-191 322.62,-191 322.62,-170.25 400.12,-170.25 400.12,-191"/>
<text text-anchor="middle" x="361.38" y="-177.5" font-family="Helvetica,sans-Serif" font-size="10.00">sqsh_table.h</text>
</a>
</g>
</g>
<!-- Node20&#45;&gt;Node21 -->
<g id="edge35_Node000020_Node000021" class="edge">
<title>Node20&#45;&gt;Node21</title>
<g id="a_edge35_Node000020_Node000021"><a xlink:title=" ">
<path fill="none" stroke="#63b8ff" d="M377.8,-226.59C375.27,-219.66 371.78,-210.12 368.68,-201.61"/>
<polygon fill="#63b8ff" stroke="#63b8ff" points="371.64,-200.52 364.92,-192.33 365.06,-202.92 371.64,-200.52"/>
</a>
</g>
</g>
<!-- Node21&#45;&gt;Node3 -->
<g id="edge36_Node000021_Node000003" class="edge">
<title>Node21&#45;&gt;Node3</title>
<g id="a_edge36_Node000021_Node000003"><a xlink:title=" ">
<path fill="none" stroke="#63b8ff" d="M353.56,-170.07C342.89,-157.08 323.04,-133.22 305.38,-113.5 296.99,-104.14 287.39,-93.97 279.4,-85.63"/>
<polygon fill="#63b8ff" stroke="#63b8ff" points="282.22,-83.48 272.76,-78.71 277.19,-88.34 282.22,-83.48"/>
</a>
</g>
</g>
<!-- Node22&#45;&gt;Node3 -->
<g id="edge38_Node000022_Node000003" class="edge">
<title>Node22&#45;&gt;Node3</title>
<g id="a_edge38_Node000022_Node000003"><a xlink:title=" ">
<path fill="none" stroke="#63b8ff" d="M224.89,-226.69C217.8,-205.36 203.62,-153.04 219.38,-113.5 223.73,-102.58 232.1,-92.77 240.31,-85.09"/>
<polygon fill="#63b8ff" stroke="#63b8ff" points="242.35,-87.09 247.63,-77.91 237.77,-81.79 242.35,-87.09"/>
</a>
</g>
</g>
</g>
</svg>
