<?xml version="1.0" encoding="UTF-8" standalone="no"?>
<!DOCTYPE svg PUBLIC "-//W3C//DTD SVG 1.1//EN"
 "http://www.w3.org/Graphics/SVG/1.1/DTD/svg11.dtd">
<!-- Generated by graphviz version 8.0.5 (20230430.1635)
 -->
<!-- Title: include/sqsh_mapper_private.h Pages: 1 -->
<svg width="633pt" height="1462231pt"
 viewBox="0.00 0.00 633.20 1462230.71" xmlns="http://www.w3.org/2000/svg" xmlns:xlink="http://www.w3.org/1999/xlink">
<g id="graph0" class="graph" transform="scale(1 1) rotate(0) translate(4 1462226.71)">
<title>include/sqsh_mapper_private.h</title>
<!-- Node1 -->
<g id="node1" class="node">
<title>Node1</title>
<g id="a_node1"><a xlink:title=" ">
<polygon fill="#999999" stroke="#666666" points="428.95,-1462222.71 270.45,-1462222.71 270.45,-1462193.71 428.95,-1462193.71 428.95,-1462222.71"/>
<text text-anchor="start" x="278.45" y="-1462209.21" font-family="Helvetica,sans-Serif" font-size="10.00">include/sqsh_mapper</text>
<text text-anchor="middle" x="349.7" y="-1462198.71" font-family="Helvetica,sans-Serif" font-size="10.00">_private.h</text>
</a>
</g>
</g>
<!-- Node2 -->
<g id="node2" class="node">
<title>Node2</title>
<g id="a_node2"><a xlink:href="sqsh__mapper_8h.html" target="_top" xlink:title=" ">
<polygon fill="white" stroke="#666666" points="129.45,-1462145.72 15.95,-1462145.72 15.95,-1462127.22 129.45,-1462127.22 129.45,-1462145.72"/>
<text text-anchor="middle" x="72.7" y="-1462132.22" font-family="Helvetica,sans-Serif" font-size="10.00">sqsh_mapper.h</text>
</a>
</g>
</g>
<!-- Node1&#45;&gt;Node2 -->
<g id="edge1" class="edge">
<title>Node1&#45;&gt;Node2</title>
<path fill="none" stroke="#63b8ff" d="M285.24,-1462193.26C243.32,-1462183.9 187.55,-1462170.91 138.7,-1462157.71 129.29,-1462155.16 119.19,-1462152.19 109.79,-1462149.32"/>
<polygon fill="#63b8ff" stroke="#63b8ff" points="111.14,-1462145.77 100.56,-1462146.15 109.07,-1462152.45 111.14,-1462145.77"/>
</g>
<!-- Node3 -->
<g id="node3" class="node">
<title>Node3</title>
<g id="a_node3"><a xlink:href="sqsh__reader__private_8h.html" target="_top" xlink:title=" ">
<polygon fill="white" stroke="#666666" points="551.45,-1462157.71 377.95,-1462157.71 377.95,-1462115.24 551.45,-1462115.24 551.45,-1462157.71"/>
<text text-anchor="middle" x="464.7" y="-1462144.21" font-family="Helvetica,sans-Serif" font-size="10.00">sqsh_reader_private.h</text>
</a>
</g>
</g>
<!-- Node1&#45;&gt;Node3 -->
<g id="edge2" class="edge">
<title>Node1&#45;&gt;Node3</title>
<path fill="none" stroke="#63b8ff" d="M372.7,-1462193.26C386.74,-1462184.75 405.15,-1462173.58 421.81,-1462163.48"/>
<polygon fill="#63b8ff" stroke="#63b8ff" points="423.11,-1462166.18 429.84,-1462158.01 419.48,-1462160.2 423.11,-1462166.18"/>
</g>
<!-- Node8 -->
<g id="node8" class="node">
<title>Node8</title>
<g id="a_node8"><a xlink:title=" ">
<polygon fill="#e0e0e0" stroke="#999999" points="515.7,-1462075.49 349.7,-1462075.49 349.7,-1462056.99 515.7,-1462056.99 515.7,-1462075.49"/>
<text text-anchor="middle" x="432.7" y="-1462061.99" font-family="Helvetica,sans-Serif" font-size="10.00">cextras/collection.h</text>
</a>
</g>
</g>
<!-- Node1&#45;&gt;Node8 -->
<g id="edge12" class="edge">
<title>Node1&#45;&gt;Node8</title>
<path fill="none" stroke="#63b8ff" d="M349.59,-1462193.3C350.07,-1462174.24 353.24,-1462139.61 368.7,-1462115.24 377.74,-1462100.99 392.62,-1462089.46 405.76,-1462081.27"/>
<polygon fill="#63b8ff" stroke="#63b8ff" points="407.05,-1462083.98 413.9,-1462075.91 403.51,-1462077.94 407.05,-1462083.98"/>
</g>
<!-- Node9 -->
<g id="node9" class="node">
<title>Node9</title>
<g id="a_node9"><a xlink:title=" ">
<polygon fill="#e0e0e0" stroke="#999999" points="625.2,-1462075.49 534.2,-1462075.49 534.2,-1462056.99 625.2,-1462056.99 625.2,-1462075.49"/>
<text text-anchor="middle" x="579.7" y="-1462061.99" font-family="Helvetica,sans-Serif" font-size="10.00">sys/wait.h</text>
</a>
</g>
</g>
<!-- Node1&#45;&gt;Node9 -->
<g id="edge13" class="edge">
<title>Node1&#45;&gt;Node9</title>
<path fill="none" stroke="#63b8ff" d="M429.35,-1462197.49C481.14,-1462189.54 542.33,-1462176.52 560.7,-1462157.71 579.08,-1462138.89 581.71,-1462107.08 581.23,-1462086.63"/>
<polygon fill="#63b8ff" stroke="#63b8ff" points="584.68,-1462086.64 580.66,-1462076.84 577.69,-1462087.01 584.68,-1462086.64"/>
</g>
<!-- Node10 -->
<g id="node10" class="node">
<title>Node10</title>
<g id="a_node10"><a xlink:href="sqsh__thread__private_8h.html" target="_top" xlink:title=" ">
<polygon fill="white" stroke="#666666" points="321.45,-1462145.72 147.95,-1462145.72 147.95,-1462127.22 321.45,-1462127.22 321.45,-1462145.72"/>
<text text-anchor="middle" x="234.7" y="-1462132.22" font-family="Helvetica,sans-Serif" font-size="10.00">sqsh_thread_private.h</text>
</a>
</g>
</g>
<!-- Node1&#45;&gt;Node10 -->
<g id="edge9" class="edge">
<title>Node1&#45;&gt;Node10</title>
<path fill="none" stroke="#63b8ff" d="M326.7,-1462193.26C306.85,-1462181.23 278.3,-1462163.91 258.28,-1462151.77"/>
<polygon fill="#63b8ff" stroke="#63b8ff" points="260.31,-1462148.31 249.95,-1462146.11 256.68,-1462154.29 260.31,-1462148.31"/>
</g>
<!-- Node4 -->
<g id="node4" class="node">
<title>Node4</title>
<g id="a_node4"><a xlink:href="sqsh__common_8h.html" target="_top" xlink:title=" ">
<polygon fill="white" stroke="#666666" points="331.45,-1462079.24 217.95,-1462079.24 217.95,-1462053.24 331.45,-1462053.24 331.45,-1462079.24"/>
<text text-anchor="middle" x="274.7" y="-1462065.74" font-family="Helvetica,sans-Serif" font-size="10.00">sqsh_common.h</text>
</a>
</g>
</g>
<!-- Node3&#45;&gt;Node4 -->
<g id="edge3" class="edge">
<title>Node3&#45;&gt;Node4</title>
<path fill="none" stroke="#63b8ff" d="M407.18,-1462114.82C379.02,-1462104.71 345.64,-1462092.72 319.42,-1462083.3"/>
<polygon fill="#63b8ff" stroke="#63b8ff" points="320.99,-1462079.79 310.39,-1462079.7 318.62,-1462086.38 320.99,-1462079.79"/>
</g>
<!-- Node3&#45;&gt;Node8 -->
<g id="edge7" class="edge">
<title>Node3&#45;&gt;Node8</title>
<path fill="none" stroke="#63b8ff" d="M455.1,-1462115C450.75,-1462105.74 445.65,-1462094.86 441.42,-1462085.84"/>
<polygon fill="#63b8ff" stroke="#63b8ff" points="444.21,-1462084.54 436.79,-1462076.97 437.87,-1462087.51 444.21,-1462084.54"/>
</g>
<!-- Node3&#45;&gt;Node9 -->
<g id="edge8" class="edge">
<title>Node3&#45;&gt;Node9</title>
<path fill="none" stroke="#63b8ff" d="M499.52,-1462114.82C517.69,-1462104.03 539.47,-1462091.11 555.74,-1462081.46"/>
<polygon fill="#63b8ff" stroke="#63b8ff" points="557.26,-1462084.03 564.07,-1462075.92 553.69,-1462078.01 557.26,-1462084.03"/>
</g>
<!-- Node5 -->
<g id="node5" class="node">
<title>Node5</title>
<g id="a_node5"><a xlink:title=" ">
<polygon fill="#e0e0e0" stroke="#999999" points="218.45,-731017.88 134.95,-731017.88 134.95,-730999.37 218.45,-730999.37 218.45,-731017.88"/>
<text text-anchor="middle" x="176.7" y="-731004.38" font-family="Helvetica,sans-Serif" font-size="10.00">stdbool.h</text>
</a>
</g>
</g>
<!-- Node4&#45;&gt;Node5 -->
<g id="edge4" class="edge">
<title>Node4&#45;&gt;Node5</title>
<path fill="none" stroke="#63b8ff" d="M256.87,-1462052.79C246.21,-1462044.19 233.61,-1462031.71 227.7,-1462017.24 -250.4,-1460845.73 174.15,-735365.65 176.69,-731029.14"/>
<polygon fill="#63b8ff" stroke="#63b8ff" points="180.19,-731029.23 176.69,-731019.23 173.19,-731029.22 180.19,-731029.23"/>
</g>
<!-- Node6 -->
<g id="node6" class="node">
<title>Node6</title>
<g id="a_node6"><a xlink:title=" ">
<polygon fill="#e0e0e0" stroke="#999999" points="312.7,-1462017.24 236.7,-1462017.24 236.7,0 312.7,0 312.7,-1462017.24"/>
<text text-anchor="middle" x="274.7" y="-1462003.74" font-family="Helvetica,sans-Serif" font-size="10.00">stddef.h</text>
</a>
</g>
</g>
<!-- Node4&#45;&gt;Node6 -->
<g id="edge5" class="edge">
<title>Node4&#45;&gt;Node6</title>
<path fill="none" stroke="#63b8ff" d="M274.7,-1462052.84C274.7,-1462046.89 274.7,-1462038.81 274.7,-1462028.6"/>
<polygon fill="#63b8ff" stroke="#63b8ff" points="278.2,-1462028.69 274.7,-1462018.69 271.2,-1462028.69 278.2,-1462028.69"/>
</g>
<!-- Node7 -->
<g id="node7" class="node">
<title>Node7</title>
<g id="a_node7"><a xlink:title=" ">
<polygon fill="#e0e0e0" stroke="#999999" points="406.7,-731017.87 330.7,-731017.87 330.7,-730999.37 406.7,-730999.37 406.7,-731017.87"/>
<text text-anchor="middle" x="368.7" y="-731004.37" font-family="Helvetica,sans-Serif" font-size="10.00">stdint.h</text>
</a>
</g>
</g>
<!-- Node4&#45;&gt;Node7 -->
<g id="edge6" class="edge">
<title>Node4&#45;&gt;Node7</title>
<path fill="none" stroke="#63b8ff" d="M292.53,-1462052.79C303.19,-1462044.19 315.79,-1462031.71 321.7,-1462017.24 799.79,-1460845.72 371.28,-735365.65 368.71,-731029.14"/>
<polygon fill="#63b8ff" stroke="#63b8ff" points="372.21,-731029.22 368.71,-731019.23 365.21,-731029.23 372.21,-731029.22"/>
</g>
<!-- Node10&#45;&gt;Node4 -->
<g id="edge11" class="edge">
<title>Node10&#45;&gt;Node4</title>
<path fill="none" stroke="#63b8ff" d="M239.77,-1462126.83C245.39,-1462117.23 254.69,-1462101.38 262.28,-1462088.43"/>
<polygon fill="#63b8ff" stroke="#63b8ff" points="265.62,-1462090.65 267.66,-1462080.25 259.58,-1462087.11 265.62,-1462090.65"/>
</g>
<!-- Node11 -->
<g id="node11" class="node">
<title>Node11</title>
<g id="a_node11"><a xlink:title=" ">
<polygon fill="#e0e0e0" stroke="#999999" points="199.45,-1462079.24 115.95,-1462079.24 115.95,-1462053.24 199.45,-1462053.24 199.45,-1462079.24"/>
<text text-anchor="middle" x="157.7" y="-1462065.74" font-family="Helvetica,sans-Serif" font-size="10.00">pthread.h</text>
</a>
</g>
</g>
<!-- Node10&#45;&gt;Node11 -->
<g id="edge10" class="edge">
<title>Node10&#45;&gt;Node11</title>
<path fill="none" stroke="#63b8ff" d="M224.95,-1462126.83C213.65,-1462116.82 194.68,-1462100.01 179.76,-1462086.79"/>
<polygon fill="#63b8ff" stroke="#63b8ff" points="182.34,-1462084.51 172.53,-1462080.5 177.69,-1462089.75 182.34,-1462084.51"/>
</g>
</g>
</svg>
