<?xml version="1.0" encoding="UTF-8" standalone="no"?>
<!DOCTYPE svg PUBLIC "-//W3C//DTD SVG 1.1//EN"
 "http://www.w3.org/Graphics/SVG/1.1/DTD/svg11.dtd">
<!-- Generated by graphviz version 8.1.0 (0)
 -->
<!-- Title: include/sqsh_mapper_private.h Pages: 1 -->
<svg width="359pt" height="307pt"
 viewBox="0.00 0.00 359.12 306.75" xmlns="http://www.w3.org/2000/svg" xmlns:xlink="http://www.w3.org/1999/xlink">

<svg id="main" version="1.1" xmlns="http://www.w3.org/2000/svg" xmlns:xlink="http://www.w3.org/1999/xlink" xml:space="preserve" onload="init(evt)">
<style type="text/css"><![CDATA[
.node, .edge {opacity: 0.7;}
.node.selected, .edge.selected {opacity: 1;}
.edge:hover path { stroke: red; }
.edge:hover polygon { stroke: red; fill: red; }
]]></style>
<script type="application/ecmascript" xlink:href="svg.min.js"/>
<svg id="graph" class="graph">
<g id="graph0" class="graph" transform="scale(1 1) rotate(0) translate(4 302.75)">
<title>include/sqsh_mapper_private.h</title>
<!-- Node1 -->
<g id="Node000001" class="node">
<title>Node1</title>
<g id="a_Node000001"><a xlink:title=" ">
<polygon fill="#999999" stroke="#666666" points="276.5,-298.75 157,-298.75 157,-265.25 276.5,-265.25 276.5,-298.75"/>
<text text-anchor="start" x="165" y="-285.25" font-family="Helvetica,sans-Serif" font-size="10.00">include/sqsh_mapper</text>
<text text-anchor="middle" x="216.75" y="-272.5" font-family="Helvetica,sans-Serif" font-size="10.00">_private.h</text>
</a>
</g>
</g>
<!-- Node2 -->
<g id="Node000002" class="node">
<title>Node2</title>
<g id="a_Node000002"><a xlink:href="sqsh__file__private_8h.html" target="_top" xlink:title=" ">
<polygon fill="white" stroke="#666666" points="226.62,-153.38 80.88,-153.38 80.88,-132.62 226.62,-132.62 226.62,-153.38"/>
<text text-anchor="middle" x="153.75" y="-139.88" font-family="Helvetica,sans-Serif" font-size="10.00">include/sqsh_file_private.h</text>
</a>
</g>
</g>
<!-- Node1&#45;&gt;Node2 -->
<g id="edge1_Node000001_Node000002" class="edge">
<title>Node1&#45;&gt;Node2</title>
<g id="a_edge1_Node000001_Node000002"><a xlink:title=" ">
<path fill="none" stroke="#63b8ff" d="M214.16,-254.29C211.68,-236.9 206.9,-214.12 197.75,-195.75 189.45,-179.07 174.63,-163.27 164.51,-153.61"/>
<polygon fill="#63b8ff" stroke="#63b8ff" points="210.77,-254.34 215.48,-263.83 217.71,-253.48 210.77,-254.34"/>
</a>
</g>
</g>
<!-- Node6 -->
<g id="Node000006" class="node">
<title>Node6</title>
<g id="a_Node000006"><a xlink:href="sqsh__metablock__private_8h.html" target="_top" xlink:title=" ">
<polygon fill="white" stroke="#666666" points="188.62,-229.25 54.88,-229.25 54.88,-195.75 188.62,-195.75 188.62,-229.25"/>
<text text-anchor="start" x="62.88" y="-215.75" font-family="Helvetica,sans-Serif" font-size="10.00">include/sqsh_metablock</text>
<text text-anchor="middle" x="121.75" y="-203" font-family="Helvetica,sans-Serif" font-size="10.00">_private.h</text>
</a>
</g>
</g>
<!-- Node1&#45;&gt;Node6 -->
<g id="edge6_Node000001_Node000006" class="edge">
<title>Node1&#45;&gt;Node6</title>
<g id="a_edge6_Node000001_Node000006"><a xlink:title=" ">
<path fill="none" stroke="#63b8ff" d="M185.35,-258.69C171.98,-249.19 156.67,-238.31 144.43,-229.62"/>
<polygon fill="#63b8ff" stroke="#63b8ff" points="183.06,-262.06 193.24,-265 187.11,-256.36 183.06,-262.06"/>
</a>
</g>
</g>
<!-- Node8 -->
<g id="Node000008" class="node">
<title>Node8</title>
<g id="a_Node000008"><a xlink:href="sqsh__table__private_8h.html" target="_top" xlink:title=" ">
<polygon fill="white" stroke="#666666" points="351.12,-229.25 244.38,-229.25 244.38,-195.75 351.12,-195.75 351.12,-229.25"/>
<text text-anchor="start" x="252.38" y="-215.75" font-family="Helvetica,sans-Serif" font-size="10.00">include/sqsh_table</text>
<text text-anchor="middle" x="297.75" y="-203" font-family="Helvetica,sans-Serif" font-size="10.00">_private.h</text>
</a>
</g>
</g>
<!-- Node1&#45;&gt;Node8 -->
<g id="edge11_Node000001_Node000008" class="edge">
<title>Node1&#45;&gt;Node8</title>
<g id="a_edge11_Node000001_Node000008"><a xlink:title=" ">
<path fill="none" stroke="#63b8ff" d="M244.18,-258.14C255.43,-248.77 268.17,-238.15 278.41,-229.62"/>
<polygon fill="#63b8ff" stroke="#63b8ff" points="242.39,-255.91 236.95,-265 246.87,-261.29 242.39,-255.91"/>
</a>
</g>
</g>
<!-- Node3 -->
<g id="Node000003" class="node">
<title>Node3</title>
<g id="a_Node000003"><a xlink:href="sqsh__archive__private_8h.html" target="_top" xlink:title=" ">
<polygon fill="white" stroke="#666666" points="327.75,-90.25 209.75,-90.25 209.75,-56.75 327.75,-56.75 327.75,-90.25"/>
<text text-anchor="start" x="217.75" y="-76.75" font-family="Helvetica,sans-Serif" font-size="10.00">include/sqsh_archive</text>
<text text-anchor="middle" x="268.75" y="-64" font-family="Helvetica,sans-Serif" font-size="10.00">_private.h</text>
</a>
</g>
</g>
<!-- Node2&#45;&gt;Node3 -->
<g id="edge2_Node000002_Node000003" class="edge">
<title>Node2&#45;&gt;Node3</title>
<g id="a_edge2_Node000002_Node000003"><a xlink:title=" ">
<path fill="none" stroke="#63b8ff" d="M179.69,-126.77C198.02,-116.02 222.53,-101.63 241.2,-90.67"/>
<polygon fill="#63b8ff" stroke="#63b8ff" points="178.08,-124.25 171.23,-132.33 181.62,-130.29 178.08,-124.25"/>
</a>
</g>
</g>
<!-- Node4 -->
<g id="Node000004" class="node">
<title>Node4</title>
<g id="a_Node000004"><a xlink:href="sqsh__directory__private_8h.html" target="_top" xlink:title=" ">
<polygon fill="white" stroke="#666666" points="125.5,-90.25 0,-90.25 0,-56.75 125.5,-56.75 125.5,-90.25"/>
<text text-anchor="start" x="8" y="-76.75" font-family="Helvetica,sans-Serif" font-size="10.00">include/sqsh_directory</text>
<text text-anchor="middle" x="62.75" y="-64" font-family="Helvetica,sans-Serif" font-size="10.00">_private.h</text>
</a>
</g>
</g>
<!-- Node2&#45;&gt;Node4 -->
<g id="edge3_Node000002_Node000004" class="edge">
<title>Node2&#45;&gt;Node4</title>
<g id="a_edge3_Node000002_Node000004"><a xlink:title=" ">
<path fill="none" stroke="#63b8ff" d="M132,-125.87C117.65,-115.22 98.91,-101.32 84.55,-90.67"/>
<polygon fill="#63b8ff" stroke="#63b8ff" points="129.6,-129.18 139.71,-132.33 133.77,-123.56 129.6,-129.18"/>
</a>
</g>
</g>
<!-- Node5 -->
<g id="Node000005" class="node">
<title>Node5</title>
<g id="a_Node000005"><a xlink:href="sqsh__tree__private_8h.html" target="_top" xlink:title=" ">
<polygon fill="white" stroke="#666666" points="182.88,-20.75 32.62,-20.75 32.62,0 182.88,0 182.88,-20.75"/>
<text text-anchor="middle" x="107.75" y="-7.25" font-family="Helvetica,sans-Serif" font-size="10.00">include/sqsh_tree_private.h</text>
</a>
</g>
</g>
<!-- Node2&#45;&gt;Node5 -->
<g id="edge5_Node000002_Node000005" class="edge">
<title>Node2&#45;&gt;Node5</title>
<g id="a_edge5_Node000002_Node000005"><a xlink:title=" ">
<path fill="none" stroke="#63b8ff" d="M151.05,-121.52C148.3,-103.91 143.21,-78.05 134.75,-56.75 129.54,-43.63 120.83,-29.87 114.71,-21"/>
<polygon fill="#63b8ff" stroke="#63b8ff" points="147.71,-121.85 152.6,-131.24 154.64,-120.85 147.71,-121.85"/>
</a>
</g>
</g>
<!-- Node4&#45;&gt;Node5 -->
<g id="edge4_Node000004_Node000005" class="edge">
<title>Node4&#45;&gt;Node5</title>
<g id="a_edge4_Node000004_Node000005"><a xlink:title=" ">
<path fill="none" stroke="#63b8ff" d="M80.9,-47.85C87.77,-38.51 95.2,-28.42 100.5,-21.22"/>
<polygon fill="#63b8ff" stroke="#63b8ff" points="77.68,-45.31 74.57,-55.44 83.32,-49.46 77.68,-45.31"/>
</a>
</g>
</g>
<!-- Node6&#45;&gt;Node2 -->
<g id="edge8_Node000006_Node000002" class="edge">
<title>Node6&#45;&gt;Node2</title>
<g id="a_edge8_Node000006_Node000002"><a xlink:title=" ">
<path fill="none" stroke="#63b8ff" d="M133.96,-185.75C139.25,-174.59 145.13,-162.19 149.09,-153.82"/>
<polygon fill="#63b8ff" stroke="#63b8ff" points="130.45,-183.97 129.33,-194.5 136.78,-186.97 130.45,-183.97"/>
</a>
</g>
</g>
<!-- Node6&#45;&gt;Node4 -->
<g id="edge7_Node000006_Node000004" class="edge">
<title>Node6&#45;&gt;Node4</title>
<g id="a_edge7_Node000006_Node000004"><a xlink:title=" ">
<path fill="none" stroke="#63b8ff" d="M92.53,-187.89C84.48,-179.83 76.62,-170.19 71.75,-159.75 61.36,-137.5 60.63,-108.52 61.42,-90.72"/>
<polygon fill="#63b8ff" stroke="#63b8ff" points="89.85,-190.11 99.55,-194.38 94.64,-185 89.85,-190.11"/>
</a>
</g>
</g>
<!-- Node7 -->
<g id="Node000007" class="node">
<title>Node7</title>
<g id="a_Node000007"><a xlink:href="sqsh__xattr__private_8h.html" target="_top" xlink:title=" ">
<polygon fill="white" stroke="#666666" points="350.38,-159.75 245.12,-159.75 245.12,-126.25 350.38,-126.25 350.38,-159.75"/>
<text text-anchor="start" x="253.12" y="-146.25" font-family="Helvetica,sans-Serif" font-size="10.00">include/sqsh_xattr</text>
<text text-anchor="middle" x="297.75" y="-133.5" font-family="Helvetica,sans-Serif" font-size="10.00">_private.h</text>
</a>
</g>
</g>
<!-- Node6&#45;&gt;Node7 -->
<g id="edge9_Node000006_Node000007" class="edge">
<title>Node6&#45;&gt;Node7</title>
<g id="a_edge9_Node000006_Node000007"><a xlink:title=" ">
<path fill="none" stroke="#63b8ff" d="M173.99,-191.47C200.04,-181.47 231.13,-169.55 255.63,-160.15"/>
<polygon fill="#63b8ff" stroke="#63b8ff" points="172.99,-188.48 164.91,-195.33 175.5,-195.02 172.99,-188.48"/>
</a>
</g>
</g>
<!-- Node7&#45;&gt;Node3 -->
<g id="edge10_Node000007_Node000003" class="edge">
<title>Node7&#45;&gt;Node3</title>
<g id="a_edge10_Node000007_Node000003"><a xlink:title=" ">
<path fill="none" stroke="#63b8ff" d="M286.58,-115.99C282.87,-107.36 278.85,-98.01 275.57,-90.38"/>
<polygon fill="#63b8ff" stroke="#63b8ff" points="283.71,-117.2 290.88,-125 290.15,-114.43 283.71,-117.2"/>
</a>
</g>
</g>
<!-- Node8&#45;&gt;Node7 -->
<g id="edge12_Node000008_Node000007" class="edge">
<title>Node8&#45;&gt;Node7</title>
<g id="a_edge12_Node000008_Node000007"><a xlink:title=" ">
<path fill="none" stroke="#63b8ff" d="M297.75,-184.64C297.75,-176.25 297.75,-167.26 297.75,-159.88"/>
<polygon fill="#63b8ff" stroke="#63b8ff" points="294.25,-184.5 297.75,-194.5 301.25,-184.5 294.25,-184.5"/>
</a>
</g>
</g>
</g>
</svg>
</svg>

<style type='text/css'>
<![CDATA[
[data-mouse-over-selected='false'] { opacity: 0.7; }
[data-mouse-over-selected='true']  { opacity: 1.0; }
]]>
</style>
<script type="application/ecmascript"><![CDATA[
document.addEventListener('DOMContentLoaded', (event) => {
  highlightEdges();
  highlightAdjacentNodes();
});
]]></script>
</svg>
