<?xml version="1.0" encoding="UTF-8" standalone="no"?>
<!DOCTYPE svg PUBLIC "-//W3C//DTD SVG 1.1//EN"
 "http://www.w3.org/Graphics/SVG/1.1/DTD/svg11.dtd">
<!-- Generated by graphviz version 7.0.4 (20221203.1631)
 -->
<!-- Title: sqsh.h Pages: 1 -->
<svg width="494pt" height="302pt"
 viewBox="0.00 0.00 494.22 302.00" xmlns="http://www.w3.org/2000/svg" xmlns:xlink="http://www.w3.org/1999/xlink">
<g id="graph0" class="graph" transform="scale(1 1) rotate(0) translate(4 298)">
<title>sqsh.h</title>
<!-- Node1 -->
<g id="node1" class="node">
<title>Node1</title>
<g id="a_node1"><a xlink:title=" ">
<polygon fill="#999999" stroke="#666666" points="284.72,-294 222.72,-294 222.72,-275 284.72,-275 284.72,-294"/>
<text text-anchor="middle" x="253.72" y="-282" font-family="Helvetica,sans-Serif" font-size="10.00">sqsh.h</text>
</a>
</g>
</g>
<!-- Node2 -->
<g id="node2" class="node">
<title>Node2</title>
<g id="a_node2"><a xlink:href="sqsh__common_8h.html" target="_top" xlink:title=" ">
<polygon fill="white" stroke="#666666" points="423.72,-74 309.72,-74 309.72,-55 423.72,-55 423.72,-74"/>
<text text-anchor="middle" x="366.72" y="-62" font-family="Helvetica,sans-Serif" font-size="10.00">sqsh_common.h</text>
</a>
</g>
</g>
<!-- Node1&#45;&gt;Node2 -->
<g id="edge1" class="edge">
<title>Node1&#45;&gt;Node2</title>
<path fill="none" stroke="#63b8ff" d="M276.22,-274.61C291.83,-267.31 311.86,-255.48 323.72,-239 357.79,-191.65 365.01,-120.28 366.44,-85.71"/>
<polygon fill="#63b8ff" stroke="#63b8ff" points="369.93,-85.99 366.71,-75.89 362.94,-85.8 369.93,-85.99"/>
</g>
<!-- Node4 -->
<g id="node4" class="node">
<title>Node4</title>
<g id="a_node4"><a xlink:title=" ">
<polygon fill="#e0e0e0" stroke="#999999" points="78.22,-19 1.22,-19 1.22,0 78.22,0 78.22,-19"/>
<text text-anchor="middle" x="39.72" y="-7" font-family="Helvetica,sans-Serif" font-size="10.00">stdint.h</text>
</a>
</g>
</g>
<!-- Node1&#45;&gt;Node4 -->
<g id="edge19" class="edge">
<title>Node1&#45;&gt;Node4</title>
<path fill="none" stroke="#63b8ff" d="M222.24,-281.5C165.47,-277.27 49.12,-265.52 19.72,-239 -2.15,-219.27 0.72,-204.96 0.72,-175.5 0.72,-175.5 0.72,-175.5 0.72,-118.5 0.72,-85.55 16.98,-50.12 28.5,-29.16"/>
<polygon fill="#63b8ff" stroke="#63b8ff" points="31.43,-31.08 33.38,-20.66 25.36,-27.59 31.43,-31.08"/>
</g>
<!-- Node5 -->
<g id="node5" class="node">
<title>Node5</title>
<g id="a_node5"><a xlink:href="sqsh__context_8h.html" target="_top" xlink:title=" ">
<polygon fill="white" stroke="#666666" points="314.72,-239 192.72,-239 192.72,-220 314.72,-220 314.72,-239"/>
<text text-anchor="middle" x="253.72" y="-227" font-family="Helvetica,sans-Serif" font-size="10.00">sqsh_context.h</text>
</a>
</g>
</g>
<!-- Node1&#45;&gt;Node5 -->
<g id="edge4" class="edge">
<title>Node1&#45;&gt;Node5</title>
<path fill="none" stroke="#63b8ff" d="M253.72,-274.75C253.72,-268.27 253.72,-259.16 253.72,-250.9"/>
<polygon fill="#63b8ff" stroke="#63b8ff" points="257.22,-250.96 253.72,-240.96 250.22,-250.96 257.22,-250.96"/>
</g>
<!-- Node6 -->
<g id="node6" class="node">
<title>Node6</title>
<g id="a_node6"><a xlink:href="sqsh__mapper_8h.html" target="_top" xlink:title=" ">
<polygon fill="white" stroke="#666666" points="204.72,-184 90.72,-184 90.72,-165 204.72,-165 204.72,-184"/>
<text text-anchor="middle" x="147.72" y="-172" font-family="Helvetica,sans-Serif" font-size="10.00">sqsh_mapper.h</text>
</a>
</g>
</g>
<!-- Node1&#45;&gt;Node6 -->
<g id="edge16" class="edge">
<title>Node1&#45;&gt;Node6</title>
<path fill="none" stroke="#63b8ff" d="M234.39,-274.51C219.22,-266.74 198.3,-254.34 183.72,-239 171.43,-226.07 161.77,-208.16 155.56,-194.66"/>
<polygon fill="#63b8ff" stroke="#63b8ff" points="158.81,-193.34 151.62,-185.55 152.38,-196.12 158.81,-193.34"/>
</g>
<!-- Node10 -->
<g id="node10" class="node">
<title>Node10</title>
<g id="a_node10"><a xlink:href="sqsh__error_8h.html" target="_top" xlink:title=" ">
<polygon fill="white" stroke="#666666" points="478.22,-184 371.22,-184 371.22,-165 478.22,-165 478.22,-184"/>
<text text-anchor="middle" x="424.72" y="-172" font-family="Helvetica,sans-Serif" font-size="10.00">sqsh_error.h</text>
</a>
</g>
</g>
<!-- Node1&#45;&gt;Node10 -->
<g id="edge14" class="edge">
<title>Node1&#45;&gt;Node10</title>
<path fill="none" stroke="#63b8ff" d="M281.25,-274.54C302.77,-266.86 332.92,-254.57 356.72,-239 376.9,-225.79 396.67,-206.39 409.64,-192.52"/>
<polygon fill="#63b8ff" stroke="#63b8ff" points="411.95,-195.18 416.1,-185.43 406.78,-190.46 411.95,-195.18"/>
</g>
<!-- Node11 -->
<g id="node11" class="node">
<title>Node11</title>
<g id="a_node11"><a xlink:href="sqsh__table_8h.html" target="_top" xlink:title=" ">
<polygon fill="white" stroke="#666666" points="136.22,-239 29.22,-239 29.22,-220 136.22,-220 136.22,-239"/>
<text text-anchor="middle" x="82.72" y="-227" font-family="Helvetica,sans-Serif" font-size="10.00">sqsh_table.h</text>
</a>
</g>
</g>
<!-- Node1&#45;&gt;Node11 -->
<g id="edge17" class="edge">
<title>Node1&#45;&gt;Node11</title>
<path fill="none" stroke="#63b8ff" d="M224.71,-274.51C196.62,-265.8 153.8,-252.53 122.53,-242.84"/>
<polygon fill="#63b8ff" stroke="#63b8ff" points="123.62,-239.51 113.03,-239.89 121.54,-246.2 123.62,-239.51"/>
</g>
<!-- Node12 -->
<g id="node12" class="node">
<title>Node12</title>
<g id="a_node12"><a xlink:title=" ">
<polygon fill="#e0e0e0" stroke="#999999" points="486.22,-239 409.22,-239 409.22,-220 486.22,-220 486.22,-239"/>
<text text-anchor="middle" x="447.72" y="-227" font-family="Helvetica,sans-Serif" font-size="10.00">stdlib.h</text>
</a>
</g>
</g>
<!-- Node1&#45;&gt;Node12 -->
<g id="edge20" class="edge">
<title>Node1&#45;&gt;Node12</title>
<path fill="none" stroke="#63b8ff" d="M284.89,-274.98C317.21,-266.15 368,-252.28 404.26,-242.37"/>
<polygon fill="#63b8ff" stroke="#63b8ff" points="404.82,-245.85 413.55,-239.84 402.98,-239.09 404.82,-245.85"/>
</g>
<!-- Node3 -->
<g id="node3" class="node">
<title>Node3</title>
<g id="a_node3"><a xlink:title=" ">
<polygon fill="#e0e0e0" stroke="#999999" points="289.22,-19 212.22,-19 212.22,0 289.22,0 289.22,-19"/>
<text text-anchor="middle" x="250.72" y="-7" font-family="Helvetica,sans-Serif" font-size="10.00">stddef.h</text>
</a>
</g>
</g>
<!-- Node2&#45;&gt;Node3 -->
<g id="edge2" class="edge">
<title>Node2&#45;&gt;Node3</title>
<path fill="none" stroke="#63b8ff" d="M347.04,-54.51C328.77,-46.16 301.3,-33.61 280.37,-24.05"/>
<polygon fill="#63b8ff" stroke="#63b8ff" points="282.03,-20.96 271.48,-19.99 279.12,-27.33 282.03,-20.96"/>
</g>
<!-- Node2&#45;&gt;Node4 -->
<g id="edge3" class="edge">
<title>Node2&#45;&gt;Node4</title>
<path fill="none" stroke="#63b8ff" d="M311.25,-54.51C249.11,-44.44 149.29,-28.26 89.55,-18.58"/>
<polygon fill="#63b8ff" stroke="#63b8ff" points="90.44,-15.18 80.01,-17.03 89.32,-22.09 90.44,-15.18"/>
</g>
<!-- Node5&#45;&gt;Node6 -->
<g id="edge5" class="edge">
<title>Node5&#45;&gt;Node6</title>
<path fill="none" stroke="#63b8ff" d="M235.74,-219.51C219.27,-211.27 194.63,-198.96 175.61,-189.45"/>
<polygon fill="#63b8ff" stroke="#63b8ff" points="177.3,-186.38 166.79,-185.03 174.17,-192.64 177.3,-186.38"/>
</g>
<!-- Node7 -->
<g id="node7" class="node">
<title>Node7</title>
<g id="a_node7"><a xlink:href="sqsh__primitive_8h.html" target="_top" xlink:title=" ">
<polygon fill="white" stroke="#666666" points="314.22,-129 177.22,-129 177.22,-110 314.22,-110 314.22,-129"/>
<text text-anchor="middle" x="245.72" y="-117" font-family="Helvetica,sans-Serif" font-size="10.00">sqsh_primitive.h</text>
</a>
</g>
</g>
<!-- Node5&#45;&gt;Node7 -->
<g id="edge13" class="edge">
<title>Node5&#45;&gt;Node7</title>
<path fill="none" stroke="#63b8ff" d="M253.06,-219.66C251.8,-202.57 248.99,-164.61 247.23,-140.92"/>
<polygon fill="#63b8ff" stroke="#63b8ff" points="250.72,-140.68 246.49,-130.97 243.74,-141.2 250.72,-140.68"/>
</g>
<!-- Node6&#45;&gt;Node3 -->
<g id="edge11" class="edge">
<title>Node6&#45;&gt;Node3</title>
<path fill="none" stroke="#63b8ff" d="M138.24,-164.73C117,-144.04 69.53,-91.16 96.72,-55 109.34,-38.21 160.62,-25.75 200.59,-18.35"/>
<polygon fill="#63b8ff" stroke="#63b8ff" points="201.06,-21.82 210.29,-16.62 199.83,-14.93 201.06,-21.82"/>
</g>
<!-- Node6&#45;&gt;Node4 -->
<g id="edge12" class="edge">
<title>Node6&#45;&gt;Node4</title>
<path fill="none" stroke="#63b8ff" d="M133.79,-164.69C121.89,-156.59 104.96,-143.65 93.72,-129 69.93,-98.01 53.65,-54.86 45.58,-30.09"/>
<polygon fill="#63b8ff" stroke="#63b8ff" points="48.97,-29.2 42.65,-20.7 42.29,-31.29 48.97,-29.2"/>
</g>
<!-- Node6&#45;&gt;Node7 -->
<g id="edge6" class="edge">
<title>Node6&#45;&gt;Node7</title>
<path fill="none" stroke="#63b8ff" d="M164.34,-164.51C179.5,-156.31 202.13,-144.07 219.69,-134.58"/>
<polygon fill="#63b8ff" stroke="#63b8ff" points="220.88,-137.91 228.01,-130.08 217.55,-131.76 220.88,-137.91"/>
</g>
<!-- Node8 -->
<g id="node8" class="node">
<title>Node8</title>
<g id="a_node8"><a xlink:title=" ">
<polygon fill="#e0e0e0" stroke="#999999" points="189.72,-74 105.72,-74 105.72,-55 189.72,-55 189.72,-74"/>
<text text-anchor="middle" x="147.72" y="-62" font-family="Helvetica,sans-Serif" font-size="10.00">pthread.h</text>
</a>
</g>
</g>
<!-- Node6&#45;&gt;Node8 -->
<g id="edge10" class="edge">
<title>Node6&#45;&gt;Node8</title>
<path fill="none" stroke="#63b8ff" d="M147.72,-164.66C147.72,-147.57 147.72,-109.61 147.72,-85.92"/>
<polygon fill="#63b8ff" stroke="#63b8ff" points="151.22,-85.97 147.72,-75.97 144.22,-85.97 151.22,-85.97"/>
</g>
<!-- Node7&#45;&gt;Node2 -->
<g id="edge7" class="edge">
<title>Node7&#45;&gt;Node2</title>
<path fill="none" stroke="#63b8ff" d="M266.24,-109.51C285.39,-101.12 314.22,-88.5 336.09,-78.92"/>
<polygon fill="#63b8ff" stroke="#63b8ff" points="337.35,-82.18 345.11,-74.97 334.54,-75.77 337.35,-82.18"/>
</g>
<!-- Node7&#45;&gt;Node8 -->
<g id="edge8" class="edge">
<title>Node7&#45;&gt;Node8</title>
<path fill="none" stroke="#63b8ff" d="M229.09,-109.51C213.94,-101.31 191.3,-89.07 173.75,-79.58"/>
<polygon fill="#63b8ff" stroke="#63b8ff" points="175.89,-76.76 165.43,-75.08 172.56,-82.91 175.89,-76.76"/>
</g>
<!-- Node9 -->
<g id="node9" class="node">
<title>Node9</title>
<g id="a_node9"><a xlink:title=" ">
<polygon fill="#e0e0e0" stroke="#999999" points="291.72,-74 207.72,-74 207.72,-55 291.72,-55 291.72,-74"/>
<text text-anchor="middle" x="249.72" y="-62" font-family="Helvetica,sans-Serif" font-size="10.00">stdbool.h</text>
</a>
</g>
</g>
<!-- Node7&#45;&gt;Node9 -->
<g id="edge9" class="edge">
<title>Node7&#45;&gt;Node9</title>
<path fill="none" stroke="#63b8ff" d="M246.38,-109.75C246.87,-103.27 247.56,-94.16 248.18,-85.9"/>
<polygon fill="#63b8ff" stroke="#63b8ff" points="251.67,-86.19 248.93,-75.95 244.69,-85.66 251.67,-86.19"/>
</g>
<!-- Node10&#45;&gt;Node2 -->
<g id="edge15" class="edge">
<title>Node10&#45;&gt;Node2</title>
<path fill="none" stroke="#63b8ff" d="M419.97,-164.66C410.58,-147.18 389.46,-107.84 376.82,-84.3"/>
<polygon fill="#63b8ff" stroke="#63b8ff" points="380.06,-82.95 372.25,-75.79 373.89,-86.26 380.06,-82.95"/>
</g>
<!-- Node11&#45;&gt;Node6 -->
<g id="edge18" class="edge">
<title>Node11&#45;&gt;Node6</title>
<path fill="none" stroke="#63b8ff" d="M93.74,-219.51C103.14,-211.85 116.87,-200.66 128.13,-191.47"/>
<polygon fill="#63b8ff" stroke="#63b8ff" points="130.14,-194.35 135.68,-185.31 125.72,-188.92 130.14,-194.35"/>
</g>
</g>
</svg>
