<?xml version="1.0" encoding="UTF-8" standalone="no"?>
<!DOCTYPE svg PUBLIC "-//W3C//DTD SVG 1.1//EN"
 "http://www.w3.org/Graphics/SVG/1.1/DTD/svg11.dtd">
<!-- Generated by graphviz version 8.0.5 (20230430.1635)
 -->
<!-- Title: sqsh_archive_private.h Pages: 1 -->
<svg width="936pt" height="597316pt"
 viewBox="0.00 0.00 936.03 597316.07" xmlns="http://www.w3.org/2000/svg" xmlns:xlink="http://www.w3.org/1999/xlink">
<g id="graph0" class="graph" transform="scale(1 1) rotate(0) translate(4 597312.07)">
<title>sqsh_archive_private.h</title>
<!-- Node1 -->
<g id="node1" class="node">
<title>Node1</title>
<g id="a_node1"><a xlink:title=" ">
<polygon fill="#999999" stroke="#666666" points="501.77,-597308.07 320.77,-597308.07 320.77,-597289.57 501.77,-597289.57 501.77,-597308.07"/>
<text text-anchor="middle" x="411.27" y="-597294.57" font-family="Helvetica,sans-Serif" font-size="10.00">sqsh_archive_private.h</text>
</a>
</g>
</g>
<!-- Node2 -->
<g id="node2" class="node">
<title>Node2</title>
<g id="a_node2"><a xlink:href="sqsh__archive_8h.html" target="_top" xlink:title=" ">
<polygon fill="white" stroke="#666666" points="185.77,-597189.88 64.77,-597189.88 64.77,-391.53 185.77,-391.53 185.77,-597189.88"/>
<text text-anchor="middle" x="125.27" y="-597176.38" font-family="Helvetica,sans-Serif" font-size="10.00">sqsh_archive.h</text>
</a>
</g>
</g>
<!-- Node1&#45;&gt;Node2 -->
<g id="edge1" class="edge">
<title>Node1&#45;&gt;Node2</title>
<path fill="none" stroke="#63b8ff" d="M320.45,-597290.61C268.82,-597284.42 211.33,-597273.25 195.27,-597253.57 -14.17,-596996.94 15.56,-475098.5 64.26,-387186.19"/>
<polygon fill="#63b8ff" stroke="#63b8ff" points="67.76,-387186.38 64.27,-387176.38 60.76,-387186.38 67.76,-387186.38"/>
</g>
<!-- Node7 -->
<g id="node7" class="node">
<title>Node7</title>
<g id="a_node7"><a xlink:href="sqsh__error_8h.html" target="_top" xlink:title=" ">
<polygon fill="white" stroke="#666666" points="310.27,-597253.57 204.27,-597253.57 204.27,-327.85 310.27,-327.85 310.27,-597253.57"/>
<text text-anchor="middle" x="257.27" y="-597240.07" font-family="Helvetica,sans-Serif" font-size="10.00">sqsh_error.h</text>
</a>
</g>
</g>
<!-- Node1&#45;&gt;Node7 -->
<g id="edge6" class="edge">
<title>Node1&#45;&gt;Node7</title>
<path fill="none" stroke="#63b8ff" d="M371.5,-597289.19C352.21,-597282.78 330.78,-597271.87 319.27,-597253.57 316.38,-597248.97 313.58,-597113.58 310.88,-596852.86"/>
<polygon fill="#63b8ff" stroke="#63b8ff" points="314.37,-596852.91 310.77,-596842.95 307.37,-596852.99 314.37,-596852.91"/>
</g>
<!-- Node8 -->
<g id="node8" class="node">
<title>Node8</title>
<g id="a_node8"><a xlink:href="sqsh__file__private_8h.html" target="_top" xlink:title=" ">
<polygon fill="white" stroke="#666666" points="871.52,-279.89 713.02,-279.89 713.02,-261.39 871.52,-261.39 871.52,-279.89"/>
<text text-anchor="middle" x="792.27" y="-266.39" font-family="Helvetica,sans-Serif" font-size="10.00">sqsh_file_private.h</text>
</a>
</g>
</g>
<!-- Node1&#45;&gt;Node8 -->
<g id="edge8" class="edge">
<title>Node1&#45;&gt;Node8</title>
<path fill="none" stroke="#63b8ff" d="M451.04,-597289.18C470.32,-597282.78 491.76,-597271.87 503.27,-597253.57 1053.29,-596379.16 793.99,-4191.7 792.28,-290.99"/>
<polygon fill="#63b8ff" stroke="#63b8ff" points="795.78,-291.26 792.27,-281.26 788.78,-291.26 795.78,-291.26"/>
</g>
<!-- Node12 -->
<g id="node12" class="node">
<title>Node12</title>
<g id="a_node12"><a xlink:href="sqsh__thread__private_8h.html" target="_top" xlink:title=" ">
<polygon fill="white" stroke="#666666" points="910.02,-139.46 736.52,-139.46 736.52,-120.96 910.02,-120.96 910.02,-139.46"/>
<text text-anchor="middle" x="823.27" y="-125.96" font-family="Helvetica,sans-Serif" font-size="10.00">sqsh_thread_private.h</text>
</a>
</g>
</g>
<!-- Node1&#45;&gt;Node12 -->
<g id="edge22" class="edge">
<title>Node1&#45;&gt;Node12</title>
<path fill="none" stroke="#63b8ff" d="M502.08,-597295.9C574.63,-597292.21 668.04,-597281.91 692.27,-597253.57 1029.05,-596859.73 880.19,-810.04 880.27,-291.85 880.28,-245.43 896.49,-230.12 878.27,-187.42 871.2,-170.85 856.8,-156.43 844.51,-146.34"/>
<polygon fill="#63b8ff" stroke="#63b8ff" points="847.11,-143.16 837.07,-139.79 842.82,-148.69 847.11,-143.16"/>
</g>
<!-- Node17 -->
<g id="node17" class="node">
<title>Node17</title>
<g id="a_node17"><a xlink:href="sqsh__xattr__private_8h.html" target="_top" xlink:title=" ">
<polygon fill="white" stroke="#666666" points="494.27,-298799.96 328.27,-298799.96 328.27,-298781.46 494.27,-298781.46 494.27,-298799.96"/>
<text text-anchor="middle" x="411.27" y="-298786.46" font-family="Helvetica,sans-Serif" font-size="10.00">sqsh_xattr_private.h</text>
</a>
</g>
</g>
<!-- Node1&#45;&gt;Node17 -->
<g id="edge23" class="edge">
<title>Node1&#45;&gt;Node17</title>
<path fill="none" stroke="#63b8ff" d="M411.27,-597289.16C411.27,-595451.01 411.27,-301570.62 411.27,-298811.26"/>
<polygon fill="#63b8ff" stroke="#63b8ff" points="414.77,-298811.31 411.27,-298801.31 407.77,-298811.31 414.77,-298811.31"/>
</g>
<!-- Node3 -->
<g id="node3" class="node">
<title>Node3</title>
<g id="a_node3"><a xlink:href="sqsh__common_8h.html" target="_top" xlink:title=" ">
<polygon fill="white" stroke="#666666" points="310.02,-73 196.52,-73 196.52,-54.5 310.02,-54.5 310.02,-73"/>
<text text-anchor="middle" x="253.27" y="-59.5" font-family="Helvetica,sans-Serif" font-size="10.00">sqsh_common.h</text>
</a>
</g>
</g>
<!-- Node2&#45;&gt;Node3 -->
<g id="edge2" class="edge">
<title>Node2&#45;&gt;Node3</title>
<path fill="none" stroke="#63b8ff" d="M64.27,-230983.8C-3.89,-143778.75 -74.51,-3095.63 176.27,-249.42 181.92,-185.24 179.81,-164.66 212.27,-109 218.38,-98.53 227.35,-88.47 235.34,-80.61"/>
<polygon fill="#63b8ff" stroke="#63b8ff" points="237.26,-83.67 242.16,-74.27 232.47,-78.56 237.26,-83.67"/>
</g>
<!-- Node4 -->
<g id="node4" class="node">
<title>Node4</title>
<g id="a_node4"><a xlink:title=" ">
<polygon fill="#e0e0e0" stroke="#999999" points="197.02,-18.5 113.52,-18.5 113.52,0 197.02,0 197.02,-18.5"/>
<text text-anchor="middle" x="155.27" y="-5" font-family="Helvetica,sans-Serif" font-size="10.00">stdbool.h</text>
</a>
</g>
</g>
<!-- Node3&#45;&gt;Node4 -->
<g id="edge3" class="edge">
<title>Node3&#45;&gt;Node4</title>
<path fill="none" stroke="#63b8ff" d="M237.09,-54.08C221.77,-45.87 198.52,-33.42 180.72,-23.89"/>
<polygon fill="#63b8ff" stroke="#63b8ff" points="182.94,-20.57 172.48,-18.93 179.64,-26.74 182.94,-20.57"/>
</g>
<!-- Node5 -->
<g id="node5" class="node">
<title>Node5</title>
<g id="a_node5"><a xlink:title=" ">
<polygon fill="#e0e0e0" stroke="#999999" points="291.27,-18.5 215.27,-18.5 215.27,0 291.27,0 291.27,-18.5"/>
<text text-anchor="middle" x="253.27" y="-5" font-family="Helvetica,sans-Serif" font-size="10.00">stddef.h</text>
</a>
</g>
</g>
<!-- Node3&#45;&gt;Node5 -->
<g id="edge4" class="edge">
<title>Node3&#45;&gt;Node5</title>
<path fill="none" stroke="#63b8ff" d="M253.27,-54.08C253.27,-47.43 253.27,-37.99 253.27,-29.58"/>
<polygon fill="#63b8ff" stroke="#63b8ff" points="256.77,-29.76 253.27,-19.76 249.77,-29.76 256.77,-29.76"/>
</g>
<!-- Node6 -->
<g id="node6" class="node">
<title>Node6</title>
<g id="a_node6"><a xlink:title=" ">
<polygon fill="#e0e0e0" stroke="#999999" points="385.27,-18.5 309.27,-18.5 309.27,0 385.27,0 385.27,-18.5"/>
<text text-anchor="middle" x="347.27" y="-5" font-family="Helvetica,sans-Serif" font-size="10.00">stdint.h</text>
</a>
</g>
</g>
<!-- Node3&#45;&gt;Node6 -->
<g id="edge5" class="edge">
<title>Node3&#45;&gt;Node6</title>
<path fill="none" stroke="#63b8ff" d="M268.79,-54.08C283.35,-45.95 305.37,-33.65 322.38,-24.15"/>
<polygon fill="#63b8ff" stroke="#63b8ff" points="323.7,-26.86 330.72,-18.93 320.29,-20.75 323.7,-26.86"/>
</g>
<!-- Node7&#45;&gt;Node3 -->
<g id="edge7" class="edge">
<title>Node7&#45;&gt;Node3</title>
<path fill="none" stroke="#63b8ff" d="M203.77,-728.55C200.71,-483.07 197.54,-347.99 194.27,-327.85 191.57,-311.2 184.97,-308.49 182.27,-291.85 179.25,-273.24 178.94,-267.98 182.27,-249.42 194.01,-183.92 209.58,-170.8 234.27,-109 237.68,-100.45 241.68,-91.07 245.12,-83.15"/>
<polygon fill="#63b8ff" stroke="#63b8ff" points="248.68,-84.74 249.5,-74.18 242.27,-81.93 248.68,-84.74"/>
</g>
<!-- Node9 -->
<g id="node9" class="node">
<title>Node9</title>
<g id="a_node9"><a xlink:href="sqsh__file_8h.html" target="_top" xlink:title=" ">
<polygon fill="white" stroke="#666666" points="869.52,-207.62 771.02,-207.62 771.02,-193.22 869.52,-193.22 869.52,-207.62"/>
<text text-anchor="middle" x="820.27" y="-190.92" font-family="Helvetica,sans-Serif" font-size="10.00">sqsh_file.h</text>
</a>
</g>
</g>
<!-- Node8&#45;&gt;Node9 -->
<g id="edge9" class="edge">
<title>Node8&#45;&gt;Node9</title>
<path fill="none" stroke="#63b8ff" d="M795.81,-261C800.28,-250.13 808.03,-231.25 813.61,-217.65"/>
<polygon fill="#63b8ff" stroke="#63b8ff" points="817.11,-219.35 817.67,-208.77 810.63,-216.69 817.11,-219.35"/>
</g>
<!-- Node10 -->
<g id="node10" class="node">
<title>Node10</title>
<g id="a_node10"><a xlink:href="sqsh__extract__private_8h.html" target="_top" xlink:title=" ">
<polygon fill="white" stroke="#666666" points="748.77,-213.42 567.77,-213.42 567.77,-187.42 748.77,-187.42 748.77,-213.42"/>
<text text-anchor="middle" x="658.27" y="-199.92" font-family="Helvetica,sans-Serif" font-size="10.00">sqsh_extract_private.h</text>
</a>
</g>
</g>
<!-- Node8&#45;&gt;Node10 -->
<g id="edge11" class="edge">
<title>Node8&#45;&gt;Node10</title>
<path fill="none" stroke="#63b8ff" d="M775.3,-261C754.57,-250.44 718.98,-232.33 692.48,-218.84"/>
<polygon fill="#63b8ff" stroke="#63b8ff" points="694.32,-215.34 683.82,-213.92 691.15,-221.58 694.32,-215.34"/>
</g>
<!-- Node14 -->
<g id="node14" class="node">
<title>Node14</title>
<g id="a_node14"><a xlink:href="sqsh__mapper__private_8h.html" target="_top" xlink:title=" ">
<polygon fill="white" stroke="#666666" points="550.02,-209.67 376.52,-209.67 376.52,-191.17 550.02,-191.17 550.02,-209.67"/>
<text text-anchor="middle" x="463.27" y="-196.17" font-family="Helvetica,sans-Serif" font-size="10.00">sqsh_mapper_private.h</text>
</a>
</g>
</g>
<!-- Node8&#45;&gt;Node14 -->
<g id="edge17" class="edge">
<title>Node8&#45;&gt;Node14</title>
<path fill="none" stroke="#63b8ff" d="M755.5,-260.94C739.75,-257.28 721.13,-253.04 704.27,-249.42 641.25,-235.91 568.68,-221.63 519.78,-212.2"/>
<polygon fill="#63b8ff" stroke="#63b8ff" points="520.58,-208.59 510.1,-210.14 519.26,-215.47 520.58,-208.59"/>
</g>
<!-- Node9&#45;&gt;Node3 -->
<g id="edge10" class="edge">
<title>Node9&#45;&gt;Node3</title>
<path fill="none" stroke="#63b8ff" d="M854.08,-192.75C876.79,-186.32 905.07,-174.09 919.27,-151.42 929.28,-135.45 932.15,-122.77 919.27,-109 879.02,-65.99 482.57,-63.39 321.14,-64.14"/>
<polygon fill="#63b8ff" stroke="#63b8ff" points="321.37,-60.64 311.39,-64.19 321.41,-67.64 321.37,-60.64"/>
</g>
<!-- Node11 -->
<g id="node11" class="node">
<title>Node11</title>
<g id="a_node11"><a xlink:href="sqsh__primitive__private_8h.html" target="_top" xlink:title=" ">
<polygon fill="white" stroke="#666666" points="718.27,-139.46 522.27,-139.46 522.27,-120.96 718.27,-120.96 718.27,-139.46"/>
<text text-anchor="middle" x="620.27" y="-125.96" font-family="Helvetica,sans-Serif" font-size="10.00">sqsh_primitive_private.h</text>
</a>
</g>
</g>
<!-- Node10&#45;&gt;Node11 -->
<g id="edge12" class="edge">
<title>Node10&#45;&gt;Node11</title>
<path fill="none" stroke="#63b8ff" d="M651.47,-187.23C645.6,-176.68 637.02,-161.27 630.34,-149.29"/>
<polygon fill="#63b8ff" stroke="#63b8ff" points="633,-147.88 625.08,-140.84 626.89,-151.28 633,-147.88"/>
</g>
<!-- Node10&#45;&gt;Node12 -->
<g id="edge14" class="edge">
<title>Node10&#45;&gt;Node12</title>
<path fill="none" stroke="#63b8ff" d="M688.15,-187.07C717.72,-174.85 762.78,-156.22 792.62,-143.88"/>
<polygon fill="#63b8ff" stroke="#63b8ff" points="793.58,-146.86 801.49,-139.8 790.91,-140.39 793.58,-146.86"/>
</g>
<!-- Node11&#45;&gt;Node3 -->
<g id="edge13" class="edge">
<title>Node11&#45;&gt;Node3</title>
<path fill="none" stroke="#63b8ff" d="M575.01,-120.47C555.96,-116.85 533.55,-112.64 513.27,-109 446.23,-96.97 369.31,-83.98 316.63,-75.21"/>
<polygon fill="#63b8ff" stroke="#63b8ff" points="317.54,-71.64 307.1,-73.45 316.39,-78.55 317.54,-71.64"/>
</g>
<!-- Node12&#45;&gt;Node3 -->
<g id="edge16" class="edge">
<title>Node12&#45;&gt;Node3</title>
<path fill="none" stroke="#63b8ff" d="M786.98,-120.55C769.09,-116.54 747.14,-112.01 727.27,-109 583.57,-87.24 413.63,-74.49 321.3,-68.65"/>
<polygon fill="#63b8ff" stroke="#63b8ff" points="321.63,-65.1 311.44,-67.97 321.2,-72.09 321.63,-65.1"/>
</g>
<!-- Node13 -->
<g id="node13" class="node">
<title>Node13</title>
<g id="a_node13"><a xlink:title=" ">
<polygon fill="#e0e0e0" stroke="#999999" points="865.02,-73 781.52,-73 781.52,-54.5 865.02,-54.5 865.02,-73"/>
<text text-anchor="middle" x="823.27" y="-59.5" font-family="Helvetica,sans-Serif" font-size="10.00">pthread.h</text>
</a>
</g>
</g>
<!-- Node12&#45;&gt;Node13 -->
<g id="edge15" class="edge">
<title>Node12&#45;&gt;Node13</title>
<path fill="none" stroke="#63b8ff" d="M823.27,-120.52C823.27,-111.24 823.27,-96.24 823.27,-84.13"/>
<polygon fill="#63b8ff" stroke="#63b8ff" points="826.77,-84.31 823.27,-74.31 819.77,-84.31 826.77,-84.31"/>
</g>
<!-- Node14&#45;&gt;Node11 -->
<g id="edge19" class="edge">
<title>Node14&#45;&gt;Node11</title>
<path fill="none" stroke="#63b8ff" d="M483.15,-190.78C510.29,-179 559.12,-157.78 590.6,-144.1"/>
<polygon fill="#63b8ff" stroke="#63b8ff" points="591.77,-146.98 599.55,-139.78 588.98,-140.56 591.77,-146.98"/>
</g>
<!-- Node14&#45;&gt;Node12 -->
<g id="edge20" class="edge">
<title>Node14&#45;&gt;Node12</title>
<path fill="none" stroke="#63b8ff" d="M513.47,-190.72C566.63,-181.41 652.98,-165.99 727.27,-151.42 742.06,-148.52 758.1,-145.21 772.76,-142.12"/>
<polygon fill="#63b8ff" stroke="#63b8ff" points="773.09,-145.41 782.15,-139.92 771.64,-138.57 773.09,-145.41"/>
</g>
<!-- Node15 -->
<g id="node15" class="node">
<title>Node15</title>
<g id="a_node15"><a xlink:href="sqsh__mapper_8h.html" target="_top" xlink:title=" ">
<polygon fill="white" stroke="#666666" points="504.02,-151.42 390.52,-151.42 390.52,-109 504.02,-109 504.02,-151.42"/>
<text text-anchor="middle" x="447.27" y="-137.92" font-family="Helvetica,sans-Serif" font-size="10.00">sqsh_mapper.h</text>
</a>
</g>
</g>
<!-- Node14&#45;&gt;Node15 -->
<g id="edge18" class="edge">
<title>Node14&#45;&gt;Node15</title>
<path fill="none" stroke="#63b8ff" d="M461.24,-190.78C459.54,-183.55 457.01,-172.76 454.57,-162.34"/>
<polygon fill="#63b8ff" stroke="#63b8ff" points="457.78,-161.72 452.09,-152.78 450.97,-163.32 457.78,-161.72"/>
</g>
<!-- Node16 -->
<g id="node16" class="node">
<title>Node16</title>
<g id="a_node16"><a xlink:title=" ">
<polygon fill="#e0e0e0" stroke="#999999" points="372.77,-151.42 281.77,-151.42 281.77,-109 372.77,-109 372.77,-151.42"/>
<text text-anchor="middle" x="327.27" y="-137.92" font-family="Helvetica,sans-Serif" font-size="10.00">sys/wait.h</text>
</a>
</g>
</g>
<!-- Node14&#45;&gt;Node16 -->
<g id="edge21" class="edge">
<title>Node14&#45;&gt;Node16</title>
<path fill="none" stroke="#63b8ff" d="M446.04,-190.78C428.96,-182.21 401.93,-168.66 377.97,-156.64"/>
<polygon fill="#63b8ff" stroke="#63b8ff" points="379.79,-153.14 369.28,-151.78 376.65,-159.39 379.79,-153.14"/>
</g>
<!-- Node18 -->
<g id="node18" class="node">
<title>Node18</title>
<g id="a_node18"><a xlink:href="sqsh__metablock__private_8h.html" target="_top" xlink:title=" ">
<polygon fill="white" stroke="#666666" points="695.27,-279.89 499.27,-279.89 499.27,-261.39 695.27,-261.39 695.27,-279.89"/>
<text text-anchor="middle" x="597.27" y="-266.39" font-family="Helvetica,sans-Serif" font-size="10.00">sqsh_metablock_private.h</text>
</a>
</g>
</g>
<!-- Node17&#45;&gt;Node18 -->
<g id="edge24" class="edge">
<title>Node17&#45;&gt;Node18</title>
<path fill="none" stroke="#63b8ff" d="M411.27,-298781.05C412.42,-296942.82 595.54,-3050.66 597.26,-291.19"/>
<polygon fill="#63b8ff" stroke="#63b8ff" points="600.76,-291.24 597.26,-281.24 593.76,-291.24 600.76,-291.24"/>
</g>
<!-- Node19 -->
<g id="node19" class="node">
<title>Node19</title>
<g id="a_node19"><a xlink:href="sqsh__table__private_8h.html" target="_top" xlink:title=" ">
<polygon fill="white" stroke="#666666" points="481.27,-279.89 315.27,-279.89 315.27,-261.39 481.27,-261.39 481.27,-279.89"/>
<text text-anchor="middle" x="398.27" y="-266.39" font-family="Helvetica,sans-Serif" font-size="10.00">sqsh_table_private.h</text>
</a>
</g>
</g>
<!-- Node17&#45;&gt;Node19 -->
<g id="edge27" class="edge">
<title>Node17&#45;&gt;Node19</title>
<path fill="none" stroke="#63b8ff" d="M411.27,-298781.05C411.19,-296942.82 398.39,-3050.66 398.27,-291.19"/>
<polygon fill="#63b8ff" stroke="#63b8ff" points="401.77,-291.24 398.27,-281.24 394.77,-291.24 401.77,-291.24"/>
</g>
<!-- Node21 -->
<g id="node21" class="node">
<title>Node21</title>
<g id="a_node21"><a xlink:href="sqsh__xattr_8h.html" target="_top" xlink:title=" ">
<polygon fill="white" stroke="#666666" points="297.27,-291.85 191.27,-291.85 191.27,-249.42 297.27,-249.42 297.27,-291.85"/>
<text text-anchor="middle" x="244.27" y="-278.35" font-family="Helvetica,sans-Serif" font-size="10.00">sqsh_xattr.h</text>
</a>
</g>
</g>
<!-- Node17&#45;&gt;Node21 -->
<g id="edge32" class="edge">
<title>Node17&#45;&gt;Node21</title>
<path fill="none" stroke="#63b8ff" d="M411.28,-298781.08C413.57,-296940.25 781.58,-1251.73 319.27,-327.85 313.52,-316.36 304.19,-306.62 294.04,-298.63"/>
<polygon fill="#63b8ff" stroke="#63b8ff" points="296.52,-295.38 286.37,-292.34 292.4,-301.05 296.52,-295.38"/>
</g>
<!-- Node18&#45;&gt;Node10 -->
<g id="edge25" class="edge">
<title>Node18&#45;&gt;Node10</title>
<path fill="none" stroke="#63b8ff" d="M604.99,-261C613.73,-251.23 628.24,-235 639.92,-221.94"/>
<polygon fill="#63b8ff" stroke="#63b8ff" points="642.03,-224.71 646.09,-214.92 636.82,-220.04 642.03,-224.71"/>
</g>
<!-- Node18&#45;&gt;Node14 -->
<g id="edge26" class="edge">
<title>Node18&#45;&gt;Node14</title>
<path fill="none" stroke="#63b8ff" d="M580.3,-261C557.44,-249.36 516.54,-228.54 489.65,-214.85"/>
<polygon fill="#63b8ff" stroke="#63b8ff" points="491.6,-211.41 481.1,-209.99 488.43,-217.65 491.6,-211.41"/>
</g>
<!-- Node19&#45;&gt;Node10 -->
<g id="edge28" class="edge">
<title>Node19&#45;&gt;Node10</title>
<path fill="none" stroke="#63b8ff" d="M431.46,-260.93C473.98,-249.77 548.38,-230.25 600.33,-216.62"/>
<polygon fill="#63b8ff" stroke="#63b8ff" points="600.95,-219.82 609.73,-213.89 599.17,-213.05 600.95,-219.82"/>
</g>
<!-- Node19&#45;&gt;Node14 -->
<g id="edge29" class="edge">
<title>Node19&#45;&gt;Node14</title>
<path fill="none" stroke="#63b8ff" d="M406.5,-261C416.91,-250.07 435.04,-231.05 448.01,-217.43"/>
<polygon fill="#63b8ff" stroke="#63b8ff" points="449.94,-220.43 454.31,-210.78 444.87,-215.6 449.94,-220.43"/>
</g>
<!-- Node20 -->
<g id="node20" class="node">
<title>Node20</title>
<g id="a_node20"><a xlink:href="sqsh__table_8h.html" target="_top" xlink:title=" ">
<polygon fill="white" stroke="#666666" points="351.27,-213.42 245.27,-213.42 245.27,-187.42 351.27,-187.42 351.27,-213.42"/>
<text text-anchor="middle" x="298.27" y="-199.92" font-family="Helvetica,sans-Serif" font-size="10.00">sqsh_table.h</text>
</a>
</g>
</g>
<!-- Node19&#45;&gt;Node20 -->
<g id="edge30" class="edge">
<title>Node19&#45;&gt;Node20</title>
<path fill="none" stroke="#63b8ff" d="M385.6,-261C370.61,-250.77 345.21,-233.44 325.65,-220.1"/>
<polygon fill="#63b8ff" stroke="#63b8ff" points="327.83,-216.67 317.59,-213.92 323.88,-222.45 327.83,-216.67"/>
</g>
<!-- Node20&#45;&gt;Node3 -->
<g id="edge31" class="edge">
<title>Node20&#45;&gt;Node3</title>
<path fill="none" stroke="#63b8ff" d="M290.79,-187.19C285.28,-177.72 277.95,-164.12 273.27,-151.42 264.97,-128.94 259.39,-101.86 256.27,-84.03"/>
<polygon fill="#63b8ff" stroke="#63b8ff" points="259.59,-83.62 254.51,-74.32 252.68,-84.76 259.59,-83.62"/>
</g>
<!-- Node21&#45;&gt;Node3 -->
<g id="edge33" class="edge">
<title>Node21&#45;&gt;Node3</title>
<path fill="none" stroke="#63b8ff" d="M240.64,-249.15C238.94,-238.53 237.11,-225.32 236.27,-213.42 232.96,-166.71 242.74,-112.07 248.82,-83.83"/>
<polygon fill="#63b8ff" stroke="#63b8ff" points="252.37,-84.96 251.14,-74.44 245.54,-83.43 252.37,-84.96"/>
</g>
</g>
</svg>
