<?xml version="1.0" encoding="UTF-8" standalone="no"?>
<!DOCTYPE svg PUBLIC "-//W3C//DTD SVG 1.1//EN"
 "http://www.w3.org/Graphics/SVG/1.1/DTD/svg11.dtd">
<!-- Generated by graphviz version 8.0.5 (20230430.1635)
 -->
<!-- Title: include/sqsh_thread_private.h Pages: 1 -->
<svg width="567pt" height="2805809pt"
 viewBox="0.00 0.00 567.35 2805808.87" xmlns="http://www.w3.org/2000/svg" xmlns:xlink="http://www.w3.org/1999/xlink">
<g id="graph0" class="graph" transform="scale(1 1) rotate(0) translate(4 2805804.87)">
<title>include/sqsh_thread_private.h</title>
<!-- Node1 -->
<g id="node1" class="node">
<title>Node1</title>
<g id="a_node1"><a xlink:title=" ">
<polygon fill="#999999" stroke="#666666" points="472.75,-2805800.87 314.25,-2805800.87 314.25,-1302782.18 472.75,-1302782.18 472.75,-2805800.87"/>
<text text-anchor="start" x="322.25" y="-2805787.37" font-family="Helvetica,sans-Serif" font-size="10.00">include/sqsh_thread</text>
<text text-anchor="middle" x="393.5" y="-2605230.79" font-family="Helvetica,sans-Serif" font-size="10.00">_private.h</text>
</a>
</g>
</g>
<!-- Node2 -->
<g id="node2" class="node">
<title>Node2</title>
<g id="a_node2"><a xlink:href="sqsh__archive__private_8h.html" target="_top" xlink:title=" ">
<polygon fill="white" stroke="#666666" points="495.5,-1302527.22 329.5,-1302527.22 329.5,-54.5 495.5,-54.5 495.5,-1302527.22"/>
<text text-anchor="start" x="337.5" y="-1302513.72" font-family="Helvetica,sans-Serif" font-size="10.00">include/sqsh_archive</text>
<text text-anchor="middle" x="412.5" y="-59.5" font-family="Helvetica,sans-Serif" font-size="10.00">_private.h</text>
</a>
</g>
</g>
<!-- Node1&#45;&gt;Node2 -->
<g id="edge1" class="edge">
<title>Node1&#45;&gt;Node2</title>
<path fill="none" stroke="#63b8ff" d="M473.25,-1693162.96C492.68,-1569321.83 505.81,-1429878.09 497.5,-1302563.22 497.03,-1295342.44 496.53,-1288076.63 496,-1280772.52"/>
<polygon fill="#63b8ff" stroke="#63b8ff" points="469.75,-1693162.95 473.25,-1693172.95 476.75,-1693162.95 469.75,-1693162.95"/>
</g>
<!-- Node3 -->
<g id="node3" class="node">
<title>Node3</title>
<g id="a_node3"><a xlink:href="sqsh__extract__private_8h.html" target="_top" xlink:title=" ">
<polygon fill="white" stroke="#666666" points="476.5,-1302746.18 310.5,-1302746.18 310.5,-1302693.22 476.5,-1302693.22 476.5,-1302746.18"/>
<text text-anchor="start" x="318.5" y="-1302732.68" font-family="Helvetica,sans-Serif" font-size="10.00">include/sqsh_extract</text>
<text text-anchor="middle" x="393.5" y="-1302698.22" font-family="Helvetica,sans-Serif" font-size="10.00">_private.h</text>
</a>
</g>
</g>
<!-- Node1&#45;&gt;Node3 -->
<g id="edge2" class="edge">
<title>Node1&#45;&gt;Node3</title>
<path fill="none" stroke="#63b8ff" d="M393.5,-1302771.01C393.5,-1302761.47 393.5,-1302753.29 393.5,-1302746.46"/>
<polygon fill="#63b8ff" stroke="#63b8ff" points="390,-1302770.89 393.5,-1302780.89 397,-1302770.89 390,-1302770.89"/>
</g>
<!-- Node10 -->
<g id="node10" class="node">
<title>Node10</title>
<g id="a_node10"><a xlink:href="sqsh__mapper__private_8h.html" target="_top" xlink:title=" ">
<polygon fill="white" stroke="#666666" points="290.75,-1302746.18 132.25,-1302746.18 132.25,-1302693.22 290.75,-1302693.22 290.75,-1302746.18"/>
<text text-anchor="start" x="140.25" y="-1302732.68" font-family="Helvetica,sans-Serif" font-size="10.00">include/sqsh_mapper</text>
<text text-anchor="middle" x="211.5" y="-1302722.18" font-family="Helvetica,sans-Serif" font-size="10.00">_private.h</text>
</a>
</g>
</g>
<!-- Node1&#45;&gt;Node10 -->
<g id="edge15" class="edge">
<title>Node1&#45;&gt;Node10</title>
<path fill="none" stroke="#63b8ff" d="M313.75,-1724951.83C265.13,-1524193.27 212.17,-1305475.33 211.51,-1302746.5"/>
<polygon fill="#63b8ff" stroke="#63b8ff" points="310.25,-1724951.74 313.75,-1724961.74 317.25,-1724951.74 310.25,-1724951.74"/>
</g>
<!-- Node4 -->
<g id="node4" class="node">
<title>Node4</title>
<g id="a_node4"><a xlink:href="sqsh__file__private_8h.html" target="_top" xlink:title=" ">
<polygon fill="white" stroke="#666666" points="318.75,-1302586.97 100.25,-1302586.97 100.25,-1302568.47 318.75,-1302568.47 318.75,-1302586.97"/>
<text text-anchor="middle" x="209.5" y="-1302573.47" font-family="Helvetica,sans-Serif" font-size="10.00">include/sqsh_file_private.h</text>
</a>
</g>
</g>
<!-- Node3&#45;&gt;Node4 -->
<g id="edge3" class="edge">
<title>Node3&#45;&gt;Node4</title>
<path fill="none" stroke="#63b8ff" d="M453.07,-1302686.71C476.94,-1302669.77 495.27,-1302648.35 478.5,-1302628.22 466.02,-1302613.24 358.82,-1302597.1 283.58,-1302587.46"/>
<polygon fill="#63b8ff" stroke="#63b8ff" points="451.44,-1302684.26 445.08,-1302692.74 455.33,-1302690.07 451.44,-1302684.26"/>
</g>
<!-- Node7 -->
<g id="node7" class="node">
<title>Node7</title>
<g id="a_node7"><a xlink:href="sqsh__metablock__private_8h.html" target="_top" xlink:title=" ">
<polygon fill="white" stroke="#666666" points="300,-1302657.22 119,-1302657.22 119,-1302628.22 300,-1302628.22 300,-1302657.22"/>
<text text-anchor="start" x="127" y="-1302643.72" font-family="Helvetica,sans-Serif" font-size="10.00">include/sqsh_metablock</text>
<text text-anchor="middle" x="209.5" y="-1302633.22" font-family="Helvetica,sans-Serif" font-size="10.00">_private.h</text>
</a>
</g>
</g>
<!-- Node3&#45;&gt;Node7 -->
<g id="edge8" class="edge">
<title>Node3&#45;&gt;Node7</title>
<path fill="none" stroke="#63b8ff" d="M319.93,-1302688.72C293.54,-1302677.97 265.05,-1302666.35 243.61,-1302657.62"/>
<polygon fill="#63b8ff" stroke="#63b8ff" points="318.34,-1302692.26 328.92,-1302692.79 320.98,-1302685.77 318.34,-1302692.26"/>
</g>
<!-- Node9 -->
<g id="node9" class="node">
<title>Node9</title>
<g id="a_node9"><a xlink:href="sqsh__table__private_8h.html" target="_top" xlink:title=" ">
<polygon fill="white" stroke="#666666" points="469,-1302657.22 318,-1302657.22 318,-1302628.22 469,-1302628.22 469,-1302657.22"/>
<text text-anchor="start" x="326" y="-1302643.72" font-family="Helvetica,sans-Serif" font-size="10.00">include/sqsh_table</text>
<text text-anchor="middle" x="393.5" y="-1302633.22" font-family="Helvetica,sans-Serif" font-size="10.00">_private.h</text>
</a>
</g>
</g>
<!-- Node3&#45;&gt;Node9 -->
<g id="edge13" class="edge">
<title>Node3&#45;&gt;Node9</title>
<path fill="none" stroke="#63b8ff" d="M393.5,-1302682.01C393.5,-1302673.29 393.5,-1302664.5 393.5,-1302657.55"/>
<polygon fill="#63b8ff" stroke="#63b8ff" points="390,-1302681.89 393.5,-1302691.89 397,-1302681.89 390,-1302681.89"/>
</g>
<!-- Node4&#45;&gt;Node2 -->
<g id="edge4" class="edge">
<title>Node4&#45;&gt;Node2</title>
<path fill="none" stroke="#63b8ff" d="M216.15,-1302557.87C219.03,-1302548.74 222.07,-1302537.54 223.5,-1302527.22 647.66,-1299472.23 581.18,-997683.95 496,-806052.2"/>
<polygon fill="#63b8ff" stroke="#63b8ff" points="212.58,-1302556.52 212.72,-1302567.11 219.22,-1302558.74 212.58,-1302556.52"/>
</g>
<!-- Node5 -->
<g id="node5" class="node">
<title>Node5</title>
<g id="a_node5"><a xlink:href="sqsh__directory__private_8h.html" target="_top" xlink:title=" ">
<polygon fill="white" stroke="#666666" points="181,-651309.11 0,-651309.11 0,-651272.61 181,-651272.61 181,-651309.11"/>
<text text-anchor="start" x="8" y="-651295.61" font-family="Helvetica,sans-Serif" font-size="10.00">include/sqsh_directory</text>
<text text-anchor="middle" x="90.5" y="-651285.11" font-family="Helvetica,sans-Serif" font-size="10.00">_private.h</text>
</a>
</g>
</g>
<!-- Node4&#45;&gt;Node5 -->
<g id="edge5" class="edge">
<title>Node4&#45;&gt;Node5</title>
<path fill="none" stroke="#63b8ff" d="M202.85,-1302557.87C199.97,-1302548.74 196.93,-1302537.54 195.5,-1302527.22 -114.39,-1300294.22 89.26,-655207.5 90.49,-651309.6"/>
<polygon fill="#63b8ff" stroke="#63b8ff" points="199.78,-1302558.74 206.28,-1302567.11 206.42,-1302556.52 199.78,-1302558.74"/>
</g>
<!-- Node6 -->
<g id="node6" class="node">
<title>Node6</title>
<g id="a_node6"><a xlink:href="sqsh__tree__private_8h.html" target="_top" xlink:title=" ">
<polygon fill="white" stroke="#666666" points="258.75,-18.5 40.25,-18.5 40.25,0 258.75,0 258.75,-18.5"/>
<text text-anchor="middle" x="149.5" y="-5" font-family="Helvetica,sans-Serif" font-size="10.00">include/sqsh_tree_private.h</text>
</a>
</g>
</g>
<!-- Node4&#45;&gt;Node6 -->
<g id="edge7" class="edge">
<title>Node4&#45;&gt;Node6</title>
<path fill="none" stroke="#63b8ff" d="M209.5,-1302557.11C209.41,-1296742.95 189.5,-54.5 189.5,-54.5 183.84,-39.81 170.8,-26.96 161.14,-18.95"/>
<polygon fill="#63b8ff" stroke="#63b8ff" points="206,-1302556.99 209.5,-1302566.99 213,-1302556.99 206,-1302556.99"/>
</g>
<!-- Node5&#45;&gt;Node6 -->
<g id="edge6" class="edge">
<title>Node5&#45;&gt;Node6</title>
<path fill="none" stroke="#63b8ff" d="M90.5,-651261.56C90.95,-646346.11 149.26,-2692.19 149.5,-18.6"/>
<polygon fill="#63b8ff" stroke="#63b8ff" points="87,-651261.42 90.5,-651271.42 94,-651261.42 87,-651261.42"/>
</g>
<!-- Node7&#45;&gt;Node4 -->
<g id="edge10" class="edge">
<title>Node7&#45;&gt;Node4</title>
<path fill="none" stroke="#63b8ff" d="M209.5,-1302617.04C209.5,-1302606.58 209.5,-1302595.07 209.5,-1302587.42"/>
<polygon fill="#63b8ff" stroke="#63b8ff" points="206,-1302616.74 209.5,-1302626.74 213,-1302616.74 206,-1302616.74"/>
</g>
<!-- Node7&#45;&gt;Node5 -->
<g id="edge9" class="edge">
<title>Node7&#45;&gt;Node5</title>
<path fill="none" stroke="#63b8ff" d="M130.5,-1302623.62C115.12,-1302616.4 100.87,-1302606.31 91.5,-1302592.22 91.5,-1302592.22 90.51,-655181.75 90.5,-651309.3"/>
<polygon fill="#63b8ff" stroke="#63b8ff" points="128.63,-1302627.05 139.2,-1302627.76 131.37,-1302620.61 128.63,-1302627.05"/>
</g>
<!-- Node8 -->
<g id="node8" class="node">
<title>Node8</title>
<g id="a_node8"><a xlink:href="sqsh__xattr__private_8h.html" target="_top" xlink:title=" ">
<polygon fill="white" stroke="#666666" points="488,-1302592.22 337,-1302592.22 337,-1302563.22 488,-1302563.22 488,-1302592.22"/>
<text text-anchor="start" x="345" y="-1302578.72" font-family="Helvetica,sans-Serif" font-size="10.00">include/sqsh_xattr</text>
<text text-anchor="middle" x="412.5" y="-1302568.22" font-family="Helvetica,sans-Serif" font-size="10.00">_private.h</text>
</a>
</g>
</g>
<!-- Node7&#45;&gt;Node8 -->
<g id="edge11" class="edge">
<title>Node7&#45;&gt;Node8</title>
<path fill="none" stroke="#63b8ff" d="M264.73,-1302624.58C297.02,-1302614.56 337.25,-1302602.07 367.57,-1302592.66"/>
<polygon fill="#63b8ff" stroke="#63b8ff" points="264.07,-1302621.43 255.55,-1302627.74 266.14,-1302628.12 264.07,-1302621.43"/>
</g>
<!-- Node8&#45;&gt;Node2 -->
<g id="edge12" class="edge">
<title>Node8&#45;&gt;Node2</title>
<path fill="none" stroke="#63b8ff" d="M412.5,-1302552.22C412.5,-1302545.39 412.5,-1302537.14 412.5,-1302527.47"/>
<polygon fill="#63b8ff" stroke="#63b8ff" points="409,-1302551.97 412.5,-1302561.97 416,-1302551.97 409,-1302551.97"/>
</g>
<!-- Node9&#45;&gt;Node8 -->
<g id="edge14" class="edge">
<title>Node9&#45;&gt;Node8</title>
<path fill="none" stroke="#63b8ff" d="M400.85,-1302617.36C403.37,-1302608.99 406.11,-1302599.91 408.3,-1302592.66"/>
<polygon fill="#63b8ff" stroke="#63b8ff" points="397.25,-1302616.15 397.72,-1302626.74 403.96,-1302618.17 397.25,-1302616.15"/>
</g>
<!-- Node10&#45;&gt;Node4 -->
<g id="edge16" class="edge">
<title>Node10&#45;&gt;Node4</title>
<path fill="none" stroke="#63b8ff" d="M136.98,-1302686.67C125.97,-1302678.67 116.12,-1302668.94 109.5,-1302657.22 103.16,-1302646 102.7,-1302639.17 109.5,-1302628.22 122.73,-1302606.91 148.17,-1302594.49 170.07,-1302587.42"/>
<polygon fill="#63b8ff" stroke="#63b8ff" points="134.76,-1302690.07 145.01,-1302692.72 138.65,-1302684.25 134.76,-1302690.07"/>
</g>
<!-- Node10&#45;&gt;Node7 -->
<g id="edge17" class="edge">
<title>Node10&#45;&gt;Node7</title>
<path fill="none" stroke="#63b8ff" d="M210.52,-1302682.01C210.29,-1302673.29 210.05,-1302664.5 209.87,-1302657.55"/>
<polygon fill="#63b8ff" stroke="#63b8ff" points="207.05,-1302681.99 210.81,-1302691.89 214.04,-1302681.8 207.05,-1302681.99"/>
</g>
<!-- Node10&#45;&gt;Node9 -->
<g id="edge18" class="edge">
<title>Node10&#45;&gt;Node9</title>
<path fill="none" stroke="#63b8ff" d="M284.27,-1302688.72C310.37,-1302677.97 338.56,-1302666.35 359.76,-1302657.62"/>
<polygon fill="#63b8ff" stroke="#63b8ff" points="283.3,-1302685.74 275.39,-1302692.79 285.97,-1302692.22 283.3,-1302685.74"/>
</g>
</g>
</svg>
