<?xml version="1.0" encoding="UTF-8" standalone="no"?>
<!DOCTYPE svg PUBLIC "-//W3C//DTD SVG 1.1//EN"
 "http://www.w3.org/Graphics/SVG/1.1/DTD/svg11.dtd">
<!-- Generated by graphviz version 7.0.5 (20221223.1930)
 -->
<!-- Title: sqsh_inode.h Pages: 1 -->
<svg width="352pt" height="137pt"
 viewBox="0.00 0.00 352.00 137.00" xmlns="http://www.w3.org/2000/svg" xmlns:xlink="http://www.w3.org/1999/xlink">
<g id="graph0" class="graph" transform="scale(1 1) rotate(0) translate(4 133)">
<title>sqsh_inode.h</title>
<!-- Node1 -->
<g id="node1" class="node">
<title>Node1</title>
<g id="a_node1"><a xlink:title=" ">
<polygon fill="#999999" stroke="#666666" points="220,-129 113,-129 113,-110 220,-110 220,-129"/>
<text text-anchor="middle" x="166.5" y="-117" font-family="Helvetica,sans-Serif" font-size="10.00">sqsh_inode.h</text>
</a>
</g>
</g>
<!-- Node2 -->
<g id="node2" class="node">
<title>Node2</title>
<g id="a_node2"><a xlink:href="sqsh__inode__private_8h.html" target="_top" xlink:title=" ">
<polygon fill="white" stroke="#666666" points="167,-74 0,-74 0,-55 167,-55 167,-74"/>
<text text-anchor="middle" x="83.5" y="-62" font-family="Helvetica,sans-Serif" font-size="10.00">sqsh_inode_private.h</text>
</a>
</g>
</g>
<!-- Node1&#45;&gt;Node2 -->
<g id="edge1" class="edge">
<title>Node1&#45;&gt;Node2</title>
<path fill="none" stroke="#63b8ff" d="M142.95,-103.46C128.23,-94.06 109.78,-82.28 97.37,-74.36"/>
<polygon fill="#63b8ff" stroke="#63b8ff" points="140.83,-106.26 151.14,-108.69 144.6,-100.36 140.83,-106.26"/>
</g>
<!-- Node3 -->
<g id="node3" class="node">
<title>Node3</title>
<g id="a_node3"><a xlink:href="sqsh__iterator_8h.html" target="_top" xlink:title=" ">
<polygon fill="white" stroke="#666666" points="314,-74 185,-74 185,-55 314,-55 314,-74"/>
<text text-anchor="middle" x="249.5" y="-62" font-family="Helvetica,sans-Serif" font-size="10.00">sqsh_iterator.h</text>
</a>
</g>
</g>
<!-- Node1&#45;&gt;Node3 -->
<g id="edge2" class="edge">
<title>Node1&#45;&gt;Node3</title>
<path fill="none" stroke="#63b8ff" d="M190.05,-103.46C204.77,-94.06 223.22,-82.28 235.63,-74.36"/>
<polygon fill="#63b8ff" stroke="#63b8ff" points="188.4,-100.36 181.86,-108.69 192.17,-106.26 188.4,-100.36"/>
</g>
<!-- Node4 -->
<g id="node4" class="node">
<title>Node4</title>
<g id="a_node4"><a xlink:href="sqsh__iterator__private_8h.html" target="_top" xlink:title=" ">
<polygon fill="white" stroke="#666666" points="344,-19 155,-19 155,0 344,0 344,-19"/>
<text text-anchor="middle" x="249.5" y="-7" font-family="Helvetica,sans-Serif" font-size="10.00">sqsh_iterator_private.h</text>
</a>
</g>
</g>
<!-- Node3&#45;&gt;Node4 -->
<g id="edge3" class="edge">
<title>Node3&#45;&gt;Node4</title>
<path fill="none" stroke="#63b8ff" d="M249.5,-43.35C249.5,-35.1 249.5,-25.97 249.5,-19.44"/>
<polygon fill="#63b8ff" stroke="#63b8ff" points="246,-43.23 249.5,-53.23 253,-43.23 246,-43.23"/>
</g>
</g>
</svg>
