<?xml version="1.0" encoding="UTF-8" standalone="no"?>
<!DOCTYPE svg PUBLIC "-//W3C//DTD SVG 1.1//EN"
 "http://www.w3.org/Graphics/SVG/1.1/DTD/svg11.dtd">
<!-- Generated by graphviz version 3.0.0 (20220413.0242)
 -->
<!-- Title: SqshMetablockContext Pages: 1 -->
<!--zoomable 389 -->
<svg id="main" version="1.1" xmlns="http://www.w3.org/2000/svg" xmlns:xlink="http://www.w3.org/1999/xlink" xml:space="preserve" onload="init(evt)">
<style type="text/css"><![CDATA[
.edge:hover path { stroke: red; }
.edge:hover polygon { stroke: red; fill: red; }
]]></style>
<script type="text/javascript"><![CDATA[
var edges = document.getElementsByTagName('g');
if (edges && edges.length) {
  for (var i=0;i<edges.length;i++) {
    if (edges[i].id.substr(0,4)=='edge') {
      edges[i].setAttribute('class','edge');
    }
  }
}
]]></script>
        <defs>
                <circle id="rim" cx="0" cy="0" r="7"/>
                <circle id="rim2" cx="0" cy="0" r="3.5"/>
                <g id="zoomPlus">
                        <use xlink:href="#rim" fill="#404040">
                                <set attributeName="fill" to="#808080" begin="zoomplus.mouseover" end="zoomplus.mouseout"/>
                        </use>
                        <path d="M-4,0h8M0,-4v8" fill="none" stroke="white" stroke-width="1.5" pointer-events="none"/>
                </g>
                <g id="zoomMin">
                        <use xlink:href="#rim" fill="#404040">
                                <set attributeName="fill" to="#808080" begin="zoomminus.mouseover" end="zoomminus.mouseout"/>
                        </use>
                        <path d="M-4,0h8" fill="none" stroke="white" stroke-width="1.5" pointer-events="none"/>
                </g>
                <g id="dirArrow">
                        <path fill="none" stroke="white" stroke-width="1.5" d="M0,-3.0v7 M-2.5,-0.5L0,-3.0L2.5,-0.5"/>
                </g>
               <g id="resetDef">
                       <use xlink:href="#rim2" fill="#404040">
                               <set attributeName="fill" to="#808080" begin="reset.mouseover" end="reset.mouseout"/>
                       </use>
               </g>
        </defs>

<script type="text/javascript">
var viewWidth = 905;
var viewHeight = 389;
var sectionId = 'dynsection-0';
</script>
<script xlink:href="svgpan.js"/>
<svg id="graph" class="graph">
<g id="viewport">
<title>SqshMetablockContext</title>
<polygon fill="white" stroke="transparent" points="-4,4 -4,-385 901,-385 901,4 -4,4"/>
<!-- Node1 -->
<g id="node1" class="node">
<title>Node1</title>
<g id="a_node1"><a xlink:title="The SqshMetablockContext struct.">
<polygon fill="#bfbfbf" stroke="black" points="730,-38.5 730,-57.5 897,-57.5 897,-38.5 730,-38.5"/>
<text text-anchor="middle" x="813.5" y="-45.5" font-family="Helvetica,sans-Serif" font-size="10.00">SqshMetablockContext</text>
</a>
</g>
</g>
<!-- Node2 -->
<g id="node2" class="node">
<title>Node2</title>
<g id="a_node2"><a xlink:href="structSqshMapping.html" target="_top" xlink:title=" ">
<polygon fill="white" stroke="black" points="489,-152.5 489,-171.5 588,-171.5 588,-152.5 489,-152.5"/>
<text text-anchor="middle" x="538.5" y="-159.5" font-family="Helvetica,sans-Serif" font-size="10.00">SqshMapping</text>
</a>
</g>
</g>
<!-- Node2&#45;&gt;Node1 -->
<g id="edge1" class="edge">
<title>Node2&#45;&gt;Node1</title>
<path fill="none" stroke="#9a32cd" stroke-dasharray="5,2" d="M571.71,-148.55C627.55,-125.23 740.98,-77.87 789.57,-57.58"/>
<polygon fill="#9a32cd" stroke="#9a32cd" points="570.19,-145.39 562.31,-152.48 572.88,-151.85 570.19,-145.39"/>
<text text-anchor="middle" x="666.5" y="-128" font-family="Helvetica,sans-Serif" font-size="10.00"> mapping</text>
</g>
<!-- Node3 -->
<g id="node3" class="node">
<title>Node3</title>
<g id="a_node3"><a xlink:href="structSqshMapper.html" target="_top" xlink:title=" ">
<polygon fill="white" stroke="black" points="274.5,-266.5 274.5,-285.5 366.5,-285.5 366.5,-266.5 274.5,-266.5"/>
<text text-anchor="middle" x="320.5" y="-273.5" font-family="Helvetica,sans-Serif" font-size="10.00">SqshMapper</text>
</a>
</g>
</g>
<!-- Node3&#45;&gt;Node2 -->
<g id="edge2" class="edge">
<title>Node3&#45;&gt;Node2</title>
<path fill="none" stroke="#9a32cd" stroke-dasharray="5,2" d="M364.46,-263.45C371.35,-261.35 378.38,-259.15 385,-257 416.81,-246.65 427.04,-248.74 456,-232 485.39,-215.01 514.18,-186.8 528.37,-171.91"/>
<polygon fill="#9a32cd" stroke="#9a32cd" points="363.12,-260.2 354.55,-266.44 365.14,-266.9 363.12,-260.2"/>
<text text-anchor="middle" x="429.5" y="-254" font-family="Helvetica,sans-Serif" font-size="10.00"> mapper</text>
</g>
<!-- Node4 -->
<g id="node4" class="node">
<title>Node4</title>
<g id="a_node4"><a xlink:href="structSqshMemoryMapperImpl.html" target="_top" xlink:title=" ">
<polygon fill="white" stroke="black" points="0,-361.5 0,-380.5 167,-380.5 167,-361.5 0,-361.5"/>
<text text-anchor="middle" x="83.5" y="-368.5" font-family="Helvetica,sans-Serif" font-size="10.00">SqshMemoryMapperImpl</text>
</a>
</g>
</g>
<!-- Node4&#45;&gt;Node3 -->
<g id="edge3" class="edge">
<title>Node4&#45;&gt;Node3</title>
<path fill="none" stroke="#9a32cd" stroke-dasharray="5,2" d="M139.89,-359.15C148.99,-356.94 158.29,-354.53 167,-352 199.13,-342.68 207.86,-341.52 238,-327 263.26,-314.83 290.47,-296.67 306.19,-285.62"/>
<polygon fill="#9a32cd" stroke="#9a32cd" points="139.05,-355.75 130.12,-361.45 140.66,-362.56 139.05,-355.75"/>
<text text-anchor="middle" x="211.5" y="-349" font-family="Helvetica,sans-Serif" font-size="10.00"> impl</text>
</g>
<!-- Node5 -->
<g id="node5" class="node">
<title>Node5</title>
<g id="a_node5"><a xlink:href="structSqshMmapFullMapper.html" target="_top" xlink:title=" ">
<polygon fill="white" stroke="black" points="7.5,-323.5 7.5,-342.5 159.5,-342.5 159.5,-323.5 7.5,-323.5"/>
<text text-anchor="middle" x="83.5" y="-330.5" font-family="Helvetica,sans-Serif" font-size="10.00">SqshMmapFullMapper</text>
</a>
</g>
</g>
<!-- Node5&#45;&gt;Node3 -->
<g id="edge4" class="edge">
<title>Node5&#45;&gt;Node3</title>
<path fill="none" stroke="#9a32cd" stroke-dasharray="5,2" d="M146.38,-321.45C174.48,-315.86 208.06,-308.7 238,-301 255.63,-296.47 275.13,-290.52 290.64,-285.56"/>
<polygon fill="#9a32cd" stroke="#9a32cd" points="145.43,-318.07 136.29,-323.44 146.78,-324.94 145.43,-318.07"/>
<text text-anchor="middle" x="211.5" y="-315" font-family="Helvetica,sans-Serif" font-size="10.00"> mc</text>
</g>
<!-- Node6 -->
<g id="node6" class="node">
<title>Node6</title>
<g id="a_node6"><a xlink:href="structSqshMmapMapper.html" target="_top" xlink:title=" ">
<polygon fill="white" stroke="black" points="22.5,-285.5 22.5,-304.5 144.5,-304.5 144.5,-285.5 22.5,-285.5"/>
<text text-anchor="middle" x="83.5" y="-292.5" font-family="Helvetica,sans-Serif" font-size="10.00">SqshMmapMapper</text>
</a>
</g>
</g>
<!-- Node6&#45;&gt;Node3 -->
<g id="edge5" class="edge">
<title>Node6&#45;&gt;Node3</title>
<path fill="none" stroke="#9a32cd" stroke-dasharray="5,2" d="M154.88,-289.31C193.59,-286.18 240.47,-282.39 274.29,-279.66"/>
<polygon fill="#9a32cd" stroke="#9a32cd" points="154.4,-285.84 144.71,-290.13 154.96,-292.81 154.4,-285.84"/>
<text text-anchor="middle" x="211.5" y="-289" font-family="Helvetica,sans-Serif" font-size="10.00"> mm</text>
</g>
<!-- Node7 -->
<g id="node7" class="node">
<title>Node7</title>
<g id="a_node7"><a xlink:href="structSqshStaticMapper.html" target="_top" xlink:title=" ">
<polygon fill="white" stroke="black" points="15,-247.5 15,-266.5 152,-266.5 152,-247.5 15,-247.5"/>
<text text-anchor="middle" x="83.5" y="-254.5" font-family="Helvetica,sans-Serif" font-size="10.00">SqshStaticMapper</text>
</a>
</g>
</g>
<!-- Node7&#45;&gt;Node3 -->
<g id="edge6" class="edge">
<title>Node7&#45;&gt;Node3</title>
<path fill="none" stroke="#9a32cd" stroke-dasharray="5,2" d="M162.39,-261.39C186.63,-262.94 213.44,-264.85 238,-267 249.77,-268.03 262.48,-269.34 274.27,-270.64"/>
<polygon fill="#9a32cd" stroke="#9a32cd" points="162.38,-257.89 152.18,-260.75 161.94,-264.87 162.38,-257.89"/>
<text text-anchor="middle" x="211.5" y="-270" font-family="Helvetica,sans-Serif" font-size="10.00"> sm</text>
</g>
<!-- Node8 -->
<g id="node8" class="node">
<title>Node8</title>
<g id="a_node8"><a xlink:href="structSqshCanaryMapper.html" target="_top" xlink:title=" ">
<polygon fill="white" stroke="black" points="15,-209.5 15,-228.5 152,-228.5 152,-209.5 15,-209.5"/>
<text text-anchor="middle" x="83.5" y="-216.5" font-family="Helvetica,sans-Serif" font-size="10.00">SqshCanaryMapper</text>
</a>
</g>
</g>
<!-- Node8&#45;&gt;Node3 -->
<g id="edge7" class="edge">
<title>Node8&#45;&gt;Node3</title>
<path fill="none" stroke="#9a32cd" stroke-dasharray="5,2" d="M162.06,-229.35C186.71,-233.78 213.83,-239.85 238,-248 246.48,-250.86 247.68,-253.71 256,-257 264.77,-260.48 274.44,-263.67 283.53,-266.42"/>
<polygon fill="#9a32cd" stroke="#9a32cd" points="162.47,-225.87 152.02,-227.61 161.28,-232.77 162.47,-225.87"/>
<text text-anchor="middle" x="211.5" y="-251" font-family="Helvetica,sans-Serif" font-size="10.00"> cn</text>
</g>
<!-- Node9 -->
<g id="node9" class="node">
<title>Node9</title>
<g id="a_node9"><a xlink:href="structSqshCurlMapper.html" target="_top" xlink:title=" ">
<polygon fill="white" stroke="black" points="22.5,-171.5 22.5,-190.5 144.5,-190.5 144.5,-171.5 22.5,-171.5"/>
<text text-anchor="middle" x="83.5" y="-178.5" font-family="Helvetica,sans-Serif" font-size="10.00">SqshCurlMapper</text>
</a>
</g>
</g>
<!-- Node9&#45;&gt;Node3 -->
<g id="edge8" class="edge">
<title>Node9&#45;&gt;Node3</title>
<path fill="none" stroke="#9a32cd" stroke-dasharray="5,2" d="M154.68,-185.11C183.19,-189.92 214.8,-199.66 238,-219 252.35,-230.97 241.82,-244.82 256,-257 261.33,-261.57 267.72,-265.05 274.37,-267.68"/>
<polygon fill="#9a32cd" stroke="#9a32cd" points="155.15,-181.64 144.74,-183.6 154.11,-188.56 155.15,-181.64"/>
<text text-anchor="middle" x="211.5" y="-222" font-family="Helvetica,sans-Serif" font-size="10.00"> cl</text>
</g>
<!-- Node10 -->
<g id="node10" class="node">
<title>Node10</title>
<g id="a_node10"><a xlink:href="structSqshMmapFullMap.html" target="_top" xlink:title=" ">
<polygon fill="white" stroke="black" points="256,-228.5 256,-247.5 385,-247.5 385,-228.5 256,-228.5"/>
<text text-anchor="middle" x="320.5" y="-235.5" font-family="Helvetica,sans-Serif" font-size="10.00">SqshMmapFullMap</text>
</a>
</g>
</g>
<!-- Node10&#45;&gt;Node2 -->
<g id="edge9" class="edge">
<title>Node10&#45;&gt;Node2</title>
<path fill="none" stroke="#9a32cd" stroke-dasharray="5,2" d="M373.37,-226.03C398.64,-219.62 429.26,-210.98 456,-201 478.63,-192.55 503.53,-180.15 519.77,-171.62"/>
<polygon fill="#9a32cd" stroke="#9a32cd" points="372.47,-222.65 363.61,-228.46 374.16,-229.44 372.47,-222.65"/>
<text text-anchor="middle" x="429.5" y="-220" font-family="Helvetica,sans-Serif" font-size="10.00"> mc</text>
</g>
<!-- Node11 -->
<g id="node11" class="node">
<title>Node11</title>
<g id="a_node11"><a xlink:href="structSqshMmapMap.html" target="_top" xlink:title=" ">
<polygon fill="white" stroke="black" points="271,-190.5 271,-209.5 370,-209.5 370,-190.5 271,-190.5"/>
<text text-anchor="middle" x="320.5" y="-197.5" font-family="Helvetica,sans-Serif" font-size="10.00">SqshMmapMap</text>
</a>
</g>
</g>
<!-- Node11&#45;&gt;Node2 -->
<g id="edge10" class="edge">
<title>Node11&#45;&gt;Node2</title>
<path fill="none" stroke="#9a32cd" stroke-dasharray="5,2" d="M379.95,-190.17C403.58,-186.15 431.1,-181.42 456,-177 466.62,-175.11 478.02,-173.05 488.82,-171.06"/>
<polygon fill="#9a32cd" stroke="#9a32cd" points="379.36,-186.72 370.08,-191.84 380.53,-193.62 379.36,-186.72"/>
<text text-anchor="middle" x="429.5" y="-189" font-family="Helvetica,sans-Serif" font-size="10.00"> mm</text>
</g>
<!-- Node12 -->
<g id="node12" class="node">
<title>Node12</title>
<g id="a_node12"><a xlink:href="structSqshStaticMap.html" target="_top" xlink:title=" ">
<polygon fill="white" stroke="black" points="263.5,-152.5 263.5,-171.5 377.5,-171.5 377.5,-152.5 263.5,-152.5"/>
<text text-anchor="middle" x="320.5" y="-159.5" font-family="Helvetica,sans-Serif" font-size="10.00">SqshStaticMap</text>
</a>
</g>
</g>
<!-- Node12&#45;&gt;Node2 -->
<g id="edge11" class="edge">
<title>Node12&#45;&gt;Node2</title>
<path fill="none" stroke="#9a32cd" stroke-dasharray="5,2" d="M388.04,-162C420.63,-162 459.15,-162 488.93,-162"/>
<polygon fill="#9a32cd" stroke="#9a32cd" points="387.69,-158.5 377.69,-162 387.69,-165.5 387.69,-158.5"/>
<text text-anchor="middle" x="429.5" y="-165" font-family="Helvetica,sans-Serif" font-size="10.00"> sm</text>
</g>
<!-- Node13 -->
<g id="node13" class="node">
<title>Node13</title>
<g id="a_node13"><a xlink:href="structSqshCanaryMap.html" target="_top" xlink:title=" ">
<polygon fill="white" stroke="black" points="263.5,-114.5 263.5,-133.5 377.5,-133.5 377.5,-114.5 263.5,-114.5"/>
<text text-anchor="middle" x="320.5" y="-121.5" font-family="Helvetica,sans-Serif" font-size="10.00">SqshCanaryMap</text>
</a>
</g>
</g>
<!-- Node13&#45;&gt;Node2 -->
<g id="edge12" class="edge">
<title>Node13&#45;&gt;Node2</title>
<path fill="none" stroke="#9a32cd" stroke-dasharray="5,2" d="M387.91,-135.19C409.63,-138.89 433.85,-143.07 456,-147 466.62,-148.89 478.02,-150.95 488.82,-152.94"/>
<polygon fill="#9a32cd" stroke="#9a32cd" points="388.25,-131.69 377.81,-133.47 387.08,-138.59 388.25,-131.69"/>
<text text-anchor="middle" x="429.5" y="-150" font-family="Helvetica,sans-Serif" font-size="10.00"> cn</text>
</g>
<!-- Node14 -->
<g id="node14" class="node">
<title>Node14</title>
<g id="a_node14"><a xlink:href="structSqshCurlMap.html" target="_top" xlink:title=" ">
<polygon fill="white" stroke="black" points="271,-76.5 271,-95.5 370,-95.5 370,-76.5 271,-76.5"/>
<text text-anchor="middle" x="320.5" y="-83.5" font-family="Helvetica,sans-Serif" font-size="10.00">SqshCurlMap</text>
</a>
</g>
</g>
<!-- Node14&#45;&gt;Node2 -->
<g id="edge13" class="edge">
<title>Node14&#45;&gt;Node2</title>
<path fill="none" stroke="#9a32cd" stroke-dasharray="5,2" d="M375.76,-97.97C400.57,-104.09 430.14,-112.3 456,-122 479.02,-130.64 504.25,-143.6 520.45,-152.41"/>
<polygon fill="#9a32cd" stroke="#9a32cd" points="376.33,-94.5 365.79,-95.56 374.69,-101.31 376.33,-94.5"/>
<text text-anchor="middle" x="429.5" y="-125" font-family="Helvetica,sans-Serif" font-size="10.00"> cl</text>
</g>
<!-- Node15 -->
<g id="node15" class="node">
<title>Node15</title>
<g id="a_node15"><a xlink:href="structSqshBuffer.html" target="_top" xlink:title="The SqshBuffer struct is a buffer for arbitrary data.">
<polygon fill="white" stroke="black" points="37.5,-56.5 37.5,-75.5 129.5,-75.5 129.5,-56.5 37.5,-56.5"/>
<text text-anchor="middle" x="83.5" y="-63.5" font-family="Helvetica,sans-Serif" font-size="10.00">SqshBuffer</text>
</a>
</g>
</g>
<!-- Node15&#45;&gt;Node1 -->
<g id="edge15" class="edge">
<title>Node15&#45;&gt;Node1</title>
<path fill="none" stroke="#9a32cd" stroke-dasharray="5,2" d="M140.04,-64.63C267.24,-61.48 580.2,-53.74 729.99,-50.04"/>
<polygon fill="#9a32cd" stroke="#9a32cd" points="139.68,-61.13 129.76,-64.88 139.85,-68.13 139.68,-61.13"/>
<text text-anchor="middle" x="429.5" y="-61" font-family="Helvetica,sans-Serif" font-size="10.00"> buffer</text>
</g>
<!-- Node15&#45;&gt;Node14 -->
<g id="edge14" class="edge">
<title>Node15&#45;&gt;Node14</title>
<path fill="none" stroke="#9a32cd" stroke-dasharray="5,2" d="M139.61,-70.69C179.44,-74.08 232.75,-78.62 270.98,-81.87"/>
<polygon fill="#9a32cd" stroke="#9a32cd" points="139.79,-67.19 129.53,-69.83 139.2,-74.17 139.79,-67.19"/>
<text text-anchor="middle" x="211.5" y="-81" font-family="Helvetica,sans-Serif" font-size="10.00"> buffer</text>
</g>
<!-- Node16 -->
<g id="node16" class="node">
<title>Node16</title>
<g id="a_node16"><a xlink:href="structSqshCompression.html" target="_top" xlink:title=" ">
<polygon fill="white" stroke="black" points="474,-0.5 474,-19.5 603,-19.5 603,-0.5 474,-0.5"/>
<text text-anchor="middle" x="538.5" y="-7.5" font-family="Helvetica,sans-Serif" font-size="10.00">SqshCompression</text>
</a>
</g>
</g>
<!-- Node16&#45;&gt;Node1 -->
<g id="edge16" class="edge">
<title>Node16&#45;&gt;Node1</title>
<path fill="none" stroke="#9a32cd" stroke-dasharray="5,2" d="M613.47,-12.83C644.1,-14.71 679.9,-17.84 712,-23 735.08,-26.71 760.63,-33.1 780.2,-38.49"/>
<polygon fill="#9a32cd" stroke="#9a32cd" points="613.48,-9.33 603.29,-12.24 613.07,-16.31 613.48,-9.33"/>
<text text-anchor="middle" x="666.5" y="-26" font-family="Helvetica,sans-Serif" font-size="10.00"> compression</text>
</g>
</g>
</svg>
        <g id="navigator" transform="translate(0 0)" fill="#404254">
                <rect fill="#f2f5e9" fill-opacity="0.5" stroke="#606060" stroke-width=".5" x="0" y="0" width="60" height="60"/>
                <use id="zoomplus" xlink:href="#zoomPlus" x="17" y="9" onmousedown="handleZoom(evt,'in')"/>
                <use id="zoomminus" xlink:href="#zoomMin" x="42" y="9" onmousedown="handleZoom(evt,'out')"/>
                <use id="reset" xlink:href="#resetDef" x="30" y="36" onmousedown="handleReset()"/>
                <g id="arrowUp" xlink:href="#dirArrow" transform="translate(30 24)" onmousedown="handlePan(0,-1)">
                  <use xlink:href="#rim" fill="#404040">
                        <set attributeName="fill" to="#808080" begin="arrowUp.mouseover" end="arrowUp.mouseout"/>
                  </use>
                  <path fill="none" stroke="white" stroke-width="1.5" d="M0,-3.0v7 M-2.5,-0.5L0,-3.0L2.5,-0.5"/>
                </g>
                <g id="arrowRight" xlink:href="#dirArrow" transform="rotate(90) translate(36 -43)" onmousedown="handlePan(1,0)">
                  <use xlink:href="#rim" fill="#404040">
                        <set attributeName="fill" to="#808080" begin="arrowRight.mouseover" end="arrowRight.mouseout"/>
                  </use>
                  <path fill="none" stroke="white" stroke-width="1.5" d="M0,-3.0v7 M-2.5,-0.5L0,-3.0L2.5,-0.5"/>
                </g>
                <g id="arrowDown" xlink:href="#dirArrow" transform="rotate(180) translate(-30 -48)" onmousedown="handlePan(0,1)">
                  <use xlink:href="#rim" fill="#404040">
                        <set attributeName="fill" to="#808080" begin="arrowDown.mouseover" end="arrowDown.mouseout"/>
                  </use>
                  <path fill="none" stroke="white" stroke-width="1.5" d="M0,-3.0v7 M-2.5,-0.5L0,-3.0L2.5,-0.5"/>
                </g>
                <g id="arrowLeft" xlink:href="#dirArrow" transform="rotate(270) translate(-36 17)" onmousedown="handlePan(-1,0)">
                  <use xlink:href="#rim" fill="#404040">
                        <set attributeName="fill" to="#808080" begin="arrowLeft.mouseover" end="arrowLeft.mouseout"/>
                  </use>
                  <path fill="none" stroke="white" stroke-width="1.5" d="M0,-3.0v7 M-2.5,-0.5L0,-3.0L2.5,-0.5"/>
                </g>
        </g>
        <svg viewBox="0 0 15 15" width="100%" height="30px" preserveAspectRatio="xMaxYMin meet">
         <g id="arrow_out" transform="scale(0.3 0.3)">
          <a xlink:href="structSqshMetablockContext__coll__graph_org.svg" target="_base">
           <rect id="button" ry="5" rx="5" y="6" x="6" height="38" width="38"
                fill="#f2f5e9" fill-opacity="0.5" stroke="#606060" stroke-width="1.0"/>
           <path id="arrow"
             d="M 11.500037,31.436501 C 11.940474,20.09759 22.043105,11.32322 32.158766,21.979434 L 37.068811,17.246167 C 37.068811,17.246167 37.088388,32 37.088388,32 L 22.160133,31.978069 C 22.160133,31.978069 26.997745,27.140456 26.997745,27.140456 C 18.528582,18.264221 13.291696,25.230495 11.500037,31.436501 z"
             style="fill:#404040;"/>
          </a>
         </g>
        </svg>
</svg>
