<?xml version="1.0" encoding="UTF-8" standalone="no"?>
<!DOCTYPE svg PUBLIC "-//W3C//DTD SVG 1.1//EN"
 "http://www.w3.org/Graphics/SVG/1.1/DTD/svg11.dtd">
<!-- Generated by graphviz version 3.0.0 (20220413.0242)
 -->
<!-- Title: SqshMetablockContext Pages: 1 -->
<svg width="1010pt" height="389pt"
 viewBox="0.00 0.00 1010.00 389.00" xmlns="http://www.w3.org/2000/svg" xmlns:xlink="http://www.w3.org/1999/xlink">
<g id="graph0" class="graph" transform="scale(1 1) rotate(0) translate(4 385)">
<title>SqshMetablockContext</title>
<polygon fill="white" stroke="transparent" points="-4,4 -4,-385 1006,-385 1006,4 -4,4"/>
<!-- Node1 -->
<g id="node1" class="node">
<title>Node1</title>
<g id="a_node1"><a xlink:title="The SqshMetablockContext struct.">
<polygon fill="#bfbfbf" stroke="black" points="835,-38.5 835,-57.5 1002,-57.5 1002,-38.5 835,-38.5"/>
<text text-anchor="middle" x="918.5" y="-45.5" font-family="Helvetica,sans-Serif" font-size="10.00">SqshMetablockContext</text>
</a>
</g>
</g>
<!-- Node2 -->
<g id="node2" class="node">
<title>Node2</title>
<g id="a_node2"><a xlink:href="structSqshMapping.html" target="_top" xlink:title=" ">
<polygon fill="white" stroke="black" points="594,-152.5 594,-171.5 693,-171.5 693,-152.5 594,-152.5"/>
<text text-anchor="middle" x="643.5" y="-159.5" font-family="Helvetica,sans-Serif" font-size="10.00">SqshMapping</text>
</a>
</g>
</g>
<!-- Node2&#45;&gt;Node1 -->
<g id="edge1" class="edge">
<title>Node2&#45;&gt;Node1</title>
<path fill="none" stroke="#9a32cd" stroke-dasharray="5,2" d="M676.71,-148.55C732.55,-125.23 845.98,-77.87 894.57,-57.58"/>
<polygon fill="#9a32cd" stroke="#9a32cd" points="675.19,-145.39 667.31,-152.48 677.88,-151.85 675.19,-145.39"/>
<text text-anchor="middle" x="771.5" y="-128" font-family="Helvetica,sans-Serif" font-size="10.00"> mapping</text>
</g>
<!-- Node3 -->
<g id="node3" class="node">
<title>Node3</title>
<g id="a_node3"><a xlink:href="structSqshMapper.html" target="_top" xlink:title=" ">
<polygon fill="white" stroke="black" points="327,-266.5 327,-285.5 419,-285.5 419,-266.5 327,-266.5"/>
<text text-anchor="middle" x="373" y="-273.5" font-family="Helvetica,sans-Serif" font-size="10.00">SqshMapper</text>
</a>
</g>
</g>
<!-- Node3&#45;&gt;Node2 -->
<g id="edge2" class="edge">
<title>Node3&#45;&gt;Node2</title>
<path fill="none" stroke="#9a32cd" stroke-dasharray="5,2" d="M429.14,-270.49C468.13,-264.67 520.48,-252.84 561,-229 589.42,-212.28 618.16,-185.95 632.73,-171.79"/>
<polygon fill="#9a32cd" stroke="#9a32cd" points="428.43,-267.05 419.02,-271.91 429.41,-273.99 428.43,-267.05"/>
<text text-anchor="middle" x="534.5" y="-255" font-family="Helvetica,sans-Serif" font-size="10.00"> mapper</text>
</g>
<!-- Node4 -->
<g id="node4" class="node">
<title>Node4</title>
<g id="a_node4"><a xlink:href="structSqshMemoryMapperImpl.html" target="_top" xlink:title=" ">
<polygon fill="white" stroke="black" points="0,-361.5 0,-380.5 167,-380.5 167,-361.5 0,-361.5"/>
<text text-anchor="middle" x="83.5" y="-368.5" font-family="Helvetica,sans-Serif" font-size="10.00">SqshMemoryMapperImpl</text>
</a>
</g>
</g>
<!-- Node4&#45;&gt;Node3 -->
<g id="edge3" class="edge">
<title>Node4&#45;&gt;Node3</title>
<path fill="none" stroke="#9a32cd" stroke-dasharray="5,2" d="M139.89,-359.15C148.99,-356.94 158.29,-354.53 167,-352 234.8,-332.32 312.3,-301.12 349.61,-285.53"/>
<polygon fill="#9a32cd" stroke="#9a32cd" points="139.05,-355.75 130.12,-361.45 140.66,-362.56 139.05,-355.75"/>
<text text-anchor="middle" x="211.5" y="-348" font-family="Helvetica,sans-Serif" font-size="10.00"> impl</text>
</g>
<!-- Node5 -->
<g id="node5" class="node">
<title>Node5</title>
<g id="a_node5"><a xlink:href="structSqshMmapFullMapper.html" target="_top" xlink:title=" ">
<polygon fill="white" stroke="black" points="7.5,-323.5 7.5,-342.5 159.5,-342.5 159.5,-323.5 7.5,-323.5"/>
<text text-anchor="middle" x="83.5" y="-330.5" font-family="Helvetica,sans-Serif" font-size="10.00">SqshMmapFullMapper</text>
</a>
</g>
</g>
<!-- Node5&#45;&gt;Node3 -->
<g id="edge4" class="edge">
<title>Node5&#45;&gt;Node3</title>
<path fill="none" stroke="#9a32cd" stroke-dasharray="5,2" d="M143.42,-321.57C171.99,-316 206.79,-309.19 238,-303 267.56,-297.13 300.77,-290.44 326.73,-285.19"/>
<polygon fill="#9a32cd" stroke="#9a32cd" points="142.74,-318.13 133.6,-323.48 144.08,-325 142.74,-318.13"/>
<text text-anchor="middle" x="211.5" y="-315" font-family="Helvetica,sans-Serif" font-size="10.00"> mc</text>
</g>
<!-- Node6 -->
<g id="node6" class="node">
<title>Node6</title>
<g id="a_node6"><a xlink:href="structSqshMmapMapper.html" target="_top" xlink:title=" ">
<polygon fill="white" stroke="black" points="22.5,-285.5 22.5,-304.5 144.5,-304.5 144.5,-285.5 22.5,-285.5"/>
<text text-anchor="middle" x="83.5" y="-292.5" font-family="Helvetica,sans-Serif" font-size="10.00">SqshMmapMapper</text>
</a>
</g>
</g>
<!-- Node6&#45;&gt;Node3 -->
<g id="edge5" class="edge">
<title>Node6&#45;&gt;Node3</title>
<path fill="none" stroke="#9a32cd" stroke-dasharray="5,2" d="M154.9,-290.35C208.53,-286.8 280.77,-282.03 326.87,-278.98"/>
<polygon fill="#9a32cd" stroke="#9a32cd" points="154.52,-286.87 144.77,-291.02 154.98,-293.85 154.52,-286.87"/>
<text text-anchor="middle" x="211.5" y="-291" font-family="Helvetica,sans-Serif" font-size="10.00"> mm</text>
</g>
<!-- Node7 -->
<g id="node7" class="node">
<title>Node7</title>
<g id="a_node7"><a xlink:href="structSqshStaticMapper.html" target="_top" xlink:title=" ">
<polygon fill="white" stroke="black" points="15,-247.5 15,-266.5 152,-266.5 152,-247.5 15,-247.5"/>
<text text-anchor="middle" x="83.5" y="-254.5" font-family="Helvetica,sans-Serif" font-size="10.00">SqshStaticMapper</text>
</a>
</g>
</g>
<!-- Node7&#45;&gt;Node3 -->
<g id="edge6" class="edge">
<title>Node7&#45;&gt;Node3</title>
<path fill="none" stroke="#9a32cd" stroke-dasharray="5,2" d="M162.25,-262.14C214.88,-265.62 282.6,-270.09 326.64,-273"/>
<polygon fill="#9a32cd" stroke="#9a32cd" points="162.48,-258.65 152.27,-261.48 162.02,-265.63 162.48,-258.65"/>
<text text-anchor="middle" x="211.5" y="-270" font-family="Helvetica,sans-Serif" font-size="10.00"> sm</text>
</g>
<!-- Node8 -->
<g id="node8" class="node">
<title>Node8</title>
<g id="a_node8"><a xlink:href="structSqshCanaryMapper.html" target="_top" xlink:title=" ">
<polygon fill="white" stroke="black" points="15,-209.5 15,-228.5 152,-228.5 152,-209.5 15,-209.5"/>
<text text-anchor="middle" x="83.5" y="-216.5" font-family="Helvetica,sans-Serif" font-size="10.00">SqshCanaryMapper</text>
</a>
</g>
</g>
<!-- Node8&#45;&gt;Node3 -->
<g id="edge7" class="edge">
<title>Node8&#45;&gt;Node3</title>
<path fill="none" stroke="#9a32cd" stroke-dasharray="5,2" d="M162.06,-229.35C186.71,-233.78 213.83,-239.85 238,-248 246.48,-250.86 247.49,-254.25 256,-257 278.81,-264.38 305.12,-268.99 326.91,-271.82"/>
<polygon fill="#9a32cd" stroke="#9a32cd" points="162.47,-225.87 152.02,-227.61 161.28,-232.77 162.47,-225.87"/>
<text text-anchor="middle" x="211.5" y="-251" font-family="Helvetica,sans-Serif" font-size="10.00"> cn</text>
</g>
<!-- Node9 -->
<g id="node9" class="node">
<title>Node9</title>
<g id="a_node9"><a xlink:href="structSqshCurlMapper.html" target="_top" xlink:title=" ">
<polygon fill="white" stroke="black" points="22.5,-171.5 22.5,-190.5 144.5,-190.5 144.5,-171.5 22.5,-171.5"/>
<text text-anchor="middle" x="83.5" y="-178.5" font-family="Helvetica,sans-Serif" font-size="10.00">SqshCurlMapper</text>
</a>
</g>
</g>
<!-- Node9&#45;&gt;Node3 -->
<g id="edge8" class="edge">
<title>Node9&#45;&gt;Node3</title>
<path fill="none" stroke="#9a32cd" stroke-dasharray="5,2" d="M137.16,-192.84C147.09,-195.15 157.37,-197.6 167,-200 198.7,-207.89 212.91,-198.08 238,-219 252.35,-230.97 241.07,-245.76 256,-257 276.05,-272.1 303.61,-277.07 326.84,-278.17"/>
<polygon fill="#9a32cd" stroke="#9a32cd" points="137.92,-189.42 127.39,-190.58 136.34,-196.24 137.92,-189.42"/>
<text text-anchor="middle" x="211.5" y="-222" font-family="Helvetica,sans-Serif" font-size="10.00"> cl</text>
</g>
<!-- Node10 -->
<g id="node10" class="node">
<title>Node10</title>
<g id="a_node10"><a xlink:href="structSqshMmapFullMap.html" target="_top" xlink:title=" ">
<polygon fill="white" stroke="black" points="308.5,-228.5 308.5,-247.5 437.5,-247.5 437.5,-228.5 308.5,-228.5"/>
<text text-anchor="middle" x="373" y="-235.5" font-family="Helvetica,sans-Serif" font-size="10.00">SqshMmapFullMap</text>
</a>
</g>
</g>
<!-- Node10&#45;&gt;Node2 -->
<g id="edge9" class="edge">
<title>Node10&#45;&gt;Node2</title>
<path fill="none" stroke="#9a32cd" stroke-dasharray="5,2" d="M447.74,-227.69C482.72,-221.53 524.71,-212.26 561,-199 583.04,-190.95 607.43,-179.52 623.74,-171.5"/>
<polygon fill="#9a32cd" stroke="#9a32cd" points="446.86,-224.29 437.6,-229.43 448.04,-231.19 446.86,-224.29"/>
<text text-anchor="middle" x="534.5" y="-217" font-family="Helvetica,sans-Serif" font-size="10.00"> mc</text>
</g>
<!-- Node11 -->
<g id="node11" class="node">
<title>Node11</title>
<g id="a_node11"><a xlink:href="structSqshMmapMap.html" target="_top" xlink:title=" ">
<polygon fill="white" stroke="black" points="323.5,-190.5 323.5,-209.5 422.5,-209.5 422.5,-190.5 323.5,-190.5"/>
<text text-anchor="middle" x="373" y="-197.5" font-family="Helvetica,sans-Serif" font-size="10.00">SqshMmapMap</text>
</a>
</g>
</g>
<!-- Node11&#45;&gt;Node2 -->
<g id="edge10" class="edge">
<title>Node11&#45;&gt;Node2</title>
<path fill="none" stroke="#9a32cd" stroke-dasharray="5,2" d="M432.63,-193.7C469.54,-189.5 518.15,-183.57 561,-177 571.67,-175.36 583.08,-173.4 593.88,-171.44"/>
<polygon fill="#9a32cd" stroke="#9a32cd" points="432.09,-190.24 422.54,-194.83 432.87,-197.19 432.09,-190.24"/>
<text text-anchor="middle" x="534.5" y="-187" font-family="Helvetica,sans-Serif" font-size="10.00"> mm</text>
</g>
<!-- Node12 -->
<g id="node12" class="node">
<title>Node12</title>
<g id="a_node12"><a xlink:href="structSqshStaticMap.html" target="_top" xlink:title=" ">
<polygon fill="white" stroke="black" points="316,-152.5 316,-171.5 430,-171.5 430,-152.5 316,-152.5"/>
<text text-anchor="middle" x="373" y="-159.5" font-family="Helvetica,sans-Serif" font-size="10.00">SqshStaticMap</text>
</a>
</g>
</g>
<!-- Node12&#45;&gt;Node2 -->
<g id="edge11" class="edge">
<title>Node12&#45;&gt;Node2</title>
<path fill="none" stroke="#9a32cd" stroke-dasharray="5,2" d="M440.5,-162C488.07,-162 551.04,-162 593.94,-162"/>
<polygon fill="#9a32cd" stroke="#9a32cd" points="440.29,-158.5 430.29,-162 440.29,-165.5 440.29,-158.5"/>
<text text-anchor="middle" x="534.5" y="-165" font-family="Helvetica,sans-Serif" font-size="10.00"> sm</text>
</g>
<!-- Node13 -->
<g id="node13" class="node">
<title>Node13</title>
<g id="a_node13"><a xlink:href="structSqshCanaryMap.html" target="_top" xlink:title=" ">
<polygon fill="white" stroke="black" points="316,-114.5 316,-133.5 430,-133.5 430,-114.5 316,-114.5"/>
<text text-anchor="middle" x="373" y="-121.5" font-family="Helvetica,sans-Serif" font-size="10.00">SqshCanaryMap</text>
</a>
</g>
</g>
<!-- Node13&#45;&gt;Node2 -->
<g id="edge12" class="edge">
<title>Node13&#45;&gt;Node2</title>
<path fill="none" stroke="#9a32cd" stroke-dasharray="5,2" d="M440.49,-131.2C476.27,-135.32 521.13,-140.88 561,-147 571.67,-148.64 583.08,-150.6 593.88,-152.56"/>
<polygon fill="#9a32cd" stroke="#9a32cd" points="440.5,-127.68 430.17,-130.02 439.71,-134.64 440.5,-127.68"/>
<text text-anchor="middle" x="534.5" y="-150" font-family="Helvetica,sans-Serif" font-size="10.00"> cn</text>
</g>
<!-- Node14 -->
<g id="node14" class="node">
<title>Node14</title>
<g id="a_node14"><a xlink:href="structSqshCurlMap.html" target="_top" xlink:title=" ">
<polygon fill="white" stroke="black" points="323.5,-76.5 323.5,-95.5 422.5,-95.5 422.5,-76.5 323.5,-76.5"/>
<text text-anchor="middle" x="373" y="-83.5" font-family="Helvetica,sans-Serif" font-size="10.00">SqshCurlMap</text>
</a>
</g>
</g>
<!-- Node14&#45;&gt;Node2 -->
<g id="edge13" class="edge">
<title>Node14&#45;&gt;Node2</title>
<path fill="none" stroke="#9a32cd" stroke-dasharray="5,2" d="M432.97,-93.4C470.4,-99.2 519.45,-108.89 561,-124 583.45,-132.17 608.17,-144.14 624.44,-152.46"/>
<polygon fill="#9a32cd" stroke="#9a32cd" points="433.14,-89.88 422.73,-91.86 432.1,-96.81 433.14,-89.88"/>
<text text-anchor="middle" x="534.5" y="-127" font-family="Helvetica,sans-Serif" font-size="10.00"> cl</text>
</g>
<!-- Node15 -->
<g id="node15" class="node">
<title>Node15</title>
<g id="a_node15"><a xlink:href="structSqshBuffer.html" target="_top" xlink:title="The SqshBuffer struct is a buffer for arbitrary data.">
<polygon fill="white" stroke="black" points="37.5,-56.5 37.5,-75.5 129.5,-75.5 129.5,-56.5 37.5,-56.5"/>
<text text-anchor="middle" x="83.5" y="-63.5" font-family="Helvetica,sans-Serif" font-size="10.00">SqshBuffer</text>
</a>
</g>
</g>
<!-- Node15&#45;&gt;Node1 -->
<g id="edge15" class="edge">
<title>Node15&#45;&gt;Node1</title>
<path fill="none" stroke="#9a32cd" stroke-dasharray="5,2" d="M139.86,-64.8C282.91,-61.71 665.43,-53.45 834.82,-49.79"/>
<polygon fill="#9a32cd" stroke="#9a32cd" points="139.5,-61.31 129.58,-65.03 139.65,-68.31 139.5,-61.31"/>
<text text-anchor="middle" x="534.5" y="-59" font-family="Helvetica,sans-Serif" font-size="10.00"> buffer</text>
</g>
<!-- Node15&#45;&gt;Node14 -->
<g id="edge14" class="edge">
<title>Node15&#45;&gt;Node14</title>
<path fill="none" stroke="#9a32cd" stroke-dasharray="5,2" d="M139.99,-69.86C193.1,-73.55 272.42,-79.07 323.18,-82.6"/>
<polygon fill="#9a32cd" stroke="#9a32cd" points="139.96,-66.35 129.74,-69.15 139.47,-73.33 139.96,-66.35"/>
<text text-anchor="middle" x="211.5" y="-79" font-family="Helvetica,sans-Serif" font-size="10.00"> buffer</text>
</g>
<!-- Node16 -->
<g id="node16" class="node">
<title>Node16</title>
<g id="a_node16"><a xlink:href="structSqshCompression.html" target="_top" xlink:title=" ">
<polygon fill="white" stroke="black" points="579,-0.5 579,-19.5 708,-19.5 708,-0.5 579,-0.5"/>
<text text-anchor="middle" x="643.5" y="-7.5" font-family="Helvetica,sans-Serif" font-size="10.00">SqshCompression</text>
</a>
</g>
</g>
<!-- Node16&#45;&gt;Node1 -->
<g id="edge16" class="edge">
<title>Node16&#45;&gt;Node1</title>
<path fill="none" stroke="#9a32cd" stroke-dasharray="5,2" d="M718.47,-12.83C749.1,-14.71 784.9,-17.84 817,-23 840.08,-26.71 865.63,-33.1 885.2,-38.49"/>
<polygon fill="#9a32cd" stroke="#9a32cd" points="718.48,-9.33 708.29,-12.24 718.07,-16.31 718.48,-9.33"/>
<text text-anchor="middle" x="771.5" y="-26" font-family="Helvetica,sans-Serif" font-size="10.00"> compression</text>
</g>
<!-- Node17 -->
<g id="node17" class="node">
<title>Node17</title>
<g id="a_node17"><a xlink:href="structSqshCompressionImplementation.html" target="_top" xlink:title=" ">
<polygon fill="white" stroke="black" points="256,-0.5 256,-19.5 490,-19.5 490,-0.5 256,-0.5"/>
<text text-anchor="middle" x="373" y="-7.5" font-family="Helvetica,sans-Serif" font-size="10.00">SqshCompressionImplementation</text>
</a>
</g>
</g>
<!-- Node17&#45;&gt;Node16 -->
<g id="edge17" class="edge">
<title>Node17&#45;&gt;Node16</title>
<path fill="none" stroke="#9a32cd" stroke-dasharray="5,2" d="M500.24,-10C527.56,-10 555.32,-10 578.98,-10"/>
<polygon fill="#9a32cd" stroke="#9a32cd" points="500.21,-6.5 490.21,-10 500.21,-13.5 500.21,-6.5"/>
<text text-anchor="middle" x="534.5" y="-13" font-family="Helvetica,sans-Serif" font-size="10.00"> impl</text>
</g>
</g>
</svg>
