<?xml version="1.0" encoding="UTF-8" standalone="no"?>
<!DOCTYPE svg PUBLIC "-//W3C//DTD SVG 1.1//EN"
 "http://www.w3.org/Graphics/SVG/1.1/DTD/svg11.dtd">
<!-- Generated by graphviz version 3.0.0 (20220413.0242)
 -->
<!-- Title: HsqsXattrIterator Pages: 1 -->
<!--zoomable 422 -->
<svg id="main" version="1.1" xmlns="http://www.w3.org/2000/svg" xmlns:xlink="http://www.w3.org/1999/xlink" xml:space="preserve" onload="init(evt)">
<style type="text/css"><![CDATA[
.edge:hover path { stroke: red; }
.edge:hover polygon { stroke: red; fill: red; }
]]></style>
<script type="text/javascript"><![CDATA[
var edges = document.getElementsByTagName('g');
if (edges && edges.length) {
  for (var i=0;i<edges.length;i++) {
    if (edges[i].id.substr(0,4)=='edge') {
      edges[i].setAttribute('class','edge');
    }
  }
}
]]></script>
        <defs>
                <circle id="rim" cx="0" cy="0" r="7"/>
                <circle id="rim2" cx="0" cy="0" r="3.5"/>
                <g id="zoomPlus">
                        <use xlink:href="#rim" fill="#404040">
                                <set attributeName="fill" to="#808080" begin="zoomplus.mouseover" end="zoomplus.mouseout"/>
                        </use>
                        <path d="M-4,0h8M0,-4v8" fill="none" stroke="white" stroke-width="1.5" pointer-events="none"/>
                </g>
                <g id="zoomMin">
                        <use xlink:href="#rim" fill="#404040">
                                <set attributeName="fill" to="#808080" begin="zoomminus.mouseover" end="zoomminus.mouseout"/>
                        </use>
                        <path d="M-4,0h8" fill="none" stroke="white" stroke-width="1.5" pointer-events="none"/>
                </g>
                <g id="dirArrow">
                        <path fill="none" stroke="white" stroke-width="1.5" d="M0,-3.0v7 M-2.5,-0.5L0,-3.0L2.5,-0.5"/>
                </g>
               <g id="resetDef">
                       <use xlink:href="#rim2" fill="#404040">
                               <set attributeName="fill" to="#808080" begin="reset.mouseover" end="reset.mouseout"/>
                       </use>
               </g>
        </defs>

<script type="text/javascript">
var viewWidth = 2085;
var viewHeight = 422;
var sectionId = 'dynsection-0';
</script>
<script xlink:href="svgpan.js"/>
<svg id="graph" class="graph">
<g id="viewport">
<title>HsqsXattrIterator</title>
<polygon fill="white" stroke="transparent" points="-4,4 -4,-417.56 2081,-417.56 2081,4 -4,4"/>
<!-- Node1 -->
<g id="node1" class="node">
<title>Node1</title>
<g id="a_node1"><a xlink:title=" ">
<polygon fill="#bfbfbf" stroke="black" points="1933,-28.06 1933,-47.06 2077,-47.06 2077,-28.06 1933,-28.06"/>
<text text-anchor="middle" x="2005" y="-35.06" font-family="Helvetica,sans-Serif" font-size="10.00">HsqsXattrIterator</text>
</a>
</g>
</g>
<!-- Node2 -->
<g id="node2" class="node">
<title>Node2</title>
<g id="a_node2"><a xlink:href="structHsqsMetablockStreamContext.html" target="_top" xlink:title=" ">
<polygon fill="white" stroke="black" points="1398,-5.06 1398,-24.06 1610,-24.06 1610,-5.06 1398,-5.06"/>
<text text-anchor="middle" x="1504" y="-12.06" font-family="Helvetica,sans-Serif" font-size="10.00">HsqsMetablockStreamContext</text>
</a>
</g>
</g>
<!-- Node2&#45;&gt;Node1 -->
<g id="edge1" class="edge">
<title>Node2&#45;&gt;Node1</title>
<path fill="none" stroke="#9a32cd" stroke-dasharray="5,2" d="M1620.31,-19.88C1716.73,-24.32 1851.24,-30.52 1932.71,-34.28"/>
<polygon fill="#9a32cd" stroke="#9a32cd" points="1620.37,-16.37 1610.22,-19.41 1620.04,-23.37 1620.37,-16.37"/>
<text text-anchor="middle" x="1764" y="-43.56" font-family="Helvetica,sans-Serif" font-size="10.00"> metablock</text>
<text text-anchor="middle" x="1764" y="-32.56" font-family="Helvetica,sans-Serif" font-size="10.00">out_of_line_value</text>
</g>
<!-- Node3 -->
<g id="node3" class="node">
<title>Node3</title>
<g id="a_node3"><a xlink:href="structHsqs.html" target="_top" xlink:title=" ">
<polygon fill="white" stroke="black" points="1214,-158.06 1214,-177.06 1261,-177.06 1261,-158.06 1214,-158.06"/>
<text text-anchor="middle" x="1237.5" y="-165.06" font-family="Helvetica,sans-Serif" font-size="10.00">Hsqs</text>
</a>
</g>
</g>
<!-- Node3&#45;&gt;Node2 -->
<g id="edge2" class="edge">
<title>Node3&#45;&gt;Node2</title>
<path fill="none" stroke="#9a32cd" stroke-dasharray="5,2" d="M1237.61,-147.72C1237.36,-114.92 1242.26,-50.01 1282,-19.56 1300.32,-5.53 1350.19,-3.57 1397.93,-5.45"/>
<polygon fill="#9a32cd" stroke="#9a32cd" points="1234.12,-147.96 1237.87,-157.87 1241.12,-147.78 1234.12,-147.96"/>
<text text-anchor="middle" x="1331" y="-22.56" font-family="Helvetica,sans-Serif" font-size="10.00"> hsqs</text>
</g>
<!-- Node16 -->
<g id="node16" class="node">
<title>Node16</title>
<g id="a_node16"><a xlink:href="structHsqsTable.html" target="_top" xlink:title=" ">
<polygon fill="white" stroke="black" points="1462,-183.06 1462,-202.06 1546,-202.06 1546,-183.06 1462,-183.06"/>
<text text-anchor="middle" x="1504" y="-190.06" font-family="Helvetica,sans-Serif" font-size="10.00">HsqsTable</text>
</a>
</g>
</g>
<!-- Node3&#45;&gt;Node16 -->
<g id="edge18" class="edge">
<title>Node3&#45;&gt;Node16</title>
<path fill="none" stroke="#9a32cd" stroke-dasharray="5,2" d="M1271.18,-166.73C1274.83,-166.66 1278.49,-166.6 1282,-166.56 1325.55,-166.06 1336.68,-162.03 1380,-166.56 1409.85,-169.68 1443.12,-176.95 1467.52,-183.01"/>
<polygon fill="#9a32cd" stroke="#9a32cd" points="1271,-163.23 1261.08,-166.94 1271.15,-170.23 1271,-163.23"/>
<text text-anchor="middle" x="1331" y="-169.56" font-family="Helvetica,sans-Serif" font-size="10.00"> hsqs</text>
</g>
<!-- Node17 -->
<g id="node17" class="node">
<title>Node17</title>
<g id="a_node17"><a xlink:href="structHsqsXattrTable.html" target="_top" xlink:title=" ">
<polygon fill="white" stroke="black" points="1703,-229.06 1703,-248.06 1825,-248.06 1825,-229.06 1703,-229.06"/>
<text text-anchor="middle" x="1764" y="-236.06" font-family="Helvetica,sans-Serif" font-size="10.00">HsqsXattrTable</text>
</a>
</g>
</g>
<!-- Node3&#45;&gt;Node17 -->
<g id="edge22" class="edge">
<title>Node3&#45;&gt;Node17</title>
<path fill="none" stroke="#9a32cd" stroke-dasharray="5,2" d="M1249.64,-185.78C1257.29,-196.5 1268.49,-209.18 1282,-215.56 1426.2,-283.65 1622.56,-263.04 1713.29,-248.11"/>
<polygon fill="#9a32cd" stroke="#9a32cd" points="1252.53,-183.8 1244.08,-177.41 1246.7,-187.67 1252.53,-183.8"/>
<text text-anchor="middle" x="1504" y="-265.56" font-family="Helvetica,sans-Serif" font-size="10.00"> hsqs</text>
</g>
<!-- Node18 -->
<g id="node18" class="node">
<title>Node18</title>
<g id="a_node18"><a xlink:href="structHsqsFragmentTable.html" target="_top" xlink:title=" ">
<polygon fill="white" stroke="black" points="1692,-113.06 1692,-132.06 1836,-132.06 1836,-113.06 1692,-113.06"/>
<text text-anchor="middle" x="1764" y="-120.06" font-family="Helvetica,sans-Serif" font-size="10.00">HsqsFragmentTable</text>
</a>
</g>
</g>
<!-- Node3&#45;&gt;Node18 -->
<g id="edge28" class="edge">
<title>Node3&#45;&gt;Node18</title>
<path fill="none" stroke="#9a32cd" stroke-dasharray="5,2" d="M1271.12,-161.18C1274.78,-160.58 1278.47,-160.02 1282,-159.56 1359.14,-149.53 1577.57,-134.58 1691.64,-127.12"/>
<polygon fill="#9a32cd" stroke="#9a32cd" points="1270.25,-157.78 1261.01,-162.96 1271.46,-164.67 1270.25,-157.78"/>
<text text-anchor="middle" x="1504" y="-150.56" font-family="Helvetica,sans-Serif" font-size="10.00"> hsqs</text>
</g>
<!-- Node4 -->
<g id="node4" class="node">
<title>Node4</title>
<g id="a_node4"><a xlink:href="structHsqsMapper.html" target="_top" xlink:title=" ">
<polygon fill="white" stroke="black" points="312,-318.06 312,-337.06 404,-337.06 404,-318.06 312,-318.06"/>
<text text-anchor="middle" x="358" y="-325.06" font-family="Helvetica,sans-Serif" font-size="10.00">HsqsMapper</text>
</a>
</g>
</g>
<!-- Node4&#45;&gt;Node3 -->
<g id="edge3" class="edge">
<title>Node4&#45;&gt;Node3</title>
<path fill="none" stroke="#9a32cd" stroke-dasharray="5,2" d="M414.48,-319.86C451.69,-314.7 501.79,-307.73 546,-301.56 758.46,-271.9 812.13,-268.2 1024,-234.56 1099.34,-222.6 1123.99,-237.07 1193,-204.56 1206.99,-197.97 1220.08,-185.67 1228.18,-177.07"/>
<polygon fill="#9a32cd" stroke="#9a32cd" points="413.77,-316.43 404.35,-321.27 414.73,-323.36 413.77,-316.43"/>
<text text-anchor="middle" x="726.5" y="-296.56" font-family="Helvetica,sans-Serif" font-size="10.00"> mapper</text>
<text text-anchor="middle" x="726.5" y="-285.56" font-family="Helvetica,sans-Serif" font-size="10.00">table_mapper</text>
</g>
<!-- Node10 -->
<g id="node10" class="node">
<title>Node10</title>
<g id="a_node10"><a xlink:href="structHsqsMapping.html" target="_top" xlink:title=" ">
<polygon fill="white" stroke="black" points="564,-222.06 564,-241.06 663,-241.06 663,-222.06 564,-222.06"/>
<text text-anchor="middle" x="613.5" y="-229.06" font-family="Helvetica,sans-Serif" font-size="10.00">HsqsMapping</text>
</a>
</g>
</g>
<!-- Node4&#45;&gt;Node10 -->
<g id="edge10" class="edge">
<title>Node4&#45;&gt;Node10</title>
<path fill="none" stroke="#9a32cd" stroke-dasharray="5,2" d="M405.43,-315.26C443.81,-304.49 499.36,-287.46 546,-267.56 563.99,-259.88 583.57,-248.95 596.79,-241.15"/>
<polygon fill="#9a32cd" stroke="#9a32cd" points="404.27,-311.95 395.57,-318 406.15,-318.7 404.27,-311.95"/>
<text text-anchor="middle" x="519.5" y="-289.56" font-family="Helvetica,sans-Serif" font-size="10.00"> mapper</text>
</g>
<!-- Node4&#45;&gt;Node16 -->
<g id="edge19" class="edge">
<title>Node4&#45;&gt;Node16</title>
<path fill="none" stroke="#9a32cd" stroke-dasharray="5,2" d="M400.45,-339.81C450.3,-353.43 536.76,-373.56 612.5,-373.56 612.5,-373.56 612.5,-373.56 1118.5,-373.56 1183.47,-373.56 1204.06,-384.62 1264,-359.56 1335.61,-329.62 1333.48,-290.7 1398,-247.56 1425.37,-229.26 1459.54,-212.35 1481.32,-202.24"/>
<polygon fill="#9a32cd" stroke="#9a32cd" points="401.25,-336.4 390.68,-337.09 399.38,-343.14 401.25,-336.4"/>
<text text-anchor="middle" x="907" y="-376.56" font-family="Helvetica,sans-Serif" font-size="10.00"> mapper</text>
</g>
<!-- Node5 -->
<g id="node5" class="node">
<title>Node5</title>
<g id="a_node5"><a xlink:href="structHsqsMemoryMapperImpl.html" target="_top" xlink:title=" ">
<polygon fill="white" stroke="black" points="0,-394.06 0,-413.06 167,-413.06 167,-394.06 0,-394.06"/>
<text text-anchor="middle" x="83.5" y="-401.06" font-family="Helvetica,sans-Serif" font-size="10.00">HsqsMemoryMapperImpl</text>
</a>
</g>
</g>
<!-- Node5&#45;&gt;Node4 -->
<g id="edge4" class="edge">
<title>Node5&#45;&gt;Node4</title>
<path fill="none" stroke="#9a32cd" stroke-dasharray="5,2" d="M138.18,-391.73C147.81,-389.46 157.72,-387.02 167,-384.56 224.09,-369.44 289.96,-349 327.22,-337.15"/>
<polygon fill="#9a32cd" stroke="#9a32cd" points="137.25,-388.36 128.3,-394.03 138.84,-395.17 137.25,-388.36"/>
<text text-anchor="middle" x="204" y="-381.56" font-family="Helvetica,sans-Serif" font-size="10.00"> impl</text>
</g>
<!-- Node6 -->
<g id="node6" class="node">
<title>Node6</title>
<g id="a_node6"><a xlink:href="structHsqsMmapFullMapper.html" target="_top" xlink:title=" ">
<polygon fill="white" stroke="black" points="7.5,-356.06 7.5,-375.06 159.5,-375.06 159.5,-356.06 7.5,-356.06"/>
<text text-anchor="middle" x="83.5" y="-363.06" font-family="Helvetica,sans-Serif" font-size="10.00">HsqsMmapFullMapper</text>
</a>
</g>
</g>
<!-- Node6&#45;&gt;Node4 -->
<g id="edge5" class="edge">
<title>Node6&#45;&gt;Node4</title>
<path fill="none" stroke="#9a32cd" stroke-dasharray="5,2" d="M163.01,-354.61C211.21,-347.89 271.25,-339.52 311.66,-333.88"/>
<polygon fill="#9a32cd" stroke="#9a32cd" points="162.33,-351.17 152.91,-356.02 163.3,-358.11 162.33,-351.17"/>
<text text-anchor="middle" x="204" y="-353.56" font-family="Helvetica,sans-Serif" font-size="10.00"> mc</text>
</g>
<!-- Node7 -->
<g id="node7" class="node">
<title>Node7</title>
<g id="a_node7"><a xlink:href="structHsqsMmapMapper.html" target="_top" xlink:title=" ">
<polygon fill="white" stroke="black" points="22.5,-318.06 22.5,-337.06 144.5,-337.06 144.5,-318.06 22.5,-318.06"/>
<text text-anchor="middle" x="83.5" y="-325.06" font-family="Helvetica,sans-Serif" font-size="10.00">HsqsMmapMapper</text>
</a>
</g>
</g>
<!-- Node7&#45;&gt;Node4 -->
<g id="edge6" class="edge">
<title>Node7&#45;&gt;Node4</title>
<path fill="none" stroke="#9a32cd" stroke-dasharray="5,2" d="M154.64,-327.56C204.15,-327.56 269.04,-327.56 311.82,-327.56"/>
<polygon fill="#9a32cd" stroke="#9a32cd" points="154.64,-324.06 144.64,-327.56 154.64,-331.06 154.64,-324.06"/>
<text text-anchor="middle" x="204" y="-330.56" font-family="Helvetica,sans-Serif" font-size="10.00"> mm</text>
</g>
<!-- Node8 -->
<g id="node8" class="node">
<title>Node8</title>
<g id="a_node8"><a xlink:href="structHsqsStaticMapper.html" target="_top" xlink:title=" ">
<polygon fill="white" stroke="black" points="15,-280.06 15,-299.06 152,-299.06 152,-280.06 15,-280.06"/>
<text text-anchor="middle" x="83.5" y="-287.06" font-family="Helvetica,sans-Serif" font-size="10.00">HsqsStaticMapper</text>
</a>
</g>
</g>
<!-- Node8&#45;&gt;Node4 -->
<g id="edge7" class="edge">
<title>Node8&#45;&gt;Node4</title>
<path fill="none" stroke="#9a32cd" stroke-dasharray="5,2" d="M162.34,-300.42C210.73,-307.16 271.24,-315.6 311.84,-321.26"/>
<polygon fill="#9a32cd" stroke="#9a32cd" points="162.6,-296.92 152.21,-299 161.63,-303.85 162.6,-296.92"/>
<text text-anchor="middle" x="204" y="-311.56" font-family="Helvetica,sans-Serif" font-size="10.00"> sm</text>
</g>
<!-- Node9 -->
<g id="node9" class="node">
<title>Node9</title>
<g id="a_node9"><a xlink:href="structHsqsCanaryMapper.html" target="_top" xlink:title=" ">
<polygon fill="white" stroke="black" points="15,-242.06 15,-261.06 152,-261.06 152,-242.06 15,-242.06"/>
<text text-anchor="middle" x="83.5" y="-249.06" font-family="Helvetica,sans-Serif" font-size="10.00">HsqsCanaryMapper</text>
</a>
</g>
</g>
<!-- Node9&#45;&gt;Node4 -->
<g id="edge8" class="edge">
<title>Node9&#45;&gt;Node4</title>
<path fill="none" stroke="#9a32cd" stroke-dasharray="5,2" d="M138.18,-263.39C147.81,-265.66 157.72,-268.1 167,-270.56 224.09,-285.68 289.96,-306.12 327.22,-317.97"/>
<polygon fill="#9a32cd" stroke="#9a32cd" points="138.84,-259.95 128.3,-261.09 137.25,-266.77 138.84,-259.95"/>
<text text-anchor="middle" x="204" y="-287.56" font-family="Helvetica,sans-Serif" font-size="10.00"> cn</text>
</g>
<!-- Node10&#45;&gt;Node3 -->
<g id="edge9" class="edge">
<title>Node10&#45;&gt;Node3</title>
<path fill="none" stroke="#9a32cd" stroke-dasharray="5,2" d="M673.32,-228.16C799.92,-220.58 1094.72,-201.36 1193,-181.56 1199.84,-180.18 1207.12,-178.1 1213.73,-175.95"/>
<polygon fill="#9a32cd" stroke="#9a32cd" points="672.82,-224.69 663.05,-228.78 673.24,-231.68 672.82,-224.69"/>
<text text-anchor="middle" x="907" y="-222.56" font-family="Helvetica,sans-Serif" font-size="10.00"> table_map</text>
</g>
<!-- Node15 -->
<g id="node15" class="node">
<title>Node15</title>
<g id="a_node15"><a xlink:href="structHsqsSuperblockContext.html" target="_top" xlink:title=" ">
<polygon fill="white" stroke="black" points="820,-157.06 820,-176.06 994,-176.06 994,-157.06 820,-157.06"/>
<text text-anchor="middle" x="907" y="-164.06" font-family="Helvetica,sans-Serif" font-size="10.00">HsqsSuperblockContext</text>
</a>
</g>
</g>
<!-- Node10&#45;&gt;Node15 -->
<g id="edge16" class="edge">
<title>Node10&#45;&gt;Node15</title>
<path fill="none" stroke="#9a32cd" stroke-dasharray="5,2" d="M633.25,-215.5C645.88,-205.65 663.39,-193.77 681,-187.56 725.13,-172.01 776.96,-166.39 819.76,-164.83"/>
<polygon fill="#9a32cd" stroke="#9a32cd" points="630.91,-212.89 625.34,-221.9 635.32,-218.33 630.91,-212.89"/>
<text text-anchor="middle" x="726.5" y="-190.56" font-family="Helvetica,sans-Serif" font-size="10.00"> mapping</text>
</g>
<!-- Node10&#45;&gt;Node16 -->
<g id="edge20" class="edge">
<title>Node10&#45;&gt;Node16</title>
<path fill="none" stroke="#9a32cd" stroke-dasharray="5,2" d="M673.27,-237.15C675.88,-237.31 678.47,-237.45 681,-237.56 721.4,-239.38 731.56,-237.8 772,-237.56 1042.39,-235.95 1111.52,-247.69 1380,-215.56 1407.5,-212.27 1438.12,-206.55 1461.93,-201.64"/>
<polygon fill="#9a32cd" stroke="#9a32cd" points="673.35,-233.65 663.13,-236.46 672.87,-240.63 673.35,-233.65"/>
<text text-anchor="middle" x="1117.5" y="-240.56" font-family="Helvetica,sans-Serif" font-size="10.00"> lookup_table</text>
</g>
<!-- Node10&#45;&gt;Node17 -->
<g id="edge23" class="edge">
<title>Node10&#45;&gt;Node17</title>
<path fill="none" stroke="#9a32cd" stroke-dasharray="5,2" d="M651.31,-244.12C660.88,-246.97 671.24,-249.71 681,-251.56 1087.47,-328.81 1202.89,-385.38 1610,-311.56 1665.6,-301.48 1723.86,-265.46 1749.52,-248.08"/>
<polygon fill="#9a32cd" stroke="#9a32cd" points="652.27,-240.76 641.68,-241.14 650.2,-247.44 652.27,-240.76"/>
<text text-anchor="middle" x="1237.5" y="-348.56" font-family="Helvetica,sans-Serif" font-size="10.00"> header</text>
</g>
<!-- Node11 -->
<g id="node11" class="node">
<title>Node11</title>
<g id="a_node11"><a xlink:href="structHsqsMmapFullMap.html" target="_top" xlink:title=" ">
<polygon fill="white" stroke="black" points="293.5,-260.06 293.5,-279.06 422.5,-279.06 422.5,-260.06 293.5,-260.06"/>
<text text-anchor="middle" x="358" y="-267.06" font-family="Helvetica,sans-Serif" font-size="10.00">HsqsMmapFullMap</text>
</a>
</g>
</g>
<!-- Node11&#45;&gt;Node10 -->
<g id="edge11" class="edge">
<title>Node11&#45;&gt;Node10</title>
<path fill="none" stroke="#9a32cd" stroke-dasharray="5,2" d="M432.8,-261.47C467.28,-257.33 508.84,-251.85 546,-245.56 553.68,-244.26 561.82,-242.7 569.67,-241.1"/>
<polygon fill="#9a32cd" stroke="#9a32cd" points="432.32,-258 422.8,-262.65 433.14,-264.95 432.32,-258"/>
<text text-anchor="middle" x="519.5" y="-255.56" font-family="Helvetica,sans-Serif" font-size="10.00"> mc</text>
</g>
<!-- Node12 -->
<g id="node12" class="node">
<title>Node12</title>
<g id="a_node12"><a xlink:href="structHsqsMmapMap.html" target="_top" xlink:title=" ">
<polygon fill="white" stroke="black" points="308.5,-222.06 308.5,-241.06 407.5,-241.06 407.5,-222.06 308.5,-222.06"/>
<text text-anchor="middle" x="358" y="-229.06" font-family="Helvetica,sans-Serif" font-size="10.00">HsqsMmapMap</text>
</a>
</g>
</g>
<!-- Node12&#45;&gt;Node10 -->
<g id="edge12" class="edge">
<title>Node12&#45;&gt;Node10</title>
<path fill="none" stroke="#9a32cd" stroke-dasharray="5,2" d="M417.62,-231.56C461.9,-231.56 521.96,-231.56 563.66,-231.56"/>
<polygon fill="#9a32cd" stroke="#9a32cd" points="417.58,-228.06 407.58,-231.56 417.58,-235.06 417.58,-228.06"/>
<text text-anchor="middle" x="519.5" y="-234.56" font-family="Helvetica,sans-Serif" font-size="10.00"> mm</text>
</g>
<!-- Node13 -->
<g id="node13" class="node">
<title>Node13</title>
<g id="a_node13"><a xlink:href="structHsqsStaticMap.html" target="_top" xlink:title=" ">
<polygon fill="white" stroke="black" points="301,-184.06 301,-203.06 415,-203.06 415,-184.06 301,-184.06"/>
<text text-anchor="middle" x="358" y="-191.06" font-family="Helvetica,sans-Serif" font-size="10.00">HsqsStaticMap</text>
</a>
</g>
</g>
<!-- Node13&#45;&gt;Node10 -->
<g id="edge13" class="edge">
<title>Node13&#45;&gt;Node10</title>
<path fill="none" stroke="#9a32cd" stroke-dasharray="5,2" d="M425.59,-200.12C461.41,-204.06 506.26,-209.65 546,-216.56 554.86,-218.1 564.32,-220.05 573.25,-222.03"/>
<polygon fill="#9a32cd" stroke="#9a32cd" points="425.59,-196.6 415.27,-199.01 424.83,-203.56 425.59,-196.6"/>
<text text-anchor="middle" x="519.5" y="-219.56" font-family="Helvetica,sans-Serif" font-size="10.00"> sm</text>
</g>
<!-- Node14 -->
<g id="node14" class="node">
<title>Node14</title>
<g id="a_node14"><a xlink:href="structHsqsCanaryMap.html" target="_top" xlink:title=" ">
<polygon fill="white" stroke="black" points="301,-146.06 301,-165.06 415,-165.06 415,-146.06 301,-146.06"/>
<text text-anchor="middle" x="358" y="-153.06" font-family="Helvetica,sans-Serif" font-size="10.00">HsqsCanaryMap</text>
</a>
</g>
</g>
<!-- Node14&#45;&gt;Node10 -->
<g id="edge14" class="edge">
<title>Node14&#45;&gt;Node10</title>
<path fill="none" stroke="#9a32cd" stroke-dasharray="5,2" d="M425.1,-162.76C461.72,-168.27 507.49,-177.72 546,-193.56 564.94,-201.35 585.16,-213.52 598.26,-221.98"/>
<polygon fill="#9a32cd" stroke="#9a32cd" points="425.43,-159.27 415.03,-161.31 424.43,-166.2 425.43,-159.27"/>
<text text-anchor="middle" x="519.5" y="-196.56" font-family="Helvetica,sans-Serif" font-size="10.00"> cn</text>
</g>
<!-- Node15&#45;&gt;Node3 -->
<g id="edge15" class="edge">
<title>Node15&#45;&gt;Node3</title>
<path fill="none" stroke="#9a32cd" stroke-dasharray="5,2" d="M1004.41,-166.85C1077.03,-167.08 1171.13,-167.36 1213.74,-167.49"/>
<polygon fill="#9a32cd" stroke="#9a32cd" points="1004.32,-163.35 994.31,-166.82 1004.3,-170.35 1004.32,-163.35"/>
<text text-anchor="middle" x="1117.5" y="-169.56" font-family="Helvetica,sans-Serif" font-size="10.00"> superblock</text>
</g>
<!-- Node15&#45;&gt;Node18 -->
<g id="edge26" class="edge">
<title>Node15&#45;&gt;Node18</title>
<path fill="none" stroke="#9a32cd" stroke-dasharray="5,2" d="M935.05,-152.45C961.53,-139.36 1003.4,-120.6 1042,-111.56 1285.78,-54.46 1588.72,-93.29 1709.59,-113.01"/>
<polygon fill="#9a32cd" stroke="#9a32cd" points="933.39,-149.36 926.03,-156.98 936.53,-155.62 933.39,-149.36"/>
<text text-anchor="middle" x="1331" y="-85.56" font-family="Helvetica,sans-Serif" font-size="10.00"> superblock</text>
</g>
<!-- Node16&#45;&gt;Node3 -->
<g id="edge17" class="edge">
<title>Node16&#45;&gt;Node3</title>
<path fill="none" stroke="#9a32cd" stroke-dasharray="5,2" d="M1451.88,-192.59C1406.87,-191.9 1339.69,-189.11 1282,-179.56 1275.2,-178.44 1267.93,-176.67 1261.33,-174.83"/>
<polygon fill="#9a32cd" stroke="#9a32cd" points="1451.94,-196.09 1461.98,-192.72 1452.03,-189.09 1451.94,-196.09"/>
<text text-anchor="middle" x="1331" y="-203.56" font-family="Helvetica,sans-Serif" font-size="10.00"> export_table</text>
<text text-anchor="middle" x="1331" y="-192.56" font-family="Helvetica,sans-Serif" font-size="10.00">id_table</text>
</g>
<!-- Node16&#45;&gt;Node17 -->
<g id="edge24" class="edge">
<title>Node16&#45;&gt;Node17</title>
<path fill="none" stroke="#9a32cd" stroke-dasharray="5,2" d="M1556.33,-196.92C1589.99,-200.27 1634.86,-205.68 1674,-213.56 1693.98,-217.59 1716.04,-223.77 1733.2,-228.98"/>
<polygon fill="#9a32cd" stroke="#9a32cd" points="1556.55,-193.42 1546.26,-195.94 1555.87,-200.39 1556.55,-193.42"/>
<text text-anchor="middle" x="1651" y="-216.56" font-family="Helvetica,sans-Serif" font-size="10.00"> table</text>
</g>
<!-- Node16&#45;&gt;Node18 -->
<g id="edge27" class="edge">
<title>Node16&#45;&gt;Node18</title>
<path fill="none" stroke="#9a32cd" stroke-dasharray="5,2" d="M1556.18,-183.8C1589.97,-177.49 1635.02,-168.08 1674,-156.56 1697.16,-149.72 1722.85,-139.62 1740.65,-132.21"/>
<polygon fill="#9a32cd" stroke="#9a32cd" points="1555.28,-180.4 1546.08,-185.65 1556.55,-187.29 1555.28,-180.4"/>
<text text-anchor="middle" x="1651" y="-171.56" font-family="Helvetica,sans-Serif" font-size="10.00"> table</text>
</g>
<!-- Node17&#45;&gt;Node1 -->
<g id="edge33" class="edge">
<title>Node17&#45;&gt;Node1</title>
<path fill="none" stroke="#9a32cd" stroke-dasharray="5,2" d="M1784.28,-222.34C1832.02,-182.2 1954.58,-79.12 1992.59,-47.16"/>
<polygon fill="#9a32cd" stroke="#9a32cd" points="1781.93,-219.75 1776.53,-228.87 1786.43,-225.11 1781.93,-219.75"/>
<text text-anchor="middle" x="1884.5" y="-164.56" font-family="Helvetica,sans-Serif" font-size="10.00"> context</text>
</g>
<!-- Node17&#45;&gt;Node3 -->
<g id="edge21" class="edge">
<title>Node17&#45;&gt;Node3</title>
<path fill="none" stroke="#9a32cd" stroke-dasharray="5,2" d="M1727.87,-251.44C1643.46,-280.01 1425.6,-339.35 1282,-249.56 1255.76,-233.16 1244.41,-195.23 1240.38,-177.3"/>
<polygon fill="#9a32cd" stroke="#9a32cd" points="1729.18,-254.69 1737.49,-248.12 1726.9,-248.08 1729.18,-254.69"/>
<text text-anchor="middle" x="1504" y="-299.56" font-family="Helvetica,sans-Serif" font-size="10.00"> xattr_table</text>
</g>
<!-- Node18&#45;&gt;Node3 -->
<g id="edge25" class="edge">
<title>Node18&#45;&gt;Node3</title>
<path fill="none" stroke="#9a32cd" stroke-dasharray="5,2" d="M1681.7,-116.26C1658.55,-114.73 1633.29,-113.32 1610,-112.56 1559.71,-110.92 1319.71,-102.51 1282,-120.56 1264.95,-128.72 1251.36,-146.77 1244.16,-157.98"/>
<polygon fill="#9a32cd" stroke="#9a32cd" points="1681.61,-119.76 1691.82,-116.94 1682.08,-112.78 1681.61,-119.76"/>
<text text-anchor="middle" x="1504" y="-115.56" font-family="Helvetica,sans-Serif" font-size="10.00"> fragment_table</text>
</g>
<!-- Node19 -->
<g id="node19" class="node">
<title>Node19</title>
<g id="a_node19"><a xlink:href="structHsqsCompressionOptionsContext.html" target="_top" xlink:title=" ">
<polygon fill="white" stroke="black" points="790,-81.06 790,-100.06 1024,-100.06 1024,-81.06 790,-81.06"/>
<text text-anchor="middle" x="907" y="-88.06" font-family="Helvetica,sans-Serif" font-size="10.00">HsqsCompressionOptionsContext</text>
</a>
</g>
</g>
<!-- Node19&#45;&gt;Node3 -->
<g id="edge29" class="edge">
<title>Node19&#45;&gt;Node3</title>
<path fill="none" stroke="#9a32cd" stroke-dasharray="5,2" d="M973.91,-101.92C1032.1,-112.61 1118.95,-130.13 1193,-151.56 1199.8,-153.53 1207.07,-156.03 1213.67,-158.48"/>
<polygon fill="#9a32cd" stroke="#9a32cd" points="974.21,-98.42 963.75,-100.08 972.96,-105.31 974.21,-98.42"/>
<text text-anchor="middle" x="1117.5" y="-154.56" font-family="Helvetica,sans-Serif" font-size="10.00"> compression_options</text>
</g>
<!-- Node20 -->
<g id="node20" class="node">
<title>Node20</title>
<g id="a_node20"><a xlink:href="structHsqsBuffer.html" target="_top" xlink:title=" ">
<polygon fill="white" stroke="black" points="567.5,-43.06 567.5,-62.06 659.5,-62.06 659.5,-43.06 567.5,-43.06"/>
<text text-anchor="middle" x="613.5" y="-50.06" font-family="Helvetica,sans-Serif" font-size="10.00">HsqsBuffer</text>
</a>
</g>
</g>
<!-- Node20&#45;&gt;Node2 -->
<g id="edge32" class="edge">
<title>Node20&#45;&gt;Node2</title>
<path fill="none" stroke="#9a32cd" stroke-dasharray="5,2" d="M670,-46.88C784.34,-35.5 1054.5,-10.24 1282,-1.56 1325.52,0.1 1336.5,0.73 1380,-1.56 1394.47,-2.32 1409.87,-3.59 1424.69,-5.04"/>
<polygon fill="#9a32cd" stroke="#9a32cd" points="669.36,-43.43 659.76,-47.91 670.05,-50.39 669.36,-43.43"/>
<text text-anchor="middle" x="1117.5" y="-17.56" font-family="Helvetica,sans-Serif" font-size="10.00"> buffer</text>
</g>
<!-- Node20&#45;&gt;Node19 -->
<g id="edge30" class="edge">
<title>Node20&#45;&gt;Node19</title>
<path fill="none" stroke="#9a32cd" stroke-dasharray="5,2" d="M669.87,-59.78C716.15,-65.81 782.53,-74.47 833.12,-81.06"/>
<polygon fill="#9a32cd" stroke="#9a32cd" points="670.1,-56.28 659.73,-58.46 669.19,-63.22 670.1,-56.28"/>
<text text-anchor="middle" x="726.5" y="-76.56" font-family="Helvetica,sans-Serif" font-size="10.00"> buffer</text>
</g>
<!-- Node21 -->
<g id="node21" class="node">
<title>Node21</title>
<g id="a_node21"><a xlink:href="structHsqsCompressionImplementation.html" target="_top" xlink:title=" ">
<polygon fill="white" stroke="black" points="241,-43.06 241,-62.06 475,-62.06 475,-43.06 241,-43.06"/>
<text text-anchor="middle" x="358" y="-50.06" font-family="Helvetica,sans-Serif" font-size="10.00">HsqsCompressionImplementation</text>
</a>
</g>
</g>
<!-- Node21&#45;&gt;Node20 -->
<g id="edge31" class="edge">
<title>Node21&#45;&gt;Node20</title>
<path fill="none" stroke="#9a32cd" stroke-dasharray="5,2" d="M485.72,-52.56C515.03,-52.56 544.35,-52.56 567.39,-52.56"/>
<polygon fill="#9a32cd" stroke="#9a32cd" points="485.36,-49.06 475.36,-52.56 485.36,-56.06 485.36,-49.06"/>
<text text-anchor="middle" x="519.5" y="-55.56" font-family="Helvetica,sans-Serif" font-size="10.00"> impl</text>
</g>
</g>
</svg>
        <g id="navigator" transform="translate(0 0)" fill="#404254">
                <rect fill="#f2f5e9" fill-opacity="0.5" stroke="#606060" stroke-width=".5" x="0" y="0" width="60" height="60"/>
                <use id="zoomplus" xlink:href="#zoomPlus" x="17" y="9" onmousedown="handleZoom(evt,'in')"/>
                <use id="zoomminus" xlink:href="#zoomMin" x="42" y="9" onmousedown="handleZoom(evt,'out')"/>
                <use id="reset" xlink:href="#resetDef" x="30" y="36" onmousedown="handleReset()"/>
                <g id="arrowUp" xlink:href="#dirArrow" transform="translate(30 24)" onmousedown="handlePan(0,-1)">
                  <use xlink:href="#rim" fill="#404040">
                        <set attributeName="fill" to="#808080" begin="arrowUp.mouseover" end="arrowUp.mouseout"/>
                  </use>
                  <path fill="none" stroke="white" stroke-width="1.5" d="M0,-3.0v7 M-2.5,-0.5L0,-3.0L2.5,-0.5"/>
                </g>
                <g id="arrowRight" xlink:href="#dirArrow" transform="rotate(90) translate(36 -43)" onmousedown="handlePan(1,0)">
                  <use xlink:href="#rim" fill="#404040">
                        <set attributeName="fill" to="#808080" begin="arrowRight.mouseover" end="arrowRight.mouseout"/>
                  </use>
                  <path fill="none" stroke="white" stroke-width="1.5" d="M0,-3.0v7 M-2.5,-0.5L0,-3.0L2.5,-0.5"/>
                </g>
                <g id="arrowDown" xlink:href="#dirArrow" transform="rotate(180) translate(-30 -48)" onmousedown="handlePan(0,1)">
                  <use xlink:href="#rim" fill="#404040">
                        <set attributeName="fill" to="#808080" begin="arrowDown.mouseover" end="arrowDown.mouseout"/>
                  </use>
                  <path fill="none" stroke="white" stroke-width="1.5" d="M0,-3.0v7 M-2.5,-0.5L0,-3.0L2.5,-0.5"/>
                </g>
                <g id="arrowLeft" xlink:href="#dirArrow" transform="rotate(270) translate(-36 17)" onmousedown="handlePan(-1,0)">
                  <use xlink:href="#rim" fill="#404040">
                        <set attributeName="fill" to="#808080" begin="arrowLeft.mouseover" end="arrowLeft.mouseout"/>
                  </use>
                  <path fill="none" stroke="white" stroke-width="1.5" d="M0,-3.0v7 M-2.5,-0.5L0,-3.0L2.5,-0.5"/>
                </g>
        </g>
        <svg viewBox="0 0 15 15" width="100%" height="30px" preserveAspectRatio="xMaxYMin meet">
         <g id="arrow_out" transform="scale(0.3 0.3)">
          <a xlink:href="structHsqsXattrIterator__coll__graph_org.svg" target="_base">
           <rect id="button" ry="5" rx="5" y="6" x="6" height="38" width="38"
                fill="#f2f5e9" fill-opacity="0.5" stroke="#606060" stroke-width="1.0"/>
           <path id="arrow"
             d="M 11.500037,31.436501 C 11.940474,20.09759 22.043105,11.32322 32.158766,21.979434 L 37.068811,17.246167 C 37.068811,17.246167 37.088388,32 37.088388,32 L 22.160133,31.978069 C 22.160133,31.978069 26.997745,27.140456 26.997745,27.140456 C 18.528582,18.264221 13.291696,25.230495 11.500037,31.436501 z"
             style="fill:#404040;"/>
          </a>
         </g>
        </svg>
</svg>
