<?xml version="1.0" encoding="UTF-8" standalone="no"?>
<!DOCTYPE svg PUBLIC "-//W3C//DTD SVG 1.1//EN"
 "http://www.w3.org/Graphics/SVG/1.1/DTD/svg11.dtd">
<!-- Generated by graphviz version 3.0.0 (20220413.0242)
 -->
<!-- Title: HsqsMetablockContext Pages: 1 -->
<svg width="995pt" height="294pt"
 viewBox="0.00 0.00 995.00 294.00" xmlns="http://www.w3.org/2000/svg" xmlns:xlink="http://www.w3.org/1999/xlink">
<g id="graph0" class="graph" transform="scale(1 1) rotate(0) translate(4 290)">
<title>HsqsMetablockContext</title>
<polygon fill="white" stroke="transparent" points="-4,4 -4,-290 991,-290 991,4 -4,4"/>
<!-- Node1 -->
<g id="node1" class="node">
<title>Node1</title>
<g id="a_node1"><a xlink:title=" ">
<polygon fill="#bfbfbf" stroke="black" points="820,-57.5 820,-76.5 987,-76.5 987,-57.5 820,-57.5"/>
<text text-anchor="middle" x="903.5" y="-64.5" font-family="Helvetica,sans-Serif" font-size="10.00">HsqsMetablockContext</text>
</a>
</g>
</g>
<!-- Node2 -->
<g id="node2" class="node">
<title>Node2</title>
<g id="a_node2"><a xlink:href="structHsqsMapping.html" target="_top" xlink:title=" ">
<polygon fill="white" stroke="black" points="579,-95.5 579,-114.5 678,-114.5 678,-95.5 579,-95.5"/>
<text text-anchor="middle" x="628.5" y="-102.5" font-family="Helvetica,sans-Serif" font-size="10.00">HsqsMapping</text>
</a>
</g>
</g>
<!-- Node2&#45;&gt;Node1 -->
<g id="edge1" class="edge">
<title>Node2&#45;&gt;Node1</title>
<path fill="none" stroke="#9a32cd" stroke-dasharray="5,2" d="M688.25,-96.83C721.6,-92.19 764.14,-86.27 802,-81 812.38,-79.55 823.37,-78.02 834.11,-76.53"/>
<polygon fill="#9a32cd" stroke="#9a32cd" points="687.62,-93.38 678.2,-98.23 688.59,-100.32 687.62,-93.38"/>
<text text-anchor="middle" x="756.5" y="-96" font-family="Helvetica,sans-Serif" font-size="10.00"> mapping</text>
</g>
<!-- Node3 -->
<g id="node3" class="node">
<title>Node3</title>
<g id="a_node3"><a xlink:href="structHsqsMapper.html" target="_top" xlink:title=" ">
<polygon fill="white" stroke="black" points="312,-190.5 312,-209.5 404,-209.5 404,-190.5 312,-190.5"/>
<text text-anchor="middle" x="358" y="-197.5" font-family="Helvetica,sans-Serif" font-size="10.00">HsqsMapper</text>
</a>
</g>
</g>
<!-- Node3&#45;&gt;Node2 -->
<g id="edge2" class="edge">
<title>Node3&#45;&gt;Node2</title>
<path fill="none" stroke="#9a32cd" stroke-dasharray="5,2" d="M413.95,-193.17C433.41,-190.18 455.33,-186.16 475,-181 507.5,-172.47 515.75,-169.64 546,-155 570.95,-142.93 598.03,-125.33 613.85,-114.55"/>
<polygon fill="#9a32cd" stroke="#9a32cd" points="413.41,-189.71 404.03,-194.64 414.44,-196.64 413.41,-189.71"/>
<text text-anchor="middle" x="519.5" y="-179" font-family="Helvetica,sans-Serif" font-size="10.00"> mapper</text>
</g>
<!-- Node4 -->
<g id="node4" class="node">
<title>Node4</title>
<g id="a_node4"><a xlink:href="structHsqsMemoryMapperImpl.html" target="_top" xlink:title=" ">
<polygon fill="white" stroke="black" points="0,-266.5 0,-285.5 167,-285.5 167,-266.5 0,-266.5"/>
<text text-anchor="middle" x="83.5" y="-273.5" font-family="Helvetica,sans-Serif" font-size="10.00">HsqsMemoryMapperImpl</text>
</a>
</g>
</g>
<!-- Node4&#45;&gt;Node3 -->
<g id="edge3" class="edge">
<title>Node4&#45;&gt;Node3</title>
<path fill="none" stroke="#9a32cd" stroke-dasharray="5,2" d="M138.18,-264.17C147.81,-261.9 157.72,-259.46 167,-257 224.09,-241.88 289.96,-221.44 327.22,-209.59"/>
<polygon fill="#9a32cd" stroke="#9a32cd" points="137.25,-260.79 128.3,-266.47 138.84,-267.61 137.25,-260.79"/>
<text text-anchor="middle" x="204" y="-254" font-family="Helvetica,sans-Serif" font-size="10.00"> impl</text>
</g>
<!-- Node5 -->
<g id="node5" class="node">
<title>Node5</title>
<g id="a_node5"><a xlink:href="structHsqsMmapFullMapper.html" target="_top" xlink:title=" ">
<polygon fill="white" stroke="black" points="7.5,-228.5 7.5,-247.5 159.5,-247.5 159.5,-228.5 7.5,-228.5"/>
<text text-anchor="middle" x="83.5" y="-235.5" font-family="Helvetica,sans-Serif" font-size="10.00">HsqsMmapFullMapper</text>
</a>
</g>
</g>
<!-- Node5&#45;&gt;Node3 -->
<g id="edge4" class="edge">
<title>Node5&#45;&gt;Node3</title>
<path fill="none" stroke="#9a32cd" stroke-dasharray="5,2" d="M163.01,-227.05C211.21,-220.33 271.25,-211.96 311.66,-206.32"/>
<polygon fill="#9a32cd" stroke="#9a32cd" points="162.33,-223.61 152.91,-228.46 163.3,-230.55 162.33,-223.61"/>
<text text-anchor="middle" x="204" y="-226" font-family="Helvetica,sans-Serif" font-size="10.00"> mc</text>
</g>
<!-- Node6 -->
<g id="node6" class="node">
<title>Node6</title>
<g id="a_node6"><a xlink:href="structHsqsMmapMapper.html" target="_top" xlink:title=" ">
<polygon fill="white" stroke="black" points="22.5,-190.5 22.5,-209.5 144.5,-209.5 144.5,-190.5 22.5,-190.5"/>
<text text-anchor="middle" x="83.5" y="-197.5" font-family="Helvetica,sans-Serif" font-size="10.00">HsqsMmapMapper</text>
</a>
</g>
</g>
<!-- Node6&#45;&gt;Node3 -->
<g id="edge5" class="edge">
<title>Node6&#45;&gt;Node3</title>
<path fill="none" stroke="#9a32cd" stroke-dasharray="5,2" d="M154.64,-200C204.15,-200 269.04,-200 311.82,-200"/>
<polygon fill="#9a32cd" stroke="#9a32cd" points="154.64,-196.5 144.64,-200 154.64,-203.5 154.64,-196.5"/>
<text text-anchor="middle" x="204" y="-203" font-family="Helvetica,sans-Serif" font-size="10.00"> mm</text>
</g>
<!-- Node7 -->
<g id="node7" class="node">
<title>Node7</title>
<g id="a_node7"><a xlink:href="structHsqsStaticMapper.html" target="_top" xlink:title=" ">
<polygon fill="white" stroke="black" points="15,-152.5 15,-171.5 152,-171.5 152,-152.5 15,-152.5"/>
<text text-anchor="middle" x="83.5" y="-159.5" font-family="Helvetica,sans-Serif" font-size="10.00">HsqsStaticMapper</text>
</a>
</g>
</g>
<!-- Node7&#45;&gt;Node3 -->
<g id="edge6" class="edge">
<title>Node7&#45;&gt;Node3</title>
<path fill="none" stroke="#9a32cd" stroke-dasharray="5,2" d="M162.34,-172.85C210.73,-179.6 271.24,-188.04 311.84,-193.7"/>
<polygon fill="#9a32cd" stroke="#9a32cd" points="162.6,-169.36 152.21,-171.44 161.63,-176.29 162.6,-169.36"/>
<text text-anchor="middle" x="204" y="-184" font-family="Helvetica,sans-Serif" font-size="10.00"> sm</text>
</g>
<!-- Node8 -->
<g id="node8" class="node">
<title>Node8</title>
<g id="a_node8"><a xlink:href="structHsqsCanaryMapper.html" target="_top" xlink:title=" ">
<polygon fill="white" stroke="black" points="15,-114.5 15,-133.5 152,-133.5 152,-114.5 15,-114.5"/>
<text text-anchor="middle" x="83.5" y="-121.5" font-family="Helvetica,sans-Serif" font-size="10.00">HsqsCanaryMapper</text>
</a>
</g>
</g>
<!-- Node8&#45;&gt;Node3 -->
<g id="edge7" class="edge">
<title>Node8&#45;&gt;Node3</title>
<path fill="none" stroke="#9a32cd" stroke-dasharray="5,2" d="M139.18,-135.91C148.5,-138.13 158.05,-140.54 167,-143 192.21,-149.94 201.05,-146.79 223,-161 233.04,-167.5 230.51,-175.26 241,-181 262.49,-192.74 289.32,-197.65 311.76,-199.55"/>
<polygon fill="#9a32cd" stroke="#9a32cd" points="139.74,-132.44 129.2,-133.57 138.14,-139.26 139.74,-132.44"/>
<text text-anchor="middle" x="204" y="-164" font-family="Helvetica,sans-Serif" font-size="10.00"> cn</text>
</g>
<!-- Node9 -->
<g id="node9" class="node">
<title>Node9</title>
<g id="a_node9"><a xlink:href="structHsqsMmapFullMap.html" target="_top" xlink:title=" ">
<polygon fill="white" stroke="black" points="293.5,-152.5 293.5,-171.5 422.5,-171.5 422.5,-152.5 293.5,-152.5"/>
<text text-anchor="middle" x="358" y="-159.5" font-family="Helvetica,sans-Serif" font-size="10.00">HsqsMmapFullMap</text>
</a>
</g>
</g>
<!-- Node9&#45;&gt;Node2 -->
<g id="edge8" class="edge">
<title>Node9&#45;&gt;Node2</title>
<path fill="none" stroke="#9a32cd" stroke-dasharray="5,2" d="M432.65,-151.3C467.28,-145.69 508.99,-138.08 546,-129 563.19,-124.78 582.17,-119.25 597.49,-114.55"/>
<polygon fill="#9a32cd" stroke="#9a32cd" points="431.94,-147.87 422.62,-152.9 433.05,-154.78 431.94,-147.87"/>
<text text-anchor="middle" x="519.5" y="-143" font-family="Helvetica,sans-Serif" font-size="10.00"> mc</text>
</g>
<!-- Node10 -->
<g id="node10" class="node">
<title>Node10</title>
<g id="a_node10"><a xlink:href="structHsqsMmapMap.html" target="_top" xlink:title=" ">
<polygon fill="white" stroke="black" points="308.5,-114.5 308.5,-133.5 407.5,-133.5 407.5,-114.5 308.5,-114.5"/>
<text text-anchor="middle" x="358" y="-121.5" font-family="Helvetica,sans-Serif" font-size="10.00">HsqsMmapMap</text>
</a>
</g>
</g>
<!-- Node10&#45;&gt;Node2 -->
<g id="edge9" class="edge">
<title>Node10&#45;&gt;Node2</title>
<path fill="none" stroke="#9a32cd" stroke-dasharray="5,2" d="M417.61,-119.85C465.86,-116.44 533.47,-111.65 578.79,-108.45"/>
<polygon fill="#9a32cd" stroke="#9a32cd" points="417.35,-116.36 407.62,-120.56 417.85,-123.34 417.35,-116.36"/>
<text text-anchor="middle" x="519.5" y="-117" font-family="Helvetica,sans-Serif" font-size="10.00"> mm</text>
</g>
<!-- Node11 -->
<g id="node11" class="node">
<title>Node11</title>
<g id="a_node11"><a xlink:href="structHsqsStaticMap.html" target="_top" xlink:title=" ">
<polygon fill="white" stroke="black" points="301,-76.5 301,-95.5 415,-95.5 415,-76.5 301,-76.5"/>
<text text-anchor="middle" x="358" y="-83.5" font-family="Helvetica,sans-Serif" font-size="10.00">HsqsStaticMap</text>
</a>
</g>
</g>
<!-- Node11&#45;&gt;Node2 -->
<g id="edge10" class="edge">
<title>Node11&#45;&gt;Node2</title>
<path fill="none" stroke="#9a32cd" stroke-dasharray="5,2" d="M425.42,-88.64C461.18,-90.29 506.04,-92.73 546,-96 556.64,-96.87 568.04,-98 578.84,-99.17"/>
<polygon fill="#9a32cd" stroke="#9a32cd" points="425.26,-85.13 415.11,-88.17 424.94,-92.12 425.26,-85.13"/>
<text text-anchor="middle" x="519.5" y="-99" font-family="Helvetica,sans-Serif" font-size="10.00"> sm</text>
</g>
<!-- Node12 -->
<g id="node12" class="node">
<title>Node12</title>
<g id="a_node12"><a xlink:href="structHsqsCanaryMap.html" target="_top" xlink:title=" ">
<polygon fill="white" stroke="black" points="301,-38.5 301,-57.5 415,-57.5 415,-38.5 301,-38.5"/>
<text text-anchor="middle" x="358" y="-45.5" font-family="Helvetica,sans-Serif" font-size="10.00">HsqsCanaryMap</text>
</a>
</g>
</g>
<!-- Node12&#45;&gt;Node2 -->
<g id="edge11" class="edge">
<title>Node12&#45;&gt;Node2</title>
<path fill="none" stroke="#9a32cd" stroke-dasharray="5,2" d="M425.25,-53.23C461.54,-57.34 506.95,-64.54 546,-77 554.52,-79.72 555.68,-82.71 564,-86 572.77,-89.48 582.44,-92.67 591.53,-95.42"/>
<polygon fill="#9a32cd" stroke="#9a32cd" points="425.59,-49.75 415.27,-52.15 424.84,-56.7 425.59,-49.75"/>
<text text-anchor="middle" x="519.5" y="-80" font-family="Helvetica,sans-Serif" font-size="10.00"> cn</text>
</g>
<!-- Node13 -->
<g id="node13" class="node">
<title>Node13</title>
<g id="a_node13"><a xlink:href="structHsqsBuffer.html" target="_top" xlink:title=" ">
<polygon fill="white" stroke="black" points="582.5,-57.5 582.5,-76.5 674.5,-76.5 674.5,-57.5 582.5,-57.5"/>
<text text-anchor="middle" x="628.5" y="-64.5" font-family="Helvetica,sans-Serif" font-size="10.00">HsqsBuffer</text>
</a>
</g>
</g>
<!-- Node13&#45;&gt;Node1 -->
<g id="edge12" class="edge">
<title>Node13&#45;&gt;Node1</title>
<path fill="none" stroke="#9a32cd" stroke-dasharray="5,2" d="M684.63,-67C723.43,-67 776.03,-67 819.83,-67"/>
<polygon fill="#9a32cd" stroke="#9a32cd" points="684.58,-63.5 674.58,-67 684.58,-70.5 684.58,-63.5"/>
<text text-anchor="middle" x="756.5" y="-70" font-family="Helvetica,sans-Serif" font-size="10.00"> buffer</text>
</g>
<!-- Node14 -->
<g id="node14" class="node">
<title>Node14</title>
<g id="a_node14"><a xlink:href="structHsqsCompression.html" target="_top" xlink:title=" ">
<polygon fill="white" stroke="black" points="564,-19.5 564,-38.5 693,-38.5 693,-19.5 564,-19.5"/>
<text text-anchor="middle" x="628.5" y="-26.5" font-family="Helvetica,sans-Serif" font-size="10.00">HsqsCompression</text>
</a>
</g>
</g>
<!-- Node14&#45;&gt;Node1 -->
<g id="edge13" class="edge">
<title>Node14&#45;&gt;Node1</title>
<path fill="none" stroke="#9a32cd" stroke-dasharray="5,2" d="M703.18,-38.57C733.77,-42.61 769.61,-47.42 802,-52 814.23,-53.73 827.28,-55.63 839.8,-57.49"/>
<polygon fill="#9a32cd" stroke="#9a32cd" points="703.4,-35.06 693.02,-37.23 702.48,-42.01 703.4,-35.06"/>
<text text-anchor="middle" x="756.5" y="-55" font-family="Helvetica,sans-Serif" font-size="10.00"> compression</text>
</g>
<!-- Node15 -->
<g id="node15" class="node">
<title>Node15</title>
<g id="a_node15"><a xlink:href="structHsqsCompressionImplementation.html" target="_top" xlink:title=" ">
<polygon fill="white" stroke="black" points="241,-0.5 241,-19.5 475,-19.5 475,-0.5 241,-0.5"/>
<text text-anchor="middle" x="358" y="-7.5" font-family="Helvetica,sans-Serif" font-size="10.00">HsqsCompressionImplementation</text>
</a>
</g>
</g>
<!-- Node15&#45;&gt;Node14 -->
<g id="edge14" class="edge">
<title>Node15&#45;&gt;Node14</title>
<path fill="none" stroke="#9a32cd" stroke-dasharray="5,2" d="M485.58,-10.92C505.82,-11.78 526.51,-13.08 546,-15 556.72,-16.06 568.15,-17.7 578.96,-19.49"/>
<polygon fill="#9a32cd" stroke="#9a32cd" points="485.5,-7.42 475.37,-10.53 485.23,-14.41 485.5,-7.42"/>
<text text-anchor="middle" x="519.5" y="-18" font-family="Helvetica,sans-Serif" font-size="10.00"> impl</text>
</g>
</g>
</svg>
