<?xml version="1.0" encoding="UTF-8" standalone="no"?>
<!DOCTYPE svg PUBLIC "-//W3C//DTD SVG 1.1//EN"
 "http://www.w3.org/Graphics/SVG/1.1/DTD/svg11.dtd">
<!-- Generated by graphviz version 3.0.0 (20220413.0242)
 -->
<!-- Title: SqshXattrIterator Pages: 1 -->
<svg width="1378pt" height="344pt"
 viewBox="0.00 0.00 1378.00 344.00" xmlns="http://www.w3.org/2000/svg" xmlns:xlink="http://www.w3.org/1999/xlink">
<g id="graph0" class="graph" transform="scale(1 1) rotate(0) translate(4 340)">
<title>SqshXattrIterator</title>
<polygon fill="white" stroke="transparent" points="-4,4 -4,-340 1374,-340 1374,4 -4,4"/>
<!-- Node1 -->
<g id="node1" class="node">
<title>Node1</title>
<g id="a_node1"><a xlink:title=" ">
<polygon fill="#bfbfbf" stroke="black" points="1226,-273.5 1226,-292.5 1370,-292.5 1370,-273.5 1226,-273.5"/>
<text text-anchor="middle" x="1298" y="-280.5" font-family="Helvetica,sans-Serif" font-size="10.00">SqshXattrIterator</text>
</a>
</g>
</g>
<!-- Node2 -->
<g id="node2" class="node">
<title>Node2</title>
<g id="a_node2"><a xlink:href="structSqshMetablockStreamContext.html" target="_top" xlink:title=" ">
<polygon fill="white" stroke="black" points="707,-303.5 707,-322.5 919,-322.5 919,-303.5 707,-303.5"/>
<text text-anchor="middle" x="813" y="-310.5" font-family="Helvetica,sans-Serif" font-size="10.00">SqshMetablockStreamContext</text>
</a>
</g>
</g>
<!-- Node2&#45;&gt;Node1 -->
<g id="edge1" class="edge">
<title>Node2&#45;&gt;Node1</title>
<path fill="none" stroke="#9a32cd" stroke-dasharray="5,2" d="M929.32,-305.84C1021.46,-300.11 1147.69,-292.27 1225.71,-287.43"/>
<polygon fill="#9a32cd" stroke="#9a32cd" points="928.87,-302.36 919.1,-306.47 929.3,-309.35 928.87,-302.36"/>
<text text-anchor="middle" x="1065" y="-314" font-family="Helvetica,sans-Serif" font-size="10.00"> metablock</text>
<text text-anchor="middle" x="1065" y="-303" font-family="Helvetica,sans-Serif" font-size="10.00">out_of_line_value</text>
</g>
<!-- Node3 -->
<g id="node3" class="node">
<title>Node3</title>
<g id="a_node3"><a xlink:href="structSqsh.html" target="_top" xlink:title="The Sqsh struct contains all information about the current sqsh session.">
<polygon fill="white" stroke="black" points="500,-264.5 500,-283.5 547,-283.5 547,-264.5 500,-264.5"/>
<text text-anchor="middle" x="523.5" y="-271.5" font-family="Helvetica,sans-Serif" font-size="10.00">Sqsh</text>
</a>
</g>
</g>
<!-- Node3&#45;&gt;Node2 -->
<g id="edge2" class="edge">
<title>Node3&#45;&gt;Node2</title>
<path fill="none" stroke="#9a32cd" stroke-dasharray="5,2" d="M557.03,-281.49C567.8,-283.8 579.88,-286.2 591,-288 629.69,-294.25 672.44,-299.47 709.95,-303.5"/>
<polygon fill="#9a32cd" stroke="#9a32cd" points="557.69,-278.05 547.18,-279.33 556.19,-284.89 557.69,-278.05"/>
<text text-anchor="middle" x="640" y="-304" font-family="Helvetica,sans-Serif" font-size="10.00"> sqsh</text>
</g>
<!-- Node5 -->
<g id="node5" class="node">
<title>Node5</title>
<g id="a_node5"><a xlink:href="structSqshXattrTable.html" target="_top" xlink:title=" ">
<polygon fill="white" stroke="black" points="1004,-248.5 1004,-267.5 1126,-267.5 1126,-248.5 1004,-248.5"/>
<text text-anchor="middle" x="1065" y="-255.5" font-family="Helvetica,sans-Serif" font-size="10.00">SqshXattrTable</text>
</a>
</g>
</g>
<!-- Node3&#45;&gt;Node5 -->
<g id="edge5" class="edge">
<title>Node3&#45;&gt;Node5</title>
<path fill="none" stroke="#9a32cd" stroke-dasharray="5,2" d="M557.59,-273.02C646.2,-270.39 889.81,-263.17 1003.75,-259.79"/>
<polygon fill="#9a32cd" stroke="#9a32cd" points="557.23,-269.53 547.34,-273.32 557.44,-276.52 557.23,-269.53"/>
<text text-anchor="middle" x="813" y="-271" font-family="Helvetica,sans-Serif" font-size="10.00"> sqsh</text>
</g>
<!-- Node19 -->
<g id="node19" class="node">
<title>Node19</title>
<g id="a_node19"><a xlink:href="structSqshTable.html" target="_top" xlink:title=" ">
<polygon fill="white" stroke="black" points="771,-214.5 771,-233.5 855,-233.5 855,-214.5 771,-214.5"/>
<text text-anchor="middle" x="813" y="-221.5" font-family="Helvetica,sans-Serif" font-size="10.00">SqshTable</text>
</a>
</g>
</g>
<!-- Node3&#45;&gt;Node19 -->
<g id="edge21" class="edge">
<title>Node3&#45;&gt;Node19</title>
<path fill="none" stroke="#9a32cd" stroke-dasharray="5,2" d="M555.54,-260.52C566.55,-256.22 579.16,-251.85 591,-249 652.57,-234.19 725.95,-228.09 770.74,-225.63"/>
<polygon fill="#9a32cd" stroke="#9a32cd" points="553.9,-257.4 545.94,-264.39 556.52,-263.89 553.9,-257.4"/>
<text text-anchor="middle" x="640" y="-252" font-family="Helvetica,sans-Serif" font-size="10.00"> sqsh</text>
</g>
<!-- Node4 -->
<g id="node4" class="node">
<title>Node4</title>
<g id="a_node4"><a xlink:href="structSqshBuffer.html" target="_top" xlink:title="The SqshBuffer struct is a buffer for arbitrary data.">
<polygon fill="white" stroke="black" points="37.5,-314.5 37.5,-333.5 129.5,-333.5 129.5,-314.5 37.5,-314.5"/>
<text text-anchor="middle" x="83.5" y="-321.5" font-family="Helvetica,sans-Serif" font-size="10.00">SqshBuffer</text>
</a>
</g>
</g>
<!-- Node4&#45;&gt;Node2 -->
<g id="edge3" class="edge">
<title>Node4&#45;&gt;Node2</title>
<path fill="none" stroke="#9a32cd" stroke-dasharray="5,2" d="M139.51,-327.23C154.28,-327.96 170.24,-328.63 185,-329 208.55,-329.59 214.45,-329.33 238,-329 401.73,-326.72 591.65,-320.78 706.75,-316.81"/>
<polygon fill="#9a32cd" stroke="#9a32cd" points="139.67,-323.74 129.51,-326.72 139.32,-330.73 139.67,-323.74"/>
<text text-anchor="middle" x="429.5" y="-328" font-family="Helvetica,sans-Serif" font-size="10.00"> buffer</text>
</g>
<!-- Node18 -->
<g id="node18" class="node">
<title>Node18</title>
<g id="a_node18"><a xlink:href="structSqshCurlMap.html" target="_top" xlink:title=" ">
<polygon fill="white" stroke="black" points="271,-295.5 271,-314.5 370,-314.5 370,-295.5 271,-295.5"/>
<text text-anchor="middle" x="320.5" y="-302.5" font-family="Helvetica,sans-Serif" font-size="10.00">SqshCurlMap</text>
</a>
</g>
</g>
<!-- Node4&#45;&gt;Node18 -->
<g id="edge19" class="edge">
<title>Node4&#45;&gt;Node18</title>
<path fill="none" stroke="#9a32cd" stroke-dasharray="5,2" d="M139.61,-319.54C179.44,-316.32 232.75,-312.01 270.98,-308.92"/>
<polygon fill="#9a32cd" stroke="#9a32cd" points="139.22,-316.06 129.53,-320.36 139.78,-323.04 139.22,-316.06"/>
<text text-anchor="middle" x="211.5" y="-318" font-family="Helvetica,sans-Serif" font-size="10.00"> buffer</text>
</g>
<!-- Node5&#45;&gt;Node1 -->
<g id="edge4" class="edge">
<title>Node5&#45;&gt;Node1</title>
<path fill="none" stroke="#9a32cd" stroke-dasharray="5,2" d="M1136.32,-265.61C1164.65,-268.68 1197.29,-272.21 1225.71,-275.29"/>
<polygon fill="#9a32cd" stroke="#9a32cd" points="1136.41,-262.1 1126.09,-264.5 1135.65,-269.06 1136.41,-262.1"/>
<text text-anchor="middle" x="1177.5" y="-275" font-family="Helvetica,sans-Serif" font-size="10.00"> context</text>
</g>
<!-- Node6 -->
<g id="node6" class="node">
<title>Node6</title>
<g id="a_node6"><a xlink:href="structSqshMapping.html" target="_top" xlink:title=" ">
<polygon fill="white" stroke="black" points="474,-197.5 474,-216.5 573,-216.5 573,-197.5 474,-197.5"/>
<text text-anchor="middle" x="523.5" y="-204.5" font-family="Helvetica,sans-Serif" font-size="10.00">SqshMapping</text>
</a>
</g>
</g>
<!-- Node6&#45;&gt;Node5 -->
<g id="edge6" class="edge">
<title>Node6&#45;&gt;Node5</title>
<path fill="none" stroke="#9a32cd" stroke-dasharray="5,2" d="M583.2,-196.42C660.95,-184.36 801.89,-169.3 919,-194 968.81,-204.5 1022.35,-233.25 1048.22,-248.39"/>
<polygon fill="#9a32cd" stroke="#9a32cd" points="582.45,-192.99 573.12,-198.02 583.55,-199.91 582.45,-192.99"/>
<text text-anchor="middle" x="813" y="-197" font-family="Helvetica,sans-Serif" font-size="10.00"> header</text>
</g>
<!-- Node6&#45;&gt;Node19 -->
<g id="edge23" class="edge">
<title>Node6&#45;&gt;Node19</title>
<path fill="none" stroke="#9a32cd" stroke-dasharray="5,2" d="M583.42,-209.52C614.78,-210.94 654,-212.87 689,-215 716.25,-216.66 746.87,-218.9 770.74,-220.73"/>
<polygon fill="#9a32cd" stroke="#9a32cd" points="583.25,-206 573.1,-209.05 582.94,-213 583.25,-206"/>
<text text-anchor="middle" x="640" y="-218" font-family="Helvetica,sans-Serif" font-size="10.00"> lookup_table</text>
</g>
<!-- Node7 -->
<g id="node7" class="node">
<title>Node7</title>
<g id="a_node7"><a xlink:href="structSqshMapper.html" target="_top" xlink:title=" ">
<polygon fill="white" stroke="black" points="274.5,-95.5 274.5,-114.5 366.5,-114.5 366.5,-95.5 274.5,-95.5"/>
<text text-anchor="middle" x="320.5" y="-102.5" font-family="Helvetica,sans-Serif" font-size="10.00">SqshMapper</text>
</a>
</g>
</g>
<!-- Node7&#45;&gt;Node6 -->
<g id="edge7" class="edge">
<title>Node7&#45;&gt;Node6</title>
<path fill="none" stroke="#9a32cd" stroke-dasharray="5,2" d="M372.9,-117.16C398.83,-124.52 430.17,-135.36 456,-150 479.02,-163.05 501.47,-184.69 513.49,-197.22"/>
<polygon fill="#9a32cd" stroke="#9a32cd" points="373.82,-113.78 363.25,-114.51 371.97,-120.53 373.82,-113.78"/>
<text text-anchor="middle" x="429.5" y="-153" font-family="Helvetica,sans-Serif" font-size="10.00"> mapper</text>
</g>
<!-- Node7&#45;&gt;Node19 -->
<g id="edge22" class="edge">
<title>Node7&#45;&gt;Node19</title>
<path fill="none" stroke="#9a32cd" stroke-dasharray="5,2" d="M376.9,-110.47C401.35,-113.49 430.3,-117.89 456,-124 570.58,-151.24 592.44,-181.67 707,-209 727.78,-213.96 751.28,-217.5 770.78,-219.9"/>
<polygon fill="#9a32cd" stroke="#9a32cd" points="377.07,-106.97 366.72,-109.26 376.24,-113.92 377.07,-106.97"/>
<text text-anchor="middle" x="523.5" y="-166" font-family="Helvetica,sans-Serif" font-size="10.00"> mapper</text>
</g>
<!-- Node8 -->
<g id="node8" class="node">
<title>Node8</title>
<g id="a_node8"><a xlink:href="structSqshMemoryMapperImpl.html" target="_top" xlink:title=" ">
<polygon fill="white" stroke="black" points="0,-190.5 0,-209.5 167,-209.5 167,-190.5 0,-190.5"/>
<text text-anchor="middle" x="83.5" y="-197.5" font-family="Helvetica,sans-Serif" font-size="10.00">SqshMemoryMapperImpl</text>
</a>
</g>
</g>
<!-- Node8&#45;&gt;Node7 -->
<g id="edge8" class="edge">
<title>Node8&#45;&gt;Node7</title>
<path fill="none" stroke="#9a32cd" stroke-dasharray="5,2" d="M139.18,-188.11C148.5,-185.88 158.05,-183.47 167,-181 198.97,-172.16 211.01,-177.28 238,-158 248.85,-150.25 245.61,-142.36 256,-134 266.29,-125.72 279.33,-119.23 290.91,-114.51"/>
<polygon fill="#9a32cd" stroke="#9a32cd" points="138.14,-184.76 129.21,-190.45 139.74,-191.57 138.14,-184.76"/>
<text text-anchor="middle" x="211.5" y="-179" font-family="Helvetica,sans-Serif" font-size="10.00"> impl</text>
</g>
<!-- Node9 -->
<g id="node9" class="node">
<title>Node9</title>
<g id="a_node9"><a xlink:href="structSqshMmapFullMapper.html" target="_top" xlink:title=" ">
<polygon fill="white" stroke="black" points="7.5,-152.5 7.5,-171.5 159.5,-171.5 159.5,-152.5 7.5,-152.5"/>
<text text-anchor="middle" x="83.5" y="-159.5" font-family="Helvetica,sans-Serif" font-size="10.00">SqshMmapFullMapper</text>
</a>
</g>
</g>
<!-- Node9&#45;&gt;Node7 -->
<g id="edge9" class="edge">
<title>Node9&#45;&gt;Node7</title>
<path fill="none" stroke="#9a32cd" stroke-dasharray="5,2" d="M149.09,-150.58C176.65,-145.3 209.06,-138.52 238,-131 256.26,-126.26 276.46,-119.82 292.18,-114.54"/>
<polygon fill="#9a32cd" stroke="#9a32cd" points="148.35,-147.16 139.18,-152.46 149.65,-154.04 148.35,-147.16"/>
<text text-anchor="middle" x="211.5" y="-146" font-family="Helvetica,sans-Serif" font-size="10.00"> mc</text>
</g>
<!-- Node10 -->
<g id="node10" class="node">
<title>Node10</title>
<g id="a_node10"><a xlink:href="structSqshMmapMapper.html" target="_top" xlink:title=" ">
<polygon fill="white" stroke="black" points="22.5,-114.5 22.5,-133.5 144.5,-133.5 144.5,-114.5 22.5,-114.5"/>
<text text-anchor="middle" x="83.5" y="-121.5" font-family="Helvetica,sans-Serif" font-size="10.00">SqshMmapMapper</text>
</a>
</g>
</g>
<!-- Node10&#45;&gt;Node7 -->
<g id="edge10" class="edge">
<title>Node10&#45;&gt;Node7</title>
<path fill="none" stroke="#9a32cd" stroke-dasharray="5,2" d="M154.88,-118.31C193.59,-115.18 240.47,-111.39 274.29,-108.66"/>
<polygon fill="#9a32cd" stroke="#9a32cd" points="154.4,-114.84 144.71,-119.13 154.96,-121.81 154.4,-114.84"/>
<text text-anchor="middle" x="211.5" y="-119" font-family="Helvetica,sans-Serif" font-size="10.00"> mm</text>
</g>
<!-- Node11 -->
<g id="node11" class="node">
<title>Node11</title>
<g id="a_node11"><a xlink:href="structSqshStaticMapper.html" target="_top" xlink:title=" ">
<polygon fill="white" stroke="black" points="15,-76.5 15,-95.5 152,-95.5 152,-76.5 15,-76.5"/>
<text text-anchor="middle" x="83.5" y="-83.5" font-family="Helvetica,sans-Serif" font-size="10.00">SqshStaticMapper</text>
</a>
</g>
</g>
<!-- Node11&#45;&gt;Node7 -->
<g id="edge11" class="edge">
<title>Node11&#45;&gt;Node7</title>
<path fill="none" stroke="#9a32cd" stroke-dasharray="5,2" d="M162.37,-91.18C186.61,-92.9 213.42,-94.91 238,-97 249.76,-98 262.46,-99.19 274.26,-100.35"/>
<polygon fill="#9a32cd" stroke="#9a32cd" points="162.38,-87.67 152.16,-90.46 161.89,-94.66 162.38,-87.67"/>
<text text-anchor="middle" x="211.5" y="-100" font-family="Helvetica,sans-Serif" font-size="10.00"> sm</text>
</g>
<!-- Node12 -->
<g id="node12" class="node">
<title>Node12</title>
<g id="a_node12"><a xlink:href="structSqshCanaryMapper.html" target="_top" xlink:title=" ">
<polygon fill="white" stroke="black" points="15,-38.5 15,-57.5 152,-57.5 152,-38.5 15,-38.5"/>
<text text-anchor="middle" x="83.5" y="-45.5" font-family="Helvetica,sans-Serif" font-size="10.00">SqshCanaryMapper</text>
</a>
</g>
</g>
<!-- Node12&#45;&gt;Node7 -->
<g id="edge12" class="edge">
<title>Node12&#45;&gt;Node7</title>
<path fill="none" stroke="#9a32cd" stroke-dasharray="5,2" d="M152.53,-59.38C179.34,-64.36 210.28,-70.73 238,-78 256.74,-82.92 277.47,-89.8 293.33,-95.39"/>
<polygon fill="#9a32cd" stroke="#9a32cd" points="152.94,-55.89 142.48,-57.54 151.68,-62.78 152.94,-55.89"/>
<text text-anchor="middle" x="211.5" y="-81" font-family="Helvetica,sans-Serif" font-size="10.00"> cn</text>
</g>
<!-- Node13 -->
<g id="node13" class="node">
<title>Node13</title>
<g id="a_node13"><a xlink:href="structSqshCurlMapper.html" target="_top" xlink:title=" ">
<polygon fill="white" stroke="black" points="22.5,-0.5 22.5,-19.5 144.5,-19.5 144.5,-0.5 22.5,-0.5"/>
<text text-anchor="middle" x="83.5" y="-7.5" font-family="Helvetica,sans-Serif" font-size="10.00">SqshCurlMapper</text>
</a>
</g>
</g>
<!-- Node13&#45;&gt;Node7 -->
<g id="edge13" class="edge">
<title>Node13&#45;&gt;Node7</title>
<path fill="none" stroke="#9a32cd" stroke-dasharray="5,2" d="M139.18,-21.89C148.5,-24.12 158.05,-26.53 167,-29 198.97,-37.84 208.06,-37.72 238,-52 264.05,-64.42 291.66,-83.9 307.13,-95.46"/>
<polygon fill="#9a32cd" stroke="#9a32cd" points="139.74,-18.43 129.21,-19.55 138.14,-25.24 139.74,-18.43"/>
<text text-anchor="middle" x="211.5" y="-55" font-family="Helvetica,sans-Serif" font-size="10.00"> cl</text>
</g>
<!-- Node14 -->
<g id="node14" class="node">
<title>Node14</title>
<g id="a_node14"><a xlink:href="structSqshMmapFullMap.html" target="_top" xlink:title=" ">
<polygon fill="white" stroke="black" points="256,-257.5 256,-276.5 385,-276.5 385,-257.5 256,-257.5"/>
<text text-anchor="middle" x="320.5" y="-264.5" font-family="Helvetica,sans-Serif" font-size="10.00">SqshMmapFullMap</text>
</a>
</g>
</g>
<!-- Node14&#45;&gt;Node6 -->
<g id="edge14" class="edge">
<title>Node14&#45;&gt;Node6</title>
<path fill="none" stroke="#9a32cd" stroke-dasharray="5,2" d="M377.22,-255.24C401.63,-249.6 430.47,-242.27 456,-234 471.41,-229.01 488.32,-222.13 501.23,-216.56"/>
<polygon fill="#9a32cd" stroke="#9a32cd" points="376.38,-251.84 367.41,-257.47 377.94,-258.67 376.38,-251.84"/>
<text text-anchor="middle" x="429.5" y="-251" font-family="Helvetica,sans-Serif" font-size="10.00"> mc</text>
</g>
<!-- Node15 -->
<g id="node15" class="node">
<title>Node15</title>
<g id="a_node15"><a xlink:href="structSqshMmapMap.html" target="_top" xlink:title=" ">
<polygon fill="white" stroke="black" points="271,-219.5 271,-238.5 370,-238.5 370,-219.5 271,-219.5"/>
<text text-anchor="middle" x="320.5" y="-226.5" font-family="Helvetica,sans-Serif" font-size="10.00">SqshMmapMap</text>
</a>
</g>
</g>
<!-- Node15&#45;&gt;Node6 -->
<g id="edge15" class="edge">
<title>Node15&#45;&gt;Node6</title>
<path fill="none" stroke="#9a32cd" stroke-dasharray="5,2" d="M380.41,-222.55C410.15,-219.3 445.8,-215.4 473.94,-212.31"/>
<polygon fill="#9a32cd" stroke="#9a32cd" points="379.72,-219.11 370.16,-223.67 380.48,-226.07 379.72,-219.11"/>
<text text-anchor="middle" x="429.5" y="-222" font-family="Helvetica,sans-Serif" font-size="10.00"> mm</text>
</g>
<!-- Node16 -->
<g id="node16" class="node">
<title>Node16</title>
<g id="a_node16"><a xlink:href="structSqshStaticMap.html" target="_top" xlink:title=" ">
<polygon fill="white" stroke="black" points="263.5,-181.5 263.5,-200.5 377.5,-200.5 377.5,-181.5 263.5,-181.5"/>
<text text-anchor="middle" x="320.5" y="-188.5" font-family="Helvetica,sans-Serif" font-size="10.00">SqshStaticMap</text>
</a>
</g>
</g>
<!-- Node16&#45;&gt;Node6 -->
<g id="edge16" class="edge">
<title>Node16&#45;&gt;Node6</title>
<path fill="none" stroke="#9a32cd" stroke-dasharray="5,2" d="M387.7,-191.79C409.5,-192.5 433.82,-193.76 456,-196 461.82,-196.59 467.91,-197.36 473.93,-198.24"/>
<polygon fill="#9a32cd" stroke="#9a32cd" points="387.66,-188.29 377.56,-191.5 387.45,-195.29 387.66,-188.29"/>
<text text-anchor="middle" x="429.5" y="-199" font-family="Helvetica,sans-Serif" font-size="10.00"> sm</text>
</g>
<!-- Node17 -->
<g id="node17" class="node">
<title>Node17</title>
<g id="a_node17"><a xlink:href="structSqshCanaryMap.html" target="_top" xlink:title=" ">
<polygon fill="white" stroke="black" points="263.5,-143.5 263.5,-162.5 377.5,-162.5 377.5,-143.5 263.5,-143.5"/>
<text text-anchor="middle" x="320.5" y="-150.5" font-family="Helvetica,sans-Serif" font-size="10.00">SqshCanaryMap</text>
</a>
</g>
</g>
<!-- Node17&#45;&gt;Node6 -->
<g id="edge17" class="edge">
<title>Node17&#45;&gt;Node6</title>
<path fill="none" stroke="#9a32cd" stroke-dasharray="5,2" d="M387.48,-161.44C409.54,-165.14 434.09,-170.22 456,-177 473.06,-182.28 491.5,-190.85 504.63,-197.47"/>
<polygon fill="#9a32cd" stroke="#9a32cd" points="387.96,-157.97 377.53,-159.83 386.85,-164.88 387.96,-157.97"/>
<text text-anchor="middle" x="429.5" y="-180" font-family="Helvetica,sans-Serif" font-size="10.00"> cn</text>
</g>
<!-- Node18&#45;&gt;Node6 -->
<g id="edge18" class="edge">
<title>Node18&#45;&gt;Node6</title>
<path fill="none" stroke="#9a32cd" stroke-dasharray="5,2" d="M377.6,-292.96C402.56,-286.24 431.73,-276.46 456,-263 478.96,-250.26 501.43,-228.97 513.47,-216.63"/>
<polygon fill="#9a32cd" stroke="#9a32cd" points="376.7,-289.58 367.9,-295.47 378.46,-296.35 376.7,-289.58"/>
<text text-anchor="middle" x="429.5" y="-287" font-family="Helvetica,sans-Serif" font-size="10.00"> cl</text>
</g>
<!-- Node19&#45;&gt;Node5 -->
<g id="edge20" class="edge">
<title>Node19&#45;&gt;Node5</title>
<path fill="none" stroke="#9a32cd" stroke-dasharray="5,2" d="M865.12,-230.95C905.32,-236.42 961.43,-244.05 1003.8,-249.81"/>
<polygon fill="#9a32cd" stroke="#9a32cd" points="865.38,-227.46 855,-229.58 864.44,-234.39 865.38,-227.46"/>
<text text-anchor="middle" x="960" y="-249" font-family="Helvetica,sans-Serif" font-size="10.00"> table</text>
</g>
</g>
</svg>
