<?xml version="1.0" encoding="UTF-8" standalone="no"?>
<!DOCTYPE svg PUBLIC "-//W3C//DTD SVG 1.1//EN"
 "http://www.w3.org/Graphics/SVG/1.1/DTD/svg11.dtd">
<!-- Generated by graphviz version 3.0.0 (20220413.0242)
 -->
<!-- Title: SqshXattrIterator Pages: 1 -->
<!--zoomable 456 -->
<svg id="main" version="1.1" xmlns="http://www.w3.org/2000/svg" xmlns:xlink="http://www.w3.org/1999/xlink" xml:space="preserve" onload="init(evt)">
<style type="text/css"><![CDATA[
.edge:hover path { stroke: red; }
.edge:hover polygon { stroke: red; fill: red; }
]]></style>
<script type="text/javascript"><![CDATA[
var edges = document.getElementsByTagName('g');
if (edges && edges.length) {
  for (var i=0;i<edges.length;i++) {
    if (edges[i].id.substr(0,4)=='edge') {
      edges[i].setAttribute('class','edge');
    }
  }
}
]]></script>
        <defs>
                <circle id="rim" cx="0" cy="0" r="7"/>
                <circle id="rim2" cx="0" cy="0" r="3.5"/>
                <g id="zoomPlus">
                        <use xlink:href="#rim" fill="#404040">
                                <set attributeName="fill" to="#808080" begin="zoomplus.mouseover" end="zoomplus.mouseout"/>
                        </use>
                        <path d="M-4,0h8M0,-4v8" fill="none" stroke="white" stroke-width="1.5" pointer-events="none"/>
                </g>
                <g id="zoomMin">
                        <use xlink:href="#rim" fill="#404040">
                                <set attributeName="fill" to="#808080" begin="zoomminus.mouseover" end="zoomminus.mouseout"/>
                        </use>
                        <path d="M-4,0h8" fill="none" stroke="white" stroke-width="1.5" pointer-events="none"/>
                </g>
                <g id="dirArrow">
                        <path fill="none" stroke="white" stroke-width="1.5" d="M0,-3.0v7 M-2.5,-0.5L0,-3.0L2.5,-0.5"/>
                </g>
               <g id="resetDef">
                       <use xlink:href="#rim2" fill="#404040">
                               <set attributeName="fill" to="#808080" begin="reset.mouseover" end="reset.mouseout"/>
                       </use>
               </g>
        </defs>

<script type="text/javascript">
var viewWidth = 2206;
var viewHeight = 456;
var sectionId = 'dynsection-0';
</script>
<script xlink:href="svgpan.js"/>
<svg id="graph" class="graph">
<g id="viewport">
<title>SqshXattrIterator</title>
<polygon fill="white" stroke="transparent" points="-4,4 -4,-452 2202,-452 2202,4 -4,4"/>
<!-- Node1 -->
<g id="node1" class="node">
<title>Node1</title>
<g id="a_node1"><a xlink:title=" ">
<polygon fill="#bfbfbf" stroke="black" points="2054,-23.5 2054,-42.5 2198,-42.5 2198,-23.5 2054,-23.5"/>
<text text-anchor="middle" x="2126" y="-30.5" font-family="Helvetica,sans-Serif" font-size="10.00">SqshXattrIterator</text>
</a>
</g>
</g>
<!-- Node2 -->
<g id="node2" class="node">
<title>Node2</title>
<g id="a_node2"><a xlink:href="structSqshMetablockStreamContext.html" target="_top" xlink:title=" ">
<polygon fill="white" stroke="black" points="1519,-0.5 1519,-19.5 1731,-19.5 1731,-0.5 1519,-0.5"/>
<text text-anchor="middle" x="1625" y="-7.5" font-family="Helvetica,sans-Serif" font-size="10.00">SqshMetablockStreamContext</text>
</a>
</g>
</g>
<!-- Node2&#45;&gt;Node1 -->
<g id="edge1" class="edge">
<title>Node2&#45;&gt;Node1</title>
<path fill="none" stroke="#9a32cd" stroke-dasharray="5,2" d="M1741.31,-15.31C1837.73,-19.76 1972.24,-25.96 2053.71,-29.71"/>
<polygon fill="#9a32cd" stroke="#9a32cd" points="1741.37,-11.81 1731.22,-14.85 1741.04,-18.81 1741.37,-11.81"/>
<text text-anchor="middle" x="1885" y="-39" font-family="Helvetica,sans-Serif" font-size="10.00"> metablock</text>
<text text-anchor="middle" x="1885" y="-28" font-family="Helvetica,sans-Serif" font-size="10.00">out_of_line_value</text>
</g>
<!-- Node3 -->
<g id="node3" class="node">
<title>Node3</title>
<g id="a_node3"><a xlink:href="structSqsh.html" target="_top" xlink:title=" ">
<polygon fill="white" stroke="black" points="1335,-170.5 1335,-189.5 1382,-189.5 1382,-170.5 1335,-170.5"/>
<text text-anchor="middle" x="1358.5" y="-177.5" font-family="Helvetica,sans-Serif" font-size="10.00">Sqsh</text>
</a>
</g>
</g>
<!-- Node3&#45;&gt;Node2 -->
<g id="edge2" class="edge">
<title>Node3&#45;&gt;Node2</title>
<path fill="none" stroke="#9a32cd" stroke-dasharray="5,2" d="M1363.19,-160.52C1368.35,-138.47 1379.83,-102.91 1403,-82 1442.1,-46.73 1498.77,-28.7 1544.93,-19.51"/>
<polygon fill="#9a32cd" stroke="#9a32cd" points="1359.74,-159.89 1361.08,-170.4 1366.59,-161.35 1359.74,-159.89"/>
<text text-anchor="middle" x="1452" y="-85" font-family="Helvetica,sans-Serif" font-size="10.00"> sqsh</text>
</g>
<!-- Node21 -->
<g id="node21" class="node">
<title>Node21</title>
<g id="a_node21"><a xlink:href="structSqshTable.html" target="_top" xlink:title=" ">
<polygon fill="white" stroke="black" points="1583,-268.5 1583,-287.5 1667,-287.5 1667,-268.5 1583,-268.5"/>
<text text-anchor="middle" x="1625" y="-275.5" font-family="Helvetica,sans-Serif" font-size="10.00">SqshTable</text>
</a>
</g>
</g>
<!-- Node3&#45;&gt;Node21 -->
<g id="edge23" class="edge">
<title>Node3&#45;&gt;Node21</title>
<path fill="none" stroke="#9a32cd" stroke-dasharray="5,2" d="M1368.28,-199C1375.6,-212.64 1387.36,-230.26 1403,-240 1418,-249.34 1522.82,-264.54 1582.55,-272.59"/>
<polygon fill="#9a32cd" stroke="#9a32cd" points="1371.35,-197.32 1363.74,-189.94 1365.09,-200.45 1371.35,-197.32"/>
<text text-anchor="middle" x="1452" y="-263" font-family="Helvetica,sans-Serif" font-size="10.00"> sqsh</text>
</g>
<!-- Node22 -->
<g id="node22" class="node">
<title>Node22</title>
<g id="a_node22"><a xlink:href="structSqshXattrTable.html" target="_top" xlink:title=" ">
<polygon fill="white" stroke="black" points="1824,-97.5 1824,-116.5 1946,-116.5 1946,-97.5 1824,-97.5"/>
<text text-anchor="middle" x="1885" y="-104.5" font-family="Helvetica,sans-Serif" font-size="10.00">SqshXattrTable</text>
</a>
</g>
</g>
<!-- Node3&#45;&gt;Node22 -->
<g id="edge27" class="edge">
<title>Node3&#45;&gt;Node22</title>
<path fill="none" stroke="#9a32cd" stroke-dasharray="5,2" d="M1379.73,-164.16C1386.81,-159.14 1394.99,-153.89 1403,-150 1451.55,-126.41 1465.71,-122.6 1519,-114 1625.21,-96.85 1751.05,-99.37 1823.79,-103.01"/>
<polygon fill="#9a32cd" stroke="#9a32cd" points="1377.41,-161.52 1371.45,-170.28 1381.57,-167.15 1377.41,-161.52"/>
<text text-anchor="middle" x="1625" y="-117" font-family="Helvetica,sans-Serif" font-size="10.00"> sqsh</text>
</g>
<!-- Node4 -->
<g id="node4" class="node">
<title>Node4</title>
<g id="a_node4"><a xlink:href="structSqshMapper.html" target="_top" xlink:title=" ">
<polygon fill="white" stroke="black" points="274.5,-333.5 274.5,-352.5 366.5,-352.5 366.5,-333.5 274.5,-333.5"/>
<text text-anchor="middle" x="320.5" y="-340.5" font-family="Helvetica,sans-Serif" font-size="10.00">SqshMapper</text>
</a>
</g>
</g>
<!-- Node4&#45;&gt;Node3 -->
<g id="edge3" class="edge">
<title>Node4&#45;&gt;Node3</title>
<path fill="none" stroke="#9a32cd" stroke-dasharray="5,2" d="M376.77,-340.43C559.8,-331.24 1144.17,-296.39 1314,-219 1328.77,-212.27 1342.07,-198.72 1349.97,-189.5"/>
<polygon fill="#9a32cd" stroke="#9a32cd" points="376.38,-336.94 366.57,-340.93 376.73,-343.93 376.38,-336.94"/>
<text text-anchor="middle" x="870.5" y="-323" font-family="Helvetica,sans-Serif" font-size="10.00"> mapper</text>
<text text-anchor="middle" x="870.5" y="-312" font-family="Helvetica,sans-Serif" font-size="10.00">table_mapper</text>
</g>
<!-- Node12 -->
<g id="node12" class="node">
<title>Node12</title>
<g id="a_node12"><a xlink:href="structSqshMapping.html" target="_top" xlink:title=" ">
<polygon fill="white" stroke="black" points="666.5,-175.5 666.5,-194.5 765.5,-194.5 765.5,-175.5 666.5,-175.5"/>
<text text-anchor="middle" x="716" y="-182.5" font-family="Helvetica,sans-Serif" font-size="10.00">SqshMapping</text>
</a>
</g>
</g>
<!-- Node4&#45;&gt;Node12 -->
<g id="edge12" class="edge">
<title>Node4&#45;&gt;Node12</title>
<path fill="none" stroke="#9a32cd" stroke-dasharray="5,2" d="M336.81,-325.54C351.9,-309.63 376.49,-286.99 403,-276 451.27,-255.99 593.78,-282.37 637,-253 651.47,-243.17 642.8,-230.54 655,-218 664.86,-207.86 678.52,-200.01 690.32,-194.52"/>
<polygon fill="#9a32cd" stroke="#9a32cd" points="334.01,-323.41 329.83,-333.14 339.17,-328.14 334.01,-323.41"/>
<text text-anchor="middle" x="520" y="-279" font-family="Helvetica,sans-Serif" font-size="10.00"> mapper</text>
</g>
<!-- Node4&#45;&gt;Node21 -->
<g id="edge24" class="edge">
<title>Node4&#45;&gt;Node21</title>
<path fill="none" stroke="#9a32cd" stroke-dasharray="5,2" d="M376.89,-344.37C385.63,-344.58 394.56,-344.8 403,-345 729.62,-352.79 812.33,-384.2 1138,-358 1248.85,-349.08 1275.24,-335.88 1385,-318 1436.56,-309.6 1449.47,-307.62 1501,-299 1528.24,-294.44 1558.86,-289.22 1582.73,-285.12"/>
<polygon fill="#9a32cd" stroke="#9a32cd" points="376.85,-340.87 366.76,-344.12 376.68,-347.87 376.85,-340.87"/>
<text text-anchor="middle" x="1051" y="-370" font-family="Helvetica,sans-Serif" font-size="10.00"> mapper</text>
</g>
<!-- Node23 -->
<g id="node23" class="node">
<title>Node23</title>
<g id="a_node23"><a xlink:href="structSqshFragmentTable.html" target="_top" xlink:title=" ">
<polygon fill="white" stroke="black" points="1813,-332.5 1813,-351.5 1957,-351.5 1957,-332.5 1813,-332.5"/>
<text text-anchor="middle" x="1885" y="-339.5" font-family="Helvetica,sans-Serif" font-size="10.00">SqshFragmentTable</text>
</a>
</g>
</g>
<!-- Node4&#45;&gt;Node23 -->
<g id="edge33" class="edge">
<title>Node4&#45;&gt;Node23</title>
<path fill="none" stroke="#9a32cd" stroke-dasharray="5,2" d="M358.33,-355.81C427.38,-378.64 581.38,-424 715,-424 715,-424 715,-424 1626,-424 1720.7,-424 1826.16,-373.2 1866.78,-351.57"/>
<polygon fill="#9a32cd" stroke="#9a32cd" points="359.37,-352.46 348.77,-352.61 357.15,-359.1 359.37,-352.46"/>
<text text-anchor="middle" x="1235" y="-427" font-family="Helvetica,sans-Serif" font-size="10.00"> mapper</text>
</g>
<!-- Node5 -->
<g id="node5" class="node">
<title>Node5</title>
<g id="a_node5"><a xlink:href="structSqshMemoryMapperImpl.html" target="_top" xlink:title=" ">
<polygon fill="white" stroke="black" points="0,-314.5 0,-333.5 167,-333.5 167,-314.5 0,-314.5"/>
<text text-anchor="middle" x="83.5" y="-321.5" font-family="Helvetica,sans-Serif" font-size="10.00">SqshMemoryMapperImpl</text>
</a>
</g>
</g>
<!-- Node5&#45;&gt;Node4 -->
<g id="edge4" class="edge">
<title>Node5&#45;&gt;Node4</title>
<path fill="none" stroke="#9a32cd" stroke-dasharray="5,2" d="M177.17,-324.96C197.26,-325.74 218.37,-327 238,-329 249.85,-330.21 262.59,-332.1 274.39,-334.11"/>
<polygon fill="#9a32cd" stroke="#9a32cd" points="177.21,-321.46 167.09,-324.6 176.96,-328.46 177.21,-321.46"/>
<text text-anchor="middle" x="211.5" y="-332" font-family="Helvetica,sans-Serif" font-size="10.00"> impl</text>
</g>
<!-- Node6 -->
<g id="node6" class="node">
<title>Node6</title>
<g id="a_node6"><a xlink:href="structSqshMmapFullMapper.html" target="_top" xlink:title=" ">
<polygon fill="white" stroke="black" points="7.5,-276.5 7.5,-295.5 159.5,-295.5 159.5,-276.5 7.5,-276.5"/>
<text text-anchor="middle" x="83.5" y="-283.5" font-family="Helvetica,sans-Serif" font-size="10.00">SqshMmapFullMapper</text>
</a>
</g>
</g>
<!-- Node6&#45;&gt;Node4 -->
<g id="edge5" class="edge">
<title>Node6&#45;&gt;Node4</title>
<path fill="none" stroke="#9a32cd" stroke-dasharray="5,2" d="M169.95,-295.8C192.31,-299.33 216.25,-303.98 238,-310 259.63,-315.98 283.29,-325.98 299.52,-333.4"/>
<polygon fill="#9a32cd" stroke="#9a32cd" points="170.21,-292.3 159.79,-294.26 169.15,-299.22 170.21,-292.3"/>
<text text-anchor="middle" x="211.5" y="-313" font-family="Helvetica,sans-Serif" font-size="10.00"> mc</text>
</g>
<!-- Node7 -->
<g id="node7" class="node">
<title>Node7</title>
<g id="a_node7"><a xlink:href="structSqshMmapMapper.html" target="_top" xlink:title=" ">
<polygon fill="white" stroke="black" points="22.5,-238.5 22.5,-257.5 144.5,-257.5 144.5,-238.5 22.5,-238.5"/>
<text text-anchor="middle" x="83.5" y="-245.5" font-family="Helvetica,sans-Serif" font-size="10.00">SqshMmapMapper</text>
</a>
</g>
</g>
<!-- Node7&#45;&gt;Node4 -->
<g id="edge6" class="edge">
<title>Node7&#45;&gt;Node4</title>
<path fill="none" stroke="#9a32cd" stroke-dasharray="5,2" d="M154.76,-257.75C181.61,-263.07 212,-271.09 238,-283 266.44,-296.02 294.73,-319.94 309.33,-333.31"/>
<polygon fill="#9a32cd" stroke="#9a32cd" points="155.14,-254.26 144.66,-255.84 153.84,-261.14 155.14,-254.26"/>
<text text-anchor="middle" x="211.5" y="-286" font-family="Helvetica,sans-Serif" font-size="10.00"> mm</text>
</g>
<!-- Node8 -->
<g id="node8" class="node">
<title>Node8</title>
<g id="a_node8"><a xlink:href="structSqshStaticMapper.html" target="_top" xlink:title=" ">
<polygon fill="white" stroke="black" points="15,-428.5 15,-447.5 152,-447.5 152,-428.5 15,-428.5"/>
<text text-anchor="middle" x="83.5" y="-435.5" font-family="Helvetica,sans-Serif" font-size="10.00">SqshStaticMapper</text>
</a>
</g>
</g>
<!-- Node8&#45;&gt;Node4 -->
<g id="edge7" class="edge">
<title>Node8&#45;&gt;Node4</title>
<path fill="none" stroke="#9a32cd" stroke-dasharray="5,2" d="M139.89,-426.15C148.99,-423.94 158.29,-421.53 167,-419 199.13,-409.68 207.86,-408.52 238,-394 263.26,-381.83 290.47,-363.67 306.19,-352.62"/>
<polygon fill="#9a32cd" stroke="#9a32cd" points="139.05,-422.75 130.12,-428.45 140.66,-429.56 139.05,-422.75"/>
<text text-anchor="middle" x="211.5" y="-416" font-family="Helvetica,sans-Serif" font-size="10.00"> sm</text>
</g>
<!-- Node9 -->
<g id="node9" class="node">
<title>Node9</title>
<g id="a_node9"><a xlink:href="structSqshCanaryMapper.html" target="_top" xlink:title=" ">
<polygon fill="white" stroke="black" points="15,-390.5 15,-409.5 152,-409.5 152,-390.5 15,-390.5"/>
<text text-anchor="middle" x="83.5" y="-397.5" font-family="Helvetica,sans-Serif" font-size="10.00">SqshCanaryMapper</text>
</a>
</g>
</g>
<!-- Node9&#45;&gt;Node4 -->
<g id="edge8" class="edge">
<title>Node9&#45;&gt;Node4</title>
<path fill="none" stroke="#9a32cd" stroke-dasharray="5,2" d="M146.38,-388.45C174.48,-382.86 208.06,-375.7 238,-368 255.63,-363.47 275.13,-357.52 290.64,-352.56"/>
<polygon fill="#9a32cd" stroke="#9a32cd" points="145.43,-385.07 136.29,-390.44 146.78,-391.94 145.43,-385.07"/>
<text text-anchor="middle" x="211.5" y="-382" font-family="Helvetica,sans-Serif" font-size="10.00"> cn</text>
</g>
<!-- Node10 -->
<g id="node10" class="node">
<title>Node10</title>
<g id="a_node10"><a xlink:href="structSqshCurlMapper.html" target="_top" xlink:title=" ">
<polygon fill="white" stroke="black" points="22.5,-352.5 22.5,-371.5 144.5,-371.5 144.5,-352.5 22.5,-352.5"/>
<text text-anchor="middle" x="83.5" y="-359.5" font-family="Helvetica,sans-Serif" font-size="10.00">SqshCurlMapper</text>
</a>
</g>
</g>
<!-- Node10&#45;&gt;Node4 -->
<g id="edge9" class="edge">
<title>Node10&#45;&gt;Node4</title>
<path fill="none" stroke="#9a32cd" stroke-dasharray="5,2" d="M154.88,-356.31C193.59,-353.18 240.47,-349.39 274.29,-346.66"/>
<polygon fill="#9a32cd" stroke="#9a32cd" points="154.4,-352.84 144.71,-357.13 154.96,-359.81 154.4,-352.84"/>
<text text-anchor="middle" x="211.5" y="-356" font-family="Helvetica,sans-Serif" font-size="10.00"> cl</text>
</g>
<!-- Node11 -->
<g id="node11" class="node">
<title>Node11</title>
<g id="a_node11"><a xlink:href="structSqshCompression.html" target="_top" xlink:title=" ">
<polygon fill="white" stroke="black" points="986.5,-329.5 986.5,-348.5 1115.5,-348.5 1115.5,-329.5 986.5,-329.5"/>
<text text-anchor="middle" x="1051" y="-336.5" font-family="Helvetica,sans-Serif" font-size="10.00">SqshCompression</text>
</a>
</g>
</g>
<!-- Node11&#45;&gt;Node3 -->
<g id="edge10" class="edge">
<title>Node11&#45;&gt;Node3</title>
<path fill="none" stroke="#9a32cd" stroke-dasharray="5,2" d="M1118.08,-325.89C1125.15,-322.96 1131.96,-319.38 1138,-315 1149.67,-306.53 1143.81,-295.71 1156,-288 1215.98,-250.09 1256.29,-306.3 1314,-265 1340.02,-246.38 1351.53,-207.52 1355.62,-189.53"/>
<polygon fill="#9a32cd" stroke="#9a32cd" points="1116.49,-322.75 1108.32,-329.49 1118.91,-329.31 1116.49,-322.75"/>
<text text-anchor="middle" x="1235" y="-302" font-family="Helvetica,sans-Serif" font-size="10.00"> data_compression</text>
<text text-anchor="middle" x="1235" y="-291" font-family="Helvetica,sans-Serif" font-size="10.00">metablock_compression</text>
</g>
<!-- Node11&#45;&gt;Node23 -->
<g id="edge34" class="edge">
<title>Node11&#45;&gt;Node23</title>
<path fill="none" stroke="#9a32cd" stroke-dasharray="5,2" d="M1125.64,-344.13C1135.83,-344.79 1146.18,-345.43 1156,-346 1439.56,-362.43 1511.91,-379.1 1795,-356 1807,-355.02 1819.84,-353.36 1831.92,-351.53"/>
<polygon fill="#9a32cd" stroke="#9a32cd" points="1125.72,-340.63 1115.51,-343.46 1125.26,-347.61 1125.72,-340.63"/>
<text text-anchor="middle" x="1452" y="-369" font-family="Helvetica,sans-Serif" font-size="10.00"> compression</text>
</g>
<!-- Node12&#45;&gt;Node3 -->
<g id="edge11" class="edge">
<title>Node12&#45;&gt;Node3</title>
<path fill="none" stroke="#9a32cd" stroke-dasharray="5,2" d="M775.92,-184.54C912.35,-183.47 1245.14,-180.88 1334.89,-180.18"/>
<polygon fill="#9a32cd" stroke="#9a32cd" points="775.64,-181.04 765.67,-184.62 775.69,-188.04 775.64,-181.04"/>
<text text-anchor="middle" x="1051" y="-185" font-family="Helvetica,sans-Serif" font-size="10.00"> table_map</text>
</g>
<!-- Node19 -->
<g id="node19" class="node">
<title>Node19</title>
<g id="a_node19"><a xlink:href="structSqshSuperblockContext.html" target="_top" xlink:title=" ">
<polygon fill="white" stroke="black" points="964,-207.5 964,-226.5 1138,-226.5 1138,-207.5 964,-207.5"/>
<text text-anchor="middle" x="1051" y="-214.5" font-family="Helvetica,sans-Serif" font-size="10.00">SqshSuperblockContext</text>
</a>
</g>
</g>
<!-- Node12&#45;&gt;Node19 -->
<g id="edge21" class="edge">
<title>Node12&#45;&gt;Node19</title>
<path fill="none" stroke="#9a32cd" stroke-dasharray="5,2" d="M775.87,-190.66C828.04,-195.67 904.88,-203.05 963.94,-208.73"/>
<polygon fill="#9a32cd" stroke="#9a32cd" points="776.07,-187.16 765.78,-189.69 775.4,-194.13 776.07,-187.16"/>
<text text-anchor="middle" x="870.5" y="-209" font-family="Helvetica,sans-Serif" font-size="10.00"> mapping</text>
</g>
<!-- Node12&#45;&gt;Node21 -->
<g id="edge25" class="edge">
<title>Node12&#45;&gt;Node21</title>
<path fill="none" stroke="#9a32cd" stroke-dasharray="5,2" d="M749.94,-199.22C759.36,-204.27 769.17,-210.57 777,-218 788.01,-228.44 782.43,-238.51 795,-247 811.87,-258.4 1135.72,-308.24 1156,-310 1225.96,-316.06 1243.87,-313.61 1314,-310 1340.21,-308.65 1504.72,-290.97 1582.87,-282.48"/>
<polygon fill="#9a32cd" stroke="#9a32cd" points="751.26,-195.96 740.75,-194.59 748.11,-202.21 751.26,-195.96"/>
<text text-anchor="middle" x="1235" y="-316" font-family="Helvetica,sans-Serif" font-size="10.00"> lookup_table</text>
</g>
<!-- Node12&#45;&gt;Node22 -->
<g id="edge28" class="edge">
<title>Node12&#45;&gt;Node22</title>
<path fill="none" stroke="#9a32cd" stroke-dasharray="5,2" d="M746.91,-171.21C825.14,-136.45 1043,-48 1234,-48 1234,-48 1234,-48 1626,-48 1713.53,-48 1813.66,-80.67 1859.16,-97.39"/>
<polygon fill="#9a32cd" stroke="#9a32cd" points="745.34,-168.08 737.65,-175.37 748.21,-174.47 745.34,-168.08"/>
<text text-anchor="middle" x="1358.5" y="-51" font-family="Helvetica,sans-Serif" font-size="10.00"> header</text>
</g>
<!-- Node13 -->
<g id="node13" class="node">
<title>Node13</title>
<g id="a_node13"><a xlink:href="structSqshMmapFullMap.html" target="_top" xlink:title=" ">
<polygon fill="white" stroke="black" points="256,-233.5 256,-252.5 385,-252.5 385,-233.5 256,-233.5"/>
<text text-anchor="middle" x="320.5" y="-240.5" font-family="Helvetica,sans-Serif" font-size="10.00">SqshMmapFullMap</text>
</a>
</g>
</g>
<!-- Node13&#45;&gt;Node12 -->
<g id="edge13" class="edge">
<title>Node13&#45;&gt;Node12</title>
<path fill="none" stroke="#9a32cd" stroke-dasharray="5,2" d="M395.25,-242.23C459.77,-240.2 555.64,-233.86 637,-215 657.21,-210.31 679.18,-201.5 694.64,-194.64"/>
<polygon fill="#9a32cd" stroke="#9a32cd" points="395.06,-238.74 385.17,-242.52 395.26,-245.73 395.06,-238.74"/>
<text text-anchor="middle" x="520" y="-244" font-family="Helvetica,sans-Serif" font-size="10.00"> mc</text>
</g>
<!-- Node14 -->
<g id="node14" class="node">
<title>Node14</title>
<g id="a_node14"><a xlink:href="structSqshMmapMap.html" target="_top" xlink:title=" ">
<polygon fill="white" stroke="black" points="271,-195.5 271,-214.5 370,-214.5 370,-195.5 271,-195.5"/>
<text text-anchor="middle" x="320.5" y="-202.5" font-family="Helvetica,sans-Serif" font-size="10.00">SqshMmapMap</text>
</a>
</g>
</g>
<!-- Node14&#45;&gt;Node12 -->
<g id="edge14" class="edge">
<title>Node14&#45;&gt;Node12</title>
<path fill="none" stroke="#9a32cd" stroke-dasharray="5,2" d="M380.27,-202.01C458.15,-198.05 594.11,-191.14 666.47,-187.47"/>
<polygon fill="#9a32cd" stroke="#9a32cd" points="379.95,-198.52 370.15,-202.53 380.31,-205.52 379.95,-198.52"/>
<text text-anchor="middle" x="520" y="-203" font-family="Helvetica,sans-Serif" font-size="10.00"> mm</text>
</g>
<!-- Node15 -->
<g id="node15" class="node">
<title>Node15</title>
<g id="a_node15"><a xlink:href="structSqshStaticMap.html" target="_top" xlink:title=" ">
<polygon fill="white" stroke="black" points="263.5,-157.5 263.5,-176.5 377.5,-176.5 377.5,-157.5 263.5,-157.5"/>
<text text-anchor="middle" x="320.5" y="-164.5" font-family="Helvetica,sans-Serif" font-size="10.00">SqshStaticMap</text>
</a>
</g>
</g>
<!-- Node15&#45;&gt;Node12 -->
<g id="edge15" class="edge">
<title>Node15&#45;&gt;Node12</title>
<path fill="none" stroke="#9a32cd" stroke-dasharray="5,2" d="M388.12,-165.18C452.08,-164.11 551.34,-164.23 637,-172 646.57,-172.87 656.74,-174.23 666.46,-175.76"/>
<polygon fill="#9a32cd" stroke="#9a32cd" points="387.71,-161.68 377.77,-165.37 387.83,-168.68 387.71,-161.68"/>
<text text-anchor="middle" x="520" y="-175" font-family="Helvetica,sans-Serif" font-size="10.00"> sm</text>
</g>
<!-- Node16 -->
<g id="node16" class="node">
<title>Node16</title>
<g id="a_node16"><a xlink:href="structSqshCanaryMap.html" target="_top" xlink:title=" ">
<polygon fill="white" stroke="black" points="263.5,-119.5 263.5,-138.5 377.5,-138.5 377.5,-119.5 263.5,-119.5"/>
<text text-anchor="middle" x="320.5" y="-126.5" font-family="Helvetica,sans-Serif" font-size="10.00">SqshCanaryMap</text>
</a>
</g>
</g>
<!-- Node16&#45;&gt;Node12 -->
<g id="edge16" class="edge">
<title>Node16&#45;&gt;Node12</title>
<path fill="none" stroke="#9a32cd" stroke-dasharray="5,2" d="M387.79,-126.2C452.4,-125.09 552.91,-127.72 637,-149 659.56,-154.71 683.59,-166.83 698.92,-175.42"/>
<polygon fill="#9a32cd" stroke="#9a32cd" points="387.67,-122.7 377.74,-126.4 387.81,-129.7 387.67,-122.7"/>
<text text-anchor="middle" x="520" y="-152" font-family="Helvetica,sans-Serif" font-size="10.00"> cn</text>
</g>
<!-- Node17 -->
<g id="node17" class="node">
<title>Node17</title>
<g id="a_node17"><a xlink:href="structSqshCurlMap.html" target="_top" xlink:title=" ">
<polygon fill="white" stroke="black" points="271,-81.5 271,-100.5 370,-100.5 370,-81.5 271,-81.5"/>
<text text-anchor="middle" x="320.5" y="-88.5" font-family="Helvetica,sans-Serif" font-size="10.00">SqshCurlMap</text>
</a>
</g>
</g>
<!-- Node17&#45;&gt;Node12 -->
<g id="edge17" class="edge">
<title>Node17&#45;&gt;Node12</title>
<path fill="none" stroke="#9a32cd" stroke-dasharray="5,2" d="M380.28,-82.82C445.84,-76.3 553.63,-73.47 637,-110 669.69,-124.33 696.82,-158.7 708.64,-175.47"/>
<polygon fill="#9a32cd" stroke="#9a32cd" points="379.7,-79.37 370.13,-83.9 380.44,-86.33 379.7,-79.37"/>
<text text-anchor="middle" x="520" y="-113" font-family="Helvetica,sans-Serif" font-size="10.00"> cl</text>
</g>
<!-- Node18 -->
<g id="node18" class="node">
<title>Node18</title>
<g id="a_node18"><a xlink:href="structSqshBuffer.html" target="_top" xlink:title="The SqshBuffer struct is a buffer for arbitrary data.">
<polygon fill="white" stroke="black" points="37.5,-43.5 37.5,-62.5 129.5,-62.5 129.5,-43.5 37.5,-43.5"/>
<text text-anchor="middle" x="83.5" y="-50.5" font-family="Helvetica,sans-Serif" font-size="10.00">SqshBuffer</text>
</a>
</g>
</g>
<!-- Node18&#45;&gt;Node2 -->
<g id="edge38" class="edge">
<title>Node18&#45;&gt;Node2</title>
<path fill="none" stroke="#9a32cd" stroke-dasharray="5,2" d="M120.61,-40.13C166.3,-25.02 247.7,-2 319.5,-2 319.5,-2 319.5,-2 1359.5,-2 1411.99,-2 1470.31,-3.59 1518.8,-5.36"/>
<polygon fill="#9a32cd" stroke="#9a32cd" points="119.24,-36.9 110.88,-43.41 121.47,-43.53 119.24,-36.9"/>
<text text-anchor="middle" x="870.5" y="-5" font-family="Helvetica,sans-Serif" font-size="10.00"> buffer</text>
</g>
<!-- Node18&#45;&gt;Node17 -->
<g id="edge18" class="edge">
<title>Node18&#45;&gt;Node17</title>
<path fill="none" stroke="#9a32cd" stroke-dasharray="5,2" d="M139.61,-61.91C179.44,-68.35 232.75,-76.97 270.98,-83.15"/>
<polygon fill="#9a32cd" stroke="#9a32cd" points="139.96,-58.42 129.53,-60.28 138.85,-65.33 139.96,-58.42"/>
<text text-anchor="middle" x="211.5" y="-80" font-family="Helvetica,sans-Serif" font-size="10.00"> buffer</text>
</g>
<!-- Node24 -->
<g id="node24" class="node">
<title>Node24</title>
<g id="a_node24"><a xlink:href="structSqshCompressionOptionsContext.html" target="_top" xlink:title="The compression options context is used to store the compression options for a specific compression a...">
<polygon fill="white" stroke="black" points="403,-46.5 403,-65.5 637,-65.5 637,-46.5 403,-46.5"/>
<text text-anchor="middle" x="520" y="-53.5" font-family="Helvetica,sans-Serif" font-size="10.00">SqshCompressionOptionsContext</text>
</a>
</g>
</g>
<!-- Node18&#45;&gt;Node24 -->
<g id="edge36" class="edge">
<title>Node18&#45;&gt;Node24</title>
<path fill="none" stroke="#9a32cd" stroke-dasharray="5,2" d="M139.52,-53.35C168.77,-53.54 205.34,-53.78 238,-54 292.15,-54.37 352.17,-54.79 402.79,-55.16"/>
<polygon fill="#9a32cd" stroke="#9a32cd" points="139.52,-49.85 129.5,-53.29 139.48,-56.85 139.52,-49.85"/>
<text text-anchor="middle" x="211.5" y="-57" font-family="Helvetica,sans-Serif" font-size="10.00"> buffer</text>
</g>
<!-- Node19&#45;&gt;Node3 -->
<g id="edge19" class="edge">
<title>Node19&#45;&gt;Node3</title>
<path fill="none" stroke="#9a32cd" stroke-dasharray="5,2" d="M1138.06,-206.2C1144.13,-205.45 1150.16,-204.71 1156,-204 1220.87,-196.08 1297.53,-187.04 1334.83,-182.66"/>
<polygon fill="#9a32cd" stroke="#9a32cd" points="1137.32,-202.77 1127.82,-207.47 1138.18,-209.72 1137.32,-202.77"/>
<text text-anchor="middle" x="1235" y="-207" font-family="Helvetica,sans-Serif" font-size="10.00"> superblock</text>
</g>
<!-- Node19&#45;&gt;Node23 -->
<g id="edge31" class="edge">
<title>Node19&#45;&gt;Node23</title>
<path fill="none" stroke="#9a32cd" stroke-dasharray="5,2" d="M1119.46,-228.19C1172.39,-237 1247.91,-249.65 1314,-261 1405.17,-276.66 1427.59,-282.82 1519,-297 1620.93,-312.81 1646.58,-315.79 1749,-328 1769.71,-330.47 1792.23,-332.9 1812.84,-335.03"/>
<polygon fill="#9a32cd" stroke="#9a32cd" points="1119.96,-224.72 1109.52,-226.53 1118.81,-231.63 1119.96,-224.72"/>
<text text-anchor="middle" x="1452" y="-297" font-family="Helvetica,sans-Serif" font-size="10.00"> superblock</text>
</g>
<!-- Node20 -->
<g id="node20" class="node">
<title>Node20</title>
<g id="a_node20"><a xlink:href="structSqshSuperblock.html" target="_top" xlink:title=" ">
<polygon fill="white" stroke="black" points="655,-227.5 655,-246.5 777,-246.5 777,-227.5 655,-227.5"/>
<text text-anchor="middle" x="716" y="-234.5" font-family="Helvetica,sans-Serif" font-size="10.00">SqshSuperblock</text>
</a>
</g>
</g>
<!-- Node20&#45;&gt;Node19 -->
<g id="edge20" class="edge">
<title>Node20&#45;&gt;Node19</title>
<path fill="none" stroke="#9a32cd" stroke-dasharray="5,2" d="M787.34,-232.78C838.83,-229.68 908.98,-225.47 963.83,-222.18"/>
<polygon fill="#9a32cd" stroke="#9a32cd" points="787.08,-229.28 777.3,-233.38 787.5,-236.27 787.08,-229.28"/>
<text text-anchor="middle" x="870.5" y="-235" font-family="Helvetica,sans-Serif" font-size="10.00"> superblock</text>
</g>
<!-- Node21&#45;&gt;Node3 -->
<g id="edge22" class="edge">
<title>Node21&#45;&gt;Node3</title>
<path fill="none" stroke="#9a32cd" stroke-dasharray="5,2" d="M1598.46,-263.45C1574.08,-250.06 1535.97,-230.46 1501,-218 1458.85,-202.99 1445.98,-207.42 1403,-195 1396.25,-193.05 1389,-190.67 1382.39,-188.38"/>
<polygon fill="#9a32cd" stroke="#9a32cd" points="1596.97,-266.62 1607.41,-268.42 1600.37,-260.5 1596.97,-266.62"/>
<text text-anchor="middle" x="1452" y="-232" font-family="Helvetica,sans-Serif" font-size="10.00"> export_table</text>
<text text-anchor="middle" x="1452" y="-221" font-family="Helvetica,sans-Serif" font-size="10.00">id_table</text>
</g>
<!-- Node21&#45;&gt;Node22 -->
<g id="edge29" class="edge">
<title>Node21&#45;&gt;Node22</title>
<path fill="none" stroke="#9a32cd" stroke-dasharray="5,2" d="M1652.23,-263.34C1673.7,-251.15 1704.71,-233.08 1731,-216 1784.33,-181.35 1845.19,-136.24 1871.16,-116.71"/>
<polygon fill="#9a32cd" stroke="#9a32cd" points="1650.35,-260.38 1643.37,-268.35 1653.8,-266.48 1650.35,-260.38"/>
<text text-anchor="middle" x="1772" y="-204" font-family="Helvetica,sans-Serif" font-size="10.00"> table</text>
</g>
<!-- Node21&#45;&gt;Node23 -->
<g id="edge32" class="edge">
<title>Node21&#45;&gt;Node23</title>
<path fill="none" stroke="#9a32cd" stroke-dasharray="5,2" d="M1677.16,-289.15C1710.75,-296.63 1755.61,-306.93 1795,-317 1813.81,-321.81 1834.73,-327.66 1851.55,-332.49"/>
<polygon fill="#9a32cd" stroke="#9a32cd" points="1677.63,-285.67 1667.11,-286.92 1676.12,-292.5 1677.63,-285.67"/>
<text text-anchor="middle" x="1772" y="-320" font-family="Helvetica,sans-Serif" font-size="10.00"> table</text>
</g>
<!-- Node22&#45;&gt;Node1 -->
<g id="edge39" class="edge">
<title>Node22&#45;&gt;Node1</title>
<path fill="none" stroke="#9a32cd" stroke-dasharray="5,2" d="M1926.38,-94.5C1973.71,-79.84 2051.12,-55.88 2093.98,-42.6"/>
<polygon fill="#9a32cd" stroke="#9a32cd" points="1925.27,-91.18 1916.76,-97.48 1927.34,-97.86 1925.27,-91.18"/>
<text text-anchor="middle" x="2005.5" y="-81" font-family="Helvetica,sans-Serif" font-size="10.00"> context</text>
</g>
<!-- Node22&#45;&gt;Node3 -->
<g id="edge26" class="edge">
<title>Node22&#45;&gt;Node3</title>
<path fill="none" stroke="#9a32cd" stroke-dasharray="5,2" d="M1815.2,-118.04C1808.38,-119.07 1801.56,-120.07 1795,-121 1621.14,-145.53 1575.89,-139.4 1403,-170 1396.29,-171.19 1389.05,-172.74 1382.44,-174.27"/>
<polygon fill="#9a32cd" stroke="#9a32cd" points="1815.8,-121.49 1825.15,-116.53 1814.74,-114.57 1815.8,-121.49"/>
<text text-anchor="middle" x="1625" y="-154" font-family="Helvetica,sans-Serif" font-size="10.00"> xattr_table</text>
</g>
<!-- Node23&#45;&gt;Node3 -->
<g id="edge30" class="edge">
<title>Node23&#45;&gt;Node3</title>
<path fill="none" stroke="#9a32cd" stroke-dasharray="5,2" d="M1876.76,-322.68C1864.74,-293.61 1837.66,-239.42 1795,-215 1723.66,-174.16 1460.93,-177.39 1382.04,-179.34"/>
<polygon fill="#9a32cd" stroke="#9a32cd" points="1873.58,-324.14 1880.51,-332.15 1880.09,-321.57 1873.58,-324.14"/>
<text text-anchor="middle" x="1625" y="-197" font-family="Helvetica,sans-Serif" font-size="10.00"> fragment_table</text>
</g>
<!-- Node24&#45;&gt;Node3 -->
<g id="edge35" class="edge">
<title>Node24&#45;&gt;Node3</title>
<path fill="none" stroke="#9a32cd" stroke-dasharray="5,2" d="M647.36,-51.95C842.04,-47.89 1204.36,-49.68 1314,-114 1335.78,-126.78 1348.72,-155.28 1354.28,-170.31"/>
<polygon fill="#9a32cd" stroke="#9a32cd" points="647.28,-48.45 637.35,-52.16 647.43,-55.44 647.28,-48.45"/>
<text text-anchor="middle" x="870.5" y="-56" font-family="Helvetica,sans-Serif" font-size="10.00"> compression_options</text>
</g>
<!-- Node25 -->
<g id="node25" class="node">
<title>Node25</title>
<g id="a_node25"><a xlink:href="structSqshConfig.html" target="_top" xlink:title="The SqshConfig struct contains all the configuration options for a sqsh session.">
<polygon fill="white" stroke="black" points="1005,-114.5 1005,-133.5 1097,-133.5 1097,-114.5 1005,-114.5"/>
<text text-anchor="middle" x="1051" y="-121.5" font-family="Helvetica,sans-Serif" font-size="10.00">SqshConfig</text>
</a>
</g>
</g>
<!-- Node25&#45;&gt;Node3 -->
<g id="edge37" class="edge">
<title>Node25&#45;&gt;Node3</title>
<path fill="none" stroke="#9a32cd" stroke-dasharray="5,2" d="M1107.54,-119.19C1162.09,-116.57 1246.69,-118.21 1314,-145 1327.87,-150.52 1340.79,-162.06 1348.89,-170.39"/>
<polygon fill="#9a32cd" stroke="#9a32cd" points="1107.18,-115.71 1097.39,-119.75 1107.56,-122.7 1107.18,-115.71"/>
<text text-anchor="middle" x="1235" y="-148" font-family="Helvetica,sans-Serif" font-size="10.00"> config</text>
</g>
</g>
</svg>
        <g id="navigator" transform="translate(0 0)" fill="#404254">
                <rect fill="#f2f5e9" fill-opacity="0.5" stroke="#606060" stroke-width=".5" x="0" y="0" width="60" height="60"/>
                <use id="zoomplus" xlink:href="#zoomPlus" x="17" y="9" onmousedown="handleZoom(evt,'in')"/>
                <use id="zoomminus" xlink:href="#zoomMin" x="42" y="9" onmousedown="handleZoom(evt,'out')"/>
                <use id="reset" xlink:href="#resetDef" x="30" y="36" onmousedown="handleReset()"/>
                <g id="arrowUp" xlink:href="#dirArrow" transform="translate(30 24)" onmousedown="handlePan(0,-1)">
                  <use xlink:href="#rim" fill="#404040">
                        <set attributeName="fill" to="#808080" begin="arrowUp.mouseover" end="arrowUp.mouseout"/>
                  </use>
                  <path fill="none" stroke="white" stroke-width="1.5" d="M0,-3.0v7 M-2.5,-0.5L0,-3.0L2.5,-0.5"/>
                </g>
                <g id="arrowRight" xlink:href="#dirArrow" transform="rotate(90) translate(36 -43)" onmousedown="handlePan(1,0)">
                  <use xlink:href="#rim" fill="#404040">
                        <set attributeName="fill" to="#808080" begin="arrowRight.mouseover" end="arrowRight.mouseout"/>
                  </use>
                  <path fill="none" stroke="white" stroke-width="1.5" d="M0,-3.0v7 M-2.5,-0.5L0,-3.0L2.5,-0.5"/>
                </g>
                <g id="arrowDown" xlink:href="#dirArrow" transform="rotate(180) translate(-30 -48)" onmousedown="handlePan(0,1)">
                  <use xlink:href="#rim" fill="#404040">
                        <set attributeName="fill" to="#808080" begin="arrowDown.mouseover" end="arrowDown.mouseout"/>
                  </use>
                  <path fill="none" stroke="white" stroke-width="1.5" d="M0,-3.0v7 M-2.5,-0.5L0,-3.0L2.5,-0.5"/>
                </g>
                <g id="arrowLeft" xlink:href="#dirArrow" transform="rotate(270) translate(-36 17)" onmousedown="handlePan(-1,0)">
                  <use xlink:href="#rim" fill="#404040">
                        <set attributeName="fill" to="#808080" begin="arrowLeft.mouseover" end="arrowLeft.mouseout"/>
                  </use>
                  <path fill="none" stroke="white" stroke-width="1.5" d="M0,-3.0v7 M-2.5,-0.5L0,-3.0L2.5,-0.5"/>
                </g>
        </g>
        <svg viewBox="0 0 15 15" width="100%" height="30px" preserveAspectRatio="xMaxYMin meet">
         <g id="arrow_out" transform="scale(0.3 0.3)">
          <a xlink:href="structSqshXattrIterator__coll__graph_org.svg" target="_base">
           <rect id="button" ry="5" rx="5" y="6" x="6" height="38" width="38"
                fill="#f2f5e9" fill-opacity="0.5" stroke="#606060" stroke-width="1.0"/>
           <path id="arrow"
             d="M 11.500037,31.436501 C 11.940474,20.09759 22.043105,11.32322 32.158766,21.979434 L 37.068811,17.246167 C 37.068811,17.246167 37.088388,32 37.088388,32 L 22.160133,31.978069 C 22.160133,31.978069 26.997745,27.140456 26.997745,27.140456 C 18.528582,18.264221 13.291696,25.230495 11.500037,31.436501 z"
             style="fill:#404040;"/>
          </a>
         </g>
        </svg>
</svg>
