<?xml version="1.0" encoding="UTF-8" standalone="no"?>
<!DOCTYPE svg PUBLIC "-//W3C//DTD SVG 1.1//EN"
 "http://www.w3.org/Graphics/SVG/1.1/DTD/svg11.dtd">
<!-- Generated by graphviz version 3.0.0 (20220413.0242)
 -->
<!-- Title: SqshXattrTable Pages: 1 -->
<svg width="1776pt" height="492pt"
 viewBox="0.00 0.00 1776.00 492.00" xmlns="http://www.w3.org/2000/svg" xmlns:xlink="http://www.w3.org/1999/xlink">
<g id="graph0" class="graph" transform="scale(1 1) rotate(0) translate(4 488)">
<title>SqshXattrTable</title>
<polygon fill="white" stroke="transparent" points="-4,4 -4,-488 1772,-488 1772,4 -4,4"/>
<!-- Node1 -->
<g id="node1" class="node">
<title>Node1</title>
<g id="a_node1"><a xlink:title=" ">
<polygon fill="#bfbfbf" stroke="black" points="876,-269.5 876,-288.5 998,-288.5 998,-269.5 876,-269.5"/>
<text text-anchor="middle" x="937" y="-276.5" font-family="Helvetica,sans-Serif" font-size="10.00">SqshXattrTable</text>
</a>
</g>
</g>
<!-- Node2 -->
<g id="node2" class="node">
<title>Node2</title>
<g id="a_node2"><a xlink:href="structSqsh.html" target="_top" xlink:title="The SqshContext struct contains all information about the current sqsh session.">
<polygon fill="white" stroke="black" points="1248,-209.5 1248,-228.5 1295,-228.5 1295,-209.5 1248,-209.5"/>
<text text-anchor="middle" x="1271.5" y="-216.5" font-family="Helvetica,sans-Serif" font-size="10.00">Sqsh</text>
</a>
</g>
</g>
<!-- Node1&#45;&gt;Node2 -->
<g id="edge22" class="edge">
<title>Node1&#45;&gt;Node2</title>
<path fill="none" stroke="#9a32cd" stroke-dasharray="5,2" d="M1008.13,-277.94C1081.53,-275.96 1191.38,-270.28 1230,-254 1243.19,-248.44 1255.16,-236.9 1262.62,-228.59"/>
<polygon fill="#9a32cd" stroke="#9a32cd" points="1007.93,-274.45 998.02,-278.2 1008.11,-281.44 1007.93,-274.45"/>
<text text-anchor="middle" x="1151" y="-278" font-family="Helvetica,sans-Serif" font-size="10.00"> xattr_table</text>
</g>
<!-- Node2&#45;&gt;Node1 -->
<g id="edge1" class="edge">
<title>Node2&#45;&gt;Node1</title>
<path fill="none" stroke="#9a32cd" stroke-dasharray="5,2" d="M1237.59,-221.54C1198.03,-224.92 1129.75,-231.81 1072,-243 1036.05,-249.97 995.55,-261.35 968.58,-269.45"/>
<polygon fill="#9a32cd" stroke="#9a32cd" points="1238.04,-225.01 1247.71,-220.7 1237.46,-218.04 1238.04,-225.01"/>
<text text-anchor="middle" x="1151" y="-246" font-family="Helvetica,sans-Serif" font-size="10.00"> sqsh</text>
</g>
<!-- Node17 -->
<g id="node17" class="node">
<title>Node17</title>
<g id="a_node17"><a xlink:href="structSqshTable.html" target="_top" xlink:title=" ">
<polygon fill="white" stroke="black" points="1443.5,-235.5 1443.5,-254.5 1527.5,-254.5 1527.5,-235.5 1443.5,-235.5"/>
<text text-anchor="middle" x="1485.5" y="-242.5" font-family="Helvetica,sans-Serif" font-size="10.00">SqshTable</text>
</a>
</g>
</g>
<!-- Node2&#45;&gt;Node17 -->
<g id="edge19" class="edge">
<title>Node2&#45;&gt;Node17</title>
<path fill="none" stroke="#9a32cd" stroke-dasharray="5,2" d="M1305.39,-215.41C1333.63,-213.13 1375.31,-211.65 1411,-218 1429.74,-221.33 1449.96,-229.1 1464.44,-235.45"/>
<polygon fill="#9a32cd" stroke="#9a32cd" points="1304.91,-211.94 1295.26,-216.31 1305.53,-218.91 1304.91,-211.94"/>
<text text-anchor="middle" x="1362" y="-221" font-family="Helvetica,sans-Serif" font-size="10.00"> sqsh</text>
</g>
<!-- Node3 -->
<g id="node3" class="node">
<title>Node3</title>
<g id="a_node3"><a xlink:href="structSqshMapper.html" target="_top" xlink:title=" ">
<polygon fill="white" stroke="black" points="259.5,-82.5 259.5,-101.5 351.5,-101.5 351.5,-82.5 259.5,-82.5"/>
<text text-anchor="middle" x="305.5" y="-89.5" font-family="Helvetica,sans-Serif" font-size="10.00">SqshMapper</text>
</a>
</g>
</g>
<!-- Node3&#45;&gt;Node2 -->
<g id="edge2" class="edge">
<title>Node3&#45;&gt;Node2</title>
<path fill="none" stroke="#9a32cd" stroke-dasharray="5,2" d="M361.71,-99.7C390.64,-103.52 426.68,-107.96 459,-111 544.46,-119.03 1155.35,-117.62 1230,-160 1249.45,-171.04 1261.57,-195.72 1267.05,-209.41"/>
<polygon fill="#9a32cd" stroke="#9a32cd" points="362.17,-96.23 351.8,-98.37 361.25,-103.16 362.17,-96.23"/>
<text text-anchor="middle" x="756.5" y="-135" font-family="Helvetica,sans-Serif" font-size="10.00"> mapper</text>
<text text-anchor="middle" x="756.5" y="-124" font-family="Helvetica,sans-Serif" font-size="10.00">table_mapper</text>
</g>
<!-- Node11 -->
<g id="node11" class="node">
<title>Node11</title>
<g id="a_node11"><a xlink:href="structSqshMapping.html" target="_top" xlink:title=" ">
<polygon fill="white" stroke="black" points="526.5,-317.5 526.5,-336.5 625.5,-336.5 625.5,-317.5 526.5,-317.5"/>
<text text-anchor="middle" x="576" y="-324.5" font-family="Helvetica,sans-Serif" font-size="10.00">SqshMapping</text>
</a>
</g>
</g>
<!-- Node3&#45;&gt;Node11 -->
<g id="edge11" class="edge">
<title>Node3&#45;&gt;Node11</title>
<path fill="none" stroke="#9a32cd" stroke-dasharray="5,2" d="M325.14,-108.32C377.16,-153.85 522.79,-281.31 564.01,-317.38"/>
<polygon fill="#9a32cd" stroke="#9a32cd" points="327.19,-105.46 317.36,-101.5 322.58,-110.72 327.19,-105.46"/>
<text text-anchor="middle" x="414.5" y="-212" font-family="Helvetica,sans-Serif" font-size="10.00"> mapper</text>
</g>
<!-- Node3&#45;&gt;Node17 -->
<g id="edge20" class="edge">
<title>Node3&#45;&gt;Node17</title>
<path fill="none" stroke="#9a32cd" stroke-dasharray="5,2" d="M349.79,-79.92C402.53,-66.29 494.58,-46 575,-46 575,-46 575,-46 1272.5,-46 1337.36,-46 1369.18,-42.42 1411,-92 1445.21,-132.55 1399.94,-165.62 1429,-210 1436.43,-221.34 1448.94,-229.7 1460.21,-235.4"/>
<polygon fill="#9a32cd" stroke="#9a32cd" points="348.88,-76.54 340.09,-82.47 350.65,-83.32 348.88,-76.54"/>
<text text-anchor="middle" x="937" y="-49" font-family="Helvetica,sans-Serif" font-size="10.00"> mapper</text>
</g>
<!-- Node18 -->
<g id="node18" class="node">
<title>Node18</title>
<g id="a_node18"><a xlink:href="structSqshFragmentTable.html" target="_top" xlink:title=" ">
<polygon fill="white" stroke="black" points="1624,-176.5 1624,-195.5 1768,-195.5 1768,-176.5 1624,-176.5"/>
<text text-anchor="middle" x="1696" y="-183.5" font-family="Helvetica,sans-Serif" font-size="10.00">SqshFragmentTable</text>
</a>
</g>
</g>
<!-- Node3&#45;&gt;Node18 -->
<g id="edge26" class="edge">
<title>Node3&#45;&gt;Node18</title>
<path fill="none" stroke="#9a32cd" stroke-dasharray="5,2" d="M331.2,-77.35C377.4,-51.38 480.73,0 575,0 575,0 575,0 1486.5,0 1593.46,0 1670.85,-137.99 1690.25,-176.26"/>
<polygon fill="#9a32cd" stroke="#9a32cd" points="329.44,-74.33 322.49,-82.33 332.91,-80.4 329.44,-74.33"/>
<text text-anchor="middle" x="1151" y="-3" font-family="Helvetica,sans-Serif" font-size="10.00"> mapper</text>
</g>
<!-- Node4 -->
<g id="node4" class="node">
<title>Node4</title>
<g id="a_node4"><a xlink:href="structSqshMemoryMapperImpl.html" target="_top" xlink:title=" ">
<polygon fill="white" stroke="black" points="0,-158.5 0,-177.5 167,-177.5 167,-158.5 0,-158.5"/>
<text text-anchor="middle" x="83.5" y="-165.5" font-family="Helvetica,sans-Serif" font-size="10.00">SqshMemoryMapperImpl</text>
</a>
</g>
</g>
<!-- Node4&#45;&gt;Node3 -->
<g id="edge3" class="edge">
<title>Node4&#45;&gt;Node3</title>
<path fill="none" stroke="#9a32cd" stroke-dasharray="5,2" d="M141.5,-156.03C150.1,-153.89 158.83,-151.53 167,-149 209.95,-135.7 258.04,-114.15 284.44,-101.7"/>
<polygon fill="#9a32cd" stroke="#9a32cd" points="140.41,-152.7 131.51,-158.44 142.05,-159.5 140.41,-152.7"/>
<text text-anchor="middle" x="204" y="-145" font-family="Helvetica,sans-Serif" font-size="10.00"> impl</text>
</g>
<!-- Node5 -->
<g id="node5" class="node">
<title>Node5</title>
<g id="a_node5"><a xlink:href="structSqshMmapFullMapper.html" target="_top" xlink:title=" ">
<polygon fill="white" stroke="black" points="7.5,-120.5 7.5,-139.5 159.5,-139.5 159.5,-120.5 7.5,-120.5"/>
<text text-anchor="middle" x="83.5" y="-127.5" font-family="Helvetica,sans-Serif" font-size="10.00">SqshMmapFullMapper</text>
</a>
</g>
</g>
<!-- Node5&#45;&gt;Node3 -->
<g id="edge4" class="edge">
<title>Node5&#45;&gt;Node3</title>
<path fill="none" stroke="#9a32cd" stroke-dasharray="5,2" d="M153.21,-118.83C175.49,-115.15 200.31,-110.97 223,-107 234.76,-104.94 247.46,-102.64 259.26,-100.47"/>
<polygon fill="#9a32cd" stroke="#9a32cd" points="152.47,-115.41 143.17,-120.49 153.6,-122.31 152.47,-115.41"/>
<text text-anchor="middle" x="204" y="-115" font-family="Helvetica,sans-Serif" font-size="10.00"> mc</text>
</g>
<!-- Node6 -->
<g id="node6" class="node">
<title>Node6</title>
<g id="a_node6"><a xlink:href="structSqshMmapMapper.html" target="_top" xlink:title=" ">
<polygon fill="white" stroke="black" points="22.5,-82.5 22.5,-101.5 144.5,-101.5 144.5,-82.5 22.5,-82.5"/>
<text text-anchor="middle" x="83.5" y="-89.5" font-family="Helvetica,sans-Serif" font-size="10.00">SqshMmapMapper</text>
</a>
</g>
</g>
<!-- Node6&#45;&gt;Node3 -->
<g id="edge5" class="edge">
<title>Node6&#45;&gt;Node3</title>
<path fill="none" stroke="#9a32cd" stroke-dasharray="5,2" d="M155.04,-92C189.29,-92 229.42,-92 259.47,-92"/>
<polygon fill="#9a32cd" stroke="#9a32cd" points="154.62,-88.5 144.62,-92 154.62,-95.5 154.62,-88.5"/>
<text text-anchor="middle" x="204" y="-95" font-family="Helvetica,sans-Serif" font-size="10.00"> mm</text>
</g>
<!-- Node7 -->
<g id="node7" class="node">
<title>Node7</title>
<g id="a_node7"><a xlink:href="structSqshStaticMapper.html" target="_top" xlink:title=" ">
<polygon fill="white" stroke="black" points="15,-44.5 15,-63.5 152,-63.5 152,-44.5 15,-44.5"/>
<text text-anchor="middle" x="83.5" y="-51.5" font-family="Helvetica,sans-Serif" font-size="10.00">SqshStaticMapper</text>
</a>
</g>
</g>
<!-- Node7&#45;&gt;Node3 -->
<g id="edge6" class="edge">
<title>Node7&#45;&gt;Node3</title>
<path fill="none" stroke="#9a32cd" stroke-dasharray="5,2" d="M153.21,-65.17C175.49,-68.85 200.31,-73.03 223,-77 234.76,-79.06 247.46,-81.36 259.26,-83.53"/>
<polygon fill="#9a32cd" stroke="#9a32cd" points="153.6,-61.69 143.17,-63.51 152.47,-68.59 153.6,-61.69"/>
<text text-anchor="middle" x="204" y="-80" font-family="Helvetica,sans-Serif" font-size="10.00"> sm</text>
</g>
<!-- Node8 -->
<g id="node8" class="node">
<title>Node8</title>
<g id="a_node8"><a xlink:href="structSqshCanaryMapper.html" target="_top" xlink:title=" ">
<polygon fill="white" stroke="black" points="15,-6.5 15,-25.5 152,-25.5 152,-6.5 15,-6.5"/>
<text text-anchor="middle" x="83.5" y="-13.5" font-family="Helvetica,sans-Serif" font-size="10.00">SqshCanaryMapper</text>
</a>
</g>
</g>
<!-- Node8&#45;&gt;Node3 -->
<g id="edge7" class="edge">
<title>Node8&#45;&gt;Node3</title>
<path fill="none" stroke="#9a32cd" stroke-dasharray="5,2" d="M140.87,-27.93C149.67,-30.1 158.62,-32.47 167,-35 210.3,-48.04 258.66,-69.89 284.92,-82.41"/>
<polygon fill="#9a32cd" stroke="#9a32cd" points="141.57,-24.5 131.04,-25.58 139.95,-31.31 141.57,-24.5"/>
<text text-anchor="middle" x="204" y="-57" font-family="Helvetica,sans-Serif" font-size="10.00"> cn</text>
</g>
<!-- Node9 -->
<g id="node9" class="node">
<title>Node9</title>
<g id="a_node9"><a xlink:href="structSqshCompression.html" target="_top" xlink:title=" ">
<polygon fill="white" stroke="black" points="872.5,-82.5 872.5,-101.5 1001.5,-101.5 1001.5,-82.5 872.5,-82.5"/>
<text text-anchor="middle" x="937" y="-89.5" font-family="Helvetica,sans-Serif" font-size="10.00">SqshCompression</text>
</a>
</g>
</g>
<!-- Node9&#45;&gt;Node2 -->
<g id="edge8" class="edge">
<title>Node9&#45;&gt;Node2</title>
<path fill="none" stroke="#9a32cd" stroke-dasharray="5,2" d="M1012.01,-86.19C1087.04,-81.86 1196.69,-80.35 1230,-105 1264.11,-130.23 1269.61,-186.62 1270.41,-209.29"/>
<polygon fill="#9a32cd" stroke="#9a32cd" points="1011.43,-82.72 1001.66,-86.81 1011.85,-89.7 1011.43,-82.72"/>
<text text-anchor="middle" x="1151" y="-119" font-family="Helvetica,sans-Serif" font-size="10.00"> data_compression</text>
<text text-anchor="middle" x="1151" y="-108" font-family="Helvetica,sans-Serif" font-size="10.00">metablock_compression</text>
</g>
<!-- Node9&#45;&gt;Node18 -->
<g id="edge27" class="edge">
<title>Node9&#45;&gt;Node18</title>
<path fill="none" stroke="#9a32cd" stroke-dasharray="5,2" d="M1011.78,-87.45C1031.35,-86.44 1052.47,-85.51 1072,-85 1142.2,-83.17 1160.18,-77.5 1230,-85 1395.1,-102.72 1587.6,-154.88 1662.69,-176.47"/>
<polygon fill="#9a32cd" stroke="#9a32cd" points="1011.5,-83.96 1001.7,-87.99 1011.88,-90.95 1011.5,-83.96"/>
<text text-anchor="middle" x="1362" y="-116" font-family="Helvetica,sans-Serif" font-size="10.00"> compression</text>
</g>
<!-- Node10 -->
<g id="node10" class="node">
<title>Node10</title>
<g id="a_node10"><a xlink:href="structSqshCompressionImplementation.html" target="_top" xlink:title=" ">
<polygon fill="white" stroke="black" points="459,-82.5 459,-101.5 693,-101.5 693,-82.5 459,-82.5"/>
<text text-anchor="middle" x="576" y="-89.5" font-family="Helvetica,sans-Serif" font-size="10.00">SqshCompressionImplementation</text>
</a>
</g>
</g>
<!-- Node10&#45;&gt;Node9 -->
<g id="edge9" class="edge">
<title>Node10&#45;&gt;Node9</title>
<path fill="none" stroke="#9a32cd" stroke-dasharray="5,2" d="M703.27,-92C760.46,-92 825.57,-92 872.35,-92"/>
<polygon fill="#9a32cd" stroke="#9a32cd" points="703.06,-88.5 693.06,-92 703.06,-95.5 703.06,-88.5"/>
<text text-anchor="middle" x="756.5" y="-95" font-family="Helvetica,sans-Serif" font-size="10.00"> impl</text>
</g>
<!-- Node11&#45;&gt;Node1 -->
<g id="edge31" class="edge">
<title>Node11&#45;&gt;Node1</title>
<path fill="none" stroke="#9a32cd" stroke-dasharray="5,2" d="M632.74,-315.54C656.74,-310.88 685.18,-305.72 711,-302 766.58,-293.99 830.27,-287.75 875.67,-283.81"/>
<polygon fill="#9a32cd" stroke="#9a32cd" points="631.88,-312.14 622.74,-317.5 633.22,-319.01 631.88,-312.14"/>
<text text-anchor="middle" x="756.5" y="-305" font-family="Helvetica,sans-Serif" font-size="10.00"> header</text>
</g>
<!-- Node11&#45;&gt;Node2 -->
<g id="edge10" class="edge">
<title>Node11&#45;&gt;Node2</title>
<path fill="none" stroke="#9a32cd" stroke-dasharray="5,2" d="M635.74,-326.84C786.75,-326 1180.22,-320.83 1230,-290 1252.56,-276.03 1263.77,-244.58 1268.18,-228.65"/>
<polygon fill="#9a32cd" stroke="#9a32cd" points="635.7,-323.34 625.72,-326.9 635.74,-330.34 635.7,-323.34"/>
<text text-anchor="middle" x="937" y="-327" font-family="Helvetica,sans-Serif" font-size="10.00"> table_map</text>
</g>
<!-- Node16 -->
<g id="node16" class="node">
<title>Node16</title>
<g id="a_node16"><a xlink:href="structSqshSuperblockContext.html" target="_top" xlink:title=" ">
<polygon fill="white" stroke="black" points="850,-356.5 850,-375.5 1024,-375.5 1024,-356.5 850,-356.5"/>
<text text-anchor="middle" x="937" y="-363.5" font-family="Helvetica,sans-Serif" font-size="10.00">SqshSuperblockContext</text>
</a>
</g>
</g>
<!-- Node11&#45;&gt;Node16 -->
<g id="edge17" class="edge">
<title>Node11&#45;&gt;Node16</title>
<path fill="none" stroke="#9a32cd" stroke-dasharray="5,2" d="M635.91,-333.4C694.04,-339.71 783.57,-349.44 849.72,-356.63"/>
<polygon fill="#9a32cd" stroke="#9a32cd" points="636.11,-329.9 625.79,-332.3 635.35,-336.86 636.11,-329.9"/>
<text text-anchor="middle" x="756.5" y="-354" font-family="Helvetica,sans-Serif" font-size="10.00"> mapping</text>
</g>
<!-- Node11&#45;&gt;Node17 -->
<g id="edge21" class="edge">
<title>Node11&#45;&gt;Node17</title>
<path fill="none" stroke="#9a32cd" stroke-dasharray="5,2" d="M605.31,-340.9C717.86,-393.99 1140.55,-572.54 1411,-401 1464.35,-367.16 1479.69,-283.13 1483.43,-254.63"/>
<polygon fill="#9a32cd" stroke="#9a32cd" points="606.81,-337.74 596.27,-336.59 603.79,-344.06 606.81,-337.74"/>
<text text-anchor="middle" x="1151" y="-476" font-family="Helvetica,sans-Serif" font-size="10.00"> lookup_table</text>
</g>
<!-- Node12 -->
<g id="node12" class="node">
<title>Node12</title>
<g id="a_node12"><a xlink:href="structSqshMmapFullMap.html" target="_top" xlink:title=" ">
<polygon fill="white" stroke="black" points="241,-298.5 241,-317.5 370,-317.5 370,-298.5 241,-298.5"/>
<text text-anchor="middle" x="305.5" y="-305.5" font-family="Helvetica,sans-Serif" font-size="10.00">SqshMmapFullMap</text>
</a>
</g>
</g>
<!-- Node12&#45;&gt;Node11 -->
<g id="edge12" class="edge">
<title>Node12&#45;&gt;Node11</title>
<path fill="none" stroke="#9a32cd" stroke-dasharray="5,2" d="M380.33,-309.85C400.06,-310.59 421.35,-311.61 441,-313 469.35,-315.01 500.97,-318.26 526.38,-321.13"/>
<polygon fill="#9a32cd" stroke="#9a32cd" points="380.29,-306.35 370.18,-309.49 380.05,-313.35 380.29,-306.35"/>
<text text-anchor="middle" x="414.5" y="-316" font-family="Helvetica,sans-Serif" font-size="10.00"> mc</text>
</g>
<!-- Node13 -->
<g id="node13" class="node">
<title>Node13</title>
<g id="a_node13"><a xlink:href="structSqshMmapMap.html" target="_top" xlink:title=" ">
<polygon fill="white" stroke="black" points="256,-260.5 256,-279.5 355,-279.5 355,-260.5 256,-260.5"/>
<text text-anchor="middle" x="305.5" y="-267.5" font-family="Helvetica,sans-Serif" font-size="10.00">SqshMmapMap</text>
</a>
</g>
</g>
<!-- Node13&#45;&gt;Node11 -->
<g id="edge13" class="edge">
<title>Node13&#45;&gt;Node11</title>
<path fill="none" stroke="#9a32cd" stroke-dasharray="5,2" d="M365.05,-280.22C388.69,-284.52 416.2,-289.74 441,-295 473.64,-301.93 510.5,-310.81 537.28,-317.45"/>
<polygon fill="#9a32cd" stroke="#9a32cd" points="365.64,-276.77 355.18,-278.43 364.4,-283.66 365.64,-276.77"/>
<text text-anchor="middle" x="414.5" y="-298" font-family="Helvetica,sans-Serif" font-size="10.00"> mm</text>
</g>
<!-- Node14 -->
<g id="node14" class="node">
<title>Node14</title>
<g id="a_node14"><a xlink:href="structSqshStaticMap.html" target="_top" xlink:title=" ">
<polygon fill="white" stroke="black" points="248.5,-374.5 248.5,-393.5 362.5,-393.5 362.5,-374.5 248.5,-374.5"/>
<text text-anchor="middle" x="305.5" y="-381.5" font-family="Helvetica,sans-Serif" font-size="10.00">SqshStaticMap</text>
</a>
</g>
</g>
<!-- Node14&#45;&gt;Node11 -->
<g id="edge14" class="edge">
<title>Node14&#45;&gt;Node11</title>
<path fill="none" stroke="#9a32cd" stroke-dasharray="5,2" d="M361.38,-372.35C411.1,-361.79 483.49,-346.43 529.91,-336.57"/>
<polygon fill="#9a32cd" stroke="#9a32cd" points="360.5,-368.96 351.44,-374.46 361.95,-375.81 360.5,-368.96"/>
<text text-anchor="middle" x="414.5" y="-368" font-family="Helvetica,sans-Serif" font-size="10.00"> sm</text>
</g>
<!-- Node15 -->
<g id="node15" class="node">
<title>Node15</title>
<g id="a_node15"><a xlink:href="structSqshCanaryMap.html" target="_top" xlink:title=" ">
<polygon fill="white" stroke="black" points="248.5,-336.5 248.5,-355.5 362.5,-355.5 362.5,-336.5 248.5,-336.5"/>
<text text-anchor="middle" x="305.5" y="-343.5" font-family="Helvetica,sans-Serif" font-size="10.00">SqshCanaryMap</text>
</a>
</g>
</g>
<!-- Node15&#45;&gt;Node11 -->
<g id="edge15" class="edge">
<title>Node15&#45;&gt;Node11</title>
<path fill="none" stroke="#9a32cd" stroke-dasharray="5,2" d="M373,-341.29C420.57,-337.93 483.54,-333.47 526.44,-330.44"/>
<polygon fill="#9a32cd" stroke="#9a32cd" points="372.51,-337.82 362.79,-342.02 373.01,-344.8 372.51,-337.82"/>
<text text-anchor="middle" x="414.5" y="-342" font-family="Helvetica,sans-Serif" font-size="10.00"> cn</text>
</g>
<!-- Node16&#45;&gt;Node2 -->
<g id="edge16" class="edge">
<title>Node16&#45;&gt;Node2</title>
<path fill="none" stroke="#9a32cd" stroke-dasharray="5,2" d="M1034.12,-362.03C1113.28,-357.91 1214.87,-350.31 1230,-338 1250.94,-320.97 1239.33,-305.56 1248,-280 1254.17,-261.83 1262.06,-240.89 1266.68,-228.87"/>
<polygon fill="#9a32cd" stroke="#9a32cd" points="1033.91,-358.54 1024.1,-362.54 1034.26,-365.53 1033.91,-358.54"/>
<text text-anchor="middle" x="1151" y="-362" font-family="Helvetica,sans-Serif" font-size="10.00"> superblock</text>
</g>
<!-- Node16&#45;&gt;Node18 -->
<g id="edge24" class="edge">
<title>Node16&#45;&gt;Node18</title>
<path fill="none" stroke="#9a32cd" stroke-dasharray="5,2" d="M1026.92,-376.37C1085.1,-381.07 1162.55,-383.34 1230,-372 1405.1,-342.55 1446.88,-315.79 1606,-237 1632.49,-223.88 1662.05,-206.33 1679.56,-195.61"/>
<polygon fill="#9a32cd" stroke="#9a32cd" points="1026.92,-372.86 1016.66,-375.5 1026.33,-379.84 1026.92,-372.86"/>
<text text-anchor="middle" x="1362" y="-358" font-family="Helvetica,sans-Serif" font-size="10.00"> superblock</text>
</g>
<!-- Node17&#45;&gt;Node1 -->
<g id="edge32" class="edge">
<title>Node17&#45;&gt;Node1</title>
<path fill="none" stroke="#9a32cd" stroke-dasharray="5,2" d="M1448.72,-257.72C1436.85,-261.53 1423.47,-265.39 1411,-268 1263.28,-298.97 1222.84,-293.06 1072,-288 1047.88,-287.19 1021.36,-285.56 998.32,-283.91"/>
<polygon fill="#9a32cd" stroke="#9a32cd" points="1449.89,-261.02 1458.29,-254.56 1447.7,-254.37 1449.89,-261.02"/>
<text text-anchor="middle" x="1271.5" y="-294" font-family="Helvetica,sans-Serif" font-size="10.00"> table</text>
</g>
<!-- Node17&#45;&gt;Node2 -->
<g id="edge18" class="edge">
<title>Node17&#45;&gt;Node2</title>
<path fill="none" stroke="#9a32cd" stroke-dasharray="5,2" d="M1433.06,-243.57C1398.8,-241.94 1352.92,-238.46 1313,-231 1307.09,-229.9 1300.81,-228.27 1295,-226.56"/>
<polygon fill="#9a32cd" stroke="#9a32cd" points="1433.15,-247.08 1443.3,-244.02 1433.46,-240.09 1433.15,-247.08"/>
<text text-anchor="middle" x="1362" y="-256" font-family="Helvetica,sans-Serif" font-size="10.00"> export_table</text>
<text text-anchor="middle" x="1362" y="-245" font-family="Helvetica,sans-Serif" font-size="10.00">id_table</text>
</g>
<!-- Node17&#45;&gt;Node18 -->
<g id="edge25" class="edge">
<title>Node17&#45;&gt;Node18</title>
<path fill="none" stroke="#9a32cd" stroke-dasharray="5,2" d="M1530.5,-232.55C1569.57,-221.49 1625.84,-205.57 1661.4,-195.51"/>
<polygon fill="#9a32cd" stroke="#9a32cd" points="1529.13,-229.3 1520.46,-235.39 1531.04,-236.03 1529.13,-229.3"/>
<text text-anchor="middle" x="1583" y="-225" font-family="Helvetica,sans-Serif" font-size="10.00"> table</text>
</g>
<!-- Node18&#45;&gt;Node2 -->
<g id="edge23" class="edge">
<title>Node18&#45;&gt;Node2</title>
<path fill="none" stroke="#9a32cd" stroke-dasharray="5,2" d="M1613.64,-186.62C1536,-188.22 1415.93,-193.33 1313,-209 1307.13,-209.89 1300.86,-211.24 1295.06,-212.66"/>
<polygon fill="#9a32cd" stroke="#9a32cd" points="1613.91,-190.12 1623.84,-186.43 1613.77,-183.12 1613.91,-190.12"/>
<text text-anchor="middle" x="1485.5" y="-198" font-family="Helvetica,sans-Serif" font-size="10.00"> fragment_table</text>
</g>
<!-- Node19 -->
<g id="node19" class="node">
<title>Node19</title>
<g id="a_node19"><a xlink:href="structSqshCompressionOptionsContext.html" target="_top" xlink:title="The compression options context is used to store the compression options for a specific compression a...">
<polygon fill="white" stroke="black" points="820,-166.5 820,-185.5 1054,-185.5 1054,-166.5 820,-166.5"/>
<text text-anchor="middle" x="937" y="-173.5" font-family="Helvetica,sans-Serif" font-size="10.00">SqshCompressionOptionsContext</text>
</a>
</g>
</g>
<!-- Node19&#45;&gt;Node2 -->
<g id="edge28" class="edge">
<title>Node19&#45;&gt;Node2</title>
<path fill="none" stroke="#9a32cd" stroke-dasharray="5,2" d="M1028.94,-165.88C1087.98,-162.63 1165.62,-164.7 1230,-188 1242.32,-192.46 1253.93,-202.12 1261.54,-209.48"/>
<polygon fill="#9a32cd" stroke="#9a32cd" points="1028.66,-162.4 1018.89,-166.5 1029.08,-169.38 1028.66,-162.4"/>
<text text-anchor="middle" x="1151" y="-191" font-family="Helvetica,sans-Serif" font-size="10.00"> compression_options</text>
</g>
<!-- Node20 -->
<g id="node20" class="node">
<title>Node20</title>
<g id="a_node20"><a xlink:href="structSqshBuffer.html" target="_top" xlink:title="The SqshBuffer struct is a buffer for arbitrary data.">
<polygon fill="white" stroke="black" points="530,-173.5 530,-192.5 622,-192.5 622,-173.5 530,-173.5"/>
<text text-anchor="middle" x="576" y="-180.5" font-family="Helvetica,sans-Serif" font-size="10.00">SqshBuffer</text>
</a>
</g>
</g>
<!-- Node20&#45;&gt;Node19 -->
<g id="edge29" class="edge">
<title>Node20&#45;&gt;Node19</title>
<path fill="none" stroke="#9a32cd" stroke-dasharray="5,2" d="M632.34,-181.92C682.15,-180.95 756.96,-179.49 819.86,-178.26"/>
<polygon fill="#9a32cd" stroke="#9a32cd" points="632.03,-178.43 622.1,-182.12 632.17,-185.42 632.03,-178.43"/>
<text text-anchor="middle" x="756.5" y="-183" font-family="Helvetica,sans-Serif" font-size="10.00"> buffer</text>
</g>
<!-- Node21 -->
<g id="node21" class="node">
<title>Node21</title>
<g id="a_node21"><a xlink:href="structSqshConfig.html" target="_top" xlink:title="The SqshConfig struct contains all the configuration options for a sqsh session.">
<polygon fill="white" stroke="black" points="891,-204.5 891,-223.5 983,-223.5 983,-204.5 891,-204.5"/>
<text text-anchor="middle" x="937" y="-211.5" font-family="Helvetica,sans-Serif" font-size="10.00">SqshConfig</text>
</a>
</g>
</g>
<!-- Node21&#45;&gt;Node2 -->
<g id="edge30" class="edge">
<title>Node21&#45;&gt;Node2</title>
<path fill="none" stroke="#9a32cd" stroke-dasharray="5,2" d="M993.42,-208.53C1052.33,-203.76 1148.1,-199.04 1230,-209 1235.9,-209.72 1242.17,-211 1247.97,-212.41"/>
<polygon fill="#9a32cd" stroke="#9a32cd" points="992.89,-205.06 983.22,-209.38 993.48,-212.03 992.89,-205.06"/>
<text text-anchor="middle" x="1151" y="-212" font-family="Helvetica,sans-Serif" font-size="10.00"> config</text>
</g>
</g>
</svg>
