<?xml version="1.0" encoding="UTF-8" standalone="no"?>
<!DOCTYPE svg PUBLIC "-//W3C//DTD SVG 1.1//EN"
 "http://www.w3.org/Graphics/SVG/1.1/DTD/svg11.dtd">
<!-- Generated by graphviz version 3.0.0 (20220413.0242)
 -->
<!-- Title: Sqsh Pages: 1 -->
<!--zoomable 387 -->
<svg id="main" version="1.1" xmlns="http://www.w3.org/2000/svg" xmlns:xlink="http://www.w3.org/1999/xlink" xml:space="preserve" onload="init(evt)">
<style type="text/css"><![CDATA[
.edge:hover path { stroke: red; }
.edge:hover polygon { stroke: red; fill: red; }
]]></style>
<script type="text/javascript"><![CDATA[
var edges = document.getElementsByTagName('g');
if (edges && edges.length) {
  for (var i=0;i<edges.length;i++) {
    if (edges[i].id.substr(0,4)=='edge') {
      edges[i].setAttribute('class','edge');
    }
  }
}
]]></script>
        <defs>
                <circle id="rim" cx="0" cy="0" r="7"/>
                <circle id="rim2" cx="0" cy="0" r="3.5"/>
                <g id="zoomPlus">
                        <use xlink:href="#rim" fill="#404040">
                                <set attributeName="fill" to="#808080" begin="zoomplus.mouseover" end="zoomplus.mouseout"/>
                        </use>
                        <path d="M-4,0h8M0,-4v8" fill="none" stroke="white" stroke-width="1.5" pointer-events="none"/>
                </g>
                <g id="zoomMin">
                        <use xlink:href="#rim" fill="#404040">
                                <set attributeName="fill" to="#808080" begin="zoomminus.mouseover" end="zoomminus.mouseout"/>
                        </use>
                        <path d="M-4,0h8" fill="none" stroke="white" stroke-width="1.5" pointer-events="none"/>
                </g>
                <g id="dirArrow">
                        <path fill="none" stroke="white" stroke-width="1.5" d="M0,-3.0v7 M-2.5,-0.5L0,-3.0L2.5,-0.5"/>
                </g>
               <g id="resetDef">
                       <use xlink:href="#rim2" fill="#404040">
                               <set attributeName="fill" to="#808080" begin="reset.mouseover" end="reset.mouseout"/>
                       </use>
               </g>
        </defs>

<script type="text/javascript">
var viewWidth = 1782;
var viewHeight = 387;
var sectionId = 'dynsection-0';
</script>
<script xlink:href="svgpan.js"/>
<svg id="graph" class="graph">
<g id="viewport">
<title>Sqsh</title>
<polygon fill="white" stroke="transparent" points="-4,4 -4,-383 1778,-383 1778,4 -4,4"/>
<!-- Node1 -->
<g id="node1" class="node">
<title>Node1</title>
<g id="a_node1"><a xlink:title="The SqshContext struct contains all information about the current sqsh session.">
<polygon fill="#bfbfbf" stroke="black" points="1251,-167.5 1251,-186.5 1298,-186.5 1298,-167.5 1251,-167.5"/>
<text text-anchor="middle" x="1274.5" y="-174.5" font-family="Helvetica,sans-Serif" font-size="10.00">Sqsh</text>
</a>
</g>
</g>
<!-- Node16 -->
<g id="node16" class="node">
<title>Node16</title>
<g id="a_node16"><a xlink:href="structSqshTable.html" target="_top" xlink:title=" ">
<polygon fill="white" stroke="black" points="1449.5,-187.5 1449.5,-206.5 1533.5,-206.5 1533.5,-187.5 1449.5,-187.5"/>
<text text-anchor="middle" x="1491.5" y="-194.5" font-family="Helvetica,sans-Serif" font-size="10.00">SqshTable</text>
</a>
</g>
</g>
<!-- Node1&#45;&gt;Node16 -->
<g id="edge18" class="edge">
<title>Node1&#45;&gt;Node16</title>
<path fill="none" stroke="#9a32cd" stroke-dasharray="5,2" d="M1308.18,-176.17C1311.83,-176.1 1315.49,-176.04 1319,-176 1362.55,-175.5 1373.87,-169.96 1417,-176 1432.9,-178.23 1450.19,-183.04 1464.01,-187.5"/>
<polygon fill="#9a32cd" stroke="#9a32cd" points="1308,-172.67 1298.08,-176.38 1308.15,-179.67 1308,-172.67"/>
<text text-anchor="middle" x="1368" y="-179" font-family="Helvetica,sans-Serif" font-size="10.00"> sqsh</text>
</g>
<!-- Node17 -->
<g id="node17" class="node">
<title>Node17</title>
<g id="a_node17"><a xlink:href="structSqshXattrTable.html" target="_top" xlink:title=" ">
<polygon fill="white" stroke="black" points="1641,-109.5 1641,-128.5 1763,-128.5 1763,-109.5 1641,-109.5"/>
<text text-anchor="middle" x="1702" y="-116.5" font-family="Helvetica,sans-Serif" font-size="10.00">SqshXattrTable</text>
</a>
</g>
</g>
<!-- Node1&#45;&gt;Node17 -->
<g id="edge22" class="edge">
<title>Node1&#45;&gt;Node17</title>
<path fill="none" stroke="#9a32cd" stroke-dasharray="5,2" d="M1297.56,-162.11C1304.24,-158.08 1311.73,-154 1319,-151 1368.11,-130.7 1382.29,-128.79 1435,-122 1505.2,-112.96 1586.67,-113.67 1640.77,-115.69"/>
<polygon fill="#9a32cd" stroke="#9a32cd" points="1295.64,-159.18 1289.06,-167.48 1299.38,-165.1 1295.64,-159.18"/>
<text text-anchor="middle" x="1491.5" y="-125" font-family="Helvetica,sans-Serif" font-size="10.00"> sqsh</text>
</g>
<!-- Node2 -->
<g id="node2" class="node">
<title>Node2</title>
<g id="a_node2"><a xlink:href="structSqshMapper.html" target="_top" xlink:title=" ">
<polygon fill="white" stroke="black" points="259.5,-273.5 259.5,-292.5 351.5,-292.5 351.5,-273.5 259.5,-273.5"/>
<text text-anchor="middle" x="305.5" y="-280.5" font-family="Helvetica,sans-Serif" font-size="10.00">SqshMapper</text>
</a>
</g>
</g>
<!-- Node2&#45;&gt;Node1 -->
<g id="edge1" class="edge">
<title>Node2&#45;&gt;Node1</title>
<path fill="none" stroke="#9a32cd" stroke-dasharray="5,2" d="M361.73,-275.49C390.67,-271.71 426.71,-267.26 459,-264 722.89,-237.37 789.58,-238.74 1054,-218 1132.23,-211.86 1155.45,-228.49 1230,-204 1241.48,-200.23 1253.04,-192.84 1261.36,-186.75"/>
<polygon fill="#9a32cd" stroke="#9a32cd" points="361.27,-272.02 351.81,-276.79 362.18,-278.96 361.27,-272.02"/>
<text text-anchor="middle" x="756.5" y="-255" font-family="Helvetica,sans-Serif" font-size="10.00"> mapper</text>
<text text-anchor="middle" x="756.5" y="-244" font-family="Helvetica,sans-Serif" font-size="10.00">table_mapper</text>
</g>
<!-- Node10 -->
<g id="node10" class="node">
<title>Node10</title>
<g id="a_node10"><a xlink:href="structSqshMapping.html" target="_top" xlink:title=" ">
<polygon fill="white" stroke="black" points="526.5,-66.5 526.5,-85.5 625.5,-85.5 625.5,-66.5 526.5,-66.5"/>
<text text-anchor="middle" x="576" y="-73.5" font-family="Helvetica,sans-Serif" font-size="10.00">SqshMapping</text>
</a>
</g>
</g>
<!-- Node2&#45;&gt;Node10 -->
<g id="edge10" class="edge">
<title>Node2&#45;&gt;Node10</title>
<path fill="none" stroke="#9a32cd" stroke-dasharray="5,2" d="M324.74,-266.29C341,-251.59 365.63,-229.82 388,-212 450.48,-162.22 528.82,-107.65 560.61,-85.82"/>
<polygon fill="#9a32cd" stroke="#9a32cd" points="322.1,-263.96 317.05,-273.27 326.81,-269.14 322.1,-263.96"/>
<text text-anchor="middle" x="414.5" y="-215" font-family="Helvetica,sans-Serif" font-size="10.00"> mapper</text>
</g>
<!-- Node2&#45;&gt;Node16 -->
<g id="edge19" class="edge">
<title>Node2&#45;&gt;Node16</title>
<path fill="none" stroke="#9a32cd" stroke-dasharray="5,2" d="M349.79,-295.08C402.53,-308.71 494.58,-329 575,-329 575,-329 575,-329 1152,-329 1219.34,-329 1409.79,-237.19 1471.18,-206.71"/>
<polygon fill="#9a32cd" stroke="#9a32cd" points="350.65,-291.68 340.09,-292.53 348.88,-298.46 350.65,-291.68"/>
<text text-anchor="middle" x="937" y="-332" font-family="Helvetica,sans-Serif" font-size="10.00"> mapper</text>
</g>
<!-- Node18 -->
<g id="node18" class="node">
<title>Node18</title>
<g id="a_node18"><a xlink:href="structSqshFragmentTable.html" target="_top" xlink:title=" ">
<polygon fill="white" stroke="black" points="1630,-257.5 1630,-276.5 1774,-276.5 1774,-257.5 1630,-257.5"/>
<text text-anchor="middle" x="1702" y="-264.5" font-family="Helvetica,sans-Serif" font-size="10.00">SqshFragmentTable</text>
</a>
</g>
</g>
<!-- Node2&#45;&gt;Node18 -->
<g id="edge28" class="edge">
<title>Node2&#45;&gt;Node18</title>
<path fill="none" stroke="#9a32cd" stroke-dasharray="5,2" d="M332.72,-297.25C379.79,-321.45 482.37,-368 575,-368 575,-368 575,-368 1492.5,-368 1575.76,-368 1660.69,-301.96 1690.16,-276.68"/>
<polygon fill="#9a32cd" stroke="#9a32cd" points="334.29,-294.12 323.81,-292.59 331.05,-300.32 334.29,-294.12"/>
<text text-anchor="middle" x="1151" y="-371" font-family="Helvetica,sans-Serif" font-size="10.00"> mapper</text>
</g>
<!-- Node3 -->
<g id="node3" class="node">
<title>Node3</title>
<g id="a_node3"><a xlink:href="structSqshMemoryMapperImpl.html" target="_top" xlink:title=" ">
<polygon fill="white" stroke="black" points="0,-349.5 0,-368.5 167,-368.5 167,-349.5 0,-349.5"/>
<text text-anchor="middle" x="83.5" y="-356.5" font-family="Helvetica,sans-Serif" font-size="10.00">SqshMemoryMapperImpl</text>
</a>
</g>
</g>
<!-- Node3&#45;&gt;Node2 -->
<g id="edge2" class="edge">
<title>Node3&#45;&gt;Node2</title>
<path fill="none" stroke="#9a32cd" stroke-dasharray="5,2" d="M141.5,-347.03C150.1,-344.89 158.83,-342.53 167,-340 209.95,-326.7 258.04,-305.15 284.44,-292.7"/>
<polygon fill="#9a32cd" stroke="#9a32cd" points="140.41,-343.7 131.51,-349.44 142.05,-350.5 140.41,-343.7"/>
<text text-anchor="middle" x="204" y="-336" font-family="Helvetica,sans-Serif" font-size="10.00"> impl</text>
</g>
<!-- Node4 -->
<g id="node4" class="node">
<title>Node4</title>
<g id="a_node4"><a xlink:href="structSqshMmapFullMapper.html" target="_top" xlink:title=" ">
<polygon fill="white" stroke="black" points="7.5,-311.5 7.5,-330.5 159.5,-330.5 159.5,-311.5 7.5,-311.5"/>
<text text-anchor="middle" x="83.5" y="-318.5" font-family="Helvetica,sans-Serif" font-size="10.00">SqshMmapFullMapper</text>
</a>
</g>
</g>
<!-- Node4&#45;&gt;Node2 -->
<g id="edge3" class="edge">
<title>Node4&#45;&gt;Node2</title>
<path fill="none" stroke="#9a32cd" stroke-dasharray="5,2" d="M153.21,-309.83C175.49,-306.15 200.31,-301.97 223,-298 234.76,-295.94 247.46,-293.64 259.26,-291.47"/>
<polygon fill="#9a32cd" stroke="#9a32cd" points="152.47,-306.41 143.17,-311.49 153.6,-313.31 152.47,-306.41"/>
<text text-anchor="middle" x="204" y="-306" font-family="Helvetica,sans-Serif" font-size="10.00"> mc</text>
</g>
<!-- Node5 -->
<g id="node5" class="node">
<title>Node5</title>
<g id="a_node5"><a xlink:href="structSqshMmapMapper.html" target="_top" xlink:title=" ">
<polygon fill="white" stroke="black" points="22.5,-273.5 22.5,-292.5 144.5,-292.5 144.5,-273.5 22.5,-273.5"/>
<text text-anchor="middle" x="83.5" y="-280.5" font-family="Helvetica,sans-Serif" font-size="10.00">SqshMmapMapper</text>
</a>
</g>
</g>
<!-- Node5&#45;&gt;Node2 -->
<g id="edge4" class="edge">
<title>Node5&#45;&gt;Node2</title>
<path fill="none" stroke="#9a32cd" stroke-dasharray="5,2" d="M155.04,-283C189.29,-283 229.42,-283 259.47,-283"/>
<polygon fill="#9a32cd" stroke="#9a32cd" points="154.62,-279.5 144.62,-283 154.62,-286.5 154.62,-279.5"/>
<text text-anchor="middle" x="204" y="-286" font-family="Helvetica,sans-Serif" font-size="10.00"> mm</text>
</g>
<!-- Node6 -->
<g id="node6" class="node">
<title>Node6</title>
<g id="a_node6"><a xlink:href="structSqshStaticMapper.html" target="_top" xlink:title=" ">
<polygon fill="white" stroke="black" points="15,-235.5 15,-254.5 152,-254.5 152,-235.5 15,-235.5"/>
<text text-anchor="middle" x="83.5" y="-242.5" font-family="Helvetica,sans-Serif" font-size="10.00">SqshStaticMapper</text>
</a>
</g>
</g>
<!-- Node6&#45;&gt;Node2 -->
<g id="edge5" class="edge">
<title>Node6&#45;&gt;Node2</title>
<path fill="none" stroke="#9a32cd" stroke-dasharray="5,2" d="M153.21,-256.17C175.49,-259.85 200.31,-264.03 223,-268 234.76,-270.06 247.46,-272.36 259.26,-274.53"/>
<polygon fill="#9a32cd" stroke="#9a32cd" points="153.6,-252.69 143.17,-254.51 152.47,-259.59 153.6,-252.69"/>
<text text-anchor="middle" x="204" y="-271" font-family="Helvetica,sans-Serif" font-size="10.00"> sm</text>
</g>
<!-- Node7 -->
<g id="node7" class="node">
<title>Node7</title>
<g id="a_node7"><a xlink:href="structSqshCanaryMapper.html" target="_top" xlink:title=" ">
<polygon fill="white" stroke="black" points="15,-197.5 15,-216.5 152,-216.5 152,-197.5 15,-197.5"/>
<text text-anchor="middle" x="83.5" y="-204.5" font-family="Helvetica,sans-Serif" font-size="10.00">SqshCanaryMapper</text>
</a>
</g>
</g>
<!-- Node7&#45;&gt;Node2 -->
<g id="edge6" class="edge">
<title>Node7&#45;&gt;Node2</title>
<path fill="none" stroke="#9a32cd" stroke-dasharray="5,2" d="M140.87,-218.93C149.67,-221.1 158.62,-223.47 167,-226 210.3,-239.04 258.66,-260.89 284.92,-273.41"/>
<polygon fill="#9a32cd" stroke="#9a32cd" points="141.57,-215.5 131.04,-216.58 139.95,-222.31 141.57,-215.5"/>
<text text-anchor="middle" x="204" y="-248" font-family="Helvetica,sans-Serif" font-size="10.00"> cn</text>
</g>
<!-- Node8 -->
<g id="node8" class="node">
<title>Node8</title>
<g id="a_node8"><a xlink:href="structSqshCompression.html" target="_top" xlink:title=" ">
<polygon fill="white" stroke="black" points="872.5,-273.5 872.5,-292.5 1001.5,-292.5 1001.5,-273.5 872.5,-273.5"/>
<text text-anchor="middle" x="937" y="-280.5" font-family="Helvetica,sans-Serif" font-size="10.00">SqshCompression</text>
</a>
</g>
</g>
<!-- Node8&#45;&gt;Node1 -->
<g id="edge7" class="edge">
<title>Node8&#45;&gt;Node1</title>
<path fill="none" stroke="#9a32cd" stroke-dasharray="5,2" d="M990.31,-271.29C1015.01,-265.96 1044.95,-259.79 1072,-255 1141.88,-242.63 1168.53,-267.45 1230,-232 1248.56,-221.3 1262.16,-199.31 1268.85,-186.62"/>
<polygon fill="#9a32cd" stroke="#9a32cd" points="989.45,-267.9 980.42,-273.44 990.93,-274.74 989.45,-267.9"/>
<text text-anchor="middle" x="1151" y="-269" font-family="Helvetica,sans-Serif" font-size="10.00"> data_compression</text>
<text text-anchor="middle" x="1151" y="-258" font-family="Helvetica,sans-Serif" font-size="10.00">metablock_compression</text>
</g>
<!-- Node8&#45;&gt;Node18 -->
<g id="edge29" class="edge">
<title>Node8&#45;&gt;Node18</title>
<path fill="none" stroke="#9a32cd" stroke-dasharray="5,2" d="M1011.74,-284.37C1126.42,-286.32 1354.48,-289.51 1548,-288 1576.45,-287.78 1583.75,-290.36 1612,-287 1630.08,-284.85 1649.88,-280.6 1666.2,-276.56"/>
<polygon fill="#9a32cd" stroke="#9a32cd" points="1011.73,-280.87 1001.67,-284.19 1011.61,-287.86 1011.73,-280.87"/>
<text text-anchor="middle" x="1368" y="-291" font-family="Helvetica,sans-Serif" font-size="10.00"> compression</text>
</g>
<!-- Node9 -->
<g id="node9" class="node">
<title>Node9</title>
<g id="a_node9"><a xlink:href="structSqshCompressionImplementation.html" target="_top" xlink:title=" ">
<polygon fill="white" stroke="black" points="459,-273.5 459,-292.5 693,-292.5 693,-273.5 459,-273.5"/>
<text text-anchor="middle" x="576" y="-280.5" font-family="Helvetica,sans-Serif" font-size="10.00">SqshCompressionImplementation</text>
</a>
</g>
</g>
<!-- Node9&#45;&gt;Node8 -->
<g id="edge8" class="edge">
<title>Node9&#45;&gt;Node8</title>
<path fill="none" stroke="#9a32cd" stroke-dasharray="5,2" d="M703.27,-283C760.46,-283 825.57,-283 872.35,-283"/>
<polygon fill="#9a32cd" stroke="#9a32cd" points="703.06,-279.5 693.06,-283 703.06,-286.5 703.06,-279.5"/>
<text text-anchor="middle" x="756.5" y="-286" font-family="Helvetica,sans-Serif" font-size="10.00"> impl</text>
</g>
<!-- Node10&#45;&gt;Node1 -->
<g id="edge9" class="edge">
<title>Node10&#45;&gt;Node1</title>
<path fill="none" stroke="#9a32cd" stroke-dasharray="5,2" d="M635.81,-82.61C659.21,-85.23 686.38,-88.27 711,-91 826.32,-103.79 1120.96,-108.36 1230,-148 1242.11,-152.4 1254.17,-160.84 1262.51,-167.49"/>
<polygon fill="#9a32cd" stroke="#9a32cd" points="636.02,-79.11 625.69,-81.48 635.24,-86.07 636.02,-79.11"/>
<text text-anchor="middle" x="937" y="-119" font-family="Helvetica,sans-Serif" font-size="10.00"> table_map</text>
</g>
<!-- Node15 -->
<g id="node15" class="node">
<title>Node15</title>
<g id="a_node15"><a xlink:href="structSqshSuperblockContext.html" target="_top" xlink:title=" ">
<polygon fill="white" stroke="black" points="850,-66.5 850,-85.5 1024,-85.5 1024,-66.5 850,-66.5"/>
<text text-anchor="middle" x="937" y="-73.5" font-family="Helvetica,sans-Serif" font-size="10.00">SqshSuperblockContext</text>
</a>
</g>
</g>
<!-- Node10&#45;&gt;Node15 -->
<g id="edge16" class="edge">
<title>Node10&#45;&gt;Node15</title>
<path fill="none" stroke="#9a32cd" stroke-dasharray="5,2" d="M635.91,-76C694.04,-76 783.57,-76 849.72,-76"/>
<polygon fill="#9a32cd" stroke="#9a32cd" points="635.79,-72.5 625.79,-76 635.79,-79.5 635.79,-72.5"/>
<text text-anchor="middle" x="756.5" y="-79" font-family="Helvetica,sans-Serif" font-size="10.00"> mapping</text>
</g>
<!-- Node10&#45;&gt;Node16 -->
<g id="edge20" class="edge">
<title>Node10&#45;&gt;Node16</title>
<path fill="none" stroke="#9a32cd" stroke-dasharray="5,2" d="M635.23,-64.65C750.91,-44.35 1016.85,-8.93 1230,-65 1256.05,-71.85 1418.34,-158.28 1472.75,-187.45"/>
<polygon fill="#9a32cd" stroke="#9a32cd" points="634.41,-61.24 625.18,-66.44 635.64,-68.13 634.41,-61.24"/>
<text text-anchor="middle" x="1151" y="-68" font-family="Helvetica,sans-Serif" font-size="10.00"> lookup_table</text>
</g>
<!-- Node10&#45;&gt;Node17 -->
<g id="edge23" class="edge">
<title>Node10&#45;&gt;Node17</title>
<path fill="none" stroke="#9a32cd" stroke-dasharray="5,2" d="M613.26,-63.07C677.45,-41.38 815.66,0 936,0 936,0 936,0 1492.5,0 1580.44,0 1665.06,-80.84 1692.09,-109.26"/>
<polygon fill="#9a32cd" stroke="#9a32cd" points="611.94,-59.83 603.61,-66.37 614.21,-66.45 611.94,-59.83"/>
<text text-anchor="middle" x="1274.5" y="-3" font-family="Helvetica,sans-Serif" font-size="10.00"> header</text>
</g>
<!-- Node11 -->
<g id="node11" class="node">
<title>Node11</title>
<g id="a_node11"><a xlink:href="structSqshMmapFullMap.html" target="_top" xlink:title=" ">
<polygon fill="white" stroke="black" points="241,-47.5 241,-66.5 370,-66.5 370,-47.5 241,-47.5"/>
<text text-anchor="middle" x="305.5" y="-54.5" font-family="Helvetica,sans-Serif" font-size="10.00">SqshMmapFullMap</text>
</a>
</g>
</g>
<!-- Node11&#45;&gt;Node10 -->
<g id="edge11" class="edge">
<title>Node11&#45;&gt;Node10</title>
<path fill="none" stroke="#9a32cd" stroke-dasharray="5,2" d="M380.33,-58.85C400.06,-59.59 421.35,-60.61 441,-62 469.35,-64.01 500.97,-67.26 526.38,-70.13"/>
<polygon fill="#9a32cd" stroke="#9a32cd" points="380.29,-55.35 370.18,-58.49 380.05,-62.35 380.29,-55.35"/>
<text text-anchor="middle" x="414.5" y="-65" font-family="Helvetica,sans-Serif" font-size="10.00"> mc</text>
</g>
<!-- Node12 -->
<g id="node12" class="node">
<title>Node12</title>
<g id="a_node12"><a xlink:href="structSqshMmapMap.html" target="_top" xlink:title=" ">
<polygon fill="white" stroke="black" points="256,-9.5 256,-28.5 355,-28.5 355,-9.5 256,-9.5"/>
<text text-anchor="middle" x="305.5" y="-16.5" font-family="Helvetica,sans-Serif" font-size="10.00">SqshMmapMap</text>
</a>
</g>
</g>
<!-- Node12&#45;&gt;Node10 -->
<g id="edge12" class="edge">
<title>Node12&#45;&gt;Node10</title>
<path fill="none" stroke="#9a32cd" stroke-dasharray="5,2" d="M365.05,-29.22C388.69,-33.52 416.2,-38.74 441,-44 473.64,-50.93 510.5,-59.81 537.28,-66.45"/>
<polygon fill="#9a32cd" stroke="#9a32cd" points="365.64,-25.77 355.18,-27.43 364.4,-32.66 365.64,-25.77"/>
<text text-anchor="middle" x="414.5" y="-47" font-family="Helvetica,sans-Serif" font-size="10.00"> mm</text>
</g>
<!-- Node13 -->
<g id="node13" class="node">
<title>Node13</title>
<g id="a_node13"><a xlink:href="structSqshStaticMap.html" target="_top" xlink:title=" ">
<polygon fill="white" stroke="black" points="248.5,-123.5 248.5,-142.5 362.5,-142.5 362.5,-123.5 248.5,-123.5"/>
<text text-anchor="middle" x="305.5" y="-130.5" font-family="Helvetica,sans-Serif" font-size="10.00">SqshStaticMap</text>
</a>
</g>
</g>
<!-- Node13&#45;&gt;Node10 -->
<g id="edge13" class="edge">
<title>Node13&#45;&gt;Node10</title>
<path fill="none" stroke="#9a32cd" stroke-dasharray="5,2" d="M361.38,-121.35C411.1,-110.79 483.49,-95.43 529.91,-85.57"/>
<polygon fill="#9a32cd" stroke="#9a32cd" points="360.5,-117.96 351.44,-123.46 361.95,-124.81 360.5,-117.96"/>
<text text-anchor="middle" x="414.5" y="-117" font-family="Helvetica,sans-Serif" font-size="10.00"> sm</text>
</g>
<!-- Node14 -->
<g id="node14" class="node">
<title>Node14</title>
<g id="a_node14"><a xlink:href="structSqshCanaryMap.html" target="_top" xlink:title=" ">
<polygon fill="white" stroke="black" points="248.5,-85.5 248.5,-104.5 362.5,-104.5 362.5,-85.5 248.5,-85.5"/>
<text text-anchor="middle" x="305.5" y="-92.5" font-family="Helvetica,sans-Serif" font-size="10.00">SqshCanaryMap</text>
</a>
</g>
</g>
<!-- Node14&#45;&gt;Node10 -->
<g id="edge14" class="edge">
<title>Node14&#45;&gt;Node10</title>
<path fill="none" stroke="#9a32cd" stroke-dasharray="5,2" d="M373,-90.29C420.57,-86.93 483.54,-82.47 526.44,-79.44"/>
<polygon fill="#9a32cd" stroke="#9a32cd" points="372.51,-86.82 362.79,-91.02 373.01,-93.8 372.51,-86.82"/>
<text text-anchor="middle" x="414.5" y="-91" font-family="Helvetica,sans-Serif" font-size="10.00"> cn</text>
</g>
<!-- Node15&#45;&gt;Node1 -->
<g id="edge15" class="edge">
<title>Node15&#45;&gt;Node1</title>
<path fill="none" stroke="#9a32cd" stroke-dasharray="5,2" d="M1034.74,-78.75C1113.32,-81.73 1213.71,-87.53 1230,-98 1255.16,-114.17 1266.99,-150.19 1271.38,-167.43"/>
<polygon fill="#9a32cd" stroke="#9a32cd" points="1034.42,-75.23 1024.3,-78.36 1034.16,-82.23 1034.42,-75.23"/>
<text text-anchor="middle" x="1151" y="-101" font-family="Helvetica,sans-Serif" font-size="10.00"> superblock</text>
</g>
<!-- Node15&#45;&gt;Node18 -->
<g id="edge26" class="edge">
<title>Node15&#45;&gt;Node18</title>
<path fill="none" stroke="#9a32cd" stroke-dasharray="5,2" d="M1031.28,-65.61C1153.66,-55.44 1373.35,-49.2 1548,-110 1624.56,-136.65 1679.64,-227.64 1695.98,-257.46"/>
<polygon fill="#9a32cd" stroke="#9a32cd" points="1030.86,-62.14 1021.19,-66.48 1031.46,-69.11 1030.86,-62.14"/>
<text text-anchor="middle" x="1368" y="-79" font-family="Helvetica,sans-Serif" font-size="10.00"> superblock</text>
</g>
<!-- Node16&#45;&gt;Node1 -->
<g id="edge17" class="edge">
<title>Node16&#45;&gt;Node1</title>
<path fill="none" stroke="#9a32cd" stroke-dasharray="5,2" d="M1439.12,-197.58C1404.89,-197.23 1359.01,-195.37 1319,-189 1312.19,-187.92 1304.92,-186.16 1298.32,-184.32"/>
<polygon fill="#9a32cd" stroke="#9a32cd" points="1439.33,-201.08 1449.35,-197.64 1439.37,-194.08 1439.33,-201.08"/>
<text text-anchor="middle" x="1368" y="-211" font-family="Helvetica,sans-Serif" font-size="10.00"> export_table</text>
<text text-anchor="middle" x="1368" y="-200" font-family="Helvetica,sans-Serif" font-size="10.00">id_table</text>
</g>
<!-- Node16&#45;&gt;Node17 -->
<g id="edge24" class="edge">
<title>Node16&#45;&gt;Node17</title>
<path fill="none" stroke="#9a32cd" stroke-dasharray="5,2" d="M1530.74,-184.07C1554.27,-175.98 1585,-165.2 1612,-155 1634.61,-146.46 1660.16,-136.04 1678.06,-128.62"/>
<polygon fill="#9a32cd" stroke="#9a32cd" points="1529.45,-180.81 1521.13,-187.36 1531.72,-187.43 1529.45,-180.81"/>
<text text-anchor="middle" x="1589" y="-174" font-family="Helvetica,sans-Serif" font-size="10.00"> table</text>
</g>
<!-- Node16&#45;&gt;Node18 -->
<g id="edge27" class="edge">
<title>Node16&#45;&gt;Node18</title>
<path fill="none" stroke="#9a32cd" stroke-dasharray="5,2" d="M1530.68,-209.82C1571.62,-223.56 1635.68,-245.07 1672.46,-257.42"/>
<polygon fill="#9a32cd" stroke="#9a32cd" points="1531.65,-206.45 1521.05,-206.59 1529.42,-213.09 1531.65,-206.45"/>
<text text-anchor="middle" x="1589" y="-239" font-family="Helvetica,sans-Serif" font-size="10.00"> table</text>
</g>
<!-- Node17&#45;&gt;Node1 -->
<g id="edge21" class="edge">
<title>Node17&#45;&gt;Node1</title>
<path fill="none" stroke="#9a32cd" stroke-dasharray="5,2" d="M1630.96,-127.07C1554.23,-136.16 1427.6,-151.92 1319,-169 1312.17,-170.07 1304.77,-171.38 1298.04,-172.63"/>
<polygon fill="#9a32cd" stroke="#9a32cd" points="1631.46,-130.53 1640.98,-125.88 1630.64,-123.58 1631.46,-130.53"/>
<text text-anchor="middle" x="1491.5" y="-154" font-family="Helvetica,sans-Serif" font-size="10.00"> xattr_table</text>
</g>
<!-- Node18&#45;&gt;Node1 -->
<g id="edge25" class="edge">
<title>Node18&#45;&gt;Node1</title>
<path fill="none" stroke="#9a32cd" stroke-dasharray="5,2" d="M1619.57,-273.27C1538.97,-276 1414.18,-270.63 1319,-223 1302.49,-214.74 1288.91,-197.51 1281.53,-186.64"/>
<polygon fill="#9a32cd" stroke="#9a32cd" points="1619.81,-276.77 1629.66,-272.88 1619.53,-269.77 1619.81,-276.77"/>
<text text-anchor="middle" x="1491.5" y="-276" font-family="Helvetica,sans-Serif" font-size="10.00"> fragment_table</text>
</g>
<!-- Node19 -->
<g id="node19" class="node">
<title>Node19</title>
<g id="a_node19"><a xlink:href="structSqshCompressionOptionsContext.html" target="_top" xlink:title="The compression options context is used to store the compression options for a specific compression a...">
<polygon fill="white" stroke="black" points="820,-189.5 820,-208.5 1054,-208.5 1054,-189.5 820,-189.5"/>
<text text-anchor="middle" x="937" y="-196.5" font-family="Helvetica,sans-Serif" font-size="10.00">SqshCompressionOptionsContext</text>
</a>
</g>
</g>
<!-- Node19&#45;&gt;Node1 -->
<g id="edge30" class="edge">
<title>Node19&#45;&gt;Node1</title>
<path fill="none" stroke="#9a32cd" stroke-dasharray="5,2" d="M1064.52,-190.7C1133.63,-186.17 1212.69,-180.99 1250.72,-178.49"/>
<polygon fill="#9a32cd" stroke="#9a32cd" points="1064.15,-187.22 1054.4,-191.37 1064.61,-194.21 1064.15,-187.22"/>
<text text-anchor="middle" x="1151" y="-192" font-family="Helvetica,sans-Serif" font-size="10.00"> compression_options</text>
</g>
<!-- Node20 -->
<g id="node20" class="node">
<title>Node20</title>
<g id="a_node20"><a xlink:href="structSqshBuffer.html" target="_top" xlink:title="The SqshBuffer struct is a buffer for arbitrary data.">
<polygon fill="white" stroke="black" points="530,-189.5 530,-208.5 622,-208.5 622,-189.5 530,-189.5"/>
<text text-anchor="middle" x="576" y="-196.5" font-family="Helvetica,sans-Serif" font-size="10.00">SqshBuffer</text>
</a>
</g>
</g>
<!-- Node20&#45;&gt;Node19 -->
<g id="edge31" class="edge">
<title>Node20&#45;&gt;Node19</title>
<path fill="none" stroke="#9a32cd" stroke-dasharray="5,2" d="M632.34,-199C682.15,-199 756.96,-199 819.86,-199"/>
<polygon fill="#9a32cd" stroke="#9a32cd" points="632.1,-195.5 622.1,-199 632.1,-202.5 632.1,-195.5"/>
<text text-anchor="middle" x="756.5" y="-202" font-family="Helvetica,sans-Serif" font-size="10.00"> buffer</text>
</g>
<!-- Node21 -->
<g id="node21" class="node">
<title>Node21</title>
<g id="a_node21"><a xlink:href="structSqshConfig.html" target="_top" xlink:title="The SqshConfig struct contains all the configuration options for a sqsh session.">
<polygon fill="white" stroke="black" points="891,-151.5 891,-170.5 983,-170.5 983,-151.5 891,-151.5"/>
<text text-anchor="middle" x="937" y="-158.5" font-family="Helvetica,sans-Serif" font-size="10.00">SqshConfig</text>
</a>
</g>
</g>
<!-- Node21&#45;&gt;Node1 -->
<g id="edge32" class="edge">
<title>Node21&#45;&gt;Node1</title>
<path fill="none" stroke="#9a32cd" stroke-dasharray="5,2" d="M993.39,-155.84C1052.47,-151.57 1148.54,-148.21 1230,-162 1236.93,-163.17 1244.24,-165.31 1250.84,-167.62"/>
<polygon fill="#9a32cd" stroke="#9a32cd" points="992.87,-152.36 983.16,-156.61 993.4,-159.34 992.87,-152.36"/>
<text text-anchor="middle" x="1151" y="-165" font-family="Helvetica,sans-Serif" font-size="10.00"> config</text>
</g>
</g>
</svg>
        <g id="navigator" transform="translate(0 0)" fill="#404254">
                <rect fill="#f2f5e9" fill-opacity="0.5" stroke="#606060" stroke-width=".5" x="0" y="0" width="60" height="60"/>
                <use id="zoomplus" xlink:href="#zoomPlus" x="17" y="9" onmousedown="handleZoom(evt,'in')"/>
                <use id="zoomminus" xlink:href="#zoomMin" x="42" y="9" onmousedown="handleZoom(evt,'out')"/>
                <use id="reset" xlink:href="#resetDef" x="30" y="36" onmousedown="handleReset()"/>
                <g id="arrowUp" xlink:href="#dirArrow" transform="translate(30 24)" onmousedown="handlePan(0,-1)">
                  <use xlink:href="#rim" fill="#404040">
                        <set attributeName="fill" to="#808080" begin="arrowUp.mouseover" end="arrowUp.mouseout"/>
                  </use>
                  <path fill="none" stroke="white" stroke-width="1.5" d="M0,-3.0v7 M-2.5,-0.5L0,-3.0L2.5,-0.5"/>
                </g>
                <g id="arrowRight" xlink:href="#dirArrow" transform="rotate(90) translate(36 -43)" onmousedown="handlePan(1,0)">
                  <use xlink:href="#rim" fill="#404040">
                        <set attributeName="fill" to="#808080" begin="arrowRight.mouseover" end="arrowRight.mouseout"/>
                  </use>
                  <path fill="none" stroke="white" stroke-width="1.5" d="M0,-3.0v7 M-2.5,-0.5L0,-3.0L2.5,-0.5"/>
                </g>
                <g id="arrowDown" xlink:href="#dirArrow" transform="rotate(180) translate(-30 -48)" onmousedown="handlePan(0,1)">
                  <use xlink:href="#rim" fill="#404040">
                        <set attributeName="fill" to="#808080" begin="arrowDown.mouseover" end="arrowDown.mouseout"/>
                  </use>
                  <path fill="none" stroke="white" stroke-width="1.5" d="M0,-3.0v7 M-2.5,-0.5L0,-3.0L2.5,-0.5"/>
                </g>
                <g id="arrowLeft" xlink:href="#dirArrow" transform="rotate(270) translate(-36 17)" onmousedown="handlePan(-1,0)">
                  <use xlink:href="#rim" fill="#404040">
                        <set attributeName="fill" to="#808080" begin="arrowLeft.mouseover" end="arrowLeft.mouseout"/>
                  </use>
                  <path fill="none" stroke="white" stroke-width="1.5" d="M0,-3.0v7 M-2.5,-0.5L0,-3.0L2.5,-0.5"/>
                </g>
        </g>
        <svg viewBox="0 0 15 15" width="100%" height="30px" preserveAspectRatio="xMaxYMin meet">
         <g id="arrow_out" transform="scale(0.3 0.3)">
          <a xlink:href="structSqsh__coll__graph_org.svg" target="_base">
           <rect id="button" ry="5" rx="5" y="6" x="6" height="38" width="38"
                fill="#f2f5e9" fill-opacity="0.5" stroke="#606060" stroke-width="1.0"/>
           <path id="arrow"
             d="M 11.500037,31.436501 C 11.940474,20.09759 22.043105,11.32322 32.158766,21.979434 L 37.068811,17.246167 C 37.068811,17.246167 37.088388,32 37.088388,32 L 22.160133,31.978069 C 22.160133,31.978069 26.997745,27.140456 26.997745,27.140456 C 18.528582,18.264221 13.291696,25.230495 11.500037,31.436501 z"
             style="fill:#404040;"/>
          </a>
         </g>
        </svg>
</svg>
