<?xml version="1.0" encoding="UTF-8" standalone="no"?>
<!DOCTYPE svg PUBLIC "-//W3C//DTD SVG 1.1//EN"
 "http://www.w3.org/Graphics/SVG/1.1/DTD/svg11.dtd">
<!-- Generated by graphviz version 3.0.0 (20220413.0242)
 -->
<!-- Title: HsqsDirectoryIterator Pages: 1 -->
<svg width="2130pt" height="475pt"
 viewBox="0.00 0.00 2130.00 475.00" xmlns="http://www.w3.org/2000/svg" xmlns:xlink="http://www.w3.org/1999/xlink">
<g id="graph0" class="graph" transform="scale(1 1) rotate(0) translate(4 471)">
<title>HsqsDirectoryIterator</title>
<polygon fill="white" stroke="transparent" points="-4,4 -4,-471 2126,-471 2126,4 -4,4"/>
<!-- Node1 -->
<g id="node1" class="node">
<title>Node1</title>
<g id="a_node1"><a xlink:title=" ">
<polygon fill="#bfbfbf" stroke="black" points="1948,-16.5 1948,-35.5 2122,-35.5 2122,-16.5 1948,-16.5"/>
<text text-anchor="middle" x="2035" y="-23.5" font-family="Helvetica,sans-Serif" font-size="10.00">HsqsDirectoryIterator</text>
</a>
</g>
</g>
<!-- Node2 -->
<g id="node2" class="node">
<title>Node2</title>
<g id="a_node2"><a xlink:href="structHsqsInodeContext.html" target="_top" xlink:title=" ">
<polygon fill="white" stroke="black" points="1725.5,-39.5 1725.5,-58.5 1862.5,-58.5 1862.5,-39.5 1725.5,-39.5"/>
<text text-anchor="middle" x="1794" y="-46.5" font-family="Helvetica,sans-Serif" font-size="10.00">HsqsInodeContext</text>
</a>
</g>
</g>
<!-- Node2&#45;&gt;Node1 -->
<g id="edge1" class="edge">
<title>Node2&#45;&gt;Node1</title>
<path fill="none" stroke="#9a32cd" stroke-dasharray="5,2" d="M1872.65,-41.53C1896.68,-39.22 1923.28,-36.66 1947.84,-34.29"/>
<polygon fill="#9a32cd" stroke="#9a32cd" points="1872.15,-38.06 1862.53,-42.5 1872.82,-45.03 1872.15,-38.06"/>
<text text-anchor="middle" x="1907" y="-44" font-family="Helvetica,sans-Serif" font-size="10.00"> inode</text>
</g>
<!-- Node3 -->
<g id="node3" class="node">
<title>Node3</title>
<g id="a_node3"><a xlink:href="structHsqsMetablockStreamContext.html" target="_top" xlink:title=" ">
<polygon fill="white" stroke="black" points="1398,-0.5 1398,-19.5 1610,-19.5 1610,-0.5 1398,-0.5"/>
<text text-anchor="middle" x="1504" y="-7.5" font-family="Helvetica,sans-Serif" font-size="10.00">HsqsMetablockStreamContext</text>
</a>
</g>
</g>
<!-- Node3&#45;&gt;Node1 -->
<g id="edge35" class="edge">
<title>Node3&#45;&gt;Node1</title>
<path fill="none" stroke="#9a32cd" stroke-dasharray="5,2" d="M1620.36,-12.39C1691.23,-13.97 1783.88,-16.27 1866,-19 1892.55,-19.88 1921.45,-21.02 1947.68,-22.13"/>
<polygon fill="#9a32cd" stroke="#9a32cd" points="1620.14,-8.88 1610.06,-12.16 1619.98,-15.88 1620.14,-8.88"/>
<text text-anchor="middle" x="1794" y="-22" font-family="Helvetica,sans-Serif" font-size="10.00"> metablock</text>
</g>
<!-- Node3&#45;&gt;Node2 -->
<g id="edge2" class="edge">
<title>Node3&#45;&gt;Node2</title>
<path fill="none" stroke="#9a32cd" stroke-dasharray="5,2" d="M1585.55,-20.91C1629.55,-26.87 1683.43,-34.16 1725.26,-39.83"/>
<polygon fill="#9a32cd" stroke="#9a32cd" points="1585.83,-17.41 1575.45,-19.54 1584.89,-24.35 1585.83,-17.41"/>
<text text-anchor="middle" x="1666" y="-40" font-family="Helvetica,sans-Serif" font-size="10.00"> metablock</text>
</g>
<!-- Node4 -->
<g id="node4" class="node">
<title>Node4</title>
<g id="a_node4"><a xlink:href="structHsqs.html" target="_top" xlink:title=" ">
<polygon fill="white" stroke="black" points="1214,-203.5 1214,-222.5 1261,-222.5 1261,-203.5 1214,-203.5"/>
<text text-anchor="middle" x="1237.5" y="-210.5" font-family="Helvetica,sans-Serif" font-size="10.00">Hsqs</text>
</a>
</g>
</g>
<!-- Node4&#45;&gt;Node2 -->
<g id="edge34" class="edge">
<title>Node4&#45;&gt;Node2</title>
<path fill="none" stroke="#9a32cd" stroke-dasharray="5,2" d="M1246.96,-193.97C1254.22,-179.88 1266.05,-161.41 1282,-151 1354.45,-103.74 1603.85,-70.16 1725.37,-56.2"/>
<polygon fill="#9a32cd" stroke="#9a32cd" points="1243.67,-192.74 1242.48,-203.27 1249.97,-195.78 1243.67,-192.74"/>
<text text-anchor="middle" x="1504" y="-113" font-family="Helvetica,sans-Serif" font-size="10.00"> hsqs</text>
</g>
<!-- Node4&#45;&gt;Node3 -->
<g id="edge3" class="edge">
<title>Node4&#45;&gt;Node3</title>
<path fill="none" stroke="#9a32cd" stroke-dasharray="5,2" d="M1239.35,-193.15C1241.68,-164.51 1250.31,-111.89 1282,-83 1315.06,-52.86 1337.37,-73.58 1380,-60 1416.68,-48.32 1457.85,-30.6 1482.04,-19.69"/>
<polygon fill="#9a32cd" stroke="#9a32cd" points="1235.83,-193.29 1238.7,-203.49 1242.82,-193.73 1235.83,-193.29"/>
<text text-anchor="middle" x="1331" y="-86" font-family="Helvetica,sans-Serif" font-size="10.00"> hsqs</text>
</g>
<!-- Node17 -->
<g id="node17" class="node">
<title>Node17</title>
<g id="a_node17"><a xlink:href="structHsqsTable.html" target="_top" xlink:title=" ">
<polygon fill="white" stroke="black" points="1462,-264.5 1462,-283.5 1546,-283.5 1546,-264.5 1462,-264.5"/>
<text text-anchor="middle" x="1504" y="-271.5" font-family="Helvetica,sans-Serif" font-size="10.00">HsqsTable</text>
</a>
</g>
</g>
<!-- Node4&#45;&gt;Node17 -->
<g id="edge19" class="edge">
<title>Node4&#45;&gt;Node17</title>
<path fill="none" stroke="#9a32cd" stroke-dasharray="5,2" d="M1247.43,-231.79C1254.74,-244.8 1266.4,-261.15 1282,-269 1339.07,-297.74 1415.39,-291.21 1461.78,-283.13"/>
<polygon fill="#9a32cd" stroke="#9a32cd" points="1250.42,-229.95 1242.7,-222.68 1244.2,-233.17 1250.42,-229.95"/>
<text text-anchor="middle" x="1331" y="-292" font-family="Helvetica,sans-Serif" font-size="10.00"> hsqs</text>
</g>
<!-- Node18 -->
<g id="node18" class="node">
<title>Node18</title>
<g id="a_node18"><a xlink:href="structHsqsXattrTable.html" target="_top" xlink:title=" ">
<polygon fill="white" stroke="black" points="1733,-297.5 1733,-316.5 1855,-316.5 1855,-297.5 1733,-297.5"/>
<text text-anchor="middle" x="1794" y="-304.5" font-family="Helvetica,sans-Serif" font-size="10.00">HsqsXattrTable</text>
</a>
</g>
</g>
<!-- Node4&#45;&gt;Node18 -->
<g id="edge23" class="edge">
<title>Node4&#45;&gt;Node18</title>
<path fill="none" stroke="#9a32cd" stroke-dasharray="5,2" d="M1241.75,-232.48C1246.48,-253.96 1257.53,-287.5 1282,-303 1438.83,-402.34 1680.69,-341.95 1763.79,-316.59"/>
<polygon fill="#9a32cd" stroke="#9a32cd" points="1245.15,-231.66 1239.81,-222.51 1238.28,-233 1245.15,-231.66"/>
<text text-anchor="middle" x="1504" y="-361" font-family="Helvetica,sans-Serif" font-size="10.00"> hsqs</text>
</g>
<!-- Node19 -->
<g id="node19" class="node">
<title>Node19</title>
<g id="a_node19"><a xlink:href="structHsqsFragmentTable.html" target="_top" xlink:title=" ">
<polygon fill="white" stroke="black" points="1722,-152.5 1722,-171.5 1866,-171.5 1866,-152.5 1722,-152.5"/>
<text text-anchor="middle" x="1794" y="-159.5" font-family="Helvetica,sans-Serif" font-size="10.00">HsqsFragmentTable</text>
</a>
</g>
</g>
<!-- Node4&#45;&gt;Node19 -->
<g id="edge29" class="edge">
<title>Node4&#45;&gt;Node19</title>
<path fill="none" stroke="#9a32cd" stroke-dasharray="5,2" d="M1258.71,-197.54C1265.78,-192.67 1273.97,-187.63 1282,-184 1330.63,-162.02 1345.09,-159.95 1398,-153 1510.39,-138.24 1642.27,-146.29 1721.65,-153.85"/>
<polygon fill="#9a32cd" stroke="#9a32cd" points="1256.51,-194.81 1250.43,-203.48 1260.59,-200.49 1256.51,-194.81"/>
<text text-anchor="middle" x="1504" y="-156" font-family="Helvetica,sans-Serif" font-size="10.00"> hsqs</text>
</g>
<!-- Node5 -->
<g id="node5" class="node">
<title>Node5</title>
<g id="a_node5"><a xlink:href="structHsqsMapper.html" target="_top" xlink:title=" ">
<polygon fill="white" stroke="black" points="312,-371.5 312,-390.5 404,-390.5 404,-371.5 312,-371.5"/>
<text text-anchor="middle" x="358" y="-378.5" font-family="Helvetica,sans-Serif" font-size="10.00">HsqsMapper</text>
</a>
</g>
</g>
<!-- Node5&#45;&gt;Node4 -->
<g id="edge4" class="edge">
<title>Node5&#45;&gt;Node4</title>
<path fill="none" stroke="#9a32cd" stroke-dasharray="5,2" d="M414.65,-375.45C529.22,-363.62 799.53,-333.66 1024,-293 1099.85,-279.26 1125.03,-290.37 1193,-254 1207.64,-246.17 1220.97,-232.11 1228.91,-222.67"/>
<polygon fill="#9a32cd" stroke="#9a32cd" points="413.98,-372 404.39,-376.5 414.69,-378.96 413.98,-372"/>
<text text-anchor="middle" x="726.5" y="-358" font-family="Helvetica,sans-Serif" font-size="10.00"> mapper</text>
<text text-anchor="middle" x="726.5" y="-347" font-family="Helvetica,sans-Serif" font-size="10.00">table_mapper</text>
</g>
<!-- Node11 -->
<g id="node11" class="node">
<title>Node11</title>
<g id="a_node11"><a xlink:href="structHsqsMapping.html" target="_top" xlink:title=" ">
<polygon fill="white" stroke="black" points="564,-275.5 564,-294.5 663,-294.5 663,-275.5 564,-275.5"/>
<text text-anchor="middle" x="613.5" y="-282.5" font-family="Helvetica,sans-Serif" font-size="10.00">HsqsMapping</text>
</a>
</g>
</g>
<!-- Node5&#45;&gt;Node11 -->
<g id="edge11" class="edge">
<title>Node5&#45;&gt;Node11</title>
<path fill="none" stroke="#9a32cd" stroke-dasharray="5,2" d="M405.43,-368.7C443.81,-357.93 499.36,-340.9 546,-321 563.99,-313.32 583.57,-302.39 596.79,-294.59"/>
<polygon fill="#9a32cd" stroke="#9a32cd" points="404.27,-365.39 395.57,-371.44 406.15,-372.14 404.27,-365.39"/>
<text text-anchor="middle" x="519.5" y="-343" font-family="Helvetica,sans-Serif" font-size="10.00"> mapper</text>
</g>
<!-- Node5&#45;&gt;Node17 -->
<g id="edge20" class="edge">
<title>Node5&#45;&gt;Node17</title>
<path fill="none" stroke="#9a32cd" stroke-dasharray="5,2" d="M400.45,-393.25C450.3,-406.87 536.76,-427 612.5,-427 612.5,-427 612.5,-427 1118.5,-427 1183.77,-427 1202.08,-427.67 1264,-407 1357.01,-375.95 1455.48,-308.45 1490.08,-283.51"/>
<polygon fill="#9a32cd" stroke="#9a32cd" points="401.25,-389.84 390.68,-390.53 399.38,-396.58 401.25,-389.84"/>
<text text-anchor="middle" x="907" y="-430" font-family="Helvetica,sans-Serif" font-size="10.00"> mapper</text>
</g>
<!-- Node6 -->
<g id="node6" class="node">
<title>Node6</title>
<g id="a_node6"><a xlink:href="structHsqsMemoryMapperImpl.html" target="_top" xlink:title=" ">
<polygon fill="white" stroke="black" points="0,-447.5 0,-466.5 167,-466.5 167,-447.5 0,-447.5"/>
<text text-anchor="middle" x="83.5" y="-454.5" font-family="Helvetica,sans-Serif" font-size="10.00">HsqsMemoryMapperImpl</text>
</a>
</g>
</g>
<!-- Node6&#45;&gt;Node5 -->
<g id="edge5" class="edge">
<title>Node6&#45;&gt;Node5</title>
<path fill="none" stroke="#9a32cd" stroke-dasharray="5,2" d="M138.18,-445.17C147.81,-442.9 157.72,-440.46 167,-438 224.09,-422.88 289.96,-402.44 327.22,-390.59"/>
<polygon fill="#9a32cd" stroke="#9a32cd" points="137.25,-441.79 128.3,-447.47 138.84,-448.61 137.25,-441.79"/>
<text text-anchor="middle" x="204" y="-435" font-family="Helvetica,sans-Serif" font-size="10.00"> impl</text>
</g>
<!-- Node7 -->
<g id="node7" class="node">
<title>Node7</title>
<g id="a_node7"><a xlink:href="structHsqsMmapFullMapper.html" target="_top" xlink:title=" ">
<polygon fill="white" stroke="black" points="7.5,-409.5 7.5,-428.5 159.5,-428.5 159.5,-409.5 7.5,-409.5"/>
<text text-anchor="middle" x="83.5" y="-416.5" font-family="Helvetica,sans-Serif" font-size="10.00">HsqsMmapFullMapper</text>
</a>
</g>
</g>
<!-- Node7&#45;&gt;Node5 -->
<g id="edge6" class="edge">
<title>Node7&#45;&gt;Node5</title>
<path fill="none" stroke="#9a32cd" stroke-dasharray="5,2" d="M163.01,-408.05C211.21,-401.33 271.25,-392.96 311.66,-387.32"/>
<polygon fill="#9a32cd" stroke="#9a32cd" points="162.33,-404.61 152.91,-409.46 163.3,-411.55 162.33,-404.61"/>
<text text-anchor="middle" x="204" y="-407" font-family="Helvetica,sans-Serif" font-size="10.00"> mc</text>
</g>
<!-- Node8 -->
<g id="node8" class="node">
<title>Node8</title>
<g id="a_node8"><a xlink:href="structHsqsMmapMapper.html" target="_top" xlink:title=" ">
<polygon fill="white" stroke="black" points="22.5,-371.5 22.5,-390.5 144.5,-390.5 144.5,-371.5 22.5,-371.5"/>
<text text-anchor="middle" x="83.5" y="-378.5" font-family="Helvetica,sans-Serif" font-size="10.00">HsqsMmapMapper</text>
</a>
</g>
</g>
<!-- Node8&#45;&gt;Node5 -->
<g id="edge7" class="edge">
<title>Node8&#45;&gt;Node5</title>
<path fill="none" stroke="#9a32cd" stroke-dasharray="5,2" d="M154.64,-381C204.15,-381 269.04,-381 311.82,-381"/>
<polygon fill="#9a32cd" stroke="#9a32cd" points="154.64,-377.5 144.64,-381 154.64,-384.5 154.64,-377.5"/>
<text text-anchor="middle" x="204" y="-384" font-family="Helvetica,sans-Serif" font-size="10.00"> mm</text>
</g>
<!-- Node9 -->
<g id="node9" class="node">
<title>Node9</title>
<g id="a_node9"><a xlink:href="structHsqsStaticMapper.html" target="_top" xlink:title=" ">
<polygon fill="white" stroke="black" points="15,-333.5 15,-352.5 152,-352.5 152,-333.5 15,-333.5"/>
<text text-anchor="middle" x="83.5" y="-340.5" font-family="Helvetica,sans-Serif" font-size="10.00">HsqsStaticMapper</text>
</a>
</g>
</g>
<!-- Node9&#45;&gt;Node5 -->
<g id="edge8" class="edge">
<title>Node9&#45;&gt;Node5</title>
<path fill="none" stroke="#9a32cd" stroke-dasharray="5,2" d="M162.34,-353.85C210.73,-360.6 271.24,-369.04 311.84,-374.7"/>
<polygon fill="#9a32cd" stroke="#9a32cd" points="162.6,-350.36 152.21,-352.44 161.63,-357.29 162.6,-350.36"/>
<text text-anchor="middle" x="204" y="-365" font-family="Helvetica,sans-Serif" font-size="10.00"> sm</text>
</g>
<!-- Node10 -->
<g id="node10" class="node">
<title>Node10</title>
<g id="a_node10"><a xlink:href="structHsqsCanaryMapper.html" target="_top" xlink:title=" ">
<polygon fill="white" stroke="black" points="15,-295.5 15,-314.5 152,-314.5 152,-295.5 15,-295.5"/>
<text text-anchor="middle" x="83.5" y="-302.5" font-family="Helvetica,sans-Serif" font-size="10.00">HsqsCanaryMapper</text>
</a>
</g>
</g>
<!-- Node10&#45;&gt;Node5 -->
<g id="edge9" class="edge">
<title>Node10&#45;&gt;Node5</title>
<path fill="none" stroke="#9a32cd" stroke-dasharray="5,2" d="M138.18,-316.83C147.81,-319.1 157.72,-321.54 167,-324 224.09,-339.12 289.96,-359.56 327.22,-371.41"/>
<polygon fill="#9a32cd" stroke="#9a32cd" points="138.84,-313.39 128.3,-314.53 137.25,-320.21 138.84,-313.39"/>
<text text-anchor="middle" x="204" y="-341" font-family="Helvetica,sans-Serif" font-size="10.00"> cn</text>
</g>
<!-- Node11&#45;&gt;Node4 -->
<g id="edge10" class="edge">
<title>Node11&#45;&gt;Node4</title>
<path fill="none" stroke="#9a32cd" stroke-dasharray="5,2" d="M673.2,-283.73C778.51,-280.47 1005.98,-268.87 1193,-228 1199.87,-226.5 1207.15,-224.26 1213.76,-221.96"/>
<polygon fill="#9a32cd" stroke="#9a32cd" points="672.98,-280.24 663.09,-284.03 673.19,-287.24 672.98,-280.24"/>
<text text-anchor="middle" x="907" y="-281" font-family="Helvetica,sans-Serif" font-size="10.00"> table_map</text>
</g>
<!-- Node16 -->
<g id="node16" class="node">
<title>Node16</title>
<g id="a_node16"><a xlink:href="structHsqsSuperblockContext.html" target="_top" xlink:title=" ">
<polygon fill="white" stroke="black" points="820,-203.5 820,-222.5 994,-222.5 994,-203.5 820,-203.5"/>
<text text-anchor="middle" x="907" y="-210.5" font-family="Helvetica,sans-Serif" font-size="10.00">HsqsSuperblockContext</text>
</a>
</g>
</g>
<!-- Node11&#45;&gt;Node16 -->
<g id="edge17" class="edge">
<title>Node11&#45;&gt;Node16</title>
<path fill="none" stroke="#9a32cd" stroke-dasharray="5,2" d="M632.65,-268.32C645.25,-257.76 662.96,-244.85 681,-238 724.91,-221.32 776.85,-214.77 819.76,-212.52"/>
<polygon fill="#9a32cd" stroke="#9a32cd" points="630.05,-265.94 624.8,-275.15 634.64,-271.22 630.05,-265.94"/>
<text text-anchor="middle" x="726.5" y="-241" font-family="Helvetica,sans-Serif" font-size="10.00"> mapping</text>
</g>
<!-- Node11&#45;&gt;Node17 -->
<g id="edge21" class="edge">
<title>Node11&#45;&gt;Node17</title>
<path fill="none" stroke="#9a32cd" stroke-dasharray="5,2" d="M673.27,-290.52C675.88,-290.7 678.47,-290.86 681,-291 947.76,-305.9 1014.84,-301.11 1282,-304 1325.55,-304.47 1336.76,-309.2 1380,-304 1412.19,-300.13 1448.12,-290.76 1472.79,-283.51"/>
<polygon fill="#9a32cd" stroke="#9a32cd" points="673.37,-287.02 663.14,-289.77 672.85,-294 673.37,-287.02"/>
<text text-anchor="middle" x="1117.5" y="-306" font-family="Helvetica,sans-Serif" font-size="10.00"> lookup_table</text>
</g>
<!-- Node11&#45;&gt;Node18 -->
<g id="edge24" class="edge">
<title>Node11&#45;&gt;Node18</title>
<path fill="none" stroke="#9a32cd" stroke-dasharray="5,2" d="M648.29,-297.83C658.65,-301.31 670.17,-304.74 681,-307 1086.21,-391.52 1198.13,-414.21 1610,-373 1652.41,-368.76 1663.86,-368.32 1704,-354 1731.48,-344.2 1760.98,-327.18 1778.17,-316.54"/>
<polygon fill="#9a32cd" stroke="#9a32cd" points="649.36,-294.5 638.77,-294.51 647.06,-301.11 649.36,-294.5"/>
<text text-anchor="middle" x="1237.5" y="-395" font-family="Helvetica,sans-Serif" font-size="10.00"> header</text>
</g>
<!-- Node12 -->
<g id="node12" class="node">
<title>Node12</title>
<g id="a_node12"><a xlink:href="structHsqsMmapFullMap.html" target="_top" xlink:title=" ">
<polygon fill="white" stroke="black" points="293.5,-199.5 293.5,-218.5 422.5,-218.5 422.5,-199.5 293.5,-199.5"/>
<text text-anchor="middle" x="358" y="-206.5" font-family="Helvetica,sans-Serif" font-size="10.00">HsqsMmapFullMap</text>
</a>
</g>
</g>
<!-- Node12&#45;&gt;Node11 -->
<g id="edge12" class="edge">
<title>Node12&#45;&gt;Node11</title>
<path fill="none" stroke="#9a32cd" stroke-dasharray="5,2" d="M432.86,-217.41C468.05,-223.05 510.17,-232.26 546,-247 564.94,-254.79 585.16,-266.96 598.26,-275.42"/>
<polygon fill="#9a32cd" stroke="#9a32cd" points="433.07,-213.9 422.66,-215.84 432.01,-220.82 433.07,-213.9"/>
<text text-anchor="middle" x="519.5" y="-250" font-family="Helvetica,sans-Serif" font-size="10.00"> mc</text>
</g>
<!-- Node13 -->
<g id="node13" class="node">
<title>Node13</title>
<g id="a_node13"><a xlink:href="structHsqsMmapMap.html" target="_top" xlink:title=" ">
<polygon fill="white" stroke="black" points="308.5,-313.5 308.5,-332.5 407.5,-332.5 407.5,-313.5 308.5,-313.5"/>
<text text-anchor="middle" x="358" y="-320.5" font-family="Helvetica,sans-Serif" font-size="10.00">HsqsMmapMap</text>
</a>
</g>
</g>
<!-- Node13&#45;&gt;Node11 -->
<g id="edge13" class="edge">
<title>Node13&#45;&gt;Node11</title>
<path fill="none" stroke="#9a32cd" stroke-dasharray="5,2" d="M417.68,-316.69C454.62,-312.41 503.23,-306.24 546,-299 553.68,-297.7 561.82,-296.14 569.67,-294.54"/>
<polygon fill="#9a32cd" stroke="#9a32cd" points="417.13,-313.23 407.59,-317.84 417.92,-320.18 417.13,-313.23"/>
<text text-anchor="middle" x="519.5" y="-309" font-family="Helvetica,sans-Serif" font-size="10.00"> mm</text>
</g>
<!-- Node14 -->
<g id="node14" class="node">
<title>Node14</title>
<g id="a_node14"><a xlink:href="structHsqsStaticMap.html" target="_top" xlink:title=" ">
<polygon fill="white" stroke="black" points="301,-275.5 301,-294.5 415,-294.5 415,-275.5 301,-275.5"/>
<text text-anchor="middle" x="358" y="-282.5" font-family="Helvetica,sans-Serif" font-size="10.00">HsqsStaticMap</text>
</a>
</g>
</g>
<!-- Node14&#45;&gt;Node11 -->
<g id="edge14" class="edge">
<title>Node14&#45;&gt;Node11</title>
<path fill="none" stroke="#9a32cd" stroke-dasharray="5,2" d="M425.43,-285C468.77,-285 524.38,-285 563.66,-285"/>
<polygon fill="#9a32cd" stroke="#9a32cd" points="425.26,-281.5 415.26,-285 425.26,-288.5 425.26,-281.5"/>
<text text-anchor="middle" x="519.5" y="-288" font-family="Helvetica,sans-Serif" font-size="10.00"> sm</text>
</g>
<!-- Node15 -->
<g id="node15" class="node">
<title>Node15</title>
<g id="a_node15"><a xlink:href="structHsqsCanaryMap.html" target="_top" xlink:title=" ">
<polygon fill="white" stroke="black" points="301,-237.5 301,-256.5 415,-256.5 415,-237.5 301,-237.5"/>
<text text-anchor="middle" x="358" y="-244.5" font-family="Helvetica,sans-Serif" font-size="10.00">HsqsCanaryMap</text>
</a>
</g>
</g>
<!-- Node15&#45;&gt;Node11 -->
<g id="edge15" class="edge">
<title>Node15&#45;&gt;Node11</title>
<path fill="none" stroke="#9a32cd" stroke-dasharray="5,2" d="M425.59,-253.56C461.41,-257.5 506.26,-263.09 546,-270 554.86,-271.54 564.32,-273.49 573.25,-275.47"/>
<polygon fill="#9a32cd" stroke="#9a32cd" points="425.59,-250.04 415.27,-252.44 424.83,-257 425.59,-250.04"/>
<text text-anchor="middle" x="519.5" y="-273" font-family="Helvetica,sans-Serif" font-size="10.00"> cn</text>
</g>
<!-- Node16&#45;&gt;Node4 -->
<g id="edge16" class="edge">
<title>Node16&#45;&gt;Node4</title>
<path fill="none" stroke="#9a32cd" stroke-dasharray="5,2" d="M1004.41,-213C1077.03,-213 1171.13,-213 1213.74,-213"/>
<polygon fill="#9a32cd" stroke="#9a32cd" points="1004.31,-209.5 994.31,-213 1004.31,-216.5 1004.31,-209.5"/>
<text text-anchor="middle" x="1117.5" y="-216" font-family="Helvetica,sans-Serif" font-size="10.00"> superblock</text>
</g>
<!-- Node16&#45;&gt;Node19 -->
<g id="edge27" class="edge">
<title>Node16&#45;&gt;Node19</title>
<path fill="none" stroke="#9a32cd" stroke-dasharray="5,2" d="M936.26,-198.61C1010.48,-161.1 1210.17,-62.22 1282,-47 1358.01,-30.89 1589.32,-61.99 1610,-68 1677.57,-87.63 1749.51,-132.71 1779.09,-152.45"/>
<polygon fill="#9a32cd" stroke="#9a32cd" points="934.38,-195.63 927.04,-203.27 937.54,-201.88 934.38,-195.63"/>
<text text-anchor="middle" x="1331" y="-50" font-family="Helvetica,sans-Serif" font-size="10.00"> superblock</text>
</g>
<!-- Node17&#45;&gt;Node4 -->
<g id="edge18" class="edge">
<title>Node17&#45;&gt;Node4</title>
<path fill="none" stroke="#9a32cd" stroke-dasharray="5,2" d="M1452.01,-262.85C1407.16,-252.94 1340.15,-237.93 1282,-224 1275.18,-222.37 1267.78,-220.52 1261.05,-218.82"/>
<polygon fill="#9a32cd" stroke="#9a32cd" points="1451.27,-266.27 1461.79,-265 1452.78,-259.43 1451.27,-266.27"/>
<text text-anchor="middle" x="1331" y="-260" font-family="Helvetica,sans-Serif" font-size="10.00"> export_table</text>
<text text-anchor="middle" x="1331" y="-249" font-family="Helvetica,sans-Serif" font-size="10.00">id_table</text>
</g>
<!-- Node17&#45;&gt;Node18 -->
<g id="edge25" class="edge">
<title>Node17&#45;&gt;Node18</title>
<path fill="none" stroke="#9a32cd" stroke-dasharray="5,2" d="M1556.3,-279C1596.51,-283.02 1653.87,-288.98 1704,-295 1713.29,-296.12 1723.11,-297.37 1732.71,-298.63"/>
<polygon fill="#9a32cd" stroke="#9a32cd" points="1556.5,-275.51 1546.2,-278 1555.8,-282.47 1556.5,-275.51"/>
<text text-anchor="middle" x="1666" y="-298" font-family="Helvetica,sans-Serif" font-size="10.00"> table</text>
</g>
<!-- Node17&#45;&gt;Node19 -->
<g id="edge28" class="edge">
<title>Node17&#45;&gt;Node19</title>
<path fill="none" stroke="#9a32cd" stroke-dasharray="5,2" d="M1556.18,-264.7C1573.5,-260.92 1592.81,-256.01 1610,-250 1673.89,-227.65 1744.88,-189.33 1776.39,-171.56"/>
<polygon fill="#9a32cd" stroke="#9a32cd" points="1555.3,-261.31 1546.24,-266.79 1556.74,-268.16 1555.3,-261.31"/>
<text text-anchor="middle" x="1666" y="-245" font-family="Helvetica,sans-Serif" font-size="10.00"> table</text>
</g>
<!-- Node18&#45;&gt;Node4 -->
<g id="edge22" class="edge">
<title>Node18&#45;&gt;Node4</title>
<path fill="none" stroke="#9a32cd" stroke-dasharray="5,2" d="M1761.52,-293.47C1725.59,-278.67 1664.7,-255.51 1610,-244 1480.17,-216.68 1320.04,-213.24 1261.4,-212.95"/>
<polygon fill="#9a32cd" stroke="#9a32cd" points="1760.39,-296.79 1770.97,-297.41 1763.08,-290.33 1760.39,-296.79"/>
<text text-anchor="middle" x="1504" y="-247" font-family="Helvetica,sans-Serif" font-size="10.00"> xattr_table</text>
</g>
<!-- Node19&#45;&gt;Node4 -->
<g id="edge26" class="edge">
<title>Node19&#45;&gt;Node4</title>
<path fill="none" stroke="#9a32cd" stroke-dasharray="5,2" d="M1711.71,-164.12C1610.47,-167.72 1432.47,-177.27 1282,-202 1275.24,-203.11 1267.98,-204.76 1261.37,-206.44"/>
<polygon fill="#9a32cd" stroke="#9a32cd" points="1712,-167.61 1721.87,-163.76 1711.75,-160.61 1712,-167.61"/>
<text text-anchor="middle" x="1504" y="-188" font-family="Helvetica,sans-Serif" font-size="10.00"> fragment_table</text>
</g>
<!-- Node20 -->
<g id="node20" class="node">
<title>Node20</title>
<g id="a_node20"><a xlink:href="structHsqsCompressionOptionsContext.html" target="_top" xlink:title=" ">
<polygon fill="white" stroke="black" points="790,-123.5 790,-142.5 1024,-142.5 1024,-123.5 790,-123.5"/>
<text text-anchor="middle" x="907" y="-130.5" font-family="Helvetica,sans-Serif" font-size="10.00">HsqsCompressionOptionsContext</text>
</a>
</g>
</g>
<!-- Node20&#45;&gt;Node4 -->
<g id="edge30" class="edge">
<title>Node20&#45;&gt;Node4</title>
<path fill="none" stroke="#9a32cd" stroke-dasharray="5,2" d="M967.15,-144.55C1025.12,-156.32 1115.78,-175.95 1193,-198 1199.76,-199.93 1207.01,-202.31 1213.62,-204.59"/>
<polygon fill="#9a32cd" stroke="#9a32cd" points="967.57,-141.06 957.07,-142.51 966.18,-147.92 967.57,-141.06"/>
<text text-anchor="middle" x="1117.5" y="-201" font-family="Helvetica,sans-Serif" font-size="10.00"> compression_options</text>
</g>
<!-- Node21 -->
<g id="node21" class="node">
<title>Node21</title>
<g id="a_node21"><a xlink:href="structHsqsBuffer.html" target="_top" xlink:title=" ">
<polygon fill="white" stroke="black" points="567.5,-81.5 567.5,-100.5 659.5,-100.5 659.5,-81.5 567.5,-81.5"/>
<text text-anchor="middle" x="613.5" y="-88.5" font-family="Helvetica,sans-Serif" font-size="10.00">HsqsBuffer</text>
</a>
</g>
</g>
<!-- Node21&#45;&gt;Node3 -->
<g id="edge33" class="edge">
<title>Node21&#45;&gt;Node3</title>
<path fill="none" stroke="#9a32cd" stroke-dasharray="5,2" d="M669.8,-85.96C815.05,-72.72 1209.18,-36.79 1398.6,-19.52"/>
<polygon fill="#9a32cd" stroke="#9a32cd" points="669.42,-82.48 659.78,-86.87 670.06,-89.45 669.42,-82.48"/>
<text text-anchor="middle" x="1117.5" y="-55" font-family="Helvetica,sans-Serif" font-size="10.00"> buffer</text>
</g>
<!-- Node21&#45;&gt;Node20 -->
<g id="edge31" class="edge">
<title>Node21&#45;&gt;Node20</title>
<path fill="none" stroke="#9a32cd" stroke-dasharray="5,2" d="M669.7,-98.95C718.05,-105.92 788.42,-116.06 839.8,-123.46"/>
<polygon fill="#9a32cd" stroke="#9a32cd" points="670.12,-95.48 659.73,-97.52 669.13,-102.41 670.12,-95.48"/>
<text text-anchor="middle" x="726.5" y="-117" font-family="Helvetica,sans-Serif" font-size="10.00"> buffer</text>
</g>
<!-- Node22 -->
<g id="node22" class="node">
<title>Node22</title>
<g id="a_node22"><a xlink:href="structHsqsCompressionImplementation.html" target="_top" xlink:title=" ">
<polygon fill="white" stroke="black" points="241,-81.5 241,-100.5 475,-100.5 475,-81.5 241,-81.5"/>
<text text-anchor="middle" x="358" y="-88.5" font-family="Helvetica,sans-Serif" font-size="10.00">HsqsCompressionImplementation</text>
</a>
</g>
</g>
<!-- Node22&#45;&gt;Node21 -->
<g id="edge32" class="edge">
<title>Node22&#45;&gt;Node21</title>
<path fill="none" stroke="#9a32cd" stroke-dasharray="5,2" d="M485.72,-91C515.03,-91 544.35,-91 567.39,-91"/>
<polygon fill="#9a32cd" stroke="#9a32cd" points="485.36,-87.5 475.36,-91 485.36,-94.5 485.36,-87.5"/>
<text text-anchor="middle" x="519.5" y="-94" font-family="Helvetica,sans-Serif" font-size="10.00"> impl</text>
</g>
</g>
</svg>
