<?xml version="1.0" encoding="UTF-8" standalone="no"?>
<!DOCTYPE svg PUBLIC "-//W3C//DTD SVG 1.1//EN"
 "http://www.w3.org/Graphics/SVG/1.1/DTD/svg11.dtd">
<!-- Generated by graphviz version 3.0.0 (20220413.0242)
 -->
<!-- Title: SqshXattrIterator Pages: 1 -->
<!--zoomable 445 -->
<svg id="main" version="1.1" xmlns="http://www.w3.org/2000/svg" xmlns:xlink="http://www.w3.org/1999/xlink" xml:space="preserve" onload="init(evt)">
<style type="text/css"><![CDATA[
.edge:hover path { stroke: red; }
.edge:hover polygon { stroke: red; fill: red; }
]]></style>
<script type="text/javascript"><![CDATA[
var edges = document.getElementsByTagName('g');
if (edges && edges.length) {
  for (var i=0;i<edges.length;i++) {
    if (edges[i].id.substr(0,4)=='edge') {
      edges[i].setAttribute('class','edge');
    }
  }
}
]]></script>
        <defs>
                <circle id="rim" cx="0" cy="0" r="7"/>
                <circle id="rim2" cx="0" cy="0" r="3.5"/>
                <g id="zoomPlus">
                        <use xlink:href="#rim" fill="#404040">
                                <set attributeName="fill" to="#808080" begin="zoomplus.mouseover" end="zoomplus.mouseout"/>
                        </use>
                        <path d="M-4,0h8M0,-4v8" fill="none" stroke="white" stroke-width="1.5" pointer-events="none"/>
                </g>
                <g id="zoomMin">
                        <use xlink:href="#rim" fill="#404040">
                                <set attributeName="fill" to="#808080" begin="zoomminus.mouseover" end="zoomminus.mouseout"/>
                        </use>
                        <path d="M-4,0h8" fill="none" stroke="white" stroke-width="1.5" pointer-events="none"/>
                </g>
                <g id="dirArrow">
                        <path fill="none" stroke="white" stroke-width="1.5" d="M0,-3.0v7 M-2.5,-0.5L0,-3.0L2.5,-0.5"/>
                </g>
               <g id="resetDef">
                       <use xlink:href="#rim2" fill="#404040">
                               <set attributeName="fill" to="#808080" begin="reset.mouseover" end="reset.mouseout"/>
                       </use>
               </g>
        </defs>

<script type="text/javascript">
var viewWidth = 2122;
var viewHeight = 445;
var sectionId = 'dynsection-0';
</script>
<script xlink:href="svgpan.js"/>
<svg id="graph" class="graph">
<g id="viewport">
<title>SqshXattrIterator</title>
<polygon fill="white" stroke="transparent" points="-4,4 -4,-441 2118,-441 2118,4 -4,4"/>
<!-- Node1 -->
<g id="node1" class="node">
<title>Node1</title>
<g id="a_node1"><a xlink:title=" ">
<polygon fill="#bfbfbf" stroke="black" points="1970,-27.5 1970,-46.5 2114,-46.5 2114,-27.5 1970,-27.5"/>
<text text-anchor="middle" x="2042" y="-34.5" font-family="Helvetica,sans-Serif" font-size="10.00">SqshXattrIterator</text>
</a>
</g>
</g>
<!-- Node2 -->
<g id="node2" class="node">
<title>Node2</title>
<g id="a_node2"><a xlink:href="structSqshMetablockStreamContext.html" target="_top" xlink:title=" ">
<polygon fill="white" stroke="black" points="1435,-4.5 1435,-23.5 1647,-23.5 1647,-4.5 1435,-4.5"/>
<text text-anchor="middle" x="1541" y="-11.5" font-family="Helvetica,sans-Serif" font-size="10.00">SqshMetablockStreamContext</text>
</a>
</g>
</g>
<!-- Node2&#45;&gt;Node1 -->
<g id="edge1" class="edge">
<title>Node2&#45;&gt;Node1</title>
<path fill="none" stroke="#9a32cd" stroke-dasharray="5,2" d="M1657.31,-19.31C1753.73,-23.76 1888.24,-29.96 1969.71,-33.71"/>
<polygon fill="#9a32cd" stroke="#9a32cd" points="1657.37,-15.81 1647.22,-18.85 1657.04,-22.81 1657.37,-15.81"/>
<text text-anchor="middle" x="1801" y="-43" font-family="Helvetica,sans-Serif" font-size="10.00"> metablock</text>
<text text-anchor="middle" x="1801" y="-32" font-family="Helvetica,sans-Serif" font-size="10.00">out_of_line_value</text>
</g>
<!-- Node3 -->
<g id="node3" class="node">
<title>Node3</title>
<g id="a_node3"><a xlink:href="structSqsh.html" target="_top" xlink:title="The SqshContext struct contains all information about the current sqsh session.">
<polygon fill="white" stroke="black" points="1251,-173.5 1251,-192.5 1298,-192.5 1298,-173.5 1251,-173.5"/>
<text text-anchor="middle" x="1274.5" y="-180.5" font-family="Helvetica,sans-Serif" font-size="10.00">Sqsh</text>
</a>
</g>
</g>
<!-- Node3&#45;&gt;Node2 -->
<g id="edge2" class="edge">
<title>Node3&#45;&gt;Node2</title>
<path fill="none" stroke="#9a32cd" stroke-dasharray="5,2" d="M1279.24,-163.71C1284.46,-141.89 1295.98,-106.68 1319,-86 1358.24,-50.73 1415.05,-32.71 1461.24,-23.51"/>
<polygon fill="#9a32cd" stroke="#9a32cd" points="1275.82,-162.98 1277.11,-173.5 1282.66,-164.47 1275.82,-162.98"/>
<text text-anchor="middle" x="1368" y="-89" font-family="Helvetica,sans-Serif" font-size="10.00"> sqsh</text>
</g>
<!-- Node18 -->
<g id="node18" class="node">
<title>Node18</title>
<g id="a_node18"><a xlink:href="structSqshTable.html" target="_top" xlink:title=" ">
<polygon fill="white" stroke="black" points="1499,-206.5 1499,-225.5 1583,-225.5 1583,-206.5 1499,-206.5"/>
<text text-anchor="middle" x="1541" y="-213.5" font-family="Helvetica,sans-Serif" font-size="10.00">SqshTable</text>
</a>
</g>
</g>
<!-- Node3&#45;&gt;Node18 -->
<g id="edge20" class="edge">
<title>Node3&#45;&gt;Node18</title>
<path fill="none" stroke="#9a32cd" stroke-dasharray="5,2" d="M1308.44,-183.15C1337.2,-183.64 1380.01,-185.21 1417,-190 1446,-193.76 1478.35,-200.71 1502.58,-206.47"/>
<polygon fill="#9a32cd" stroke="#9a32cd" points="1308.19,-179.65 1298.14,-183.01 1308.1,-186.65 1308.19,-179.65"/>
<text text-anchor="middle" x="1368" y="-193" font-family="Helvetica,sans-Serif" font-size="10.00"> sqsh</text>
</g>
<!-- Node19 -->
<g id="node19" class="node">
<title>Node19</title>
<g id="a_node19"><a xlink:href="structSqshXattrTable.html" target="_top" xlink:title=" ">
<polygon fill="white" stroke="black" points="1740,-101.5 1740,-120.5 1862,-120.5 1862,-101.5 1740,-101.5"/>
<text text-anchor="middle" x="1801" y="-108.5" font-family="Helvetica,sans-Serif" font-size="10.00">SqshXattrTable</text>
</a>
</g>
</g>
<!-- Node3&#45;&gt;Node19 -->
<g id="edge24" class="edge">
<title>Node3&#45;&gt;Node19</title>
<path fill="none" stroke="#9a32cd" stroke-dasharray="5,2" d="M1302.21,-168.47C1333.11,-152.58 1386.04,-128.14 1435,-119 1540.92,-99.22 1667.12,-102.18 1739.96,-106.4"/>
<polygon fill="#9a32cd" stroke="#9a32cd" points="1300.22,-165.56 1292.98,-173.3 1303.46,-171.76 1300.22,-165.56"/>
<text text-anchor="middle" x="1541" y="-122" font-family="Helvetica,sans-Serif" font-size="10.00"> sqsh</text>
</g>
<!-- Node4 -->
<g id="node4" class="node">
<title>Node4</title>
<g id="a_node4"><a xlink:href="structSqshMapper.html" target="_top" xlink:title=" ">
<polygon fill="white" stroke="black" points="259.5,-309.5 259.5,-328.5 351.5,-328.5 351.5,-309.5 259.5,-309.5"/>
<text text-anchor="middle" x="305.5" y="-316.5" font-family="Helvetica,sans-Serif" font-size="10.00">SqshMapper</text>
</a>
</g>
</g>
<!-- Node4&#45;&gt;Node3 -->
<g id="edge3" class="edge">
<title>Node4&#45;&gt;Node3</title>
<path fill="none" stroke="#9a32cd" stroke-dasharray="5,2" d="M361.71,-316.52C535.59,-308.12 1069.8,-277.73 1230,-215 1242.92,-209.94 1255.44,-200.04 1263.7,-192.58"/>
<polygon fill="#9a32cd" stroke="#9a32cd" points="361.33,-313.03 351.51,-317 361.67,-320.02 361.33,-313.03"/>
<text text-anchor="middle" x="756.5" y="-307" font-family="Helvetica,sans-Serif" font-size="10.00"> mapper</text>
<text text-anchor="middle" x="756.5" y="-296" font-family="Helvetica,sans-Serif" font-size="10.00">table_mapper</text>
</g>
<!-- Node12 -->
<g id="node12" class="node">
<title>Node12</title>
<g id="a_node12"><a xlink:href="structSqshMapping.html" target="_top" xlink:title=" ">
<polygon fill="white" stroke="black" points="526.5,-164.5 526.5,-183.5 625.5,-183.5 625.5,-164.5 526.5,-164.5"/>
<text text-anchor="middle" x="576" y="-171.5" font-family="Helvetica,sans-Serif" font-size="10.00">SqshMapping</text>
</a>
</g>
</g>
<!-- Node4&#45;&gt;Node12 -->
<g id="edge12" class="edge">
<title>Node4&#45;&gt;Node12</title>
<path fill="none" stroke="#9a32cd" stroke-dasharray="5,2" d="M317.67,-300.81C331.57,-279.7 357.27,-245.32 388,-226 411.46,-211.25 481.99,-193.98 529.4,-183.53"/>
<polygon fill="#9a32cd" stroke="#9a32cd" points="314.57,-299.16 312.14,-309.47 320.47,-302.93 314.57,-299.16"/>
<text text-anchor="middle" x="414.5" y="-229" font-family="Helvetica,sans-Serif" font-size="10.00"> mapper</text>
</g>
<!-- Node4&#45;&gt;Node18 -->
<g id="edge21" class="edge">
<title>Node4&#45;&gt;Node18</title>
<path fill="none" stroke="#9a32cd" stroke-dasharray="5,2" d="M348.1,-331.22C378.51,-339.5 420.93,-349.69 459,-354 799.5,-392.57 895.46,-422.22 1230,-348 1290.25,-334.63 1461.78,-253.63 1520.22,-225.56"/>
<polygon fill="#9a32cd" stroke="#9a32cd" points="348.84,-327.8 338.27,-328.5 346.97,-334.54 348.84,-327.8"/>
<text text-anchor="middle" x="937" y="-396" font-family="Helvetica,sans-Serif" font-size="10.00"> mapper</text>
</g>
<!-- Node20 -->
<g id="node20" class="node">
<title>Node20</title>
<g id="a_node20"><a xlink:href="structSqshFragmentTable.html" target="_top" xlink:title=" ">
<polygon fill="white" stroke="black" points="1729,-331.5 1729,-350.5 1873,-350.5 1873,-331.5 1729,-331.5"/>
<text text-anchor="middle" x="1801" y="-338.5" font-family="Helvetica,sans-Serif" font-size="10.00">SqshFragmentTable</text>
</a>
</g>
</g>
<!-- Node4&#45;&gt;Node20 -->
<g id="edge30" class="edge">
<title>Node4&#45;&gt;Node20</title>
<path fill="none" stroke="#9a32cd" stroke-dasharray="5,2" d="M328.54,-334.49C372.95,-364.14 477.32,-426 575,-426 575,-426 575,-426 1542,-426 1637.5,-426 1743.35,-372.82 1783.42,-350.59"/>
<polygon fill="#9a32cd" stroke="#9a32cd" points="330.23,-331.41 320,-328.68 326.3,-337.2 330.23,-331.41"/>
<text text-anchor="middle" x="1151" y="-429" font-family="Helvetica,sans-Serif" font-size="10.00"> mapper</text>
</g>
<!-- Node5 -->
<g id="node5" class="node">
<title>Node5</title>
<g id="a_node5"><a xlink:href="structSqshMemoryMapperImpl.html" target="_top" xlink:title=" ">
<polygon fill="white" stroke="black" points="0,-385.5 0,-404.5 167,-404.5 167,-385.5 0,-385.5"/>
<text text-anchor="middle" x="83.5" y="-392.5" font-family="Helvetica,sans-Serif" font-size="10.00">SqshMemoryMapperImpl</text>
</a>
</g>
</g>
<!-- Node5&#45;&gt;Node4 -->
<g id="edge4" class="edge">
<title>Node5&#45;&gt;Node4</title>
<path fill="none" stroke="#9a32cd" stroke-dasharray="5,2" d="M141.5,-383.03C150.1,-380.89 158.83,-378.53 167,-376 209.95,-362.7 258.04,-341.15 284.44,-328.7"/>
<polygon fill="#9a32cd" stroke="#9a32cd" points="140.41,-379.7 131.51,-385.44 142.05,-386.5 140.41,-379.7"/>
<text text-anchor="middle" x="204" y="-372" font-family="Helvetica,sans-Serif" font-size="10.00"> impl</text>
</g>
<!-- Node6 -->
<g id="node6" class="node">
<title>Node6</title>
<g id="a_node6"><a xlink:href="structSqshMmapFullMapper.html" target="_top" xlink:title=" ">
<polygon fill="white" stroke="black" points="7.5,-347.5 7.5,-366.5 159.5,-366.5 159.5,-347.5 7.5,-347.5"/>
<text text-anchor="middle" x="83.5" y="-354.5" font-family="Helvetica,sans-Serif" font-size="10.00">SqshMmapFullMapper</text>
</a>
</g>
</g>
<!-- Node6&#45;&gt;Node4 -->
<g id="edge5" class="edge">
<title>Node6&#45;&gt;Node4</title>
<path fill="none" stroke="#9a32cd" stroke-dasharray="5,2" d="M153.21,-345.83C175.49,-342.15 200.31,-337.97 223,-334 234.76,-331.94 247.46,-329.64 259.26,-327.47"/>
<polygon fill="#9a32cd" stroke="#9a32cd" points="152.47,-342.41 143.17,-347.49 153.6,-349.31 152.47,-342.41"/>
<text text-anchor="middle" x="204" y="-342" font-family="Helvetica,sans-Serif" font-size="10.00"> mc</text>
</g>
<!-- Node7 -->
<g id="node7" class="node">
<title>Node7</title>
<g id="a_node7"><a xlink:href="structSqshMmapMapper.html" target="_top" xlink:title=" ">
<polygon fill="white" stroke="black" points="22.5,-309.5 22.5,-328.5 144.5,-328.5 144.5,-309.5 22.5,-309.5"/>
<text text-anchor="middle" x="83.5" y="-316.5" font-family="Helvetica,sans-Serif" font-size="10.00">SqshMmapMapper</text>
</a>
</g>
</g>
<!-- Node7&#45;&gt;Node4 -->
<g id="edge6" class="edge">
<title>Node7&#45;&gt;Node4</title>
<path fill="none" stroke="#9a32cd" stroke-dasharray="5,2" d="M155.04,-319C189.29,-319 229.42,-319 259.47,-319"/>
<polygon fill="#9a32cd" stroke="#9a32cd" points="154.62,-315.5 144.62,-319 154.62,-322.5 154.62,-315.5"/>
<text text-anchor="middle" x="204" y="-322" font-family="Helvetica,sans-Serif" font-size="10.00"> mm</text>
</g>
<!-- Node8 -->
<g id="node8" class="node">
<title>Node8</title>
<g id="a_node8"><a xlink:href="structSqshStaticMapper.html" target="_top" xlink:title=" ">
<polygon fill="white" stroke="black" points="15,-271.5 15,-290.5 152,-290.5 152,-271.5 15,-271.5"/>
<text text-anchor="middle" x="83.5" y="-278.5" font-family="Helvetica,sans-Serif" font-size="10.00">SqshStaticMapper</text>
</a>
</g>
</g>
<!-- Node8&#45;&gt;Node4 -->
<g id="edge7" class="edge">
<title>Node8&#45;&gt;Node4</title>
<path fill="none" stroke="#9a32cd" stroke-dasharray="5,2" d="M153.21,-292.17C175.49,-295.85 200.31,-300.03 223,-304 234.76,-306.06 247.46,-308.36 259.26,-310.53"/>
<polygon fill="#9a32cd" stroke="#9a32cd" points="153.6,-288.69 143.17,-290.51 152.47,-295.59 153.6,-288.69"/>
<text text-anchor="middle" x="204" y="-307" font-family="Helvetica,sans-Serif" font-size="10.00"> sm</text>
</g>
<!-- Node9 -->
<g id="node9" class="node">
<title>Node9</title>
<g id="a_node9"><a xlink:href="structSqshCanaryMapper.html" target="_top" xlink:title=" ">
<polygon fill="white" stroke="black" points="15,-233.5 15,-252.5 152,-252.5 152,-233.5 15,-233.5"/>
<text text-anchor="middle" x="83.5" y="-240.5" font-family="Helvetica,sans-Serif" font-size="10.00">SqshCanaryMapper</text>
</a>
</g>
</g>
<!-- Node9&#45;&gt;Node4 -->
<g id="edge8" class="edge">
<title>Node9&#45;&gt;Node4</title>
<path fill="none" stroke="#9a32cd" stroke-dasharray="5,2" d="M140.87,-254.93C149.67,-257.1 158.62,-259.47 167,-262 210.3,-275.04 258.66,-296.89 284.92,-309.41"/>
<polygon fill="#9a32cd" stroke="#9a32cd" points="141.57,-251.5 131.04,-252.58 139.95,-258.31 141.57,-251.5"/>
<text text-anchor="middle" x="204" y="-284" font-family="Helvetica,sans-Serif" font-size="10.00"> cn</text>
</g>
<!-- Node10 -->
<g id="node10" class="node">
<title>Node10</title>
<g id="a_node10"><a xlink:href="structSqshCompression.html" target="_top" xlink:title=" ">
<polygon fill="white" stroke="black" points="872.5,-325.5 872.5,-344.5 1001.5,-344.5 1001.5,-325.5 872.5,-325.5"/>
<text text-anchor="middle" x="937" y="-332.5" font-family="Helvetica,sans-Serif" font-size="10.00">SqshCompression</text>
</a>
</g>
</g>
<!-- Node10&#45;&gt;Node3 -->
<g id="edge9" class="edge">
<title>Node10&#45;&gt;Node3</title>
<path fill="none" stroke="#9a32cd" stroke-dasharray="5,2" d="M1011.71,-328.87C1095.38,-321.62 1221.48,-309.7 1230,-303 1265.37,-275.2 1272,-216.03 1273.23,-192.73"/>
<polygon fill="#9a32cd" stroke="#9a32cd" points="1011.39,-325.39 1001.72,-329.73 1011.99,-332.36 1011.39,-325.39"/>
<text text-anchor="middle" x="1151" y="-336" font-family="Helvetica,sans-Serif" font-size="10.00"> data_compression</text>
<text text-anchor="middle" x="1151" y="-325" font-family="Helvetica,sans-Serif" font-size="10.00">metablock_compression</text>
</g>
<!-- Node10&#45;&gt;Node20 -->
<g id="edge31" class="edge">
<title>Node10&#45;&gt;Node20</title>
<path fill="none" stroke="#9a32cd" stroke-dasharray="5,2" d="M1011.74,-342.96C1031.31,-344.85 1052.44,-346.7 1072,-348 1355.39,-366.89 1427.92,-378.1 1711,-355 1723,-354.02 1735.84,-352.36 1747.92,-350.53"/>
<polygon fill="#9a32cd" stroke="#9a32cd" points="1011.96,-339.46 1001.67,-341.97 1011.28,-346.43 1011.96,-339.46"/>
<text text-anchor="middle" x="1368" y="-370" font-family="Helvetica,sans-Serif" font-size="10.00"> compression</text>
</g>
<!-- Node11 -->
<g id="node11" class="node">
<title>Node11</title>
<g id="a_node11"><a xlink:href="structSqshCompressionImplementation.html" target="_top" xlink:title=" ">
<polygon fill="white" stroke="black" points="459,-325.5 459,-344.5 693,-344.5 693,-325.5 459,-325.5"/>
<text text-anchor="middle" x="576" y="-332.5" font-family="Helvetica,sans-Serif" font-size="10.00">SqshCompressionImplementation</text>
</a>
</g>
</g>
<!-- Node11&#45;&gt;Node10 -->
<g id="edge10" class="edge">
<title>Node11&#45;&gt;Node10</title>
<path fill="none" stroke="#9a32cd" stroke-dasharray="5,2" d="M703.27,-335C760.46,-335 825.57,-335 872.35,-335"/>
<polygon fill="#9a32cd" stroke="#9a32cd" points="703.06,-331.5 693.06,-335 703.06,-338.5 703.06,-331.5"/>
<text text-anchor="middle" x="756.5" y="-338" font-family="Helvetica,sans-Serif" font-size="10.00"> impl</text>
</g>
<!-- Node12&#45;&gt;Node3 -->
<g id="edge11" class="edge">
<title>Node12&#45;&gt;Node3</title>
<path fill="none" stroke="#9a32cd" stroke-dasharray="5,2" d="M635.8,-174.76C781.63,-176.64 1155.09,-181.47 1250.85,-182.71"/>
<polygon fill="#9a32cd" stroke="#9a32cd" points="635.74,-171.26 625.7,-174.63 635.65,-178.26 635.74,-171.26"/>
<text text-anchor="middle" x="937" y="-183" font-family="Helvetica,sans-Serif" font-size="10.00"> table_map</text>
</g>
<!-- Node17 -->
<g id="node17" class="node">
<title>Node17</title>
<g id="a_node17"><a xlink:href="structSqshSuperblockContext.html" target="_top" xlink:title=" ">
<polygon fill="white" stroke="black" points="850,-203.5 850,-222.5 1024,-222.5 1024,-203.5 850,-203.5"/>
<text text-anchor="middle" x="937" y="-210.5" font-family="Helvetica,sans-Serif" font-size="10.00">SqshSuperblockContext</text>
</a>
</g>
</g>
<!-- Node12&#45;&gt;Node17 -->
<g id="edge18" class="edge">
<title>Node12&#45;&gt;Node17</title>
<path fill="none" stroke="#9a32cd" stroke-dasharray="5,2" d="M635.91,-180.4C694.04,-186.71 783.57,-196.44 849.72,-203.63"/>
<polygon fill="#9a32cd" stroke="#9a32cd" points="636.11,-176.9 625.79,-179.3 635.35,-183.86 636.11,-176.9"/>
<text text-anchor="middle" x="756.5" y="-201" font-family="Helvetica,sans-Serif" font-size="10.00"> mapping</text>
</g>
<!-- Node12&#45;&gt;Node18 -->
<g id="edge22" class="edge">
<title>Node12&#45;&gt;Node18</title>
<path fill="none" stroke="#9a32cd" stroke-dasharray="5,2" d="M591.97,-191.11C614.76,-215.7 660.83,-259.95 711,-277 756.4,-292.43 817.24,-321.99 1417,-242 1445.88,-238.15 1478.09,-231.24 1502.3,-225.52"/>
<polygon fill="#9a32cd" stroke="#9a32cd" points="594.47,-188.65 585.17,-183.59 589.28,-193.35 594.47,-188.65"/>
<text text-anchor="middle" x="1151" y="-285" font-family="Helvetica,sans-Serif" font-size="10.00"> lookup_table</text>
</g>
<!-- Node12&#45;&gt;Node19 -->
<g id="edge25" class="edge">
<title>Node12&#45;&gt;Node19</title>
<path fill="none" stroke="#9a32cd" stroke-dasharray="5,2" d="M601.77,-159.24C658.7,-126.77 804.08,-52 936,-52 936,-52 936,-52 1542,-52 1629.53,-52 1729.66,-84.67 1775.16,-101.39"/>
<polygon fill="#9a32cd" stroke="#9a32cd" points="599.71,-156.39 592.8,-164.43 603.21,-162.45 599.71,-156.39"/>
<text text-anchor="middle" x="1274.5" y="-55" font-family="Helvetica,sans-Serif" font-size="10.00"> header</text>
</g>
<!-- Node13 -->
<g id="node13" class="node">
<title>Node13</title>
<g id="a_node13"><a xlink:href="structSqshMmapFullMap.html" target="_top" xlink:title=" ">
<polygon fill="white" stroke="black" points="241,-147.5 241,-166.5 370,-166.5 370,-147.5 241,-147.5"/>
<text text-anchor="middle" x="305.5" y="-154.5" font-family="Helvetica,sans-Serif" font-size="10.00">SqshMmapFullMap</text>
</a>
</g>
</g>
<!-- Node13&#45;&gt;Node12 -->
<g id="edge13" class="edge">
<title>Node13&#45;&gt;Node12</title>
<path fill="none" stroke="#9a32cd" stroke-dasharray="5,2" d="M380.34,-156.07C400.06,-156.23 421.35,-156.76 441,-158 469.41,-159.8 501.04,-163.49 526.43,-166.88"/>
<polygon fill="#9a32cd" stroke="#9a32cd" points="380.2,-152.57 370.18,-156.02 380.16,-159.57 380.2,-152.57"/>
<text text-anchor="middle" x="414.5" y="-161" font-family="Helvetica,sans-Serif" font-size="10.00"> mc</text>
</g>
<!-- Node14 -->
<g id="node14" class="node">
<title>Node14</title>
<g id="a_node14"><a xlink:href="structSqshMmapMap.html" target="_top" xlink:title=" ">
<polygon fill="white" stroke="black" points="256,-109.5 256,-128.5 355,-128.5 355,-109.5 256,-109.5"/>
<text text-anchor="middle" x="305.5" y="-116.5" font-family="Helvetica,sans-Serif" font-size="10.00">SqshMmapMap</text>
</a>
</g>
</g>
<!-- Node14&#45;&gt;Node12 -->
<g id="edge14" class="edge">
<title>Node14&#45;&gt;Node12</title>
<path fill="none" stroke="#9a32cd" stroke-dasharray="5,2" d="M365.43,-127.6C389,-131.31 416.36,-135.96 441,-141 474.68,-147.89 512.71,-157.43 539.63,-164.47"/>
<polygon fill="#9a32cd" stroke="#9a32cd" points="365.65,-124.09 355.23,-126.02 364.57,-131.01 365.65,-124.09"/>
<text text-anchor="middle" x="414.5" y="-144" font-family="Helvetica,sans-Serif" font-size="10.00"> mm</text>
</g>
<!-- Node15 -->
<g id="node15" class="node">
<title>Node15</title>
<g id="a_node15"><a xlink:href="structSqshStaticMap.html" target="_top" xlink:title=" ">
<polygon fill="white" stroke="black" points="248.5,-71.5 248.5,-90.5 362.5,-90.5 362.5,-71.5 248.5,-71.5"/>
<text text-anchor="middle" x="305.5" y="-78.5" font-family="Helvetica,sans-Serif" font-size="10.00">SqshStaticMap</text>
</a>
</g>
</g>
<!-- Node15&#45;&gt;Node12 -->
<g id="edge15" class="edge">
<title>Node15&#45;&gt;Node12</title>
<path fill="none" stroke="#9a32cd" stroke-dasharray="5,2" d="M359.99,-92.92C384.89,-98.97 414.73,-106.96 441,-116 482.71,-130.36 529.62,-151.99 555.4,-164.38"/>
<polygon fill="#9a32cd" stroke="#9a32cd" points="360.55,-89.45 350.01,-90.53 358.92,-96.26 360.55,-89.45"/>
<text text-anchor="middle" x="414.5" y="-119" font-family="Helvetica,sans-Serif" font-size="10.00"> sm</text>
</g>
<!-- Node16 -->
<g id="node16" class="node">
<title>Node16</title>
<g id="a_node16"><a xlink:href="structSqshCanaryMap.html" target="_top" xlink:title=" ">
<polygon fill="white" stroke="black" points="248.5,-185.5 248.5,-204.5 362.5,-204.5 362.5,-185.5 248.5,-185.5"/>
<text text-anchor="middle" x="305.5" y="-192.5" font-family="Helvetica,sans-Serif" font-size="10.00">SqshCanaryMap</text>
</a>
</g>
</g>
<!-- Node16&#45;&gt;Node12 -->
<g id="edge16" class="edge">
<title>Node16&#45;&gt;Node12</title>
<path fill="none" stroke="#9a32cd" stroke-dasharray="5,2" d="M373,-189.8C420.57,-186.08 483.54,-181.15 526.44,-177.8"/>
<polygon fill="#9a32cd" stroke="#9a32cd" points="372.48,-186.33 362.79,-190.6 373.03,-193.31 372.48,-186.33"/>
<text text-anchor="middle" x="414.5" y="-191" font-family="Helvetica,sans-Serif" font-size="10.00"> cn</text>
</g>
<!-- Node17&#45;&gt;Node3 -->
<g id="edge17" class="edge">
<title>Node17&#45;&gt;Node3</title>
<path fill="none" stroke="#9a32cd" stroke-dasharray="5,2" d="M1034.77,-204.35C1109.42,-197.67 1207.07,-188.94 1250.71,-185.04"/>
<polygon fill="#9a32cd" stroke="#9a32cd" points="1034.05,-200.9 1024.4,-205.27 1034.67,-207.87 1034.05,-200.9"/>
<text text-anchor="middle" x="1151" y="-203" font-family="Helvetica,sans-Serif" font-size="10.00"> superblock</text>
</g>
<!-- Node17&#45;&gt;Node20 -->
<g id="edge28" class="edge">
<title>Node17&#45;&gt;Node20</title>
<path fill="none" stroke="#9a32cd" stroke-dasharray="5,2" d="M1000.12,-224.38C1059.41,-235.52 1151.11,-253.47 1230,-272 1321.83,-293.57 1341.73,-312.88 1435,-327 1536.26,-342.33 1655.02,-343.89 1728.9,-342.95"/>
<polygon fill="#9a32cd" stroke="#9a32cd" points="1000.64,-220.92 990.17,-222.52 999.35,-227.8 1000.64,-220.92"/>
<text text-anchor="middle" x="1368" y="-326" font-family="Helvetica,sans-Serif" font-size="10.00"> superblock</text>
</g>
<!-- Node18&#45;&gt;Node3 -->
<g id="edge19" class="edge">
<title>Node18&#45;&gt;Node3</title>
<path fill="none" stroke="#9a32cd" stroke-dasharray="5,2" d="M1488.82,-218.31C1443.5,-219.1 1375.91,-217.22 1319,-203 1309.81,-200.7 1300.18,-196.49 1292.32,-192.51"/>
<polygon fill="#9a32cd" stroke="#9a32cd" points="1489.07,-221.8 1498.99,-218.08 1488.92,-214.81 1489.07,-221.8"/>
<text text-anchor="middle" x="1368" y="-230" font-family="Helvetica,sans-Serif" font-size="10.00"> export_table</text>
<text text-anchor="middle" x="1368" y="-219" font-family="Helvetica,sans-Serif" font-size="10.00">id_table</text>
</g>
<!-- Node18&#45;&gt;Node19 -->
<g id="edge26" class="edge">
<title>Node18&#45;&gt;Node19</title>
<path fill="none" stroke="#9a32cd" stroke-dasharray="5,2" d="M1593.12,-207.48C1627.48,-200.62 1673.21,-189.23 1711,-172 1741.34,-158.17 1772.52,-134.08 1788.7,-120.69"/>
<polygon fill="#9a32cd" stroke="#9a32cd" points="1592.45,-204.05 1583.3,-209.39 1593.78,-210.92 1592.45,-204.05"/>
<text text-anchor="middle" x="1688" y="-191" font-family="Helvetica,sans-Serif" font-size="10.00"> table</text>
</g>
<!-- Node18&#45;&gt;Node20 -->
<g id="edge29" class="edge">
<title>Node18&#45;&gt;Node20</title>
<path fill="none" stroke="#9a32cd" stroke-dasharray="5,2" d="M1593.1,-212.96C1628.23,-213.03 1674.86,-217.57 1711,-237 1752.86,-259.51 1783.64,-310.32 1795.1,-331.48"/>
<polygon fill="#9a32cd" stroke="#9a32cd" points="1593.03,-209.46 1583.06,-213.05 1593.1,-216.46 1593.03,-209.46"/>
<text text-anchor="middle" x="1688" y="-240" font-family="Helvetica,sans-Serif" font-size="10.00"> table</text>
</g>
<!-- Node19&#45;&gt;Node1 -->
<g id="edge36" class="edge">
<title>Node19&#45;&gt;Node1</title>
<path fill="none" stroke="#9a32cd" stroke-dasharray="5,2" d="M1842.38,-98.5C1889.71,-83.84 1967.12,-59.88 2009.98,-46.6"/>
<polygon fill="#9a32cd" stroke="#9a32cd" points="1841.27,-95.18 1832.76,-101.48 1843.34,-101.86 1841.27,-95.18"/>
<text text-anchor="middle" x="1921.5" y="-85" font-family="Helvetica,sans-Serif" font-size="10.00"> context</text>
</g>
<!-- Node19&#45;&gt;Node3 -->
<g id="edge23" class="edge">
<title>Node19&#45;&gt;Node3</title>
<path fill="none" stroke="#9a32cd" stroke-dasharray="5,2" d="M1730.4,-122.11C1723.84,-123.11 1717.3,-124.09 1711,-125 1553.24,-147.91 1362.8,-172.07 1298.19,-180.17"/>
<polygon fill="#9a32cd" stroke="#9a32cd" points="1731.31,-125.51 1740.67,-120.53 1730.25,-118.59 1731.31,-125.51"/>
<text text-anchor="middle" x="1541" y="-165" font-family="Helvetica,sans-Serif" font-size="10.00"> xattr_table</text>
</g>
<!-- Node20&#45;&gt;Node3 -->
<g id="edge27" class="edge">
<title>Node20&#45;&gt;Node3</title>
<path fill="none" stroke="#9a32cd" stroke-dasharray="5,2" d="M1731.97,-329.78C1607.7,-308.88 1353.53,-264.1 1319,-242 1299.92,-229.79 1286.34,-206.04 1279.84,-192.69"/>
<polygon fill="#9a32cd" stroke="#9a32cd" points="1731.7,-333.28 1742.14,-331.48 1732.85,-326.38 1731.7,-333.28"/>
<text text-anchor="middle" x="1541" y="-317" font-family="Helvetica,sans-Serif" font-size="10.00"> fragment_table</text>
</g>
<!-- Node21 -->
<g id="node21" class="node">
<title>Node21</title>
<g id="a_node21"><a xlink:href="structSqshCompressionOptionsContext.html" target="_top" xlink:title=" ">
<polygon fill="white" stroke="black" points="820,-80.5 820,-99.5 1054,-99.5 1054,-80.5 820,-80.5"/>
<text text-anchor="middle" x="937" y="-87.5" font-family="Helvetica,sans-Serif" font-size="10.00">SqshCompressionOptionsContext</text>
</a>
</g>
</g>
<!-- Node21&#45;&gt;Node3 -->
<g id="edge32" class="edge">
<title>Node21&#45;&gt;Node3</title>
<path fill="none" stroke="#9a32cd" stroke-dasharray="5,2" d="M990.38,-78.71C1052.51,-68.31 1156.86,-60.59 1230,-106 1254.78,-121.39 1266.74,-156.35 1271.26,-173.35"/>
<polygon fill="#9a32cd" stroke="#9a32cd" points="989.65,-75.28 980.41,-80.46 990.86,-82.18 989.65,-75.28"/>
<text text-anchor="middle" x="1151" y="-109" font-family="Helvetica,sans-Serif" font-size="10.00"> compression_options</text>
</g>
<!-- Node22 -->
<g id="node22" class="node">
<title>Node22</title>
<g id="a_node22"><a xlink:href="structSqshBuffer.html" target="_top" xlink:title=" ">
<polygon fill="white" stroke="black" points="530,-0.5 530,-19.5 622,-19.5 622,-0.5 530,-0.5"/>
<text text-anchor="middle" x="576" y="-7.5" font-family="Helvetica,sans-Serif" font-size="10.00">SqshBuffer</text>
</a>
</g>
</g>
<!-- Node22&#45;&gt;Node2 -->
<g id="edge35" class="edge">
<title>Node22&#45;&gt;Node2</title>
<path fill="none" stroke="#9a32cd" stroke-dasharray="5,2" d="M632.42,-10.23C788.03,-10.88 1230.85,-12.72 1434.8,-13.56"/>
<polygon fill="#9a32cd" stroke="#9a32cd" points="632.17,-6.73 622.16,-10.19 632.14,-13.73 632.17,-6.73"/>
<text text-anchor="middle" x="1151" y="-16" font-family="Helvetica,sans-Serif" font-size="10.00"> buffer</text>
</g>
<!-- Node22&#45;&gt;Node21 -->
<g id="edge33" class="edge">
<title>Node22&#45;&gt;Node21</title>
<path fill="none" stroke="#9a32cd" stroke-dasharray="5,2" d="M630.09,-21.83C701.62,-37.77 827.52,-65.83 893.28,-80.48"/>
<polygon fill="#9a32cd" stroke="#9a32cd" points="630.47,-18.33 619.95,-19.57 628.95,-25.16 630.47,-18.33"/>
<text text-anchor="middle" x="756.5" y="-62" font-family="Helvetica,sans-Serif" font-size="10.00"> buffer</text>
</g>
<!-- Node23 -->
<g id="node23" class="node">
<title>Node23</title>
<g id="a_node23"><a xlink:href="structSqshConfig.html" target="_top" xlink:title="The SqshConfig struct contains all the configuration options for a sqsh session.">
<polygon fill="white" stroke="black" points="891,-118.5 891,-137.5 983,-137.5 983,-118.5 891,-118.5"/>
<text text-anchor="middle" x="937" y="-125.5" font-family="Helvetica,sans-Serif" font-size="10.00">SqshConfig</text>
</a>
</g>
</g>
<!-- Node23&#45;&gt;Node3 -->
<g id="edge34" class="edge">
<title>Node23&#45;&gt;Node3</title>
<path fill="none" stroke="#9a32cd" stroke-dasharray="5,2" d="M993.1,-122.63C1053.39,-118.85 1151.87,-118.91 1230,-149 1243.6,-154.24 1256.38,-165.24 1264.53,-173.32"/>
<polygon fill="#9a32cd" stroke="#9a32cd" points="992.77,-119.14 983.03,-123.32 993.25,-126.13 992.77,-119.14"/>
<text text-anchor="middle" x="1151" y="-152" font-family="Helvetica,sans-Serif" font-size="10.00"> config</text>
</g>
</g>
</svg>
        <g id="navigator" transform="translate(0 0)" fill="#404254">
                <rect fill="#f2f5e9" fill-opacity="0.5" stroke="#606060" stroke-width=".5" x="0" y="0" width="60" height="60"/>
                <use id="zoomplus" xlink:href="#zoomPlus" x="17" y="9" onmousedown="handleZoom(evt,'in')"/>
                <use id="zoomminus" xlink:href="#zoomMin" x="42" y="9" onmousedown="handleZoom(evt,'out')"/>
                <use id="reset" xlink:href="#resetDef" x="30" y="36" onmousedown="handleReset()"/>
                <g id="arrowUp" xlink:href="#dirArrow" transform="translate(30 24)" onmousedown="handlePan(0,-1)">
                  <use xlink:href="#rim" fill="#404040">
                        <set attributeName="fill" to="#808080" begin="arrowUp.mouseover" end="arrowUp.mouseout"/>
                  </use>
                  <path fill="none" stroke="white" stroke-width="1.5" d="M0,-3.0v7 M-2.5,-0.5L0,-3.0L2.5,-0.5"/>
                </g>
                <g id="arrowRight" xlink:href="#dirArrow" transform="rotate(90) translate(36 -43)" onmousedown="handlePan(1,0)">
                  <use xlink:href="#rim" fill="#404040">
                        <set attributeName="fill" to="#808080" begin="arrowRight.mouseover" end="arrowRight.mouseout"/>
                  </use>
                  <path fill="none" stroke="white" stroke-width="1.5" d="M0,-3.0v7 M-2.5,-0.5L0,-3.0L2.5,-0.5"/>
                </g>
                <g id="arrowDown" xlink:href="#dirArrow" transform="rotate(180) translate(-30 -48)" onmousedown="handlePan(0,1)">
                  <use xlink:href="#rim" fill="#404040">
                        <set attributeName="fill" to="#808080" begin="arrowDown.mouseover" end="arrowDown.mouseout"/>
                  </use>
                  <path fill="none" stroke="white" stroke-width="1.5" d="M0,-3.0v7 M-2.5,-0.5L0,-3.0L2.5,-0.5"/>
                </g>
                <g id="arrowLeft" xlink:href="#dirArrow" transform="rotate(270) translate(-36 17)" onmousedown="handlePan(-1,0)">
                  <use xlink:href="#rim" fill="#404040">
                        <set attributeName="fill" to="#808080" begin="arrowLeft.mouseover" end="arrowLeft.mouseout"/>
                  </use>
                  <path fill="none" stroke="white" stroke-width="1.5" d="M0,-3.0v7 M-2.5,-0.5L0,-3.0L2.5,-0.5"/>
                </g>
        </g>
        <svg viewBox="0 0 15 15" width="100%" height="30px" preserveAspectRatio="xMaxYMin meet">
         <g id="arrow_out" transform="scale(0.3 0.3)">
          <a xlink:href="structSqshXattrIterator__coll__graph_org.svg" target="_base">
           <rect id="button" ry="5" rx="5" y="6" x="6" height="38" width="38"
                fill="#f2f5e9" fill-opacity="0.5" stroke="#606060" stroke-width="1.0"/>
           <path id="arrow"
             d="M 11.500037,31.436501 C 11.940474,20.09759 22.043105,11.32322 32.158766,21.979434 L 37.068811,17.246167 C 37.068811,17.246167 37.088388,32 37.088388,32 L 22.160133,31.978069 C 22.160133,31.978069 26.997745,27.140456 26.997745,27.140456 C 18.528582,18.264221 13.291696,25.230495 11.500037,31.436501 z"
             style="fill:#404040;"/>
          </a>
         </g>
        </svg>
</svg>
