<?xml version="1.0" encoding="UTF-8" standalone="no"?>
<!DOCTYPE svg PUBLIC "-//W3C//DTD SVG 1.1//EN"
 "http://www.w3.org/Graphics/SVG/1.1/DTD/svg11.dtd">
<!-- Generated by graphviz version 3.0.0 (20220413.0242)
 -->
<!-- Title: SqshInodeContext Pages: 1 -->
<!--zoomable 479 -->
<svg id="main" version="1.1" xmlns="http://www.w3.org/2000/svg" xmlns:xlink="http://www.w3.org/1999/xlink" xml:space="preserve" onload="init(evt)">
<style type="text/css"><![CDATA[
.edge:hover path { stroke: red; }
.edge:hover polygon { stroke: red; fill: red; }
]]></style>
<script type="text/javascript"><![CDATA[
var edges = document.getElementsByTagName('g');
if (edges && edges.length) {
  for (var i=0;i<edges.length;i++) {
    if (edges[i].id.substr(0,4)=='edge') {
      edges[i].setAttribute('class','edge');
    }
  }
}
]]></script>
        <defs>
                <circle id="rim" cx="0" cy="0" r="7"/>
                <circle id="rim2" cx="0" cy="0" r="3.5"/>
                <g id="zoomPlus">
                        <use xlink:href="#rim" fill="#404040">
                                <set attributeName="fill" to="#808080" begin="zoomplus.mouseover" end="zoomplus.mouseout"/>
                        </use>
                        <path d="M-4,0h8M0,-4v8" fill="none" stroke="white" stroke-width="1.5" pointer-events="none"/>
                </g>
                <g id="zoomMin">
                        <use xlink:href="#rim" fill="#404040">
                                <set attributeName="fill" to="#808080" begin="zoomminus.mouseover" end="zoomminus.mouseout"/>
                        </use>
                        <path d="M-4,0h8" fill="none" stroke="white" stroke-width="1.5" pointer-events="none"/>
                </g>
                <g id="dirArrow">
                        <path fill="none" stroke="white" stroke-width="1.5" d="M0,-3.0v7 M-2.5,-0.5L0,-3.0L2.5,-0.5"/>
                </g>
               <g id="resetDef">
                       <use xlink:href="#rim2" fill="#404040">
                               <set attributeName="fill" to="#808080" begin="reset.mouseover" end="reset.mouseout"/>
                       </use>
               </g>
        </defs>

<script type="text/javascript">
var viewWidth = 1995;
var viewHeight = 479;
var sectionId = 'dynsection-0';
</script>
<script xlink:href="svgpan.js"/>
<svg id="graph" class="graph">
<g id="viewport">
<title>SqshInodeContext</title>
<polygon fill="white" stroke="transparent" points="-4,4 -4,-475 1991,-475 1991,4 -4,4"/>
<!-- Node1 -->
<g id="node1" class="node">
<title>Node1</title>
<g id="a_node1"><a xlink:title="Inode context.">
<polygon fill="#bfbfbf" stroke="black" points="1846.5,-33.5 1846.5,-52.5 1983.5,-52.5 1983.5,-33.5 1846.5,-33.5"/>
<text text-anchor="middle" x="1915" y="-40.5" font-family="Helvetica,sans-Serif" font-size="10.00">SqshInodeContext</text>
</a>
</g>
</g>
<!-- Node2 -->
<g id="node2" class="node">
<title>Node2</title>
<g id="a_node2"><a xlink:href="structSqshMetablockStreamContext.html" target="_top" xlink:title=" ">
<polygon fill="white" stroke="black" points="1519,-0.5 1519,-19.5 1731,-19.5 1731,-0.5 1519,-0.5"/>
<text text-anchor="middle" x="1625" y="-7.5" font-family="Helvetica,sans-Serif" font-size="10.00">SqshMetablockStreamContext</text>
</a>
</g>
</g>
<!-- Node2&#45;&gt;Node1 -->
<g id="edge1" class="edge">
<title>Node2&#45;&gt;Node1</title>
<path fill="none" stroke="#9a32cd" stroke-dasharray="5,2" d="M1731.59,-20.57C1761.78,-23.75 1794.71,-27.36 1825,-31 1831.97,-31.84 1839.23,-32.75 1846.48,-33.69"/>
<polygon fill="#9a32cd" stroke="#9a32cd" points="1731.77,-17.07 1721.46,-19.51 1731.04,-24.03 1731.77,-17.07"/>
<text text-anchor="middle" x="1787" y="-34" font-family="Helvetica,sans-Serif" font-size="10.00"> metablock</text>
</g>
<!-- Node3 -->
<g id="node3" class="node">
<title>Node3</title>
<g id="a_node3"><a xlink:href="structSqsh.html" target="_top" xlink:title=" ">
<polygon fill="white" stroke="black" points="1335,-173.5 1335,-192.5 1382,-192.5 1382,-173.5 1335,-173.5"/>
<text text-anchor="middle" x="1358.5" y="-180.5" font-family="Helvetica,sans-Serif" font-size="10.00">Sqsh</text>
</a>
</g>
</g>
<!-- Node3&#45;&gt;Node1 -->
<g id="edge39" class="edge">
<title>Node3&#45;&gt;Node1</title>
<path fill="none" stroke="#9a32cd" stroke-dasharray="5,2" d="M1377.69,-166.93C1385.09,-161.12 1394.02,-155.02 1403,-151 1552.57,-83.98 1745.67,-57.76 1846.27,-48.14"/>
<polygon fill="#9a32cd" stroke="#9a32cd" points="1375.26,-164.39 1369.77,-173.45 1379.71,-169.79 1375.26,-164.39"/>
<text text-anchor="middle" x="1625" y="-110" font-family="Helvetica,sans-Serif" font-size="10.00"> sqsh</text>
</g>
<!-- Node3&#45;&gt;Node2 -->
<g id="edge2" class="edge">
<title>Node3&#45;&gt;Node2</title>
<path fill="none" stroke="#9a32cd" stroke-dasharray="5,2" d="M1361.85,-163.09C1365.86,-137.93 1376.38,-94.91 1403,-70 1426.44,-48.07 1508.26,-29.93 1565.47,-19.53"/>
<polygon fill="#9a32cd" stroke="#9a32cd" points="1358.34,-162.88 1360.43,-173.27 1365.28,-163.85 1358.34,-162.88"/>
<text text-anchor="middle" x="1452" y="-73" font-family="Helvetica,sans-Serif" font-size="10.00"> sqsh</text>
</g>
<!-- Node21 -->
<g id="node21" class="node">
<title>Node21</title>
<g id="a_node21"><a xlink:href="structSqshTable.html" target="_top" xlink:title=" ">
<polygon fill="white" stroke="black" points="1583,-247.5 1583,-266.5 1667,-266.5 1667,-247.5 1583,-247.5"/>
<text text-anchor="middle" x="1625" y="-254.5" font-family="Helvetica,sans-Serif" font-size="10.00">SqshTable</text>
</a>
</g>
</g>
<!-- Node3&#45;&gt;Node21 -->
<g id="edge23" class="edge">
<title>Node3&#45;&gt;Node21</title>
<path fill="none" stroke="#9a32cd" stroke-dasharray="5,2" d="M1391.84,-190.49C1395.6,-191.34 1399.38,-192.2 1403,-193 1446.48,-202.66 1458.11,-201.96 1501,-214 1535.63,-223.72 1574.69,-237.96 1599.32,-247.35"/>
<polygon fill="#9a32cd" stroke="#9a32cd" points="1392.59,-187.07 1382.06,-188.25 1391.03,-193.9 1392.59,-187.07"/>
<text text-anchor="middle" x="1452" y="-217" font-family="Helvetica,sans-Serif" font-size="10.00"> sqsh</text>
</g>
<!-- Node22 -->
<g id="node22" class="node">
<title>Node22</title>
<g id="a_node22"><a xlink:href="structSqshXattrTable.html" target="_top" xlink:title=" ">
<polygon fill="white" stroke="black" points="1854,-155.5 1854,-174.5 1976,-174.5 1976,-155.5 1854,-155.5"/>
<text text-anchor="middle" x="1915" y="-162.5" font-family="Helvetica,sans-Serif" font-size="10.00">SqshXattrTable</text>
</a>
</g>
</g>
<!-- Node3&#45;&gt;Node22 -->
<g id="edge27" class="edge">
<title>Node3&#45;&gt;Node22</title>
<path fill="none" stroke="#9a32cd" stroke-dasharray="5,2" d="M1392.66,-182.39C1468.98,-180.93 1662.94,-176.81 1825,-170 1834.28,-169.61 1844.09,-169.13 1853.69,-168.62"/>
<polygon fill="#9a32cd" stroke="#9a32cd" points="1392.21,-178.9 1382.27,-182.59 1392.34,-185.9 1392.21,-178.9"/>
<text text-anchor="middle" x="1625" y="-182" font-family="Helvetica,sans-Serif" font-size="10.00"> sqsh</text>
</g>
<!-- Node4 -->
<g id="node4" class="node">
<title>Node4</title>
<g id="a_node4"><a xlink:href="structSqshMapper.html" target="_top" xlink:title=" ">
<polygon fill="white" stroke="black" points="274.5,-342.5 274.5,-361.5 366.5,-361.5 366.5,-342.5 274.5,-342.5"/>
<text text-anchor="middle" x="320.5" y="-349.5" font-family="Helvetica,sans-Serif" font-size="10.00">SqshMapper</text>
</a>
</g>
</g>
<!-- Node4&#45;&gt;Node3 -->
<g id="edge3" class="edge">
<title>Node4&#45;&gt;Node3</title>
<path fill="none" stroke="#9a32cd" stroke-dasharray="5,2" d="M376.79,-349.89C486.4,-344.91 738.58,-329.47 946,-287 1041.72,-267.4 1061.05,-245.01 1156,-222 1225.31,-205.2 1244.27,-208.97 1314,-194 1320.85,-192.53 1328.27,-190.73 1335,-189.02"/>
<polygon fill="#9a32cd" stroke="#9a32cd" points="376.47,-346.4 366.64,-350.34 376.78,-353.39 376.47,-346.4"/>
<text text-anchor="middle" x="870.5" y="-326" font-family="Helvetica,sans-Serif" font-size="10.00"> mapper</text>
<text text-anchor="middle" x="870.5" y="-315" font-family="Helvetica,sans-Serif" font-size="10.00">table_mapper</text>
</g>
<!-- Node12 -->
<g id="node12" class="node">
<title>Node12</title>
<g id="a_node12"><a xlink:href="structSqshMapping.html" target="_top" xlink:title=" ">
<polygon fill="white" stroke="black" points="666.5,-193.5 666.5,-212.5 765.5,-212.5 765.5,-193.5 666.5,-193.5"/>
<text text-anchor="middle" x="716" y="-200.5" font-family="Helvetica,sans-Serif" font-size="10.00">SqshMapping</text>
</a>
</g>
</g>
<!-- Node4&#45;&gt;Node12 -->
<g id="edge12" class="edge">
<title>Node4&#45;&gt;Node12</title>
<path fill="none" stroke="#9a32cd" stroke-dasharray="5,2" d="M336.27,-334.8C351.27,-318.63 376.08,-295.28 403,-284 499.39,-243.63 539.52,-298.66 637,-261 665.02,-250.17 691.78,-226.36 705.49,-212.86"/>
<polygon fill="#9a32cd" stroke="#9a32cd" points="333.43,-332.72 329.36,-342.5 338.64,-337.39 333.43,-332.72"/>
<text text-anchor="middle" x="520" y="-287" font-family="Helvetica,sans-Serif" font-size="10.00"> mapper</text>
</g>
<!-- Node4&#45;&gt;Node21 -->
<g id="edge24" class="edge">
<title>Node4&#45;&gt;Node21</title>
<path fill="none" stroke="#9a32cd" stroke-dasharray="5,2" d="M376.6,-359.55C528.06,-378.73 962.79,-423.05 1314,-354 1423.28,-332.51 1548.45,-286.45 1599.95,-266.51"/>
<polygon fill="#9a32cd" stroke="#9a32cd" points="376.97,-356.07 366.61,-358.27 376.08,-363.02 376.97,-356.07"/>
<text text-anchor="middle" x="1051" y="-392" font-family="Helvetica,sans-Serif" font-size="10.00"> mapper</text>
</g>
<!-- Node23 -->
<g id="node23" class="node">
<title>Node23</title>
<g id="a_node23"><a xlink:href="structSqshFragmentTable.html" target="_top" xlink:title=" ">
<polygon fill="white" stroke="black" points="1843,-359.5 1843,-378.5 1987,-378.5 1987,-359.5 1843,-359.5"/>
<text text-anchor="middle" x="1915" y="-366.5" font-family="Helvetica,sans-Serif" font-size="10.00">SqshFragmentTable</text>
</a>
</g>
</g>
<!-- Node4&#45;&gt;Node23 -->
<g id="edge33" class="edge">
<title>Node4&#45;&gt;Node23</title>
<path fill="none" stroke="#9a32cd" stroke-dasharray="5,2" d="M350.57,-365.77C414.77,-394.87 574.17,-460 715,-460 715,-460 715,-460 1626,-460 1733.23,-460 1852.92,-401.93 1896.74,-378.57"/>
<polygon fill="#9a32cd" stroke="#9a32cd" points="352,-362.57 341.45,-361.58 349.08,-368.94 352,-362.57"/>
<text text-anchor="middle" x="1235" y="-463" font-family="Helvetica,sans-Serif" font-size="10.00"> mapper</text>
</g>
<!-- Node5 -->
<g id="node5" class="node">
<title>Node5</title>
<g id="a_node5"><a xlink:href="structSqshMemoryMapperImpl.html" target="_top" xlink:title=" ">
<polygon fill="white" stroke="black" points="0,-361.5 0,-380.5 167,-380.5 167,-361.5 0,-361.5"/>
<text text-anchor="middle" x="83.5" y="-368.5" font-family="Helvetica,sans-Serif" font-size="10.00">SqshMemoryMapperImpl</text>
</a>
</g>
</g>
<!-- Node5&#45;&gt;Node4 -->
<g id="edge4" class="edge">
<title>Node5&#45;&gt;Node4</title>
<path fill="none" stroke="#9a32cd" stroke-dasharray="5,2" d="M177.29,-363.5C210.71,-360.8 246.93,-357.87 274.45,-355.64"/>
<polygon fill="#9a32cd" stroke="#9a32cd" points="176.71,-360.03 167.02,-364.33 177.27,-367.01 176.71,-360.03"/>
<text text-anchor="middle" x="211.5" y="-365" font-family="Helvetica,sans-Serif" font-size="10.00"> impl</text>
</g>
<!-- Node6 -->
<g id="node6" class="node">
<title>Node6</title>
<g id="a_node6"><a xlink:href="structSqshMmapFullMapper.html" target="_top" xlink:title=" ">
<polygon fill="white" stroke="black" points="7.5,-323.5 7.5,-342.5 159.5,-342.5 159.5,-323.5 7.5,-323.5"/>
<text text-anchor="middle" x="83.5" y="-330.5" font-family="Helvetica,sans-Serif" font-size="10.00">SqshMmapFullMapper</text>
</a>
</g>
</g>
<!-- Node6&#45;&gt;Node4 -->
<g id="edge5" class="edge">
<title>Node6&#45;&gt;Node4</title>
<path fill="none" stroke="#9a32cd" stroke-dasharray="5,2" d="M169.6,-337.86C191.88,-339.32 215.85,-341.06 238,-343 249.77,-344.03 262.48,-345.34 274.27,-346.64"/>
<polygon fill="#9a32cd" stroke="#9a32cd" points="169.71,-334.36 159.5,-337.21 169.26,-341.35 169.71,-334.36"/>
<text text-anchor="middle" x="211.5" y="-346" font-family="Helvetica,sans-Serif" font-size="10.00"> mc</text>
</g>
<!-- Node7 -->
<g id="node7" class="node">
<title>Node7</title>
<g id="a_node7"><a xlink:href="structSqshMmapMapper.html" target="_top" xlink:title=" ">
<polygon fill="white" stroke="black" points="22.5,-285.5 22.5,-304.5 144.5,-304.5 144.5,-285.5 22.5,-285.5"/>
<text text-anchor="middle" x="83.5" y="-292.5" font-family="Helvetica,sans-Serif" font-size="10.00">SqshMmapMapper</text>
</a>
</g>
</g>
<!-- Node7&#45;&gt;Node4 -->
<g id="edge6" class="edge">
<title>Node7&#45;&gt;Node4</title>
<path fill="none" stroke="#9a32cd" stroke-dasharray="5,2" d="M154.62,-306.05C180.96,-310.78 211.03,-316.86 238,-324 257.38,-329.13 278.8,-336.56 294.82,-342.48"/>
<polygon fill="#9a32cd" stroke="#9a32cd" points="155.18,-302.6 144.73,-304.31 153.97,-309.49 155.18,-302.6"/>
<text text-anchor="middle" x="211.5" y="-327" font-family="Helvetica,sans-Serif" font-size="10.00"> mm</text>
</g>
<!-- Node8 -->
<g id="node8" class="node">
<title>Node8</title>
<g id="a_node8"><a xlink:href="structSqshStaticMapper.html" target="_top" xlink:title=" ">
<polygon fill="white" stroke="black" points="15,-247.5 15,-266.5 152,-266.5 152,-247.5 15,-247.5"/>
<text text-anchor="middle" x="83.5" y="-254.5" font-family="Helvetica,sans-Serif" font-size="10.00">SqshStaticMapper</text>
</a>
</g>
</g>
<!-- Node8&#45;&gt;Node4 -->
<g id="edge7" class="edge">
<title>Node8&#45;&gt;Node4</title>
<path fill="none" stroke="#9a32cd" stroke-dasharray="5,2" d="M151.28,-268.74C178.93,-275.03 210.82,-284.19 238,-297 264.71,-309.59 292.54,-330.28 307.78,-342.38"/>
<polygon fill="#9a32cd" stroke="#9a32cd" points="151.82,-265.27 141.3,-266.55 150.32,-272.11 151.82,-265.27"/>
<text text-anchor="middle" x="211.5" y="-300" font-family="Helvetica,sans-Serif" font-size="10.00"> sm</text>
</g>
<!-- Node9 -->
<g id="node9" class="node">
<title>Node9</title>
<g id="a_node9"><a xlink:href="structSqshCanaryMapper.html" target="_top" xlink:title=" ">
<polygon fill="white" stroke="black" points="15,-437.5 15,-456.5 152,-456.5 152,-437.5 15,-437.5"/>
<text text-anchor="middle" x="83.5" y="-444.5" font-family="Helvetica,sans-Serif" font-size="10.00">SqshCanaryMapper</text>
</a>
</g>
</g>
<!-- Node9&#45;&gt;Node4 -->
<g id="edge8" class="edge">
<title>Node9&#45;&gt;Node4</title>
<path fill="none" stroke="#9a32cd" stroke-dasharray="5,2" d="M139.89,-435.15C148.99,-432.94 158.29,-430.53 167,-428 199.13,-418.68 207.86,-417.52 238,-403 263.26,-390.83 290.47,-372.67 306.19,-361.62"/>
<polygon fill="#9a32cd" stroke="#9a32cd" points="139.05,-431.75 130.12,-437.45 140.66,-438.56 139.05,-431.75"/>
<text text-anchor="middle" x="211.5" y="-425" font-family="Helvetica,sans-Serif" font-size="10.00"> cn</text>
</g>
<!-- Node10 -->
<g id="node10" class="node">
<title>Node10</title>
<g id="a_node10"><a xlink:href="structSqshCurlMapper.html" target="_top" xlink:title=" ">
<polygon fill="white" stroke="black" points="22.5,-399.5 22.5,-418.5 144.5,-418.5 144.5,-399.5 22.5,-399.5"/>
<text text-anchor="middle" x="83.5" y="-406.5" font-family="Helvetica,sans-Serif" font-size="10.00">SqshCurlMapper</text>
</a>
</g>
</g>
<!-- Node10&#45;&gt;Node4 -->
<g id="edge9" class="edge">
<title>Node10&#45;&gt;Node4</title>
<path fill="none" stroke="#9a32cd" stroke-dasharray="5,2" d="M146.38,-397.45C174.48,-391.86 208.06,-384.7 238,-377 255.63,-372.47 275.13,-366.52 290.64,-361.56"/>
<polygon fill="#9a32cd" stroke="#9a32cd" points="145.43,-394.07 136.29,-399.44 146.78,-400.94 145.43,-394.07"/>
<text text-anchor="middle" x="211.5" y="-391" font-family="Helvetica,sans-Serif" font-size="10.00"> cl</text>
</g>
<!-- Node11 -->
<g id="node11" class="node">
<title>Node11</title>
<g id="a_node11"><a xlink:href="structSqshCompression.html" target="_top" xlink:title=" ">
<polygon fill="white" stroke="black" points="986.5,-301.5 986.5,-320.5 1115.5,-320.5 1115.5,-301.5 986.5,-301.5"/>
<text text-anchor="middle" x="1051" y="-308.5" font-family="Helvetica,sans-Serif" font-size="10.00">SqshCompression</text>
</a>
</g>
</g>
<!-- Node11&#45;&gt;Node3 -->
<g id="edge10" class="edge">
<title>Node11&#45;&gt;Node3</title>
<path fill="none" stroke="#9a32cd" stroke-dasharray="5,2" d="M1070.82,-294.74C1090.62,-278.58 1123.38,-254.47 1156,-242 1222.28,-216.66 1249.15,-247.8 1314,-219 1327.8,-212.87 1340.74,-201.09 1348.86,-192.67"/>
<polygon fill="#9a32cd" stroke="#9a32cd" points="1068.36,-292.23 1062.92,-301.32 1072.84,-297.61 1068.36,-292.23"/>
<text text-anchor="middle" x="1235" y="-256" font-family="Helvetica,sans-Serif" font-size="10.00"> data_compression</text>
<text text-anchor="middle" x="1235" y="-245" font-family="Helvetica,sans-Serif" font-size="10.00">metablock_compression</text>
</g>
<!-- Node11&#45;&gt;Node23 -->
<g id="edge34" class="edge">
<title>Node11&#45;&gt;Node23</title>
<path fill="none" stroke="#9a32cd" stroke-dasharray="5,2" d="M1102.51,-322.72C1119.42,-326.24 1138.45,-329.76 1156,-332 1407.09,-364.1 1708.23,-368.86 1842.87,-369.23"/>
<polygon fill="#9a32cd" stroke="#9a32cd" points="1102.78,-319.2 1092.27,-320.54 1101.33,-326.05 1102.78,-319.2"/>
<text text-anchor="middle" x="1452" y="-363" font-family="Helvetica,sans-Serif" font-size="10.00"> compression</text>
</g>
<!-- Node12&#45;&gt;Node3 -->
<g id="edge11" class="edge">
<title>Node12&#45;&gt;Node3</title>
<path fill="none" stroke="#9a32cd" stroke-dasharray="5,2" d="M775.92,-201.16C912.35,-196.9 1245.14,-186.51 1334.89,-183.71"/>
<polygon fill="#9a32cd" stroke="#9a32cd" points="775.55,-197.67 765.67,-201.48 775.77,-204.67 775.55,-197.67"/>
<text text-anchor="middle" x="1051" y="-197" font-family="Helvetica,sans-Serif" font-size="10.00"> table_map</text>
</g>
<!-- Node19 -->
<g id="node19" class="node">
<title>Node19</title>
<g id="a_node19"><a xlink:href="structSqshSuperblockContext.html" target="_top" xlink:title=" ">
<polygon fill="white" stroke="black" points="964,-340.5 964,-359.5 1138,-359.5 1138,-340.5 964,-340.5"/>
<text text-anchor="middle" x="1051" y="-347.5" font-family="Helvetica,sans-Serif" font-size="10.00">SqshSuperblockContext</text>
</a>
</g>
</g>
<!-- Node12&#45;&gt;Node19 -->
<g id="edge21" class="edge">
<title>Node12&#45;&gt;Node19</title>
<path fill="none" stroke="#9a32cd" stroke-dasharray="5,2" d="M736.61,-218.89C751.68,-230.25 773.49,-244.89 795,-253 858.52,-276.95 894.08,-232.26 946,-276 965.35,-292.3 945.3,-312.96 964,-330 968.65,-334.23 974.01,-337.62 979.74,-340.33"/>
<polygon fill="#9a32cd" stroke="#9a32cd" points="738.62,-216.02 728.58,-212.67 734.34,-221.56 738.62,-216.02"/>
<text text-anchor="middle" x="870.5" y="-279" font-family="Helvetica,sans-Serif" font-size="10.00"> mapping</text>
</g>
<!-- Node12&#45;&gt;Node21 -->
<g id="edge25" class="edge">
<title>Node12&#45;&gt;Node21</title>
<path fill="none" stroke="#9a32cd" stroke-dasharray="5,2" d="M775.64,-213.16C859.61,-227.25 1019.11,-252.31 1156,-264 1265.44,-273.35 1293.18,-270.22 1403,-272 1446.55,-272.71 1457.52,-274.64 1501,-272 1528.38,-270.34 1558.99,-266.61 1582.83,-263.29"/>
<polygon fill="#9a32cd" stroke="#9a32cd" points="775.98,-209.67 765.53,-211.46 774.81,-216.57 775.98,-209.67"/>
<text text-anchor="middle" x="1235" y="-274" font-family="Helvetica,sans-Serif" font-size="10.00"> lookup_table</text>
</g>
<!-- Node12&#45;&gt;Node22 -->
<g id="edge28" class="edge">
<title>Node12&#45;&gt;Node22</title>
<path fill="none" stroke="#9a32cd" stroke-dasharray="5,2" d="M749.5,-189.57C796.05,-171.13 884.84,-138.9 964,-127 1112.19,-104.72 1280.3,-95.23 1825,-150 1837.94,-151.3 1851.85,-153.34 1864.73,-155.49"/>
<polygon fill="#9a32cd" stroke="#9a32cd" points="747.94,-186.42 739.96,-193.39 750.54,-192.92 747.94,-186.42"/>
<text text-anchor="middle" x="1358.5" y="-117" font-family="Helvetica,sans-Serif" font-size="10.00"> header</text>
</g>
<!-- Node13 -->
<g id="node13" class="node">
<title>Node13</title>
<g id="a_node13"><a xlink:href="structSqshMmapFullMap.html" target="_top" xlink:title=" ">
<polygon fill="white" stroke="black" points="256,-89.5 256,-108.5 385,-108.5 385,-89.5 256,-89.5"/>
<text text-anchor="middle" x="320.5" y="-96.5" font-family="Helvetica,sans-Serif" font-size="10.00">SqshMmapFullMap</text>
</a>
</g>
</g>
<!-- Node13&#45;&gt;Node12 -->
<g id="edge13" class="edge">
<title>Node13&#45;&gt;Node12</title>
<path fill="none" stroke="#9a32cd" stroke-dasharray="5,2" d="M394.16,-88.47C460.69,-82.19 560.18,-81.44 637,-118 672.08,-134.7 698.79,-174.9 709.66,-193.4"/>
<polygon fill="#9a32cd" stroke="#9a32cd" points="393.78,-85 384.18,-89.48 394.49,-91.96 393.78,-85"/>
<text text-anchor="middle" x="520" y="-121" font-family="Helvetica,sans-Serif" font-size="10.00"> mc</text>
</g>
<!-- Node14 -->
<g id="node14" class="node">
<title>Node14</title>
<g id="a_node14"><a xlink:href="structSqshMmapMap.html" target="_top" xlink:title=" ">
<polygon fill="white" stroke="black" points="271,-241.5 271,-260.5 370,-260.5 370,-241.5 271,-241.5"/>
<text text-anchor="middle" x="320.5" y="-248.5" font-family="Helvetica,sans-Serif" font-size="10.00">SqshMmapMap</text>
</a>
</g>
</g>
<!-- Node14&#45;&gt;Node12 -->
<g id="edge14" class="edge">
<title>Node14&#45;&gt;Node12</title>
<path fill="none" stroke="#9a32cd" stroke-dasharray="5,2" d="M380.51,-249.53C444.22,-247.15 548.49,-240.97 637,-225 653.48,-222.03 671.49,-217.06 686.05,-212.6"/>
<polygon fill="#9a32cd" stroke="#9a32cd" points="380.12,-246.04 370.25,-249.89 380.37,-253.03 380.12,-246.04"/>
<text text-anchor="middle" x="520" y="-251" font-family="Helvetica,sans-Serif" font-size="10.00"> mm</text>
</g>
<!-- Node15 -->
<g id="node15" class="node">
<title>Node15</title>
<g id="a_node15"><a xlink:href="structSqshStaticMap.html" target="_top" xlink:title=" ">
<polygon fill="white" stroke="black" points="263.5,-203.5 263.5,-222.5 377.5,-222.5 377.5,-203.5 263.5,-203.5"/>
<text text-anchor="middle" x="320.5" y="-210.5" font-family="Helvetica,sans-Serif" font-size="10.00">SqshStaticMap</text>
</a>
</g>
</g>
<!-- Node15&#45;&gt;Node12 -->
<g id="edge15" class="edge">
<title>Node15&#45;&gt;Node12</title>
<path fill="none" stroke="#9a32cd" stroke-dasharray="5,2" d="M388.19,-211.31C467.08,-209.3 596.51,-206.01 666.47,-204.23"/>
<polygon fill="#9a32cd" stroke="#9a32cd" points="387.79,-207.81 377.88,-211.57 387.96,-214.81 387.79,-207.81"/>
<text text-anchor="middle" x="520" y="-213" font-family="Helvetica,sans-Serif" font-size="10.00"> sm</text>
</g>
<!-- Node16 -->
<g id="node16" class="node">
<title>Node16</title>
<g id="a_node16"><a xlink:href="structSqshCanaryMap.html" target="_top" xlink:title=" ">
<polygon fill="white" stroke="black" points="263.5,-165.5 263.5,-184.5 377.5,-184.5 377.5,-165.5 263.5,-165.5"/>
<text text-anchor="middle" x="320.5" y="-172.5" font-family="Helvetica,sans-Serif" font-size="10.00">SqshCanaryMap</text>
</a>
</g>
</g>
<!-- Node16&#45;&gt;Node12 -->
<g id="edge16" class="edge">
<title>Node16&#45;&gt;Node12</title>
<path fill="none" stroke="#9a32cd" stroke-dasharray="5,2" d="M387.85,-175.89C451.81,-177.28 551.26,-180.85 637,-190 646.56,-191.02 656.72,-192.45 666.44,-194"/>
<polygon fill="#9a32cd" stroke="#9a32cd" points="387.57,-172.38 377.5,-175.68 387.43,-179.38 387.57,-172.38"/>
<text text-anchor="middle" x="520" y="-193" font-family="Helvetica,sans-Serif" font-size="10.00"> cn</text>
</g>
<!-- Node17 -->
<g id="node17" class="node">
<title>Node17</title>
<g id="a_node17"><a xlink:href="structSqshCurlMap.html" target="_top" xlink:title=" ">
<polygon fill="white" stroke="black" points="271,-127.5 271,-146.5 370,-146.5 370,-127.5 271,-127.5"/>
<text text-anchor="middle" x="320.5" y="-134.5" font-family="Helvetica,sans-Serif" font-size="10.00">SqshCurlMap</text>
</a>
</g>
</g>
<!-- Node17&#45;&gt;Node12 -->
<g id="edge17" class="edge">
<title>Node17&#45;&gt;Node12</title>
<path fill="none" stroke="#9a32cd" stroke-dasharray="5,2" d="M380.54,-134.27C444.93,-132.94 550.36,-135.62 637,-161 661.21,-168.09 686.41,-183.33 701.4,-193.37"/>
<polygon fill="#9a32cd" stroke="#9a32cd" points="380.09,-130.78 370.18,-134.52 380.27,-137.78 380.09,-130.78"/>
<text text-anchor="middle" x="520" y="-164" font-family="Helvetica,sans-Serif" font-size="10.00"> cl</text>
</g>
<!-- Node18 -->
<g id="node18" class="node">
<title>Node18</title>
<g id="a_node18"><a xlink:href="structSqshBuffer.html" target="_top" xlink:title="The SqshBuffer struct is a buffer for arbitrary data.">
<polygon fill="white" stroke="black" points="37.5,-51.5 37.5,-70.5 129.5,-70.5 129.5,-51.5 37.5,-51.5"/>
<text text-anchor="middle" x="83.5" y="-58.5" font-family="Helvetica,sans-Serif" font-size="10.00">SqshBuffer</text>
</a>
</g>
</g>
<!-- Node18&#45;&gt;Node2 -->
<g id="edge38" class="edge">
<title>Node18&#45;&gt;Node2</title>
<path fill="none" stroke="#9a32cd" stroke-dasharray="5,2" d="M120.61,-48.13C166.3,-33.02 247.7,-10 319.5,-10 319.5,-10 319.5,-10 1359.5,-10 1411.96,-10 1470.28,-10 1518.78,-10"/>
<polygon fill="#9a32cd" stroke="#9a32cd" points="119.24,-44.9 110.88,-51.41 121.47,-51.53 119.24,-44.9"/>
<text text-anchor="middle" x="870.5" y="-13" font-family="Helvetica,sans-Serif" font-size="10.00"> buffer</text>
</g>
<!-- Node18&#45;&gt;Node17 -->
<g id="edge18" class="edge">
<title>Node18&#45;&gt;Node17</title>
<path fill="none" stroke="#9a32cd" stroke-dasharray="5,2" d="M122.05,-73.84C156.72,-85.61 209.71,-103.38 256,-118 265.99,-121.15 276.9,-124.46 286.81,-127.42"/>
<polygon fill="#9a32cd" stroke="#9a32cd" points="122.93,-70.45 112.34,-70.54 120.68,-77.07 122.93,-70.45"/>
<text text-anchor="middle" x="211.5" y="-115" font-family="Helvetica,sans-Serif" font-size="10.00"> buffer</text>
</g>
<!-- Node24 -->
<g id="node24" class="node">
<title>Node24</title>
<g id="a_node24"><a xlink:href="structSqshCompressionOptionsContext.html" target="_top" xlink:title="The compression options context is used to store the compression options for a specific compression a...">
<polygon fill="white" stroke="black" points="403,-54.5 403,-73.5 637,-73.5 637,-54.5 403,-54.5"/>
<text text-anchor="middle" x="520" y="-61.5" font-family="Helvetica,sans-Serif" font-size="10.00">SqshCompressionOptionsContext</text>
</a>
</g>
</g>
<!-- Node18&#45;&gt;Node24 -->
<g id="edge36" class="edge">
<title>Node18&#45;&gt;Node24</title>
<path fill="none" stroke="#9a32cd" stroke-dasharray="5,2" d="M139.94,-61.38C205.81,-61.84 317.48,-62.61 402.61,-63.2"/>
<polygon fill="#9a32cd" stroke="#9a32cd" points="139.79,-57.88 129.77,-61.31 139.75,-64.88 139.79,-57.88"/>
<text text-anchor="middle" x="211.5" y="-66" font-family="Helvetica,sans-Serif" font-size="10.00"> buffer</text>
</g>
<!-- Node19&#45;&gt;Node3 -->
<g id="edge19" class="edge">
<title>Node19&#45;&gt;Node3</title>
<path fill="none" stroke="#9a32cd" stroke-dasharray="5,2" d="M1148.39,-340.69C1212.41,-332.7 1289.1,-319.08 1314,-298 1346.75,-270.28 1354.89,-215.19 1356.87,-192.8"/>
<polygon fill="#9a32cd" stroke="#9a32cd" points="1147.73,-337.24 1138.23,-341.92 1148.58,-344.19 1147.73,-337.24"/>
<text text-anchor="middle" x="1235" y="-342" font-family="Helvetica,sans-Serif" font-size="10.00"> superblock</text>
</g>
<!-- Node19&#45;&gt;Node23 -->
<g id="edge31" class="edge">
<title>Node19&#45;&gt;Node23</title>
<path fill="none" stroke="#9a32cd" stroke-dasharray="5,2" d="M1138.42,-360.72C1209.36,-368.95 1312.51,-379.63 1403,-384 1487.92,-388.1 1673.24,-395.1 1825,-383 1837.01,-382.04 1849.84,-380.39 1861.92,-378.56"/>
<polygon fill="#9a32cd" stroke="#9a32cd" points="1138.53,-357.21 1128.19,-359.52 1137.72,-364.16 1138.53,-357.21"/>
<text text-anchor="middle" x="1452" y="-390" font-family="Helvetica,sans-Serif" font-size="10.00"> superblock</text>
</g>
<!-- Node20 -->
<g id="node20" class="node">
<title>Node20</title>
<g id="a_node20"><a xlink:href="structSqshSuperblock.html" target="_top" xlink:title=" ">
<polygon fill="white" stroke="black" points="655,-344.5 655,-363.5 777,-363.5 777,-344.5 655,-344.5"/>
<text text-anchor="middle" x="716" y="-351.5" font-family="Helvetica,sans-Serif" font-size="10.00">SqshSuperblock</text>
</a>
</g>
</g>
<!-- Node20&#45;&gt;Node19 -->
<g id="edge20" class="edge">
<title>Node20&#45;&gt;Node19</title>
<path fill="none" stroke="#9a32cd" stroke-dasharray="5,2" d="M787.34,-353.16C838.83,-352.54 908.98,-351.69 963.83,-351.04"/>
<polygon fill="#9a32cd" stroke="#9a32cd" points="787.26,-349.66 777.3,-353.28 787.35,-356.66 787.26,-349.66"/>
<text text-anchor="middle" x="870.5" y="-356" font-family="Helvetica,sans-Serif" font-size="10.00"> superblock</text>
</g>
<!-- Node21&#45;&gt;Node3 -->
<g id="edge22" class="edge">
<title>Node21&#45;&gt;Node3</title>
<path fill="none" stroke="#9a32cd" stroke-dasharray="5,2" d="M1572.56,-253.85C1516.78,-249.77 1431.86,-241.41 1403,-227 1387.05,-219.04 1373.49,-202.9 1365.93,-192.54"/>
<polygon fill="#9a32cd" stroke="#9a32cd" points="1572.39,-257.35 1582.61,-254.57 1572.88,-250.37 1572.39,-257.35"/>
<text text-anchor="middle" x="1452" y="-261" font-family="Helvetica,sans-Serif" font-size="10.00"> export_table</text>
<text text-anchor="middle" x="1452" y="-250" font-family="Helvetica,sans-Serif" font-size="10.00">id_table</text>
</g>
<!-- Node21&#45;&gt;Node22 -->
<g id="edge29" class="edge">
<title>Node21&#45;&gt;Node22</title>
<path fill="none" stroke="#9a32cd" stroke-dasharray="5,2" d="M1676,-245.02C1716.57,-234.86 1775.01,-219.22 1825,-202 1848.73,-193.82 1875.21,-182.53 1893.07,-174.57"/>
<polygon fill="#9a32cd" stroke="#9a32cd" points="1674.95,-241.67 1666.09,-247.48 1676.64,-248.46 1674.95,-241.67"/>
<text text-anchor="middle" x="1787" y="-228" font-family="Helvetica,sans-Serif" font-size="10.00"> table</text>
</g>
<!-- Node21&#45;&gt;Node23 -->
<g id="edge32" class="edge">
<title>Node21&#45;&gt;Node23</title>
<path fill="none" stroke="#9a32cd" stroke-dasharray="5,2" d="M1677.53,-256.19C1719.22,-257.44 1778.43,-263.64 1825,-286 1861.57,-303.56 1893.35,-341.47 1906.95,-359.32"/>
<polygon fill="#9a32cd" stroke="#9a32cd" points="1677.4,-252.69 1667.33,-255.97 1677.25,-259.68 1677.4,-252.69"/>
<text text-anchor="middle" x="1787" y="-289" font-family="Helvetica,sans-Serif" font-size="10.00"> table</text>
</g>
<!-- Node22&#45;&gt;Node3 -->
<g id="edge26" class="edge">
<title>Node22&#45;&gt;Node3</title>
<path fill="none" stroke="#9a32cd" stroke-dasharray="5,2" d="M1843.4,-159.77C1764.34,-154.71 1632.4,-148.67 1519,-155 1467.2,-157.89 1453.61,-156.59 1403,-168 1396.14,-169.55 1388.86,-171.8 1382.25,-174.1"/>
<polygon fill="#9a32cd" stroke="#9a32cd" points="1843.52,-163.28 1853.73,-160.44 1843.98,-156.3 1843.52,-163.28"/>
<text text-anchor="middle" x="1625" y="-158" font-family="Helvetica,sans-Serif" font-size="10.00"> xattr_table</text>
</g>
<!-- Node23&#45;&gt;Node3 -->
<g id="edge30" class="edge">
<title>Node23&#45;&gt;Node3</title>
<path fill="none" stroke="#9a32cd" stroke-dasharray="5,2" d="M1845.12,-357.75C1709.74,-335.4 1420.53,-286.42 1403,-273 1376.26,-252.54 1365.07,-211.4 1361.21,-192.68"/>
<polygon fill="#9a32cd" stroke="#9a32cd" points="1844.95,-361.27 1855.38,-359.44 1846.09,-354.36 1844.95,-361.27"/>
<text text-anchor="middle" x="1625" y="-340" font-family="Helvetica,sans-Serif" font-size="10.00"> fragment_table</text>
</g>
<!-- Node24&#45;&gt;Node3 -->
<g id="edge35" class="edge">
<title>Node24&#45;&gt;Node3</title>
<path fill="none" stroke="#9a32cd" stroke-dasharray="5,2" d="M597.23,-53.28C744.51,-36.2 1074.74,-15.89 1314,-135 1331.12,-143.52 1344.68,-161.89 1351.87,-173.27"/>
<polygon fill="#9a32cd" stroke="#9a32cd" points="596.46,-49.84 586.94,-54.5 597.29,-56.8 596.46,-49.84"/>
<text text-anchor="middle" x="870.5" y="-48" font-family="Helvetica,sans-Serif" font-size="10.00"> compression_options</text>
</g>
<!-- Node25 -->
<g id="node25" class="node">
<title>Node25</title>
<g id="a_node25"><a xlink:href="structSqshConfig.html" target="_top" xlink:title="The SqshConfig struct contains all the configuration options for a sqsh session.">
<polygon fill="white" stroke="black" points="1005,-136.5 1005,-155.5 1097,-155.5 1097,-136.5 1005,-136.5"/>
<text text-anchor="middle" x="1051" y="-143.5" font-family="Helvetica,sans-Serif" font-size="10.00">SqshConfig</text>
</a>
</g>
</g>
<!-- Node25&#45;&gt;Node3 -->
<g id="edge37" class="edge">
<title>Node25&#45;&gt;Node3</title>
<path fill="none" stroke="#9a32cd" stroke-dasharray="5,2" d="M1107.12,-141.09C1161,-138.01 1244.8,-137.82 1314,-158 1325.04,-161.22 1336.26,-167.76 1344.54,-173.35"/>
<polygon fill="#9a32cd" stroke="#9a32cd" points="1106.85,-137.6 1097.09,-141.72 1107.28,-144.59 1106.85,-137.6"/>
<text text-anchor="middle" x="1235" y="-161" font-family="Helvetica,sans-Serif" font-size="10.00"> config</text>
</g>
</g>
</svg>
        <g id="navigator" transform="translate(0 0)" fill="#404254">
                <rect fill="#f2f5e9" fill-opacity="0.5" stroke="#606060" stroke-width=".5" x="0" y="0" width="60" height="60"/>
                <use id="zoomplus" xlink:href="#zoomPlus" x="17" y="9" onmousedown="handleZoom(evt,'in')"/>
                <use id="zoomminus" xlink:href="#zoomMin" x="42" y="9" onmousedown="handleZoom(evt,'out')"/>
                <use id="reset" xlink:href="#resetDef" x="30" y="36" onmousedown="handleReset()"/>
                <g id="arrowUp" xlink:href="#dirArrow" transform="translate(30 24)" onmousedown="handlePan(0,-1)">
                  <use xlink:href="#rim" fill="#404040">
                        <set attributeName="fill" to="#808080" begin="arrowUp.mouseover" end="arrowUp.mouseout"/>
                  </use>
                  <path fill="none" stroke="white" stroke-width="1.5" d="M0,-3.0v7 M-2.5,-0.5L0,-3.0L2.5,-0.5"/>
                </g>
                <g id="arrowRight" xlink:href="#dirArrow" transform="rotate(90) translate(36 -43)" onmousedown="handlePan(1,0)">
                  <use xlink:href="#rim" fill="#404040">
                        <set attributeName="fill" to="#808080" begin="arrowRight.mouseover" end="arrowRight.mouseout"/>
                  </use>
                  <path fill="none" stroke="white" stroke-width="1.5" d="M0,-3.0v7 M-2.5,-0.5L0,-3.0L2.5,-0.5"/>
                </g>
                <g id="arrowDown" xlink:href="#dirArrow" transform="rotate(180) translate(-30 -48)" onmousedown="handlePan(0,1)">
                  <use xlink:href="#rim" fill="#404040">
                        <set attributeName="fill" to="#808080" begin="arrowDown.mouseover" end="arrowDown.mouseout"/>
                  </use>
                  <path fill="none" stroke="white" stroke-width="1.5" d="M0,-3.0v7 M-2.5,-0.5L0,-3.0L2.5,-0.5"/>
                </g>
                <g id="arrowLeft" xlink:href="#dirArrow" transform="rotate(270) translate(-36 17)" onmousedown="handlePan(-1,0)">
                  <use xlink:href="#rim" fill="#404040">
                        <set attributeName="fill" to="#808080" begin="arrowLeft.mouseover" end="arrowLeft.mouseout"/>
                  </use>
                  <path fill="none" stroke="white" stroke-width="1.5" d="M0,-3.0v7 M-2.5,-0.5L0,-3.0L2.5,-0.5"/>
                </g>
        </g>
        <svg viewBox="0 0 15 15" width="100%" height="30px" preserveAspectRatio="xMaxYMin meet">
         <g id="arrow_out" transform="scale(0.3 0.3)">
          <a xlink:href="structSqshInodeContext__coll__graph_org.svg" target="_base">
           <rect id="button" ry="5" rx="5" y="6" x="6" height="38" width="38"
                fill="#f2f5e9" fill-opacity="0.5" stroke="#606060" stroke-width="1.0"/>
           <path id="arrow"
             d="M 11.500037,31.436501 C 11.940474,20.09759 22.043105,11.32322 32.158766,21.979434 L 37.068811,17.246167 C 37.068811,17.246167 37.088388,32 37.088388,32 L 22.160133,31.978069 C 22.160133,31.978069 26.997745,27.140456 26.997745,27.140456 C 18.528582,18.264221 13.291696,25.230495 11.500037,31.436501 z"
             style="fill:#404040;"/>
          </a>
         </g>
        </svg>
</svg>
