<?xml version="1.0" encoding="UTF-8" standalone="no"?>
<!DOCTYPE svg PUBLIC "-//W3C//DTD SVG 1.1//EN"
 "http://www.w3.org/Graphics/SVG/1.1/DTD/svg11.dtd">
<!-- Generated by graphviz version 2.49.3 (20211027.1534)
 -->
<!-- Title: HsqsDirectoryIterator Pages: 1 -->
<!--zoomable 565 -->
<svg id="main" version="1.1" xmlns="http://www.w3.org/2000/svg" xmlns:xlink="http://www.w3.org/1999/xlink" xml:space="preserve" onload="init(evt)">
<style type="text/css"><![CDATA[
.edge:hover path { stroke: red; }
.edge:hover polygon { stroke: red; fill: red; }
]]></style>
<script type="text/javascript"><![CDATA[
var edges = document.getElementsByTagName('g');
if (edges && edges.length) {
  for (var i=0;i<edges.length;i++) {
    if (edges[i].id.substr(0,4)=='edge') {
      edges[i].setAttribute('class','edge');
    }
  }
}
]]></script>
        <defs>
                <circle id="rim" cx="0" cy="0" r="7"/>
                <circle id="rim2" cx="0" cy="0" r="3.5"/>
                <g id="zoomPlus">
                        <use xlink:href="#rim" fill="#404040">
                                <set attributeName="fill" to="#808080" begin="zoomplus.mouseover" end="zoomplus.mouseout"/>
                        </use>
                        <path d="M-4,0h8M0,-4v8" fill="none" stroke="white" stroke-width="1.5" pointer-events="none"/>
                </g>
                <g id="zoomMin">
                        <use xlink:href="#rim" fill="#404040">
                                <set attributeName="fill" to="#808080" begin="zoomminus.mouseover" end="zoomminus.mouseout"/>
                        </use>
                        <path d="M-4,0h8" fill="none" stroke="white" stroke-width="1.5" pointer-events="none"/>
                </g>
                <g id="dirArrow">
                        <path fill="none" stroke="white" stroke-width="1.5" d="M0,-3.0v7 M-2.5,-0.5L0,-3.0L2.5,-0.5"/>
                </g>
               <g id="resetDef">
                       <use xlink:href="#rim2" fill="#404040">
                               <set attributeName="fill" to="#808080" begin="reset.mouseover" end="reset.mouseout"/>
                       </use>
               </g>
        </defs>

<script type="text/javascript">
var viewWidth = 2892;
var viewHeight = 565;
var sectionId = 'dynsection-0';
</script>
<script xlink:href="svgpan.js"/>
<svg id="graph" class="graph">
<g id="viewport">
<title>HsqsDirectoryIterator</title>
<polygon fill="white" stroke="transparent" points="-4,4 -4,-561 2888,-561 2888,4 -4,4"/>
<!-- Node1 -->
<g id="node1" class="node">
<title>Node1</title>
<g id="a_node1"><a xlink:title=" ">
<polygon fill="#bfbfbf" stroke="black" points="2710,-16.5 2710,-35.5 2884,-35.5 2884,-16.5 2710,-16.5"/>
<text text-anchor="middle" x="2797" y="-23.5" font-family="Helvetica,sans-Serif" font-size="10.00">HsqsDirectoryIterator</text>
</a>
</g>
</g>
<!-- Node2 -->
<g id="node2" class="node">
<title>Node2</title>
<g id="a_node2"><a xlink:href="structHsqsInodeContext.html" target="_top" xlink:title=" ">
<polygon fill="white" stroke="black" points="2487.5,-39.5 2487.5,-58.5 2624.5,-58.5 2624.5,-39.5 2487.5,-39.5"/>
<text text-anchor="middle" x="2556" y="-46.5" font-family="Helvetica,sans-Serif" font-size="10.00">HsqsInodeContext</text>
</a>
</g>
</g>
<!-- Node2&#45;&gt;Node1 -->
<g id="edge1" class="edge">
<title>Node2&#45;&gt;Node1</title>
<path fill="none" stroke="#9a32cd" stroke-dasharray="5,2" d="M2634.65,-41.53C2658.68,-39.22 2685.28,-36.66 2709.84,-34.29"/>
<polygon fill="#9a32cd" stroke="#9a32cd" points="2634.15,-38.06 2624.53,-42.5 2634.82,-45.03 2634.15,-38.06"/>
<text text-anchor="middle" x="2669" y="-44" font-family="Helvetica,sans-Serif" font-size="10.00"> inode</text>
</g>
<!-- Node3 -->
<g id="node3" class="node">
<title>Node3</title>
<g id="a_node3"><a xlink:href="structHsqsMetablockStreamContext.html" target="_top" xlink:title=" ">
<polygon fill="white" stroke="black" points="2160,-0.5 2160,-19.5 2372,-19.5 2372,-0.5 2160,-0.5"/>
<text text-anchor="middle" x="2266" y="-7.5" font-family="Helvetica,sans-Serif" font-size="10.00">HsqsMetablockStreamContext</text>
</a>
</g>
</g>
<!-- Node3&#45;&gt;Node1 -->
<g id="edge44" class="edge">
<title>Node3&#45;&gt;Node1</title>
<path fill="none" stroke="#9a32cd" stroke-dasharray="5,2" d="M2382.36,-12.39C2453.23,-13.97 2545.88,-16.27 2628,-19 2654.55,-19.88 2683.45,-21.02 2709.68,-22.13"/>
<polygon fill="#9a32cd" stroke="#9a32cd" points="2382.14,-8.88 2372.06,-12.16 2381.98,-15.88 2382.14,-8.88"/>
<text text-anchor="middle" x="2556" y="-22" font-family="Helvetica,sans-Serif" font-size="10.00"> metablock</text>
</g>
<!-- Node3&#45;&gt;Node2 -->
<g id="edge2" class="edge">
<title>Node3&#45;&gt;Node2</title>
<path fill="none" stroke="#9a32cd" stroke-dasharray="5,2" d="M2347.55,-20.91C2391.55,-26.87 2445.43,-34.16 2487.26,-39.83"/>
<polygon fill="#9a32cd" stroke="#9a32cd" points="2347.83,-17.41 2337.45,-19.54 2346.89,-24.35 2347.83,-17.41"/>
<text text-anchor="middle" x="2428" y="-40" font-family="Helvetica,sans-Serif" font-size="10.00"> metablock</text>
</g>
<!-- Node4 -->
<g id="node4" class="node">
<title>Node4</title>
<g id="a_node4"><a xlink:href="structHsqs.html" target="_top" xlink:title=" ">
<polygon fill="white" stroke="black" points="1976,-219.5 1976,-238.5 2023,-238.5 2023,-219.5 1976,-219.5"/>
<text text-anchor="middle" x="1999.5" y="-226.5" font-family="Helvetica,sans-Serif" font-size="10.00">Hsqs</text>
</a>
</g>
</g>
<!-- Node4&#45;&gt;Node2 -->
<g id="edge43" class="edge">
<title>Node4&#45;&gt;Node2</title>
<path fill="none" stroke="#9a32cd" stroke-dasharray="5,2" d="M2001.95,-209.13C2005.01,-182.88 2014.51,-137.26 2044,-114 2078.21,-87.02 2356.45,-63.45 2487.37,-53.73"/>
<polygon fill="#9a32cd" stroke="#9a32cd" points="1998.44,-209.09 2000.97,-219.37 2005.41,-209.75 1998.44,-209.09"/>
<text text-anchor="middle" x="2266" y="-89" font-family="Helvetica,sans-Serif" font-size="10.00"> hsqs</text>
</g>
<!-- Node4&#45;&gt;Node3 -->
<g id="edge3" class="edge">
<title>Node4&#45;&gt;Node3</title>
<path fill="none" stroke="#9a32cd" stroke-dasharray="5,2" d="M2000.33,-209.03C2001.16,-176.43 2007.65,-111.75 2044,-75 2067.45,-51.3 2154.12,-30.89 2211.7,-19.55"/>
<polygon fill="#9a32cd" stroke="#9a32cd" points="1996.83,-209.09 2000.23,-219.12 2003.82,-209.16 1996.83,-209.09"/>
<text text-anchor="middle" x="2093" y="-78" font-family="Helvetica,sans-Serif" font-size="10.00"> hsqs</text>
</g>
<!-- Node24 -->
<g id="node24" class="node">
<title>Node24</title>
<g id="a_node24"><a xlink:href="structHsqsTable.html" target="_top" xlink:title=" ">
<polygon fill="white" stroke="black" points="2224,-263.5 2224,-282.5 2308,-282.5 2308,-263.5 2224,-263.5"/>
<text text-anchor="middle" x="2266" y="-270.5" font-family="Helvetica,sans-Serif" font-size="10.00">HsqsTable</text>
</a>
</g>
</g>
<!-- Node4&#45;&gt;Node24 -->
<g id="edge29" class="edge">
<title>Node4&#45;&gt;Node24</title>
<path fill="none" stroke="#9a32cd" stroke-dasharray="5,2" d="M2013.37,-246.71C2021.1,-255.81 2031.8,-266.01 2044,-271 2102.77,-295.05 2177.92,-288.84 2223.7,-281.44"/>
<polygon fill="#9a32cd" stroke="#9a32cd" points="2016.09,-244.51 2007.14,-238.85 2010.61,-248.86 2016.09,-244.51"/>
<text text-anchor="middle" x="2093" y="-290" font-family="Helvetica,sans-Serif" font-size="10.00"> hsqs</text>
</g>
<!-- Node25 -->
<g id="node25" class="node">
<title>Node25</title>
<g id="a_node25"><a xlink:href="structHsqsXattrTable.html" target="_top" xlink:title=" ">
<polygon fill="white" stroke="black" points="2495,-191.5 2495,-210.5 2617,-210.5 2617,-191.5 2495,-191.5"/>
<text text-anchor="middle" x="2556" y="-198.5" font-family="Helvetica,sans-Serif" font-size="10.00">HsqsXattrTable</text>
</a>
</g>
</g>
<!-- Node4&#45;&gt;Node25 -->
<g id="edge33" class="edge">
<title>Node4&#45;&gt;Node25</title>
<path fill="none" stroke="#9a32cd" stroke-dasharray="5,2" d="M2033.67,-227.88C2110.01,-225.23 2304,-218.02 2466,-208 2475.28,-207.43 2485.1,-206.74 2494.7,-206.02"/>
<polygon fill="#9a32cd" stroke="#9a32cd" points="2033.15,-224.4 2023.28,-228.24 2033.39,-231.4 2033.15,-224.4"/>
<text text-anchor="middle" x="2266" y="-226" font-family="Helvetica,sans-Serif" font-size="10.00"> hsqs</text>
</g>
<!-- Node26 -->
<g id="node26" class="node">
<title>Node26</title>
<g id="a_node26"><a xlink:href="structHsqsFragmentTable.html" target="_top" xlink:title=" ">
<polygon fill="white" stroke="black" points="2484,-296.5 2484,-315.5 2628,-315.5 2628,-296.5 2484,-296.5"/>
<text text-anchor="middle" x="2556" y="-303.5" font-family="Helvetica,sans-Serif" font-size="10.00">HsqsFragmentTable</text>
</a>
</g>
</g>
<!-- Node4&#45;&gt;Node26 -->
<g id="edge39" class="edge">
<title>Node4&#45;&gt;Node26</title>
<path fill="none" stroke="#9a32cd" stroke-dasharray="5,2" d="M2006.03,-248.3C2012.17,-265.78 2023.97,-290.51 2044,-302 2116.81,-343.79 2361.23,-325.98 2483.74,-313.85"/>
<polygon fill="#9a32cd" stroke="#9a32cd" points="2009.29,-246.99 2002.91,-238.53 2002.62,-249.12 2009.29,-246.99"/>
<text text-anchor="middle" x="2266" y="-331" font-family="Helvetica,sans-Serif" font-size="10.00"> hsqs</text>
</g>
<!-- Node5 -->
<g id="node5" class="node">
<title>Node5</title>
<g id="a_node5"><a xlink:href="structHsqsLruHashmap.html" target="_top" xlink:title=" ">
<polygon fill="white" stroke="black" points="464,-309.5 464,-328.5 586,-328.5 586,-309.5 464,-309.5"/>
<text text-anchor="middle" x="525" y="-316.5" font-family="Helvetica,sans-Serif" font-size="10.00">HsqsLruHashmap</text>
</a>
</g>
</g>
<!-- Node5&#45;&gt;Node4 -->
<g id="edge4" class="edge">
<title>Node5&#45;&gt;Node4</title>
<path fill="none" stroke="#9a32cd" stroke-dasharray="5,2" d="M596.48,-319C653.21,-319 734.98,-319 806.5,-319 806.5,-319 806.5,-319 1753,-319 1842.99,-319 1878.76,-352.81 1955,-305 1979.34,-289.74 1991.45,-255.59 1996.12,-238.76"/>
<polygon fill="#9a32cd" stroke="#9a32cd" points="596.19,-315.5 586.19,-319 596.19,-322.5 596.19,-315.5"/>
<text text-anchor="middle" x="1244" y="-322" font-family="Helvetica,sans-Serif" font-size="10.00"> metablock_cache</text>
</g>
<!-- Node14 -->
<g id="node14" class="node">
<title>Node14</title>
<g id="a_node14"><a xlink:href="structHsqsCurlMapper.html" target="_top" xlink:title=" ">
<polygon fill="white" stroke="black" points="746.5,-499.5 746.5,-518.5 868.5,-518.5 868.5,-499.5 746.5,-499.5"/>
<text text-anchor="middle" x="807.5" y="-506.5" font-family="Helvetica,sans-Serif" font-size="10.00">HsqsCurlMapper</text>
</a>
</g>
</g>
<!-- Node5&#45;&gt;Node14 -->
<g id="edge15" class="edge">
<title>Node5&#45;&gt;Node14</title>
<path fill="none" stroke="#9a32cd" stroke-dasharray="5,2" d="M540.71,-336.44C571.14,-371.34 644.83,-449.85 724,-490 731.6,-493.86 740,-496.94 748.43,-499.4"/>
<polygon fill="#9a32cd" stroke="#9a32cd" points="543.1,-333.86 533.93,-328.56 537.8,-338.42 543.1,-333.86"/>
<text text-anchor="middle" x="683" y="-482" font-family="Helvetica,sans-Serif" font-size="10.00"> cache</text>
</g>
<!-- Node6 -->
<g id="node6" class="node">
<title>Node6</title>
<g id="a_node6"><a xlink:href="structHsqsLruEntry.html" target="_top" xlink:title=" ">
<polygon fill="white" stroke="black" points="204,-303.5 204,-322.5 311,-322.5 311,-303.5 204,-303.5"/>
<text text-anchor="middle" x="257.5" y="-310.5" font-family="Helvetica,sans-Serif" font-size="10.00">HsqsLruEntry</text>
</a>
</g>
</g>
<!-- Node6&#45;&gt;Node5 -->
<g id="edge5" class="edge">
<title>Node6&#45;&gt;Node5</title>
<path fill="none" stroke="#9a32cd" stroke-dasharray="5,2" d="M321.36,-314.42C364.49,-315.4 421.39,-316.68 463.91,-317.64"/>
<polygon fill="#9a32cd" stroke="#9a32cd" points="321.35,-310.92 311.27,-314.19 321.19,-317.92 321.35,-310.92"/>
<text text-anchor="middle" x="359.5" y="-340" font-family="Helvetica,sans-Serif" font-size="10.00"> entries</text>
<text text-anchor="middle" x="359.5" y="-329" font-family="Helvetica,sans-Serif" font-size="10.00">newest</text>
<text text-anchor="middle" x="359.5" y="-318" font-family="Helvetica,sans-Serif" font-size="10.00">oldest</text>
</g>
<!-- Node6&#45;&gt;Node6 -->
<g id="edge7" class="edge">
<title>Node6&#45;&gt;Node6</title>
<path fill="none" stroke="#9a32cd" stroke-dasharray="5,2" d="M238.61,-332.4C239.87,-337.31 246.17,-341 257.5,-341 275.63,-341 280.87,-331.57 273.22,-322.76"/>
<polygon fill="#9a32cd" stroke="#9a32cd" points="241.98,-333.35 241.78,-322.76 235.33,-331.17 241.98,-333.35"/>
<text text-anchor="middle" x="257.5" y="-355" font-family="Helvetica,sans-Serif" font-size="10.00"> newer</text>
<text text-anchor="middle" x="257.5" y="-344" font-family="Helvetica,sans-Serif" font-size="10.00">older</text>
</g>
<!-- Node7 -->
<g id="node7" class="node">
<title>Node7</title>
<g id="a_node7"><a xlink:href="structHsqsRefCount.html" target="_top" xlink:title=" ">
<polygon fill="white" stroke="black" points="0,-275.5 0,-294.5 107,-294.5 107,-275.5 0,-275.5"/>
<text text-anchor="middle" x="53.5" y="-282.5" font-family="Helvetica,sans-Serif" font-size="10.00">HsqsRefCount</text>
</a>
</g>
</g>
<!-- Node7&#45;&gt;Node6 -->
<g id="edge6" class="edge">
<title>Node7&#45;&gt;Node6</title>
<path fill="none" stroke="#9a32cd" stroke-dasharray="5,2" d="M117.07,-293.67C144.9,-297.53 177.31,-302.02 203.87,-305.7"/>
<polygon fill="#9a32cd" stroke="#9a32cd" points="117.43,-290.19 107.05,-292.28 116.47,-297.12 117.43,-290.19"/>
<text text-anchor="middle" x="155.5" y="-306" font-family="Helvetica,sans-Serif" font-size="10.00"> pointer</text>
</g>
<!-- Node20 -->
<g id="node20" class="node">
<title>Node20</title>
<g id="a_node20"><a xlink:href="structHsqsCurlMap.html" target="_top" xlink:title=" ">
<polygon fill="white" stroke="black" points="995,-249.5 995,-268.5 1094,-268.5 1094,-249.5 995,-249.5"/>
<text text-anchor="middle" x="1044.5" y="-256.5" font-family="Helvetica,sans-Serif" font-size="10.00">HsqsCurlMap</text>
</a>
</g>
</g>
<!-- Node7&#45;&gt;Node20 -->
<g id="edge23" class="edge">
<title>Node7&#45;&gt;Node20</title>
<path fill="none" stroke="#9a32cd" stroke-dasharray="5,2" d="M117.25,-277.46C157.07,-273.31 209.74,-269 256.5,-269 256.5,-269 256.5,-269 808.5,-269 873.02,-269 947.41,-265.19 994.92,-262.27"/>
<polygon fill="#9a32cd" stroke="#9a32cd" points="116.72,-274 107.15,-278.54 117.46,-280.96 116.72,-274"/>
<text text-anchor="middle" x="525" y="-272" font-family="Helvetica,sans-Serif" font-size="10.00"> buffer_ref</text>
</g>
<!-- Node8 -->
<g id="node8" class="node">
<title>Node8</title>
<g id="a_node8"><a xlink:href="structHsqsMapper.html" target="_top" xlink:title=" ">
<polygon fill="white" stroke="black" points="998.5,-393.5 998.5,-412.5 1090.5,-412.5 1090.5,-393.5 998.5,-393.5"/>
<text text-anchor="middle" x="1044.5" y="-400.5" font-family="Helvetica,sans-Serif" font-size="10.00">HsqsMapper</text>
</a>
</g>
</g>
<!-- Node8&#45;&gt;Node4 -->
<g id="edge8" class="edge">
<title>Node8&#45;&gt;Node4</title>
<path fill="none" stroke="#9a32cd" stroke-dasharray="5,2" d="M1100.78,-392.72C1109.53,-391.32 1118.5,-390.02 1127,-389 1138.44,-387.63 1945.63,-339.71 1955,-333 1986.67,-310.34 1995.39,-260.06 1997.7,-238.8"/>
<polygon fill="#9a32cd" stroke="#9a32cd" points="1099.94,-389.31 1090.64,-394.4 1101.08,-396.22 1099.94,-389.31"/>
<text text-anchor="middle" x="1571.5" y="-379" font-family="Helvetica,sans-Serif" font-size="10.00"> mapper</text>
<text text-anchor="middle" x="1571.5" y="-368" font-family="Helvetica,sans-Serif" font-size="10.00">table_mapper</text>
</g>
<!-- Node15 -->
<g id="node15" class="node">
<title>Node15</title>
<g id="a_node15"><a xlink:href="structHsqsMapping.html" target="_top" xlink:title=" ">
<polygon fill="white" stroke="black" points="1379,-197.5 1379,-216.5 1478,-216.5 1478,-197.5 1379,-197.5"/>
<text text-anchor="middle" x="1428.5" y="-204.5" font-family="Helvetica,sans-Serif" font-size="10.00">HsqsMapping</text>
</a>
</g>
</g>
<!-- Node8&#45;&gt;Node15 -->
<g id="edge17" class="edge">
<title>Node8&#45;&gt;Node15</title>
<path fill="none" stroke="#9a32cd" stroke-dasharray="5,2" d="M1052.77,-383.79C1064.1,-356.8 1088.73,-308.43 1127,-286 1217.16,-233.16 1264.7,-303.59 1361,-263 1385.76,-252.56 1408.24,-229.57 1419.64,-216.52"/>
<polygon fill="#9a32cd" stroke="#9a32cd" points="1049.43,-382.72 1048.96,-393.3 1055.93,-385.32 1049.43,-382.72"/>
<text text-anchor="middle" x="1244" y="-289" font-family="Helvetica,sans-Serif" font-size="10.00"> mapper</text>
</g>
<!-- Node8&#45;&gt;Node24 -->
<g id="edge30" class="edge">
<title>Node8&#45;&gt;Node24</title>
<path fill="none" stroke="#9a32cd" stroke-dasharray="5,2" d="M1100.84,-403C1175.15,-403 1311.27,-403 1427.5,-403 1427.5,-403 1427.5,-403 2000.5,-403 2080.62,-403 2087.82,-353.76 2160,-319 2187.79,-305.61 2220.42,-291.58 2241.84,-282.58"/>
<polygon fill="#9a32cd" stroke="#9a32cd" points="1100.78,-399.5 1090.78,-403 1100.78,-406.5 1100.78,-399.5"/>
<text text-anchor="middle" x="1752" y="-406" font-family="Helvetica,sans-Serif" font-size="10.00"> mapper</text>
</g>
<!-- Node9 -->
<g id="node9" class="node">
<title>Node9</title>
<g id="a_node9"><a xlink:href="structHsqsMemoryMapperImpl.html" target="_top" xlink:title=" ">
<polygon fill="white" stroke="black" points="724,-461.5 724,-480.5 891,-480.5 891,-461.5 724,-461.5"/>
<text text-anchor="middle" x="807.5" y="-468.5" font-family="Helvetica,sans-Serif" font-size="10.00">HsqsMemoryMapperImpl</text>
</a>
</g>
</g>
<!-- Node9&#45;&gt;Node8 -->
<g id="edge9" class="edge">
<title>Node9&#45;&gt;Node8</title>
<path fill="none" stroke="#9a32cd" stroke-dasharray="5,2" d="M860.8,-459.14C870.83,-456.81 881.25,-454.36 891,-452 922.64,-444.35 930.96,-443.8 962,-434 982.07,-427.66 1004.37,-419.07 1020.56,-412.54"/>
<polygon fill="#9a32cd" stroke="#9a32cd" points="859.89,-455.75 850.94,-461.41 861.47,-462.58 859.89,-455.75"/>
<text text-anchor="middle" x="935.5" y="-450" font-family="Helvetica,sans-Serif" font-size="10.00"> impl</text>
</g>
<!-- Node10 -->
<g id="node10" class="node">
<title>Node10</title>
<g id="a_node10"><a xlink:href="structHsqsMmapFullMapper.html" target="_top" xlink:title=" ">
<polygon fill="white" stroke="black" points="731.5,-423.5 731.5,-442.5 883.5,-442.5 883.5,-423.5 731.5,-423.5"/>
<text text-anchor="middle" x="807.5" y="-430.5" font-family="Helvetica,sans-Serif" font-size="10.00">HsqsMmapFullMapper</text>
</a>
</g>
</g>
<!-- Node10&#45;&gt;Node8 -->
<g id="edge10" class="edge">
<title>Node10&#45;&gt;Node8</title>
<path fill="none" stroke="#9a32cd" stroke-dasharray="5,2" d="M893.55,-422.14C929.03,-417.61 968.79,-412.54 998.45,-408.75"/>
<polygon fill="#9a32cd" stroke="#9a32cd" points="892.65,-418.73 883.18,-423.47 893.54,-425.67 892.65,-418.73"/>
<text text-anchor="middle" x="935.5" y="-422" font-family="Helvetica,sans-Serif" font-size="10.00"> mc</text>
</g>
<!-- Node11 -->
<g id="node11" class="node">
<title>Node11</title>
<g id="a_node11"><a xlink:href="structHsqsMmapMapper.html" target="_top" xlink:title=" ">
<polygon fill="white" stroke="black" points="746.5,-385.5 746.5,-404.5 868.5,-404.5 868.5,-385.5 746.5,-385.5"/>
<text text-anchor="middle" x="807.5" y="-392.5" font-family="Helvetica,sans-Serif" font-size="10.00">HsqsMmapMapper</text>
</a>
</g>
</g>
<!-- Node11&#45;&gt;Node8 -->
<g id="edge11" class="edge">
<title>Node11&#45;&gt;Node8</title>
<path fill="none" stroke="#9a32cd" stroke-dasharray="5,2" d="M878.83,-397.23C904.95,-398.07 934.83,-399.06 962,-400 973.74,-400.41 986.44,-400.87 998.24,-401.3"/>
<polygon fill="#9a32cd" stroke="#9a32cd" points="878.75,-393.72 868.65,-396.9 878.53,-400.72 878.75,-393.72"/>
<text text-anchor="middle" x="935.5" y="-403" font-family="Helvetica,sans-Serif" font-size="10.00"> mm</text>
</g>
<!-- Node12 -->
<g id="node12" class="node">
<title>Node12</title>
<g id="a_node12"><a xlink:href="structHsqsStaticMapper.html" target="_top" xlink:title=" ">
<polygon fill="white" stroke="black" points="739,-347.5 739,-366.5 876,-366.5 876,-347.5 739,-347.5"/>
<text text-anchor="middle" x="807.5" y="-354.5" font-family="Helvetica,sans-Serif" font-size="10.00">HsqsStaticMapper</text>
</a>
</g>
</g>
<!-- Node12&#45;&gt;Node8 -->
<g id="edge12" class="edge">
<title>Node12&#45;&gt;Node8</title>
<path fill="none" stroke="#9a32cd" stroke-dasharray="5,2" d="M881.08,-368.18C906.72,-372.42 935.71,-377.56 962,-383 976.84,-386.07 993.07,-389.95 1007.12,-393.47"/>
<polygon fill="#9a32cd" stroke="#9a32cd" points="881.49,-364.7 871.06,-366.54 880.36,-371.61 881.49,-364.7"/>
<text text-anchor="middle" x="935.5" y="-386" font-family="Helvetica,sans-Serif" font-size="10.00"> sm</text>
</g>
<!-- Node13 -->
<g id="node13" class="node">
<title>Node13</title>
<g id="a_node13"><a xlink:href="structHsqsCanaryMapper.html" target="_top" xlink:title=" ">
<polygon fill="white" stroke="black" points="739,-537.5 739,-556.5 876,-556.5 876,-537.5 739,-537.5"/>
<text text-anchor="middle" x="807.5" y="-544.5" font-family="Helvetica,sans-Serif" font-size="10.00">HsqsCanaryMapper</text>
</a>
</g>
</g>
<!-- Node13&#45;&gt;Node8 -->
<g id="edge13" class="edge">
<title>Node13&#45;&gt;Node8</title>
<path fill="none" stroke="#9a32cd" stroke-dasharray="5,2" d="M879.14,-535.03C906.84,-527.87 937.74,-516.59 962,-499 996.34,-474.1 1025.44,-431.81 1037.52,-412.78"/>
<polygon fill="#9a32cd" stroke="#9a32cd" points="877.98,-531.72 869.09,-537.49 879.64,-538.51 877.98,-531.72"/>
<text text-anchor="middle" x="935.5" y="-527" font-family="Helvetica,sans-Serif" font-size="10.00"> cn</text>
</g>
<!-- Node14&#45;&gt;Node8 -->
<g id="edge14" class="edge">
<title>Node14&#45;&gt;Node8</title>
<path fill="none" stroke="#9a32cd" stroke-dasharray="5,2" d="M865.51,-497.04C874.11,-494.9 882.83,-492.54 891,-490 923.4,-479.94 932.25,-478.3 962,-462 988.81,-447.31 1017.05,-425.14 1032.24,-412.57"/>
<polygon fill="#9a32cd" stroke="#9a32cd" points="864.41,-493.71 855.51,-499.45 866.05,-500.51 864.41,-493.71"/>
<text text-anchor="middle" x="935.5" y="-487" font-family="Helvetica,sans-Serif" font-size="10.00"> cl</text>
</g>
<!-- Node15&#45;&gt;Node4 -->
<g id="edge16" class="edge">
<title>Node15&#45;&gt;Node4</title>
<path fill="none" stroke="#9a32cd" stroke-dasharray="5,2" d="M1488.26,-214.36C1490.87,-214.6 1493.46,-214.81 1496,-215 1680.95,-228.67 1905.09,-229.29 1975.92,-229.11"/>
<polygon fill="#9a32cd" stroke="#9a32cd" points="1488.41,-210.86 1478.12,-213.37 1487.73,-217.83 1488.41,-210.86"/>
<text text-anchor="middle" x="1752" y="-242" font-family="Helvetica,sans-Serif" font-size="10.00"> table_map</text>
<text text-anchor="middle" x="1752" y="-231" font-family="Helvetica,sans-Serif" font-size="10.00">trailing_map</text>
</g>
<!-- Node23 -->
<g id="node23" class="node">
<title>Node23</title>
<g id="a_node23"><a xlink:href="structHsqsSuperblockContext.html" target="_top" xlink:title=" ">
<polygon fill="white" stroke="black" points="1665,-173.5 1665,-192.5 1839,-192.5 1839,-173.5 1665,-173.5"/>
<text text-anchor="middle" x="1752" y="-180.5" font-family="Helvetica,sans-Serif" font-size="10.00">HsqsSuperblockContext</text>
</a>
</g>
</g>
<!-- Node15&#45;&gt;Node23 -->
<g id="edge27" class="edge">
<title>Node15&#45;&gt;Node23</title>
<path fill="none" stroke="#9a32cd" stroke-dasharray="5,2" d="M1488.52,-202.59C1537.88,-198.91 1608.97,-193.6 1664.72,-189.44"/>
<polygon fill="#9a32cd" stroke="#9a32cd" points="1488.04,-199.12 1478.33,-203.35 1488.56,-206.1 1488.04,-199.12"/>
<text text-anchor="middle" x="1571.5" y="-204" font-family="Helvetica,sans-Serif" font-size="10.00"> mapping</text>
</g>
<!-- Node15&#45;&gt;Node24 -->
<g id="edge31" class="edge">
<title>Node15&#45;&gt;Node24</title>
<path fill="none" stroke="#9a32cd" stroke-dasharray="5,2" d="M1459.41,-220.51C1470.68,-225.12 1483.73,-229.88 1496,-233 1733.91,-293.49 1799,-286.64 2044,-302 2087.47,-304.73 2098.74,-307.03 2142,-302 2173.6,-298.33 2208.86,-289.51 2233.5,-282.56"/>
<polygon fill="#9a32cd" stroke="#9a32cd" points="1460.6,-217.22 1450.03,-216.55 1457.88,-223.67 1460.6,-217.22"/>
<text text-anchor="middle" x="1906" y="-299" font-family="Helvetica,sans-Serif" font-size="10.00"> lookup_table</text>
</g>
<!-- Node15&#45;&gt;Node25 -->
<g id="edge34" class="edge">
<title>Node15&#45;&gt;Node25</title>
<path fill="none" stroke="#9a32cd" stroke-dasharray="5,2" d="M1469.45,-194.59C1478.17,-191.99 1487.38,-189.33 1496,-187 1737.83,-121.57 1795.23,-84.54 2044,-55 2087.25,-49.86 2098.45,-54.34 2142,-55 2244.26,-56.56 2275.59,-27.89 2372,-62 2450.61,-89.81 2522.84,-164.86 2546.71,-191.48"/>
<polygon fill="#9a32cd" stroke="#9a32cd" points="1468.42,-191.25 1459.85,-197.48 1470.44,-197.95 1468.42,-191.25"/>
<text text-anchor="middle" x="1999.5" y="-68" font-family="Helvetica,sans-Serif" font-size="10.00"> header</text>
</g>
<!-- Node16 -->
<g id="node16" class="node">
<title>Node16</title>
<g id="a_node16"><a xlink:href="structHsqsMmapFullMap.html" target="_top" xlink:title=" ">
<polygon fill="white" stroke="black" points="980,-173.5 980,-192.5 1109,-192.5 1109,-173.5 980,-173.5"/>
<text text-anchor="middle" x="1044.5" y="-180.5" font-family="Helvetica,sans-Serif" font-size="10.00">HsqsMmapFullMap</text>
</a>
</g>
</g>
<!-- Node16&#45;&gt;Node15 -->
<g id="edge18" class="edge">
<title>Node16&#45;&gt;Node15</title>
<path fill="none" stroke="#9a32cd" stroke-dasharray="5,2" d="M1119.18,-182.28C1183.28,-182.44 1278.56,-184.56 1361,-194 1368.48,-194.86 1376.38,-196.1 1384.01,-197.48"/>
<polygon fill="#9a32cd" stroke="#9a32cd" points="1119.17,-178.78 1109.17,-182.27 1119.17,-185.78 1119.17,-178.78"/>
<text text-anchor="middle" x="1244" y="-197" font-family="Helvetica,sans-Serif" font-size="10.00"> mc</text>
</g>
<!-- Node17 -->
<g id="node17" class="node">
<title>Node17</title>
<g id="a_node17"><a xlink:href="structHsqsMmapMap.html" target="_top" xlink:title=" ">
<polygon fill="white" stroke="black" points="995,-135.5 995,-154.5 1094,-154.5 1094,-135.5 995,-135.5"/>
<text text-anchor="middle" x="1044.5" y="-142.5" font-family="Helvetica,sans-Serif" font-size="10.00">HsqsMmapMap</text>
</a>
</g>
</g>
<!-- Node17&#45;&gt;Node15 -->
<g id="edge19" class="edge">
<title>Node17&#45;&gt;Node15</title>
<path fill="none" stroke="#9a32cd" stroke-dasharray="5,2" d="M1104.49,-141.01C1169.04,-138.49 1274.82,-139.81 1361,-167 1381.81,-173.57 1402.92,-187.84 1415.61,-197.44"/>
<polygon fill="#9a32cd" stroke="#9a32cd" points="1103.94,-137.53 1094.1,-141.47 1104.24,-144.53 1103.94,-137.53"/>
<text text-anchor="middle" x="1244" y="-170" font-family="Helvetica,sans-Serif" font-size="10.00"> mm</text>
</g>
<!-- Node18 -->
<g id="node18" class="node">
<title>Node18</title>
<g id="a_node18"><a xlink:href="structHsqsStaticMap.html" target="_top" xlink:title=" ">
<polygon fill="white" stroke="black" points="987.5,-97.5 987.5,-116.5 1101.5,-116.5 1101.5,-97.5 987.5,-97.5"/>
<text text-anchor="middle" x="1044.5" y="-104.5" font-family="Helvetica,sans-Serif" font-size="10.00">HsqsStaticMap</text>
</a>
</g>
</g>
<!-- Node18&#45;&gt;Node15 -->
<g id="edge20" class="edge">
<title>Node18&#45;&gt;Node15</title>
<path fill="none" stroke="#9a32cd" stroke-dasharray="5,2" d="M1109.07,-96.21C1175.71,-88.08 1281.57,-84.33 1361,-125 1392.49,-141.12 1414.29,-179.54 1423.12,-197.48"/>
<polygon fill="#9a32cd" stroke="#9a32cd" points="1108.6,-92.74 1099.13,-97.49 1109.5,-99.69 1108.6,-92.74"/>
<text text-anchor="middle" x="1244" y="-128" font-family="Helvetica,sans-Serif" font-size="10.00"> sm</text>
</g>
<!-- Node19 -->
<g id="node19" class="node">
<title>Node19</title>
<g id="a_node19"><a xlink:href="structHsqsCanaryMap.html" target="_top" xlink:title=" ">
<polygon fill="white" stroke="black" points="987.5,-211.5 987.5,-230.5 1101.5,-230.5 1101.5,-211.5 987.5,-211.5"/>
<text text-anchor="middle" x="1044.5" y="-218.5" font-family="Helvetica,sans-Serif" font-size="10.00">HsqsCanaryMap</text>
</a>
</g>
</g>
<!-- Node19&#45;&gt;Node15 -->
<g id="edge21" class="edge">
<title>Node19&#45;&gt;Node15</title>
<path fill="none" stroke="#9a32cd" stroke-dasharray="5,2" d="M1111.62,-218.56C1116.83,-218.37 1122,-218.18 1127,-218 1215.82,-214.74 1319.41,-210.95 1378.84,-208.78"/>
<polygon fill="#9a32cd" stroke="#9a32cd" points="1111.48,-215.07 1101.62,-218.93 1111.74,-222.06 1111.48,-215.07"/>
<text text-anchor="middle" x="1244" y="-221" font-family="Helvetica,sans-Serif" font-size="10.00"> cn</text>
</g>
<!-- Node20&#45;&gt;Node15 -->
<g id="edge22" class="edge">
<title>Node20&#45;&gt;Node15</title>
<path fill="none" stroke="#9a32cd" stroke-dasharray="5,2" d="M1104.13,-253.77C1191.93,-245.88 1348.65,-231.6 1361,-229 1375.16,-226.02 1390.53,-221.06 1402.92,-216.6"/>
<polygon fill="#9a32cd" stroke="#9a32cd" points="1103.69,-250.29 1094.04,-254.67 1104.31,-257.26 1103.69,-250.29"/>
<text text-anchor="middle" x="1244" y="-254" font-family="Helvetica,sans-Serif" font-size="10.00"> cl</text>
</g>
<!-- Node21 -->
<g id="node21" class="node">
<title>Node21</title>
<g id="a_node21"><a xlink:href="structHsqsBuffer.html" target="_top" xlink:title=" ">
<polygon fill="white" stroke="black" points="761.5,-59.5 761.5,-78.5 853.5,-78.5 853.5,-59.5 761.5,-59.5"/>
<text text-anchor="middle" x="807.5" y="-66.5" font-family="Helvetica,sans-Serif" font-size="10.00">HsqsBuffer</text>
</a>
</g>
</g>
<!-- Node21&#45;&gt;Node3 -->
<g id="edge42" class="edge">
<title>Node21&#45;&gt;Node3</title>
<path fill="none" stroke="#9a32cd" stroke-dasharray="5,2" d="M841.96,-55.8C887,-39.24 970,-13 1043.5,-13 1043.5,-13 1043.5,-13 2000.5,-13 2052.97,-13 2111.28,-12.4 2159.78,-11.74"/>
<polygon fill="#9a32cd" stroke="#9a32cd" points="840.55,-52.59 832.41,-59.37 843,-59.15 840.55,-52.59"/>
<text text-anchor="middle" x="1571.5" y="-16" font-family="Helvetica,sans-Serif" font-size="10.00"> buffer</text>
</g>
<!-- Node21&#45;&gt;Node20 -->
<g id="edge24" class="edge">
<title>Node21&#45;&gt;Node20</title>
<path fill="none" stroke="#9a32cd" stroke-dasharray="5,2" d="M821.6,-87.05C847.77,-121.82 910.04,-198.32 980,-240 986.43,-243.83 993.68,-246.94 1000.93,-249.45"/>
<polygon fill="#9a32cd" stroke="#9a32cd" points="824.24,-84.73 815.47,-78.78 818.61,-88.9 824.24,-84.73"/>
<text text-anchor="middle" x="935.5" y="-228" font-family="Helvetica,sans-Serif" font-size="10.00"> buffer</text>
</g>
<!-- Node27 -->
<g id="node27" class="node">
<title>Node27</title>
<g id="a_node27"><a xlink:href="structHsqsCompressionOptionsContext.html" target="_top" xlink:title=" ">
<polygon fill="white" stroke="black" points="1127,-62.5 1127,-81.5 1361,-81.5 1361,-62.5 1127,-62.5"/>
<text text-anchor="middle" x="1244" y="-69.5" font-family="Helvetica,sans-Serif" font-size="10.00">HsqsCompressionOptionsContext</text>
</a>
</g>
</g>
<!-- Node21&#45;&gt;Node27 -->
<g id="edge41" class="edge">
<title>Node21&#45;&gt;Node27</title>
<path fill="none" stroke="#9a32cd" stroke-dasharray="5,2" d="M863.94,-69.38C929.81,-69.84 1041.48,-70.61 1126.61,-71.2"/>
<polygon fill="#9a32cd" stroke="#9a32cd" points="863.79,-65.88 853.77,-69.31 863.75,-72.88 863.79,-65.88"/>
<text text-anchor="middle" x="935.5" y="-74" font-family="Helvetica,sans-Serif" font-size="10.00"> buffer</text>
</g>
<!-- Node22 -->
<g id="node22" class="node">
<title>Node22</title>
<g id="a_node22"><a xlink:href="structHsqsCompressionImplementation.html" target="_top" xlink:title=" ">
<polygon fill="white" stroke="black" points="408,-59.5 408,-78.5 642,-78.5 642,-59.5 408,-59.5"/>
<text text-anchor="middle" x="525" y="-66.5" font-family="Helvetica,sans-Serif" font-size="10.00">HsqsCompressionImplementation</text>
</a>
</g>
</g>
<!-- Node22&#45;&gt;Node21 -->
<g id="edge25" class="edge">
<title>Node22&#45;&gt;Node21</title>
<path fill="none" stroke="#9a32cd" stroke-dasharray="5,2" d="M652.51,-69C691.47,-69 731.85,-69 761.48,-69"/>
<polygon fill="#9a32cd" stroke="#9a32cd" points="652.11,-65.5 642.11,-69 652.11,-72.5 652.11,-65.5"/>
<text text-anchor="middle" x="683" y="-72" font-family="Helvetica,sans-Serif" font-size="10.00"> impl</text>
</g>
<!-- Node23&#45;&gt;Node4 -->
<g id="edge26" class="edge">
<title>Node23&#45;&gt;Node4</title>
<path fill="none" stroke="#9a32cd" stroke-dasharray="5,2" d="M1849.56,-184.84C1883.53,-187.62 1921.56,-193.19 1955,-204 1965.77,-207.48 1976.82,-213.87 1985.09,-219.32"/>
<polygon fill="#9a32cd" stroke="#9a32cd" points="1849.39,-181.31 1839.15,-184.06 1848.87,-188.3 1849.39,-181.31"/>
<text text-anchor="middle" x="1906" y="-207" font-family="Helvetica,sans-Serif" font-size="10.00"> superblock</text>
</g>
<!-- Node23&#45;&gt;Node26 -->
<g id="edge37" class="edge">
<title>Node23&#45;&gt;Node26</title>
<path fill="none" stroke="#9a32cd" stroke-dasharray="5,2" d="M1829.3,-172.21C1947.52,-157.98 2181.21,-139.75 2372,-186 2448.06,-204.44 2520.21,-270.9 2545.49,-296.17"/>
<polygon fill="#9a32cd" stroke="#9a32cd" points="1828.76,-168.75 1819.26,-173.45 1829.61,-175.7 1828.76,-168.75"/>
<text text-anchor="middle" x="2093" y="-160" font-family="Helvetica,sans-Serif" font-size="10.00"> superblock</text>
</g>
<!-- Node24&#45;&gt;Node4 -->
<g id="edge28" class="edge">
<title>Node24&#45;&gt;Node4</title>
<path fill="none" stroke="#9a32cd" stroke-dasharray="5,2" d="M2213.98,-262.42C2191.9,-258.01 2165.72,-252.99 2142,-249 2100.16,-241.97 2051.08,-235.41 2023.1,-231.82"/>
<polygon fill="#9a32cd" stroke="#9a32cd" points="2213.32,-265.86 2223.82,-264.41 2214.71,-259 2213.32,-265.86"/>
<text text-anchor="middle" x="2093" y="-263" font-family="Helvetica,sans-Serif" font-size="10.00"> export_table</text>
<text text-anchor="middle" x="2093" y="-252" font-family="Helvetica,sans-Serif" font-size="10.00">id_table</text>
</g>
<!-- Node24&#45;&gt;Node25 -->
<g id="edge35" class="edge">
<title>Node24&#45;&gt;Node25</title>
<path fill="none" stroke="#9a32cd" stroke-dasharray="5,2" d="M2318.28,-266.68C2358.87,-260.97 2416.72,-251.26 2466,-237 2490.34,-229.96 2517.15,-218.59 2534.92,-210.51"/>
<polygon fill="#9a32cd" stroke="#9a32cd" points="2317.78,-263.21 2308.35,-268.04 2318.73,-270.15 2317.78,-263.21"/>
<text text-anchor="middle" x="2428" y="-257" font-family="Helvetica,sans-Serif" font-size="10.00"> table</text>
</g>
<!-- Node24&#45;&gt;Node26 -->
<g id="edge38" class="edge">
<title>Node24&#45;&gt;Node26</title>
<path fill="none" stroke="#9a32cd" stroke-dasharray="5,2" d="M2318.3,-278C2358.51,-282.02 2415.87,-287.98 2466,-294 2472.35,-294.76 2478.94,-295.59 2485.55,-296.44"/>
<polygon fill="#9a32cd" stroke="#9a32cd" points="2318.5,-274.51 2308.2,-277 2317.8,-281.47 2318.5,-274.51"/>
<text text-anchor="middle" x="2428" y="-297" font-family="Helvetica,sans-Serif" font-size="10.00"> table</text>
</g>
<!-- Node25&#45;&gt;Node4 -->
<g id="edge32" class="edge">
<title>Node25&#45;&gt;Node4</title>
<path fill="none" stroke="#9a32cd" stroke-dasharray="5,2" d="M2484.55,-197.2C2450.55,-195.55 2409.17,-193.81 2372,-193 2277.8,-190.94 2254.17,-189.76 2160,-193 2108.35,-194.78 2093.05,-184.72 2044,-201 2032.07,-204.96 2020.18,-212.96 2011.85,-219.4"/>
<polygon fill="#9a32cd" stroke="#9a32cd" points="2484.69,-200.71 2494.85,-197.71 2485.04,-193.72 2484.69,-200.71"/>
<text text-anchor="middle" x="2266" y="-196" font-family="Helvetica,sans-Serif" font-size="10.00"> xattr_table</text>
</g>
<!-- Node26&#45;&gt;Node4 -->
<g id="edge36" class="edge">
<title>Node26&#45;&gt;Node4</title>
<path fill="none" stroke="#9a32cd" stroke-dasharray="5,2" d="M2523.35,-319.43C2437.46,-353.59 2196.2,-433.97 2044,-330 2012.63,-308.57 2003.74,-259.43 2001.34,-238.6"/>
<polygon fill="#9a32cd" stroke="#9a32cd" points="2524.85,-322.6 2532.81,-315.61 2522.23,-316.11 2524.85,-322.6"/>
<text text-anchor="middle" x="2266" y="-384" font-family="Helvetica,sans-Serif" font-size="10.00"> fragment_table</text>
</g>
<!-- Node27&#45;&gt;Node4 -->
<g id="edge40" class="edge">
<title>Node27&#45;&gt;Node4</title>
<path fill="none" stroke="#9a32cd" stroke-dasharray="5,2" d="M1325.51,-82.91C1337.41,-84.58 1349.53,-86.31 1361,-88 1625.37,-126.92 1719.85,-54.08 1955,-181 1971.82,-190.08 1985.49,-208.27 1992.77,-219.46"/>
<polygon fill="#9a32cd" stroke="#9a32cd" points="1325.96,-79.44 1315.57,-81.52 1324.99,-86.37 1325.96,-79.44"/>
<text text-anchor="middle" x="1571.5" y="-104" font-family="Helvetica,sans-Serif" font-size="10.00"> compression_options</text>
</g>
</g>
</svg>
        <g id="navigator" transform="translate(0 0)" fill="#404254">
                <rect fill="#f2f5e9" fill-opacity="0.5" stroke="#606060" stroke-width=".5" x="0" y="0" width="60" height="60"/>
                <use id="zoomplus" xlink:href="#zoomPlus" x="17" y="9" onmousedown="handleZoom(evt,'in')"/>
                <use id="zoomminus" xlink:href="#zoomMin" x="42" y="9" onmousedown="handleZoom(evt,'out')"/>
                <use id="reset" xlink:href="#resetDef" x="30" y="36" onmousedown="handleReset()"/>
                <g id="arrowUp" xlink:href="#dirArrow" transform="translate(30 24)" onmousedown="handlePan(0,-1)">
                  <use xlink:href="#rim" fill="#404040">
                        <set attributeName="fill" to="#808080" begin="arrowUp.mouseover" end="arrowUp.mouseout"/>
                  </use>
                  <path fill="none" stroke="white" stroke-width="1.5" d="M0,-3.0v7 M-2.5,-0.5L0,-3.0L2.5,-0.5"/>
                </g>
                <g id="arrowRight" xlink:href="#dirArrow" transform="rotate(90) translate(36 -43)" onmousedown="handlePan(1,0)">
                  <use xlink:href="#rim" fill="#404040">
                        <set attributeName="fill" to="#808080" begin="arrowRight.mouseover" end="arrowRight.mouseout"/>
                  </use>
                  <path fill="none" stroke="white" stroke-width="1.5" d="M0,-3.0v7 M-2.5,-0.5L0,-3.0L2.5,-0.5"/>
                </g>
                <g id="arrowDown" xlink:href="#dirArrow" transform="rotate(180) translate(-30 -48)" onmousedown="handlePan(0,1)">
                  <use xlink:href="#rim" fill="#404040">
                        <set attributeName="fill" to="#808080" begin="arrowDown.mouseover" end="arrowDown.mouseout"/>
                  </use>
                  <path fill="none" stroke="white" stroke-width="1.5" d="M0,-3.0v7 M-2.5,-0.5L0,-3.0L2.5,-0.5"/>
                </g>
                <g id="arrowLeft" xlink:href="#dirArrow" transform="rotate(270) translate(-36 17)" onmousedown="handlePan(-1,0)">
                  <use xlink:href="#rim" fill="#404040">
                        <set attributeName="fill" to="#808080" begin="arrowLeft.mouseover" end="arrowLeft.mouseout"/>
                  </use>
                  <path fill="none" stroke="white" stroke-width="1.5" d="M0,-3.0v7 M-2.5,-0.5L0,-3.0L2.5,-0.5"/>
                </g>
        </g>
        <svg viewBox="0 0 15 15" width="100%" height="30px" preserveAspectRatio="xMaxYMin meet">
         <g id="arrow_out" transform="scale(0.3 0.3)">
          <a xlink:href="structHsqsDirectoryIterator__coll__graph_org.svg" target="_base">
           <rect id="button" ry="5" rx="5" y="6" x="6" height="38" width="38"
                fill="#f2f5e9" fill-opacity="0.5" stroke="#606060" stroke-width="1.0"/>
           <path id="arrow"
             d="M 11.500037,31.436501 C 11.940474,20.09759 22.043105,11.32322 32.158766,21.979434 L 37.068811,17.246167 C 37.068811,17.246167 37.088388,32 37.088388,32 L 22.160133,31.978069 C 22.160133,31.978069 26.997745,27.140456 26.997745,27.140456 C 18.528582,18.264221 13.291696,25.230495 11.500037,31.436501 z"
             style="fill:#404040;"/>
          </a>
         </g>
        </svg>
</svg>
