<?xml version="1.0" encoding="UTF-8" standalone="no"?>
<!DOCTYPE svg PUBLIC "-//W3C//DTD SVG 1.1//EN"
 "http://www.w3.org/Graphics/SVG/1.1/DTD/svg11.dtd">
<!-- Generated by graphviz version 2.49.3 (20211027.1534)
 -->
<!-- Title: HsqsXattrTable Pages: 1 -->
<!--zoomable 342 -->
<svg id="main" version="1.1" xmlns="http://www.w3.org/2000/svg" xmlns:xlink="http://www.w3.org/1999/xlink" xml:space="preserve" onload="init(evt)">
<style type="text/css"><![CDATA[
.edge:hover path { stroke: red; }
.edge:hover polygon { stroke: red; fill: red; }
]]></style>
<script type="text/javascript"><![CDATA[
var edges = document.getElementsByTagName('g');
if (edges && edges.length) {
  for (var i=0;i<edges.length;i++) {
    if (edges[i].id.substr(0,4)=='edge') {
      edges[i].setAttribute('class','edge');
    }
  }
}
]]></script>
        <defs>
                <circle id="rim" cx="0" cy="0" r="7"/>
                <circle id="rim2" cx="0" cy="0" r="3.5"/>
                <g id="zoomPlus">
                        <use xlink:href="#rim" fill="#404040">
                                <set attributeName="fill" to="#808080" begin="zoomplus.mouseover" end="zoomplus.mouseout"/>
                        </use>
                        <path d="M-4,0h8M0,-4v8" fill="none" stroke="white" stroke-width="1.5" pointer-events="none"/>
                </g>
                <g id="zoomMin">
                        <use xlink:href="#rim" fill="#404040">
                                <set attributeName="fill" to="#808080" begin="zoomminus.mouseover" end="zoomminus.mouseout"/>
                        </use>
                        <path d="M-4,0h8" fill="none" stroke="white" stroke-width="1.5" pointer-events="none"/>
                </g>
                <g id="dirArrow">
                        <path fill="none" stroke="white" stroke-width="1.5" d="M0,-3.0v7 M-2.5,-0.5L0,-3.0L2.5,-0.5"/>
                </g>
               <g id="resetDef">
                       <use xlink:href="#rim2" fill="#404040">
                               <set attributeName="fill" to="#808080" begin="reset.mouseover" end="reset.mouseout"/>
                       </use>
               </g>
        </defs>

<script type="text/javascript">
var viewWidth = 1739;
var viewHeight = 342;
var sectionId = 'dynsection-0';
</script>
<script xlink:href="svgpan.js"/>
<svg id="graph" class="graph">
<g id="viewport">
<title>HsqsXattrTable</title>
<polygon fill="white" stroke="transparent" points="-4,4 -4,-338 1735,-338 1735,4 -4,4"/>
<!-- Node1 -->
<g id="node1" class="node">
<title>Node1</title>
<g id="a_node1"><a xlink:title=" ">
<polygon fill="#bfbfbf" stroke="black" points="846,-123.5 846,-142.5 968,-142.5 968,-123.5 846,-123.5"/>
<text text-anchor="middle" x="907" y="-130.5" font-family="Helvetica,sans-Serif" font-size="10.00">HsqsXattrTable</text>
</a>
</g>
</g>
<!-- Node2 -->
<g id="node2" class="node">
<title>Node2</title>
<g id="a_node2"><a xlink:href="structHsqs.html" target="_top" xlink:title=" ">
<polygon fill="white" stroke="black" points="1211,-124.5 1211,-143.5 1258,-143.5 1258,-124.5 1211,-124.5"/>
<text text-anchor="middle" x="1234.5" y="-131.5" font-family="Helvetica,sans-Serif" font-size="10.00">Hsqs</text>
</a>
</g>
</g>
<!-- Node1&#45;&gt;Node2 -->
<g id="edge20" class="edge">
<title>Node1&#45;&gt;Node2</title>
<path fill="none" stroke="#9a32cd" stroke-dasharray="5,2" d="M978.21,-133.22C1051.82,-133.44 1163.26,-133.78 1210.76,-133.93"/>
<polygon fill="#9a32cd" stroke="#9a32cd" points="978.09,-129.72 968.08,-133.18 978.07,-136.72 978.09,-129.72"/>
<text text-anchor="middle" x="1117.5" y="-137" font-family="Helvetica,sans-Serif" font-size="10.00"> xattr_table</text>
</g>
<!-- Node2&#45;&gt;Node1 -->
<g id="edge1" class="edge">
<title>Node2&#45;&gt;Node1</title>
<path fill="none" stroke="#9a32cd" stroke-dasharray="5,2" d="M1200.77,-122.56C1198.17,-121.93 1195.55,-121.4 1193,-121 1116.06,-108.95 1026.11,-116.23 968.16,-123.64"/>
<polygon fill="#9a32cd" stroke="#9a32cd" points="1200.1,-126 1210.67,-125.31 1201.97,-119.26 1200.1,-126"/>
<text text-anchor="middle" x="1117.5" y="-124" font-family="Helvetica,sans-Serif" font-size="10.00"> hsqs</text>
</g>
<!-- Node15 -->
<g id="node15" class="node">
<title>Node15</title>
<g id="a_node15"><a xlink:href="structHsqsTable.html" target="_top" xlink:title=" ">
<polygon fill="white" stroke="black" points="1406.5,-190.5 1406.5,-209.5 1490.5,-209.5 1490.5,-190.5 1406.5,-190.5"/>
<text text-anchor="middle" x="1448.5" y="-197.5" font-family="Helvetica,sans-Serif" font-size="10.00">HsqsTable</text>
</a>
</g>
</g>
<!-- Node2&#45;&gt;Node15 -->
<g id="edge17" class="edge">
<title>Node2&#45;&gt;Node15</title>
<path fill="none" stroke="#9a32cd" stroke-dasharray="5,2" d="M1268.7,-132.3C1297.46,-131.94 1339.72,-134.13 1374,-147 1399.63,-156.62 1424.37,-177.65 1437.6,-190.13"/>
<polygon fill="#9a32cd" stroke="#9a32cd" points="1268.29,-128.81 1258.38,-132.55 1268.46,-135.81 1268.29,-128.81"/>
<text text-anchor="middle" x="1325" y="-150" font-family="Helvetica,sans-Serif" font-size="10.00"> hsqs</text>
</g>
<!-- Node16 -->
<g id="node16" class="node">
<title>Node16</title>
<g id="a_node16"><a xlink:href="structHsqsFragmentTable.html" target="_top" xlink:title=" ">
<polygon fill="white" stroke="black" points="1587,-103.5 1587,-122.5 1731,-122.5 1731,-103.5 1587,-103.5"/>
<text text-anchor="middle" x="1659" y="-110.5" font-family="Helvetica,sans-Serif" font-size="10.00">HsqsFragmentTable</text>
</a>
</g>
</g>
<!-- Node2&#45;&gt;Node16 -->
<g id="edge24" class="edge">
<title>Node2&#45;&gt;Node16</title>
<path fill="none" stroke="#9a32cd" stroke-dasharray="5,2" d="M1268.22,-129.73C1270.85,-129.46 1273.47,-129.21 1276,-129 1384.16,-120.07 1509.98,-116.02 1586.78,-114.26"/>
<polygon fill="#9a32cd" stroke="#9a32cd" points="1267.71,-126.27 1258.17,-130.87 1268.5,-133.22 1267.71,-126.27"/>
<text text-anchor="middle" x="1448.5" y="-125" font-family="Helvetica,sans-Serif" font-size="10.00"> hsqs</text>
</g>
<!-- Node3 -->
<g id="node3" class="node">
<title>Node3</title>
<g id="a_node3"><a xlink:href="structHsqsMapper.html" target="_top" xlink:title=" ">
<polygon fill="white" stroke="black" points="312,-170.5 312,-189.5 404,-189.5 404,-170.5 312,-170.5"/>
<text text-anchor="middle" x="358" y="-177.5" font-family="Helvetica,sans-Serif" font-size="10.00">HsqsMapper</text>
</a>
</g>
</g>
<!-- Node3&#45;&gt;Node2 -->
<g id="edge2" class="edge">
<title>Node3&#45;&gt;Node2</title>
<path fill="none" stroke="#9a32cd" stroke-dasharray="5,2" d="M414.42,-183.93C549.25,-192.21 904.55,-206.25 1193,-149 1199.18,-147.77 1205.66,-145.74 1211.59,-143.55"/>
<polygon fill="#9a32cd" stroke="#9a32cd" points="414.53,-180.43 404.33,-183.3 414.09,-187.42 414.53,-180.43"/>
<text text-anchor="middle" x="726.5" y="-205" font-family="Helvetica,sans-Serif" font-size="10.00"> mapper</text>
<text text-anchor="middle" x="726.5" y="-194" font-family="Helvetica,sans-Serif" font-size="10.00">table_mapper</text>
</g>
<!-- Node9 -->
<g id="node9" class="node">
<title>Node9</title>
<g id="a_node9"><a xlink:href="structHsqsMapping.html" target="_top" xlink:title=" ">
<polygon fill="white" stroke="black" points="564,-76.5 564,-95.5 663,-95.5 663,-76.5 564,-76.5"/>
<text text-anchor="middle" x="613.5" y="-83.5" font-family="Helvetica,sans-Serif" font-size="10.00">HsqsMapping</text>
</a>
</g>
</g>
<!-- Node3&#45;&gt;Node9 -->
<g id="edge9" class="edge">
<title>Node3&#45;&gt;Node9</title>
<path fill="none" stroke="#9a32cd" stroke-dasharray="5,2" d="M405.74,-167.77C444.07,-157.14 499.42,-140.42 546,-121 563.7,-113.62 583,-103.17 596.23,-95.62"/>
<polygon fill="#9a32cd" stroke="#9a32cd" points="404.61,-164.45 395.89,-170.47 406.46,-171.2 404.61,-164.45"/>
<text text-anchor="middle" x="519.5" y="-144" font-family="Helvetica,sans-Serif" font-size="10.00"> mapper</text>
</g>
<!-- Node3&#45;&gt;Node15 -->
<g id="edge18" class="edge">
<title>Node3&#45;&gt;Node15</title>
<path fill="none" stroke="#9a32cd" stroke-dasharray="5,2" d="M380.31,-195.44C422.44,-224.41 520.32,-284 612.5,-284 612.5,-284 612.5,-284 1235.5,-284 1315.47,-284 1401.23,-231.7 1433.86,-209.64"/>
<polygon fill="#9a32cd" stroke="#9a32cd" points="382.16,-192.47 371.96,-189.6 378.14,-198.2 382.16,-192.47"/>
<text text-anchor="middle" x="907" y="-287" font-family="Helvetica,sans-Serif" font-size="10.00"> mapper</text>
</g>
<!-- Node4 -->
<g id="node4" class="node">
<title>Node4</title>
<g id="a_node4"><a xlink:href="structHsqsMemoryMapperImpl.html" target="_top" xlink:title=" ">
<polygon fill="white" stroke="black" points="0,-246.5 0,-265.5 167,-265.5 167,-246.5 0,-246.5"/>
<text text-anchor="middle" x="83.5" y="-253.5" font-family="Helvetica,sans-Serif" font-size="10.00">HsqsMemoryMapperImpl</text>
</a>
</g>
</g>
<!-- Node4&#45;&gt;Node3 -->
<g id="edge3" class="edge">
<title>Node4&#45;&gt;Node3</title>
<path fill="none" stroke="#9a32cd" stroke-dasharray="5,2" d="M138.18,-244.17C147.81,-241.9 157.72,-239.46 167,-237 224.09,-221.88 289.96,-201.44 327.22,-189.59"/>
<polygon fill="#9a32cd" stroke="#9a32cd" points="137.25,-240.79 128.3,-246.47 138.84,-247.61 137.25,-240.79"/>
<text text-anchor="middle" x="204" y="-234" font-family="Helvetica,sans-Serif" font-size="10.00"> impl</text>
</g>
<!-- Node5 -->
<g id="node5" class="node">
<title>Node5</title>
<g id="a_node5"><a xlink:href="structHsqsMmapFullMapper.html" target="_top" xlink:title=" ">
<polygon fill="white" stroke="black" points="7.5,-208.5 7.5,-227.5 159.5,-227.5 159.5,-208.5 7.5,-208.5"/>
<text text-anchor="middle" x="83.5" y="-215.5" font-family="Helvetica,sans-Serif" font-size="10.00">HsqsMmapFullMapper</text>
</a>
</g>
</g>
<!-- Node5&#45;&gt;Node3 -->
<g id="edge4" class="edge">
<title>Node5&#45;&gt;Node3</title>
<path fill="none" stroke="#9a32cd" stroke-dasharray="5,2" d="M163.01,-207.05C211.21,-200.33 271.25,-191.96 311.66,-186.32"/>
<polygon fill="#9a32cd" stroke="#9a32cd" points="162.33,-203.61 152.91,-208.46 163.3,-210.55 162.33,-203.61"/>
<text text-anchor="middle" x="204" y="-206" font-family="Helvetica,sans-Serif" font-size="10.00"> mc</text>
</g>
<!-- Node6 -->
<g id="node6" class="node">
<title>Node6</title>
<g id="a_node6"><a xlink:href="structHsqsMmapMapper.html" target="_top" xlink:title=" ">
<polygon fill="white" stroke="black" points="22.5,-170.5 22.5,-189.5 144.5,-189.5 144.5,-170.5 22.5,-170.5"/>
<text text-anchor="middle" x="83.5" y="-177.5" font-family="Helvetica,sans-Serif" font-size="10.00">HsqsMmapMapper</text>
</a>
</g>
</g>
<!-- Node6&#45;&gt;Node3 -->
<g id="edge5" class="edge">
<title>Node6&#45;&gt;Node3</title>
<path fill="none" stroke="#9a32cd" stroke-dasharray="5,2" d="M154.64,-180C204.15,-180 269.04,-180 311.82,-180"/>
<polygon fill="#9a32cd" stroke="#9a32cd" points="154.64,-176.5 144.64,-180 154.64,-183.5 154.64,-176.5"/>
<text text-anchor="middle" x="204" y="-183" font-family="Helvetica,sans-Serif" font-size="10.00"> mm</text>
</g>
<!-- Node7 -->
<g id="node7" class="node">
<title>Node7</title>
<g id="a_node7"><a xlink:href="structHsqsStaticMapper.html" target="_top" xlink:title=" ">
<polygon fill="white" stroke="black" points="15,-132.5 15,-151.5 152,-151.5 152,-132.5 15,-132.5"/>
<text text-anchor="middle" x="83.5" y="-139.5" font-family="Helvetica,sans-Serif" font-size="10.00">HsqsStaticMapper</text>
</a>
</g>
</g>
<!-- Node7&#45;&gt;Node3 -->
<g id="edge6" class="edge">
<title>Node7&#45;&gt;Node3</title>
<path fill="none" stroke="#9a32cd" stroke-dasharray="5,2" d="M162.34,-152.85C210.73,-159.6 271.24,-168.04 311.84,-173.7"/>
<polygon fill="#9a32cd" stroke="#9a32cd" points="162.6,-149.36 152.21,-151.44 161.63,-156.29 162.6,-149.36"/>
<text text-anchor="middle" x="204" y="-164" font-family="Helvetica,sans-Serif" font-size="10.00"> sm</text>
</g>
<!-- Node8 -->
<g id="node8" class="node">
<title>Node8</title>
<g id="a_node8"><a xlink:href="structHsqsCanaryMapper.html" target="_top" xlink:title=" ">
<polygon fill="white" stroke="black" points="15,-94.5 15,-113.5 152,-113.5 152,-94.5 15,-94.5"/>
<text text-anchor="middle" x="83.5" y="-101.5" font-family="Helvetica,sans-Serif" font-size="10.00">HsqsCanaryMapper</text>
</a>
</g>
</g>
<!-- Node8&#45;&gt;Node3 -->
<g id="edge7" class="edge">
<title>Node8&#45;&gt;Node3</title>
<path fill="none" stroke="#9a32cd" stroke-dasharray="5,2" d="M138.18,-115.83C147.81,-118.1 157.72,-120.54 167,-123 224.09,-138.12 289.96,-158.56 327.22,-170.41"/>
<polygon fill="#9a32cd" stroke="#9a32cd" points="138.84,-112.39 128.3,-113.53 137.25,-119.21 138.84,-112.39"/>
<text text-anchor="middle" x="204" y="-141" font-family="Helvetica,sans-Serif" font-size="10.00"> cn</text>
</g>
<!-- Node9&#45;&gt;Node1 -->
<g id="edge28" class="edge">
<title>Node9&#45;&gt;Node1</title>
<path fill="none" stroke="#9a32cd" stroke-dasharray="5,2" d="M664.43,-97.72C670.01,-98.89 675.62,-100.01 681,-101 736.49,-111.19 800.2,-119.98 845.62,-125.75"/>
<polygon fill="#9a32cd" stroke="#9a32cd" points="665,-94.26 654.48,-95.57 663.52,-101.1 665,-94.26"/>
<text text-anchor="middle" x="726.5" y="-119" font-family="Helvetica,sans-Serif" font-size="10.00"> header</text>
</g>
<!-- Node9&#45;&gt;Node2 -->
<g id="edge8" class="edge">
<title>Node9&#45;&gt;Node2</title>
<path fill="none" stroke="#9a32cd" stroke-dasharray="5,2" d="M667.77,-74.48C702.41,-67.59 748.65,-59.51 790,-56 968.61,-40.84 1039.56,20.66 1193,-72 1213.03,-84.1 1225.05,-110.33 1230.33,-124.49"/>
<polygon fill="#9a32cd" stroke="#9a32cd" points="666.98,-71.07 657.87,-76.48 668.37,-77.93 666.98,-71.07"/>
<text text-anchor="middle" x="907" y="-59" font-family="Helvetica,sans-Serif" font-size="10.00"> table_map</text>
</g>
<!-- Node14 -->
<g id="node14" class="node">
<title>Node14</title>
<g id="a_node14"><a xlink:href="structHsqsSuperblockContext.html" target="_top" xlink:title=" ">
<polygon fill="white" stroke="black" points="820,-76.5 820,-95.5 994,-95.5 994,-76.5 820,-76.5"/>
<text text-anchor="middle" x="907" y="-83.5" font-family="Helvetica,sans-Serif" font-size="10.00">HsqsSuperblockContext</text>
</a>
</g>
</g>
<!-- Node9&#45;&gt;Node14 -->
<g id="edge15" class="edge">
<title>Node9&#45;&gt;Node14</title>
<path fill="none" stroke="#9a32cd" stroke-dasharray="5,2" d="M673.37,-86C715.43,-86 772.68,-86 819.87,-86"/>
<polygon fill="#9a32cd" stroke="#9a32cd" points="673.29,-82.5 663.29,-86 673.29,-89.5 673.29,-82.5"/>
<text text-anchor="middle" x="726.5" y="-89" font-family="Helvetica,sans-Serif" font-size="10.00"> mapping</text>
</g>
<!-- Node9&#45;&gt;Node15 -->
<g id="edge19" class="edge">
<title>Node9&#45;&gt;Node15</title>
<path fill="none" stroke="#9a32cd" stroke-dasharray="5,2" d="M617.89,-105.63C624.27,-135.74 641.16,-192.41 681,-217 793.51,-286.46 1143.78,-219.67 1276,-220 1319.56,-220.11 1330.83,-225.77 1374,-220 1389.21,-217.97 1405.72,-213.67 1419.24,-209.58"/>
<polygon fill="#9a32cd" stroke="#9a32cd" points="621.27,-104.67 615.94,-95.51 614.4,-105.99 621.27,-104.67"/>
<text text-anchor="middle" x="1117.5" y="-241" font-family="Helvetica,sans-Serif" font-size="10.00"> lookup_table</text>
</g>
<!-- Node10 -->
<g id="node10" class="node">
<title>Node10</title>
<g id="a_node10"><a xlink:href="structHsqsMmapFullMap.html" target="_top" xlink:title=" ">
<polygon fill="white" stroke="black" points="293.5,-0.5 293.5,-19.5 422.5,-19.5 422.5,-0.5 293.5,-0.5"/>
<text text-anchor="middle" x="358" y="-7.5" font-family="Helvetica,sans-Serif" font-size="10.00">HsqsMmapFullMap</text>
</a>
</g>
</g>
<!-- Node10&#45;&gt;Node9 -->
<g id="edge10" class="edge">
<title>Node10&#45;&gt;Node9</title>
<path fill="none" stroke="#9a32cd" stroke-dasharray="5,2" d="M432.84,-18.93C468.02,-24.8 510.14,-34.21 546,-49 564.57,-56.66 584.53,-68.26 597.68,-76.43"/>
<polygon fill="#9a32cd" stroke="#9a32cd" points="433.06,-15.42 422.64,-17.3 431.96,-22.33 433.06,-15.42"/>
<text text-anchor="middle" x="519.5" y="-52" font-family="Helvetica,sans-Serif" font-size="10.00"> mc</text>
</g>
<!-- Node11 -->
<g id="node11" class="node">
<title>Node11</title>
<g id="a_node11"><a xlink:href="structHsqsMmapMap.html" target="_top" xlink:title=" ">
<polygon fill="white" stroke="black" points="308.5,-114.5 308.5,-133.5 407.5,-133.5 407.5,-114.5 308.5,-114.5"/>
<text text-anchor="middle" x="358" y="-121.5" font-family="Helvetica,sans-Serif" font-size="10.00">HsqsMmapMap</text>
</a>
</g>
</g>
<!-- Node11&#45;&gt;Node9 -->
<g id="edge11" class="edge">
<title>Node11&#45;&gt;Node9</title>
<path fill="none" stroke="#9a32cd" stroke-dasharray="5,2" d="M417.6,-116.47C454.5,-111.58 503.1,-104.85 546,-98 551.79,-97.08 557.86,-96.05 563.87,-95.01"/>
<polygon fill="#9a32cd" stroke="#9a32cd" points="416.97,-113.02 407.51,-117.8 417.88,-119.96 416.97,-113.02"/>
<text text-anchor="middle" x="519.5" y="-109" font-family="Helvetica,sans-Serif" font-size="10.00"> mm</text>
</g>
<!-- Node12 -->
<g id="node12" class="node">
<title>Node12</title>
<g id="a_node12"><a xlink:href="structHsqsStaticMap.html" target="_top" xlink:title=" ">
<polygon fill="white" stroke="black" points="301,-76.5 301,-95.5 415,-95.5 415,-76.5 301,-76.5"/>
<text text-anchor="middle" x="358" y="-83.5" font-family="Helvetica,sans-Serif" font-size="10.00">HsqsStaticMap</text>
</a>
</g>
</g>
<!-- Node12&#45;&gt;Node9 -->
<g id="edge12" class="edge">
<title>Node12&#45;&gt;Node9</title>
<path fill="none" stroke="#9a32cd" stroke-dasharray="5,2" d="M425.43,-86C468.77,-86 524.38,-86 563.66,-86"/>
<polygon fill="#9a32cd" stroke="#9a32cd" points="425.26,-82.5 415.26,-86 425.26,-89.5 425.26,-82.5"/>
<text text-anchor="middle" x="519.5" y="-89" font-family="Helvetica,sans-Serif" font-size="10.00"> sm</text>
</g>
<!-- Node13 -->
<g id="node13" class="node">
<title>Node13</title>
<g id="a_node13"><a xlink:href="structHsqsCanaryMap.html" target="_top" xlink:title=" ">
<polygon fill="white" stroke="black" points="301,-38.5 301,-57.5 415,-57.5 415,-38.5 301,-38.5"/>
<text text-anchor="middle" x="358" y="-45.5" font-family="Helvetica,sans-Serif" font-size="10.00">HsqsCanaryMap</text>
</a>
</g>
</g>
<!-- Node13&#45;&gt;Node9 -->
<g id="edge13" class="edge">
<title>Node13&#45;&gt;Node9</title>
<path fill="none" stroke="#9a32cd" stroke-dasharray="5,2" d="M425.59,-54.56C461.41,-58.5 506.26,-64.09 546,-71 554.86,-72.54 564.32,-74.49 573.25,-76.47"/>
<polygon fill="#9a32cd" stroke="#9a32cd" points="425.59,-51.04 415.27,-53.44 424.83,-58 425.59,-51.04"/>
<text text-anchor="middle" x="519.5" y="-74" font-family="Helvetica,sans-Serif" font-size="10.00"> cn</text>
</g>
<!-- Node14&#45;&gt;Node2 -->
<g id="edge14" class="edge">
<title>Node14&#45;&gt;Node2</title>
<path fill="none" stroke="#9a32cd" stroke-dasharray="5,2" d="M999.66,-75.93C1057.12,-73.11 1131.65,-75.94 1193,-100 1205.99,-105.09 1217.83,-116.13 1225.31,-124.25"/>
<polygon fill="#9a32cd" stroke="#9a32cd" points="999.29,-72.45 989.5,-76.5 999.68,-79.44 999.29,-72.45"/>
<text text-anchor="middle" x="1117.5" y="-103" font-family="Helvetica,sans-Serif" font-size="10.00"> superblock</text>
</g>
<!-- Node14&#45;&gt;Node16 -->
<g id="edge22" class="edge">
<title>Node14&#45;&gt;Node16</title>
<path fill="none" stroke="#9a32cd" stroke-dasharray="5,2" d="M997.17,-75.48C1012.12,-74.06 1027.48,-72.82 1042,-72 1247.47,-60.41 1299.87,-62.34 1505,-79 1533.48,-81.31 1541,-79.35 1569,-85 1590.91,-89.42 1615.06,-97.21 1632.67,-103.46"/>
<polygon fill="#9a32cd" stroke="#9a32cd" points="996.51,-72.03 986.9,-76.49 997.2,-79 996.51,-72.03"/>
<text text-anchor="middle" x="1325" y="-73" font-family="Helvetica,sans-Serif" font-size="10.00"> superblock</text>
</g>
<!-- Node15&#45;&gt;Node1 -->
<g id="edge29" class="edge">
<title>Node15&#45;&gt;Node1</title>
<path fill="none" stroke="#9a32cd" stroke-dasharray="5,2" d="M1395.97,-204.87C1361.86,-207.26 1316.17,-208.89 1276,-205 1152.89,-193.07 1009.81,-159.19 944.22,-142.51"/>
<polygon fill="#9a32cd" stroke="#9a32cd" points="1396.45,-208.34 1406.17,-204.11 1395.93,-201.36 1396.45,-208.34"/>
<text text-anchor="middle" x="1234.5" y="-205" font-family="Helvetica,sans-Serif" font-size="10.00"> table</text>
</g>
<!-- Node15&#45;&gt;Node2 -->
<g id="edge16" class="edge">
<title>Node15&#45;&gt;Node2</title>
<path fill="none" stroke="#9a32cd" stroke-dasharray="5,2" d="M1396.41,-188.19C1346.39,-176.61 1277.43,-160.61 1276,-160 1266,-155.77 1255.71,-149.13 1248,-143.62"/>
<polygon fill="#9a32cd" stroke="#9a32cd" points="1395.92,-191.67 1406.46,-190.52 1397.5,-184.85 1395.92,-191.67"/>
<text text-anchor="middle" x="1325" y="-196" font-family="Helvetica,sans-Serif" font-size="10.00"> export_table</text>
<text text-anchor="middle" x="1325" y="-185" font-family="Helvetica,sans-Serif" font-size="10.00">id_table</text>
</g>
<!-- Node15&#45;&gt;Node16 -->
<g id="edge23" class="edge">
<title>Node15&#45;&gt;Node16</title>
<path fill="none" stroke="#9a32cd" stroke-dasharray="5,2" d="M1482.71,-186.53C1506.72,-176.76 1539.91,-163.17 1569,-151 1591.78,-141.47 1617.75,-130.35 1635.73,-122.62"/>
<polygon fill="#9a32cd" stroke="#9a32cd" points="1481.29,-183.33 1473.35,-190.34 1483.93,-189.81 1481.29,-183.33"/>
<text text-anchor="middle" x="1546" y="-173" font-family="Helvetica,sans-Serif" font-size="10.00"> table</text>
</g>
<!-- Node16&#45;&gt;Node2 -->
<g id="edge21" class="edge">
<title>Node16&#45;&gt;Node2</title>
<path fill="none" stroke="#9a32cd" stroke-dasharray="5,2" d="M1607.9,-101.38C1533.37,-86.39 1389.86,-66.42 1276,-104 1263.87,-108 1252.4,-117.2 1244.79,-124.36"/>
<polygon fill="#9a32cd" stroke="#9a32cd" points="1607.45,-104.86 1617.95,-103.46 1608.86,-98.01 1607.45,-104.86"/>
<text text-anchor="middle" x="1448.5" y="-89" font-family="Helvetica,sans-Serif" font-size="10.00"> fragment_table</text>
</g>
<!-- Node17 -->
<g id="node17" class="node">
<title>Node17</title>
<g id="a_node17"><a xlink:href="structHsqsCompressionOptionsContext.html" target="_top" xlink:title=" ">
<polygon fill="white" stroke="black" points="790,-313.5 790,-332.5 1024,-332.5 1024,-313.5 790,-313.5"/>
<text text-anchor="middle" x="907" y="-320.5" font-family="Helvetica,sans-Serif" font-size="10.00">HsqsCompressionOptionsContext</text>
</a>
</g>
</g>
<!-- Node17&#45;&gt;Node2 -->
<g id="edge25" class="edge">
<title>Node17&#45;&gt;Node2</title>
<path fill="none" stroke="#9a32cd" stroke-dasharray="5,2" d="M1034.19,-322.23C1089.78,-315.32 1151.7,-297.6 1193,-256 1216.54,-232.28 1199.98,-214.55 1211,-183 1215.94,-168.86 1223.49,-153.25 1228.46,-143.54"/>
<polygon fill="#9a32cd" stroke="#9a32cd" points="1033.79,-318.75 1024.25,-323.36 1034.58,-325.7 1033.79,-318.75"/>
<text text-anchor="middle" x="1117.5" y="-323" font-family="Helvetica,sans-Serif" font-size="10.00"> compression_options</text>
</g>
<!-- Node18 -->
<g id="node18" class="node">
<title>Node18</title>
<g id="a_node18"><a xlink:href="structHsqsBuffer.html" target="_top" xlink:title=" ">
<polygon fill="white" stroke="black" points="567.5,-313.5 567.5,-332.5 659.5,-332.5 659.5,-313.5 567.5,-313.5"/>
<text text-anchor="middle" x="613.5" y="-320.5" font-family="Helvetica,sans-Serif" font-size="10.00">HsqsBuffer</text>
</a>
</g>
</g>
<!-- Node18&#45;&gt;Node17 -->
<g id="edge26" class="edge">
<title>Node18&#45;&gt;Node17</title>
<path fill="none" stroke="#9a32cd" stroke-dasharray="5,2" d="M669.89,-323C703.79,-323 748.46,-323 789.82,-323"/>
<polygon fill="#9a32cd" stroke="#9a32cd" points="669.73,-319.5 659.73,-323 669.73,-326.5 669.73,-319.5"/>
<text text-anchor="middle" x="726.5" y="-326" font-family="Helvetica,sans-Serif" font-size="10.00"> buffer</text>
</g>
<!-- Node19 -->
<g id="node19" class="node">
<title>Node19</title>
<g id="a_node19"><a xlink:href="structHsqsCompressionImplementation.html" target="_top" xlink:title=" ">
<polygon fill="white" stroke="black" points="241,-313.5 241,-332.5 475,-332.5 475,-313.5 241,-313.5"/>
<text text-anchor="middle" x="358" y="-320.5" font-family="Helvetica,sans-Serif" font-size="10.00">HsqsCompressionImplementation</text>
</a>
</g>
</g>
<!-- Node19&#45;&gt;Node18 -->
<g id="edge27" class="edge">
<title>Node19&#45;&gt;Node18</title>
<path fill="none" stroke="#9a32cd" stroke-dasharray="5,2" d="M485.72,-323C515.03,-323 544.35,-323 567.39,-323"/>
<polygon fill="#9a32cd" stroke="#9a32cd" points="485.36,-319.5 475.36,-323 485.36,-326.5 485.36,-319.5"/>
<text text-anchor="middle" x="519.5" y="-326" font-family="Helvetica,sans-Serif" font-size="10.00"> impl</text>
</g>
</g>
</svg>
        <g id="navigator" transform="translate(0 0)" fill="#404254">
                <rect fill="#f2f5e9" fill-opacity="0.5" stroke="#606060" stroke-width=".5" x="0" y="0" width="60" height="60"/>
                <use id="zoomplus" xlink:href="#zoomPlus" x="17" y="9" onmousedown="handleZoom(evt,'in')"/>
                <use id="zoomminus" xlink:href="#zoomMin" x="42" y="9" onmousedown="handleZoom(evt,'out')"/>
                <use id="reset" xlink:href="#resetDef" x="30" y="36" onmousedown="handleReset()"/>
                <g id="arrowUp" xlink:href="#dirArrow" transform="translate(30 24)" onmousedown="handlePan(0,-1)">
                  <use xlink:href="#rim" fill="#404040">
                        <set attributeName="fill" to="#808080" begin="arrowUp.mouseover" end="arrowUp.mouseout"/>
                  </use>
                  <path fill="none" stroke="white" stroke-width="1.5" d="M0,-3.0v7 M-2.5,-0.5L0,-3.0L2.5,-0.5"/>
                </g>
                <g id="arrowRight" xlink:href="#dirArrow" transform="rotate(90) translate(36 -43)" onmousedown="handlePan(1,0)">
                  <use xlink:href="#rim" fill="#404040">
                        <set attributeName="fill" to="#808080" begin="arrowRight.mouseover" end="arrowRight.mouseout"/>
                  </use>
                  <path fill="none" stroke="white" stroke-width="1.5" d="M0,-3.0v7 M-2.5,-0.5L0,-3.0L2.5,-0.5"/>
                </g>
                <g id="arrowDown" xlink:href="#dirArrow" transform="rotate(180) translate(-30 -48)" onmousedown="handlePan(0,1)">
                  <use xlink:href="#rim" fill="#404040">
                        <set attributeName="fill" to="#808080" begin="arrowDown.mouseover" end="arrowDown.mouseout"/>
                  </use>
                  <path fill="none" stroke="white" stroke-width="1.5" d="M0,-3.0v7 M-2.5,-0.5L0,-3.0L2.5,-0.5"/>
                </g>
                <g id="arrowLeft" xlink:href="#dirArrow" transform="rotate(270) translate(-36 17)" onmousedown="handlePan(-1,0)">
                  <use xlink:href="#rim" fill="#404040">
                        <set attributeName="fill" to="#808080" begin="arrowLeft.mouseover" end="arrowLeft.mouseout"/>
                  </use>
                  <path fill="none" stroke="white" stroke-width="1.5" d="M0,-3.0v7 M-2.5,-0.5L0,-3.0L2.5,-0.5"/>
                </g>
        </g>
        <svg viewBox="0 0 15 15" width="100%" height="30px" preserveAspectRatio="xMaxYMin meet">
         <g id="arrow_out" transform="scale(0.3 0.3)">
          <a xlink:href="structHsqsXattrTable__coll__graph_org.svg" target="_base">
           <rect id="button" ry="5" rx="5" y="6" x="6" height="38" width="38"
                fill="#f2f5e9" fill-opacity="0.5" stroke="#606060" stroke-width="1.0"/>
           <path id="arrow"
             d="M 11.500037,31.436501 C 11.940474,20.09759 22.043105,11.32322 32.158766,21.979434 L 37.068811,17.246167 C 37.068811,17.246167 37.088388,32 37.088388,32 L 22.160133,31.978069 C 22.160133,31.978069 26.997745,27.140456 26.997745,27.140456 C 18.528582,18.264221 13.291696,25.230495 11.500037,31.436501 z"
             style="fill:#404040;"/>
          </a>
         </g>
        </svg>
</svg>
