<?xml version="1.0" encoding="UTF-8" standalone="no"?>
<!DOCTYPE svg PUBLIC "-//W3C//DTD SVG 1.1//EN"
 "http://www.w3.org/Graphics/SVG/1.1/DTD/svg11.dtd">
<!-- Generated by graphviz version 7.0.5 (20221223.1930)
 -->
<!-- Title: SqshMapper Pages: 1 -->
<svg width="426pt" height="93pt"
 viewBox="0.00 0.00 426.00 93.00" xmlns="http://www.w3.org/2000/svg" xmlns:xlink="http://www.w3.org/1999/xlink">
<g id="graph0" class="graph" transform="scale(1 1) rotate(0) translate(4 89)">
<title>SqshMapper</title>
<!-- Node1 -->
<g id="node1" class="node">
<title>Node1</title>
<g id="a_node1"><a xlink:title="The mapper that is used to map chunks of the archive into memory.">
<polygon fill="#999999" stroke="#666666" points="255,-19 163,-19 163,0 255,0 255,-19"/>
<text text-anchor="middle" x="209" y="-7" font-family="Helvetica,sans-Serif" font-size="10.00">SqshMapper</text>
</a>
</g>
</g>
<!-- Node2 -->
<g id="node2" class="node">
<title>Node2</title>
<g id="a_node2"><a xlink:href="structSqshMmapMapper.html" target="_top" xlink:title="The mmap mapper.">
<polygon fill="white" stroke="#666666" points="122,-85 0,-85 0,-66 122,-66 122,-85"/>
<text text-anchor="middle" x="61" y="-73" font-family="Helvetica,sans-Serif" font-size="10.00">SqshMmapMapper</text>
</a>
</g>
</g>
<!-- Node2&#45;&gt;Node1 -->
<g id="edge1" class="edge">
<title>Node2&#45;&gt;Node1</title>
<path fill="none" stroke="#9a32cd" stroke-dasharray="5,2" d="M91.98,-61.1C121.02,-48.54 163.61,-30.13 188.6,-19.32"/>
<polygon fill="#9a32cd" stroke="#9a32cd" points="90.76,-57.82 82.97,-65 93.54,-64.24 90.76,-57.82"/>
<text text-anchor="middle" x="155.5" y="-40" font-family="Helvetica,sans-Serif" font-size="10.00"> mm</text>
</g>
<!-- Node3 -->
<g id="node3" class="node">
<title>Node3</title>
<g id="a_node3"><a xlink:href="structSqshStaticMapper.html" target="_top" xlink:title="The static mapper.">
<polygon fill="white" stroke="#666666" points="277.5,-85 140.5,-85 140.5,-66 277.5,-66 277.5,-85"/>
<text text-anchor="middle" x="209" y="-73" font-family="Helvetica,sans-Serif" font-size="10.00">SqshStaticMapper</text>
</a>
</g>
</g>
<!-- Node3&#45;&gt;Node1 -->
<g id="edge2" class="edge">
<title>Node3&#45;&gt;Node1</title>
<path fill="none" stroke="#9a32cd" stroke-dasharray="5,2" d="M209,-54.18C209,-42.44 209,-28.27 209,-19.32"/>
<polygon fill="#9a32cd" stroke="#9a32cd" points="205.5,-54.09 209,-64.09 212.5,-54.09 205.5,-54.09"/>
<text text-anchor="middle" x="220.5" y="-40" font-family="Helvetica,sans-Serif" font-size="10.00"> sm</text>
</g>
<!-- Node4 -->
<g id="node4" class="node">
<title>Node4</title>
<g id="a_node4"><a xlink:href="structSqshCurlMapper.html" target="_top" xlink:title="The curl mapper.">
<polygon fill="white" stroke="#666666" points="418,-85 296,-85 296,-66 418,-66 418,-85"/>
<text text-anchor="middle" x="357" y="-73" font-family="Helvetica,sans-Serif" font-size="10.00">SqshCurlMapper</text>
</a>
</g>
</g>
<!-- Node4&#45;&gt;Node1 -->
<g id="edge3" class="edge">
<title>Node4&#45;&gt;Node1</title>
<path fill="none" stroke="#9a32cd" stroke-dasharray="5,2" d="M326.02,-61.1C296.98,-48.54 254.39,-30.13 229.4,-19.32"/>
<polygon fill="#9a32cd" stroke="#9a32cd" points="324.46,-64.24 335.03,-65 327.24,-57.82 324.46,-64.24"/>
<text text-anchor="middle" x="302.5" y="-40" font-family="Helvetica,sans-Serif" font-size="10.00"> cl</text>
</g>
</g>
</svg>
