<?xml version="1.0" encoding="UTF-8" standalone="no"?>
<!DOCTYPE svg PUBLIC "-//W3C//DTD SVG 1.1//EN"
 "http://www.w3.org/Graphics/SVG/1.1/DTD/svg11.dtd">
<!-- Generated by graphviz version 3.0.0 (20220413.0242)
 -->
<!-- Title: SqshSuperblockContext Pages: 1 -->
<svg width="897pt" height="313pt"
 viewBox="0.00 0.00 897.00 313.00" xmlns="http://www.w3.org/2000/svg" xmlns:xlink="http://www.w3.org/1999/xlink">
<g id="graph0" class="graph" transform="scale(1 1) rotate(0) translate(4 309)">
<title>SqshSuperblockContext</title>
<polygon fill="white" stroke="transparent" points="-4,4 -4,-309 893,-309 893,4 -4,4"/>
<!-- Node1 -->
<g id="node1" class="node">
<title>Node1</title>
<g id="a_node1"><a xlink:title=" ">
<polygon fill="#bfbfbf" stroke="black" points="715,-114.5 715,-133.5 889,-133.5 889,-114.5 715,-114.5"/>
<text text-anchor="middle" x="802" y="-121.5" font-family="Helvetica,sans-Serif" font-size="10.00">SqshSuperblockContext</text>
</a>
</g>
</g>
<!-- Node2 -->
<g id="node2" class="node">
<title>Node2</title>
<g id="a_node2"><a xlink:href="structSqshSuperblock.html" target="_top" xlink:title=" ">
<polygon fill="white" stroke="black" points="474,-133.5 474,-152.5 596,-152.5 596,-133.5 474,-133.5"/>
<text text-anchor="middle" x="535" y="-140.5" font-family="Helvetica,sans-Serif" font-size="10.00">SqshSuperblock</text>
</a>
</g>
</g>
<!-- Node2&#45;&gt;Node1 -->
<g id="edge1" class="edge">
<title>Node2&#45;&gt;Node1</title>
<path fill="none" stroke="#9a32cd" stroke-dasharray="5,2" d="M606.26,-137.96C639.62,-135.57 679.8,-132.69 714.98,-130.17"/>
<polygon fill="#9a32cd" stroke="#9a32cd" points="605.86,-134.48 596.13,-138.69 606.36,-141.46 605.86,-134.48"/>
<text text-anchor="middle" x="655.5" y="-140" font-family="Helvetica,sans-Serif" font-size="10.00"> superblock</text>
</g>
<!-- Node3 -->
<g id="node3" class="node">
<title>Node3</title>
<g id="a_node3"><a xlink:href="structSqshMapping.html" target="_top" xlink:title=" ">
<polygon fill="white" stroke="black" points="485.5,-95.5 485.5,-114.5 584.5,-114.5 584.5,-95.5 485.5,-95.5"/>
<text text-anchor="middle" x="535" y="-102.5" font-family="Helvetica,sans-Serif" font-size="10.00">SqshMapping</text>
</a>
</g>
</g>
<!-- Node3&#45;&gt;Node1 -->
<g id="edge2" class="edge">
<title>Node3&#45;&gt;Node1</title>
<path fill="none" stroke="#9a32cd" stroke-dasharray="5,2" d="M594.67,-108.89C625.19,-110.94 663.11,-113.54 697,-116 702.78,-116.42 708.74,-116.86 714.74,-117.31"/>
<polygon fill="#9a32cd" stroke="#9a32cd" points="594.83,-105.39 584.62,-108.21 594.36,-112.37 594.83,-105.39"/>
<text text-anchor="middle" x="655.5" y="-119" font-family="Helvetica,sans-Serif" font-size="10.00"> mapping</text>
</g>
<!-- Node4 -->
<g id="node4" class="node">
<title>Node4</title>
<g id="a_node4"><a xlink:href="structSqshMapper.html" target="_top" xlink:title=" ">
<polygon fill="white" stroke="black" points="274.5,-190.5 274.5,-209.5 366.5,-209.5 366.5,-190.5 274.5,-190.5"/>
<text text-anchor="middle" x="320.5" y="-197.5" font-family="Helvetica,sans-Serif" font-size="10.00">SqshMapper</text>
</a>
</g>
</g>
<!-- Node4&#45;&gt;Node3 -->
<g id="edge3" class="edge">
<title>Node4&#45;&gt;Node3</title>
<path fill="none" stroke="#9a32cd" stroke-dasharray="5,2" d="M376.54,-193.42C402.98,-187.89 433.7,-177.71 456,-159 469.4,-147.76 460.64,-135.29 474,-124 478.59,-120.12 483.98,-117.03 489.61,-114.58"/>
<polygon fill="#9a32cd" stroke="#9a32cd" points="375.8,-190 366.64,-195.32 377.12,-196.87 375.8,-190"/>
<text text-anchor="middle" x="429.5" y="-188" font-family="Helvetica,sans-Serif" font-size="10.00"> mapper</text>
</g>
<!-- Node5 -->
<g id="node5" class="node">
<title>Node5</title>
<g id="a_node5"><a xlink:href="structSqshMemoryMapperImpl.html" target="_top" xlink:title=" ">
<polygon fill="white" stroke="black" points="0,-285.5 0,-304.5 167,-304.5 167,-285.5 0,-285.5"/>
<text text-anchor="middle" x="83.5" y="-292.5" font-family="Helvetica,sans-Serif" font-size="10.00">SqshMemoryMapperImpl</text>
</a>
</g>
</g>
<!-- Node5&#45;&gt;Node4 -->
<g id="edge4" class="edge">
<title>Node5&#45;&gt;Node4</title>
<path fill="none" stroke="#9a32cd" stroke-dasharray="5,2" d="M139.89,-283.15C148.99,-280.94 158.29,-278.53 167,-276 199.13,-266.68 207.86,-265.52 238,-251 263.26,-238.83 290.47,-220.67 306.19,-209.62"/>
<polygon fill="#9a32cd" stroke="#9a32cd" points="139.05,-279.75 130.12,-285.45 140.66,-286.56 139.05,-279.75"/>
<text text-anchor="middle" x="211.5" y="-273" font-family="Helvetica,sans-Serif" font-size="10.00"> impl</text>
</g>
<!-- Node6 -->
<g id="node6" class="node">
<title>Node6</title>
<g id="a_node6"><a xlink:href="structSqshMmapFullMapper.html" target="_top" xlink:title=" ">
<polygon fill="white" stroke="black" points="7.5,-247.5 7.5,-266.5 159.5,-266.5 159.5,-247.5 7.5,-247.5"/>
<text text-anchor="middle" x="83.5" y="-254.5" font-family="Helvetica,sans-Serif" font-size="10.00">SqshMmapFullMapper</text>
</a>
</g>
</g>
<!-- Node6&#45;&gt;Node4 -->
<g id="edge5" class="edge">
<title>Node6&#45;&gt;Node4</title>
<path fill="none" stroke="#9a32cd" stroke-dasharray="5,2" d="M146.38,-245.45C174.48,-239.86 208.06,-232.7 238,-225 255.63,-220.47 275.13,-214.52 290.64,-209.56"/>
<polygon fill="#9a32cd" stroke="#9a32cd" points="145.43,-242.07 136.29,-247.44 146.78,-248.94 145.43,-242.07"/>
<text text-anchor="middle" x="211.5" y="-239" font-family="Helvetica,sans-Serif" font-size="10.00"> mc</text>
</g>
<!-- Node7 -->
<g id="node7" class="node">
<title>Node7</title>
<g id="a_node7"><a xlink:href="structSqshMmapMapper.html" target="_top" xlink:title=" ">
<polygon fill="white" stroke="black" points="22.5,-209.5 22.5,-228.5 144.5,-228.5 144.5,-209.5 22.5,-209.5"/>
<text text-anchor="middle" x="83.5" y="-216.5" font-family="Helvetica,sans-Serif" font-size="10.00">SqshMmapMapper</text>
</a>
</g>
</g>
<!-- Node7&#45;&gt;Node4 -->
<g id="edge6" class="edge">
<title>Node7&#45;&gt;Node4</title>
<path fill="none" stroke="#9a32cd" stroke-dasharray="5,2" d="M154.88,-213.31C193.59,-210.18 240.47,-206.39 274.29,-203.66"/>
<polygon fill="#9a32cd" stroke="#9a32cd" points="154.4,-209.84 144.71,-214.13 154.96,-216.81 154.4,-209.84"/>
<text text-anchor="middle" x="211.5" y="-213" font-family="Helvetica,sans-Serif" font-size="10.00"> mm</text>
</g>
<!-- Node8 -->
<g id="node8" class="node">
<title>Node8</title>
<g id="a_node8"><a xlink:href="structSqshStaticMapper.html" target="_top" xlink:title=" ">
<polygon fill="white" stroke="black" points="15,-171.5 15,-190.5 152,-190.5 152,-171.5 15,-171.5"/>
<text text-anchor="middle" x="83.5" y="-178.5" font-family="Helvetica,sans-Serif" font-size="10.00">SqshStaticMapper</text>
</a>
</g>
</g>
<!-- Node8&#45;&gt;Node4 -->
<g id="edge7" class="edge">
<title>Node8&#45;&gt;Node4</title>
<path fill="none" stroke="#9a32cd" stroke-dasharray="5,2" d="M162.39,-185.39C186.63,-186.94 213.44,-188.85 238,-191 249.77,-192.03 262.48,-193.34 274.27,-194.64"/>
<polygon fill="#9a32cd" stroke="#9a32cd" points="162.38,-181.89 152.18,-184.75 161.94,-188.87 162.38,-181.89"/>
<text text-anchor="middle" x="211.5" y="-194" font-family="Helvetica,sans-Serif" font-size="10.00"> sm</text>
</g>
<!-- Node9 -->
<g id="node9" class="node">
<title>Node9</title>
<g id="a_node9"><a xlink:href="structSqshCanaryMapper.html" target="_top" xlink:title=" ">
<polygon fill="white" stroke="black" points="15,-133.5 15,-152.5 152,-152.5 152,-133.5 15,-133.5"/>
<text text-anchor="middle" x="83.5" y="-140.5" font-family="Helvetica,sans-Serif" font-size="10.00">SqshCanaryMapper</text>
</a>
</g>
</g>
<!-- Node9&#45;&gt;Node4 -->
<g id="edge8" class="edge">
<title>Node9&#45;&gt;Node4</title>
<path fill="none" stroke="#9a32cd" stroke-dasharray="5,2" d="M162.06,-153.35C186.71,-157.78 213.83,-163.85 238,-172 246.48,-174.86 247.68,-177.71 256,-181 264.77,-184.48 274.44,-187.67 283.53,-190.42"/>
<polygon fill="#9a32cd" stroke="#9a32cd" points="162.47,-149.87 152.02,-151.61 161.28,-156.77 162.47,-149.87"/>
<text text-anchor="middle" x="211.5" y="-175" font-family="Helvetica,sans-Serif" font-size="10.00"> cn</text>
</g>
<!-- Node10 -->
<g id="node10" class="node">
<title>Node10</title>
<g id="a_node10"><a xlink:href="structSqshCurlMapper.html" target="_top" xlink:title=" ">
<polygon fill="white" stroke="black" points="22.5,-95.5 22.5,-114.5 144.5,-114.5 144.5,-95.5 22.5,-95.5"/>
<text text-anchor="middle" x="83.5" y="-102.5" font-family="Helvetica,sans-Serif" font-size="10.00">SqshCurlMapper</text>
</a>
</g>
</g>
<!-- Node10&#45;&gt;Node4 -->
<g id="edge9" class="edge">
<title>Node10&#45;&gt;Node4</title>
<path fill="none" stroke="#9a32cd" stroke-dasharray="5,2" d="M154.68,-109.11C183.19,-113.92 214.8,-123.66 238,-143 252.35,-154.97 241.82,-168.82 256,-181 261.33,-185.57 267.72,-189.05 274.37,-191.68"/>
<polygon fill="#9a32cd" stroke="#9a32cd" points="155.15,-105.64 144.74,-107.6 154.11,-112.56 155.15,-105.64"/>
<text text-anchor="middle" x="211.5" y="-146" font-family="Helvetica,sans-Serif" font-size="10.00"> cl</text>
</g>
<!-- Node11 -->
<g id="node11" class="node">
<title>Node11</title>
<g id="a_node11"><a xlink:href="structSqshMmapFullMap.html" target="_top" xlink:title=" ">
<polygon fill="white" stroke="black" points="256,-152.5 256,-171.5 385,-171.5 385,-152.5 256,-152.5"/>
<text text-anchor="middle" x="320.5" y="-159.5" font-family="Helvetica,sans-Serif" font-size="10.00">SqshMmapFullMap</text>
</a>
</g>
</g>
<!-- Node11&#45;&gt;Node3 -->
<g id="edge10" class="edge">
<title>Node11&#45;&gt;Node3</title>
<path fill="none" stroke="#9a32cd" stroke-dasharray="5,2" d="M380.41,-150.35C404.11,-145.17 431.55,-138.53 456,-131 464.2,-128.47 465.9,-126.85 474,-124 483.17,-120.77 493.22,-117.49 502.42,-114.58"/>
<polygon fill="#9a32cd" stroke="#9a32cd" points="379.55,-146.96 370.51,-152.48 381.02,-153.8 379.55,-146.96"/>
<text text-anchor="middle" x="429.5" y="-147" font-family="Helvetica,sans-Serif" font-size="10.00"> mc</text>
</g>
<!-- Node12 -->
<g id="node12" class="node">
<title>Node12</title>
<g id="a_node12"><a xlink:href="structSqshMmapMap.html" target="_top" xlink:title=" ">
<polygon fill="white" stroke="black" points="271,-114.5 271,-133.5 370,-133.5 370,-114.5 271,-114.5"/>
<text text-anchor="middle" x="320.5" y="-121.5" font-family="Helvetica,sans-Serif" font-size="10.00">SqshMmapMap</text>
</a>
</g>
</g>
<!-- Node12&#45;&gt;Node3 -->
<g id="edge11" class="edge">
<title>Node12&#45;&gt;Node3</title>
<path fill="none" stroke="#9a32cd" stroke-dasharray="5,2" d="M380.26,-118.75C413.36,-115.79 454.21,-112.13 485.48,-109.34"/>
<polygon fill="#9a32cd" stroke="#9a32cd" points="379.9,-115.26 370.25,-119.64 380.52,-122.24 379.9,-115.26"/>
<text text-anchor="middle" x="429.5" y="-119" font-family="Helvetica,sans-Serif" font-size="10.00"> mm</text>
</g>
<!-- Node13 -->
<g id="node13" class="node">
<title>Node13</title>
<g id="a_node13"><a xlink:href="structSqshStaticMap.html" target="_top" xlink:title=" ">
<polygon fill="white" stroke="black" points="263.5,-76.5 263.5,-95.5 377.5,-95.5 377.5,-76.5 263.5,-76.5"/>
<text text-anchor="middle" x="320.5" y="-83.5" font-family="Helvetica,sans-Serif" font-size="10.00">SqshStaticMap</text>
</a>
</g>
</g>
<!-- Node13&#45;&gt;Node3 -->
<g id="edge12" class="edge">
<title>Node13&#45;&gt;Node3</title>
<path fill="none" stroke="#9a32cd" stroke-dasharray="5,2" d="M387.91,-91.16C409.62,-92.92 433.85,-94.96 456,-97 465.49,-97.87 475.62,-98.87 485.33,-99.85"/>
<polygon fill="#9a32cd" stroke="#9a32cd" points="388.05,-87.66 377.8,-90.34 387.49,-94.64 388.05,-87.66"/>
<text text-anchor="middle" x="429.5" y="-100" font-family="Helvetica,sans-Serif" font-size="10.00"> sm</text>
</g>
<!-- Node14 -->
<g id="node14" class="node">
<title>Node14</title>
<g id="a_node14"><a xlink:href="structSqshCanaryMap.html" target="_top" xlink:title=" ">
<polygon fill="white" stroke="black" points="263.5,-38.5 263.5,-57.5 377.5,-57.5 377.5,-38.5 263.5,-38.5"/>
<text text-anchor="middle" x="320.5" y="-45.5" font-family="Helvetica,sans-Serif" font-size="10.00">SqshCanaryMap</text>
</a>
</g>
</g>
<!-- Node14&#45;&gt;Node3 -->
<g id="edge13" class="edge">
<title>Node14&#45;&gt;Node3</title>
<path fill="none" stroke="#9a32cd" stroke-dasharray="5,2" d="M383.29,-59.54C406.28,-64.3 432.49,-70.28 456,-77 474.4,-82.26 494.73,-89.61 510.03,-95.46"/>
<polygon fill="#9a32cd" stroke="#9a32cd" points="383.81,-56.07 373.31,-57.5 382.41,-62.93 383.81,-56.07"/>
<text text-anchor="middle" x="429.5" y="-80" font-family="Helvetica,sans-Serif" font-size="10.00"> cn</text>
</g>
<!-- Node15 -->
<g id="node15" class="node">
<title>Node15</title>
<g id="a_node15"><a xlink:href="structSqshCurlMap.html" target="_top" xlink:title=" ">
<polygon fill="white" stroke="black" points="271,-0.5 271,-19.5 370,-19.5 370,-0.5 271,-0.5"/>
<text text-anchor="middle" x="320.5" y="-7.5" font-family="Helvetica,sans-Serif" font-size="10.00">SqshCurlMap</text>
</a>
</g>
</g>
<!-- Node15&#45;&gt;Node3 -->
<g id="edge14" class="edge">
<title>Node15&#45;&gt;Node3</title>
<path fill="none" stroke="#9a32cd" stroke-dasharray="5,2" d="M378.59,-21.98C403.13,-28.27 431.69,-37.18 456,-49 482.09,-61.68 508.75,-82.99 523.15,-95.35"/>
<polygon fill="#9a32cd" stroke="#9a32cd" points="379.25,-18.53 368.7,-19.52 377.56,-25.33 379.25,-18.53"/>
<text text-anchor="middle" x="429.5" y="-52" font-family="Helvetica,sans-Serif" font-size="10.00"> cl</text>
</g>
<!-- Node16 -->
<g id="node16" class="node">
<title>Node16</title>
<g id="a_node16"><a xlink:href="structSqshBuffer.html" target="_top" xlink:title="The SqshBuffer struct is a buffer for arbitrary data.">
<polygon fill="white" stroke="black" points="37.5,-0.5 37.5,-19.5 129.5,-19.5 129.5,-0.5 37.5,-0.5"/>
<text text-anchor="middle" x="83.5" y="-7.5" font-family="Helvetica,sans-Serif" font-size="10.00">SqshBuffer</text>
</a>
</g>
</g>
<!-- Node16&#45;&gt;Node15 -->
<g id="edge15" class="edge">
<title>Node16&#45;&gt;Node15</title>
<path fill="none" stroke="#9a32cd" stroke-dasharray="5,2" d="M139.61,-10C179.44,-10 232.75,-10 270.98,-10"/>
<polygon fill="#9a32cd" stroke="#9a32cd" points="139.53,-6.5 129.53,-10 139.53,-13.5 139.53,-6.5"/>
<text text-anchor="middle" x="211.5" y="-13" font-family="Helvetica,sans-Serif" font-size="10.00"> buffer</text>
</g>
</g>
</svg>
