<?xml version="1.0" encoding="UTF-8" standalone="no"?>
<!DOCTYPE svg PUBLIC "-//W3C//DTD SVG 1.1//EN"
 "http://www.w3.org/Graphics/SVG/1.1/DTD/svg11.dtd">
<!-- Generated by graphviz version 8.0.5 (20230430.1635)
 -->
<!-- Title: SqshMapper Pages: 1 -->
<svg width="455pt" height="1564498pt"
 viewBox="0.00 0.00 454.60 1564498.04" xmlns="http://www.w3.org/2000/svg" xmlns:xlink="http://www.w3.org/1999/xlink">
<g id="graph0" class="graph" transform="scale(1 1) rotate(0) translate(4 1564494.04)">
<title>SqshMapper</title>
<!-- Node1 -->
<g id="node1" class="node">
<title>Node1</title>
<g id="a_node1"><a xlink:title="The mapper that is used to map chunks of the archive into memory.">
<polygon fill="#999999" stroke="#666666" points="284.6,-18.5 193.6,-18.5 193.6,0 284.6,0 284.6,-18.5"/>
<text text-anchor="middle" x="239.1" y="-5" font-family="Helvetica,sans-Serif" font-size="10.00">SqshMapper</text>
</a>
</g>
</g>
<!-- Node2 -->
<g id="node2" class="node">
<title>Node2</title>
<g id="a_node2"><a xlink:href="structSqshMmapMapper.html" target="_top" xlink:title="The mmap mapper.">
<polygon fill="white" stroke="#666666" points="152.6,-1564490.04 31.6,-1564490.04 31.6,-782176.91 152.6,-782176.91 152.6,-1564490.04"/>
<text text-anchor="middle" x="92.1" y="-1564476.54" font-family="Helvetica,sans-Serif" font-size="10.00">SqshMmapMapper</text>
</a>
</g>
</g>
<!-- Node2&#45;&gt;Node1 -->
<g id="edge1" class="edge">
<title>Node2&#45;&gt;Node1</title>
<path fill="none" stroke="#9a32cd" stroke-dasharray="5,2" d="M31.1,-833685.34C-17.12,-487399.4 -39.95,-642.07 212.6,-36.5 215.49,-29.57 221.2,-23.53 226.59,-18.99"/>
<polygon fill="#9a32cd" stroke="#9a32cd" points="27.6,-833685.24 31.1,-833695.24 34.6,-833685.24 27.6,-833685.24"/>
<text text-anchor="middle" x="224.35" y="-391093.45" font-family="Helvetica,sans-Serif" font-size="10.00"> mm</text>
</g>
<!-- Node3 -->
<g id="node3" class="node">
<title>Node3</title>
<g id="a_node3"><a xlink:href="structSqshStaticMapper.html" target="_top" xlink:title="The static mapper.">
<polygon fill="white" stroke="#666666" points="307.1,-1564399.84 171.1,-1564399.84 171.1,-782267.11 307.1,-782267.11 307.1,-1564399.84"/>
<text text-anchor="middle" x="239.1" y="-1564386.34" font-family="Helvetica,sans-Serif" font-size="10.00">SqshStaticMapper</text>
</a>
</g>
</g>
<!-- Node3&#45;&gt;Node1 -->
<g id="edge2" class="edge">
<title>Node3&#45;&gt;Node1</title>
<path fill="none" stroke="#9a32cd" stroke-dasharray="5,2" d="M239.1,-782256.18C239.1,-441863.04 239.1,-2270.49 239.1,-18.93"/>
<polygon fill="#9a32cd" stroke="#9a32cd" points="235.6,-782255.9 239.1,-782265.9 242.6,-782255.9 235.6,-782255.9"/>
<text text-anchor="middle" x="250.35" y="-782149.41" font-family="Helvetica,sans-Serif" font-size="10.00"> sm</text>
</g>
<!-- Node4 -->
<g id="node4" class="node">
<title>Node4</title>
<g id="a_node4"><a xlink:href="structSqshCurlMapper.html" target="_top" xlink:title="The curl mapper.">
<polygon fill="white" stroke="#666666" points="446.6,-1564410.01 325.6,-1564410.01 325.6,-782256.94 446.6,-782256.94 446.6,-1564410.01"/>
<text text-anchor="middle" x="386.1" y="-1564396.51" font-family="Helvetica,sans-Serif" font-size="10.00">SqshCurlMapper</text>
</a>
</g>
</g>
<!-- Node4&#45;&gt;Node1 -->
<g id="edge3" class="edge">
<title>Node4&#45;&gt;Node1</title>
<path fill="none" stroke="#9a32cd" stroke-dasharray="5,2" d="M345.77,-782245.79C310.58,-440988.09 265.1,-36.5 265.1,-36.5 262.22,-29.5 256.47,-23.38 251.11,-18.81"/>
<polygon fill="#9a32cd" stroke="#9a32cd" points="342.27,-782245.54 345.77,-782255.53 349.27,-782245.53 342.27,-782245.54"/>
<text text-anchor="middle" x="356.35" y="-391093.45" font-family="Helvetica,sans-Serif" font-size="10.00"> cl</text>
</g>
</g>
</svg>
