<?xml version="1.0" encoding="UTF-8" standalone="no"?>
<!DOCTYPE svg PUBLIC "-//W3C//DTD SVG 1.1//EN"
 "http://www.w3.org/Graphics/SVG/1.1/DTD/svg11.dtd">
<!-- Generated by graphviz version 3.0.0 (20220413.0242)
 -->
<!-- Title: HsqsMetablockStreamContext Pages: 1 -->
<svg width="1881pt" height="443pt"
 viewBox="0.00 0.00 1881.00 443.00" xmlns="http://www.w3.org/2000/svg" xmlns:xlink="http://www.w3.org/1999/xlink">
<g id="graph0" class="graph" transform="scale(1 1) rotate(0) translate(4 439)">
<title>HsqsMetablockStreamContext</title>
<polygon fill="white" stroke="transparent" points="-4,4 -4,-439 1877,-439 1877,4 -4,4"/>
<!-- Node1 -->
<g id="node1" class="node">
<title>Node1</title>
<g id="a_node1"><a xlink:title=" ">
<polygon fill="#bfbfbf" stroke="black" points="1435,-0.5 1435,-19.5 1647,-19.5 1647,-0.5 1435,-0.5"/>
<text text-anchor="middle" x="1541" y="-7.5" font-family="Helvetica,sans-Serif" font-size="10.00">HsqsMetablockStreamContext</text>
</a>
</g>
</g>
<!-- Node2 -->
<g id="node2" class="node">
<title>Node2</title>
<g id="a_node2"><a xlink:href="structHsqs.html" target="_top" xlink:title=" ">
<polygon fill="white" stroke="black" points="1251,-195.5 1251,-214.5 1298,-214.5 1298,-195.5 1251,-195.5"/>
<text text-anchor="middle" x="1274.5" y="-202.5" font-family="Helvetica,sans-Serif" font-size="10.00">Hsqs</text>
</a>
</g>
</g>
<!-- Node2&#45;&gt;Node1 -->
<g id="edge1" class="edge">
<title>Node2&#45;&gt;Node1</title>
<path fill="none" stroke="#9a32cd" stroke-dasharray="5,2" d="M1282.65,-185.95C1289.77,-169.04 1302.08,-144.52 1319,-128 1376.1,-72.24 1464.89,-35.79 1510.6,-19.62"/>
<polygon fill="#9a32cd" stroke="#9a32cd" points="1279.36,-184.77 1278.9,-195.35 1285.86,-187.36 1279.36,-184.77"/>
<text text-anchor="middle" x="1368" y="-131" font-family="Helvetica,sans-Serif" font-size="10.00"> hsqs</text>
</g>
<!-- Node17 -->
<g id="node17" class="node">
<title>Node17</title>
<g id="a_node17"><a xlink:href="structHsqsTable.html" target="_top" xlink:title=" ">
<polygon fill="white" stroke="black" points="1499,-222.5 1499,-241.5 1583,-241.5 1583,-222.5 1499,-222.5"/>
<text text-anchor="middle" x="1541" y="-229.5" font-family="Helvetica,sans-Serif" font-size="10.00">HsqsTable</text>
</a>
</g>
</g>
<!-- Node2&#45;&gt;Node17 -->
<g id="edge19" class="edge">
<title>Node2&#45;&gt;Node17</title>
<path fill="none" stroke="#9a32cd" stroke-dasharray="5,2" d="M1294.33,-221.06C1301.56,-226.24 1310.2,-231.34 1319,-234 1379.41,-252.29 1453.44,-246.25 1498.64,-239.59"/>
<polygon fill="#9a32cd" stroke="#9a32cd" points="1296.06,-217.98 1286.01,-214.62 1291.77,-223.51 1296.06,-217.98"/>
<text text-anchor="middle" x="1368" y="-249" font-family="Helvetica,sans-Serif" font-size="10.00"> hsqs</text>
</g>
<!-- Node18 -->
<g id="node18" class="node">
<title>Node18</title>
<g id="a_node18"><a xlink:href="structHsqsXattrTable.html" target="_top" xlink:title=" ">
<polygon fill="white" stroke="black" points="1740,-147.5 1740,-166.5 1862,-166.5 1862,-147.5 1740,-147.5"/>
<text text-anchor="middle" x="1801" y="-154.5" font-family="Helvetica,sans-Serif" font-size="10.00">HsqsXattrTable</text>
</a>
</g>
</g>
<!-- Node2&#45;&gt;Node18 -->
<g id="edge23" class="edge">
<title>Node2&#45;&gt;Node18</title>
<path fill="none" stroke="#9a32cd" stroke-dasharray="5,2" d="M1308.18,-201.99C1311.83,-201.66 1315.5,-201.32 1319,-201 1470.35,-187.12 1648.5,-170.84 1739.63,-162.51"/>
<polygon fill="#9a32cd" stroke="#9a32cd" points="1307.71,-198.52 1298.08,-202.92 1308.36,-205.49 1307.71,-198.52"/>
<text text-anchor="middle" x="1541" y="-193" font-family="Helvetica,sans-Serif" font-size="10.00"> hsqs</text>
</g>
<!-- Node19 -->
<g id="node19" class="node">
<title>Node19</title>
<g id="a_node19"><a xlink:href="structHsqsFragmentTable.html" target="_top" xlink:title=" ">
<polygon fill="white" stroke="black" points="1729,-322.5 1729,-341.5 1873,-341.5 1873,-322.5 1729,-322.5"/>
<text text-anchor="middle" x="1801" y="-329.5" font-family="Helvetica,sans-Serif" font-size="10.00">HsqsFragmentTable</text>
</a>
</g>
</g>
<!-- Node2&#45;&gt;Node19 -->
<g id="edge29" class="edge">
<title>Node2&#45;&gt;Node19</title>
<path fill="none" stroke="#9a32cd" stroke-dasharray="5,2" d="M1284.99,-223.65C1292.46,-236.32 1304.09,-252.29 1319,-261 1353.76,-281.3 1603.77,-310.77 1728.96,-324.47"/>
<polygon fill="#9a32cd" stroke="#9a32cd" points="1288,-221.86 1280.11,-214.79 1281.87,-225.24 1288,-221.86"/>
<text text-anchor="middle" x="1541" y="-317" font-family="Helvetica,sans-Serif" font-size="10.00"> hsqs</text>
</g>
<!-- Node3 -->
<g id="node3" class="node">
<title>Node3</title>
<g id="a_node3"><a xlink:href="structHsqsMapper.html" target="_top" xlink:title=" ">
<polygon fill="white" stroke="black" points="259.5,-238.5 259.5,-257.5 351.5,-257.5 351.5,-238.5 259.5,-238.5"/>
<text text-anchor="middle" x="305.5" y="-245.5" font-family="Helvetica,sans-Serif" font-size="10.00">HsqsMapper</text>
</a>
</g>
</g>
<!-- Node3&#45;&gt;Node2 -->
<g id="edge2" class="edge">
<title>Node3&#45;&gt;Node2</title>
<path fill="none" stroke="#9a32cd" stroke-dasharray="5,2" d="M361.95,-246.26C485.96,-242.35 795.19,-232.57 1054,-224 1132.22,-221.41 1152.76,-230.64 1230,-218 1236.85,-216.88 1244.12,-214.99 1250.73,-213"/>
<polygon fill="#9a32cd" stroke="#9a32cd" points="361.46,-242.77 351.58,-246.58 361.68,-249.77 361.46,-242.77"/>
<text text-anchor="middle" x="756.5" y="-249" font-family="Helvetica,sans-Serif" font-size="10.00"> mapper</text>
<text text-anchor="middle" x="756.5" y="-238" font-family="Helvetica,sans-Serif" font-size="10.00">table_mapper</text>
</g>
<!-- Node11 -->
<g id="node11" class="node">
<title>Node11</title>
<g id="a_node11"><a xlink:href="structHsqsMapping.html" target="_top" xlink:title=" ">
<polygon fill="white" stroke="black" points="526.5,-142.5 526.5,-161.5 625.5,-161.5 625.5,-142.5 526.5,-142.5"/>
<text text-anchor="middle" x="576" y="-149.5" font-family="Helvetica,sans-Serif" font-size="10.00">HsqsMapping</text>
</a>
</g>
</g>
<!-- Node3&#45;&gt;Node11 -->
<g id="edge11" class="edge">
<title>Node3&#45;&gt;Node11</title>
<path fill="none" stroke="#9a32cd" stroke-dasharray="5,2" d="M342.88,-234.99C397.64,-215.41 500.01,-178.81 548.38,-161.52"/>
<polygon fill="#9a32cd" stroke="#9a32cd" points="341.46,-231.78 333.23,-238.44 343.82,-238.37 341.46,-231.78"/>
<text text-anchor="middle" x="414.5" y="-219" font-family="Helvetica,sans-Serif" font-size="10.00"> mapper</text>
</g>
<!-- Node3&#45;&gt;Node17 -->
<g id="edge20" class="edge">
<title>Node3&#45;&gt;Node17</title>
<path fill="none" stroke="#9a32cd" stroke-dasharray="5,2" d="M361.81,-255.64C370.56,-256.6 379.51,-257.44 388,-258 531.25,-267.42 567.44,-260.33 711,-261 1024.77,-262.46 1105.32,-297.25 1417,-261 1448.6,-257.33 1483.86,-248.51 1508.5,-241.56"/>
<polygon fill="#9a32cd" stroke="#9a32cd" points="362.02,-252.14 351.68,-254.46 361.21,-259.09 362.02,-252.14"/>
<text text-anchor="middle" x="937" y="-277" font-family="Helvetica,sans-Serif" font-size="10.00"> mapper</text>
</g>
<!-- Node4 -->
<g id="node4" class="node">
<title>Node4</title>
<g id="a_node4"><a xlink:href="structHsqsMemoryMapperImpl.html" target="_top" xlink:title=" ">
<polygon fill="white" stroke="black" points="0,-314.5 0,-333.5 167,-333.5 167,-314.5 0,-314.5"/>
<text text-anchor="middle" x="83.5" y="-321.5" font-family="Helvetica,sans-Serif" font-size="10.00">HsqsMemoryMapperImpl</text>
</a>
</g>
</g>
<!-- Node4&#45;&gt;Node3 -->
<g id="edge3" class="edge">
<title>Node4&#45;&gt;Node3</title>
<path fill="none" stroke="#9a32cd" stroke-dasharray="5,2" d="M141.5,-312.03C150.1,-309.89 158.83,-307.53 167,-305 209.95,-291.7 258.04,-270.15 284.44,-257.7"/>
<polygon fill="#9a32cd" stroke="#9a32cd" points="140.41,-308.7 131.51,-314.44 142.05,-315.5 140.41,-308.7"/>
<text text-anchor="middle" x="204" y="-301" font-family="Helvetica,sans-Serif" font-size="10.00"> impl</text>
</g>
<!-- Node5 -->
<g id="node5" class="node">
<title>Node5</title>
<g id="a_node5"><a xlink:href="structHsqsMmapFullMapper.html" target="_top" xlink:title=" ">
<polygon fill="white" stroke="black" points="7.5,-276.5 7.5,-295.5 159.5,-295.5 159.5,-276.5 7.5,-276.5"/>
<text text-anchor="middle" x="83.5" y="-283.5" font-family="Helvetica,sans-Serif" font-size="10.00">HsqsMmapFullMapper</text>
</a>
</g>
</g>
<!-- Node5&#45;&gt;Node3 -->
<g id="edge4" class="edge">
<title>Node5&#45;&gt;Node3</title>
<path fill="none" stroke="#9a32cd" stroke-dasharray="5,2" d="M153.21,-274.83C175.49,-271.15 200.31,-266.97 223,-263 234.76,-260.94 247.46,-258.64 259.26,-256.47"/>
<polygon fill="#9a32cd" stroke="#9a32cd" points="152.47,-271.41 143.17,-276.49 153.6,-278.31 152.47,-271.41"/>
<text text-anchor="middle" x="204" y="-271" font-family="Helvetica,sans-Serif" font-size="10.00"> mc</text>
</g>
<!-- Node6 -->
<g id="node6" class="node">
<title>Node6</title>
<g id="a_node6"><a xlink:href="structHsqsMmapMapper.html" target="_top" xlink:title=" ">
<polygon fill="white" stroke="black" points="22.5,-238.5 22.5,-257.5 144.5,-257.5 144.5,-238.5 22.5,-238.5"/>
<text text-anchor="middle" x="83.5" y="-245.5" font-family="Helvetica,sans-Serif" font-size="10.00">HsqsMmapMapper</text>
</a>
</g>
</g>
<!-- Node6&#45;&gt;Node3 -->
<g id="edge5" class="edge">
<title>Node6&#45;&gt;Node3</title>
<path fill="none" stroke="#9a32cd" stroke-dasharray="5,2" d="M155.04,-248C189.29,-248 229.42,-248 259.47,-248"/>
<polygon fill="#9a32cd" stroke="#9a32cd" points="154.62,-244.5 144.62,-248 154.62,-251.5 154.62,-244.5"/>
<text text-anchor="middle" x="204" y="-251" font-family="Helvetica,sans-Serif" font-size="10.00"> mm</text>
</g>
<!-- Node7 -->
<g id="node7" class="node">
<title>Node7</title>
<g id="a_node7"><a xlink:href="structHsqsStaticMapper.html" target="_top" xlink:title=" ">
<polygon fill="white" stroke="black" points="15,-200.5 15,-219.5 152,-219.5 152,-200.5 15,-200.5"/>
<text text-anchor="middle" x="83.5" y="-207.5" font-family="Helvetica,sans-Serif" font-size="10.00">HsqsStaticMapper</text>
</a>
</g>
</g>
<!-- Node7&#45;&gt;Node3 -->
<g id="edge6" class="edge">
<title>Node7&#45;&gt;Node3</title>
<path fill="none" stroke="#9a32cd" stroke-dasharray="5,2" d="M153.21,-221.17C175.49,-224.85 200.31,-229.03 223,-233 234.76,-235.06 247.46,-237.36 259.26,-239.53"/>
<polygon fill="#9a32cd" stroke="#9a32cd" points="153.6,-217.69 143.17,-219.51 152.47,-224.59 153.6,-217.69"/>
<text text-anchor="middle" x="204" y="-236" font-family="Helvetica,sans-Serif" font-size="10.00"> sm</text>
</g>
<!-- Node8 -->
<g id="node8" class="node">
<title>Node8</title>
<g id="a_node8"><a xlink:href="structHsqsCanaryMapper.html" target="_top" xlink:title=" ">
<polygon fill="white" stroke="black" points="15,-162.5 15,-181.5 152,-181.5 152,-162.5 15,-162.5"/>
<text text-anchor="middle" x="83.5" y="-169.5" font-family="Helvetica,sans-Serif" font-size="10.00">HsqsCanaryMapper</text>
</a>
</g>
</g>
<!-- Node8&#45;&gt;Node3 -->
<g id="edge7" class="edge">
<title>Node8&#45;&gt;Node3</title>
<path fill="none" stroke="#9a32cd" stroke-dasharray="5,2" d="M140.87,-183.93C149.67,-186.1 158.62,-188.47 167,-191 210.3,-204.04 258.66,-225.89 284.92,-238.41"/>
<polygon fill="#9a32cd" stroke="#9a32cd" points="141.57,-180.5 131.04,-181.58 139.95,-187.31 141.57,-180.5"/>
<text text-anchor="middle" x="204" y="-213" font-family="Helvetica,sans-Serif" font-size="10.00"> cn</text>
</g>
<!-- Node9 -->
<g id="node9" class="node">
<title>Node9</title>
<g id="a_node9"><a xlink:href="structHsqsCompression.html" target="_top" xlink:title=" ">
<polygon fill="white" stroke="black" points="872.5,-370.5 872.5,-389.5 1001.5,-389.5 1001.5,-370.5 872.5,-370.5"/>
<text text-anchor="middle" x="937" y="-377.5" font-family="Helvetica,sans-Serif" font-size="10.00">HsqsCompression</text>
</a>
</g>
</g>
<!-- Node9&#45;&gt;Node2 -->
<g id="edge8" class="edge">
<title>Node9&#45;&gt;Node2</title>
<path fill="none" stroke="#9a32cd" stroke-dasharray="5,2" d="M996.04,-368.19C1058.86,-353.13 1159.5,-322.18 1230,-267 1248.43,-252.57 1262.26,-228.23 1268.98,-214.74"/>
<polygon fill="#9a32cd" stroke="#9a32cd" points="995.23,-364.78 986.29,-370.47 996.83,-371.6 995.23,-364.78"/>
<text text-anchor="middle" x="1151" y="-360" font-family="Helvetica,sans-Serif" font-size="10.00"> data_compression</text>
<text text-anchor="middle" x="1151" y="-349" font-family="Helvetica,sans-Serif" font-size="10.00">metablock_compression</text>
</g>
<!-- Node9&#45;&gt;Node19 -->
<g id="edge30" class="edge">
<title>Node9&#45;&gt;Node19</title>
<path fill="none" stroke="#9a32cd" stroke-dasharray="5,2" d="M997.96,-391.23C1129.82,-413.61 1453.74,-455.8 1711,-385 1741.69,-376.55 1772.49,-354.45 1788.57,-341.61"/>
<polygon fill="#9a32cd" stroke="#9a32cd" points="998.5,-387.77 988.05,-389.53 997.31,-394.67 998.5,-387.77"/>
<text text-anchor="middle" x="1368" y="-427" font-family="Helvetica,sans-Serif" font-size="10.00"> compression</text>
</g>
<!-- Node10 -->
<g id="node10" class="node">
<title>Node10</title>
<g id="a_node10"><a xlink:href="structHsqsCompressionImplementation.html" target="_top" xlink:title=" ">
<polygon fill="white" stroke="black" points="459,-370.5 459,-389.5 693,-389.5 693,-370.5 459,-370.5"/>
<text text-anchor="middle" x="576" y="-377.5" font-family="Helvetica,sans-Serif" font-size="10.00">HsqsCompressionImplementation</text>
</a>
</g>
</g>
<!-- Node10&#45;&gt;Node9 -->
<g id="edge9" class="edge">
<title>Node10&#45;&gt;Node9</title>
<path fill="none" stroke="#9a32cd" stroke-dasharray="5,2" d="M703.27,-380C760.46,-380 825.57,-380 872.35,-380"/>
<polygon fill="#9a32cd" stroke="#9a32cd" points="703.06,-376.5 693.06,-380 703.06,-383.5 703.06,-376.5"/>
<text text-anchor="middle" x="756.5" y="-383" font-family="Helvetica,sans-Serif" font-size="10.00"> impl</text>
</g>
<!-- Node11&#45;&gt;Node2 -->
<g id="edge10" class="edge">
<title>Node11&#45;&gt;Node2</title>
<path fill="none" stroke="#9a32cd" stroke-dasharray="5,2" d="M635.52,-153.28C725.58,-155.6 903.52,-161.56 1054,-175 1126.21,-181.45 1211.09,-194.67 1250.83,-201.19"/>
<polygon fill="#9a32cd" stroke="#9a32cd" points="635.59,-149.78 625.5,-153.03 635.41,-156.78 635.59,-149.78"/>
<text text-anchor="middle" x="937" y="-178" font-family="Helvetica,sans-Serif" font-size="10.00"> table_map</text>
</g>
<!-- Node16 -->
<g id="node16" class="node">
<title>Node16</title>
<g id="a_node16"><a xlink:href="structHsqsSuperblockContext.html" target="_top" xlink:title=" ">
<polygon fill="white" stroke="black" points="850,-195.5 850,-214.5 1024,-214.5 1024,-195.5 850,-195.5"/>
<text text-anchor="middle" x="937" y="-202.5" font-family="Helvetica,sans-Serif" font-size="10.00">HsqsSuperblockContext</text>
</a>
</g>
</g>
<!-- Node11&#45;&gt;Node16 -->
<g id="edge17" class="edge">
<title>Node11&#45;&gt;Node16</title>
<path fill="none" stroke="#9a32cd" stroke-dasharray="5,2" d="M627.56,-163.75C652.56,-169.26 683.26,-175.57 711,-180 756.6,-187.28 807.74,-193.14 849.73,-197.36"/>
<polygon fill="#9a32cd" stroke="#9a32cd" points="628.09,-160.29 617.57,-161.53 626.57,-167.12 628.09,-160.29"/>
<text text-anchor="middle" x="756.5" y="-194" font-family="Helvetica,sans-Serif" font-size="10.00"> mapping</text>
</g>
<!-- Node11&#45;&gt;Node17 -->
<g id="edge21" class="edge">
<title>Node11&#45;&gt;Node17</title>
<path fill="none" stroke="#9a32cd" stroke-dasharray="5,2" d="M635.76,-144.36C816.83,-121.44 1357.68,-57.86 1417,-108 1450.49,-136.3 1405.07,-172.96 1435,-205 1451.19,-222.33 1476.88,-229.14 1498.79,-231.59"/>
<polygon fill="#9a32cd" stroke="#9a32cd" points="635.11,-140.92 625.63,-145.65 635.99,-147.86 635.11,-140.92"/>
<text text-anchor="middle" x="1151" y="-101" font-family="Helvetica,sans-Serif" font-size="10.00"> lookup_table</text>
</g>
<!-- Node11&#45;&gt;Node18 -->
<g id="edge24" class="edge">
<title>Node11&#45;&gt;Node18</title>
<path fill="none" stroke="#9a32cd" stroke-dasharray="5,2" d="M609.82,-138.8C672.26,-114.92 812.89,-67 936,-67 936,-67 936,-67 1542,-67 1638.78,-67 1745.15,-124.15 1784.37,-147.37"/>
<polygon fill="#9a32cd" stroke="#9a32cd" points="608.55,-135.54 600.49,-142.41 611.08,-142.07 608.55,-135.54"/>
<text text-anchor="middle" x="1274.5" y="-70" font-family="Helvetica,sans-Serif" font-size="10.00"> header</text>
</g>
<!-- Node12 -->
<g id="node12" class="node">
<title>Node12</title>
<g id="a_node12"><a xlink:href="structHsqsMmapFullMap.html" target="_top" xlink:title=" ">
<polygon fill="white" stroke="black" points="241,-104.5 241,-123.5 370,-123.5 370,-104.5 241,-104.5"/>
<text text-anchor="middle" x="305.5" y="-111.5" font-family="Helvetica,sans-Serif" font-size="10.00">HsqsMmapFullMap</text>
</a>
</g>
</g>
<!-- Node12&#45;&gt;Node11 -->
<g id="edge12" class="edge">
<title>Node12&#45;&gt;Node11</title>
<path fill="none" stroke="#9a32cd" stroke-dasharray="5,2" d="M380.15,-124.42C426.61,-131 485.32,-139.31 526.09,-145.08"/>
<polygon fill="#9a32cd" stroke="#9a32cd" points="380.52,-120.94 370.13,-123.01 379.54,-127.87 380.52,-120.94"/>
<text text-anchor="middle" x="414.5" y="-136" font-family="Helvetica,sans-Serif" font-size="10.00"> mc</text>
</g>
<!-- Node13 -->
<g id="node13" class="node">
<title>Node13</title>
<g id="a_node13"><a xlink:href="structHsqsMmapMap.html" target="_top" xlink:title=" ">
<polygon fill="white" stroke="black" points="256,-66.5 256,-85.5 355,-85.5 355,-66.5 256,-66.5"/>
<text text-anchor="middle" x="305.5" y="-73.5" font-family="Helvetica,sans-Serif" font-size="10.00">HsqsMmapMap</text>
</a>
</g>
</g>
<!-- Node13&#45;&gt;Node11 -->
<g id="edge13" class="edge">
<title>Node13&#45;&gt;Node11</title>
<path fill="none" stroke="#9a32cd" stroke-dasharray="5,2" d="M354.75,-88.03C380.43,-94.56 412.51,-102.94 441,-111 476.93,-121.17 517.95,-133.88 545.04,-142.43"/>
<polygon fill="#9a32cd" stroke="#9a32cd" points="355.43,-84.59 344.88,-85.53 353.71,-91.38 355.43,-84.59"/>
<text text-anchor="middle" x="414.5" y="-114" font-family="Helvetica,sans-Serif" font-size="10.00"> mm</text>
</g>
<!-- Node14 -->
<g id="node14" class="node">
<title>Node14</title>
<g id="a_node14"><a xlink:href="structHsqsStaticMap.html" target="_top" xlink:title=" ">
<polygon fill="white" stroke="black" points="248.5,-180.5 248.5,-199.5 362.5,-199.5 362.5,-180.5 248.5,-180.5"/>
<text text-anchor="middle" x="305.5" y="-187.5" font-family="Helvetica,sans-Serif" font-size="10.00">HsqsStaticMap</text>
</a>
</g>
</g>
<!-- Node14&#45;&gt;Node11 -->
<g id="edge14" class="edge">
<title>Node14&#45;&gt;Node11</title>
<path fill="none" stroke="#9a32cd" stroke-dasharray="5,2" d="M372.7,-180.63C420.31,-173.89 483.45,-164.96 526.44,-158.87"/>
<polygon fill="#9a32cd" stroke="#9a32cd" points="372.2,-177.17 362.79,-182.03 373.18,-184.1 372.2,-177.17"/>
<text text-anchor="middle" x="414.5" y="-180" font-family="Helvetica,sans-Serif" font-size="10.00"> sm</text>
</g>
<!-- Node15 -->
<g id="node15" class="node">
<title>Node15</title>
<g id="a_node15"><a xlink:href="structHsqsCanaryMap.html" target="_top" xlink:title=" ">
<polygon fill="white" stroke="black" points="248.5,-142.5 248.5,-161.5 362.5,-161.5 362.5,-142.5 248.5,-142.5"/>
<text text-anchor="middle" x="305.5" y="-149.5" font-family="Helvetica,sans-Serif" font-size="10.00">HsqsCanaryMap</text>
</a>
</g>
</g>
<!-- Node15&#45;&gt;Node11 -->
<g id="edge15" class="edge">
<title>Node15&#45;&gt;Node11</title>
<path fill="none" stroke="#9a32cd" stroke-dasharray="5,2" d="M373,-152C420.57,-152 483.54,-152 526.44,-152"/>
<polygon fill="#9a32cd" stroke="#9a32cd" points="372.79,-148.5 362.79,-152 372.79,-155.5 372.79,-148.5"/>
<text text-anchor="middle" x="414.5" y="-155" font-family="Helvetica,sans-Serif" font-size="10.00"> cn</text>
</g>
<!-- Node16&#45;&gt;Node2 -->
<g id="edge16" class="edge">
<title>Node16&#45;&gt;Node2</title>
<path fill="none" stroke="#9a32cd" stroke-dasharray="5,2" d="M1034.32,-202.9C1091.25,-202.02 1164.74,-201.5 1230,-203 1236.8,-203.16 1244.2,-203.45 1250.93,-203.76"/>
<polygon fill="#9a32cd" stroke="#9a32cd" points="1034.2,-199.4 1024.25,-203.06 1034.31,-206.4 1034.2,-199.4"/>
<text text-anchor="middle" x="1151" y="-206" font-family="Helvetica,sans-Serif" font-size="10.00"> superblock</text>
</g>
<!-- Node16&#45;&gt;Node19 -->
<g id="edge27" class="edge">
<title>Node16&#45;&gt;Node19</title>
<path fill="none" stroke="#9a32cd" stroke-dasharray="5,2" d="M1034.12,-211.71C1093.04,-218.78 1168.67,-233.27 1230,-263 1276.8,-285.69 1271.19,-318.51 1319,-339 1379.11,-364.76 1639.22,-351.12 1647,-351 1675.45,-350.56 1682.71,-352.12 1711,-349 1726.17,-347.33 1742.62,-344.48 1757.2,-341.59"/>
<polygon fill="#9a32cd" stroke="#9a32cd" points="1034.4,-208.22 1024.07,-210.56 1033.61,-215.18 1034.4,-208.22"/>
<text text-anchor="middle" x="1368" y="-355" font-family="Helvetica,sans-Serif" font-size="10.00"> superblock</text>
</g>
<!-- Node17&#45;&gt;Node2 -->
<g id="edge18" class="edge">
<title>Node17&#45;&gt;Node2</title>
<path fill="none" stroke="#9a32cd" stroke-dasharray="5,2" d="M1488.75,-222.35C1466.74,-218.55 1440.68,-214.5 1417,-212 1375.17,-207.58 1326.09,-205.94 1298.11,-205.34"/>
<polygon fill="#9a32cd" stroke="#9a32cd" points="1488.42,-225.85 1498.87,-224.13 1489.63,-218.95 1488.42,-225.85"/>
<text text-anchor="middle" x="1368" y="-226" font-family="Helvetica,sans-Serif" font-size="10.00"> export_table</text>
<text text-anchor="middle" x="1368" y="-215" font-family="Helvetica,sans-Serif" font-size="10.00">id_table</text>
</g>
<!-- Node17&#45;&gt;Node18 -->
<g id="edge25" class="edge">
<title>Node17&#45;&gt;Node18</title>
<path fill="none" stroke="#9a32cd" stroke-dasharray="5,2" d="M1593.28,-222.87C1627.1,-216.26 1672.17,-206.34 1711,-194 1735.24,-186.3 1762.07,-174.7 1779.87,-166.55"/>
<polygon fill="#9a32cd" stroke="#9a32cd" points="1592.32,-219.49 1583.16,-224.81 1593.64,-226.36 1592.32,-219.49"/>
<text text-anchor="middle" x="1688" y="-209" font-family="Helvetica,sans-Serif" font-size="10.00"> table</text>
</g>
<!-- Node17&#45;&gt;Node19 -->
<g id="edge28" class="edge">
<title>Node17&#45;&gt;Node19</title>
<path fill="none" stroke="#9a32cd" stroke-dasharray="5,2" d="M1593.63,-233.71C1628.15,-236.48 1673.88,-243.32 1711,-260 1744.9,-275.23 1776.76,-306.63 1791.48,-322.45"/>
<polygon fill="#9a32cd" stroke="#9a32cd" points="1593.52,-230.2 1583.3,-232.98 1593.02,-237.18 1593.52,-230.2"/>
<text text-anchor="middle" x="1688" y="-263" font-family="Helvetica,sans-Serif" font-size="10.00"> table</text>
</g>
<!-- Node18&#45;&gt;Node2 -->
<g id="edge22" class="edge">
<title>Node18&#45;&gt;Node2</title>
<path fill="none" stroke="#9a32cd" stroke-dasharray="5,2" d="M1729.74,-150.39C1656.14,-144.57 1537.25,-138.25 1435,-147 1382.87,-151.46 1366.24,-144.51 1319,-167 1304.88,-173.73 1291.81,-186.36 1283.76,-195.21"/>
<polygon fill="#9a32cd" stroke="#9a32cd" points="1729.56,-153.89 1739.81,-151.21 1730.13,-146.91 1729.56,-153.89"/>
<text text-anchor="middle" x="1541" y="-150" font-family="Helvetica,sans-Serif" font-size="10.00"> xattr_table</text>
</g>
<!-- Node19&#45;&gt;Node2 -->
<g id="edge26" class="edge">
<title>Node19&#45;&gt;Node2</title>
<path fill="none" stroke="#9a32cd" stroke-dasharray="5,2" d="M1718.31,-334.48C1589.53,-337.68 1350.65,-340.42 1319,-318 1284.35,-293.46 1277.3,-237.29 1275.86,-214.69"/>
<polygon fill="#9a32cd" stroke="#9a32cd" points="1718.61,-337.98 1728.52,-334.22 1718.43,-330.98 1718.61,-337.98"/>
<text text-anchor="middle" x="1541" y="-339" font-family="Helvetica,sans-Serif" font-size="10.00"> fragment_table</text>
</g>
<!-- Node20 -->
<g id="node20" class="node">
<title>Node20</title>
<g id="a_node20"><a xlink:href="structHsqsCompressionOptionsContext.html" target="_top" xlink:title=" ">
<polygon fill="white" stroke="black" points="820,-19.5 820,-38.5 1054,-38.5 1054,-19.5 820,-19.5"/>
<text text-anchor="middle" x="937" y="-26.5" font-family="Helvetica,sans-Serif" font-size="10.00">HsqsCompressionOptionsContext</text>
</a>
</g>
</g>
<!-- Node20&#45;&gt;Node2 -->
<g id="edge31" class="edge">
<title>Node20&#45;&gt;Node2</title>
<path fill="none" stroke="#9a32cd" stroke-dasharray="5,2" d="M956.66,-45.36C981.26,-65.94 1026.73,-100.68 1072,-118 1138.28,-143.36 1169.85,-103.35 1230,-141 1250.73,-153.97 1263.97,-180.85 1269.89,-195.3"/>
<polygon fill="#9a32cd" stroke="#9a32cd" points="958.75,-42.54 948.87,-38.73 954.21,-47.87 958.75,-42.54"/>
<text text-anchor="middle" x="1151" y="-144" font-family="Helvetica,sans-Serif" font-size="10.00"> compression_options</text>
</g>
<!-- Node21 -->
<g id="node21" class="node">
<title>Node21</title>
<g id="a_node21"><a xlink:href="structHsqsBuffer.html" target="_top" xlink:title=" ">
<polygon fill="white" stroke="black" points="530,-0.5 530,-19.5 622,-19.5 622,-0.5 530,-0.5"/>
<text text-anchor="middle" x="576" y="-7.5" font-family="Helvetica,sans-Serif" font-size="10.00">HsqsBuffer</text>
</a>
</g>
</g>
<!-- Node21&#45;&gt;Node1 -->
<g id="edge33" class="edge">
<title>Node21&#45;&gt;Node1</title>
<path fill="none" stroke="#9a32cd" stroke-dasharray="5,2" d="M632.42,-10C788.03,-10 1230.85,-10 1434.8,-10"/>
<polygon fill="#9a32cd" stroke="#9a32cd" points="632.16,-6.5 622.16,-10 632.16,-13.5 632.16,-6.5"/>
<text text-anchor="middle" x="1151" y="-13" font-family="Helvetica,sans-Serif" font-size="10.00"> buffer</text>
</g>
<!-- Node21&#45;&gt;Node20 -->
<g id="edge32" class="edge">
<title>Node21&#45;&gt;Node20</title>
<path fill="none" stroke="#9a32cd" stroke-dasharray="5,2" d="M632.34,-12.93C682.15,-15.56 756.96,-19.52 819.86,-22.85"/>
<polygon fill="#9a32cd" stroke="#9a32cd" points="632.28,-9.42 622.1,-12.39 631.91,-16.41 632.28,-9.42"/>
<text text-anchor="middle" x="756.5" y="-25" font-family="Helvetica,sans-Serif" font-size="10.00"> buffer</text>
</g>
</g>
</svg>
