<?xml version="1.0" encoding="UTF-8" standalone="no"?>
<!DOCTYPE svg PUBLIC "-//W3C//DTD SVG 1.1//EN"
 "http://www.w3.org/Graphics/SVG/1.1/DTD/svg11.dtd">
<!-- Generated by graphviz version 2.49.3 (20211027.1534)
 -->
<!-- Title: HsqsMetablockContext Pages: 1 -->
<!--zoomable 465 -->
<svg id="main" version="1.1" xmlns="http://www.w3.org/2000/svg" xmlns:xlink="http://www.w3.org/1999/xlink" xml:space="preserve" onload="init(evt)">
<style type="text/css"><![CDATA[
.edge:hover path { stroke: red; }
.edge:hover polygon { stroke: red; fill: red; }
]]></style>
<script type="text/javascript"><![CDATA[
var edges = document.getElementsByTagName('g');
if (edges && edges.length) {
  for (var i=0;i<edges.length;i++) {
    if (edges[i].id.substr(0,4)=='edge') {
      edges[i].setAttribute('class','edge');
    }
  }
}
]]></script>
        <defs>
                <circle id="rim" cx="0" cy="0" r="7"/>
                <circle id="rim2" cx="0" cy="0" r="3.5"/>
                <g id="zoomPlus">
                        <use xlink:href="#rim" fill="#404040">
                                <set attributeName="fill" to="#808080" begin="zoomplus.mouseover" end="zoomplus.mouseout"/>
                        </use>
                        <path d="M-4,0h8M0,-4v8" fill="none" stroke="white" stroke-width="1.5" pointer-events="none"/>
                </g>
                <g id="zoomMin">
                        <use xlink:href="#rim" fill="#404040">
                                <set attributeName="fill" to="#808080" begin="zoomminus.mouseover" end="zoomminus.mouseout"/>
                        </use>
                        <path d="M-4,0h8" fill="none" stroke="white" stroke-width="1.5" pointer-events="none"/>
                </g>
                <g id="dirArrow">
                        <path fill="none" stroke="white" stroke-width="1.5" d="M0,-3.0v7 M-2.5,-0.5L0,-3.0L2.5,-0.5"/>
                </g>
               <g id="resetDef">
                       <use xlink:href="#rim2" fill="#404040">
                               <set attributeName="fill" to="#808080" begin="reset.mouseover" end="reset.mouseout"/>
                       </use>
               </g>
        </defs>

<script type="text/javascript">
var viewWidth = 1799;
var viewHeight = 465;
var sectionId = 'dynsection-0';
</script>
<script xlink:href="svgpan.js"/>
<svg id="graph" class="graph">
<g id="viewport">
<title>HsqsMetablockContext</title>
<polygon fill="white" stroke="transparent" points="-4,4 -4,-461 1795,-461 1795,4 -4,4"/>
<!-- Node1 -->
<g id="node1" class="node">
<title>Node1</title>
<g id="a_node1"><a xlink:title=" ">
<polygon fill="#bfbfbf" stroke="black" points="1398,-57.5 1398,-76.5 1565,-76.5 1565,-57.5 1398,-57.5"/>
<text text-anchor="middle" x="1481.5" y="-64.5" font-family="Helvetica,sans-Serif" font-size="10.00">HsqsMetablockContext</text>
</a>
</g>
</g>
<!-- Node2 -->
<g id="node2" class="node">
<title>Node2</title>
<g id="a_node2"><a xlink:href="structHsqs.html" target="_top" xlink:title=" ">
<polygon fill="white" stroke="black" points="1214,-224.5 1214,-243.5 1261,-243.5 1261,-224.5 1214,-224.5"/>
<text text-anchor="middle" x="1237.5" y="-231.5" font-family="Helvetica,sans-Serif" font-size="10.00">Hsqs</text>
</a>
</g>
</g>
<!-- Node2&#45;&gt;Node1 -->
<g id="edge1" class="edge">
<title>Node2&#45;&gt;Node1</title>
<path fill="none" stroke="#9a32cd" stroke-dasharray="5,2" d="M1243.54,-214.61C1249.52,-195.53 1261.37,-166.99 1282,-151 1317.36,-123.59 1338.59,-144.93 1380,-128 1413.63,-114.25 1449.08,-90.13 1467.56,-76.71"/>
<polygon fill="#9a32cd" stroke="#9a32cd" points="1240.14,-213.77 1240.74,-224.35 1246.87,-215.7 1240.14,-213.77"/>
<text text-anchor="middle" x="1331" y="-154" font-family="Helvetica,sans-Serif" font-size="10.00"> hsqs</text>
</g>
<!-- Node15 -->
<g id="node15" class="node">
<title>Node15</title>
<g id="a_node15"><a xlink:href="structHsqsTable.html" target="_top" xlink:title=" ">
<polygon fill="white" stroke="black" points="1439.5,-258.5 1439.5,-277.5 1523.5,-277.5 1523.5,-258.5 1439.5,-258.5"/>
<text text-anchor="middle" x="1481.5" y="-265.5" font-family="Helvetica,sans-Serif" font-size="10.00">HsqsTable</text>
</a>
</g>
</g>
<!-- Node2&#45;&gt;Node15 -->
<g id="edge17" class="edge">
<title>Node2&#45;&gt;Node15</title>
<path fill="none" stroke="#9a32cd" stroke-dasharray="5,2" d="M1271.18,-233.17C1274.83,-233.1 1278.49,-233.04 1282,-233 1325.55,-232.5 1337.05,-225.74 1380,-233 1408.42,-237.81 1439.52,-249.75 1459.48,-258.35"/>
<polygon fill="#9a32cd" stroke="#9a32cd" points="1271,-229.67 1261.08,-233.38 1271.15,-236.67 1271,-229.67"/>
<text text-anchor="middle" x="1331" y="-236" font-family="Helvetica,sans-Serif" font-size="10.00"> hsqs</text>
</g>
<!-- Node16 -->
<g id="node16" class="node">
<title>Node16</title>
<g id="a_node16"><a xlink:href="structHsqsXattrTable.html" target="_top" xlink:title=" ">
<polygon fill="white" stroke="black" points="1658,-327.5 1658,-346.5 1780,-346.5 1780,-327.5 1658,-327.5"/>
<text text-anchor="middle" x="1719" y="-334.5" font-family="Helvetica,sans-Serif" font-size="10.00">HsqsXattrTable</text>
</a>
</g>
</g>
<!-- Node2&#45;&gt;Node16 -->
<g id="edge21" class="edge">
<title>Node2&#45;&gt;Node16</title>
<path fill="none" stroke="#9a32cd" stroke-dasharray="5,2" d="M1244.9,-252.98C1251.57,-269.88 1263.63,-294.03 1282,-308 1324.47,-340.31 1345.13,-331.77 1398,-339 1487.86,-351.29 1593.24,-347.1 1657.81,-342.44"/>
<polygon fill="#9a32cd" stroke="#9a32cd" points="1248.17,-251.74 1241.44,-243.55 1241.6,-254.15 1248.17,-251.74"/>
<text text-anchor="middle" x="1481.5" y="-350" font-family="Helvetica,sans-Serif" font-size="10.00"> hsqs</text>
</g>
<!-- Node17 -->
<g id="node17" class="node">
<title>Node17</title>
<g id="a_node17"><a xlink:href="structHsqsFragmentTable.html" target="_top" xlink:title=" ">
<polygon fill="white" stroke="black" points="1647,-182.5 1647,-201.5 1791,-201.5 1791,-182.5 1647,-182.5"/>
<text text-anchor="middle" x="1719" y="-189.5" font-family="Helvetica,sans-Serif" font-size="10.00">HsqsFragmentTable</text>
</a>
</g>
</g>
<!-- Node2&#45;&gt;Node17 -->
<g id="edge27" class="edge">
<title>Node2&#45;&gt;Node17</title>
<path fill="none" stroke="#9a32cd" stroke-dasharray="5,2" d="M1261.62,-218.95C1268.03,-215.28 1275.12,-211.65 1282,-209 1331.23,-190.08 1345.56,-189.59 1398,-184 1483.24,-174.92 1581.94,-179.69 1646.93,-184.91"/>
<polygon fill="#9a32cd" stroke="#9a32cd" points="1259.59,-216.09 1252.83,-224.25 1263.2,-222.08 1259.59,-216.09"/>
<text text-anchor="middle" x="1481.5" y="-187" font-family="Helvetica,sans-Serif" font-size="10.00"> hsqs</text>
</g>
<!-- Node3 -->
<g id="node3" class="node">
<title>Node3</title>
<g id="a_node3"><a xlink:href="structHsqsMapper.html" target="_top" xlink:title=" ">
<polygon fill="white" stroke="black" points="312,-342.5 312,-361.5 404,-361.5 404,-342.5 312,-342.5"/>
<text text-anchor="middle" x="358" y="-349.5" font-family="Helvetica,sans-Serif" font-size="10.00">HsqsMapper</text>
</a>
</g>
</g>
<!-- Node3&#45;&gt;Node2 -->
<g id="edge2" class="edge">
<title>Node3&#45;&gt;Node2</title>
<path fill="none" stroke="#9a32cd" stroke-dasharray="5,2" d="M408.89,-363.73C545.63,-392.98 933.44,-456.3 1193,-303 1215.68,-289.61 1228.37,-259.25 1233.61,-243.65"/>
<polygon fill="#9a32cd" stroke="#9a32cd" points="409.24,-360.22 398.72,-361.52 407.75,-367.06 409.24,-360.22"/>
<text text-anchor="middle" x="726.5" y="-415" font-family="Helvetica,sans-Serif" font-size="10.00"> mapper</text>
<text text-anchor="middle" x="726.5" y="-404" font-family="Helvetica,sans-Serif" font-size="10.00">table_mapper</text>
</g>
<!-- Node9 -->
<g id="node9" class="node">
<title>Node9</title>
<g id="a_node9"><a xlink:href="structHsqsMapping.html" target="_top" xlink:title=" ">
<polygon fill="white" stroke="black" points="564,-246.5 564,-265.5 663,-265.5 663,-246.5 564,-246.5"/>
<text text-anchor="middle" x="613.5" y="-253.5" font-family="Helvetica,sans-Serif" font-size="10.00">HsqsMapping</text>
</a>
</g>
</g>
<!-- Node3&#45;&gt;Node9 -->
<g id="edge9" class="edge">
<title>Node3&#45;&gt;Node9</title>
<path fill="none" stroke="#9a32cd" stroke-dasharray="5,2" d="M405.43,-339.7C443.81,-328.93 499.36,-311.9 546,-292 563.99,-284.32 583.57,-273.39 596.79,-265.59"/>
<polygon fill="#9a32cd" stroke="#9a32cd" points="404.27,-336.39 395.57,-342.44 406.15,-343.14 404.27,-336.39"/>
<text text-anchor="middle" x="519.5" y="-314" font-family="Helvetica,sans-Serif" font-size="10.00"> mapper</text>
</g>
<!-- Node3&#45;&gt;Node15 -->
<g id="edge18" class="edge">
<title>Node3&#45;&gt;Node15</title>
<path fill="none" stroke="#9a32cd" stroke-dasharray="5,2" d="M382.08,-366.91C425.4,-393.43 522.63,-446 612.5,-446 612.5,-446 612.5,-446 1238.5,-446 1333.71,-446 1317.64,-354.06 1398,-303 1414.68,-292.4 1435.11,-283.71 1451.47,-277.63"/>
<polygon fill="#9a32cd" stroke="#9a32cd" points="383.78,-363.85 373.44,-361.53 380.08,-369.79 383.78,-363.85"/>
<text text-anchor="middle" x="907" y="-449" font-family="Helvetica,sans-Serif" font-size="10.00"> mapper</text>
</g>
<!-- Node4 -->
<g id="node4" class="node">
<title>Node4</title>
<g id="a_node4"><a xlink:href="structHsqsMemoryMapperImpl.html" target="_top" xlink:title=" ">
<polygon fill="white" stroke="black" points="0,-418.5 0,-437.5 167,-437.5 167,-418.5 0,-418.5"/>
<text text-anchor="middle" x="83.5" y="-425.5" font-family="Helvetica,sans-Serif" font-size="10.00">HsqsMemoryMapperImpl</text>
</a>
</g>
</g>
<!-- Node4&#45;&gt;Node3 -->
<g id="edge3" class="edge">
<title>Node4&#45;&gt;Node3</title>
<path fill="none" stroke="#9a32cd" stroke-dasharray="5,2" d="M138.18,-416.17C147.81,-413.9 157.72,-411.46 167,-409 224.09,-393.88 289.96,-373.44 327.22,-361.59"/>
<polygon fill="#9a32cd" stroke="#9a32cd" points="137.25,-412.79 128.3,-418.47 138.84,-419.61 137.25,-412.79"/>
<text text-anchor="middle" x="204" y="-406" font-family="Helvetica,sans-Serif" font-size="10.00"> impl</text>
</g>
<!-- Node5 -->
<g id="node5" class="node">
<title>Node5</title>
<g id="a_node5"><a xlink:href="structHsqsMmapFullMapper.html" target="_top" xlink:title=" ">
<polygon fill="white" stroke="black" points="7.5,-380.5 7.5,-399.5 159.5,-399.5 159.5,-380.5 7.5,-380.5"/>
<text text-anchor="middle" x="83.5" y="-387.5" font-family="Helvetica,sans-Serif" font-size="10.00">HsqsMmapFullMapper</text>
</a>
</g>
</g>
<!-- Node5&#45;&gt;Node3 -->
<g id="edge4" class="edge">
<title>Node5&#45;&gt;Node3</title>
<path fill="none" stroke="#9a32cd" stroke-dasharray="5,2" d="M163.01,-379.05C211.21,-372.33 271.25,-363.96 311.66,-358.32"/>
<polygon fill="#9a32cd" stroke="#9a32cd" points="162.33,-375.61 152.91,-380.46 163.3,-382.55 162.33,-375.61"/>
<text text-anchor="middle" x="204" y="-378" font-family="Helvetica,sans-Serif" font-size="10.00"> mc</text>
</g>
<!-- Node6 -->
<g id="node6" class="node">
<title>Node6</title>
<g id="a_node6"><a xlink:href="structHsqsMmapMapper.html" target="_top" xlink:title=" ">
<polygon fill="white" stroke="black" points="22.5,-342.5 22.5,-361.5 144.5,-361.5 144.5,-342.5 22.5,-342.5"/>
<text text-anchor="middle" x="83.5" y="-349.5" font-family="Helvetica,sans-Serif" font-size="10.00">HsqsMmapMapper</text>
</a>
</g>
</g>
<!-- Node6&#45;&gt;Node3 -->
<g id="edge5" class="edge">
<title>Node6&#45;&gt;Node3</title>
<path fill="none" stroke="#9a32cd" stroke-dasharray="5,2" d="M154.64,-352C204.15,-352 269.04,-352 311.82,-352"/>
<polygon fill="#9a32cd" stroke="#9a32cd" points="154.64,-348.5 144.64,-352 154.64,-355.5 154.64,-348.5"/>
<text text-anchor="middle" x="204" y="-355" font-family="Helvetica,sans-Serif" font-size="10.00"> mm</text>
</g>
<!-- Node7 -->
<g id="node7" class="node">
<title>Node7</title>
<g id="a_node7"><a xlink:href="structHsqsStaticMapper.html" target="_top" xlink:title=" ">
<polygon fill="white" stroke="black" points="15,-304.5 15,-323.5 152,-323.5 152,-304.5 15,-304.5"/>
<text text-anchor="middle" x="83.5" y="-311.5" font-family="Helvetica,sans-Serif" font-size="10.00">HsqsStaticMapper</text>
</a>
</g>
</g>
<!-- Node7&#45;&gt;Node3 -->
<g id="edge6" class="edge">
<title>Node7&#45;&gt;Node3</title>
<path fill="none" stroke="#9a32cd" stroke-dasharray="5,2" d="M162.34,-324.85C210.73,-331.6 271.24,-340.04 311.84,-345.7"/>
<polygon fill="#9a32cd" stroke="#9a32cd" points="162.6,-321.36 152.21,-323.44 161.63,-328.29 162.6,-321.36"/>
<text text-anchor="middle" x="204" y="-336" font-family="Helvetica,sans-Serif" font-size="10.00"> sm</text>
</g>
<!-- Node8 -->
<g id="node8" class="node">
<title>Node8</title>
<g id="a_node8"><a xlink:href="structHsqsCanaryMapper.html" target="_top" xlink:title=" ">
<polygon fill="white" stroke="black" points="15,-266.5 15,-285.5 152,-285.5 152,-266.5 15,-266.5"/>
<text text-anchor="middle" x="83.5" y="-273.5" font-family="Helvetica,sans-Serif" font-size="10.00">HsqsCanaryMapper</text>
</a>
</g>
</g>
<!-- Node8&#45;&gt;Node3 -->
<g id="edge7" class="edge">
<title>Node8&#45;&gt;Node3</title>
<path fill="none" stroke="#9a32cd" stroke-dasharray="5,2" d="M138.18,-287.83C147.81,-290.1 157.72,-292.54 167,-295 224.09,-310.12 289.96,-330.56 327.22,-342.41"/>
<polygon fill="#9a32cd" stroke="#9a32cd" points="138.84,-284.39 128.3,-285.53 137.25,-291.21 138.84,-284.39"/>
<text text-anchor="middle" x="204" y="-312" font-family="Helvetica,sans-Serif" font-size="10.00"> cn</text>
</g>
<!-- Node9&#45;&gt;Node1 -->
<g id="edge31" class="edge">
<title>Node9&#45;&gt;Node1</title>
<path fill="none" stroke="#9a32cd" stroke-dasharray="5,2" d="M635.61,-240.32C648.29,-231.43 665.01,-220.6 681,-213 833.33,-140.6 876.37,-127.81 1042,-96 1164.32,-72.51 1308.95,-67.19 1397.7,-66.41"/>
<polygon fill="#9a32cd" stroke="#9a32cd" points="633.25,-237.71 627.16,-246.38 637.33,-243.4 633.25,-237.71"/>
<text text-anchor="middle" x="1117.5" y="-99" font-family="Helvetica,sans-Serif" font-size="10.00"> mapping</text>
</g>
<!-- Node9&#45;&gt;Node2 -->
<g id="edge8" class="edge">
<title>Node9&#45;&gt;Node2</title>
<path fill="none" stroke="#9a32cd" stroke-dasharray="5,2" d="M673.09,-257.62C777.77,-259.85 1003.69,-261.58 1193,-242 1199.72,-241.3 1206.96,-240.14 1213.57,-238.92"/>
<polygon fill="#9a32cd" stroke="#9a32cd" points="673.12,-254.12 663.04,-257.4 672.96,-261.12 673.12,-254.12"/>
<text text-anchor="middle" x="907" y="-261" font-family="Helvetica,sans-Serif" font-size="10.00"> table_map</text>
</g>
<!-- Node14 -->
<g id="node14" class="node">
<title>Node14</title>
<g id="a_node14"><a xlink:href="structHsqsSuperblockContext.html" target="_top" xlink:title=" ">
<polygon fill="white" stroke="black" points="820,-200.5 820,-219.5 994,-219.5 994,-200.5 820,-200.5"/>
<text text-anchor="middle" x="907" y="-207.5" font-family="Helvetica,sans-Serif" font-size="10.00">HsqsSuperblockContext</text>
</a>
</g>
</g>
<!-- Node9&#45;&gt;Node14 -->
<g id="edge15" class="edge">
<title>Node9&#45;&gt;Node14</title>
<path fill="none" stroke="#9a32cd" stroke-dasharray="5,2" d="M644.91,-242.62C656.06,-238.24 668.91,-233.78 681,-231 726.21,-220.59 777.66,-215.32 819.94,-212.65"/>
<polygon fill="#9a32cd" stroke="#9a32cd" points="643.56,-239.39 635.62,-246.41 646.2,-245.88 643.56,-239.39"/>
<text text-anchor="middle" x="726.5" y="-234" font-family="Helvetica,sans-Serif" font-size="10.00"> mapping</text>
</g>
<!-- Node9&#45;&gt;Node15 -->
<g id="edge19" class="edge">
<title>Node9&#45;&gt;Node15</title>
<path fill="none" stroke="#9a32cd" stroke-dasharray="5,2" d="M657.9,-267.85C665.55,-269.54 673.47,-271.02 681,-272 945.96,-306.34 1014.84,-282.11 1282,-285 1325.55,-285.47 1336.6,-288.64 1380,-285 1399.57,-283.36 1421.07,-279.94 1439.14,-276.6"/>
<polygon fill="#9a32cd" stroke="#9a32cd" points="658.6,-264.42 648.07,-265.56 657.01,-271.24 658.6,-264.42"/>
<text text-anchor="middle" x="1117.5" y="-291" font-family="Helvetica,sans-Serif" font-size="10.00"> lookup_table</text>
</g>
<!-- Node9&#45;&gt;Node16 -->
<g id="edge22" class="edge">
<title>Node9&#45;&gt;Node16</title>
<path fill="none" stroke="#9a32cd" stroke-dasharray="5,2" d="M618.21,-275.64C624.95,-305.27 642.27,-360.62 681,-386 764.81,-440.91 805.81,-400 906,-400 906,-400 906,-400 1482.5,-400 1564.18,-400 1656.56,-364.19 1697.07,-346.57"/>
<polygon fill="#9a32cd" stroke="#9a32cd" points="621.6,-274.74 616.12,-265.66 614.74,-276.17 621.6,-274.74"/>
<text text-anchor="middle" x="1237.5" y="-403" font-family="Helvetica,sans-Serif" font-size="10.00"> header</text>
</g>
<!-- Node10 -->
<g id="node10" class="node">
<title>Node10</title>
<g id="a_node10"><a xlink:href="structHsqsMmapFullMap.html" target="_top" xlink:title=" ">
<polygon fill="white" stroke="black" points="293.5,-170.5 293.5,-189.5 422.5,-189.5 422.5,-170.5 293.5,-170.5"/>
<text text-anchor="middle" x="358" y="-177.5" font-family="Helvetica,sans-Serif" font-size="10.00">HsqsMmapFullMap</text>
</a>
</g>
</g>
<!-- Node10&#45;&gt;Node9 -->
<g id="edge10" class="edge">
<title>Node10&#45;&gt;Node9</title>
<path fill="none" stroke="#9a32cd" stroke-dasharray="5,2" d="M432.86,-188.41C468.05,-194.05 510.17,-203.26 546,-218 564.94,-225.79 585.16,-237.96 598.26,-246.42"/>
<polygon fill="#9a32cd" stroke="#9a32cd" points="433.07,-184.9 422.66,-186.84 432.01,-191.82 433.07,-184.9"/>
<text text-anchor="middle" x="519.5" y="-221" font-family="Helvetica,sans-Serif" font-size="10.00"> mc</text>
</g>
<!-- Node11 -->
<g id="node11" class="node">
<title>Node11</title>
<g id="a_node11"><a xlink:href="structHsqsMmapMap.html" target="_top" xlink:title=" ">
<polygon fill="white" stroke="black" points="308.5,-284.5 308.5,-303.5 407.5,-303.5 407.5,-284.5 308.5,-284.5"/>
<text text-anchor="middle" x="358" y="-291.5" font-family="Helvetica,sans-Serif" font-size="10.00">HsqsMmapMap</text>
</a>
</g>
</g>
<!-- Node11&#45;&gt;Node9 -->
<g id="edge11" class="edge">
<title>Node11&#45;&gt;Node9</title>
<path fill="none" stroke="#9a32cd" stroke-dasharray="5,2" d="M417.68,-287.69C454.62,-283.41 503.23,-277.24 546,-270 553.68,-268.7 561.82,-267.14 569.67,-265.54"/>
<polygon fill="#9a32cd" stroke="#9a32cd" points="417.13,-284.23 407.59,-288.84 417.92,-291.18 417.13,-284.23"/>
<text text-anchor="middle" x="519.5" y="-280" font-family="Helvetica,sans-Serif" font-size="10.00"> mm</text>
</g>
<!-- Node12 -->
<g id="node12" class="node">
<title>Node12</title>
<g id="a_node12"><a xlink:href="structHsqsStaticMap.html" target="_top" xlink:title=" ">
<polygon fill="white" stroke="black" points="301,-246.5 301,-265.5 415,-265.5 415,-246.5 301,-246.5"/>
<text text-anchor="middle" x="358" y="-253.5" font-family="Helvetica,sans-Serif" font-size="10.00">HsqsStaticMap</text>
</a>
</g>
</g>
<!-- Node12&#45;&gt;Node9 -->
<g id="edge12" class="edge">
<title>Node12&#45;&gt;Node9</title>
<path fill="none" stroke="#9a32cd" stroke-dasharray="5,2" d="M425.43,-256C468.77,-256 524.38,-256 563.66,-256"/>
<polygon fill="#9a32cd" stroke="#9a32cd" points="425.26,-252.5 415.26,-256 425.26,-259.5 425.26,-252.5"/>
<text text-anchor="middle" x="519.5" y="-259" font-family="Helvetica,sans-Serif" font-size="10.00"> sm</text>
</g>
<!-- Node13 -->
<g id="node13" class="node">
<title>Node13</title>
<g id="a_node13"><a xlink:href="structHsqsCanaryMap.html" target="_top" xlink:title=" ">
<polygon fill="white" stroke="black" points="301,-208.5 301,-227.5 415,-227.5 415,-208.5 301,-208.5"/>
<text text-anchor="middle" x="358" y="-215.5" font-family="Helvetica,sans-Serif" font-size="10.00">HsqsCanaryMap</text>
</a>
</g>
</g>
<!-- Node13&#45;&gt;Node9 -->
<g id="edge13" class="edge">
<title>Node13&#45;&gt;Node9</title>
<path fill="none" stroke="#9a32cd" stroke-dasharray="5,2" d="M425.59,-224.56C461.41,-228.5 506.26,-234.09 546,-241 554.86,-242.54 564.32,-244.49 573.25,-246.47"/>
<polygon fill="#9a32cd" stroke="#9a32cd" points="425.59,-221.04 415.27,-223.44 424.83,-228 425.59,-221.04"/>
<text text-anchor="middle" x="519.5" y="-244" font-family="Helvetica,sans-Serif" font-size="10.00"> cn</text>
</g>
<!-- Node14&#45;&gt;Node2 -->
<g id="edge14" class="edge">
<title>Node14&#45;&gt;Node2</title>
<path fill="none" stroke="#9a32cd" stroke-dasharray="5,2" d="M1004.41,-217.04C1077.03,-222.35 1171.13,-229.22 1213.74,-232.34"/>
<polygon fill="#9a32cd" stroke="#9a32cd" points="1004.54,-213.54 994.31,-216.31 1004.03,-220.53 1004.54,-213.54"/>
<text text-anchor="middle" x="1117.5" y="-233" font-family="Helvetica,sans-Serif" font-size="10.00"> superblock</text>
</g>
<!-- Node14&#45;&gt;Node17 -->
<g id="edge25" class="edge">
<title>Node14&#45;&gt;Node17</title>
<path fill="none" stroke="#9a32cd" stroke-dasharray="5,2" d="M939.82,-196.55C1015.47,-166.14 1212.27,-96.14 1380,-115 1494.83,-127.91 1627.54,-164.77 1686.72,-182.39"/>
<polygon fill="#9a32cd" stroke="#9a32cd" points="938.32,-193.39 930.38,-200.4 940.96,-199.87 938.32,-193.39"/>
<text text-anchor="middle" x="1331" y="-118" font-family="Helvetica,sans-Serif" font-size="10.00"> superblock</text>
</g>
<!-- Node15&#45;&gt;Node2 -->
<g id="edge16" class="edge">
<title>Node15&#45;&gt;Node2</title>
<path fill="none" stroke="#9a32cd" stroke-dasharray="5,2" d="M1429.04,-264.55C1388.77,-261.31 1331.49,-255.51 1282,-246 1275.23,-244.7 1267.97,-242.88 1261.37,-241.04"/>
<polygon fill="#9a32cd" stroke="#9a32cd" points="1428.91,-268.05 1439.16,-265.34 1429.46,-261.07 1428.91,-268.05"/>
<text text-anchor="middle" x="1331" y="-273" font-family="Helvetica,sans-Serif" font-size="10.00"> export_table</text>
<text text-anchor="middle" x="1331" y="-262" font-family="Helvetica,sans-Serif" font-size="10.00">id_table</text>
</g>
<!-- Node15&#45;&gt;Node16 -->
<g id="edge23" class="edge">
<title>Node15&#45;&gt;Node16</title>
<path fill="none" stroke="#9a32cd" stroke-dasharray="5,2" d="M1533.97,-270.93C1562.52,-273.65 1598.36,-278.9 1629,-289 1657.18,-298.29 1686.94,-316.23 1703.91,-327.36"/>
<polygon fill="#9a32cd" stroke="#9a32cd" points="1534.07,-267.43 1523.8,-270.04 1533.46,-274.4 1534.07,-267.43"/>
<text text-anchor="middle" x="1606" y="-292" font-family="Helvetica,sans-Serif" font-size="10.00"> table</text>
</g>
<!-- Node15&#45;&gt;Node17 -->
<g id="edge26" class="edge">
<title>Node15&#45;&gt;Node17</title>
<path fill="none" stroke="#9a32cd" stroke-dasharray="5,2" d="M1530.57,-255.87C1559.35,-248.28 1596.52,-237.9 1629,-227 1651.98,-219.29 1677.7,-208.99 1695.55,-201.56"/>
<polygon fill="#9a32cd" stroke="#9a32cd" points="1529.56,-252.52 1520.77,-258.43 1531.33,-259.29 1529.56,-252.52"/>
<text text-anchor="middle" x="1606" y="-243" font-family="Helvetica,sans-Serif" font-size="10.00"> table</text>
</g>
<!-- Node16&#45;&gt;Node2 -->
<g id="edge20" class="edge">
<title>Node16&#45;&gt;Node2</title>
<path fill="none" stroke="#9a32cd" stroke-dasharray="5,2" d="M1647.54,-331.42C1532.39,-321.89 1313.47,-301.86 1282,-285 1264.35,-275.55 1250.78,-255.78 1243.78,-243.82"/>
<polygon fill="#9a32cd" stroke="#9a32cd" points="1647.42,-334.92 1657.67,-332.26 1647.99,-327.95 1647.42,-334.92"/>
<text text-anchor="middle" x="1481.5" y="-327" font-family="Helvetica,sans-Serif" font-size="10.00"> xattr_table</text>
</g>
<!-- Node17&#45;&gt;Node2 -->
<g id="edge24" class="edge">
<title>Node17&#45;&gt;Node2</title>
<path fill="none" stroke="#9a32cd" stroke-dasharray="5,2" d="M1636.55,-195.04C1548.71,-199.04 1404.92,-207.7 1282,-225 1275.28,-225.95 1268.04,-227.3 1261.43,-228.68"/>
<polygon fill="#9a32cd" stroke="#9a32cd" points="1636.88,-198.53 1646.71,-194.58 1636.56,-191.53 1636.88,-198.53"/>
<text text-anchor="middle" x="1481.5" y="-214" font-family="Helvetica,sans-Serif" font-size="10.00"> fragment_table</text>
</g>
<!-- Node18 -->
<g id="node18" class="node">
<title>Node18</title>
<g id="a_node18"><a xlink:href="structHsqsCompressionOptionsContext.html" target="_top" xlink:title=" ">
<polygon fill="white" stroke="black" points="790,-19.5 790,-38.5 1024,-38.5 1024,-19.5 790,-19.5"/>
<text text-anchor="middle" x="907" y="-26.5" font-family="Helvetica,sans-Serif" font-size="10.00">HsqsCompressionOptionsContext</text>
</a>
</g>
</g>
<!-- Node18&#45;&gt;Node2 -->
<g id="edge28" class="edge">
<title>Node18&#45;&gt;Node2</title>
<path fill="none" stroke="#9a32cd" stroke-dasharray="5,2" d="M933.08,-43.79C983.06,-73.4 1098.38,-142.38 1193,-204 1203.15,-210.61 1214.4,-218.38 1222.91,-224.35"/>
<polygon fill="#9a32cd" stroke="#9a32cd" points="934.65,-40.65 924.26,-38.57 931.08,-46.68 934.65,-40.65"/>
<text text-anchor="middle" x="1117.5" y="-207" font-family="Helvetica,sans-Serif" font-size="10.00"> compression_options</text>
</g>
<!-- Node19 -->
<g id="node19" class="node">
<title>Node19</title>
<g id="a_node19"><a xlink:href="structHsqsBuffer.html" target="_top" xlink:title=" ">
<polygon fill="white" stroke="black" points="567.5,-0.5 567.5,-19.5 659.5,-19.5 659.5,-0.5 567.5,-0.5"/>
<text text-anchor="middle" x="613.5" y="-7.5" font-family="Helvetica,sans-Serif" font-size="10.00">HsqsBuffer</text>
</a>
</g>
</g>
<!-- Node19&#45;&gt;Node1 -->
<g id="edge32" class="edge">
<title>Node19&#45;&gt;Node1</title>
<path fill="none" stroke="#9a32cd" stroke-dasharray="5,2" d="M669.87,-7.89C748.64,-5.38 897.51,-2.39 1024,-10 1183.08,-19.57 1221.96,-32.45 1380,-53 1390.83,-54.41 1402.31,-55.96 1413.49,-57.49"/>
<polygon fill="#9a32cd" stroke="#9a32cd" points="669.58,-4.4 659.7,-8.23 669.81,-11.4 669.58,-4.4"/>
<text text-anchor="middle" x="1117.5" y="-29" font-family="Helvetica,sans-Serif" font-size="10.00"> buffer</text>
</g>
<!-- Node19&#45;&gt;Node18 -->
<g id="edge29" class="edge">
<title>Node19&#45;&gt;Node18</title>
<path fill="none" stroke="#9a32cd" stroke-dasharray="5,2" d="M669.89,-13.61C703.79,-15.82 748.46,-18.73 789.82,-21.43"/>
<polygon fill="#9a32cd" stroke="#9a32cd" points="669.93,-10.11 659.73,-12.95 669.48,-17.09 669.93,-10.11"/>
<text text-anchor="middle" x="726.5" y="-24" font-family="Helvetica,sans-Serif" font-size="10.00"> buffer</text>
</g>
<!-- Node20 -->
<g id="node20" class="node">
<title>Node20</title>
<g id="a_node20"><a xlink:href="structHsqsCompressionImplementation.html" target="_top" xlink:title=" ">
<polygon fill="white" stroke="black" points="241,-0.5 241,-19.5 475,-19.5 475,-0.5 241,-0.5"/>
<text text-anchor="middle" x="358" y="-7.5" font-family="Helvetica,sans-Serif" font-size="10.00">HsqsCompressionImplementation</text>
</a>
</g>
</g>
<!-- Node20&#45;&gt;Node19 -->
<g id="edge30" class="edge">
<title>Node20&#45;&gt;Node19</title>
<path fill="none" stroke="#9a32cd" stroke-dasharray="5,2" d="M485.72,-10C515.03,-10 544.35,-10 567.39,-10"/>
<polygon fill="#9a32cd" stroke="#9a32cd" points="485.36,-6.5 475.36,-10 485.36,-13.5 485.36,-6.5"/>
<text text-anchor="middle" x="519.5" y="-13" font-family="Helvetica,sans-Serif" font-size="10.00"> impl</text>
</g>
</g>
</svg>
        <g id="navigator" transform="translate(0 0)" fill="#404254">
                <rect fill="#f2f5e9" fill-opacity="0.5" stroke="#606060" stroke-width=".5" x="0" y="0" width="60" height="60"/>
                <use id="zoomplus" xlink:href="#zoomPlus" x="17" y="9" onmousedown="handleZoom(evt,'in')"/>
                <use id="zoomminus" xlink:href="#zoomMin" x="42" y="9" onmousedown="handleZoom(evt,'out')"/>
                <use id="reset" xlink:href="#resetDef" x="30" y="36" onmousedown="handleReset()"/>
                <g id="arrowUp" xlink:href="#dirArrow" transform="translate(30 24)" onmousedown="handlePan(0,-1)">
                  <use xlink:href="#rim" fill="#404040">
                        <set attributeName="fill" to="#808080" begin="arrowUp.mouseover" end="arrowUp.mouseout"/>
                  </use>
                  <path fill="none" stroke="white" stroke-width="1.5" d="M0,-3.0v7 M-2.5,-0.5L0,-3.0L2.5,-0.5"/>
                </g>
                <g id="arrowRight" xlink:href="#dirArrow" transform="rotate(90) translate(36 -43)" onmousedown="handlePan(1,0)">
                  <use xlink:href="#rim" fill="#404040">
                        <set attributeName="fill" to="#808080" begin="arrowRight.mouseover" end="arrowRight.mouseout"/>
                  </use>
                  <path fill="none" stroke="white" stroke-width="1.5" d="M0,-3.0v7 M-2.5,-0.5L0,-3.0L2.5,-0.5"/>
                </g>
                <g id="arrowDown" xlink:href="#dirArrow" transform="rotate(180) translate(-30 -48)" onmousedown="handlePan(0,1)">
                  <use xlink:href="#rim" fill="#404040">
                        <set attributeName="fill" to="#808080" begin="arrowDown.mouseover" end="arrowDown.mouseout"/>
                  </use>
                  <path fill="none" stroke="white" stroke-width="1.5" d="M0,-3.0v7 M-2.5,-0.5L0,-3.0L2.5,-0.5"/>
                </g>
                <g id="arrowLeft" xlink:href="#dirArrow" transform="rotate(270) translate(-36 17)" onmousedown="handlePan(-1,0)">
                  <use xlink:href="#rim" fill="#404040">
                        <set attributeName="fill" to="#808080" begin="arrowLeft.mouseover" end="arrowLeft.mouseout"/>
                  </use>
                  <path fill="none" stroke="white" stroke-width="1.5" d="M0,-3.0v7 M-2.5,-0.5L0,-3.0L2.5,-0.5"/>
                </g>
        </g>
        <svg viewBox="0 0 15 15" width="100%" height="30px" preserveAspectRatio="xMaxYMin meet">
         <g id="arrow_out" transform="scale(0.3 0.3)">
          <a xlink:href="structHsqsMetablockContext__coll__graph_org.svg" target="_base">
           <rect id="button" ry="5" rx="5" y="6" x="6" height="38" width="38"
                fill="#f2f5e9" fill-opacity="0.5" stroke="#606060" stroke-width="1.0"/>
           <path id="arrow"
             d="M 11.500037,31.436501 C 11.940474,20.09759 22.043105,11.32322 32.158766,21.979434 L 37.068811,17.246167 C 37.068811,17.246167 37.088388,32 37.088388,32 L 22.160133,31.978069 C 22.160133,31.978069 26.997745,27.140456 26.997745,27.140456 C 18.528582,18.264221 13.291696,25.230495 11.500037,31.436501 z"
             style="fill:#404040;"/>
          </a>
         </g>
        </svg>
</svg>
