<?xml version="1.0" encoding="UTF-8" standalone="no"?>
<!DOCTYPE svg PUBLIC "-//W3C//DTD SVG 1.1//EN"
 "http://www.w3.org/Graphics/SVG/1.1/DTD/svg11.dtd">
<!-- Generated by graphviz version 3.0.0 (20220413.0242)
 -->
<!-- Title: SqshInodeDirectoryIndexIterator Pages: 1 -->
<svg width="2438pt" height="489pt"
 viewBox="0.00 0.00 2438.00 489.00" xmlns="http://www.w3.org/2000/svg" xmlns:xlink="http://www.w3.org/1999/xlink">
<g id="graph0" class="graph" transform="scale(1 1) rotate(0) translate(4 485)">
<title>SqshInodeDirectoryIndexIterator</title>
<polygon fill="white" stroke="transparent" points="-4,4 -4,-485 2434,-485 2434,4 -4,4"/>
<!-- Node1 -->
<g id="node1" class="node">
<title>Node1</title>
<g id="a_node1"><a xlink:title=" ">
<polygon fill="#bfbfbf" stroke="black" points="2181,-208.5 2181,-227.5 2430,-227.5 2430,-208.5 2181,-208.5"/>
<text text-anchor="middle" x="2305.5" y="-215.5" font-family="Helvetica,sans-Serif" font-size="10.00">SqshInodeDirectoryIndexIterator</text>
</a>
</g>
</g>
<!-- Node2 -->
<g id="node2" class="node">
<title>Node2</title>
<g id="a_node2"><a xlink:href="structSqshInodeContext.html" target="_top" xlink:title="Inode context.">
<polygon fill="white" stroke="black" points="1958.5,-208.5 1958.5,-227.5 2095.5,-227.5 2095.5,-208.5 1958.5,-208.5"/>
<text text-anchor="middle" x="2027" y="-215.5" font-family="Helvetica,sans-Serif" font-size="10.00">SqshInodeContext</text>
</a>
</g>
</g>
<!-- Node2&#45;&gt;Node1 -->
<g id="edge1" class="edge">
<title>Node2&#45;&gt;Node1</title>
<path fill="none" stroke="#9a32cd" stroke-dasharray="5,2" d="M2105.8,-218C2129.15,-218 2155.36,-218 2180.9,-218"/>
<polygon fill="#9a32cd" stroke="#9a32cd" points="2105.64,-214.5 2095.64,-218 2105.64,-221.5 2105.64,-214.5"/>
<text text-anchor="middle" x="2140" y="-221" font-family="Helvetica,sans-Serif" font-size="10.00"> inode</text>
</g>
<!-- Node3 -->
<g id="node3" class="node">
<title>Node3</title>
<g id="a_node3"><a xlink:href="structSqshMetablockStreamContext.html" target="_top" xlink:title=" ">
<polygon fill="white" stroke="black" points="1631,-150.5 1631,-169.5 1843,-169.5 1843,-150.5 1631,-150.5"/>
<text text-anchor="middle" x="1737" y="-157.5" font-family="Helvetica,sans-Serif" font-size="10.00">SqshMetablockStreamContext</text>
</a>
</g>
</g>
<!-- Node3&#45;&gt;Node2 -->
<g id="edge2" class="edge">
<title>Node3&#45;&gt;Node2</title>
<path fill="none" stroke="#9a32cd" stroke-dasharray="5,2" d="M1853.41,-155.47C1881.18,-156.88 1910.48,-160.49 1937,-168 1966.67,-176.4 1997.12,-196.48 2013.59,-208.48"/>
<polygon fill="#9a32cd" stroke="#9a32cd" points="1853.39,-151.97 1843.25,-155.05 1853.1,-158.96 1853.39,-151.97"/>
<text text-anchor="middle" x="1899" y="-171" font-family="Helvetica,sans-Serif" font-size="10.00"> metablock</text>
</g>
<!-- Node4 -->
<g id="node4" class="node">
<title>Node4</title>
<g id="a_node4"><a xlink:href="structSqsh.html" target="_top" xlink:title=" ">
<polygon fill="white" stroke="black" points="1447,-201.5 1447,-220.5 1494,-220.5 1494,-201.5 1447,-201.5"/>
<text text-anchor="middle" x="1470.5" y="-208.5" font-family="Helvetica,sans-Serif" font-size="10.00">Sqsh</text>
</a>
</g>
</g>
<!-- Node4&#45;&gt;Node2 -->
<g id="edge41" class="edge">
<title>Node4&#45;&gt;Node2</title>
<path fill="none" stroke="#9a32cd" stroke-dasharray="5,2" d="M1492.99,-226.05C1499.73,-230.01 1507.41,-233.8 1515,-236 1695.24,-288.31 1752.28,-284.14 1937,-251 1961.82,-246.55 1988.76,-235.63 2006.42,-227.57"/>
<polygon fill="#9a32cd" stroke="#9a32cd" points="1494.78,-223.04 1484.46,-220.66 1491.04,-228.96 1494.78,-223.04"/>
<text text-anchor="middle" x="1737" y="-278" font-family="Helvetica,sans-Serif" font-size="10.00"> sqsh</text>
</g>
<!-- Node4&#45;&gt;Node3 -->
<g id="edge3" class="edge">
<title>Node4&#45;&gt;Node3</title>
<path fill="none" stroke="#9a32cd" stroke-dasharray="5,2" d="M1486.15,-193.78C1493.87,-185.98 1504,-177.5 1515,-173 1551.02,-158.26 1593.11,-153.15 1630.85,-152.35"/>
<polygon fill="#9a32cd" stroke="#9a32cd" points="1483.51,-191.48 1479.3,-201.2 1488.66,-196.23 1483.51,-191.48"/>
<text text-anchor="middle" x="1564" y="-176" font-family="Helvetica,sans-Serif" font-size="10.00"> sqsh</text>
</g>
<!-- Node23 -->
<g id="node23" class="node">
<title>Node23</title>
<g id="a_node23"><a xlink:href="structSqshTable.html" target="_top" xlink:title=" ">
<polygon fill="white" stroke="black" points="1695,-198.5 1695,-217.5 1779,-217.5 1779,-198.5 1695,-198.5"/>
<text text-anchor="middle" x="1737" y="-205.5" font-family="Helvetica,sans-Serif" font-size="10.00">SqshTable</text>
</a>
</g>
</g>
<!-- Node4&#45;&gt;Node23 -->
<g id="edge25" class="edge">
<title>Node4&#45;&gt;Node23</title>
<path fill="none" stroke="#9a32cd" stroke-dasharray="5,2" d="M1501.06,-197.77C1505.65,-196.21 1510.39,-194.87 1515,-194 1576.96,-182.32 1650.23,-191.35 1694.89,-199.35"/>
<polygon fill="#9a32cd" stroke="#9a32cd" points="1499.51,-194.62 1491.4,-201.43 1501.99,-201.16 1499.51,-194.62"/>
<text text-anchor="middle" x="1564" y="-197" font-family="Helvetica,sans-Serif" font-size="10.00"> sqsh</text>
</g>
<!-- Node24 -->
<g id="node24" class="node">
<title>Node24</title>
<g id="a_node24"><a xlink:href="structSqshXattrTable.html" target="_top" xlink:title=" ">
<polygon fill="white" stroke="black" points="1966,-69.5 1966,-88.5 2088,-88.5 2088,-69.5 1966,-69.5"/>
<text text-anchor="middle" x="2027" y="-76.5" font-family="Helvetica,sans-Serif" font-size="10.00">SqshXattrTable</text>
</a>
</g>
</g>
<!-- Node4&#45;&gt;Node24 -->
<g id="edge29" class="edge">
<title>Node4&#45;&gt;Node24</title>
<path fill="none" stroke="#9a32cd" stroke-dasharray="5,2" d="M1475.16,-191.36C1480.31,-169.13 1491.77,-133.24 1515,-112 1555.15,-75.3 1577.32,-81.78 1631,-73 1748.43,-53.79 1888.12,-63.37 1965.96,-71.55"/>
<polygon fill="#9a32cd" stroke="#9a32cd" points="1471.7,-190.82 1473.07,-201.33 1478.55,-192.26 1471.7,-190.82"/>
<text text-anchor="middle" x="1737" y="-76" font-family="Helvetica,sans-Serif" font-size="10.00"> sqsh</text>
</g>
<!-- Node5 -->
<g id="node5" class="node">
<title>Node5</title>
<g id="a_node5"><a xlink:href="structSqshMapper.html" target="_top" xlink:title=" ">
<polygon fill="white" stroke="black" points="274.5,-308.5 274.5,-327.5 366.5,-327.5 366.5,-308.5 274.5,-308.5"/>
<text text-anchor="middle" x="320.5" y="-315.5" font-family="Helvetica,sans-Serif" font-size="10.00">SqshMapper</text>
</a>
</g>
</g>
<!-- Node5&#45;&gt;Node4 -->
<g id="edge4" class="edge">
<title>Node5&#45;&gt;Node4</title>
<path fill="none" stroke="#9a32cd" stroke-dasharray="5,2" d="M377.06,-313.73C499.91,-304.21 803.86,-280.16 1058,-256 1221.73,-240.43 1262.74,-236.91 1426,-217 1432.81,-216.17 1440.21,-215.18 1446.94,-214.25"/>
<polygon fill="#9a32cd" stroke="#9a32cd" points="376.49,-310.27 366.79,-314.53 377.03,-317.25 376.49,-310.27"/>
<text text-anchor="middle" x="982.5" y="-283" font-family="Helvetica,sans-Serif" font-size="10.00"> mapper</text>
<text text-anchor="middle" x="982.5" y="-272" font-family="Helvetica,sans-Serif" font-size="10.00">table_mapper</text>
</g>
<!-- Node14 -->
<g id="node14" class="node">
<title>Node14</title>
<g id="a_node14"><a xlink:href="structSqshMapping.html" target="_top" xlink:title=" ">
<polygon fill="white" stroke="black" points="722.5,-159.5 722.5,-178.5 821.5,-178.5 821.5,-159.5 722.5,-159.5"/>
<text text-anchor="middle" x="772" y="-166.5" font-family="Helvetica,sans-Serif" font-size="10.00">SqshMapping</text>
</a>
</g>
</g>
<!-- Node5&#45;&gt;Node14 -->
<g id="edge14" class="edge">
<title>Node5&#45;&gt;Node14</title>
<path fill="none" stroke="#9a32cd" stroke-dasharray="5,2" d="M337.52,-301.09C352.8,-286.16 377.24,-265.23 403,-255 500.12,-216.43 536.25,-259.75 637,-232 682.11,-219.58 730.81,-192.98 755.19,-178.64"/>
<polygon fill="#9a32cd" stroke="#9a32cd" points="334.97,-298.7 330.41,-308.26 339.94,-303.63 334.97,-298.7"/>
<text text-anchor="middle" x="520" y="-258" font-family="Helvetica,sans-Serif" font-size="10.00"> mapper</text>
</g>
<!-- Node5&#45;&gt;Node23 -->
<g id="edge26" class="edge">
<title>Node5&#45;&gt;Node23</title>
<path fill="none" stroke="#9a32cd" stroke-dasharray="5,2" d="M376.91,-326.43C539.99,-349.5 1031.58,-406.58 1426,-323 1540,-298.84 1668.13,-240.69 1716.3,-217.64"/>
<polygon fill="#9a32cd" stroke="#9a32cd" points="377.04,-322.91 366.65,-324.96 376.05,-329.84 377.04,-322.91"/>
<text text-anchor="middle" x="1163" y="-366" font-family="Helvetica,sans-Serif" font-size="10.00"> mapper</text>
</g>
<!-- Node25 -->
<g id="node25" class="node">
<title>Node25</title>
<g id="a_node25"><a xlink:href="structSqshFragmentTable.html" target="_top" xlink:title=" ">
<polygon fill="white" stroke="black" points="1955,-365.5 1955,-384.5 2099,-384.5 2099,-365.5 1955,-365.5"/>
<text text-anchor="middle" x="2027" y="-372.5" font-family="Helvetica,sans-Serif" font-size="10.00">SqshFragmentTable</text>
</a>
</g>
</g>
<!-- Node5&#45;&gt;Node25 -->
<g id="edge35" class="edge">
<title>Node5&#45;&gt;Node25</title>
<path fill="none" stroke="#9a32cd" stroke-dasharray="5,2" d="M346.02,-332.67C412.14,-370.78 600.62,-470 771,-470 771,-470 771,-470 1738,-470 1846.2,-470 1966.27,-408.78 2009.43,-384.63"/>
<polygon fill="#9a32cd" stroke="#9a32cd" points="347.57,-329.52 337.17,-327.51 344.05,-335.57 347.57,-329.52"/>
<text text-anchor="middle" x="1347" y="-473" font-family="Helvetica,sans-Serif" font-size="10.00"> mapper</text>
</g>
<!-- Node6 -->
<g id="node6" class="node">
<title>Node6</title>
<g id="a_node6"><a xlink:href="structSqshMemoryMapperImpl.html" target="_top" xlink:title=" ">
<polygon fill="white" stroke="black" points="0,-289.5 0,-308.5 167,-308.5 167,-289.5 0,-289.5"/>
<text text-anchor="middle" x="83.5" y="-296.5" font-family="Helvetica,sans-Serif" font-size="10.00">SqshMemoryMapperImpl</text>
</a>
</g>
</g>
<!-- Node6&#45;&gt;Node5 -->
<g id="edge5" class="edge">
<title>Node6&#45;&gt;Node5</title>
<path fill="none" stroke="#9a32cd" stroke-dasharray="5,2" d="M177.17,-299.96C197.26,-300.74 218.37,-302 238,-304 249.85,-305.21 262.59,-307.1 274.39,-309.11"/>
<polygon fill="#9a32cd" stroke="#9a32cd" points="177.21,-296.46 167.09,-299.6 176.96,-303.46 177.21,-296.46"/>
<text text-anchor="middle" x="211.5" y="-307" font-family="Helvetica,sans-Serif" font-size="10.00"> impl</text>
</g>
<!-- Node7 -->
<g id="node7" class="node">
<title>Node7</title>
<g id="a_node7"><a xlink:href="structSqshMmapFullMapper.html" target="_top" xlink:title=" ">
<polygon fill="white" stroke="black" points="7.5,-251.5 7.5,-270.5 159.5,-270.5 159.5,-251.5 7.5,-251.5"/>
<text text-anchor="middle" x="83.5" y="-258.5" font-family="Helvetica,sans-Serif" font-size="10.00">SqshMmapFullMapper</text>
</a>
</g>
</g>
<!-- Node7&#45;&gt;Node5 -->
<g id="edge6" class="edge">
<title>Node7&#45;&gt;Node5</title>
<path fill="none" stroke="#9a32cd" stroke-dasharray="5,2" d="M169.95,-270.8C192.31,-274.33 216.25,-278.98 238,-285 259.63,-290.98 283.29,-300.98 299.52,-308.4"/>
<polygon fill="#9a32cd" stroke="#9a32cd" points="170.21,-267.3 159.79,-269.26 169.15,-274.22 170.21,-267.3"/>
<text text-anchor="middle" x="211.5" y="-288" font-family="Helvetica,sans-Serif" font-size="10.00"> mc</text>
</g>
<!-- Node8 -->
<g id="node8" class="node">
<title>Node8</title>
<g id="a_node8"><a xlink:href="structSqshMmapMapper.html" target="_top" xlink:title=" ">
<polygon fill="white" stroke="black" points="22.5,-213.5 22.5,-232.5 144.5,-232.5 144.5,-213.5 22.5,-213.5"/>
<text text-anchor="middle" x="83.5" y="-220.5" font-family="Helvetica,sans-Serif" font-size="10.00">SqshMmapMapper</text>
</a>
</g>
</g>
<!-- Node8&#45;&gt;Node5 -->
<g id="edge7" class="edge">
<title>Node8&#45;&gt;Node5</title>
<path fill="none" stroke="#9a32cd" stroke-dasharray="5,2" d="M154.76,-232.75C181.61,-238.07 212,-246.09 238,-258 266.44,-271.02 294.73,-294.94 309.33,-308.31"/>
<polygon fill="#9a32cd" stroke="#9a32cd" points="155.14,-229.26 144.66,-230.84 153.84,-236.14 155.14,-229.26"/>
<text text-anchor="middle" x="211.5" y="-261" font-family="Helvetica,sans-Serif" font-size="10.00"> mm</text>
</g>
<!-- Node9 -->
<g id="node9" class="node">
<title>Node9</title>
<g id="a_node9"><a xlink:href="structSqshStaticMapper.html" target="_top" xlink:title=" ">
<polygon fill="white" stroke="black" points="15,-403.5 15,-422.5 152,-422.5 152,-403.5 15,-403.5"/>
<text text-anchor="middle" x="83.5" y="-410.5" font-family="Helvetica,sans-Serif" font-size="10.00">SqshStaticMapper</text>
</a>
</g>
</g>
<!-- Node9&#45;&gt;Node5 -->
<g id="edge8" class="edge">
<title>Node9&#45;&gt;Node5</title>
<path fill="none" stroke="#9a32cd" stroke-dasharray="5,2" d="M139.89,-401.15C148.99,-398.94 158.29,-396.53 167,-394 199.13,-384.68 207.86,-383.52 238,-369 263.26,-356.83 290.47,-338.67 306.19,-327.62"/>
<polygon fill="#9a32cd" stroke="#9a32cd" points="139.05,-397.75 130.12,-403.45 140.66,-404.56 139.05,-397.75"/>
<text text-anchor="middle" x="211.5" y="-391" font-family="Helvetica,sans-Serif" font-size="10.00"> sm</text>
</g>
<!-- Node10 -->
<g id="node10" class="node">
<title>Node10</title>
<g id="a_node10"><a xlink:href="structSqshCanaryMapper.html" target="_top" xlink:title=" ">
<polygon fill="white" stroke="black" points="15,-365.5 15,-384.5 152,-384.5 152,-365.5 15,-365.5"/>
<text text-anchor="middle" x="83.5" y="-372.5" font-family="Helvetica,sans-Serif" font-size="10.00">SqshCanaryMapper</text>
</a>
</g>
</g>
<!-- Node10&#45;&gt;Node5 -->
<g id="edge9" class="edge">
<title>Node10&#45;&gt;Node5</title>
<path fill="none" stroke="#9a32cd" stroke-dasharray="5,2" d="M146.38,-363.45C174.48,-357.86 208.06,-350.7 238,-343 255.63,-338.47 275.13,-332.52 290.64,-327.56"/>
<polygon fill="#9a32cd" stroke="#9a32cd" points="145.43,-360.07 136.29,-365.44 146.78,-366.94 145.43,-360.07"/>
<text text-anchor="middle" x="211.5" y="-357" font-family="Helvetica,sans-Serif" font-size="10.00"> cn</text>
</g>
<!-- Node11 -->
<g id="node11" class="node">
<title>Node11</title>
<g id="a_node11"><a xlink:href="structSqshCurlMapper.html" target="_top" xlink:title=" ">
<polygon fill="white" stroke="black" points="22.5,-327.5 22.5,-346.5 144.5,-346.5 144.5,-327.5 22.5,-327.5"/>
<text text-anchor="middle" x="83.5" y="-334.5" font-family="Helvetica,sans-Serif" font-size="10.00">SqshCurlMapper</text>
</a>
</g>
</g>
<!-- Node11&#45;&gt;Node5 -->
<g id="edge10" class="edge">
<title>Node11&#45;&gt;Node5</title>
<path fill="none" stroke="#9a32cd" stroke-dasharray="5,2" d="M154.88,-331.31C193.59,-328.18 240.47,-324.39 274.29,-321.66"/>
<polygon fill="#9a32cd" stroke="#9a32cd" points="154.4,-327.84 144.71,-332.13 154.96,-334.81 154.4,-327.84"/>
<text text-anchor="middle" x="211.5" y="-331" font-family="Helvetica,sans-Serif" font-size="10.00"> cl</text>
</g>
<!-- Node12 -->
<g id="node12" class="node">
<title>Node12</title>
<g id="a_node12"><a xlink:href="structSqshCompression.html" target="_top" xlink:title=" ">
<polygon fill="white" stroke="black" points="1098.5,-406.5 1098.5,-425.5 1227.5,-425.5 1227.5,-406.5 1098.5,-406.5"/>
<text text-anchor="middle" x="1163" y="-413.5" font-family="Helvetica,sans-Serif" font-size="10.00">SqshCompression</text>
</a>
</g>
</g>
<!-- Node12&#45;&gt;Node4 -->
<g id="edge11" class="edge">
<title>Node12&#45;&gt;Node4</title>
<path fill="none" stroke="#9a32cd" stroke-dasharray="5,2" d="M1213.45,-403.94C1280.43,-386.73 1395.19,-353.9 1426,-324 1456.17,-294.72 1465.75,-242.22 1468.5,-220.65"/>
<polygon fill="#9a32cd" stroke="#9a32cd" points="1212.36,-400.6 1203.53,-406.46 1214.09,-407.39 1212.36,-400.6"/>
<text text-anchor="middle" x="1347" y="-402" font-family="Helvetica,sans-Serif" font-size="10.00"> data_compression</text>
<text text-anchor="middle" x="1347" y="-391" font-family="Helvetica,sans-Serif" font-size="10.00">metablock_compression</text>
</g>
<!-- Node12&#45;&gt;Node25 -->
<g id="edge36" class="edge">
<title>Node12&#45;&gt;Node25</title>
<path fill="none" stroke="#9a32cd" stroke-dasharray="5,2" d="M1237.77,-416.25C1290.28,-416.23 1362.49,-415.8 1426,-414 1653.29,-407.58 1710.81,-412.26 1937,-389 1948.2,-387.85 1960.14,-386.24 1971.52,-384.52"/>
<polygon fill="#9a32cd" stroke="#9a32cd" points="1237.54,-412.75 1227.54,-416.25 1237.54,-419.75 1237.54,-412.75"/>
<text text-anchor="middle" x="1564" y="-414" font-family="Helvetica,sans-Serif" font-size="10.00"> compression</text>
</g>
<!-- Node13 -->
<g id="node13" class="node">
<title>Node13</title>
<g id="a_node13"><a xlink:href="structSqshCompressionImplementation.html" target="_top" xlink:title=" ">
<polygon fill="white" stroke="black" points="655,-406.5 655,-425.5 889,-425.5 889,-406.5 655,-406.5"/>
<text text-anchor="middle" x="772" y="-413.5" font-family="Helvetica,sans-Serif" font-size="10.00">SqshCompressionImplementation</text>
</a>
</g>
</g>
<!-- Node13&#45;&gt;Node12 -->
<g id="edge12" class="edge">
<title>Node13&#45;&gt;Node12</title>
<path fill="none" stroke="#9a32cd" stroke-dasharray="5,2" d="M899.33,-416C965.84,-416 1044.52,-416 1098.32,-416"/>
<polygon fill="#9a32cd" stroke="#9a32cd" points="899.19,-412.5 889.19,-416 899.19,-419.5 899.19,-412.5"/>
<text text-anchor="middle" x="982.5" y="-419" font-family="Helvetica,sans-Serif" font-size="10.00"> impl</text>
</g>
<!-- Node14&#45;&gt;Node4 -->
<g id="edge13" class="edge">
<title>Node14&#45;&gt;Node4</title>
<path fill="none" stroke="#9a32cd" stroke-dasharray="5,2" d="M831.8,-172.55C977.63,-181.34 1351.09,-203.86 1446.85,-209.63"/>
<polygon fill="#9a32cd" stroke="#9a32cd" points="831.89,-169.05 821.7,-171.94 831.47,-176.03 831.89,-169.05"/>
<text text-anchor="middle" x="1163" y="-200" font-family="Helvetica,sans-Serif" font-size="10.00"> table_map</text>
</g>
<!-- Node21 -->
<g id="node21" class="node">
<title>Node21</title>
<g id="a_node21"><a xlink:href="structSqshSuperblockContext.html" target="_top" xlink:title=" ">
<polygon fill="white" stroke="black" points="1076,-305.5 1076,-324.5 1250,-324.5 1250,-305.5 1076,-305.5"/>
<text text-anchor="middle" x="1163" y="-312.5" font-family="Helvetica,sans-Serif" font-size="10.00">SqshSuperblockContext</text>
</a>
</g>
</g>
<!-- Node14&#45;&gt;Node21 -->
<g id="edge23" class="edge">
<title>Node14&#45;&gt;Node21</title>
<path fill="none" stroke="#9a32cd" stroke-dasharray="5,2" d="M802.11,-182.73C828.83,-194.79 869.79,-211.95 907,-222 972.54,-239.71 994.75,-220.34 1058,-245 1095.72,-259.71 1133.53,-290 1151.38,-305.46"/>
<polygon fill="#9a32cd" stroke="#9a32cd" points="803.5,-179.52 792.95,-178.54 800.59,-185.88 803.5,-179.52"/>
<text text-anchor="middle" x="982.5" y="-248" font-family="Helvetica,sans-Serif" font-size="10.00"> mapping</text>
</g>
<!-- Node14&#45;&gt;Node23 -->
<g id="edge27" class="edge">
<title>Node14&#45;&gt;Node23</title>
<path fill="none" stroke="#9a32cd" stroke-dasharray="5,2" d="M831.95,-163.2C892.95,-157.5 991.03,-149.22 1076,-146 1196.2,-141.44 1604.49,-144.13 1613,-149 1626.5,-156.72 1618.62,-169.59 1631,-179 1649.37,-192.96 1674.08,-200.2 1694.91,-203.96"/>
<polygon fill="#9a32cd" stroke="#9a32cd" points="831.37,-159.74 821.74,-164.16 832.02,-166.7 831.37,-159.74"/>
<text text-anchor="middle" x="1347" y="-147" font-family="Helvetica,sans-Serif" font-size="10.00"> lookup_table</text>
</g>
<!-- Node14&#45;&gt;Node24 -->
<g id="edge30" class="edge">
<title>Node14&#45;&gt;Node24</title>
<path fill="none" stroke="#9a32cd" stroke-dasharray="5,2" d="M787.43,-151.33C809.82,-125.45 855.76,-78.33 907,-60 1102.85,10.05 1635.01,-54.79 1843,-57 1884.78,-57.44 1895.52,-53.95 1937,-59 1955.08,-61.2 1974.87,-65.46 1991.2,-69.49"/>
<polygon fill="#9a32cd" stroke="#9a32cd" points="784.54,-149.32 780.76,-159.22 789.89,-153.84 784.54,-149.32"/>
<text text-anchor="middle" x="1470.5" y="-41" font-family="Helvetica,sans-Serif" font-size="10.00"> header</text>
</g>
<!-- Node15 -->
<g id="node15" class="node">
<title>Node15</title>
<g id="a_node15"><a xlink:href="structSqshMmapFullMap.html" target="_top" xlink:title=" ">
<polygon fill="white" stroke="black" points="256,-218.5 256,-237.5 385,-237.5 385,-218.5 256,-218.5"/>
<text text-anchor="middle" x="320.5" y="-225.5" font-family="Helvetica,sans-Serif" font-size="10.00">SqshMmapFullMap</text>
</a>
</g>
</g>
<!-- Node15&#45;&gt;Node14 -->
<g id="edge15" class="edge">
<title>Node15&#45;&gt;Node14</title>
<path fill="none" stroke="#9a32cd" stroke-dasharray="5,2" d="M395.35,-221.44C481.09,-213.75 613.78,-201.6 637,-198 669.58,-192.94 706.13,-184.87 732.81,-178.52"/>
<polygon fill="#9a32cd" stroke="#9a32cd" points="394.79,-217.98 385.14,-222.36 395.41,-224.95 394.79,-217.98"/>
<text text-anchor="middle" x="520" y="-223" font-family="Helvetica,sans-Serif" font-size="10.00"> mc</text>
</g>
<!-- Node16 -->
<g id="node16" class="node">
<title>Node16</title>
<g id="a_node16"><a xlink:href="structSqshMmapMap.html" target="_top" xlink:title=" ">
<polygon fill="white" stroke="black" points="271,-180.5 271,-199.5 370,-199.5 370,-180.5 271,-180.5"/>
<text text-anchor="middle" x="320.5" y="-187.5" font-family="Helvetica,sans-Serif" font-size="10.00">SqshMmapMap</text>
</a>
</g>
</g>
<!-- Node16&#45;&gt;Node14 -->
<g id="edge16" class="edge">
<title>Node16&#45;&gt;Node14</title>
<path fill="none" stroke="#9a32cd" stroke-dasharray="5,2" d="M380.02,-187.27C469.6,-183.08 639.06,-175.16 722.33,-171.27"/>
<polygon fill="#9a32cd" stroke="#9a32cd" points="379.86,-183.77 370.03,-187.73 380.18,-190.76 379.86,-183.77"/>
<text text-anchor="middle" x="520" y="-188" font-family="Helvetica,sans-Serif" font-size="10.00"> mm</text>
</g>
<!-- Node17 -->
<g id="node17" class="node">
<title>Node17</title>
<g id="a_node17"><a xlink:href="structSqshStaticMap.html" target="_top" xlink:title=" ">
<polygon fill="white" stroke="black" points="263.5,-142.5 263.5,-161.5 377.5,-161.5 377.5,-142.5 263.5,-142.5"/>
<text text-anchor="middle" x="320.5" y="-149.5" font-family="Helvetica,sans-Serif" font-size="10.00">SqshStaticMap</text>
</a>
</g>
</g>
<!-- Node17&#45;&gt;Node14 -->
<g id="edge17" class="edge">
<title>Node17&#45;&gt;Node14</title>
<path fill="none" stroke="#9a32cd" stroke-dasharray="5,2" d="M388.03,-149.98C451.94,-148.57 551.16,-147.76 637,-153 665.41,-154.74 697.04,-158.43 722.43,-161.83"/>
<polygon fill="#9a32cd" stroke="#9a32cd" points="387.62,-146.49 377.7,-150.22 387.78,-153.49 387.62,-146.49"/>
<text text-anchor="middle" x="520" y="-156" font-family="Helvetica,sans-Serif" font-size="10.00"> sm</text>
</g>
<!-- Node18 -->
<g id="node18" class="node">
<title>Node18</title>
<g id="a_node18"><a xlink:href="structSqshCanaryMap.html" target="_top" xlink:title=" ">
<polygon fill="white" stroke="black" points="263.5,-104.5 263.5,-123.5 377.5,-123.5 377.5,-104.5 263.5,-104.5"/>
<text text-anchor="middle" x="320.5" y="-111.5" font-family="Helvetica,sans-Serif" font-size="10.00">SqshCanaryMap</text>
</a>
</g>
</g>
<!-- Node18&#45;&gt;Node14 -->
<g id="edge18" class="edge">
<title>Node18&#45;&gt;Node14</title>
<path fill="none" stroke="#9a32cd" stroke-dasharray="5,2" d="M388.11,-114.11C452.26,-115.14 551.83,-119.14 637,-133 673.97,-139.02 715.47,-151.01 742.35,-159.49"/>
<polygon fill="#9a32cd" stroke="#9a32cd" points="387.78,-110.61 377.73,-113.97 387.68,-117.61 387.78,-110.61"/>
<text text-anchor="middle" x="520" y="-136" font-family="Helvetica,sans-Serif" font-size="10.00"> cn</text>
</g>
<!-- Node19 -->
<g id="node19" class="node">
<title>Node19</title>
<g id="a_node19"><a xlink:href="structSqshCurlMap.html" target="_top" xlink:title=" ">
<polygon fill="white" stroke="black" points="271,-66.5 271,-85.5 370,-85.5 370,-66.5 271,-66.5"/>
<text text-anchor="middle" x="320.5" y="-73.5" font-family="Helvetica,sans-Serif" font-size="10.00">SqshCurlMap</text>
</a>
</g>
</g>
<!-- Node19&#45;&gt;Node14 -->
<g id="edge19" class="edge">
<title>Node19&#45;&gt;Node14</title>
<path fill="none" stroke="#9a32cd" stroke-dasharray="5,2" d="M380.48,-73.24C444.8,-71.84 550.18,-74.31 637,-99 684.21,-112.43 733.95,-143.59 757.33,-159.41"/>
<polygon fill="#9a32cd" stroke="#9a32cd" points="380.03,-69.75 370.12,-73.51 380.21,-76.75 380.03,-69.75"/>
<text text-anchor="middle" x="520" y="-102" font-family="Helvetica,sans-Serif" font-size="10.00"> cl</text>
</g>
<!-- Node20 -->
<g id="node20" class="node">
<title>Node20</title>
<g id="a_node20"><a xlink:href="structSqshBuffer.html" target="_top" xlink:title="The SqshBuffer struct is a buffer for arbitrary data.">
<polygon fill="white" stroke="black" points="37.5,-28.5 37.5,-47.5 129.5,-47.5 129.5,-28.5 37.5,-28.5"/>
<text text-anchor="middle" x="83.5" y="-35.5" font-family="Helvetica,sans-Serif" font-size="10.00">SqshBuffer</text>
</a>
</g>
</g>
<!-- Node20&#45;&gt;Node3 -->
<g id="edge40" class="edge">
<title>Node20&#45;&gt;Node3</title>
<path fill="none" stroke="#9a32cd" stroke-dasharray="5,2" d="M130.74,-26.03C177.88,-14.89 253.27,0 319.5,0 319.5,0 319.5,0 1348,0 1415.73,0 1434.99,-4.74 1497,-32 1563.83,-61.38 1565.6,-94.55 1631,-127 1651.37,-137.11 1675.49,-144.95 1695.47,-150.45"/>
<polygon fill="#9a32cd" stroke="#9a32cd" points="129.74,-22.67 120.84,-28.41 131.38,-29.47 129.74,-22.67"/>
<text text-anchor="middle" x="982.5" y="-3" font-family="Helvetica,sans-Serif" font-size="10.00"> buffer</text>
</g>
<!-- Node20&#45;&gt;Node19 -->
<g id="edge20" class="edge">
<title>Node20&#45;&gt;Node19</title>
<path fill="none" stroke="#9a32cd" stroke-dasharray="5,2" d="M139.61,-46.91C179.44,-53.35 232.75,-61.97 270.98,-68.15"/>
<polygon fill="#9a32cd" stroke="#9a32cd" points="139.96,-43.42 129.53,-45.28 138.85,-50.33 139.96,-43.42"/>
<text text-anchor="middle" x="211.5" y="-65" font-family="Helvetica,sans-Serif" font-size="10.00"> buffer</text>
</g>
<!-- Node26 -->
<g id="node26" class="node">
<title>Node26</title>
<g id="a_node26"><a xlink:href="structSqshCompressionOptionsContext.html" target="_top" xlink:title="The compression options context is used to store the compression options for a specific compression a...">
<polygon fill="white" stroke="black" points="403,-31.5 403,-50.5 637,-50.5 637,-31.5 403,-31.5"/>
<text text-anchor="middle" x="520" y="-38.5" font-family="Helvetica,sans-Serif" font-size="10.00">SqshCompressionOptionsContext</text>
</a>
</g>
</g>
<!-- Node20&#45;&gt;Node26 -->
<g id="edge38" class="edge">
<title>Node20&#45;&gt;Node26</title>
<path fill="none" stroke="#9a32cd" stroke-dasharray="5,2" d="M139.52,-38.35C168.77,-38.54 205.34,-38.78 238,-39 292.15,-39.37 352.17,-39.79 402.79,-40.16"/>
<polygon fill="#9a32cd" stroke="#9a32cd" points="139.52,-34.85 129.5,-38.29 139.48,-41.85 139.52,-34.85"/>
<text text-anchor="middle" x="211.5" y="-42" font-family="Helvetica,sans-Serif" font-size="10.00"> buffer</text>
</g>
<!-- Node21&#45;&gt;Node4 -->
<g id="edge21" class="edge">
<title>Node21&#45;&gt;Node4</title>
<path fill="none" stroke="#9a32cd" stroke-dasharray="5,2" d="M1260.07,-309.78C1328.99,-305.3 1412.07,-298.14 1426,-289 1450.63,-272.84 1462.66,-237.7 1467.23,-220.66"/>
<polygon fill="#9a32cd" stroke="#9a32cd" points="1259.77,-306.29 1250.01,-310.42 1260.21,-313.27 1259.77,-306.29"/>
<text text-anchor="middle" x="1347" y="-312" font-family="Helvetica,sans-Serif" font-size="10.00"> superblock</text>
</g>
<!-- Node21&#45;&gt;Node25 -->
<g id="edge33" class="edge">
<title>Node21&#45;&gt;Node25</title>
<path fill="none" stroke="#9a32cd" stroke-dasharray="5,2" d="M1254.62,-325.68C1325.42,-333.7 1426.35,-344.38 1515,-351 1671.76,-362.71 1856.03,-369.7 1954.83,-372.9"/>
<polygon fill="#9a32cd" stroke="#9a32cd" points="1254.73,-322.17 1244.4,-324.52 1253.94,-329.13 1254.73,-322.17"/>
<text text-anchor="middle" x="1564" y="-360" font-family="Helvetica,sans-Serif" font-size="10.00"> superblock</text>
</g>
<!-- Node22 -->
<g id="node22" class="node">
<title>Node22</title>
<g id="a_node22"><a xlink:href="structSqshSuperblock.html" target="_top" xlink:title=" ">
<polygon fill="white" stroke="black" points="711,-313.5 711,-332.5 833,-332.5 833,-313.5 711,-313.5"/>
<text text-anchor="middle" x="772" y="-320.5" font-family="Helvetica,sans-Serif" font-size="10.00">SqshSuperblock</text>
</a>
</g>
</g>
<!-- Node22&#45;&gt;Node21 -->
<g id="edge22" class="edge">
<title>Node22&#45;&gt;Node21</title>
<path fill="none" stroke="#9a32cd" stroke-dasharray="5,2" d="M843.55,-321.55C908.81,-320.21 1006,-318.21 1075.83,-316.77"/>
<polygon fill="#9a32cd" stroke="#9a32cd" points="843.28,-318.05 833.35,-321.76 843.42,-325.05 843.28,-318.05"/>
<text text-anchor="middle" x="982.5" y="-323" font-family="Helvetica,sans-Serif" font-size="10.00"> superblock</text>
</g>
<!-- Node23&#45;&gt;Node4 -->
<g id="edge24" class="edge">
<title>Node23&#45;&gt;Node4</title>
<path fill="none" stroke="#9a32cd" stroke-dasharray="5,2" d="M1684.68,-208.58C1627.02,-209.24 1536.01,-210.27 1494.05,-210.74"/>
<polygon fill="#9a32cd" stroke="#9a32cd" points="1684.73,-212.08 1694.69,-208.47 1684.65,-205.08 1684.73,-212.08"/>
<text text-anchor="middle" x="1564" y="-224" font-family="Helvetica,sans-Serif" font-size="10.00"> export_table</text>
<text text-anchor="middle" x="1564" y="-213" font-family="Helvetica,sans-Serif" font-size="10.00">id_table</text>
</g>
<!-- Node23&#45;&gt;Node24 -->
<g id="edge31" class="edge">
<title>Node23&#45;&gt;Node24</title>
<path fill="none" stroke="#9a32cd" stroke-dasharray="5,2" d="M1789.06,-209.97C1831.14,-209.46 1891.14,-203.7 1937,-179 1977.51,-157.18 2008.6,-109.29 2020.6,-88.71"/>
<polygon fill="#9a32cd" stroke="#9a32cd" points="1789.03,-206.47 1779.04,-209.99 1789.05,-213.47 1789.03,-206.47"/>
<text text-anchor="middle" x="1899" y="-206" font-family="Helvetica,sans-Serif" font-size="10.00"> table</text>
</g>
<!-- Node23&#45;&gt;Node25 -->
<g id="edge34" class="edge">
<title>Node23&#45;&gt;Node25</title>
<path fill="none" stroke="#9a32cd" stroke-dasharray="5,2" d="M1786.27,-220.34C1828.57,-232.68 1890.42,-254.53 1937,-287 1971.05,-310.73 2003.83,-348.04 2018.29,-365.45"/>
<polygon fill="#9a32cd" stroke="#9a32cd" points="1787.06,-216.93 1776.49,-217.55 1785.15,-223.66 1787.06,-216.93"/>
<text text-anchor="middle" x="1899" y="-290" font-family="Helvetica,sans-Serif" font-size="10.00"> table</text>
</g>
<!-- Node24&#45;&gt;Node4 -->
<g id="edge28" class="edge">
<title>Node24&#45;&gt;Node4</title>
<path fill="none" stroke="#9a32cd" stroke-dasharray="5,2" d="M1955.81,-81.55C1833.4,-87.13 1587.01,-103.79 1515,-149 1494.96,-161.59 1481.59,-187.12 1475.43,-201.18"/>
<polygon fill="#9a32cd" stroke="#9a32cd" points="1956,-85.04 1965.84,-81.1 1955.69,-78.05 1956,-85.04"/>
<text text-anchor="middle" x="1737" y="-115" font-family="Helvetica,sans-Serif" font-size="10.00"> xattr_table</text>
</g>
<!-- Node25&#45;&gt;Node4 -->
<g id="edge32" class="edge">
<title>Node25&#45;&gt;Node4</title>
<path fill="none" stroke="#9a32cd" stroke-dasharray="5,2" d="M1963.95,-363.64C1836.34,-339.93 1553.21,-285.46 1515,-262 1498.14,-251.65 1484.49,-232.55 1477.22,-220.89"/>
<polygon fill="#9a32cd" stroke="#9a32cd" points="1963.49,-367.11 1973.96,-365.49 1964.77,-360.23 1963.49,-367.11"/>
<text text-anchor="middle" x="1737" y="-342" font-family="Helvetica,sans-Serif" font-size="10.00"> fragment_table</text>
</g>
<!-- Node26&#45;&gt;Node4 -->
<g id="edge37" class="edge">
<title>Node26&#45;&gt;Node4</title>
<path fill="none" stroke="#9a32cd" stroke-dasharray="5,2" d="M647.69,-42.64C881.9,-46.72 1364.45,-60.5 1426,-105 1458.24,-128.31 1466.66,-179.9 1468.79,-201.35"/>
<polygon fill="#9a32cd" stroke="#9a32cd" points="647.47,-39.13 637.41,-42.46 647.35,-46.13 647.47,-39.13"/>
<text text-anchor="middle" x="982.5" y="-58" font-family="Helvetica,sans-Serif" font-size="10.00"> compression_options</text>
</g>
<!-- Node27 -->
<g id="node27" class="node">
<title>Node27</title>
<g id="a_node27"><a xlink:href="structSqshConfig.html" target="_top" xlink:title="The SqshConfig struct contains all the configuration options for a sqsh session.">
<polygon fill="white" stroke="black" points="1117,-155.5 1117,-174.5 1209,-174.5 1209,-155.5 1117,-155.5"/>
<text text-anchor="middle" x="1163" y="-162.5" font-family="Helvetica,sans-Serif" font-size="10.00">SqshConfig</text>
</a>
</g>
</g>
<!-- Node27&#45;&gt;Node4 -->
<g id="edge39" class="edge">
<title>Node27&#45;&gt;Node4</title>
<path fill="none" stroke="#9a32cd" stroke-dasharray="5,2" d="M1219.21,-162.49C1273.16,-161.63 1357.01,-164.6 1426,-186 1436.98,-189.41 1448.2,-195.95 1456.5,-201.48"/>
<polygon fill="#9a32cd" stroke="#9a32cd" points="1219.09,-158.99 1209.16,-162.7 1219.23,-165.99 1219.09,-158.99"/>
<text text-anchor="middle" x="1347" y="-189" font-family="Helvetica,sans-Serif" font-size="10.00"> config</text>
</g>
</g>
</svg>
