<?xml version="1.0" encoding="UTF-8" standalone="no"?>
<!DOCTYPE svg PUBLIC "-//W3C//DTD SVG 1.1//EN"
 "http://www.w3.org/Graphics/SVG/1.1/DTD/svg11.dtd">
<!-- Generated by graphviz version 7.0.4 (20221203.1631)
 -->
<!-- Title: SqshDirectoryIterator Pages: 1 -->
<svg width="450pt" height="225pt"
 viewBox="0.00 0.00 449.50 225.00" xmlns="http://www.w3.org/2000/svg" xmlns:xlink="http://www.w3.org/1999/xlink">
<g id="graph0" class="graph" transform="scale(1 1) rotate(0) translate(4 221)">
<title>SqshDirectoryIterator</title>
<!-- Node1 -->
<g id="node1" class="node">
<title>Node1</title>
<g id="a_node1"><a xlink:title=" ">
<polygon fill="#999999" stroke="#666666" points="260.5,-19 86.5,-19 86.5,0 260.5,0 260.5,-19"/>
<text text-anchor="middle" x="173.5" y="-7" font-family="Helvetica,sans-Serif" font-size="10.00">SqshDirectoryIterator</text>
</a>
</g>
</g>
<!-- Node2 -->
<g id="node2" class="node">
<title>Node2</title>
<g id="a_node2"><a xlink:href="structSqshInodeContext.html" target="_top" xlink:title="Inode context.">
<polygon fill="white" stroke="#666666" points="137,-85 0,-85 0,-66 137,-66 137,-85"/>
<text text-anchor="middle" x="68.5" y="-73" font-family="Helvetica,sans-Serif" font-size="10.00">SqshInodeContext</text>
</a>
</g>
</g>
<!-- Node2&#45;&gt;Node1 -->
<g id="edge1" class="edge">
<title>Node2&#45;&gt;Node1</title>
<path fill="none" stroke="#9a32cd" stroke-dasharray="5,2" d="M85.98,-57.98C93.98,-50.95 103.81,-43.01 113.5,-37 124.63,-30.1 137.87,-24.05 149.07,-19.48"/>
<polygon fill="#9a32cd" stroke="#9a32cd" points="83.73,-55.3 78.68,-64.61 88.44,-60.48 83.73,-55.3"/>
<text text-anchor="middle" x="136.5" y="-40" font-family="Helvetica,sans-Serif" font-size="10.00"> inode</text>
</g>
<!-- Node3 -->
<g id="node3" class="node">
<title>Node3</title>
<g id="a_node3"><a xlink:href="structSqshMetablockStreamContext.html" target="_top" xlink:title=" ">
<polygon fill="white" stroke="#666666" points="279.5,-151 67.5,-151 67.5,-132 279.5,-132 279.5,-151"/>
<text text-anchor="middle" x="173.5" y="-139" font-family="Helvetica,sans-Serif" font-size="10.00">SqshMetablockStreamContext</text>
</a>
</g>
</g>
<!-- Node3&#45;&gt;Node1 -->
<g id="edge7" class="edge">
<title>Node3&#45;&gt;Node1</title>
<path fill="none" stroke="#9a32cd" stroke-dasharray="5,2" d="M173.5,-120.14C173.5,-91.4 173.5,-40.15 173.5,-19.5"/>
<polygon fill="#9a32cd" stroke="#9a32cd" points="170,-120.05 173.5,-130.05 177,-120.05 170,-120.05"/>
<text text-anchor="middle" x="211.5" y="-73" font-family="Helvetica,sans-Serif" font-size="10.00"> metablock</text>
</g>
<!-- Node3&#45;&gt;Node2 -->
<g id="edge2" class="edge">
<title>Node3&#45;&gt;Node2</title>
<path fill="none" stroke="#9a32cd" stroke-dasharray="5,2" d="M104.24,-127.32C96.68,-123.87 89.55,-119.5 83.5,-114 75.2,-106.45 71.42,-93.69 69.75,-85.18"/>
<polygon fill="#9a32cd" stroke="#9a32cd" points="102.77,-130.51 113.36,-130.95 105.36,-124 102.77,-130.51"/>
<text text-anchor="middle" x="121.5" y="-106" font-family="Helvetica,sans-Serif" font-size="10.00"> metablock</text>
</g>
<!-- Node4 -->
<g id="node4" class="node">
<title>Node4</title>
<g id="a_node4"><a xlink:href="structSqsh.html" target="_top" xlink:title="The Sqsh struct contains all information about the current sqsh session.">
<polygon fill="white" stroke="#666666" points="72,-217 25,-217 25,-198 72,-198 72,-217"/>
<text text-anchor="middle" x="48.5" y="-205" font-family="Helvetica,sans-Serif" font-size="10.00">Sqsh</text>
</a>
</g>
</g>
<!-- Node4&#45;&gt;Node2 -->
<g id="edge5" class="edge">
<title>Node4&#45;&gt;Node2</title>
<path fill="none" stroke="#9a32cd" stroke-dasharray="5,2" d="M34.25,-188.6C24.05,-173.51 13.29,-151.36 20.5,-132 27.79,-112.42 45.44,-95.15 57.18,-85.27"/>
<polygon fill="#9a32cd" stroke="#9a32cd" points="31.36,-190.58 40.1,-196.57 37.01,-186.44 31.36,-190.58"/>
<text text-anchor="middle" x="39.5" y="-139" font-family="Helvetica,sans-Serif" font-size="10.00"> sqsh</text>
</g>
<!-- Node4&#45;&gt;Node3 -->
<g id="edge3" class="edge">
<title>Node4&#45;&gt;Node3</title>
<path fill="none" stroke="#9a32cd" stroke-dasharray="5,2" d="M75.97,-192.43C100.46,-179.9 135.53,-161.94 156.27,-151.32"/>
<polygon fill="#9a32cd" stroke="#9a32cd" points="74.53,-189.24 67.23,-196.91 77.72,-195.47 74.53,-189.24"/>
<text text-anchor="middle" x="137.5" y="-172" font-family="Helvetica,sans-Serif" font-size="10.00"> sqsh</text>
</g>
<!-- Node5 -->
<g id="node5" class="node">
<title>Node5</title>
<g id="a_node5"><a xlink:href="structSqshBuffer.html" target="_top" xlink:title="The SqshBuffer struct is a buffer for arbitrary data.">
<polygon fill="white" stroke="#666666" points="219.5,-217 127.5,-217 127.5,-198 219.5,-198 219.5,-217"/>
<text text-anchor="middle" x="173.5" y="-205" font-family="Helvetica,sans-Serif" font-size="10.00">SqshBuffer</text>
</a>
</g>
</g>
<!-- Node5&#45;&gt;Node3 -->
<g id="edge4" class="edge">
<title>Node5&#45;&gt;Node3</title>
<path fill="none" stroke="#9a32cd" stroke-dasharray="5,2" d="M173.5,-186.18C173.5,-174.44 173.5,-160.27 173.5,-151.32"/>
<polygon fill="#9a32cd" stroke="#9a32cd" points="170,-186.09 173.5,-196.09 177,-186.09 170,-186.09"/>
<text text-anchor="middle" x="200" y="-172" font-family="Helvetica,sans-Serif" font-size="10.00"> buffer</text>
</g>
<!-- Node6 -->
<g id="node6" class="node">
<title>Node6</title>
<g id="a_node6"><a xlink:href="structSqshDirectoryFragment.html" target="_top" xlink:title=" ">
<polygon fill="white" stroke="#666666" points="441.5,-85 267.5,-85 267.5,-66 441.5,-66 441.5,-85"/>
<text text-anchor="middle" x="354.5" y="-73" font-family="Helvetica,sans-Serif" font-size="10.00">SqshDirectoryFragment</text>
</a>
</g>
</g>
<!-- Node6&#45;&gt;Node1 -->
<g id="edge6" class="edge">
<title>Node6&#45;&gt;Node1</title>
<path fill="none" stroke="#9a32cd" stroke-dasharray="5,2" d="M318.51,-61.77C283.08,-49.25 229.9,-30.44 198.74,-19.43"/>
<polygon fill="#9a32cd" stroke="#9a32cd" points="317.31,-65.06 327.91,-65.1 319.64,-58.46 317.31,-65.06"/>
<text text-anchor="middle" x="312.5" y="-40" font-family="Helvetica,sans-Serif" font-size="10.00"> fragments</text>
</g>
</g>
</svg>
