<?xml version="1.0" encoding="UTF-8" standalone="no"?>
<!DOCTYPE svg PUBLIC "-//W3C//DTD SVG 1.1//EN"
 "http://www.w3.org/Graphics/SVG/1.1/DTD/svg11.dtd">
<!-- Generated by graphviz version 3.0.0 (20220413.0242)
 -->
<!-- Title: HsqsFileContext Pages: 1 -->
<svg width="2152pt" height="489pt"
 viewBox="0.00 0.00 2152.00 489.00" xmlns="http://www.w3.org/2000/svg" xmlns:xlink="http://www.w3.org/1999/xlink">
<g id="graph0" class="graph" transform="scale(1 1) rotate(0) translate(4 485)">
<title>HsqsFileContext</title>
<polygon fill="white" stroke="transparent" points="-4,4 -4,-485 2148,-485 2148,4 -4,4"/>
<!-- Node1 -->
<g id="node1" class="node">
<title>Node1</title>
<g id="a_node1"><a xlink:title=" ">
<polygon fill="#bfbfbf" stroke="black" points="2015,-389.5 2015,-408.5 2144,-408.5 2144,-389.5 2015,-389.5"/>
<text text-anchor="middle" x="2079.5" y="-396.5" font-family="Helvetica,sans-Serif" font-size="10.00">HsqsFileContext</text>
</a>
</g>
</g>
<!-- Node2 -->
<g id="node2" class="node">
<title>Node2</title>
<g id="a_node2"><a xlink:href="structHsqs.html" target="_top" xlink:title=" ">
<polygon fill="white" stroke="black" points="1214,-230.5 1214,-249.5 1261,-249.5 1261,-230.5 1214,-230.5"/>
<text text-anchor="middle" x="1237.5" y="-237.5" font-family="Helvetica,sans-Serif" font-size="10.00">Hsqs</text>
</a>
</g>
</g>
<!-- Node2&#45;&gt;Node1 -->
<g id="edge1" class="edge">
<title>Node2&#45;&gt;Node1</title>
<path fill="none" stroke="#9a32cd" stroke-dasharray="5,2" d="M1237.77,-259.65C1237.75,-292.15 1242.97,-356.64 1282,-388 1393.64,-477.71 1846.03,-429.46 2014.7,-407.76"/>
<polygon fill="#9a32cd" stroke="#9a32cd" points="1241.27,-259.65 1237.95,-249.59 1234.27,-259.52 1241.27,-259.65"/>
<text text-anchor="middle" x="1666" y="-442" font-family="Helvetica,sans-Serif" font-size="10.00"> hsqs</text>
</g>
<!-- Node15 -->
<g id="node15" class="node">
<title>Node15</title>
<g id="a_node15"><a xlink:href="structHsqsTable.html" target="_top" xlink:title=" ">
<polygon fill="white" stroke="black" points="1462,-176.5 1462,-195.5 1546,-195.5 1546,-176.5 1462,-176.5"/>
<text text-anchor="middle" x="1504" y="-183.5" font-family="Helvetica,sans-Serif" font-size="10.00">HsqsTable</text>
</a>
</g>
</g>
<!-- Node2&#45;&gt;Node15 -->
<g id="edge17" class="edge">
<title>Node2&#45;&gt;Node15</title>
<path fill="none" stroke="#9a32cd" stroke-dasharray="5,2" d="M1271.1,-235.88C1299.88,-232.01 1342.93,-225.68 1380,-218 1410.79,-211.62 1445.41,-202.43 1470.06,-195.53"/>
<polygon fill="#9a32cd" stroke="#9a32cd" points="1270.63,-232.41 1261.17,-237.19 1271.54,-239.35 1270.63,-232.41"/>
<text text-anchor="middle" x="1331" y="-238" font-family="Helvetica,sans-Serif" font-size="10.00"> hsqs</text>
</g>
<!-- Node16 -->
<g id="node16" class="node">
<title>Node16</title>
<g id="a_node16"><a xlink:href="structHsqsXattrTable.html" target="_top" xlink:title=" ">
<polygon fill="white" stroke="black" points="1733,-48.5 1733,-67.5 1855,-67.5 1855,-48.5 1733,-48.5"/>
<text text-anchor="middle" x="1794" y="-55.5" font-family="Helvetica,sans-Serif" font-size="10.00">HsqsXattrTable</text>
</a>
</g>
</g>
<!-- Node2&#45;&gt;Node16 -->
<g id="edge21" class="edge">
<title>Node2&#45;&gt;Node16</title>
<path fill="none" stroke="#9a32cd" stroke-dasharray="5,2" d="M1246.69,-220.92C1253.9,-206.41 1265.79,-187.1 1282,-176 1422.67,-79.68 1630.95,-61.13 1732.67,-58.12"/>
<polygon fill="#9a32cd" stroke="#9a32cd" points="1243.49,-219.5 1242.45,-230.04 1249.84,-222.45 1243.49,-219.5"/>
<text text-anchor="middle" x="1504" y="-119" font-family="Helvetica,sans-Serif" font-size="10.00"> hsqs</text>
</g>
<!-- Node17 -->
<g id="node17" class="node">
<title>Node17</title>
<g id="a_node17"><a xlink:href="structHsqsFragmentTable.html" target="_top" xlink:title=" ">
<polygon fill="white" stroke="black" points="1722,-234.5 1722,-253.5 1866,-253.5 1866,-234.5 1722,-234.5"/>
<text text-anchor="middle" x="1794" y="-241.5" font-family="Helvetica,sans-Serif" font-size="10.00">HsqsFragmentTable</text>
</a>
</g>
</g>
<!-- Node2&#45;&gt;Node17 -->
<g id="edge27" class="edge">
<title>Node2&#45;&gt;Node17</title>
<path fill="none" stroke="#9a32cd" stroke-dasharray="5,2" d="M1259.25,-255.48C1266.13,-259.75 1274.07,-263.81 1282,-266 1323.98,-277.59 1336.44,-266.09 1380,-266 1524.02,-265.69 1560.94,-277.62 1704,-261 1719,-259.26 1735.27,-256.43 1749.74,-253.58"/>
<polygon fill="#9a32cd" stroke="#9a32cd" points="1260.86,-252.35 1250.61,-249.68 1256.96,-258.16 1260.86,-252.35"/>
<text text-anchor="middle" x="1504" y="-273" font-family="Helvetica,sans-Serif" font-size="10.00"> hsqs</text>
</g>
<!-- Node21 -->
<g id="node21" class="node">
<title>Node21</title>
<g id="a_node21"><a xlink:href="structHsqsInodeContext.html" target="_top" xlink:title=" ">
<polygon fill="white" stroke="black" points="1725.5,-367.5 1725.5,-386.5 1862.5,-386.5 1862.5,-367.5 1725.5,-367.5"/>
<text text-anchor="middle" x="1794" y="-374.5" font-family="Helvetica,sans-Serif" font-size="10.00">HsqsInodeContext</text>
</a>
</g>
</g>
<!-- Node2&#45;&gt;Node21 -->
<g id="edge36" class="edge">
<title>Node2&#45;&gt;Node21</title>
<path fill="none" stroke="#9a32cd" stroke-dasharray="5,2" d="M1251.66,-257.31C1259.49,-266.37 1270.18,-276.83 1282,-283 1302.14,-293.51 1607.16,-345.71 1736.12,-367.46"/>
<polygon fill="#9a32cd" stroke="#9a32cd" points="1254.37,-255.09 1245.33,-249.55 1248.94,-259.51 1254.37,-255.09"/>
<text text-anchor="middle" x="1504" y="-348" font-family="Helvetica,sans-Serif" font-size="10.00"> hsqs</text>
</g>
<!-- Node22 -->
<g id="node22" class="node">
<title>Node22</title>
<g id="a_node22"><a xlink:href="structHsqsMetablockStreamContext.html" target="_top" xlink:title=" ">
<polygon fill="white" stroke="black" points="1398,-367.5 1398,-386.5 1610,-386.5 1610,-367.5 1398,-367.5"/>
<text text-anchor="middle" x="1504" y="-374.5" font-family="Helvetica,sans-Serif" font-size="10.00">HsqsMetablockStreamContext</text>
</a>
</g>
</g>
<!-- Node2&#45;&gt;Node22 -->
<g id="edge34" class="edge">
<title>Node2&#45;&gt;Node22</title>
<path fill="none" stroke="#9a32cd" stroke-dasharray="5,2" d="M1240.12,-259.81C1243.36,-285.52 1253.07,-329.71 1282,-352 1300.39,-366.17 1350.27,-372.54 1397.99,-375.32"/>
<polygon fill="#9a32cd" stroke="#9a32cd" points="1243.59,-259.32 1239.06,-249.74 1236.63,-260.06 1243.59,-259.32"/>
<text text-anchor="middle" x="1331" y="-376" font-family="Helvetica,sans-Serif" font-size="10.00"> hsqs</text>
</g>
<!-- Node3 -->
<g id="node3" class="node">
<title>Node3</title>
<g id="a_node3"><a xlink:href="structHsqsMapper.html" target="_top" xlink:title=" ">
<polygon fill="white" stroke="black" points="312,-172.5 312,-191.5 404,-191.5 404,-172.5 312,-172.5"/>
<text text-anchor="middle" x="358" y="-179.5" font-family="Helvetica,sans-Serif" font-size="10.00">HsqsMapper</text>
</a>
</g>
</g>
<!-- Node3&#45;&gt;Node2 -->
<g id="edge2" class="edge">
<title>Node3&#45;&gt;Node2</title>
<path fill="none" stroke="#9a32cd" stroke-dasharray="5,2" d="M414.28,-188.34C438.43,-190.96 467.09,-193.88 493,-196 777.17,-219.24 1123.41,-235.09 1213.97,-239.04"/>
<polygon fill="#9a32cd" stroke="#9a32cd" points="414.55,-184.85 404.23,-187.24 413.79,-191.81 414.55,-184.85"/>
<text text-anchor="middle" x="726.5" y="-230" font-family="Helvetica,sans-Serif" font-size="10.00"> mapper</text>
<text text-anchor="middle" x="726.5" y="-219" font-family="Helvetica,sans-Serif" font-size="10.00">table_mapper</text>
</g>
<!-- Node9 -->
<g id="node9" class="node">
<title>Node9</title>
<g id="a_node9"><a xlink:href="structHsqsMapping.html" target="_top" xlink:title=" ">
<polygon fill="white" stroke="black" points="564,-76.5 564,-95.5 663,-95.5 663,-76.5 564,-76.5"/>
<text text-anchor="middle" x="613.5" y="-83.5" font-family="Helvetica,sans-Serif" font-size="10.00">HsqsMapping</text>
</a>
</g>
</g>
<!-- Node3&#45;&gt;Node9 -->
<g id="edge9" class="edge">
<title>Node3&#45;&gt;Node9</title>
<path fill="none" stroke="#9a32cd" stroke-dasharray="5,2" d="M406.94,-169.76C445.3,-159.28 500.08,-142.78 546,-123 564.32,-115.11 584.17,-103.65 597.36,-95.58"/>
<polygon fill="#9a32cd" stroke="#9a32cd" points="405.81,-166.44 397.06,-172.42 407.63,-173.2 405.81,-166.44"/>
<text text-anchor="middle" x="519.5" y="-146" font-family="Helvetica,sans-Serif" font-size="10.00"> mapper</text>
</g>
<!-- Node3&#45;&gt;Node15 -->
<g id="edge18" class="edge">
<title>Node3&#45;&gt;Node15</title>
<path fill="none" stroke="#9a32cd" stroke-dasharray="5,2" d="M414.43,-181.19C557.85,-179.14 952.91,-173.78 1282,-172 1325.55,-171.76 1336.51,-169.53 1380,-172 1407.36,-173.55 1437.98,-177.03 1461.82,-180.13"/>
<polygon fill="#9a32cd" stroke="#9a32cd" points="414.09,-177.69 404.14,-181.34 414.19,-184.69 414.09,-177.69"/>
<text text-anchor="middle" x="907" y="-180" font-family="Helvetica,sans-Serif" font-size="10.00"> mapper</text>
</g>
<!-- Node4 -->
<g id="node4" class="node">
<title>Node4</title>
<g id="a_node4"><a xlink:href="structHsqsMemoryMapperImpl.html" target="_top" xlink:title=" ">
<polygon fill="white" stroke="black" points="0,-248.5 0,-267.5 167,-267.5 167,-248.5 0,-248.5"/>
<text text-anchor="middle" x="83.5" y="-255.5" font-family="Helvetica,sans-Serif" font-size="10.00">HsqsMemoryMapperImpl</text>
</a>
</g>
</g>
<!-- Node4&#45;&gt;Node3 -->
<g id="edge3" class="edge">
<title>Node4&#45;&gt;Node3</title>
<path fill="none" stroke="#9a32cd" stroke-dasharray="5,2" d="M138.18,-246.17C147.81,-243.9 157.72,-241.46 167,-239 224.09,-223.88 289.96,-203.44 327.22,-191.59"/>
<polygon fill="#9a32cd" stroke="#9a32cd" points="137.25,-242.79 128.3,-248.47 138.84,-249.61 137.25,-242.79"/>
<text text-anchor="middle" x="204" y="-237" font-family="Helvetica,sans-Serif" font-size="10.00"> impl</text>
</g>
<!-- Node5 -->
<g id="node5" class="node">
<title>Node5</title>
<g id="a_node5"><a xlink:href="structHsqsMmapFullMapper.html" target="_top" xlink:title=" ">
<polygon fill="white" stroke="black" points="7.5,-210.5 7.5,-229.5 159.5,-229.5 159.5,-210.5 7.5,-210.5"/>
<text text-anchor="middle" x="83.5" y="-217.5" font-family="Helvetica,sans-Serif" font-size="10.00">HsqsMmapFullMapper</text>
</a>
</g>
</g>
<!-- Node5&#45;&gt;Node3 -->
<g id="edge4" class="edge">
<title>Node5&#45;&gt;Node3</title>
<path fill="none" stroke="#9a32cd" stroke-dasharray="5,2" d="M163.01,-209.05C211.21,-202.33 271.25,-193.96 311.66,-188.32"/>
<polygon fill="#9a32cd" stroke="#9a32cd" points="162.33,-205.61 152.91,-210.46 163.3,-212.55 162.33,-205.61"/>
<text text-anchor="middle" x="204" y="-209" font-family="Helvetica,sans-Serif" font-size="10.00"> mc</text>
</g>
<!-- Node6 -->
<g id="node6" class="node">
<title>Node6</title>
<g id="a_node6"><a xlink:href="structHsqsMmapMapper.html" target="_top" xlink:title=" ">
<polygon fill="white" stroke="black" points="22.5,-172.5 22.5,-191.5 144.5,-191.5 144.5,-172.5 22.5,-172.5"/>
<text text-anchor="middle" x="83.5" y="-179.5" font-family="Helvetica,sans-Serif" font-size="10.00">HsqsMmapMapper</text>
</a>
</g>
</g>
<!-- Node6&#45;&gt;Node3 -->
<g id="edge5" class="edge">
<title>Node6&#45;&gt;Node3</title>
<path fill="none" stroke="#9a32cd" stroke-dasharray="5,2" d="M154.64,-182C204.15,-182 269.04,-182 311.82,-182"/>
<polygon fill="#9a32cd" stroke="#9a32cd" points="154.64,-178.5 144.64,-182 154.64,-185.5 154.64,-178.5"/>
<text text-anchor="middle" x="204" y="-185" font-family="Helvetica,sans-Serif" font-size="10.00"> mm</text>
</g>
<!-- Node7 -->
<g id="node7" class="node">
<title>Node7</title>
<g id="a_node7"><a xlink:href="structHsqsStaticMapper.html" target="_top" xlink:title=" ">
<polygon fill="white" stroke="black" points="15,-134.5 15,-153.5 152,-153.5 152,-134.5 15,-134.5"/>
<text text-anchor="middle" x="83.5" y="-141.5" font-family="Helvetica,sans-Serif" font-size="10.00">HsqsStaticMapper</text>
</a>
</g>
</g>
<!-- Node7&#45;&gt;Node3 -->
<g id="edge6" class="edge">
<title>Node7&#45;&gt;Node3</title>
<path fill="none" stroke="#9a32cd" stroke-dasharray="5,2" d="M162.34,-154.85C210.73,-161.6 271.24,-170.04 311.84,-175.7"/>
<polygon fill="#9a32cd" stroke="#9a32cd" points="162.6,-151.36 152.21,-153.44 161.63,-158.29 162.6,-151.36"/>
<text text-anchor="middle" x="204" y="-166" font-family="Helvetica,sans-Serif" font-size="10.00"> sm</text>
</g>
<!-- Node8 -->
<g id="node8" class="node">
<title>Node8</title>
<g id="a_node8"><a xlink:href="structHsqsCanaryMapper.html" target="_top" xlink:title=" ">
<polygon fill="white" stroke="black" points="15,-96.5 15,-115.5 152,-115.5 152,-96.5 15,-96.5"/>
<text text-anchor="middle" x="83.5" y="-103.5" font-family="Helvetica,sans-Serif" font-size="10.00">HsqsCanaryMapper</text>
</a>
</g>
</g>
<!-- Node8&#45;&gt;Node3 -->
<g id="edge7" class="edge">
<title>Node8&#45;&gt;Node3</title>
<path fill="none" stroke="#9a32cd" stroke-dasharray="5,2" d="M138.18,-117.83C147.81,-120.1 157.72,-122.54 167,-125 224.09,-140.12 289.96,-160.56 327.22,-172.41"/>
<polygon fill="#9a32cd" stroke="#9a32cd" points="138.84,-114.39 128.3,-115.53 137.25,-121.21 138.84,-114.39"/>
<text text-anchor="middle" x="204" y="-143" font-family="Helvetica,sans-Serif" font-size="10.00"> cn</text>
</g>
<!-- Node9&#45;&gt;Node2 -->
<g id="edge8" class="edge">
<title>Node9&#45;&gt;Node2</title>
<path fill="none" stroke="#9a32cd" stroke-dasharray="5,2" d="M664.2,-97.68C669.85,-98.87 675.54,-100 681,-101 832.43,-128.63 875.17,-109.69 1024,-149 1102.12,-169.63 1119.93,-181.53 1193,-216 1202.2,-220.34 1212.17,-225.78 1220.23,-230.38"/>
<polygon fill="#9a32cd" stroke="#9a32cd" points="664.64,-94.2 654.13,-95.5 663.16,-101.04 664.64,-94.2"/>
<text text-anchor="middle" x="907" y="-152" font-family="Helvetica,sans-Serif" font-size="10.00"> table_map</text>
</g>
<!-- Node14 -->
<g id="node14" class="node">
<title>Node14</title>
<g id="a_node14"><a xlink:href="structHsqsSuperblockContext.html" target="_top" xlink:title=" ">
<polygon fill="white" stroke="black" points="820,-76.5 820,-95.5 994,-95.5 994,-76.5 820,-76.5"/>
<text text-anchor="middle" x="907" y="-83.5" font-family="Helvetica,sans-Serif" font-size="10.00">HsqsSuperblockContext</text>
</a>
</g>
</g>
<!-- Node9&#45;&gt;Node14 -->
<g id="edge15" class="edge">
<title>Node9&#45;&gt;Node14</title>
<path fill="none" stroke="#9a32cd" stroke-dasharray="5,2" d="M673.37,-86C715.43,-86 772.68,-86 819.87,-86"/>
<polygon fill="#9a32cd" stroke="#9a32cd" points="673.29,-82.5 663.29,-86 673.29,-89.5 673.29,-82.5"/>
<text text-anchor="middle" x="726.5" y="-89" font-family="Helvetica,sans-Serif" font-size="10.00"> mapping</text>
</g>
<!-- Node9&#45;&gt;Node15 -->
<g id="edge19" class="edge">
<title>Node9&#45;&gt;Node15</title>
<path fill="none" stroke="#9a32cd" stroke-dasharray="5,2" d="M673.41,-78.02C707.41,-73.81 751.03,-69.1 790,-67 969.03,-57.34 1016.03,-56.26 1193,-85 1276.99,-98.64 1299.64,-98.04 1380,-126 1419.72,-139.82 1463.31,-163.21 1486.44,-176.33"/>
<polygon fill="#9a32cd" stroke="#9a32cd" points="672.67,-74.58 663.18,-79.3 673.54,-81.53 672.67,-74.58"/>
<text text-anchor="middle" x="1117.5" y="-88" font-family="Helvetica,sans-Serif" font-size="10.00"> lookup_table</text>
</g>
<!-- Node9&#45;&gt;Node16 -->
<g id="edge22" class="edge">
<title>Node9&#45;&gt;Node16</title>
<path fill="none" stroke="#9a32cd" stroke-dasharray="5,2" d="M644.11,-72.37C696,-49.77 807.24,-7 906,-7 906,-7 906,-7 1505,-7 1598.94,-7 1707.51,-33.63 1760.51,-48.41"/>
<polygon fill="#9a32cd" stroke="#9a32cd" points="642.57,-69.22 634.84,-76.47 645.4,-75.63 642.57,-69.22"/>
<text text-anchor="middle" x="1237.5" y="-10" font-family="Helvetica,sans-Serif" font-size="10.00"> header</text>
</g>
<!-- Node10 -->
<g id="node10" class="node">
<title>Node10</title>
<g id="a_node10"><a xlink:href="structHsqsMmapFullMap.html" target="_top" xlink:title=" ">
<polygon fill="white" stroke="black" points="293.5,-38.5 293.5,-57.5 422.5,-57.5 422.5,-38.5 293.5,-38.5"/>
<text text-anchor="middle" x="358" y="-45.5" font-family="Helvetica,sans-Serif" font-size="10.00">HsqsMmapFullMap</text>
</a>
</g>
</g>
<!-- Node10&#45;&gt;Node9 -->
<g id="edge10" class="edge">
<title>Node10&#45;&gt;Node9</title>
<path fill="none" stroke="#9a32cd" stroke-dasharray="5,2" d="M432.85,-55.37C467.34,-59.25 508.9,-64.55 546,-71 554.86,-72.54 564.32,-74.49 573.25,-76.47"/>
<polygon fill="#9a32cd" stroke="#9a32cd" points="433.17,-51.88 422.85,-54.26 432.4,-58.84 433.17,-51.88"/>
<text text-anchor="middle" x="519.5" y="-74" font-family="Helvetica,sans-Serif" font-size="10.00"> mc</text>
</g>
<!-- Node11 -->
<g id="node11" class="node">
<title>Node11</title>
<g id="a_node11"><a xlink:href="structHsqsMmapMap.html" target="_top" xlink:title=" ">
<polygon fill="white" stroke="black" points="308.5,-0.5 308.5,-19.5 407.5,-19.5 407.5,-0.5 308.5,-0.5"/>
<text text-anchor="middle" x="358" y="-7.5" font-family="Helvetica,sans-Serif" font-size="10.00">HsqsMmapMap</text>
</a>
</g>
</g>
<!-- Node11&#45;&gt;Node9 -->
<g id="edge11" class="edge">
<title>Node11&#45;&gt;Node9</title>
<path fill="none" stroke="#9a32cd" stroke-dasharray="5,2" d="M418.02,-16.6C455.67,-22.18 504.94,-32.07 546,-49 564.57,-56.66 584.53,-68.26 597.68,-76.43"/>
<polygon fill="#9a32cd" stroke="#9a32cd" points="418.11,-13.08 407.72,-15.13 417.13,-20.01 418.11,-13.08"/>
<text text-anchor="middle" x="519.5" y="-52" font-family="Helvetica,sans-Serif" font-size="10.00"> mm</text>
</g>
<!-- Node12 -->
<g id="node12" class="node">
<title>Node12</title>
<g id="a_node12"><a xlink:href="structHsqsStaticMap.html" target="_top" xlink:title=" ">
<polygon fill="white" stroke="black" points="301,-114.5 301,-133.5 415,-133.5 415,-114.5 301,-114.5"/>
<text text-anchor="middle" x="358" y="-121.5" font-family="Helvetica,sans-Serif" font-size="10.00">HsqsStaticMap</text>
</a>
</g>
</g>
<!-- Node12&#45;&gt;Node9 -->
<g id="edge12" class="edge">
<title>Node12&#45;&gt;Node9</title>
<path fill="none" stroke="#9a32cd" stroke-dasharray="5,2" d="M425.55,-116.77C461.35,-112.55 506.2,-106.73 546,-100 553.68,-98.7 561.82,-97.14 569.67,-95.54"/>
<polygon fill="#9a32cd" stroke="#9a32cd" points="424.75,-113.34 415.22,-117.97 425.56,-120.29 424.75,-113.34"/>
<text text-anchor="middle" x="519.5" y="-111" font-family="Helvetica,sans-Serif" font-size="10.00"> sm</text>
</g>
<!-- Node13 -->
<g id="node13" class="node">
<title>Node13</title>
<g id="a_node13"><a xlink:href="structHsqsCanaryMap.html" target="_top" xlink:title=" ">
<polygon fill="white" stroke="black" points="301,-76.5 301,-95.5 415,-95.5 415,-76.5 301,-76.5"/>
<text text-anchor="middle" x="358" y="-83.5" font-family="Helvetica,sans-Serif" font-size="10.00">HsqsCanaryMap</text>
</a>
</g>
</g>
<!-- Node13&#45;&gt;Node9 -->
<g id="edge13" class="edge">
<title>Node13&#45;&gt;Node9</title>
<path fill="none" stroke="#9a32cd" stroke-dasharray="5,2" d="M425.43,-86C468.77,-86 524.38,-86 563.66,-86"/>
<polygon fill="#9a32cd" stroke="#9a32cd" points="425.26,-82.5 415.26,-86 425.26,-89.5 425.26,-82.5"/>
<text text-anchor="middle" x="519.5" y="-89" font-family="Helvetica,sans-Serif" font-size="10.00"> cn</text>
</g>
<!-- Node14&#45;&gt;Node2 -->
<g id="edge14" class="edge">
<title>Node14&#45;&gt;Node2</title>
<path fill="none" stroke="#9a32cd" stroke-dasharray="5,2" d="M1004.23,-95.06C1083.99,-102.96 1185.49,-114.04 1193,-120 1228.24,-147.97 1234.94,-207.04 1236.21,-230.3"/>
<polygon fill="#9a32cd" stroke="#9a32cd" points="1004.42,-91.57 994.12,-94.07 1003.73,-98.53 1004.42,-91.57"/>
<text text-anchor="middle" x="1117.5" y="-123" font-family="Helvetica,sans-Serif" font-size="10.00"> superblock</text>
</g>
<!-- Node14&#45;&gt;Node17 -->
<g id="edge25" class="edge">
<title>Node14&#45;&gt;Node17</title>
<path fill="none" stroke="#9a32cd" stroke-dasharray="5,2" d="M1004.53,-82.57C1140.4,-79.24 1395.42,-78.46 1610,-109 1652.69,-115.08 1667.76,-109.64 1704,-133 1745.52,-159.76 1776.49,-212.46 1788.05,-234.23"/>
<polygon fill="#9a32cd" stroke="#9a32cd" points="1004.07,-79.08 994.16,-82.84 1004.25,-86.08 1004.07,-79.08"/>
<text text-anchor="middle" x="1331" y="-91" font-family="Helvetica,sans-Serif" font-size="10.00"> superblock</text>
</g>
<!-- Node15&#45;&gt;Node2 -->
<g id="edge16" class="edge">
<title>Node15&#45;&gt;Node2</title>
<path fill="none" stroke="#9a32cd" stroke-dasharray="5,2" d="M1451.74,-178.09C1405.34,-173.25 1336.17,-171.93 1282,-196 1265.71,-203.24 1252.25,-219.59 1244.81,-230.19"/>
<polygon fill="#9a32cd" stroke="#9a32cd" points="1451.53,-181.59 1461.86,-179.24 1452.32,-174.63 1451.53,-181.59"/>
<text text-anchor="middle" x="1331" y="-210" font-family="Helvetica,sans-Serif" font-size="10.00"> export_table</text>
<text text-anchor="middle" x="1331" y="-199" font-family="Helvetica,sans-Serif" font-size="10.00">id_table</text>
</g>
<!-- Node15&#45;&gt;Node16 -->
<g id="edge23" class="edge">
<title>Node15&#45;&gt;Node16</title>
<path fill="none" stroke="#9a32cd" stroke-dasharray="5,2" d="M1556.15,-176.17C1573.54,-172.09 1592.9,-166.71 1610,-160 1676.7,-133.82 1749.11,-87.53 1778.95,-67.58"/>
<polygon fill="#9a32cd" stroke="#9a32cd" points="1555.14,-172.81 1546.16,-178.43 1556.69,-179.64 1555.14,-172.81"/>
<text text-anchor="middle" x="1666" y="-155" font-family="Helvetica,sans-Serif" font-size="10.00"> table</text>
</g>
<!-- Node15&#45;&gt;Node17 -->
<g id="edge26" class="edge">
<title>Node15&#45;&gt;Node17</title>
<path fill="none" stroke="#9a32cd" stroke-dasharray="5,2" d="M1556.17,-192.91C1596.54,-198.74 1654.16,-207.9 1704,-219 1723.58,-223.36 1745.26,-229.42 1762.32,-234.49"/>
<polygon fill="#9a32cd" stroke="#9a32cd" points="1556.43,-189.41 1546.03,-191.46 1555.44,-196.34 1556.43,-189.41"/>
<text text-anchor="middle" x="1666" y="-222" font-family="Helvetica,sans-Serif" font-size="10.00"> table</text>
</g>
<!-- Node16&#45;&gt;Node2 -->
<g id="edge20" class="edge">
<title>Node16&#45;&gt;Node2</title>
<path fill="none" stroke="#9a32cd" stroke-dasharray="5,2" d="M1722.56,-49.12C1598.56,-35.1 1348.15,-14.48 1282,-67 1255.8,-87.8 1242.85,-196.66 1239.44,-230.17"/>
<polygon fill="#9a32cd" stroke="#9a32cd" points="1722.38,-52.62 1732.71,-50.29 1723.18,-45.67 1722.38,-52.62"/>
<text text-anchor="middle" x="1504" y="-42" font-family="Helvetica,sans-Serif" font-size="10.00"> xattr_table</text>
</g>
<!-- Node17&#45;&gt;Node1 -->
<g id="edge31" class="edge">
<title>Node17&#45;&gt;Node1</title>
<path fill="none" stroke="#9a32cd" stroke-dasharray="5,2" d="M1821.56,-258.52C1878.8,-289.82 2012.55,-362.94 2060.77,-389.31"/>
<polygon fill="#9a32cd" stroke="#9a32cd" points="1823.19,-255.42 1812.73,-253.7 1819.83,-261.56 1823.19,-255.42"/>
<text text-anchor="middle" x="1940.5" y="-356" font-family="Helvetica,sans-Serif" font-size="10.00"> fragment_table</text>
</g>
<!-- Node17&#45;&gt;Node2 -->
<g id="edge24" class="edge">
<title>Node17&#45;&gt;Node2</title>
<path fill="none" stroke="#9a32cd" stroke-dasharray="5,2" d="M1711.59,-245.53C1628.29,-247.02 1495.13,-249.16 1380,-250 1336.45,-250.32 1325.28,-254.91 1282,-250 1275.22,-249.23 1267.97,-247.81 1261.36,-246.27"/>
<polygon fill="#9a32cd" stroke="#9a32cd" points="1711.81,-249.03 1721.75,-245.35 1711.69,-242.03 1711.81,-249.03"/>
<text text-anchor="middle" x="1504" y="-253" font-family="Helvetica,sans-Serif" font-size="10.00"> fragment_table</text>
</g>
<!-- Node18 -->
<g id="node18" class="node">
<title>Node18</title>
<g id="a_node18"><a xlink:href="structHsqsCompressionOptionsContext.html" target="_top" xlink:title=" ">
<polygon fill="white" stroke="black" points="790,-349.5 790,-368.5 1024,-368.5 1024,-349.5 790,-349.5"/>
<text text-anchor="middle" x="907" y="-356.5" font-family="Helvetica,sans-Serif" font-size="10.00">HsqsCompressionOptionsContext</text>
</a>
</g>
</g>
<!-- Node18&#45;&gt;Node2 -->
<g id="edge28" class="edge">
<title>Node18&#45;&gt;Node2</title>
<path fill="none" stroke="#9a32cd" stroke-dasharray="5,2" d="M943.75,-346.05C1011.6,-321.47 1157.26,-268.7 1213.6,-248.3"/>
<polygon fill="#9a32cd" stroke="#9a32cd" points="942.54,-342.77 934.33,-349.46 944.92,-349.35 942.54,-342.77"/>
<text text-anchor="middle" x="1117.5" y="-313" font-family="Helvetica,sans-Serif" font-size="10.00"> compression_options</text>
</g>
<!-- Node19 -->
<g id="node19" class="node">
<title>Node19</title>
<g id="a_node19"><a xlink:href="structHsqsBuffer.html" target="_top" xlink:title=" ">
<polygon fill="white" stroke="black" points="567.5,-422.5 567.5,-441.5 659.5,-441.5 659.5,-422.5 567.5,-422.5"/>
<text text-anchor="middle" x="613.5" y="-429.5" font-family="Helvetica,sans-Serif" font-size="10.00">HsqsBuffer</text>
</a>
</g>
</g>
<!-- Node19&#45;&gt;Node1 -->
<g id="edge37" class="edge">
<title>Node19&#45;&gt;Node1</title>
<path fill="none" stroke="#9a32cd" stroke-dasharray="5,2" d="M669.82,-443.55C728.25,-454.73 823.19,-470 906,-470 906,-470 906,-470 1795,-470 1894.96,-470 2008.96,-427.96 2056.19,-408.58"/>
<polygon fill="#9a32cd" stroke="#9a32cd" points="670.19,-440.06 659.7,-441.59 668.85,-446.93 670.19,-440.06"/>
<text text-anchor="middle" x="1331" y="-473" font-family="Helvetica,sans-Serif" font-size="10.00"> buffer</text>
</g>
<!-- Node19&#45;&gt;Node18 -->
<g id="edge29" class="edge">
<title>Node19&#45;&gt;Node18</title>
<path fill="none" stroke="#9a32cd" stroke-dasharray="5,2" d="M646.74,-418.77C657.52,-414.65 669.67,-410.32 681,-407 737.73,-390.39 804.07,-376.94 849.94,-368.55"/>
<polygon fill="#9a32cd" stroke="#9a32cd" points="645.33,-415.56 637.3,-422.46 647.88,-422.08 645.33,-415.56"/>
<text text-anchor="middle" x="726.5" y="-410" font-family="Helvetica,sans-Serif" font-size="10.00"> buffer</text>
</g>
<!-- Node19&#45;&gt;Node22 -->
<g id="edge35" class="edge">
<title>Node19&#45;&gt;Node22</title>
<path fill="none" stroke="#9a32cd" stroke-dasharray="5,2" d="M670.01,-429.42C796.22,-423.41 1114.31,-407.51 1380,-388 1386.31,-387.54 1392.79,-387.03 1399.34,-386.51"/>
<polygon fill="#9a32cd" stroke="#9a32cd" points="669.65,-425.93 659.83,-429.9 669.99,-432.92 669.65,-425.93"/>
<text text-anchor="middle" x="1117.5" y="-412" font-family="Helvetica,sans-Serif" font-size="10.00"> buffer</text>
</g>
<!-- Node20 -->
<g id="node20" class="node">
<title>Node20</title>
<g id="a_node20"><a xlink:href="structHsqsCompressionImplementation.html" target="_top" xlink:title=" ">
<polygon fill="white" stroke="black" points="241,-422.5 241,-441.5 475,-441.5 475,-422.5 241,-422.5"/>
<text text-anchor="middle" x="358" y="-429.5" font-family="Helvetica,sans-Serif" font-size="10.00">HsqsCompressionImplementation</text>
</a>
</g>
</g>
<!-- Node20&#45;&gt;Node19 -->
<g id="edge30" class="edge">
<title>Node20&#45;&gt;Node19</title>
<path fill="none" stroke="#9a32cd" stroke-dasharray="5,2" d="M485.72,-432C515.03,-432 544.35,-432 567.39,-432"/>
<polygon fill="#9a32cd" stroke="#9a32cd" points="485.36,-428.5 475.36,-432 485.36,-435.5 485.36,-428.5"/>
<text text-anchor="middle" x="519.5" y="-435" font-family="Helvetica,sans-Serif" font-size="10.00"> impl</text>
</g>
<!-- Node21&#45;&gt;Node1 -->
<g id="edge32" class="edge">
<title>Node21&#45;&gt;Node1</title>
<path fill="none" stroke="#9a32cd" stroke-dasharray="5,2" d="M1873.2,-381.2C1910.68,-383.42 1956.2,-386.44 1997,-390 2002.81,-390.51 2008.86,-391.08 2014.91,-391.69"/>
<polygon fill="#9a32cd" stroke="#9a32cd" points="1873.04,-377.68 1862.85,-380.59 1872.63,-384.67 1873.04,-377.68"/>
<text text-anchor="middle" x="1940.5" y="-393" font-family="Helvetica,sans-Serif" font-size="10.00"> inode</text>
</g>
<!-- Node22&#45;&gt;Node21 -->
<g id="edge33" class="edge">
<title>Node22&#45;&gt;Node21</title>
<path fill="none" stroke="#9a32cd" stroke-dasharray="5,2" d="M1620.64,-377C1656.15,-377 1694.06,-377 1725.26,-377"/>
<polygon fill="#9a32cd" stroke="#9a32cd" points="1620.2,-373.5 1610.2,-377 1620.2,-380.5 1620.2,-373.5"/>
<text text-anchor="middle" x="1666" y="-380" font-family="Helvetica,sans-Serif" font-size="10.00"> metablock</text>
</g>
</g>
</svg>
