<?xml version="1.0" encoding="UTF-8" standalone="no"?>
<!DOCTYPE svg PUBLIC "-//W3C//DTD SVG 1.1//EN"
 "http://www.w3.org/Graphics/SVG/1.1/DTD/svg11.dtd">
<!-- Generated by graphviz version 7.0.4 (20221203.1631)
 -->
<!-- Title: SqshMapper Pages: 1 -->
<svg width="341pt" height="212pt"
 viewBox="0.00 0.00 341.00 212.00" xmlns="http://www.w3.org/2000/svg" xmlns:xlink="http://www.w3.org/1999/xlink">
<g id="graph0" class="graph" transform="scale(1 1) rotate(0) translate(4 208)">
<title>SqshMapper</title>
<!-- Node1 -->
<g id="node1" class="node">
<title>Node1</title>
<g id="a_node1"><a xlink:title=" ">
<polygon fill="#999999" stroke="#666666" points="333,-111 241,-111 241,-92 333,-92 333,-111"/>
<text text-anchor="middle" x="287" y="-99" font-family="Helvetica,sans-Serif" font-size="10.00">SqshMapper</text>
</a>
</g>
</g>
<!-- Node2 -->
<g id="node2" class="node">
<title>Node2</title>
<g id="a_node2"><a xlink:href="structSqshMemoryMapperImpl.html" target="_top" xlink:title=" ">
<polygon fill="white" stroke="#666666" points="167,-204 0,-204 0,-185 167,-185 167,-204"/>
<text text-anchor="middle" x="83.5" y="-192" font-family="Helvetica,sans-Serif" font-size="10.00">SqshMemoryMapperImpl</text>
</a>
</g>
</g>
<!-- Node2&#45;&gt;Node1 -->
<g id="edge1" class="edge">
<title>Node2&#45;&gt;Node1</title>
<path fill="none" stroke="#9a32cd" stroke-dasharray="5,2" d="M149.17,-181.82C155.24,-180.2 161.27,-178.43 167,-176.5 193.01,-167.74 199.58,-164.79 223,-150.5 242.4,-138.66 262.8,-121.88 274.95,-111.35"/>
<polygon fill="#9a32cd" stroke="#9a32cd" points="148.54,-178.37 139.69,-184.21 150.24,-185.16 148.54,-178.37"/>
<text text-anchor="middle" x="204" y="-172.5" font-family="Helvetica,sans-Serif" font-size="10.00"> impl</text>
</g>
<!-- Node3 -->
<g id="node3" class="node">
<title>Node3</title>
<g id="a_node3"><a xlink:href="structSqshMmapFullMapper.html" target="_top" xlink:title=" ">
<polygon fill="white" stroke="#666666" points="159.5,-167 7.5,-167 7.5,-148 159.5,-148 159.5,-167"/>
<text text-anchor="middle" x="83.5" y="-155" font-family="Helvetica,sans-Serif" font-size="10.00">SqshMmapFullMapper</text>
</a>
</g>
</g>
<!-- Node3&#45;&gt;Node1 -->
<g id="edge2" class="edge">
<title>Node3&#45;&gt;Node1</title>
<path fill="none" stroke="#9a32cd" stroke-dasharray="5,2" d="M147.38,-145.13C171.28,-139.87 198.61,-133.16 223,-125.5 236.06,-121.39 250.35,-116.03 262,-111.41"/>
<polygon fill="#9a32cd" stroke="#9a32cd" points="146.83,-141.67 137.79,-147.2 148.31,-148.51 146.83,-141.67"/>
<text text-anchor="middle" x="204" y="-138.5" font-family="Helvetica,sans-Serif" font-size="10.00"> mc</text>
</g>
<!-- Node4 -->
<g id="node4" class="node">
<title>Node4</title>
<g id="a_node4"><a xlink:href="structSqshMmapMapper.html" target="_top" xlink:title=" ">
<polygon fill="white" stroke="#666666" points="144.5,-130 22.5,-130 22.5,-111 144.5,-111 144.5,-130"/>
<text text-anchor="middle" x="83.5" y="-118" font-family="Helvetica,sans-Serif" font-size="10.00">SqshMmapMapper</text>
</a>
</g>
</g>
<!-- Node4&#45;&gt;Node1 -->
<g id="edge3" class="edge">
<title>Node4&#45;&gt;Node1</title>
<path fill="none" stroke="#9a32cd" stroke-dasharray="5,2" d="M156.35,-113.72C184.44,-111.08 215.8,-108.12 240.64,-105.78"/>
<polygon fill="#9a32cd" stroke="#9a32cd" points="156.09,-110.23 146.46,-114.66 156.75,-117.2 156.09,-110.23"/>
<text text-anchor="middle" x="204" y="-113.5" font-family="Helvetica,sans-Serif" font-size="10.00"> mm</text>
</g>
<!-- Node5 -->
<g id="node5" class="node">
<title>Node5</title>
<g id="a_node5"><a xlink:href="structSqshStaticMapper.html" target="_top" xlink:title=" ">
<polygon fill="white" stroke="#666666" points="152,-93 15,-93 15,-74 152,-74 152,-93"/>
<text text-anchor="middle" x="83.5" y="-81" font-family="Helvetica,sans-Serif" font-size="10.00">SqshStaticMapper</text>
</a>
</g>
</g>
<!-- Node5&#45;&gt;Node1 -->
<g id="edge4" class="edge">
<title>Node5&#45;&gt;Node1</title>
<path fill="none" stroke="#9a32cd" stroke-dasharray="5,2" d="M163.62,-83.2C183.09,-83.83 203.84,-85.12 223,-87.5 230.67,-88.45 238.78,-89.91 246.54,-91.53"/>
<polygon fill="#9a32cd" stroke="#9a32cd" points="163.93,-79.7 153.84,-82.93 163.74,-86.7 163.93,-79.7"/>
<text text-anchor="middle" x="204" y="-90.5" font-family="Helvetica,sans-Serif" font-size="10.00"> sm</text>
</g>
<!-- Node6 -->
<g id="node6" class="node">
<title>Node6</title>
<g id="a_node6"><a xlink:href="structSqshCanaryMapper.html" target="_top" xlink:title=" ">
<polygon fill="white" stroke="#666666" points="152,-56 15,-56 15,-37 152,-37 152,-56"/>
<text text-anchor="middle" x="83.5" y="-44" font-family="Helvetica,sans-Serif" font-size="10.00">SqshCanaryMapper</text>
</a>
</g>
</g>
<!-- Node6&#45;&gt;Node1 -->
<g id="edge5" class="edge">
<title>Node6&#45;&gt;Node1</title>
<path fill="none" stroke="#9a32cd" stroke-dasharray="5,2" d="M163.6,-54.53C183.3,-57.76 204.17,-62.26 223,-68.5 240.11,-74.17 258.2,-84.11 270.58,-91.6"/>
<polygon fill="#9a32cd" stroke="#9a32cd" points="164.38,-51.11 153.97,-53.05 163.32,-58.03 164.38,-51.11"/>
<text text-anchor="middle" x="204" y="-71.5" font-family="Helvetica,sans-Serif" font-size="10.00"> cn</text>
</g>
<!-- Node7 -->
<g id="node7" class="node">
<title>Node7</title>
<g id="a_node7"><a xlink:href="structSqshCurlMapper.html" target="_top" xlink:title=" ">
<polygon fill="white" stroke="#666666" points="144.5,-19 22.5,-19 22.5,0 144.5,0 144.5,-19"/>
<text text-anchor="middle" x="83.5" y="-7" font-family="Helvetica,sans-Serif" font-size="10.00">SqshCurlMapper</text>
</a>
</g>
</g>
<!-- Node7&#45;&gt;Node1 -->
<g id="edge6" class="edge">
<title>Node7&#45;&gt;Node1</title>
<path fill="none" stroke="#9a32cd" stroke-dasharray="5,2" d="M156.12,-19.62C178.47,-24.7 202.59,-32.27 223,-43.5 245.93,-56.11 267.11,-78.8 278.1,-91.74"/>
<polygon fill="#9a32cd" stroke="#9a32cd" points="156.97,-16.22 146.46,-17.57 155.51,-23.07 156.97,-16.22"/>
<text text-anchor="middle" x="204" y="-46.5" font-family="Helvetica,sans-Serif" font-size="10.00"> cl</text>
</g>
</g>
</svg>
