<?xml version="1.0" encoding="UTF-8" standalone="no"?>
<!DOCTYPE svg PUBLIC "-//W3C//DTD SVG 1.1//EN"
 "http://www.w3.org/Graphics/SVG/1.1/DTD/svg11.dtd">
<!-- Generated by graphviz version 7.0.5 (20221223.1930)
 -->
<!-- Title: SqshMapper Pages: 1 -->
<svg width="751pt" height="93pt"
 viewBox="0.00 0.00 751.00 93.00" xmlns="http://www.w3.org/2000/svg" xmlns:xlink="http://www.w3.org/1999/xlink">
<g id="graph0" class="graph" transform="scale(1 1) rotate(0) translate(4 89)">
<title>SqshMapper</title>
<!-- Node1 -->
<g id="node1" class="node">
<title>Node1</title>
<g id="a_node1"><a xlink:title=" ">
<polygon fill="#999999" stroke="#666666" points="425,-19 333,-19 333,0 425,0 425,-19"/>
<text text-anchor="middle" x="379" y="-7" font-family="Helvetica,sans-Serif" font-size="10.00">SqshMapper</text>
</a>
</g>
</g>
<!-- Node2 -->
<g id="node2" class="node">
<title>Node2</title>
<g id="a_node2"><a xlink:href="structSqshMmapFullMapper.html" target="_top" xlink:title=" ">
<polygon fill="white" stroke="#666666" points="152,-85 0,-85 0,-66 152,-66 152,-85"/>
<text text-anchor="middle" x="76" y="-73" font-family="Helvetica,sans-Serif" font-size="10.00">SqshMmapFullMapper</text>
</a>
</g>
</g>
<!-- Node2&#45;&gt;Node1 -->
<g id="edge1" class="edge">
<title>Node2&#45;&gt;Node1</title>
<path fill="none" stroke="#9a32cd" stroke-dasharray="5,2" d="M129.43,-63.21C188.56,-50.72 282.66,-30.85 336.84,-19.41"/>
<polygon fill="#9a32cd" stroke="#9a32cd" points="128.99,-59.73 119.93,-65.22 130.44,-66.58 128.99,-59.73"/>
<text text-anchor="middle" x="257.5" y="-40" font-family="Helvetica,sans-Serif" font-size="10.00"> mc</text>
</g>
<!-- Node3 -->
<g id="node3" class="node">
<title>Node3</title>
<g id="a_node3"><a xlink:href="structSqshMmapMapper.html" target="_top" xlink:title=" ">
<polygon fill="white" stroke="#666666" points="292,-85 170,-85 170,-66 292,-66 292,-85"/>
<text text-anchor="middle" x="231" y="-73" font-family="Helvetica,sans-Serif" font-size="10.00">SqshMmapMapper</text>
</a>
</g>
</g>
<!-- Node3&#45;&gt;Node1 -->
<g id="edge2" class="edge">
<title>Node3&#45;&gt;Node1</title>
<path fill="none" stroke="#9a32cd" stroke-dasharray="5,2" d="M261.98,-61.1C291.02,-48.54 333.61,-30.13 358.6,-19.32"/>
<polygon fill="#9a32cd" stroke="#9a32cd" points="260.76,-57.82 252.97,-65 263.54,-64.24 260.76,-57.82"/>
<text text-anchor="middle" x="325.5" y="-40" font-family="Helvetica,sans-Serif" font-size="10.00"> mm</text>
</g>
<!-- Node4 -->
<g id="node4" class="node">
<title>Node4</title>
<g id="a_node4"><a xlink:href="structSqshStaticMapper.html" target="_top" xlink:title=" ">
<polygon fill="white" stroke="#666666" points="447.5,-85 310.5,-85 310.5,-66 447.5,-66 447.5,-85"/>
<text text-anchor="middle" x="379" y="-73" font-family="Helvetica,sans-Serif" font-size="10.00">SqshStaticMapper</text>
</a>
</g>
</g>
<!-- Node4&#45;&gt;Node1 -->
<g id="edge3" class="edge">
<title>Node4&#45;&gt;Node1</title>
<path fill="none" stroke="#9a32cd" stroke-dasharray="5,2" d="M379,-54.18C379,-42.44 379,-28.27 379,-19.32"/>
<polygon fill="#9a32cd" stroke="#9a32cd" points="375.5,-54.09 379,-64.09 382.5,-54.09 375.5,-54.09"/>
<text text-anchor="middle" x="390.5" y="-40" font-family="Helvetica,sans-Serif" font-size="10.00"> sm</text>
</g>
<!-- Node5 -->
<g id="node5" class="node">
<title>Node5</title>
<g id="a_node5"><a xlink:href="structSqshCanaryMapper.html" target="_top" xlink:title=" ">
<polygon fill="white" stroke="#666666" points="602.5,-85 465.5,-85 465.5,-66 602.5,-66 602.5,-85"/>
<text text-anchor="middle" x="534" y="-73" font-family="Helvetica,sans-Serif" font-size="10.00">SqshCanaryMapper</text>
</a>
</g>
</g>
<!-- Node5&#45;&gt;Node1 -->
<g id="edge4" class="edge">
<title>Node5&#45;&gt;Node1</title>
<path fill="none" stroke="#9a32cd" stroke-dasharray="5,2" d="M501.95,-61.27C471.53,-48.71 426.66,-30.18 400.37,-19.32"/>
<polygon fill="#9a32cd" stroke="#9a32cd" points="500.47,-64.44 511.05,-65.02 503.14,-57.97 500.47,-64.44"/>
<text text-anchor="middle" x="477.5" y="-40" font-family="Helvetica,sans-Serif" font-size="10.00"> cn</text>
</g>
<!-- Node6 -->
<g id="node6" class="node">
<title>Node6</title>
<g id="a_node6"><a xlink:href="structSqshCurlMapper.html" target="_top" xlink:title=" ">
<polygon fill="white" stroke="#666666" points="743,-85 621,-85 621,-66 743,-66 743,-85"/>
<text text-anchor="middle" x="682" y="-73" font-family="Helvetica,sans-Serif" font-size="10.00">SqshCurlMapper</text>
</a>
</g>
</g>
<!-- Node6&#45;&gt;Node1 -->
<g id="edge5" class="edge">
<title>Node6&#45;&gt;Node1</title>
<path fill="none" stroke="#9a32cd" stroke-dasharray="5,2" d="M628.57,-63.21C569.44,-50.72 475.34,-30.85 421.16,-19.41"/>
<polygon fill="#9a32cd" stroke="#9a32cd" points="627.56,-66.58 638.07,-65.22 629.01,-59.73 627.56,-66.58"/>
<text text-anchor="middle" x="559.5" y="-40" font-family="Helvetica,sans-Serif" font-size="10.00"> cl</text>
</g>
</g>
</svg>
