<?xml version="1.0" encoding="UTF-8" standalone="no"?>
<!DOCTYPE svg PUBLIC "-//W3C//DTD SVG 1.1//EN"
 "http://www.w3.org/Graphics/SVG/1.1/DTD/svg11.dtd">
<!-- Generated by graphviz version 2.49.3 (20211027.1534)
 -->
<!-- Title: HsqsMetablockStreamContext Pages: 1 -->
<svg width="2606pt" height="444pt"
 viewBox="0.00 0.00 2606.00 444.00" xmlns="http://www.w3.org/2000/svg" xmlns:xlink="http://www.w3.org/1999/xlink">
<g id="graph0" class="graph" transform="scale(1 1) rotate(0) translate(4 440)">
<title>HsqsMetablockStreamContext</title>
<polygon fill="white" stroke="transparent" points="-4,4 -4,-440 2602,-440 2602,4 -4,4"/>
<!-- Node1 -->
<g id="node1" class="node">
<title>Node1</title>
<g id="a_node1"><a xlink:title=" ">
<polygon fill="#bfbfbf" stroke="black" points="2160,-1.5 2160,-20.5 2372,-20.5 2372,-1.5 2160,-1.5"/>
<text text-anchor="middle" x="2266" y="-8.5" font-family="Helvetica,sans-Serif" font-size="10.00">HsqsMetablockStreamContext</text>
</a>
</g>
</g>
<!-- Node2 -->
<g id="node2" class="node">
<title>Node2</title>
<g id="a_node2"><a xlink:href="structHsqs.html" target="_top" xlink:title=" ">
<polygon fill="white" stroke="black" points="1976,-167.5 1976,-186.5 2023,-186.5 2023,-167.5 1976,-167.5"/>
<text text-anchor="middle" x="1999.5" y="-174.5" font-family="Helvetica,sans-Serif" font-size="10.00">Hsqs</text>
</a>
</g>
</g>
<!-- Node2&#45;&gt;Node1 -->
<g id="edge1" class="edge">
<title>Node2&#45;&gt;Node1</title>
<path fill="none" stroke="#9a32cd" stroke-dasharray="5,2" d="M2000.13,-157.28C2000.72,-125.79 2006.91,-64.58 2044,-34 2061.93,-19.21 2111.95,-13.25 2159.87,-11.08"/>
<polygon fill="#9a32cd" stroke="#9a32cd" points="1996.63,-157.42 2000.12,-167.43 2003.63,-157.43 1996.63,-157.42"/>
<text text-anchor="middle" x="2093" y="-37" font-family="Helvetica,sans-Serif" font-size="10.00"> hsqs</text>
</g>
<!-- Node22 -->
<g id="node22" class="node">
<title>Node22</title>
<g id="a_node22"><a xlink:href="structHsqsTable.html" target="_top" xlink:title=" ">
<polygon fill="white" stroke="black" points="2224,-229.5 2224,-248.5 2308,-248.5 2308,-229.5 2224,-229.5"/>
<text text-anchor="middle" x="2266" y="-236.5" font-family="Helvetica,sans-Serif" font-size="10.00">HsqsTable</text>
</a>
</g>
</g>
<!-- Node2&#45;&gt;Node22 -->
<g id="edge27" class="edge">
<title>Node2&#45;&gt;Node22</title>
<path fill="none" stroke="#9a32cd" stroke-dasharray="5,2" d="M2032.8,-186.13C2036.57,-187.13 2040.36,-188.11 2044,-189 2087.27,-199.59 2098.74,-199.37 2142,-210 2150.06,-211.98 2151.95,-212.96 2160,-215 2180.94,-220.3 2204.36,-225.7 2223.75,-230.04"/>
<polygon fill="#9a32cd" stroke="#9a32cd" points="2033.58,-182.72 2023.01,-183.48 2031.75,-189.47 2033.58,-182.72"/>
<text text-anchor="middle" x="2093" y="-213" font-family="Helvetica,sans-Serif" font-size="10.00"> hsqs</text>
</g>
<!-- Node23 -->
<g id="node23" class="node">
<title>Node23</title>
<g id="a_node23"><a xlink:href="structHsqsXattrTable.html" target="_top" xlink:title=" ">
<polygon fill="white" stroke="black" points="2465,-256.5 2465,-275.5 2587,-275.5 2587,-256.5 2465,-256.5"/>
<text text-anchor="middle" x="2526" y="-263.5" font-family="Helvetica,sans-Serif" font-size="10.00">HsqsXattrTable</text>
</a>
</g>
</g>
<!-- Node2&#45;&gt;Node23 -->
<g id="edge31" class="edge">
<title>Node2&#45;&gt;Node23</title>
<path fill="none" stroke="#9a32cd" stroke-dasharray="5,2" d="M2003.68,-196.69C2008.35,-218.4 2019.34,-252.31 2044,-268 2191.42,-361.82 2419.2,-300.93 2497.48,-275.56"/>
<polygon fill="#9a32cd" stroke="#9a32cd" points="2007.07,-195.79 2001.78,-186.62 2000.19,-197.09 2007.07,-195.79"/>
<text text-anchor="middle" x="2266" y="-321" font-family="Helvetica,sans-Serif" font-size="10.00"> hsqs</text>
</g>
<!-- Node24 -->
<g id="node24" class="node">
<title>Node24</title>
<g id="a_node24"><a xlink:href="structHsqsFragmentTable.html" target="_top" xlink:title=" ">
<polygon fill="white" stroke="black" points="2454,-119.5 2454,-138.5 2598,-138.5 2598,-119.5 2454,-119.5"/>
<text text-anchor="middle" x="2526" y="-126.5" font-family="Helvetica,sans-Serif" font-size="10.00">HsqsFragmentTable</text>
</a>
</g>
</g>
<!-- Node2&#45;&gt;Node24 -->
<g id="edge37" class="edge">
<title>Node2&#45;&gt;Node24</title>
<path fill="none" stroke="#9a32cd" stroke-dasharray="5,2" d="M2022.21,-161.74C2028.96,-157.49 2036.58,-153.17 2044,-150 2092.96,-129.05 2107.17,-126.72 2160,-120 2261.39,-107.1 2379.87,-114.02 2453.68,-120.91"/>
<polygon fill="#9a32cd" stroke="#9a32cd" points="2020.07,-158.96 2013.64,-167.38 2023.92,-164.8 2020.07,-158.96"/>
<text text-anchor="middle" x="2266" y="-123" font-family="Helvetica,sans-Serif" font-size="10.00"> hsqs</text>
</g>
<!-- Node3 -->
<g id="node3" class="node">
<title>Node3</title>
<g id="a_node3"><a xlink:href="structHsqsLruHashmap.html" target="_top" xlink:title=" ">
<polygon fill="white" stroke="black" points="464,-121.5 464,-140.5 586,-140.5 586,-121.5 464,-121.5"/>
<text text-anchor="middle" x="525" y="-128.5" font-family="Helvetica,sans-Serif" font-size="10.00">HsqsLruHashmap</text>
</a>
</g>
</g>
<!-- Node3&#45;&gt;Node2 -->
<g id="edge2" class="edge">
<title>Node3&#45;&gt;Node2</title>
<path fill="none" stroke="#9a32cd" stroke-dasharray="5,2" d="M586.07,-119.81C642.7,-110.24 730.06,-98 806.5,-98 806.5,-98 806.5,-98 1753,-98 1842.77,-98 1942.52,-146.46 1981.55,-167.47"/>
<polygon fill="#9a32cd" stroke="#9a32cd" points="585.47,-116.36 576.21,-121.5 586.66,-123.26 585.47,-116.36"/>
<text text-anchor="middle" x="1244" y="-101" font-family="Helvetica,sans-Serif" font-size="10.00"> metablock_cache</text>
</g>
<!-- Node12 -->
<g id="node12" class="node">
<title>Node12</title>
<g id="a_node12"><a xlink:href="structHsqsCurlMapper.html" target="_top" xlink:title=" ">
<polygon fill="white" stroke="black" points="746.5,-146.5 746.5,-165.5 868.5,-165.5 868.5,-146.5 746.5,-146.5"/>
<text text-anchor="middle" x="807.5" y="-153.5" font-family="Helvetica,sans-Serif" font-size="10.00">HsqsCurlMapper</text>
</a>
</g>
</g>
<!-- Node3&#45;&gt;Node12 -->
<g id="edge13" class="edge">
<title>Node3&#45;&gt;Node12</title>
<path fill="none" stroke="#9a32cd" stroke-dasharray="5,2" d="M596.42,-137.28C642.64,-141.4 702.45,-146.73 746.43,-150.65"/>
<polygon fill="#9a32cd" stroke="#9a32cd" points="596.45,-133.76 586.17,-136.36 595.82,-140.74 596.45,-133.76"/>
<text text-anchor="middle" x="683" y="-149" font-family="Helvetica,sans-Serif" font-size="10.00"> cache</text>
</g>
<!-- Node4 -->
<g id="node4" class="node">
<title>Node4</title>
<g id="a_node4"><a xlink:href="structHsqsLruEntry.html" target="_top" xlink:title=" ">
<polygon fill="white" stroke="black" points="204,-121.5 204,-140.5 311,-140.5 311,-121.5 204,-121.5"/>
<text text-anchor="middle" x="257.5" y="-128.5" font-family="Helvetica,sans-Serif" font-size="10.00">HsqsLruEntry</text>
</a>
</g>
</g>
<!-- Node4&#45;&gt;Node3 -->
<g id="edge3" class="edge">
<title>Node4&#45;&gt;Node3</title>
<path fill="none" stroke="#9a32cd" stroke-dasharray="5,2" d="M321.36,-131C364.49,-131 421.39,-131 463.91,-131"/>
<polygon fill="#9a32cd" stroke="#9a32cd" points="321.27,-127.5 311.27,-131 321.27,-134.5 321.27,-127.5"/>
<text text-anchor="middle" x="359.5" y="-156" font-family="Helvetica,sans-Serif" font-size="10.00"> entries</text>
<text text-anchor="middle" x="359.5" y="-145" font-family="Helvetica,sans-Serif" font-size="10.00">newest</text>
<text text-anchor="middle" x="359.5" y="-134" font-family="Helvetica,sans-Serif" font-size="10.00">oldest</text>
</g>
<!-- Node4&#45;&gt;Node4 -->
<g id="edge5" class="edge">
<title>Node4&#45;&gt;Node4</title>
<path fill="none" stroke="#9a32cd" stroke-dasharray="5,2" d="M238.61,-150.4C239.87,-155.31 246.17,-159 257.5,-159 275.63,-159 280.87,-149.57 273.22,-140.76"/>
<polygon fill="#9a32cd" stroke="#9a32cd" points="241.98,-151.35 241.78,-140.76 235.33,-149.17 241.98,-151.35"/>
<text text-anchor="middle" x="257.5" y="-173" font-family="Helvetica,sans-Serif" font-size="10.00"> newer</text>
<text text-anchor="middle" x="257.5" y="-162" font-family="Helvetica,sans-Serif" font-size="10.00">older</text>
</g>
<!-- Node5 -->
<g id="node5" class="node">
<title>Node5</title>
<g id="a_node5"><a xlink:href="structHsqsRefCount.html" target="_top" xlink:title=" ">
<polygon fill="white" stroke="black" points="0,-160.5 0,-179.5 107,-179.5 107,-160.5 0,-160.5"/>
<text text-anchor="middle" x="53.5" y="-167.5" font-family="Helvetica,sans-Serif" font-size="10.00">HsqsRefCount</text>
</a>
</g>
</g>
<!-- Node5&#45;&gt;Node4 -->
<g id="edge4" class="edge">
<title>Node5&#45;&gt;Node4</title>
<path fill="none" stroke="#9a32cd" stroke-dasharray="5,2" d="M113.75,-158.56C143.47,-152.82 179.05,-145.95 207.25,-140.51"/>
<polygon fill="#9a32cd" stroke="#9a32cd" points="113.07,-155.13 103.91,-160.46 114.4,-162 113.07,-155.13"/>
<text text-anchor="middle" x="155.5" y="-159" font-family="Helvetica,sans-Serif" font-size="10.00"> pointer</text>
</g>
<!-- Node18 -->
<g id="node18" class="node">
<title>Node18</title>
<g id="a_node18"><a xlink:href="structHsqsCurlMap.html" target="_top" xlink:title=" ">
<polygon fill="white" stroke="black" points="995,-202.5 995,-221.5 1094,-221.5 1094,-202.5 995,-202.5"/>
<text text-anchor="middle" x="1044.5" y="-209.5" font-family="Helvetica,sans-Serif" font-size="10.00">HsqsCurlMap</text>
</a>
</g>
</g>
<!-- Node5&#45;&gt;Node18 -->
<g id="edge21" class="edge">
<title>Node5&#45;&gt;Node18</title>
<path fill="none" stroke="#9a32cd" stroke-dasharray="5,2" d="M94.35,-182.35C134.78,-193.78 199.37,-209 256.5,-209 256.5,-209 256.5,-209 808.5,-209 872.97,-209 947.37,-210.14 994.89,-211.02"/>
<polygon fill="#9a32cd" stroke="#9a32cd" points="95.19,-178.95 84.61,-179.54 93.24,-185.68 95.19,-178.95"/>
<text text-anchor="middle" x="525" y="-212" font-family="Helvetica,sans-Serif" font-size="10.00"> buffer_ref</text>
</g>
<!-- Node6 -->
<g id="node6" class="node">
<title>Node6</title>
<g id="a_node6"><a xlink:href="structHsqsMapper.html" target="_top" xlink:title=" ">
<polygon fill="white" stroke="black" points="998.5,-336.5 998.5,-355.5 1090.5,-355.5 1090.5,-336.5 998.5,-336.5"/>
<text text-anchor="middle" x="1044.5" y="-343.5" font-family="Helvetica,sans-Serif" font-size="10.00">HsqsMapper</text>
</a>
</g>
</g>
<!-- Node6&#45;&gt;Node2 -->
<g id="edge6" class="edge">
<title>Node6&#45;&gt;Node2</title>
<path fill="none" stroke="#9a32cd" stroke-dasharray="5,2" d="M1100.69,-345.61C1163.79,-344.69 1270.11,-341.68 1361,-332 1575.26,-309.18 1630.02,-303.49 1839,-251 1891.75,-237.75 1907.29,-238.12 1955,-212 1967.58,-205.11 1980.16,-194.49 1988.52,-186.75"/>
<polygon fill="#9a32cd" stroke="#9a32cd" points="1100.52,-342.11 1090.56,-345.75 1100.61,-349.11 1100.52,-342.11"/>
<text text-anchor="middle" x="1571.5" y="-330" font-family="Helvetica,sans-Serif" font-size="10.00"> mapper</text>
<text text-anchor="middle" x="1571.5" y="-319" font-family="Helvetica,sans-Serif" font-size="10.00">table_mapper</text>
</g>
<!-- Node13 -->
<g id="node13" class="node">
<title>Node13</title>
<g id="a_node13"><a xlink:href="structHsqsMapping.html" target="_top" xlink:title=" ">
<polygon fill="white" stroke="black" points="1379,-224.5 1379,-243.5 1478,-243.5 1478,-224.5 1379,-224.5"/>
<text text-anchor="middle" x="1428.5" y="-231.5" font-family="Helvetica,sans-Serif" font-size="10.00">HsqsMapping</text>
</a>
</g>
</g>
<!-- Node6&#45;&gt;Node13 -->
<g id="edge15" class="edge">
<title>Node6&#45;&gt;Node13</title>
<path fill="none" stroke="#9a32cd" stroke-dasharray="5,2" d="M1081.69,-333.2C1095.69,-328.7 1111.94,-324.02 1127,-321 1229.46,-300.46 1266.1,-341.76 1361,-298 1387.48,-285.79 1409.92,-258.59 1420.68,-243.89"/>
<polygon fill="#9a32cd" stroke="#9a32cd" points="1080.35,-329.96 1071.95,-336.42 1082.54,-336.6 1080.35,-329.96"/>
<text text-anchor="middle" x="1244" y="-324" font-family="Helvetica,sans-Serif" font-size="10.00"> mapper</text>
</g>
<!-- Node6&#45;&gt;Node22 -->
<g id="edge28" class="edge">
<title>Node6&#45;&gt;Node22</title>
<path fill="none" stroke="#9a32cd" stroke-dasharray="5,2" d="M1100.59,-356.84C1174.62,-370.44 1310.43,-392 1427.5,-392 1427.5,-392 1427.5,-392 1907,-392 1960.25,-392 1975.48,-394.85 2026,-378 2038.18,-373.94 2197.01,-279.53 2248.8,-248.67"/>
<polygon fill="#9a32cd" stroke="#9a32cd" points="1101.04,-353.36 1090.57,-354.98 1099.76,-360.25 1101.04,-353.36"/>
<text text-anchor="middle" x="1752" y="-395" font-family="Helvetica,sans-Serif" font-size="10.00"> mapper</text>
</g>
<!-- Node7 -->
<g id="node7" class="node">
<title>Node7</title>
<g id="a_node7"><a xlink:href="structHsqsMemoryMapperImpl.html" target="_top" xlink:title=" ">
<polygon fill="white" stroke="black" points="724,-416.5 724,-435.5 891,-435.5 891,-416.5 724,-416.5"/>
<text text-anchor="middle" x="807.5" y="-423.5" font-family="Helvetica,sans-Serif" font-size="10.00">HsqsMemoryMapperImpl</text>
</a>
</g>
</g>
<!-- Node7&#45;&gt;Node6 -->
<g id="edge7" class="edge">
<title>Node7&#45;&gt;Node6</title>
<path fill="none" stroke="#9a32cd" stroke-dasharray="5,2" d="M862.18,-414.14C871.8,-411.87 881.72,-409.44 891,-407 922.83,-398.64 931.34,-397.96 962,-386 984.76,-377.12 1009.84,-364.33 1026.08,-355.62"/>
<polygon fill="#9a32cd" stroke="#9a32cd" points="861.24,-410.76 852.29,-416.44 862.83,-417.58 861.24,-410.76"/>
<text text-anchor="middle" x="935.5" y="-405" font-family="Helvetica,sans-Serif" font-size="10.00"> impl</text>
</g>
<!-- Node8 -->
<g id="node8" class="node">
<title>Node8</title>
<g id="a_node8"><a xlink:href="structHsqsMmapFullMapper.html" target="_top" xlink:title=" ">
<polygon fill="white" stroke="black" points="731.5,-378.5 731.5,-397.5 883.5,-397.5 883.5,-378.5 731.5,-378.5"/>
<text text-anchor="middle" x="807.5" y="-385.5" font-family="Helvetica,sans-Serif" font-size="10.00">HsqsMmapFullMapper</text>
</a>
</g>
</g>
<!-- Node8&#45;&gt;Node6 -->
<g id="edge8" class="edge">
<title>Node8&#45;&gt;Node6</title>
<path fill="none" stroke="#9a32cd" stroke-dasharray="5,2" d="M880.99,-376.87C906.62,-372.75 935.63,-367.89 962,-363 974.22,-360.73 987.43,-358.07 999.58,-355.53"/>
<polygon fill="#9a32cd" stroke="#9a32cd" points="880.29,-373.44 870.97,-378.47 881.4,-380.35 880.29,-373.44"/>
<text text-anchor="middle" x="935.5" y="-374" font-family="Helvetica,sans-Serif" font-size="10.00"> mc</text>
</g>
<!-- Node9 -->
<g id="node9" class="node">
<title>Node9</title>
<g id="a_node9"><a xlink:href="structHsqsMmapMapper.html" target="_top" xlink:title=" ">
<polygon fill="white" stroke="black" points="746.5,-340.5 746.5,-359.5 868.5,-359.5 868.5,-340.5 746.5,-340.5"/>
<text text-anchor="middle" x="807.5" y="-347.5" font-family="Helvetica,sans-Serif" font-size="10.00">HsqsMmapMapper</text>
</a>
</g>
</g>
<!-- Node9&#45;&gt;Node6 -->
<g id="edge9" class="edge">
<title>Node9&#45;&gt;Node6</title>
<path fill="none" stroke="#9a32cd" stroke-dasharray="5,2" d="M878.88,-348.8C917.59,-348.14 964.47,-347.35 998.29,-346.77"/>
<polygon fill="#9a32cd" stroke="#9a32cd" points="878.65,-345.31 868.71,-348.98 878.77,-352.3 878.65,-345.31"/>
<text text-anchor="middle" x="935.5" y="-351" font-family="Helvetica,sans-Serif" font-size="10.00"> mm</text>
</g>
<!-- Node10 -->
<g id="node10" class="node">
<title>Node10</title>
<g id="a_node10"><a xlink:href="structHsqsStaticMapper.html" target="_top" xlink:title=" ">
<polygon fill="white" stroke="black" points="739,-302.5 739,-321.5 876,-321.5 876,-302.5 739,-302.5"/>
<text text-anchor="middle" x="807.5" y="-309.5" font-family="Helvetica,sans-Serif" font-size="10.00">HsqsStaticMapper</text>
</a>
</g>
</g>
<!-- Node10&#45;&gt;Node6 -->
<g id="edge10" class="edge">
<title>Node10&#45;&gt;Node6</title>
<path fill="none" stroke="#9a32cd" stroke-dasharray="5,2" d="M886.43,-321.53C910.67,-324.66 937.47,-328.3 962,-332 973.78,-333.78 986.49,-335.88 998.29,-337.9"/>
<polygon fill="#9a32cd" stroke="#9a32cd" points="886.57,-318.02 876.21,-320.22 885.68,-324.96 886.57,-318.02"/>
<text text-anchor="middle" x="935.5" y="-335" font-family="Helvetica,sans-Serif" font-size="10.00"> sm</text>
</g>
<!-- Node11 -->
<g id="node11" class="node">
<title>Node11</title>
<g id="a_node11"><a xlink:href="structHsqsCanaryMapper.html" target="_top" xlink:title=" ">
<polygon fill="white" stroke="black" points="739,-264.5 739,-283.5 876,-283.5 876,-264.5 739,-264.5"/>
<text text-anchor="middle" x="807.5" y="-271.5" font-family="Helvetica,sans-Serif" font-size="10.00">HsqsCanaryMapper</text>
</a>
</g>
</g>
<!-- Node11&#45;&gt;Node6 -->
<g id="edge11" class="edge">
<title>Node11&#45;&gt;Node6</title>
<path fill="none" stroke="#9a32cd" stroke-dasharray="5,2" d="M872.53,-285.59C900.38,-291.39 933.17,-299.28 962,-309 984.38,-316.55 1008.92,-328.17 1025.16,-336.38"/>
<polygon fill="#9a32cd" stroke="#9a32cd" points="873.01,-282.11 862.51,-283.54 871.61,-288.97 873.01,-282.11"/>
<text text-anchor="middle" x="935.5" y="-312" font-family="Helvetica,sans-Serif" font-size="10.00"> cn</text>
</g>
<!-- Node12&#45;&gt;Node6 -->
<g id="edge12" class="edge">
<title>Node12&#45;&gt;Node6</title>
<path fill="none" stroke="#9a32cd" stroke-dasharray="5,2" d="M832.5,-171.57C864.53,-193.11 921.85,-234.43 962,-279 971.9,-289.99 969.43,-296.65 980,-307 992.57,-319.31 1009.7,-329.55 1023.01,-336.44"/>
<polygon fill="#9a32cd" stroke="#9a32cd" points="834.06,-168.41 823.8,-165.78 830.19,-174.24 834.06,-168.41"/>
<text text-anchor="middle" x="935.5" y="-282" font-family="Helvetica,sans-Serif" font-size="10.00"> cl</text>
</g>
<!-- Node13&#45;&gt;Node2 -->
<g id="edge14" class="edge">
<title>Node13&#45;&gt;Node2</title>
<path fill="none" stroke="#9a32cd" stroke-dasharray="5,2" d="M1488.47,-233.57C1586.33,-231.88 1788.04,-224.24 1955,-191 1961.85,-189.64 1969.13,-187.56 1975.73,-185.41"/>
<polygon fill="#9a32cd" stroke="#9a32cd" points="1488.14,-230.07 1478.19,-233.73 1488.25,-237.07 1488.14,-230.07"/>
<text text-anchor="middle" x="1752" y="-239" font-family="Helvetica,sans-Serif" font-size="10.00"> table_map</text>
<text text-anchor="middle" x="1752" y="-228" font-family="Helvetica,sans-Serif" font-size="10.00">trailing_map</text>
</g>
<!-- Node21 -->
<g id="node21" class="node">
<title>Node21</title>
<g id="a_node21"><a xlink:href="structHsqsSuperblockContext.html" target="_top" xlink:title=" ">
<polygon fill="white" stroke="black" points="1665,-164.5 1665,-183.5 1839,-183.5 1839,-164.5 1665,-164.5"/>
<text text-anchor="middle" x="1752" y="-171.5" font-family="Helvetica,sans-Serif" font-size="10.00">HsqsSuperblockContext</text>
</a>
</g>
</g>
<!-- Node13&#45;&gt;Node21 -->
<g id="edge25" class="edge">
<title>Node13&#45;&gt;Node21</title>
<path fill="none" stroke="#9a32cd" stroke-dasharray="5,2" d="M1450.28,-218.52C1462.85,-210.03 1479.57,-200.2 1496,-195 1550.42,-177.79 1614.46,-172.57 1664.75,-171.63"/>
<polygon fill="#9a32cd" stroke="#9a32cd" points="1448.1,-215.77 1441.93,-224.38 1452.12,-221.5 1448.1,-215.77"/>
<text text-anchor="middle" x="1571.5" y="-198" font-family="Helvetica,sans-Serif" font-size="10.00"> mapping</text>
</g>
<!-- Node13&#45;&gt;Node22 -->
<g id="edge29" class="edge">
<title>Node13&#45;&gt;Node22</title>
<path fill="none" stroke="#9a32cd" stroke-dasharray="5,2" d="M1488.25,-243.16C1490.87,-243.46 1493.46,-243.75 1496,-244 1738.65,-268.16 1800.22,-265 2044,-271 2087.54,-272.07 2098.8,-276.53 2142,-271 2175.05,-266.77 2211.9,-256.4 2236.58,-248.6"/>
<polygon fill="#9a32cd" stroke="#9a32cd" points="1488.46,-239.66 1478.1,-241.88 1487.58,-246.6 1488.46,-239.66"/>
<text text-anchor="middle" x="1906" y="-271" font-family="Helvetica,sans-Serif" font-size="10.00"> lookup_table</text>
</g>
<!-- Node13&#45;&gt;Node23 -->
<g id="edge32" class="edge">
<title>Node13&#45;&gt;Node23</title>
<path fill="none" stroke="#9a32cd" stroke-dasharray="5,2" d="M1455.69,-248.16C1467.65,-254.01 1482.2,-260.28 1496,-264 1873.04,-365.78 1986.8,-397.36 2372,-333 2426.06,-323.97 2483.69,-291.75 2510.15,-275.51"/>
<polygon fill="#9a32cd" stroke="#9a32cd" points="1457.21,-245.01 1446.71,-243.62 1454.05,-251.25 1457.21,-245.01"/>
<text text-anchor="middle" x="1999.5" y="-369" font-family="Helvetica,sans-Serif" font-size="10.00"> header</text>
</g>
<!-- Node14 -->
<g id="node14" class="node">
<title>Node14</title>
<g id="a_node14"><a xlink:href="structHsqsMmapFullMap.html" target="_top" xlink:title=" ">
<polygon fill="white" stroke="black" points="980,-240.5 980,-259.5 1109,-259.5 1109,-240.5 980,-240.5"/>
<text text-anchor="middle" x="1044.5" y="-247.5" font-family="Helvetica,sans-Serif" font-size="10.00">HsqsMmapFullMap</text>
</a>
</g>
</g>
<!-- Node14&#45;&gt;Node13 -->
<g id="edge16" class="edge">
<title>Node14&#45;&gt;Node13</title>
<path fill="none" stroke="#9a32cd" stroke-dasharray="5,2" d="M1119.05,-246.92C1195.51,-243.72 1313.01,-238.8 1378.72,-236.04"/>
<polygon fill="#9a32cd" stroke="#9a32cd" points="1118.85,-243.42 1109.01,-247.34 1119.15,-250.42 1118.85,-243.42"/>
<text text-anchor="middle" x="1244" y="-249" font-family="Helvetica,sans-Serif" font-size="10.00"> mc</text>
</g>
<!-- Node15 -->
<g id="node15" class="node">
<title>Node15</title>
<g id="a_node15"><a xlink:href="structHsqsMmapMap.html" target="_top" xlink:title=" ">
<polygon fill="white" stroke="black" points="995,-164.5 995,-183.5 1094,-183.5 1094,-164.5 995,-164.5"/>
<text text-anchor="middle" x="1044.5" y="-171.5" font-family="Helvetica,sans-Serif" font-size="10.00">HsqsMmapMap</text>
</a>
</g>
</g>
<!-- Node15&#45;&gt;Node13 -->
<g id="edge17" class="edge">
<title>Node15&#45;&gt;Node13</title>
<path fill="none" stroke="#9a32cd" stroke-dasharray="5,2" d="M1104.37,-170.38C1168.83,-168.18 1274.52,-169.78 1361,-196 1381.11,-202.1 1401.72,-215.14 1414.56,-224.24"/>
<polygon fill="#9a32cd" stroke="#9a32cd" points="1103.86,-166.9 1094,-170.78 1104.13,-173.89 1103.86,-166.9"/>
<text text-anchor="middle" x="1244" y="-199" font-family="Helvetica,sans-Serif" font-size="10.00"> mm</text>
</g>
<!-- Node16 -->
<g id="node16" class="node">
<title>Node16</title>
<g id="a_node16"><a xlink:href="structHsqsStaticMap.html" target="_top" xlink:title=" ">
<polygon fill="white" stroke="black" points="987.5,-126.5 987.5,-145.5 1101.5,-145.5 1101.5,-126.5 987.5,-126.5"/>
<text text-anchor="middle" x="1044.5" y="-133.5" font-family="Helvetica,sans-Serif" font-size="10.00">HsqsStaticMap</text>
</a>
</g>
</g>
<!-- Node16&#45;&gt;Node13 -->
<g id="edge18" class="edge">
<title>Node16&#45;&gt;Node13</title>
<path fill="none" stroke="#9a32cd" stroke-dasharray="5,2" d="M1110.44,-125.23C1177.08,-117.38 1281.91,-114.11 1361,-154 1391.96,-169.62 1413.89,-206.81 1422.91,-224.43"/>
<polygon fill="#9a32cd" stroke="#9a32cd" points="1109.98,-121.76 1100.49,-126.47 1110.85,-128.71 1109.98,-121.76"/>
<text text-anchor="middle" x="1244" y="-157" font-family="Helvetica,sans-Serif" font-size="10.00"> sm</text>
</g>
<!-- Node17 -->
<g id="node17" class="node">
<title>Node17</title>
<g id="a_node17"><a xlink:href="structHsqsCanaryMap.html" target="_top" xlink:title=" ">
<polygon fill="white" stroke="black" points="987.5,-278.5 987.5,-297.5 1101.5,-297.5 1101.5,-278.5 987.5,-278.5"/>
<text text-anchor="middle" x="1044.5" y="-285.5" font-family="Helvetica,sans-Serif" font-size="10.00">HsqsCanaryMap</text>
</a>
</g>
</g>
<!-- Node17&#45;&gt;Node13 -->
<g id="edge19" class="edge">
<title>Node17&#45;&gt;Node13</title>
<path fill="none" stroke="#9a32cd" stroke-dasharray="5,2" d="M1111.87,-284.66C1190.13,-280.31 1315.34,-271.96 1361,-261 1377.48,-257.05 1395.22,-249.67 1408.23,-243.63"/>
<polygon fill="#9a32cd" stroke="#9a32cd" points="1111.41,-281.18 1101.62,-285.22 1111.8,-288.17 1111.41,-281.18"/>
<text text-anchor="middle" x="1244" y="-286" font-family="Helvetica,sans-Serif" font-size="10.00"> cn</text>
</g>
<!-- Node18&#45;&gt;Node13 -->
<g id="edge20" class="edge">
<title>Node18&#45;&gt;Node13</title>
<path fill="none" stroke="#9a32cd" stroke-dasharray="5,2" d="M1104.24,-211.29C1167.74,-211.13 1271.82,-212.59 1361,-222 1366.95,-222.63 1373.17,-223.48 1379.31,-224.45"/>
<polygon fill="#9a32cd" stroke="#9a32cd" points="1104.01,-207.79 1094.03,-211.33 1104.04,-214.79 1104.01,-207.79"/>
<text text-anchor="middle" x="1244" y="-225" font-family="Helvetica,sans-Serif" font-size="10.00"> cl</text>
</g>
<!-- Node19 -->
<g id="node19" class="node">
<title>Node19</title>
<g id="a_node19"><a xlink:href="structHsqsBuffer.html" target="_top" xlink:title=" ">
<polygon fill="white" stroke="black" points="761.5,-32.5 761.5,-51.5 853.5,-51.5 853.5,-32.5 761.5,-32.5"/>
<text text-anchor="middle" x="807.5" y="-39.5" font-family="Helvetica,sans-Serif" font-size="10.00">HsqsBuffer</text>
</a>
</g>
</g>
<!-- Node19&#45;&gt;Node1 -->
<g id="edge40" class="edge">
<title>Node19&#45;&gt;Node1</title>
<path fill="none" stroke="#9a32cd" stroke-dasharray="5,2" d="M850.63,-29.83C897.35,-17.43 975.16,0 1043.5,0 1043.5,0 1043.5,0 2000.5,0 2053.01,0 2111.33,-2.19 2159.82,-4.62"/>
<polygon fill="#9a32cd" stroke="#9a32cd" points="849.61,-26.48 840.87,-32.47 851.43,-33.24 849.61,-26.48"/>
<text text-anchor="middle" x="1571.5" y="-3" font-family="Helvetica,sans-Serif" font-size="10.00"> buffer</text>
</g>
<!-- Node19&#45;&gt;Node18 -->
<g id="edge22" class="edge">
<title>Node19&#45;&gt;Node18</title>
<path fill="none" stroke="#9a32cd" stroke-dasharray="5,2" d="M823.62,-59.58C851.46,-90.89 914.04,-156.42 980,-193 986.84,-196.79 994.53,-199.91 1002.13,-202.45"/>
<polygon fill="#9a32cd" stroke="#9a32cd" points="825.94,-56.92 816.72,-51.71 820.68,-61.54 825.94,-56.92"/>
<text text-anchor="middle" x="935.5" y="-183" font-family="Helvetica,sans-Serif" font-size="10.00"> buffer</text>
</g>
<!-- Node25 -->
<g id="node25" class="node">
<title>Node25</title>
<g id="a_node25"><a xlink:href="structHsqsCompressionOptionsContext.html" target="_top" xlink:title=" ">
<polygon fill="white" stroke="black" points="1127,-32.5 1127,-51.5 1361,-51.5 1361,-32.5 1127,-32.5"/>
<text text-anchor="middle" x="1244" y="-39.5" font-family="Helvetica,sans-Serif" font-size="10.00">HsqsCompressionOptionsContext</text>
</a>
</g>
</g>
<!-- Node19&#45;&gt;Node25 -->
<g id="edge39" class="edge">
<title>Node19&#45;&gt;Node25</title>
<path fill="none" stroke="#9a32cd" stroke-dasharray="5,2" d="M863.94,-42C929.81,-42 1041.48,-42 1126.61,-42"/>
<polygon fill="#9a32cd" stroke="#9a32cd" points="863.77,-38.5 853.77,-42 863.77,-45.5 863.77,-38.5"/>
<text text-anchor="middle" x="935.5" y="-45" font-family="Helvetica,sans-Serif" font-size="10.00"> buffer</text>
</g>
<!-- Node20 -->
<g id="node20" class="node">
<title>Node20</title>
<g id="a_node20"><a xlink:href="structHsqsCompressionImplementation.html" target="_top" xlink:title=" ">
<polygon fill="white" stroke="black" points="408,-32.5 408,-51.5 642,-51.5 642,-32.5 408,-32.5"/>
<text text-anchor="middle" x="525" y="-39.5" font-family="Helvetica,sans-Serif" font-size="10.00">HsqsCompressionImplementation</text>
</a>
</g>
</g>
<!-- Node20&#45;&gt;Node19 -->
<g id="edge23" class="edge">
<title>Node20&#45;&gt;Node19</title>
<path fill="none" stroke="#9a32cd" stroke-dasharray="5,2" d="M652.51,-42C691.47,-42 731.85,-42 761.48,-42"/>
<polygon fill="#9a32cd" stroke="#9a32cd" points="652.11,-38.5 642.11,-42 652.11,-45.5 652.11,-38.5"/>
<text text-anchor="middle" x="683" y="-45" font-family="Helvetica,sans-Serif" font-size="10.00"> impl</text>
</g>
<!-- Node21&#45;&gt;Node2 -->
<g id="edge24" class="edge">
<title>Node21&#45;&gt;Node2</title>
<path fill="none" stroke="#9a32cd" stroke-dasharray="5,2" d="M1849.29,-175.18C1895.52,-175.74 1947.01,-176.37 1975.8,-176.72"/>
<polygon fill="#9a32cd" stroke="#9a32cd" points="1849.25,-171.68 1839.21,-175.05 1849.17,-178.68 1849.25,-171.68"/>
<text text-anchor="middle" x="1906" y="-179" font-family="Helvetica,sans-Serif" font-size="10.00"> superblock</text>
</g>
<!-- Node21&#45;&gt;Node24 -->
<g id="edge35" class="edge">
<title>Node21&#45;&gt;Node24</title>
<path fill="none" stroke="#9a32cd" stroke-dasharray="5,2" d="M1793.89,-161.49C1849.74,-145.12 1953.32,-117.3 2044,-107 2067.42,-104.34 2230.6,-103.28 2372,-108 2400.48,-108.95 2407.72,-108.43 2436,-112 2450.67,-113.85 2466.57,-116.64 2480.81,-119.42"/>
<polygon fill="#9a32cd" stroke="#9a32cd" points="1792.63,-158.21 1784.03,-164.41 1794.61,-164.93 1792.63,-158.21"/>
<text text-anchor="middle" x="2093" y="-110" font-family="Helvetica,sans-Serif" font-size="10.00"> superblock</text>
</g>
<!-- Node22&#45;&gt;Node2 -->
<g id="edge26" class="edge">
<title>Node22&#45;&gt;Node2</title>
<path fill="none" stroke="#9a32cd" stroke-dasharray="5,2" d="M2213.5,-245.47C2166.92,-249.02 2097.64,-248.44 2044,-223 2027.32,-215.09 2013.8,-197.75 2006.47,-186.76"/>
<polygon fill="#9a32cd" stroke="#9a32cd" points="2213.99,-248.94 2223.66,-244.6 2213.39,-241.97 2213.99,-248.94"/>
<text text-anchor="middle" x="2093" y="-259" font-family="Helvetica,sans-Serif" font-size="10.00"> export_table</text>
<text text-anchor="middle" x="2093" y="-248" font-family="Helvetica,sans-Serif" font-size="10.00">id_table</text>
</g>
<!-- Node22&#45;&gt;Node23 -->
<g id="edge33" class="edge">
<title>Node22&#45;&gt;Node23</title>
<path fill="none" stroke="#9a32cd" stroke-dasharray="5,2" d="M2318.22,-244.36C2360.4,-248.77 2420.28,-255.04 2464.76,-259.7"/>
<polygon fill="#9a32cd" stroke="#9a32cd" points="2318.48,-240.87 2308.17,-243.31 2317.75,-247.83 2318.48,-240.87"/>
<text text-anchor="middle" x="2413" y="-259" font-family="Helvetica,sans-Serif" font-size="10.00"> table</text>
</g>
<!-- Node22&#45;&gt;Node24 -->
<g id="edge36" class="edge">
<title>Node22&#45;&gt;Node24</title>
<path fill="none" stroke="#9a32cd" stroke-dasharray="5,2" d="M2318.19,-230.38C2335.59,-226.64 2354.94,-221.59 2372,-215 2426.29,-194.04 2484.74,-156.48 2510.92,-138.76"/>
<polygon fill="#9a32cd" stroke="#9a32cd" points="2317.29,-226.99 2308.2,-232.43 2318.7,-233.85 2317.29,-226.99"/>
<text text-anchor="middle" x="2413" y="-208" font-family="Helvetica,sans-Serif" font-size="10.00"> table</text>
</g>
<!-- Node23&#45;&gt;Node2 -->
<g id="edge30" class="edge">
<title>Node23&#45;&gt;Node2</title>
<path fill="none" stroke="#9a32cd" stroke-dasharray="5,2" d="M2495.61,-252.32C2465.33,-238.88 2416.42,-218.99 2372,-209 2242.21,-179.8 2081.41,-176.86 2023.01,-176.84"/>
<polygon fill="#9a32cd" stroke="#9a32cd" points="2494.2,-255.52 2504.75,-256.43 2497.07,-249.14 2494.2,-255.52"/>
<text text-anchor="middle" x="2266" y="-212" font-family="Helvetica,sans-Serif" font-size="10.00"> xattr_table</text>
</g>
<!-- Node24&#45;&gt;Node2 -->
<g id="edge34" class="edge">
<title>Node24&#45;&gt;Node2</title>
<path fill="none" stroke="#9a32cd" stroke-dasharray="5,2" d="M2443.5,-131.78C2347.49,-135.9 2183.4,-145.59 2044,-167 2037.26,-168.04 2030.01,-169.54 2023.41,-171.07"/>
<polygon fill="#9a32cd" stroke="#9a32cd" points="2443.87,-135.27 2453.72,-131.35 2443.58,-128.28 2443.87,-135.27"/>
<text text-anchor="middle" x="2266" y="-155" font-family="Helvetica,sans-Serif" font-size="10.00"> fragment_table</text>
</g>
<!-- Node25&#45;&gt;Node2 -->
<g id="edge38" class="edge">
<title>Node25&#45;&gt;Node2</title>
<path fill="none" stroke="#9a32cd" stroke-dasharray="5,2" d="M1371.24,-34.41C1549.37,-26.19 1863.04,-21.6 1955,-84 1983.91,-103.62 1994.05,-147.71 1997.22,-167.3"/>
<polygon fill="#9a32cd" stroke="#9a32cd" points="1370.85,-30.92 1361.02,-34.89 1371.18,-37.92 1370.85,-30.92"/>
<text text-anchor="middle" x="1571.5" y="-34" font-family="Helvetica,sans-Serif" font-size="10.00"> compression_options</text>
</g>
</g>
</svg>
