<?xml version="1.0" encoding="UTF-8" standalone="no"?>
<!DOCTYPE svg PUBLIC "-//W3C//DTD SVG 1.1//EN"
 "http://www.w3.org/Graphics/SVG/1.1/DTD/svg11.dtd">
<!-- Generated by graphviz version 3.0.0 (20220413.0242)
 -->
<!-- Title: table.h Pages: 1 -->
<svg width="316pt" height="196pt"
 viewBox="0.00 0.00 315.50 196.00" xmlns="http://www.w3.org/2000/svg" xmlns:xlink="http://www.w3.org/1999/xlink">
<g id="graph0" class="graph" transform="scale(1 1) rotate(0) translate(4 192)">
<title>table.h</title>
<polygon fill="white" stroke="transparent" points="-4,4 -4,-192 311.5,-192 311.5,4 -4,4"/>
<!-- Node1 -->
<g id="node1" class="node">
<title>Node1</title>
<g id="a_node1"><a xlink:title=" ">
<polygon fill="#bfbfbf" stroke="black" points="131,-168.5 131,-187.5 200,-187.5 200,-168.5 131,-168.5"/>
<text text-anchor="middle" x="165.5" y="-175.5" font-family="Helvetica,sans-Serif" font-size="10.00">table.h</text>
</a>
</g>
</g>
<!-- Node2 -->
<g id="node2" class="node">
<title>Node2</title>
<g id="a_node2"><a xlink:href="fragment__table_8h.html" target="_top" xlink:title=" ">
<polygon fill="white" stroke="black" points="0,-112.5 0,-131.5 137,-131.5 137,-112.5 0,-112.5"/>
<text text-anchor="middle" x="68.5" y="-119.5" font-family="Helvetica,sans-Serif" font-size="10.00">fragment_table.h</text>
</a>
</g>
</g>
<!-- Node1&#45;&gt;Node2 -->
<g id="edge1" class="edge">
<title>Node1&#45;&gt;Node2</title>
<path fill="none" stroke="midnightblue" d="M141.16,-163.45C123.26,-153.48 99.45,-140.23 84.05,-131.65"/>
<polygon fill="midnightblue" stroke="midnightblue" points="139.48,-166.52 149.92,-168.32 142.88,-160.4 139.48,-166.52"/>
</g>
<!-- Node3 -->
<g id="node3" class="node">
<title>Node3</title>
<g id="a_node3"><a xlink:href="sqsh_8h.html" target="_top" xlink:title=" ">
<polygon fill="white" stroke="black" points="134.5,-56.5 134.5,-75.5 196.5,-75.5 196.5,-56.5 134.5,-56.5"/>
<text text-anchor="middle" x="165.5" y="-63.5" font-family="Helvetica,sans-Serif" font-size="10.00">sqsh.h</text>
</a>
</g>
</g>
<!-- Node1&#45;&gt;Node3 -->
<g id="edge4" class="edge">
<title>Node1&#45;&gt;Node3</title>
<path fill="none" stroke="midnightblue" d="M165.5,-158.35C165.5,-134.25 165.5,-93.31 165.5,-75.59"/>
<polygon fill="midnightblue" stroke="midnightblue" points="162,-158.37 165.5,-168.37 169,-158.37 162,-158.37"/>
</g>
<!-- Node5 -->
<g id="node5" class="node">
<title>Node5</title>
<g id="a_node5"><a xlink:href="xattr__table_8h.html" target="_top" xlink:title=" ">
<polygon fill="white" stroke="black" points="193.5,-112.5 193.5,-131.5 307.5,-131.5 307.5,-112.5 193.5,-112.5"/>
<text text-anchor="middle" x="250.5" y="-119.5" font-family="Helvetica,sans-Serif" font-size="10.00">xattr_table.h</text>
</a>
</g>
</g>
<!-- Node1&#45;&gt;Node5 -->
<g id="edge5" class="edge">
<title>Node1&#45;&gt;Node5</title>
<path fill="none" stroke="midnightblue" d="M187.69,-162.9C203.28,-153 223.63,-140.07 236.88,-131.65"/>
<polygon fill="midnightblue" stroke="midnightblue" points="185.72,-160.01 179.16,-168.32 189.47,-165.92 185.72,-160.01"/>
</g>
<!-- Node2&#45;&gt;Node3 -->
<g id="edge2" class="edge">
<title>Node2&#45;&gt;Node3</title>
<path fill="none" stroke="midnightblue" d="M92.84,-107.45C110.74,-97.48 134.55,-84.23 149.95,-75.65"/>
<polygon fill="midnightblue" stroke="midnightblue" points="91.12,-104.4 84.08,-112.32 94.52,-110.52 91.12,-104.4"/>
</g>
<!-- Node4 -->
<g id="node4" class="node">
<title>Node4</title>
<g id="a_node4"><a xlink:href="bin_2common_8h.html" target="_top" xlink:title=" ">
<polygon fill="white" stroke="black" points="127,-0.5 127,-19.5 204,-19.5 204,-0.5 127,-0.5"/>
<text text-anchor="middle" x="165.5" y="-7.5" font-family="Helvetica,sans-Serif" font-size="10.00">common.h</text>
</a>
</g>
</g>
<!-- Node3&#45;&gt;Node4 -->
<g id="edge3" class="edge">
<title>Node3&#45;&gt;Node4</title>
<path fill="none" stroke="midnightblue" d="M165.5,-45.8C165.5,-36.91 165.5,-26.78 165.5,-19.75"/>
<polygon fill="midnightblue" stroke="midnightblue" points="162,-46.08 165.5,-56.08 169,-46.08 162,-46.08"/>
</g>
<!-- Node5&#45;&gt;Node3 -->
<g id="edge6" class="edge">
<title>Node5&#45;&gt;Node3</title>
<path fill="none" stroke="midnightblue" d="M228.31,-106.9C212.72,-97 192.37,-84.07 179.12,-75.65"/>
<polygon fill="midnightblue" stroke="midnightblue" points="226.53,-109.92 236.84,-112.32 230.28,-104.01 226.53,-109.92"/>
</g>
</g>
</svg>
