<?xml version="1.0" encoding="UTF-8" standalone="no"?>
<!DOCTYPE svg PUBLIC "-//W3C//DTD SVG 1.1//EN"
 "http://www.w3.org/Graphics/SVG/1.1/DTD/svg11.dtd">
<!-- Generated by graphviz version 2.49.3 (20211027.1534)
 -->
<!-- Title: table.h Pages: 1 -->
<svg width="1268pt" height="364pt"
 viewBox="0.00 0.00 1268.00 364.00" xmlns="http://www.w3.org/2000/svg" xmlns:xlink="http://www.w3.org/1999/xlink">
<g id="graph0" class="graph" transform="scale(1 1) rotate(0) translate(4 360)">
<title>table.h</title>
<polygon fill="white" stroke="transparent" points="-4,4 -4,-360 1264,-360 1264,4 -4,4"/>
<!-- Node1 -->
<g id="node1" class="node">
<title>Node1</title>
<g id="a_node1"><a xlink:title=" ">
<polygon fill="#bfbfbf" stroke="black" points="325.5,-336.5 325.5,-355.5 394.5,-355.5 394.5,-336.5 325.5,-336.5"/>
<text text-anchor="middle" x="360" y="-343.5" font-family="Helvetica,sans-Serif" font-size="10.00">table.h</text>
</a>
</g>
</g>
<!-- Node2 -->
<g id="node2" class="node">
<title>Node2</title>
<g id="a_node2"><a xlink:href="mapper_8h.html" target="_top" xlink:title=" ">
<polygon fill="white" stroke="black" points="644,-280.5 644,-299.5 796,-299.5 796,-280.5 644,-280.5"/>
<text text-anchor="middle" x="720" y="-287.5" font-family="Helvetica,sans-Serif" font-size="10.00">../mapper/mapper.h</text>
</a>
</g>
</g>
<!-- Node1&#45;&gt;Node2 -->
<g id="edge1" class="edge">
<title>Node1&#45;&gt;Node2</title>
<path fill="none" stroke="midnightblue" d="M394.52,-339.82C453.97,-330.9 576.67,-312.5 653.27,-301.01"/>
<polygon fill="midnightblue" stroke="midnightblue" points="653.93,-304.45 663.3,-299.5 652.89,-297.53 653.93,-304.45"/>
</g>
<!-- Node4 -->
<g id="node4" class="node">
<title>Node4</title>
<g id="a_node4"><a xlink:title=" ">
<polygon fill="white" stroke="#bfbfbf" points="223.5,-0.5 223.5,-19.5 300.5,-19.5 300.5,-0.5 223.5,-0.5"/>
<text text-anchor="middle" x="262" y="-7.5" font-family="Helvetica,sans-Serif" font-size="10.00">stdint.h</text>
</a>
</g>
</g>
<!-- Node1&#45;&gt;Node4 -->
<g id="edge38" class="edge">
<title>Node1&#45;&gt;Node4</title>
<path fill="none" stroke="midnightblue" d="M325.48,-341.89C235.38,-332.81 0,-302.64 0,-235 0,-235 0,-235 0,-121 0,-29.59 137.25,-12.88 213.07,-10.62"/>
<polygon fill="midnightblue" stroke="midnightblue" points="213.42,-14.11 223.34,-10.39 213.27,-7.11 213.42,-14.11"/>
</g>
<!-- Node3 -->
<g id="node3" class="node">
<title>Node3</title>
<g id="a_node3"><a xlink:title=" ">
<polygon fill="white" stroke="#bfbfbf" points="799.5,-0.5 799.5,-19.5 876.5,-19.5 876.5,-0.5 799.5,-0.5"/>
<text text-anchor="middle" x="838" y="-7.5" font-family="Helvetica,sans-Serif" font-size="10.00">stddef.h</text>
</a>
</g>
</g>
<!-- Node2&#45;&gt;Node3 -->
<g id="edge2" class="edge">
<title>Node2&#45;&gt;Node3</title>
<path fill="none" stroke="midnightblue" d="M796.22,-289.14C945.07,-287.36 1260,-272.52 1260,-179 1260,-179 1260,-179 1260,-121 1260,-86.84 1247.89,-74.22 1219,-56 1164.81,-21.81 976.9,-13.6 886.85,-11.62"/>
<polygon fill="midnightblue" stroke="midnightblue" points="886.7,-8.12 876.63,-11.42 886.56,-15.12 886.7,-8.12"/>
</g>
<!-- Node2&#45;&gt;Node4 -->
<g id="edge3" class="edge">
<title>Node2&#45;&gt;Node4</title>
<path fill="none" stroke="midnightblue" d="M643.75,-284.59C465.79,-273.29 38,-239.79 38,-179 38,-179 38,-179 38,-121 38,-43.48 147.43,-20.59 213.32,-13.83"/>
<polygon fill="midnightblue" stroke="midnightblue" points="213.86,-17.29 223.49,-12.88 213.21,-10.32 213.86,-17.29"/>
</g>
<!-- Node5 -->
<g id="node5" class="node">
<title>Node5</title>
<g id="a_node5"><a xlink:title=" ">
<polygon fill="white" stroke="#bfbfbf" points="421.5,-224.5 421.5,-243.5 490.5,-243.5 490.5,-224.5 421.5,-224.5"/>
<text text-anchor="middle" x="456" y="-231.5" font-family="Helvetica,sans-Serif" font-size="10.00">stdio.h</text>
</a>
</g>
</g>
<!-- Node2&#45;&gt;Node5 -->
<g id="edge4" class="edge">
<title>Node2&#45;&gt;Node5</title>
<path fill="none" stroke="midnightblue" d="M678.17,-280.44C629.74,-270.54 550.31,-254.29 500.7,-244.14"/>
<polygon fill="midnightblue" stroke="midnightblue" points="501.39,-240.71 490.89,-242.14 499.99,-247.57 501.39,-240.71"/>
</g>
<!-- Node6 -->
<g id="node6" class="node">
<title>Node6</title>
<g id="a_node6"><a xlink:href="canary__mapper_8h.html" target="_top" xlink:title=" ">
<polygon fill="white" stroke="black" points="614.5,-56.5 614.5,-75.5 743.5,-75.5 743.5,-56.5 614.5,-56.5"/>
<text text-anchor="middle" x="679" y="-63.5" font-family="Helvetica,sans-Serif" font-size="10.00">canary_mapper.h</text>
</a>
</g>
</g>
<!-- Node2&#45;&gt;Node6 -->
<g id="edge5" class="edge">
<title>Node2&#45;&gt;Node6</title>
<path fill="none" stroke="midnightblue" d="M720.12,-280.32C720.26,-254.27 719.07,-174.66 701,-112 698.26,-102.5 693.61,-92.55 689.29,-84.44"/>
<polygon fill="midnightblue" stroke="midnightblue" points="692.28,-82.61 684.33,-75.6 686.17,-86.03 692.28,-82.61"/>
</g>
<!-- Node7 -->
<g id="node7" class="node">
<title>Node7</title>
<g id="a_node7"><a xlink:href="curl__mapper_8h.html" target="_top" xlink:title=" ">
<polygon fill="white" stroke="black" points="509,-224.5 509,-243.5 623,-243.5 623,-224.5 509,-224.5"/>
<text text-anchor="middle" x="566" y="-231.5" font-family="Helvetica,sans-Serif" font-size="10.00">curl_mapper.h</text>
</a>
</g>
</g>
<!-- Node2&#45;&gt;Node7 -->
<g id="edge8" class="edge">
<title>Node2&#45;&gt;Node7</title>
<path fill="none" stroke="midnightblue" d="M695.6,-280.44C669.8,-271.4 628.92,-257.06 599.98,-246.92"/>
<polygon fill="midnightblue" stroke="midnightblue" points="600.88,-243.52 590.29,-243.52 598.57,-250.13 600.88,-243.52"/>
</g>
<!-- Node17 -->
<g id="node17" class="node">
<title>Node17</title>
<g id="a_node17"><a xlink:href="mmap__full__mapper_8h.html" target="_top" xlink:title=" ">
<polygon fill="white" stroke="black" points="762,-56.5 762,-75.5 914,-75.5 914,-56.5 762,-56.5"/>
<text text-anchor="middle" x="838" y="-63.5" font-family="Helvetica,sans-Serif" font-size="10.00">mmap_full_mapper.h</text>
</a>
</g>
</g>
<!-- Node2&#45;&gt;Node17 -->
<g id="edge29" class="edge">
<title>Node2&#45;&gt;Node17</title>
<path fill="none" stroke="midnightblue" d="M724.63,-280.3C742.14,-247.36 804.57,-129.9 828.54,-84.81"/>
<polygon fill="midnightblue" stroke="midnightblue" points="831.68,-86.36 833.28,-75.88 825.49,-83.07 831.68,-86.36"/>
</g>
<!-- Node18 -->
<g id="node18" class="node">
<title>Node18</title>
<g id="a_node18"><a xlink:href="mmap__mapper_8h.html" target="_top" xlink:title=" ">
<polygon fill="white" stroke="black" points="932,-56.5 932,-75.5 1046,-75.5 1046,-56.5 932,-56.5"/>
<text text-anchor="middle" x="989" y="-63.5" font-family="Helvetica,sans-Serif" font-size="10.00">mmap_mapper.h</text>
</a>
</g>
</g>
<!-- Node2&#45;&gt;Node18 -->
<g id="edge32" class="edge">
<title>Node2&#45;&gt;Node18</title>
<path fill="none" stroke="midnightblue" d="M730.55,-280.3C771.31,-246.66 918.87,-124.88 970.78,-82.03"/>
<polygon fill="midnightblue" stroke="midnightblue" points="973.04,-84.71 978.53,-75.64 968.59,-79.31 973.04,-84.71"/>
</g>
<!-- Node19 -->
<g id="node19" class="node">
<title>Node19</title>
<g id="a_node19"><a xlink:href="static__mapper_8h.html" target="_top" xlink:title=" ">
<polygon fill="white" stroke="black" points="1064.5,-56.5 1064.5,-75.5 1193.5,-75.5 1193.5,-56.5 1064.5,-56.5"/>
<text text-anchor="middle" x="1129" y="-63.5" font-family="Helvetica,sans-Serif" font-size="10.00">static_mapper.h</text>
</a>
</g>
</g>
<!-- Node2&#45;&gt;Node19 -->
<g id="edge35" class="edge">
<title>Node2&#45;&gt;Node19</title>
<path fill="none" stroke="midnightblue" d="M735.78,-280.43C798.15,-246.58 1027.74,-121.96 1104.11,-80.51"/>
<polygon fill="midnightblue" stroke="midnightblue" points="1105.92,-83.51 1113.04,-75.66 1102.59,-77.36 1105.92,-83.51"/>
</g>
<!-- Node6&#45;&gt;Node3 -->
<g id="edge6" class="edge">
<title>Node6&#45;&gt;Node3</title>
<path fill="none" stroke="midnightblue" d="M704.19,-56.44C730.94,-47.36 773.4,-32.94 803.31,-22.78"/>
<polygon fill="midnightblue" stroke="midnightblue" points="804.58,-26.05 812.92,-19.52 802.33,-19.42 804.58,-26.05"/>
</g>
<!-- Node6&#45;&gt;Node4 -->
<g id="edge7" class="edge">
<title>Node6&#45;&gt;Node4</title>
<path fill="none" stroke="midnightblue" d="M614.3,-56.62C530.4,-45.76 385.93,-27.05 310.72,-17.31"/>
<polygon fill="midnightblue" stroke="midnightblue" points="310.94,-13.81 300.58,-16 310.04,-20.75 310.94,-13.81"/>
</g>
<!-- Node7&#45;&gt;Node4 -->
<g id="edge28" class="edge">
<title>Node7&#45;&gt;Node4</title>
<path fill="none" stroke="midnightblue" d="M508.98,-225.31C505.61,-224.86 502.26,-224.42 499,-224 371.52,-207.44 333.58,-229.78 212,-188 166.01,-172.19 142.03,-174.28 118,-132 110.76,-119.25 100.21,-81.14 119,-56 140.65,-27.03 180.93,-16.25 213.24,-12.45"/>
<polygon fill="midnightblue" stroke="midnightblue" points="213.81,-15.91 223.41,-11.45 213.12,-8.95 213.81,-15.91"/>
</g>
<!-- Node8 -->
<g id="node8" class="node">
<title>Node8</title>
<g id="a_node8"><a xlink:href="buffer_8h.html" target="_top" xlink:title=" ">
<polygon fill="white" stroke="black" points="518,-112.5 518,-131.5 692,-131.5 692,-112.5 518,-112.5"/>
<text text-anchor="middle" x="605" y="-119.5" font-family="Helvetica,sans-Serif" font-size="10.00">../primitive/buffer.h</text>
</a>
</g>
</g>
<!-- Node7&#45;&gt;Node8 -->
<g id="edge9" class="edge">
<title>Node7&#45;&gt;Node8</title>
<path fill="none" stroke="midnightblue" d="M569.9,-224.48C573.94,-215.5 580.3,-200.91 585,-188 590.68,-172.4 596.15,-154.32 599.93,-141.2"/>
<polygon fill="midnightblue" stroke="midnightblue" points="603.32,-142.08 602.68,-131.5 596.59,-140.17 603.32,-142.08"/>
</g>
<!-- Node12 -->
<g id="node12" class="node">
<title>Node12</title>
<g id="a_node12"><a xlink:href="lru__hashmap_8h.html" target="_top" xlink:title=" ">
<polygon fill="white" stroke="black" points="221,-168.5 221,-187.5 433,-187.5 433,-168.5 221,-168.5"/>
<text text-anchor="middle" x="327" y="-175.5" font-family="Helvetica,sans-Serif" font-size="10.00">../primitive/lru_hashmap.h</text>
</a>
</g>
</g>
<!-- Node7&#45;&gt;Node12 -->
<g id="edge19" class="edge">
<title>Node7&#45;&gt;Node12</title>
<path fill="none" stroke="midnightblue" d="M528.13,-224.44C486.52,-215.04 419.63,-199.93 374.53,-189.74"/>
<polygon fill="midnightblue" stroke="midnightblue" points="375.22,-186.31 364.69,-187.52 373.68,-193.13 375.22,-186.31"/>
</g>
<!-- Node16 -->
<g id="node16" class="node">
<title>Node16</title>
<g id="a_node16"><a xlink:title=" ">
<polygon fill="white" stroke="#bfbfbf" points="477.5,-168.5 477.5,-187.5 576.5,-187.5 576.5,-168.5 477.5,-168.5"/>
<text text-anchor="middle" x="527" y="-175.5" font-family="Helvetica,sans-Serif" font-size="10.00">curl/curl.h</text>
</a>
</g>
</g>
<!-- Node7&#45;&gt;Node16 -->
<g id="edge27" class="edge">
<title>Node7&#45;&gt;Node16</title>
<path fill="none" stroke="midnightblue" d="M559.56,-224.08C554.05,-216.46 545.97,-205.26 539.24,-195.94"/>
<polygon fill="midnightblue" stroke="midnightblue" points="542.01,-193.81 533.32,-187.75 536.34,-197.91 542.01,-193.81"/>
</g>
<!-- Node8&#45;&gt;Node3 -->
<g id="edge17" class="edge">
<title>Node8&#45;&gt;Node3</title>
<path fill="none" stroke="midnightblue" d="M692.07,-120.84C849.63,-119.63 1169.01,-112.64 1203,-76 1247.05,-28.51 996.25,-15.52 886.97,-12.13"/>
<polygon fill="midnightblue" stroke="midnightblue" points="886.96,-8.63 876.86,-11.83 886.75,-15.63 886.96,-8.63"/>
</g>
<!-- Node8&#45;&gt;Node4 -->
<g id="edge18" class="edge">
<title>Node8&#45;&gt;Node4</title>
<path fill="none" stroke="midnightblue" d="M534.8,-112.49C456.28,-102.58 337.6,-86.25 319,-76 298.75,-64.85 282.23,-43.58 272.29,-28.41"/>
<polygon fill="midnightblue" stroke="midnightblue" points="275.24,-26.53 266.97,-19.9 269.3,-30.24 275.24,-26.53"/>
</g>
<!-- Node9 -->
<g id="node9" class="node">
<title>Node9</title>
<g id="a_node9"><a xlink:href="utils_8h.html" target="_top" xlink:title=" ">
<polygon fill="white" stroke="black" points="142,-56.5 142,-75.5 234,-75.5 234,-56.5 142,-56.5"/>
<text text-anchor="middle" x="188" y="-63.5" font-family="Helvetica,sans-Serif" font-size="10.00">../utils.h</text>
</a>
</g>
</g>
<!-- Node8&#45;&gt;Node9 -->
<g id="edge10" class="edge">
<title>Node8&#45;&gt;Node9</title>
<path fill="none" stroke="midnightblue" d="M533.48,-112.49C461.35,-103.78 346.86,-89.64 248,-76 246.74,-75.83 245.46,-75.65 244.17,-75.47"/>
<polygon fill="midnightblue" stroke="midnightblue" points="244.57,-71.99 234.17,-74.04 243.58,-78.92 244.57,-71.99"/>
</g>
<!-- Node10 -->
<g id="node10" class="node">
<title>Node10</title>
<g id="a_node10"><a xlink:href="superblock_8h.html" target="_top" xlink:title=" ">
<polygon fill="white" stroke="black" points="429.5,-56.5 429.5,-75.5 596.5,-75.5 596.5,-56.5 429.5,-56.5"/>
<text text-anchor="middle" x="513" y="-63.5" font-family="Helvetica,sans-Serif" font-size="10.00">../data/superblock.h</text>
</a>
</g>
</g>
<!-- Node8&#45;&gt;Node10 -->
<g id="edge13" class="edge">
<title>Node8&#45;&gt;Node10</title>
<path fill="none" stroke="midnightblue" d="M590.22,-112.32C575.73,-103.82 553.43,-90.73 536.51,-80.8"/>
<polygon fill="midnightblue" stroke="midnightblue" points="538.14,-77.7 527.74,-75.65 534.6,-83.74 538.14,-77.7"/>
</g>
<!-- Node11 -->
<g id="node11" class="node">
<title>Node11</title>
<g id="a_node11"><a xlink:title=" ">
<polygon fill="white" stroke="#bfbfbf" points="328,-56.5 328,-75.5 412,-75.5 412,-56.5 328,-56.5"/>
<text text-anchor="middle" x="370" y="-63.5" font-family="Helvetica,sans-Serif" font-size="10.00">stdbool.h</text>
</a>
</g>
</g>
<!-- Node8&#45;&gt;Node11 -->
<g id="edge16" class="edge">
<title>Node8&#45;&gt;Node11</title>
<path fill="none" stroke="midnightblue" d="M567.76,-112.44C526.94,-103.06 461.36,-87.99 417.02,-77.8"/>
<polygon fill="midnightblue" stroke="midnightblue" points="417.59,-74.34 407.06,-75.52 416.02,-81.17 417.59,-74.34"/>
</g>
<!-- Node9&#45;&gt;Node3 -->
<g id="edge11" class="edge">
<title>Node9&#45;&gt;Node3</title>
<path fill="none" stroke="midnightblue" d="M234.35,-60.64C250.67,-59.14 269.15,-57.46 286,-56 471.77,-39.9 692.87,-22.37 789.15,-14.81"/>
<polygon fill="midnightblue" stroke="midnightblue" points="789.48,-18.3 799.17,-14.03 788.93,-11.32 789.48,-18.3"/>
</g>
<!-- Node9&#45;&gt;Node4 -->
<g id="edge12" class="edge">
<title>Node9&#45;&gt;Node4</title>
<path fill="none" stroke="midnightblue" d="M199.89,-56.32C211.15,-48.11 228.29,-35.6 241.71,-25.81"/>
<polygon fill="midnightblue" stroke="midnightblue" points="243.88,-28.56 249.89,-19.83 239.75,-22.9 243.88,-28.56"/>
</g>
<!-- Node10&#45;&gt;Node3 -->
<g id="edge14" class="edge">
<title>Node10&#45;&gt;Node3</title>
<path fill="none" stroke="midnightblue" d="M564.5,-56.44C626.25,-46.18 728.99,-29.11 789.42,-19.07"/>
<polygon fill="midnightblue" stroke="midnightblue" points="790.17,-22.49 799.47,-17.4 789.03,-15.59 790.17,-22.49"/>
</g>
<!-- Node10&#45;&gt;Node4 -->
<g id="edge15" class="edge">
<title>Node10&#45;&gt;Node4</title>
<path fill="none" stroke="midnightblue" d="M473.23,-56.44C429.18,-46.97 358.16,-31.69 310.79,-21.5"/>
<polygon fill="midnightblue" stroke="midnightblue" points="311.27,-18.02 300.76,-19.34 309.8,-24.86 311.27,-18.02"/>
</g>
<!-- Node12&#45;&gt;Node4 -->
<g id="edge25" class="edge">
<title>Node12&#45;&gt;Node4</title>
<path fill="none" stroke="midnightblue" d="M246.9,-168.48C200.09,-161.66 147.44,-150.17 133,-132 111.99,-105.55 113.44,-83.54 133,-56 151.1,-30.51 184.76,-19.34 213.16,-14.5"/>
<polygon fill="midnightblue" stroke="midnightblue" points="213.97,-17.92 223.35,-12.99 212.94,-10.99 213.97,-17.92"/>
</g>
<!-- Node12&#45;&gt;Node9 -->
<g id="edge20" class="edge">
<title>Node12&#45;&gt;Node9</title>
<path fill="none" stroke="midnightblue" d="M335.63,-168.25C347.62,-155.02 366.43,-129.58 353,-112 345.88,-102.68 284.76,-87.74 238.97,-77.65"/>
<polygon fill="midnightblue" stroke="midnightblue" points="239.68,-74.23 229.17,-75.52 238.19,-81.07 239.68,-74.23"/>
</g>
<!-- Node13 -->
<g id="node13" class="node">
<title>Node13</title>
<g id="a_node13"><a xlink:href="ref__count_8h.html" target="_top" xlink:title=" ">
<polygon fill="white" stroke="black" points="400.5,-112.5 400.5,-131.5 499.5,-131.5 499.5,-112.5 400.5,-112.5"/>
<text text-anchor="middle" x="450" y="-119.5" font-family="Helvetica,sans-Serif" font-size="10.00">ref_count.h</text>
</a>
</g>
</g>
<!-- Node12&#45;&gt;Node13 -->
<g id="edge21" class="edge">
<title>Node12&#45;&gt;Node13</title>
<path fill="none" stroke="midnightblue" d="M346.49,-168.44C366.64,-159.6 398.32,-145.69 421.33,-135.59"/>
<polygon fill="midnightblue" stroke="midnightblue" points="422.85,-138.74 430.6,-131.52 420.04,-132.33 422.85,-138.74"/>
</g>
<!-- Node14 -->
<g id="node14" class="node">
<title>Node14</title>
<g id="a_node14"><a xlink:title=" ">
<polygon fill="white" stroke="#bfbfbf" points="260,-112.5 260,-131.5 344,-131.5 344,-112.5 260,-112.5"/>
<text text-anchor="middle" x="302" y="-119.5" font-family="Helvetica,sans-Serif" font-size="10.00">pthread.h</text>
</a>
</g>
</g>
<!-- Node12&#45;&gt;Node14 -->
<g id="edge24" class="edge">
<title>Node12&#45;&gt;Node14</title>
<path fill="none" stroke="midnightblue" d="M322.87,-168.08C319.49,-160.77 314.58,-150.18 310.38,-141.1"/>
<polygon fill="midnightblue" stroke="midnightblue" points="313.43,-139.36 306.05,-131.75 307.08,-142.3 313.43,-139.36"/>
</g>
<!-- Node15 -->
<g id="node15" class="node">
<title>Node15</title>
<g id="a_node15"><a xlink:title=" ">
<polygon fill="white" stroke="#bfbfbf" points="142.5,-112.5 142.5,-131.5 241.5,-131.5 241.5,-112.5 142.5,-112.5"/>
<text text-anchor="middle" x="192" y="-119.5" font-family="Helvetica,sans-Serif" font-size="10.00">sys/types.h</text>
</a>
</g>
</g>
<!-- Node12&#45;&gt;Node15 -->
<g id="edge26" class="edge">
<title>Node12&#45;&gt;Node15</title>
<path fill="none" stroke="midnightblue" d="M305.61,-168.44C283.29,-159.52 248.1,-145.44 222.79,-135.32"/>
<polygon fill="midnightblue" stroke="midnightblue" points="223.88,-131.98 213.29,-131.52 221.28,-138.48 223.88,-131.98"/>
</g>
<!-- Node13&#45;&gt;Node3 -->
<g id="edge23" class="edge">
<title>Node13&#45;&gt;Node3</title>
<path fill="none" stroke="midnightblue" d="M400.06,-113.66C352.16,-104.62 290.94,-86.59 319,-56 350.41,-21.75 665.86,-13.49 789.06,-11.56"/>
<polygon fill="midnightblue" stroke="midnightblue" points="789.39,-15.06 799.34,-11.41 789.28,-8.06 789.39,-15.06"/>
</g>
<!-- Node13&#45;&gt;Node9 -->
<g id="edge22" class="edge">
<title>Node13&#45;&gt;Node9</title>
<path fill="none" stroke="midnightblue" d="M408.49,-112.44C362.59,-102.98 288.62,-87.74 239.17,-77.55"/>
<polygon fill="midnightblue" stroke="midnightblue" points="239.82,-74.11 229.32,-75.52 238.41,-80.96 239.82,-74.11"/>
</g>
<!-- Node17&#45;&gt;Node3 -->
<g id="edge30" class="edge">
<title>Node17&#45;&gt;Node3</title>
<path fill="none" stroke="midnightblue" d="M838,-56.08C838,-49.01 838,-38.86 838,-29.99"/>
<polygon fill="midnightblue" stroke="midnightblue" points="841.5,-29.75 838,-19.75 834.5,-29.75 841.5,-29.75"/>
</g>
<!-- Node17&#45;&gt;Node4 -->
<g id="edge31" class="edge">
<title>Node17&#45;&gt;Node4</title>
<path fill="none" stroke="midnightblue" d="M761.57,-56.95C758.34,-56.63 755.14,-56.31 752,-56 590.48,-40.13 398.84,-23.03 310.73,-15.27"/>
<polygon fill="midnightblue" stroke="midnightblue" points="311.03,-11.78 300.76,-14.39 310.42,-18.76 311.03,-11.78"/>
</g>
<!-- Node18&#45;&gt;Node3 -->
<g id="edge33" class="edge">
<title>Node18&#45;&gt;Node3</title>
<path fill="none" stroke="midnightblue" d="M965.07,-56.44C939.78,-47.4 899.7,-33.06 871.32,-22.92"/>
<polygon fill="midnightblue" stroke="midnightblue" points="872.41,-19.59 861.81,-19.52 870.05,-26.18 872.41,-19.59"/>
</g>
<!-- Node18&#45;&gt;Node4 -->
<g id="edge34" class="edge">
<title>Node18&#45;&gt;Node4</title>
<path fill="none" stroke="midnightblue" d="M931.79,-56.96C928.82,-56.62 925.88,-56.29 923,-56 694.65,-32.68 420.64,-18.37 310.92,-13.2"/>
<polygon fill="midnightblue" stroke="midnightblue" points="310.97,-9.7 300.82,-12.72 310.65,-16.69 310.97,-9.7"/>
</g>
<!-- Node19&#45;&gt;Node3 -->
<g id="edge36" class="edge">
<title>Node19&#45;&gt;Node3</title>
<path fill="none" stroke="midnightblue" d="M1082.89,-56.44C1029.44,-46.53 941.72,-30.25 887.05,-20.1"/>
<polygon fill="midnightblue" stroke="midnightblue" points="887.38,-16.6 876.91,-18.22 886.1,-23.49 887.38,-16.6"/>
</g>
<!-- Node19&#45;&gt;Node4 -->
<g id="edge37" class="edge">
<title>Node19&#45;&gt;Node4</title>
<path fill="none" stroke="midnightblue" d="M1064.45,-56.9C1061.26,-56.58 1058.09,-56.28 1055,-56 774.06,-30.97 435.83,-17.21 311.19,-12.69"/>
<polygon fill="midnightblue" stroke="midnightblue" points="310.97,-9.18 300.85,-12.32 310.71,-16.18 310.97,-9.18"/>
</g>
</g>
</svg>
