<?xml version="1.0" encoding="UTF-8" standalone="no"?>
<!DOCTYPE svg PUBLIC "-//W3C//DTD SVG 1.1//EN"
 "http://www.w3.org/Graphics/SVG/1.1/DTD/svg11.dtd">
<!-- Generated by graphviz version 3.0.0 (20220413.0242)
 -->
<!-- Title: utils.h Pages: 1 -->
<!--zoomable 319 -->
<svg id="main" version="1.1" xmlns="http://www.w3.org/2000/svg" xmlns:xlink="http://www.w3.org/1999/xlink" xml:space="preserve" onload="init(evt)">
<style type="text/css"><![CDATA[
.edge:hover path { stroke: red; }
.edge:hover polygon { stroke: red; fill: red; }
]]></style>
<script type="text/javascript"><![CDATA[
var edges = document.getElementsByTagName('g');
if (edges && edges.length) {
  for (var i=0;i<edges.length;i++) {
    if (edges[i].id.substr(0,4)=='edge') {
      edges[i].setAttribute('class','edge');
    }
  }
}
]]></script>
        <defs>
                <circle id="rim" cx="0" cy="0" r="7"/>
                <circle id="rim2" cx="0" cy="0" r="3.5"/>
                <g id="zoomPlus">
                        <use xlink:href="#rim" fill="#404040">
                                <set attributeName="fill" to="#808080" begin="zoomplus.mouseover" end="zoomplus.mouseout"/>
                        </use>
                        <path d="M-4,0h8M0,-4v8" fill="none" stroke="white" stroke-width="1.5" pointer-events="none"/>
                </g>
                <g id="zoomMin">
                        <use xlink:href="#rim" fill="#404040">
                                <set attributeName="fill" to="#808080" begin="zoomminus.mouseover" end="zoomminus.mouseout"/>
                        </use>
                        <path d="M-4,0h8" fill="none" stroke="white" stroke-width="1.5" pointer-events="none"/>
                </g>
                <g id="dirArrow">
                        <path fill="none" stroke="white" stroke-width="1.5" d="M0,-3.0v7 M-2.5,-0.5L0,-3.0L2.5,-0.5"/>
                </g>
               <g id="resetDef">
                       <use xlink:href="#rim2" fill="#404040">
                               <set attributeName="fill" to="#808080" begin="reset.mouseover" end="reset.mouseout"/>
                       </use>
               </g>
        </defs>

<script type="text/javascript">
var viewWidth = 1818;
var viewHeight = 319;
var sectionId = 'dynsection-1';
</script>
<script xlink:href="svgpan.js"/>
<svg id="graph" class="graph">
<g id="viewport">
<title>utils.h</title>
<polygon fill="white" stroke="transparent" points="-4,4 -4,-315 1814,-315 1814,4 -4,4"/>
<!-- Node1 -->
<g id="node1" class="node">
<title>Node1</title>
<g id="a_node1"><a xlink:title=" ">
<polygon fill="#bfbfbf" stroke="black" points="625,-291.5 625,-310.5 694,-310.5 694,-291.5 625,-291.5"/>
<text text-anchor="middle" x="659.5" y="-298.5" font-family="Helvetica,sans-Serif" font-size="10.00">utils.h</text>
</a>
</g>
</g>
<!-- Node2 -->
<g id="node2" class="node">
<title>Node2</title>
<g id="a_node2"><a xlink:href="buffer_8h.html" target="_top" xlink:title=" ">
<polygon fill="white" stroke="black" points="776,-235.5 776,-254.5 853,-254.5 853,-235.5 776,-235.5"/>
<text text-anchor="middle" x="814.5" y="-242.5" font-family="Helvetica,sans-Serif" font-size="10.00">buffer.h</text>
</a>
</g>
</g>
<!-- Node1&#45;&gt;Node2 -->
<g id="edge1" class="edge">
<title>Node1&#45;&gt;Node2</title>
<path fill="none" stroke="midnightblue" d="M693.83,-288.04C723,-277.88 764.14,-263.55 790.05,-254.52"/>
<polygon fill="midnightblue" stroke="midnightblue" points="692.35,-284.85 684.06,-291.44 694.66,-291.46 692.35,-284.85"/>
</g>
<!-- Node3 -->
<g id="node3" class="node">
<title>Node3</title>
<g id="a_node3"><a xlink:href="compression__options__context_8h.html" target="_top" xlink:title=" ">
<polygon fill="white" stroke="black" points="511,-168.5 511,-198.5 670,-198.5 670,-168.5 511,-168.5"/>
<text text-anchor="start" x="519" y="-186.5" font-family="Helvetica,sans-Serif" font-size="10.00">compression_options</text>
<text text-anchor="middle" x="590.5" y="-175.5" font-family="Helvetica,sans-Serif" font-size="10.00">_context.h</text>
</a>
</g>
</g>
<!-- Node1&#45;&gt;Node3 -->
<g id="edge16" class="edge">
<title>Node1&#45;&gt;Node3</title>
<path fill="none" stroke="midnightblue" d="M649.12,-282.63C635.41,-259.68 611.53,-219.69 598.89,-198.55"/>
<polygon fill="midnightblue" stroke="midnightblue" points="646.18,-284.53 654.31,-291.32 652.19,-280.94 646.18,-284.53"/>
</g>
<!-- Node4 -->
<g id="node4" class="node">
<title>Node4</title>
<g id="a_node4"><a xlink:href="sqsh_8h.html" target="_top" xlink:title=" ">
<polygon fill="white" stroke="black" points="278.5,-56.5 278.5,-75.5 340.5,-75.5 340.5,-56.5 278.5,-56.5"/>
<text text-anchor="middle" x="309.5" y="-63.5" font-family="Helvetica,sans-Serif" font-size="10.00">sqsh.h</text>
</a>
</g>
</g>
<!-- Node1&#45;&gt;Node4 -->
<g id="edge35" class="edge">
<title>Node1&#45;&gt;Node4</title>
<path fill="none" stroke="midnightblue" d="M614.94,-299.09C515.57,-296.5 278.91,-287.06 206.5,-255 172.55,-239.97 159.58,-232.93 144.5,-199 127.89,-161.62 143.23,-138.36 174.5,-112 204.35,-86.84 248.77,-75.6 278.42,-70.67"/>
<polygon fill="midnightblue" stroke="midnightblue" points="614.87,-302.59 624.96,-299.34 615.05,-295.59 614.87,-302.59"/>
</g>
<!-- Node8 -->
<g id="node8" class="node">
<title>Node8</title>
<g id="a_node8"><a xlink:href="metablock__context_8h.html" target="_top" xlink:title=" ">
<polygon fill="white" stroke="black" points="688,-174 688,-193 847,-193 847,-174 688,-174"/>
<text text-anchor="middle" x="767.5" y="-181" font-family="Helvetica,sans-Serif" font-size="10.00">metablock_context.h</text>
</a>
</g>
</g>
<!-- Node1&#45;&gt;Node8 -->
<g id="edge33" class="edge">
<title>Node1&#45;&gt;Node8</title>
<path fill="none" stroke="midnightblue" d="M674.63,-283.82C697.78,-259.06 741.22,-212.61 759.29,-193.28"/>
<polygon fill="midnightblue" stroke="midnightblue" points="671.89,-281.62 667.62,-291.32 677,-286.4 671.89,-281.62"/>
</g>
<!-- Node9 -->
<g id="node9" class="node">
<title>Node9</title>
<g id="a_node9"><a xlink:href="xattr__table_8h.html" target="_top" xlink:title=" ">
<polygon fill="white" stroke="black" points="461.5,-112.5 461.5,-131.5 575.5,-131.5 575.5,-112.5 461.5,-112.5"/>
<text text-anchor="middle" x="518.5" y="-119.5" font-family="Helvetica,sans-Serif" font-size="10.00">xattr_table.h</text>
</a>
</g>
</g>
<!-- Node1&#45;&gt;Node9 -->
<g id="edge38" class="edge">
<title>Node1&#45;&gt;Node9</title>
<path fill="none" stroke="midnightblue" d="M622.05,-287.92C584.18,-273.46 527.73,-245.22 502.5,-199 490.36,-176.75 504.68,-146.19 513.14,-131.53"/>
<polygon fill="midnightblue" stroke="midnightblue" points="621.13,-291.31 631.73,-291.47 623.54,-284.74 621.13,-291.31"/>
</g>
<!-- Node11 -->
<g id="node11" class="node">
<title>Node11</title>
<g id="a_node11"><a xlink:href="directory__iterator_8h.html" target="_top" xlink:title=" ">
<polygon fill="white" stroke="black" points="1068,-56.5 1068,-75.5 1235,-75.5 1235,-56.5 1068,-56.5"/>
<text text-anchor="middle" x="1151.5" y="-63.5" font-family="Helvetica,sans-Serif" font-size="10.00">directory_iterator.h</text>
</a>
</g>
</g>
<!-- Node1&#45;&gt;Node11 -->
<g id="edge18" class="edge">
<title>Node1&#45;&gt;Node11</title>
<path fill="none" stroke="midnightblue" d="M704.22,-298.71C844.87,-294.42 1272.33,-279.5 1329.5,-255 1363.33,-240.5 1373.72,-231.75 1390.5,-199 1408.21,-164.44 1423.37,-141.82 1398.5,-112 1377.84,-87.23 1298.51,-76.06 1235.26,-71.05"/>
<polygon fill="midnightblue" stroke="midnightblue" points="704.1,-295.21 694.21,-299.01 704.31,-302.21 704.1,-295.21"/>
</g>
<!-- Node12 -->
<g id="node12" class="node">
<title>Node12</title>
<g id="a_node12"><a xlink:href="inode__context_8h.html" target="_top" xlink:title=" ">
<polygon fill="white" stroke="black" points="1087,-112.5 1087,-131.5 1216,-131.5 1216,-112.5 1087,-112.5"/>
<text text-anchor="middle" x="1151.5" y="-119.5" font-family="Helvetica,sans-Serif" font-size="10.00">inode_context.h</text>
</a>
</g>
</g>
<!-- Node1&#45;&gt;Node12 -->
<g id="edge23" class="edge">
<title>Node1&#45;&gt;Node12</title>
<path fill="none" stroke="midnightblue" d="M704.41,-300.75C844.96,-302.05 1272.08,-297.67 1357.5,-199 1366.52,-188.58 1366.14,-178.73 1357.5,-168 1348.02,-156.22 1264.94,-140.9 1207.23,-131.51"/>
<polygon fill="midnightblue" stroke="midnightblue" points="704.45,-297.25 694.41,-300.64 704.37,-304.25 704.45,-297.25"/>
</g>
<!-- Node13 -->
<g id="node13" class="node">
<title>Node13</title>
<g id="a_node13"><a xlink:href="xattr__iterator_8h.html" target="_top" xlink:title=" ">
<polygon fill="white" stroke="black" points="1252,-112.5 1252,-131.5 1389,-131.5 1389,-112.5 1252,-112.5"/>
<text text-anchor="middle" x="1320.5" y="-119.5" font-family="Helvetica,sans-Serif" font-size="10.00">xattr_iterator.h</text>
</a>
</g>
</g>
<!-- Node1&#45;&gt;Node13 -->
<g id="edge37" class="edge">
<title>Node1&#45;&gt;Node13</title>
<path fill="none" stroke="midnightblue" d="M704.22,-299.73C829.34,-298.51 1180.92,-291.82 1289.5,-255 1332.34,-240.47 1353.04,-238.83 1374.5,-199 1381.03,-186.87 1380.34,-180.48 1374.5,-168 1366.84,-151.64 1349.99,-139.16 1337.13,-131.54"/>
<polygon fill="midnightblue" stroke="midnightblue" points="704.18,-296.23 694.21,-299.82 704.24,-303.23 704.18,-296.23"/>
</g>
<!-- Node14 -->
<g id="node14" class="node">
<title>Node14</title>
<g id="a_node14"><a xlink:href="directory__index__iterator_8h.html" target="_top" xlink:title=" ">
<polygon fill="white" stroke="black" points="1480.5,-235.5 1480.5,-254.5 1692.5,-254.5 1692.5,-235.5 1480.5,-235.5"/>
<text text-anchor="middle" x="1586.5" y="-242.5" font-family="Helvetica,sans-Serif" font-size="10.00">directory_index_iterator.h</text>
</a>
</g>
</g>
<!-- Node1&#45;&gt;Node14 -->
<g id="edge17" class="edge">
<title>Node1&#45;&gt;Node14</title>
<path fill="none" stroke="midnightblue" d="M704.22,-297.81C826.38,-291.75 1176.02,-273.99 1466.5,-255 1470.98,-254.71 1475.56,-254.4 1480.18,-254.08"/>
<polygon fill="midnightblue" stroke="midnightblue" points="703.94,-294.32 694.12,-298.31 704.28,-301.31 703.94,-294.32"/>
</g>
<!-- Node15 -->
<g id="node15" class="node">
<title>Node15</title>
<g id="a_node15"><a xlink:href="error_8h.html" target="_top" xlink:title=" ">
<polygon fill="white" stroke="black" points="0,-112.5 0,-131.5 69,-131.5 69,-112.5 0,-112.5"/>
<text text-anchor="middle" x="34.5" y="-119.5" font-family="Helvetica,sans-Serif" font-size="10.00">error.h</text>
</a>
</g>
</g>
<!-- Node1&#45;&gt;Node15 -->
<g id="edge19" class="edge">
<title>Node1&#45;&gt;Node15</title>
<path fill="none" stroke="midnightblue" d="M614.63,-299.24C486.52,-296.69 125.55,-286.74 83.5,-255 42.73,-224.22 35.87,-155.72 34.73,-131.6"/>
<polygon fill="midnightblue" stroke="midnightblue" points="614.81,-302.74 624.87,-299.44 614.94,-295.75 614.81,-302.74"/>
</g>
<!-- Node16 -->
<g id="node16" class="node">
<title>Node16</title>
<g id="a_node16"><a xlink:href="fragment__table_8h.html" target="_top" xlink:title=" ">
<polygon fill="white" stroke="black" points="192,-112.5 192,-131.5 329,-131.5 329,-112.5 192,-112.5"/>
<text text-anchor="middle" x="260.5" y="-119.5" font-family="Helvetica,sans-Serif" font-size="10.00">fragment_table.h</text>
</a>
</g>
</g>
<!-- Node1&#45;&gt;Node16 -->
<g id="edge21" class="edge">
<title>Node1&#45;&gt;Node16</title>
<path fill="none" stroke="midnightblue" d="M614.62,-298.48C501.05,-293.54 207.41,-273.65 153.5,-199 145.43,-187.83 145.88,-179.48 153.5,-168 166.21,-148.86 188.82,-137.85 209.99,-131.51"/>
<polygon fill="midnightblue" stroke="midnightblue" points="614.58,-301.98 624.72,-298.9 614.88,-294.98 614.58,-301.98"/>
</g>
<!-- Node17 -->
<g id="node17" class="node">
<title>Node17</title>
<g id="a_node17"><a xlink:href="mapper_8h.html" target="_top" xlink:title=" ">
<polygon fill="white" stroke="black" points="378,-235.5 378,-254.5 455,-254.5 455,-235.5 378,-235.5"/>
<text text-anchor="middle" x="416.5" y="-242.5" font-family="Helvetica,sans-Serif" font-size="10.00">mapper.h</text>
</a>
</g>
</g>
<!-- Node1&#45;&gt;Node17 -->
<g id="edge24" class="edge">
<title>Node1&#45;&gt;Node17</title>
<path fill="none" stroke="midnightblue" d="M614.99,-290.11C569.15,-279.92 498.44,-264.21 454.95,-254.54"/>
<polygon fill="midnightblue" stroke="midnightblue" points="614.42,-293.57 624.94,-292.32 615.94,-286.73 614.42,-293.57"/>
</g>
<!-- Node18 -->
<g id="node18" class="node">
<title>Node18</title>
<g id="a_node18"><a xlink:href="superblock__context_8h.html" target="_top" xlink:title=" ">
<polygon fill="white" stroke="black" points="163,-174 163,-193 330,-193 330,-174 163,-174"/>
<text text-anchor="middle" x="246.5" y="-181" font-family="Helvetica,sans-Serif" font-size="10.00">superblock_context.h</text>
</a>
</g>
</g>
<!-- Node1&#45;&gt;Node18 -->
<g id="edge36" class="edge">
<title>Node1&#45;&gt;Node18</title>
<path fill="none" stroke="midnightblue" d="M614.27,-298.09C556.13,-294.49 452.78,-284.2 369.5,-255 325.37,-239.53 278.99,-208.19 258.01,-193.06"/>
<polygon fill="midnightblue" stroke="midnightblue" points="614.39,-301.6 624.58,-298.68 614.8,-294.61 614.39,-301.6"/>
</g>
<!-- Node20 -->
<g id="node20" class="node">
<title>Node20</title>
<g id="a_node20"><a xlink:href="ref__count_8h.html" target="_top" xlink:title=" ">
<polygon fill="white" stroke="black" points="1711,-235.5 1711,-254.5 1810,-254.5 1810,-235.5 1711,-235.5"/>
<text text-anchor="middle" x="1760.5" y="-242.5" font-family="Helvetica,sans-Serif" font-size="10.00">ref_count.h</text>
</a>
</g>
</g>
<!-- Node1&#45;&gt;Node20 -->
<g id="edge34" class="edge">
<title>Node1&#45;&gt;Node20</title>
<path fill="none" stroke="midnightblue" d="M704.49,-299.79C849.4,-298.76 1316.9,-292.53 1701.5,-255 1704.59,-254.7 1707.77,-254.34 1710.97,-253.95"/>
<polygon fill="midnightblue" stroke="midnightblue" points="704.2,-296.3 694.23,-299.86 704.25,-303.3 704.2,-296.3"/>
</g>
<!-- Node2&#45;&gt;Node3 -->
<g id="edge2" class="edge">
<title>Node2&#45;&gt;Node3</title>
<path fill="none" stroke="midnightblue" d="M772.56,-232.86C735.98,-223.14 682.76,-209.01 643.29,-198.52"/>
<polygon fill="midnightblue" stroke="midnightblue" points="771.84,-236.29 782.41,-235.48 773.64,-229.53 771.84,-236.29"/>
</g>
<!-- Node6 -->
<g id="node6" class="node">
<title>Node6</title>
<g id="a_node6"><a xlink:href="curl__mapper_8h.html" target="_top" xlink:title=" ">
<polygon fill="white" stroke="black" points="1094.5,-174 1094.5,-193 1208.5,-193 1208.5,-174 1094.5,-174"/>
<text text-anchor="middle" x="1151.5" y="-181" font-family="Helvetica,sans-Serif" font-size="10.00">curl_mapper.h</text>
</a>
</g>
</g>
<!-- Node2&#45;&gt;Node6 -->
<g id="edge5" class="edge">
<title>Node2&#45;&gt;Node6</title>
<path fill="none" stroke="midnightblue" d="M863.25,-236.68C917.61,-228.34 1008.07,-213.92 1085.5,-199 1094.83,-197.2 1104.86,-195.09 1114.22,-193.04"/>
<polygon fill="midnightblue" stroke="midnightblue" points="862.56,-233.25 853.21,-238.22 863.62,-240.17 862.56,-233.25"/>
</g>
<!-- Node7 -->
<g id="node7" class="node">
<title>Node7</title>
<g id="a_node7"><a xlink:href="file__context_8h.html" target="_top" xlink:title=" ">
<polygon fill="white" stroke="black" points="1226.5,-174 1226.5,-193 1348.5,-193 1348.5,-174 1226.5,-174"/>
<text text-anchor="middle" x="1287.5" y="-181" font-family="Helvetica,sans-Serif" font-size="10.00">file_context.h</text>
</a>
</g>
</g>
<!-- Node2&#45;&gt;Node7 -->
<g id="edge6" class="edge">
<title>Node2&#45;&gt;Node7</title>
<path fill="none" stroke="midnightblue" d="M863.21,-240.03C939.17,-233.52 1090.34,-219.22 1217.5,-199 1227.92,-197.34 1239.14,-195.19 1249.47,-193.05"/>
<polygon fill="midnightblue" stroke="midnightblue" points="862.67,-236.57 853,-240.9 863.26,-243.54 862.67,-236.57"/>
</g>
<!-- Node2&#45;&gt;Node8 -->
<g id="edge7" class="edge">
<title>Node2&#45;&gt;Node8</title>
<path fill="none" stroke="midnightblue" d="M801.34,-227.34C792.52,-216.17 781.27,-201.93 774.22,-193.01"/>
<polygon fill="midnightblue" stroke="midnightblue" points="798.82,-229.8 807.77,-235.48 804.31,-225.46 798.82,-229.8"/>
</g>
<!-- Node10 -->
<g id="node10" class="node">
<title>Node10</title>
<g id="a_node10"><a xlink:href="metablock__stream__context_8h.html" target="_top" xlink:title=" ">
<polygon fill="white" stroke="black" points="864.5,-174 864.5,-193 1076.5,-193 1076.5,-174 864.5,-174"/>
<text text-anchor="middle" x="970.5" y="-181" font-family="Helvetica,sans-Serif" font-size="10.00">metablock_stream_context.h</text>
</a>
</g>
</g>
<!-- Node2&#45;&gt;Node10 -->
<g id="edge10" class="edge">
<title>Node2&#45;&gt;Node10</title>
<path fill="none" stroke="midnightblue" d="M846.53,-231.78C876.85,-220.22 921.57,-203.16 948.19,-193.01"/>
<polygon fill="midnightblue" stroke="midnightblue" points="844.95,-228.64 836.85,-235.48 847.44,-235.18 844.95,-228.64"/>
</g>
<!-- Node3&#45;&gt;Node4 -->
<g id="edge3" class="edge">
<title>Node3&#45;&gt;Node4</title>
<path fill="none" stroke="midnightblue" d="M539.99,-165.05C513.72,-155.72 481.18,-143.75 452.5,-132 406.82,-113.29 354.25,-88.55 327.37,-75.65"/>
<polygon fill="midnightblue" stroke="midnightblue" points="539.14,-168.46 549.73,-168.5 541.47,-161.86 539.14,-168.46"/>
</g>
<!-- Node5 -->
<g id="node5" class="node">
<title>Node5</title>
<g id="a_node5"><a xlink:href="bin_2common_8h.html" target="_top" xlink:title=" ">
<polygon fill="white" stroke="black" points="271,-0.5 271,-19.5 348,-19.5 348,-0.5 271,-0.5"/>
<text text-anchor="middle" x="309.5" y="-7.5" font-family="Helvetica,sans-Serif" font-size="10.00">common.h</text>
</a>
</g>
</g>
<!-- Node4&#45;&gt;Node5 -->
<g id="edge4" class="edge">
<title>Node4&#45;&gt;Node5</title>
<path fill="none" stroke="midnightblue" d="M309.5,-45.8C309.5,-36.91 309.5,-26.78 309.5,-19.75"/>
<polygon fill="midnightblue" stroke="midnightblue" points="306,-46.08 309.5,-56.08 313,-46.08 306,-46.08"/>
</g>
<!-- Node8&#45;&gt;Node9 -->
<g id="edge8" class="edge">
<title>Node8&#45;&gt;Node9</title>
<path fill="none" stroke="midnightblue" d="M721.94,-171.61C673.61,-160.07 598.27,-142.06 554.11,-131.51"/>
<polygon fill="midnightblue" stroke="midnightblue" points="721.28,-175.06 731.82,-173.98 722.91,-168.25 721.28,-175.06"/>
</g>
<!-- Node9&#45;&gt;Node4 -->
<g id="edge9" class="edge">
<title>Node9&#45;&gt;Node4</title>
<path fill="none" stroke="midnightblue" d="M475.62,-109.92C435.52,-99.56 376.58,-84.33 340.75,-75.08"/>
<polygon fill="midnightblue" stroke="midnightblue" points="474.83,-113.33 485.38,-112.44 476.58,-106.55 474.83,-113.33"/>
</g>
<!-- Node10&#45;&gt;Node9 -->
<g id="edge15" class="edge">
<title>Node10&#45;&gt;Node9</title>
<path fill="none" stroke="midnightblue" d="M895.61,-172.64C805.68,-160.8 656.82,-141.21 575.63,-130.52"/>
<polygon fill="midnightblue" stroke="midnightblue" points="895.37,-176.14 905.74,-173.98 896.28,-169.2 895.37,-176.14"/>
</g>
<!-- Node10&#45;&gt;Node11 -->
<g id="edge11" class="edge">
<title>Node10&#45;&gt;Node11</title>
<path fill="none" stroke="midnightblue" d="M991.86,-168.32C1013.57,-153.97 1048.23,-131.21 1078.5,-112 1098.87,-99.08 1122.69,-84.49 1137.44,-75.52"/>
<polygon fill="midnightblue" stroke="midnightblue" points="989.8,-165.49 983.4,-173.93 993.67,-171.32 989.8,-165.49"/>
</g>
<!-- Node10&#45;&gt;Node12 -->
<g id="edge12" class="edge">
<title>Node10&#45;&gt;Node12</title>
<path fill="none" stroke="midnightblue" d="M1006.3,-170.73C1041.48,-159.17 1094.32,-141.8 1125.62,-131.51"/>
<polygon fill="midnightblue" stroke="midnightblue" points="1004.84,-167.53 996.43,-173.98 1007.03,-174.18 1004.84,-167.53"/>
</g>
<!-- Node10&#45;&gt;Node13 -->
<g id="edge14" class="edge">
<title>Node10&#45;&gt;Node13</title>
<path fill="none" stroke="midnightblue" d="M1030.74,-172.26C1098.47,-160.75 1207.2,-142.26 1270.45,-131.51"/>
<polygon fill="midnightblue" stroke="midnightblue" points="1029.92,-168.85 1020.65,-173.98 1031.09,-175.75 1029.92,-168.85"/>
</g>
<!-- Node12&#45;&gt;Node11 -->
<g id="edge13" class="edge">
<title>Node12&#45;&gt;Node11</title>
<path fill="none" stroke="midnightblue" d="M1151.5,-101.8C1151.5,-92.91 1151.5,-82.78 1151.5,-75.75"/>
<polygon fill="midnightblue" stroke="midnightblue" points="1148,-102.08 1151.5,-112.08 1155,-102.08 1148,-102.08"/>
</g>
<!-- Node15&#45;&gt;Node4 -->
<g id="edge20" class="edge">
<title>Node15&#45;&gt;Node4</title>
<path fill="none" stroke="midnightblue" d="M79.02,-112.26C134.95,-101.28 229.47,-82.71 278.27,-73.13"/>
<polygon fill="midnightblue" stroke="midnightblue" points="78.19,-108.85 69.05,-114.22 79.54,-115.72 78.19,-108.85"/>
</g>
<!-- Node16&#45;&gt;Node4 -->
<g id="edge22" class="edge">
<title>Node16&#45;&gt;Node4</title>
<path fill="none" stroke="midnightblue" d="M275.53,-104.43C284.12,-94.97 294.54,-83.48 301.56,-75.75"/>
<polygon fill="midnightblue" stroke="midnightblue" points="272.72,-102.33 268.59,-112.08 277.9,-107.03 272.72,-102.33"/>
</g>
<!-- Node17&#45;&gt;Node4 -->
<g id="edge26" class="edge">
<title>Node17&#45;&gt;Node4</title>
<path fill="none" stroke="midnightblue" d="M400.53,-227.94C392.93,-219.74 384.09,-209.33 377.5,-199 354.71,-163.27 358.7,-149.25 338.5,-112 331.41,-98.93 321.85,-84.62 315.68,-75.72"/>
<polygon fill="midnightblue" stroke="midnightblue" points="398.15,-230.51 407.59,-235.32 403.21,-225.67 398.15,-230.51"/>
</g>
<!-- Node17&#45;&gt;Node8 -->
<g id="edge25" class="edge">
<title>Node17&#45;&gt;Node8</title>
<path fill="none" stroke="midnightblue" d="M465.27,-235.73C531.73,-224.47 650.12,-204.4 717.31,-193.01"/>
<polygon fill="midnightblue" stroke="midnightblue" points="464.34,-232.34 455.07,-237.46 465.51,-239.24 464.34,-232.34"/>
</g>
<!-- Node17&#45;&gt;Node18 -->
<g id="edge27" class="edge">
<title>Node17&#45;&gt;Node18</title>
<path fill="none" stroke="midnightblue" d="M382.45,-232.08C349.41,-220.52 300.08,-203.25 270.81,-193.01"/>
<polygon fill="midnightblue" stroke="midnightblue" points="381.55,-235.48 392.14,-235.48 383.86,-228.87 381.55,-235.48"/>
</g>
<!-- Node19 -->
<g id="node19" class="node">
<title>Node19</title>
<g id="a_node19"><a xlink:href="table_8h.html" target="_top" xlink:title=" ">
<polygon fill="white" stroke="black" points="386,-174 386,-193 455,-193 455,-174 386,-174"/>
<text text-anchor="middle" x="420.5" y="-181" font-family="Helvetica,sans-Serif" font-size="10.00">table.h</text>
</a>
</g>
</g>
<!-- Node17&#45;&gt;Node19 -->
<g id="edge29" class="edge">
<title>Node17&#45;&gt;Node19</title>
<path fill="none" stroke="midnightblue" d="M417.76,-225.32C418.48,-214.5 419.36,-201.4 419.93,-193.01"/>
<polygon fill="midnightblue" stroke="midnightblue" points="414.25,-225.26 417.07,-235.48 421.24,-225.73 414.25,-225.26"/>
</g>
<!-- Node18&#45;&gt;Node4 -->
<g id="edge28" class="edge">
<title>Node18&#45;&gt;Node4</title>
<path fill="none" stroke="midnightblue" d="M219.32,-169.03C195.66,-155.44 167.34,-133.45 182.5,-112 204.1,-81.43 248.31,-71.5 278.43,-68.34"/>
<polygon fill="midnightblue" stroke="midnightblue" points="217.93,-172.26 228.39,-173.97 221.29,-166.11 217.93,-172.26"/>
</g>
<!-- Node19&#45;&gt;Node4 -->
<g id="edge31" class="edge">
<title>Node19&#45;&gt;Node4</title>
<path fill="none" stroke="midnightblue" d="M410.47,-164.74C401.46,-149.7 387.25,-128.07 371.5,-112 357.07,-97.27 337.39,-83.88 324.1,-75.61"/>
<polygon fill="midnightblue" stroke="midnightblue" points="407.55,-166.68 415.61,-173.56 413.6,-163.15 407.55,-166.68"/>
</g>
<!-- Node19&#45;&gt;Node9 -->
<g id="edge32" class="edge">
<title>Node19&#45;&gt;Node9</title>
<path fill="none" stroke="midnightblue" d="M443.16,-168.74C462.09,-157.25 488.49,-141.22 504.49,-131.51"/>
<polygon fill="midnightblue" stroke="midnightblue" points="441.27,-165.79 434.54,-173.98 444.91,-171.78 441.27,-165.79"/>
</g>
<!-- Node19&#45;&gt;Node16 -->
<g id="edge30" class="edge">
<title>Node19&#45;&gt;Node16</title>
<path fill="none" stroke="midnightblue" d="M388.05,-170.43C356.95,-158.87 310.81,-141.71 283.38,-131.51"/>
<polygon fill="midnightblue" stroke="midnightblue" points="386.98,-173.77 397.58,-173.98 389.42,-167.21 386.98,-173.77"/>
</g>
</g>
</svg>
        <g id="navigator" transform="translate(0 0)" fill="#404254">
                <rect fill="#f2f5e9" fill-opacity="0.5" stroke="#606060" stroke-width=".5" x="0" y="0" width="60" height="60"/>
                <use id="zoomplus" xlink:href="#zoomPlus" x="17" y="9" onmousedown="handleZoom(evt,'in')"/>
                <use id="zoomminus" xlink:href="#zoomMin" x="42" y="9" onmousedown="handleZoom(evt,'out')"/>
                <use id="reset" xlink:href="#resetDef" x="30" y="36" onmousedown="handleReset()"/>
                <g id="arrowUp" xlink:href="#dirArrow" transform="translate(30 24)" onmousedown="handlePan(0,-1)">
                  <use xlink:href="#rim" fill="#404040">
                        <set attributeName="fill" to="#808080" begin="arrowUp.mouseover" end="arrowUp.mouseout"/>
                  </use>
                  <path fill="none" stroke="white" stroke-width="1.5" d="M0,-3.0v7 M-2.5,-0.5L0,-3.0L2.5,-0.5"/>
                </g>
                <g id="arrowRight" xlink:href="#dirArrow" transform="rotate(90) translate(36 -43)" onmousedown="handlePan(1,0)">
                  <use xlink:href="#rim" fill="#404040">
                        <set attributeName="fill" to="#808080" begin="arrowRight.mouseover" end="arrowRight.mouseout"/>
                  </use>
                  <path fill="none" stroke="white" stroke-width="1.5" d="M0,-3.0v7 M-2.5,-0.5L0,-3.0L2.5,-0.5"/>
                </g>
                <g id="arrowDown" xlink:href="#dirArrow" transform="rotate(180) translate(-30 -48)" onmousedown="handlePan(0,1)">
                  <use xlink:href="#rim" fill="#404040">
                        <set attributeName="fill" to="#808080" begin="arrowDown.mouseover" end="arrowDown.mouseout"/>
                  </use>
                  <path fill="none" stroke="white" stroke-width="1.5" d="M0,-3.0v7 M-2.5,-0.5L0,-3.0L2.5,-0.5"/>
                </g>
                <g id="arrowLeft" xlink:href="#dirArrow" transform="rotate(270) translate(-36 17)" onmousedown="handlePan(-1,0)">
                  <use xlink:href="#rim" fill="#404040">
                        <set attributeName="fill" to="#808080" begin="arrowLeft.mouseover" end="arrowLeft.mouseout"/>
                  </use>
                  <path fill="none" stroke="white" stroke-width="1.5" d="M0,-3.0v7 M-2.5,-0.5L0,-3.0L2.5,-0.5"/>
                </g>
        </g>
        <svg viewBox="0 0 15 15" width="100%" height="30px" preserveAspectRatio="xMaxYMin meet">
         <g id="arrow_out" transform="scale(0.3 0.3)">
          <a xlink:href="utils_8h__dep__incl_org.svg" target="_base">
           <rect id="button" ry="5" rx="5" y="6" x="6" height="38" width="38"
                fill="#f2f5e9" fill-opacity="0.5" stroke="#606060" stroke-width="1.0"/>
           <path id="arrow"
             d="M 11.500037,31.436501 C 11.940474,20.09759 22.043105,11.32322 32.158766,21.979434 L 37.068811,17.246167 C 37.068811,17.246167 37.088388,32 37.088388,32 L 22.160133,31.978069 C 22.160133,31.978069 26.997745,27.140456 26.997745,27.140456 C 18.528582,18.264221 13.291696,25.230495 11.500037,31.436501 z"
             style="fill:#404040;"/>
          </a>
         </g>
        </svg>
</svg>
