<?xml version="1.0" encoding="UTF-8" standalone="no"?>
<!DOCTYPE svg PUBLIC "-//W3C//DTD SVG 1.1//EN"
 "http://www.w3.org/Graphics/SVG/1.1/DTD/svg11.dtd">
<!-- Generated by graphviz version 3.0.0 (20220413.0242)
 -->
<!-- Title: utils.h Pages: 1 -->
<svg width="2854pt" height="330pt"
 viewBox="0.00 0.00 2854.00 330.00" xmlns="http://www.w3.org/2000/svg" xmlns:xlink="http://www.w3.org/1999/xlink">
<g id="graph0" class="graph" transform="scale(1 1) rotate(0) translate(4 326)">
<title>utils.h</title>
<polygon fill="white" stroke="transparent" points="-4,4 -4,-326 2850,-326 2850,4 -4,4"/>
<!-- Node1 -->
<g id="node1" class="node">
<title>Node1</title>
<g id="a_node1"><a xlink:title=" ">
<polygon fill="#bfbfbf" stroke="black" points="1343,-302.5 1343,-321.5 1412,-321.5 1412,-302.5 1343,-302.5"/>
<text text-anchor="middle" x="1377.5" y="-309.5" font-family="Helvetica,sans-Serif" font-size="10.00">utils.h</text>
</a>
</g>
</g>
<!-- Node2 -->
<g id="node2" class="node">
<title>Node2</title>
<g id="a_node2"><a xlink:href="buffer_8h.html" target="_top" xlink:title=" ">
<polygon fill="white" stroke="black" points="907,-241 907,-260 984,-260 984,-241 907,-241"/>
<text text-anchor="middle" x="945.5" y="-248" font-family="Helvetica,sans-Serif" font-size="10.00">buffer.h</text>
</a>
</g>
</g>
<!-- Node1&#45;&gt;Node2 -->
<g id="edge1" class="edge">
<title>Node1&#45;&gt;Node2</title>
<path fill="none" stroke="midnightblue" d="M1332.78,-304.84C1247.81,-293.14 1064.42,-267.88 984.29,-256.84"/>
<polygon fill="midnightblue" stroke="midnightblue" points="1332.49,-308.33 1342.88,-306.23 1333.45,-301.4 1332.49,-308.33"/>
</g>
<!-- Node3 -->
<g id="node3" class="node">
<title>Node3</title>
<g id="a_node3"><a xlink:href="compression__options__context_8h.html" target="_top" xlink:title=" ">
<polygon fill="white" stroke="black" points="631,-168.5 631,-198.5 790,-198.5 790,-168.5 631,-168.5"/>
<text text-anchor="start" x="639" y="-186.5" font-family="Helvetica,sans-Serif" font-size="10.00">compression_options</text>
<text text-anchor="middle" x="710.5" y="-175.5" font-family="Helvetica,sans-Serif" font-size="10.00">_context.h</text>
</a>
</g>
</g>
<!-- Node1&#45;&gt;Node3 -->
<g id="edge16" class="edge">
<title>Node1&#45;&gt;Node3</title>
<path fill="none" stroke="midnightblue" d="M1332.63,-311.49C1246.73,-311.4 1053.69,-306.26 897.5,-266 836.8,-250.36 770.64,-217.38 735.59,-198.52"/>
<polygon fill="midnightblue" stroke="midnightblue" points="1332.82,-314.99 1342.81,-311.48 1332.81,-307.99 1332.82,-314.99"/>
</g>
<!-- Node4 -->
<g id="node4" class="node">
<title>Node4</title>
<g id="a_node4"><a xlink:href="sqsh_8h.html" target="_top" xlink:title=" ">
<polygon fill="white" stroke="black" points="251.5,-56.5 251.5,-75.5 313.5,-75.5 313.5,-56.5 251.5,-56.5"/>
<text text-anchor="middle" x="282.5" y="-63.5" font-family="Helvetica,sans-Serif" font-size="10.00">sqsh.h</text>
</a>
</g>
</g>
<!-- Node1&#45;&gt;Node4 -->
<g id="edge42" class="edge">
<title>Node1&#45;&gt;Node4</title>
<path fill="none" stroke="midnightblue" d="M1332.52,-310.86C1130.15,-310 312.28,-304.19 274.5,-266 221.74,-212.66 264.17,-106.76 278.33,-75.73"/>
<polygon fill="midnightblue" stroke="midnightblue" points="1332.77,-314.36 1342.78,-310.9 1332.8,-307.36 1332.77,-314.36"/>
</g>
<!-- Node8 -->
<g id="node8" class="node">
<title>Node8</title>
<g id="a_node8"><a xlink:href="metablock__context_8h.html" target="_top" xlink:title=" ">
<polygon fill="white" stroke="black" points="417,-174 417,-193 576,-193 576,-174 417,-174"/>
<text text-anchor="middle" x="496.5" y="-181" font-family="Helvetica,sans-Serif" font-size="10.00">metablock_context.h</text>
</a>
</g>
</g>
<!-- Node1&#45;&gt;Node8 -->
<g id="edge39" class="edge">
<title>Node1&#45;&gt;Node8</title>
<path fill="none" stroke="midnightblue" d="M1332.5,-310.13C1175.56,-306.88 658.23,-294.12 589.5,-266 550.55,-250.07 516.73,-210.76 503.01,-193.21"/>
<polygon fill="midnightblue" stroke="midnightblue" points="1332.67,-313.64 1342.74,-310.34 1332.81,-306.64 1332.67,-313.64"/>
</g>
<!-- Node9 -->
<g id="node9" class="node">
<title>Node9</title>
<g id="a_node9"><a xlink:href="xattr__table_8h.html" target="_top" xlink:title=" ">
<polygon fill="white" stroke="black" points="485.5,-112.5 485.5,-131.5 599.5,-131.5 599.5,-112.5 485.5,-112.5"/>
<text text-anchor="middle" x="542.5" y="-119.5" font-family="Helvetica,sans-Serif" font-size="10.00">xattr_table.h</text>
</a>
</g>
</g>
<!-- Node1&#45;&gt;Node9 -->
<g id="edge47" class="edge">
<title>Node1&#45;&gt;Node9</title>
<path fill="none" stroke="midnightblue" d="M1332.79,-311.43C1236.15,-311.48 1001.06,-306.97 809.5,-266 722.76,-247.45 696.93,-245.68 621.5,-199 605.56,-189.13 567.37,-149.45 550.61,-131.68"/>
<polygon fill="midnightblue" stroke="midnightblue" points="1332.8,-314.93 1342.79,-311.4 1332.78,-307.93 1332.8,-314.93"/>
</g>
<!-- Node11 -->
<g id="node11" class="node">
<title>Node11</title>
<g id="a_node11"><a xlink:href="directory__iterator_8h.html" target="_top" xlink:title=" ">
<polygon fill="white" stroke="black" points="1065,-56.5 1065,-75.5 1232,-75.5 1232,-56.5 1065,-56.5"/>
<text text-anchor="middle" x="1148.5" y="-63.5" font-family="Helvetica,sans-Serif" font-size="10.00">directory_iterator.h</text>
</a>
</g>
</g>
<!-- Node1&#45;&gt;Node11 -->
<g id="edge22" class="edge">
<title>Node1&#45;&gt;Node11</title>
<path fill="none" stroke="midnightblue" d="M1384.4,-292.25C1397.3,-253.55 1420.05,-164.12 1376.5,-112 1358.03,-89.9 1289.27,-78.46 1232.04,-72.65"/>
<polygon fill="midnightblue" stroke="midnightblue" points="1380.94,-291.54 1380.94,-302.14 1387.54,-293.85 1380.94,-291.54"/>
</g>
<!-- Node12 -->
<g id="node12" class="node">
<title>Node12</title>
<g id="a_node12"><a xlink:href="inode__context_8h.html" target="_top" xlink:title=" ">
<polygon fill="white" stroke="black" points="1084,-112.5 1084,-131.5 1213,-131.5 1213,-112.5 1084,-112.5"/>
<text text-anchor="middle" x="1148.5" y="-119.5" font-family="Helvetica,sans-Serif" font-size="10.00">inode_context.h</text>
</a>
</g>
</g>
<!-- Node1&#45;&gt;Node12 -->
<g id="edge28" class="edge">
<title>Node1&#45;&gt;Node12</title>
<path fill="none" stroke="midnightblue" d="M1368.85,-292.88C1351.29,-256.39 1312.21,-176.73 1301.5,-168 1276.5,-147.61 1242.57,-136.46 1213.01,-130.36"/>
<polygon fill="midnightblue" stroke="midnightblue" points="1365.9,-294.82 1373.38,-302.32 1372.21,-291.79 1365.9,-294.82"/>
</g>
<!-- Node13 -->
<g id="node13" class="node">
<title>Node13</title>
<g id="a_node13"><a xlink:href="xattr__iterator_8h.html" target="_top" xlink:title=" ">
<polygon fill="white" stroke="black" points="1231,-112.5 1231,-131.5 1368,-131.5 1368,-112.5 1231,-112.5"/>
<text text-anchor="middle" x="1299.5" y="-119.5" font-family="Helvetica,sans-Serif" font-size="10.00">xattr_iterator.h</text>
</a>
</g>
</g>
<!-- Node1&#45;&gt;Node13 -->
<g id="edge46" class="edge">
<title>Node1&#45;&gt;Node13</title>
<path fill="none" stroke="midnightblue" d="M1374.14,-292.13C1368.62,-263.95 1356.03,-209.71 1334.5,-168 1327.33,-154.1 1315.68,-140.22 1307.81,-131.63"/>
<polygon fill="midnightblue" stroke="midnightblue" points="1370.74,-293.01 1376.02,-302.2 1377.62,-291.72 1370.74,-293.01"/>
</g>
<!-- Node14 -->
<g id="node14" class="node">
<title>Node14</title>
<g id="a_node14"><a xlink:href="compression__options__data_8h.html" target="_top" xlink:title=" ">
<polygon fill="white" stroke="black" points="1424,-235.5 1424,-265.5 1583,-265.5 1583,-235.5 1424,-235.5"/>
<text text-anchor="start" x="1432" y="-253.5" font-family="Helvetica,sans-Serif" font-size="10.00">compression_options</text>
<text text-anchor="middle" x="1503.5" y="-242.5" font-family="Helvetica,sans-Serif" font-size="10.00">_data.h</text>
</a>
</g>
</g>
<!-- Node1&#45;&gt;Node14 -->
<g id="edge17" class="edge">
<title>Node1&#45;&gt;Node14</title>
<path fill="none" stroke="midnightblue" d="M1404.61,-298.2C1424.97,-288.58 1452.84,-275.42 1473.8,-265.52"/>
<polygon fill="midnightblue" stroke="midnightblue" points="1403.1,-295.04 1395.55,-302.48 1406.09,-301.37 1403.1,-295.04"/>
</g>
<!-- Node15 -->
<g id="node15" class="node">
<title>Node15</title>
<g id="a_node15"><a xlink:href="datablock__data_8h.html" target="_top" xlink:title=" ">
<polygon fill="white" stroke="black" points="1639,-241 1639,-260 1776,-260 1776,-241 1639,-241"/>
<text text-anchor="middle" x="1707.5" y="-248" font-family="Helvetica,sans-Serif" font-size="10.00">datablock_data.h</text>
</a>
</g>
</g>
<!-- Node1&#45;&gt;Node15 -->
<g id="edge18" class="edge">
<title>Node1&#45;&gt;Node15</title>
<path fill="none" stroke="midnightblue" d="M1422.1,-302.96C1484.35,-291.73 1596.76,-271.47 1660.34,-260"/>
<polygon fill="midnightblue" stroke="midnightblue" points="1421.41,-299.53 1412.19,-304.74 1422.65,-306.41 1421.41,-299.53"/>
</g>
<!-- Node16 -->
<g id="node16" class="node">
<title>Node16</title>
<g id="a_node16"><a xlink:href="fragment__data_8h.html" target="_top" xlink:title=" ">
<polygon fill="white" stroke="black" points="1595,-174 1595,-193 1724,-193 1724,-174 1595,-174"/>
<text text-anchor="middle" x="1659.5" y="-181" font-family="Helvetica,sans-Serif" font-size="10.00">fragment_data.h</text>
</a>
</g>
</g>
<!-- Node1&#45;&gt;Node16 -->
<g id="edge25" class="edge">
<title>Node1&#45;&gt;Node16</title>
<path fill="none" stroke="midnightblue" d="M1422.43,-310.02C1468.01,-307.17 1539.13,-297.49 1591.5,-266 1622.3,-247.48 1645.63,-209.89 1655,-193.02"/>
<polygon fill="midnightblue" stroke="midnightblue" points="1422.06,-306.53 1412.26,-310.57 1422.44,-313.52 1422.06,-306.53"/>
</g>
<!-- Node17 -->
<g id="node17" class="node">
<title>Node17</title>
<g id="a_node17"><a xlink:href="directory__data_8h.html" target="_top" xlink:title=" ">
<polygon fill="white" stroke="black" points="1794,-241 1794,-260 1931,-260 1931,-241 1794,-241"/>
<text text-anchor="middle" x="1862.5" y="-248" font-family="Helvetica,sans-Serif" font-size="10.00">directory_data.h</text>
</a>
</g>
</g>
<!-- Node1&#45;&gt;Node17 -->
<g id="edge20" class="edge">
<title>Node1&#45;&gt;Node17</title>
<path fill="none" stroke="midnightblue" d="M1422.06,-307.21C1497.22,-300.56 1653.89,-285.62 1785.5,-266 1796.8,-264.32 1808.98,-262.17 1820.24,-260.06"/>
<polygon fill="midnightblue" stroke="midnightblue" points="1421.66,-303.73 1412,-308.09 1422.27,-310.7 1421.66,-303.73"/>
</g>
<!-- Node18 -->
<g id="node18" class="node">
<title>Node18</title>
<g id="a_node18"><a xlink:href="directory__index__iterator_8h.html" target="_top" xlink:title=" ">
<polygon fill="white" stroke="black" points="1949.5,-241 1949.5,-260 2161.5,-260 2161.5,-241 1949.5,-241"/>
<text text-anchor="middle" x="2055.5" y="-248" font-family="Helvetica,sans-Serif" font-size="10.00">directory_index_iterator.h</text>
</a>
</g>
</g>
<!-- Node1&#45;&gt;Node18 -->
<g id="edge21" class="edge">
<title>Node1&#45;&gt;Node18</title>
<path fill="none" stroke="midnightblue" d="M1422.3,-308.12C1517.71,-301.82 1748,-285.82 1940.5,-266 1957.21,-264.28 1975.26,-262.14 1991.99,-260.03"/>
<polygon fill="midnightblue" stroke="midnightblue" points="1421.89,-304.64 1412.15,-308.78 1422.35,-311.62 1421.89,-304.64"/>
</g>
<!-- Node19 -->
<g id="node19" class="node">
<title>Node19</title>
<g id="a_node19"><a xlink:href="error_8h.html" target="_top" xlink:title=" ">
<polygon fill="white" stroke="black" points="0,-112.5 0,-131.5 69,-131.5 69,-112.5 0,-112.5"/>
<text text-anchor="middle" x="34.5" y="-119.5" font-family="Helvetica,sans-Serif" font-size="10.00">error.h</text>
</a>
</g>
</g>
<!-- Node1&#45;&gt;Node19 -->
<g id="edge23" class="edge">
<title>Node1&#45;&gt;Node19</title>
<path fill="none" stroke="midnightblue" d="M1332.85,-310.45C1126.92,-307.77 273.96,-294.97 158.5,-266 92.76,-249.5 57.39,-256.5 21.5,-199 8.18,-177.65 21.43,-146.67 29.42,-131.72"/>
<polygon fill="midnightblue" stroke="midnightblue" points="1332.95,-313.95 1343,-310.58 1333.04,-306.95 1332.95,-313.95"/>
</g>
<!-- Node20 -->
<g id="node20" class="node">
<title>Node20</title>
<g id="a_node20"><a xlink:href="fragment__table_8h.html" target="_top" xlink:title=" ">
<polygon fill="white" stroke="black" points="330,-112.5 330,-131.5 467,-131.5 467,-112.5 330,-112.5"/>
<text text-anchor="middle" x="398.5" y="-119.5" font-family="Helvetica,sans-Serif" font-size="10.00">fragment_table.h</text>
</a>
</g>
</g>
<!-- Node1&#45;&gt;Node20 -->
<g id="edge26" class="edge">
<title>Node1&#45;&gt;Node20</title>
<path fill="none" stroke="midnightblue" d="M1332.31,-311.01C1180.8,-310.64 691.9,-306.31 540.5,-266 476.54,-248.97 445.47,-253.21 407.5,-199 393.17,-178.54 395.03,-147.14 397.03,-131.91"/>
<polygon fill="midnightblue" stroke="midnightblue" points="1332.62,-314.51 1342.62,-311.03 1332.63,-307.51 1332.62,-314.51"/>
</g>
<!-- Node21 -->
<g id="node21" class="node">
<title>Node21</title>
<g id="a_node21"><a xlink:href="inode__data_8h.html" target="_top" xlink:title=" ">
<polygon fill="white" stroke="black" points="2179,-241 2179,-260 2286,-260 2286,-241 2179,-241"/>
<text text-anchor="middle" x="2232.5" y="-248" font-family="Helvetica,sans-Serif" font-size="10.00">inode_data.h</text>
</a>
</g>
</g>
<!-- Node1&#45;&gt;Node21 -->
<g id="edge29" class="edge">
<title>Node1&#45;&gt;Node21</title>
<path fill="none" stroke="midnightblue" d="M1422.11,-311.16C1543.16,-311.03 1887.69,-306.78 2170.5,-266 2180.46,-264.56 2191.17,-262.32 2200.84,-260.02"/>
<polygon fill="midnightblue" stroke="midnightblue" points="1422.11,-307.66 1412.11,-311.17 1422.11,-314.66 1422.11,-307.66"/>
</g>
<!-- Node22 -->
<g id="node22" class="node">
<title>Node22</title>
<g id="a_node22"><a xlink:href="mapper_8h.html" target="_top" xlink:title=" ">
<polygon fill="white" stroke="black" points="284,-241 284,-260 361,-260 361,-241 284,-241"/>
<text text-anchor="middle" x="322.5" y="-248" font-family="Helvetica,sans-Serif" font-size="10.00">mapper.h</text>
</a>
</g>
</g>
<!-- Node1&#45;&gt;Node22 -->
<g id="edge30" class="edge">
<title>Node1&#45;&gt;Node22</title>
<path fill="none" stroke="midnightblue" d="M1332.94,-310.31C1164.12,-307.51 564,-295.64 375.5,-266 366.83,-264.64 357.55,-262.38 349.21,-260.05"/>
<polygon fill="midnightblue" stroke="midnightblue" points="1332.91,-313.81 1342.96,-310.48 1333.02,-306.81 1332.91,-313.81"/>
</g>
<!-- Node23 -->
<g id="node23" class="node">
<title>Node23</title>
<g id="a_node23"><a xlink:href="superblock__context_8h.html" target="_top" xlink:title=" ">
<polygon fill="white" stroke="black" points="31,-174 31,-193 198,-193 198,-174 31,-174"/>
<text text-anchor="middle" x="114.5" y="-181" font-family="Helvetica,sans-Serif" font-size="10.00">superblock_context.h</text>
</a>
</g>
</g>
<!-- Node1&#45;&gt;Node23 -->
<g id="edge43" class="edge">
<title>Node1&#45;&gt;Node23</title>
<path fill="none" stroke="midnightblue" d="M1332.67,-310.98C1131.51,-310.68 317.38,-306.9 211.5,-266 171.08,-250.38 135.43,-210.54 121.14,-193"/>
<polygon fill="midnightblue" stroke="midnightblue" points="1332.87,-314.48 1342.87,-311 1332.88,-307.48 1332.87,-314.48"/>
</g>
<!-- Node25 -->
<g id="node25" class="node">
<title>Node25</title>
<g id="a_node25"><a xlink:href="metablock__data_8h.html" target="_top" xlink:title=" ">
<polygon fill="white" stroke="black" points="2304,-241 2304,-260 2441,-260 2441,-241 2304,-241"/>
<text text-anchor="middle" x="2372.5" y="-248" font-family="Helvetica,sans-Serif" font-size="10.00">metablock_data.h</text>
</a>
</g>
</g>
<!-- Node1&#45;&gt;Node25 -->
<g id="edge40" class="edge">
<title>Node1&#45;&gt;Node25</title>
<path fill="none" stroke="midnightblue" d="M1422.49,-310.97C1556.06,-310.43 1961.85,-305.4 2295.5,-266 2307.66,-264.56 2320.78,-262.35 2332.7,-260.07"/>
<polygon fill="midnightblue" stroke="midnightblue" points="1422.23,-307.48 1412.24,-311.01 1422.25,-314.48 1422.23,-307.48"/>
</g>
<!-- Node26 -->
<g id="node26" class="node">
<title>Node26</title>
<g id="a_node26"><a xlink:href="ref__count_8h.html" target="_top" xlink:title=" ">
<polygon fill="white" stroke="black" points="2459,-241 2459,-260 2558,-260 2558,-241 2459,-241"/>
<text text-anchor="middle" x="2508.5" y="-248" font-family="Helvetica,sans-Serif" font-size="10.00">ref_count.h</text>
</a>
</g>
</g>
<!-- Node1&#45;&gt;Node26 -->
<g id="edge41" class="edge">
<title>Node1&#45;&gt;Node26</title>
<path fill="none" stroke="midnightblue" d="M1422.25,-310.33C1598.78,-307.52 2247.17,-295.37 2450.5,-266 2459.95,-264.63 2470.1,-262.38 2479.22,-260.05"/>
<polygon fill="midnightblue" stroke="midnightblue" points="1421.97,-306.84 1412.03,-310.5 1422.08,-313.84 1421.97,-306.84"/>
</g>
<!-- Node27 -->
<g id="node27" class="node">
<title>Node27</title>
<g id="a_node27"><a xlink:href="superblock__data_8h.html" target="_top" xlink:title=" ">
<polygon fill="white" stroke="black" points="2576.5,-241 2576.5,-260 2720.5,-260 2720.5,-241 2576.5,-241"/>
<text text-anchor="middle" x="2648.5" y="-248" font-family="Helvetica,sans-Serif" font-size="10.00">superblock_data.h</text>
</a>
</g>
</g>
<!-- Node1&#45;&gt;Node27 -->
<g id="edge44" class="edge">
<title>Node1&#45;&gt;Node27</title>
<path fill="none" stroke="midnightblue" d="M1422.38,-310.14C1610.85,-306.4 2339.16,-290.63 2567.5,-266 2580.43,-264.61 2594.4,-262.37 2607.04,-260.07"/>
<polygon fill="midnightblue" stroke="midnightblue" points="1422.2,-306.64 1412.27,-310.34 1422.34,-313.64 1422.2,-306.64"/>
</g>
<!-- Node28 -->
<g id="node28" class="node">
<title>Node28</title>
<g id="a_node28"><a xlink:href="xattr__data_8h.html" target="_top" xlink:title=" ">
<polygon fill="white" stroke="black" points="2739,-241 2739,-260 2846,-260 2846,-241 2739,-241"/>
<text text-anchor="middle" x="2792.5" y="-248" font-family="Helvetica,sans-Serif" font-size="10.00">xattr_data.h</text>
</a>
</g>
</g>
<!-- Node1&#45;&gt;Node28 -->
<g id="edge45" class="edge">
<title>Node1&#45;&gt;Node28</title>
<path fill="none" stroke="midnightblue" d="M1422.07,-310.67C1625.63,-309 2468.13,-300.1 2729.5,-266 2739.85,-264.65 2750.99,-262.37 2760.99,-260.01"/>
<polygon fill="midnightblue" stroke="midnightblue" points="1422.01,-307.17 1412.04,-310.75 1422.07,-314.17 1422.01,-307.17"/>
</g>
<!-- Node2&#45;&gt;Node3 -->
<g id="edge2" class="edge">
<title>Node2&#45;&gt;Node3</title>
<path fill="none" stroke="midnightblue" d="M904.64,-238.2C864.8,-227.18 804.12,-210.39 761.22,-198.53"/>
<polygon fill="midnightblue" stroke="midnightblue" points="903.72,-241.58 914.29,-240.87 905.59,-234.83 903.72,-241.58"/>
</g>
<!-- Node6 -->
<g id="node6" class="node">
<title>Node6</title>
<g id="a_node6"><a xlink:href="curl__mapper_8h.html" target="_top" xlink:title=" ">
<polygon fill="white" stroke="black" points="808.5,-174 808.5,-193 922.5,-193 922.5,-174 808.5,-174"/>
<text text-anchor="middle" x="865.5" y="-181" font-family="Helvetica,sans-Serif" font-size="10.00">curl_mapper.h</text>
</a>
</g>
</g>
<!-- Node2&#45;&gt;Node6 -->
<g id="edge5" class="edge">
<title>Node2&#45;&gt;Node6</title>
<path fill="none" stroke="midnightblue" d="M926.69,-234.21C910.92,-221.41 888.99,-203.59 876.12,-193.13"/>
<polygon fill="midnightblue" stroke="midnightblue" points="924.74,-237.14 934.71,-240.73 929.16,-231.71 924.74,-237.14"/>
</g>
<!-- Node7 -->
<g id="node7" class="node">
<title>Node7</title>
<g id="a_node7"><a xlink:href="file__context_8h.html" target="_top" xlink:title=" ">
<polygon fill="white" stroke="black" points="940.5,-174 940.5,-193 1062.5,-193 1062.5,-174 940.5,-174"/>
<text text-anchor="middle" x="1001.5" y="-181" font-family="Helvetica,sans-Serif" font-size="10.00">file_context.h</text>
</a>
</g>
</g>
<!-- Node2&#45;&gt;Node7 -->
<g id="edge6" class="edge">
<title>Node2&#45;&gt;Node7</title>
<path fill="none" stroke="midnightblue" d="M959.6,-233.13C970.55,-220.42 985.3,-203.3 994.07,-193.13"/>
<polygon fill="midnightblue" stroke="midnightblue" points="956.93,-230.87 953.05,-240.73 962.23,-235.44 956.93,-230.87"/>
</g>
<!-- Node2&#45;&gt;Node8 -->
<g id="edge7" class="edge">
<title>Node2&#45;&gt;Node8</title>
<path fill="none" stroke="midnightblue" d="M896.9,-242.47C813.91,-230.45 645.15,-206.02 555.52,-193.04"/>
<polygon fill="midnightblue" stroke="midnightblue" points="896.43,-245.93 906.83,-243.9 897.43,-239.01 896.43,-245.93"/>
</g>
<!-- Node10 -->
<g id="node10" class="node">
<title>Node10</title>
<g id="a_node10"><a xlink:href="metablock__stream__context_8h.html" target="_top" xlink:title=" ">
<polygon fill="white" stroke="black" points="1080.5,-174 1080.5,-193 1292.5,-193 1292.5,-174 1080.5,-174"/>
<text text-anchor="middle" x="1186.5" y="-181" font-family="Helvetica,sans-Serif" font-size="10.00">metablock_stream_context.h</text>
</a>
</g>
</g>
<!-- Node2&#45;&gt;Node10 -->
<g id="edge10" class="edge">
<title>Node2&#45;&gt;Node10</title>
<path fill="none" stroke="midnightblue" d="M987.2,-238.25C1034.84,-225.41 1111.73,-204.67 1154.75,-193.06"/>
<polygon fill="midnightblue" stroke="midnightblue" points="986.25,-234.89 977.5,-240.87 988.07,-241.64 986.25,-234.89"/>
</g>
<!-- Node3&#45;&gt;Node4 -->
<g id="edge3" class="edge">
<title>Node3&#45;&gt;Node4</title>
<path fill="none" stroke="midnightblue" d="M687.51,-161.86C667.94,-145.53 638.34,-123.61 608.5,-112 506,-72.13 373.32,-66.78 313.8,-66.57"/>
<polygon fill="midnightblue" stroke="midnightblue" points="685.37,-164.64 695.25,-168.47 689.92,-159.31 685.37,-164.64"/>
</g>
<!-- Node5 -->
<g id="node5" class="node">
<title>Node5</title>
<g id="a_node5"><a xlink:href="bin_2common_8h.html" target="_top" xlink:title=" ">
<polygon fill="white" stroke="black" points="244,-0.5 244,-19.5 321,-19.5 321,-0.5 244,-0.5"/>
<text text-anchor="middle" x="282.5" y="-7.5" font-family="Helvetica,sans-Serif" font-size="10.00">common.h</text>
</a>
</g>
</g>
<!-- Node4&#45;&gt;Node5 -->
<g id="edge4" class="edge">
<title>Node4&#45;&gt;Node5</title>
<path fill="none" stroke="midnightblue" d="M282.5,-45.8C282.5,-36.91 282.5,-26.78 282.5,-19.75"/>
<polygon fill="midnightblue" stroke="midnightblue" points="279,-46.08 282.5,-56.08 286,-46.08 279,-46.08"/>
</g>
<!-- Node8&#45;&gt;Node9 -->
<g id="edge8" class="edge">
<title>Node8&#45;&gt;Node9</title>
<path fill="none" stroke="midnightblue" d="M509.38,-165.84C518.02,-154.67 529.03,-140.43 535.92,-131.51"/>
<polygon fill="midnightblue" stroke="midnightblue" points="506.44,-163.92 503.09,-173.98 511.98,-168.2 506.44,-163.92"/>
</g>
<!-- Node9&#45;&gt;Node4 -->
<g id="edge9" class="edge">
<title>Node9&#45;&gt;Node4</title>
<path fill="none" stroke="midnightblue" d="M491.45,-110.4C438.61,-99.42 357.74,-82.63 313.71,-73.48"/>
<polygon fill="midnightblue" stroke="midnightblue" points="490.8,-113.84 501.3,-112.44 492.22,-106.98 490.8,-113.84"/>
</g>
<!-- Node10&#45;&gt;Node9 -->
<g id="edge15" class="edge">
<title>Node10&#45;&gt;Node9</title>
<path fill="none" stroke="midnightblue" d="M1112.4,-172.71C1098.81,-171.04 1084.74,-169.4 1071.5,-168 900.09,-149.91 696.83,-134.24 599.72,-127.1"/>
<polygon fill="midnightblue" stroke="midnightblue" points="1112.33,-176.23 1122.68,-173.99 1113.19,-169.28 1112.33,-176.23"/>
</g>
<!-- Node10&#45;&gt;Node11 -->
<g id="edge11" class="edge">
<title>Node10&#45;&gt;Node11</title>
<path fill="none" stroke="midnightblue" d="M1130.25,-170.86C1109.05,-163.45 1087.05,-151.42 1074.5,-132 1058.63,-107.44 1096.98,-86.69 1124.2,-75.62"/>
<polygon fill="midnightblue" stroke="midnightblue" points="1129.31,-174.24 1139.9,-173.96 1131.44,-167.57 1129.31,-174.24"/>
</g>
<!-- Node10&#45;&gt;Node12 -->
<g id="edge12" class="edge">
<title>Node10&#45;&gt;Node12</title>
<path fill="none" stroke="midnightblue" d="M1175.65,-165.51C1168.55,-154.39 1159.57,-140.34 1153.93,-131.51"/>
<polygon fill="midnightblue" stroke="midnightblue" points="1172.72,-167.43 1181.06,-173.98 1178.62,-163.66 1172.72,-167.43"/>
</g>
<!-- Node10&#45;&gt;Node13 -->
<g id="edge14" class="edge">
<title>Node10&#45;&gt;Node13</title>
<path fill="none" stroke="midnightblue" d="M1211.74,-169.21C1233.62,-157.69 1264.64,-141.36 1283.34,-131.51"/>
<polygon fill="midnightblue" stroke="midnightblue" points="1209.91,-166.22 1202.69,-173.98 1213.17,-172.41 1209.91,-166.22"/>
</g>
<!-- Node12&#45;&gt;Node11 -->
<g id="edge13" class="edge">
<title>Node12&#45;&gt;Node11</title>
<path fill="none" stroke="midnightblue" d="M1148.5,-101.8C1148.5,-92.91 1148.5,-82.78 1148.5,-75.75"/>
<polygon fill="midnightblue" stroke="midnightblue" points="1145,-102.08 1148.5,-112.08 1152,-102.08 1145,-102.08"/>
</g>
<!-- Node15&#45;&gt;Node16 -->
<g id="edge19" class="edge">
<title>Node15&#45;&gt;Node16</title>
<path fill="none" stroke="midnightblue" d="M1694.88,-232.4C1685.55,-219.77 1673.24,-203.1 1665.87,-193.13"/>
<polygon fill="midnightblue" stroke="midnightblue" points="1692.27,-234.77 1701.03,-240.73 1697.9,-230.61 1692.27,-234.77"/>
</g>
<!-- Node19&#45;&gt;Node4 -->
<g id="edge24" class="edge">
<title>Node19&#45;&gt;Node4</title>
<path fill="none" stroke="midnightblue" d="M79.06,-111.3C128.68,-100.49 207.6,-83.31 251.12,-73.83"/>
<polygon fill="midnightblue" stroke="midnightblue" points="78.27,-107.89 69.24,-113.43 79.76,-114.73 78.27,-107.89"/>
</g>
<!-- Node20&#45;&gt;Node4 -->
<g id="edge27" class="edge">
<title>Node20&#45;&gt;Node4</title>
<path fill="none" stroke="midnightblue" d="M370.78,-108.1C349.11,-98.01 319.6,-84.27 300.79,-75.52"/>
<polygon fill="midnightblue" stroke="midnightblue" points="369.58,-111.4 380.12,-112.44 372.53,-105.05 369.58,-111.4"/>
</g>
<!-- Node22&#45;&gt;Node4 -->
<g id="edge32" class="edge">
<title>Node22&#45;&gt;Node4</title>
<path fill="none" stroke="midnightblue" d="M305.47,-233.8C296.79,-224.61 287.11,-212.23 282.5,-199 267.13,-154.85 276.26,-97.24 280.6,-75.66"/>
<polygon fill="midnightblue" stroke="midnightblue" points="303.14,-236.42 312.69,-241 308.08,-231.46 303.14,-236.42"/>
</g>
<!-- Node22&#45;&gt;Node8 -->
<g id="edge31" class="edge">
<title>Node22&#45;&gt;Node8</title>
<path fill="none" stroke="midnightblue" d="M355.24,-237.27C389.77,-224.37 443.29,-204.38 473.58,-193.06"/>
<polygon fill="midnightblue" stroke="midnightblue" points="353.75,-234.09 345.61,-240.87 356.2,-240.65 353.75,-234.09"/>
</g>
<!-- Node22&#45;&gt;Node23 -->
<g id="edge33" class="edge">
<title>Node22&#45;&gt;Node23</title>
<path fill="none" stroke="midnightblue" d="M285.21,-237.85C244.01,-224.97 178.65,-204.55 141.9,-193.06"/>
<polygon fill="midnightblue" stroke="midnightblue" points="284.29,-241.23 294.88,-240.87 286.38,-234.55 284.29,-241.23"/>
</g>
<!-- Node24 -->
<g id="node24" class="node">
<title>Node24</title>
<g id="a_node24"><a xlink:href="table_8h.html" target="_top" xlink:title=" ">
<polygon fill="white" stroke="black" points="292,-174 292,-193 361,-193 361,-174 292,-174"/>
<text text-anchor="middle" x="326.5" y="-181" font-family="Helvetica,sans-Serif" font-size="10.00">table.h</text>
</a>
</g>
</g>
<!-- Node22&#45;&gt;Node24 -->
<g id="edge35" class="edge">
<title>Node22&#45;&gt;Node24</title>
<path fill="none" stroke="midnightblue" d="M323.67,-230.54C324.43,-218.17 325.38,-202.62 325.97,-193.13"/>
<polygon fill="midnightblue" stroke="midnightblue" points="320.16,-230.54 323.04,-240.73 327.15,-230.97 320.16,-230.54"/>
</g>
<!-- Node23&#45;&gt;Node4 -->
<g id="edge34" class="edge">
<title>Node23&#45;&gt;Node4</title>
<path fill="none" stroke="midnightblue" d="M134.04,-167.73C153.45,-153.2 184.17,-130.56 211.5,-112 230.94,-98.8 254.01,-84.4 268.45,-75.54"/>
<polygon fill="midnightblue" stroke="midnightblue" points="131.87,-164.99 125.98,-173.79 136.07,-170.59 131.87,-164.99"/>
</g>
<!-- Node24&#45;&gt;Node4 -->
<g id="edge37" class="edge">
<title>Node24&#45;&gt;Node4</title>
<path fill="none" stroke="midnightblue" d="M319.58,-164.34C309.99,-139.16 293.02,-94.6 285.85,-75.78"/>
<polygon fill="midnightblue" stroke="midnightblue" points="316.36,-165.72 323.19,-173.82 322.9,-163.23 316.36,-165.72"/>
</g>
<!-- Node24&#45;&gt;Node9 -->
<g id="edge38" class="edge">
<title>Node24&#45;&gt;Node9</title>
<path fill="none" stroke="midnightblue" d="M367.34,-171.25C409.31,-159.69 473.7,-141.95 511.61,-131.51"/>
<polygon fill="midnightblue" stroke="midnightblue" points="366.16,-167.94 357.45,-173.98 368.02,-174.69 366.16,-167.94"/>
</g>
<!-- Node24&#45;&gt;Node20 -->
<g id="edge36" class="edge">
<title>Node24&#45;&gt;Node20</title>
<path fill="none" stroke="midnightblue" d="M344.68,-167.47C358.46,-156.09 376.88,-140.87 388.2,-131.51"/>
<polygon fill="midnightblue" stroke="midnightblue" points="342.29,-164.91 336.82,-173.98 346.75,-170.3 342.29,-164.91"/>
</g>
</g>
</svg>
