<?xml version="1.0" encoding="UTF-8" standalone="no"?>
<!DOCTYPE svg PUBLIC "-//W3C//DTD SVG 1.1//EN"
 "http://www.w3.org/Graphics/SVG/1.1/DTD/svg11.dtd">
<!-- Generated by graphviz version 3.0.0 (20220413.0242)
 -->
<!-- Title: xattr_table.h Pages: 1 -->
<!--zoomable 263 -->
<svg id="main" version="1.1" xmlns="http://www.w3.org/2000/svg" xmlns:xlink="http://www.w3.org/1999/xlink" xml:space="preserve" onload="init(evt)">
<style type="text/css"><![CDATA[
.edge:hover path { stroke: red; }
.edge:hover polygon { stroke: red; fill: red; }
]]></style>
<script type="text/javascript"><![CDATA[
var edges = document.getElementsByTagName('g');
if (edges && edges.length) {
  for (var i=0;i<edges.length;i++) {
    if (edges[i].id.substr(0,4)=='edge') {
      edges[i].setAttribute('class','edge');
    }
  }
}
]]></script>
        <defs>
                <circle id="rim" cx="0" cy="0" r="7"/>
                <circle id="rim2" cx="0" cy="0" r="3.5"/>
                <g id="zoomPlus">
                        <use xlink:href="#rim" fill="#404040">
                                <set attributeName="fill" to="#808080" begin="zoomplus.mouseover" end="zoomplus.mouseout"/>
                        </use>
                        <path d="M-4,0h8M0,-4v8" fill="none" stroke="white" stroke-width="1.5" pointer-events="none"/>
                </g>
                <g id="zoomMin">
                        <use xlink:href="#rim" fill="#404040">
                                <set attributeName="fill" to="#808080" begin="zoomminus.mouseover" end="zoomminus.mouseout"/>
                        </use>
                        <path d="M-4,0h8" fill="none" stroke="white" stroke-width="1.5" pointer-events="none"/>
                </g>
                <g id="dirArrow">
                        <path fill="none" stroke="white" stroke-width="1.5" d="M0,-3.0v7 M-2.5,-0.5L0,-3.0L2.5,-0.5"/>
                </g>
               <g id="resetDef">
                       <use xlink:href="#rim2" fill="#404040">
                               <set attributeName="fill" to="#808080" begin="reset.mouseover" end="reset.mouseout"/>
                       </use>
               </g>
        </defs>

<script type="text/javascript">
var viewWidth = 1066;
var viewHeight = 263;
var sectionId = 'dynsection-0';
</script>
<script xlink:href="svgpan.js"/>
<svg id="graph" class="graph">
<g id="viewport">
<title>xattr_table.h</title>
<polygon fill="white" stroke="transparent" points="-4,4 -4,-259 1062.35,-259 1062.35,4 -4,4"/>
<!-- Node1 -->
<g id="node1" class="node">
<title>Node1</title>
<g id="a_node1"><a xlink:title=" ">
<polygon fill="#bfbfbf" stroke="black" points="673.35,-235.5 673.35,-254.5 787.35,-254.5 787.35,-235.5 673.35,-235.5"/>
<text text-anchor="middle" x="730.35" y="-242.5" font-family="Helvetica,sans-Serif" font-size="10.00">xattr_table.h</text>
</a>
</g>
</g>
<!-- Node2 -->
<g id="node2" class="node">
<title>Node2</title>
<g id="a_node2"><a xlink:href="metablock__context_8h.html" target="_top" xlink:title=" ">
<polygon fill="white" stroke="black" points="702.85,-168.5 702.85,-198.5 869.85,-198.5 869.85,-168.5 702.85,-168.5"/>
<text text-anchor="start" x="710.85" y="-186.5" font-family="Helvetica,sans-Serif" font-size="10.00">../context/metablock</text>
<text text-anchor="middle" x="786.35" y="-175.5" font-family="Helvetica,sans-Serif" font-size="10.00">_context.h</text>
</a>
</g>
</g>
<!-- Node1&#45;&gt;Node2 -->
<g id="edge1" class="edge">
<title>Node1&#45;&gt;Node2</title>
<path fill="none" stroke="midnightblue" d="M738.38,-235.48C745.61,-227.79 756.54,-216.17 766.15,-205.96"/>
<polygon fill="midnightblue" stroke="midnightblue" points="768.85,-208.2 773.15,-198.52 763.75,-203.41 768.85,-208.2"/>
</g>
<!-- Node7 -->
<g id="node7" class="node">
<title>Node7</title>
<g id="a_node7"><a xlink:href="utils_8h.html" target="_top" xlink:title=" ">
<polygon fill="white" stroke="black" points="736.35,-56.5 736.35,-75.5 828.35,-75.5 828.35,-56.5 736.35,-56.5"/>
<text text-anchor="middle" x="782.35" y="-63.5" font-family="Helvetica,sans-Serif" font-size="10.00">../utils.h</text>
</a>
</g>
</g>
<!-- Node1&#45;&gt;Node7 -->
<g id="edge28" class="edge">
<title>Node1&#45;&gt;Node7</title>
<path fill="none" stroke="midnightblue" d="M720.19,-235.19C711.44,-226.87 699.45,-213.54 694.35,-199 689.79,-186 689.52,-180.9 694.35,-168 707.96,-131.66 741.21,-99.79 762.72,-81.99"/>
<polygon fill="midnightblue" stroke="midnightblue" points="764.99,-84.66 770.59,-75.67 760.6,-79.21 764.99,-84.66"/>
</g>
<!-- Node14 -->
<g id="node14" class="node">
<title>Node14</title>
<g id="a_node14"><a xlink:href="metablock__stream__context_8h.html" target="_top" xlink:title=" ">
<polygon fill="white" stroke="black" points="887.85,-168.5 887.85,-198.5 1054.85,-198.5 1054.85,-168.5 887.85,-168.5"/>
<text text-anchor="start" x="895.85" y="-186.5" font-family="Helvetica,sans-Serif" font-size="10.00">../context/metablock</text>
<text text-anchor="middle" x="971.35" y="-175.5" font-family="Helvetica,sans-Serif" font-size="10.00">_stream_context.h</text>
</a>
</g>
</g>
<!-- Node1&#45;&gt;Node14 -->
<g id="edge26" class="edge">
<title>Node1&#45;&gt;Node14</title>
<path fill="none" stroke="midnightblue" d="M764.88,-235.48C801.26,-226.49 859.45,-212.13 904.79,-200.93"/>
<polygon fill="midnightblue" stroke="midnightblue" points="905.68,-204.32 914.55,-198.52 904.01,-197.52 905.68,-204.32"/>
</g>
<!-- Node15 -->
<g id="node15" class="node">
<title>Node15</title>
<g id="a_node15"><a xlink:href="table_8h.html" target="_top" xlink:title=" ">
<polygon fill="white" stroke="black" points="557.85,-174 557.85,-193 626.85,-193 626.85,-174 557.85,-174"/>
<text text-anchor="middle" x="592.35" y="-181" font-family="Helvetica,sans-Serif" font-size="10.00">table.h</text>
</a>
</g>
</g>
<!-- Node1&#45;&gt;Node15 -->
<g id="edge29" class="edge">
<title>Node1&#45;&gt;Node15</title>
<path fill="none" stroke="midnightblue" d="M710.58,-235.48C687.22,-225.4 648.14,-208.55 621.35,-197"/>
<polygon fill="midnightblue" stroke="midnightblue" points="622.66,-193.75 612.09,-193.01 619.89,-200.18 622.66,-193.75"/>
</g>
<!-- Node3 -->
<g id="node3" class="node">
<title>Node3</title>
<g id="a_node3"><a xlink:href="mapper_8h.html" target="_top" xlink:title=" ">
<polygon fill="white" stroke="black" points="451.35,-112.5 451.35,-131.5 603.35,-131.5 603.35,-112.5 451.35,-112.5"/>
<text text-anchor="middle" x="527.35" y="-119.5" font-family="Helvetica,sans-Serif" font-size="10.00">../mapper/mapper.h</text>
</a>
</g>
</g>
<!-- Node2&#45;&gt;Node3 -->
<g id="edge2" class="edge">
<title>Node2&#45;&gt;Node3</title>
<path fill="none" stroke="midnightblue" d="M725.3,-168.47C679.06,-157.85 616.47,-143.47 574.15,-133.75"/>
<polygon fill="midnightblue" stroke="midnightblue" points="574.91,-130.33 564.38,-131.51 573.34,-137.16 574.91,-130.33"/>
</g>
<!-- Node5 -->
<g id="node5" class="node">
<title>Node5</title>
<g id="a_node5"><a xlink:title=" ">
<polygon fill="white" stroke="#bfbfbf" points="584.85,-0.5 584.85,-19.5 661.85,-19.5 661.85,-0.5 584.85,-0.5"/>
<text text-anchor="middle" x="623.35" y="-7.5" font-family="Helvetica,sans-Serif" font-size="10.00">stdint.h</text>
</a>
</g>
</g>
<!-- Node2&#45;&gt;Node5 -->
<g id="edge25" class="edge">
<title>Node2&#45;&gt;Node5</title>
<path fill="none" stroke="midnightblue" d="M800.8,-168.18C824.32,-143.14 865.56,-90.75 837.35,-56 816.97,-30.89 728.91,-19.27 672.3,-14.31"/>
<polygon fill="midnightblue" stroke="midnightblue" points="672.38,-10.8 662.12,-13.45 671.79,-17.78 672.38,-10.8"/>
</g>
<!-- Node2&#45;&gt;Node7 -->
<g id="edge24" class="edge">
<title>Node2&#45;&gt;Node7</title>
<path fill="none" stroke="midnightblue" d="M785.86,-168.34C785.15,-147.62 783.81,-109.02 783.01,-85.9"/>
<polygon fill="midnightblue" stroke="midnightblue" points="786.5,-85.54 782.65,-75.67 779.5,-85.78 786.5,-85.54"/>
</g>
<!-- Node12 -->
<g id="node12" class="node">
<title>Node12</title>
<g id="a_node12"><a xlink:href="buffer_8h.html" target="_top" xlink:title=" ">
<polygon fill="white" stroke="black" points="884.35,-112.5 884.35,-131.5 1058.35,-131.5 1058.35,-112.5 884.35,-112.5"/>
<text text-anchor="middle" x="971.35" y="-119.5" font-family="Helvetica,sans-Serif" font-size="10.00">../primitive/buffer.h</text>
</a>
</g>
</g>
<!-- Node2&#45;&gt;Node12 -->
<g id="edge21" class="edge">
<title>Node2&#45;&gt;Node12</title>
<path fill="none" stroke="midnightblue" d="M830.2,-168.4C862.16,-158.12 904.97,-144.35 935.03,-134.68"/>
<polygon fill="midnightblue" stroke="midnightblue" points="936.26,-137.96 944.7,-131.57 934.11,-131.3 936.26,-137.96"/>
</g>
<!-- Node4 -->
<g id="node4" class="node">
<title>Node4</title>
<g id="a_node4"><a xlink:title=" ">
<polygon fill="white" stroke="#bfbfbf" points="327.85,-0.5 327.85,-19.5 404.85,-19.5 404.85,-0.5 327.85,-0.5"/>
<text text-anchor="middle" x="366.35" y="-7.5" font-family="Helvetica,sans-Serif" font-size="10.00">stddef.h</text>
</a>
</g>
</g>
<!-- Node3&#45;&gt;Node4 -->
<g id="edge3" class="edge">
<title>Node3&#45;&gt;Node4</title>
<path fill="none" stroke="midnightblue" d="M451.33,-120C313.74,-117.4 34.87,-108.17 5.35,-76 -37.92,-28.84 209.35,-15.66 317.56,-12.18"/>
<polygon fill="midnightblue" stroke="midnightblue" points="317.69,-15.68 327.58,-11.87 317.48,-8.68 317.69,-15.68"/>
</g>
<!-- Node3&#45;&gt;Node5 -->
<g id="edge4" class="edge">
<title>Node3&#45;&gt;Node5</title>
<path fill="none" stroke="midnightblue" d="M585.09,-112.46C626.28,-105.05 676.55,-92.85 689.35,-76 704.39,-56.22 677.24,-36.64 653.35,-24.22"/>
<polygon fill="midnightblue" stroke="midnightblue" points="654.63,-20.95 644.11,-19.67 651.53,-27.23 654.63,-20.95"/>
</g>
<!-- Node6 -->
<g id="node6" class="node">
<title>Node6</title>
<g id="a_node6"><a xlink:title=" ">
<polygon fill="white" stroke="#bfbfbf" points="331.85,-56.5 331.85,-75.5 400.85,-75.5 400.85,-56.5 331.85,-56.5"/>
<text text-anchor="middle" x="366.35" y="-63.5" font-family="Helvetica,sans-Serif" font-size="10.00">stdio.h</text>
</a>
</g>
</g>
<!-- Node3&#45;&gt;Node6 -->
<g id="edge5" class="edge">
<title>Node3&#45;&gt;Node6</title>
<path fill="none" stroke="midnightblue" d="M501.84,-112.44C474.76,-103.36 431.76,-88.94 401.48,-78.78"/>
<polygon fill="midnightblue" stroke="midnightblue" points="402.34,-75.38 391.74,-75.52 400.11,-82.01 402.34,-75.38"/>
</g>
<!-- Node3&#45;&gt;Node7 -->
<g id="edge6" class="edge">
<title>Node3&#45;&gt;Node7</title>
<path fill="none" stroke="midnightblue" d="M567.76,-112.44C612.34,-103 684.12,-87.8 732.24,-77.61"/>
<polygon fill="midnightblue" stroke="midnightblue" points="733.08,-81.01 742.14,-75.52 731.63,-74.16 733.08,-81.01"/>
</g>
<!-- Node8 -->
<g id="node8" class="node">
<title>Node8</title>
<g id="a_node8"><a xlink:href="canary__mapper_8h.html" target="_top" xlink:title=" ">
<polygon fill="white" stroke="black" points="184.85,-56.5 184.85,-75.5 313.85,-75.5 313.85,-56.5 184.85,-56.5"/>
<text text-anchor="middle" x="249.35" y="-63.5" font-family="Helvetica,sans-Serif" font-size="10.00">canary_mapper.h</text>
</a>
</g>
</g>
<!-- Node3&#45;&gt;Node8 -->
<g id="edge9" class="edge">
<title>Node3&#45;&gt;Node8</title>
<path fill="none" stroke="midnightblue" d="M483.3,-112.44C434.5,-102.96 355.79,-87.67 303.32,-77.48"/>
<polygon fill="midnightblue" stroke="midnightblue" points="303.68,-73.99 293.2,-75.52 302.35,-80.86 303.68,-73.99"/>
</g>
<!-- Node9 -->
<g id="node9" class="node">
<title>Node9</title>
<g id="a_node9"><a xlink:href="mmap__full__mapper_8h.html" target="_top" xlink:title=" ">
<polygon fill="white" stroke="black" points="14.35,-56.5 14.35,-75.5 166.35,-75.5 166.35,-56.5 14.35,-56.5"/>
<text text-anchor="middle" x="90.35" y="-63.5" font-family="Helvetica,sans-Serif" font-size="10.00">mmap_full_mapper.h</text>
</a>
</g>
</g>
<!-- Node3&#45;&gt;Node9 -->
<g id="edge12" class="edge">
<title>Node3&#45;&gt;Node9</title>
<path fill="none" stroke="midnightblue" d="M458.11,-112.44C379.56,-102.74 251.71,-86.94 169.34,-76.76"/>
<polygon fill="midnightblue" stroke="midnightblue" points="169.63,-73.27 159.27,-75.52 168.77,-80.22 169.63,-73.27"/>
</g>
<!-- Node10 -->
<g id="node10" class="node">
<title>Node10</title>
<g id="a_node10"><a xlink:href="mmap__mapper_8h.html" target="_top" xlink:title=" ">
<polygon fill="white" stroke="black" points="566.35,-56.5 566.35,-75.5 680.35,-75.5 680.35,-56.5 566.35,-56.5"/>
<text text-anchor="middle" x="623.35" y="-63.5" font-family="Helvetica,sans-Serif" font-size="10.00">mmap_mapper.h</text>
</a>
</g>
</g>
<!-- Node3&#45;&gt;Node10 -->
<g id="edge15" class="edge">
<title>Node3&#45;&gt;Node10</title>
<path fill="none" stroke="midnightblue" d="M542.78,-112.32C557.89,-103.82 581.17,-90.73 598.82,-80.8"/>
<polygon fill="midnightblue" stroke="midnightblue" points="600.97,-83.61 607.97,-75.65 597.54,-77.51 600.97,-83.61"/>
</g>
<!-- Node11 -->
<g id="node11" class="node">
<title>Node11</title>
<g id="a_node11"><a xlink:href="static__mapper_8h.html" target="_top" xlink:title=" ">
<polygon fill="white" stroke="black" points="418.85,-56.5 418.85,-75.5 547.85,-75.5 547.85,-56.5 418.85,-56.5"/>
<text text-anchor="middle" x="483.35" y="-63.5" font-family="Helvetica,sans-Serif" font-size="10.00">static_mapper.h</text>
</a>
</g>
</g>
<!-- Node3&#45;&gt;Node11 -->
<g id="edge18" class="edge">
<title>Node3&#45;&gt;Node11</title>
<path fill="none" stroke="midnightblue" d="M520.09,-112.08C513.81,-104.38 504.57,-93.03 496.92,-83.65"/>
<polygon fill="midnightblue" stroke="midnightblue" points="499.51,-81.29 490.48,-75.75 494.09,-85.71 499.51,-81.29"/>
</g>
<!-- Node7&#45;&gt;Node4 -->
<g id="edge7" class="edge">
<title>Node7&#45;&gt;Node4</title>
<path fill="none" stroke="midnightblue" d="M736.24,-59.01C657.02,-48.73 495.81,-27.8 414.93,-17.31"/>
<polygon fill="midnightblue" stroke="midnightblue" points="415.37,-13.83 405,-16.02 414.47,-20.78 415.37,-13.83"/>
</g>
<!-- Node7&#45;&gt;Node5 -->
<g id="edge8" class="edge">
<title>Node7&#45;&gt;Node5</title>
<path fill="none" stroke="midnightblue" d="M757.16,-56.44C730.41,-47.36 687.95,-32.94 658.05,-22.78"/>
<polygon fill="midnightblue" stroke="midnightblue" points="659.02,-19.42 648.43,-19.52 656.77,-26.05 659.02,-19.42"/>
</g>
<!-- Node8&#45;&gt;Node4 -->
<g id="edge10" class="edge">
<title>Node8&#45;&gt;Node4</title>
<path fill="none" stroke="midnightblue" d="M267.89,-56.44C286.98,-47.64 316.93,-33.81 338.79,-23.72"/>
<polygon fill="midnightblue" stroke="midnightblue" points="340.29,-26.88 347.9,-19.52 337.35,-20.53 340.29,-26.88"/>
</g>
<!-- Node8&#45;&gt;Node5 -->
<g id="edge11" class="edge">
<title>Node8&#45;&gt;Node5</title>
<path fill="none" stroke="midnightblue" d="M308.61,-56.44C382.18,-45.82 506.27,-27.91 574.59,-18.04"/>
<polygon fill="midnightblue" stroke="midnightblue" points="575.26,-21.48 584.66,-16.59 574.26,-14.55 575.26,-21.48"/>
</g>
<!-- Node9&#45;&gt;Node4 -->
<g id="edge13" class="edge">
<title>Node9&#45;&gt;Node4</title>
<path fill="none" stroke="midnightblue" d="M134.09,-56.44C184.1,-46.66 265.77,-30.68 317.74,-20.51"/>
<polygon fill="midnightblue" stroke="midnightblue" points="318.58,-23.91 327.72,-18.56 317.24,-17.04 318.58,-23.91"/>
</g>
<!-- Node9&#45;&gt;Node5 -->
<g id="edge14" class="edge">
<title>Node9&#45;&gt;Node5</title>
<path fill="none" stroke="midnightblue" d="M166.81,-56.89C169.69,-56.59 172.55,-56.29 175.35,-56 320.57,-41.02 492.34,-23.95 574.64,-15.81"/>
<polygon fill="midnightblue" stroke="midnightblue" points="575.09,-19.28 584.69,-14.81 574.4,-12.31 575.09,-19.28"/>
</g>
<!-- Node10&#45;&gt;Node4 -->
<g id="edge16" class="edge">
<title>Node10&#45;&gt;Node4</title>
<path fill="none" stroke="midnightblue" d="M582.63,-56.44C537.18,-46.89 463.65,-31.44 415.15,-21.25"/>
<polygon fill="midnightblue" stroke="midnightblue" points="415.71,-17.79 405.2,-19.16 414.27,-24.64 415.71,-17.79"/>
</g>
<!-- Node10&#45;&gt;Node5 -->
<g id="edge17" class="edge">
<title>Node10&#45;&gt;Node5</title>
<path fill="none" stroke="midnightblue" d="M623.35,-56.08C623.35,-49.01 623.35,-38.86 623.35,-29.99"/>
<polygon fill="midnightblue" stroke="midnightblue" points="626.85,-29.75 623.35,-19.75 619.85,-29.75 626.85,-29.75"/>
</g>
<!-- Node11&#45;&gt;Node4 -->
<g id="edge19" class="edge">
<title>Node11&#45;&gt;Node4</title>
<path fill="none" stroke="midnightblue" d="M464.81,-56.44C445.73,-47.64 415.78,-33.81 393.92,-23.72"/>
<polygon fill="midnightblue" stroke="midnightblue" points="395.35,-20.53 384.81,-19.52 392.42,-26.88 395.35,-20.53"/>
</g>
<!-- Node11&#45;&gt;Node5 -->
<g id="edge20" class="edge">
<title>Node11&#45;&gt;Node5</title>
<path fill="none" stroke="midnightblue" d="M505.54,-56.44C528.78,-47.48 565.5,-33.31 591.77,-23.18"/>
<polygon fill="midnightblue" stroke="midnightblue" points="593.2,-26.38 601.27,-19.52 590.68,-19.85 593.2,-26.38"/>
</g>
<!-- Node12&#45;&gt;Node7 -->
<g id="edge22" class="edge">
<title>Node12&#45;&gt;Node7</title>
<path fill="none" stroke="midnightblue" d="M941.41,-112.44C909.2,-103.24 857.82,-88.56 822.21,-78.39"/>
<polygon fill="midnightblue" stroke="midnightblue" points="822.74,-74.9 812.16,-75.52 820.81,-81.63 822.74,-74.9"/>
</g>
<!-- Node13 -->
<g id="node13" class="node">
<title>Node13</title>
<g id="a_node13"><a xlink:title=" ">
<polygon fill="white" stroke="#bfbfbf" points="929.35,-56.5 929.35,-75.5 1013.35,-75.5 1013.35,-56.5 929.35,-56.5"/>
<text text-anchor="middle" x="971.35" y="-63.5" font-family="Helvetica,sans-Serif" font-size="10.00">stdbool.h</text>
</a>
</g>
</g>
<!-- Node12&#45;&gt;Node13 -->
<g id="edge23" class="edge">
<title>Node12&#45;&gt;Node13</title>
<path fill="none" stroke="midnightblue" d="M971.35,-112.08C971.35,-105.01 971.35,-94.86 971.35,-85.99"/>
<polygon fill="midnightblue" stroke="midnightblue" points="974.85,-85.75 971.35,-75.75 967.85,-85.75 974.85,-85.75"/>
</g>
<!-- Node14&#45;&gt;Node12 -->
<g id="edge27" class="edge">
<title>Node14&#45;&gt;Node12</title>
<path fill="none" stroke="midnightblue" d="M971.35,-168.4C971.35,-160.47 971.35,-150.46 971.35,-141.86"/>
<polygon fill="midnightblue" stroke="midnightblue" points="974.85,-141.66 971.35,-131.66 967.85,-141.66 974.85,-141.66"/>
</g>
<!-- Node15&#45;&gt;Node3 -->
<g id="edge30" class="edge">
<title>Node15&#45;&gt;Node3</title>
<path fill="none" stroke="midnightblue" d="M583.04,-173.98C572.9,-164.7 556.49,-149.67 544.1,-138.33"/>
<polygon fill="midnightblue" stroke="midnightblue" points="546.39,-135.68 536.65,-131.51 541.66,-140.84 546.39,-135.68"/>
</g>
</g>
</svg>
        <g id="navigator" transform="translate(0 0)" fill="#404254">
                <rect fill="#f2f5e9" fill-opacity="0.5" stroke="#606060" stroke-width=".5" x="0" y="0" width="60" height="60"/>
                <use id="zoomplus" xlink:href="#zoomPlus" x="17" y="9" onmousedown="handleZoom(evt,'in')"/>
                <use id="zoomminus" xlink:href="#zoomMin" x="42" y="9" onmousedown="handleZoom(evt,'out')"/>
                <use id="reset" xlink:href="#resetDef" x="30" y="36" onmousedown="handleReset()"/>
                <g id="arrowUp" xlink:href="#dirArrow" transform="translate(30 24)" onmousedown="handlePan(0,-1)">
                  <use xlink:href="#rim" fill="#404040">
                        <set attributeName="fill" to="#808080" begin="arrowUp.mouseover" end="arrowUp.mouseout"/>
                  </use>
                  <path fill="none" stroke="white" stroke-width="1.5" d="M0,-3.0v7 M-2.5,-0.5L0,-3.0L2.5,-0.5"/>
                </g>
                <g id="arrowRight" xlink:href="#dirArrow" transform="rotate(90) translate(36 -43)" onmousedown="handlePan(1,0)">
                  <use xlink:href="#rim" fill="#404040">
                        <set attributeName="fill" to="#808080" begin="arrowRight.mouseover" end="arrowRight.mouseout"/>
                  </use>
                  <path fill="none" stroke="white" stroke-width="1.5" d="M0,-3.0v7 M-2.5,-0.5L0,-3.0L2.5,-0.5"/>
                </g>
                <g id="arrowDown" xlink:href="#dirArrow" transform="rotate(180) translate(-30 -48)" onmousedown="handlePan(0,1)">
                  <use xlink:href="#rim" fill="#404040">
                        <set attributeName="fill" to="#808080" begin="arrowDown.mouseover" end="arrowDown.mouseout"/>
                  </use>
                  <path fill="none" stroke="white" stroke-width="1.5" d="M0,-3.0v7 M-2.5,-0.5L0,-3.0L2.5,-0.5"/>
                </g>
                <g id="arrowLeft" xlink:href="#dirArrow" transform="rotate(270) translate(-36 17)" onmousedown="handlePan(-1,0)">
                  <use xlink:href="#rim" fill="#404040">
                        <set attributeName="fill" to="#808080" begin="arrowLeft.mouseover" end="arrowLeft.mouseout"/>
                  </use>
                  <path fill="none" stroke="white" stroke-width="1.5" d="M0,-3.0v7 M-2.5,-0.5L0,-3.0L2.5,-0.5"/>
                </g>
        </g>
        <svg viewBox="0 0 15 15" width="100%" height="30px" preserveAspectRatio="xMaxYMin meet">
         <g id="arrow_out" transform="scale(0.3 0.3)">
          <a xlink:href="xattr__table_8h__incl_org.svg" target="_base">
           <rect id="button" ry="5" rx="5" y="6" x="6" height="38" width="38"
                fill="#f2f5e9" fill-opacity="0.5" stroke="#606060" stroke-width="1.0"/>
           <path id="arrow"
             d="M 11.500037,31.436501 C 11.940474,20.09759 22.043105,11.32322 32.158766,21.979434 L 37.068811,17.246167 C 37.068811,17.246167 37.088388,32 37.088388,32 L 22.160133,31.978069 C 22.160133,31.978069 26.997745,27.140456 26.997745,27.140456 C 18.528582,18.264221 13.291696,25.230495 11.500037,31.436501 z"
             style="fill:#404040;"/>
          </a>
         </g>
        </svg>
</svg>
