<?xml version="1.0" encoding="UTF-8" standalone="no"?>
<!DOCTYPE svg PUBLIC "-//W3C//DTD SVG 1.1//EN"
 "http://www.w3.org/Graphics/SVG/1.1/DTD/svg11.dtd">
<!-- Generated by graphviz version 9.0.0 (20230911.1827)
 -->
<!-- Title: examples/custom_mapper.c Pages: 1 -->
<!--zoomable 865024 -->

<svg id="main" version="1.1" xmlns="http://www.w3.org/2000/svg" xmlns:xlink="http://www.w3.org/1999/xlink" xml:space="preserve" onload="init(evt)">
<style type="text/css"><![CDATA[
.node, .edge {opacity: 0.7;}
.node.selected, .edge.selected {opacity: 1;}
.edge:hover path { stroke: red; }
.edge:hover polygon { stroke: red; fill: red; }
]]></style>

<defs>
  <circle id="rim" cx="0" cy="0" r="7"/>
  <circle id="rim2" cx="0" cy="0" r="3.5"/>
  <g id="zoomPlus">
    <use xlink:href="#rim" fill="#404040"><set attributeName="fill" to="#808080" begin="zoomplus.mouseover" end="zoomplus.mouseout"/></use>
    <path d="M-4,0h8M0,-4v8" fill="none" stroke="white" stroke-width="1.5" pointer-events="none"/>
  </g>
  <g id="zoomMin">
    <use xlink:href="#rim" fill="#404040"><set attributeName="fill" to="#808080" begin="zoomminus.mouseover" end="zoomminus.mouseout"/></use>
    <path d="M-4,0h8" fill="none" stroke="white" stroke-width="1.5" pointer-events="none"/>
  </g>
  <g id="arrowUp" transform="translate(30 24)">
    <use xlink:href="#rim"/>
    <path pointer-events="none" fill="none" stroke="white" stroke-width="1.5" d="M0,-3.0v7 M-2.5,-0.5L0,-3.0L2.5,-0.5"/>
  </g>
  <g id="arrowRight" transform="rotate(90) translate(36 -43)">
    <use xlink:href="#rim"/>
    <path pointer-events="none" fill="none" stroke="white" stroke-width="1.5" d="M0,-3.0v7 M-2.5,-0.5L0,-3.0L2.5,-0.5"/>
  </g>
  <g id="arrowDown" transform="rotate(180) translate(-30 -48)">
    <use xlink:href="#rim"/>
    <path pointer-events="none" fill="none" stroke="white" stroke-width="1.5" d="M0,-3.0v7 M-2.5,-0.5L0,-3.0L2.5,-0.5"/>
  </g>
  <g id="arrowLeft" transform="rotate(270) translate(-36 17)">
    <use xlink:href="#rim"/>
    <path pointer-events="none" fill="none" stroke="white" stroke-width="1.5" d="M0,-3.0v7 M-2.5,-0.5L0,-3.0L2.5,-0.5"/>
  </g>
  <g id="resetDef">
    <use xlink:href="#rim2" fill="#404040"><set attributeName="fill" to="#808080" begin="reset.mouseover" end="reset.mouseout"/></use>
  </g>
</defs>
<script type="application/ecmascript">
var viewWidth = 1332;
var viewHeight = 865024;
var sectionId = 'dynsection-0';
</script>
<script type="application/ecmascript" xlink:href="svg.min.js"/>
<svg id="graph" class="graph">
<g id="viewport">
<title>examples/custom_mapper.c</title>
<!-- Node1 -->
<g id="Node000001" class="node">
<title>Node1</title>
<g id="a_Node000001"><a xlink:title=" ">
<polygon fill="#999999" stroke="#666666" points="812.8,-865015.77 616.8,-865015.77 616.8,-864997.27 812.8,-864997.27 812.8,-865015.77"/>
<text text-anchor="middle" x="714.8" y="-865002.27" font-family="Helvetica,sans-Serif" font-size="10.00">examples/custom_mapper.c</text>
</a>
</g>
</g>
<!-- Node2 -->
<g id="Node000002" class="node">
<title>Node2</title>
<g id="a_Node000002"><a xlink:title=" ">
<polygon fill="#e0e0e0" stroke="#999999" points="579.8,-648797.37 503.8,-648797.37 503.8,-648778.87 579.8,-648778.87 579.8,-648797.37"/>
<text text-anchor="middle" x="541.8" y="-648783.87" font-family="Helvetica,sans-Serif" font-size="10.00">assert.h</text>
</a>
</g>
</g>
<!-- Node1&#45;&gt;Node2 -->
<g id="edge1_Node000001_Node000002" class="edge">
<title>Node1&#45;&gt;Node2</title>
<g id="a_edge1_Node000001_Node000002"><a xlink:title=" ">
<path fill="none" stroke="#63b8ff" d="M644.74,-864996.85C623.27,-864990.53 601.87,-864979.71 588.8,-864961.27 -274.52,-863743.35 532.74,-651167.28 541.73,-648808.89"/>
<polygon fill="#63b8ff" stroke="#63b8ff" points="545.22,-648809.27 541.76,-648799.26 538.22,-648809.24 545.22,-648809.27"/>
</a>
</g>
</g>
<!-- Node3 -->
<g id="Node000003" class="node">
<title>Node3</title>
<g id="a_Node000003"><a xlink:title=" ">
<polygon fill="#e0e0e0" stroke="#999999" points="666.05,-648797.41 597.55,-648797.41 597.55,-648778.82 666.05,-648778.82 666.05,-648797.41"/>
<text text-anchor="middle" x="631.8" y="-648783.91" font-family="Helvetica,sans-Serif" font-size="10.00">errno.h</text>
</a>
</g>
</g>
<!-- Node1&#45;&gt;Node3 -->
<g id="edge2_Node000001_Node000003" class="edge">
<title>Node1&#45;&gt;Node3</title>
<g id="a_edge2_Node000001_Node000003"><a xlink:title=" ">
<path fill="none" stroke="#63b8ff" d="M703.82,-864997.07C694.36,-864989.04 681.38,-864976.02 675.8,-864961.27 543.87,-864612.15 630.82,-651176.92 631.79,-648808.97"/>
<polygon fill="#63b8ff" stroke="#63b8ff" points="635.29,-648809.29 631.8,-648799.29 628.29,-648809.29 635.29,-648809.29"/>
</a>
</g>
</g>
<!-- Node4 -->
<g id="Node000004" class="node">
<title>Node4</title>
<g id="a_Node000004"><a xlink:href="sqsh_8h.html" target="_top" xlink:title=" ">
<polygon fill="white" stroke="#666666" points="745.3,-864961.27 684.3,-864961.27 684.3,-432614.96 745.3,-432614.96 745.3,-864961.27"/>
<text text-anchor="middle" x="714.8" y="-864947.77" font-family="Helvetica,sans-Serif" font-size="10.00">sqsh.h</text>
</a>
</g>
</g>
<!-- Node1&#45;&gt;Node4 -->
<g id="edge3_Node000001_Node000004" class="edge">
<title>Node1&#45;&gt;Node4</title>
<g id="a_edge3_Node000001_Node000004"><a xlink:title=" ">
<path fill="none" stroke="#63b8ff" d="M714.8,-864996.84C714.8,-864991.41 714.8,-864983.43 714.8,-864972.93"/>
<polygon fill="#63b8ff" stroke="#63b8ff" points="718.3,-864973.09 714.8,-864963.09 711.3,-864973.09 718.3,-864973.09"/>
</a>
</g>
</g>
<!-- Node15 -->
<g id="Node000015" class="node">
<title>Node15</title>
<g id="a_Node000015"><a xlink:title=" ">
<polygon fill="#e0e0e0" stroke="#999999" points="1186.05,-216325.98 1117.55,-216325.98 1117.55,-216307.48 1186.05,-216307.48 1186.05,-216325.98"/>
<text text-anchor="middle" x="1151.8" y="-216312.48" font-family="Helvetica,sans-Serif" font-size="10.00">stdio.h</text>
</a>
</g>
</g>
<!-- Node1&#45;&gt;Node15 -->
<g id="edge40_Node000001_Node000015" class="edge">
<title>Node1&#45;&gt;Node15</title>
<g id="a_edge40_Node000001_Node000015"><a xlink:title=" ">
<path fill="none" stroke="#63b8ff" d="M726.44,-864996.82C736.1,-864988.8 749.14,-864975.96 754.8,-864961.27 1294.81,-863560.42 1132.08,-434080.29 1132.8,-432578.96 1178.69,-337177.38 1152.2,-218102.67 1151.81,-216337.59"/>
<polygon fill="#63b8ff" stroke="#63b8ff" points="1155.31,-216337.82 1151.8,-216327.82 1148.31,-216337.82 1155.31,-216337.82"/>
</a>
</g>
</g>
<!-- Node24 -->
<g id="Node000024" class="node">
<title>Node24</title>
<g id="a_Node000024"><a xlink:title=" ">
<polygon fill="#e0e0e0" stroke="#999999" points="1255.8,-648797.37 1179.8,-648797.37 1179.8,-648778.87 1255.8,-648778.87 1255.8,-648797.37"/>
<text text-anchor="middle" x="1217.8" y="-648783.87" font-family="Helvetica,sans-Serif" font-size="10.00">stdlib.h</text>
</a>
</g>
</g>
<!-- Node1&#45;&gt;Node24 -->
<g id="edge41_Node000001_Node000024" class="edge">
<title>Node1&#45;&gt;Node24</title>
<g id="a_edge41_Node000001_Node000024"><a xlink:title=" ">
<path fill="none" stroke="#63b8ff" d="M813.13,-865002.75C938.68,-864998.18 1142.58,-864986.88 1165.8,-864961.27 1416.52,-864684.81 1220.01,-651177.73 1217.82,-648808.97"/>
<polygon fill="#63b8ff" stroke="#63b8ff" points="1221.32,-648809.29 1217.81,-648799.3 1214.32,-648809.3 1221.32,-648809.29"/>
</a>
</g>
</g>
<!-- Node5 -->
<g id="Node000005" class="node">
<title>Node5</title>
<g id="a_Node000005"><a xlink:href="sqsh__archive_8h.html" target="_top" xlink:title=" ">
<polygon fill="white" stroke="#666666" points="574.3,-432575.21 453.3,-432575.21 453.3,-432556.71 574.3,-432556.71 574.3,-432575.21"/>
<text text-anchor="middle" x="513.8" y="-432561.71" font-family="Helvetica,sans-Serif" font-size="10.00">sqsh_archive.h</text>
</a>
</g>
</g>
<!-- Node4&#45;&gt;Node5 -->
<g id="edge4_Node000004_Node000005" class="edge">
<title>Node4&#45;&gt;Node5</title>
<g id="a_edge4_Node000004_Node000005"><a xlink:title=" ">
<path fill="none" stroke="#63b8ff" d="M745.8,-640651.69C891.32,-601427.86 1467.11,-433677.75 674.8,-432614.96 662.8,-432598.86 617.11,-432586.19 577.45,-432577.92"/>
<polygon fill="#63b8ff" stroke="#63b8ff" points="578.17,-432574.49 567.68,-432575.95 576.79,-432581.36 578.17,-432574.49"/>
</a>
</g>
</g>
<!-- Node6 -->
<g id="Node000006" class="node">
<title>Node6</title>
<g id="a_Node000006"><a xlink:href="sqsh__common_8h.html" target="_top" xlink:title=" ">
<polygon fill="white" stroke="#666666" points="600.55,-80.5 487.05,-80.5 487.05,-62 600.55,-62 600.55,-80.5"/>
<text text-anchor="middle" x="543.8" y="-67" font-family="Helvetica,sans-Serif" font-size="10.00">sqsh_common.h</text>
</a>
</g>
</g>
<!-- Node4&#45;&gt;Node6 -->
<g id="edge11_Node000004_Node000006" class="edge">
<title>Node4&#45;&gt;Node6</title>
<g id="a_edge11_Node000004_Node000006"><a xlink:title=" ">
<path fill="none" stroke="#63b8ff" d="M745.8,-641353.44C899.87,-603469.5 1541.99,-433628.26 674.8,-432614.96 607.53,-432536.35 512.07,-432657.58 444.8,-432578.96 439.93,-432573.26 448.62,-432520.26 448.8,-432516.96 448.8,-432516.96 483.8,-116.5 483.8,-116.5 490.21,-103.81 502.16,-93.87 513.72,-86.65"/>
<polygon fill="#63b8ff" stroke="#63b8ff" points="515.36,-89.74 522.32,-81.75 511.9,-83.66 515.36,-89.74"/>
</a>
</g>
</g>
<!-- Node11 -->
<g id="Node000011" class="node">
<title>Node11</title>
<g id="a_Node000011"><a xlink:href="sqsh__directory_8h.html" target="_top" xlink:title=" ">
<polygon fill="white" stroke="#666666" points="852.8,-432575.21 716.8,-432575.21 716.8,-432556.71 852.8,-432556.71 852.8,-432575.21"/>
<text text-anchor="middle" x="784.8" y="-432561.71" font-family="Helvetica,sans-Serif" font-size="10.00">sqsh_directory.h</text>
</a>
</g>
</g>
<!-- Node4&#45;&gt;Node11 -->
<g id="edge12_Node000004_Node000011" class="edge">
<title>Node4&#45;&gt;Node11</title>
<g id="a_edge12_Node000004_Node000011"><a xlink:title=" ">
<path fill="none" stroke="#63b8ff" d="M745.8,-553032.63C764.34,-495781.85 784.39,-433847.75 784.79,-432586.55"/>
<polygon fill="#63b8ff" stroke="#63b8ff" points="788.29,-432586.93 784.8,-432576.92 781.29,-432586.92 788.29,-432586.93"/>
</a>
</g>
</g>
<!-- Node12 -->
<g id="Node000012" class="node">
<title>Node12</title>
<g id="a_Node000012"><a xlink:href="sqsh__file_8h.html" target="_top" xlink:title=" ">
<polygon fill="white" stroke="#666666" points="837.05,-432516.96 738.55,-432516.96 738.55,-116.5 837.05,-116.5 837.05,-432516.96"/>
<text text-anchor="middle" x="787.8" y="-432503.46" font-family="Helvetica,sans-Serif" font-size="10.00">sqsh_file.h</text>
</a>
</g>
</g>
<!-- Node4&#45;&gt;Node12 -->
<g id="edge22_Node000004_Node000012" class="edge">
<title>Node4&#45;&gt;Node12</title>
<g id="a_edge22_Node000004_Node000012"><a xlink:title=" ">
<path fill="none" stroke="#63b8ff" d="M745.8,-613913C782.11,-571176.43 840.05,-496553.71 861.8,-432578.96 862,-432000.63 851.07,-399797.99 837.55,-360412.98"/>
<polygon fill="#63b8ff" stroke="#63b8ff" points="841.06,-360413.23 837.55,-360403.23 834.06,-360413.23 841.06,-360413.23"/>
</a>
</g>
</g>
<!-- Node13 -->
<g id="Node000013" class="node">
<title>Node13</title>
<g id="a_Node000013"><a xlink:href="sqsh__easy_8h.html" target="_top" xlink:title=" ">
<polygon fill="white" stroke="#666666" points="1124.05,-432575.21 1025.55,-432575.21 1025.55,-432556.71 1124.05,-432556.71 1124.05,-432575.21"/>
<text text-anchor="middle" x="1074.8" y="-432561.71" font-family="Helvetica,sans-Serif" font-size="10.00">sqsh_easy.h</text>
</a>
</g>
</g>
<!-- Node4&#45;&gt;Node13 -->
<g id="edge15_Node000004_Node000013" class="edge">
<title>Node4&#45;&gt;Node13</title>
<g id="a_edge15_Node000004_Node000013"><a xlink:title=" ">
<path fill="none" stroke="#63b8ff" d="M745.8,-630168.47C832.53,-578078.85 1071.54,-434526.53 1074.77,-432586.81"/>
<polygon fill="#63b8ff" stroke="#63b8ff" points="1078.27,-432586.87 1074.78,-432576.87 1071.27,-432586.86 1078.27,-432586.87"/>
</a>
</g>
</g>
<!-- Node17 -->
<g id="Node000017" class="node">
<title>Node17</title>
<g id="a_Node000017"><a xlink:href="sqsh__error_8h.html" target="_top" xlink:title=" ">
<polygon fill="white" stroke="#666666" points="277.8,-216325.98 171.8,-216325.98 171.8,-216307.48 277.8,-216307.48 277.8,-216325.98"/>
<text text-anchor="middle" x="224.8" y="-216312.48" font-family="Helvetica,sans-Serif" font-size="10.00">sqsh_error.h</text>
</a>
</g>
</g>
<!-- Node4&#45;&gt;Node17 -->
<g id="edge20_Node000004_Node000017" class="edge">
<title>Node4&#45;&gt;Node17</title>
<g id="a_edge20_Node000004_Node000017"><a xlink:title=" ">
<path fill="none" stroke="#63b8ff" d="M745.8,-641667.84C904.11,-604416.27 1580.4,-433599.17 674.8,-432614.96 609.72,-432544.24 308.88,-432649.69 243.8,-432578.96 117.4,-432441.58 223.61,-218708.87 224.79,-216337.61"/>
<polygon fill="#63b8ff" stroke="#63b8ff" points="228.29,-216337.92 224.8,-216327.92 221.29,-216337.92 228.29,-216337.92"/>
</a>
</g>
</g>
<!-- Node18 -->
<g id="Node000018" class="node">
<title>Node18</title>
<g id="a_Node000018"><a xlink:href="sqsh__mapper_8h.html" target="_top" xlink:title=" ">
<polygon fill="white" stroke="#666666" points="153.55,-216325.98 40.05,-216325.98 40.05,-216307.48 153.55,-216307.48 153.55,-216325.98"/>
<text text-anchor="middle" x="96.8" y="-216312.48" font-family="Helvetica,sans-Serif" font-size="10.00">sqsh_mapper.h</text>
</a>
</g>
</g>
<!-- Node4&#45;&gt;Node18 -->
<g id="edge23_Node000004_Node000018" class="edge">
<title>Node4&#45;&gt;Node18</title>
<g id="a_edge23_Node000004_Node000018"><a xlink:title=" ">
<path fill="none" stroke="#63b8ff" d="M745.8,-641671.65C904.16,-604427.87 1580.9,-433598.78 674.8,-432614.96 608.94,-432543.45 328.96,-432615.32 238.8,-432578.96 198.37,-432562.66 181.5,-432556.34 162.8,-432516.96 -157.47,-431842.63 93.98,-218702.23 96.78,-216337.55"/>
<polygon fill="#63b8ff" stroke="#63b8ff" points="100.28,-216337.9 96.79,-216327.9 93.28,-216337.89 100.28,-216337.9"/>
</a>
</g>
</g>
<!-- Node19 -->
<g id="Node000019" class="node">
<title>Node19</title>
<g id="a_Node000019"><a xlink:href="sqsh__posix_8h.html" target="_top" xlink:title=" ">
<polygon fill="white" stroke="#666666" points="1285.8,-432578.96 1179.8,-432578.96 1179.8,-432552.96 1285.8,-432552.96 1285.8,-432578.96"/>
<text text-anchor="middle" x="1232.8" y="-432565.46" font-family="Helvetica,sans-Serif" font-size="10.00">sqsh_posix.h</text>
</a>
</g>
</g>
<!-- Node4&#45;&gt;Node19 -->
<g id="edge26_Node000004_Node000019" class="edge">
<title>Node4&#45;&gt;Node19</title>
<g id="a_edge26_Node000004_Node000019"><a xlink:title=" ">
<path fill="none" stroke="#63b8ff" d="M745.8,-495530.73C810.11,-460439.75 935.77,-433092.88 1170.8,-432614.96 1176.7,-432602.96 1187.2,-432593.11 1197.9,-432585.51"/>
<polygon fill="#63b8ff" stroke="#63b8ff" points="1199.51,-432588.64 1205.98,-432580.25 1195.69,-432582.78 1199.51,-432588.64"/>
</a>
</g>
</g>
<!-- Node20 -->
<g id="Node000020" class="node">
<title>Node20</title>
<g id="a_Node000020"><a xlink:href="sqsh__table_8h.html" target="_top" xlink:title=" ">
<polygon fill="white" stroke="#666666" points="358.8,-432575.21 252.8,-432575.21 252.8,-432556.71 358.8,-432556.71 358.8,-432575.21"/>
<text text-anchor="middle" x="305.8" y="-432561.71" font-family="Helvetica,sans-Serif" font-size="10.00">sqsh_table.h</text>
</a>
</g>
</g>
<!-- Node4&#45;&gt;Node20 -->
<g id="edge30_Node000004_Node000020" class="edge">
<title>Node4&#45;&gt;Node20</title>
<g id="a_edge30_Node000004_Node000020"><a xlink:title=" ">
<path fill="none" stroke="#63b8ff" d="M745.8,-641517.93C902.06,-603962.21 1561.69,-433613.67 674.8,-432614.96 629.92,-432564.43 439.65,-432588.92 372.8,-432578.96 369.84,-432578.52 366.8,-432578.05 363.74,-432577.56"/>
<polygon fill="#63b8ff" stroke="#63b8ff" points="364.53,-432574.14 354.09,-432575.95 363.38,-432581.05 364.53,-432574.14"/>
</a>
</g>
</g>
<!-- Node21 -->
<g id="Node000021" class="node">
<title>Node21</title>
<g id="a_Node000021"><a xlink:href="sqsh__tree_8h.html" target="_top" xlink:title=" ">
<polygon fill="white" stroke="#666666" points="1007.05,-432575.21 908.55,-432575.21 908.55,-432556.71 1007.05,-432556.71 1007.05,-432575.21"/>
<text text-anchor="middle" x="957.8" y="-432561.71" font-family="Helvetica,sans-Serif" font-size="10.00">sqsh_tree.h</text>
</a>
</g>
</g>
<!-- Node4&#45;&gt;Node21 -->
<g id="edge32_Node000004_Node000021" class="edge">
<title>Node4&#45;&gt;Node21</title>
<g id="a_edge32_Node000004_Node000021"><a xlink:title=" ">
<path fill="none" stroke="#63b8ff" d="M745.8,-621203.68C810.83,-563339.05 955.72,-434422.05 957.78,-432586.77"/>
<polygon fill="#63b8ff" stroke="#63b8ff" points="961.28,-432586.87 957.79,-432576.87 954.28,-432586.87 961.28,-432586.87"/>
</a>
</g>
</g>
<!-- Node22 -->
<g id="Node000022" class="node">
<title>Node22</title>
<g id="a_Node000022"><a xlink:href="sqsh__utils_8h.html" target="_top" xlink:title=" ">
<polygon fill="white" stroke="#666666" points="439.8,-216325.98 333.8,-216325.98 333.8,-216307.48 439.8,-216307.48 439.8,-216325.98"/>
<text text-anchor="middle" x="386.8" y="-216312.48" font-family="Helvetica,sans-Serif" font-size="10.00">sqsh_utils.h</text>
</a>
</g>
</g>
<!-- Node4&#45;&gt;Node22 -->
<g id="edge35_Node000004_Node000022" class="edge">
<title>Node4&#45;&gt;Node22</title>
<g id="a_edge35_Node000004_Node000022"><a xlink:title=" ">
<path fill="none" stroke="#63b8ff" d="M745.8,-641443.15C901.06,-603737.52 1552.65,-433620.45 674.8,-432614.96 596.92,-432525.76 488.68,-432668.17 410.8,-432578.96 288.03,-432438.33 385.7,-218708.84 386.79,-216337.61"/>
<polygon fill="#63b8ff" stroke="#63b8ff" points="390.29,-216337.92 386.8,-216327.92 383.29,-216337.92 390.29,-216337.92"/>
</a>
</g>
</g>
<!-- Node23 -->
<g id="Node000023" class="node">
<title>Node23</title>
<g id="a_Node000023"><a xlink:href="sqsh__xattr_8h.html" target="_top" xlink:title=" ">
<polygon fill="white" stroke="#666666" points="698.8,-432575.21 592.8,-432575.21 592.8,-432556.71 698.8,-432556.71 698.8,-432575.21"/>
<text text-anchor="middle" x="645.8" y="-432561.71" font-family="Helvetica,sans-Serif" font-size="10.00">sqsh_xattr.h</text>
</a>
</g>
</g>
<!-- Node4&#45;&gt;Node23 -->
<g id="edge37_Node000004_Node000023" class="edge">
<title>Node4&#45;&gt;Node23</title>
<g id="a_edge37_Node000004_Node000023"><a xlink:title=" ">
<path fill="none" stroke="#63b8ff" d="M745.8,-639721.31C880.92,-599033.43 1380.77,-435147.75 674.8,-432614.96 671.79,-432604.16 665.62,-432593.36 659.74,-432584.75"/>
<polygon fill="#63b8ff" stroke="#63b8ff" points="662.57,-432582.7 653.84,-432576.7 656.93,-432586.84 662.57,-432582.7"/>
</a>
</g>
</g>
<!-- Node5&#45;&gt;Node6 -->
<g id="edge5_Node000005_Node000006" class="edge">
<title>Node5&#45;&gt;Node6</title>
<g id="a_edge5_Node000005_Node000006"><a xlink:title=" ">
<path fill="none" stroke="#63b8ff" d="M513.8,-432556.46C513.47,-430352.54 449.39,-483.26 524.8,-116.5 526.61,-107.7 530.25,-98.49 533.87,-90.76"/>
<polygon fill="#63b8ff" stroke="#63b8ff" points="536.87,-92.58 538.24,-82.08 530.62,-89.43 536.87,-92.58"/>
</a>
</g>
</g>
<!-- Node10 -->
<g id="Node000010" class="node">
<title>Node10</title>
<g id="a_Node000010"><a xlink:href="sqsh__data_8h.html" target="_top" xlink:title=" ">
<polygon fill="white" stroke="#666666" points="632.05,-216325.98 533.55,-216325.98 533.55,-216307.48 632.05,-216307.48 632.05,-216325.98"/>
<text text-anchor="middle" x="582.8" y="-216312.48" font-family="Helvetica,sans-Serif" font-size="10.00">sqsh_data.h</text>
</a>
</g>
</g>
<!-- Node5&#45;&gt;Node10 -->
<g id="edge9_Node000005_Node000010" class="edge">
<title>Node5&#45;&gt;Node10</title>
<g id="a_edge9_Node000005_Node000010"><a xlink:title=" ">
<path fill="none" stroke="#63b8ff" d="M515.18,-432556.5C516.67,-432546.93 518.93,-432530.88 519.8,-432516.96 705.77,-429536.83 584.18,-218702.43 582.81,-216337.77"/>
<polygon fill="#63b8ff" stroke="#63b8ff" points="586.31,-216337.8 582.81,-216327.8 579.31,-216337.8 586.31,-216337.8"/>
</a>
</g>
</g>
<!-- Node7 -->
<g id="Node000007" class="node">
<title>Node7</title>
<g id="a_Node000007"><a xlink:title=" ">
<polygon fill="#e0e0e0" stroke="#999999" points="585.55,-22.25 502.05,-22.25 502.05,-3.75 585.55,-3.75 585.55,-22.25"/>
<text text-anchor="middle" x="543.8" y="-8.75" font-family="Helvetica,sans-Serif" font-size="10.00">stdbool.h</text>
</a>
</g>
</g>
<!-- Node6&#45;&gt;Node7 -->
<g id="edge6_Node000006_Node000007" class="edge">
<title>Node6&#45;&gt;Node7</title>
<g id="a_edge6_Node000006_Node000007"><a xlink:title=" ">
<path fill="none" stroke="#63b8ff" d="M543.8,-61.95C543.8,-54.64 543.8,-43.7 543.8,-34.11"/>
<polygon fill="#63b8ff" stroke="#63b8ff" points="547.3,-34.22 543.8,-24.22 540.3,-34.22 547.3,-34.22"/>
</a>
</g>
</g>
<!-- Node8 -->
<g id="Node000008" class="node">
<title>Node8</title>
<g id="a_Node000008"><a xlink:title=" ">
<polygon fill="#e0e0e0" stroke="#999999" points="405.8,-22.25 329.8,-22.25 329.8,-3.75 405.8,-3.75 405.8,-22.25"/>
<text text-anchor="middle" x="367.8" y="-8.75" font-family="Helvetica,sans-Serif" font-size="10.00">stddef.h</text>
</a>
</g>
</g>
<!-- Node6&#45;&gt;Node8 -->
<g id="edge7_Node000006_Node000008" class="edge">
<title>Node6&#45;&gt;Node8</title>
<g id="a_edge7_Node000006_Node000008"><a xlink:title=" ">
<path fill="none" stroke="#63b8ff" d="M516.69,-61.58C486.97,-52.09 439.09,-36.78 405.68,-26.11"/>
<polygon fill="#63b8ff" stroke="#63b8ff" points="406.98,-22.85 396.39,-23.14 404.85,-29.51 406.98,-22.85"/>
</a>
</g>
</g>
<!-- Node9 -->
<g id="Node000009" class="node">
<title>Node9</title>
<g id="a_Node000009"><a xlink:title=" ">
<polygon fill="#e0e0e0" stroke="#999999" points="984.8,-26 908.8,-26 908.8,0 984.8,0 984.8,-26"/>
<text text-anchor="middle" x="946.8" y="-12.5" font-family="Helvetica,sans-Serif" font-size="10.00">stdint.h</text>
</a>
</g>
</g>
<!-- Node6&#45;&gt;Node9 -->
<g id="edge8_Node000006_Node000009" class="edge">
<title>Node6&#45;&gt;Node9</title>
<g id="a_edge8_Node000006_Node000009"><a xlink:title=" ">
<path fill="none" stroke="#63b8ff" d="M600.69,-62.31C679.93,-51.25 822.26,-31.38 897.33,-20.91"/>
<polygon fill="#63b8ff" stroke="#63b8ff" points="897.42,-24.43 906.84,-19.58 896.46,-17.49 897.42,-24.43"/>
</a>
</g>
</g>
<!-- Node10&#45;&gt;Node6 -->
<g id="edge10_Node000010_Node000006" class="edge">
<title>Node10&#45;&gt;Node6</title>
<g id="a_edge10_Node000010_Node000006"><a xlink:title=" ">
<path fill="none" stroke="#63b8ff" d="M582.8,-216307.05C582.52,-214743.54 544.23,-2447.28 543.8,-91.99"/>
<polygon fill="#63b8ff" stroke="#63b8ff" points="547.3,-92.38 543.8,-82.38 540.3,-92.38 547.3,-92.38"/>
</a>
</g>
</g>
<!-- Node11&#45;&gt;Node12 -->
<g id="edge13_Node000011_Node000012" class="edge">
<title>Node11&#45;&gt;Node12</title>
<g id="a_edge13_Node000011_Node000012"><a xlink:title=" ">
<path fill="none" stroke="#63b8ff" d="M784.8,-432556.28C784.8,-432550.21 784.8,-432540.96 784.8,-432528.55"/>
<polygon fill="#63b8ff" stroke="#63b8ff" points="788.3,-432528.9 784.8,-432518.9 781.3,-432528.9 788.3,-432528.9"/>
</a>
</g>
</g>
<!-- Node12&#45;&gt;Node6 -->
<g id="edge14_Node000012_Node000006" class="edge">
<title>Node12&#45;&gt;Node6</title>
<g id="a_edge14_Node000012_Node000006"><a xlink:title=" ">
<path fill="none" stroke="#63b8ff" d="M738.05,-8420.62C720.62,-3152.19 699.43,-152.28 673.8,-116.5 659.42,-96.42 635.39,-85.35 611.87,-79.28"/>
<polygon fill="#63b8ff" stroke="#63b8ff" points="612.78,-75.9 602.26,-77.09 611.23,-82.72 612.78,-75.9"/>
</a>
</g>
</g>
<!-- Node13&#45;&gt;Node6 -->
<g id="edge16_Node000013_Node000006" class="edge">
<title>Node13&#45;&gt;Node6</title>
<g id="a_edge16_Node000013_Node000006"><a xlink:title=" ">
<path fill="none" stroke="#63b8ff" d="M1036.77,-432556.27C1001.85,-432547.42 953.89,-432532.79 942.8,-432516.96 942.8,-432516.96 889.8,-116.5 889.8,-116.5 871.78,-96.03 707.73,-82.45 612.14,-76.21"/>
<polygon fill="#63b8ff" stroke="#63b8ff" points="612.55,-72.73 602.34,-75.58 612.1,-79.71 612.55,-72.73"/>
</a>
</g>
</g>
<!-- Node14 -->
<g id="Node000014" class="node">
<title>Node14</title>
<g id="a_Node000014"><a xlink:title=" ">
<polygon fill="#e0e0e0" stroke="#999999" points="1099.05,-216325.98 1030.55,-216325.98 1030.55,-216307.48 1099.05,-216307.48 1099.05,-216325.98"/>
<text text-anchor="middle" x="1064.8" y="-216312.48" font-family="Helvetica,sans-Serif" font-size="10.00">fcntl.h</text>
</a>
</g>
</g>
<!-- Node13&#45;&gt;Node14 -->
<g id="edge17_Node000013_Node000014" class="edge">
<title>Node13&#45;&gt;Node14</title>
<g id="a_edge17_Node000013_Node000014"><a xlink:title=" ">
<path fill="none" stroke="#63b8ff" d="M1074.8,-432556.28C1074.73,-430992.74 1064.91,-218692.8 1064.8,-216337.48"/>
<polygon fill="#63b8ff" stroke="#63b8ff" points="1068.3,-216337.86 1064.8,-216327.86 1061.3,-216337.86 1068.3,-216337.86"/>
</a>
</g>
</g>
<!-- Node13&#45;&gt;Node15 -->
<g id="edge18_Node000013_Node000015" class="edge">
<title>Node13&#45;&gt;Node15</title>
<g id="a_edge18_Node000013_Node000015"><a xlink:title=" ">
<path fill="none" stroke="#63b8ff" d="M1083.22,-432556.29C1091.31,-432547.3 1103,-432532.41 1107.8,-432516.96 1218.55,-432160.51 1152.54,-218705.76 1151.81,-216337.58"/>
<polygon fill="#63b8ff" stroke="#63b8ff" points="1155.31,-216337.91 1151.8,-216327.91 1148.31,-216337.91 1155.31,-216337.91"/>
</a>
</g>
</g>
<!-- Node16 -->
<g id="Node000016" class="node">
<title>Node16</title>
<g id="a_Node000016"><a xlink:title=" ">
<polygon fill="#e0e0e0" stroke="#999999" points="1012.3,-216325.98 951.3,-216325.98 951.3,-216307.48 1012.3,-216307.48 1012.3,-216325.98"/>
<text text-anchor="middle" x="981.8" y="-216312.48" font-family="Helvetica,sans-Serif" font-size="10.00">time.h</text>
</a>
</g>
</g>
<!-- Node13&#45;&gt;Node16 -->
<g id="edge19_Node000013_Node000016" class="edge">
<title>Node13&#45;&gt;Node16</title>
<g id="a_edge19_Node000013_Node000016"><a xlink:title=" ">
<path fill="none" stroke="#63b8ff" d="M1059.96,-432556.5C1047.16,-432548.26 1029.55,-432534.44 1021.8,-432516.96 870.44,-432175.76 980.56,-218705.92 981.79,-216337.59"/>
<polygon fill="#63b8ff" stroke="#63b8ff" points="985.29,-216337.91 981.8,-216327.91 978.29,-216337.91 985.29,-216337.91"/>
</a>
</g>
</g>
<!-- Node17&#45;&gt;Node6 -->
<g id="edge21_Node000017_Node000006" class="edge">
<title>Node17&#45;&gt;Node6</title>
<g id="a_edge21_Node000017_Node000006"><a xlink:title=" ">
<path fill="none" stroke="#63b8ff" d="M224.79,-216307.07C223.53,-214737.24 51.27,-402.86 291.8,-116.5 314.86,-89.05 409.02,-78.62 475.46,-74.67"/>
<polygon fill="#63b8ff" stroke="#63b8ff" points="475.39,-78.18 485.18,-74.13 475,-71.19 475.39,-78.18"/>
</a>
</g>
</g>
<!-- Node18&#45;&gt;Node6 -->
<g id="edge24_Node000018_Node000006" class="edge">
<title>Node18&#45;&gt;Node6</title>
<g id="a_edge24_Node000018_Node000006"><a xlink:title=" ">
<path fill="none" stroke="#63b8ff" d="M96.79,-216307.07C95.46,-214737.19 -85.96,-395.74 162.8,-116.5 183.19,-93.62 371.29,-80.76 475.34,-75.35"/>
<polygon fill="#63b8ff" stroke="#63b8ff" points="475.36,-78.85 485.17,-74.85 475,-71.86 475.36,-78.85"/>
</a>
</g>
</g>
<!-- Node18&#45;&gt;Node8 -->
<g id="edge25_Node000018_Node000008" class="edge">
<title>Node18&#45;&gt;Node8</title>
<g id="a_edge25_Node000018_Node000008"><a xlink:title=" ">
<path fill="none" stroke="#63b8ff" d="M96.8,-216307.07C95.84,-214737.47 -33.86,-434.59 162.8,-116.5 196.58,-61.87 269.27,-35.38 318.37,-23.26"/>
<polygon fill="#63b8ff" stroke="#63b8ff" points="318.97,-26.72 327.91,-21.03 317.37,-19.9 318.97,-26.72"/>
</a>
</g>
</g>
<!-- Node19&#45;&gt;Node6 -->
<g id="edge27_Node000019_Node000006" class="edge">
<title>Node19&#45;&gt;Node6</title>
<g id="a_edge27_Node000019_Node000006"><a xlink:title=" ">
<path fill="none" stroke="#63b8ff" d="M1232.8,-432552.9C1232.57,-429929.53 1194.8,-116.5 1194.8,-116.5 1155.64,-74.6 771.05,-71.3 612.05,-71.75"/>
<polygon fill="#63b8ff" stroke="#63b8ff" points="612.5,-68.25 602.51,-71.78 612.52,-75.25 612.5,-68.25"/>
</a>
</g>
</g>
<!-- Node19&#45;&gt;Node9 -->
<g id="edge28_Node000019_Node000009" class="edge">
<title>Node19&#45;&gt;Node9</title>
<g id="a_edge28_Node000019_Node000009"><a xlink:title=" ">
<path fill="none" stroke="#63b8ff" d="M1232.81,-432552.91C1234.07,-429931.41 1441.18,-423.26 1226.8,-116.5 1174.63,-41.85 1061.92,-21.39 996.52,-15.9"/>
<polygon fill="#63b8ff" stroke="#63b8ff" points="997.02,-12.43 986.79,-15.18 996.5,-19.41 997.02,-12.43"/>
</a>
</g>
</g>
<!-- Node19&#45;&gt;Node15 -->
<g id="edge29_Node000019_Node000015" class="edge">
<title>Node19&#45;&gt;Node15</title>
<g id="a_edge29_Node000019_Node000015"><a xlink:title=" ">
<path fill="none" stroke="#63b8ff" d="M1221.2,-432552.66C1213.48,-432543.57 1204,-432530.48 1199.8,-432516.96 1089.05,-432160.51 1151.1,-218705.76 1151.8,-216337.58"/>
<polygon fill="#63b8ff" stroke="#63b8ff" points="1155.29,-216337.91 1151.8,-216327.91 1148.29,-216337.91 1155.29,-216337.91"/>
</a>
</g>
</g>
<!-- Node20&#45;&gt;Node6 -->
<g id="edge31_Node000020_Node000006" class="edge">
<title>Node20&#45;&gt;Node6</title>
<g id="a_edge31_Node000020_Node000006"><a xlink:title=" ">
<path fill="none" stroke="#63b8ff" d="M305.8,-432556.45C305.9,-430350.66 324.8,-116.5 324.8,-116.5 343.63,-93.49 418.42,-82.17 475.41,-76.79"/>
<polygon fill="#63b8ff" stroke="#63b8ff" points="475.4,-80.31 485.04,-75.93 474.77,-73.34 475.4,-80.31"/>
</a>
</g>
</g>
<!-- Node21&#45;&gt;Node6 -->
<g id="edge33_Node000021_Node000006" class="edge">
<title>Node21&#45;&gt;Node6</title>
<g id="a_edge33_Node000021_Node000006"><a xlink:title=" ">
<path fill="none" stroke="#63b8ff" d="M943.23,-432556.43C930.67,-432548.14 913.39,-432534.29 905.8,-432516.96 905.8,-432516.96 845.8,-116.5 845.8,-116.5 816.24,-82.3 691.95,-74.03 612.32,-72.32"/>
<polygon fill="#63b8ff" stroke="#63b8ff" points="612.49,-68.82 602.43,-72.14 612.36,-75.82 612.49,-68.82"/>
</a>
</g>
</g>
<!-- Node21&#45;&gt;Node12 -->
<g id="edge34_Node000021_Node000012" class="edge">
<title>Node21&#45;&gt;Node12</title>
<g id="a_edge34_Node000021_Node000012"><a xlink:title=" ">
<path fill="none" stroke="#63b8ff" d="M919.7,-432556.34C898.72,-432549.44 874.44,-432537.41 861.8,-432516.96 853.15,-432502.97 845.11,-432074.67 837.65,-431268.43"/>
<polygon fill="#63b8ff" stroke="#63b8ff" points="841.15,-431268.61 837.56,-431258.65 834.16,-431268.68 841.15,-431268.61"/>
</a>
</g>
</g>
<!-- Node22&#45;&gt;Node6 -->
<g id="edge36_Node000022_Node000006" class="edge">
<title>Node22&#45;&gt;Node6</title>
<g id="a_edge36_Node000022_Node000006"><a xlink:title=" ">
<path fill="none" stroke="#63b8ff" d="M386.8,-216307.07C385.84,-214737.47 256.08,-433.93 453.8,-116.5 463.09,-101.59 479.04,-91.56 494.95,-84.88"/>
<polygon fill="#63b8ff" stroke="#63b8ff" points="495.8,-88.3 503.92,-81.49 493.33,-81.75 495.8,-88.3"/>
</a>
</g>
</g>
<!-- Node23&#45;&gt;Node6 -->
<g id="edge38_Node000023_Node000006" class="edge">
<title>Node23&#45;&gt;Node6</title>
<g id="a_edge38_Node000023_Node000006"><a xlink:title=" ">
<path fill="none" stroke="#63b8ff" d="M645.8,-432556.45C645.78,-430350.66 640.8,-116.5 640.8,-116.5 631.11,-101.43 614.88,-91.43 598.44,-84.82"/>
<polygon fill="#63b8ff" stroke="#63b8ff" points="599.69,-81.55 589.1,-81.46 597.32,-88.14 599.69,-81.55"/>
</a>
</g>
</g>
<!-- Node23&#45;&gt;Node10 -->
<g id="edge39_Node000023_Node000010" class="edge">
<title>Node23&#45;&gt;Node10</title>
<g id="a_edge39_Node000023_Node000010"><a xlink:title=" ">
<path fill="none" stroke="#63b8ff" d="M645.8,-432556.28C645.34,-430992.74 583.49,-218692.8 582.81,-216337.48"/>
<polygon fill="#63b8ff" stroke="#63b8ff" points="586.31,-216337.86 582.8,-216327.86 579.31,-216337.86 586.31,-216337.86"/>
</a>
</g>
</g>
</g>
</svg>

<g id="navigator" transform="translate(0 0)" fill="#404254">
  <rect fill="#f2f5e9" fill-opacity="0.5" stroke="#606060" stroke-width=".5" x="0" y="0" width="60" height="60"/>
  <use id="zoomplus" xlink:href="#zoomPlus" x="17" y="9" onmousedown="handleZoom(evt,'in')"/>
  <use id="zoomminus" xlink:href="#zoomMin" x="42" y="9" onmousedown="handleZoom(evt,'out')"/>
  <use id="reset" xlink:href="#resetDef" x="30" y="36" onmousedown="handleReset()"/>
   <use id="arrowup" xlink:href="#arrowUp" x="0" y="0" onmousedown="handlePan(0,-1)"/>
  <use id="arrowright" xlink:href="#arrowRight" x="0" y="0" onmousedown="handlePan(1,0)"/>
  <use id="arrowdown" xlink:href="#arrowDown" x="0" y="0" onmousedown="handlePan(0,1)"/>
  <use id="arrowleft" xlink:href="#arrowLeft" x="0" y="0" onmousedown="handlePan(-1,0)"/>
</g>
<svg viewBox="0 0 15 15" width="100%" height="30px" preserveAspectRatio="xMaxYMin meet">
 <g id="arrow_out" transform="scale(0.3 0.3)">
  <a xlink:href="custom__mapper_8c__incl_org.svg" target="_base">
   <rect id="button" ry="5" rx="5" y="6" x="6" height="38" width="38"
        fill="#f2f5e9" fill-opacity="0.5" stroke="#606060" stroke-width="1.0"/>
   <path id="arrow"
     d="M 11.500037,31.436501 C 11.940474,20.09759 22.043105,11.32322 32.158766,21.979434 L 37.068811,17.246167 C 37.068811,17.246167 37.088388,32 37.088388,32 L 22.160133,31.978069 C 22.160133,31.978069 26.997745,27.140456 26.997745,27.140456 C 18.528582,18.264221 13.291696,25.230495 11.500037,31.436501 z"
     style="fill:#404040;"/>
  </a>
 </g>
</svg>

<style type='text/css'>
<![CDATA[
[data-mouse-over-selected='false'] { opacity: 0.7; }
[data-mouse-over-selected='true']  { opacity: 1.0; }
]]>
</style>
<script type="application/ecmascript"><![CDATA[
document.addEventListener('DOMContentLoaded', (event) => {
  highlightEdges();
  highlightAdjacentNodes();
});
]]></script>
</svg>
