<?xml version="1.0" encoding="UTF-8" standalone="no"?>
<!DOCTYPE svg PUBLIC "-//W3C//DTD SVG 1.1//EN"
 "http://www.w3.org/Graphics/SVG/1.1/DTD/svg11.dtd">
<!-- Generated by graphviz version 8.0.5 (20230430.1635)
 -->
<!-- Title: Graph Legend Pages: 1 -->
<svg width="724pt" height="402652pt"
 viewBox="0.00 0.00 724.15 402651.55" xmlns="http://www.w3.org/2000/svg" xmlns:xlink="http://www.w3.org/1999/xlink">
<g id="graph0" class="graph" transform="scale(1 1) rotate(0) translate(4 402647.55)">
<title>Graph Legend</title>
<!-- Node9 -->
<g id="node1" class="node">
<title>Node9</title>
<g id="a_node1"><a xlink:title=" ">
<polygon fill="#999999" stroke="#666666" points="405.62,-18.5 322.12,-18.5 322.12,0 405.62,0 405.62,-18.5"/>
<text text-anchor="middle" x="363.87" y="-5" font-family="Helvetica,sans-Serif" font-size="10.00">Inherited</text>
</a>
</g>
</g>
<!-- Node10 -->
<g id="node2" class="node">
<title>Node10</title>
<g id="a_node2"><a xlink:href="url.html" xlink:title=" ">
<polygon fill="white" stroke="#666666" points="105.37,-201331.02 14.37,-201331.02 14.37,-201312.52 105.37,-201312.52 105.37,-201331.02"/>
<text text-anchor="middle" x="59.87" y="-201317.52" font-family="Helvetica,sans-Serif" font-size="10.00">PublicBase</text>
</a>
</g>
</g>
<!-- Node10&#45;&gt;Node9 -->
<g id="edge1" class="edge">
<title>Node10&#45;&gt;Node9</title>
<path fill="none" stroke="#63b8ff" d="M59.85,-201301.47C58.01,-199048.43 -103.98,-335.64 113.87,-65 139.5,-33.16 257.43,-18.8 321.75,-13.25"/>
<polygon fill="#63b8ff" stroke="#63b8ff" points="56.35,-201301.16 59.86,-201311.16 63.35,-201301.16 56.35,-201301.16"/>
</g>
<!-- Node11 -->
<g id="node3" class="node">
<title>Node11</title>
<g id="a_node3"><a xlink:href="url.html" xlink:title=" ">
<polygon fill="#fff0f0" stroke="red" points="101.62,-402643.55 18.12,-402643.55 18.12,-402625.05 101.62,-402625.05 101.62,-402643.55"/>
<text text-anchor="middle" x="59.87" y="-402630.05" font-family="Helvetica,sans-Serif" font-size="10.00">Truncated</text>
</a>
</g>
</g>
<!-- Node11&#45;&gt;Node10 -->
<g id="edge2" class="edge">
<title>Node11&#45;&gt;Node10</title>
<path fill="none" stroke="#63b8ff" d="M59.87,-402614.01C59.87,-400368.66 59.87,-202829.18 59.87,-201331.33"/>
<polygon fill="#63b8ff" stroke="#63b8ff" points="56.37,-402613.67 59.87,-402623.67 63.37,-402613.67 56.37,-402613.67"/>
</g>
<!-- Node13 -->
<g id="node4" class="node">
<title>Node13</title>
<polygon fill="white" stroke="#666666" points="236.62,-201342.95 123.12,-201342.95 123.12,-201300.6 236.62,-201300.6 236.62,-201342.95"/>
<text text-anchor="middle" x="179.87" y="-201329.45" font-family="Helvetica,sans-Serif" font-size="10.00">ProtectedBase</text>
</g>
<!-- Node13&#45;&gt;Node9 -->
<g id="edge3" class="edge">
<title>Node13&#45;&gt;Node9</title>
<path fill="none" stroke="darkgreen" d="M179.85,-201289.19C178.11,-198415.4 59.17,-357.34 245.87,-65 262.52,-38.92 295.14,-25.08 321.87,-17.84"/>
<polygon fill="darkgreen" stroke="darkgreen" points="176.35,-201289.16 179.85,-201299.16 183.35,-201289.15 176.35,-201289.16"/>
</g>
<!-- Node14 -->
<g id="node5" class="node">
<title>Node14</title>
<polygon fill="white" stroke="#666666" points="353.12,-201334.77 254.62,-201334.77 254.62,-201308.77 353.12,-201308.77 353.12,-201334.77"/>
<text text-anchor="middle" x="303.87" y="-201321.27" font-family="Helvetica,sans-Serif" font-size="10.00">PrivateBase</text>
</g>
<!-- Node14&#45;&gt;Node9 -->
<g id="edge4" class="edge">
<title>Node14&#45;&gt;Node9</title>
<path fill="none" stroke="#8b1a1a" d="M303.85,-201297.95C302.01,-198917.89 157.44,-11173.11 361.87,-65 362.17,-48.64 362.97,-29.55 363.46,-18.78"/>
<polygon fill="#8b1a1a" stroke="#8b1a1a" points="300.35,-201297.54 303.86,-201307.54 307.35,-201297.54 300.35,-201297.54"/>
</g>
<!-- Node15 -->
<g id="node6" class="node">
<title>Node15</title>
<g id="a_node6"><a xlink:title=" ">
<polygon fill="#e0e0e0" stroke="#999999" points="476.87,-402577.34 370.87,-402577.34 370.87,-66.21 476.87,-66.21 476.87,-402577.34"/>
<text text-anchor="middle" x="423.87" y="-402563.84" font-family="Helvetica,sans-Serif" font-size="10.00">Undocumented</text>
</a>
</g>
</g>
<!-- Node15&#45;&gt;Node9 -->
<g id="edge5" class="edge">
<title>Node15&#45;&gt;Node9</title>
<path fill="none" stroke="#63b8ff" d="M378.82,-55.06C378.17,-45.5 377.52,-39.3 376.87,-36.5 375.38,-30.16 372.13,-23.6 369.25,-18.62"/>
<polygon fill="#63b8ff" stroke="#63b8ff" points="375.37,-54.98 379.47,-64.75 382.36,-54.55 375.37,-54.98"/>
</g>
<!-- Node16 -->
<g id="node7" class="node">
<title>Node16</title>
<polygon fill="white" stroke="#666666" points="600.87,-402578.55 494.87,-402578.55 494.87,-65 600.87,-65 600.87,-402578.55"/>
<text text-anchor="middle" x="547.87" y="-402565.05" font-family="Helvetica,sans-Serif" font-size="10.00">Templ&lt; int &gt;</text>
</g>
<!-- Node16&#45;&gt;Node9 -->
<g id="edge6" class="edge">
<title>Node16&#45;&gt;Node9</title>
<path fill="none" stroke="#63b8ff" d="M494.06,-207.41C491.39,-117.22 488.66,-69.32 485.87,-65 468.33,-37.91 433.87,-24.1 406.03,-17.13"/>
<polygon fill="#63b8ff" stroke="#63b8ff" points="490.58,-207.43 494.37,-217.32 497.58,-207.23 490.58,-207.43"/>
</g>
<!-- Node17 -->
<g id="node8" class="node">
<title>Node17</title>
<polygon fill="white" stroke="#666666" points="593.37,-402643.55 502.37,-402643.55 502.37,-402625.05 593.37,-402625.05 593.37,-402643.55"/>
<text text-anchor="middle" x="547.87" y="-402630.05" font-family="Helvetica,sans-Serif" font-size="10.00">Templ&lt; T &gt;</text>
</g>
<!-- Node17&#45;&gt;Node16 -->
<g id="edge7" class="edge">
<title>Node17&#45;&gt;Node16</title>
<path fill="none" stroke="orange" stroke-dasharray="5,2" d="M547.87,-402613.96C547.87,-402605.19 547.87,-402593.47 547.87,-402578.79"/>
<polygon fill="orange" stroke="orange" points="544.37,-402613.67 547.87,-402623.67 551.37,-402613.67 544.37,-402613.67"/>
<text text-anchor="middle" x="574.12" y="-402597.55" font-family="Helvetica,sans-Serif" font-size="10.00">&lt; int &gt;</text>
</g>
<!-- Node18 -->
<g id="node9" class="node">
<title>Node18</title>
<polygon fill="white" stroke="#666666" points="664.87,-201331.02 618.87,-201331.02 618.87,-201312.52 664.87,-201312.52 664.87,-201331.02"/>
<text text-anchor="middle" x="641.87" y="-201317.52" font-family="Helvetica,sans-Serif" font-size="10.00">Used</text>
</g>
<!-- Node18&#45;&gt;Node9 -->
<g id="edge8" class="edge">
<title>Node18&#45;&gt;Node9</title>
<path fill="none" stroke="#9a32cd" stroke-dasharray="5,2" d="M641.88,-201301.47C643.97,-199048.43 827.23,-336.02 609.87,-65 584.78,-33.73 469.56,-19.17 406.1,-13.42"/>
<polygon fill="#9a32cd" stroke="#9a32cd" points="638.38,-201301.16 641.87,-201311.16 645.38,-201301.16 638.38,-201301.16"/>
<text text-anchor="middle" x="622.12" y="-37.5" font-family="Helvetica,sans-Serif" font-size="10.00">m_usedClass</text>
</g>
</g>
</svg>
