<?xml version="1.0" encoding="UTF-8" standalone="no"?>
<!DOCTYPE svg PUBLIC "-//W3C//DTD SVG 1.1//EN"
 "http://www.w3.org/Graphics/SVG/1.1/DTD/svg11.dtd">
<!-- Generated by graphviz version 9.0.0 (20230911.1827)
 -->
<!-- Title: Graph Legend Pages: 1 -->
<svg width="659pt" height="3017193pt"
 viewBox="0.00 0.00 658.50 3017193.10" xmlns="http://www.w3.org/2000/svg" xmlns:xlink="http://www.w3.org/1999/xlink">
<g id="graph0" class="graph" transform="scale(1 1) rotate(0) translate(4 3017189.1)">
<title>Graph Legend</title>
<!-- Node9 -->
<g id="Node000009" class="node">
<title>Node9</title>
<g id="a_Node000009"><a xlink:title=" ">
<polygon fill="#999999" stroke="#666666" points="391.25,-18.5 307.75,-18.5 307.75,0 391.25,0 391.25,-18.5"/>
<text text-anchor="middle" x="349.5" y="-5" font-family="Helvetica,sans-Serif" font-size="10.00">Inherited</text>
</a>
</g>
</g>
<!-- Node10 -->
<g id="Node000010" class="node">
<title>Node10</title>
<g id="a_Node000010"><a xlink:title=" ">
<polygon fill="white" stroke="#666666" points="91,-754321.06 0,-754321.06 0,-754302.56 91,-754302.56 91,-754321.06"/>
<text text-anchor="middle" x="45.5" y="-754307.56" font-family="Helvetica,sans-Serif" font-size="10.00">PublicBase</text>
</a>
</g>
</g>
<!-- Node10&#45;&gt;Node9 -->
<g id="edge1" class="edge">
<title>Node10&#45;&gt;Node9</title>
<g id="a_edge1"><a xlink:title=" ">
<path fill="none" stroke="#63b8ff" d="M45.5,-754291.05C45.82,-749854.93 99.5,-65 99.5,-65 125.13,-33.15 243.07,-18.8 307.38,-13.25"/>
<polygon fill="#63b8ff" stroke="#63b8ff" points="42,-754290.67 45.5,-754300.67 49,-754290.67 42,-754290.67"/>
</a>
</g>
</g>
<!-- Node11 -->
<g id="Node000011" class="node">
<title>Node11</title>
<g id="a_Node000011"><a xlink:title=" ">
<polygon fill="#fff0f0" stroke="red" points="87.25,-3017185.1 3.75,-3017185.1 3.75,-1508605.12 87.25,-1508605.12 87.25,-3017185.1"/>
<text text-anchor="middle" x="45.5" y="-3017171.6" font-family="Helvetica,sans-Serif" font-size="10.00">Truncated</text>
</a>
</g>
</g>
<!-- Node11&#45;&gt;Node10 -->
<g id="edge2" class="edge">
<title>Node11&#45;&gt;Node10</title>
<g id="a_edge2"><a xlink:title=" ">
<path fill="none" stroke="#63b8ff" d="M45.5,-1508593.51C45.5,-1132487.36 45.5,-756384.51 45.5,-754321.34"/>
<polygon fill="#63b8ff" stroke="#63b8ff" points="42,-1508593.29 45.5,-1508603.29 49,-1508593.29 42,-1508593.29"/>
</a>
</g>
</g>
<!-- Node13 -->
<g id="node4" class="node">
<title>Node13</title>
<g id="a_node4"><a xlink:title=" ">
<polygon fill="white" stroke="#666666" points="222.25,-1508558.62 108.75,-1508558.62 108.75,-65 222.25,-65 222.25,-1508558.62"/>
<text text-anchor="middle" x="165.5" y="-1508545.12" font-family="Helvetica,sans-Serif" font-size="10.00">ProtectedBase</text>
</a>
</g>
</g>
<!-- Node13&#45;&gt;Node9 -->
<g id="edge3" class="edge">
<title>Node13&#45;&gt;Node9</title>
<g id="a_edge3"><a xlink:title=" ">
<path fill="none" stroke="darkgreen" d="M222.75,-100048.41C228.06,-39375.82 231.5,-65 231.5,-65 248.15,-38.92 280.77,-25.08 307.51,-17.84"/>
<polygon fill="darkgreen" stroke="darkgreen" points="219.25,-100048.35 222.75,-100058.35 226.25,-100048.35 219.25,-100048.35"/>
</a>
</g>
</g>
<!-- Node14 -->
<g id="node5" class="node">
<title>Node14</title>
<g id="a_node5"><a xlink:title=" ">
<polygon fill="white" stroke="#666666" points="338.75,-1508507.59 240.25,-1508507.59 240.25,-116.02 338.75,-116.02 338.75,-1508507.59"/>
<text text-anchor="middle" x="289.5" y="-1508494.09" font-family="Helvetica,sans-Serif" font-size="10.00">PrivateBase</text>
</a>
</g>
</g>
<!-- Node14&#45;&gt;Node9 -->
<g id="edge4" class="edge">
<title>Node14&#45;&gt;Node9</title>
<g id="a_edge4"><a xlink:title=" ">
<path fill="none" stroke="#8b1a1a" d="M339.31,-987.95C341.97,-527.09 344.7,-217.9 347.5,-65 347.8,-48.64 348.6,-29.55 349.09,-18.78"/>
<polygon fill="#8b1a1a" stroke="#8b1a1a" points="335.82,-987.68 339.26,-997.7 342.81,-987.72 335.82,-987.68"/>
</a>
</g>
</g>
<!-- Node15 -->
<g id="Node000015" class="node">
<title>Node15</title>
<g id="a_Node000015"><a xlink:title=" ">
<polygon fill="#e0e0e0" stroke="#999999" points="462.5,-754321.06 356.5,-754321.06 356.5,-754302.56 462.5,-754302.56 462.5,-754321.06"/>
<text text-anchor="middle" x="409.5" y="-754307.56" font-family="Helvetica,sans-Serif" font-size="10.00">Undocumented</text>
</a>
</g>
</g>
<!-- Node15&#45;&gt;Node9 -->
<g id="edge5" class="edge">
<title>Node15&#45;&gt;Node9</title>
<g id="a_edge5"><a xlink:title=" ">
<path fill="none" stroke="#63b8ff" d="M409.5,-754291.06C410.1,-749858.52 511.29,-672.13 362.5,-36.5 361.02,-30.16 357.77,-23.6 354.89,-18.62"/>
<polygon fill="#63b8ff" stroke="#63b8ff" points="406,-754290.68 409.5,-754300.68 413,-754290.68 406,-754290.68"/>
</a>
</g>
</g>
<!-- Node16 -->
<g id="node7" class="node">
<title>Node16</title>
<g id="a_node7"><a xlink:title=" ">
<polygon fill="white" stroke="#666666" points="586.5,-754321.06 480.5,-754321.06 480.5,-754302.56 586.5,-754302.56 586.5,-754321.06"/>
<text text-anchor="middle" x="533.5" y="-754307.56" font-family="Helvetica,sans-Serif" font-size="10.00">Templ&lt; int &gt;</text>
</a>
</g>
</g>
<!-- Node16&#45;&gt;Node9 -->
<g id="edge6" class="edge">
<title>Node16&#45;&gt;Node9</title>
<g id="a_edge6"><a xlink:title=" ">
<path fill="none" stroke="#63b8ff" d="M533.5,-754291.05C533.13,-749854.93 471.5,-65 471.5,-65 453.96,-37.91 419.5,-24.1 391.67,-17.13"/>
<polygon fill="#63b8ff" stroke="#63b8ff" points="530,-754290.67 533.5,-754300.67 537,-754290.67 530,-754290.67"/>
</a>
</g>
</g>
<!-- Node17 -->
<g id="node8" class="node">
<title>Node17</title>
<g id="a_node8"><a xlink:title=" ">
<polygon fill="white" stroke="#666666" points="579,-2262904.36 488,-2262904.36 488,-2262885.86 579,-2262885.86 579,-2262904.36"/>
<text text-anchor="middle" x="533.5" y="-2262890.86" font-family="Helvetica,sans-Serif" font-size="10.00">Templ&lt; T &gt;</text>
</a>
</g>
</g>
<!-- Node17&#45;&gt;Node16 -->
<g id="edge7" class="edge">
<title>Node17&#45;&gt;Node16</title>
<g id="a_edge7"><a xlink:title=" ">
<path fill="none" stroke="orange" stroke-dasharray="5,2" d="M533.5,-2262874.11C533.5,-2256562.26 533.5,-758439.03 533.5,-754321.31"/>
<polygon fill="orange" stroke="orange" points="530,-2262874.07 533.5,-2262884.07 537,-2262874.07 530,-2262874.07"/>
</a>
</g>
<text text-anchor="middle" x="559.75" y="-1508577.62" font-family="Helvetica,sans-Serif" font-size="10.00" fill="grey">&lt; int &gt;</text>
</g>
<!-- Node18 -->
<g id="node9" class="node">
<title>Node18</title>
<g id="a_node9"><a xlink:title=" ">
<polygon fill="white" stroke="#666666" points="650.5,-754333.02 604.5,-754333.02 604.5,-754290.6 650.5,-754290.6 650.5,-754333.02"/>
<text text-anchor="middle" x="627.5" y="-754319.52" font-family="Helvetica,sans-Serif" font-size="10.00">Used</text>
</a>
</g>
</g>
<!-- Node18&#45;&gt;Node9 -->
<g id="edge8" class="edge">
<title>Node18&#45;&gt;Node9</title>
<g id="a_edge8"><a xlink:title=" ">
<path fill="none" stroke="#9a32cd" stroke-dasharray="5,2" d="M627.5,-754278.79C627.26,-748639.53 595.5,-65 595.5,-65 570.42,-33.73 455.2,-19.17 391.73,-13.42"/>
<polygon fill="#9a32cd" stroke="#9a32cd" points="624,-754278.68 627.5,-754288.68 631,-754278.68 624,-754278.68"/>
</a>
</g>
<text text-anchor="middle" x="607.75" y="-37.5" font-family="Helvetica,sans-Serif" font-size="10.00" fill="grey">m_usedClass</text>
</g>
</g>
</svg>
