<?xml version="1.0" encoding="UTF-8" standalone="no"?>
<!DOCTYPE svg PUBLIC "-//W3C//DTD SVG 1.1//EN"
 "http://www.w3.org/Graphics/SVG/1.1/DTD/svg11.dtd">
<!-- Generated by graphviz version 9.0.0 (20230911.1827)
 -->
<!-- Title: Graph Legend Pages: 1 -->
<svg width="771pt" height="2003997pt"
 viewBox="0.00 0.00 771.22 2003997.10" xmlns="http://www.w3.org/2000/svg" xmlns:xlink="http://www.w3.org/1999/xlink">
<g id="graph0" class="graph" transform="scale(1 1) rotate(0) translate(4 2003993.1)">
<title>Graph Legend</title>
<!-- Node9 -->
<g id="Node000009" class="node">
<title>Node9</title>
<g id="a_Node000009"><a xlink:title=" ">
<polygon fill="#999999" stroke="#666666" points="428.92,-18.5 345.42,-18.5 345.42,0 428.92,0 428.92,-18.5"/>
<text text-anchor="middle" x="387.17" y="-5" font-family="Helvetica,sans-Serif" font-size="10.00">Inherited</text>
</a>
</g>
</g>
<!-- Node10 -->
<g id="Node000010" class="node">
<title>Node10</title>
<g id="a_Node000010"><a xlink:title=" ">
<polygon fill="white" stroke="#666666" points="128.67,-501022.06 37.67,-501022.06 37.67,-501003.56 128.67,-501003.56 128.67,-501022.06"/>
<text text-anchor="middle" x="83.17" y="-501008.56" font-family="Helvetica,sans-Serif" font-size="10.00">PublicBase</text>
</a>
</g>
</g>
<!-- Node10&#45;&gt;Node9 -->
<g id="edge1" class="edge">
<title>Node10&#45;&gt;Node9</title>
<g id="a_edge1"><a xlink:title=" ">
<path fill="none" stroke="#63b8ff" d="M83.16,-500992.08C81.59,-497385.37 -134.48,-402.54 137.17,-65 162.8,-33.16 280.73,-18.8 345.05,-13.25"/>
<polygon fill="#63b8ff" stroke="#63b8ff" points="79.66,-500991.8 83.16,-501001.8 86.66,-500991.8 79.66,-500991.8"/>
</a>
</g>
</g>
<!-- Node11 -->
<g id="Node000011" class="node">
<title>Node11</title>
<g id="a_Node000011"><a xlink:title=" ">
<polygon fill="#fff0f0" stroke="red" points="124.92,-2003989.1 41.42,-2003989.1 41.42,-1002007.12 124.92,-1002007.12 124.92,-2003989.1"/>
<text text-anchor="middle" x="83.17" y="-2003975.6" font-family="Helvetica,sans-Serif" font-size="10.00">Truncated</text>
</a>
</g>
</g>
<!-- Node11&#45;&gt;Node10 -->
<g id="edge2" class="edge">
<title>Node11&#45;&gt;Node10</title>
<g id="a_edge2"><a xlink:title=" ">
<path fill="none" stroke="#63b8ff" d="M83.17,-1001995.46C83.17,-752343.87 83.17,-502695.59 83.17,-501022.27"/>
<polygon fill="#63b8ff" stroke="#63b8ff" points="79.67,-1001995.38 83.17,-1002005.38 86.67,-1001995.38 79.67,-1001995.38"/>
</a>
</g>
</g>
<!-- Node13 -->
<g id="node4" class="node">
<title>Node13</title>
<g id="a_node4"><a xlink:title=" ">
<polygon fill="white" stroke="#666666" points="259.92,-1001960.62 146.42,-1001960.62 146.42,-65 259.92,-65 259.92,-1001960.62"/>
<text text-anchor="middle" x="203.17" y="-1001947.12" font-family="Helvetica,sans-Serif" font-size="10.00">ProtectedBase</text>
</a>
</g>
</g>
<!-- Node13&#45;&gt;Node9 -->
<g id="edge3" class="edge">
<title>Node13&#45;&gt;Node9</title>
<g id="a_edge3"><a xlink:title=" ">
<path fill="none" stroke="darkgreen" d="M260.62,-309.07C263.41,-151.56 266.26,-69.56 269.17,-65 285.82,-38.92 318.44,-25.08 345.17,-17.84"/>
<polygon fill="darkgreen" stroke="darkgreen" points="257.12,-308.97 260.44,-319.03 264.12,-309.1 257.12,-308.97"/>
</a>
</g>
</g>
<!-- Node14 -->
<g id="node5" class="node">
<title>Node14</title>
<g id="a_node5"><a xlink:title=" ">
<polygon fill="white" stroke="#666666" points="376.42,-1001909.59 277.92,-1001909.59 277.92,-116.02 376.42,-116.02 376.42,-1001909.59"/>
<text text-anchor="middle" x="327.17" y="-1001896.09" font-family="Helvetica,sans-Serif" font-size="10.00">PrivateBase</text>
</a>
</g>
</g>
<!-- Node14&#45;&gt;Node9 -->
<g id="edge4" class="edge">
<title>Node14&#45;&gt;Node9</title>
<g id="a_edge4"><a xlink:title=" ">
<path fill="none" stroke="#8b1a1a" d="M376.96,-1238.97C379.6,-614.45 382.34,-219.54 385.17,-65 385.47,-48.64 386.27,-29.55 386.76,-18.78"/>
<polygon fill="#8b1a1a" stroke="#8b1a1a" points="373.47,-1238.5 376.92,-1248.52 380.47,-1238.53 373.47,-1238.5"/>
</a>
</g>
</g>
<!-- Node15 -->
<g id="Node000015" class="node">
<title>Node15</title>
<g id="a_Node000015"><a xlink:title=" ">
<polygon fill="#e0e0e0" stroke="#999999" points="500.17,-501022.06 394.17,-501022.06 394.17,-501003.56 500.17,-501003.56 500.17,-501022.06"/>
<text text-anchor="middle" x="447.17" y="-501008.56" font-family="Helvetica,sans-Serif" font-size="10.00">Undocumented</text>
</a>
</g>
</g>
<!-- Node15&#45;&gt;Node9 -->
<g id="edge5" class="edge">
<title>Node15&#45;&gt;Node9</title>
<g id="a_edge5"><a xlink:title=" ">
<path fill="none" stroke="#63b8ff" d="M447.17,-500992.1C448.26,-497388.84 597.7,-880.28 400.17,-36.5 398.68,-30.16 395.43,-23.6 392.55,-18.62"/>
<polygon fill="#63b8ff" stroke="#63b8ff" points="443.67,-500991.81 447.17,-501001.81 450.67,-500991.81 443.67,-500991.81"/>
</a>
</g>
</g>
<!-- Node16 -->
<g id="node7" class="node">
<title>Node16</title>
<g id="a_node7"><a xlink:title=" ">
<polygon fill="white" stroke="#666666" points="624.17,-501022.06 518.17,-501022.06 518.17,-501003.56 624.17,-501003.56 624.17,-501022.06"/>
<text text-anchor="middle" x="571.17" y="-501008.56" font-family="Helvetica,sans-Serif" font-size="10.00">Templ&lt; int &gt;</text>
</a>
</g>
</g>
<!-- Node16&#45;&gt;Node9 -->
<g id="edge6" class="edge">
<title>Node16&#45;&gt;Node9</title>
<g id="a_edge6"><a xlink:title=" ">
<path fill="none" stroke="#63b8ff" d="M571.17,-500992.08C572.43,-497385.56 744.63,-428.71 509.17,-65 491.63,-37.91 457.17,-24.1 429.33,-17.13"/>
<polygon fill="#63b8ff" stroke="#63b8ff" points="567.67,-500991.8 571.17,-501001.8 574.67,-500991.8 567.67,-500991.8"/>
</a>
</g>
</g>
<!-- Node17 -->
<g id="node8" class="node">
<title>Node17</title>
<g id="a_node8"><a xlink:title=" ">
<polygon fill="white" stroke="#666666" points="616.67,-1503007.36 525.67,-1503007.36 525.67,-1502988.86 616.67,-1502988.86 616.67,-1503007.36"/>
<text text-anchor="middle" x="571.17" y="-1502993.86" font-family="Helvetica,sans-Serif" font-size="10.00">Templ&lt; T &gt;</text>
</a>
</g>
</g>
<!-- Node17&#45;&gt;Node16 -->
<g id="edge7" class="edge">
<title>Node17&#45;&gt;Node16</title>
<g id="a_edge7"><a xlink:title=" ">
<path fill="none" stroke="orange" stroke-dasharray="5,2" d="M571.17,-1502977.44C571.17,-1497881.29 571.17,-504421.15 571.17,-501022.55"/>
<polygon fill="orange" stroke="orange" points="567.67,-1502977.14 571.17,-1502987.14 574.67,-1502977.14 567.67,-1502977.14"/>
</a>
</g>
<text text-anchor="middle" x="597.42" y="-1001979.62" font-family="Helvetica,sans-Serif" font-size="10.00" fill="grey">&lt; int &gt;</text>
</g>
<!-- Node18 -->
<g id="node9" class="node">
<title>Node18</title>
<g id="a_node9"><a xlink:title=" ">
<polygon fill="white" stroke="#666666" points="688.17,-501033.99 642.17,-501033.99 642.17,-500991.63 688.17,-500991.63 688.17,-501033.99"/>
<text text-anchor="middle" x="665.17" y="-501020.49" font-family="Helvetica,sans-Serif" font-size="10.00">Used</text>
</a>
</g>
</g>
<!-- Node18&#45;&gt;Node9 -->
<g id="edge8" class="edge">
<title>Node18&#45;&gt;Node9</title>
<g id="a_edge8"><a xlink:title=" ">
<path fill="none" stroke="#9a32cd" stroke-dasharray="5,2" d="M665.18,-500980.06C667.37,-496412.05 903.97,-402.67 633.17,-65 608.09,-33.73 492.86,-19.17 429.4,-13.42"/>
<polygon fill="#9a32cd" stroke="#9a32cd" points="661.68,-500979.87 665.18,-500989.87 668.68,-500979.87 661.68,-500979.87"/>
</a>
</g>
<text text-anchor="middle" x="645.42" y="-37.5" font-family="Helvetica,sans-Serif" font-size="10.00" fill="grey">m_usedClass</text>
</g>
</g>
</svg>
