<?xml version="1.0" encoding="UTF-8" standalone="no"?>
<!DOCTYPE svg PUBLIC "-//W3C//DTD SVG 1.1//EN"
 "http://www.w3.org/Graphics/SVG/1.1/DTD/svg11.dtd">
<!-- Generated by graphviz version 9.0.0 (20230911.1827)
 -->
<!-- Title: Graph Legend Pages: 1 -->
<svg width="659pt" height="2750013pt"
 viewBox="0.00 0.00 658.50 2750013.10" xmlns="http://www.w3.org/2000/svg" xmlns:xlink="http://www.w3.org/1999/xlink">
<g id="graph0" class="graph" transform="scale(1 1) rotate(0) translate(4 2750009.1)">
<title>Graph Legend</title>
<!-- Node9 -->
<g id="Node000009" class="node">
<title>Node9</title>
<g id="a_Node000009"><a xlink:title=" ">
<polygon fill="#999999" stroke="#666666" points="391.25,-18.5 307.75,-18.5 307.75,0 391.25,0 391.25,-18.5"/>
<text text-anchor="middle" x="349.5" y="-5" font-family="Helvetica,sans-Serif" font-size="10.00">Inherited</text>
</a>
</g>
</g>
<!-- Node10 -->
<g id="Node000010" class="node">
<title>Node10</title>
<g id="a_Node000010"><a xlink:title=" ">
<polygon fill="white" stroke="#666666" points="91,-687526.06 0,-687526.06 0,-687507.56 91,-687507.56 91,-687526.06"/>
<text text-anchor="middle" x="45.5" y="-687512.56" font-family="Helvetica,sans-Serif" font-size="10.00">PublicBase</text>
</a>
</g>
</g>
<!-- Node10&#45;&gt;Node9 -->
<g id="edge1" class="edge">
<title>Node10&#45;&gt;Node9</title>
<g id="a_edge1"><a xlink:title=" ">
<path fill="none" stroke="#63b8ff" d="M45.5,-687495.89C45.84,-683245.68 99.5,-65 99.5,-65 125.13,-33.15 243.07,-18.8 307.38,-13.25"/>
<polygon fill="#63b8ff" stroke="#63b8ff" points="42,-687495.68 45.5,-687505.68 49,-687495.69 42,-687495.68"/>
</a>
</g>
</g>
<!-- Node11 -->
<g id="Node000011" class="node">
<title>Node11</title>
<g id="a_Node000011"><a xlink:title=" ">
<polygon fill="#fff0f0" stroke="red" points="87.25,-2750005.1 3.75,-2750005.1 3.75,-1375015.12 87.25,-1375015.12 87.25,-2750005.1"/>
<text text-anchor="middle" x="45.5" y="-2749991.6" font-family="Helvetica,sans-Serif" font-size="10.00">Truncated</text>
</a>
</g>
</g>
<!-- Node11&#45;&gt;Node10 -->
<g id="edge2" class="edge">
<title>Node11&#45;&gt;Node10</title>
<g id="a_edge2"><a xlink:title=" ">
<path fill="none" stroke="#63b8ff" d="M45.5,-1375003.66C45.5,-1032245.19 45.5,-689489.98 45.5,-687526.29"/>
<polygon fill="#63b8ff" stroke="#63b8ff" points="42,-1375003.42 45.5,-1375013.42 49,-1375003.42 42,-1375003.42"/>
</a>
</g>
</g>
<!-- Node13 -->
<g id="node4" class="node">
<title>Node13</title>
<g id="a_node4"><a xlink:title=" ">
<polygon fill="white" stroke="#666666" points="222.25,-1374968.62 108.75,-1374968.62 108.75,-65 222.25,-65 222.25,-1374968.62"/>
<text text-anchor="middle" x="165.5" y="-1374955.12" font-family="Helvetica,sans-Serif" font-size="10.00">ProtectedBase</text>
</a>
</g>
</g>
<!-- Node13&#45;&gt;Node9 -->
<g id="edge3" class="edge">
<title>Node13&#45;&gt;Node9</title>
<g id="a_edge3"><a xlink:title=" ">
<path fill="none" stroke="darkgreen" d="M222.75,-91193.06C228.06,-35894.1 231.5,-65 231.5,-65 248.15,-38.92 280.77,-25.08 307.51,-17.84"/>
<polygon fill="darkgreen" stroke="darkgreen" points="219.25,-91192.94 222.75,-91202.94 226.25,-91192.94 219.25,-91192.94"/>
</a>
</g>
</g>
<!-- Node14 -->
<g id="node5" class="node">
<title>Node14</title>
<g id="a_node5"><a xlink:title=" ">
<polygon fill="white" stroke="#666666" points="338.75,-1374917.59 240.25,-1374917.59 240.25,-116.02 338.75,-116.02 338.75,-1374917.59"/>
<text text-anchor="middle" x="289.5" y="-1374904.09" font-family="Helvetica,sans-Serif" font-size="10.00">PrivateBase</text>
</a>
</g>
</g>
<!-- Node14&#45;&gt;Node9 -->
<g id="edge4" class="edge">
<title>Node14&#45;&gt;Node9</title>
<g id="a_edge4"><a xlink:title=" ">
<path fill="none" stroke="#8b1a1a" d="M339.31,-1035.78C341.97,-543.69 344.7,-218.24 347.5,-65 347.8,-48.64 348.6,-29.55 349.09,-18.78"/>
<polygon fill="#8b1a1a" stroke="#8b1a1a" points="335.81,-1035.53 339.26,-1045.55 342.81,-1035.57 335.81,-1035.53"/>
</a>
</g>
</g>
<!-- Node15 -->
<g id="Node000015" class="node">
<title>Node15</title>
<g id="a_Node000015"><a xlink:title=" ">
<polygon fill="#e0e0e0" stroke="#999999" points="462.5,-687526.06 356.5,-687526.06 356.5,-687507.56 462.5,-687507.56 462.5,-687526.06"/>
<text text-anchor="middle" x="409.5" y="-687512.56" font-family="Helvetica,sans-Serif" font-size="10.00">Undocumented</text>
</a>
</g>
</g>
<!-- Node15&#45;&gt;Node9 -->
<g id="edge5" class="edge">
<title>Node15&#45;&gt;Node9</title>
<g id="a_edge5"><a xlink:title=" ">
<path fill="none" stroke="#63b8ff" d="M409.5,-687495.91C410.05,-683249.11 498.1,-615.75 362.5,-36.5 361.02,-30.16 357.77,-23.6 354.89,-18.62"/>
<polygon fill="#63b8ff" stroke="#63b8ff" points="406,-687495.69 409.5,-687505.69 413,-687495.69 406,-687495.69"/>
</a>
</g>
</g>
<!-- Node16 -->
<g id="node7" class="node">
<title>Node16</title>
<g id="a_node7"><a xlink:title=" ">
<polygon fill="white" stroke="#666666" points="586.5,-687526.06 480.5,-687526.06 480.5,-687507.56 586.5,-687507.56 586.5,-687526.06"/>
<text text-anchor="middle" x="533.5" y="-687512.56" font-family="Helvetica,sans-Serif" font-size="10.00">Templ&lt; int &gt;</text>
</a>
</g>
</g>
<!-- Node16&#45;&gt;Node9 -->
<g id="edge6" class="edge">
<title>Node16&#45;&gt;Node9</title>
<g id="a_edge6"><a xlink:title=" ">
<path fill="none" stroke="#63b8ff" d="M533.5,-687495.89C533.11,-683245.68 471.5,-65 471.5,-65 453.96,-37.91 419.5,-24.1 391.67,-17.13"/>
<polygon fill="#63b8ff" stroke="#63b8ff" points="530,-687495.69 533.5,-687505.68 537,-687495.68 530,-687495.69"/>
</a>
</g>
</g>
<!-- Node17 -->
<g id="node8" class="node">
<title>Node17</title>
<g id="a_node8"><a xlink:title=" ">
<polygon fill="white" stroke="#666666" points="579,-2062519.36 488,-2062519.36 488,-2062500.86 579,-2062500.86 579,-2062519.36"/>
<text text-anchor="middle" x="533.5" y="-2062505.86" font-family="Helvetica,sans-Serif" font-size="10.00">Templ&lt; T &gt;</text>
</a>
</g>
</g>
<!-- Node17&#45;&gt;Node16 -->
<g id="edge7" class="edge">
<title>Node17&#45;&gt;Node16</title>
<g id="a_edge7"><a xlink:title=" ">
<path fill="none" stroke="orange" stroke-dasharray="5,2" d="M533.5,-2062489.26C533.5,-2056487.93 533.5,-691445.07 533.5,-687526.26"/>
<polygon fill="orange" stroke="orange" points="530,-2062489.12 533.5,-2062499.12 537,-2062489.12 530,-2062489.12"/>
</a>
</g>
<text text-anchor="middle" x="559.75" y="-1374987.62" font-family="Helvetica,sans-Serif" font-size="10.00" fill="grey">&lt; int &gt;</text>
</g>
<!-- Node18 -->
<g id="node9" class="node">
<title>Node18</title>
<g id="a_node9"><a xlink:title=" ">
<polygon fill="white" stroke="#666666" points="650.5,-687538.02 604.5,-687538.02 604.5,-687495.59 650.5,-687495.59 650.5,-687538.02"/>
<text text-anchor="middle" x="627.5" y="-687524.52" font-family="Helvetica,sans-Serif" font-size="10.00">Used</text>
</a>
</g>
</g>
<!-- Node18&#45;&gt;Node9 -->
<g id="edge8" class="edge">
<title>Node18&#45;&gt;Node9</title>
<g id="a_edge8"><a xlink:title=" ">
<path fill="none" stroke="#9a32cd" stroke-dasharray="5,2" d="M627.5,-687483.97C627.25,-682117.21 595.5,-65 595.5,-65 570.42,-33.73 455.2,-19.17 391.73,-13.42"/>
<polygon fill="#9a32cd" stroke="#9a32cd" points="624,-687483.96 627.5,-687493.96 631,-687483.96 624,-687483.96"/>
</a>
</g>
<text text-anchor="middle" x="607.75" y="-37.5" font-family="Helvetica,sans-Serif" font-size="10.00" fill="grey">m_usedClass</text>
</g>
</g>
</svg>
