<?xml version="1.0" encoding="UTF-8" standalone="no"?>
<!DOCTYPE svg PUBLIC "-//W3C//DTD SVG 1.1//EN"
 "http://www.w3.org/Graphics/SVG/1.1/DTD/svg11.dtd">
<!-- Generated by graphviz version 9.0.0 (20230911.1827)
 -->
<!-- Title: Graph Legend Pages: 1 -->
<svg width="760pt" height="1913121pt"
 viewBox="0.00 0.00 760.35 1913121.10" xmlns="http://www.w3.org/2000/svg" xmlns:xlink="http://www.w3.org/1999/xlink">
<g id="graph0" class="graph" transform="scale(1 1) rotate(0) translate(4 1913117.1)">
<title>Graph Legend</title>
<!-- Node9 -->
<g id="Node000009" class="node">
<title>Node9</title>
<g id="a_Node000009"><a xlink:title=" ">
<polygon fill="#999999" stroke="#666666" points="423.54,-18.5 340.04,-18.5 340.04,0 423.54,0 423.54,-18.5"/>
<text text-anchor="middle" x="381.79" y="-5" font-family="Helvetica,sans-Serif" font-size="10.00">Inherited</text>
</a>
</g>
</g>
<!-- Node10 -->
<g id="Node000010" class="node">
<title>Node10</title>
<g id="a_Node000010"><a xlink:title=" ">
<polygon fill="white" stroke="#666666" points="123.29,-478303.06 32.29,-478303.06 32.29,-478284.56 123.29,-478284.56 123.29,-478303.06"/>
<text text-anchor="middle" x="77.79" y="-478289.56" font-family="Helvetica,sans-Serif" font-size="10.00">PublicBase</text>
</a>
</g>
</g>
<!-- Node10&#45;&gt;Node9 -->
<g id="edge1" class="edge">
<title>Node10&#45;&gt;Node9</title>
<g id="a_edge1"><a xlink:title=" ">
<path fill="none" stroke="#63b8ff" d="M77.78,-478273.02C76.26,-474743.79 -127.52,-387.2 131.79,-65 157.42,-33.16 275.36,-18.8 339.67,-13.25"/>
<polygon fill="#63b8ff" stroke="#63b8ff" points="74.28,-478272.76 77.78,-478282.76 81.28,-478272.76 74.28,-478272.76"/>
</a>
</g>
</g>
<!-- Node11 -->
<g id="Node000011" class="node">
<title>Node11</title>
<g id="a_Node000011"><a xlink:title=" ">
<polygon fill="#fff0f0" stroke="red" points="119.54,-1913113.1 36.04,-1913113.1 36.04,-956569.12 119.54,-956569.12 119.54,-1913113.1"/>
<text text-anchor="middle" x="77.79" y="-1913099.6" font-family="Helvetica,sans-Serif" font-size="10.00">Truncated</text>
</a>
</g>
</g>
<!-- Node11&#45;&gt;Node10 -->
<g id="edge2" class="edge">
<title>Node11&#45;&gt;Node10</title>
<g id="a_edge2"><a xlink:title=" ">
<path fill="none" stroke="#63b8ff" d="M77.79,-956557.58C77.79,-718256.5 77.79,-479958.7 77.79,-478303.48"/>
<polygon fill="#63b8ff" stroke="#63b8ff" points="74.29,-956557.31 77.79,-956567.31 81.29,-956557.31 74.29,-956557.31"/>
</a>
</g>
</g>
<!-- Node13 -->
<g id="node4" class="node">
<title>Node13</title>
<g id="a_node4"><a xlink:title=" ">
<polygon fill="white" stroke="#666666" points="254.54,-956522.62 141.04,-956522.62 141.04,-65 254.54,-65 254.54,-956522.62"/>
<text text-anchor="middle" x="197.79" y="-956509.12" font-family="Helvetica,sans-Serif" font-size="10.00">ProtectedBase</text>
</a>
</g>
</g>
<!-- Node13&#45;&gt;Node9 -->
<g id="edge3" class="edge">
<title>Node13&#45;&gt;Node9</title>
<g id="a_edge3"><a xlink:title=" ">
<path fill="none" stroke="darkgreen" d="M255.22,-321.39C258.01,-155.75 260.87,-69.57 263.79,-65 280.44,-38.92 313.06,-25.08 339.79,-17.84"/>
<polygon fill="darkgreen" stroke="darkgreen" points="251.73,-320.84 255.06,-330.9 258.73,-320.96 251.73,-320.84"/>
</a>
</g>
</g>
<!-- Node14 -->
<g id="node5" class="node">
<title>Node14</title>
<g id="a_node5"><a xlink:title=" ">
<polygon fill="white" stroke="#666666" points="371.04,-956471.59 272.54,-956471.59 272.54,-116.02 371.04,-116.02 371.04,-956471.59"/>
<text text-anchor="middle" x="321.79" y="-956458.09" font-family="Helvetica,sans-Serif" font-size="10.00">PrivateBase</text>
</a>
</g>
</g>
<!-- Node14&#45;&gt;Node9 -->
<g id="edge4" class="edge">
<title>Node14&#45;&gt;Node9</title>
<g id="a_edge4"><a xlink:title=" ">
<path fill="none" stroke="#8b1a1a" d="M371.58,-1274.3C374.22,-626.76 376.95,-219.71 379.79,-65 380.09,-48.64 380.89,-29.55 381.38,-18.78"/>
<polygon fill="#8b1a1a" stroke="#8b1a1a" points="368.09,-1274.24 371.54,-1284.26 375.08,-1274.27 368.09,-1274.24"/>
</a>
</g>
</g>
<!-- Node15 -->
<g id="Node000015" class="node">
<title>Node15</title>
<g id="a_Node000015"><a xlink:title=" ">
<polygon fill="#e0e0e0" stroke="#999999" points="494.79,-478303.06 388.79,-478303.06 388.79,-478284.56 494.79,-478284.56 494.79,-478303.06"/>
<text text-anchor="middle" x="441.79" y="-478289.56" font-family="Helvetica,sans-Serif" font-size="10.00">Undocumented</text>
</a>
</g>
</g>
<!-- Node15&#45;&gt;Node9 -->
<g id="edge5" class="edge">
<title>Node15&#45;&gt;Node9</title>
<g id="a_edge5"><a xlink:title=" ">
<path fill="none" stroke="#63b8ff" d="M441.79,-478273.04C442.84,-474747.18 583.35,-841.94 394.79,-36.5 393.3,-30.16 390.05,-23.6 387.18,-18.62"/>
<polygon fill="#63b8ff" stroke="#63b8ff" points="438.29,-478272.77 441.79,-478282.77 445.29,-478272.77 438.29,-478272.77"/>
</a>
</g>
</g>
<!-- Node16 -->
<g id="node7" class="node">
<title>Node16</title>
<g id="a_node7"><a xlink:title=" ">
<polygon fill="white" stroke="#666666" points="618.79,-478303.06 512.79,-478303.06 512.79,-478284.56 618.79,-478284.56 618.79,-478303.06"/>
<text text-anchor="middle" x="565.79" y="-478289.56" font-family="Helvetica,sans-Serif" font-size="10.00">Templ&lt; int &gt;</text>
</a>
</g>
</g>
<!-- Node16&#45;&gt;Node9 -->
<g id="edge6" class="edge">
<title>Node16&#45;&gt;Node9</title>
<g id="a_edge6"><a xlink:title=" ">
<path fill="none" stroke="#63b8ff" d="M565.8,-478273.02C567,-474743.98 728.55,-412.18 503.79,-65 486.25,-37.91 451.79,-24.1 423.96,-17.13"/>
<polygon fill="#63b8ff" stroke="#63b8ff" points="562.3,-478272.76 565.79,-478282.76 569.3,-478272.77 562.3,-478272.76"/>
</a>
</g>
</g>
<!-- Node17 -->
<g id="node8" class="node">
<title>Node17</title>
<g id="a_node8"><a xlink:title=" ">
<polygon fill="white" stroke="#666666" points="611.29,-1434850.36 520.29,-1434850.36 520.29,-1434831.86 611.29,-1434831.86 611.29,-1434850.36"/>
<text text-anchor="middle" x="565.79" y="-1434836.86" font-family="Helvetica,sans-Serif" font-size="10.00">Templ&lt; T &gt;</text>
</a>
</g>
</g>
<!-- Node17&#45;&gt;Node16 -->
<g id="edge7" class="edge">
<title>Node17&#45;&gt;Node16</title>
<g id="a_edge7"><a xlink:title=" ">
<path fill="none" stroke="orange" stroke-dasharray="5,2" d="M565.79,-1434819.96C565.79,-1429782.4 565.79,-481605.17 565.79,-478303.45"/>
<polygon fill="orange" stroke="orange" points="562.29,-1434819.92 565.79,-1434829.92 569.29,-1434819.92 562.29,-1434819.92"/>
</a>
</g>
<text text-anchor="middle" x="592.04" y="-956541.62" font-family="Helvetica,sans-Serif" font-size="10.00" fill="grey">&lt; int &gt;</text>
</g>
<!-- Node18 -->
<g id="node9" class="node">
<title>Node18</title>
<g id="a_node9"><a xlink:title=" ">
<polygon fill="white" stroke="#666666" points="682.79,-478315.04 636.79,-478315.04 636.79,-478272.58 682.79,-478272.58 682.79,-478315.04"/>
<text text-anchor="middle" x="659.79" y="-478301.54" font-family="Helvetica,sans-Serif" font-size="10.00">Used</text>
</a>
</g>
</g>
<!-- Node18&#45;&gt;Node9 -->
<g id="edge8" class="edge">
<title>Node18&#45;&gt;Node9</title>
<g id="a_edge8"><a xlink:title=" ">
<path fill="none" stroke="#9a32cd" stroke-dasharray="5,2" d="M659.8,-478260.88C661.93,-473785.71 886.28,-387.32 627.79,-65 602.71,-33.73 487.48,-19.17 424.02,-13.42"/>
<polygon fill="#9a32cd" stroke="#9a32cd" points="656.3,-478260.81 659.8,-478270.82 663.3,-478260.82 656.3,-478260.81"/>
</a>
</g>
<text text-anchor="middle" x="640.04" y="-37.5" font-family="Helvetica,sans-Serif" font-size="10.00" fill="grey">m_usedClass</text>
</g>
</g>
</svg>
