<?xml version="1.0" encoding="UTF-8" standalone="no"?>
<!DOCTYPE svg PUBLIC "-//W3C//DTD SVG 1.1//EN"
 "http://www.w3.org/Graphics/SVG/1.1/DTD/svg11.dtd">
<!-- Generated by graphviz version 9.0.0 (20230911.1827)
 -->
<!-- Title: examples/list_dir.c Pages: 1 -->
<svg width="1293pt" height="5830243pt"
 viewBox="0.00 0.00 1292.62 5830243.13" xmlns="http://www.w3.org/2000/svg" xmlns:xlink="http://www.w3.org/1999/xlink">
<g id="graph0" class="graph" transform="scale(1 1) rotate(0) translate(4 5830239.13)">
<title>examples/list_dir.c</title>
<!-- Node1 -->
<g id="Node000001" class="node">
<title>Node1</title>
<g id="a_Node000001"><a xlink:title=" ">
<polygon fill="#999999" stroke="#666666" points="1045.87,-5830235.13 887.37,-5830235.13 887.37,-5830216.63 1045.87,-5830216.63 1045.87,-5830235.13"/>
<text text-anchor="middle" x="966.62" y="-5830221.63" font-family="Helvetica,sans-Serif" font-size="10.00">examples/list_dir.c</text>
</a>
</g>
</g>
<!-- Node2 -->
<g id="Node000002" class="node">
<title>Node2</title>
<g id="a_Node000002"><a xlink:title=" ">
<polygon fill="#e0e0e0" stroke="#999999" points="664.62,-5830180.63 588.62,-5830180.63 588.62,-5830162.13 664.62,-5830162.13 664.62,-5830180.63"/>
<text text-anchor="middle" x="626.62" y="-5830167.13" font-family="Helvetica,sans-Serif" font-size="10.00">assert.h</text>
</a>
</g>
</g>
<!-- Node1&#45;&gt;Node2 -->
<g id="edge1_Node000001_Node000002" class="edge">
<title>Node1&#45;&gt;Node2</title>
<g id="a_edge1_Node000001_Node000002"><a xlink:title=" ">
<path fill="none" stroke="#63b8ff" d="M906.72,-5830216.16C850.14,-5830207.84 762.58,-5830194.76 676.21,-5830180.86"/>
<polygon fill="#63b8ff" stroke="#63b8ff" points="676.78,-5830177.41 666.35,-5830179.27 675.67,-5830184.32 676.78,-5830177.41"/>
</a>
</g>
</g>
<!-- Node3 -->
<g id="Node000003" class="node">
<title>Node3</title>
<g id="a_Node000003"><a xlink:href="sqsh_8h.html" target="_top" xlink:title=" ">
<polygon fill="white" stroke="#666666" points="744.12,-5830180.63 683.12,-5830180.63 683.12,-5830162.13 744.12,-5830162.13 744.12,-5830180.63"/>
<text text-anchor="middle" x="713.62" y="-5830167.13" font-family="Helvetica,sans-Serif" font-size="10.00">sqsh.h</text>
</a>
</g>
</g>
<!-- Node1&#45;&gt;Node3 -->
<g id="edge2_Node000001_Node000003" class="edge">
<title>Node1&#45;&gt;Node3</title>
<g id="a_edge2_Node000001_Node000003"><a xlink:title=" ">
<path fill="none" stroke="#63b8ff" d="M924.55,-5830216.15C877.79,-5830206.45 802.7,-5830190.87 755.86,-5830181.15"/>
<polygon fill="#63b8ff" stroke="#63b8ff" points="756.58,-5830177.72 746.08,-5830179.12 755.16,-5830184.58 756.58,-5830177.72"/>
</a>
</g>
</g>
<!-- Node14 -->
<g id="Node000014" class="node">
<title>Node14</title>
<g id="a_Node000014"><a xlink:title=" ">
<polygon fill="#e0e0e0" stroke="#999999" points="1184.87,-4218195.31 1116.37,-4218195.31 1116.37,-3069625.15 1184.87,-3069625.15 1184.87,-4218195.31"/>
<text text-anchor="middle" x="1150.62" y="-4218181.81" font-family="Helvetica,sans-Serif" font-size="10.00">stdio.h</text>
</a>
</g>
</g>
<!-- Node1&#45;&gt;Node14 -->
<g id="edge39_Node000001_Node000014" class="edge">
<title>Node1&#45;&gt;Node14</title>
<g id="a_edge39_Node000001_Node000014"><a xlink:title=" ">
<path fill="none" stroke="#63b8ff" d="M998.76,-5830216.21C1038.17,-5830203.65 1103.21,-5830176.23 1131.62,-5830126.13 1131.62,-5830126.13 1140,-4865945.3 1145.63,-4218206.67"/>
<polygon fill="#63b8ff" stroke="#63b8ff" points="1149.13,-4218207.07 1145.63,-4218197.07 1142.13,-4218207.07 1149.13,-4218207.07"/>
</a>
</g>
</g>
<!-- Node23 -->
<g id="Node000023" class="node">
<title>Node23</title>
<g id="a_Node000023"><a xlink:title=" ">
<polygon fill="#e0e0e0" stroke="#999999" points="1254.62,-5830180.63 1178.62,-5830180.63 1178.62,-5830162.13 1254.62,-5830162.13 1254.62,-5830180.63"/>
<text text-anchor="middle" x="1216.62" y="-5830167.13" font-family="Helvetica,sans-Serif" font-size="10.00">stdlib.h</text>
</a>
</g>
</g>
<!-- Node1&#45;&gt;Node23 -->
<g id="edge40_Node000001_Node000023" class="edge">
<title>Node1&#45;&gt;Node23</title>
<g id="a_edge40_Node000001_Node000023"><a xlink:title=" ">
<path fill="none" stroke="#63b8ff" d="M1008.18,-5830216.15C1051.92,-5830206.97 1120.74,-5830192.52 1167.22,-5830182.76"/>
<polygon fill="#63b8ff" stroke="#63b8ff" points="1167.69,-5830186.23 1176.76,-5830180.75 1166.25,-5830179.38 1167.69,-5830186.23"/>
</a>
</g>
</g>
<!-- Node4 -->
<g id="Node000004" class="node">
<title>Node4</title>
<g id="a_Node000004"><a xlink:href="sqsh__archive_8h.html" target="_top" xlink:title=" ">
<polygon fill="white" stroke="#666666" points="573.12,-5830126.13 452.12,-5830126.13 452.12,-4372662.5 573.12,-4372662.5 573.12,-5830126.13"/>
<text text-anchor="middle" x="512.62" y="-5830112.63" font-family="Helvetica,sans-Serif" font-size="10.00">sqsh_archive.h</text>
</a>
</g>
</g>
<!-- Node3&#45;&gt;Node4 -->
<g id="edge3_Node000003_Node000004" class="edge">
<title>Node3&#45;&gt;Node4</title>
<g id="a_edge3_Node000003_Node000004"><a xlink:title=" ">
<path fill="none" stroke="#63b8ff" d="M682.82,-5830162.02C646.03,-5830151.71 588.65,-5830134.54 582.62,-5830126.13 582.62,-5830126.13 579.09,-5793402.61 573.62,-5736443.36"/>
<polygon fill="#63b8ff" stroke="#63b8ff" points="577.12,-5736443.47 573.62,-5736433.47 570.12,-5736443.47 577.12,-5736443.47"/>
</a>
</g>
</g>
<!-- Node5 -->
<g id="Node000005" class="node">
<title>Node5</title>
<g id="a_Node000005"><a xlink:href="sqsh__common_8h.html" target="_top" xlink:title=" ">
<polygon fill="white" stroke="#666666" points="599.37,-2915157.95 485.87,-2915157.95 485.87,-1457694.25 599.37,-1457694.25 599.37,-2915157.95"/>
<text text-anchor="middle" x="542.62" y="-2915144.45" font-family="Helvetica,sans-Serif" font-size="10.00">sqsh_common.h</text>
</a>
</g>
</g>
<!-- Node3&#45;&gt;Node5 -->
<g id="edge10_Node000003_Node000005" class="edge">
<title>Node3&#45;&gt;Node5</title>
<g id="a_edge10_Node000003_Node000005"><a xlink:title=" ">
<path fill="none" stroke="#63b8ff" d="M682.64,-5830163.84C679.59,-5830163.24 676.55,-5830162.66 673.62,-5830162.13 622.71,-5830152.91 477.25,-5830165.44 443.62,-5830126.13 443.62,-5830126.13 443.62,-4372662.5 443.62,-4372662.5 443.84,-4372646.5 444.39,-4372642.51 444.62,-4372626.5 479.8,-4370096.48 507.5,-2917724.22 507.62,-2915193.95 507.62,-2915185.87 507.62,-2915177.79 507.62,-2915169.7"/>
<polygon fill="#63b8ff" stroke="#63b8ff" points="511.12,-2915169.79 507.62,-2915159.79 504.12,-2915169.79 511.12,-2915169.79"/>
</a>
</g>
</g>
<!-- Node10 -->
<g id="Node000010" class="node">
<title>Node10</title>
<g id="a_Node000010"><a xlink:href="sqsh__directory_8h.html" target="_top" xlink:title=" ">
<polygon fill="white" stroke="#666666" points="851.62,-5101407.32 715.62,-5101407.32 715.62,-5101381.32 851.62,-5101381.32 851.62,-5101407.32"/>
<text text-anchor="middle" x="783.62" y="-5101393.82" font-family="Helvetica,sans-Serif" font-size="10.00">sqsh_directory.h</text>
</a>
</g>
</g>
<!-- Node3&#45;&gt;Node10 -->
<g id="edge11_Node000003_Node000010" class="edge">
<title>Node3&#45;&gt;Node10</title>
<g id="a_edge11_Node000003_Node000010"><a xlink:title=" ">
<path fill="none" stroke="#63b8ff" d="M713.62,-5830161.79C713.89,-5827291.48 783.16,-5106169.21 783.61,-5101418.89"/>
<polygon fill="#63b8ff" stroke="#63b8ff" points="787.11,-5101419.15 783.61,-5101409.15 780.11,-5101419.15 787.11,-5101419.15"/>
</a>
</g>
</g>
<!-- Node11 -->
<g id="Node000011" class="node">
<title>Node11</title>
<g id="a_Node000011"><a xlink:href="sqsh__file_8h.html" target="_top" xlink:title=" ">
<polygon fill="white" stroke="#666666" points="835.87,-3643919.48 737.37,-3643919.48 737.37,-3643900.98 835.87,-3643900.98 835.87,-3643919.48"/>
<text text-anchor="middle" x="786.62" y="-3643905.98" font-family="Helvetica,sans-Serif" font-size="10.00">sqsh_file.h</text>
</a>
</g>
</g>
<!-- Node3&#45;&gt;Node11 -->
<g id="edge21_Node000003_Node000011" class="edge">
<title>Node3&#45;&gt;Node11</title>
<g id="a_edge21_Node000003_Node000011"><a xlink:title=" ">
<path fill="none" stroke="#63b8ff" d="M744.32,-5830171.03C778.94,-5830169.9 833.91,-5830162.07 860.62,-5830126.13 860.62,-5830126.13 860.62,-4372662.5 860.62,-4372662.5 844.24,-4050076.58 787.08,-3647168.76 786.62,-3643930.87"/>
<polygon fill="#63b8ff" stroke="#63b8ff" points="790.12,-3643931.1 786.62,-3643921.1 783.12,-3643931.1 790.12,-3643931.1"/>
</a>
</g>
</g>
<!-- Node12 -->
<g id="Node000012" class="node">
<title>Node12</title>
<g id="a_Node000012"><a xlink:href="sqsh__easy_8h.html" target="_top" xlink:title=" ">
<polygon fill="white" stroke="#666666" points="1122.87,-5101403.57 1024.37,-5101403.57 1024.37,-5101385.07 1122.87,-5101385.07 1122.87,-5101403.57"/>
<text text-anchor="middle" x="1073.62" y="-5101390.07" font-family="Helvetica,sans-Serif" font-size="10.00">sqsh_easy.h</text>
</a>
</g>
</g>
<!-- Node3&#45;&gt;Node12 -->
<g id="edge14_Node000003_Node000012" class="edge">
<title>Node3&#45;&gt;Node12</title>
<g id="a_edge14_Node000003_Node000012"><a xlink:title=" ">
<path fill="none" stroke="#63b8ff" d="M744.52,-5830170.7C814.15,-5830170.67 979.92,-5830166.3 1014.62,-5830126.13 1014.62,-5830126.13 1073.26,-5105789.02 1073.61,-5101415.21"/>
<polygon fill="#63b8ff" stroke="#63b8ff" points="1077.11,-5101415.42 1073.62,-5101405.42 1070.11,-5101415.42 1077.11,-5101415.42"/>
</a>
</g>
</g>
<!-- Node16 -->
<g id="Node000016" class="node">
<title>Node16</title>
<g id="a_Node000016"><a xlink:href="sqsh__error_8h.html" target="_top" xlink:title=" ">
<polygon fill="white" stroke="#666666" points="276.62,-3643931.46 170.62,-3643931.46 170.62,-3643888.99 276.62,-3643888.99 276.62,-3643931.46"/>
<text text-anchor="middle" x="223.62" y="-3643917.96" font-family="Helvetica,sans-Serif" font-size="10.00">sqsh_error.h</text>
</a>
</g>
</g>
<!-- Node3&#45;&gt;Node16 -->
<g id="edge19_Node000003_Node000016" class="edge">
<title>Node3&#45;&gt;Node16</title>
<g id="a_edge19_Node000003_Node000016"><a xlink:title=" ">
<path fill="none" stroke="#63b8ff" d="M682.67,-5830163.64C679.62,-5830163.08 676.56,-5830162.57 673.62,-5830162.13 629.8,-5830155.65 306.49,-5830158.84 276.62,-5830126.13 276.62,-5830126.13 223.85,-3653571.22 223.62,-3643943.26"/>
<polygon fill="#63b8ff" stroke="#63b8ff" points="227.12,-3643943.27 223.62,-3643933.27 220.12,-3643943.27 227.12,-3643943.27"/>
</a>
</g>
</g>
<!-- Node17 -->
<g id="Node000017" class="node">
<title>Node17</title>
<g id="a_Node000017"><a xlink:href="sqsh__mapper_8h.html" target="_top" xlink:title=" ">
<polygon fill="white" stroke="#666666" points="152.37,-3643919.48 38.87,-3643919.48 38.87,-3643900.98 152.37,-3643900.98 152.37,-3643919.48"/>
<text text-anchor="middle" x="95.62" y="-3643905.98" font-family="Helvetica,sans-Serif" font-size="10.00">sqsh_mapper.h</text>
</a>
</g>
</g>
<!-- Node3&#45;&gt;Node17 -->
<g id="edge22_Node000003_Node000017" class="edge">
<title>Node3&#45;&gt;Node17</title>
<g id="a_edge22_Node000003_Node000017"><a xlink:title=" ">
<path fill="none" stroke="#63b8ff" d="M682.67,-5830163.62C679.62,-5830163.06 676.56,-5830162.56 673.62,-5830162.13 625.5,-5830155.21 270.54,-5830161.89 237.62,-5830126.13 237.62,-5830126.13 96.11,-3651507.46 95.62,-3643931.04"/>
<polygon fill="#63b8ff" stroke="#63b8ff" points="99.12,-3643931.1 95.62,-3643921.1 92.12,-3643931.1 99.12,-3643931.1"/>
</a>
</g>
</g>
<!-- Node18 -->
<g id="Node000018" class="node">
<title>Node18</title>
<g id="a_Node000018"><a xlink:href="sqsh__posix_8h.html" target="_top" xlink:title=" ">
<polygon fill="white" stroke="#666666" points="1284.62,-5101403.57 1178.62,-5101403.57 1178.62,-5101385.07 1284.62,-5101385.07 1284.62,-5101403.57"/>
<text text-anchor="middle" x="1231.62" y="-5101390.07" font-family="Helvetica,sans-Serif" font-size="10.00">sqsh_posix.h</text>
</a>
</g>
</g>
<!-- Node3&#45;&gt;Node18 -->
<g id="edge25_Node000003_Node000018" class="edge">
<title>Node3&#45;&gt;Node18</title>
<g id="a_edge25_Node000003_Node000018"><a xlink:title=" ">
<path fill="none" stroke="#63b8ff" d="M744.45,-5830169.45C836.7,-5830166.33 1105.78,-5830154.85 1131.62,-5830126.13 1131.62,-5830126.13 1231.01,-5105789.02 1231.61,-5101415.21"/>
<polygon fill="#63b8ff" stroke="#63b8ff" points="1235.11,-5101415.42 1231.61,-5101405.42 1228.11,-5101415.42 1235.11,-5101415.42"/>
</a>
</g>
</g>
<!-- Node19 -->
<g id="Node000019" class="node">
<title>Node19</title>
<g id="a_Node000019"><a xlink:href="sqsh__table_8h.html" target="_top" xlink:title=" ">
<polygon fill="white" stroke="#666666" points="400.62,-3643919.48 294.62,-3643919.48 294.62,-3643900.98 400.62,-3643900.98 400.62,-3643919.48"/>
<text text-anchor="middle" x="347.62" y="-3643905.98" font-family="Helvetica,sans-Serif" font-size="10.00">sqsh_table.h</text>
</a>
</g>
</g>
<!-- Node3&#45;&gt;Node19 -->
<g id="edge29_Node000003_Node000019" class="edge">
<title>Node3&#45;&gt;Node19</title>
<g id="a_edge29_Node000003_Node000019"><a xlink:title=" ">
<path fill="none" stroke="#63b8ff" d="M682.67,-5830163.64C679.62,-5830163.09 676.56,-5830162.57 673.62,-5830162.13 630.24,-5830155.69 310.17,-5830158.52 280.62,-5830126.13 280.62,-5830126.13 280.62,-4372662.5 280.62,-4372662.5 281.73,-4372646.39 284.5,-4372642.62 285.62,-4372626.5 459.65,-4370109.89 348.29,-3648289.64 347.62,-3643931.05"/>
<polygon fill="#63b8ff" stroke="#63b8ff" points="351.12,-3643931.3 347.62,-3643921.3 344.12,-3643931.3 351.12,-3643931.3"/>
</a>
</g>
</g>
<!-- Node20 -->
<g id="Node000020" class="node">
<title>Node20</title>
<g id="a_Node000020"><a xlink:href="sqsh__tree_8h.html" target="_top" xlink:title=" ">
<polygon fill="white" stroke="#666666" points="1005.87,-5101407.32 907.37,-5101407.32 907.37,-5101381.32 1005.87,-5101381.32 1005.87,-5101407.32"/>
<text text-anchor="middle" x="956.62" y="-5101393.82" font-family="Helvetica,sans-Serif" font-size="10.00">sqsh_tree.h</text>
</a>
</g>
</g>
<!-- Node3&#45;&gt;Node20 -->
<g id="edge31_Node000003_Node000020" class="edge">
<title>Node3&#45;&gt;Node20</title>
<g id="a_edge31_Node000003_Node000020"><a xlink:title=" ">
<path fill="none" stroke="#63b8ff" d="M744.37,-5830167.34C790.81,-5830162.03 875.4,-5830149.37 893.62,-5830126.13 893.62,-5830126.13 956.2,-5106187.88 956.61,-5101418.98"/>
<polygon fill="#63b8ff" stroke="#63b8ff" points="960.11,-5101419.2 956.61,-5101409.2 953.11,-5101419.2 960.11,-5101419.2"/>
</a>
</g>
</g>
<!-- Node21 -->
<g id="Node000021" class="node">
<title>Node21</title>
<g id="a_Node000021"><a xlink:href="sqsh__utils_8h.html" target="_top" xlink:title=" ">
<polygon fill="white" stroke="#666666" points="395.62,-5101403.57 289.62,-5101403.57 289.62,-5101385.07 395.62,-5101385.07 395.62,-5101403.57"/>
<text text-anchor="middle" x="342.62" y="-5101390.07" font-family="Helvetica,sans-Serif" font-size="10.00">sqsh_utils.h</text>
</a>
</g>
</g>
<!-- Node3&#45;&gt;Node21 -->
<g id="edge34_Node000003_Node000021" class="edge">
<title>Node3&#45;&gt;Node21</title>
<g id="a_edge34_Node000003_Node000021"><a xlink:title=" ">
<path fill="none" stroke="#63b8ff" d="M682.65,-5830163.78C679.6,-5830163.19 676.55,-5830162.64 673.62,-5830162.13 615.25,-5830152.15 448.55,-5830170.74 409.62,-5830126.13 409.62,-5830126.13 343.02,-5105789.02 342.62,-5101415.21"/>
<polygon fill="#63b8ff" stroke="#63b8ff" points="346.12,-5101415.42 342.62,-5101405.42 339.12,-5101415.42 346.12,-5101415.42"/>
</a>
</g>
</g>
<!-- Node22 -->
<g id="Node000022" class="node">
<title>Node22</title>
<g id="a_Node000022"><a xlink:href="sqsh__xattr_8h.html" target="_top" xlink:title=" ">
<polygon fill="white" stroke="#666666" points="697.62,-5101403.57 591.62,-5101403.57 591.62,-5101385.07 697.62,-5101385.07 697.62,-5101403.57"/>
<text text-anchor="middle" x="644.62" y="-5101390.07" font-family="Helvetica,sans-Serif" font-size="10.00">sqsh_xattr.h</text>
</a>
</g>
</g>
<!-- Node3&#45;&gt;Node22 -->
<g id="edge36_Node000003_Node000022" class="edge">
<title>Node3&#45;&gt;Node22</title>
<g id="a_edge36_Node000003_Node000022"><a xlink:title=" ">
<path fill="none" stroke="#63b8ff" d="M711.88,-5830161.95C710.14,-5830153.08 707.6,-5830138.69 706.62,-5830126.13 508.82,-5827611.22 643.8,-5105773.83 644.61,-5101415.14"/>
<polygon fill="#63b8ff" stroke="#63b8ff" points="648.11,-5101415.39 644.61,-5101405.39 641.11,-5101415.39 648.11,-5101415.39"/>
</a>
</g>
</g>
<!-- Node4&#45;&gt;Node5 -->
<g id="edge4_Node000004_Node000005" class="edge">
<title>Node4&#45;&gt;Node5</title>
<g id="a_edge4_Node000004_Node000005"><a xlink:title=" ">
<path fill="none" stroke="#63b8ff" d="M512.45,-4372662.02C513.31,-3947567.44 516.06,-3401016.73 523.62,-2915193.95 523.62,-2915185.87 523.62,-2915177.79 523.62,-2915169.7"/>
<polygon fill="#63b8ff" stroke="#63b8ff" points="527.12,-2915169.79 523.62,-2915159.79 520.12,-2915169.79 527.12,-2915169.79"/>
</a>
</g>
</g>
<!-- Node9 -->
<g id="Node000009" class="node">
<title>Node9</title>
<g id="a_Node000009"><a xlink:href="sqsh__data_8h.html" target="_top" xlink:title=" ">
<polygon fill="white" stroke="#666666" points="630.87,-3643931.46 532.37,-3643931.46 532.37,-3643888.99 630.87,-3643888.99 630.87,-3643931.46"/>
<text text-anchor="middle" x="581.62" y="-3643917.96" font-family="Helvetica,sans-Serif" font-size="10.00">sqsh_data.h</text>
</a>
</g>
</g>
<!-- Node4&#45;&gt;Node9 -->
<g id="edge8_Node000004_Node000009" class="edge">
<title>Node4&#45;&gt;Node9</title>
<g id="a_edge8_Node000004_Node000009"><a xlink:title=" ">
<path fill="none" stroke="#63b8ff" d="M547.12,-4372662.18C564.27,-4010254.87 581.43,-3647844.3 581.61,-3643943.01"/>
<polygon fill="#63b8ff" stroke="#63b8ff" points="585.11,-3643943.24 581.62,-3643933.24 578.11,-3643943.24 585.11,-3643943.24"/>
</a>
</g>
</g>
<!-- Node6 -->
<g id="Node000006" class="node">
<title>Node6</title>
<g id="a_Node000006"><a xlink:title=" ">
<polygon fill="#e0e0e0" stroke="#999999" points="584.37,-1457658.25 500.87,-1457658.25 500.87,0 584.37,0 584.37,-1457658.25"/>
<text text-anchor="middle" x="542.62" y="-1457644.75" font-family="Helvetica,sans-Serif" font-size="10.00">stdbool.h</text>
</a>
</g>
</g>
<!-- Node5&#45;&gt;Node6 -->
<g id="edge5_Node000005_Node000006" class="edge">
<title>Node5&#45;&gt;Node6</title>
<g id="a_edge5_Node000005_Node000006"><a xlink:title=" ">
<path fill="none" stroke="#63b8ff" d="M542.62,-1457693.82C542.62,-1457685.85 542.62,-1457677.87 542.62,-1457669.9"/>
<polygon fill="#63b8ff" stroke="#63b8ff" points="546.12,-1457670.14 542.62,-1457660.14 539.12,-1457670.14 546.12,-1457670.14"/>
</a>
</g>
</g>
<!-- Node7 -->
<g id="Node000007" class="node">
<title>Node7</title>
<g id="a_Node000007"><a xlink:title=" ">
<polygon fill="#e0e0e0" stroke="#999999" points="404.62,-728850.36 328.62,-728850.36 328.62,-728807.89 404.62,-728807.89 404.62,-728850.36"/>
<text text-anchor="middle" x="366.62" y="-728836.86" font-family="Helvetica,sans-Serif" font-size="10.00">stddef.h</text>
</a>
</g>
</g>
<!-- Node5&#45;&gt;Node7 -->
<g id="edge6_Node000005_Node000007" class="edge">
<title>Node5&#45;&gt;Node7</title>
<g id="a_edge6_Node000005_Node000007"><a xlink:title=" ">
<path fill="none" stroke="#63b8ff" d="M485.37,-1712292.7C434.21,-1288651.86 367.2,-733694.2 366.62,-728861.9"/>
<polygon fill="#63b8ff" stroke="#63b8ff" points="370.12,-728862.23 366.62,-728852.23 363.12,-728862.23 370.12,-728862.23"/>
</a>
</g>
</g>
<!-- Node8 -->
<g id="Node000008" class="node">
<title>Node8</title>
<g id="a_Node000008"><a xlink:title=" ">
<polygon fill="#e0e0e0" stroke="#999999" points="983.62,-728838.38 907.62,-728838.38 907.62,-728819.88 983.62,-728819.88 983.62,-728838.38"/>
<text text-anchor="middle" x="945.62" y="-728824.88" font-family="Helvetica,sans-Serif" font-size="10.00">stdint.h</text>
</a>
</g>
</g>
<!-- Node5&#45;&gt;Node8 -->
<g id="edge7_Node000005_Node000008" class="edge">
<title>Node5&#45;&gt;Node8</title>
<g id="a_edge7_Node000005_Node000008"><a xlink:title=" ">
<path fill="none" stroke="#63b8ff" d="M599.87,-1979360.12C710.79,-1578163.98 944.3,-733586.45 945.61,-728850.13"/>
<polygon fill="#63b8ff" stroke="#63b8ff" points="949.11,-728850.17 945.61,-728840.16 942.11,-728850.16 949.11,-728850.17"/>
</a>
</g>
</g>
<!-- Node9&#45;&gt;Node5 -->
<g id="edge9_Node000009_Node000005" class="edge">
<title>Node9&#45;&gt;Node5</title>
<g id="a_edge9_Node000009_Node000005"><a xlink:title=" ">
<path fill="none" stroke="#63b8ff" d="M581.62,-3643888.73C581.53,-3640751.24 571.82,-3277960.77 562.12,-2915169.77"/>
<polygon fill="#63b8ff" stroke="#63b8ff" points="565.62,-2915169.87 562.12,-2915159.87 558.62,-2915169.87 565.62,-2915169.87"/>
</a>
</g>
</g>
<!-- Node10&#45;&gt;Node11 -->
<g id="edge12_Node000010_Node000011" class="edge">
<title>Node10&#45;&gt;Node11</title>
<g id="a_edge12_Node000010_Node000011"><a xlink:title=" ">
<path fill="none" stroke="#63b8ff" d="M783.62,-5101381.01C783.63,-5096515.17 786.6,-3650107.79 786.62,-3643931.07"/>
<polygon fill="#63b8ff" stroke="#63b8ff" points="790.12,-3643931.32 786.62,-3643921.32 783.12,-3643931.32 790.12,-3643931.32"/>
</a>
</g>
</g>
<!-- Node11&#45;&gt;Node5 -->
<g id="edge13_Node000011_Node000005" class="edge">
<title>Node11&#45;&gt;Node5</title>
<g id="a_edge13_Node000011_Node000005"><a xlink:title=" ">
<path fill="none" stroke="#63b8ff" d="M786.61,-3643900.48C786.3,-3641735.37 726.69,-3238197.63 672.62,-2915193.95 649.77,-2778704.63 623.09,-2627836.23 599.87,-2498944.66"/>
<polygon fill="#63b8ff" stroke="#63b8ff" points="603.37,-2498944.74 599.87,-2498934.74 596.37,-2498944.74 603.37,-2498944.74"/>
</a>
</g>
</g>
<!-- Node12&#45;&gt;Node5 -->
<g id="edge15_Node000012_Node000005" class="edge">
<title>Node12&#45;&gt;Node5</title>
<g id="a_edge15_Node000012_Node000005"><a xlink:title=" ">
<path fill="none" stroke="#63b8ff" d="M1073.62,-5101384.73C1073.38,-5098505.1 1014.62,-4372662.5 1014.62,-4372662.5 995.51,-4372631.78 960.72,-4372657.22 941.62,-4372626.5 941.62,-4372626.5 888.62,-2915193.95 888.62,-2915193.95 830.24,-2686778.58 682.13,-2418092.96 599.87,-2279531.34"/>
<polygon fill="#63b8ff" stroke="#63b8ff" points="603.37,-2279531.36 599.87,-2279521.36 596.37,-2279531.36 603.37,-2279531.36"/>
</a>
</g>
</g>
<!-- Node13 -->
<g id="Node000013" class="node">
<title>Node13</title>
<g id="a_Node000013"><a xlink:title=" ">
<polygon fill="#e0e0e0" stroke="#999999" points="1097.87,-4372626.5 1029.37,-4372626.5 1029.37,-2915193.95 1097.87,-2915193.95 1097.87,-4372626.5"/>
<text text-anchor="middle" x="1063.62" y="-4372613" font-family="Helvetica,sans-Serif" font-size="10.00">fcntl.h</text>
</a>
</g>
</g>
<!-- Node12&#45;&gt;Node13 -->
<g id="edge16_Node000012_Node000013" class="edge">
<title>Node12&#45;&gt;Node13</title>
<g id="a_edge16_Node000012_Node000013"><a xlink:title=" ">
<path fill="none" stroke="#63b8ff" d="M1073.62,-5101384.71C1073.6,-5099347.27 1071.11,-4735990.53 1068.62,-4372638.39"/>
<polygon fill="#63b8ff" stroke="#63b8ff" points="1072.12,-4372638.47 1068.62,-4372628.47 1065.12,-4372638.47 1072.12,-4372638.47"/>
</a>
</g>
</g>
<!-- Node12&#45;&gt;Node14 -->
<g id="edge17_Node000012_Node000014" class="edge">
<title>Node12&#45;&gt;Node14</title>
<g id="a_edge17_Node000012_Node000014"><a xlink:title=" ">
<path fill="none" stroke="#63b8ff" d="M1073.62,-5101384.71C1073.74,-5099056.66 1098.79,-4624984.75 1120.28,-4218206.92"/>
<polygon fill="#63b8ff" stroke="#63b8ff" points="1123.78,-4218207.08 1120.28,-4218197.08 1116.78,-4218207.08 1123.78,-4218207.08"/>
</a>
</g>
</g>
<!-- Node15 -->
<g id="Node000015" class="node">
<title>Node15</title>
<g id="a_Node000015"><a xlink:title=" ">
<polygon fill="#e0e0e0" stroke="#999999" points="1011.12,-3643923.23 950.12,-3643923.23 950.12,-3643897.23 1011.12,-3643897.23 1011.12,-3643923.23"/>
<text text-anchor="middle" x="980.62" y="-3643909.73" font-family="Helvetica,sans-Serif" font-size="10.00">time.h</text>
</a>
</g>
</g>
<!-- Node12&#45;&gt;Node15 -->
<g id="edge18_Node000012_Node000015" class="edge">
<title>Node12&#45;&gt;Node15</title>
<g id="a_edge18_Node000012_Node000015"><a xlink:title=" ">
<path fill="none" stroke="#63b8ff" d="M1073.62,-5101384.96C1073.45,-5099268.7 1041.23,-4695672.8 1020.62,-4372626.5 1000.04,-4050184.92 980.79,-3647489.32 980.62,-3643934.93"/>
<polygon fill="#63b8ff" stroke="#63b8ff" points="984.12,-3643934.96 980.62,-3643924.96 977.12,-3643934.96 984.12,-3643934.96"/>
</a>
</g>
</g>
<!-- Node16&#45;&gt;Node5 -->
<g id="edge20_Node000016_Node000005" class="edge">
<title>Node16&#45;&gt;Node5</title>
<g id="a_edge20_Node000016_Node000005"><a xlink:title=" ">
<path fill="none" stroke="#63b8ff" d="M223.62,-3643888.65C223.54,-3640574.81 215.02,-3237733.08 285.62,-2915193.95 331.25,-2706707.02 424.62,-2464670.17 485.36,-2318656.71"/>
<polygon fill="#63b8ff" stroke="#63b8ff" points="488.86,-2318656.94 485.37,-2318646.94 481.86,-2318656.94 488.86,-2318656.94"/>
</a>
</g>
</g>
<!-- Node17&#45;&gt;Node5 -->
<g id="edge23_Node000017_Node000005" class="edge">
<title>Node17&#45;&gt;Node5</title>
<g id="a_edge23_Node000017_Node000005"><a xlink:title=" ">
<path fill="none" stroke="#63b8ff" d="M95.61,-3643900.64C94.61,-3641023.24 -157.12,-2915738.89 161.62,-2915193.95 178.09,-2915165.78 209.13,-2915186.12 225.62,-2915157.95 1305.59,-2913312.29 786.56,-2394108.95 599.88,-2233322.64"/>
<polygon fill="#63b8ff" stroke="#63b8ff" points="603.38,-2233322.65 599.87,-2233312.65 596.38,-2233322.66 603.38,-2233322.65"/>
</a>
</g>
</g>
<!-- Node17&#45;&gt;Node7 -->
<g id="edge24_Node000017_Node000007" class="edge">
<title>Node17&#45;&gt;Node7</title>
<g id="a_edge24_Node000017_Node000007"><a xlink:title=" ">
<path fill="none" stroke="#63b8ff" d="M95.62,-3643900.48C95.81,-3641735.37 131.85,-3238197.63 161.62,-2915193.95 250.91,-1946351.84 365.93,-736015.85 366.61,-728861.99"/>
<polygon fill="#63b8ff" stroke="#63b8ff" points="370.11,-728862.27 366.61,-728852.27 363.11,-728862.27 370.11,-728862.27"/>
</a>
</g>
</g>
<!-- Node18&#45;&gt;Node5 -->
<g id="edge26_Node000018_Node000005" class="edge">
<title>Node18&#45;&gt;Node5</title>
<g id="a_edge26_Node000018_Node000005"><a xlink:title=" ">
<path fill="none" stroke="#63b8ff" d="M1231.62,-5101384.99C1231.66,-5096607.1 1248.86,-3036508.61 1193.62,-2915193.95 1076.71,-2658445.59 736.09,-2350817.12 599.88,-2234300.81"/>
<polygon fill="#63b8ff" stroke="#63b8ff" points="603.38,-2234300.99 599.87,-2234290.99 596.38,-2234301 603.38,-2234300.99"/>
</a>
</g>
</g>
<!-- Node18&#45;&gt;Node8 -->
<g id="edge27_Node000018_Node000008" class="edge">
<title>Node18&#45;&gt;Node8</title>
<g id="a_edge27_Node000018_Node000008"><a xlink:title=" ">
<path fill="none" stroke="#63b8ff" d="M1231.62,-5101384.84C1231.8,-5097687.36 1291.07,-3885355.5 1227.62,-2915193.95 1164.21,-1945744.06 946.63,-734497.22 945.62,-728849.95"/>
<polygon fill="#63b8ff" stroke="#63b8ff" points="949.12,-728850.12 945.62,-728840.12 942.12,-728850.12 949.12,-728850.12"/>
</a>
</g>
</g>
<!-- Node18&#45;&gt;Node14 -->
<g id="edge28_Node000018_Node000014" class="edge">
<title>Node18&#45;&gt;Node14</title>
<g id="a_edge28_Node000018_Node000014"><a xlink:title=" ">
<path fill="none" stroke="#63b8ff" d="M1231.62,-5101384.71C1231.49,-5099056.66 1205.14,-4624984.75 1182.53,-4218206.92"/>
<polygon fill="#63b8ff" stroke="#63b8ff" points="1186.03,-4218207.08 1182.53,-4218197.08 1179.03,-4218207.08 1186.03,-4218207.08"/>
</a>
</g>
</g>
<!-- Node19&#45;&gt;Node5 -->
<g id="edge30_Node000019_Node000005" class="edge">
<title>Node19&#45;&gt;Node5</title>
<g id="a_edge30_Node000019_Node000005"><a xlink:title=" ">
<path fill="none" stroke="#63b8ff" d="M347.62,-3643900.48C347.74,-3641735.37 371.4,-3238197.63 414.62,-2915193.95 433.75,-2772143.99 460.96,-2613299.39 485.36,-2480514.69"/>
<polygon fill="#63b8ff" stroke="#63b8ff" points="488.86,-2480514.8 485.37,-2480504.8 481.86,-2480514.8 488.86,-2480514.8"/>
</a>
</g>
</g>
<!-- Node20&#45;&gt;Node5 -->
<g id="edge32_Node000020_Node000005" class="edge">
<title>Node20&#45;&gt;Node5</title>
<g id="a_edge32_Node000020_Node000005"><a xlink:title=" ">
<path fill="none" stroke="#63b8ff" d="M956.62,-5101381.1C956.4,-5098824.16 922.78,-4695494.87 904.62,-4372626.5 886.39,-4048752.6 918.39,-3239067.85 844.62,-2915193.95 794.37,-2694626.01 672.51,-2436507.34 599.87,-2294266.45"/>
<polygon fill="#63b8ff" stroke="#63b8ff" points="603.37,-2294266.57 599.87,-2294256.57 596.37,-2294266.57 603.37,-2294266.57"/>
</a>
</g>
</g>
<!-- Node20&#45;&gt;Node11 -->
<g id="edge33_Node000020_Node000011" class="edge">
<title>Node20&#45;&gt;Node11</title>
<g id="a_edge33_Node000020_Node000011"><a xlink:title=" ">
<path fill="none" stroke="#63b8ff" d="M956.62,-5101380.96C957.41,-5097930.95 1122.42,-4373250.64 893.62,-4372662.5 885.75,-4372642.28 868.49,-4372646.73 860.62,-4372626.5 631.96,-4372038.76 785.68,-3648301.29 786.61,-3643931.1"/>
<polygon fill="#63b8ff" stroke="#63b8ff" points="790.11,-3643931.33 786.61,-3643921.33 783.11,-3643931.33 790.11,-3643931.33"/>
</a>
</g>
</g>
<!-- Node21&#45;&gt;Node5 -->
<g id="edge35_Node000021_Node000005" class="edge">
<title>Node21&#45;&gt;Node5</title>
<g id="a_edge35_Node000021_Node000005"><a xlink:title=" ">
<path fill="none" stroke="#63b8ff" d="M342.62,-5101384.96C342.86,-5099268.7 390,-4695672.8 409.62,-4372626.5 448.95,-3724878.7 403.06,-3562941.75 452.62,-2915193.95 460.55,-2811547.72 472.62,-2699609.84 485.36,-2595300.19"/>
<polygon fill="#63b8ff" stroke="#63b8ff" points="488.86,-2595300.36 485.37,-2595290.36 481.86,-2595300.36 488.86,-2595300.36"/>
</a>
</g>
</g>
<!-- Node22&#45;&gt;Node5 -->
<g id="edge37_Node000022_Node000005" class="edge">
<title>Node22&#45;&gt;Node5</title>
<g id="a_edge37_Node000022_Node000005"><a xlink:title=" ">
<path fill="none" stroke="#63b8ff" d="M644.62,-5101384.84C644.8,-5097687.36 705.29,-3885355.5 639.62,-2915193.95 631.49,-2795160.69 616.07,-2664006.61 599.87,-2546459.4"/>
<polygon fill="#63b8ff" stroke="#63b8ff" points="603.37,-2546459.48 599.87,-2546449.48 596.37,-2546459.48 603.37,-2546459.48"/>
</a>
</g>
</g>
<!-- Node22&#45;&gt;Node9 -->
<g id="edge38_Node000022_Node000009" class="edge">
<title>Node22&#45;&gt;Node9</title>
<g id="a_edge38_Node000022_Node000009"><a xlink:title=" ">
<path fill="none" stroke="#63b8ff" d="M644.62,-5101384.71C644.44,-5097315.22 581.96,-3651792.18 581.62,-3643943.31"/>
<polygon fill="#63b8ff" stroke="#63b8ff" points="585.12,-3643943.47 581.62,-3643933.47 578.12,-3643943.47 585.12,-3643943.47"/>
</a>
</g>
</g>
</g>
</svg>
