<?xml version="1.0" encoding="UTF-8" standalone="no"?>
<!DOCTYPE svg PUBLIC "-//W3C//DTD SVG 1.1//EN"
 "http://www.w3.org/Graphics/SVG/1.1/DTD/svg11.dtd">
<!-- Generated by graphviz version 8.0.5 (20230430.1635)
 -->
<!-- Title: examples/list_xattrs.c Pages: 1 -->
<!--zoomable 2566552 -->
<svg id="main" version="1.1" xmlns="http://www.w3.org/2000/svg" xmlns:xlink="http://www.w3.org/1999/xlink" xml:space="preserve" onload="init(evt)">
<style type="text/css"><![CDATA[
.edge:hover path { stroke: red; }
.edge:hover polygon { stroke: red; fill: red; }
]]></style>
<script type="text/javascript"><![CDATA[
var edges = document.getElementsByTagName('g');
if (edges && edges.length) {
  for (var i=0;i<edges.length;i++) {
    if (edges[i].id.substr(0,4)=='edge') {
      edges[i].setAttribute('class','edge');
    }
  }
}
]]></script>
        <defs>
                <circle id="rim" cx="0" cy="0" r="7"/>
                <circle id="rim2" cx="0" cy="0" r="3.5"/>
                <g id="zoomPlus">
                        <use xlink:href="#rim" fill="#404040">
                                <set attributeName="fill" to="#808080" begin="zoomplus.mouseover" end="zoomplus.mouseout"/>
                        </use>
                        <path d="M-4,0h8M0,-4v8" fill="none" stroke="white" stroke-width="1.5" pointer-events="none"/>
                </g>
                <g id="zoomMin">
                        <use xlink:href="#rim" fill="#404040">
                                <set attributeName="fill" to="#808080" begin="zoomminus.mouseover" end="zoomminus.mouseout"/>
                        </use>
                        <path d="M-4,0h8" fill="none" stroke="white" stroke-width="1.5" pointer-events="none"/>
                </g>
                <g id="dirArrow">
                        <path fill="none" stroke="white" stroke-width="1.5" d="M0,-3.0v7 M-2.5,-0.5L0,-3.0L2.5,-0.5"/>
                </g>
               <g id="resetDef">
                       <use xlink:href="#rim2" fill="#404040">
                               <set attributeName="fill" to="#808080" begin="reset.mouseover" end="reset.mouseout"/>
                       </use>
               </g>
        </defs>

<script type="text/javascript">
var viewWidth = 1234;
var viewHeight = 2566552;
var sectionId = 'dynsection-0';
</script>
<script xlink:href="svgpan.js"/>
<svg id="graph" class="graph">
<g id="viewport">
<title>examples/list_xattrs.c</title>
<!-- Node1 -->
<g id="node1" class="node">
<title>Node1</title>
<g id="a_node1"><a xlink:title=" ">
<polygon fill="#999999" stroke="#666666" points="486,-2566544.38 305,-2566544.38 305,-2566525.88 486,-2566525.88 486,-2566544.38"/>
<text text-anchor="middle" x="395.5" y="-2566530.88" font-family="Helvetica,sans-Serif" font-size="10.00">examples/list_xattrs.c</text>
</a>
</g>
</g>
<!-- Node2 -->
<g id="node2" class="node">
<title>Node2</title>
<g id="a_node2"><a xlink:title=" ">
<polygon fill="#e0e0e0" stroke="#999999" points="162.5,-2566489.88 86.5,-2566489.88 86.5,-1283284.71 162.5,-1283284.71 162.5,-2566489.88"/>
<text text-anchor="middle" x="124.5" y="-2566476.38" font-family="Helvetica,sans-Serif" font-size="10.00">assert.h</text>
</a>
</g>
</g>
<!-- Node1&#45;&gt;Node2 -->
<g id="edge1" class="edge">
<title>Node1&#45;&gt;Node2</title>
<path fill="none" stroke="#63b8ff" d="M304.61,-2566527.23C251.97,-2566521.13 192.93,-2566509.96 176.5,-2566489.88 -91.89,-2566161.86 18.09,-2194775.3 86,-2017265.81"/>
<polygon fill="#63b8ff" stroke="#63b8ff" points="89.5,-2017265.89 86,-2017255.89 82.5,-2017265.89 89.5,-2017265.89"/>
</g>
<!-- Node3 -->
<g id="node3" class="node">
<title>Node3</title>
<g id="a_node3"><a xlink:href="sqsh_8h.html" target="_top" xlink:title=" ">
<polygon fill="white" stroke="#666666" points="631,-1924896.54 570,-1924896.54 570,-1924878.04 631,-1924878.04 631,-1924896.54"/>
<text text-anchor="middle" x="600.5" y="-1924883.04" font-family="Helvetica,sans-Serif" font-size="10.00">sqsh.h</text>
</a>
</g>
</g>
<!-- Node1&#45;&gt;Node3 -->
<g id="edge2" class="edge">
<title>Node1&#45;&gt;Node3</title>
<path fill="none" stroke="#63b8ff" d="M395.5,-2566525.85C396.35,-2563882.3 599.19,-1928973.91 600.49,-1924907.91"/>
<polygon fill="#63b8ff" stroke="#63b8ff" points="603.99,-1924908.03 600.5,-1924898.03 596.99,-1924908.03 603.99,-1924908.03"/>
</g>
<!-- Node14 -->
<g id="node14" class="node">
<title>Node14</title>
<g id="a_node14"><a xlink:title=" ">
<polygon fill="#e0e0e0" stroke="#999999" points="271.75,-1283166.52 203.25,-1283166.52 203.25,-1283148.02 271.75,-1283148.02 271.75,-1283166.52"/>
<text text-anchor="middle" x="237.5" y="-1283153.02" font-family="Helvetica,sans-Serif" font-size="10.00">stdio.h</text>
</a>
</g>
</g>
<!-- Node1&#45;&gt;Node14 -->
<g id="edge34" class="edge">
<title>Node1&#45;&gt;Node14</title>
<path fill="none" stroke="#63b8ff" d="M395.5,-2566525.46C394.92,-2563662.77 250.75,-1852449.01 209.5,-1283248.71 209.5,-1283229.84 204.58,-1283224.48 209.5,-1283206.27 212.46,-1283195.3 218.62,-1283184.27 224.41,-1283175.56"/>
<polygon fill="#63b8ff" stroke="#63b8ff" points="227.67,-1283178.01 230.6,-1283167.83 221.96,-1283173.96 227.67,-1283178.01"/>
</g>
<!-- Node22 -->
<g id="node22" class="node">
<title>Node22</title>
<g id="a_node22"><a xlink:title=" ">
<polygon fill="#e0e0e0" stroke="#999999" points="725.5,-1924896.54 649.5,-1924896.54 649.5,-1924878.04 725.5,-1924878.04 725.5,-1924896.54"/>
<text text-anchor="middle" x="687.5" y="-1924883.04" font-family="Helvetica,sans-Serif" font-size="10.00">stdlib.h</text>
</a>
</g>
</g>
<!-- Node1&#45;&gt;Node22 -->
<g id="edge35" class="edge">
<title>Node1&#45;&gt;Node22</title>
<path fill="none" stroke="#63b8ff" d="M486.28,-2566529.63C547.59,-2566524.47 620.82,-2566513.43 640.5,-2566489.88 1352.51,-2565637.82 691.68,-1928907.27 687.52,-1924907.22"/>
<polygon fill="#63b8ff" stroke="#63b8ff" points="691.02,-1924907.56 687.51,-1924897.56 684.02,-1924907.56 691.02,-1924907.56"/>
</g>
<!-- Node4 -->
<g id="node4" class="node">
<title>Node4</title>
<g id="a_node4"><a xlink:href="sqsh__archive_8h.html" target="_top" xlink:title=" ">
<polygon fill="white" stroke="#666666" points="1028,-1283240.49 907,-1283240.49 907,-1283214.49 1028,-1283214.49 1028,-1283240.49"/>
<text text-anchor="middle" x="967.5" y="-1283226.99" font-family="Helvetica,sans-Serif" font-size="10.00">sqsh_archive.h</text>
</a>
</g>
</g>
<!-- Node3&#45;&gt;Node4 -->
<g id="edge3" class="edge">
<title>Node3&#45;&gt;Node4</title>
<path fill="none" stroke="#63b8ff" d="M600.49,-1924878.03C597.64,-1922229.64 -88.98,-1284123.44 640.5,-1283284.71 678.35,-1283241.19 841.1,-1283260.74 897.5,-1283248.71 904.08,-1283247.3 910.94,-1283245.61 917.69,-1283243.81"/>
<polygon fill="#63b8ff" stroke="#63b8ff" points="918.43,-1283246.96 927.14,-1283240.92 916.57,-1283240.21 918.43,-1283246.96"/>
</g>
<!-- Node5 -->
<g id="node5" class="node">
<title>Node5</title>
<g id="a_node5"><a xlink:href="sqsh__common_8h.html" target="_top" xlink:title=" ">
<polygon fill="white" stroke="#666666" points="830.25,-1283108.27 716.75,-1283108.27 716.75,-1283089.77 830.25,-1283089.77 830.25,-1283108.27"/>
<text text-anchor="middle" x="773.5" y="-1283094.77" font-family="Helvetica,sans-Serif" font-size="10.00">sqsh_common.h</text>
</a>
</g>
</g>
<!-- Node3&#45;&gt;Node5 -->
<g id="edge10" class="edge">
<title>Node3&#45;&gt;Node5</title>
<path fill="none" stroke="#63b8ff" d="M600.5,-1924878.02C599.1,-1922227.86 263.74,-1283693.31 640.5,-1283284.71 707.45,-1283212.1 994.62,-1283291.78 1083.5,-1283248.71 1126.36,-1283227.94 1139.07,-1283214.59 1156.5,-1283170.27 1160.73,-1283159.51 1164.19,-1283152.89 1156.5,-1283144.27 1135.94,-1283121.19 945.65,-1283108.38 841.27,-1283103.03"/>
<polygon fill="#63b8ff" stroke="#63b8ff" points="841.69,-1283099.5 831.52,-1283102.49 841.34,-1283106.49 841.69,-1283099.5"/>
</g>
<!-- Node10 -->
<g id="node10" class="node">
<title>Node10</title>
<g id="a_node10"><a xlink:href="sqsh__directory_8h.html" target="_top" xlink:title=" ">
<polygon fill="white" stroke="#666666" points="764.5,-1283240.49 628.5,-1283240.49 628.5,-1283214.49 764.5,-1283214.49 764.5,-1283240.49"/>
<text text-anchor="middle" x="696.5" y="-1283226.99" font-family="Helvetica,sans-Serif" font-size="10.00">sqsh_directory.h</text>
</a>
</g>
</g>
<!-- Node3&#45;&gt;Node10 -->
<g id="edge11" class="edge">
<title>Node3&#45;&gt;Node10</title>
<path fill="none" stroke="#63b8ff" d="M600.49,-1924877.55C597.04,-1922156.78 -208.26,-1285339.32 640.5,-1283284.71 646.54,-1283270.1 658.41,-1283257.29 669.68,-1283247.6"/>
<polygon fill="#63b8ff" stroke="#63b8ff" points="671.49,-1283249.83 677.07,-1283240.83 667.09,-1283244.39 671.49,-1283249.83"/>
</g>
<!-- Node11 -->
<g id="node11" class="node">
<title>Node11</title>
<g id="a_node11"><a xlink:href="sqsh__file_8h.html" target="_top" xlink:title=" ">
<polygon fill="white" stroke="#666666" points="693.75,-1283166.52 595.25,-1283166.52 595.25,-1283148.02 693.75,-1283148.02 693.75,-1283166.52"/>
<text text-anchor="middle" x="644.5" y="-1283153.02" font-family="Helvetica,sans-Serif" font-size="10.00">sqsh_file.h</text>
</a>
</g>
</g>
<!-- Node3&#45;&gt;Node11 -->
<g id="edge21" class="edge">
<title>Node3&#45;&gt;Node11</title>
<path fill="none" stroke="#63b8ff" d="M600.49,-1924877.55C598.32,-1922156.9 90.8,-1285365.78 619.5,-1283206.27 622.1,-1283195.64 627.51,-1283184.75 632.63,-1283176.03"/>
<polygon fill="#63b8ff" stroke="#63b8ff" points="635.98,-1283178.28 638.33,-1283167.95 630.05,-1283174.56 635.98,-1283178.28"/>
</g>
<!-- Node12 -->
<g id="node12" class="node">
<title>Node12</title>
<g id="a_node12"><a xlink:href="sqsh__easy_8h.html" target="_top" xlink:title=" ">
<polygon fill="white" stroke="#666666" points="162.75,-1283236.74 64.25,-1283236.74 64.25,-1283218.24 162.75,-1283218.24 162.75,-1283236.74"/>
<text text-anchor="middle" x="113.5" y="-1283223.24" font-family="Helvetica,sans-Serif" font-size="10.00">sqsh_easy.h</text>
</a>
</g>
</g>
<!-- Node3&#45;&gt;Node12 -->
<g id="edge14" class="edge">
<title>Node3&#45;&gt;Node12</title>
<path fill="none" stroke="#63b8ff" d="M600.5,-1924878.03C600.52,-1922230.41 605.21,-1284308.19 171.5,-1283284.71 164.3,-1283267.71 149.17,-1283253.33 136.17,-1283243.37"/>
<polygon fill="#63b8ff" stroke="#63b8ff" points="138.79,-1283240.22 128.63,-1283237.2 134.69,-1283245.89 138.79,-1283240.22"/>
</g>
<!-- Node16 -->
<g id="node16" class="node">
<title>Node16</title>
<g id="a_node16"><a xlink:href="sqsh__error_8h.html" target="_top" xlink:title=" ">
<polygon fill="white" stroke="#666666" points="1023.5,-1283166.52 917.5,-1283166.52 917.5,-1283148.02 1023.5,-1283148.02 1023.5,-1283166.52"/>
<text text-anchor="middle" x="970.5" y="-1283153.02" font-family="Helvetica,sans-Serif" font-size="10.00">sqsh_error.h</text>
</a>
</g>
</g>
<!-- Node3&#45;&gt;Node16 -->
<g id="edge19" class="edge">
<title>Node3&#45;&gt;Node16</title>
<path fill="none" stroke="#63b8ff" d="M600.49,-1924878.03C597.55,-1922229.57 -109.2,-1284105.42 640.5,-1283284.71 700.25,-1283219.3 977.76,-1283314.11 1037.5,-1283248.71 1050.22,-1283234.78 1046.12,-1283223.04 1037.5,-1283206.27 1029.82,-1283191.31 1015.08,-1283179.97 1001.37,-1283172.08"/>
<polygon fill="#63b8ff" stroke="#63b8ff" points="1003.17,-1283168.54 992.69,-1283166.94 999.88,-1283174.72 1003.17,-1283168.54"/>
</g>
<!-- Node17 -->
<g id="node17" class="node">
<title>Node17</title>
<g id="a_node17"><a xlink:href="sqsh__mapper_8h.html" target="_top" xlink:title=" ">
<polygon fill="white" stroke="#666666" points="332.25,-1283236.74 218.75,-1283236.74 218.75,-1283218.24 332.25,-1283218.24 332.25,-1283236.74"/>
<text text-anchor="middle" x="275.5" y="-1283223.24" font-family="Helvetica,sans-Serif" font-size="10.00">sqsh_mapper.h</text>
</a>
</g>
</g>
<!-- Node3&#45;&gt;Node17 -->
<g id="edge22" class="edge">
<title>Node3&#45;&gt;Node17</title>
<path fill="none" stroke="#63b8ff" d="M600.5,-1924878.02C599.16,-1922234.42 277.57,-1287314.18 275.51,-1283248.1"/>
<polygon fill="#63b8ff" stroke="#63b8ff" points="279.01,-1283248.22 275.5,-1283238.22 272.01,-1283248.22 279.01,-1283248.22"/>
</g>
<!-- Node18 -->
<g id="node18" class="node">
<title>Node18</title>
<g id="a_node18"><a xlink:href="sqsh__posix_8h.html" target="_top" xlink:title=" ">
<polygon fill="white" stroke="#666666" points="456.5,-1283248.71 350.5,-1283248.71 350.5,-1283206.27 456.5,-1283206.27 456.5,-1283248.71"/>
<text text-anchor="middle" x="403.5" y="-1283235.21" font-family="Helvetica,sans-Serif" font-size="10.00">sqsh_posix.h</text>
</a>
</g>
</g>
<!-- Node3&#45;&gt;Node18 -->
<g id="edge23" class="edge">
<title>Node3&#45;&gt;Node18</title>
<path fill="none" stroke="#63b8ff" d="M600.5,-1924878.02C599.69,-1922236.6 405.08,-1288363.16 403.51,-1283259.47"/>
<polygon fill="#63b8ff" stroke="#63b8ff" points="407.01,-1283259.88 403.51,-1283249.88 400.01,-1283259.88 407.01,-1283259.88"/>
</g>
<!-- Node19 -->
<g id="node19" class="node">
<title>Node19</title>
<g id="a_node19"><a xlink:href="sqsh__table_8h.html" target="_top" xlink:title=" ">
<polygon fill="white" stroke="#666666" points="1147.5,-1283170.27 1041.5,-1283170.27 1041.5,-1283144.27 1147.5,-1283144.27 1147.5,-1283170.27"/>
<text text-anchor="middle" x="1094.5" y="-1283156.77" font-family="Helvetica,sans-Serif" font-size="10.00">sqsh_table.h</text>
</a>
</g>
</g>
<!-- Node3&#45;&gt;Node19 -->
<g id="edge26" class="edge">
<title>Node3&#45;&gt;Node19</title>
<path fill="none" stroke="#63b8ff" d="M600.49,-1924878.03C597.55,-1922229.56 -110.8,-1284103.95 640.5,-1283284.71 703.07,-1283216.48 980.44,-1283302.88 1055.5,-1283248.71 1077.26,-1283233 1087,-1283202.56 1091.28,-1283181.36"/>
<polygon fill="#63b8ff" stroke="#63b8ff" points="1094.87,-1283182.13 1093.13,-1283171.68 1087.97,-1283180.93 1094.87,-1283182.13"/>
</g>
<!-- Node20 -->
<g id="node20" class="node">
<title>Node20</title>
<g id="a_node20"><a xlink:href="sqsh__tree_8h.html" target="_top" xlink:title=" ">
<polygon fill="white" stroke="#666666" points="572.75,-1283236.74 474.25,-1283236.74 474.25,-1283218.24 572.75,-1283218.24 572.75,-1283236.74"/>
<text text-anchor="middle" x="523.5" y="-1283223.24" font-family="Helvetica,sans-Serif" font-size="10.00">sqsh_tree.h</text>
</a>
</g>
</g>
<!-- Node3&#45;&gt;Node20 -->
<g id="edge28" class="edge">
<title>Node3&#45;&gt;Node20</title>
<path fill="none" stroke="#63b8ff" d="M600.5,-1924878.02C600.18,-1922234.42 523.99,-1287314.18 523.5,-1283248.1"/>
<polygon fill="#63b8ff" stroke="#63b8ff" points="527,-1283248.22 523.5,-1283238.22 520,-1283248.22 527,-1283248.22"/>
</g>
<!-- Node21 -->
<g id="node21" class="node">
<title>Node21</title>
<g id="a_node21"><a xlink:href="sqsh__xattr_8h.html" target="_top" xlink:title=" ">
<polygon fill="white" stroke="#666666" points="888.5,-1283236.74 782.5,-1283236.74 782.5,-1283218.24 888.5,-1283218.24 888.5,-1283236.74"/>
<text text-anchor="middle" x="835.5" y="-1283223.24" font-family="Helvetica,sans-Serif" font-size="10.00">sqsh_xattr.h</text>
</a>
</g>
</g>
<!-- Node3&#45;&gt;Node21 -->
<g id="edge31" class="edge">
<title>Node3&#45;&gt;Node21</title>
<path fill="none" stroke="#63b8ff" d="M600.49,-1924878.03C597.86,-1922229.82 -35.09,-1284167.42 640.5,-1283284.71 677.72,-1283236.08 714.82,-1283266.21 773.5,-1283248.71 781.97,-1283246.18 791.04,-1283243.32 799.55,-1283240.55"/>
<polygon fill="#63b8ff" stroke="#63b8ff" points="800.54,-1283243.59 808.95,-1283237.14 798.36,-1283236.93 800.54,-1283243.59"/>
</g>
<!-- Node4&#45;&gt;Node5 -->
<g id="edge4" class="edge">
<title>Node4&#45;&gt;Node5</title>
<path fill="none" stroke="#63b8ff" d="M955.21,-1283214.1C937.61,-1283196.85 903.68,-1283165.32 870.5,-1283144.27 850.59,-1283131.63 826.47,-1283120.61 807.27,-1283112.73"/>
<polygon fill="#63b8ff" stroke="#63b8ff" points="808.74,-1283109.15 798.16,-1283108.68 806.14,-1283115.65 808.74,-1283109.15"/>
</g>
<!-- Node9 -->
<g id="node9" class="node">
<title>Node9</title>
<g id="a_node9"><a xlink:href="sqsh__data_8h.html" target="_top" xlink:title=" ">
<polygon fill="white" stroke="#666666" points="861.75,-1283170.27 763.25,-1283170.27 763.25,-1283144.27 861.75,-1283144.27 861.75,-1283170.27"/>
<text text-anchor="middle" x="812.5" y="-1283156.77" font-family="Helvetica,sans-Serif" font-size="10.00">sqsh_data.h</text>
</a>
</g>
</g>
<!-- Node4&#45;&gt;Node9 -->
<g id="edge8" class="edge">
<title>Node4&#45;&gt;Node9</title>
<path fill="none" stroke="#63b8ff" d="M939.43,-1283214.13C914.68,-1283203.24 878.37,-1283187.26 850.93,-1283175.18"/>
<polygon fill="#63b8ff" stroke="#63b8ff" points="852.45,-1283171.58 841.88,-1283170.76 849.63,-1283177.99 852.45,-1283171.58"/>
</g>
<!-- Node6 -->
<g id="node6" class="node">
<title>Node6</title>
<g id="a_node6"><a xlink:title=" ">
<polygon fill="#e0e0e0" stroke="#999999" points="717.25,-641536.13 633.75,-641536.13 633.75,-641517.63 717.25,-641517.63 717.25,-641536.13"/>
<text text-anchor="middle" x="675.5" y="-641522.63" font-family="Helvetica,sans-Serif" font-size="10.00">stdbool.h</text>
</a>
</g>
</g>
<!-- Node5&#45;&gt;Node6 -->
<g id="edge5" class="edge">
<title>Node5&#45;&gt;Node6</title>
<path fill="none" stroke="#63b8ff" d="M759.43,-1283089.48C748.16,-1283081.74 733.17,-1283069.2 726.5,-1283053.77 -154.09,-1281015.46 670.19,-645616.67 675.47,-641547.51"/>
<polygon fill="#63b8ff" stroke="#63b8ff" points="678.98,-641547.63 675.49,-641537.63 671.98,-641547.62 678.98,-641547.63"/>
</g>
<!-- Node7 -->
<g id="node7" class="node">
<title>Node7</title>
<g id="a_node7"><a xlink:title=" ">
<polygon fill="#e0e0e0" stroke="#999999" points="811.5,-1283053.77 735.5,-1283053.77 735.5,0 811.5,0 811.5,-1283053.77"/>
<text text-anchor="middle" x="773.5" y="-1283040.27" font-family="Helvetica,sans-Serif" font-size="10.00">stddef.h</text>
</a>
</g>
</g>
<!-- Node5&#45;&gt;Node7 -->
<g id="edge6" class="edge">
<title>Node5&#45;&gt;Node7</title>
<path fill="none" stroke="#63b8ff" d="M773.5,-1283089.74C773.5,-1283084.22 773.5,-1283075.96 773.5,-1283064.95"/>
<polygon fill="#63b8ff" stroke="#63b8ff" points="777,-1283065.08 773.5,-1283055.08 770,-1283065.08 777,-1283065.08"/>
</g>
<!-- Node8 -->
<g id="node8" class="node">
<title>Node8</title>
<g id="a_node8"><a xlink:title=" ">
<polygon fill="#e0e0e0" stroke="#999999" points="905.5,-641536.13 829.5,-641536.13 829.5,-641517.63 905.5,-641517.63 905.5,-641536.13"/>
<text text-anchor="middle" x="867.5" y="-641522.63" font-family="Helvetica,sans-Serif" font-size="10.00">stdint.h</text>
</a>
</g>
</g>
<!-- Node5&#45;&gt;Node8 -->
<g id="edge7" class="edge">
<title>Node5&#45;&gt;Node8</title>
<path fill="none" stroke="#63b8ff" d="M787.57,-1283089.48C798.84,-1283081.74 813.83,-1283069.2 820.5,-1283053.77 1701.08,-1281015.46 872.84,-645616.67 867.53,-641547.51"/>
<polygon fill="#63b8ff" stroke="#63b8ff" points="871.02,-641547.62 867.51,-641537.63 864.02,-641547.63 871.02,-641547.62"/>
</g>
<!-- Node9&#45;&gt;Node5 -->
<g id="edge9" class="edge">
<title>Node9&#45;&gt;Node5</title>
<path fill="none" stroke="#63b8ff" d="M803.84,-1283143.78C798.43,-1283135.97 791.38,-1283125.81 785.44,-1283117.24"/>
<polygon fill="#63b8ff" stroke="#63b8ff" points="787.93,-1283115.68 779.35,-1283109.46 782.17,-1283119.67 787.93,-1283115.68"/>
</g>
<!-- Node10&#45;&gt;Node11 -->
<g id="edge12" class="edge">
<title>Node10&#45;&gt;Node11</title>
<path fill="none" stroke="#63b8ff" d="M687.2,-1283214.29C679,-1283203.52 666.94,-1283187.71 657.73,-1283175.62"/>
<polygon fill="#63b8ff" stroke="#63b8ff" points="659.93,-1283173.73 651.08,-1283167.9 654.36,-1283177.97 659.93,-1283173.73"/>
</g>
<!-- Node11&#45;&gt;Node5 -->
<g id="edge13" class="edge">
<title>Node11&#45;&gt;Node5</title>
<path fill="none" stroke="#63b8ff" d="M664.37,-1283147.6C685.65,-1283138.32 719.62,-1283123.51 744.01,-1283112.87"/>
<polygon fill="#63b8ff" stroke="#63b8ff" points="745.05,-1283115.8 752.82,-1283108.6 742.25,-1283109.39 745.05,-1283115.8"/>
</g>
<!-- Node12&#45;&gt;Node5 -->
<g id="edge15" class="edge">
<title>Node12&#45;&gt;Node5</title>
<path fill="none" stroke="#63b8ff" d="M118.89,-1283217.78C130.32,-1283200.21 158.88,-1283160.8 194.5,-1283144.27 283.67,-1283102.88 572.99,-1283098.87 705.77,-1283099.31"/>
<polygon fill="#63b8ff" stroke="#63b8ff" points="705.57,-1283102.81 715.59,-1283099.35 705.6,-1283095.81 705.57,-1283102.81"/>
</g>
<!-- Node13 -->
<g id="node13" class="node">
<title>Node13</title>
<g id="a_node13"><a xlink:title=" ">
<polygon fill="#e0e0e0" stroke="#999999" points="147.75,-1283166.52 79.25,-1283166.52 79.25,-1283148.02 147.75,-1283148.02 147.75,-1283166.52"/>
<text text-anchor="middle" x="113.5" y="-1283153.02" font-family="Helvetica,sans-Serif" font-size="10.00">fcntl.h</text>
</a>
</g>
</g>
<!-- Node12&#45;&gt;Node13 -->
<g id="edge16" class="edge">
<title>Node12&#45;&gt;Node13</title>
<path fill="none" stroke="#63b8ff" d="M113.5,-1283217.85C113.5,-1283207.74 113.5,-1283190.72 113.5,-1283177.45"/>
<polygon fill="#63b8ff" stroke="#63b8ff" points="117,-1283177.62 113.5,-1283167.62 110,-1283177.62 117,-1283177.62"/>
</g>
<!-- Node12&#45;&gt;Node14 -->
<g id="edge17" class="edge">
<title>Node12&#45;&gt;Node14</title>
<path fill="none" stroke="#63b8ff" d="M129.2,-1283217.85C150.17,-1283206.31 187.54,-1283185.75 212.42,-1283172.06"/>
<polygon fill="#63b8ff" stroke="#63b8ff" points="213.85,-1283174.72 220.92,-1283166.84 210.47,-1283168.59 213.85,-1283174.72"/>
</g>
<!-- Node15 -->
<g id="node15" class="node">
<title>Node15</title>
<g id="a_node15"><a xlink:title=" ">
<polygon fill="#e0e0e0" stroke="#999999" points="61,-1283166.52 0,-1283166.52 0,-1283148.02 61,-1283148.02 61,-1283166.52"/>
<text text-anchor="middle" x="30.5" y="-1283153.02" font-family="Helvetica,sans-Serif" font-size="10.00">time.h</text>
</a>
</g>
</g>
<!-- Node12&#45;&gt;Node15 -->
<g id="edge18" class="edge">
<title>Node12&#45;&gt;Node15</title>
<path fill="none" stroke="#63b8ff" d="M102.99,-1283217.85C89.52,-1283206.77 65.93,-1283187.38 49.32,-1283173.74"/>
<polygon fill="#63b8ff" stroke="#63b8ff" points="51.87,-1283170.48 41.93,-1283166.84 47.43,-1283175.89 51.87,-1283170.48"/>
</g>
<!-- Node16&#45;&gt;Node5 -->
<g id="edge20" class="edge">
<title>Node16&#45;&gt;Node5</title>
<path fill="none" stroke="#63b8ff" d="M940.15,-1283147.6C906.46,-1283137.98 851.89,-1283122.4 814.44,-1283111.71"/>
<polygon fill="#63b8ff" stroke="#63b8ff" points="815.46,-1283108.07 804.88,-1283108.69 813.54,-1283114.8 815.46,-1283108.07"/>
</g>
<!-- Node18&#45;&gt;Node5 -->
<g id="edge24" class="edge">
<title>Node18&#45;&gt;Node5</title>
<path fill="none" stroke="#63b8ff" d="M434.59,-1283205.94C464.24,-1283187.24 510.74,-1283160.19 554.5,-1283144.27 603.56,-1283126.41 661.57,-1283115.1 705.56,-1283108.39"/>
<polygon fill="#63b8ff" stroke="#63b8ff" points="706.04,-1283111.7 715.42,-1283106.78 705.02,-1283104.78 706.04,-1283111.7"/>
</g>
<!-- Node18&#45;&gt;Node14 -->
<g id="edge25" class="edge">
<title>Node18&#45;&gt;Node14</title>
<path fill="none" stroke="#63b8ff" d="M353.24,-1283205.83C325.65,-1283194.49 292.3,-1283180.79 268.5,-1283171.01"/>
<polygon fill="#63b8ff" stroke="#63b8ff" points="270.19,-1283167.51 259.61,-1283166.94 267.53,-1283173.98 270.19,-1283167.51"/>
</g>
<!-- Node19&#45;&gt;Node5 -->
<g id="edge27" class="edge">
<title>Node19&#45;&gt;Node5</title>
<path fill="none" stroke="#63b8ff" d="M1041.08,-1283145.85C1038.18,-1283145.31 1035.3,-1283144.78 1032.5,-1283144.27 966.09,-1283132.17 889.92,-1283119.27 837.46,-1283110.54"/>
<polygon fill="#63b8ff" stroke="#63b8ff" points="838.07,-1283106.93 827.64,-1283108.74 836.93,-1283113.83 838.07,-1283106.93"/>
</g>
<!-- Node20&#45;&gt;Node5 -->
<g id="edge29" class="edge">
<title>Node20&#45;&gt;Node5</title>
<path fill="none" stroke="#63b8ff" d="M527.51,-1283217.95C535.92,-1283201.06 557.07,-1283163.33 586.5,-1283144.27 621.93,-1283121.32 668.01,-1283110.25 705.56,-1283104.92"/>
<polygon fill="#63b8ff" stroke="#63b8ff" points="705.95,-1283108.27 715.41,-1283103.5 705.05,-1283101.32 705.95,-1283108.27"/>
</g>
<!-- Node20&#45;&gt;Node11 -->
<g id="edge30" class="edge">
<title>Node20&#45;&gt;Node11</title>
<path fill="none" stroke="#63b8ff" d="M538.82,-1283217.85C559.28,-1283206.31 595.75,-1283185.75 620.03,-1283172.06"/>
<polygon fill="#63b8ff" stroke="#63b8ff" points="621.31,-1283174.8 628.3,-1283166.84 617.87,-1283168.7 621.31,-1283174.8"/>
</g>
<!-- Node21&#45;&gt;Node5 -->
<g id="edge32" class="edge">
<title>Node21&#45;&gt;Node5</title>
<path fill="none" stroke="#63b8ff" d="M812.61,-1283217.78C793.2,-1283209.02 766.64,-1283193.47 754.5,-1283170.27 745.74,-1283153.53 753.69,-1283132.38 761.82,-1283117.68"/>
<polygon fill="#63b8ff" stroke="#63b8ff" points="765.1,-1283120.04 767.28,-1283109.67 759.11,-1283116.42 765.1,-1283120.04"/>
</g>
<!-- Node21&#45;&gt;Node9 -->
<g id="edge33" class="edge">
<title>Node21&#45;&gt;Node9</title>
<path fill="none" stroke="#63b8ff" d="M832.59,-1283217.85C829.45,-1283208.53 824.32,-1283193.32 820.03,-1283180.6"/>
<polygon fill="#63b8ff" stroke="#63b8ff" points="823.06,-1283179.63 816.55,-1283171.28 816.43,-1283181.87 823.06,-1283179.63"/>
</g>
</g>
</svg>
        <g id="navigator" transform="translate(0 0)" fill="#404254">
                <rect fill="#f2f5e9" fill-opacity="0.5" stroke="#606060" stroke-width=".5" x="0" y="0" width="60" height="60"/>
                <use id="zoomplus" xlink:href="#zoomPlus" x="17" y="9" onmousedown="handleZoom(evt,'in')"/>
                <use id="zoomminus" xlink:href="#zoomMin" x="42" y="9" onmousedown="handleZoom(evt,'out')"/>
                <use id="reset" xlink:href="#resetDef" x="30" y="36" onmousedown="handleReset()"/>
                <g id="arrowUp" xlink:href="#dirArrow" transform="translate(30 24)" onmousedown="handlePan(0,-1)">
                  <use xlink:href="#rim" fill="#404040">
                        <set attributeName="fill" to="#808080" begin="arrowUp.mouseover" end="arrowUp.mouseout"/>
                  </use>
                  <path fill="none" stroke="white" stroke-width="1.5" d="M0,-3.0v7 M-2.5,-0.5L0,-3.0L2.5,-0.5"/>
                </g>
                <g id="arrowRight" xlink:href="#dirArrow" transform="rotate(90) translate(36 -43)" onmousedown="handlePan(1,0)">
                  <use xlink:href="#rim" fill="#404040">
                        <set attributeName="fill" to="#808080" begin="arrowRight.mouseover" end="arrowRight.mouseout"/>
                  </use>
                  <path fill="none" stroke="white" stroke-width="1.5" d="M0,-3.0v7 M-2.5,-0.5L0,-3.0L2.5,-0.5"/>
                </g>
                <g id="arrowDown" xlink:href="#dirArrow" transform="rotate(180) translate(-30 -48)" onmousedown="handlePan(0,1)">
                  <use xlink:href="#rim" fill="#404040">
                        <set attributeName="fill" to="#808080" begin="arrowDown.mouseover" end="arrowDown.mouseout"/>
                  </use>
                  <path fill="none" stroke="white" stroke-width="1.5" d="M0,-3.0v7 M-2.5,-0.5L0,-3.0L2.5,-0.5"/>
                </g>
                <g id="arrowLeft" xlink:href="#dirArrow" transform="rotate(270) translate(-36 17)" onmousedown="handlePan(-1,0)">
                  <use xlink:href="#rim" fill="#404040">
                        <set attributeName="fill" to="#808080" begin="arrowLeft.mouseover" end="arrowLeft.mouseout"/>
                  </use>
                  <path fill="none" stroke="white" stroke-width="1.5" d="M0,-3.0v7 M-2.5,-0.5L0,-3.0L2.5,-0.5"/>
                </g>
        </g>
        <svg viewBox="0 0 15 15" width="100%" height="30px" preserveAspectRatio="xMaxYMin meet">
         <g id="arrow_out" transform="scale(0.3 0.3)">
          <a xlink:href="list__xattrs_8c__incl_org.svg" target="_base">
           <rect id="button" ry="5" rx="5" y="6" x="6" height="38" width="38"
                fill="#f2f5e9" fill-opacity="0.5" stroke="#606060" stroke-width="1.0"/>
           <path id="arrow"
             d="M 11.500037,31.436501 C 11.940474,20.09759 22.043105,11.32322 32.158766,21.979434 L 37.068811,17.246167 C 37.068811,17.246167 37.088388,32 37.088388,32 L 22.160133,31.978069 C 22.160133,31.978069 26.997745,27.140456 26.997745,27.140456 C 18.528582,18.264221 13.291696,25.230495 11.500037,31.436501 z"
             style="fill:#404040;"/>
          </a>
         </g>
        </svg>
</svg>
