<?xml version="1.0" encoding="UTF-8" standalone="no"?>
<!DOCTYPE svg PUBLIC "-//W3C//DTD SVG 1.1//EN"
 "http://www.w3.org/Graphics/SVG/1.1/DTD/svg11.dtd">
<!-- Generated by graphviz version 9.0.0 (20230911.1827)
 -->
<!-- Title: examples/list_dir_ll.c Pages: 1 -->
<svg width="1224pt" height="1504042pt"
 viewBox="0.00 0.00 1223.82 1504041.69" xmlns="http://www.w3.org/2000/svg" xmlns:xlink="http://www.w3.org/1999/xlink">
<g id="graph0" class="graph" transform="scale(1 1) rotate(0) translate(4 1504037.69)">
<title>examples/list_dir_ll.c</title>
<!-- Node1 -->
<g id="Node000001" class="node">
<title>Node1</title>
<g id="a_Node000001"><a xlink:title=" ">
<polygon fill="#999999" stroke="#666666" points="908.01,-1504033.69 727.01,-1504033.69 727.01,-1504015.19 908.01,-1504015.19 908.01,-1504033.69"/>
<text text-anchor="middle" x="817.51" y="-1504020.19" font-family="Helvetica,sans-Serif" font-size="10.00">examples/list_dir_ll.c</text>
</a>
</g>
</g>
<!-- Node2 -->
<g id="Node000002" class="node">
<title>Node2</title>
<g id="a_Node000002"><a xlink:href="sqsh_8h.html" target="_top" xlink:title=" ">
<polygon fill="white" stroke="#666666" points="595.01,-1503979.19 534.01,-1503979.19 534.01,-1503960.61 595.01,-1503960.61 595.01,-1503979.19"/>
<text text-anchor="middle" x="564.51" y="-1503965.69" font-family="Helvetica,sans-Serif" font-size="10.00">sqsh.h</text>
</a>
</g>
</g>
<!-- Node1&#45;&gt;Node2 -->
<g id="edge1_Node000001_Node000002" class="edge">
<title>Node1&#45;&gt;Node2</title>
<g id="a_edge1_Node000001_Node000002"><a xlink:title=" ">
<path fill="none" stroke="#63b8ff" d="M775.45,-1504014.71C728.69,-1504005 653.59,-1503989.4 606.76,-1503979.67"/>
<polygon fill="#63b8ff" stroke="#63b8ff" points="607.48,-1503976.25 596.97,-1503977.64 606.05,-1503983.1 607.48,-1503976.25"/>
</a>
</g>
</g>
<!-- Node13 -->
<g id="Node000013" class="node">
<title>Node13</title>
<g id="a_Node000013"><a xlink:title=" ">
<polygon fill="#e0e0e0" stroke="#999999" points="1104.76,-751910.68 1036.26,-751910.68 1036.26,-751892.18 1104.76,-751892.18 1104.76,-751910.68"/>
<text text-anchor="middle" x="1070.51" y="-751897.18" font-family="Helvetica,sans-Serif" font-size="10.00">stdio.h</text>
</a>
</g>
</g>
<!-- Node1&#45;&gt;Node13 -->
<g id="edge38_Node000001_Node000013" class="edge">
<title>Node1&#45;&gt;Node13</title>
<g id="a_edge38_Node000001_Node000013"><a xlink:title=" ">
<path fill="none" stroke="#63b8ff" d="M887.22,-1504014.72C942.13,-1504003.78 1015.25,-1503979.28 1051.51,-1503924.61 1051.51,-1503924.61 1070.4,-756345.17 1070.51,-751922.14"/>
<polygon fill="#63b8ff" stroke="#63b8ff" points="1074.01,-751922.54 1070.51,-751912.54 1067.01,-751922.54 1074.01,-751922.54"/>
</a>
</g>
</g>
<!-- Node3 -->
<g id="Node000003" class="node">
<title>Node3</title>
<g id="a_Node000003"><a xlink:href="sqsh__archive_8h.html" target="_top" xlink:title=" ">
<polygon fill="white" stroke="#666666" points="493.01,-1253252.2 372.01,-1253252.2 372.01,-1253233.7 493.01,-1253233.7 493.01,-1253252.2"/>
<text text-anchor="middle" x="432.51" y="-1253238.7" font-family="Helvetica,sans-Serif" font-size="10.00">sqsh_archive.h</text>
</a>
</g>
</g>
<!-- Node2&#45;&gt;Node3 -->
<g id="edge2_Node000002_Node000003" class="edge">
<title>Node2&#45;&gt;Node3</title>
<g id="a_edge2_Node000002_Node000003"><a xlink:title=" ">
<path fill="none" stroke="#63b8ff" d="M543.38,-1503960.15C528.99,-1503952.94 511.05,-1503941.19 502.51,-1503924.61 304.35,-1503539.63 431.19,-1255800.91 432.5,-1253263.57"/>
<polygon fill="#63b8ff" stroke="#63b8ff" points="436,-1253263.91 432.5,-1253253.91 429,-1253263.9 436,-1253263.91"/>
</a>
</g>
</g>
<!-- Node4 -->
<g id="Node000004" class="node">
<title>Node4</title>
<g id="a_Node000004"><a xlink:href="sqsh__common_8h.html" target="_top" xlink:title=" ">
<polygon fill="white" stroke="#666666" points="582.26,-501241.57 468.76,-501241.57 468.76,-501215.57 582.26,-501215.57 582.26,-501241.57"/>
<text text-anchor="middle" x="525.51" y="-501228.07" font-family="Helvetica,sans-Serif" font-size="10.00">sqsh_common.h</text>
</a>
</g>
</g>
<!-- Node2&#45;&gt;Node4 -->
<g id="edge9_Node000002_Node000004" class="edge">
<title>Node2&#45;&gt;Node4</title>
<g id="a_edge9_Node000002_Node000004"><a xlink:title=" ">
<path fill="none" stroke="#63b8ff" d="M533.54,-1503966.69C482.56,-1503962.34 384.49,-1503950.72 363.51,-1503924.61 363.51,-1503924.61 363.51,-1002561.29 363.51,-1002561.29 380.86,-1002532.28 413.16,-1002554.31 430.51,-1002525.29 430.51,-1002525.29 463.51,-501277.57 463.51,-501277.57 469.4,-501265.57 479.9,-501255.71 490.6,-501248.12"/>
<polygon fill="#63b8ff" stroke="#63b8ff" points="492.21,-501251.25 498.68,-501242.86 488.39,-501245.38 492.21,-501251.25"/>
</a>
</g>
</g>
<!-- Node9 -->
<g id="Node000009" class="node">
<title>Node9</title>
<g id="a_Node000009"><a xlink:href="sqsh__directory_8h.html" target="_top" xlink:title=" ">
<polygon fill="white" stroke="#666666" points="771.51,-1253255.95 635.51,-1253255.95 635.51,-1253229.95 771.51,-1253229.95 771.51,-1253255.95"/>
<text text-anchor="middle" x="703.51" y="-1253242.45" font-family="Helvetica,sans-Serif" font-size="10.00">sqsh_directory.h</text>
</a>
</g>
</g>
<!-- Node2&#45;&gt;Node9 -->
<g id="edge10_Node000002_Node000009" class="edge">
<title>Node2&#45;&gt;Node9</title>
<g id="a_edge10_Node000002_Node000009"><a xlink:title=" ">
<path fill="none" stroke="#63b8ff" d="M585.63,-1503960.15C600.03,-1503952.94 617.97,-1503941.19 626.51,-1503924.61 824.58,-1503539.82 704.87,-1256043.8 703.52,-1253267.48"/>
<polygon fill="#63b8ff" stroke="#63b8ff" points="707.02,-1253267.61 703.52,-1253257.61 700.02,-1253267.62 707.02,-1253267.61"/>
</a>
</g>
</g>
<!-- Node10 -->
<g id="Node000010" class="node">
<title>Node10</title>
<g id="a_Node000010"><a xlink:href="sqsh__file_8h.html" target="_top" xlink:title=" ">
<polygon fill="white" stroke="#666666" points="768.76,-1002525.29 670.26,-1002525.29 670.26,-501277.57 768.76,-501277.57 768.76,-1002525.29"/>
<text text-anchor="middle" x="719.51" y="-1002511.79" font-family="Helvetica,sans-Serif" font-size="10.00">sqsh_file.h</text>
</a>
</g>
</g>
<!-- Node2&#45;&gt;Node10 -->
<g id="edge20_Node000002_Node000010" class="edge">
<title>Node2&#45;&gt;Node10</title>
<g id="a_edge20_Node000002_Node000010"><a xlink:title=" ">
<path fill="none" stroke="#63b8ff" d="M595.17,-1503967.23C649.11,-1503963.59 757.46,-1503952.86 780.51,-1503924.61 780.51,-1503924.61 780.51,-1002561.29 780.51,-1002561.29 777.86,-980751.44 773.9,-957874.15 769.26,-935183.28"/>
<polygon fill="#63b8ff" stroke="#63b8ff" points="772.76,-935183.36 769.26,-935173.36 765.76,-935183.36 772.76,-935183.36"/>
</a>
</g>
</g>
<!-- Node11 -->
<g id="Node000011" class="node">
<title>Node11</title>
<g id="a_Node000011"><a xlink:href="sqsh__easy_8h.html" target="_top" xlink:title=" ">
<polygon fill="white" stroke="#666666" points="1042.76,-1503924.61 944.26,-1503924.61 944.26,-1002561.29 1042.76,-1002561.29 1042.76,-1503924.61"/>
<text text-anchor="middle" x="993.51" y="-1503911.11" font-family="Helvetica,sans-Serif" font-size="10.00">sqsh_easy.h</text>
</a>
</g>
</g>
<!-- Node2&#45;&gt;Node11 -->
<g id="edge13_Node000002_Node000011" class="edge">
<title>Node2&#45;&gt;Node11</title>
<g id="a_edge13_Node000002_Node000011"><a xlink:title=" ">
<path fill="none" stroke="#63b8ff" d="M595.38,-1503967.51C680.21,-1503963.38 912.1,-1503949.86 934.51,-1503924.61 937.65,-1503921.06 940.69,-1503798.85 943.62,-1503563.12"/>
<polygon fill="#63b8ff" stroke="#63b8ff" points="947.12,-1503563.37 943.74,-1503553.33 940.12,-1503563.28 947.12,-1503563.37"/>
</a>
</g>
</g>
<!-- Node15 -->
<g id="Node000015" class="node">
<title>Node15</title>
<g id="a_Node000015"><a xlink:href="sqsh__error_8h.html" target="_top" xlink:title=" ">
<polygon fill="white" stroke="#666666" points="216.51,-1503833.01 110.51,-1503833.01 110.51,-1002652.89 216.51,-1002652.89 216.51,-1503833.01"/>
<text text-anchor="middle" x="163.51" y="-1503819.51" font-family="Helvetica,sans-Serif" font-size="10.00">sqsh_error.h</text>
</a>
</g>
</g>
<!-- Node2&#45;&gt;Node15 -->
<g id="edge18_Node000002_Node000015" class="edge">
<title>Node2&#45;&gt;Node15</title>
<g id="a_edge18_Node000002_Node000015"><a xlink:title=" ">
<path fill="none" stroke="#63b8ff" d="M533.57,-1503969.56C460.25,-1503970.38 279.28,-1503967.89 241.51,-1503924.61 232.57,-1503914.36 224.44,-1502925.82 217.05,-1501081.33"/>
<polygon fill="#63b8ff" stroke="#63b8ff" points="220.55,-1501081.66 217.01,-1501071.67 213.55,-1501081.68 220.55,-1501081.66"/>
</a>
</g>
</g>
<!-- Node16 -->
<g id="Node000016" class="node">
<title>Node16</title>
<g id="a_Node000016"><a xlink:href="sqsh__mapper_8h.html" target="_top" xlink:title=" ">
<polygon fill="white" stroke="#666666" points="135.26,-751910.68 21.76,-751910.68 21.76,-751892.18 135.26,-751892.18 135.26,-751910.68"/>
<text text-anchor="middle" x="78.51" y="-751897.18" font-family="Helvetica,sans-Serif" font-size="10.00">sqsh_mapper.h</text>
</a>
</g>
</g>
<!-- Node2&#45;&gt;Node16 -->
<g id="edge21_Node000002_Node000016" class="edge">
<title>Node2&#45;&gt;Node16</title>
<g id="a_edge21_Node000002_Node000016"><a xlink:title=" ">
<path fill="none" stroke="#63b8ff" d="M533.56,-1503968.3C434.58,-1503966.05 130.57,-1503956.57 101.51,-1503924.61 101.51,-1503924.61 78.65,-756345.17 78.51,-751922.14"/>
<polygon fill="#63b8ff" stroke="#63b8ff" points="82.01,-751922.54 78.51,-751912.54 75.01,-751922.54 82.01,-751922.54"/>
</a>
</g>
</g>
<!-- Node17 -->
<g id="Node000017" class="node">
<title>Node17</title>
<g id="a_Node000017"><a xlink:href="sqsh__posix_8h.html" target="_top" xlink:title=" ">
<polygon fill="white" stroke="#666666" points="1204.51,-1253252.2 1098.51,-1253252.2 1098.51,-1253233.7 1204.51,-1253233.7 1204.51,-1253252.2"/>
<text text-anchor="middle" x="1151.51" y="-1253238.7" font-family="Helvetica,sans-Serif" font-size="10.00">sqsh_posix.h</text>
</a>
</g>
</g>
<!-- Node2&#45;&gt;Node17 -->
<g id="edge24_Node000002_Node000017" class="edge">
<title>Node2&#45;&gt;Node17</title>
<g id="a_edge24_Node000002_Node000017"><a xlink:title=" ">
<path fill="none" stroke="#63b8ff" d="M595.26,-1503968.45C697.4,-1503966.66 1020.7,-1503958.34 1051.51,-1503924.61 1343.54,-1503604.93 1153.48,-1255801.58 1151.52,-1253263.58"/>
<polygon fill="#63b8ff" stroke="#63b8ff" points="1155.02,-1253263.91 1151.52,-1253253.91 1148.02,-1253263.91 1155.02,-1253263.91"/>
</a>
</g>
</g>
<!-- Node18 -->
<g id="Node000018" class="node">
<title>Node18</title>
<g id="a_Node000018"><a xlink:href="sqsh__table_8h.html" target="_top" xlink:title=" ">
<polygon fill="white" stroke="#666666" points="297.51,-751922.66 191.51,-751922.66 191.51,-751880.21 297.51,-751880.21 297.51,-751922.66"/>
<text text-anchor="middle" x="244.51" y="-751909.16" font-family="Helvetica,sans-Serif" font-size="10.00">sqsh_table.h</text>
</a>
</g>
</g>
<!-- Node2&#45;&gt;Node18 -->
<g id="edge28_Node000002_Node000018" class="edge">
<title>Node2&#45;&gt;Node18</title>
<g id="a_edge28_Node000002_Node000018"><a xlink:title=" ">
<path fill="none" stroke="#63b8ff" d="M533.85,-1503967.9C475.44,-1503965.29 351.69,-1503956.08 325.51,-1503924.61 325.51,-1503924.61 245.12,-757556.99 244.51,-751934.36"/>
<polygon fill="#63b8ff" stroke="#63b8ff" points="248.01,-751934.5 244.51,-751924.5 241.01,-751934.5 248.01,-751934.5"/>
</a>
</g>
</g>
<!-- Node19 -->
<g id="Node000019" class="node">
<title>Node19</title>
<g id="a_Node000019"><a xlink:href="sqsh__tree_8h.html" target="_top" xlink:title=" ">
<polygon fill="white" stroke="#666666" points="925.76,-1253252.2 827.26,-1253252.2 827.26,-1253233.7 925.76,-1253233.7 925.76,-1253252.2"/>
<text text-anchor="middle" x="876.51" y="-1253238.7" font-family="Helvetica,sans-Serif" font-size="10.00">sqsh_tree.h</text>
</a>
</g>
</g>
<!-- Node2&#45;&gt;Node19 -->
<g id="edge30_Node000002_Node000019" class="edge">
<title>Node2&#45;&gt;Node19</title>
<g id="a_edge30_Node000002_Node000019"><a xlink:title=" ">
<path fill="none" stroke="#63b8ff" d="M595.5,-1503968.14C655.93,-1503965.94 786.01,-1503957.42 813.51,-1503924.61 952.56,-1503758.68 877.29,-1255803.15 876.52,-1253263.59"/>
<polygon fill="#63b8ff" stroke="#63b8ff" points="880.02,-1253263.91 876.51,-1253253.91 873.02,-1253263.91 880.02,-1253263.91"/>
</a>
</g>
</g>
<!-- Node20 -->
<g id="Node000020" class="node">
<title>Node20</title>
<g id="a_Node000020"><a xlink:href="sqsh__utils_8h.html" target="_top" xlink:title=" ">
<polygon fill="white" stroke="#666666" points="421.51,-751910.68 315.51,-751910.68 315.51,-751892.18 421.51,-751892.18 421.51,-751910.68"/>
<text text-anchor="middle" x="368.51" y="-751897.18" font-family="Helvetica,sans-Serif" font-size="10.00">sqsh_utils.h</text>
</a>
</g>
</g>
<!-- Node2&#45;&gt;Node20 -->
<g id="edge33_Node000002_Node000020" class="edge">
<title>Node2&#45;&gt;Node20</title>
<g id="a_edge33_Node000002_Node000020"><a xlink:title=" ">
<path fill="none" stroke="#63b8ff" d="M533.91,-1503967.8C476.29,-1503965.01 355.15,-1503955.53 329.51,-1503924.61 329.51,-1503924.61 329.51,-1002561.29 329.51,-1002561.29 338.12,-891924.51 368.09,-753818.99 368.5,-751922.19"/>
<polygon fill="#63b8ff" stroke="#63b8ff" points="372,-751922.45 368.51,-751912.45 365,-751922.45 372,-751922.45"/>
</a>
</g>
</g>
<!-- Node21 -->
<g id="Node000021" class="node">
<title>Node21</title>
<g id="a_Node000021"><a xlink:href="sqsh__xattr_8h.html" target="_top" xlink:title=" ">
<polygon fill="white" stroke="#666666" points="617.51,-1253252.2 511.51,-1253252.2 511.51,-1253233.7 617.51,-1253233.7 617.51,-1253252.2"/>
<text text-anchor="middle" x="564.51" y="-1253238.7" font-family="Helvetica,sans-Serif" font-size="10.00">sqsh_xattr.h</text>
</a>
</g>
</g>
<!-- Node2&#45;&gt;Node21 -->
<g id="edge35_Node000002_Node000021" class="edge">
<title>Node2&#45;&gt;Node21</title>
<g id="a_edge35_Node000002_Node000021"><a xlink:title=" ">
<path fill="none" stroke="#63b8ff" d="M564.51,-1503960.13C564.51,-1502266.71 564.51,-1255818.06 564.51,-1253263.94"/>
<polygon fill="#63b8ff" stroke="#63b8ff" points="568.01,-1253264.17 564.51,-1253254.17 561.01,-1253264.17 568.01,-1253264.17"/>
</a>
</g>
</g>
<!-- Node3&#45;&gt;Node4 -->
<g id="edge3_Node000003_Node000004" class="edge">
<title>Node3&#45;&gt;Node4</title>
<g id="a_edge3_Node000003_Node000004"><a xlink:title=" ">
<path fill="none" stroke="#63b8ff" d="M432.51,-1253233.44C432.68,-1251984.31 451.89,-1113451.63 463.51,-1002525.29 463.51,-1002525.29 506.51,-501277.57 506.51,-501277.57 508.13,-501269.06 511.24,-501260.12 514.49,-501252.3"/>
<polygon fill="#63b8ff" stroke="#63b8ff" points="517.67,-501253.76 518.55,-501243.2 511.28,-501250.9 517.67,-501253.76"/>
</a>
</g>
</g>
<!-- Node8 -->
<g id="Node000008" class="node">
<title>Node8</title>
<g id="a_Node000008"><a xlink:href="sqsh__data_8h.html" target="_top" xlink:title=" ">
<polygon fill="white" stroke="#666666" points="613.76,-751922.66 515.26,-751922.66 515.26,-751880.21 613.76,-751880.21 613.76,-751922.66"/>
<text text-anchor="middle" x="564.51" y="-751909.16" font-family="Helvetica,sans-Serif" font-size="10.00">sqsh_data.h</text>
</a>
</g>
</g>
<!-- Node3&#45;&gt;Node8 -->
<g id="edge7_Node000003_Node000008" class="edge">
<title>Node3&#45;&gt;Node8</title>
<g id="a_edge7_Node000003_Node000008"><a xlink:title=" ">
<path fill="none" stroke="#63b8ff" d="M432.51,-1253233.44C432.87,-1251984.31 472.3,-1113451.64 501.51,-1002525.29 530.58,-892108.22 563.92,-754327.47 564.5,-751934.06"/>
<polygon fill="#63b8ff" stroke="#63b8ff" points="568,-751934.47 564.5,-751924.47 561,-751934.47 568,-751934.47"/>
</a>
</g>
</g>
<!-- Node5 -->
<g id="Node000005" class="node">
<title>Node5</title>
<g id="a_Node000005"><a xlink:title=" ">
<polygon fill="#e0e0e0" stroke="#999999" points="567.26,-250602.79 483.76,-250602.79 483.76,-250576.79 567.26,-250576.79 567.26,-250602.79"/>
<text text-anchor="middle" x="525.51" y="-250589.29" font-family="Helvetica,sans-Serif" font-size="10.00">stdbool.h</text>
</a>
</g>
</g>
<!-- Node4&#45;&gt;Node5 -->
<g id="edge4_Node000004_Node000005" class="edge">
<title>Node4&#45;&gt;Node5</title>
<g id="a_edge4_Node000004_Node000005"><a xlink:title=" ">
<path fill="none" stroke="#63b8ff" d="M525.51,-501215.41C525.51,-499223.71 525.51,-253402.12 525.51,-250614.67"/>
<polygon fill="#63b8ff" stroke="#63b8ff" points="529.01,-250614.74 525.51,-250604.74 522.01,-250614.74 529.01,-250614.74"/>
</a>
</g>
</g>
<!-- Node6 -->
<g id="Node000006" class="node">
<title>Node6</title>
<g id="a_Node000006"><a xlink:title=" ">
<polygon fill="#e0e0e0" stroke="#999999" points="387.51,-250599.04 311.51,-250599.04 311.51,-250580.54 387.51,-250580.54 387.51,-250599.04"/>
<text text-anchor="middle" x="349.51" y="-250585.54" font-family="Helvetica,sans-Serif" font-size="10.00">stddef.h</text>
</a>
</g>
</g>
<!-- Node4&#45;&gt;Node6 -->
<g id="edge5_Node000004_Node000006" class="edge">
<title>Node4&#45;&gt;Node6</title>
<g id="a_edge5_Node000004_Node000006"><a xlink:title=" ">
<path fill="none" stroke="#63b8ff" d="M505.95,-501215.26C494.44,-501206.79 480.93,-501194.42 474.51,-501179.57 -212.53,-499590.56 343.68,-253164.66 349.46,-250610.78"/>
<polygon fill="#63b8ff" stroke="#63b8ff" points="352.96,-250611.02 349.49,-250601.01 345.96,-250611 352.96,-250611.02"/>
</a>
</g>
</g>
<!-- Node7 -->
<g id="Node000007" class="node">
<title>Node7</title>
<g id="a_Node000007"><a xlink:title=" ">
<polygon fill="#e0e0e0" stroke="#999999" points="935.51,-501179.57 859.51,-501179.57 859.51,0 935.51,0 935.51,-501179.57"/>
<text text-anchor="middle" x="897.51" y="-501166.07" font-family="Helvetica,sans-Serif" font-size="10.00">stdint.h</text>
</a>
</g>
</g>
<!-- Node4&#45;&gt;Node7 -->
<g id="edge6_Node000004_Node000007" class="edge">
<title>Node4&#45;&gt;Node7</title>
<g id="a_edge6_Node000004_Node000007"><a xlink:title=" ">
<path fill="none" stroke="#63b8ff" d="M545.07,-501215.26C556.57,-501206.79 570.09,-501194.42 576.51,-501179.57 1115.68,-499933.88 1009.04,-348170.32 936.02,-281456.93"/>
<polygon fill="#63b8ff" stroke="#63b8ff" points="939.52,-281456.99 936.01,-281446.99 932.52,-281457 939.52,-281456.99"/>
</a>
</g>
</g>
<!-- Node8&#45;&gt;Node4 -->
<g id="edge8_Node000008_Node000004" class="edge">
<title>Node8&#45;&gt;Node4</title>
<g id="a_edge8_Node000008_Node000004"><a xlink:title=" ">
<path fill="none" stroke="#63b8ff" d="M564.51,-751879.79C564.1,-749290.55 525.95,-504034.42 525.51,-501253.41"/>
<polygon fill="#63b8ff" stroke="#63b8ff" points="529.01,-501253.5 525.51,-501243.5 522.01,-501253.5 529.01,-501253.5"/>
</a>
</g>
</g>
<!-- Node9&#45;&gt;Node10 -->
<g id="edge11_Node000009_Node000010" class="edge">
<title>Node9&#45;&gt;Node10</title>
<g id="a_edge11_Node000009_Node000010"><a xlink:title=" ">
<path fill="none" stroke="#63b8ff" d="M703.51,-1253229.6C703.56,-1251803.65 707.53,-1127164.45 711.51,-1002536.89"/>
<polygon fill="#63b8ff" stroke="#63b8ff" points="715.01,-1002536.99 711.51,-1002526.99 708.01,-1002536.99 715.01,-1002536.99"/>
</a>
</g>
</g>
<!-- Node10&#45;&gt;Node4 -->
<g id="edge12_Node000010_Node000004" class="edge">
<title>Node10&#45;&gt;Node4</title>
<g id="a_edge12_Node000010_Node000004"><a xlink:title=" ">
<path fill="none" stroke="#63b8ff" d="M769.26,-662230.62C798.06,-590384.96 803.71,-501490.22 655.51,-501277.57 641.26,-501257.13 617.25,-501245.37 593.72,-501238.61"/>
<polygon fill="#63b8ff" stroke="#63b8ff" points="594.64,-501235.24 584.08,-501236.14 592.9,-501242.02 594.64,-501235.24"/>
</a>
</g>
</g>
<!-- Node11&#45;&gt;Node4 -->
<g id="edge14_Node000011_Node000004" class="edge">
<title>Node11&#45;&gt;Node4</title>
<g id="a_edge14_Node000011_Node000004"><a xlink:title=" ">
<path fill="none" stroke="#63b8ff" d="M1043.26,-1152916.21C1066.34,-1083221.51 1064.75,-1002770.68 934.51,-1002561.29 915.4,-1002530.58 880.61,-1002556.01 861.51,-1002525.29 861.51,-1002525.29 815.51,-501277.57 815.51,-501277.57 787.68,-501244.77 670.73,-501234.35 594.11,-501231.07"/>
<polygon fill="#63b8ff" stroke="#63b8ff" points="594.29,-501227.57 584.16,-501230.67 594.01,-501234.57 594.29,-501227.57"/>
</a>
</g>
</g>
<!-- Node12 -->
<g id="Node000012" class="node">
<title>Node12</title>
<g id="a_Node000012"><a xlink:title=" ">
<polygon fill="#e0e0e0" stroke="#999999" points="1017.76,-751910.68 949.26,-751910.68 949.26,-751892.18 1017.76,-751892.18 1017.76,-751910.68"/>
<text text-anchor="middle" x="983.51" y="-751897.18" font-family="Helvetica,sans-Serif" font-size="10.00">fcntl.h</text>
</a>
</g>
</g>
<!-- Node11&#45;&gt;Node12 -->
<g id="edge15_Node000011_Node000012" class="edge">
<title>Node11&#45;&gt;Node12</title>
<g id="a_edge15_Node000011_Node000012"><a xlink:title=" ">
<path fill="none" stroke="#63b8ff" d="M988.51,-1002561.08C986.03,-878138.71 983.55,-753720 983.51,-751922.16"/>
<polygon fill="#63b8ff" stroke="#63b8ff" points="987.01,-751922.46 983.51,-751912.46 980.01,-751922.46 987.01,-751922.46"/>
</a>
</g>
</g>
<!-- Node11&#45;&gt;Node13 -->
<g id="edge16_Node000011_Node000013" class="edge">
<title>Node11&#45;&gt;Node13</title>
<g id="a_edge16_Node000011_Node000013"><a xlink:title=" ">
<path fill="none" stroke="#63b8ff" d="M1032.01,-1002561.08C1051.12,-878138.71 1070.23,-753720 1070.51,-751922.16"/>
<polygon fill="#63b8ff" stroke="#63b8ff" points="1074.01,-751922.46 1070.51,-751912.46 1067.01,-751922.45 1074.01,-751922.46"/>
</a>
</g>
</g>
<!-- Node14 -->
<g id="Node000014" class="node">
<title>Node14</title>
<g id="a_Node000014"><a xlink:title=" ">
<polygon fill="#e0e0e0" stroke="#999999" points="931.01,-751910.68 870.01,-751910.68 870.01,-751892.18 931.01,-751892.18 931.01,-751910.68"/>
<text text-anchor="middle" x="900.51" y="-751897.18" font-family="Helvetica,sans-Serif" font-size="10.00">time.h</text>
</a>
</g>
</g>
<!-- Node11&#45;&gt;Node14 -->
<g id="edge17_Node000011_Node000014" class="edge">
<title>Node11&#45;&gt;Node14</title>
<g id="a_edge17_Node000011_Node000014"><a xlink:title=" ">
<path fill="none" stroke="#63b8ff" d="M943.76,-1019781.8C942.65,-1013971.89 941.56,-1008212.31 940.51,-1002525.29 919.99,-891904.4 900.78,-753818.72 900.51,-751922.19"/>
<polygon fill="#63b8ff" stroke="#63b8ff" points="904.01,-751922.45 900.51,-751912.45 897.01,-751922.45 904.01,-751922.45"/>
</a>
</g>
</g>
<!-- Node15&#45;&gt;Node4 -->
<g id="edge19_Node000015_Node000004" class="edge">
<title>Node15&#45;&gt;Node4</title>
<g id="a_edge19_Node000015_Node000004"><a xlink:title=" ">
<path fill="none" stroke="#63b8ff" d="M169.84,-1002652.5C175.37,-783932.74 182.51,-501277.57 182.51,-501277.57 217.34,-501237.53 367.2,-501229.89 456.91,-501229"/>
<polygon fill="#63b8ff" stroke="#63b8ff" points="456.86,-501232.5 466.83,-501228.93 456.81,-501225.5 456.86,-501232.5"/>
</a>
</g>
</g>
<!-- Node16&#45;&gt;Node4 -->
<g id="edge22_Node000016_Node000004" class="edge">
<title>Node16&#45;&gt;Node4</title>
<g id="a_edge22_Node000016_Node000004"><a xlink:title=" ">
<path fill="none" stroke="#63b8ff" d="M78.5,-751891.99C77.06,-750222.79 -137.1,-501603.01 149.51,-501277.57 169.47,-501254.9 354.23,-501240.06 457.12,-501233.48"/>
<polygon fill="#63b8ff" stroke="#63b8ff" points="457.06,-501236.99 466.82,-501232.87 456.62,-501230 457.06,-501236.99"/>
</a>
</g>
</g>
<!-- Node16&#45;&gt;Node6 -->
<g id="edge23_Node000016_Node000006" class="edge">
<title>Node16&#45;&gt;Node6</title>
<g id="a_edge23_Node000016_Node000006"><a xlink:title=" ">
<path fill="none" stroke="#63b8ff" d="M78.51,-751891.93C78.61,-750643.26 89.57,-612162.41 149.51,-501277.57 209.32,-390628.44 347.59,-252507.56 349.49,-250610.55"/>
<polygon fill="#63b8ff" stroke="#63b8ff" points="352.99,-250610.81 349.5,-250600.81 345.99,-250610.8 352.99,-250610.81"/>
</a>
</g>
</g>
<!-- Node17&#45;&gt;Node4 -->
<g id="edge25_Node000017_Node000004" class="edge">
<title>Node17&#45;&gt;Node4</title>
<g id="a_edge25_Node000017_Node000004"><a xlink:title=" ">
<path fill="none" stroke="#63b8ff" d="M1151.51,-1253233.35C1151.36,-1250307.46 1113.51,-501277.57 1113.51,-501277.57 1078.9,-501240.03 741.37,-501231.85 593.89,-501230.07"/>
<polygon fill="#63b8ff" stroke="#63b8ff" points="594.31,-501226.57 584.27,-501229.96 594.23,-501233.57 594.31,-501226.57"/>
</a>
</g>
</g>
<!-- Node17&#45;&gt;Node7 -->
<g id="edge26_Node000017_Node000007" class="edge">
<title>Node17&#45;&gt;Node7</title>
<g id="a_edge26_Node000017_Node000007"><a xlink:title=" ">
<path fill="none" stroke="#63b8ff" d="M1151.51,-1253233.33C1152.3,-1251049.7 1303.06,-834606.79 1139.51,-501277.57 1100.48,-421740.22 993.85,-328007.97 936.02,-280881.2"/>
<polygon fill="#63b8ff" stroke="#63b8ff" points="939.52,-280881.39 936.01,-280871.39 932.52,-280881.4 939.52,-280881.39"/>
</a>
</g>
</g>
<!-- Node17&#45;&gt;Node13 -->
<g id="edge27_Node000017_Node000013" class="edge">
<title>Node17&#45;&gt;Node13</title>
<g id="a_edge27_Node000017_Node000013"><a xlink:title=" ">
<path fill="none" stroke="#63b8ff" d="M1151.51,-1253233.44C1151.13,-1250866.66 1071.09,-755516.93 1070.51,-751922.1"/>
<polygon fill="#63b8ff" stroke="#63b8ff" points="1074.01,-751922.41 1070.51,-751912.42 1067.01,-751922.42 1074.01,-751922.41"/>
</a>
</g>
</g>
<!-- Node18&#45;&gt;Node4 -->
<g id="edge29_Node000018_Node000004" class="edge">
<title>Node18&#45;&gt;Node4</title>
<g id="a_edge29_Node000018_Node000004"><a xlink:title=" ">
<path fill="none" stroke="#63b8ff" d="M244.5,-751879.8C243.73,-749278.06 170.83,-501446.17 306.51,-501277.57 325.24,-501254.3 400.26,-501241.68 457.32,-501235.3"/>
<polygon fill="#63b8ff" stroke="#63b8ff" points="457.4,-501238.81 466.97,-501234.27 456.65,-501231.85 457.4,-501238.81"/>
</a>
</g>
</g>
<!-- Node19&#45;&gt;Node4 -->
<g id="edge31_Node000019_Node000004" class="edge">
<title>Node19&#45;&gt;Node4</title>
<g id="a_edge31_Node000019_Node000004"><a xlink:title=" ">
<path fill="none" stroke="#63b8ff" d="M876.51,-1253233.44C876.21,-1251984.31 842.99,-1113451.64 826.51,-1002525.29 826.51,-1002525.29 777.51,-501277.57 777.51,-501277.57 754.59,-501249.88 660.39,-501238.03 593.91,-501233.05"/>
<polygon fill="#63b8ff" stroke="#63b8ff" points="594.4,-501229.58 584.18,-501232.36 593.91,-501236.56 594.4,-501229.58"/>
</a>
</g>
</g>
<!-- Node19&#45;&gt;Node10 -->
<g id="edge32_Node000019_Node000010" class="edge">
<title>Node19&#45;&gt;Node10</title>
<g id="a_edge32_Node000019_Node000010"><a xlink:title=" ">
<path fill="none" stroke="#63b8ff" d="M876.51,-1253233.51C877.01,-1251564.5 950.72,-1002972.77 813.51,-1002561.29 807.18,-1002542.32 792.84,-1002544.27 786.51,-1002525.29 780.37,-1002506.9 774.65,-1001992.24 769.32,-1001025.61"/>
<polygon fill="#63b8ff" stroke="#63b8ff" points="772.82,-1001025.71 769.27,-1001015.73 765.82,-1001025.75 772.82,-1001025.71"/>
</a>
</g>
</g>
<!-- Node20&#45;&gt;Node4 -->
<g id="edge34_Node000020_Node000004" class="edge">
<title>Node20&#45;&gt;Node4</title>
<g id="a_edge34_Node000020_Node000004"><a xlink:title=" ">
<path fill="none" stroke="#63b8ff" d="M368.5,-751891.99C367.46,-750223.11 212.35,-501649.39 435.51,-501277.57 443.72,-501263.89 457.31,-501253.89 471.46,-501246.68"/>
<polygon fill="#63b8ff" stroke="#63b8ff" points="472.82,-501249.91 480.43,-501242.54 469.88,-501243.55 472.82,-501249.91"/>
</a>
</g>
</g>
<!-- Node21&#45;&gt;Node4 -->
<g id="edge36_Node000021_Node000004" class="edge">
<title>Node21&#45;&gt;Node4</title>
<g id="a_edge36_Node000021_Node000004"><a xlink:title=" ">
<path fill="none" stroke="#63b8ff" d="M564.51,-1253233.44C564.92,-1251984.31 609.68,-1113451.64 622.51,-1002525.29 622.51,-1002525.29 622.51,-501277.57 622.51,-501277.57 613.89,-501263.7 599.94,-501253.71 585.27,-501246.57"/>
<polygon fill="#63b8ff" stroke="#63b8ff" points="587.01,-501243.51 576.45,-501242.68 584.18,-501249.91 587.01,-501243.51"/>
</a>
</g>
</g>
<!-- Node21&#45;&gt;Node8 -->
<g id="edge37_Node000021_Node000008" class="edge">
<title>Node21&#45;&gt;Node8</title>
<g id="a_edge37_Node000021_Node000008"><a xlink:title=" ">
<path fill="none" stroke="#63b8ff" d="M564.51,-1253233.44C564.51,-1250869.05 564.51,-756517.35 564.51,-751934.5"/>
<polygon fill="#63b8ff" stroke="#63b8ff" points="568.01,-751934.65 564.51,-751924.65 561.01,-751934.65 568.01,-751934.65"/>
</a>
</g>
</g>
</g>
</svg>
