<?xml version="1.0" encoding="UTF-8" standalone="no"?>
<!DOCTYPE svg PUBLIC "-//W3C//DTD SVG 1.1//EN"
 "http://www.w3.org/Graphics/SVG/1.1/DTD/svg11.dtd">
<!-- Generated by graphviz version 9.0.0 (20230911.1827)
 -->
<!-- Title: examples/list_xattrs.c Pages: 1 -->
<!--zoomable 4030217 -->

<svg id="main" version="1.1" xmlns="http://www.w3.org/2000/svg" xmlns:xlink="http://www.w3.org/1999/xlink" xml:space="preserve" onload="init(evt)">
<style type="text/css"><![CDATA[
.node, .edge {opacity: 0.7;}
.node.selected, .edge.selected {opacity: 1;}
.edge:hover path { stroke: red; }
.edge:hover polygon { stroke: red; fill: red; }
]]></style>

<defs>
  <circle id="rim" cx="0" cy="0" r="7"/>
  <circle id="rim2" cx="0" cy="0" r="3.5"/>
  <g id="zoomPlus">
    <use xlink:href="#rim" fill="#404040"><set attributeName="fill" to="#808080" begin="zoomplus.mouseover" end="zoomplus.mouseout"/></use>
    <path d="M-4,0h8M0,-4v8" fill="none" stroke="white" stroke-width="1.5" pointer-events="none"/>
  </g>
  <g id="zoomMin">
    <use xlink:href="#rim" fill="#404040"><set attributeName="fill" to="#808080" begin="zoomminus.mouseover" end="zoomminus.mouseout"/></use>
    <path d="M-4,0h8" fill="none" stroke="white" stroke-width="1.5" pointer-events="none"/>
  </g>
  <g id="arrowUp" transform="translate(30 24)">
    <use xlink:href="#rim"/>
    <path pointer-events="none" fill="none" stroke="white" stroke-width="1.5" d="M0,-3.0v7 M-2.5,-0.5L0,-3.0L2.5,-0.5"/>
  </g>
  <g id="arrowRight" transform="rotate(90) translate(36 -43)">
    <use xlink:href="#rim"/>
    <path pointer-events="none" fill="none" stroke="white" stroke-width="1.5" d="M0,-3.0v7 M-2.5,-0.5L0,-3.0L2.5,-0.5"/>
  </g>
  <g id="arrowDown" transform="rotate(180) translate(-30 -48)">
    <use xlink:href="#rim"/>
    <path pointer-events="none" fill="none" stroke="white" stroke-width="1.5" d="M0,-3.0v7 M-2.5,-0.5L0,-3.0L2.5,-0.5"/>
  </g>
  <g id="arrowLeft" transform="rotate(270) translate(-36 17)">
    <use xlink:href="#rim"/>
    <path pointer-events="none" fill="none" stroke="white" stroke-width="1.5" d="M0,-3.0v7 M-2.5,-0.5L0,-3.0L2.5,-0.5"/>
  </g>
  <g id="resetDef">
    <use xlink:href="#rim2" fill="#404040"><set attributeName="fill" to="#808080" begin="reset.mouseover" end="reset.mouseout"/></use>
  </g>
</defs>
<script type="application/ecmascript">
var viewWidth = 1267;
var viewHeight = 4030217;
var sectionId = 'dynsection-0';
</script>
<script type="application/ecmascript" xlink:href="svg.min.js"/>
<svg id="graph" class="graph">
<g id="viewport">
<title>examples/list_xattrs.c</title>
<!-- Node1 -->
<g id="Node000001" class="node">
<title>Node1</title>
<g id="a_Node000001"><a xlink:title=" ">
<polygon fill="#999999" stroke="#666666" points="1027.69,-4030209.07 846.69,-4030209.07 846.69,-4030190.57 1027.69,-4030190.57 1027.69,-4030209.07"/>
<text text-anchor="middle" x="937.19" y="-4030195.57" font-family="Helvetica,sans-Serif" font-size="10.00">examples/list_xattrs.c</text>
</a>
</g>
</g>
<!-- Node2 -->
<g id="Node000002" class="node">
<title>Node2</title>
<g id="a_Node000002"><a xlink:title=" ">
<polygon fill="#e0e0e0" stroke="#999999" points="635.19,-4030154.57 559.19,-4030154.57 559.19,-4030136.07 635.19,-4030136.07 635.19,-4030154.57"/>
<text text-anchor="middle" x="597.19" y="-4030141.07" font-family="Helvetica,sans-Serif" font-size="10.00">assert.h</text>
</a>
</g>
</g>
<!-- Node1&#45;&gt;Node2 -->
<g id="edge1_Node000001_Node000002" class="edge">
<title>Node1&#45;&gt;Node2</title>
<g id="a_edge1_Node000001_Node000002"><a xlink:title=" ">
<path fill="none" stroke="#63b8ff" d="M877.29,-4030190.1C820.71,-4030181.78 733.15,-4030168.7 646.78,-4030154.8"/>
<polygon fill="#63b8ff" stroke="#63b8ff" points="647.35,-4030151.34 636.92,-4030153.21 646.24,-4030158.26 647.35,-4030151.34"/>
</a>
</g>
</g>
<!-- Node3 -->
<g id="Node000003" class="node">
<title>Node3</title>
<g id="a_Node000003"><a xlink:href="sqsh_8h.html" target="_top" xlink:title=" ">
<polygon fill="white" stroke="#666666" points="714.69,-4030154.57 653.69,-4030154.57 653.69,-4030136.07 714.69,-4030136.07 714.69,-4030154.57"/>
<text text-anchor="middle" x="684.19" y="-4030141.07" font-family="Helvetica,sans-Serif" font-size="10.00">sqsh.h</text>
</a>
</g>
</g>
<!-- Node1&#45;&gt;Node3 -->
<g id="edge2_Node000001_Node000003" class="edge">
<title>Node1&#45;&gt;Node3</title>
<g id="a_edge2_Node000001_Node000003"><a xlink:title=" ">
<path fill="none" stroke="#63b8ff" d="M895.13,-4030190.09C848.36,-4030180.39 773.27,-4030164.81 726.44,-4030155.09"/>
<polygon fill="#63b8ff" stroke="#63b8ff" points="727.16,-4030151.66 716.65,-4030153.06 725.73,-4030158.52 727.16,-4030151.66"/>
</a>
</g>
</g>
<!-- Node14 -->
<g id="Node000014" class="node">
<title>Node14</title>
<g id="a_Node000014"><a xlink:title=" ">
<polygon fill="#e0e0e0" stroke="#999999" points="1155.44,-3069525.2 1086.94,-3069525.2 1086.94,-1920955.05 1155.44,-1920955.05 1155.44,-3069525.2"/>
<text text-anchor="middle" x="1121.19" y="-3069511.7" font-family="Helvetica,sans-Serif" font-size="10.00">stdio.h</text>
</a>
</g>
</g>
<!-- Node1&#45;&gt;Node14 -->
<g id="edge39_Node000001_Node000014" class="edge">
<title>Node1&#45;&gt;Node14</title>
<g id="a_edge39_Node000001_Node000014"><a xlink:title=" ">
<path fill="none" stroke="#63b8ff" d="M969.33,-4030190.15C1008.74,-4030177.59 1073.79,-4030150.17 1102.19,-4030100.07 1102.19,-4030100.07 1108.68,-3505375.46 1114.08,-3069536.92"/>
<polygon fill="#63b8ff" stroke="#63b8ff" points="1117.58,-3069537.21 1114.08,-3069527.21 1110.58,-3069537.21 1117.58,-3069537.21"/>
</a>
</g>
</g>
<!-- Node23 -->
<g id="Node000023" class="node">
<title>Node23</title>
<g id="a_Node000023"><a xlink:title=" ">
<polygon fill="#e0e0e0" stroke="#999999" points="1225.19,-4030154.57 1149.19,-4030154.57 1149.19,-4030136.07 1225.19,-4030136.07 1225.19,-4030154.57"/>
<text text-anchor="middle" x="1187.19" y="-4030141.07" font-family="Helvetica,sans-Serif" font-size="10.00">stdlib.h</text>
</a>
</g>
</g>
<!-- Node1&#45;&gt;Node23 -->
<g id="edge40_Node000001_Node000023" class="edge">
<title>Node1&#45;&gt;Node23</title>
<g id="a_edge40_Node000001_Node000023"><a xlink:title=" ">
<path fill="none" stroke="#63b8ff" d="M978.75,-4030190.09C1022.49,-4030180.91 1091.31,-4030166.46 1137.8,-4030156.69"/>
<polygon fill="#63b8ff" stroke="#63b8ff" points="1138.26,-4030160.17 1147.33,-4030154.69 1136.82,-4030153.32 1138.26,-4030160.17"/>
</a>
</g>
</g>
<!-- Node4 -->
<g id="Node000004" class="node">
<title>Node4</title>
<g id="a_Node000004"><a xlink:href="sqsh__archive_8h.html" target="_top" xlink:title=" ">
<polygon fill="white" stroke="#666666" points="543.69,-4030100.07 422.69,-4030100.07 422.69,-3069561.2 543.69,-3069561.2 543.69,-4030100.07"/>
<text text-anchor="middle" x="483.19" y="-4030086.57" font-family="Helvetica,sans-Serif" font-size="10.00">sqsh_archive.h</text>
</a>
</g>
</g>
<!-- Node3&#45;&gt;Node4 -->
<g id="edge3_Node000003_Node000004" class="edge">
<title>Node3&#45;&gt;Node4</title>
<g id="a_edge3_Node000003_Node000004"><a xlink:title=" ">
<path fill="none" stroke="#63b8ff" d="M653.39,-4030135.95C616.6,-4030125.65 559.22,-4030108.48 553.19,-4030100.07 550.2,-4030095.9 547.27,-4030019.14 544.4,-4029871.56"/>
<polygon fill="#63b8ff" stroke="#63b8ff" points="547.91,-4029871.79 544.22,-4029861.86 540.91,-4029871.93 547.91,-4029871.79"/>
</a>
</g>
</g>
<!-- Node5 -->
<g id="Node000005" class="node">
<title>Node5</title>
<g id="a_Node000005"><a xlink:href="sqsh__common_8h.html" target="_top" xlink:title=" ">
<polygon fill="white" stroke="#666666" points="569.94,-1920919.05 456.44,-1920919.05 456.44,-960380.25 569.94,-960380.25 569.94,-1920919.05"/>
<text text-anchor="middle" x="513.19" y="-1920905.55" font-family="Helvetica,sans-Serif" font-size="10.00">sqsh_common.h</text>
</a>
</g>
</g>
<!-- Node3&#45;&gt;Node5 -->
<g id="edge10_Node000003_Node000005" class="edge">
<title>Node3&#45;&gt;Node5</title>
<g id="a_edge10_Node000003_Node000005"><a xlink:title=" ">
<path fill="none" stroke="#63b8ff" d="M653.21,-4030137.78C650.16,-4030137.18 647.12,-4030136.6 644.19,-4030136.07 593.28,-4030126.84 447.82,-4030139.38 414.19,-4030100.07 414.19,-4030100.07 414.19,-3069561.2 414.19,-3069561.2 414.41,-3069545.2 414.96,-3069541.21 415.19,-3069525.2 470.67,-3065537.5 477.93,-1924943.14 478.19,-1920955.05 478.19,-1920946.95 478.19,-1920938.86 478.19,-1920930.76"/>
<polygon fill="#63b8ff" stroke="#63b8ff" points="481.69,-1920930.83 478.19,-1920920.83 474.69,-1920930.83 481.69,-1920930.83"/>
</a>
</g>
</g>
<!-- Node10 -->
<g id="Node000010" class="node">
<title>Node10</title>
<g id="a_Node000010"><a xlink:href="sqsh__directory_8h.html" target="_top" xlink:title=" ">
<polygon fill="white" stroke="#666666" points="822.19,-3549843.64 686.19,-3549843.64 686.19,-3549817.64 822.19,-3549817.64 822.19,-3549843.64"/>
<text text-anchor="middle" x="754.19" y="-3549830.14" font-family="Helvetica,sans-Serif" font-size="10.00">sqsh_directory.h</text>
</a>
</g>
</g>
<!-- Node3&#45;&gt;Node10 -->
<g id="edge11_Node000003_Node000010" class="edge">
<title>Node3&#45;&gt;Node10</title>
<g id="a_edge11_Node000003_Node000010"><a xlink:title=" ">
<path fill="none" stroke="#63b8ff" d="M684.19,-4030135.75C684.53,-4027811.37 753.62,-3553700.66 754.18,-3549855.16"/>
<polygon fill="#63b8ff" stroke="#63b8ff" points="757.68,-3549855.43 754.18,-3549845.43 750.68,-3549855.43 757.68,-3549855.43"/>
</a>
</g>
</g>
<!-- Node11 -->
<g id="Node000011" class="node">
<title>Node11</title>
<g id="a_Node000011"><a xlink:href="sqsh__file_8h.html" target="_top" xlink:title=" ">
<polygon fill="white" stroke="#666666" points="806.44,-2495249.37 707.94,-2495249.37 707.94,-2495230.87 806.44,-2495230.87 806.44,-2495249.37"/>
<text text-anchor="middle" x="757.19" y="-2495235.87" font-family="Helvetica,sans-Serif" font-size="10.00">sqsh_file.h</text>
</a>
</g>
</g>
<!-- Node3&#45;&gt;Node11 -->
<g id="edge21_Node000003_Node000011" class="edge">
<title>Node3&#45;&gt;Node11</title>
<g id="a_edge21_Node000003_Node000011"><a xlink:title=" ">
<path fill="none" stroke="#63b8ff" d="M714.89,-4030144.97C749.52,-4030143.83 804.48,-4030136.01 831.19,-4030100.07 831.19,-4030100.07 831.19,-3069561.2 831.19,-3069561.2 814.82,-2815475.08 757.71,-2498157.9 757.19,-2495261.1"/>
<polygon fill="#63b8ff" stroke="#63b8ff" points="760.69,-2495261.19 757.19,-2495251.19 753.69,-2495261.19 760.69,-2495261.19"/>
</a>
</g>
</g>
<!-- Node12 -->
<g id="Node000012" class="node">
<title>Node12</title>
<g id="a_Node000012"><a xlink:href="sqsh__easy_8h.html" target="_top" xlink:title=" ">
<polygon fill="white" stroke="#666666" points="1093.44,-3549839.89 994.94,-3549839.89 994.94,-3549821.39 1093.44,-3549821.39 1093.44,-3549839.89"/>
<text text-anchor="middle" x="1044.19" y="-3549826.39" font-family="Helvetica,sans-Serif" font-size="10.00">sqsh_easy.h</text>
</a>
</g>
</g>
<!-- Node3&#45;&gt;Node12 -->
<g id="edge14_Node000003_Node000012" class="edge">
<title>Node3&#45;&gt;Node12</title>
<g id="a_edge14_Node000003_Node000012"><a xlink:title=" ">
<path fill="none" stroke="#63b8ff" d="M715.09,-4030144.63C784.72,-4030144.61 950.49,-4030140.24 985.19,-4030100.07 985.19,-4030100.07 1043.75,-3553398.2 1044.18,-3549851.53"/>
<polygon fill="#63b8ff" stroke="#63b8ff" points="1047.68,-3549851.72 1044.19,-3549841.72 1040.68,-3549851.72 1047.68,-3549851.72"/>
</a>
</g>
</g>
<!-- Node16 -->
<g id="Node000016" class="node">
<title>Node16</title>
<g id="a_Node000016"><a xlink:href="sqsh__error_8h.html" target="_top" xlink:title=" ">
<polygon fill="white" stroke="#666666" points="247.19,-2495261.3 141.19,-2495261.3 141.19,-2495218.94 247.19,-2495218.94 247.19,-2495261.3"/>
<text text-anchor="middle" x="194.19" y="-2495247.8" font-family="Helvetica,sans-Serif" font-size="10.00">sqsh_error.h</text>
</a>
</g>
</g>
<!-- Node3&#45;&gt;Node16 -->
<g id="edge19_Node000003_Node000016" class="edge">
<title>Node3&#45;&gt;Node16</title>
<g id="a_edge19_Node000003_Node000016"><a xlink:title=" ">
<path fill="none" stroke="#63b8ff" d="M653.24,-4030137.58C650.19,-4030137.02 647.13,-4030136.51 644.19,-4030136.07 600.37,-4030129.59 277.06,-4030132.77 247.19,-4030100.07 247.19,-4030100.07 194.46,-2503283.72 194.19,-2495272.76"/>
<polygon fill="#63b8ff" stroke="#63b8ff" points="197.69,-2495273.03 194.19,-2495263.03 190.69,-2495273.03 197.69,-2495273.03"/>
</a>
</g>
</g>
<!-- Node17 -->
<g id="Node000017" class="node">
<title>Node17</title>
<g id="a_Node000017"><a xlink:href="sqsh__mapper_8h.html" target="_top" xlink:title=" ">
<polygon fill="white" stroke="#666666" points="122.94,-2495249.37 9.44,-2495249.37 9.44,-2495230.87 122.94,-2495230.87 122.94,-2495249.37"/>
<text text-anchor="middle" x="66.19" y="-2495235.87" font-family="Helvetica,sans-Serif" font-size="10.00">sqsh_mapper.h</text>
</a>
</g>
</g>
<!-- Node3&#45;&gt;Node17 -->
<g id="edge22_Node000003_Node000017" class="edge">
<title>Node3&#45;&gt;Node17</title>
<g id="a_edge22_Node000003_Node000017"><a xlink:title=" ">
<path fill="none" stroke="#63b8ff" d="M653.24,-4030137.56C650.19,-4030137 647.13,-4030136.5 644.19,-4030136.07 596.29,-4030129.17 242.96,-4030135.67 210.19,-4030100.07 210.19,-4030100.07 66.79,-2501648.5 66.19,-2495261.2"/>
<polygon fill="#63b8ff" stroke="#63b8ff" points="69.69,-2495261.31 66.19,-2495251.31 62.69,-2495261.31 69.69,-2495261.31"/>
</a>
</g>
</g>
<!-- Node18 -->
<g id="Node000018" class="node">
<title>Node18</title>
<g id="a_Node000018"><a xlink:href="sqsh__posix_8h.html" target="_top" xlink:title=" ">
<polygon fill="white" stroke="#666666" points="1255.19,-3549839.89 1149.19,-3549839.89 1149.19,-3549821.39 1255.19,-3549821.39 1255.19,-3549839.89"/>
<text text-anchor="middle" x="1202.19" y="-3549826.39" font-family="Helvetica,sans-Serif" font-size="10.00">sqsh_posix.h</text>
</a>
</g>
</g>
<!-- Node3&#45;&gt;Node18 -->
<g id="edge25_Node000003_Node000018" class="edge">
<title>Node3&#45;&gt;Node18</title>
<g id="a_edge25_Node000003_Node000018"><a xlink:title=" ">
<path fill="none" stroke="#63b8ff" d="M715.02,-4030143.39C807.27,-4030140.27 1076.35,-4030128.79 1102.19,-4030100.07 1380.03,-4029791.33 1203.51,-3553395.9 1202.19,-3549851.51"/>
<polygon fill="#63b8ff" stroke="#63b8ff" points="1205.69,-3549851.72 1202.19,-3549841.72 1198.69,-3549851.72 1205.69,-3549851.72"/>
</a>
</g>
</g>
<!-- Node19 -->
<g id="Node000019" class="node">
<title>Node19</title>
<g id="a_Node000019"><a xlink:href="sqsh__table_8h.html" target="_top" xlink:title=" ">
<polygon fill="white" stroke="#666666" points="371.19,-2495249.37 265.19,-2495249.37 265.19,-2495230.87 371.19,-2495230.87 371.19,-2495249.37"/>
<text text-anchor="middle" x="318.19" y="-2495235.87" font-family="Helvetica,sans-Serif" font-size="10.00">sqsh_table.h</text>
</a>
</g>
</g>
<!-- Node3&#45;&gt;Node19 -->
<g id="edge29_Node000003_Node000019" class="edge">
<title>Node3&#45;&gt;Node19</title>
<g id="a_edge29_Node000003_Node000019"><a xlink:title=" ">
<path fill="none" stroke="#63b8ff" d="M653.24,-4030137.58C650.19,-4030137.02 647.13,-4030136.51 644.19,-4030136.07 600.81,-4030129.63 280.75,-4030132.46 251.19,-4030100.07 251.19,-4030100.07 251.19,-3069561.2 251.19,-3069561.2 252.3,-3069545.09 255.07,-3069541.32 256.19,-3069525.2 393.31,-3067542.71 318.7,-2499143.65 318.19,-2495261.11"/>
<polygon fill="#63b8ff" stroke="#63b8ff" points="321.69,-2495261.38 318.19,-2495251.38 314.69,-2495261.38 321.69,-2495261.38"/>
</a>
</g>
</g>
<!-- Node20 -->
<g id="Node000020" class="node">
<title>Node20</title>
<g id="a_Node000020"><a xlink:href="sqsh__tree_8h.html" target="_top" xlink:title=" ">
<polygon fill="white" stroke="#666666" points="976.44,-3549843.64 877.94,-3549843.64 877.94,-3549817.64 976.44,-3549817.64 976.44,-3549843.64"/>
<text text-anchor="middle" x="927.19" y="-3549830.14" font-family="Helvetica,sans-Serif" font-size="10.00">sqsh_tree.h</text>
</a>
</g>
</g>
<!-- Node3&#45;&gt;Node20 -->
<g id="edge31_Node000003_Node000020" class="edge">
<title>Node3&#45;&gt;Node20</title>
<g id="a_edge31_Node000003_Node000020"><a xlink:title=" ">
<path fill="none" stroke="#63b8ff" d="M714.94,-4030141.28C761.38,-4030135.97 845.97,-4030123.31 864.19,-4030100.07 864.19,-4030100.07 926.68,-3553719.22 927.18,-3549855.27"/>
<polygon fill="#63b8ff" stroke="#63b8ff" points="930.68,-3549855.49 927.19,-3549845.49 923.68,-3549855.49 930.68,-3549855.49"/>
</a>
</g>
</g>
<!-- Node21 -->
<g id="Node000021" class="node">
<title>Node21</title>
<g id="a_Node000021"><a xlink:href="sqsh__utils_8h.html" target="_top" xlink:title=" ">
<polygon fill="white" stroke="#666666" points="366.19,-3549839.89 260.19,-3549839.89 260.19,-3549821.39 366.19,-3549821.39 366.19,-3549839.89"/>
<text text-anchor="middle" x="313.19" y="-3549826.39" font-family="Helvetica,sans-Serif" font-size="10.00">sqsh_utils.h</text>
</a>
</g>
</g>
<!-- Node3&#45;&gt;Node21 -->
<g id="edge34_Node000003_Node000021" class="edge">
<title>Node3&#45;&gt;Node21</title>
<g id="a_edge34_Node000003_Node000021"><a xlink:title=" ">
<path fill="none" stroke="#63b8ff" d="M653.22,-4030137.72C650.17,-4030137.13 647.12,-4030136.57 644.19,-4030136.07 585.83,-4030126.09 419.13,-4030144.68 380.19,-4030100.07 380.19,-4030100.07 313.68,-3553398.2 313.19,-3549851.53"/>
<polygon fill="#63b8ff" stroke="#63b8ff" points="316.69,-3549851.72 313.19,-3549841.72 309.69,-3549851.72 316.69,-3549851.72"/>
</a>
</g>
</g>
<!-- Node22 -->
<g id="Node000022" class="node">
<title>Node22</title>
<g id="a_Node000022"><a xlink:href="sqsh__xattr_8h.html" target="_top" xlink:title=" ">
<polygon fill="white" stroke="#666666" points="668.19,-3549839.89 562.19,-3549839.89 562.19,-3549821.39 668.19,-3549821.39 668.19,-3549839.89"/>
<text text-anchor="middle" x="615.19" y="-3549826.39" font-family="Helvetica,sans-Serif" font-size="10.00">sqsh_xattr.h</text>
</a>
</g>
</g>
<!-- Node3&#45;&gt;Node22 -->
<g id="edge36_Node000003_Node000022" class="edge">
<title>Node3&#45;&gt;Node22</title>
<g id="a_edge36_Node000003_Node000022"><a xlink:title=" ">
<path fill="none" stroke="#63b8ff" d="M682.45,-4030135.89C680.72,-4030127.02 678.18,-4030112.63 677.19,-4030100.07 546.88,-4028443.79 614.68,-3553385.88 615.18,-3549851.46"/>
<polygon fill="#63b8ff" stroke="#63b8ff" points="618.68,-3549851.69 615.19,-3549841.69 611.68,-3549851.69 618.68,-3549851.69"/>
</a>
</g>
</g>
<!-- Node4&#45;&gt;Node5 -->
<g id="edge4_Node000004_Node000005" class="edge">
<title>Node4&#45;&gt;Node5</title>
<g id="a_edge4_Node000004_Node000005"><a xlink:title=" ">
<path fill="none" stroke="#63b8ff" d="M482.3,-3069561.13C482.71,-2745174.78 485.24,-2307293.37 494.19,-1920955.05 494.19,-1920946.95 494.19,-1920938.86 494.19,-1920930.76"/>
<polygon fill="#63b8ff" stroke="#63b8ff" points="497.69,-1920930.83 494.19,-1920920.83 490.69,-1920930.83 497.69,-1920930.83"/>
</a>
</g>
</g>
<!-- Node9 -->
<g id="Node000009" class="node">
<title>Node9</title>
<g id="a_Node000009"><a xlink:href="sqsh__data_8h.html" target="_top" xlink:title=" ">
<polygon fill="white" stroke="#666666" points="601.44,-2495261.3 502.94,-2495261.3 502.94,-2495218.94 601.44,-2495218.94 601.44,-2495261.3"/>
<text text-anchor="middle" x="552.19" y="-2495247.8" font-family="Helvetica,sans-Serif" font-size="10.00">sqsh_data.h</text>
</a>
</g>
</g>
<!-- Node4&#45;&gt;Node9 -->
<g id="edge8_Node000004_Node000009" class="edge">
<title>Node4&#45;&gt;Node9</title>
<g id="a_edge8_Node000004_Node000009"><a xlink:title=" ">
<path fill="none" stroke="#63b8ff" d="M514.61,-3069560.95C532.71,-2792881.72 551.95,-2498795.8 552.18,-2495273.09"/>
<polygon fill="#63b8ff" stroke="#63b8ff" points="555.68,-2495273.25 552.19,-2495263.25 548.68,-2495273.25 555.68,-2495273.25"/>
</a>
</g>
</g>
<!-- Node6 -->
<g id="Node000006" class="node">
<title>Node6</title>
<g id="a_Node000006"><a xlink:title=" ">
<polygon fill="#e0e0e0" stroke="#999999" points="554.94,-960344.25 471.44,-960344.25 471.44,0 554.94,0 554.94,-960344.25"/>
<text text-anchor="middle" x="513.19" y="-960330.75" font-family="Helvetica,sans-Serif" font-size="10.00">stdbool.h</text>
</a>
</g>
</g>
<!-- Node5&#45;&gt;Node6 -->
<g id="edge5_Node000005_Node000006" class="edge">
<title>Node5&#45;&gt;Node6</title>
<g id="a_edge5_Node000005_Node000006"><a xlink:title=" ">
<path fill="none" stroke="#63b8ff" d="M513.19,-960379.97C513.19,-960371.96 513.19,-960363.94 513.19,-960355.92"/>
<polygon fill="#63b8ff" stroke="#63b8ff" points="516.69,-960356.11 513.19,-960346.11 509.69,-960356.11 516.69,-960356.11"/>
</a>
</g>
</g>
<!-- Node7 -->
<g id="Node000007" class="node">
<title>Node7</title>
<g id="a_Node000007"><a xlink:title=" ">
<polygon fill="#e0e0e0" stroke="#999999" points="375.19,-480193.3 299.19,-480193.3 299.19,-480150.94 375.19,-480150.94 375.19,-480193.3"/>
<text text-anchor="middle" x="337.19" y="-480179.8" font-family="Helvetica,sans-Serif" font-size="10.00">stddef.h</text>
</a>
</g>
</g>
<!-- Node5&#45;&gt;Node7 -->
<g id="edge6_Node000005_Node000007" class="edge">
<title>Node5&#45;&gt;Node7</title>
<g id="a_edge6_Node000005_Node000007"><a xlink:title=" ">
<path fill="none" stroke="#63b8ff" d="M455.94,-1128221.27C404.84,-849355.55 337.91,-484139.19 337.19,-480205.18"/>
<polygon fill="#63b8ff" stroke="#63b8ff" points="340.69,-480205.31 337.19,-480195.31 333.69,-480205.31 340.69,-480205.31"/>
</a>
</g>
</g>
<!-- Node8 -->
<g id="Node000008" class="node">
<title>Node8</title>
<g id="a_Node000008"><a xlink:title=" ">
<polygon fill="#e0e0e0" stroke="#999999" points="954.19,-480181.37 878.19,-480181.37 878.19,-480162.87 954.19,-480162.87 954.19,-480181.37"/>
<text text-anchor="middle" x="916.19" y="-480167.87" font-family="Helvetica,sans-Serif" font-size="10.00">stdint.h</text>
</a>
</g>
</g>
<!-- Node5&#45;&gt;Node8 -->
<g id="edge7_Node000005_Node000008" class="edge">
<title>Node5&#45;&gt;Node8</title>
<g id="a_edge7_Node000005_Node000008"><a xlink:title=" ">
<path fill="none" stroke="#63b8ff" d="M570.44,-1304204.12C681.29,-1040007.43 914.57,-484021.49 916.18,-480193"/>
<polygon fill="#63b8ff" stroke="#63b8ff" points="919.68,-480193.18 916.18,-480183.18 912.68,-480193.18 919.68,-480193.18"/>
</a>
</g>
</g>
<!-- Node9&#45;&gt;Node5 -->
<g id="edge9_Node000009_Node000005" class="edge">
<title>Node9&#45;&gt;Node5</title>
<g id="a_edge9_Node000009_Node000005"><a xlink:title=" ">
<path fill="none" stroke="#63b8ff" d="M552.19,-2495218.86C552.08,-2492409.33 541.19,-2197947.78 530.95,-1920931.01"/>
<polygon fill="#63b8ff" stroke="#63b8ff" points="534.45,-1920931.03 530.95,-1920921.03 527.45,-1920931.03 534.45,-1920931.03"/>
</a>
</g>
</g>
<!-- Node10&#45;&gt;Node11 -->
<g id="edge12_Node000010_Node000011" class="edge">
<title>Node10&#45;&gt;Node11</title>
<g id="a_edge12_Node000010_Node000011"><a xlink:title=" ">
<path fill="none" stroke="#63b8ff" d="M754.19,-3549817.2C754.2,-3545660.35 757.17,-2500488.79 757.19,-2495260.8"/>
<polygon fill="#63b8ff" stroke="#63b8ff" points="760.69,-2495261.19 757.19,-2495251.19 753.69,-2495261.19 760.69,-2495261.19"/>
</a>
</g>
</g>
<!-- Node11&#45;&gt;Node5 -->
<g id="edge13_Node000011_Node000005" class="edge">
<title>Node11&#45;&gt;Node5</title>
<g id="a_edge13_Node000011_Node000005"><a xlink:title=" ">
<path fill="none" stroke="#63b8ff" d="M757.19,-2495230.57C756.86,-2493331.33 702.88,-2175429.07 643.19,-1920955.05 621.56,-1828753.13 594.36,-1726595.2 570.44,-1640282.62"/>
<polygon fill="#63b8ff" stroke="#63b8ff" points="573.94,-1640282.77 570.44,-1640272.78 566.94,-1640282.78 573.94,-1640282.77"/>
</a>
</g>
</g>
<!-- Node12&#45;&gt;Node5 -->
<g id="edge15_Node000012_Node000005" class="edge">
<title>Node12&#45;&gt;Node5</title>
<g id="a_edge15_Node000012_Node000005"><a xlink:title=" ">
<path fill="none" stroke="#63b8ff" d="M1044.19,-3549821.07C1044.97,-3547489.16 1204.82,-3069914.36 985.19,-3069561.2 966.08,-3069530.48 931.29,-3069555.92 912.19,-3069525.2 912.19,-3069525.2 859.19,-1920955.05 859.19,-1920955.05 801.45,-1770308.81 652.89,-1593084.62 570.45,-1501820.04"/>
<polygon fill="#63b8ff" stroke="#63b8ff" points="573.95,-1501820.06 570.44,-1501810.07 566.95,-1501820.07 573.95,-1501820.06"/>
</a>
</g>
</g>
<!-- Node13 -->
<g id="Node000013" class="node">
<title>Node13</title>
<g id="a_Node000013"><a xlink:title=" ">
<polygon fill="#e0e0e0" stroke="#999999" points="1068.44,-2975525.1 999.94,-2975525.1 999.94,-2014955.15 1068.44,-2014955.15 1068.44,-2975525.1"/>
<text text-anchor="middle" x="1034.19" y="-2975511.6" font-family="Helvetica,sans-Serif" font-size="10.00">fcntl.h</text>
</a>
</g>
</g>
<!-- Node12&#45;&gt;Node13 -->
<g id="edge16_Node000012_Node000013" class="edge">
<title>Node12&#45;&gt;Node13</title>
<g id="a_edge16_Node000012_Node000013"><a xlink:title=" ">
<path fill="none" stroke="#63b8ff" d="M1044.19,-3549821.05C1044.17,-3547988.51 1041.37,-3253014.16 1038.74,-2975536.84"/>
<polygon fill="#63b8ff" stroke="#63b8ff" points="1042.24,-2975536.84 1038.74,-2975526.84 1035.24,-2975536.84 1042.24,-2975536.84"/>
</a>
</g>
</g>
<!-- Node12&#45;&gt;Node14 -->
<g id="edge17_Node000012_Node000014" class="edge">
<title>Node12&#45;&gt;Node14</title>
<g id="a_edge17_Node000012_Node000014"><a xlink:title=" ">
<path fill="none" stroke="#63b8ff" d="M1044.19,-3549821.05C1044.32,-3547978.93 1066.08,-3249921.96 1086.44,-2971186.46"/>
<polygon fill="#63b8ff" stroke="#63b8ff" points="1089.94,-2971186.81 1086.44,-2971176.81 1082.94,-2971186.81 1089.94,-2971186.81"/>
</a>
</g>
</g>
<!-- Node15 -->
<g id="Node000015" class="node">
<title>Node15</title>
<g id="a_Node000015"><a xlink:title=" ">
<polygon fill="#e0e0e0" stroke="#999999" points="981.69,-2495253.12 920.69,-2495253.12 920.69,-2495227.12 981.69,-2495227.12 981.69,-2495253.12"/>
<text text-anchor="middle" x="951.19" y="-2495239.62" font-family="Helvetica,sans-Serif" font-size="10.00">time.h</text>
</a>
</g>
</g>
<!-- Node12&#45;&gt;Node15 -->
<g id="edge18_Node000012_Node000015" class="edge">
<title>Node12&#45;&gt;Node15</title>
<g id="a_edge18_Node000012_Node000015"><a xlink:title=" ">
<path fill="none" stroke="#63b8ff" d="M1044.19,-3549820.95C1043.96,-3548071.29 1010.34,-3282290.27 991.19,-3069525.2 968.33,-2815563.98 951.36,-2498429.89 951.19,-2495265"/>
<polygon fill="#63b8ff" stroke="#63b8ff" points="954.69,-2495265.03 951.19,-2495255.03 947.69,-2495265.03 954.69,-2495265.03"/>
</a>
</g>
</g>
<!-- Node16&#45;&gt;Node5 -->
<g id="edge20_Node000016_Node000005" class="edge">
<title>Node16&#45;&gt;Node5</title>
<g id="a_edge20_Node000016_Node000005"><a xlink:title=" ">
<path fill="none" stroke="#63b8ff" d="M194.19,-2495218.57C194,-2492280.59 174.5,-2175008.44 256.19,-1920955.05 300.5,-1783136.26 394.72,-1623072.98 455.93,-1526933.66"/>
<polygon fill="#63b8ff" stroke="#63b8ff" points="459.43,-1526933.9 455.94,-1526923.9 452.43,-1526933.89 459.43,-1526933.9"/>
</a>
</g>
</g>
<!-- Node17&#45;&gt;Node5 -->
<g id="edge23_Node000017_Node000005" class="edge">
<title>Node17&#45;&gt;Node5</title>
<g id="a_edge23_Node000017_Node000005"><a xlink:title=" ">
<path fill="none" stroke="#63b8ff" d="M66.18,-2495230.82C65.37,-2492720.07 -118.96,-1921384.41 132.19,-1920955.05 148.66,-1920926.88 179.7,-1920947.21 196.19,-1920919.05 1666.63,-1918406.72 811.72,-1554408.94 570.47,-1461859.19"/>
<polygon fill="#63b8ff" stroke="#63b8ff" points="573.97,-1461859.31 570.44,-1461849.32 566.97,-1461859.33 573.97,-1461859.31"/>
</a>
</g>
</g>
<!-- Node17&#45;&gt;Node7 -->
<g id="edge24_Node000017_Node000007" class="edge">
<title>Node17&#45;&gt;Node7</title>
<g id="a_edge24_Node000017_Node000007"><a xlink:title=" ">
<path fill="none" stroke="#63b8ff" d="M66.19,-2495230.57C66.39,-2493331.33 99.46,-2175429.07 132.19,-1920955.05 214.24,-1282941.43 336.29,-486005.76 337.18,-480204.98"/>
<polygon fill="#63b8ff" stroke="#63b8ff" points="340.68,-480205.22 337.18,-480195.22 333.68,-480205.22 340.68,-480205.22"/>
</a>
</g>
</g>
<!-- Node18&#45;&gt;Node5 -->
<g id="edge26_Node000018_Node000005" class="edge">
<title>Node18&#45;&gt;Node5</title>
<g id="a_edge26_Node000018_Node000005"><a xlink:title=" ">
<path fill="none" stroke="#63b8ff" d="M1202.19,-3549820.94C1202.25,-3545607.08 1226.48,-2011323.78 1164.19,-1920955.05 1047.53,-1751730.3 706.72,-1548968.04 570.46,-1472187.61"/>
<polygon fill="#63b8ff" stroke="#63b8ff" points="573.96,-1472187.7 570.44,-1472177.7 566.96,-1472187.71 573.96,-1472187.7"/>
</a>
</g>
</g>
<!-- Node18&#45;&gt;Node8 -->
<g id="edge27_Node000018_Node000008" class="edge">
<title>Node18&#45;&gt;Node8</title>
<g id="a_edge27_Node000018_Node000008"><a xlink:title=" ">
<path fill="none" stroke="#63b8ff" d="M1202.19,-3549821.14C1202.43,-3546626.71 1270.83,-2643617.91 1199.19,-1920955.05 1135.89,-1282443.27 917.44,-484761.19 916.19,-480192.84"/>
<polygon fill="#63b8ff" stroke="#63b8ff" points="919.69,-480193.23 916.19,-480183.23 912.69,-480193.23 919.69,-480193.23"/>
</a>
</g>
</g>
<!-- Node18&#45;&gt;Node14 -->
<g id="edge28_Node000018_Node000014" class="edge">
<title>Node18&#45;&gt;Node14</title>
<g id="a_edge28_Node000018_Node000014"><a xlink:title=" ">
<path fill="none" stroke="#63b8ff" d="M1202.19,-3549821.05C1202.04,-3547927.04 1177.84,-3232894.7 1155.94,-2947684.01"/>
<polygon fill="#63b8ff" stroke="#63b8ff" points="1159.44,-2947684.1 1155.94,-2947674.1 1152.44,-2947684.1 1159.44,-2947684.1"/>
</a>
</g>
</g>
<!-- Node19&#45;&gt;Node5 -->
<g id="edge30_Node000019_Node000005" class="edge">
<title>Node19&#45;&gt;Node5</title>
<g id="a_edge30_Node000019_Node000005"><a xlink:title=" ">
<path fill="none" stroke="#63b8ff" d="M318.19,-2495230.57C318.3,-2493331.33 336.43,-2175429.07 385.19,-1920955.05 403.5,-1825389.44 431.06,-1719128.14 455.93,-1630900.64"/>
<polygon fill="#63b8ff" stroke="#63b8ff" points="459.43,-1630900.79 455.94,-1630890.79 452.43,-1630900.79 459.43,-1630900.79"/>
</a>
</g>
</g>
<!-- Node20&#45;&gt;Node5 -->
<g id="edge32_Node000020_Node000005" class="edge">
<title>Node20&#45;&gt;Node5</title>
<g id="a_edge32_Node000020_Node000005"><a xlink:title=" ">
<path fill="none" stroke="#63b8ff" d="M927.19,-3549817.44C926.91,-3547745.8 892.25,-3282159.98 875.19,-3069525.2 854.7,-2814287.39 902.1,-2176192.84 815.19,-1920955.05 765.64,-1775437.52 643.31,-1605120.88 570.45,-1511435.7"/>
<polygon fill="#63b8ff" stroke="#63b8ff" points="573.95,-1511435.95 570.44,-1511425.96 566.95,-1511435.96 573.95,-1511435.95"/>
</a>
</g>
</g>
<!-- Node20&#45;&gt;Node11 -->
<g id="edge33_Node000020_Node000011" class="edge">
<title>Node20&#45;&gt;Node11</title>
<g id="a_edge33_Node000020_Node000011"><a xlink:title=" ">
<path fill="none" stroke="#63b8ff" d="M927.19,-3549817.3C927.7,-3547021.96 1014.91,-3069948.59 864.19,-3069561.2 856.32,-3069540.97 839.06,-3069545.43 831.19,-3069525.2 470.91,-3068599.17 755.25,-2499115.99 757.18,-2495260.79"/>
<polygon fill="#63b8ff" stroke="#63b8ff" points="760.68,-2495260.93 757.18,-2495250.93 753.68,-2495260.93 760.68,-2495260.93"/>
</a>
</g>
</g>
<!-- Node21&#45;&gt;Node5 -->
<g id="edge35_Node000021_Node000005" class="edge">
<title>Node21&#45;&gt;Node5</title>
<g id="a_edge35_Node000021_Node000005"><a xlink:title=" ">
<path fill="none" stroke="#63b8ff" d="M313.19,-3549820.95C313.5,-3548071.29 361.36,-3282290.27 380.19,-3069525.2 425.35,-2559049.58 365.8,-2431430.67 423.19,-1920955.05 430.94,-1852026.72 443.06,-1777534.22 455.93,-1708257.47"/>
<polygon fill="#63b8ff" stroke="#63b8ff" points="459.43,-1708257.49 455.94,-1708247.49 452.43,-1708257.49 459.43,-1708257.49"/>
</a>
</g>
</g>
<!-- Node22&#45;&gt;Node5 -->
<g id="edge37_Node000022_Node000005" class="edge">
<title>Node22&#45;&gt;Node5</title>
<g id="a_edge37_Node000022_Node000005"><a xlink:title=" ">
<path fill="none" stroke="#63b8ff" d="M615.19,-3549821.14C615.43,-3546626.71 684.27,-2643617.91 610.19,-1920955.05 602.07,-1841815.95 586.65,-1755342.05 570.44,-1677848.71"/>
<polygon fill="#63b8ff" stroke="#63b8ff" points="573.94,-1677849.14 570.44,-1677839.14 566.94,-1677849.14 573.94,-1677849.14"/>
</a>
</g>
</g>
<!-- Node22&#45;&gt;Node9 -->
<g id="edge38_Node000022_Node000009" class="edge">
<title>Node22&#45;&gt;Node9</title>
<g id="a_edge38_Node000022_Node000009"><a xlink:title=" ">
<path fill="none" stroke="#63b8ff" d="M615.19,-3549821.05C614.98,-3546367.67 552.58,-2501899.29 552.19,-2495272.79"/>
<polygon fill="#63b8ff" stroke="#63b8ff" points="555.69,-2495272.83 552.19,-2495262.83 548.69,-2495272.83 555.69,-2495272.83"/>
</a>
</g>
</g>
</g>
</svg>

<g id="navigator" transform="translate(0 0)" fill="#404254">
  <rect fill="#f2f5e9" fill-opacity="0.5" stroke="#606060" stroke-width=".5" x="0" y="0" width="60" height="60"/>
  <use id="zoomplus" xlink:href="#zoomPlus" x="17" y="9" onmousedown="handleZoom(evt,'in')"/>
  <use id="zoomminus" xlink:href="#zoomMin" x="42" y="9" onmousedown="handleZoom(evt,'out')"/>
  <use id="reset" xlink:href="#resetDef" x="30" y="36" onmousedown="handleReset()"/>
   <use id="arrowup" xlink:href="#arrowUp" x="0" y="0" onmousedown="handlePan(0,-1)"/>
  <use id="arrowright" xlink:href="#arrowRight" x="0" y="0" onmousedown="handlePan(1,0)"/>
  <use id="arrowdown" xlink:href="#arrowDown" x="0" y="0" onmousedown="handlePan(0,1)"/>
  <use id="arrowleft" xlink:href="#arrowLeft" x="0" y="0" onmousedown="handlePan(-1,0)"/>
</g>
<svg viewBox="0 0 15 15" width="100%" height="30px" preserveAspectRatio="xMaxYMin meet">
 <g id="arrow_out" transform="scale(0.3 0.3)">
  <a xlink:href="list__xattrs_8c__incl_org.svg" target="_base">
   <rect id="button" ry="5" rx="5" y="6" x="6" height="38" width="38"
        fill="#f2f5e9" fill-opacity="0.5" stroke="#606060" stroke-width="1.0"/>
   <path id="arrow"
     d="M 11.500037,31.436501 C 11.940474,20.09759 22.043105,11.32322 32.158766,21.979434 L 37.068811,17.246167 C 37.068811,17.246167 37.088388,32 37.088388,32 L 22.160133,31.978069 C 22.160133,31.978069 26.997745,27.140456 26.997745,27.140456 C 18.528582,18.264221 13.291696,25.230495 11.500037,31.436501 z"
     style="fill:#404040;"/>
  </a>
 </g>
</svg>

<style type='text/css'>
<![CDATA[
[data-mouse-over-selected='false'] { opacity: 0.7; }
[data-mouse-over-selected='true']  { opacity: 1.0; }
]]>
</style>
<script type="application/ecmascript"><![CDATA[
document.addEventListener('DOMContentLoaded', (event) => {
  highlightEdges();
  highlightAdjacentNodes();
});
]]></script>
</svg>
