<?xml version="1.0" encoding="UTF-8" standalone="no"?>
<!DOCTYPE svg PUBLIC "-//W3C//DTD SVG 1.1//EN"
 "http://www.w3.org/Graphics/SVG/1.1/DTD/svg11.dtd">
<!-- Generated by graphviz version 9.0.0 (20230911.1827)
 -->
<!-- Title: examples/list_dir_ll.c Pages: 1 -->
<svg width="1251pt" height="118558pt"
 viewBox="0.00 0.00 1251.20 118557.84" xmlns="http://www.w3.org/2000/svg" xmlns:xlink="http://www.w3.org/1999/xlink">
<g id="graph0" class="graph" transform="scale(1 1) rotate(0) translate(4 118553.84)">
<title>examples/list_dir_ll.c</title>
<!-- Node1 -->
<g id="Node000001" class="node">
<title>Node1</title>
<g id="a_Node000001"><a xlink:title=" ">
<polygon fill="#999999" stroke="#666666" points="740.41,-118549.84 559.41,-118549.84 559.41,-118531.33 740.41,-118531.33 740.41,-118549.84"/>
<text text-anchor="middle" x="649.91" y="-118536.34" font-family="Helvetica,sans-Serif" font-size="10.00">examples/list_dir_ll.c</text>
</a>
</g>
</g>
<!-- Node2 -->
<g id="Node000002" class="node">
<title>Node2</title>
<g id="a_Node000002"><a xlink:href="sqsh_8h.html" target="_top" xlink:title=" ">
<polygon fill="white" stroke="#666666" points="680.41,-118495.33 619.41,-118495.33 619.41,-118476.83 680.41,-118476.83 680.41,-118495.33"/>
<text text-anchor="middle" x="649.91" y="-118481.83" font-family="Helvetica,sans-Serif" font-size="10.00">sqsh.h</text>
</a>
</g>
</g>
<!-- Node1&#45;&gt;Node2 -->
<g id="edge1_Node000001_Node000002" class="edge">
<title>Node1&#45;&gt;Node2</title>
<g id="a_edge1_Node000001_Node000002"><a xlink:title=" ">
<path fill="none" stroke="#63b8ff" d="M649.91,-118530.91C649.91,-118524.41 649.91,-118515.25 649.91,-118506.99"/>
<polygon fill="#63b8ff" stroke="#63b8ff" points="653.41,-118507.1 649.91,-118497.1 646.41,-118507.1 653.41,-118507.1"/>
</a>
</g>
</g>
<!-- Node13 -->
<g id="Node000013" class="node">
<title>Node13</title>
<g id="a_Node000013"><a xlink:title=" ">
<polygon fill="#e0e0e0" stroke="#999999" points="273.16,-151.08 204.66,-151.08 204.66,-132.58 273.16,-132.58 273.16,-151.08"/>
<text text-anchor="middle" x="238.91" y="-137.58" font-family="Helvetica,sans-Serif" font-size="10.00">stdio.h</text>
</a>
</g>
</g>
<!-- Node1&#45;&gt;Node13 -->
<g id="edge33_Node000001_Node000013" class="edge">
<title>Node1&#45;&gt;Node13</title>
<g id="a_edge33_Node000001_Node000013"><a xlink:title=" ">
<path fill="none" stroke="#63b8ff" d="M559.19,-118532.26C443.62,-118520.83 253.67,-118494.28 210.91,-118440.83 146.78,-118360.67 184.12,-289.92 210.91,-190.83 213.81,-180.1 219.77,-169.31 225.44,-160.68"/>
<polygon fill="#63b8ff" stroke="#63b8ff" points="228.23,-162.81 231.13,-152.62 222.51,-158.77 228.23,-162.81"/>
</a>
</g>
</g>
<!-- Node21 -->
<g id="Node000021" class="node">
<title>Node21</title>
<g id="a_Node000021"><a xlink:title=" ">
<polygon fill="#e0e0e0" stroke="#999999" points="774.91,-118495.33 698.91,-118495.33 698.91,-118476.83 774.91,-118476.83 774.91,-118495.33"/>
<text text-anchor="middle" x="736.91" y="-118481.83" font-family="Helvetica,sans-Serif" font-size="10.00">stdlib.h</text>
</a>
</g>
</g>
<!-- Node1&#45;&gt;Node21 -->
<g id="edge34_Node000001_Node000021" class="edge">
<title>Node1&#45;&gt;Node21</title>
<g id="a_edge34_Node000001_Node000021"><a xlink:title=" ">
<path fill="none" stroke="#63b8ff" d="M664.28,-118530.91C677.5,-118522.93 697.37,-118510.94 712.99,-118501.51"/>
<polygon fill="#63b8ff" stroke="#63b8ff" points="714.47,-118504.71 721.23,-118496.54 710.86,-118498.71 714.47,-118504.71"/>
</a>
</g>
</g>
<!-- Node3 -->
<g id="Node000003" class="node">
<title>Node3</title>
<g id="a_Node000003"><a xlink:href="sqsh__archive_8h.html" target="_top" xlink:title=" ">
<polygon fill="white" stroke="#666666" points="1029.41,-118440.83 908.41,-118440.83 908.41,-190.83 1029.41,-190.83 1029.41,-118440.83"/>
<text text-anchor="middle" x="968.91" y="-118427.33" font-family="Helvetica,sans-Serif" font-size="10.00">sqsh_archive.h</text>
</a>
</g>
</g>
<!-- Node2&#45;&gt;Node3 -->
<g id="edge2_Node000002_Node000003" class="edge">
<title>Node2&#45;&gt;Node3</title>
<g id="a_edge2_Node000002_Node000003"><a xlink:title=" ">
<path fill="none" stroke="#63b8ff" d="M680.9,-118478.58C683.94,-118477.97 686.98,-118477.38 689.91,-118476.83 736.22,-118468.06 868.52,-118476.85 898.91,-118440.83 1039.47,-118274.19 1050.5,-101616.35 1029.92,-86026.62"/>
<polygon fill="#63b8ff" stroke="#63b8ff" points="1033.42,-86026.71 1029.91,-86016.72 1026.42,-86026.72 1033.42,-86026.71"/>
</a>
</g>
</g>
<!-- Node4 -->
<g id="Node000004" class="node">
<title>Node4</title>
<g id="a_Node000004"><a xlink:href="sqsh__common_8h.html" target="_top" xlink:title=" ">
<polygon fill="white" stroke="#666666" points="831.66,-92.83 718.16,-92.83 718.16,-78.43 831.66,-78.43 831.66,-92.83"/>
<text text-anchor="middle" x="774.91" y="-76.13" font-family="Helvetica,sans-Serif" font-size="10.00">sqsh_common.h</text>
</a>
</g>
</g>
<!-- Node2&#45;&gt;Node4 -->
<g id="edge9_Node000002_Node000004" class="edge">
<title>Node2&#45;&gt;Node4</title>
<g id="a_edge9_Node000002_Node000004"><a xlink:title=" ">
<path fill="none" stroke="#63b8ff" d="M680.85,-118478.32C683.91,-118477.77 686.96,-118477.26 689.91,-118476.83 735.6,-118470.15 1072.7,-118474.85 1103.91,-118440.83 1381.53,-118138.15 1157.82,-565.54 1157.91,-154.83 1157.91,-143.27 1165.62,-137.43 1157.91,-128.83 1137.34,-105.86 947.8,-94.09 843.3,-89.3"/>
<polygon fill="#63b8ff" stroke="#63b8ff" points="843.58,-85.81 833.44,-88.86 843.27,-92.8 843.58,-85.81"/>
</a>
</g>
</g>
<!-- Node9 -->
<g id="Node000009" class="node">
<title>Node9</title>
<g id="a_Node000009"><a xlink:href="sqsh__directory_8h.html" target="_top" xlink:title=" ">
<polygon fill="white" stroke="#666666" points="765.91,-59325.08 629.91,-59325.08 629.91,-59306.58 765.91,-59306.58 765.91,-59325.08"/>
<text text-anchor="middle" x="697.91" y="-59311.58" font-family="Helvetica,sans-Serif" font-size="10.00">sqsh_directory.h</text>
</a>
</g>
</g>
<!-- Node2&#45;&gt;Node9 -->
<g id="edge10_Node000002_Node000009" class="edge">
<title>Node2&#45;&gt;Node9</title>
<g id="a_edge10_Node000002_Node000009"><a xlink:title=" ">
<path fill="none" stroke="#63b8ff" d="M649.92,-118476.52C650.57,-117673.26 696.9,-60560.76 697.89,-59336.79"/>
<polygon fill="#63b8ff" stroke="#63b8ff" points="701.39,-59337.08 697.9,-59327.07 694.39,-59337.07 701.39,-59337.08"/>
</a>
</g>
</g>
<!-- Node10 -->
<g id="Node000010" class="node">
<title>Node10</title>
<g id="a_Node000010"><a xlink:href="sqsh__file_8h.html" target="_top" xlink:title=" ">
<polygon fill="white" stroke="#666666" points="695.16,-151.08 596.66,-151.08 596.66,-132.58 695.16,-132.58 695.16,-151.08"/>
<text text-anchor="middle" x="645.91" y="-137.58" font-family="Helvetica,sans-Serif" font-size="10.00">sqsh_file.h</text>
</a>
</g>
</g>
<!-- Node2&#45;&gt;Node10 -->
<g id="edge20_Node000002_Node000010" class="edge">
<title>Node2&#45;&gt;Node10</title>
<g id="a_edge20_Node000002_Node000010"><a xlink:title=" ">
<path fill="none" stroke="#63b8ff" d="M641.97,-118476.38C634.88,-118467.98 625.01,-118454.56 620.91,-118440.83 591.55,-118342.47 596.5,-290.53 620.91,-190.83 623.45,-180.43 628.68,-169.78 633.7,-161.17"/>
<polygon fill="#63b8ff" stroke="#63b8ff" points="636.61,-163.13 638.93,-152.79 630.67,-159.42 636.61,-163.13"/>
</a>
</g>
</g>
<!-- Node11 -->
<g id="Node000011" class="node">
<title>Node11</title>
<g id="a_Node000011"><a xlink:href="sqsh__easy_8h.html" target="_top" xlink:title=" ">
<polygon fill="white" stroke="#666666" points="164.16,-59325.08 65.66,-59325.08 65.66,-59306.58 164.16,-59306.58 164.16,-59325.08"/>
<text text-anchor="middle" x="114.91" y="-59311.58" font-family="Helvetica,sans-Serif" font-size="10.00">sqsh_easy.h</text>
</a>
</g>
</g>
<!-- Node2&#45;&gt;Node11 -->
<g id="edge13_Node000002_Node000011" class="edge">
<title>Node2&#45;&gt;Node11</title>
<g id="a_edge13_Node000002_Node000011"><a xlink:title=" ">
<path fill="none" stroke="#63b8ff" d="M619.23,-118484.31C524.02,-118481.62 238.29,-118471.06 210.91,-118440.83 -61.8,-118139.74 111.15,-60556.6 114.85,-59336.49"/>
<polygon fill="#63b8ff" stroke="#63b8ff" points="118.35,-59336.85 114.88,-59326.84 111.35,-59336.83 118.35,-59336.85"/>
</a>
</g>
</g>
<!-- Node15 -->
<g id="Node000015" class="node">
<title>Node15</title>
<g id="a_Node000015"><a xlink:href="sqsh__error_8h.html" target="_top" xlink:title=" ">
<polygon fill="white" stroke="#666666" points="1024.91,-151.08 918.91,-151.08 918.91,-132.58 1024.91,-132.58 1024.91,-151.08"/>
<text text-anchor="middle" x="971.91" y="-137.58" font-family="Helvetica,sans-Serif" font-size="10.00">sqsh_error.h</text>
</a>
</g>
</g>
<!-- Node2&#45;&gt;Node15 -->
<g id="edge18_Node000002_Node000015" class="edge">
<title>Node2&#45;&gt;Node15</title>
<g id="a_edge18_Node000002_Node000015"><a xlink:title=" ">
<path fill="none" stroke="#63b8ff" d="M680.86,-118478.37C683.91,-118477.81 686.97,-118477.28 689.91,-118476.83 766.96,-118464.94 986.68,-118498.72 1038.91,-118440.83 1038.91,-118440.83 1038.91,-190.83 1038.91,-190.83 1031.3,-176.02 1016.77,-164.76 1003.18,-156.87"/>
<polygon fill="#63b8ff" stroke="#63b8ff" points="1004.91,-153.83 994.44,-152.22 1001.62,-160.01 1004.91,-153.83"/>
</a>
</g>
</g>
<!-- Node16 -->
<g id="Node000016" class="node">
<title>Node16</title>
<g id="a_Node000016"><a xlink:href="sqsh__mapper_8h.html" target="_top" xlink:title=" ">
<polygon fill="white" stroke="#666666" points="333.66,-59325.08 220.16,-59325.08 220.16,-59306.58 333.66,-59306.58 333.66,-59325.08"/>
<text text-anchor="middle" x="276.91" y="-59311.58" font-family="Helvetica,sans-Serif" font-size="10.00">sqsh_mapper.h</text>
</a>
</g>
</g>
<!-- Node2&#45;&gt;Node16 -->
<g id="edge21_Node000002_Node000016" class="edge">
<title>Node2&#45;&gt;Node16</title>
<g id="a_edge21_Node000002_Node000016"><a xlink:title=" ">
<path fill="none" stroke="#63b8ff" d="M618.92,-118485.49C548.24,-118485.69 378.45,-118481.81 342.91,-118440.83 209.84,-118287.37 275.48,-60559.73 276.89,-59336.54"/>
<polygon fill="#63b8ff" stroke="#63b8ff" points="280.39,-59336.87 276.9,-59326.86 273.39,-59336.86 280.39,-59336.87"/>
</a>
</g>
</g>
<!-- Node17 -->
<g id="Node000017" class="node">
<title>Node17</title>
<g id="a_Node000017"><a xlink:href="sqsh__posix_8h.html" target="_top" xlink:title=" ">
<polygon fill="white" stroke="#666666" points="457.91,-59337.04 351.91,-59337.04 351.91,-59294.61 457.91,-59294.61 457.91,-59337.04"/>
<text text-anchor="middle" x="404.91" y="-59323.54" font-family="Helvetica,sans-Serif" font-size="10.00">sqsh_posix.h</text>
</a>
</g>
</g>
<!-- Node2&#45;&gt;Node17 -->
<g id="edge22_Node000002_Node000017" class="edge">
<title>Node2&#45;&gt;Node17</title>
<g id="a_edge22_Node000002_Node000017"><a xlink:title=" ">
<path fill="none" stroke="#63b8ff" d="M619.04,-118482.15C571.92,-118476.97 485.52,-118464.45 466.91,-118440.83 341.57,-118281.74 403.19,-60893.36 404.87,-59348.58"/>
<polygon fill="#63b8ff" stroke="#63b8ff" points="408.37,-59348.61 404.88,-59338.61 401.37,-59348.6 408.37,-59348.61"/>
</a>
</g>
</g>
<!-- Node18 -->
<g id="Node000018" class="node">
<title>Node18</title>
<g id="a_Node000018"><a xlink:href="sqsh__table_8h.html" target="_top" xlink:title=" ">
<polygon fill="white" stroke="#666666" points="1148.91,-154.83 1042.91,-154.83 1042.91,-128.83 1148.91,-128.83 1148.91,-154.83"/>
<text text-anchor="middle" x="1095.91" y="-141.33" font-family="Helvetica,sans-Serif" font-size="10.00">sqsh_table.h</text>
</a>
</g>
</g>
<!-- Node2&#45;&gt;Node18 -->
<g id="edge25_Node000002_Node000018" class="edge">
<title>Node2&#45;&gt;Node18</title>
<g id="a_edge25_Node000002_Node000018"><a xlink:title=" ">
<path fill="none" stroke="#63b8ff" d="M680.86,-118478.36C683.91,-118477.8 686.96,-118477.27 689.91,-118476.83 770.05,-118464.62 998.48,-118500.9 1052.91,-118440.83 1189.67,-118289.88 1097.45,-2078.58 1095.93,-166.68"/>
<polygon fill="#63b8ff" stroke="#63b8ff" points="1099.43,-166.71 1095.92,-156.71 1092.43,-166.72 1099.43,-166.71"/>
</a>
</g>
</g>
<!-- Node19 -->
<g id="Node000019" class="node">
<title>Node19</title>
<g id="a_Node000019"><a xlink:href="sqsh__tree_8h.html" target="_top" xlink:title=" ">
<polygon fill="white" stroke="#666666" points="574.16,-59325.08 475.66,-59325.08 475.66,-59306.58 574.16,-59306.58 574.16,-59325.08"/>
<text text-anchor="middle" x="524.91" y="-59311.58" font-family="Helvetica,sans-Serif" font-size="10.00">sqsh_tree.h</text>
</a>
</g>
</g>
<!-- Node2&#45;&gt;Node19 -->
<g id="edge27_Node000002_Node000019" class="edge">
<title>Node2&#45;&gt;Node19</title>
<g id="a_edge27_Node000002_Node000019"><a xlink:title=" ">
<path fill="none" stroke="#63b8ff" d="M628.79,-118476.34C614.39,-118469.14 596.45,-118457.4 587.91,-118440.83 401.76,-118079.75 522.29,-60555.33 524.87,-59336.47"/>
<polygon fill="#63b8ff" stroke="#63b8ff" points="528.37,-59336.84 524.89,-59326.83 521.37,-59336.83 528.37,-59336.84"/>
</a>
</g>
</g>
<!-- Node20 -->
<g id="Node000020" class="node">
<title>Node20</title>
<g id="a_Node000020"><a xlink:href="sqsh__xattr_8h.html" target="_top" xlink:title=" ">
<polygon fill="white" stroke="#666666" points="889.91,-59325.08 783.91,-59325.08 783.91,-59306.58 889.91,-59306.58 889.91,-59325.08"/>
<text text-anchor="middle" x="836.91" y="-59311.58" font-family="Helvetica,sans-Serif" font-size="10.00">sqsh_xattr.h</text>
</a>
</g>
</g>
<!-- Node2&#45;&gt;Node20 -->
<g id="edge30_Node000002_Node000020" class="edge">
<title>Node2&#45;&gt;Node20</title>
<g id="a_edge30_Node000002_Node000020"><a xlink:title=" ">
<path fill="none" stroke="#63b8ff" d="M680.7,-118478.44C713.99,-118470.57 763.81,-118456.52 774.91,-118440.83 1009.56,-118109.21 840.57,-60555.96 836.97,-59336.48"/>
<polygon fill="#63b8ff" stroke="#63b8ff" points="840.47,-59336.83 836.94,-59326.84 833.47,-59336.85 840.47,-59336.83"/>
</a>
</g>
</g>
<!-- Node3&#45;&gt;Node4 -->
<g id="edge3_Node000003_Node000004" class="edge">
<title>Node3&#45;&gt;Node4</title>
<g id="a_edge3_Node000003_Node000004"><a xlink:title=" ">
<path fill="none" stroke="#63b8ff" d="M907.91,-292.91C905,-239.89 902,-205.62 898.91,-190.83 892.76,-161.41 893.16,-150.07 871.91,-128.83 856.49,-113.41 834.52,-103.22 815.38,-96.72"/>
<polygon fill="#63b8ff" stroke="#63b8ff" points="816.54,-93.42 805.96,-93.76 814.45,-100.1 816.54,-93.42"/>
</a>
</g>
</g>
<!-- Node8 -->
<g id="Node000008" class="node">
<title>Node8</title>
<g id="a_Node000008"><a xlink:href="sqsh__data_8h.html" target="_top" xlink:title=" ">
<polygon fill="white" stroke="#666666" points="863.16,-154.83 764.66,-154.83 764.66,-128.83 863.16,-128.83 863.16,-154.83"/>
<text text-anchor="middle" x="813.91" y="-141.33" font-family="Helvetica,sans-Serif" font-size="10.00">sqsh_data.h</text>
</a>
</g>
</g>
<!-- Node3&#45;&gt;Node8 -->
<g id="edge7_Node000003_Node000008" class="edge">
<title>Node3&#45;&gt;Node8</title>
<g id="a_edge7_Node000003_Node000008"><a xlink:title=" ">
<path fill="none" stroke="#63b8ff" d="M907.94,-245.14C905,-214.34 901.99,-196.11 898.91,-190.83 890.99,-177.29 877.7,-167.26 863.94,-159.98"/>
<polygon fill="#63b8ff" stroke="#63b8ff" points="865.8,-157 855.27,-155.81 862.77,-163.3 865.8,-157"/>
</a>
</g>
</g>
<!-- Node5 -->
<g id="Node000005" class="node">
<title>Node5</title>
<g id="a_Node000005"><a xlink:title=" ">
<polygon fill="#e0e0e0" stroke="#999999" points="718.66,-30.51 635.16,-30.51 635.16,-11.92 718.66,-11.92 718.66,-30.51"/>
<text text-anchor="middle" x="676.91" y="-17.01" font-family="Helvetica,sans-Serif" font-size="10.00">stdbool.h</text>
</a>
</g>
</g>
<!-- Node4&#45;&gt;Node5 -->
<g id="edge4_Node000004_Node000005" class="edge">
<title>Node4&#45;&gt;Node5</title>
<g id="a_edge4_Node000004_Node000005"><a xlink:title=" ">
<path fill="none" stroke="#63b8ff" d="M764.42,-77.95C749.13,-68.21 720.32,-49.86 699.94,-36.88"/>
<polygon fill="#63b8ff" stroke="#63b8ff" points="702.03,-34.06 691.72,-31.64 698.27,-39.97 702.03,-34.06"/>
</a>
</g>
</g>
<!-- Node6 -->
<g id="Node000006" class="node">
<title>Node6</title>
<g id="a_Node000006"><a xlink:title=" ">
<polygon fill="#e0e0e0" stroke="#999999" points="812.91,-34.21 736.91,-34.21 736.91,-8.21 812.91,-8.21 812.91,-34.21"/>
<text text-anchor="middle" x="774.91" y="-20.71" font-family="Helvetica,sans-Serif" font-size="10.00">stddef.h</text>
</a>
</g>
</g>
<!-- Node4&#45;&gt;Node6 -->
<g id="edge5_Node000004_Node000006" class="edge">
<title>Node4&#45;&gt;Node6</title>
<g id="a_edge5_Node000004_Node000006"><a xlink:title=" ">
<path fill="none" stroke="#63b8ff" d="M774.91,-77.95C774.91,-70.29 774.91,-57.32 774.91,-45.81"/>
<polygon fill="#63b8ff" stroke="#63b8ff" points="778.41,-46.15 774.91,-36.15 771.41,-46.15 778.41,-46.15"/>
</a>
</g>
</g>
<!-- Node7 -->
<g id="Node000007" class="node">
<title>Node7</title>
<g id="a_Node000007"><a xlink:title=" ">
<polygon fill="#e0e0e0" stroke="#999999" points="906.91,-42.43 830.91,-42.43 830.91,0 906.91,0 906.91,-42.43"/>
<text text-anchor="middle" x="868.91" y="-28.93" font-family="Helvetica,sans-Serif" font-size="10.00">stdint.h</text>
</a>
</g>
</g>
<!-- Node4&#45;&gt;Node7 -->
<g id="edge6_Node000004_Node000007" class="edge">
<title>Node4&#45;&gt;Node7</title>
<g id="a_edge6_Node000004_Node000007"><a xlink:title=" ">
<path fill="none" stroke="#63b8ff" d="M784.97,-77.95C795.5,-70.95 812.72,-59.52 828.82,-48.83"/>
<polygon fill="#63b8ff" stroke="#63b8ff" points="830.47,-51.94 836.86,-43.49 826.59,-46.11 830.47,-51.94"/>
</a>
</g>
</g>
<!-- Node8&#45;&gt;Node4 -->
<g id="edge8_Node000008_Node000004" class="edge">
<title>Node8&#45;&gt;Node4</title>
<g id="a_edge8_Node000008_Node000004"><a xlink:title=" ">
<path fill="none" stroke="#63b8ff" d="M805.06,-128.53C799.5,-120.8 792.27,-110.75 786.28,-102.43"/>
<polygon fill="#63b8ff" stroke="#63b8ff" points="789.15,-100.42 780.47,-94.35 783.47,-104.51 789.15,-100.42"/>
</a>
</g>
</g>
<!-- Node9&#45;&gt;Node10 -->
<g id="edge11_Node000009_Node000010" class="edge">
<title>Node9&#45;&gt;Node10</title>
<g id="a_edge11_Node000009_Node000010"><a xlink:title=" ">
<path fill="none" stroke="#63b8ff" d="M697.9,-59306.27C697.2,-58502.95 647,-1386.84 645.93,-162.79"/>
<polygon fill="#63b8ff" stroke="#63b8ff" points="649.43,-163.07 645.92,-153.07 642.43,-163.08 649.43,-163.07"/>
</a>
</g>
</g>
<!-- Node10&#45;&gt;Node4 -->
<g id="edge12_Node000010_Node000004" class="edge">
<title>Node10&#45;&gt;Node4</title>
<g id="a_edge12_Node000010_Node000004"><a xlink:title=" ">
<path fill="none" stroke="#63b8ff" d="M666.63,-132.12C688.89,-122.77 724.32,-107.88 748.54,-97.7"/>
<polygon fill="#63b8ff" stroke="#63b8ff" points="749.85,-100.95 757.72,-93.85 747.14,-94.5 749.85,-100.95"/>
</a>
</g>
</g>
<!-- Node11&#45;&gt;Node4 -->
<g id="edge14_Node000011_Node000004" class="edge">
<title>Node11&#45;&gt;Node4</title>
<g id="a_edge14_Node000011_Node000004"><a xlink:title=" ">
<path fill="none" stroke="#63b8ff" d="M114.88,-59306.22C112.53,-58503.44 -52.57,-1805.16 177.91,-190.83 181.96,-162.42 173.61,-146.88 195.91,-128.83 234.81,-97.34 561.88,-89.31 706.55,-87.29"/>
<polygon fill="#63b8ff" stroke="#63b8ff" points="706.43,-90.79 716.38,-87.16 706.33,-83.79 706.43,-90.79"/>
</a>
</g>
</g>
<!-- Node12 -->
<g id="Node000012" class="node">
<title>Node12</title>
<g id="a_Node000012"><a xlink:title=" ">
<polygon fill="#e0e0e0" stroke="#999999" points="149.16,-151.08 80.66,-151.08 80.66,-132.58 149.16,-132.58 149.16,-151.08"/>
<text text-anchor="middle" x="114.91" y="-137.58" font-family="Helvetica,sans-Serif" font-size="10.00">fcntl.h</text>
</a>
</g>
</g>
<!-- Node11&#45;&gt;Node12 -->
<g id="edge15_Node000011_Node000012" class="edge">
<title>Node11&#45;&gt;Node12</title>
<g id="a_edge15_Node000011_Node000012"><a xlink:title=" ">
<path fill="none" stroke="#63b8ff" d="M114.91,-59306.27C114.91,-58502.95 114.91,-1386.84 114.91,-162.79"/>
<polygon fill="#63b8ff" stroke="#63b8ff" points="118.41,-163.07 114.91,-153.07 111.41,-163.07 118.41,-163.07"/>
</a>
</g>
</g>
<!-- Node11&#45;&gt;Node13 -->
<g id="edge16_Node000011_Node000013" class="edge">
<title>Node11&#45;&gt;Node13</title>
<g id="a_edge16_Node000011_Node000013"><a xlink:title=" ">
<path fill="none" stroke="#63b8ff" d="M114.86,-59306.09C110.75,-58490.97 -178.64,-924.09 177.91,-190.83 184.84,-176.58 198.27,-165.29 210.77,-157.25"/>
<polygon fill="#63b8ff" stroke="#63b8ff" points="212.33,-160.39 219.15,-152.28 208.76,-154.37 212.33,-160.39"/>
</a>
</g>
</g>
<!-- Node14 -->
<g id="Node000014" class="node">
<title>Node14</title>
<g id="a_Node000014"><a xlink:title=" ">
<polygon fill="#e0e0e0" stroke="#999999" points="62.41,-151.08 1.41,-151.08 1.41,-132.58 62.41,-132.58 62.41,-151.08"/>
<text text-anchor="middle" x="31.91" y="-137.58" font-family="Helvetica,sans-Serif" font-size="10.00">time.h</text>
</a>
</g>
</g>
<!-- Node11&#45;&gt;Node14 -->
<g id="edge17_Node000011_Node000014" class="edge">
<title>Node11&#45;&gt;Node14</title>
<g id="a_edge17_Node000011_Node000014"><a xlink:title=" ">
<path fill="none" stroke="#63b8ff" d="M114.9,-59306.27C113.77,-58502.95 33.65,-1386.84 31.94,-162.79"/>
<polygon fill="#63b8ff" stroke="#63b8ff" points="35.44,-163.07 31.92,-153.07 28.44,-163.08 35.44,-163.07"/>
</a>
</g>
</g>
<!-- Node15&#45;&gt;Node4 -->
<g id="edge19_Node000015_Node000004" class="edge">
<title>Node15&#45;&gt;Node4</title>
<g id="a_edge19_Node000015_Node000004"><a xlink:title=" ">
<path fill="none" stroke="#63b8ff" d="M940.26,-132.12C904.58,-122.3 846.74,-106.39 809.78,-96.22"/>
<polygon fill="#63b8ff" stroke="#63b8ff" points="811.06,-92.94 800.49,-93.66 809.2,-99.69 811.06,-92.94"/>
</a>
</g>
</g>
<!-- Node17&#45;&gt;Node4 -->
<g id="edge23_Node000017_Node000004" class="edge">
<title>Node17&#45;&gt;Node4</title>
<g id="a_edge23_Node000017_Node000004"><a xlink:title=" ">
<path fill="none" stroke="#63b8ff" d="M404.86,-59294.17C401.75,-58044.72 259.85,-540.2 466.91,-190.83 496.12,-141.55 526.25,-148.87 579.91,-128.83 623.47,-112.56 674.97,-101.74 714.1,-95.14"/>
<polygon fill="#63b8ff" stroke="#63b8ff" points="714.51,-98.62 723.81,-93.55 713.38,-91.71 714.51,-98.62"/>
</a>
</g>
</g>
<!-- Node17&#45;&gt;Node13 -->
<g id="edge24_Node000017_Node000013" class="edge">
<title>Node17&#45;&gt;Node13</title>
<g id="a_edge24_Node000017_Node000013"><a xlink:title=" ">
<path fill="none" stroke="#63b8ff" d="M404.96,-59294.16C408.33,-58044.56 561.97,-532.8 342.91,-190.83 329.98,-170.65 306.19,-158.83 284.61,-151.98"/>
<polygon fill="#63b8ff" stroke="#63b8ff" points="285.64,-148.63 275.06,-149.24 283.71,-155.36 285.64,-148.63"/>
</a>
</g>
</g>
<!-- Node18&#45;&gt;Node4 -->
<g id="edge26_Node000018_Node000004" class="edge">
<title>Node18&#45;&gt;Node4</title>
<g id="a_edge26_Node000018_Node000004"><a xlink:title=" ">
<path fill="none" stroke="#63b8ff" d="M1042.49,-130.38C1039.59,-129.85 1036.72,-129.33 1033.91,-128.83 963.5,-116.28 882.05,-103.25 829.58,-95.05"/>
<polygon fill="#63b8ff" stroke="#63b8ff" points="830.43,-91.64 820.01,-93.56 829.35,-98.56 830.43,-91.64"/>
</a>
</g>
</g>
<!-- Node19&#45;&gt;Node4 -->
<g id="edge28_Node000019_Node000004" class="edge">
<title>Node19&#45;&gt;Node4</title>
<g id="a_edge28_Node000019_Node000004"><a xlink:title=" ">
<path fill="none" stroke="#63b8ff" d="M524.9,-59306.29C524.01,-58496.28 460.39,-288.16 587.91,-128.83 602.83,-110.18 659.78,-99.18 706.95,-93.11"/>
<polygon fill="#63b8ff" stroke="#63b8ff" points="707.08,-96.62 716.58,-91.93 706.23,-89.67 707.08,-96.62"/>
</a>
</g>
</g>
<!-- Node19&#45;&gt;Node10 -->
<g id="edge29_Node000019_Node000010" class="edge">
<title>Node19&#45;&gt;Node10</title>
<g id="a_edge29_Node000019_Node000010"><a xlink:title=" ">
<path fill="none" stroke="#63b8ff" d="M524.89,-59306.33C523.36,-58500.05 414.15,-559.67 587.91,-190.83 594.48,-176.88 607.31,-165.59 619.24,-157.48"/>
<polygon fill="#63b8ff" stroke="#63b8ff" points="621,-160.5 627.6,-152.22 617.27,-154.58 621,-160.5"/>
</a>
</g>
</g>
<!-- Node20&#45;&gt;Node4 -->
<g id="edge31_Node000020_Node000004" class="edge">
<title>Node20&#45;&gt;Node4</title>
<g id="a_edge31_Node000020_Node000004"><a xlink:title=" ">
<path fill="none" stroke="#63b8ff" d="M836.93,-59306.1C838.82,-58491.79 971.36,-982.16 774.91,-190.83 770.55,-173.27 760.26,-172.39 755.91,-154.83 753.13,-143.61 753.48,-140.12 755.91,-128.83 757.81,-119.96 761.73,-110.7 765.52,-103.13"/>
<polygon fill="#63b8ff" stroke="#63b8ff" points="768.5,-104.99 770.17,-94.52 762.34,-101.66 768.5,-104.99"/>
</a>
</g>
</g>
<!-- Node20&#45;&gt;Node8 -->
<g id="edge32_Node000020_Node000008" class="edge">
<title>Node20&#45;&gt;Node8</title>
<g id="a_edge32_Node000020_Node000008"><a xlink:title=" ">
<path fill="none" stroke="#63b8ff" d="M836.91,-59306.27C836.59,-58503.75 814.44,-1499.33 813.92,-166.57"/>
<polygon fill="#63b8ff" stroke="#63b8ff" points="817.42,-166.69 813.91,-156.69 810.42,-166.69 817.42,-166.69"/>
</a>
</g>
</g>
</g>
</svg>
