<?xml version="1.0" encoding="UTF-8" standalone="no"?>
<!DOCTYPE svg PUBLIC "-//W3C//DTD SVG 1.1//EN"
 "http://www.w3.org/Graphics/SVG/1.1/DTD/svg11.dtd">
<!-- Generated by graphviz version 8.0.5 (20230430.1635)
 -->
<!-- Title: examples/read_file_ll.c Pages: 1 -->
<!--zoomable 1184516 -->
<svg id="main" version="1.1" xmlns="http://www.w3.org/2000/svg" xmlns:xlink="http://www.w3.org/1999/xlink" xml:space="preserve" onload="init(evt)">
<style type="text/css"><![CDATA[
.edge:hover path { stroke: red; }
.edge:hover polygon { stroke: red; fill: red; }
]]></style>
<script type="text/javascript"><![CDATA[
var edges = document.getElementsByTagName('g');
if (edges && edges.length) {
  for (var i=0;i<edges.length;i++) {
    if (edges[i].id.substr(0,4)=='edge') {
      edges[i].setAttribute('class','edge');
    }
  }
}
]]></script>
        <defs>
                <circle id="rim" cx="0" cy="0" r="7"/>
                <circle id="rim2" cx="0" cy="0" r="3.5"/>
                <g id="zoomPlus">
                        <use xlink:href="#rim" fill="#404040">
                                <set attributeName="fill" to="#808080" begin="zoomplus.mouseover" end="zoomplus.mouseout"/>
                        </use>
                        <path d="M-4,0h8M0,-4v8" fill="none" stroke="white" stroke-width="1.5" pointer-events="none"/>
                </g>
                <g id="zoomMin">
                        <use xlink:href="#rim" fill="#404040">
                                <set attributeName="fill" to="#808080" begin="zoomminus.mouseover" end="zoomminus.mouseout"/>
                        </use>
                        <path d="M-4,0h8" fill="none" stroke="white" stroke-width="1.5" pointer-events="none"/>
                </g>
                <g id="dirArrow">
                        <path fill="none" stroke="white" stroke-width="1.5" d="M0,-3.0v7 M-2.5,-0.5L0,-3.0L2.5,-0.5"/>
                </g>
               <g id="resetDef">
                       <use xlink:href="#rim2" fill="#404040">
                               <set attributeName="fill" to="#808080" begin="reset.mouseover" end="reset.mouseout"/>
                       </use>
               </g>
        </defs>

<script type="text/javascript">
var viewWidth = 1268;
var viewHeight = 1184516;
var sectionId = 'dynsection-0';
</script>
<script xlink:href="svgpan.js"/>
<svg id="graph" class="graph">
<g id="viewport">
<title>examples/read_file_ll.c</title>
<!-- Node1 -->
<g id="node1" class="node">
<title>Node1</title>
<g id="a_node1"><a xlink:title=" ">
<polygon fill="#999999" stroke="#666666" points="785.93,-1184507.52 597.43,-1184507.52 597.43,-1184489.02 785.93,-1184489.02 785.93,-1184507.52"/>
<text text-anchor="middle" x="691.68" y="-1184494.02" font-family="Helvetica,sans-Serif" font-size="10.00">examples/read_file_ll.c</text>
</a>
</g>
</g>
<!-- Node2 -->
<g id="node2" class="node">
<title>Node2</title>
<g id="a_node2"><a xlink:href="sqsh_8h.html" target="_top" xlink:title=" ">
<polygon fill="white" stroke="#666666" points="722.18,-1178544.97 661.18,-1178544.97 661.18,-1178526.47 722.18,-1178526.47 722.18,-1178544.97"/>
<text text-anchor="middle" x="691.68" y="-1178531.47" font-family="Helvetica,sans-Serif" font-size="10.00">sqsh.h</text>
</a>
</g>
</g>
<!-- Node1&#45;&gt;Node2 -->
<g id="edge1" class="edge">
<title>Node1&#45;&gt;Node2</title>
<path fill="none" stroke="#63b8ff" d="M691.68,-1184488.76C691.68,-1184246.71 691.68,-1178917.2 691.68,-1178555.96"/>
<polygon fill="#63b8ff" stroke="#63b8ff" points="695.18,-1178556.22 691.68,-1178546.22 688.18,-1178556.22 695.18,-1178556.22"/>
</g>
<!-- Node13 -->
<g id="node13" class="node">
<title>Node13</title>
<g id="a_node13"><a xlink:title=" ">
<polygon fill="#e0e0e0" stroke="#999999" points="314.93,-592271.16 246.43,-592271.16 246.43,-580268.6 314.93,-580268.6 314.93,-592271.16"/>
<text text-anchor="middle" x="280.68" y="-592257.66" font-family="Helvetica,sans-Serif" font-size="10.00">stdio.h</text>
</a>
</g>
</g>
<!-- Node1&#45;&gt;Node13 -->
<g id="edge33" class="edge">
<title>Node1&#45;&gt;Node13</title>
<path fill="none" stroke="#63b8ff" d="M680.81,-1184488.78C671.43,-1184480.71 658.5,-1184467.68 652.68,-1184453.02 -321.56,-1181999.99 297.13,-1175221.45 252.68,-1172582.41 207.8,-1169918.02 252.61,-1163255.73 252.68,-1160590.96 258.4,-925899.82 277.27,-637262.35 280.27,-592282.28"/>
<polygon fill="#63b8ff" stroke="#63b8ff" points="283.77,-592282.48 280.27,-592272.48 276.77,-592282.48 283.77,-592282.48"/>
</g>
<!-- Node21 -->
<g id="node21" class="node">
<title>Node21</title>
<g id="a_node21"><a xlink:title=" ">
<polygon fill="#e0e0e0" stroke="#999999" points="816.68,-1184453.02 740.68,-1184453.02 740.68,-1172618.41 816.68,-1172618.41 816.68,-1184453.02"/>
<text text-anchor="middle" x="778.68" y="-1184439.52" font-family="Helvetica,sans-Serif" font-size="10.00">stdlib.h</text>
</a>
</g>
</g>
<!-- Node1&#45;&gt;Node21 -->
<g id="edge34" class="edge">
<title>Node1&#45;&gt;Node21</title>
<path fill="none" stroke="#63b8ff" d="M703.29,-1184488.56C712.93,-1184480.54 725.96,-1184467.69 731.68,-1184453.02 1560.46,-1182325.52 985.42,-1179432.08 819.57,-1178706.84"/>
<polygon fill="#63b8ff" stroke="#63b8ff" points="822.81,-1178706.29 817.16,-1178697.32 815.99,-1178707.85 822.81,-1178706.29"/>
</g>
<!-- Node3 -->
<g id="node3" class="node">
<title>Node3</title>
<g id="a_node3"><a xlink:href="sqsh__archive_8h.html" target="_top" xlink:title=" ">
<polygon fill="white" stroke="#666666" points="1071.18,-1172521.88 950.18,-1172521.88 950.18,-1160651.49 1071.18,-1160651.49 1071.18,-1172521.88"/>
<text text-anchor="middle" x="1010.68" y="-1172508.38" font-family="Helvetica,sans-Serif" font-size="10.00">sqsh_archive.h</text>
</a>
</g>
</g>
<!-- Node2&#45;&gt;Node3 -->
<g id="edge2" class="edge">
<title>Node2&#45;&gt;Node3</title>
<path fill="none" stroke="#63b8ff" d="M690.26,-1178526.06C653.09,-1178297.12 -98.06,-1173596.56 731.68,-1172618.41 792.65,-1172546.53 879.53,-1172654.14 940.68,-1172582.41 948.62,-1172573.1 956.07,-1172556.38 963.05,-1172532.8"/>
<polygon fill="#63b8ff" stroke="#63b8ff" points="966.68,-1172533.86 966.02,-1172523.28 959.94,-1172531.96 966.68,-1172533.86"/>
</g>
<!-- Node4 -->
<g id="node4" class="node">
<title>Node4</title>
<g id="a_node4"><a xlink:href="sqsh__common_8h.html" target="_top" xlink:title=" ">
<polygon fill="white" stroke="#666666" points="873.43,-11948.81 759.93,-11948.81 759.93,-78.49 873.43,-78.49 873.43,-11948.81"/>
<text text-anchor="middle" x="816.68" y="-11935.31" font-family="Helvetica,sans-Serif" font-size="10.00">sqsh_common.h</text>
</a>
</g>
</g>
<!-- Node2&#45;&gt;Node4 -->
<g id="edge9" class="edge">
<title>Node2&#45;&gt;Node4</title>
<path fill="none" stroke="#63b8ff" d="M690.2,-1178526C651.25,-1178295.5 -135.81,-1173563.23 731.68,-1172618.41 790.54,-1172554.3 1062.82,-1172646.53 1121.68,-1172582.41 1347.6,-1172336.28 1198.59,-1160889.06 1199.68,-1160554.96 1212.61,-1156566.89 1327.4,-15970.85 1199.68,-11984.81 1138.21,-10066.48 965.91,-7806.76 874.82,-6698.11"/>
<polygon fill="#63b8ff" stroke="#63b8ff" points="878.23,-6697.83 873.92,-6688.15 871.25,-6698.4 878.23,-6697.83"/>
</g>
<!-- Node9 -->
<g id="node9" class="node">
<title>Node9</title>
<g id="a_node9"><a xlink:href="sqsh__directory_8h.html" target="_top" xlink:title=" ">
<polygon fill="white" stroke="#666666" points="807.68,-1166595.94 671.68,-1166595.94 671.68,-1166577.44 807.68,-1166577.44 807.68,-1166595.94"/>
<text text-anchor="middle" x="739.68" y="-1166582.44" font-family="Helvetica,sans-Serif" font-size="10.00">sqsh_directory.h</text>
</a>
</g>
</g>
<!-- Node2&#45;&gt;Node9 -->
<g id="edge10" class="edge">
<title>Node2&#45;&gt;Node9</title>
<path fill="none" stroke="#63b8ff" d="M691.71,-1178526.06C693.13,-1178172.9 737.49,-1167132.33 739.6,-1166607.05"/>
<polygon fill="#63b8ff" stroke="#63b8ff" points="743.1,-1166607.35 739.64,-1166597.34 736.1,-1166607.33 743.1,-1166607.35"/>
</g>
<!-- Node10 -->
<g id="node10" class="node">
<title>Node10</title>
<g id="a_node10"><a xlink:href="sqsh__file_8h.html" target="_top" xlink:title=" ">
<polygon fill="white" stroke="#666666" points="736.93,-586279.13 638.43,-586279.13 638.43,-586260.63 736.93,-586260.63 736.93,-586279.13"/>
<text text-anchor="middle" x="687.68" y="-586265.63" font-family="Helvetica,sans-Serif" font-size="10.00">sqsh_file.h</text>
</a>
</g>
</g>
<!-- Node2&#45;&gt;Node10 -->
<g id="edge20" class="edge">
<title>Node2&#45;&gt;Node10</title>
<path fill="none" stroke="#63b8ff" d="M691.62,-1178526.02C690.35,-1178338.32 668.93,-1175149.11 662.68,-1172582.41 649.69,-1167252.89 662.56,-1165920.49 662.68,-1160590.96 668.21,-906489.3 687.5,-589148.87 687.68,-586290.33"/>
<polygon fill="#63b8ff" stroke="#63b8ff" points="691.18,-586290.43 687.68,-586280.43 684.18,-586290.43 691.18,-586290.43"/>
</g>
<!-- Node11 -->
<g id="node11" class="node">
<title>Node11</title>
<g id="a_node11"><a xlink:href="sqsh__easy_8h.html" target="_top" xlink:title=" ">
<polygon fill="white" stroke="#666666" points="205.93,-1166595.94 107.43,-1166595.94 107.43,-1166577.44 205.93,-1166577.44 205.93,-1166595.94"/>
<text text-anchor="middle" x="156.68" y="-1166582.44" font-family="Helvetica,sans-Serif" font-size="10.00">sqsh_easy.h</text>
</a>
</g>
</g>
<!-- Node2&#45;&gt;Node11 -->
<g id="edge13" class="edge">
<title>Node2&#45;&gt;Node11</title>
<path fill="none" stroke="#63b8ff" d="M690.84,-1178526.03C672.78,-1178338.58 367.98,-1175153.47 252.68,-1172582.41 138.61,-1170038.79 154.88,-1166882.73 156.55,-1166607.1"/>
<polygon fill="#63b8ff" stroke="#63b8ff" points="160.06,-1166607.19 156.62,-1166597.17 153.06,-1166607.14 160.06,-1166607.19"/>
</g>
<!-- Node15 -->
<g id="node15" class="node">
<title>Node15</title>
<g id="a_node15"><a xlink:href="sqsh__error_8h.html" target="_top" xlink:title=" ">
<polygon fill="white" stroke="#666666" points="1066.68,-586279.13 960.68,-586279.13 960.68,-586260.63 1066.68,-586260.63 1066.68,-586279.13"/>
<text text-anchor="middle" x="1013.68" y="-586265.63" font-family="Helvetica,sans-Serif" font-size="10.00">sqsh_error.h</text>
</a>
</g>
</g>
<!-- Node2&#45;&gt;Node15 -->
<g id="edge18" class="edge">
<title>Node2&#45;&gt;Node15</title>
<path fill="none" stroke="#63b8ff" d="M690.21,-1178526.01C651.5,-1178295.72 -130.73,-1173567.88 731.68,-1172618.41 784.1,-1172560.7 1028.45,-1172640.3 1080.68,-1172582.41 1136.46,-1172520.58 1086.42,-1160674.04 1080.68,-1160590.96 1079.56,-1160574.84 1076.79,-1160571.07 1075.68,-1160554.96 938.55,-1158572.4 1013.17,-590138.67 1013.68,-586290.51"/>
<polygon fill="#63b8ff" stroke="#63b8ff" points="1017.18,-586290.63 1013.68,-586280.63 1010.18,-586290.62 1017.18,-586290.63"/>
</g>
<!-- Node16 -->
<g id="node16" class="node">
<title>Node16</title>
<g id="a_node16"><a xlink:href="sqsh__mapper_8h.html" target="_top" xlink:title=" ">
<polygon fill="white" stroke="#666666" points="375.43,-1172502.74 261.93,-1172502.74 261.93,-1160670.64 375.43,-1160670.64 375.43,-1172502.74"/>
<text text-anchor="middle" x="318.68" y="-1172489.24" font-family="Helvetica,sans-Serif" font-size="10.00">sqsh_mapper.h</text>
</a>
</g>
</g>
<!-- Node2&#45;&gt;Node16 -->
<g id="edge21" class="edge">
<title>Node2&#45;&gt;Node16</title>
<path fill="none" stroke="#63b8ff" d="M691.09,-1178526.03C678.45,-1178338.44 465.03,-1175151.24 384.68,-1172582.41 381.74,-1172488.41 378.92,-1172393.57 376.23,-1172298.08"/>
<polygon fill="#63b8ff" stroke="#63b8ff" points="379.7,-1172298.23 375.92,-1172288.33 372.71,-1172298.43 379.7,-1172298.23"/>
</g>
<!-- Node17 -->
<g id="node17" class="node">
<title>Node17</title>
<g id="a_node17"><a xlink:href="sqsh__posix_8h.html" target="_top" xlink:title=" ">
<polygon fill="white" stroke="#666666" points="499.68,-1172582.41 393.68,-1172582.41 393.68,-1160590.96 499.68,-1160590.96 499.68,-1172582.41"/>
<text text-anchor="middle" x="446.68" y="-1172568.91" font-family="Helvetica,sans-Serif" font-size="10.00">sqsh_posix.h</text>
</a>
</g>
</g>
<!-- Node2&#45;&gt;Node17 -->
<g id="edge22" class="edge">
<title>Node2&#45;&gt;Node17</title>
<path fill="none" stroke="#63b8ff" d="M691.34,-1178526.02C684.08,-1178338.35 561.41,-1175149.76 508.68,-1172582.41 505.78,-1172441.24 503.01,-1172298.19 500.37,-1172153.87"/>
<polygon fill="#63b8ff" stroke="#63b8ff" points="503.86,-1172153.96 500.17,-1172144.03 496.86,-1172154.09 503.86,-1172153.96"/>
</g>
<!-- Node18 -->
<g id="node18" class="node">
<title>Node18</title>
<g id="a_node18"><a xlink:href="sqsh__table_8h.html" target="_top" xlink:title=" ">
<polygon fill="white" stroke="#666666" points="1190.68,-592265.57 1084.68,-592265.57 1084.68,-580274.19 1190.68,-580274.19 1190.68,-592265.57"/>
<text text-anchor="middle" x="1137.68" y="-592252.07" font-family="Helvetica,sans-Serif" font-size="10.00">sqsh_table.h</text>
</a>
</g>
</g>
<!-- Node2&#45;&gt;Node18 -->
<g id="edge25" class="edge">
<title>Node2&#45;&gt;Node18</title>
<path fill="none" stroke="#63b8ff" d="M690.2,-1178526C651.33,-1178295.57 -134.2,-1173564.71 731.68,-1172618.41 788.34,-1172556.49 1051.22,-1172644.53 1107.68,-1172582.41 1107.68,-1172582.41 1134.21,-654111.43 1137.37,-592276.88"/>
<polygon fill="#63b8ff" stroke="#63b8ff" points="1140.87,-592276.92 1137.37,-592266.92 1133.87,-592276.92 1140.87,-592276.92"/>
</g>
<!-- Node19 -->
<g id="node19" class="node">
<title>Node19</title>
<g id="a_node19"><a xlink:href="sqsh__tree_8h.html" target="_top" xlink:title=" ">
<polygon fill="white" stroke="#666666" points="615.93,-1166595.94 517.43,-1166595.94 517.43,-1166577.44 615.93,-1166577.44 615.93,-1166595.94"/>
<text text-anchor="middle" x="566.68" y="-1166582.44" font-family="Helvetica,sans-Serif" font-size="10.00">sqsh_tree.h</text>
</a>
</g>
</g>
<!-- Node2&#45;&gt;Node19 -->
<g id="edge27" class="edge">
<title>Node2&#45;&gt;Node19</title>
<path fill="none" stroke="#63b8ff" d="M691.59,-1178526.06C687.89,-1178172.9 572.38,-1167132.33 566.88,-1166607.05"/>
<polygon fill="#63b8ff" stroke="#63b8ff" points="570.37,-1166607.3 566.77,-1166597.34 563.37,-1166607.38 570.37,-1166607.3"/>
</g>
<!-- Node20 -->
<g id="node20" class="node">
<title>Node20</title>
<g id="a_node20"><a xlink:href="sqsh__xattr_8h.html" target="_top" xlink:title=" ">
<polygon fill="white" stroke="#666666" points="931.68,-1166595.94 825.68,-1166595.94 825.68,-1166577.44 931.68,-1166577.44 931.68,-1166595.94"/>
<text text-anchor="middle" x="878.68" y="-1166582.44" font-family="Helvetica,sans-Serif" font-size="10.00">sqsh_xattr.h</text>
</a>
</g>
</g>
<!-- Node2&#45;&gt;Node20 -->
<g id="edge30" class="edge">
<title>Node2&#45;&gt;Node20</title>
<path fill="none" stroke="#63b8ff" d="M690.47,-1178526.22C658.84,-1178301.46 19.69,-1173685.32 731.68,-1172618.41 754.45,-1172584.29 793.84,-1172616.5 816.68,-1172582.41 995.76,-1172315.09 886.69,-1166969.3 879.09,-1166606.98"/>
<polygon fill="#63b8ff" stroke="#63b8ff" points="882.57,-1166607.14 878.86,-1166597.21 875.57,-1166607.29 882.57,-1166607.14"/>
</g>
<!-- Node3&#45;&gt;Node4 -->
<g id="edge3" class="edge">
<title>Node3&#45;&gt;Node4</title>
<path fill="none" stroke="#63b8ff" d="M952.16,-1160651.44C952,-1160619.19 951.84,-1160587.02 951.68,-1160554.96 912.53,-1152578.87 978.6,-19960.72 913.68,-11984.81 905.68,-11002.16 890.3,-9928.63 874.11,-8966.26"/>
<polygon fill="#63b8ff" stroke="#63b8ff" points="877.59,-8966.24 873.93,-8956.3 870.6,-8966.35 877.59,-8966.24"/>
</g>
<!-- Node8 -->
<g id="node8" class="node">
<title>Node8</title>
<g id="a_node8"><a xlink:href="sqsh__data_8h.html" target="_top" xlink:title=" ">
<polygon fill="white" stroke="#666666" points="904.93,-586282.88 806.43,-586282.88 806.43,-586256.88 904.93,-586256.88 904.93,-586282.88"/>
<text text-anchor="middle" x="855.68" y="-586269.38" font-family="Helvetica,sans-Serif" font-size="10.00">sqsh_data.h</text>
</a>
</g>
</g>
<!-- Node3&#45;&gt;Node8 -->
<g id="edge7" class="edge">
<title>Node3&#45;&gt;Node8</title>
<path fill="none" stroke="#63b8ff" d="M954.63,-1160651.25C950.18,-1160628 945.53,-1160607.84 940.68,-1160590.96 935.49,-1160572.94 923.76,-1160573.01 918.68,-1160554.96 784.13,-1160076.86 855.15,-590497.66 855.67,-586294.26"/>
<polygon fill="#63b8ff" stroke="#63b8ff" points="859.17,-586294.28 855.68,-586284.28 852.17,-586294.27 859.17,-586294.28"/>
</g>
<!-- Node5 -->
<g id="node5" class="node">
<title>Node5</title>
<g id="a_node5"><a xlink:title=" ">
<polygon fill="#e0e0e0" stroke="#999999" points="760.43,-30.49 676.93,-30.49 676.93,-11.99 760.43,-11.99 760.43,-30.49"/>
<text text-anchor="middle" x="718.68" y="-16.99" font-family="Helvetica,sans-Serif" font-size="10.00">stdbool.h</text>
</a>
</g>
</g>
<!-- Node4&#45;&gt;Node5 -->
<g id="edge4" class="edge">
<title>Node4&#45;&gt;Node5</title>
<path fill="none" stroke="#63b8ff" d="M759.43,-2513.38C739.57,-1299.6 721.58,-199.53 718.99,-41.63"/>
<polygon fill="#63b8ff" stroke="#63b8ff" points="722.48,-41.83 718.82,-31.89 715.48,-41.95 722.48,-41.83"/>
</g>
<!-- Node6 -->
<g id="node6" class="node">
<title>Node6</title>
<g id="a_node6"><a xlink:title=" ">
<polygon fill="#e0e0e0" stroke="#999999" points="854.68,-30.49 778.68,-30.49 778.68,-11.99 854.68,-11.99 854.68,-30.49"/>
<text text-anchor="middle" x="816.68" y="-16.99" font-family="Helvetica,sans-Serif" font-size="10.00">stddef.h</text>
</a>
</g>
</g>
<!-- Node4&#45;&gt;Node6 -->
<g id="edge5" class="edge">
<title>Node4&#45;&gt;Node6</title>
<path fill="none" stroke="#63b8ff" d="M816.68,-78.19C816.68,-63.05 816.68,-50.85 816.68,-41.76"/>
<polygon fill="#63b8ff" stroke="#63b8ff" points="820.18,-41.99 816.68,-31.99 813.18,-41.99 820.18,-41.99"/>
</g>
<!-- Node7 -->
<g id="node7" class="node">
<title>Node7</title>
<g id="a_node7"><a xlink:title=" ">
<polygon fill="#e0e0e0" stroke="#999999" points="948.68,-42.49 872.68,-42.49 872.68,0 948.68,0 948.68,-42.49"/>
<text text-anchor="middle" x="910.68" y="-28.99" font-family="Helvetica,sans-Serif" font-size="10.00">stdint.h</text>
</a>
</g>
</g>
<!-- Node4&#45;&gt;Node7 -->
<g id="edge6" class="edge">
<title>Node4&#45;&gt;Node7</title>
<path fill="none" stroke="#63b8ff" d="M873.93,-2364.3C891.6,-1237.72 907.25,-240.73 910.18,-53.67"/>
<polygon fill="#63b8ff" stroke="#63b8ff" points="913.7,-53.81 910.36,-43.76 906.7,-53.7 913.7,-53.81"/>
</g>
<!-- Node8&#45;&gt;Node4 -->
<g id="edge8" class="edge">
<title>Node8&#45;&gt;Node4</title>
<path fill="none" stroke="#63b8ff" d="M855.68,-586256.63C855.48,-583375.06 821.18,-72989.35 817.08,-11960"/>
<polygon fill="#63b8ff" stroke="#63b8ff" points="820.58,-11960.18 817.08,-11950.18 813.58,-11960.18 820.58,-11960.18"/>
</g>
<!-- Node9&#45;&gt;Node10 -->
<g id="edge11" class="edge">
<title>Node9&#45;&gt;Node10</title>
<path fill="none" stroke="#63b8ff" d="M739.68,-1166577.29C739.45,-1164046.72 688.02,-590105.45 687.68,-586289.99"/>
<polygon fill="#63b8ff" stroke="#63b8ff" points="691.18,-586290.24 687.68,-586280.24 684.18,-586290.24 691.18,-586290.24"/>
</g>
<!-- Node10&#45;&gt;Node4 -->
<g id="edge12" class="edge">
<title>Node10&#45;&gt;Node4</title>
<path fill="none" stroke="#63b8ff" d="M687.67,-586260.22C686.7,-583841.17 483.19,-75641.64 764.68,-11984.81 764.71,-11976.58 764.75,-11968.36 764.79,-11960.12"/>
<polygon fill="#63b8ff" stroke="#63b8ff" points="768.29,-11960.31 764.84,-11950.3 761.29,-11960.28 768.29,-11960.31"/>
</g>
<!-- Node11&#45;&gt;Node4 -->
<g id="edge14" class="edge">
<title>Node11&#45;&gt;Node4</title>
<path fill="none" stroke="#63b8ff" d="M156.76,-1166577.16C158.61,-1166389.95 190.36,-1163156.81 199.68,-1160554.96 203.25,-1159557.94 189.48,-12980.66 237.68,-11984.81 337.79,-9916.05 631.84,-7458.14 758.04,-6464.51"/>
<polygon fill="#63b8ff" stroke="#63b8ff" points="761.64,-6464.98 759.43,-6454.62 754.7,-6464.1 761.64,-6464.98"/>
</g>
<!-- Node12 -->
<g id="node12" class="node">
<title>Node12</title>
<g id="a_node12"><a xlink:title=" ">
<polygon fill="#e0e0e0" stroke="#999999" points="190.93,-1160554.96 122.43,-1160554.96 122.43,-11984.81 190.93,-11984.81 190.93,-1160554.96"/>
<text text-anchor="middle" x="156.68" y="-1160541.46" font-family="Helvetica,sans-Serif" font-size="10.00">fcntl.h</text>
</a>
</g>
</g>
<!-- Node11&#45;&gt;Node12 -->
<g id="edge15" class="edge">
<title>Node11&#45;&gt;Node12</title>
<path fill="none" stroke="#63b8ff" d="M156.68,-1166577.29C156.68,-1166430.17 156.68,-1164351.6 156.68,-1160565.91"/>
<polygon fill="#63b8ff" stroke="#63b8ff" points="160.18,-1160566.15 156.68,-1160556.15 153.18,-1160566.15 160.18,-1160566.15"/>
</g>
<!-- Node11&#45;&gt;Node13 -->
<g id="edge16" class="edge">
<title>Node11&#45;&gt;Node13</title>
<path fill="none" stroke="#63b8ff" d="M156.36,-1166577.1C148.29,-1166354.51 -11.01,-1161869.37 219.68,-1160590.96 222.7,-1160574.22 229.74,-1160571.72 232.68,-1160554.96 555.77,-1158709.42 314.08,-653322.55 283.71,-592282.15"/>
<polygon fill="#63b8ff" stroke="#63b8ff" points="287.21,-592282.32 283.7,-592272.32 280.21,-592282.32 287.21,-592282.32"/>
</g>
<!-- Node14 -->
<g id="node14" class="node">
<title>Node14</title>
<g id="a_node14"><a xlink:title=" ">
<polygon fill="#e0e0e0" stroke="#999999" points="104.18,-586279.13 43.18,-586279.13 43.18,-586260.63 104.18,-586260.63 104.18,-586279.13"/>
<text text-anchor="middle" x="73.68" y="-586265.63" font-family="Helvetica,sans-Serif" font-size="10.00">time.h</text>
</a>
</g>
</g>
<!-- Node11&#45;&gt;Node14 -->
<g id="edge17" class="edge">
<title>Node11&#45;&gt;Node14</title>
<path fill="none" stroke="#63b8ff" d="M156.59,-1166577.16C154.74,-1166389.95 123.04,-1163156.81 113.68,-1160554.96 -115.21,-1096973.68 72.33,-589907.67 73.67,-586290.33"/>
<polygon fill="#63b8ff" stroke="#63b8ff" points="77.17,-586290.55 73.67,-586280.55 70.17,-586290.55 77.17,-586290.55"/>
</g>
<!-- Node15&#45;&gt;Node4 -->
<g id="edge19" class="edge">
<title>Node15&#45;&gt;Node4</title>
<path fill="none" stroke="#63b8ff" d="M1013.68,-586260.35C1014.16,-583749.88 1120.86,-27900.16 946.68,-11984.81 932.72,-10709.71 902.17,-9281.7 874.18,-8142.07"/>
<polygon fill="#63b8ff" stroke="#63b8ff" points="877.66,-8142.11 873.92,-8132.2 870.66,-8142.28 877.66,-8142.11"/>
</g>
<!-- Node17&#45;&gt;Node4 -->
<g id="edge23" class="edge">
<title>Node17&#45;&gt;Node4</title>
<path fill="none" stroke="#63b8ff" d="M445.81,-1160590.56C433.12,-1071516.52 287.67,-19660.53 494.68,-11984.81 544.4,-10140.97 680.25,-7980.29 758.69,-6831.05"/>
<polygon fill="#63b8ff" stroke="#63b8ff" points="762.25,-6831.32 759.44,-6821.1 755.26,-6830.84 762.25,-6831.32"/>
</g>
<!-- Node17&#45;&gt;Node13 -->
<g id="edge24" class="edge">
<title>Node17&#45;&gt;Node13</title>
<path fill="none" stroke="#63b8ff" d="M444.96,-1160590.79C428.51,-1103077.29 298.87,-649870.91 282.4,-592282.19"/>
<polygon fill="#63b8ff" stroke="#63b8ff" points="285.9,-592282.32 282.39,-592272.32 278.9,-592282.32 285.9,-592282.32"/>
</g>
<!-- Node18&#45;&gt;Node4 -->
<g id="edge26" class="edge">
<title>Node18&#45;&gt;Node4</title>
<path fill="none" stroke="#63b8ff" d="M1138.82,-580273.76C1150.13,-519647.72 1238.49,-19475.59 1075.68,-11984.81 1037.9,-10246.63 938.59,-8225.8 874.5,-7037.21"/>
<polygon fill="#63b8ff" stroke="#63b8ff" points="877.95,-7037.12 873.92,-7027.32 870.96,-7037.5 877.95,-7037.12"/>
</g>
<!-- Node19&#45;&gt;Node4 -->
<g id="edge28" class="edge">
<title>Node19&#45;&gt;Node4</title>
<path fill="none" stroke="#63b8ff" d="M566.68,-1166577.09C566.08,-1162974.9 378.59,-27993.51 629.68,-11984.81 653.97,-10435.84 713.59,-8661.64 759.04,-7452.56"/>
<polygon fill="#63b8ff" stroke="#63b8ff" points="762.56,-7453.04 759.44,-7442.92 755.56,-7452.78 762.56,-7453.04"/>
</g>
<!-- Node19&#45;&gt;Node10 -->
<g id="edge29" class="edge">
<title>Node19&#45;&gt;Node10</title>
<path fill="none" stroke="#63b8ff" d="M566.73,-1166577.16C567.97,-1166389.95 589.21,-1163156.78 595.68,-1160554.96 753.64,-1096973.47 688.15,-589907.66 687.68,-586290.33"/>
<polygon fill="#63b8ff" stroke="#63b8ff" points="691.18,-586290.55 687.68,-586280.55 684.18,-586290.55 691.18,-586290.55"/>
</g>
<!-- Node20&#45;&gt;Node4 -->
<g id="edge31" class="edge">
<title>Node20&#45;&gt;Node4</title>
<path fill="none" stroke="#63b8ff" d="M878.84,-1166577C883.29,-1166337.54 976.34,-1161221.56 816.68,-1160590.96 812.24,-1160573.42 802.03,-1160572.52 797.68,-1160554.96 797.68,-1160554.96 797.68,-11984.81 797.68,-11984.81 797.69,-11976.59 797.7,-11968.36 797.72,-11960.13"/>
<polygon fill="#63b8ff" stroke="#63b8ff" points="801.22,-11960.3 797.73,-11950.3 794.22,-11960.29 801.22,-11960.3"/>
</g>
<!-- Node20&#45;&gt;Node8 -->
<g id="edge32" class="edge">
<title>Node20&#45;&gt;Node8</title>
<path fill="none" stroke="#63b8ff" d="M878.68,-1166577.29C878.58,-1164047.57 855.84,-590491.84 855.68,-586294.04"/>
<polygon fill="#63b8ff" stroke="#63b8ff" points="859.18,-586294.36 855.68,-586284.36 852.18,-586294.36 859.18,-586294.36"/>
</g>
</g>
</svg>
        <g id="navigator" transform="translate(0 0)" fill="#404254">
                <rect fill="#f2f5e9" fill-opacity="0.5" stroke="#606060" stroke-width=".5" x="0" y="0" width="60" height="60"/>
                <use id="zoomplus" xlink:href="#zoomPlus" x="17" y="9" onmousedown="handleZoom(evt,'in')"/>
                <use id="zoomminus" xlink:href="#zoomMin" x="42" y="9" onmousedown="handleZoom(evt,'out')"/>
                <use id="reset" xlink:href="#resetDef" x="30" y="36" onmousedown="handleReset()"/>
                <g id="arrowUp" xlink:href="#dirArrow" transform="translate(30 24)" onmousedown="handlePan(0,-1)">
                  <use xlink:href="#rim" fill="#404040">
                        <set attributeName="fill" to="#808080" begin="arrowUp.mouseover" end="arrowUp.mouseout"/>
                  </use>
                  <path fill="none" stroke="white" stroke-width="1.5" d="M0,-3.0v7 M-2.5,-0.5L0,-3.0L2.5,-0.5"/>
                </g>
                <g id="arrowRight" xlink:href="#dirArrow" transform="rotate(90) translate(36 -43)" onmousedown="handlePan(1,0)">
                  <use xlink:href="#rim" fill="#404040">
                        <set attributeName="fill" to="#808080" begin="arrowRight.mouseover" end="arrowRight.mouseout"/>
                  </use>
                  <path fill="none" stroke="white" stroke-width="1.5" d="M0,-3.0v7 M-2.5,-0.5L0,-3.0L2.5,-0.5"/>
                </g>
                <g id="arrowDown" xlink:href="#dirArrow" transform="rotate(180) translate(-30 -48)" onmousedown="handlePan(0,1)">
                  <use xlink:href="#rim" fill="#404040">
                        <set attributeName="fill" to="#808080" begin="arrowDown.mouseover" end="arrowDown.mouseout"/>
                  </use>
                  <path fill="none" stroke="white" stroke-width="1.5" d="M0,-3.0v7 M-2.5,-0.5L0,-3.0L2.5,-0.5"/>
                </g>
                <g id="arrowLeft" xlink:href="#dirArrow" transform="rotate(270) translate(-36 17)" onmousedown="handlePan(-1,0)">
                  <use xlink:href="#rim" fill="#404040">
                        <set attributeName="fill" to="#808080" begin="arrowLeft.mouseover" end="arrowLeft.mouseout"/>
                  </use>
                  <path fill="none" stroke="white" stroke-width="1.5" d="M0,-3.0v7 M-2.5,-0.5L0,-3.0L2.5,-0.5"/>
                </g>
        </g>
        <svg viewBox="0 0 15 15" width="100%" height="30px" preserveAspectRatio="xMaxYMin meet">
         <g id="arrow_out" transform="scale(0.3 0.3)">
          <a xlink:href="read__file__ll_8c__incl_org.svg" target="_base">
           <rect id="button" ry="5" rx="5" y="6" x="6" height="38" width="38"
                fill="#f2f5e9" fill-opacity="0.5" stroke="#606060" stroke-width="1.0"/>
           <path id="arrow"
             d="M 11.500037,31.436501 C 11.940474,20.09759 22.043105,11.32322 32.158766,21.979434 L 37.068811,17.246167 C 37.068811,17.246167 37.088388,32 37.088388,32 L 22.160133,31.978069 C 22.160133,31.978069 26.997745,27.140456 26.997745,27.140456 C 18.528582,18.264221 13.291696,25.230495 11.500037,31.436501 z"
             style="fill:#404040;"/>
          </a>
         </g>
        </svg>
</svg>
