<?xml version="1.0" encoding="UTF-8" standalone="no"?>
<!DOCTYPE svg PUBLIC "-//W3C//DTD SVG 1.1//EN"
 "http://www.w3.org/Graphics/SVG/1.1/DTD/svg11.dtd">
<!-- Generated by graphviz version 9.0.0 (20230911.1827)
 -->
<!-- Title: examples/read_file.c Pages: 1 -->
<!--zoomable 3447845 -->

<svg id="main" version="1.1" xmlns="http://www.w3.org/2000/svg" xmlns:xlink="http://www.w3.org/1999/xlink" xml:space="preserve" onload="init(evt)">
<style type="text/css"><![CDATA[
.node, .edge {opacity: 0.7;}
.node.selected, .edge.selected {opacity: 1;}
.edge:hover path { stroke: red; }
.edge:hover polygon { stroke: red; fill: red; }
]]></style>

<defs>
  <circle id="rim" cx="0" cy="0" r="7"/>
  <circle id="rim2" cx="0" cy="0" r="3.5"/>
  <g id="zoomPlus">
    <use xlink:href="#rim" fill="#404040"><set attributeName="fill" to="#808080" begin="zoomplus.mouseover" end="zoomplus.mouseout"/></use>
    <path d="M-4,0h8M0,-4v8" fill="none" stroke="white" stroke-width="1.5" pointer-events="none"/>
  </g>
  <g id="zoomMin">
    <use xlink:href="#rim" fill="#404040"><set attributeName="fill" to="#808080" begin="zoomminus.mouseover" end="zoomminus.mouseout"/></use>
    <path d="M-4,0h8" fill="none" stroke="white" stroke-width="1.5" pointer-events="none"/>
  </g>
  <g id="arrowUp" transform="translate(30 24)">
    <use xlink:href="#rim"/>
    <path pointer-events="none" fill="none" stroke="white" stroke-width="1.5" d="M0,-3.0v7 M-2.5,-0.5L0,-3.0L2.5,-0.5"/>
  </g>
  <g id="arrowRight" transform="rotate(90) translate(36 -43)">
    <use xlink:href="#rim"/>
    <path pointer-events="none" fill="none" stroke="white" stroke-width="1.5" d="M0,-3.0v7 M-2.5,-0.5L0,-3.0L2.5,-0.5"/>
  </g>
  <g id="arrowDown" transform="rotate(180) translate(-30 -48)">
    <use xlink:href="#rim"/>
    <path pointer-events="none" fill="none" stroke="white" stroke-width="1.5" d="M0,-3.0v7 M-2.5,-0.5L0,-3.0L2.5,-0.5"/>
  </g>
  <g id="arrowLeft" transform="rotate(270) translate(-36 17)">
    <use xlink:href="#rim"/>
    <path pointer-events="none" fill="none" stroke="white" stroke-width="1.5" d="M0,-3.0v7 M-2.5,-0.5L0,-3.0L2.5,-0.5"/>
  </g>
  <g id="resetDef">
    <use xlink:href="#rim2" fill="#404040"><set attributeName="fill" to="#808080" begin="reset.mouseover" end="reset.mouseout"/></use>
  </g>
</defs>
<script type="application/ecmascript">
var viewWidth = 1263;
var viewHeight = 3447845;
var sectionId = 'dynsection-0';
</script>
<script type="application/ecmascript" xlink:href="svg.min.js"/>
<svg id="graph" class="graph">
<g id="viewport">
<title>examples/read_file.c</title>
<!-- Node1 -->
<g id="Node000001" class="node">
<title>Node1</title>
<g id="a_Node000001"><a xlink:title=" ">
<polygon fill="#999999" stroke="#666666" points="1020.19,-3447837.07 854.19,-3447837.07 854.19,-3447818.57 1020.19,-3447818.57 1020.19,-3447837.07"/>
<text text-anchor="middle" x="937.19" y="-3447823.57" font-family="Helvetica,sans-Serif" font-size="10.00">examples/read_file.c</text>
</a>
</g>
</g>
<!-- Node2 -->
<g id="Node000002" class="node">
<title>Node2</title>
<g id="a_Node000002"><a xlink:title=" ">
<polygon fill="#e0e0e0" stroke="#999999" points="635.19,-3447782.57 559.19,-3447782.57 559.19,-3447764.07 635.19,-3447764.07 635.19,-3447782.57"/>
<text text-anchor="middle" x="597.19" y="-3447769.07" font-family="Helvetica,sans-Serif" font-size="10.00">assert.h</text>
</a>
</g>
</g>
<!-- Node1&#45;&gt;Node2 -->
<g id="edge1_Node000001_Node000002" class="edge">
<title>Node1&#45;&gt;Node2</title>
<g id="a_edge1_Node000001_Node000002"><a xlink:title=" ">
<path fill="none" stroke="#63b8ff" d="M877.29,-3447818.1C820.71,-3447809.78 733.15,-3447796.7 646.78,-3447782.8"/>
<polygon fill="#63b8ff" stroke="#63b8ff" points="647.35,-3447779.34 636.92,-3447781.21 646.24,-3447786.26 647.35,-3447779.34"/>
</a>
</g>
</g>
<!-- Node3 -->
<g id="Node000003" class="node">
<title>Node3</title>
<g id="a_Node000003"><a xlink:href="sqsh_8h.html" target="_top" xlink:title=" ">
<polygon fill="white" stroke="#666666" points="714.69,-3447782.57 653.69,-3447782.57 653.69,-3447764.07 714.69,-3447764.07 714.69,-3447782.57"/>
<text text-anchor="middle" x="684.19" y="-3447769.07" font-family="Helvetica,sans-Serif" font-size="10.00">sqsh.h</text>
</a>
</g>
</g>
<!-- Node1&#45;&gt;Node3 -->
<g id="edge2_Node000001_Node000003" class="edge">
<title>Node1&#45;&gt;Node3</title>
<g id="a_edge2_Node000001_Node000003"><a xlink:title=" ">
<path fill="none" stroke="#63b8ff" d="M895.13,-3447818.09C848.36,-3447808.39 773.27,-3447792.81 726.44,-3447783.09"/>
<polygon fill="#63b8ff" stroke="#63b8ff" points="727.16,-3447779.66 716.65,-3447781.06 725.73,-3447786.52 727.16,-3447779.66"/>
</a>
</g>
</g>
<!-- Node14 -->
<g id="Node000014" class="node">
<title>Node14</title>
<g id="a_Node000014"><a xlink:title=" ">
<polygon fill="#e0e0e0" stroke="#999999" points="1155.44,-2681277.2 1086.94,-2681277.2 1086.94,-1532707.05 1155.44,-1532707.05 1155.44,-2681277.2"/>
<text text-anchor="middle" x="1121.19" y="-2681263.7" font-family="Helvetica,sans-Serif" font-size="10.00">stdio.h</text>
</a>
</g>
</g>
<!-- Node1&#45;&gt;Node14 -->
<g id="edge39_Node000001_Node000014" class="edge">
<title>Node1&#45;&gt;Node14</title>
<g id="a_edge39_Node000001_Node000014"><a xlink:title=" ">
<path fill="none" stroke="#63b8ff" d="M969.33,-3447818.15C1008.74,-3447805.59 1073.79,-3447778.17 1102.19,-3447728.07 1102.19,-3447728.07 1107.89,-3045221.46 1113.05,-2681288.94"/>
<polygon fill="#63b8ff" stroke="#63b8ff" points="1116.55,-2681289 1113.05,-2681279 1109.55,-2681289 1116.55,-2681289"/>
</a>
</g>
</g>
<!-- Node23 -->
<g id="Node000023" class="node">
<title>Node23</title>
<g id="a_Node000023"><a xlink:title=" ">
<polygon fill="#e0e0e0" stroke="#999999" points="1225.19,-3447782.57 1149.19,-3447782.57 1149.19,-3447764.07 1225.19,-3447764.07 1225.19,-3447782.57"/>
<text text-anchor="middle" x="1187.19" y="-3447769.07" font-family="Helvetica,sans-Serif" font-size="10.00">stdlib.h</text>
</a>
</g>
</g>
<!-- Node1&#45;&gt;Node23 -->
<g id="edge40_Node000001_Node000023" class="edge">
<title>Node1&#45;&gt;Node23</title>
<g id="a_edge40_Node000001_Node000023"><a xlink:title=" ">
<path fill="none" stroke="#63b8ff" d="M978.75,-3447818.09C1022.49,-3447808.91 1091.31,-3447794.46 1137.8,-3447784.69"/>
<polygon fill="#63b8ff" stroke="#63b8ff" points="1138.26,-3447788.17 1147.33,-3447782.69 1136.82,-3447781.32 1138.26,-3447788.17"/>
</a>
</g>
</g>
<!-- Node4 -->
<g id="Node000004" class="node">
<title>Node4</title>
<g id="a_Node000004"><a xlink:href="sqsh__archive_8h.html" target="_top" xlink:title=" ">
<polygon fill="white" stroke="#666666" points="543.69,-3447728.07 422.69,-3447728.07 422.69,-2681313.2 543.69,-2681313.2 543.69,-3447728.07"/>
<text text-anchor="middle" x="483.19" y="-3447714.57" font-family="Helvetica,sans-Serif" font-size="10.00">sqsh_archive.h</text>
</a>
</g>
</g>
<!-- Node3&#45;&gt;Node4 -->
<g id="edge3_Node000003_Node000004" class="edge">
<title>Node3&#45;&gt;Node4</title>
<g id="a_edge3_Node000003_Node000004"><a xlink:title=" ">
<path fill="none" stroke="#63b8ff" d="M653.39,-3447763.95C616.61,-3447753.65 559.22,-3447736.48 553.19,-3447728.07 550.17,-3447723.87 547.22,-3447626.93 544.36,-3447440.16"/>
<polygon fill="#63b8ff" stroke="#63b8ff" points="547.86,-3447440.35 544.21,-3447430.4 540.86,-3447440.45 547.86,-3447440.35"/>
</a>
</g>
</g>
<!-- Node5 -->
<g id="Node000005" class="node">
<title>Node5</title>
<g id="a_Node000005"><a xlink:href="sqsh__common_8h.html" target="_top" xlink:title=" ">
<polygon fill="white" stroke="#666666" points="569.94,-1532671.05 456.44,-1532671.05 456.44,-766256.25 569.94,-766256.25 569.94,-1532671.05"/>
<text text-anchor="middle" x="513.19" y="-1532657.55" font-family="Helvetica,sans-Serif" font-size="10.00">sqsh_common.h</text>
</a>
</g>
</g>
<!-- Node3&#45;&gt;Node5 -->
<g id="edge10_Node000003_Node000005" class="edge">
<title>Node3&#45;&gt;Node5</title>
<g id="a_edge10_Node000003_Node000005"><a xlink:title=" ">
<path fill="none" stroke="#63b8ff" d="M653.21,-3447765.78C650.16,-3447765.18 647.12,-3447764.6 644.19,-3447764.07 593.28,-3447754.84 447.82,-3447767.38 414.19,-3447728.07 414.19,-3447728.07 414.19,-2681313.2 414.19,-2681313.2 414.41,-2681297.2 414.96,-2681293.21 415.19,-2681277.2 470.67,-2677289.5 476.89,-1536695.14 477.19,-1532707.05 477.19,-1532698.99 477.19,-1532690.93 477.19,-1532682.87"/>
<polygon fill="#63b8ff" stroke="#63b8ff" points="480.69,-1532682.99 477.19,-1532672.99 473.69,-1532682.99 480.69,-1532682.99"/>
</a>
</g>
</g>
<!-- Node10 -->
<g id="Node000010" class="node">
<title>Node10</title>
<g id="a_Node000010"><a xlink:href="sqsh__directory_8h.html" target="_top" xlink:title=" ">
<polygon fill="white" stroke="#666666" points="822.19,-3064533.64 686.19,-3064533.64 686.19,-3064507.64 822.19,-3064507.64 822.19,-3064533.64"/>
<text text-anchor="middle" x="754.19" y="-3064520.14" font-family="Helvetica,sans-Serif" font-size="10.00">sqsh_directory.h</text>
</a>
</g>
</g>
<!-- Node3&#45;&gt;Node10 -->
<g id="edge11_Node000003_Node000010" class="edge">
<title>Node3&#45;&gt;Node10</title>
<g id="a_edge11_Node000003_Node000010"><a xlink:title=" ">
<path fill="none" stroke="#63b8ff" d="M684.19,-3447763.66C684.57,-3445679.53 753.55,-3068000 754.18,-3064545.48"/>
<polygon fill="#63b8ff" stroke="#63b8ff" points="757.68,-3064545.54 754.18,-3064535.54 750.68,-3064545.54 757.68,-3064545.54"/>
</a>
</g>
</g>
<!-- Node11 -->
<g id="Node000011" class="node">
<title>Node11</title>
<g id="a_Node000011"><a xlink:href="sqsh__file_8h.html" target="_top" xlink:title=" ">
<polygon fill="white" stroke="#666666" points="806.44,-2107001.37 707.94,-2107001.37 707.94,-2106982.87 806.44,-2106982.87 806.44,-2107001.37"/>
<text text-anchor="middle" x="757.19" y="-2106987.87" font-family="Helvetica,sans-Serif" font-size="10.00">sqsh_file.h</text>
</a>
</g>
</g>
<!-- Node3&#45;&gt;Node11 -->
<g id="edge21_Node000003_Node000011" class="edge">
<title>Node3&#45;&gt;Node11</title>
<g id="a_edge21_Node000003_Node000011"><a xlink:title=" ">
<path fill="none" stroke="#63b8ff" d="M714.89,-3447772.97C749.52,-3447771.83 804.48,-3447764.01 831.19,-3447728.07 831.19,-3447728.07 831.19,-2681313.2 831.19,-2681313.2 814.82,-2427227.08 757.71,-2109909.9 757.19,-2107013.1"/>
<polygon fill="#63b8ff" stroke="#63b8ff" points="760.69,-2107013.19 757.19,-2107003.19 753.69,-2107013.19 760.69,-2107013.19"/>
</a>
</g>
</g>
<!-- Node12 -->
<g id="Node000012" class="node">
<title>Node12</title>
<g id="a_Node000012"><a xlink:href="sqsh__easy_8h.html" target="_top" xlink:title=" ">
<polygon fill="white" stroke="#666666" points="1093.44,-3064529.89 994.94,-3064529.89 994.94,-3064511.39 1093.44,-3064511.39 1093.44,-3064529.89"/>
<text text-anchor="middle" x="1044.19" y="-3064516.39" font-family="Helvetica,sans-Serif" font-size="10.00">sqsh_easy.h</text>
</a>
</g>
</g>
<!-- Node3&#45;&gt;Node12 -->
<g id="edge14_Node000003_Node000012" class="edge">
<title>Node3&#45;&gt;Node12</title>
<g id="a_edge14_Node000003_Node000012"><a xlink:title=" ">
<path fill="none" stroke="#63b8ff" d="M715.09,-3447772.63C784.72,-3447772.61 950.49,-3447768.24 985.19,-3447728.07 1201.74,-3447477.4 1045.5,-3067714.14 1044.2,-3064541.62"/>
<polygon fill="#63b8ff" stroke="#63b8ff" points="1047.7,-3064541.8 1044.19,-3064531.8 1040.7,-3064541.8 1047.7,-3064541.8"/>
</a>
</g>
</g>
<!-- Node16 -->
<g id="Node000016" class="node">
<title>Node16</title>
<g id="a_Node000016"><a xlink:href="sqsh__error_8h.html" target="_top" xlink:title=" ">
<polygon fill="white" stroke="#666666" points="247.19,-2107013.34 141.19,-2107013.34 141.19,-2106970.91 247.19,-2106970.91 247.19,-2107013.34"/>
<text text-anchor="middle" x="194.19" y="-2106999.84" font-family="Helvetica,sans-Serif" font-size="10.00">sqsh_error.h</text>
</a>
</g>
</g>
<!-- Node3&#45;&gt;Node16 -->
<g id="edge19_Node000003_Node000016" class="edge">
<title>Node3&#45;&gt;Node16</title>
<g id="a_edge19_Node000003_Node000016"><a xlink:title=" ">
<path fill="none" stroke="#63b8ff" d="M653.24,-3447765.58C650.19,-3447765.02 647.13,-3447764.51 644.19,-3447764.07 600.37,-3447757.59 277.06,-3447760.77 247.19,-3447728.07 247.19,-3447728.07 194.49,-2114548.49 194.19,-2107025.09"/>
<polygon fill="#63b8ff" stroke="#63b8ff" points="197.69,-2107025.12 194.19,-2107015.12 190.69,-2107025.12 197.69,-2107025.12"/>
</a>
</g>
</g>
<!-- Node17 -->
<g id="Node000017" class="node">
<title>Node17</title>
<g id="a_Node000017"><a xlink:href="sqsh__mapper_8h.html" target="_top" xlink:title=" ">
<polygon fill="white" stroke="#666666" points="122.94,-2107001.37 9.44,-2107001.37 9.44,-2106982.87 122.94,-2106982.87 122.94,-2107001.37"/>
<text text-anchor="middle" x="66.19" y="-2106987.87" font-family="Helvetica,sans-Serif" font-size="10.00">sqsh_mapper.h</text>
</a>
</g>
</g>
<!-- Node3&#45;&gt;Node17 -->
<g id="edge22_Node000003_Node000017" class="edge">
<title>Node3&#45;&gt;Node17</title>
<g id="a_edge22_Node000003_Node000017"><a xlink:title=" ">
<path fill="none" stroke="#63b8ff" d="M653.24,-3447765.56C650.19,-3447765.01 647.13,-3447764.5 644.19,-3447764.07 596.62,-3447757.21 245.72,-3447763.44 213.19,-3447728.07 213.19,-3447728.07 66.84,-2112957.21 66.19,-2107013.04"/>
<polygon fill="#63b8ff" stroke="#63b8ff" points="69.69,-2107013.26 66.19,-2107003.26 62.69,-2107013.26 69.69,-2107013.26"/>
</a>
</g>
</g>
<!-- Node18 -->
<g id="Node000018" class="node">
<title>Node18</title>
<g id="a_Node000018"><a xlink:href="sqsh__posix_8h.html" target="_top" xlink:title=" ">
<polygon fill="white" stroke="#666666" points="1255.19,-3064529.89 1149.19,-3064529.89 1149.19,-3064511.39 1255.19,-3064511.39 1255.19,-3064529.89"/>
<text text-anchor="middle" x="1202.19" y="-3064516.39" font-family="Helvetica,sans-Serif" font-size="10.00">sqsh_posix.h</text>
</a>
</g>
</g>
<!-- Node3&#45;&gt;Node18 -->
<g id="edge25_Node000003_Node000018" class="edge">
<title>Node3&#45;&gt;Node18</title>
<g id="a_edge25_Node000003_Node000018"><a xlink:title=" ">
<path fill="none" stroke="#63b8ff" d="M715.02,-3447771.39C807.27,-3447768.27 1076.34,-3447756.79 1102.19,-3447728.07 1323.78,-3447481.85 1203.2,-3067714.18 1202.19,-3064541.62"/>
<polygon fill="#63b8ff" stroke="#63b8ff" points="1205.69,-3064541.8 1202.19,-3064531.8 1198.69,-3064541.8 1205.69,-3064541.8"/>
</a>
</g>
</g>
<!-- Node19 -->
<g id="Node000019" class="node">
<title>Node19</title>
<g id="a_Node000019"><a xlink:href="sqsh__table_8h.html" target="_top" xlink:title=" ">
<polygon fill="white" stroke="#666666" points="371.19,-2107001.37 265.19,-2107001.37 265.19,-2106982.87 371.19,-2106982.87 371.19,-2107001.37"/>
<text text-anchor="middle" x="318.19" y="-2106987.87" font-family="Helvetica,sans-Serif" font-size="10.00">sqsh_table.h</text>
</a>
</g>
</g>
<!-- Node3&#45;&gt;Node19 -->
<g id="edge29_Node000003_Node000019" class="edge">
<title>Node3&#45;&gt;Node19</title>
<g id="a_edge29_Node000003_Node000019"><a xlink:title=" ">
<path fill="none" stroke="#63b8ff" d="M653.24,-3447765.58C650.19,-3447765.02 647.13,-3447764.51 644.19,-3447764.07 600.81,-3447757.63 280.75,-3447760.46 251.19,-3447728.07 251.19,-3447728.07 251.19,-2681313.2 251.19,-2681313.2 252.3,-2681297.09 255.07,-2681293.32 256.19,-2681277.2 393.31,-2679294.71 318.7,-2110895.65 318.19,-2107013.11"/>
<polygon fill="#63b8ff" stroke="#63b8ff" points="321.69,-2107013.38 318.19,-2107003.38 314.69,-2107013.38 321.69,-2107013.38"/>
</a>
</g>
</g>
<!-- Node20 -->
<g id="Node000020" class="node">
<title>Node20</title>
<g id="a_Node000020"><a xlink:href="sqsh__tree_8h.html" target="_top" xlink:title=" ">
<polygon fill="white" stroke="#666666" points="976.44,-3064533.64 877.94,-3064533.64 877.94,-3064507.64 976.44,-3064507.64 976.44,-3064533.64"/>
<text text-anchor="middle" x="927.19" y="-3064520.14" font-family="Helvetica,sans-Serif" font-size="10.00">sqsh_tree.h</text>
</a>
</g>
</g>
<!-- Node3&#45;&gt;Node20 -->
<g id="edge31_Node000003_Node000020" class="edge">
<title>Node3&#45;&gt;Node20</title>
<g id="a_edge31_Node000003_Node000020"><a xlink:title=" ">
<path fill="none" stroke="#63b8ff" d="M714.94,-3447769.28C761.38,-3447763.97 845.97,-3447751.31 864.19,-3447728.07 1068.5,-3447467.5 928.48,-3068016.36 927.2,-3064545.59"/>
<polygon fill="#63b8ff" stroke="#63b8ff" points="930.7,-3064545.6 927.19,-3064535.6 923.7,-3064545.6 930.7,-3064545.6"/>
</a>
</g>
</g>
<!-- Node21 -->
<g id="Node000021" class="node">
<title>Node21</title>
<g id="a_Node000021"><a xlink:href="sqsh__utils_8h.html" target="_top" xlink:title=" ">
<polygon fill="white" stroke="#666666" points="366.19,-3064529.89 260.19,-3064529.89 260.19,-3064511.39 366.19,-3064511.39 366.19,-3064529.89"/>
<text text-anchor="middle" x="313.19" y="-3064516.39" font-family="Helvetica,sans-Serif" font-size="10.00">sqsh_utils.h</text>
</a>
</g>
</g>
<!-- Node3&#45;&gt;Node21 -->
<g id="edge34_Node000003_Node000021" class="edge">
<title>Node3&#45;&gt;Node21</title>
<g id="a_edge34_Node000003_Node000021"><a xlink:title=" ">
<path fill="none" stroke="#63b8ff" d="M653.22,-3447765.72C650.17,-3447765.13 647.12,-3447764.57 644.19,-3447764.07 585.83,-3447754.09 419.13,-3447772.67 380.19,-3447728.07 162.33,-3447478.54 311.93,-3067714.15 313.18,-3064541.62"/>
<polygon fill="#63b8ff" stroke="#63b8ff" points="316.68,-3064541.8 313.18,-3064531.8 309.68,-3064541.8 316.68,-3064541.8"/>
</a>
</g>
</g>
<!-- Node22 -->
<g id="Node000022" class="node">
<title>Node22</title>
<g id="a_Node000022"><a xlink:href="sqsh__xattr_8h.html" target="_top" xlink:title=" ">
<polygon fill="white" stroke="#666666" points="668.19,-3064529.89 562.19,-3064529.89 562.19,-3064511.39 668.19,-3064511.39 668.19,-3064529.89"/>
<text text-anchor="middle" x="615.19" y="-3064516.39" font-family="Helvetica,sans-Serif" font-size="10.00">sqsh_xattr.h</text>
</a>
</g>
</g>
<!-- Node3&#45;&gt;Node22 -->
<g id="edge36_Node000003_Node000022" class="edge">
<title>Node3&#45;&gt;Node22</title>
<g id="a_edge36_Node000003_Node000022"><a xlink:title=" ">
<path fill="none" stroke="#63b8ff" d="M682.45,-3447763.89C680.72,-3447755.02 678.18,-3447740.63 677.19,-3447728.07 469.3,-3445086.2 613.97,-3067694.16 615.18,-3064541.5"/>
<polygon fill="#63b8ff" stroke="#63b8ff" points="618.68,-3064541.75 615.18,-3064531.75 611.68,-3064541.75 618.68,-3064541.75"/>
</a>
</g>
</g>
<!-- Node4&#45;&gt;Node5 -->
<g id="edge4_Node000004_Node000005" class="edge">
<title>Node4&#45;&gt;Node5</title>
<g id="a_edge4_Node000004_Node000005"><a xlink:title=" ">
<path fill="none" stroke="#63b8ff" d="M481.44,-2681312.9C481.11,-2371462.33 483.08,-1923976.17 494.19,-1532707.05 494.19,-1532698.99 494.19,-1532690.93 494.19,-1532682.87"/>
<polygon fill="#63b8ff" stroke="#63b8ff" points="497.69,-1532682.99 494.19,-1532672.99 490.69,-1532682.99 497.69,-1532682.99"/>
</a>
</g>
</g>
<!-- Node9 -->
<g id="Node000009" class="node">
<title>Node9</title>
<g id="a_Node000009"><a xlink:href="sqsh__data_8h.html" target="_top" xlink:title=" ">
<polygon fill="white" stroke="#666666" points="601.44,-2107013.34 502.94,-2107013.34 502.94,-2106970.91 601.44,-2106970.91 601.44,-2107013.34"/>
<text text-anchor="middle" x="552.19" y="-2106999.84" font-family="Helvetica,sans-Serif" font-size="10.00">sqsh_data.h</text>
</a>
</g>
</g>
<!-- Node4&#45;&gt;Node9 -->
<g id="edge8_Node000004_Node000009" class="edge">
<title>Node4&#45;&gt;Node9</title>
<g id="a_edge8_Node000004_Node000009"><a xlink:title=" ">
<path fill="none" stroke="#63b8ff" d="M510.8,-2681312.82C529.9,-2416319.72 551.93,-2110613.64 552.18,-2107025.02"/>
<polygon fill="#63b8ff" stroke="#63b8ff" points="555.68,-2107025.26 552.19,-2107015.26 548.68,-2107025.26 555.68,-2107025.26"/>
</a>
</g>
</g>
<!-- Node6 -->
<g id="Node000006" class="node">
<title>Node6</title>
<g id="a_Node000006"><a xlink:title=" ">
<polygon fill="#e0e0e0" stroke="#999999" points="554.94,-766220.25 471.44,-766220.25 471.44,0 554.94,0 554.94,-766220.25"/>
<text text-anchor="middle" x="513.19" y="-766206.75" font-family="Helvetica,sans-Serif" font-size="10.00">stdbool.h</text>
</a>
</g>
</g>
<!-- Node5&#45;&gt;Node6 -->
<g id="edge5_Node000005_Node000006" class="edge">
<title>Node5&#45;&gt;Node6</title>
<g id="a_edge5_Node000005_Node000006"><a xlink:title=" ">
<path fill="none" stroke="#63b8ff" d="M513.19,-766255.92C513.19,-766247.91 513.19,-766239.9 513.19,-766231.89"/>
<polygon fill="#63b8ff" stroke="#63b8ff" points="516.69,-766232.08 513.19,-766222.08 509.69,-766232.08 516.69,-766232.08"/>
</a>
</g>
</g>
<!-- Node7 -->
<g id="Node000007" class="node">
<title>Node7</title>
<g id="a_Node000007"><a xlink:title=" ">
<polygon fill="#e0e0e0" stroke="#999999" points="375.19,-383131.34 299.19,-383131.34 299.19,-383088.91 375.19,-383088.91 375.19,-383131.34"/>
<text text-anchor="middle" x="337.19" y="-383117.84" font-family="Helvetica,sans-Serif" font-size="10.00">stddef.h</text>
</a>
</g>
</g>
<!-- Node5&#45;&gt;Node7 -->
<g id="edge6_Node000005_Node000007" class="edge">
<title>Node5&#45;&gt;Node7</title>
<g id="a_edge6_Node000005_Node000007"><a xlink:title=" ">
<path fill="none" stroke="#63b8ff" d="M455.94,-900180.72C404.87,-677820.32 338,-386650.43 337.19,-383143.11"/>
<polygon fill="#63b8ff" stroke="#63b8ff" points="340.69,-383143.32 337.19,-383133.32 333.69,-383143.32 340.69,-383143.32"/>
</a>
</g>
</g>
<!-- Node8 -->
<g id="Node000008" class="node">
<title>Node8</title>
<g id="a_Node000008"><a xlink:title=" ">
<polygon fill="#e0e0e0" stroke="#999999" points="954.19,-383119.37 878.19,-383119.37 878.19,-383100.87 954.19,-383100.87 954.19,-383119.37"/>
<text text-anchor="middle" x="916.19" y="-383105.87" font-family="Helvetica,sans-Serif" font-size="10.00">stdint.h</text>
</a>
</g>
</g>
<!-- Node5&#45;&gt;Node8 -->
<g id="edge7_Node000005_Node000008" class="edge">
<title>Node5&#45;&gt;Node8</title>
<g id="a_edge7_Node000005_Node000008"><a xlink:title=" ">
<path fill="none" stroke="#63b8ff" d="M570.44,-1040595.25C681.25,-829879.76 914.39,-386534.26 916.18,-383130.83"/>
<polygon fill="#63b8ff" stroke="#63b8ff" points="919.68,-383131.01 916.18,-383121 912.68,-383131 919.68,-383131.01"/>
</a>
</g>
</g>
<!-- Node9&#45;&gt;Node5 -->
<g id="edge9_Node000009_Node000005" class="edge">
<title>Node9&#45;&gt;Node5</title>
<g id="a_edge9_Node000009_Node000005"><a xlink:title=" ">
<path fill="none" stroke="#63b8ff" d="M552.19,-2106970.44C552.07,-2104076.39 539.6,-1797979.09 528.8,-1532682.75"/>
<polygon fill="#63b8ff" stroke="#63b8ff" points="532.3,-1532682.88 528.8,-1532672.88 525.3,-1532682.88 532.3,-1532682.88"/>
</a>
</g>
</g>
<!-- Node10&#45;&gt;Node11 -->
<g id="edge12_Node000010_Node000011" class="edge">
<title>Node10&#45;&gt;Node11</title>
<g id="a_edge12_Node000010_Node000011"><a xlink:title=" ">
<path fill="none" stroke="#63b8ff" d="M754.19,-3064507.28C754.2,-3060560.15 757.17,-2112046.84 757.19,-2107013.23"/>
<polygon fill="#63b8ff" stroke="#63b8ff" points="760.69,-2107013.28 757.19,-2107003.28 753.69,-2107013.28 760.69,-2107013.28"/>
</a>
</g>
</g>
<!-- Node11&#45;&gt;Node5 -->
<g id="edge13_Node000011_Node000005" class="edge">
<title>Node11&#45;&gt;Node5</title>
<g id="a_edge13_Node000011_Node000005"><a xlink:title=" ">
<path fill="none" stroke="#63b8ff" d="M757.19,-2106982.57C756.92,-2105083.33 711.6,-1787181.07 643.19,-1532707.05 622.92,-1457321.37 595.13,-1373594.52 570.44,-1303676.62"/>
<polygon fill="#63b8ff" stroke="#63b8ff" points="573.94,-1303676.93 570.44,-1303666.93 566.94,-1303676.93 573.94,-1303676.93"/>
</a>
</g>
</g>
<!-- Node12&#45;&gt;Node5 -->
<g id="edge15_Node000012_Node000005" class="edge">
<title>Node12&#45;&gt;Node5</title>
<g id="a_edge15_Node000012_Node000005"><a xlink:title=" ">
<path fill="none" stroke="#63b8ff" d="M1044.19,-3064510.99C1044.83,-3062419.06 1160.38,-2681594.89 985.19,-2681313.2 966.08,-2681282.48 931.29,-2681307.92 912.19,-2681277.2 912.19,-2681277.2 859.19,-1532707.05 859.19,-1532707.05 802.11,-1412416.67 653.09,-1270888.49 570.45,-1198113.96"/>
<polygon fill="#63b8ff" stroke="#63b8ff" points="573.95,-1198114.23 570.44,-1198104.23 566.95,-1198114.24 573.95,-1198114.23"/>
</a>
</g>
</g>
<!-- Node13 -->
<g id="Node000013" class="node">
<title>Node13</title>
<g id="a_Node000013"><a xlink:title=" ">
<polygon fill="#e0e0e0" stroke="#999999" points="1068.44,-2490215.1 999.94,-2490215.1 999.94,-1723769.15 1068.44,-1723769.15 1068.44,-2490215.1"/>
<text text-anchor="middle" x="1034.19" y="-2490201.6" font-family="Helvetica,sans-Serif" font-size="10.00">fcntl.h</text>
</a>
</g>
</g>
<!-- Node12&#45;&gt;Node13 -->
<g id="edge16_Node000012_Node000013" class="edge">
<title>Node12&#45;&gt;Node13</title>
<g id="a_edge16_Node000012_Node000013"><a xlink:title=" ">
<path fill="none" stroke="#63b8ff" d="M1044.19,-3064510.95C1044.17,-3062631.51 1040.96,-2755964.32 1038.19,-2490226.72"/>
<polygon fill="#63b8ff" stroke="#63b8ff" points="1041.69,-2490226.83 1038.19,-2490216.83 1034.69,-2490226.83 1041.69,-2490226.83"/>
</a>
</g>
</g>
<!-- Node12&#45;&gt;Node14 -->
<g id="edge17_Node000012_Node000014" class="edge">
<title>Node12&#45;&gt;Node14</title>
<g id="a_edge17_Node000012_Node000014"><a xlink:title=" ">
<path fill="none" stroke="#63b8ff" d="M1044.19,-3064511.08C1044.33,-3062960.79 1063.38,-2850983.41 1077.19,-2681277.2 1080.24,-2643705.43 1083.35,-2604751 1086.44,-2565635.09"/>
<polygon fill="#63b8ff" stroke="#63b8ff" points="1089.94,-2565635.41 1086.44,-2565625.41 1082.94,-2565635.41 1089.94,-2565635.41"/>
</a>
</g>
</g>
<!-- Node15 -->
<g id="Node000015" class="node">
<title>Node15</title>
<g id="a_Node000015"><a xlink:title=" ">
<polygon fill="#e0e0e0" stroke="#999999" points="981.69,-2107005.12 920.69,-2107005.12 920.69,-2106979.12 981.69,-2106979.12 981.69,-2107005.12"/>
<text text-anchor="middle" x="951.19" y="-2106991.62" font-family="Helvetica,sans-Serif" font-size="10.00">time.h</text>
</a>
</g>
</g>
<!-- Node12&#45;&gt;Node15 -->
<g id="edge18_Node000012_Node000015" class="edge">
<title>Node12&#45;&gt;Node15</title>
<g id="a_edge18_Node000012_Node000015"><a xlink:title=" ">
<path fill="none" stroke="#63b8ff" d="M1044.19,-3064511.08C1043.93,-3062960.79 1008.83,-2850983.41 991.19,-2681277.2 964.78,-2427315.98 951.32,-2110181.89 951.19,-2107017"/>
<polygon fill="#63b8ff" stroke="#63b8ff" points="954.69,-2107017.03 951.19,-2107007.03 947.69,-2107017.03 954.69,-2107017.03"/>
</a>
</g>
</g>
<!-- Node16&#45;&gt;Node5 -->
<g id="edge20_Node000016_Node000005" class="edge">
<title>Node16&#45;&gt;Node5</title>
<g id="a_edge20_Node000016_Node000005"><a xlink:title=" ">
<path fill="none" stroke="#63b8ff" d="M194.18,-2106970.57C193.84,-2104032.59 157.29,-1786760.43 256.19,-1532707.05 299.13,-1422403.38 394.23,-1294241.9 455.93,-1217609.71"/>
<polygon fill="#63b8ff" stroke="#63b8ff" points="459.43,-1217609.83 455.94,-1217599.82 452.43,-1217609.82 459.43,-1217609.83"/>
</a>
</g>
</g>
<!-- Node17&#45;&gt;Node5 -->
<g id="edge23_Node000017_Node000005" class="edge">
<title>Node17&#45;&gt;Node5</title>
<g id="a_edge23_Node000017_Node000005"><a xlink:title=" ">
<path fill="none" stroke="#63b8ff" d="M66.18,-2106982.82C65.37,-2104472.07 -118.96,-1533136.41 132.19,-1532707.05 148.66,-1532678.88 179.7,-1532699.21 196.19,-1532671.05 1340.11,-1530716.96 766.88,-1254656.22 570.46,-1172360.37"/>
<polygon fill="#63b8ff" stroke="#63b8ff" points="573.96,-1172360.58 570.44,-1172350.59 566.96,-1172360.6 573.96,-1172360.58"/>
</a>
</g>
</g>
<!-- Node17&#45;&gt;Node7 -->
<g id="edge24_Node000017_Node000007" class="edge">
<title>Node17&#45;&gt;Node7</title>
<g id="a_edge24_Node000017_Node000007"><a xlink:title=" ">
<path fill="none" stroke="#63b8ff" d="M66.19,-2106982.57C66.36,-2105083.33 94.87,-1787181.07 132.19,-1532707.05 206.8,-1023847.99 336.13,-388290.18 337.18,-383142.6"/>
<polygon fill="#63b8ff" stroke="#63b8ff" points="340.68,-383143.04 337.18,-383133.04 333.68,-383143.04 340.68,-383143.04"/>
</a>
</g>
</g>
<!-- Node18&#45;&gt;Node5 -->
<g id="edge26_Node000018_Node000005" class="edge">
<title>Node18&#45;&gt;Node5</title>
<g id="a_edge26_Node000018_Node000005"><a xlink:title=" ">
<path fill="none" stroke="#63b8ff" d="M1202.19,-3064511.22C1202.18,-3060431.98 1200.8,-1575198.95 1164.19,-1532707.05 1047.82,-1397668.63 706.79,-1235865.72 570.46,-1174613.12"/>
<polygon fill="#63b8ff" stroke="#63b8ff" points="573.96,-1174613.41 570.44,-1174603.42 566.96,-1174613.42 573.96,-1174613.41"/>
</a>
</g>
</g>
<!-- Node18&#45;&gt;Node8 -->
<g id="edge27_Node000018_Node000008" class="edge">
<title>Node18&#45;&gt;Node8</title>
<g id="a_edge27_Node000018_Node000008"><a xlink:title=" ">
<path fill="none" stroke="#63b8ff" d="M1202.19,-3064511.08C1202.47,-3061403.73 1280.28,-2212266.04 1196.19,-1532707.05 1133.17,-1023427.11 917.59,-387238.77 916.19,-383131.12"/>
<polygon fill="#63b8ff" stroke="#63b8ff" points="919.69,-383131.37 916.19,-383121.37 912.69,-383131.37 919.69,-383131.37"/>
</a>
</g>
</g>
<!-- Node18&#45;&gt;Node14 -->
<g id="edge28_Node000018_Node000014" class="edge">
<title>Node18&#45;&gt;Node14</title>
<g id="a_edge28_Node000018_Node000014"><a xlink:title=" ">
<path fill="none" stroke="#63b8ff" d="M1202.19,-3064511.08C1202.05,-3062960.79 1183.59,-2850983.41 1169.19,-2681277.2 1164.87,-2630453.75 1160.38,-2577100.28 1155.94,-2524239.48"/>
<polygon fill="#63b8ff" stroke="#63b8ff" points="1159.44,-2524239.5 1155.94,-2524229.5 1152.44,-2524239.5 1159.44,-2524239.5"/>
</a>
</g>
</g>
<!-- Node19&#45;&gt;Node5 -->
<g id="edge30_Node000019_Node000005" class="edge">
<title>Node19&#45;&gt;Node5</title>
<g id="a_edge30_Node000019_Node000005"><a xlink:title=" ">
<path fill="none" stroke="#63b8ff" d="M318.19,-2106982.57C318.24,-2105083.33 327.85,-1787181.07 385.19,-1532707.05 402.6,-1455408.42 430.58,-1369339.94 455.93,-1298381.06"/>
<polygon fill="#63b8ff" stroke="#63b8ff" points="459.43,-1298381.2 455.94,-1298371.2 452.43,-1298381.2 459.43,-1298381.2"/>
</a>
</g>
</g>
<!-- Node20&#45;&gt;Node5 -->
<g id="edge32_Node000020_Node000005" class="edge">
<title>Node20&#45;&gt;Node5</title>
<g id="a_edge32_Node000020_Node000005"><a xlink:title=" ">
<path fill="none" stroke="#63b8ff" d="M927.18,-3064507.32C926.87,-3062649.16 891.12,-2850858.65 875.19,-2681277.2 863.2,-2553658.3 868.8,-1660325.94 815.19,-1532707.05 766.35,-1416473.82 643.54,-1280411.23 570.45,-1205708.75"/>
<polygon fill="#63b8ff" stroke="#63b8ff" points="573.95,-1205709.14 570.44,-1205699.15 566.95,-1205709.15 573.95,-1205709.14"/>
</a>
</g>
</g>
<!-- Node20&#45;&gt;Node11 -->
<g id="edge33_Node000020_Node000011" class="edge">
<title>Node20&#45;&gt;Node11</title>
<g id="a_edge33_Node000020_Node000011"><a xlink:title=" ">
<path fill="none" stroke="#63b8ff" d="M927.19,-3064507.19C927.56,-3061999.82 984.41,-2681622.19 864.19,-2681313.2 856.32,-2681292.97 839.06,-2681297.43 831.19,-2681277.2 470.91,-2680351.17 755.25,-2110867.99 757.18,-2107012.79"/>
<polygon fill="#63b8ff" stroke="#63b8ff" points="760.68,-2107012.93 757.18,-2107002.93 753.68,-2107012.93 760.68,-2107012.93"/>
</a>
</g>
</g>
<!-- Node21&#45;&gt;Node5 -->
<g id="edge35_Node000021_Node000005" class="edge">
<title>Node21&#45;&gt;Node5</title>
<g id="a_edge35_Node000021_Node000005"><a xlink:title=" ">
<path fill="none" stroke="#63b8ff" d="M313.19,-3064511.08C313.54,-3062960.79 362.18,-2850983.41 380.19,-2681277.2 434.36,-2170801.58 353.69,-2043182.67 423.19,-1532707.05 430.74,-1477198.04 442.93,-1417166.56 455.93,-1361455.6"/>
<polygon fill="#63b8ff" stroke="#63b8ff" points="459.43,-1361455.64 455.94,-1361445.64 452.43,-1361455.64 459.43,-1361455.64"/>
</a>
</g>
</g>
<!-- Node22&#45;&gt;Node5 -->
<g id="edge37_Node000022_Node000005" class="edge">
<title>Node22&#45;&gt;Node5</title>
<g id="a_edge37_Node000022_Node000005"><a xlink:title=" ">
<path fill="none" stroke="#63b8ff" d="M615.19,-3064511.08C615.49,-3061403.73 697.3,-2212266.04 610.19,-1532707.05 602.09,-1469533.06 586.65,-1400501.39 570.44,-1338647.44"/>
<polygon fill="#63b8ff" stroke="#63b8ff" points="573.94,-1338647.62 570.44,-1338637.62 566.94,-1338647.63 573.94,-1338647.62"/>
</a>
</g>
</g>
<!-- Node22&#45;&gt;Node9 -->
<g id="edge38_Node000022_Node000009" class="edge">
<title>Node22&#45;&gt;Node9</title>
<g id="a_edge38_Node000022_Node000009"><a xlink:title=" ">
<path fill="none" stroke="#63b8ff" d="M615.19,-3064510.95C614.97,-3061202.38 552.61,-2113356.39 552.19,-2107024.99"/>
<polygon fill="#63b8ff" stroke="#63b8ff" points="555.69,-2107025.25 552.19,-2107015.25 548.69,-2107025.25 555.69,-2107025.25"/>
</a>
</g>
</g>
</g>
</svg>

<g id="navigator" transform="translate(0 0)" fill="#404254">
  <rect fill="#f2f5e9" fill-opacity="0.5" stroke="#606060" stroke-width=".5" x="0" y="0" width="60" height="60"/>
  <use id="zoomplus" xlink:href="#zoomPlus" x="17" y="9" onmousedown="handleZoom(evt,'in')"/>
  <use id="zoomminus" xlink:href="#zoomMin" x="42" y="9" onmousedown="handleZoom(evt,'out')"/>
  <use id="reset" xlink:href="#resetDef" x="30" y="36" onmousedown="handleReset()"/>
   <use id="arrowup" xlink:href="#arrowUp" x="0" y="0" onmousedown="handlePan(0,-1)"/>
  <use id="arrowright" xlink:href="#arrowRight" x="0" y="0" onmousedown="handlePan(1,0)"/>
  <use id="arrowdown" xlink:href="#arrowDown" x="0" y="0" onmousedown="handlePan(0,1)"/>
  <use id="arrowleft" xlink:href="#arrowLeft" x="0" y="0" onmousedown="handlePan(-1,0)"/>
</g>
<svg viewBox="0 0 15 15" width="100%" height="30px" preserveAspectRatio="xMaxYMin meet">
 <g id="arrow_out" transform="scale(0.3 0.3)">
  <a xlink:href="read__file_8c__incl_org.svg" target="_base">
   <rect id="button" ry="5" rx="5" y="6" x="6" height="38" width="38"
        fill="#f2f5e9" fill-opacity="0.5" stroke="#606060" stroke-width="1.0"/>
   <path id="arrow"
     d="M 11.500037,31.436501 C 11.940474,20.09759 22.043105,11.32322 32.158766,21.979434 L 37.068811,17.246167 C 37.068811,17.246167 37.088388,32 37.088388,32 L 22.160133,31.978069 C 22.160133,31.978069 26.997745,27.140456 26.997745,27.140456 C 18.528582,18.264221 13.291696,25.230495 11.500037,31.436501 z"
     style="fill:#404040;"/>
  </a>
 </g>
</svg>

<style type='text/css'>
<![CDATA[
[data-mouse-over-selected='false'] { opacity: 0.7; }
[data-mouse-over-selected='true']  { opacity: 1.0; }
]]>
</style>
<script type="application/ecmascript"><![CDATA[
document.addEventListener('DOMContentLoaded', (event) => {
  highlightEdges();
  highlightAdjacentNodes();
});
]]></script>
</svg>
