<?xml version="1.0" encoding="UTF-8" standalone="no"?>
<!DOCTYPE svg PUBLIC "-//W3C//DTD SVG 1.1//EN"
 "http://www.w3.org/Graphics/SVG/1.1/DTD/svg11.dtd">
<!-- Generated by graphviz version 9.0.0 (20230911.1827)
 -->
<!-- Title: examples/readme_example.c Pages: 1 -->
<!--zoomable 221274 -->

<svg id="main" version="1.1" xmlns="http://www.w3.org/2000/svg" xmlns:xlink="http://www.w3.org/1999/xlink" xml:space="preserve" onload="init(evt)">
<style type="text/css"><![CDATA[
.node, .edge {opacity: 0.7;}
.node.selected, .edge.selected {opacity: 1;}
.edge:hover path { stroke: red; }
.edge:hover polygon { stroke: red; fill: red; }
]]></style>

<defs>
  <circle id="rim" cx="0" cy="0" r="7"/>
  <circle id="rim2" cx="0" cy="0" r="3.5"/>
  <g id="zoomPlus">
    <use xlink:href="#rim" fill="#404040"><set attributeName="fill" to="#808080" begin="zoomplus.mouseover" end="zoomplus.mouseout"/></use>
    <path d="M-4,0h8M0,-4v8" fill="none" stroke="white" stroke-width="1.5" pointer-events="none"/>
  </g>
  <g id="zoomMin">
    <use xlink:href="#rim" fill="#404040"><set attributeName="fill" to="#808080" begin="zoomminus.mouseover" end="zoomminus.mouseout"/></use>
    <path d="M-4,0h8" fill="none" stroke="white" stroke-width="1.5" pointer-events="none"/>
  </g>
  <g id="arrowUp" transform="translate(30 24)">
    <use xlink:href="#rim"/>
    <path pointer-events="none" fill="none" stroke="white" stroke-width="1.5" d="M0,-3.0v7 M-2.5,-0.5L0,-3.0L2.5,-0.5"/>
  </g>
  <g id="arrowRight" transform="rotate(90) translate(36 -43)">
    <use xlink:href="#rim"/>
    <path pointer-events="none" fill="none" stroke="white" stroke-width="1.5" d="M0,-3.0v7 M-2.5,-0.5L0,-3.0L2.5,-0.5"/>
  </g>
  <g id="arrowDown" transform="rotate(180) translate(-30 -48)">
    <use xlink:href="#rim"/>
    <path pointer-events="none" fill="none" stroke="white" stroke-width="1.5" d="M0,-3.0v7 M-2.5,-0.5L0,-3.0L2.5,-0.5"/>
  </g>
  <g id="arrowLeft" transform="rotate(270) translate(-36 17)">
    <use xlink:href="#rim"/>
    <path pointer-events="none" fill="none" stroke="white" stroke-width="1.5" d="M0,-3.0v7 M-2.5,-0.5L0,-3.0L2.5,-0.5"/>
  </g>
  <g id="resetDef">
    <use xlink:href="#rim2" fill="#404040"><set attributeName="fill" to="#808080" begin="reset.mouseover" end="reset.mouseout"/></use>
  </g>
</defs>
<script type="application/ecmascript">
var viewWidth = 1172;
var viewHeight = 221274;
var sectionId = 'dynsection-0';
</script>
<script type="application/ecmascript" xlink:href="svg.min.js"/>
<svg id="graph" class="graph">
<g id="viewport">
<title>examples/readme_example.c</title>
<!-- Node1 -->
<g id="Node000001" class="node">
<title>Node1</title>
<g id="a_Node000001"><a xlink:title=" ">
<polygon fill="#999999" stroke="#666666" points="497.25,-221266.12 293.75,-221266.12 293.75,-221247.62 497.25,-221247.62 497.25,-221266.12"/>
<text text-anchor="middle" x="395.5" y="-221252.62" font-family="Helvetica,sans-Serif" font-size="10.00">examples/readme_example.c</text>
</a>
</g>
</g>
<!-- Node2 -->
<g id="Node000002" class="node">
<title>Node2</title>
<g id="a_Node000002"><a xlink:title=" ">
<polygon fill="#e0e0e0" stroke="#999999" points="162.5,-110747.91 86.5,-110747.91 86.5,-110729.41 162.5,-110729.41 162.5,-110747.91"/>
<text text-anchor="middle" x="124.5" y="-110734.41" font-family="Helvetica,sans-Serif" font-size="10.00">assert.h</text>
</a>
</g>
</g>
<!-- Node1&#45;&gt;Node2 -->
<g id="edge1_Node000001_Node000002" class="edge">
<title>Node1&#45;&gt;Node2</title>
<g id="a_edge1_Node000001_Node000002"><a xlink:title=" ">
<path fill="none" stroke="#63b8ff" d="M293.32,-221247.59C243.8,-221241.24 191.76,-221230.27 176.5,-221211.62 -64.57,-220917.11 121.55,-112451.43 124.47,-110759.66"/>
<polygon fill="#63b8ff" stroke="#63b8ff" points="127.97,-110759.84 124.48,-110749.83 120.97,-110759.83 127.97,-110759.84"/>
</a>
</g>
</g>
<!-- Node3 -->
<g id="Node000003" class="node">
<title>Node3</title>
<g id="a_Node000003"><a xlink:href="sqsh_8h.html" target="_top" xlink:title=" ">
<polygon fill="white" stroke="#666666" points="631,-221211.62 570,-221211.62 570,-265.7 631,-265.7 631,-221211.62"/>
<text text-anchor="middle" x="600.5" y="-221198.12" font-family="Helvetica,sans-Serif" font-size="10.00">sqsh.h</text>
</a>
</g>
</g>
<!-- Node1&#45;&gt;Node3 -->
<g id="edge2_Node000001_Node000003" class="edge">
<title>Node1&#45;&gt;Node3</title>
<g id="a_edge2_Node000001_Node000003"><a xlink:title=" ">
<path fill="none" stroke="#63b8ff" d="M395.52,-221247.19C397.08,-220402.44 512.56,-158147.57 569.48,-127462.94"/>
<polygon fill="#63b8ff" stroke="#63b8ff" points="572.98,-127463.23 569.5,-127453.22 565.98,-127463.21 572.98,-127463.23"/>
</a>
</g>
</g>
<!-- Node14 -->
<g id="Node000014" class="node">
<title>Node14</title>
<g id="a_Node000014"><a xlink:title=" ">
<polygon fill="#e0e0e0" stroke="#999999" points="271.75,-139.43 203.25,-139.43 203.25,-120.93 271.75,-120.93 271.75,-139.43"/>
<text text-anchor="middle" x="237.5" y="-125.93" font-family="Helvetica,sans-Serif" font-size="10.00">stdio.h</text>
</a>
</g>
</g>
<!-- Node1&#45;&gt;Node14 -->
<g id="edge34_Node000001_Node000014" class="edge">
<title>Node1&#45;&gt;Node14</title>
<g id="a_edge34_Node000001_Node000014"><a xlink:title=" ">
<path fill="none" stroke="#63b8ff" d="M395.49,-221247.54C394.12,-220087.26 250.64,-97995.91 209.5,-229.7 209.49,-210.88 205.19,-205.67 209.5,-187.35 212.65,-173.97 219.5,-160.13 225.63,-149.54"/>
<polygon fill="#63b8ff" stroke="#63b8ff" points="228.55,-151.48 230.79,-141.12 222.58,-147.82 228.55,-151.48"/>
</a>
</g>
</g>
<!-- Node22 -->
<g id="Node000022" class="node">
<title>Node22</title>
<g id="a_Node000022"><a xlink:title=" ">
<polygon fill="#e0e0e0" stroke="#999999" points="725.5,-110747.91 649.5,-110747.91 649.5,-110729.41 725.5,-110729.41 725.5,-110747.91"/>
<text text-anchor="middle" x="687.5" y="-110734.41" font-family="Helvetica,sans-Serif" font-size="10.00">stdlib.h</text>
</a>
</g>
</g>
<!-- Node1&#45;&gt;Node22 -->
<g id="edge35_Node000001_Node000022" class="edge">
<title>Node1&#45;&gt;Node22</title>
<g id="a_edge35_Node000001_Node000022"><a xlink:title=" ">
<path fill="none" stroke="#63b8ff" d="M497.73,-221250.35C556.41,-221244.8 622.03,-221233.72 640.5,-221211.62 1616.88,-220043.6 702,-112437.81 687.67,-110759.5"/>
<polygon fill="#63b8ff" stroke="#63b8ff" points="691.17,-110759.73 687.59,-110749.76 684.17,-110759.79 691.17,-110759.73"/>
</a>
</g>
</g>
<!-- Node4 -->
<g id="Node000004" class="node">
<title>Node4</title>
<g id="a_Node000004"><a xlink:href="sqsh__archive_8h.html" target="_top" xlink:title=" ">
<polygon fill="white" stroke="#666666" points="1028,-217.78 907,-217.78 907,-199.28 1028,-199.28 1028,-217.78"/>
<text text-anchor="middle" x="967.5" y="-204.28" font-family="Helvetica,sans-Serif" font-size="10.00">sqsh_archive.h</text>
</a>
</g>
</g>
<!-- Node3&#45;&gt;Node4 -->
<g id="edge3_Node000003_Node000004" class="edge">
<title>Node3&#45;&gt;Node4</title>
<g id="a_edge3_Node000003_Node000004"><a xlink:title=" ">
<path fill="none" stroke="#63b8ff" d="M569.5,-102862.21C474.64,-77683.08 219.4,-749.72 640.5,-265.7 678.35,-222.19 841.1,-241.72 897.5,-229.7 908.13,-227.44 919.51,-224.42 929.94,-221.41"/>
<polygon fill="#63b8ff" stroke="#63b8ff" points="930.76,-224.82 939.35,-218.62 928.77,-218.11 930.76,-224.82"/>
</a>
</g>
</g>
<!-- Node5 -->
<g id="Node000005" class="node">
<title>Node5</title>
<g id="a_Node000005"><a xlink:href="sqsh__common_8h.html" target="_top" xlink:title=" ">
<polygon fill="white" stroke="#666666" points="830.25,-73 716.75,-73 716.75,-54.5 830.25,-54.5 830.25,-73"/>
<text text-anchor="middle" x="773.5" y="-59.5" font-family="Helvetica,sans-Serif" font-size="10.00">sqsh_common.h</text>
</a>
</g>
</g>
<!-- Node3&#45;&gt;Node5 -->
<g id="edge10_Node000003_Node000005" class="edge">
<title>Node3&#45;&gt;Node5</title>
<g id="a_edge10_Node000003_Node000005"><a xlink:title=" ">
<path fill="none" stroke="#63b8ff" d="M569.5,-103145.68C472.12,-78264.14 203.92,-739.12 640.5,-265.7 707.31,-193.26 993.66,-272.36 1082.5,-229.7 1125.68,-208.97 1138.8,-195.86 1156.5,-151.35 1163.45,-133.86 1169.02,-123.05 1156.5,-109 1135.98,-85.97 946.42,-73.16 841.91,-67.8"/>
<polygon fill="#63b8ff" stroke="#63b8ff" points="842.2,-64.31 832.04,-67.3 841.85,-71.3 842.2,-64.31"/>
</a>
</g>
</g>
<!-- Node10 -->
<g id="Node000010" class="node">
<title>Node10</title>
<g id="a_Node000010"><a xlink:href="sqsh__directory_8h.html" target="_top" xlink:title=" ">
<polygon fill="white" stroke="#666666" points="764.5,-217.78 628.5,-217.78 628.5,-199.28 764.5,-199.28 764.5,-217.78"/>
<text text-anchor="middle" x="696.5" y="-204.28" font-family="Helvetica,sans-Serif" font-size="10.00">sqsh_directory.h</text>
</a>
</g>
</g>
<!-- Node3&#45;&gt;Node10 -->
<g id="edge11_Node000003_Node000010" class="edge">
<title>Node3&#45;&gt;Node10</title>
<g id="a_edge11_Node000003_Node000010"><a xlink:title=" ">
<path fill="none" stroke="#63b8ff" d="M569.5,-104154.16C462.51,-80546.5 141.81,-1471.7 640.5,-265.7 647.34,-249.17 661.65,-234.96 674.1,-224.96"/>
<polygon fill="#63b8ff" stroke="#63b8ff" points="676.01,-227.9 681.89,-219.08 671.8,-222.31 676.01,-227.9"/>
</a>
</g>
</g>
<!-- Node11 -->
<g id="Node000011" class="node">
<title>Node11</title>
<g id="a_Node000011"><a xlink:href="sqsh__file_8h.html" target="_top" xlink:title=" ">
<polygon fill="white" stroke="#666666" points="693.75,-139.43 595.25,-139.43 595.25,-120.93 693.75,-120.93 693.75,-139.43"/>
<text text-anchor="middle" x="644.5" y="-125.93" font-family="Helvetica,sans-Serif" font-size="10.00">sqsh_file.h</text>
</a>
</g>
</g>
<!-- Node3&#45;&gt;Node11 -->
<g id="edge21_Node000003_Node000011" class="edge">
<title>Node3&#45;&gt;Node11</title>
<g id="a_edge21_Node000003_Node000011"><a xlink:title=" ">
<path fill="none" stroke="#63b8ff" d="M569.5,-105048.12C452.3,-82798.58 69.98,-2772.58 619.5,-187.35 622.27,-174.32 628.28,-160.63 633.72,-150.04"/>
<polygon fill="#63b8ff" stroke="#63b8ff" points="636.79,-151.71 638.49,-141.26 630.64,-148.37 636.79,-151.71"/>
</a>
</g>
</g>
<!-- Node12 -->
<g id="Node000012" class="node">
<title>Node12</title>
<g id="a_Node000012"><a xlink:href="sqsh__easy_8h.html" target="_top" xlink:title=" ">
<polygon fill="white" stroke="#666666" points="162.75,-221.53 64.25,-221.53 64.25,-195.53 162.75,-195.53 162.75,-221.53"/>
<text text-anchor="middle" x="113.5" y="-208.03" font-family="Helvetica,sans-Serif" font-size="10.00">sqsh_easy.h</text>
</a>
</g>
</g>
<!-- Node3&#45;&gt;Node12 -->
<g id="edge14_Node000003_Node000012" class="edge">
<title>Node3&#45;&gt;Node12</title>
<g id="a_edge14_Node000003_Node000012"><a xlink:title=" ">
<path fill="none" stroke="#63b8ff" d="M569.5,-35197.18C511.05,-16117.11 394.46,-789.2 171.5,-265.7 165.3,-251.15 153.3,-238.51 141.81,-228.93"/>
<polygon fill="#63b8ff" stroke="#63b8ff" points="144.06,-226.25 134.03,-222.85 139.76,-231.76 144.06,-226.25"/>
</a>
</g>
</g>
<!-- Node16 -->
<g id="Node000016" class="node">
<title>Node16</title>
<g id="a_Node000016"><a xlink:href="sqsh__error_8h.html" target="_top" xlink:title=" ">
<polygon fill="white" stroke="#666666" points="1023.5,-151.35 917.5,-151.35 917.5,-109 1023.5,-109 1023.5,-151.35"/>
<text text-anchor="middle" x="970.5" y="-137.85" font-family="Helvetica,sans-Serif" font-size="10.00">sqsh_error.h</text>
</a>
</g>
</g>
<!-- Node3&#45;&gt;Node16 -->
<g id="edge19_Node000003_Node000016" class="edge">
<title>Node3&#45;&gt;Node16</title>
<g id="a_edge19_Node000003_Node000016"><a xlink:title=" ">
<path fill="none" stroke="#63b8ff" d="M569.5,-103102.7C472.51,-78175.32 206.34,-740.84 640.5,-265.7 700.25,-200.31 977.76,-295.11 1037.5,-229.7 1050.19,-215.8 1045.46,-204.41 1037.5,-187.35 1032.39,-176.41 1023.99,-166.84 1014.83,-158.85"/>
<polygon fill="#63b8ff" stroke="#63b8ff" points="1017.07,-156.16 1007.08,-152.62 1012.69,-161.61 1017.07,-156.16"/>
</a>
</g>
</g>
<!-- Node17 -->
<g id="Node000017" class="node">
<title>Node17</title>
<g id="a_Node000017"><a xlink:href="sqsh__mapper_8h.html" target="_top" xlink:title=" ">
<polygon fill="white" stroke="#666666" points="332.25,-221.53 218.75,-221.53 218.75,-195.53 332.25,-195.53 332.25,-221.53"/>
<text text-anchor="middle" x="275.5" y="-208.03" font-family="Helvetica,sans-Serif" font-size="10.00">sqsh_mapper.h</text>
</a>
</g>
</g>
<!-- Node3&#45;&gt;Node17 -->
<g id="edge22_Node000003_Node000017" class="edge">
<title>Node3&#45;&gt;Node17</title>
<g id="a_edge22_Node000003_Node000017"><a xlink:title=" ">
<path fill="none" stroke="#63b8ff" d="M569.5,-100195.3C489.13,-72861.69 279.94,-1720.74 275.57,-233.22"/>
<polygon fill="#63b8ff" stroke="#63b8ff" points="279.07,-233.41 275.54,-223.42 272.07,-233.43 279.07,-233.41"/>
</a>
</g>
</g>
<!-- Node18 -->
<g id="Node000018" class="node">
<title>Node18</title>
<g id="a_Node000018"><a xlink:href="sqsh__posix_8h.html" target="_top" xlink:title=" ">
<polygon fill="white" stroke="#666666" points="456.5,-217.78 350.5,-217.78 350.5,-199.28 456.5,-199.28 456.5,-217.78"/>
<text text-anchor="middle" x="403.5" y="-204.28" font-family="Helvetica,sans-Serif" font-size="10.00">sqsh_posix.h</text>
</a>
</g>
</g>
<!-- Node3&#45;&gt;Node18 -->
<g id="edge23_Node000003_Node000018" class="edge">
<title>Node3&#45;&gt;Node18</title>
<g id="a_edge23_Node000003_Node000018"><a xlink:title=" ">
<path fill="none" stroke="#63b8ff" d="M569.5,-93345.1C514.6,-62540.75 405.78,-1490.02 403.54,-229.36"/>
<polygon fill="#63b8ff" stroke="#63b8ff" points="407.04,-229.7 403.52,-219.7 400.04,-229.71 407.04,-229.7"/>
</a>
</g>
</g>
<!-- Node19 -->
<g id="Node000019" class="node">
<title>Node19</title>
<g id="a_Node000019"><a xlink:href="sqsh__table_8h.html" target="_top" xlink:title=" ">
<polygon fill="white" stroke="#666666" points="1147.5,-139.43 1041.5,-139.43 1041.5,-120.93 1147.5,-120.93 1147.5,-139.43"/>
<text text-anchor="middle" x="1094.5" y="-125.93" font-family="Helvetica,sans-Serif" font-size="10.00">sqsh_table.h</text>
</a>
</g>
</g>
<!-- Node3&#45;&gt;Node19 -->
<g id="edge26_Node000003_Node000019" class="edge">
<title>Node3&#45;&gt;Node19</title>
<g id="a_edge26_Node000003_Node000019"><a xlink:title=" ">
<path fill="none" stroke="#63b8ff" d="M569.5,-103120.31C472.36,-78211.69 205.36,-740.15 640.5,-265.7 702.92,-197.64 980.21,-284.55 1054.5,-229.7 1079.57,-211.19 1088.97,-174.25 1092.47,-151.24"/>
<polygon fill="#63b8ff" stroke="#63b8ff" points="1095.94,-151.67 1093.7,-141.31 1088.99,-150.81 1095.94,-151.67"/>
</a>
</g>
</g>
<!-- Node20 -->
<g id="Node000020" class="node">
<title>Node20</title>
<g id="a_Node000020"><a xlink:href="sqsh__tree_8h.html" target="_top" xlink:title=" ">
<polygon fill="white" stroke="#666666" points="572.75,-217.78 474.25,-217.78 474.25,-199.28 572.75,-199.28 572.75,-217.78"/>
<text text-anchor="middle" x="523.5" y="-204.28" font-family="Helvetica,sans-Serif" font-size="10.00">sqsh_tree.h</text>
</a>
</g>
</g>
<!-- Node3&#45;&gt;Node20 -->
<g id="edge28_Node000003_Node000020" class="edge">
<title>Node3&#45;&gt;Node20</title>
<g id="a_edge28_Node000003_Node000020"><a xlink:title=" ">
<path fill="none" stroke="#63b8ff" d="M569.5,-66239.51C548.4,-35953.57 524.18,-1180.07 523.51,-229.46"/>
<polygon fill="#63b8ff" stroke="#63b8ff" points="527.01,-229.66 523.51,-219.66 520.01,-229.66 527.01,-229.66"/>
</a>
</g>
</g>
<!-- Node21 -->
<g id="Node000021" class="node">
<title>Node21</title>
<g id="a_Node000021"><a xlink:href="sqsh__xattr_8h.html" target="_top" xlink:title=" ">
<polygon fill="white" stroke="#666666" points="888.5,-229.7 782.5,-229.7 782.5,-187.35 888.5,-187.35 888.5,-229.7"/>
<text text-anchor="middle" x="835.5" y="-216.2" font-family="Helvetica,sans-Serif" font-size="10.00">sqsh_xattr.h</text>
</a>
</g>
</g>
<!-- Node3&#45;&gt;Node21 -->
<g id="edge31_Node000003_Node000021" class="edge">
<title>Node3&#45;&gt;Node21</title>
<g id="a_edge31_Node000003_Node000021"><a xlink:title=" ">
<path fill="none" stroke="#63b8ff" d="M569.5,-106770.99C420.09,-87147.13 -185.48,-1344.57 640.5,-265.7 675.69,-219.74 710.75,-244.13 771.34,-229.95"/>
<polygon fill="#63b8ff" stroke="#63b8ff" points="771.89,-233.43 780.66,-227.48 770.09,-226.66 771.89,-233.43"/>
</a>
</g>
</g>
<!-- Node4&#45;&gt;Node5 -->
<g id="edge4_Node000004_Node000005" class="edge">
<title>Node4&#45;&gt;Node5</title>
<g id="a_edge4_Node000004_Node000005"><a xlink:title=" ">
<path fill="none" stroke="#63b8ff" d="M958.09,-198.99C946.25,-188.16 925.45,-168.81 908.5,-151.35 890.88,-133.21 890.88,-123.98 870.5,-109 852.3,-95.62 829.4,-84.94 810.43,-77.43"/>
<polygon fill="#63b8ff" stroke="#63b8ff" points="811.78,-74.2 801.19,-73.91 809.29,-80.74 811.78,-74.2"/>
</a>
</g>
</g>
<!-- Node9 -->
<g id="Node000009" class="node">
<title>Node9</title>
<g id="a_Node000009"><a xlink:href="sqsh__data_8h.html" target="_top" xlink:title=" ">
<polygon fill="white" stroke="#666666" points="861.75,-139.43 763.25,-139.43 763.25,-120.93 861.75,-120.93 861.75,-139.43"/>
<text text-anchor="middle" x="812.5" y="-125.93" font-family="Helvetica,sans-Serif" font-size="10.00">sqsh_data.h</text>
</a>
</g>
</g>
<!-- Node4&#45;&gt;Node9 -->
<g id="edge8_Node000004_Node000009" class="edge">
<title>Node4&#45;&gt;Node9</title>
<g id="a_edge8_Node000004_Node000009"><a xlink:title=" ">
<path fill="none" stroke="#63b8ff" d="M950.02,-198.92C923.28,-185.74 871.96,-160.46 840.13,-144.79"/>
<polygon fill="#63b8ff" stroke="#63b8ff" points="842.03,-141.82 831.51,-140.54 838.93,-148.1 842.03,-141.82"/>
</a>
</g>
</g>
<!-- Node6 -->
<g id="Node000006" class="node">
<title>Node6</title>
<g id="a_Node000006"><a xlink:title=" ">
<polygon fill="#e0e0e0" stroke="#999999" points="717.25,-18.5 633.75,-18.5 633.75,0 717.25,0 717.25,-18.5"/>
<text text-anchor="middle" x="675.5" y="-5" font-family="Helvetica,sans-Serif" font-size="10.00">stdbool.h</text>
</a>
</g>
</g>
<!-- Node5&#45;&gt;Node6 -->
<g id="edge5_Node000005_Node000006" class="edge">
<title>Node5&#45;&gt;Node6</title>
<g id="a_edge5_Node000005_Node000006"><a xlink:title=" ">
<path fill="none" stroke="#63b8ff" d="M757.32,-54.08C742.14,-45.95 719.18,-33.65 701.45,-24.15"/>
<polygon fill="#63b8ff" stroke="#63b8ff" points="703.51,-21.28 693.04,-19.65 700.2,-27.45 703.51,-21.28"/>
</a>
</g>
</g>
<!-- Node7 -->
<g id="Node000007" class="node">
<title>Node7</title>
<g id="a_Node000007"><a xlink:title=" ">
<polygon fill="#e0e0e0" stroke="#999999" points="811.5,-18.5 735.5,-18.5 735.5,0 811.5,0 811.5,-18.5"/>
<text text-anchor="middle" x="773.5" y="-5" font-family="Helvetica,sans-Serif" font-size="10.00">stddef.h</text>
</a>
</g>
</g>
<!-- Node5&#45;&gt;Node7 -->
<g id="edge6_Node000005_Node000007" class="edge">
<title>Node5&#45;&gt;Node7</title>
<g id="a_edge6_Node000005_Node000007"><a xlink:title=" ">
<path fill="none" stroke="#63b8ff" d="M773.5,-54.08C773.5,-47.58 773.5,-38.42 773.5,-30.16"/>
<polygon fill="#63b8ff" stroke="#63b8ff" points="777,-30.27 773.5,-20.27 770,-30.27 777,-30.27"/>
</a>
</g>
</g>
<!-- Node8 -->
<g id="Node000008" class="node">
<title>Node8</title>
<g id="a_Node000008"><a xlink:title=" ">
<polygon fill="#e0e0e0" stroke="#999999" points="905.5,-18.5 829.5,-18.5 829.5,0 905.5,0 905.5,-18.5"/>
<text text-anchor="middle" x="867.5" y="-5" font-family="Helvetica,sans-Serif" font-size="10.00">stdint.h</text>
</a>
</g>
</g>
<!-- Node5&#45;&gt;Node8 -->
<g id="edge7_Node000005_Node000008" class="edge">
<title>Node5&#45;&gt;Node8</title>
<g id="a_edge7_Node000005_Node000008"><a xlink:title=" ">
<path fill="none" stroke="#63b8ff" d="M789.02,-54.08C803.45,-46.03 825.19,-33.88 842.13,-24.42"/>
<polygon fill="#63b8ff" stroke="#63b8ff" points="843.61,-27.6 850.63,-19.67 840.2,-21.49 843.61,-27.6"/>
</a>
</g>
</g>
<!-- Node9&#45;&gt;Node5 -->
<g id="edge9_Node000009_Node000005" class="edge">
<title>Node9&#45;&gt;Node5</title>
<g id="a_edge9_Node000009_Node000005"><a xlink:title=" ">
<path fill="none" stroke="#63b8ff" d="M807.24,-120.49C801.45,-110.92 791.98,-95.28 784.54,-82.99"/>
<polygon fill="#63b8ff" stroke="#63b8ff" points="787.63,-81.34 779.46,-74.6 781.64,-84.96 787.63,-81.34"/>
</a>
</g>
</g>
<!-- Node10&#45;&gt;Node11 -->
<g id="edge12_Node000010_Node000011" class="edge">
<title>Node10&#45;&gt;Node11</title>
<g id="a_edge12_Node000010_Node000011"><a xlink:title=" ">
<path fill="none" stroke="#63b8ff" d="M690.74,-199.06C682.58,-187.09 667.47,-164.9 656.75,-149.16"/>
<polygon fill="#63b8ff" stroke="#63b8ff" points="659.82,-147.46 651.3,-141.16 654.04,-151.4 659.82,-147.46"/>
</a>
</g>
</g>
<!-- Node11&#45;&gt;Node5 -->
<g id="edge13_Node000011_Node000005" class="edge">
<title>Node11&#45;&gt;Node5</title>
<g id="a_edge13_Node000011_Node000005"><a xlink:title=" ">
<path fill="none" stroke="#63b8ff" d="M661.9,-120.49C683.56,-109.67 720.81,-91.06 746.27,-78.35"/>
<polygon fill="#63b8ff" stroke="#63b8ff" points="747.64,-81.58 755.02,-73.98 744.51,-75.31 747.64,-81.58"/>
</a>
</g>
</g>
<!-- Node12&#45;&gt;Node5 -->
<g id="edge15_Node000012_Node000005" class="edge">
<title>Node12&#45;&gt;Node5</title>
<g id="a_edge15_Node000012_Node000005"><a xlink:title=" ">
<path fill="none" stroke="#63b8ff" d="M122.88,-195.04C142.07,-169.66 184.82,-114.03 194.5,-109 238.83,-85.95 561.76,-72.06 705.18,-66.97"/>
<polygon fill="#63b8ff" stroke="#63b8ff" points="705.04,-70.48 714.92,-66.63 704.8,-63.48 705.04,-70.48"/>
</a>
</g>
</g>
<!-- Node13 -->
<g id="Node000013" class="node">
<title>Node13</title>
<g id="a_Node000013"><a xlink:title=" ">
<polygon fill="#e0e0e0" stroke="#999999" points="147.75,-151.35 79.25,-151.35 79.25,-109 147.75,-109 147.75,-151.35"/>
<text text-anchor="middle" x="113.5" y="-137.85" font-family="Helvetica,sans-Serif" font-size="10.00">fcntl.h</text>
</a>
</g>
</g>
<!-- Node12&#45;&gt;Node13 -->
<g id="edge16_Node000012_Node000013" class="edge">
<title>Node12&#45;&gt;Node13</title>
<g id="a_edge16_Node000012_Node000013"><a xlink:title=" ">
<path fill="none" stroke="#63b8ff" d="M113.5,-195.26C113.5,-186.56 113.5,-174.47 113.5,-163.13"/>
<polygon fill="#63b8ff" stroke="#63b8ff" points="117,-163.27 113.5,-153.27 110,-163.27 117,-163.27"/>
</a>
</g>
</g>
<!-- Node12&#45;&gt;Node14 -->
<g id="edge17_Node000012_Node000014" class="edge">
<title>Node12&#45;&gt;Node14</title>
<g id="a_edge17_Node000012_Node000014"><a xlink:title=" ">
<path fill="none" stroke="#63b8ff" d="M133.7,-195.09C155.6,-181.6 190.52,-160.1 213.73,-145.81"/>
<polygon fill="#63b8ff" stroke="#63b8ff" points="215.51,-148.83 222.19,-140.6 211.84,-142.87 215.51,-148.83"/>
</a>
</g>
</g>
<!-- Node15 -->
<g id="Node000015" class="node">
<title>Node15</title>
<g id="a_Node000015"><a xlink:title=" ">
<polygon fill="#e0e0e0" stroke="#999999" points="61,-139.43 0,-139.43 0,-120.93 61,-120.93 61,-139.43"/>
<text text-anchor="middle" x="30.5" y="-125.93" font-family="Helvetica,sans-Serif" font-size="10.00">time.h</text>
</a>
</g>
</g>
<!-- Node12&#45;&gt;Node15 -->
<g id="edge18_Node000012_Node000015" class="edge">
<title>Node12&#45;&gt;Node15</title>
<g id="a_edge18_Node000012_Node000015"><a xlink:title=" ">
<path fill="none" stroke="#63b8ff" d="M100.16,-195.26C86.07,-182.29 63.76,-161.77 48.2,-147.46"/>
<polygon fill="#63b8ff" stroke="#63b8ff" points="50.77,-145.07 41.04,-140.88 46.03,-150.22 50.77,-145.07"/>
</a>
</g>
</g>
<!-- Node16&#45;&gt;Node5 -->
<g id="edge20_Node000016_Node000005" class="edge">
<title>Node16&#45;&gt;Node5</title>
<g id="a_edge20_Node000016_Node000005"><a xlink:title=" ">
<path fill="none" stroke="#63b8ff" d="M917.19,-111.74C883.54,-100.74 840.91,-86.8 810.85,-76.97"/>
<polygon fill="#63b8ff" stroke="#63b8ff" points="812.03,-73.67 801.43,-73.88 809.85,-80.32 812.03,-73.67"/>
</a>
</g>
</g>
<!-- Node18&#45;&gt;Node5 -->
<g id="edge24_Node000018_Node000005" class="edge">
<title>Node18&#45;&gt;Node5</title>
<g id="a_edge24_Node000018_Node000005"><a xlink:title=" ">
<path fill="none" stroke="#63b8ff" d="M413.05,-198.8C434.9,-179.36 490.91,-132.36 546.5,-109 597.34,-87.63 658.98,-76.45 705.19,-70.68"/>
<polygon fill="#63b8ff" stroke="#63b8ff" points="705.57,-74.16 715.08,-69.51 704.74,-67.21 705.57,-74.16"/>
</a>
</g>
</g>
<!-- Node18&#45;&gt;Node14 -->
<g id="edge25_Node000018_Node000014" class="edge">
<title>Node18&#45;&gt;Node14</title>
<g id="a_edge25_Node000018_Node000014"><a xlink:title=" ">
<path fill="none" stroke="#63b8ff" d="M384.78,-198.92C356.01,-185.69 300.7,-160.24 266.65,-144.58"/>
<polygon fill="#63b8ff" stroke="#63b8ff" points="268.33,-141.5 257.78,-140.5 265.4,-147.86 268.33,-141.5"/>
</a>
</g>
</g>
<!-- Node19&#45;&gt;Node5 -->
<g id="edge27_Node000019_Node000005" class="edge">
<title>Node19&#45;&gt;Node5</title>
<g id="a_edge27_Node000019_Node000005"><a xlink:title=" ">
<path fill="none" stroke="#63b8ff" d="M1070.59,-120.5C1059.17,-116.58 1045.25,-112.15 1032.5,-109 968.55,-93.22 894.33,-81.16 841.78,-73.65"/>
<polygon fill="#63b8ff" stroke="#63b8ff" points="842.47,-70.21 832.08,-72.28 841.49,-77.14 842.47,-70.21"/>
</a>
</g>
</g>
<!-- Node20&#45;&gt;Node5 -->
<g id="edge29_Node000020_Node000005" class="edge">
<title>Node20&#45;&gt;Node5</title>
<g id="a_edge29_Node000020_Node000005"><a xlink:title=" ">
<path fill="none" stroke="#63b8ff" d="M526.47,-198.82C533.56,-179.42 553.38,-132.5 586.5,-109 621.17,-84.4 667.65,-73.33 705.6,-68.41"/>
<polygon fill="#63b8ff" stroke="#63b8ff" points="705.54,-71.94 715.07,-67.3 704.73,-64.99 705.54,-71.94"/>
</a>
</g>
</g>
<!-- Node20&#45;&gt;Node11 -->
<g id="edge30_Node000020_Node000011" class="edge">
<title>Node20&#45;&gt;Node11</title>
<g id="a_edge30_Node000020_Node000011"><a xlink:title=" ">
<path fill="none" stroke="#63b8ff" d="M536.91,-199.06C557.25,-186.23 596.15,-161.68 621.18,-145.89"/>
<polygon fill="#63b8ff" stroke="#63b8ff" points="622.79,-149.02 629.38,-140.72 619.05,-143.1 622.79,-149.02"/>
</a>
</g>
</g>
<!-- Node21&#45;&gt;Node5 -->
<g id="edge32_Node000021_Node000005" class="edge">
<title>Node21&#45;&gt;Node5</title>
<g id="a_edge32_Node000021_Node000005"><a xlink:title=" ">
<path fill="none" stroke="#63b8ff" d="M790.34,-186.99C776.25,-178.16 762.36,-166.36 754.5,-151.35 743.15,-129.67 753.23,-101.51 762.5,-83.29"/>
<polygon fill="#63b8ff" stroke="#63b8ff" points="765.47,-85.14 767.23,-74.7 759.34,-81.77 765.47,-85.14"/>
</a>
</g>
</g>
<!-- Node21&#45;&gt;Node9 -->
<g id="edge33_Node000021_Node000009" class="edge">
<title>Node21&#45;&gt;Node9</title>
<g id="a_edge33_Node000021_Node000009"><a xlink:title=" ">
<path fill="none" stroke="#63b8ff" d="M829.34,-187.07C825.9,-175.65 821.64,-161.51 818.27,-150.31"/>
<polygon fill="#63b8ff" stroke="#63b8ff" points="821.7,-149.6 815.47,-141.03 815,-151.62 821.7,-149.6"/>
</a>
</g>
</g>
</g>
</svg>

<g id="navigator" transform="translate(0 0)" fill="#404254">
  <rect fill="#f2f5e9" fill-opacity="0.5" stroke="#606060" stroke-width=".5" x="0" y="0" width="60" height="60"/>
  <use id="zoomplus" xlink:href="#zoomPlus" x="17" y="9" onmousedown="handleZoom(evt,'in')"/>
  <use id="zoomminus" xlink:href="#zoomMin" x="42" y="9" onmousedown="handleZoom(evt,'out')"/>
  <use id="reset" xlink:href="#resetDef" x="30" y="36" onmousedown="handleReset()"/>
   <use id="arrowup" xlink:href="#arrowUp" x="0" y="0" onmousedown="handlePan(0,-1)"/>
  <use id="arrowright" xlink:href="#arrowRight" x="0" y="0" onmousedown="handlePan(1,0)"/>
  <use id="arrowdown" xlink:href="#arrowDown" x="0" y="0" onmousedown="handlePan(0,1)"/>
  <use id="arrowleft" xlink:href="#arrowLeft" x="0" y="0" onmousedown="handlePan(-1,0)"/>
</g>
<svg viewBox="0 0 15 15" width="100%" height="30px" preserveAspectRatio="xMaxYMin meet">
 <g id="arrow_out" transform="scale(0.3 0.3)">
  <a xlink:href="readme__example_8c__incl_org.svg" target="_base">
   <rect id="button" ry="5" rx="5" y="6" x="6" height="38" width="38"
        fill="#f2f5e9" fill-opacity="0.5" stroke="#606060" stroke-width="1.0"/>
   <path id="arrow"
     d="M 11.500037,31.436501 C 11.940474,20.09759 22.043105,11.32322 32.158766,21.979434 L 37.068811,17.246167 C 37.068811,17.246167 37.088388,32 37.088388,32 L 22.160133,31.978069 C 22.160133,31.978069 26.997745,27.140456 26.997745,27.140456 C 18.528582,18.264221 13.291696,25.230495 11.500037,31.436501 z"
     style="fill:#404040;"/>
  </a>
 </g>
</svg>

<style type='text/css'>
<![CDATA[
[data-mouse-over-selected='false'] { opacity: 0.7; }
[data-mouse-over-selected='true']  { opacity: 1.0; }
]]>
</style>
<script type="application/ecmascript"><![CDATA[
document.addEventListener('DOMContentLoaded', (event) => {
  highlightEdges();
  highlightAdjacentNodes();
});
]]></script>
</svg>
