<?xml version="1.0" encoding="UTF-8" standalone="no"?>
<!DOCTYPE svg PUBLIC "-//W3C//DTD SVG 1.1//EN"
 "http://www.w3.org/Graphics/SVG/1.1/DTD/svg11.dtd">
<!-- Generated by graphviz version 9.0.0 (20230911.1827)
 -->
<!-- Title: examples/readme_example.c Pages: 1 -->
<svg width="1296pt" height="5985019pt"
 viewBox="0.00 0.00 1296.30 5985019.13" xmlns="http://www.w3.org/2000/svg" xmlns:xlink="http://www.w3.org/1999/xlink">
<g id="graph0" class="graph" transform="scale(1 1) rotate(0) translate(4 5985015.13)">
<title>examples/readme_example.c</title>
<!-- Node1 -->
<g id="Node000001" class="node">
<title>Node1</title>
<g id="a_Node000001"><a xlink:title=" ">
<polygon fill="#999999" stroke="#666666" points="1072.05,-5985011.13 868.55,-5985011.13 868.55,-5984992.63 1072.05,-5984992.63 1072.05,-5985011.13"/>
<text text-anchor="middle" x="970.3" y="-5984997.63" font-family="Helvetica,sans-Serif" font-size="10.00">examples/readme_example.c</text>
</a>
</g>
</g>
<!-- Node2 -->
<g id="Node000002" class="node">
<title>Node2</title>
<g id="a_Node000002"><a xlink:title=" ">
<polygon fill="#e0e0e0" stroke="#999999" points="668.3,-5984956.63 592.3,-5984956.63 592.3,-5984938.13 668.3,-5984938.13 668.3,-5984956.63"/>
<text text-anchor="middle" x="630.3" y="-5984943.13" font-family="Helvetica,sans-Serif" font-size="10.00">assert.h</text>
</a>
</g>
</g>
<!-- Node1&#45;&gt;Node2 -->
<g id="edge1_Node000001_Node000002" class="edge">
<title>Node1&#45;&gt;Node2</title>
<g id="a_edge1_Node000001_Node000002"><a xlink:title=" ">
<path fill="none" stroke="#63b8ff" d="M910.41,-5984992.16C853.83,-5984983.84 766.26,-5984970.76 679.89,-5984956.86"/>
<polygon fill="#63b8ff" stroke="#63b8ff" points="680.47,-5984953.41 670.04,-5984955.27 679.35,-5984960.32 680.47,-5984953.41"/>
</a>
</g>
</g>
<!-- Node3 -->
<g id="Node000003" class="node">
<title>Node3</title>
<g id="a_Node000003"><a xlink:href="sqsh_8h.html" target="_top" xlink:title=" ">
<polygon fill="white" stroke="#666666" points="747.8,-5984956.63 686.8,-5984956.63 686.8,-5984938.13 747.8,-5984938.13 747.8,-5984956.63"/>
<text text-anchor="middle" x="717.3" y="-5984943.13" font-family="Helvetica,sans-Serif" font-size="10.00">sqsh.h</text>
</a>
</g>
</g>
<!-- Node1&#45;&gt;Node3 -->
<g id="edge2_Node000001_Node000003" class="edge">
<title>Node1&#45;&gt;Node3</title>
<g id="a_edge2_Node000001_Node000003"><a xlink:title=" ">
<path fill="none" stroke="#63b8ff" d="M928.24,-5984992.15C881.48,-5984982.45 806.39,-5984966.87 759.55,-5984957.15"/>
<polygon fill="#63b8ff" stroke="#63b8ff" points="760.27,-5984953.72 749.77,-5984955.12 758.85,-5984960.58 760.27,-5984953.72"/>
</a>
</g>
</g>
<!-- Node14 -->
<g id="Node000014" class="node">
<title>Node14</title>
<g id="a_Node000014"><a xlink:title=" ">
<polygon fill="#e0e0e0" stroke="#999999" points="1188.55,-4314930.31 1120.05,-4314930.31 1120.05,-3166360.15 1188.55,-3166360.15 1188.55,-4314930.31"/>
<text text-anchor="middle" x="1154.3" y="-4314916.81" font-family="Helvetica,sans-Serif" font-size="10.00">stdio.h</text>
</a>
</g>
</g>
<!-- Node1&#45;&gt;Node14 -->
<g id="edge39_Node000001_Node000014" class="edge">
<title>Node1&#45;&gt;Node14</title>
<g id="a_edge39_Node000001_Node000014"><a xlink:title=" ">
<path fill="none" stroke="#63b8ff" d="M1002.45,-5984992.21C1041.86,-5984979.65 1106.9,-5984952.23 1135.3,-5984902.13 1135.3,-5984902.13 1143.81,-4979878.18 1149.44,-4314942.21"/>
<polygon fill="#63b8ff" stroke="#63b8ff" points="1152.94,-4314942.31 1149.44,-4314932.31 1145.94,-4314942.31 1152.94,-4314942.31"/>
</a>
</g>
</g>
<!-- Node23 -->
<g id="Node000023" class="node">
<title>Node23</title>
<g id="a_Node000023"><a xlink:title=" ">
<polygon fill="#e0e0e0" stroke="#999999" points="1258.3,-5984956.63 1182.3,-5984956.63 1182.3,-5984938.13 1258.3,-5984938.13 1258.3,-5984956.63"/>
<text text-anchor="middle" x="1220.3" y="-5984943.13" font-family="Helvetica,sans-Serif" font-size="10.00">stdlib.h</text>
</a>
</g>
</g>
<!-- Node1&#45;&gt;Node23 -->
<g id="edge40_Node000001_Node000023" class="edge">
<title>Node1&#45;&gt;Node23</title>
<g id="a_edge40_Node000001_Node000023"><a xlink:title=" ">
<path fill="none" stroke="#63b8ff" d="M1011.87,-5984992.15C1055.61,-5984982.97 1124.43,-5984968.52 1170.91,-5984958.76"/>
<polygon fill="#63b8ff" stroke="#63b8ff" points="1171.38,-5984962.23 1180.45,-5984956.75 1169.94,-5984955.38 1171.38,-5984962.23"/>
</a>
</g>
</g>
<!-- Node4 -->
<g id="Node000004" class="node">
<title>Node4</title>
<g id="a_Node000004"><a xlink:href="sqsh__archive_8h.html" target="_top" xlink:title=" ">
<polygon fill="white" stroke="#666666" points="576.8,-5984902.13 455.8,-5984902.13 455.8,-4488744.5 576.8,-4488744.5 576.8,-5984902.13"/>
<text text-anchor="middle" x="516.3" y="-5984888.63" font-family="Helvetica,sans-Serif" font-size="10.00">sqsh_archive.h</text>
</a>
</g>
</g>
<!-- Node3&#45;&gt;Node4 -->
<g id="edge3_Node000003_Node000004" class="edge">
<title>Node3&#45;&gt;Node4</title>
<g id="a_edge3_Node000003_Node000004"><a xlink:title=" ">
<path fill="none" stroke="#63b8ff" d="M686.51,-5984938.02C649.72,-5984927.71 592.34,-5984910.54 586.3,-5984902.13 586.3,-5984902.13 582.78,-5947203.49 577.3,-5888731.86"/>
<polygon fill="#63b8ff" stroke="#63b8ff" points="580.8,-5888731.99 577.3,-5888721.99 573.8,-5888731.99 580.8,-5888731.99"/>
</a>
</g>
</g>
<!-- Node5 -->
<g id="Node000005" class="node">
<title>Node5</title>
<g id="a_Node000005"><a xlink:href="sqsh__common_8h.html" target="_top" xlink:title=" ">
<polygon fill="white" stroke="#666666" points="603.05,-2992545.95 489.55,-2992545.95 489.55,-1496388.25 603.05,-1496388.25 603.05,-2992545.95"/>
<text text-anchor="middle" x="546.3" y="-2992532.45" font-family="Helvetica,sans-Serif" font-size="10.00">sqsh_common.h</text>
</a>
</g>
</g>
<!-- Node3&#45;&gt;Node5 -->
<g id="edge10_Node000003_Node000005" class="edge">
<title>Node3&#45;&gt;Node5</title>
<g id="a_edge10_Node000003_Node000005"><a xlink:title=" ">
<path fill="none" stroke="#63b8ff" d="M686.32,-5984939.84C683.28,-5984939.24 680.23,-5984938.66 677.3,-5984938.13 626.4,-5984928.91 480.94,-5984941.44 447.3,-5984902.13 447.3,-5984902.13 447.3,-4488744.5 447.3,-4488744.5 447.53,-4488728.5 448.08,-4488724.51 448.3,-4488708.5 484.42,-4486111.31 511.19,-2995179.4 511.3,-2992581.95 511.3,-2992573.87 511.3,-2992565.79 511.3,-2992557.71"/>
<polygon fill="#63b8ff" stroke="#63b8ff" points="514.8,-2992557.79 511.3,-2992547.79 507.8,-2992557.79 514.8,-2992557.79"/>
</a>
</g>
</g>
<!-- Node10 -->
<g id="Node000010" class="node">
<title>Node10</title>
<g id="a_Node000010"><a xlink:href="sqsh__directory_8h.html" target="_top" xlink:title=" ">
<polygon fill="white" stroke="#666666" points="855.3,-5236836.32 719.3,-5236836.32 719.3,-5236810.32 855.3,-5236810.32 855.3,-5236836.32"/>
<text text-anchor="middle" x="787.3" y="-5236822.82" font-family="Helvetica,sans-Serif" font-size="10.00">sqsh_directory.h</text>
</a>
</g>
</g>
<!-- Node3&#45;&gt;Node10 -->
<g id="edge11_Node000003_Node000010" class="edge">
<title>Node3&#45;&gt;Node10</title>
<g id="a_edge11_Node000003_Node000010"><a xlink:title=" ">
<path fill="none" stroke="#63b8ff" d="M717.3,-5984937.83C717.58,-5982036.38 786.85,-5241679.95 787.3,-5236848.07"/>
<polygon fill="#63b8ff" stroke="#63b8ff" points="790.8,-5236848.16 787.3,-5236838.16 783.8,-5236848.16 790.8,-5236848.16"/>
</a>
</g>
</g>
<!-- Node11 -->
<g id="Node000011" class="node">
<title>Node11</title>
<g id="a_Node000011"><a xlink:href="sqsh__file_8h.html" target="_top" xlink:title=" ">
<polygon fill="white" stroke="#666666" points="839.55,-3740654.48 741.05,-3740654.48 741.05,-3740635.98 839.55,-3740635.98 839.55,-3740654.48"/>
<text text-anchor="middle" x="790.3" y="-3740640.98" font-family="Helvetica,sans-Serif" font-size="10.00">sqsh_file.h</text>
</a>
</g>
</g>
<!-- Node3&#45;&gt;Node11 -->
<g id="edge21_Node000003_Node000011" class="edge">
<title>Node3&#45;&gt;Node11</title>
<g id="a_edge21_Node000003_Node000011"><a xlink:title=" ">
<path fill="none" stroke="#63b8ff" d="M748,-5984947.03C782.63,-5984945.9 837.59,-5984938.07 864.3,-5984902.13 864.3,-5984902.13 864.3,-4488744.5 864.3,-4488744.5 847.92,-4157584.4 790.76,-3743964.96 790.31,-3740666.09"/>
<polygon fill="#63b8ff" stroke="#63b8ff" points="793.81,-3740666.32 790.3,-3740656.32 786.81,-3740666.32 793.81,-3740666.32"/>
</a>
</g>
</g>
<!-- Node12 -->
<g id="Node000012" class="node">
<title>Node12</title>
<g id="a_Node000012"><a xlink:href="sqsh__easy_8h.html" target="_top" xlink:title=" ">
<polygon fill="white" stroke="#666666" points="1126.55,-5236832.57 1028.05,-5236832.57 1028.05,-5236814.07 1126.55,-5236814.07 1126.55,-5236832.57"/>
<text text-anchor="middle" x="1077.3" y="-5236819.07" font-family="Helvetica,sans-Serif" font-size="10.00">sqsh_easy.h</text>
</a>
</g>
</g>
<!-- Node3&#45;&gt;Node12 -->
<g id="edge14_Node000003_Node000012" class="edge">
<title>Node3&#45;&gt;Node12</title>
<g id="a_edge14_Node000003_Node000012"><a xlink:title=" ">
<path fill="none" stroke="#63b8ff" d="M748.21,-5984946.7C817.84,-5984946.67 983.6,-5984942.3 1018.3,-5984902.13 1018.3,-5984902.13 1076.95,-5241289.19 1077.3,-5236844.32"/>
<polygon fill="#63b8ff" stroke="#63b8ff" points="1080.8,-5236844.38 1077.3,-5236834.38 1073.8,-5236844.38 1080.8,-5236844.38"/>
</a>
</g>
</g>
<!-- Node16 -->
<g id="Node000016" class="node">
<title>Node16</title>
<g id="a_Node000016"><a xlink:href="sqsh__error_8h.html" target="_top" xlink:title=" ">
<polygon fill="white" stroke="#666666" points="280.3,-3740666.46 174.3,-3740666.46 174.3,-3740624 280.3,-3740624 280.3,-3740666.46"/>
<text text-anchor="middle" x="227.3" y="-3740652.96" font-family="Helvetica,sans-Serif" font-size="10.00">sqsh_error.h</text>
</a>
</g>
</g>
<!-- Node3&#45;&gt;Node16 -->
<g id="edge19_Node000003_Node000016" class="edge">
<title>Node3&#45;&gt;Node16</title>
<g id="a_edge19_Node000003_Node000016"><a xlink:title=" ">
<path fill="none" stroke="#63b8ff" d="M686.36,-5984939.64C683.3,-5984939.08 680.25,-5984938.57 677.3,-5984938.13 633.49,-5984931.65 310.17,-5984934.84 280.3,-5984902.13 280.3,-5984902.13 227.53,-3750426.15 227.3,-3740678.22"/>
<polygon fill="#63b8ff" stroke="#63b8ff" points="230.8,-3740678.45 227.3,-3740668.45 223.8,-3740678.45 230.8,-3740678.45"/>
</a>
</g>
</g>
<!-- Node17 -->
<g id="Node000017" class="node">
<title>Node17</title>
<g id="a_Node000017"><a xlink:href="sqsh__mapper_8h.html" target="_top" xlink:title=" ">
<polygon fill="white" stroke="#666666" points="156.05,-3740654.48 42.55,-3740654.48 42.55,-3740635.98 156.05,-3740635.98 156.05,-3740654.48"/>
<text text-anchor="middle" x="99.3" y="-3740640.98" font-family="Helvetica,sans-Serif" font-size="10.00">sqsh_mapper.h</text>
</a>
</g>
</g>
<!-- Node3&#45;&gt;Node17 -->
<g id="edge22_Node000003_Node000017" class="edge">
<title>Node3&#45;&gt;Node17</title>
<g id="a_edge22_Node000003_Node000017"><a xlink:title=" ">
<path fill="none" stroke="#63b8ff" d="M686.36,-5984939.62C683.31,-5984939.06 680.25,-5984938.56 677.3,-5984938.13 629.19,-5984931.21 274.23,-5984937.89 241.3,-5984902.13 241.3,-5984902.13 99.79,-3748375.83 99.3,-3740666.21"/>
<polygon fill="#63b8ff" stroke="#63b8ff" points="102.8,-3740666.32 99.3,-3740656.32 95.8,-3740666.32 102.8,-3740666.32"/>
</a>
</g>
</g>
<!-- Node18 -->
<g id="Node000018" class="node">
<title>Node18</title>
<g id="a_Node000018"><a xlink:href="sqsh__posix_8h.html" target="_top" xlink:title=" ">
<polygon fill="white" stroke="#666666" points="1288.3,-5236832.57 1182.3,-5236832.57 1182.3,-5236814.07 1288.3,-5236814.07 1288.3,-5236832.57"/>
<text text-anchor="middle" x="1235.3" y="-5236819.07" font-family="Helvetica,sans-Serif" font-size="10.00">sqsh_posix.h</text>
</a>
</g>
</g>
<!-- Node3&#45;&gt;Node18 -->
<g id="edge25_Node000003_Node000018" class="edge">
<title>Node3&#45;&gt;Node18</title>
<g id="a_edge25_Node000003_Node000018"><a xlink:title=" ">
<path fill="none" stroke="#63b8ff" d="M748.14,-5984945.45C840.38,-5984942.33 1109.46,-5984930.85 1135.3,-5984902.13 1135.3,-5984902.13 1234.71,-5241289.19 1235.3,-5236844.32"/>
<polygon fill="#63b8ff" stroke="#63b8ff" points="1238.8,-5236844.38 1235.3,-5236834.38 1231.8,-5236844.38 1238.8,-5236844.38"/>
</a>
</g>
</g>
<!-- Node19 -->
<g id="Node000019" class="node">
<title>Node19</title>
<g id="a_Node000019"><a xlink:href="sqsh__table_8h.html" target="_top" xlink:title=" ">
<polygon fill="white" stroke="#666666" points="404.3,-3740654.48 298.3,-3740654.48 298.3,-3740635.98 404.3,-3740635.98 404.3,-3740654.48"/>
<text text-anchor="middle" x="351.3" y="-3740640.98" font-family="Helvetica,sans-Serif" font-size="10.00">sqsh_table.h</text>
</a>
</g>
</g>
<!-- Node3&#45;&gt;Node19 -->
<g id="edge29_Node000003_Node000019" class="edge">
<title>Node3&#45;&gt;Node19</title>
<g id="a_edge29_Node000003_Node000019"><a xlink:title=" ">
<path fill="none" stroke="#63b8ff" d="M686.35,-5984939.64C683.3,-5984939.09 680.25,-5984938.57 677.3,-5984938.13 633.93,-5984931.69 313.86,-5984934.52 284.3,-5984902.13 284.3,-5984902.13 284.3,-4488744.5 284.3,-4488744.5 285.42,-4488728.39 288.19,-4488724.62 289.3,-4488708.5 467.96,-4486125 352,-3745095.57 351.31,-3740666.17"/>
<polygon fill="#63b8ff" stroke="#63b8ff" points="354.81,-3740666.26 351.3,-3740656.26 347.81,-3740666.26 354.81,-3740666.26"/>
</a>
</g>
</g>
<!-- Node20 -->
<g id="Node000020" class="node">
<title>Node20</title>
<g id="a_Node000020"><a xlink:href="sqsh__tree_8h.html" target="_top" xlink:title=" ">
<polygon fill="white" stroke="#666666" points="1009.55,-5236836.32 911.05,-5236836.32 911.05,-5236810.32 1009.55,-5236810.32 1009.55,-5236836.32"/>
<text text-anchor="middle" x="960.3" y="-5236822.82" font-family="Helvetica,sans-Serif" font-size="10.00">sqsh_tree.h</text>
</a>
</g>
</g>
<!-- Node3&#45;&gt;Node20 -->
<g id="edge31_Node000003_Node000020" class="edge">
<title>Node3&#45;&gt;Node20</title>
<g id="a_edge31_Node000003_Node000020"><a xlink:title=" ">
<path fill="none" stroke="#63b8ff" d="M748.05,-5984943.34C794.5,-5984938.03 879.09,-5984925.37 897.3,-5984902.13 897.3,-5984902.13 959.89,-5241698.65 960.3,-5236848.16"/>
<polygon fill="#63b8ff" stroke="#63b8ff" points="963.8,-5236848.21 960.3,-5236838.2 956.8,-5236848.2 963.8,-5236848.21"/>
</a>
</g>
</g>
<!-- Node21 -->
<g id="Node000021" class="node">
<title>Node21</title>
<g id="a_Node000021"><a xlink:href="sqsh__utils_8h.html" target="_top" xlink:title=" ">
<polygon fill="white" stroke="#666666" points="399.3,-5236832.57 293.3,-5236832.57 293.3,-5236814.07 399.3,-5236814.07 399.3,-5236832.57"/>
<text text-anchor="middle" x="346.3" y="-5236819.07" font-family="Helvetica,sans-Serif" font-size="10.00">sqsh_utils.h</text>
</a>
</g>
</g>
<!-- Node3&#45;&gt;Node21 -->
<g id="edge34_Node000003_Node000021" class="edge">
<title>Node3&#45;&gt;Node21</title>
<g id="a_edge34_Node000003_Node000021"><a xlink:title=" ">
<path fill="none" stroke="#63b8ff" d="M686.33,-5984939.78C683.29,-5984939.19 680.24,-5984938.64 677.3,-5984938.13 618.94,-5984928.15 452.24,-5984946.74 413.3,-5984902.13 413.3,-5984902.13 346.7,-5241289.19 346.3,-5236844.32"/>
<polygon fill="#63b8ff" stroke="#63b8ff" points="349.8,-5236844.38 346.3,-5236834.38 342.8,-5236844.38 349.8,-5236844.38"/>
</a>
</g>
</g>
<!-- Node22 -->
<g id="Node000022" class="node">
<title>Node22</title>
<g id="a_Node000022"><a xlink:href="sqsh__xattr_8h.html" target="_top" xlink:title=" ">
<polygon fill="white" stroke="#666666" points="701.3,-5236832.57 595.3,-5236832.57 595.3,-5236814.07 701.3,-5236814.07 701.3,-5236832.57"/>
<text text-anchor="middle" x="648.3" y="-5236819.07" font-family="Helvetica,sans-Serif" font-size="10.00">sqsh_xattr.h</text>
</a>
</g>
</g>
<!-- Node3&#45;&gt;Node22 -->
<g id="edge36_Node000003_Node000022" class="edge">
<title>Node3&#45;&gt;Node22</title>
<g id="a_edge36_Node000003_Node000022"><a xlink:title=" ">
<path fill="none" stroke="#63b8ff" d="M715.56,-5984937.95C713.83,-5984929.08 711.29,-5984914.69 710.3,-5984902.13 507.25,-5982320.38 647.46,-5241273.76 648.3,-5236844.26"/>
<polygon fill="#63b8ff" stroke="#63b8ff" points="651.8,-5236844.35 648.3,-5236834.35 644.8,-5236844.35 651.8,-5236844.35"/>
</a>
</g>
</g>
<!-- Node4&#45;&gt;Node5 -->
<g id="edge4_Node000004_Node000005" class="edge">
<title>Node4&#45;&gt;Node5</title>
<g id="a_edge4_Node000004_Node000005"><a xlink:title=" ">
<path fill="none" stroke="#63b8ff" d="M516.14,-4488744.07C517,-4052363.73 519.75,-3491302.75 527.3,-2992581.95 527.3,-2992573.87 527.3,-2992565.79 527.3,-2992557.71"/>
<polygon fill="#63b8ff" stroke="#63b8ff" points="530.8,-2992557.79 527.3,-2992547.79 523.8,-2992557.79 530.8,-2992557.79"/>
</a>
</g>
</g>
<!-- Node9 -->
<g id="Node000009" class="node">
<title>Node9</title>
<g id="a_Node000009"><a xlink:href="sqsh__data_8h.html" target="_top" xlink:title=" ">
<polygon fill="white" stroke="#666666" points="634.55,-3740666.46 536.05,-3740666.46 536.05,-3740624 634.55,-3740624 634.55,-3740666.46"/>
<text text-anchor="middle" x="585.3" y="-3740652.96" font-family="Helvetica,sans-Serif" font-size="10.00">sqsh_data.h</text>
</a>
</g>
</g>
<!-- Node4&#45;&gt;Node9 -->
<g id="edge8_Node000004_Node000009" class="edge">
<title>Node4&#45;&gt;Node9</title>
<g id="a_edge8_Node000004_Node000009"><a xlink:title=" ">
<path fill="none" stroke="#63b8ff" d="M550.8,-4488744.17C567.96,-4116692.77 585.12,-3744638.11 585.3,-3740678.12"/>
<polygon fill="#63b8ff" stroke="#63b8ff" points="588.8,-3740678.2 585.3,-3740668.2 581.8,-3740678.2 588.8,-3740678.2"/>
</a>
</g>
</g>
<!-- Node6 -->
<g id="Node000006" class="node">
<title>Node6</title>
<g id="a_Node000006"><a xlink:title=" ">
<polygon fill="#e0e0e0" stroke="#999999" points="588.05,-1496352.25 504.55,-1496352.25 504.55,0 588.05,0 588.05,-1496352.25"/>
<text text-anchor="middle" x="546.3" y="-1496338.75" font-family="Helvetica,sans-Serif" font-size="10.00">stdbool.h</text>
</a>
</g>
</g>
<!-- Node5&#45;&gt;Node6 -->
<g id="edge5_Node000005_Node000006" class="edge">
<title>Node5&#45;&gt;Node6</title>
<g id="a_edge5_Node000005_Node000006"><a xlink:title=" ">
<path fill="none" stroke="#63b8ff" d="M546.3,-1496387.97C546.3,-1496379.97 546.3,-1496371.97 546.3,-1496363.96"/>
<polygon fill="#63b8ff" stroke="#63b8ff" points="549.8,-1496364.16 546.3,-1496354.16 542.8,-1496364.16 549.8,-1496364.16"/>
</a>
</g>
</g>
<!-- Node7 -->
<g id="Node000007" class="node">
<title>Node7</title>
<g id="a_Node000007"><a xlink:title=" ">
<polygon fill="#e0e0e0" stroke="#999999" points="408.3,-748197.35 332.3,-748197.35 332.3,-748154.9 408.3,-748154.9 408.3,-748197.35"/>
<text text-anchor="middle" x="370.3" y="-748183.85" font-family="Helvetica,sans-Serif" font-size="10.00">stddef.h</text>
</a>
</g>
</g>
<!-- Node5&#45;&gt;Node7 -->
<g id="edge6_Node000005_Node000007" class="edge">
<title>Node5&#45;&gt;Node7</title>
<g id="a_edge6_Node000005_Node000007"><a xlink:title=" ">
<path fill="none" stroke="#63b8ff" d="M489.05,-1757747.16C437.9,-1322833.52 370.88,-753100.54 370.31,-748208.84"/>
<polygon fill="#63b8ff" stroke="#63b8ff" points="373.81,-748209.05 370.31,-748199.05 366.81,-748209.05 373.81,-748209.05"/>
</a>
</g>
</g>
<!-- Node8 -->
<g id="Node000008" class="node">
<title>Node8</title>
<g id="a_Node000008"><a xlink:title=" ">
<polygon fill="#e0e0e0" stroke="#999999" points="987.3,-748185.38 911.3,-748185.38 911.3,-748166.88 987.3,-748166.88 987.3,-748185.38"/>
<text text-anchor="middle" x="949.3" y="-748171.88" font-family="Helvetica,sans-Serif" font-size="10.00">stdint.h</text>
</a>
</g>
</g>
<!-- Node5&#45;&gt;Node8 -->
<g id="edge7_Node000005_Node000008" class="edge">
<title>Node5&#45;&gt;Node8</title>
<g id="a_edge7_Node000005_Node000008"><a xlink:title=" ">
<path fill="none" stroke="#63b8ff" d="M603.55,-2031904.27C714.48,-1620045.22 948,-753006.75 949.3,-748197.22"/>
<polygon fill="#63b8ff" stroke="#63b8ff" points="952.8,-748197.39 949.3,-748187.39 945.8,-748197.39 952.8,-748197.39"/>
</a>
</g>
</g>
<!-- Node9&#45;&gt;Node5 -->
<g id="edge9_Node000009_Node000005" class="edge">
<title>Node9&#45;&gt;Node5</title>
<g id="a_edge9_Node000009_Node000005"><a xlink:title=" ">
<path fill="none" stroke="#63b8ff" d="M585.3,-3740623.77C585.22,-3737448.06 575.51,-3365003.13 565.8,-2992557.69"/>
<polygon fill="#63b8ff" stroke="#63b8ff" points="569.3,-2992557.75 565.8,-2992547.75 562.3,-2992557.75 569.3,-2992557.75"/>
</a>
</g>
</g>
<!-- Node10&#45;&gt;Node11 -->
<g id="edge12_Node000010_Node000011" class="edge">
<title>Node10&#45;&gt;Node11</title>
<g id="a_edge12_Node000010_Node000011"><a xlink:title=" ">
<path fill="none" stroke="#63b8ff" d="M787.3,-5236810.14C787.31,-5231905.48 790.29,-3746916.93 790.3,-3740666.02"/>
<polygon fill="#63b8ff" stroke="#63b8ff" points="793.8,-3740666.17 790.3,-3740656.17 786.8,-3740666.17 793.8,-3740666.17"/>
</a>
</g>
</g>
<!-- Node11&#45;&gt;Node5 -->
<g id="edge13_Node000011_Node000005" class="edge">
<title>Node11&#45;&gt;Node5</title>
<g id="a_edge13_Node000011_Node000005"><a xlink:title=" ">
<path fill="none" stroke="#63b8ff" d="M790.3,-3740635.65C789.99,-3738463.36 730.38,-3324181.5 676.3,-2992581.95 653.45,-2852469.04 626.78,-2697595.28 603.55,-2565281.86"/>
<polygon fill="#63b8ff" stroke="#63b8ff" points="607.05,-2565282.02 603.55,-2565272.02 600.05,-2565282.02 607.05,-2565282.02"/>
</a>
</g>
</g>
<!-- Node12&#45;&gt;Node5 -->
<g id="edge15_Node000012_Node000005" class="edge">
<title>Node12&#45;&gt;Node5</title>
<g id="a_edge15_Node000012_Node000005"><a xlink:title=" ">
<path fill="none" stroke="#63b8ff" d="M1077.3,-5236813.77C1077.07,-5233902.99 1018.3,-4488744.5 1018.3,-4488744.5 999.2,-4488713.78 964.41,-4488739.22 945.3,-4488708.5 945.3,-4488708.5 892.3,-2992581.95 892.3,-2992581.95 833.93,-2758102.48 685.81,-2482283.61 603.56,-2340043.63"/>
<polygon fill="#63b8ff" stroke="#63b8ff" points="607.06,-2340043.74 603.55,-2340033.75 600.06,-2340043.75 607.06,-2340043.74"/>
</a>
</g>
</g>
<!-- Node13 -->
<g id="Node000013" class="node">
<title>Node13</title>
<g id="a_Node000013"><a xlink:title=" ">
<polygon fill="#e0e0e0" stroke="#999999" points="1101.55,-4488708.5 1033.05,-4488708.5 1033.05,-2992581.95 1101.55,-2992581.95 1101.55,-4488708.5"/>
<text text-anchor="middle" x="1067.3" y="-4488695" font-family="Helvetica,sans-Serif" font-size="10.00">fcntl.h</text>
</a>
</g>
</g>
<!-- Node12&#45;&gt;Node13 -->
<g id="edge16_Node000012_Node000013" class="edge">
<title>Node12&#45;&gt;Node13</title>
<g id="a_edge16_Node000012_Node000013"><a xlink:title=" ">
<path fill="none" stroke="#63b8ff" d="M1077.3,-5236813.86C1077.29,-5234767.61 1074.8,-4861741.7 1072.3,-4488720.39"/>
<polygon fill="#63b8ff" stroke="#63b8ff" points="1075.8,-4488720.43 1072.3,-4488710.43 1068.8,-4488720.43 1075.8,-4488720.43"/>
</a>
</g>
</g>
<!-- Node12&#45;&gt;Node14 -->
<g id="edge17_Node000012_Node000014" class="edge">
<title>Node12&#45;&gt;Node14</title>
<g id="a_edge17_Node000012_Node000014"><a xlink:title=" ">
<path fill="none" stroke="#63b8ff" d="M1077.3,-5236813.86C1077.43,-5234447.24 1103.09,-4735845.55 1124.75,-4314942.22"/>
<polygon fill="#63b8ff" stroke="#63b8ff" points="1128.25,-4314942.3 1124.75,-4314932.3 1121.25,-4314942.29 1128.25,-4314942.3"/>
</a>
</g>
</g>
<!-- Node15 -->
<g id="Node000015" class="node">
<title>Node15</title>
<g id="a_Node000015"><a xlink:title=" ">
<polygon fill="#e0e0e0" stroke="#999999" points="1014.8,-3740658.23 953.8,-3740658.23 953.8,-3740632.23 1014.8,-3740632.23 1014.8,-3740658.23"/>
<text text-anchor="middle" x="984.3" y="-3740644.73" font-family="Helvetica,sans-Serif" font-size="10.00">time.h</text>
</a>
</g>
</g>
<!-- Node12&#45;&gt;Node15 -->
<g id="edge18_Node000012_Node000015" class="edge">
<title>Node12&#45;&gt;Node15</title>
<g id="a_edge18_Node000012_Node000015"><a xlink:title=" ">
<path fill="none" stroke="#63b8ff" d="M1077.3,-5236813.74C1077.13,-5234641.3 1044.92,-4820330.9 1024.3,-4488708.5 1003.73,-4157675.88 984.47,-3744243.43 984.3,-3740669.56"/>
<polygon fill="#63b8ff" stroke="#63b8ff" points="987.8,-3740669.81 984.3,-3740659.81 980.8,-3740669.81 987.8,-3740669.81"/>
</a>
</g>
</g>
<!-- Node16&#45;&gt;Node5 -->
<g id="edge20_Node000016_Node000005" class="edge">
<title>Node16&#45;&gt;Node5</title>
<g id="a_edge20_Node000016_Node000005"><a xlink:title=" ">
<path fill="none" stroke="#63b8ff" d="M227.3,-3740623.72C227.23,-3737271.97 218.71,-3323704.62 289.3,-2992581.95 334.93,-2778559.99 428.3,-2530097.38 489.05,-2380207.66"/>
<polygon fill="#63b8ff" stroke="#63b8ff" points="492.55,-2380208.02 489.05,-2380198.02 485.55,-2380208.02 492.55,-2380208.02"/>
</a>
</g>
</g>
<!-- Node17&#45;&gt;Node5 -->
<g id="edge23_Node000017_Node000005" class="edge">
<title>Node17&#45;&gt;Node5</title>
<g id="a_edge23_Node000017_Node000005"><a xlink:title=" ">
<path fill="none" stroke="#63b8ff" d="M99.3,-3740635.69C98.28,-3737727.15 -161.91,-2993141.38 165.3,-2992581.95 181.78,-2992553.78 212.82,-2992574.12 229.3,-2992545.95 1341.9,-2990644.51 795.25,-2453844.56 603.57,-2290851.93"/>
<polygon fill="#63b8ff" stroke="#63b8ff" points="607.07,-2290852.25 603.55,-2290842.25 600.07,-2290852.26 607.07,-2290852.25"/>
</a>
</g>
</g>
<!-- Node17&#45;&gt;Node7 -->
<g id="edge24_Node000017_Node000007" class="edge">
<title>Node17&#45;&gt;Node7</title>
<g id="a_edge24_Node000017_Node000007"><a xlink:title=" ">
<path fill="none" stroke="#63b8ff" d="M99.3,-3740635.65C99.49,-3738463.36 135.53,-3324181.5 165.3,-2992581.95 254.6,-1997989.74 369.63,-755477.6 370.3,-748209.17"/>
<polygon fill="#63b8ff" stroke="#63b8ff" points="373.8,-748209.28 370.3,-748199.28 366.8,-748209.28 373.8,-748209.28"/>
</a>
</g>
</g>
<!-- Node18&#45;&gt;Node5 -->
<g id="edge26_Node000018_Node000005" class="edge">
<title>Node18&#45;&gt;Node5</title>
<g id="a_edge26_Node000018_Node000005"><a xlink:title=" ">
<path fill="none" stroke="#63b8ff" d="M1235.3,-5236813.77C1235.34,-5231909.03 1252.54,-3117117.37 1197.3,-2992581.95 1080.4,-2729016.98 739.77,-2413220.92 603.57,-2293611.97"/>
<polygon fill="#63b8ff" stroke="#63b8ff" points="607.07,-2293612.19 603.55,-2293602.19 600.07,-2293612.19 607.07,-2293612.19"/>
</a>
</g>
</g>
<!-- Node18&#45;&gt;Node8 -->
<g id="edge27_Node000018_Node000008" class="edge">
<title>Node18&#45;&gt;Node8</title>
<g id="a_edge27_Node000018_Node000008"><a xlink:title=" ">
<path fill="none" stroke="#63b8ff" d="M1235.3,-5236813.61C1235.48,-5233017.97 1294.76,-3988500.14 1231.3,-2992581.95 1167.89,-1997381.05 950.31,-753956.69 949.31,-748197.21"/>
<polygon fill="#63b8ff" stroke="#63b8ff" points="952.81,-748197.34 949.3,-748187.34 945.81,-748197.35 952.81,-748197.34"/>
</a>
</g>
</g>
<!-- Node18&#45;&gt;Node14 -->
<g id="edge28_Node000018_Node000014" class="edge">
<title>Node18&#45;&gt;Node14</title>
<g id="a_edge28_Node000018_Node000014"><a xlink:title=" ">
<path fill="none" stroke="#63b8ff" d="M1235.3,-5236813.86C1235.17,-5234447.24 1208.18,-4735845.55 1185.39,-4314942.22"/>
<polygon fill="#63b8ff" stroke="#63b8ff" points="1188.89,-4314942.29 1185.39,-4314932.3 1181.89,-4314942.3 1188.89,-4314942.29"/>
</a>
</g>
</g>
<!-- Node19&#45;&gt;Node5 -->
<g id="edge30_Node000019_Node000005" class="edge">
<title>Node19&#45;&gt;Node5</title>
<g id="a_edge30_Node000019_Node000005"><a xlink:title=" ">
<path fill="none" stroke="#63b8ff" d="M351.3,-3740635.65C351.43,-3738463.36 375.09,-3324181.5 418.3,-2992581.95 437.44,-2845734.06 464.64,-2682672.16 489.05,-2546362.17"/>
<polygon fill="#63b8ff" stroke="#63b8ff" points="492.55,-2546362.37 489.05,-2546352.37 485.55,-2546362.37 492.55,-2546362.37"/>
</a>
</g>
</g>
<!-- Node20&#45;&gt;Node5 -->
<g id="edge32_Node000020_Node000005" class="edge">
<title>Node20&#45;&gt;Node5</title>
<g id="a_edge32_Node000020_Node000005"><a xlink:title=" ">
<path fill="none" stroke="#63b8ff" d="M960.3,-5236810.25C960.09,-5234235.65 926.47,-4820168.54 908.3,-4488708.5 890.08,-4156235.94 922.08,-3325054.51 848.3,-2992581.95 798.06,-2766158.25 676.2,-2501186.86 603.56,-2355169.91"/>
<polygon fill="#63b8ff" stroke="#63b8ff" points="607.06,-2355170.14 603.55,-2355160.14 600.06,-2355170.15 607.06,-2355170.14"/>
</a>
</g>
</g>
<!-- Node20&#45;&gt;Node11 -->
<g id="edge33_Node000020_Node000011" class="edge">
<title>Node20&#45;&gt;Node11</title>
<g id="a_edge33_Node000020_Node000011"><a xlink:title=" ">
<path fill="none" stroke="#63b8ff" d="M960.3,-5236809.95C960.01,-5233310.7 897.3,-4488744.5 897.3,-4488744.5 889.43,-4488724.28 872.17,-4488728.73 864.3,-4488708.5 629.57,-4488105.14 789.34,-3745107.4 790.3,-3740666.22"/>
<polygon fill="#63b8ff" stroke="#63b8ff" points="793.8,-3740666.29 790.3,-3740656.28 786.8,-3740666.28 793.8,-3740666.29"/>
</a>
</g>
</g>
<!-- Node21&#45;&gt;Node5 -->
<g id="edge35_Node000021_Node000005" class="edge">
<title>Node21&#45;&gt;Node5</title>
<g id="a_edge35_Node000021_Node000005"><a xlink:title=" ">
<path fill="none" stroke="#63b8ff" d="M346.3,-5236813.74C346.55,-5234641.3 393.69,-4820330.9 413.3,-4488708.5 452.63,-3823763.37 406.75,-3657527.09 456.3,-2992581.95 464.23,-2886184.06 476.3,-2771274.39 489.05,-2664195.48"/>
<polygon fill="#63b8ff" stroke="#63b8ff" points="492.55,-2664195.66 489.05,-2664185.65 485.55,-2664195.65 492.55,-2664195.66"/>
</a>
</g>
</g>
<!-- Node22&#45;&gt;Node5 -->
<g id="edge37_Node000022_Node000005" class="edge">
<title>Node22&#45;&gt;Node5</title>
<g id="a_edge37_Node000022_Node000005"><a xlink:title=" ">
<path fill="none" stroke="#63b8ff" d="M648.3,-5236813.61C648.49,-5233017.97 708.98,-3988500.14 643.3,-2992581.95 635.18,-2869361.98 619.75,-2734725.93 603.55,-2614058.04"/>
<polygon fill="#63b8ff" stroke="#63b8ff" points="607.05,-2614058.16 603.55,-2614048.16 600.05,-2614058.16 607.05,-2614058.16"/>
</a>
</g>
</g>
<!-- Node22&#45;&gt;Node9 -->
<g id="edge38_Node000022_Node000009" class="edge">
<title>Node22&#45;&gt;Node9</title>
<g id="a_edge38_Node000022_Node000009"><a xlink:title=" ">
<path fill="none" stroke="#63b8ff" d="M648.3,-5236813.86C648.13,-5232726.77 585.64,-3748646.12 585.3,-3740678.43"/>
<polygon fill="#63b8ff" stroke="#63b8ff" points="588.8,-3740678.43 585.3,-3740668.43 581.8,-3740678.43 588.8,-3740678.43"/>
</a>
</g>
</g>
</g>
</svg>
