<?xml version="1.0" encoding="UTF-8" standalone="no"?>
<!DOCTYPE svg PUBLIC "-//W3C//DTD SVG 1.1//EN"
 "http://www.w3.org/Graphics/SVG/1.1/DTD/svg11.dtd">
<!-- Generated by graphviz version 9.0.0 (20230911.1827)
 -->
<!-- Title: examples/read_file_ll.c Pages: 1 -->
<svg width="1283pt" height="351930pt"
 viewBox="0.00 0.00 1283.24 351930.12" xmlns="http://www.w3.org/2000/svg" xmlns:xlink="http://www.w3.org/1999/xlink">
<g id="graph0" class="graph" transform="scale(1 1) rotate(0) translate(4 351926.12)">
<title>examples/read_file_ll.c</title>
<!-- Node1 -->
<g id="Node000001" class="node">
<title>Node1</title>
<g id="a_Node000001"><a xlink:title=" ">
<polygon fill="#999999" stroke="#666666" points="921.88,-351922.12 733.38,-351922.12 733.38,-351903.62 921.88,-351903.62 921.88,-351922.12"/>
<text text-anchor="middle" x="827.63" y="-351908.62" font-family="Helvetica,sans-Serif" font-size="10.00">examples/read_file_ll.c</text>
</a>
</g>
</g>
<!-- Node2 -->
<g id="Node000002" class="node">
<title>Node2</title>
<g id="a_Node000002"><a xlink:href="sqsh_8h.html" target="_top" xlink:title=" ">
<polygon fill="white" stroke="#666666" points="605.13,-351867.62 544.13,-351867.62 544.13,-351849.03 605.13,-351849.03 605.13,-351867.62"/>
<text text-anchor="middle" x="574.63" y="-351854.12" font-family="Helvetica,sans-Serif" font-size="10.00">sqsh.h</text>
</a>
</g>
</g>
<!-- Node1&#45;&gt;Node2 -->
<g id="edge1_Node000001_Node000002" class="edge">
<title>Node1&#45;&gt;Node2</title>
<g id="a_edge1_Node000001_Node000002"><a xlink:title=" ">
<path fill="none" stroke="#63b8ff" d="M785.56,-351903.13C738.8,-351893.42 663.71,-351877.83 616.87,-351868.1"/>
<polygon fill="#63b8ff" stroke="#63b8ff" points="617.59,-351864.67 607.09,-351866.07 616.17,-351871.53 617.59,-351864.67"/>
</a>
</g>
</g>
<!-- Node13 -->
<g id="Node000013" class="node">
<title>Node13</title>
<g id="a_Node000013"><a xlink:title=" ">
<polygon fill="#e0e0e0" stroke="#999999" points="1114.88,-88017.61 1046.38,-88017.61 1046.38,-87999.11 1114.88,-87999.11 1114.88,-88017.61"/>
<text text-anchor="middle" x="1080.63" y="-88004.11" font-family="Helvetica,sans-Serif" font-size="10.00">stdio.h</text>
</a>
</g>
</g>
<!-- Node1&#45;&gt;Node13 -->
<g id="edge38_Node000001_Node000013" class="edge">
<title>Node1&#45;&gt;Node13</title>
<g id="a_edge38_Node000001_Node000013"><a xlink:title=" ">
<path fill="none" stroke="#63b8ff" d="M897.33,-351903.15C952.24,-351892.21 1025.37,-351867.7 1061.63,-351813.03 1061.63,-351813.03 1080.44,-90640.41 1080.62,-88029.07"/>
<polygon fill="#63b8ff" stroke="#63b8ff" points="1084.12,-88029.45 1080.63,-88019.45 1077.12,-88029.45 1084.12,-88029.45"/>
</a>
</g>
</g>
<!-- Node3 -->
<g id="Node000003" class="node">
<title>Node3</title>
<g id="a_Node000003"><a xlink:href="sqsh__archive_8h.html" target="_top" xlink:title=" ">
<polygon fill="white" stroke="#666666" points="503.13,-263880.12 382.13,-263880.12 382.13,-263861.62 503.13,-263861.62 503.13,-263880.12"/>
<text text-anchor="middle" x="442.63" y="-263866.62" font-family="Helvetica,sans-Serif" font-size="10.00">sqsh_archive.h</text>
</a>
</g>
</g>
<!-- Node2&#45;&gt;Node3 -->
<g id="edge2_Node000002_Node000003" class="edge">
<title>Node2&#45;&gt;Node3</title>
<g id="a_edge2_Node000002_Node000003"><a xlink:title=" ">
<path fill="none" stroke="#63b8ff" d="M553.5,-351848.58C539.11,-351841.37 521.17,-351829.61 512.63,-351813.03 374.03,-351543.95 441.42,-265403.15 442.61,-263891.99"/>
<polygon fill="#63b8ff" stroke="#63b8ff" points="446.11,-263892.02 442.62,-263882.01 439.11,-263892.01 446.11,-263892.02"/>
</a>
</g>
</g>
<!-- Node4 -->
<g id="Node000004" class="node">
<title>Node4</title>
<g id="a_Node000004"><a xlink:href="sqsh__common_8h.html" target="_top" xlink:title=" ">
<polygon fill="white" stroke="#666666" points="592.38,-88 478.88,-88 478.88,-62 592.38,-62 592.38,-88"/>
<text text-anchor="middle" x="535.63" y="-74.5" font-family="Helvetica,sans-Serif" font-size="10.00">sqsh_common.h</text>
</a>
</g>
</g>
<!-- Node2&#45;&gt;Node4 -->
<g id="edge9_Node000002_Node000004" class="edge">
<title>Node2&#45;&gt;Node4</title>
<g id="a_edge9_Node000002_Node000004"><a xlink:title=" ">
<path fill="none" stroke="#63b8ff" d="M543.66,-351855.12C492.68,-351850.77 394.61,-351839.14 373.63,-351813.03 373.63,-351813.03 373.63,-175928.72 373.63,-175928.72 390.97,-175899.71 423.28,-175921.73 440.63,-175892.72 518.94,-175761.77 406.43,-260.98 473.63,-124 479.52,-112 490.01,-102.14 500.72,-94.54"/>
<polygon fill="#63b8ff" stroke="#63b8ff" points="502.32,-97.67 508.8,-89.28 498.51,-91.81 502.32,-97.67"/>
</a>
</g>
</g>
<!-- Node9 -->
<g id="Node000009" class="node">
<title>Node9</title>
<g id="a_Node000009"><a xlink:href="sqsh__directory_8h.html" target="_top" xlink:title=" ">
<polygon fill="white" stroke="#666666" points="781.63,-263883.88 645.63,-263883.88 645.63,-263857.88 781.63,-263857.88 781.63,-263883.88"/>
<text text-anchor="middle" x="713.63" y="-263870.38" font-family="Helvetica,sans-Serif" font-size="10.00">sqsh_directory.h</text>
</a>
</g>
</g>
<!-- Node2&#45;&gt;Node9 -->
<g id="edge10_Node000002_Node000009" class="edge">
<title>Node2&#45;&gt;Node9</title>
<g id="a_edge10_Node000002_Node000009"><a xlink:title=" ">
<path fill="none" stroke="#63b8ff" d="M595.75,-351848.58C610.14,-351841.37 628.08,-351829.61 636.63,-351813.03 913.63,-351275.28 717.43,-265525.14 713.68,-263895.4"/>
<polygon fill="#63b8ff" stroke="#63b8ff" points="717.18,-263895.58 713.66,-263885.59 710.18,-263895.59 717.18,-263895.58"/>
</a>
</g>
</g>
<!-- Node10 -->
<g id="Node000010" class="node">
<title>Node10</title>
<g id="a_Node000010"><a xlink:href="sqsh__file_8h.html" target="_top" xlink:title=" ">
<polygon fill="white" stroke="#666666" points="778.88,-175892.72 680.38,-175892.72 680.38,-124 778.88,-124 778.88,-175892.72"/>
<text text-anchor="middle" x="729.63" y="-175879.22" font-family="Helvetica,sans-Serif" font-size="10.00">sqsh_file.h</text>
</a>
</g>
</g>
<!-- Node2&#45;&gt;Node10 -->
<g id="edge20_Node000002_Node000010" class="edge">
<title>Node2&#45;&gt;Node10</title>
<g id="a_edge20_Node000002_Node000010"><a xlink:title=" ">
<path fill="none" stroke="#63b8ff" d="M605.28,-351855.66C659.22,-351852.02 767.58,-351841.29 790.63,-351813.03 790.63,-351813.03 790.63,-175928.72 790.63,-175928.72 787.97,-168281.07 784.02,-160259.23 779.38,-152302.61"/>
<polygon fill="#63b8ff" stroke="#63b8ff" points="782.88,-152302.83 779.38,-152292.83 775.88,-152302.83 782.88,-152302.83"/>
</a>
</g>
</g>
<!-- Node11 -->
<g id="Node000011" class="node">
<title>Node11</title>
<g id="a_Node000011"><a xlink:href="sqsh__easy_8h.html" target="_top" xlink:title=" ">
<polygon fill="white" stroke="#666666" points="1052.88,-351813.03 954.38,-351813.03 954.38,-175928.72 1052.88,-175928.72 1052.88,-351813.03"/>
<text text-anchor="middle" x="1003.63" y="-351799.53" font-family="Helvetica,sans-Serif" font-size="10.00">sqsh_easy.h</text>
</a>
</g>
</g>
<!-- Node2&#45;&gt;Node11 -->
<g id="edge13_Node000002_Node000011" class="edge">
<title>Node2&#45;&gt;Node11</title>
<g id="a_edge13_Node000002_Node000011"><a xlink:title=" ">
<path fill="none" stroke="#63b8ff" d="M605.5,-351855.94C690.33,-351851.8 922.21,-351838.28 944.63,-351813.03 947.52,-351809.77 950.35,-351788.66 953.1,-351750.22"/>
<polygon fill="#63b8ff" stroke="#63b8ff" points="956.58,-351750.65 953.77,-351740.43 949.6,-351750.17 956.58,-351750.65"/>
</a>
</g>
</g>
<!-- Node15 -->
<g id="Node000015" class="node">
<title>Node15</title>
<g id="a_Node000015"><a xlink:href="sqsh__error_8h.html" target="_top" xlink:title=" ">
<polygon fill="white" stroke="#666666" points="226.63,-351721.44 120.63,-351721.44 120.63,-176020.31 226.63,-176020.31 226.63,-351721.44"/>
<text text-anchor="middle" x="173.63" y="-351707.94" font-family="Helvetica,sans-Serif" font-size="10.00">sqsh_error.h</text>
</a>
</g>
</g>
<!-- Node2&#45;&gt;Node15 -->
<g id="edge18_Node000002_Node000015" class="edge">
<title>Node2&#45;&gt;Node15</title>
<g id="a_edge18_Node000002_Node000015"><a xlink:title=" ">
<path fill="none" stroke="#63b8ff" d="M543.68,-351857.98C470.37,-351858.8 289.41,-351856.31 251.63,-351813.03 242.95,-351803.1 234.88,-351629.93 227.38,-351307.67"/>
<polygon fill="#63b8ff" stroke="#63b8ff" points="230.89,-351308.06 227.16,-351298.14 223.89,-351308.22 230.89,-351308.06"/>
</a>
</g>
</g>
<!-- Node16 -->
<g id="Node000016" class="node">
<title>Node16</title>
<g id="a_Node000016"><a xlink:href="sqsh__mapper_8h.html" target="_top" xlink:title=" ">
<polygon fill="white" stroke="#666666" points="145.38,-88017.61 31.88,-88017.61 31.88,-87999.11 145.38,-87999.11 145.38,-88017.61"/>
<text text-anchor="middle" x="88.63" y="-88004.11" font-family="Helvetica,sans-Serif" font-size="10.00">sqsh_mapper.h</text>
</a>
</g>
</g>
<!-- Node2&#45;&gt;Node16 -->
<g id="edge21_Node000002_Node000016" class="edge">
<title>Node2&#45;&gt;Node16</title>
<g id="a_edge21_Node000002_Node000016"><a xlink:title=" ">
<path fill="none" stroke="#63b8ff" d="M543.67,-351856.72C444.7,-351854.47 140.68,-351845 111.63,-351813.03 -41.63,-351644.43 87.32,-90638.72 88.62,-88029.06"/>
<polygon fill="#63b8ff" stroke="#63b8ff" points="92.12,-88029.45 88.62,-88019.45 85.12,-88029.44 92.12,-88029.45"/>
</a>
</g>
</g>
<!-- Node17 -->
<g id="Node000017" class="node">
<title>Node17</title>
<g id="a_Node000017"><a xlink:href="sqsh__posix_8h.html" target="_top" xlink:title=" ">
<polygon fill="white" stroke="#666666" points="1214.63,-263880.12 1108.63,-263880.12 1108.63,-263861.62 1214.63,-263861.62 1214.63,-263880.12"/>
<text text-anchor="middle" x="1161.63" y="-263866.62" font-family="Helvetica,sans-Serif" font-size="10.00">sqsh_posix.h</text>
</a>
</g>
</g>
<!-- Node2&#45;&gt;Node17 -->
<g id="edge24_Node000002_Node000017" class="edge">
<title>Node2&#45;&gt;Node17</title>
<g id="a_edge24_Node000002_Node000017"><a xlink:title=" ">
<path fill="none" stroke="#63b8ff" d="M605.37,-351856.88C707.51,-351855.08 1030.8,-351846.75 1061.63,-351813.03 1470.08,-351366.25 1167.05,-265400.03 1161.7,-263891.95"/>
<polygon fill="#63b8ff" stroke="#63b8ff" points="1165.2,-263891.98 1161.66,-263882 1158.2,-263892.01 1165.2,-263891.98"/>
</a>
</g>
</g>
<!-- Node18 -->
<g id="Node000018" class="node">
<title>Node18</title>
<g id="a_Node000018"><a xlink:href="sqsh__table_8h.html" target="_top" xlink:title=" ">
<polygon fill="white" stroke="#666666" points="307.63,-88029.52 201.63,-88029.52 201.63,-87987.2 307.63,-87987.2 307.63,-88029.52"/>
<text text-anchor="middle" x="254.63" y="-88016.02" font-family="Helvetica,sans-Serif" font-size="10.00">sqsh_table.h</text>
</a>
</g>
</g>
<!-- Node2&#45;&gt;Node18 -->
<g id="edge28_Node000002_Node000018" class="edge">
<title>Node2&#45;&gt;Node18</title>
<g id="a_edge28_Node000002_Node000018"><a xlink:title=" ">
<path fill="none" stroke="#63b8ff" d="M543.82,-351857.31C477.34,-351856.55 323.84,-351850.67 291.63,-351813.03 291.63,-351813.03 255.09,-91344.4 254.63,-88041.05"/>
<polygon fill="#63b8ff" stroke="#63b8ff" points="258.13,-88041.11 254.63,-88031.11 251.13,-88041.12 258.13,-88041.11"/>
</a>
</g>
</g>
<!-- Node19 -->
<g id="Node000019" class="node">
<title>Node19</title>
<g id="a_Node000019"><a xlink:href="sqsh__tree_8h.html" target="_top" xlink:title=" ">
<polygon fill="white" stroke="#666666" points="935.88,-263880.12 837.38,-263880.12 837.38,-263861.62 935.88,-263861.62 935.88,-263880.12"/>
<text text-anchor="middle" x="886.63" y="-263866.62" font-family="Helvetica,sans-Serif" font-size="10.00">sqsh_tree.h</text>
</a>
</g>
</g>
<!-- Node2&#45;&gt;Node19 -->
<g id="edge30_Node000002_Node000019" class="edge">
<title>Node2&#45;&gt;Node19</title>
<g id="a_edge30_Node000002_Node000019"><a xlink:title=" ">
<path fill="none" stroke="#63b8ff" d="M605.62,-351856.57C666.04,-351854.37 796.12,-351845.84 823.63,-351813.03 1018.09,-351581.09 888.94,-265403.8 886.66,-263892"/>
<polygon fill="#63b8ff" stroke="#63b8ff" points="890.16,-263892.01 886.64,-263882.02 883.16,-263892.02 890.16,-263892.01"/>
</a>
</g>
</g>
<!-- Node20 -->
<g id="Node000020" class="node">
<title>Node20</title>
<g id="a_Node000020"><a xlink:href="sqsh__utils_8h.html" target="_top" xlink:title=" ">
<polygon fill="white" stroke="#666666" points="431.63,-88017.61 325.63,-88017.61 325.63,-87999.11 431.63,-87999.11 431.63,-88017.61"/>
<text text-anchor="middle" x="378.63" y="-88004.11" font-family="Helvetica,sans-Serif" font-size="10.00">sqsh_utils.h</text>
</a>
</g>
</g>
<!-- Node2&#45;&gt;Node20 -->
<g id="edge33_Node000002_Node000020" class="edge">
<title>Node2&#45;&gt;Node20</title>
<g id="a_edge33_Node000002_Node000020"><a xlink:title=" ">
<path fill="none" stroke="#63b8ff" d="M544.03,-351856.22C486.41,-351853.44 365.26,-351843.95 339.63,-351813.03 242.18,-351695.5 339.59,-176081.4 339.63,-175928.72 348.19,-137310.15 377.92,-89149.78 378.61,-88029.28"/>
<polygon fill="#63b8ff" stroke="#63b8ff" points="382.11,-88029.51 378.62,-88019.51 375.11,-88029.51 382.11,-88029.51"/>
</a>
</g>
</g>
<!-- Node21 -->
<g id="Node000021" class="node">
<title>Node21</title>
<g id="a_Node000021"><a xlink:href="sqsh__xattr_8h.html" target="_top" xlink:title=" ">
<polygon fill="white" stroke="#666666" points="627.63,-263880.12 521.63,-263880.12 521.63,-263861.62 627.63,-263861.62 627.63,-263880.12"/>
<text text-anchor="middle" x="574.63" y="-263866.62" font-family="Helvetica,sans-Serif" font-size="10.00">sqsh_xattr.h</text>
</a>
</g>
</g>
<!-- Node2&#45;&gt;Node21 -->
<g id="edge35_Node000002_Node000021" class="edge">
<title>Node2&#45;&gt;Node21</title>
<g id="a_edge35_Node000002_Node000021"><a xlink:title=" ">
<path fill="none" stroke="#63b8ff" d="M574.63,-351848.67C574.63,-350859.38 574.63,-265391.14 574.63,-263891.83"/>
<polygon fill="#63b8ff" stroke="#63b8ff" points="578.13,-263891.95 574.63,-263881.95 571.13,-263891.95 578.13,-263891.95"/>
</a>
</g>
</g>
<!-- Node3&#45;&gt;Node4 -->
<g id="edge3_Node000003_Node000004" class="edge">
<title>Node3&#45;&gt;Node4</title>
<g id="a_edge3_Node000003_Node000004"><a xlink:title=" ">
<path fill="none" stroke="#63b8ff" d="M442.63,-263861.23C442.92,-263118.7 462.04,-214692.97 473.63,-175892.72 473.67,-175740.14 488.02,-273.87 516.63,-124 518.25,-115.48 521.36,-106.55 524.6,-98.73"/>
<polygon fill="#63b8ff" stroke="#63b8ff" points="527.79,-100.18 528.67,-89.63 521.39,-97.33 527.79,-100.18"/>
</a>
</g>
</g>
<!-- Node8 -->
<g id="Node000008" class="node">
<title>Node8</title>
<g id="a_Node000008"><a xlink:href="sqsh__data_8h.html" target="_top" xlink:title=" ">
<polygon fill="white" stroke="#666666" points="623.88,-88029.52 525.38,-88029.52 525.38,-87987.2 623.88,-87987.2 623.88,-88029.52"/>
<text text-anchor="middle" x="574.63" y="-88016.02" font-family="Helvetica,sans-Serif" font-size="10.00">sqsh_data.h</text>
</a>
</g>
</g>
<!-- Node3&#45;&gt;Node8 -->
<g id="edge7_Node000003_Node000008" class="edge">
<title>Node3&#45;&gt;Node8</title>
<g id="a_edge7_Node000003_Node000008"><a xlink:title=" ">
<path fill="none" stroke="#63b8ff" d="M442.63,-263861.23C443.24,-263118.7 482.5,-214692.97 511.63,-175892.72 540.51,-137411.37 573.63,-89452.04 574.6,-88041.24"/>
<polygon fill="#63b8ff" stroke="#63b8ff" points="578.1,-88041.31 574.61,-88031.31 571.1,-88041.31 578.1,-88041.31"/>
</a>
</g>
</g>
<!-- Node5 -->
<g id="Node000005" class="node">
<title>Node5</title>
<g id="a_Node000005"><a xlink:title=" ">
<polygon fill="#e0e0e0" stroke="#999999" points="577.38,-26 493.88,-26 493.88,0 577.38,0 577.38,-26"/>
<text text-anchor="middle" x="535.63" y="-12.5" font-family="Helvetica,sans-Serif" font-size="10.00">stdbool.h</text>
</a>
</g>
</g>
<!-- Node4&#45;&gt;Node5 -->
<g id="edge4_Node000004_Node000005" class="edge">
<title>Node4&#45;&gt;Node5</title>
<g id="a_edge4_Node000004_Node000005"><a xlink:title=" ">
<path fill="none" stroke="#63b8ff" d="M535.63,-61.57C535.63,-54.73 535.63,-46.01 535.63,-37.91"/>
<polygon fill="#63b8ff" stroke="#63b8ff" points="539.13,-37.93 535.63,-27.93 532.13,-37.93 539.13,-37.93"/>
</a>
</g>
</g>
<!-- Node6 -->
<g id="Node000006" class="node">
<title>Node6</title>
<g id="a_Node000006"><a xlink:title=" ">
<polygon fill="#e0e0e0" stroke="#999999" points="397.63,-22.25 321.63,-22.25 321.63,-3.75 397.63,-3.75 397.63,-22.25"/>
<text text-anchor="middle" x="359.63" y="-8.75" font-family="Helvetica,sans-Serif" font-size="10.00">stddef.h</text>
</a>
</g>
</g>
<!-- Node4&#45;&gt;Node6 -->
<g id="edge5_Node000004_Node000006" class="edge">
<title>Node4&#45;&gt;Node6</title>
<g id="a_edge5_Node000004_Node000006"><a xlink:title=" ">
<path fill="none" stroke="#63b8ff" d="M499.16,-61.57C468.85,-51.24 425.95,-36.61 395.74,-26.31"/>
<polygon fill="#63b8ff" stroke="#63b8ff" points="397.25,-23.13 386.66,-23.22 395,-29.76 397.25,-23.13"/>
</a>
</g>
</g>
<!-- Node7 -->
<g id="Node000007" class="node">
<title>Node7</title>
<g id="a_Node000007"><a xlink:title=" ">
<polygon fill="#e0e0e0" stroke="#999999" points="945.63,-22.25 869.63,-22.25 869.63,-3.75 945.63,-3.75 945.63,-22.25"/>
<text text-anchor="middle" x="907.63" y="-8.75" font-family="Helvetica,sans-Serif" font-size="10.00">stdint.h</text>
</a>
</g>
</g>
<!-- Node4&#45;&gt;Node7 -->
<g id="edge6_Node000004_Node000007" class="edge">
<title>Node4&#45;&gt;Node7</title>
<g id="a_edge6_Node000004_Node000007"><a xlink:title=" ">
<path fill="none" stroke="#63b8ff" d="M592.53,-64.82C665.12,-53.11 789.47,-33.06 858.25,-21.96"/>
<polygon fill="#63b8ff" stroke="#63b8ff" points="858.39,-25.49 867.71,-20.44 857.28,-18.58 858.39,-25.49"/>
</a>
</g>
</g>
<!-- Node8&#45;&gt;Node4 -->
<g id="edge8_Node000008_Node000004" class="edge">
<title>Node8&#45;&gt;Node4</title>
<g id="a_edge8_Node000008_Node000004"><a xlink:title=" ">
<path fill="none" stroke="#63b8ff" d="M574.62,-87986.82C573.95,-86472.56 536.36,-1730.97 535.64,-99.85"/>
<polygon fill="#63b8ff" stroke="#63b8ff" points="539.14,-100 535.63,-90 532.14,-100 539.14,-100"/>
</a>
</g>
</g>
<!-- Node9&#45;&gt;Node10 -->
<g id="edge11_Node000009_Node000010" class="edge">
<title>Node9&#45;&gt;Node10</title>
<g id="a_edge11_Node000009_Node000010"><a xlink:title=" ">
<path fill="none" stroke="#63b8ff" d="M713.63,-263857.65C713.7,-263021.69 717.67,-219457.32 721.63,-175904.45"/>
<polygon fill="#63b8ff" stroke="#63b8ff" points="725.13,-175904.5 721.63,-175894.5 718.13,-175904.5 725.13,-175904.5"/>
</a>
</g>
</g>
<!-- Node10&#45;&gt;Node4 -->
<g id="edge12_Node000010_Node000004" class="edge">
<title>Node10&#45;&gt;Node4</title>
<g id="a_edge12_Node000010_Node000004"><a xlink:title=" ">
<path fill="none" stroke="#63b8ff" d="M679.88,-354.8C675.35,-209.43 670.61,-131.14 665.63,-124 651.37,-103.56 627.36,-91.8 603.83,-85.04"/>
<polygon fill="#63b8ff" stroke="#63b8ff" points="604.75,-81.67 594.2,-82.57 603.01,-88.45 604.75,-81.67"/>
</a>
</g>
</g>
<!-- Node11&#45;&gt;Node4 -->
<g id="edge14_Node000011_Node000004" class="edge">
<title>Node11&#45;&gt;Node4</title>
<g id="a_edge14_Node000011_Node000004"><a xlink:title=" ">
<path fill="none" stroke="#63b8ff" d="M953.88,-176044.98C950.89,-175973.04 947.81,-175933.84 944.63,-175928.72 925.51,-175898.01 890.73,-175923.44 871.63,-175892.72 791.04,-175763.16 924.33,-240.35 825.63,-124 797.8,-91.19 680.84,-80.78 604.23,-77.49"/>
<polygon fill="#63b8ff" stroke="#63b8ff" points="604.41,-74 594.28,-77.1 604.13,-80.99 604.41,-74"/>
</a>
</g>
</g>
<!-- Node12 -->
<g id="Node000012" class="node">
<title>Node12</title>
<g id="a_Node000012"><a xlink:title=" ">
<polygon fill="#e0e0e0" stroke="#999999" points="1027.88,-88017.61 959.38,-88017.61 959.38,-87999.11 1027.88,-87999.11 1027.88,-88017.61"/>
<text text-anchor="middle" x="993.63" y="-88004.11" font-family="Helvetica,sans-Serif" font-size="10.00">fcntl.h</text>
</a>
</g>
</g>
<!-- Node11&#45;&gt;Node12 -->
<g id="edge15_Node000011_Node000012" class="edge">
<title>Node11&#45;&gt;Node12</title>
<g id="a_edge15_Node000011_Node000012"><a xlink:title=" ">
<path fill="none" stroke="#63b8ff" d="M998.63,-175928.3C996.16,-132507.43 993.69,-89090.25 993.63,-88029.21"/>
<polygon fill="#63b8ff" stroke="#63b8ff" points="997.13,-88029.41 993.63,-88019.41 990.13,-88029.41 997.13,-88029.41"/>
</a>
</g>
</g>
<!-- Node11&#45;&gt;Node13 -->
<g id="edge16_Node000011_Node000013" class="edge">
<title>Node11&#45;&gt;Node13</title>
<g id="a_edge16_Node000011_Node000013"><a xlink:title=" ">
<path fill="none" stroke="#63b8ff" d="M1042.13,-175928.3C1061.14,-132507.43 1080.15,-89090.25 1080.62,-88029.21"/>
<polygon fill="#63b8ff" stroke="#63b8ff" points="1084.12,-88029.41 1080.62,-88019.41 1077.12,-88029.41 1084.12,-88029.41"/>
</a>
</g>
</g>
<!-- Node14 -->
<g id="Node000014" class="node">
<title>Node14</title>
<g id="a_Node000014"><a xlink:title=" ">
<polygon fill="#e0e0e0" stroke="#999999" points="941.13,-88017.61 880.13,-88017.61 880.13,-87999.11 941.13,-87999.11 941.13,-88017.61"/>
<text text-anchor="middle" x="910.63" y="-88004.11" font-family="Helvetica,sans-Serif" font-size="10.00">time.h</text>
</a>
</g>
</g>
<!-- Node11&#45;&gt;Node14 -->
<g id="edge17_Node000011_Node000014" class="edge">
<title>Node11&#45;&gt;Node14</title>
<g id="a_edge17_Node000011_Node000014"><a xlink:title=" ">
<path fill="none" stroke="#63b8ff" d="M953.88,-181946.7C952.77,-179908.45 951.68,-177887.86 950.63,-175892.72 930.21,-137289.97 911.08,-89149.31 910.63,-88029.27"/>
<polygon fill="#63b8ff" stroke="#63b8ff" points="914.13,-88029.51 910.63,-88019.51 907.13,-88029.51 914.13,-88029.51"/>
</a>
</g>
</g>
<!-- Node15&#45;&gt;Node4 -->
<g id="edge19_Node000015_Node000004" class="edge">
<title>Node15&#45;&gt;Node4</title>
<g id="a_edge19_Node000015_Node000004"><a xlink:title=" ">
<path fill="none" stroke="#63b8ff" d="M179.95,-176019.83C185.48,-99299.66 192.63,-124 192.63,-124 227.46,-83.96 377.32,-76.32 467.03,-75.43"/>
<polygon fill="#63b8ff" stroke="#63b8ff" points="466.98,-78.93 476.95,-75.36 466.93,-71.93 466.98,-78.93"/>
</a>
</g>
</g>
<!-- Node16&#45;&gt;Node4 -->
<g id="edge22_Node000016_Node000004" class="edge">
<title>Node16&#45;&gt;Node4</title>
<g id="a_edge22_Node000016_Node000004"><a xlink:title=" ">
<path fill="none" stroke="#63b8ff" d="M88.61,-87998.74C87.14,-87004.44 -40.96,-351.63 159.63,-124 179.6,-101.34 364.35,-86.49 467.24,-79.91"/>
<polygon fill="#63b8ff" stroke="#63b8ff" points="467.18,-83.42 476.94,-79.3 466.74,-76.43 467.18,-83.42"/>
</a>
</g>
</g>
<!-- Node16&#45;&gt;Node6 -->
<g id="edge23_Node000016_Node000006" class="edge">
<title>Node16&#45;&gt;Node6</title>
<g id="a_edge23_Node000016_Node000006"><a xlink:title=" ">
<path fill="none" stroke="#63b8ff" d="M88.6,-87998.77C85.89,-87007.82 -149.42,-646.2 159.63,-124 192.02,-69.27 262.41,-39.93 310.42,-25.65"/>
<polygon fill="#63b8ff" stroke="#63b8ff" points="311.08,-29.1 319.74,-23 309.17,-22.37 311.08,-29.1"/>
</a>
</g>
</g>
<!-- Node17&#45;&gt;Node4 -->
<g id="edge25_Node000017_Node000004" class="edge">
<title>Node17&#45;&gt;Node4</title>
<g id="a_edge25_Node000017_Node000004"><a xlink:title=" ">
<path fill="none" stroke="#63b8ff" d="M1161.63,-263861.3C1161.38,-262134.18 1123.63,-124 1123.63,-124 1089.02,-86.45 751.49,-78.28 604.01,-76.5"/>
<polygon fill="#63b8ff" stroke="#63b8ff" points="604.43,-73 594.39,-76.39 604.35,-80 604.43,-73"/>
</a>
</g>
</g>
<!-- Node17&#45;&gt;Node7 -->
<g id="edge26_Node000017_Node000007" class="edge">
<title>Node17&#45;&gt;Node7</title>
<g id="a_edge26_Node000017_Node000007"><a xlink:title=" ">
<path fill="none" stroke="#63b8ff" d="M1161.63,-263861.31C1163.18,-262136.71 1396.71,-507.71 1149.63,-124 1107.23,-58.16 1014.71,-31.27 957.15,-20.63"/>
<polygon fill="#63b8ff" stroke="#63b8ff" points="958.07,-17.24 947.61,-18.97 956.87,-24.13 958.07,-17.24"/>
</a>
</g>
</g>
<!-- Node17&#45;&gt;Node13 -->
<g id="edge27_Node000017_Node000013" class="edge">
<title>Node17&#45;&gt;Node13</title>
<g id="a_edge27_Node000017_Node000013"><a xlink:title=" ">
<path fill="none" stroke="#63b8ff" d="M1161.62,-263861.34C1160.98,-262464.62 1081.62,-90171.69 1080.64,-88029.5"/>
<polygon fill="#63b8ff" stroke="#63b8ff" points="1084.14,-88029.6 1080.63,-88019.6 1077.14,-88029.6 1084.14,-88029.6"/>
</a>
</g>
</g>
<!-- Node18&#45;&gt;Node4 -->
<g id="edge29_Node000018_Node000004" class="edge">
<title>Node18&#45;&gt;Node4</title>
<g id="a_edge29_Node000018_Node000004"><a xlink:title=" ">
<path fill="none" stroke="#63b8ff" d="M254.6,-87986.89C252.36,-86462.86 126.95,-359.58 316.63,-124 335.36,-100.73 410.38,-88.11 467.44,-81.73"/>
<polygon fill="#63b8ff" stroke="#63b8ff" points="467.52,-85.24 477.09,-80.7 466.77,-78.28 467.52,-85.24"/>
</a>
</g>
</g>
<!-- Node19&#45;&gt;Node4 -->
<g id="edge31_Node000019_Node000004" class="edge">
<title>Node19&#45;&gt;Node4</title>
<g id="a_edge31_Node000019_Node000004"><a xlink:title=" ">
<path fill="none" stroke="#63b8ff" d="M886.62,-263861.23C886.11,-263118.7 853.06,-214692.98 836.63,-175892.72 836.63,-175892.72 787.63,-124 787.63,-124 764.71,-96.31 670.51,-84.46 604.03,-79.48"/>
<polygon fill="#63b8ff" stroke="#63b8ff" points="604.52,-76 594.29,-78.79 604.02,-82.98 604.52,-76"/>
</a>
</g>
</g>
<!-- Node19&#45;&gt;Node10 -->
<g id="edge32_Node000019_Node000010" class="edge">
<title>Node19&#45;&gt;Node10</title>
<g id="a_edge32_Node000019_Node000010"><a xlink:title=" ">
<path fill="none" stroke="#63b8ff" d="M886.64,-263861.28C888.11,-262870.29 1015.85,-176504.69 823.63,-175928.72 817.3,-175909.75 802.96,-175911.69 796.63,-175892.72 790.69,-175874.94 785.06,-175775.35 779.71,-175598.99"/>
<polygon fill="#63b8ff" stroke="#63b8ff" points="783.21,-175598.94 779.42,-175589.05 776.22,-175599.15 783.21,-175598.94"/>
</a>
</g>
</g>
<!-- Node20&#45;&gt;Node4 -->
<g id="edge34_Node000020_Node000004" class="edge">
<title>Node20&#45;&gt;Node4</title>
<g id="a_edge34_Node000020_Node000004"><a xlink:title=" ">
<path fill="none" stroke="#63b8ff" d="M378.62,-87998.74C377.6,-87004.81 289.43,-384.1 445.63,-124 453.84,-110.32 467.43,-100.32 481.58,-93.11"/>
<polygon fill="#63b8ff" stroke="#63b8ff" points="482.94,-96.34 490.55,-88.97 480,-89.98 482.94,-96.34"/>
</a>
</g>
</g>
<!-- Node21&#45;&gt;Node4 -->
<g id="edge36_Node000021_Node000004" class="edge">
<title>Node21&#45;&gt;Node4</title>
<g id="a_edge36_Node000021_Node000004"><a xlink:title=" ">
<path fill="none" stroke="#63b8ff" d="M574.63,-263861.23C575.32,-263118.7 619.84,-214692.98 632.63,-175892.72 632.68,-175740.14 713.11,-253.62 632.63,-124 624.01,-110.12 610.06,-100.13 595.39,-93"/>
<polygon fill="#63b8ff" stroke="#63b8ff" points="597.12,-89.93 586.56,-89.11 594.3,-96.34 597.12,-89.93"/>
</a>
</g>
</g>
<!-- Node21&#45;&gt;Node8 -->
<g id="edge37_Node000021_Node000008" class="edge">
<title>Node21&#45;&gt;Node8</title>
<g id="a_edge37_Node000021_Node000008"><a xlink:title=" ">
<path fill="none" stroke="#63b8ff" d="M574.63,-263861.34C574.63,-262466.85 574.63,-90721.2 574.63,-88041.06"/>
<polygon fill="#63b8ff" stroke="#63b8ff" points="578.13,-88041.47 574.63,-88031.47 571.13,-88041.47 578.13,-88041.47"/>
</a>
</g>
</g>
</g>
</svg>
