<?xml version="1.0" encoding="UTF-8" standalone="no"?>
<!DOCTYPE svg PUBLIC "-//W3C//DTD SVG 1.1//EN"
 "http://www.w3.org/Graphics/SVG/1.1/DTD/svg11.dtd">
<!-- Generated by graphviz version 8.0.5 (20230430.1635)
 -->
<!-- Title: examples/read_file_ll.c Pages: 1 -->
<svg width="1285pt" height="5992691pt"
 viewBox="0.00 0.00 1285.15 5992691.05" xmlns="http://www.w3.org/2000/svg" xmlns:xlink="http://www.w3.org/1999/xlink">
<g id="graph0" class="graph" transform="scale(1 1) rotate(0) translate(4 5992687.05)">
<title>examples/read_file_ll.c</title>
<!-- Node1 -->
<g id="node1" class="node">
<title>Node1</title>
<g id="a_node1"><a xlink:title=" ">
<polygon fill="#999999" stroke="#666666" points="783.61,-5992683.05 595.11,-5992683.05 595.11,-5992664.55 783.61,-5992664.55 783.61,-5992683.05"/>
<text text-anchor="middle" x="689.36" y="-5992669.55" font-family="Helvetica,sans-Serif" font-size="10.00">examples/read_file_ll.c</text>
</a>
</g>
</g>
<!-- Node2 -->
<g id="node2" class="node">
<title>Node2</title>
<g id="a_node2"><a xlink:href="sqsh_8h.html" target="_top" xlink:title=" ">
<polygon fill="white" stroke="#666666" points="719.86,-5992628.55 658.86,-5992628.55 658.86,-5992610.05 719.86,-5992610.05 719.86,-5992628.55"/>
<text text-anchor="middle" x="689.36" y="-5992615.05" font-family="Helvetica,sans-Serif" font-size="10.00">sqsh.h</text>
</a>
</g>
</g>
<!-- Node1&#45;&gt;Node2 -->
<g id="edge1" class="edge">
<title>Node1&#45;&gt;Node2</title>
<path fill="none" stroke="#63b8ff" d="M689.36,-5992664.13C689.36,-5992657.48 689.36,-5992648.04 689.36,-5992639.62"/>
<polygon fill="#63b8ff" stroke="#63b8ff" points="692.86,-5992639.8 689.36,-5992629.8 685.86,-5992639.8 692.86,-5992639.8"/>
</g>
<!-- Node13 -->
<g id="node13" class="node">
<title>Node13</title>
<g id="a_node13"><a xlink:title=" ">
<polygon fill="#e0e0e0" stroke="#999999" points="312.61,-4319633.36 244.11,-4319633.36 244.11,-3171063.2 312.61,-3171063.2 312.61,-4319633.36"/>
<text text-anchor="middle" x="278.36" y="-4319619.86" font-family="Helvetica,sans-Serif" font-size="10.00">stdio.h</text>
</a>
</g>
</g>
<!-- Node1&#45;&gt;Node13 -->
<g id="edge33" class="edge">
<title>Node1&#45;&gt;Node13</title>
<path fill="none" stroke="#63b8ff" d="M594.65,-5992665.08C478.75,-5992653.44 292.63,-5992626.89 250.36,-5992574.05 250.36,-5992574.05 250.36,-4494446.48 250.36,-4494446.48 251.41,-4437770.02 252.92,-4378681.49 254.7,-4319644.59"/>
<polygon fill="#63b8ff" stroke="#63b8ff" points="258.2,-4319644.78 254.7,-4319634.78 251.2,-4319644.78 258.2,-4319644.78"/>
</g>
<!-- Node21 -->
<g id="node21" class="node">
<title>Node21</title>
<g id="a_node21"><a xlink:title=" ">
<polygon fill="#e0e0e0" stroke="#999999" points="814.36,-5992628.55 738.36,-5992628.55 738.36,-5992610.05 814.36,-5992610.05 814.36,-5992628.55"/>
<text text-anchor="middle" x="776.36" y="-5992615.05" font-family="Helvetica,sans-Serif" font-size="10.00">stdlib.h</text>
</a>
</g>
</g>
<!-- Node1&#45;&gt;Node21 -->
<g id="edge34" class="edge">
<title>Node1&#45;&gt;Node21</title>
<path fill="none" stroke="#63b8ff" d="M703.72,-5992664.13C717.07,-5992656.07 737.19,-5992643.93 752.88,-5992634.46"/>
<polygon fill="#63b8ff" stroke="#63b8ff" points="754.21,-5992637.14 760.97,-5992628.98 750.6,-5992631.15 754.21,-5992637.14"/>
</g>
<!-- Node3 -->
<g id="node3" class="node">
<title>Node3</title>
<g id="a_node3"><a xlink:href="sqsh__archive_8h.html" target="_top" xlink:title=" ">
<polygon fill="white" stroke="#666666" points="1068.86,-5992554.82 947.86,-5992554.82 947.86,-4494465.71 1068.86,-4494465.71 1068.86,-5992554.82"/>
<text text-anchor="middle" x="1008.36" y="-5992541.32" font-family="Helvetica,sans-Serif" font-size="10.00">sqsh_archive.h</text>
</a>
</g>
</g>
<!-- Node2&#45;&gt;Node3 -->
<g id="edge2" class="edge">
<title>Node2&#45;&gt;Node3</title>
<path fill="none" stroke="#63b8ff" d="M720.34,-5992611.8C723.39,-5992611.19 726.43,-5992610.6 729.36,-5992610.05 775.66,-5992601.29 907.99,-5992610.09 938.36,-5992574.05 938.36,-5992574.05 941.88,-5954825.48 947.35,-5896276.48"/>
<polygon fill="#63b8ff" stroke="#63b8ff" points="950.85,-5896276.75 947.36,-5896266.75 943.85,-5896276.75 950.85,-5896276.75"/>
</g>
<!-- Node4 -->
<g id="node4" class="node">
<title>Node4</title>
<g id="a_node4"><a xlink:href="sqsh__common_8h.html" target="_top" xlink:title=" ">
<polygon fill="white" stroke="#666666" points="871.11,-2996250.07 757.61,-2996250.07 757.61,-1498160.89 871.11,-1498160.89 871.11,-2996250.07"/>
<text text-anchor="middle" x="814.36" y="-2996236.57" font-family="Helvetica,sans-Serif" font-size="10.00">sqsh_common.h</text>
</a>
</g>
</g>
<!-- Node2&#45;&gt;Node4 -->
<g id="edge9" class="edge">
<title>Node2&#45;&gt;Node4</title>
<path fill="none" stroke="#63b8ff" d="M720.3,-5992611.56C723.35,-5992611 726.41,-5992610.48 729.36,-5992610.05 772.51,-5992603.63 1090.95,-5992606.28 1120.36,-5992574.05 1120.36,-5992574.05 1197.36,-4494410.48 1197.36,-4494410.48 1214.47,-3828577.41 1367.57,-3662119.12 1197.36,-2996286.07 1135.72,-2755175.88 962.48,-2470411.57 871.61,-2331684.19"/>
<polygon fill="#63b8ff" stroke="#63b8ff" points="875.11,-2331684.47 871.61,-2331674.47 868.11,-2331684.47 875.11,-2331684.47"/>
</g>
<!-- Node9 -->
<g id="node9" class="node">
<title>Node9</title>
<g id="a_node9"><a xlink:href="sqsh__directory_8h.html" target="_top" xlink:title=" ">
<polygon fill="white" stroke="#666666" points="805.36,-5243523.27 669.36,-5243523.27 669.36,-5243497.27 805.36,-5243497.27 805.36,-5243523.27"/>
<text text-anchor="middle" x="737.36" y="-5243509.77" font-family="Helvetica,sans-Serif" font-size="10.00">sqsh_directory.h</text>
</a>
</g>
</g>
<!-- Node2&#45;&gt;Node9 -->
<g id="edge10" class="edge">
<title>Node2&#45;&gt;Node9</title>
<path fill="none" stroke="#63b8ff" d="M689.36,-5992609.74C689.54,-5989704.29 737.05,-5248282.71 737.35,-5243534.17"/>
<polygon fill="#63b8ff" stroke="#63b8ff" points="740.85,-5243534.61 737.35,-5243524.61 733.85,-5243534.61 740.85,-5243534.61"/>
</g>
<!-- Node10 -->
<g id="node10" class="node">
<title>Node10</title>
<g id="a_node10"><a xlink:href="sqsh__file_8h.html" target="_top" xlink:title=" ">
<polygon fill="white" stroke="#666666" points="734.61,-3745357.53 636.11,-3745357.53 636.11,-3745339.03 734.61,-3745339.03 734.61,-3745357.53"/>
<text text-anchor="middle" x="685.36" y="-3745344.03" font-family="Helvetica,sans-Serif" font-size="10.00">sqsh_file.h</text>
</a>
</g>
</g>
<!-- Node2&#45;&gt;Node10 -->
<g id="edge20" class="edge">
<title>Node2&#45;&gt;Node10</title>
<path fill="none" stroke="#63b8ff" d="M681.41,-5992609.6C674.33,-5992601.21 664.45,-5992587.78 660.36,-5992574.05 660.36,-5992574.05 660.36,-4494446.48 660.36,-4494446.48 665.89,-4162834.06 685.2,-3748647.13 685.35,-3745368.86"/>
<polygon fill="#63b8ff" stroke="#63b8ff" points="688.85,-3745368.87 685.36,-3745358.87 681.85,-3745368.87 688.85,-3745368.87"/>
</g>
<!-- Node11 -->
<g id="node11" class="node">
<title>Node11</title>
<g id="a_node11"><a xlink:href="sqsh__easy_8h.html" target="_top" xlink:title=" ">
<polygon fill="white" stroke="#666666" points="203.61,-5243519.52 105.11,-5243519.52 105.11,-5243501.02 203.61,-5243501.02 203.61,-5243519.52"/>
<text text-anchor="middle" x="154.36" y="-5243506.02" font-family="Helvetica,sans-Serif" font-size="10.00">sqsh_easy.h</text>
</a>
</g>
</g>
<!-- Node2&#45;&gt;Node11 -->
<g id="edge13" class="edge">
<title>Node2&#45;&gt;Node11</title>
<path fill="none" stroke="#63b8ff" d="M658.67,-5992617.53C563.46,-5992614.84 277.72,-5992604.3 250.36,-5992574.05 -184.51,-5992093.2 152.37,-5247888.21 154.35,-5243530.48"/>
<polygon fill="#63b8ff" stroke="#63b8ff" points="157.85,-5243530.82 154.35,-5243520.82 150.85,-5243530.82 157.85,-5243530.82"/>
</g>
<!-- Node15 -->
<g id="node15" class="node">
<title>Node15</title>
<g id="a_node15"><a xlink:href="sqsh__error_8h.html" target="_top" xlink:title=" ">
<polygon fill="white" stroke="#666666" points="1064.36,-3745369.5 958.36,-3745369.5 958.36,-3745327.05 1064.36,-3745327.05 1064.36,-3745369.5"/>
<text text-anchor="middle" x="1011.36" y="-3745356" font-family="Helvetica,sans-Serif" font-size="10.00">sqsh_error.h</text>
</a>
</g>
</g>
<!-- Node2&#45;&gt;Node15 -->
<g id="edge18" class="edge">
<title>Node2&#45;&gt;Node15</title>
<path fill="none" stroke="#63b8ff" d="M720.31,-5992611.59C723.36,-5992611.03 726.41,-5992610.5 729.36,-5992610.05 806.41,-5992598.16 1026.13,-5992631.94 1078.36,-5992574.05 1078.36,-5992574.05 1078.36,-4494446.48 1078.36,-4494446.48 1077.24,-4494430.37 1074.47,-4494426.6 1073.36,-4494410.48 894.59,-4491825.47 1010.48,-3750916.85 1011.35,-3745380.46"/>
<polygon fill="#63b8ff" stroke="#63b8ff" points="1014.85,-3745380.68 1011.35,-3745370.68 1007.85,-3745380.68 1014.85,-3745380.68"/>
</g>
<!-- Node16 -->
<g id="node16" class="node">
<title>Node16</title>
<g id="a_node16"><a xlink:href="sqsh__mapper_8h.html" target="_top" xlink:title=" ">
<polygon fill="white" stroke="#666666" points="373.11,-5992574.05 259.61,-5992574.05 259.61,-4494446.48 373.11,-4494446.48 373.11,-5992574.05"/>
<text text-anchor="middle" x="316.36" y="-5992560.55" font-family="Helvetica,sans-Serif" font-size="10.00">sqsh_mapper.h</text>
</a>
</g>
</g>
<!-- Node2&#45;&gt;Node16 -->
<g id="edge21" class="edge">
<title>Node2&#45;&gt;Node16</title>
<path fill="none" stroke="#63b8ff" d="M658.37,-5992618.71C587.68,-5992618.92 417.88,-5992615.05 382.36,-5992574.05 382.36,-5992574.05 378.92,-5953533.06 373.61,-5893277.02"/>
<polygon fill="#63b8ff" stroke="#63b8ff" points="377.11,-5893277.33 373.61,-5893267.33 370.11,-5893277.33 377.11,-5893277.33"/>
</g>
<!-- Node17 -->
<g id="node17" class="node">
<title>Node17</title>
<g id="a_node17"><a xlink:href="sqsh__posix_8h.html" target="_top" xlink:title=" ">
<polygon fill="white" stroke="#666666" points="497.36,-5992572.46 391.36,-5992572.46 391.36,-4494448.07 497.36,-4494448.07 497.36,-5992572.46"/>
<text text-anchor="middle" x="444.36" y="-5992558.96" font-family="Helvetica,sans-Serif" font-size="10.00">sqsh_posix.h</text>
</a>
</g>
</g>
<!-- Node2&#45;&gt;Node17 -->
<g id="edge22" class="edge">
<title>Node2&#45;&gt;Node17</title>
<path fill="none" stroke="#63b8ff" d="M658.48,-5992615.37C611.36,-5992610.2 524.95,-5992597.68 506.36,-5992574.05 506.36,-5992574.05 503,-5952066.2 497.86,-5889890.45"/>
<polygon fill="#63b8ff" stroke="#63b8ff" points="501.36,-5889890.78 497.86,-5889880.78 494.36,-5889890.78 501.36,-5889890.78"/>
</g>
<!-- Node18 -->
<g id="node18" class="node">
<title>Node18</title>
<g id="a_node18"><a xlink:href="sqsh__table_8h.html" target="_top" xlink:title=" ">
<polygon fill="white" stroke="#666666" points="1188.36,-4494410.48 1082.36,-4494410.48 1082.36,-2996286.07 1188.36,-2996286.07 1188.36,-4494410.48"/>
<text text-anchor="middle" x="1135.36" y="-4494396.98" font-family="Helvetica,sans-Serif" font-size="10.00">sqsh_table.h</text>
</a>
</g>
</g>
<!-- Node2&#45;&gt;Node18 -->
<g id="edge25" class="edge">
<title>Node2&#45;&gt;Node18</title>
<path fill="none" stroke="#63b8ff" d="M720.31,-5992611.58C723.36,-5992611.02 726.41,-5992610.5 729.36,-5992610.05 809.49,-5992597.84 1037.94,-5992634.13 1092.36,-5992574.05 1092.36,-5992574.05 1108.52,-5148032.82 1121.02,-4494421.56"/>
<polygon fill="#63b8ff" stroke="#63b8ff" points="1124.52,-4494421.81 1121.02,-4494411.81 1117.52,-4494421.81 1124.52,-4494421.81"/>
</g>
<!-- Node19 -->
<g id="node19" class="node">
<title>Node19</title>
<g id="a_node19"><a xlink:href="sqsh__tree_8h.html" target="_top" xlink:title=" ">
<polygon fill="white" stroke="#666666" points="613.61,-5243523.27 515.11,-5243523.27 515.11,-5243497.27 613.61,-5243497.27 613.61,-5243523.27"/>
<text text-anchor="middle" x="564.36" y="-5243509.77" font-family="Helvetica,sans-Serif" font-size="10.00">sqsh_tree.h</text>
</a>
</g>
</g>
<!-- Node2&#45;&gt;Node19 -->
<g id="edge27" class="edge">
<title>Node2&#45;&gt;Node19</title>
<path fill="none" stroke="#63b8ff" d="M668.23,-5992609.57C653.83,-5992602.36 635.89,-5992590.62 627.36,-5992574.05 627.36,-5992574.05 564.76,-5248301.09 564.36,-5243534.26"/>
<polygon fill="#63b8ff" stroke="#63b8ff" points="567.86,-5243534.65 564.36,-5243524.65 560.86,-5243534.66 567.86,-5243534.65"/>
</g>
<!-- Node20 -->
<g id="node20" class="node">
<title>Node20</title>
<g id="a_node20"><a xlink:href="sqsh__xattr_8h.html" target="_top" xlink:title=" ">
<polygon fill="white" stroke="#666666" points="929.36,-5243519.52 823.36,-5243519.52 823.36,-5243501.02 929.36,-5243501.02 929.36,-5243519.52"/>
<text text-anchor="middle" x="876.36" y="-5243506.02" font-family="Helvetica,sans-Serif" font-size="10.00">sqsh_xattr.h</text>
</a>
</g>
</g>
<!-- Node2&#45;&gt;Node20 -->
<g id="edge30" class="edge">
<title>Node2&#45;&gt;Node20</title>
<path fill="none" stroke="#63b8ff" d="M720.15,-5992611.66C753.45,-5992603.79 803.26,-5992589.74 814.36,-5992574.05 814.36,-5992574.05 875.99,-5247891.03 876.35,-5243530.49"/>
<polygon fill="#63b8ff" stroke="#63b8ff" points="879.85,-5243530.83 876.35,-5243520.83 872.85,-5243530.83 879.85,-5243530.83"/>
</g>
<!-- Node3&#45;&gt;Node4 -->
<g id="edge3" class="edge">
<title>Node3&#45;&gt;Node4</title>
<path fill="none" stroke="#63b8ff" d="M949.36,-4494465.26C949.36,-4494447 949.36,-4494428.74 949.36,-4494410.48 914.69,-3828577.41 962.91,-3662119.14 911.36,-2996286.07 902.14,-2877244.65 887.11,-2747562.02 871.61,-2630067.6"/>
<polygon fill="#63b8ff" stroke="#63b8ff" points="875.11,-2630067.84 871.61,-2630057.85 868.11,-2630067.85 875.11,-2630067.84"/>
</g>
<!-- Node8 -->
<g id="node8" class="node">
<title>Node8</title>
<g id="a_node8"><a xlink:href="sqsh__data_8h.html" target="_top" xlink:title=" ">
<polygon fill="white" stroke="#666666" points="902.61,-3745369.5 804.11,-3745369.5 804.11,-3745327.05 902.61,-3745327.05 902.61,-3745369.5"/>
<text text-anchor="middle" x="853.36" y="-3745356" font-family="Helvetica,sans-Serif" font-size="10.00">sqsh_data.h</text>
</a>
</g>
</g>
<!-- Node3&#45;&gt;Node8 -->
<g id="edge7" class="edge">
<title>Node3&#45;&gt;Node8</title>
<path fill="none" stroke="#63b8ff" d="M947.36,-4495160.03C944.44,-4494697.98 941.44,-4494457.45 938.36,-4494446.48 933.28,-4494428.43 921.43,-4494428.53 916.36,-4494410.48 740.87,-4493786.91 852.51,-3750931.5 853.35,-3745380.54"/>
<polygon fill="#63b8ff" stroke="#63b8ff" points="856.85,-3745380.73 853.35,-3745370.73 849.85,-3745380.73 856.85,-3745380.73"/>
</g>
<!-- Node5 -->
<g id="node5" class="node">
<title>Node5</title>
<g id="a_node5"><a xlink:title=" ">
<polygon fill="#e0e0e0" stroke="#999999" points="758.11,-1498124.89 674.61,-1498124.89 674.61,0 758.11,0 758.11,-1498124.89"/>
<text text-anchor="middle" x="716.36" y="-1498111.39" font-family="Helvetica,sans-Serif" font-size="10.00">stdbool.h</text>
</a>
</g>
</g>
<!-- Node4&#45;&gt;Node5 -->
<g id="edge4" class="edge">
<title>Node4&#45;&gt;Node5</title>
<path fill="none" stroke="#63b8ff" d="M765.36,-1498160.48C763.1,-1463661.64 760.84,-1429162.72 758.61,-1394956.43"/>
<polygon fill="#63b8ff" stroke="#63b8ff" points="762.11,-1394956.47 758.61,-1394946.47 755.11,-1394956.47 762.11,-1394956.47"/>
</g>
<!-- Node6 -->
<g id="node6" class="node">
<title>Node6</title>
<g id="a_node6"><a xlink:title=" ">
<polygon fill="#e0e0e0" stroke="#999999" points="852.36,-749071.7 776.36,-749071.7 776.36,-749053.2 852.36,-749053.2 852.36,-749071.7"/>
<text text-anchor="middle" x="814.36" y="-749058.2" font-family="Helvetica,sans-Serif" font-size="10.00">stddef.h</text>
</a>
</g>
</g>
<!-- Node4&#45;&gt;Node6 -->
<g id="edge5" class="edge">
<title>Node4&#45;&gt;Node6</title>
<path fill="none" stroke="#63b8ff" d="M814.36,-1498160.48C814.36,-1125169.45 814.36,-752169.64 814.36,-749082.74"/>
<polygon fill="#63b8ff" stroke="#63b8ff" points="817.86,-749082.91 814.36,-749072.91 810.86,-749082.91 817.86,-749082.91"/>
</g>
<!-- Node7 -->
<g id="node7" class="node">
<title>Node7</title>
<g id="a_node7"><a xlink:title=" ">
<polygon fill="#e0e0e0" stroke="#999999" points="946.36,-749071.7 870.36,-749071.7 870.36,-749053.2 946.36,-749053.2 946.36,-749071.7"/>
<text text-anchor="middle" x="908.36" y="-749058.2" font-family="Helvetica,sans-Serif" font-size="10.00">stdint.h</text>
</a>
</g>
</g>
<!-- Node4&#45;&gt;Node7 -->
<g id="edge6" class="edge">
<title>Node4&#45;&gt;Node7</title>
<path fill="none" stroke="#63b8ff" d="M861.35,-1498160.48C884.76,-1125169.45 908.16,-752169.64 908.35,-749082.74"/>
<polygon fill="#63b8ff" stroke="#63b8ff" points="911.85,-749082.91 908.35,-749072.91 904.85,-749082.91 911.85,-749082.91"/>
</g>
<!-- Node8&#45;&gt;Node4 -->
<g id="edge8" class="edge">
<title>Node8&#45;&gt;Node4</title>
<path fill="none" stroke="#63b8ff" d="M853.35,-3745326.8C853.27,-3742146.86 843.56,-3369201.51 833.86,-2996261.3"/>
<polygon fill="#63b8ff" stroke="#63b8ff" points="837.36,-2996261.37 833.85,-2996251.37 830.36,-2996261.37 837.36,-2996261.37"/>
</g>
<!-- Node9&#45;&gt;Node10 -->
<g id="edge11" class="edge">
<title>Node9&#45;&gt;Node10</title>
<path fill="none" stroke="#63b8ff" d="M737.36,-5243497.07C737.18,-5238585.76 685.57,-3751537.47 685.36,-3745368.53"/>
<polygon fill="#63b8ff" stroke="#63b8ff" points="688.86,-3745368.72 685.36,-3745358.72 681.86,-3745368.72 688.86,-3745368.72"/>
</g>
<!-- Node10&#45;&gt;Node4 -->
<g id="edge12" class="edge">
<title>Node10&#45;&gt;Node4</title>
<path fill="none" stroke="#63b8ff" d="M685.36,-3745338.81C685.55,-3743135.67 722.72,-3311448.32 757.1,-2912089.79"/>
<polygon fill="#63b8ff" stroke="#63b8ff" points="760.6,-2912089.94 757.11,-2912079.94 753.6,-2912089.94 760.6,-2912089.94"/>
</g>
<!-- Node11&#45;&gt;Node4 -->
<g id="edge14" class="edge">
<title>Node11&#45;&gt;Node4</title>
<path fill="none" stroke="#63b8ff" d="M154.36,-5243500.67C154.51,-5241325.37 183.61,-4826469.49 197.36,-4494410.48 200.8,-4411181.35 202.13,-3079515.2 235.36,-2996286.07 338.85,-2737001.22 632.33,-2427233.05 757.09,-2302883.4"/>
<polygon fill="#63b8ff" stroke="#63b8ff" points="760.6,-2302883.73 757.11,-2302873.72 753.6,-2302883.72 760.6,-2302883.73"/>
</g>
<!-- Node12 -->
<g id="node12" class="node">
<title>Node12</title>
<g id="a_node12"><a xlink:title=" ">
<polygon fill="#e0e0e0" stroke="#999999" points="188.61,-4494327.71 120.11,-4494327.71 120.11,-2996368.85 188.61,-2996368.85 188.61,-4494327.71"/>
<text text-anchor="middle" x="154.36" y="-4494314.21" font-family="Helvetica,sans-Serif" font-size="10.00">fcntl.h</text>
</a>
</g>
</g>
<!-- Node11&#45;&gt;Node12 -->
<g id="edge15" class="edge">
<title>Node11&#45;&gt;Node12</title>
<path fill="none" stroke="#63b8ff" d="M154.36,-5243500.8C154.36,-5241451.69 154.36,-4867880.46 154.36,-4494339.12"/>
<polygon fill="#63b8ff" stroke="#63b8ff" points="157.86,-4494339.17 154.36,-4494329.17 150.86,-4494339.17 157.86,-4494339.17"/>
</g>
<!-- Node11&#45;&gt;Node13 -->
<g id="edge16" class="edge">
<title>Node11&#45;&gt;Node13</title>
<path fill="none" stroke="#63b8ff" d="M154.35,-5243500.73C152.85,-5240596.08 -230.28,-4497003.43 217.36,-4494446.48 220.29,-4494429.73 227.42,-4494427.24 230.36,-4494410.48 593.7,-4492334.93 399.82,-4001982.98 313.11,-3815869.79"/>
<polygon fill="#63b8ff" stroke="#63b8ff" points="316.61,-3815869.88 313.11,-3815859.88 309.61,-3815869.88 316.61,-3815869.88"/>
</g>
<!-- Node14 -->
<g id="node14" class="node">
<title>Node14</title>
<g id="a_node14"><a xlink:title=" ">
<polygon fill="#e0e0e0" stroke="#999999" points="101.86,-3745361.28 40.86,-3745361.28 40.86,-3745335.28 101.86,-3745335.28 101.86,-3745361.28"/>
<text text-anchor="middle" x="71.36" y="-3745347.78" font-family="Helvetica,sans-Serif" font-size="10.00">time.h</text>
</a>
</g>
</g>
<!-- Node11&#45;&gt;Node14 -->
<g id="edge17" class="edge">
<title>Node11&#45;&gt;Node14</title>
<path fill="none" stroke="#63b8ff" d="M154.35,-5243500.67C154.23,-5241325.37 129.75,-4826469.49 111.36,-4494410.48 92.99,-4162925.69 71.54,-3748925.98 71.36,-3745372.32"/>
<polygon fill="#63b8ff" stroke="#63b8ff" points="74.86,-3745372.36 71.36,-3745362.36 67.86,-3745372.36 74.86,-3745372.36"/>
</g>
<!-- Node15&#45;&gt;Node4 -->
<g id="edge19" class="edge">
<title>Node15&#45;&gt;Node4</title>
<path fill="none" stroke="#63b8ff" d="M1011.35,-3745326.75C1011.17,-3741970.52 987.95,-3327850.91 944.36,-2996286.07 924.76,-2847287.81 896.67,-2681618.73 871.61,-2544044.38"/>
<polygon fill="#63b8ff" stroke="#63b8ff" points="875.11,-2544044.75 871.61,-2544034.75 868.11,-2544044.75 875.11,-2544044.75"/>
</g>
<!-- Node17&#45;&gt;Node4 -->
<g id="edge23" class="edge">
<title>Node17&#45;&gt;Node4</title>
<path fill="none" stroke="#63b8ff" d="M415.19,-4494447.68C413.38,-4057485.78 437.13,-3495673.88 539.36,-2996286.07 584.54,-2775561.87 690.69,-2518253.4 757.1,-2369889.88"/>
<polygon fill="#63b8ff" stroke="#63b8ff" points="760.6,-2369890.27 757.11,-2369880.27 753.6,-2369890.27 760.6,-2369890.27"/>
</g>
<!-- Node17&#45;&gt;Node13 -->
<g id="edge24" class="edge">
<title>Node17&#45;&gt;Node13</title>
<path fill="none" stroke="#63b8ff" d="M390.86,-4574509.24C388.1,-4547467.37 385.26,-4520698.17 382.36,-4494446.48 362.92,-4319012.14 335.09,-4120467.07 313.11,-3971878.7"/>
<polygon fill="#63b8ff" stroke="#63b8ff" points="316.61,-3971879.07 313.11,-3971869.07 309.61,-3971879.07 316.61,-3971879.07"/>
</g>
<!-- Node18&#45;&gt;Node4 -->
<g id="edge26" class="edge">
<title>Node18&#45;&gt;Node4</title>
<path fill="none" stroke="#63b8ff" d="M1081.86,-3038283.24C1079.16,-3024163.85 1076.33,-3010152.76 1073.36,-2996286.07 1027.32,-2781436.46 932.84,-2531924.05 871.61,-2381964.76"/>
<polygon fill="#63b8ff" stroke="#63b8ff" points="875.11,-2381965.04 871.61,-2381955.04 868.11,-2381965.04 875.11,-2381965.04"/>
</g>
<!-- Node19&#45;&gt;Node4 -->
<g id="edge28" class="edge">
<title>Node19&#45;&gt;Node4</title>
<path fill="none" stroke="#63b8ff" d="M564.35,-5243497.13C564.08,-5239014.29 488.94,-3993253.61 627.36,-2996286.07 654.13,-2803463.07 712.62,-2582720.27 757.1,-2431081.17"/>
<polygon fill="#63b8ff" stroke="#63b8ff" points="760.6,-2431081.32 757.11,-2431071.32 753.6,-2431081.32 760.6,-2431081.32"/>
</g>
<!-- Node19&#45;&gt;Node10 -->
<g id="edge29" class="edge">
<title>Node19&#45;&gt;Node10</title>
<path fill="none" stroke="#63b8ff" d="M564.36,-5243497.07C564.75,-5238585.76 684.86,-3751537.47 685.35,-3745368.53"/>
<polygon fill="#63b8ff" stroke="#63b8ff" points="688.85,-3745368.72 685.35,-3745358.72 681.85,-3745368.72 688.85,-3745368.72"/>
</g>
<!-- Node20&#45;&gt;Node4 -->
<g id="edge31" class="edge">
<title>Node20&#45;&gt;Node4</title>
<path fill="none" stroke="#63b8ff" d="M876.36,-5243500.71C876.72,-5240588.56 970.41,-4495076.4 814.36,-4494446.48 810,-4494428.92 799.71,-4494428.05 795.36,-4494410.48 795.36,-4494410.48 795.36,-2996286.07 795.36,-2996286.07 795.36,-2996277.8 795.36,-2996269.52 795.36,-2996261.24"/>
<polygon fill="#63b8ff" stroke="#63b8ff" points="798.86,-2996261.36 795.36,-2996251.36 791.86,-2996261.35 798.86,-2996261.36"/>
</g>
<!-- Node20&#45;&gt;Node8 -->
<g id="edge32" class="edge">
<title>Node20&#45;&gt;Node8</title>
<path fill="none" stroke="#63b8ff" d="M876.36,-5243500.8C876.29,-5239408.16 853.48,-3753269.03 853.36,-3745380.79"/>
<polygon fill="#63b8ff" stroke="#63b8ff" points="856.86,-3745381 853.36,-3745371 849.86,-3745381 856.86,-3745381"/>
</g>
</g>
</svg>
