<?xml version="1.0" encoding="UTF-8" standalone="no"?>
<!DOCTYPE svg PUBLIC "-//W3C//DTD SVG 1.1//EN"
 "http://www.w3.org/Graphics/SVG/1.1/DTD/svg11.dtd">
<!-- Generated by graphviz version 8.0.5 (20230430.1635)
 -->
<!-- Title: examples/read_file_ll.c Pages: 1 -->
<svg width="1172pt" height="347pt"
 viewBox="0.00 0.00 1172.16 346.80" xmlns="http://www.w3.org/2000/svg" xmlns:xlink="http://www.w3.org/1999/xlink">
<g id="graph0" class="graph" transform="scale(1 1) rotate(0) translate(4 342.8)">
<title>examples/read_file_ll.c</title>
<!-- Node1 -->
<g id="node1" class="node">
<title>Node1</title>
<g id="a_node1"><a xlink:title=" ">
<polygon fill="#999999" stroke="#666666" points="742.75,-338.8 554.25,-338.8 554.25,-320.3 742.75,-320.3 742.75,-338.8"/>
<text text-anchor="middle" x="648.5" y="-325.3" font-family="Helvetica,sans-Serif" font-size="10.00">examples/read_file_ll.c</text>
</a>
</g>
</g>
<!-- Node2 -->
<g id="node2" class="node">
<title>Node2</title>
<g id="a_node2"><a xlink:href="sqsh_8h.html" target="_top" xlink:title=" ">
<polygon fill="white" stroke="#666666" points="679,-284.3 618,-284.3 618,-265.8 679,-265.8 679,-284.3"/>
<text text-anchor="middle" x="648.5" y="-270.8" font-family="Helvetica,sans-Serif" font-size="10.00">sqsh.h</text>
</a>
</g>
</g>
<!-- Node1&#45;&gt;Node2 -->
<g id="edge1" class="edge">
<title>Node1&#45;&gt;Node2</title>
<path fill="none" stroke="#63b8ff" d="M648.5,-319.88C648.5,-313.23 648.5,-303.8 648.5,-295.38"/>
<polygon fill="#63b8ff" stroke="#63b8ff" points="652,-295.56 648.5,-285.56 645,-295.56 652,-295.56"/>
</g>
<!-- Node13 -->
<g id="node13" class="node">
<title>Node13</title>
<g id="a_node13"><a xlink:title=" ">
<polygon fill="#e0e0e0" stroke="#999999" points="271.75,-139.45 203.25,-139.45 203.25,-120.95 271.75,-120.95 271.75,-139.45"/>
<text text-anchor="middle" x="237.5" y="-125.95" font-family="Helvetica,sans-Serif" font-size="10.00">stdio.h</text>
</a>
</g>
</g>
<!-- Node1&#45;&gt;Node13 -->
<g id="edge33" class="edge">
<title>Node1&#45;&gt;Node13</title>
<path fill="none" stroke="#63b8ff" d="M553.8,-320.83C437.89,-309.19 251.78,-282.64 209.5,-229.8 190.41,-205.94 209.53,-169.73 224.18,-148.47"/>
<polygon fill="#63b8ff" stroke="#63b8ff" points="227.4,-151 230.45,-140.85 221.74,-146.88 227.4,-151"/>
</g>
<!-- Node21 -->
<g id="node21" class="node">
<title>Node21</title>
<g id="a_node21"><a xlink:title=" ">
<polygon fill="#e0e0e0" stroke="#999999" points="773.5,-284.3 697.5,-284.3 697.5,-265.8 773.5,-265.8 773.5,-284.3"/>
<text text-anchor="middle" x="735.5" y="-270.8" font-family="Helvetica,sans-Serif" font-size="10.00">stdlib.h</text>
</a>
</g>
</g>
<!-- Node1&#45;&gt;Node21 -->
<g id="edge34" class="edge">
<title>Node1&#45;&gt;Node21</title>
<path fill="none" stroke="#63b8ff" d="M662.87,-319.88C676.22,-311.83 696.34,-299.69 712.02,-290.22"/>
<polygon fill="#63b8ff" stroke="#63b8ff" points="713.36,-292.9 720.11,-284.74 709.74,-286.91 713.36,-292.9"/>
</g>
<!-- Node3 -->
<g id="node3" class="node">
<title>Node3</title>
<g id="a_node3"><a xlink:href="sqsh__archive_8h.html" target="_top" xlink:title=" ">
<polygon fill="white" stroke="#666666" points="1028,-217.85 907,-217.85 907,-199.35 1028,-199.35 1028,-217.85"/>
<text text-anchor="middle" x="967.5" y="-204.35" font-family="Helvetica,sans-Serif" font-size="10.00">sqsh_archive.h</text>
</a>
</g>
</g>
<!-- Node2&#45;&gt;Node3 -->
<g id="edge2" class="edge">
<title>Node2&#45;&gt;Node3</title>
<path fill="none" stroke="#63b8ff" d="M679.49,-267.56C682.53,-266.95 685.57,-266.36 688.5,-265.8 781.11,-248.28 805.64,-250.9 897.5,-229.8 908.02,-227.39 919.31,-224.34 929.68,-221.34"/>
<polygon fill="#63b8ff" stroke="#63b8ff" points="930.49,-224.46 939.09,-218.27 928.51,-217.75 930.49,-224.46"/>
</g>
<!-- Node4 -->
<g id="node4" class="node">
<title>Node4</title>
<g id="a_node4"><a xlink:href="sqsh__common_8h.html" target="_top" xlink:title=" ">
<polygon fill="white" stroke="#666666" points="830.25,-73 716.75,-73 716.75,-54.5 830.25,-54.5 830.25,-73"/>
<text text-anchor="middle" x="773.5" y="-59.5" font-family="Helvetica,sans-Serif" font-size="10.00">sqsh_common.h</text>
</a>
</g>
</g>
<!-- Node2&#45;&gt;Node4 -->
<g id="edge9" class="edge">
<title>Node2&#45;&gt;Node4</title>
<path fill="none" stroke="#63b8ff" d="M679.45,-267.31C682.5,-266.76 685.55,-266.24 688.5,-265.8 775.47,-252.9 1003.44,-268.26 1082.5,-229.8 1125.59,-208.85 1138.8,-195.93 1156.5,-151.4 1163.46,-133.89 1169.04,-123.07 1156.5,-109 1135.94,-85.92 945.65,-73.11 841.27,-67.76"/>
<polygon fill="#63b8ff" stroke="#63b8ff" points="841.69,-64.23 831.52,-67.22 841.34,-71.22 841.69,-64.23"/>
</g>
<!-- Node9 -->
<g id="node9" class="node">
<title>Node9</title>
<g id="a_node9"><a xlink:href="sqsh__directory_8h.html" target="_top" xlink:title=" ">
<polygon fill="white" stroke="#666666" points="764.5,-217.85 628.5,-217.85 628.5,-199.35 764.5,-199.35 764.5,-217.85"/>
<text text-anchor="middle" x="696.5" y="-204.35" font-family="Helvetica,sans-Serif" font-size="10.00">sqsh_directory.h</text>
</a>
</g>
</g>
<!-- Node2&#45;&gt;Node9 -->
<g id="edge10" class="edge">
<title>Node2&#45;&gt;Node9</title>
<path fill="none" stroke="#63b8ff" d="M654.97,-265.36C662.31,-255.5 674.47,-239.19 683.73,-226.75"/>
<polygon fill="#63b8ff" stroke="#63b8ff" points="686.96,-229.27 690.13,-219.16 681.35,-225.09 686.96,-229.27"/>
</g>
<!-- Node10 -->
<g id="node10" class="node">
<title>Node10</title>
<g id="a_node10"><a xlink:href="sqsh__file_8h.html" target="_top" xlink:title=" ">
<polygon fill="white" stroke="#666666" points="693.75,-143.2 595.25,-143.2 595.25,-117.2 693.75,-117.2 693.75,-143.2"/>
<text text-anchor="middle" x="644.5" y="-129.7" font-family="Helvetica,sans-Serif" font-size="10.00">sqsh_file.h</text>
</a>
</g>
</g>
<!-- Node2&#45;&gt;Node10 -->
<g id="edge20" class="edge">
<title>Node2&#45;&gt;Node10</title>
<path fill="none" stroke="#63b8ff" d="M640.56,-265.36C633.47,-256.96 623.6,-243.53 619.5,-229.8 614.11,-211.75 615.58,-205.84 619.5,-187.4 622,-175.62 627.15,-163.31 632.13,-153.22"/>
<polygon fill="#63b8ff" stroke="#63b8ff" points="635.62,-155.11 637.14,-144.63 629.41,-151.87 635.62,-155.11"/>
</g>
<!-- Node11 -->
<g id="node11" class="node">
<title>Node11</title>
<g id="a_node11"><a xlink:href="sqsh__easy_8h.html" target="_top" xlink:title=" ">
<polygon fill="white" stroke="#666666" points="162.75,-217.85 64.25,-217.85 64.25,-199.35 162.75,-199.35 162.75,-217.85"/>
<text text-anchor="middle" x="113.5" y="-204.35" font-family="Helvetica,sans-Serif" font-size="10.00">sqsh_easy.h</text>
</a>
</g>
</g>
<!-- Node2&#45;&gt;Node11 -->
<g id="edge13" class="edge">
<title>Node2&#45;&gt;Node11</title>
<path fill="none" stroke="#63b8ff" d="M617.75,-272.09C545.96,-267.26 361.84,-253.44 209.5,-229.8 193.5,-227.32 176.15,-223.9 160.65,-220.57"/>
<polygon fill="#63b8ff" stroke="#63b8ff" points="161.77,-217.02 151.26,-218.3 160.28,-223.86 161.77,-217.02"/>
</g>
<!-- Node15 -->
<g id="node15" class="node">
<title>Node15</title>
<g id="a_node15"><a xlink:href="sqsh__error_8h.html" target="_top" xlink:title=" ">
<polygon fill="white" stroke="#666666" points="1023.5,-151.4 917.5,-151.4 917.5,-109 1023.5,-109 1023.5,-151.4"/>
<text text-anchor="middle" x="970.5" y="-137.9" font-family="Helvetica,sans-Serif" font-size="10.00">sqsh_error.h</text>
</a>
</g>
</g>
<!-- Node2&#45;&gt;Node15 -->
<g id="edge18" class="edge">
<title>Node2&#45;&gt;Node15</title>
<path fill="none" stroke="#63b8ff" d="M679.45,-267.35C682.5,-266.79 685.56,-266.26 688.5,-265.8 765.56,-253.91 985.27,-287.69 1037.5,-229.8 1050.12,-215.81 1045.47,-204.48 1037.5,-187.4 1032.29,-176.23 1023.64,-166.49 1014.26,-158.4"/>
<polygon fill="#63b8ff" stroke="#63b8ff" points="1016.9,-155.22 1006.9,-151.71 1012.53,-160.69 1016.9,-155.22"/>
</g>
<!-- Node16 -->
<g id="node16" class="node">
<title>Node16</title>
<g id="a_node16"><a xlink:href="sqsh__mapper_8h.html" target="_top" xlink:title=" ">
<polygon fill="white" stroke="#666666" points="332.25,-217.85 218.75,-217.85 218.75,-199.35 332.25,-199.35 332.25,-217.85"/>
<text text-anchor="middle" x="275.5" y="-204.35" font-family="Helvetica,sans-Serif" font-size="10.00">sqsh_mapper.h</text>
</a>
</g>
</g>
<!-- Node2&#45;&gt;Node16 -->
<g id="edge21" class="edge">
<title>Node2&#45;&gt;Node16</title>
<path fill="none" stroke="#63b8ff" d="M617.71,-271.2C562.09,-265.7 441.35,-252.14 341.5,-229.8 331.45,-227.56 320.71,-224.54 310.88,-221.53"/>
<polygon fill="#63b8ff" stroke="#63b8ff" points="312.23,-217.97 301.64,-218.29 310.12,-224.64 312.23,-217.97"/>
</g>
<!-- Node17 -->
<g id="node17" class="node">
<title>Node17</title>
<g id="a_node17"><a xlink:href="sqsh__posix_8h.html" target="_top" xlink:title=" ">
<polygon fill="white" stroke="#666666" points="456.5,-217.85 350.5,-217.85 350.5,-199.35 456.5,-199.35 456.5,-217.85"/>
<text text-anchor="middle" x="403.5" y="-204.35" font-family="Helvetica,sans-Serif" font-size="10.00">sqsh_posix.h</text>
</a>
</g>
</g>
<!-- Node2&#45;&gt;Node17 -->
<g id="edge22" class="edge">
<title>Node2&#45;&gt;Node17</title>
<path fill="none" stroke="#63b8ff" d="M617.55,-267.34C581.01,-259.24 518.49,-244.82 465.5,-229.8 456.83,-227.35 447.55,-224.46 438.89,-221.66"/>
<polygon fill="#63b8ff" stroke="#63b8ff" points="440.3,-218.11 429.7,-218.31 438.11,-224.76 440.3,-218.11"/>
</g>
<!-- Node18 -->
<g id="node18" class="node">
<title>Node18</title>
<g id="a_node18"><a xlink:href="sqsh__table_8h.html" target="_top" xlink:title=" ">
<polygon fill="white" stroke="#666666" points="1147.5,-139.45 1041.5,-139.45 1041.5,-120.95 1147.5,-120.95 1147.5,-139.45"/>
<text text-anchor="middle" x="1094.5" y="-125.95" font-family="Helvetica,sans-Serif" font-size="10.00">sqsh_table.h</text>
</a>
</g>
</g>
<!-- Node2&#45;&gt;Node18 -->
<g id="edge25" class="edge">
<title>Node2&#45;&gt;Node18</title>
<path fill="none" stroke="#63b8ff" d="M679.45,-267.33C682.5,-266.77 685.56,-266.25 688.5,-265.8 769.3,-253.53 989.03,-278.72 1054.5,-229.8 1079.71,-210.96 1089.08,-173.53 1092.53,-150.59"/>
<polygon fill="#63b8ff" stroke="#63b8ff" points="1096.11,-151.18 1093.87,-140.82 1089.16,-150.31 1096.11,-151.18"/>
</g>
<!-- Node19 -->
<g id="node19" class="node">
<title>Node19</title>
<g id="a_node19"><a xlink:href="sqsh__tree_8h.html" target="_top" xlink:title=" ">
<polygon fill="white" stroke="#666666" points="572.75,-229.8 474.25,-229.8 474.25,-187.4 572.75,-187.4 572.75,-229.8"/>
<text text-anchor="middle" x="523.5" y="-216.3" font-family="Helvetica,sans-Serif" font-size="10.00">sqsh_tree.h</text>
</a>
</g>
</g>
<!-- Node2&#45;&gt;Node19 -->
<g id="edge27" class="edge">
<title>Node2&#45;&gt;Node19</title>
<path fill="none" stroke="#63b8ff" d="M631.64,-265.36C616.63,-257.62 593.88,-245.89 573.12,-235.19"/>
<polygon fill="#63b8ff" stroke="#63b8ff" points="574.94,-231.67 564.45,-230.2 571.73,-237.89 574.94,-231.67"/>
</g>
<!-- Node20 -->
<g id="node20" class="node">
<title>Node20</title>
<g id="a_node20"><a xlink:href="sqsh__xattr_8h.html" target="_top" xlink:title=" ">
<polygon fill="white" stroke="#666666" points="888.5,-221.6 782.5,-221.6 782.5,-195.6 888.5,-195.6 888.5,-221.6"/>
<text text-anchor="middle" x="835.5" y="-208.1" font-family="Helvetica,sans-Serif" font-size="10.00">sqsh_xattr.h</text>
</a>
</g>
</g>
<!-- Node2&#45;&gt;Node20 -->
<g id="edge30" class="edge">
<title>Node2&#45;&gt;Node20</title>
<path fill="none" stroke="#63b8ff" d="M673.72,-265.36C703.21,-255.2 752.62,-238.17 789.1,-225.6"/>
<polygon fill="#63b8ff" stroke="#63b8ff" points="790.17,-228.58 798.49,-222.01 787.89,-221.96 790.17,-228.58"/>
</g>
<!-- Node3&#45;&gt;Node4 -->
<g id="edge3" class="edge">
<title>Node3&#45;&gt;Node4</title>
<path fill="none" stroke="#63b8ff" d="M958.08,-199.06C946.25,-188.23 925.44,-168.87 908.5,-151.4 890.88,-133.24 890.89,-123.99 870.5,-109 852.13,-95.49 828.98,-84.74 809.9,-77.22"/>
<polygon fill="#63b8ff" stroke="#63b8ff" points="811.37,-73.65 800.78,-73.37 808.88,-80.19 811.37,-73.65"/>
</g>
<!-- Node8 -->
<g id="node8" class="node">
<title>Node8</title>
<g id="a_node8"><a xlink:href="sqsh__data_8h.html" target="_top" xlink:title=" ">
<polygon fill="white" stroke="#666666" points="861.75,-139.45 763.25,-139.45 763.25,-120.95 861.75,-120.95 861.75,-139.45"/>
<text text-anchor="middle" x="812.5" y="-125.95" font-family="Helvetica,sans-Serif" font-size="10.00">sqsh_data.h</text>
</a>
</g>
</g>
<!-- Node3&#45;&gt;Node8 -->
<g id="edge7" class="edge">
<title>Node3&#45;&gt;Node8</title>
<path fill="none" stroke="#63b8ff" d="M950.02,-198.99C923.16,-185.75 871.51,-160.29 839.72,-144.62"/>
<polygon fill="#63b8ff" stroke="#63b8ff" points="841.67,-141.18 831.15,-139.9 838.58,-147.46 841.67,-141.18"/>
</g>
<!-- Node5 -->
<g id="node5" class="node">
<title>Node5</title>
<g id="a_node5"><a xlink:title=" ">
<polygon fill="#e0e0e0" stroke="#999999" points="717.25,-18.5 633.75,-18.5 633.75,0 717.25,0 717.25,-18.5"/>
<text text-anchor="middle" x="675.5" y="-5" font-family="Helvetica,sans-Serif" font-size="10.00">stdbool.h</text>
</a>
</g>
</g>
<!-- Node4&#45;&gt;Node5 -->
<g id="edge4" class="edge">
<title>Node4&#45;&gt;Node5</title>
<path fill="none" stroke="#63b8ff" d="M757.32,-54.08C742,-45.87 718.75,-33.42 700.95,-23.89"/>
<polygon fill="#63b8ff" stroke="#63b8ff" points="703.17,-20.57 692.71,-18.93 699.87,-26.74 703.17,-20.57"/>
</g>
<!-- Node6 -->
<g id="node6" class="node">
<title>Node6</title>
<g id="a_node6"><a xlink:title=" ">
<polygon fill="#e0e0e0" stroke="#999999" points="811.5,-18.5 735.5,-18.5 735.5,0 811.5,0 811.5,-18.5"/>
<text text-anchor="middle" x="773.5" y="-5" font-family="Helvetica,sans-Serif" font-size="10.00">stddef.h</text>
</a>
</g>
</g>
<!-- Node4&#45;&gt;Node6 -->
<g id="edge5" class="edge">
<title>Node4&#45;&gt;Node6</title>
<path fill="none" stroke="#63b8ff" d="M773.5,-54.08C773.5,-47.43 773.5,-37.99 773.5,-29.58"/>
<polygon fill="#63b8ff" stroke="#63b8ff" points="777,-29.76 773.5,-19.76 770,-29.76 777,-29.76"/>
</g>
<!-- Node7 -->
<g id="node7" class="node">
<title>Node7</title>
<g id="a_node7"><a xlink:title=" ">
<polygon fill="#e0e0e0" stroke="#999999" points="905.5,-18.5 829.5,-18.5 829.5,0 905.5,0 905.5,-18.5"/>
<text text-anchor="middle" x="867.5" y="-5" font-family="Helvetica,sans-Serif" font-size="10.00">stdint.h</text>
</a>
</g>
</g>
<!-- Node4&#45;&gt;Node7 -->
<g id="edge6" class="edge">
<title>Node4&#45;&gt;Node7</title>
<path fill="none" stroke="#63b8ff" d="M789.02,-54.08C803.58,-45.95 825.6,-33.65 842.61,-24.15"/>
<polygon fill="#63b8ff" stroke="#63b8ff" points="843.93,-26.86 850.95,-18.93 840.52,-20.75 843.93,-26.86"/>
</g>
<!-- Node8&#45;&gt;Node4 -->
<g id="edge8" class="edge">
<title>Node8&#45;&gt;Node4</title>
<path fill="none" stroke="#63b8ff" d="M807.24,-120.51C801.39,-110.85 791.79,-94.97 784.32,-82.63"/>
<polygon fill="#63b8ff" stroke="#63b8ff" points="786.85,-81.05 778.68,-74.3 780.86,-84.67 786.85,-81.05"/>
</g>
<!-- Node9&#45;&gt;Node10 -->
<g id="edge11" class="edge">
<title>Node9&#45;&gt;Node10</title>
<path fill="none" stroke="#63b8ff" d="M690.74,-199.13C683.12,-187.94 669.43,-167.82 658.91,-152.38"/>
<polygon fill="#63b8ff" stroke="#63b8ff" points="661.38,-150.78 652.86,-144.48 655.59,-154.72 661.38,-150.78"/>
</g>
<!-- Node10&#45;&gt;Node4 -->
<g id="edge12" class="edge">
<title>Node10&#45;&gt;Node4</title>
<path fill="none" stroke="#63b8ff" d="M669.37,-116.77C691.47,-105.74 723.69,-89.64 746.43,-78.28"/>
<polygon fill="#63b8ff" stroke="#63b8ff" points="747.75,-81.03 755.14,-73.43 744.63,-74.76 747.75,-81.03"/>
</g>
<!-- Node11&#45;&gt;Node4 -->
<g id="edge14" class="edge">
<title>Node11&#45;&gt;Node4</title>
<path fill="none" stroke="#63b8ff" d="M119.9,-199.06C137.19,-176.09 184.28,-114.32 194.5,-109 238.87,-85.92 562.4,-72.03 705.61,-66.95"/>
<polygon fill="#63b8ff" stroke="#63b8ff" points="705.56,-70.42 715.43,-66.57 705.31,-63.43 705.56,-70.42"/>
</g>
<!-- Node12 -->
<g id="node12" class="node">
<title>Node12</title>
<g id="a_node12"><a xlink:title=" ">
<polygon fill="#e0e0e0" stroke="#999999" points="147.75,-139.45 79.25,-139.45 79.25,-120.95 147.75,-120.95 147.75,-139.45"/>
<text text-anchor="middle" x="113.5" y="-125.95" font-family="Helvetica,sans-Serif" font-size="10.00">fcntl.h</text>
</a>
</g>
</g>
<!-- Node11&#45;&gt;Node12 -->
<g id="edge15" class="edge">
<title>Node11&#45;&gt;Node12</title>
<path fill="none" stroke="#63b8ff" d="M113.5,-199.13C113.5,-187.49 113.5,-166.21 113.5,-150.56"/>
<polygon fill="#63b8ff" stroke="#63b8ff" points="117,-150.94 113.5,-140.94 110,-150.94 117,-150.94"/>
</g>
<!-- Node11&#45;&gt;Node13 -->
<g id="edge16" class="edge">
<title>Node11&#45;&gt;Node13</title>
<path fill="none" stroke="#63b8ff" d="M127.24,-199.13C148.27,-186.18 188.66,-161.29 214.29,-145.5"/>
<polygon fill="#63b8ff" stroke="#63b8ff" points="215.64,-148.17 222.31,-139.94 211.96,-142.21 215.64,-148.17"/>
</g>
<!-- Node14 -->
<g id="node14" class="node">
<title>Node14</title>
<g id="a_node14"><a xlink:title=" ">
<polygon fill="#e0e0e0" stroke="#999999" points="61,-151.4 0,-151.4 0,-109 61,-109 61,-151.4"/>
<text text-anchor="middle" x="30.5" y="-137.9" font-family="Helvetica,sans-Serif" font-size="10.00">time.h</text>
</a>
</g>
</g>
<!-- Node11&#45;&gt;Node14 -->
<g id="edge17" class="edge">
<title>Node11&#45;&gt;Node14</title>
<path fill="none" stroke="#63b8ff" d="M104.3,-199.13C93.81,-189.47 76.1,-173.17 60.66,-158.96"/>
<polygon fill="#63b8ff" stroke="#63b8ff" points="63.57,-156.96 53.84,-152.77 58.83,-162.11 63.57,-156.96"/>
</g>
<!-- Node15&#45;&gt;Node4 -->
<g id="edge19" class="edge">
<title>Node15&#45;&gt;Node4</title>
<path fill="none" stroke="#63b8ff" d="M917.19,-111.76C883.25,-100.65 840.16,-86.56 810.06,-76.71"/>
<polygon fill="#63b8ff" stroke="#63b8ff" points="811.59,-73.2 800.99,-73.42 809.41,-79.85 811.59,-73.2"/>
</g>
<!-- Node17&#45;&gt;Node4 -->
<g id="edge23" class="edge">
<title>Node17&#45;&gt;Node4</title>
<path fill="none" stroke="#63b8ff" d="M413.05,-198.87C434.9,-179.41 490.9,-132.38 546.5,-109 597.55,-87.53 659.5,-76.35 705.77,-70.6"/>
<polygon fill="#63b8ff" stroke="#63b8ff" points="706.06,-73.98 715.58,-69.32 705.24,-67.02 706.06,-73.98"/>
</g>
<!-- Node17&#45;&gt;Node13 -->
<g id="edge24" class="edge">
<title>Node17&#45;&gt;Node13</title>
<path fill="none" stroke="#63b8ff" d="M384.78,-198.99C355.89,-185.69 300.22,-160.07 266.21,-144.42"/>
<polygon fill="#63b8ff" stroke="#63b8ff" points="267.95,-140.9 257.41,-139.9 265.03,-147.26 267.95,-140.9"/>
</g>
<!-- Node18&#45;&gt;Node4 -->
<g id="edge26" class="edge">
<title>Node18&#45;&gt;Node4</title>
<path fill="none" stroke="#63b8ff" d="M1070.59,-120.51C1059.17,-116.59 1045.25,-112.15 1032.5,-109 968.41,-93.17 894.02,-81.1 841.45,-73.6"/>
<polygon fill="#63b8ff" stroke="#63b8ff" points="841.97,-69.99 831.58,-72.06 840.99,-76.92 841.97,-69.99"/>
</g>
<!-- Node19&#45;&gt;Node4 -->
<g id="edge28" class="edge">
<title>Node19&#45;&gt;Node4</title>
<path fill="none" stroke="#63b8ff" d="M531.02,-187.26C540.46,-164.61 558.84,-128.64 586.5,-109 621.31,-84.29 668.05,-73.22 706.09,-68.34"/>
<polygon fill="#63b8ff" stroke="#63b8ff" points="706.04,-71.75 715.57,-67.12 705.23,-64.8 706.04,-71.75"/>
</g>
<!-- Node19&#45;&gt;Node10 -->
<g id="edge29" class="edge">
<title>Node19&#45;&gt;Node10</title>
<path fill="none" stroke="#63b8ff" d="M556.24,-186.93C574.96,-175.11 598.2,-160.44 616.13,-149.11"/>
<polygon fill="#63b8ff" stroke="#63b8ff" points="617.39,-151.83 623.97,-143.53 613.65,-145.91 617.39,-151.83"/>
</g>
<!-- Node20&#45;&gt;Node4 -->
<g id="edge31" class="edge">
<title>Node20&#45;&gt;Node4</title>
<path fill="none" stroke="#63b8ff" d="M804.68,-195.12C786.51,-185.95 765.05,-171.57 754.5,-151.4 743.04,-129.5 753.42,-101 762.76,-82.79"/>
<polygon fill="#63b8ff" stroke="#63b8ff" points="766.18,-84.82 767.96,-74.38 760.06,-81.43 766.18,-84.82"/>
</g>
<!-- Node20&#45;&gt;Node8 -->
<g id="edge32" class="edge">
<title>Node20&#45;&gt;Node8</title>
<path fill="none" stroke="#63b8ff" d="M831.8,-195.33C828.15,-183.2 822.52,-164.47 818.27,-150.38"/>
<polygon fill="#63b8ff" stroke="#63b8ff" points="821.35,-149.45 815.11,-140.88 814.64,-151.47 821.35,-149.45"/>
</g>
</g>
</svg>
