<?xml version="1.0" encoding="UTF-8" standalone="no"?>
<!DOCTYPE svg PUBLIC "-//W3C//DTD SVG 1.1//EN"
 "http://www.w3.org/Graphics/SVG/1.1/DTD/svg11.dtd">
<!-- Generated by graphviz version 9.0.0 (20230911.1827)
 -->
<!-- Title: examples/readme_example.c Pages: 1 -->
<!--zoomable 1836601 -->

<svg id="main" version="1.1" xmlns="http://www.w3.org/2000/svg" xmlns:xlink="http://www.w3.org/1999/xlink" xml:space="preserve" onload="init(evt)">
<style type="text/css"><![CDATA[
.node, .edge {opacity: 0.7;}
.node.selected, .edge.selected {opacity: 1;}
.edge:hover path { stroke: red; }
.edge:hover polygon { stroke: red; fill: red; }
]]></style>

<defs>
  <circle id="rim" cx="0" cy="0" r="7"/>
  <circle id="rim2" cx="0" cy="0" r="3.5"/>
  <g id="zoomPlus">
    <use xlink:href="#rim" fill="#404040"><set attributeName="fill" to="#808080" begin="zoomplus.mouseover" end="zoomplus.mouseout"/></use>
    <path d="M-4,0h8M0,-4v8" fill="none" stroke="white" stroke-width="1.5" pointer-events="none"/>
  </g>
  <g id="zoomMin">
    <use xlink:href="#rim" fill="#404040"><set attributeName="fill" to="#808080" begin="zoomminus.mouseover" end="zoomminus.mouseout"/></use>
    <path d="M-4,0h8" fill="none" stroke="white" stroke-width="1.5" pointer-events="none"/>
  </g>
  <g id="arrowUp" transform="translate(30 24)">
    <use xlink:href="#rim"/>
    <path pointer-events="none" fill="none" stroke="white" stroke-width="1.5" d="M0,-3.0v7 M-2.5,-0.5L0,-3.0L2.5,-0.5"/>
  </g>
  <g id="arrowRight" transform="rotate(90) translate(36 -43)">
    <use xlink:href="#rim"/>
    <path pointer-events="none" fill="none" stroke="white" stroke-width="1.5" d="M0,-3.0v7 M-2.5,-0.5L0,-3.0L2.5,-0.5"/>
  </g>
  <g id="arrowDown" transform="rotate(180) translate(-30 -48)">
    <use xlink:href="#rim"/>
    <path pointer-events="none" fill="none" stroke="white" stroke-width="1.5" d="M0,-3.0v7 M-2.5,-0.5L0,-3.0L2.5,-0.5"/>
  </g>
  <g id="arrowLeft" transform="rotate(270) translate(-36 17)">
    <use xlink:href="#rim"/>
    <path pointer-events="none" fill="none" stroke="white" stroke-width="1.5" d="M0,-3.0v7 M-2.5,-0.5L0,-3.0L2.5,-0.5"/>
  </g>
  <g id="resetDef">
    <use xlink:href="#rim2" fill="#404040"><set attributeName="fill" to="#808080" begin="reset.mouseover" end="reset.mouseout"/></use>
  </g>
</defs>
<script type="application/ecmascript">
var viewWidth = 1309;
var viewHeight = 1836601;
var sectionId = 'dynsection-0';
</script>
<script type="application/ecmascript" xlink:href="svg.min.js"/>
<svg id="graph" class="graph">
<g id="viewport">
<title>examples/readme_example.c</title>
<!-- Node1 -->
<g id="Node000001" class="node">
<title>Node1</title>
<g id="a_Node000001"><a xlink:title=" ">
<polygon fill="#999999" stroke="#666666" points="1038.94,-1836592.74 835.44,-1836592.74 835.44,-1836574.24 1038.94,-1836574.24 1038.94,-1836592.74"/>
<text text-anchor="middle" x="937.19" y="-1836579.24" font-family="Helvetica,sans-Serif" font-size="10.00">examples/readme_example.c</text>
</a>
</g>
</g>
<!-- Node2 -->
<g id="Node000002" class="node">
<title>Node2</title>
<g id="a_Node000002"><a xlink:title=" ">
<polygon fill="#e0e0e0" stroke="#999999" points="635.19,-1836538.24 559.19,-1836538.24 559.19,-1836519.74 635.19,-1836519.74 635.19,-1836538.24"/>
<text text-anchor="middle" x="597.19" y="-1836524.74" font-family="Helvetica,sans-Serif" font-size="10.00">assert.h</text>
</a>
</g>
</g>
<!-- Node1&#45;&gt;Node2 -->
<g id="edge1_Node000001_Node000002" class="edge">
<title>Node1&#45;&gt;Node2</title>
<g id="a_edge1_Node000001_Node000002"><a xlink:title=" ">
<path fill="none" stroke="#63b8ff" d="M877.29,-1836573.76C820.71,-1836565.44 733.15,-1836552.36 646.78,-1836538.46"/>
<polygon fill="#63b8ff" stroke="#63b8ff" points="647.35,-1836535.01 636.92,-1836536.87 646.24,-1836541.92 647.35,-1836535.01"/>
</a>
</g>
</g>
<!-- Node3 -->
<g id="Node000003" class="node">
<title>Node3</title>
<g id="a_Node000003"><a xlink:href="sqsh_8h.html" target="_top" xlink:title=" ">
<polygon fill="white" stroke="#666666" points="714.69,-1836538.24 653.69,-1836538.24 653.69,-1836519.74 714.69,-1836519.74 714.69,-1836538.24"/>
<text text-anchor="middle" x="684.19" y="-1836524.74" font-family="Helvetica,sans-Serif" font-size="10.00">sqsh.h</text>
</a>
</g>
</g>
<!-- Node1&#45;&gt;Node3 -->
<g id="edge2_Node000001_Node000003" class="edge">
<title>Node1&#45;&gt;Node3</title>
<g id="a_edge2_Node000001_Node000003"><a xlink:title=" ">
<path fill="none" stroke="#63b8ff" d="M895.13,-1836573.76C848.36,-1836564.05 773.27,-1836548.47 726.44,-1836538.75"/>
<polygon fill="#63b8ff" stroke="#63b8ff" points="727.16,-1836535.33 716.65,-1836536.72 725.73,-1836542.18 727.16,-1836535.33"/>
</a>
</g>
</g>
<!-- Node14 -->
<g id="Node000014" class="node">
<title>Node14</title>
<g id="a_Node000014"><a xlink:title=" ">
<polygon fill="#e0e0e0" stroke="#999999" points="1155.44,-1607244.11 1086.94,-1607244.11 1086.94,-458673.95 1155.44,-458673.95 1155.44,-1607244.11"/>
<text text-anchor="middle" x="1121.19" y="-1607230.61" font-family="Helvetica,sans-Serif" font-size="10.00">stdio.h</text>
</a>
</g>
</g>
<!-- Node1&#45;&gt;Node14 -->
<g id="edge39_Node000001_Node000014" class="edge">
<title>Node1&#45;&gt;Node14</title>
<g id="a_edge39_Node000001_Node000014"><a xlink:title=" ">
<path fill="none" stroke="#63b8ff" d="M969.33,-1836573.81C1008.74,-1836561.25 1073.79,-1836533.83 1102.19,-1836483.74 1102.19,-1836483.74 1104.55,-1736595.36 1107.61,-1607255.96"/>
<polygon fill="#63b8ff" stroke="#63b8ff" points="1111.11,-1607256 1107.61,-1607246 1104.11,-1607256 1111.11,-1607256"/>
</a>
</g>
</g>
<!-- Node23 -->
<g id="Node000023" class="node">
<title>Node23</title>
<g id="a_Node000023"><a xlink:title=" ">
<polygon fill="#e0e0e0" stroke="#999999" points="1225.19,-1836538.24 1149.19,-1836538.24 1149.19,-1836519.74 1225.19,-1836519.74 1225.19,-1836538.24"/>
<text text-anchor="middle" x="1187.19" y="-1836524.74" font-family="Helvetica,sans-Serif" font-size="10.00">stdlib.h</text>
</a>
</g>
</g>
<!-- Node1&#45;&gt;Node23 -->
<g id="edge40_Node000001_Node000023" class="edge">
<title>Node1&#45;&gt;Node23</title>
<g id="a_edge40_Node000001_Node000023"><a xlink:title=" ">
<path fill="none" stroke="#63b8ff" d="M978.75,-1836573.76C1022.49,-1836564.57 1091.31,-1836550.12 1137.8,-1836540.36"/>
<polygon fill="#63b8ff" stroke="#63b8ff" points="1138.26,-1836543.84 1147.33,-1836538.36 1136.82,-1836536.99 1138.26,-1836543.84"/>
</a>
</g>
</g>
<!-- Node4 -->
<g id="Node000004" class="node">
<title>Node4</title>
<g id="a_Node000004"><a xlink:href="sqsh__archive_8h.html" target="_top" xlink:title=" ">
<polygon fill="white" stroke="#666666" points="543.69,-1836483.74 422.69,-1836483.74 422.69,-1607280.11 543.69,-1607280.11 543.69,-1836483.74"/>
<text text-anchor="middle" x="483.19" y="-1836470.24" font-family="Helvetica,sans-Serif" font-size="10.00">sqsh_archive.h</text>
</a>
</g>
</g>
<!-- Node3&#45;&gt;Node4 -->
<g id="edge3_Node000003_Node000004" class="edge">
<title>Node3&#45;&gt;Node4</title>
<g id="a_edge3_Node000003_Node000004"><a xlink:title=" ">
<path fill="none" stroke="#63b8ff" d="M653.4,-1836519.62C616.61,-1836509.31 559.23,-1836492.14 553.19,-1836483.74 550.39,-1836479.84 547.65,-1836459.38 544.96,-1836422.77"/>
<polygon fill="#63b8ff" stroke="#63b8ff" points="548.47,-1836422.69 544.28,-1836412.96 541.48,-1836423.18 548.47,-1836422.69"/>
</a>
</g>
</g>
<!-- Node5 -->
<g id="Node000005" class="node">
<title>Node5</title>
<g id="a_Node000005"><a xlink:href="sqsh__common_8h.html" target="_top" xlink:title=" ">
<polygon fill="white" stroke="#666666" points="569.94,-458637.95 456.44,-458637.95 456.44,-229434.25 569.94,-229434.25 569.94,-458637.95"/>
<text text-anchor="middle" x="513.19" y="-458624.45" font-family="Helvetica,sans-Serif" font-size="10.00">sqsh_common.h</text>
</a>
</g>
</g>
<!-- Node3&#45;&gt;Node5 -->
<g id="edge10_Node000003_Node000005" class="edge">
<title>Node3&#45;&gt;Node5</title>
<g id="a_edge10_Node000003_Node000005"><a xlink:title=" ">
<path fill="none" stroke="#63b8ff" d="M653.21,-1836521.44C650.16,-1836520.85 647.12,-1836520.27 644.19,-1836519.74 593.28,-1836510.51 447.82,-1836523.04 414.19,-1836483.74 414.19,-1836483.74 414.19,-1607280.11 414.19,-1607280.11 414.41,-1607264.1 414.96,-1607260.11 415.19,-1607244.11 470.65,-1603256.4 463.25,-462662.04 464.19,-458673.95 464.19,-458665.89 464.19,-458657.84 464.19,-458649.78"/>
<polygon fill="#63b8ff" stroke="#63b8ff" points="467.69,-458649.9 464.2,-458639.9 460.69,-458649.9 467.69,-458649.9"/>
</a>
</g>
</g>
<!-- Node10 -->
<g id="Node000010" class="node">
<title>Node10</title>
<g id="a_Node000010"><a xlink:href="sqsh__directory_8h.html" target="_top" xlink:title=" ">
<polygon fill="white" stroke="#666666" points="822.19,-1721894.92 686.19,-1721894.92 686.19,-1721868.92 822.19,-1721868.92 822.19,-1721894.92"/>
<text text-anchor="middle" x="754.19" y="-1721881.42" font-family="Helvetica,sans-Serif" font-size="10.00">sqsh_directory.h</text>
</a>
</g>
</g>
<!-- Node3&#45;&gt;Node10 -->
<g id="edge11_Node000003_Node000010" class="edge">
<title>Node3&#45;&gt;Node10</title>
<g id="a_edge11_Node000003_Node000010"><a xlink:title=" ">
<path fill="none" stroke="#63b8ff" d="M684.19,-1836519.4C684.88,-1835392.77 753.03,-1723770 754.17,-1721906.52"/>
<polygon fill="#63b8ff" stroke="#63b8ff" points="757.67,-1721906.57 754.18,-1721896.57 750.67,-1721906.57 757.67,-1721906.57"/>
</a>
</g>
</g>
<!-- Node11 -->
<g id="Node000011" class="node">
<title>Node11</title>
<g id="a_Node000011"><a xlink:href="sqsh__file_8h.html" target="_top" xlink:title=" ">
<polygon fill="white" stroke="#666666" points="806.44,-1032968.28 707.94,-1032968.28 707.94,-1032949.78 806.44,-1032949.78 806.44,-1032968.28"/>
<text text-anchor="middle" x="757.19" y="-1032954.78" font-family="Helvetica,sans-Serif" font-size="10.00">sqsh_file.h</text>
</a>
</g>
</g>
<!-- Node3&#45;&gt;Node11 -->
<g id="edge21_Node000003_Node000011" class="edge">
<title>Node3&#45;&gt;Node11</title>
<g id="a_edge21_Node000003_Node000011"><a xlink:title=" ">
<path fill="none" stroke="#63b8ff" d="M714.89,-1836528.63C749.52,-1836527.5 804.48,-1836519.67 831.19,-1836483.74 831.19,-1836483.74 831.19,-1607280.11 831.19,-1607280.11 814.82,-1353193.98 757.71,-1035876.81 757.19,-1032980.01"/>
<polygon fill="#63b8ff" stroke="#63b8ff" points="760.69,-1032980.09 757.19,-1032970.09 753.69,-1032980.1 760.69,-1032980.09"/>
</a>
</g>
</g>
<!-- Node12 -->
<g id="Node000012" class="node">
<title>Node12</title>
<g id="a_Node000012"><a xlink:href="sqsh__easy_8h.html" target="_top" xlink:title=" ">
<polygon fill="white" stroke="#666666" points="1093.44,-1721891.17 994.94,-1721891.17 994.94,-1721872.67 1093.44,-1721872.67 1093.44,-1721891.17"/>
<text text-anchor="middle" x="1044.19" y="-1721877.67" font-family="Helvetica,sans-Serif" font-size="10.00">sqsh_easy.h</text>
</a>
</g>
</g>
<!-- Node3&#45;&gt;Node12 -->
<g id="edge14_Node000003_Node000012" class="edge">
<title>Node3&#45;&gt;Node12</title>
<g id="a_edge14_Node000003_Node000012"><a xlink:title=" ">
<path fill="none" stroke="#63b8ff" d="M715.09,-1836528.3C784.72,-1836528.27 950.48,-1836523.9 985.19,-1836483.74 1114.29,-1836334.35 1045.26,-1723619.66 1044.2,-1721902.74"/>
<polygon fill="#63b8ff" stroke="#63b8ff" points="1047.7,-1721903 1044.19,-1721893.01 1040.7,-1721903.01 1047.7,-1721903"/>
</a>
</g>
</g>
<!-- Node16 -->
<g id="Node000016" class="node">
<title>Node16</title>
<g id="a_Node000016"><a xlink:href="sqsh__error_8h.html" target="_top" xlink:title=" ">
<polygon fill="white" stroke="#666666" points="247.19,-1032980.2 141.19,-1032980.2 141.19,-1032937.86 247.19,-1032937.86 247.19,-1032980.2"/>
<text text-anchor="middle" x="194.19" y="-1032966.7" font-family="Helvetica,sans-Serif" font-size="10.00">sqsh_error.h</text>
</a>
</g>
</g>
<!-- Node3&#45;&gt;Node16 -->
<g id="edge19_Node000003_Node000016" class="edge">
<title>Node3&#45;&gt;Node16</title>
<g id="a_edge19_Node000003_Node000016"><a xlink:title=" ">
<path fill="none" stroke="#63b8ff" d="M653.24,-1836521.24C650.19,-1836520.69 647.13,-1836520.17 644.19,-1836519.74 600.37,-1836513.25 277.06,-1836516.44 247.19,-1836483.74 247.19,-1836483.74 194.57,-1038806.64 194.19,-1032991.97"/>
<polygon fill="#63b8ff" stroke="#63b8ff" points="197.69,-1032992.19 194.19,-1032982.19 190.69,-1032992.19 197.69,-1032992.19"/>
</a>
</g>
</g>
<!-- Node17 -->
<g id="Node000017" class="node">
<title>Node17</title>
<g id="a_Node000017"><a xlink:href="sqsh__mapper_8h.html" target="_top" xlink:title=" ">
<polygon fill="white" stroke="#666666" points="122.94,-1032968.28 9.44,-1032968.28 9.44,-1032949.78 122.94,-1032949.78 122.94,-1032968.28"/>
<text text-anchor="middle" x="66.19" y="-1032954.78" font-family="Helvetica,sans-Serif" font-size="10.00">sqsh_mapper.h</text>
</a>
</g>
</g>
<!-- Node3&#45;&gt;Node17 -->
<g id="edge22_Node000003_Node000017" class="edge">
<title>Node3&#45;&gt;Node17</title>
<g id="a_edge22_Node000003_Node000017"><a xlink:title=" ">
<path fill="none" stroke="#63b8ff" d="M653.24,-1836521.23C650.19,-1836520.68 647.13,-1836520.17 644.19,-1836519.74 598.28,-1836513.04 259.55,-1836517.92 228.19,-1836483.74 -40.89,-1836190.49 132.29,-1607642.09 132.19,-1607244.11 64.39,-1353173.92 66.17,-1035876.63 66.19,-1032980.01"/>
<polygon fill="#63b8ff" stroke="#63b8ff" points="69.69,-1032980.09 66.19,-1032970.09 62.69,-1032980.09 69.69,-1032980.09"/>
</a>
</g>
</g>
<!-- Node18 -->
<g id="Node000018" class="node">
<title>Node18</title>
<g id="a_Node000018"><a xlink:href="sqsh__posix_8h.html" target="_top" xlink:title=" ">
<polygon fill="white" stroke="#666666" points="1255.19,-1721891.17 1149.19,-1721891.17 1149.19,-1721872.67 1255.19,-1721872.67 1255.19,-1721891.17"/>
<text text-anchor="middle" x="1202.19" y="-1721877.67" font-family="Helvetica,sans-Serif" font-size="10.00">sqsh_posix.h</text>
</a>
</g>
</g>
<!-- Node3&#45;&gt;Node18 -->
<g id="edge25_Node000003_Node000018" class="edge">
<title>Node3&#45;&gt;Node18</title>
<g id="a_edge25_Node000003_Node000018"><a xlink:title=" ">
<path fill="none" stroke="#63b8ff" d="M715.02,-1836527.05C807.27,-1836523.93 1076.34,-1836512.44 1102.19,-1836483.74 1366.44,-1836190.29 1204.69,-1723617.46 1202.22,-1721902.71"/>
<polygon fill="#63b8ff" stroke="#63b8ff" points="1205.72,-1721902.99 1202.2,-1721893 1198.72,-1721903 1205.72,-1721902.99"/>
</a>
</g>
</g>
<!-- Node19 -->
<g id="Node000019" class="node">
<title>Node19</title>
<g id="a_Node000019"><a xlink:href="sqsh__table_8h.html" target="_top" xlink:title=" ">
<polygon fill="white" stroke="#666666" points="371.19,-1032968.28 265.19,-1032968.28 265.19,-1032949.78 371.19,-1032949.78 371.19,-1032968.28"/>
<text text-anchor="middle" x="318.19" y="-1032954.78" font-family="Helvetica,sans-Serif" font-size="10.00">sqsh_table.h</text>
</a>
</g>
</g>
<!-- Node3&#45;&gt;Node19 -->
<g id="edge29_Node000003_Node000019" class="edge">
<title>Node3&#45;&gt;Node19</title>
<g id="a_edge29_Node000003_Node000019"><a xlink:title=" ">
<path fill="none" stroke="#63b8ff" d="M653.24,-1836521.25C650.19,-1836520.69 647.13,-1836520.17 644.19,-1836519.74 600.81,-1836513.3 280.75,-1836516.13 251.19,-1836483.74 251.19,-1836483.74 251.19,-1607280.11 251.19,-1607280.11 252.3,-1607263.99 255.07,-1607260.22 256.19,-1607244.11 393.31,-1605261.61 318.7,-1036862.55 318.19,-1032980.01"/>
<polygon fill="#63b8ff" stroke="#63b8ff" points="321.69,-1032980.29 318.19,-1032970.29 314.69,-1032980.29 321.69,-1032980.29"/>
</a>
</g>
</g>
<!-- Node20 -->
<g id="Node000020" class="node">
<title>Node20</title>
<g id="a_Node000020"><a xlink:href="sqsh__tree_8h.html" target="_top" xlink:title=" ">
<polygon fill="white" stroke="#666666" points="976.44,-1721894.92 877.94,-1721894.92 877.94,-1721868.92 976.44,-1721868.92 976.44,-1721894.92"/>
<text text-anchor="middle" x="927.19" y="-1721881.42" font-family="Helvetica,sans-Serif" font-size="10.00">sqsh_tree.h</text>
</a>
</g>
</g>
<!-- Node3&#45;&gt;Node20 -->
<g id="edge31_Node000003_Node000020" class="edge">
<title>Node3&#45;&gt;Node20</title>
<g id="a_edge31_Node000003_Node000020"><a xlink:title=" ">
<path fill="none" stroke="#63b8ff" d="M714.94,-1836524.94C761.38,-1836519.63 845.96,-1836506.97 864.19,-1836483.74 985.95,-1836328.5 928.17,-1723785.67 927.2,-1721906.71"/>
<polygon fill="#63b8ff" stroke="#63b8ff" points="930.7,-1721906.92 927.19,-1721896.92 923.7,-1721906.92 930.7,-1721906.92"/>
</a>
</g>
</g>
<!-- Node21 -->
<g id="Node000021" class="node">
<title>Node21</title>
<g id="a_Node000021"><a xlink:href="sqsh__utils_8h.html" target="_top" xlink:title=" ">
<polygon fill="white" stroke="#666666" points="366.19,-1721891.17 260.19,-1721891.17 260.19,-1721872.67 366.19,-1721872.67 366.19,-1721891.17"/>
<text text-anchor="middle" x="313.19" y="-1721877.67" font-family="Helvetica,sans-Serif" font-size="10.00">sqsh_utils.h</text>
</a>
</g>
</g>
<!-- Node3&#45;&gt;Node21 -->
<g id="edge34_Node000003_Node000021" class="edge">
<title>Node3&#45;&gt;Node21</title>
<g id="a_edge34_Node000003_Node000021"><a xlink:title=" ">
<path fill="none" stroke="#63b8ff" d="M653.22,-1836521.38C650.17,-1836520.8 647.12,-1836520.24 644.19,-1836519.74 585.83,-1836509.75 419.14,-1836528.33 380.19,-1836483.74 250.3,-1836335.03 312.23,-1723619.67 313.18,-1721902.74"/>
<polygon fill="#63b8ff" stroke="#63b8ff" points="316.68,-1721903.01 313.18,-1721893.01 309.68,-1721903 316.68,-1721903.01"/>
</a>
</g>
</g>
<!-- Node22 -->
<g id="Node000022" class="node">
<title>Node22</title>
<g id="a_Node000022"><a xlink:href="sqsh__xattr_8h.html" target="_top" xlink:title=" ">
<polygon fill="white" stroke="#666666" points="668.19,-1721891.17 562.19,-1721891.17 562.19,-1721872.67 668.19,-1721872.67 668.19,-1721891.17"/>
<text text-anchor="middle" x="615.19" y="-1721877.67" font-family="Helvetica,sans-Serif" font-size="10.00">sqsh_xattr.h</text>
</a>
</g>
</g>
<!-- Node3&#45;&gt;Node22 -->
<g id="edge36_Node000003_Node000022" class="edge">
<title>Node3&#45;&gt;Node22</title>
<g id="a_edge36_Node000003_Node000022"><a xlink:title=" ">
<path fill="none" stroke="#63b8ff" d="M682.45,-1836519.55C680.72,-1836510.68 678.18,-1836496.3 677.19,-1836483.74 552.99,-1834909.17 614.23,-1723611.57 615.18,-1721902.8"/>
<polygon fill="#63b8ff" stroke="#63b8ff" points="618.68,-1721902.9 615.18,-1721892.9 611.68,-1721902.9 618.68,-1721902.9"/>
</a>
</g>
</g>
<!-- Node4&#45;&gt;Node5 -->
<g id="edge4_Node000004_Node000005" class="edge">
<title>Node4&#45;&gt;Node5</title>
<g id="a_edge4_Node000004_Node000005"><a xlink:title=" ">
<path fill="none" stroke="#63b8ff" d="M478.16,-1607279.78C469.78,-1385505.04 457.25,-882159.81 494.19,-458673.95 494.19,-458665.89 494.19,-458657.84 494.19,-458649.78"/>
<polygon fill="#63b8ff" stroke="#63b8ff" points="497.69,-458649.9 494.19,-458639.9 490.69,-458649.9 497.69,-458649.9"/>
</a>
</g>
</g>
<!-- Node9 -->
<g id="Node000009" class="node">
<title>Node9</title>
<g id="a_Node000009"><a xlink:href="sqsh__data_8h.html" target="_top" xlink:title=" ">
<polygon fill="white" stroke="#666666" points="601.44,-1032980.2 502.94,-1032980.2 502.94,-1032937.86 601.44,-1032937.86 601.44,-1032980.2"/>
<text text-anchor="middle" x="552.19" y="-1032966.7" font-family="Helvetica,sans-Serif" font-size="10.00">sqsh_data.h</text>
</a>
</g>
</g>
<!-- Node4&#45;&gt;Node9 -->
<g id="edge8_Node000004_Node000009" class="edge">
<title>Node4&#45;&gt;Node9</title>
<g id="a_edge8_Node000004_Node000009"><a xlink:title=" ">
<path fill="none" stroke="#63b8ff" d="M494.67,-1607279.75C514.18,-1412402.53 551.79,-1036970.15 552.18,-1032991.9"/>
<polygon fill="#63b8ff" stroke="#63b8ff" points="555.68,-1032991.93 552.18,-1032981.93 548.68,-1032991.93 555.68,-1032991.93"/>
</a>
</g>
</g>
<!-- Node6 -->
<g id="Node000006" class="node">
<title>Node6</title>
<g id="a_Node000006"><a xlink:title=" ">
<polygon fill="#e0e0e0" stroke="#999999" points="554.94,-229398.25 471.44,-229398.25 471.44,0 554.94,0 554.94,-229398.25"/>
<text text-anchor="middle" x="513.19" y="-229384.75" font-family="Helvetica,sans-Serif" font-size="10.00">stdbool.h</text>
</a>
</g>
</g>
<!-- Node5&#45;&gt;Node6 -->
<g id="edge5_Node000005_Node000006" class="edge">
<title>Node5&#45;&gt;Node6</title>
<g id="a_edge5_Node000005_Node000006"><a xlink:title=" ">
<path fill="none" stroke="#63b8ff" d="M513.19,-229433.88C513.19,-229425.85 513.19,-229417.82 513.19,-229409.79"/>
<polygon fill="#63b8ff" stroke="#63b8ff" points="516.69,-229409.95 513.19,-229399.95 509.69,-229409.95 516.69,-229409.95"/>
</a>
</g>
</g>
<!-- Node7 -->
<g id="Node000007" class="node">
<title>Node7</title>
<g id="a_Node000007"><a xlink:title=" ">
<polygon fill="#e0e0e0" stroke="#999999" points="375.19,-114720.3 299.19,-114720.3 299.19,-114677.96 375.19,-114677.96 375.19,-114720.3"/>
<text text-anchor="middle" x="337.19" y="-114706.8" font-family="Helvetica,sans-Serif" font-size="10.00">stddef.h</text>
</a>
</g>
</g>
<!-- Node5&#45;&gt;Node7 -->
<g id="edge6_Node000005_Node000007" class="edge">
<title>Node5&#45;&gt;Node7</title>
<g id="a_edge6_Node000005_Node000007"><a xlink:title=" ">
<path fill="none" stroke="#63b8ff" d="M455.94,-269436.09C405.13,-203227.65 338.67,-116633.86 337.21,-114732.01"/>
<polygon fill="#63b8ff" stroke="#63b8ff" points="340.71,-114732.19 337.2,-114722.19 333.71,-114732.2 340.71,-114732.19"/>
</a>
</g>
</g>
<!-- Node8 -->
<g id="Node000008" class="node">
<title>Node8</title>
<g id="a_Node000008"><a xlink:title=" ">
<polygon fill="#e0e0e0" stroke="#999999" points="954.19,-114708.38 878.19,-114708.38 878.19,-114689.88 954.19,-114689.88 954.19,-114708.38"/>
<text text-anchor="middle" x="916.19" y="-114694.88" font-family="Helvetica,sans-Serif" font-size="10.00">stdint.h</text>
</a>
</g>
</g>
<!-- Node5&#45;&gt;Node8 -->
<g id="edge7_Node000005_Node000008" class="edge">
<title>Node5&#45;&gt;Node8</title>
<g id="a_edge7_Node000005_Node000008"><a xlink:title=" ">
<path fill="none" stroke="#63b8ff" d="M570.44,-311456.16C680.89,-248602.74 912.88,-116583.34 916.15,-114720.06"/>
<polygon fill="#63b8ff" stroke="#63b8ff" points="919.65,-114720.24 916.17,-114710.23 912.65,-114720.23 919.65,-114720.24"/>
</a>
</g>
</g>
<!-- Node9&#45;&gt;Node5 -->
<g id="edge9_Node000009_Node000005" class="edge">
<title>Node9&#45;&gt;Node5</title>
<g id="a_edge9_Node000009_Node000005"><a xlink:title=" ">
<path fill="none" stroke="#63b8ff" d="M552.19,-1032937.65C552.01,-1029751.57 530.72,-653738.78 519.68,-458649.77"/>
<polygon fill="#63b8ff" stroke="#63b8ff" points="523.18,-458649.84 519.67,-458639.84 516.18,-458649.84 523.18,-458649.84"/>
</a>
</g>
</g>
<!-- Node10&#45;&gt;Node11 -->
<g id="edge12_Node000010_Node000011" class="edge">
<title>Node10&#45;&gt;Node11</title>
<g id="a_edge12_Node000010_Node000011"><a xlink:title=" ">
<path fill="none" stroke="#63b8ff" d="M754.19,-1721868.62C754.2,-1718531.57 757.17,-1037218.45 757.19,-1032979.89"/>
<polygon fill="#63b8ff" stroke="#63b8ff" points="760.69,-1032980.13 757.19,-1032970.13 753.69,-1032980.13 760.69,-1032980.13"/>
</a>
</g>
</g>
<!-- Node11&#45;&gt;Node5 -->
<g id="edge13_Node000011_Node000005" class="edge">
<title>Node11&#45;&gt;Node5</title>
<g id="a_edge13_Node000011_Node000005"><a xlink:title=" ">
<path fill="none" stroke="#63b8ff" d="M757.19,-1032949.48C757.52,-1031050.24 812.73,-713147.92 643.19,-458673.95 627.21,-434687.9 597.46,-407878.82 570.45,-386220.86"/>
<polygon fill="#63b8ff" stroke="#63b8ff" points="573.95,-386220.96 570.44,-386210.97 566.95,-386220.97 573.95,-386220.96"/>
</a>
</g>
</g>
<!-- Node12&#45;&gt;Node5 -->
<g id="edge15_Node000012_Node000005" class="edge">
<title>Node12&#45;&gt;Node5</title>
<g id="a_edge15_Node000012_Node000005"><a xlink:title=" ">
<path fill="none" stroke="#63b8ff" d="M1044.2,-1721872.36C1045.69,-1720740.03 1194.35,-1607616.28 985.19,-1607280.11 966.08,-1607249.39 931.29,-1607274.83 912.19,-1607244.11 912.19,-1607244.11 859.19,-458673.95 859.19,-458673.95 803.95,-422623.89 653.66,-380197.12 570.48,-358465.56"/>
<polygon fill="#63b8ff" stroke="#63b8ff" points="573.98,-358465.62 570.44,-358455.63 566.98,-358465.65 573.98,-358465.62"/>
</a>
</g>
</g>
<!-- Node13 -->
<g id="Node000013" class="node">
<title>Node13</title>
<g id="a_Node000013"><a xlink:title=" ">
<polygon fill="#e0e0e0" stroke="#999999" points="1068.44,-1147545.31 999.94,-1147545.31 999.94,-918372.75 1068.44,-918372.75 1068.44,-1147545.31"/>
<text text-anchor="middle" x="1034.19" y="-1147531.81" font-family="Helvetica,sans-Serif" font-size="10.00">fcntl.h</text>
</a>
</g>
</g>
<!-- Node12&#45;&gt;Node13 -->
<g id="edge16_Node000012_Node000013" class="edge">
<title>Node12&#45;&gt;Node13</title>
<g id="a_edge16_Node000012_Node000013"><a xlink:title=" ">
<path fill="none" stroke="#63b8ff" d="M1044.19,-1721872.29C1044.16,-1719794.36 1038.69,-1342932.03 1035.85,-1147557.06"/>
<polygon fill="#63b8ff" stroke="#63b8ff" points="1039.35,-1147557.12 1035.85,-1147547.12 1032.35,-1147557.12 1039.35,-1147557.12"/>
</a>
</g>
</g>
<!-- Node12&#45;&gt;Node14 -->
<g id="edge17_Node000012_Node000014" class="edge">
<title>Node12&#45;&gt;Node14</title>
<g id="a_edge17_Node000012_Node000014"><a xlink:title=" ">
<path fill="none" stroke="#63b8ff" d="M1044.19,-1721872.33C1044.5,-1721026.32 1067.96,-1657851.73 1077.19,-1607244.11 1080.51,-1588986.01 1083.59,-1570401.4 1086.44,-1551630.41"/>
<polygon fill="#63b8ff" stroke="#63b8ff" points="1089.94,-1551630.75 1086.44,-1551620.75 1082.94,-1551630.75 1089.94,-1551630.75"/>
</a>
</g>
</g>
<!-- Node15 -->
<g id="Node000015" class="node">
<title>Node15</title>
<g id="a_Node000015"><a xlink:title=" ">
<polygon fill="#e0e0e0" stroke="#999999" points="981.69,-1032972.03 920.69,-1032972.03 920.69,-1032946.03 981.69,-1032946.03 981.69,-1032972.03"/>
<text text-anchor="middle" x="951.19" y="-1032958.53" font-family="Helvetica,sans-Serif" font-size="10.00">time.h</text>
</a>
</g>
</g>
<!-- Node12&#45;&gt;Node15 -->
<g id="edge18_Node000012_Node000015" class="edge">
<title>Node12&#45;&gt;Node15</title>
<g id="a_edge18_Node000012_Node000015"><a xlink:title=" ">
<path fill="none" stroke="#63b8ff" d="M1044.18,-1721872.33C1043.66,-1721026.32 1004.65,-1657851.74 991.19,-1607244.11 923.64,-1353282.89 950.91,-1036148.79 951.18,-1032983.91"/>
<polygon fill="#63b8ff" stroke="#63b8ff" points="954.68,-1032983.94 951.19,-1032973.94 947.68,-1032983.94 954.68,-1032983.94"/>
</a>
</g>
</g>
<!-- Node16&#45;&gt;Node5 -->
<g id="edge20_Node000016_Node000005" class="edge">
<title>Node16&#45;&gt;Node5</title>
<g id="a_edge20_Node000016_Node000005"><a xlink:title=" ">
<path fill="none" stroke="#63b8ff" d="M194.18,-1032937.63C193.5,-1029473.32 106.83,-585794.04 256.19,-458673.95 295.27,-425411.07 392.86,-386719.31 455.91,-363864.56"/>
<polygon fill="#63b8ff" stroke="#63b8ff" points="459.41,-363864.57 455.93,-363854.56 452.41,-363864.55 459.41,-363864.57"/>
</a>
</g>
</g>
<!-- Node17&#45;&gt;Node5 -->
<g id="edge23_Node000017_Node000005" class="edge">
<title>Node17&#45;&gt;Node5</title>
<g id="a_edge23_Node000017_Node000005"><a xlink:title=" ">
<path fill="none" stroke="#63b8ff" d="M66.18,-1032949.73C65.37,-1030438.98 -118.96,-459103.31 132.19,-458673.95 148.66,-458645.78 179.67,-458666.1 196.19,-458637.95 1595.68,-456252.61 802.78,-371517.79 570.56,-349317.47"/>
<polygon fill="#63b8ff" stroke="#63b8ff" points="574.06,-349317.52 570.45,-349307.56 567.06,-349317.59 574.06,-349317.52"/>
</a>
</g>
</g>
<!-- Node17&#45;&gt;Node7 -->
<g id="edge24_Node000017_Node000007" class="edge">
<title>Node17&#45;&gt;Node7</title>
<g id="a_edge24_Node000017_Node000007"><a xlink:title=" ">
<path fill="none" stroke="#63b8ff" d="M66.19,-1032949.48C66.04,-1031050.24 41.73,-713147.96 132.19,-458673.95 186.12,-306938.35 334.94,-117552.16 337.16,-114732"/>
<polygon fill="#63b8ff" stroke="#63b8ff" points="340.66,-114732.11 337.17,-114722.1 333.66,-114732.1 340.66,-114732.11"/>
</a>
</g>
</g>
<!-- Node18&#45;&gt;Node5 -->
<g id="edge26_Node000018_Node000005" class="edge">
<title>Node18&#45;&gt;Node5</title>
<g id="a_edge26_Node000018_Node000005"><a xlink:title=" ">
<path fill="none" stroke="#63b8ff" d="M1202.19,-1721872.23C1202.22,-1718082.32 1214.19,-476191.65 1164.19,-458673.95 1048.86,-418272.68 707.1,-369863.19 570.52,-351549.14"/>
<polygon fill="#63b8ff" stroke="#63b8ff" points="574.02,-351549.31 570.45,-351539.34 567.02,-351549.37 574.02,-351549.31"/>
</a>
</g>
</g>
<!-- Node18&#45;&gt;Node8 -->
<g id="edge27_Node000018_Node000008" class="edge">
<title>Node18&#45;&gt;Node8</title>
<g id="a_edge27_Node000018_Node000008"><a xlink:title=" ">
<path fill="none" stroke="#63b8ff" d="M1202.19,-1721872.39C1203.09,-1719054.49 1427.15,-1018968.42 1197.19,-458673.95 1134.81,-306700.55 918.76,-116958.52 916.21,-114720.12"/>
<polygon fill="#63b8ff" stroke="#63b8ff" points="919.71,-114720.37 916.2,-114710.37 912.71,-114720.38 919.71,-114720.37"/>
</a>
</g>
</g>
<!-- Node18&#45;&gt;Node14 -->
<g id="edge28_Node000018_Node000014" class="edge">
<title>Node18&#45;&gt;Node14</title>
<g id="a_edge28_Node000018_Node000014"><a xlink:title=" ">
<path fill="none" stroke="#63b8ff" d="M1202.18,-1721872.33C1201.87,-1721026.32 1178.59,-1657851.73 1169.19,-1607244.11 1164.29,-1580865.86 1159.89,-1553806.09 1155.94,-1526487.39"/>
<polygon fill="#63b8ff" stroke="#63b8ff" points="1159.44,-1526487.64 1155.94,-1526477.64 1152.44,-1526487.64 1159.44,-1526487.64"/>
</a>
</g>
</g>
<!-- Node19&#45;&gt;Node5 -->
<g id="edge30_Node000019_Node000005" class="edge">
<title>Node19&#45;&gt;Node5</title>
<g id="a_edge30_Node000019_Node000005"><a xlink:title=" ">
<path fill="none" stroke="#63b8ff" d="M318.18,-1032949.48C317.65,-1031050.24 228.27,-713147.93 385.19,-458673.95 399.96,-434713.84 429.15,-407936.81 455.92,-386291.15"/>
<polygon fill="#63b8ff" stroke="#63b8ff" points="459.42,-386291.27 455.94,-386281.27 452.42,-386291.26 459.42,-386291.27"/>
</a>
</g>
</g>
<!-- Node20&#45;&gt;Node5 -->
<g id="edge32_Node000020_Node000005" class="edge">
<title>Node20&#45;&gt;Node5</title>
<g id="a_edge32_Node000020_Node000005"><a xlink:title=" ">
<path fill="none" stroke="#63b8ff" d="M927.18,-1721868.56C926.56,-1720855.54 887.97,-1657783.32 875.19,-1607244.11 859.05,-1543434.66 900.9,-522483.35 815.19,-458673.95 768.35,-423808.58 644.2,-382978.67 570.47,-360674.05"/>
<polygon fill="#63b8ff" stroke="#63b8ff" points="573.97,-360674.07 570.44,-360664.08 566.97,-360674.09 573.97,-360674.07"/>
</a>
</g>
</g>
<!-- Node20&#45;&gt;Node11 -->
<g id="edge33_Node000020_Node000011" class="edge">
<title>Node20&#45;&gt;Node11</title>
<g id="a_edge33_Node000020_Node000011"><a xlink:title=" ">
<path fill="none" stroke="#63b8ff" d="M927.2,-1721868.46C928.16,-1720504.61 1007.67,-1607648.68 864.19,-1607280.11 856.31,-1607259.88 839.06,-1607264.34 831.19,-1607244.11 470.91,-1606318.08 755.25,-1036834.9 757.18,-1032979.69"/>
<polygon fill="#63b8ff" stroke="#63b8ff" points="760.68,-1032979.84 757.18,-1032969.84 753.68,-1032979.83 760.68,-1032979.84"/>
</a>
</g>
</g>
<!-- Node21&#45;&gt;Node5 -->
<g id="edge35_Node000021_Node000005" class="edge">
<title>Node21&#45;&gt;Node5</title>
<g id="a_edge35_Node000021_Node000005"><a xlink:title=" ">
<path fill="none" stroke="#63b8ff" d="M313.19,-1721872.33C313.87,-1721026.32 364.45,-1657851.74 380.19,-1607244.11 459.55,-1352006.31 318.22,-713911.74 423.19,-458673.95 430.19,-441650.33 442.56,-423204.7 455.93,-406187.84"/>
<polygon fill="#63b8ff" stroke="#63b8ff" points="459.43,-406188.06 455.94,-406178.05 452.43,-406188.05 459.43,-406188.06"/>
</a>
</g>
</g>
<!-- Node22&#45;&gt;Node5 -->
<g id="edge37_Node000022_Node000005" class="edge">
<title>Node22&#45;&gt;Node5</title>
<g id="a_edge37_Node000022_Node000005"><a xlink:title=" ">
<path fill="none" stroke="#63b8ff" d="M615.19,-1721872.32C615.58,-1718524.84 729.3,-738906.85 610.19,-458673.95 602.14,-439749.54 586.69,-419067.85 570.45,-400545.16"/>
<polygon fill="#63b8ff" stroke="#63b8ff" points="573.95,-400545.22 570.44,-400535.22 566.95,-400545.22 573.95,-400545.22"/>
</a>
</g>
</g>
<!-- Node22&#45;&gt;Node9 -->
<g id="edge38_Node000022_Node000009" class="edge">
<title>Node22&#45;&gt;Node9</title>
<g id="a_edge38_Node000022_Node000009"><a xlink:title=" ">
<path fill="none" stroke="#63b8ff" d="M615.19,-1721872.29C614.93,-1719077.6 552.68,-1038348.12 552.19,-1032991.81"/>
<polygon fill="#63b8ff" stroke="#63b8ff" points="555.69,-1032991.84 552.19,-1032981.84 548.69,-1032991.84 555.69,-1032991.84"/>
</a>
</g>
</g>
</g>
</svg>

<g id="navigator" transform="translate(0 0)" fill="#404254">
  <rect fill="#f2f5e9" fill-opacity="0.5" stroke="#606060" stroke-width=".5" x="0" y="0" width="60" height="60"/>
  <use id="zoomplus" xlink:href="#zoomPlus" x="17" y="9" onmousedown="handleZoom(evt,'in')"/>
  <use id="zoomminus" xlink:href="#zoomMin" x="42" y="9" onmousedown="handleZoom(evt,'out')"/>
  <use id="reset" xlink:href="#resetDef" x="30" y="36" onmousedown="handleReset()"/>
   <use id="arrowup" xlink:href="#arrowUp" x="0" y="0" onmousedown="handlePan(0,-1)"/>
  <use id="arrowright" xlink:href="#arrowRight" x="0" y="0" onmousedown="handlePan(1,0)"/>
  <use id="arrowdown" xlink:href="#arrowDown" x="0" y="0" onmousedown="handlePan(0,1)"/>
  <use id="arrowleft" xlink:href="#arrowLeft" x="0" y="0" onmousedown="handlePan(-1,0)"/>
</g>
<svg viewBox="0 0 15 15" width="100%" height="30px" preserveAspectRatio="xMaxYMin meet">
 <g id="arrow_out" transform="scale(0.3 0.3)">
  <a xlink:href="readme__example_8c__incl_org.svg" target="_base">
   <rect id="button" ry="5" rx="5" y="6" x="6" height="38" width="38"
        fill="#f2f5e9" fill-opacity="0.5" stroke="#606060" stroke-width="1.0"/>
   <path id="arrow"
     d="M 11.500037,31.436501 C 11.940474,20.09759 22.043105,11.32322 32.158766,21.979434 L 37.068811,17.246167 C 37.068811,17.246167 37.088388,32 37.088388,32 L 22.160133,31.978069 C 22.160133,31.978069 26.997745,27.140456 26.997745,27.140456 C 18.528582,18.264221 13.291696,25.230495 11.500037,31.436501 z"
     style="fill:#404040;"/>
  </a>
 </g>
</svg>

<style type='text/css'>
<![CDATA[
[data-mouse-over-selected='false'] { opacity: 0.7; }
[data-mouse-over-selected='true']  { opacity: 1.0; }
]]>
</style>
<script type="application/ecmascript"><![CDATA[
document.addEventListener('DOMContentLoaded', (event) => {
  highlightEdges();
  highlightAdjacentNodes();
});
]]></script>
</svg>
