<?xml version="1.0" encoding="UTF-8" standalone="no"?>
<!DOCTYPE svg PUBLIC "-//W3C//DTD SVG 1.1//EN"
 "http://www.w3.org/Graphics/SVG/1.1/DTD/svg11.dtd">
<!-- Generated by graphviz version 8.0.5 (20230430.1635)
 -->
<!-- Title: examples/readme_example.c Pages: 1 -->
<svg width="1263pt" height="6603472pt"
 viewBox="0.00 0.00 1262.67 6603471.76" xmlns="http://www.w3.org/2000/svg" xmlns:xlink="http://www.w3.org/1999/xlink">
<g id="graph0" class="graph" transform="scale(1 1) rotate(0) translate(4 6603467.76)">
<title>examples/readme_example.c</title>
<!-- Node1 -->
<g id="node1" class="node">
<title>Node1</title>
<g id="a_node1"><a xlink:title=" ">
<polygon fill="#999999" stroke="#666666" points="514.57,-6603463.76 311.07,-6603463.76 311.07,-5282788.07 514.57,-5282788.07 514.57,-6603463.76"/>
<text text-anchor="middle" x="412.82" y="-6603450.26" font-family="Helvetica,sans-Serif" font-size="10.00">examples/readme_example.c</text>
</a>
</g>
</g>
<!-- Node2 -->
<g id="node2" class="node">
<title>Node2</title>
<g id="a_node2"><a xlink:title=" ">
<polygon fill="#e0e0e0" stroke="#999999" points="179.82,-4622420.72 103.82,-4622420.72 103.82,-4622391.22 179.82,-4622391.22 179.82,-4622420.72"/>
<text text-anchor="middle" x="141.82" y="-4622407.22" font-family="Helvetica,sans-Serif" font-size="10.00">assert.h</text>
</a>
</g>
</g>
<!-- Node1&#45;&gt;Node2 -->
<g id="edge1" class="edge">
<title>Node1&#45;&gt;Node2</title>
<path fill="none" stroke="#63b8ff" d="M310.57,-5680712.92C267.28,-5559573.71 220.72,-5413843.85 193.82,-5282752.07 133.88,-4990652.39 141.74,-4625872.89 141.82,-4622431.51"/>
<polygon fill="#63b8ff" stroke="#63b8ff" points="145.32,-4622431.74 141.82,-4622421.74 138.32,-4622431.74 145.32,-4622431.74"/>
</g>
<!-- Node3 -->
<g id="node3" class="node">
<title>Node3</title>
<g id="a_node3"><a xlink:href="sqsh_8h.html" target="_top" xlink:title=" ">
<polygon fill="white" stroke="#666666" points="648.32,-5282752.07 587.32,-5282752.07 587.32,-3962059.87 648.32,-3962059.87 648.32,-5282752.07"/>
<text text-anchor="middle" x="617.82" y="-5282738.57" font-family="Helvetica,sans-Serif" font-size="10.00">sqsh.h</text>
</a>
</g>
</g>
<!-- Node1&#45;&gt;Node3 -->
<g id="edge2" class="edge">
<title>Node1&#45;&gt;Node3</title>
<path fill="none" stroke="#63b8ff" d="M515.07,-5284377.04C541.24,-5115784.78 567.43,-4947052.5 586.82,-4822136"/>
<polygon fill="#63b8ff" stroke="#63b8ff" points="590.32,-4822136.28 586.82,-4822126.28 583.32,-4822136.28 590.32,-4822136.28"/>
</g>
<!-- Node14 -->
<g id="node14" class="node">
<title>Node14</title>
<g id="a_node14"><a xlink:title=" ">
<polygon fill="#e0e0e0" stroke="#999999" points="289.07,-1980973.31 220.57,-1980973.31 220.57,-1980954.81 289.07,-1980954.81 289.07,-1980973.31"/>
<text text-anchor="middle" x="254.82" y="-1980959.81" font-family="Helvetica,sans-Serif" font-size="10.00">stdio.h</text>
</a>
</g>
</g>
<!-- Node1&#45;&gt;Node14 -->
<g id="edge34" class="edge">
<title>Node1&#45;&gt;Node14</title>
<path fill="none" stroke="#63b8ff" d="M335.32,-5282787.66C293.99,-4897569.32 247.48,-4402279.88 226.82,-3962023.87 199.26,-3375057.37 214.37,-3228315.74 226.82,-2641349.24 233.01,-2349080.07 254.63,-1984051.04 254.82,-1980984.51"/>
<polygon fill="#63b8ff" stroke="#63b8ff" points="258.32,-1980984.72 254.82,-1980974.72 251.32,-1980984.72 258.32,-1980984.72"/>
</g>
<!-- Node22 -->
<g id="node22" class="node">
<title>Node22</title>
<g id="a_node22"><a xlink:title=" ">
<polygon fill="#e0e0e0" stroke="#999999" points="742.82,-4622415.22 666.82,-4622415.22 666.82,-4622396.72 742.82,-4622396.72 742.82,-4622415.22"/>
<text text-anchor="middle" x="704.82" y="-4622401.72" font-family="Helvetica,sans-Serif" font-size="10.00">stdlib.h</text>
</a>
</g>
</g>
<!-- Node1&#45;&gt;Node22 -->
<g id="edge35" class="edge">
<title>Node1&#45;&gt;Node22</title>
<path fill="none" stroke="#63b8ff" d="M515.07,-5713099.37C567.23,-5586180.6 626.2,-5425756.64 657.82,-5282752.07 722.43,-4990500.21 704.97,-4625492.77 704.82,-4622426.42"/>
<polygon fill="#63b8ff" stroke="#63b8ff" points="708.32,-4622426.64 704.82,-4622416.64 701.32,-4622426.64 708.32,-4622426.64"/>
</g>
<!-- Node4 -->
<g id="node4" class="node">
<title>Node4</title>
<g id="a_node4"><a xlink:href="sqsh__archive_8h.html" target="_top" xlink:title=" ">
<polygon fill="white" stroke="#666666" points="1045.32,-3301699.55 924.32,-3301699.55 924.32,-3301673.55 1045.32,-3301673.55 1045.32,-3301699.55"/>
<text text-anchor="middle" x="984.82" y="-3301686.05" font-family="Helvetica,sans-Serif" font-size="10.00">sqsh_archive.h</text>
</a>
</g>
</g>
<!-- Node3&#45;&gt;Node4 -->
<g id="edge3" class="edge">
<title>Node3&#45;&gt;Node4</title>
<path fill="none" stroke="#63b8ff" d="M586.82,-4592200.23C458.14,-4462932.4 2.71,-3962813.1 657.82,-3962059.87 733.51,-3961972.84 839.12,-3962110.9 914.82,-3962023.87 914.82,-3962023.87 984.34,-3306190.84 984.82,-3301710.61"/>
<polygon fill="#63b8ff" stroke="#63b8ff" points="988.32,-3301710.94 984.82,-3301700.94 981.32,-3301710.94 988.32,-3301710.94"/>
</g>
<!-- Node5 -->
<g id="node5" class="node">
<title>Node5</title>
<g id="a_node5"><a xlink:href="sqsh__common_8h.html" target="_top" xlink:title=" ">
<polygon fill="white" stroke="#666666" points="847.57,-1320578.88 734.07,-1320578.88 734.07,-1320560.38 847.57,-1320560.38 847.57,-1320578.88"/>
<text text-anchor="middle" x="790.82" y="-1320565.38" font-family="Helvetica,sans-Serif" font-size="10.00">sqsh_common.h</text>
</a>
</g>
</g>
<!-- Node3&#45;&gt;Node5 -->
<g id="edge10" class="edge">
<title>Node3&#45;&gt;Node5</title>
<path fill="none" stroke="#63b8ff" d="M586.82,-4593236.48C455.18,-4465627.18 -20.44,-3962795.98 657.82,-3962059.87 724.14,-3961987.89 1030.49,-3962095.86 1096.82,-3962023.87 1096.82,-3962023.87 1173.82,-2641313.24 1173.82,-2641313.24 1173.82,-2641313.24 1173.82,-1320614.88 1173.82,-1320614.88 1153.25,-1320591.8 962.97,-1320578.99 858.59,-1320573.64"/>
<polygon fill="#63b8ff" stroke="#63b8ff" points="859.01,-1320570.11 848.84,-1320573.1 858.65,-1320577.1 859.01,-1320570.11"/>
</g>
<!-- Node10 -->
<g id="node10" class="node">
<title>Node10</title>
<g id="a_node10"><a xlink:href="sqsh__directory_8h.html" target="_top" xlink:title=" ">
<polygon fill="white" stroke="#666666" points="781.82,-3301699.55 645.82,-3301699.55 645.82,-3301673.55 781.82,-3301673.55 781.82,-3301699.55"/>
<text text-anchor="middle" x="713.82" y="-3301686.05" font-family="Helvetica,sans-Serif" font-size="10.00">sqsh_directory.h</text>
</a>
</g>
</g>
<!-- Node3&#45;&gt;Node10 -->
<g id="edge11" class="edge">
<title>Node3&#45;&gt;Node10</title>
<path fill="none" stroke="#63b8ff" d="M648.82,-4092063.19C651.73,-4048083.76 654.75,-4004311.48 657.82,-3962059.87 679.05,-3669912.32 713.5,-3305064.14 713.82,-3301710.84"/>
<polygon fill="#63b8ff" stroke="#63b8ff" points="717.32,-3301710.94 713.82,-3301700.94 710.32,-3301710.94 717.32,-3301710.94"/>
</g>
<!-- Node11 -->
<g id="node11" class="node">
<title>Node11</title>
<g id="a_node11"><a xlink:href="sqsh__file_8h.html" target="_top" xlink:title=" ">
<polygon fill="white" stroke="#666666" points="711.07,-2641313.24 612.57,-2641313.24 612.57,-1320614.88 711.07,-1320614.88 711.07,-2641313.24"/>
<text text-anchor="middle" x="661.82" y="-2641299.74" font-family="Helvetica,sans-Serif" font-size="10.00">sqsh_file.h</text>
</a>
</g>
</g>
<!-- Node3&#45;&gt;Node11 -->
<g id="edge21" class="edge">
<title>Node3&#45;&gt;Node11</title>
<path fill="none" stroke="#63b8ff" d="M619.48,-3962059.4C621.62,-3576853.21 626.37,-3081586.26 636.82,-2641349.24 636.82,-2641340.97 636.82,-2641332.7 636.82,-2641324.42"/>
<polygon fill="#63b8ff" stroke="#63b8ff" points="640.32,-2641324.55 636.82,-2641314.55 633.32,-2641324.55 640.32,-2641324.55"/>
</g>
<!-- Node12 -->
<g id="node12" class="node">
<title>Node12</title>
<g id="a_node12"><a xlink:href="sqsh__easy_8h.html" target="_top" xlink:title=" ">
<polygon fill="white" stroke="#666666" points="180.07,-3962023.87 81.57,-3962023.87 81.57,-2641349.24 180.07,-2641349.24 180.07,-3962023.87"/>
<text text-anchor="middle" x="130.82" y="-3962010.37" font-family="Helvetica,sans-Serif" font-size="10.00">sqsh_easy.h</text>
</a>
</g>
</g>
<!-- Node3&#45;&gt;Node12 -->
<g id="edge14" class="edge">
<title>Node3&#45;&gt;Node12</title>
<path fill="none" stroke="#63b8ff" d="M586.82,-4580913.49C510.43,-4476802.34 313.12,-4196081.57 226.82,-3962023.87 207.99,-3910960.04 192.81,-3857675.02 180.57,-3804487.63"/>
<polygon fill="#63b8ff" stroke="#63b8ff" points="184.07,-3804487.67 180.57,-3804477.67 177.07,-3804487.67 184.07,-3804487.67"/>
</g>
<!-- Node16 -->
<g id="node16" class="node">
<title>Node16</title>
<g id="a_node16"><a xlink:href="sqsh__error_8h.html" target="_top" xlink:title=" ">
<polygon fill="white" stroke="#666666" points="1040.82,-1980973.31 934.82,-1980973.31 934.82,-1980954.81 1040.82,-1980954.81 1040.82,-1980973.31"/>
<text text-anchor="middle" x="987.82" y="-1980959.81" font-family="Helvetica,sans-Serif" font-size="10.00">sqsh_error.h</text>
</a>
</g>
</g>
<!-- Node3&#45;&gt;Node16 -->
<g id="edge19" class="edge">
<title>Node3&#45;&gt;Node16</title>
<path fill="none" stroke="#63b8ff" d="M586.82,-4593086.74C455.62,-4465234.74 -17,-3962798.61 657.82,-3962059.87 717.56,-3961994.47 995.07,-3962089.28 1054.82,-3962023.87 1054.82,-3962023.87 1054.82,-2641349.24 1054.82,-2641349.24 1053.7,-2641333.12 1050.93,-2641329.35 1049.82,-2641313.24 892.12,-2639033.01 987.22,-1985092.69 987.81,-1980984.49"/>
<polygon fill="#63b8ff" stroke="#63b8ff" points="991.31,-1980984.8 987.82,-1980974.8 984.31,-1980984.8 991.31,-1980984.8"/>
</g>
<!-- Node17 -->
<g id="node17" class="node">
<title>Node17</title>
<g id="a_node17"><a xlink:href="sqsh__mapper_8h.html" target="_top" xlink:title=" ">
<polygon fill="white" stroke="#666666" points="349.57,-3301695.8 236.07,-3301695.8 236.07,-3301677.3 349.57,-3301677.3 349.57,-3301695.8"/>
<text text-anchor="middle" x="292.82" y="-3301682.3" font-family="Helvetica,sans-Serif" font-size="10.00">sqsh_mapper.h</text>
</a>
</g>
</g>
<!-- Node3&#45;&gt;Node17 -->
<g id="edge22" class="edge">
<title>Node3&#45;&gt;Node17</title>
<path fill="none" stroke="#63b8ff" d="M586.82,-4559055.51C530.62,-4441419.18 412.76,-4181252.7 358.82,-3962023.87 286.9,-3669775.9 292.77,-3304773.32 292.82,-3301707.01"/>
<polygon fill="#63b8ff" stroke="#63b8ff" points="296.32,-3301707.22 292.82,-3301697.22 289.32,-3301707.22 296.32,-3301707.22"/>
</g>
<!-- Node18 -->
<g id="node18" class="node">
<title>Node18</title>
<g id="a_node18"><a xlink:href="sqsh__posix_8h.html" target="_top" xlink:title=" ">
<polygon fill="white" stroke="#666666" points="473.82,-3301707.8 367.82,-3301707.8 367.82,-3301665.31 473.82,-3301665.31 473.82,-3301707.8"/>
<text text-anchor="middle" x="420.82" y="-3301694.3" font-family="Helvetica,sans-Serif" font-size="10.00">sqsh_posix.h</text>
</a>
</g>
</g>
<!-- Node3&#45;&gt;Node18 -->
<g id="edge23" class="edge">
<title>Node3&#45;&gt;Node18</title>
<path fill="none" stroke="#63b8ff" d="M586.82,-4491593.06C556.25,-4358359.6 510.23,-4145806.79 482.82,-3962023.87 439.28,-3670116.07 421.01,-3305622.95 420.82,-3301719.18"/>
<polygon fill="#63b8ff" stroke="#63b8ff" points="424.32,-3301719.19 420.82,-3301709.19 417.32,-3301719.19 424.32,-3301719.19"/>
</g>
<!-- Node19 -->
<g id="node19" class="node">
<title>Node19</title>
<g id="a_node19"><a xlink:href="sqsh__table_8h.html" target="_top" xlink:title=" ">
<polygon fill="white" stroke="#666666" points="1164.82,-1980977.06 1058.82,-1980977.06 1058.82,-1980951.06 1164.82,-1980951.06 1164.82,-1980977.06"/>
<text text-anchor="middle" x="1111.82" y="-1980963.56" font-family="Helvetica,sans-Serif" font-size="10.00">sqsh_table.h</text>
</a>
</g>
</g>
<!-- Node3&#45;&gt;Node19 -->
<g id="edge26" class="edge">
<title>Node3&#45;&gt;Node19</title>
<path fill="none" stroke="#63b8ff" d="M586.82,-4593140.32C455.46,-4465375.04 -18.23,-3962797.68 657.82,-3962059.87 719.76,-3961992.27 1006.88,-3962091.47 1068.82,-3962023.87 1068.82,-3962023.87 1111.65,-1988813.63 1111.82,-1980988.39"/>
<polygon fill="#63b8ff" stroke="#63b8ff" points="1115.32,-1980988.53 1111.82,-1980978.53 1108.32,-1980988.53 1115.32,-1980988.53"/>
</g>
<!-- Node20 -->
<g id="node20" class="node">
<title>Node20</title>
<g id="a_node20"><a xlink:href="sqsh__tree_8h.html" target="_top" xlink:title=" ">
<polygon fill="white" stroke="#666666" points="590.07,-3301695.8 491.57,-3301695.8 491.57,-3301677.3 590.07,-3301677.3 590.07,-3301695.8"/>
<text text-anchor="middle" x="540.82" y="-3301682.3" font-family="Helvetica,sans-Serif" font-size="10.00">sqsh_tree.h</text>
</a>
</g>
</g>
<!-- Node3&#45;&gt;Node20 -->
<g id="edge28" class="edge">
<title>Node3&#45;&gt;Node20</title>
<path fill="none" stroke="#63b8ff" d="M586.82,-4090688.01C565.51,-3725194.64 541.01,-3305006.93 540.82,-3301707.11"/>
<polygon fill="#63b8ff" stroke="#63b8ff" points="544.32,-3301707.27 540.82,-3301697.27 537.32,-3301707.27 544.32,-3301707.27"/>
</g>
<!-- Node21 -->
<g id="node21" class="node">
<title>Node21</title>
<g id="a_node21"><a xlink:href="sqsh__xattr_8h.html" target="_top" xlink:title=" ">
<polygon fill="white" stroke="#666666" points="905.82,-3301695.8 799.82,-3301695.8 799.82,-3301677.3 905.82,-3301677.3 905.82,-3301695.8"/>
<text text-anchor="middle" x="852.82" y="-3301682.3" font-family="Helvetica,sans-Serif" font-size="10.00">sqsh_xattr.h</text>
</a>
</g>
</g>
<!-- Node3&#45;&gt;Node21 -->
<g id="edge31" class="edge">
<title>Node3&#45;&gt;Node21</title>
<path fill="none" stroke="#63b8ff" d="M586.82,-4589552.83C465.07,-4456259.92 55.17,-3962847.28 657.82,-3962059.87 695.04,-3962011.24 753.6,-3962072.5 790.82,-3962023.87 790.82,-3962023.87 852.43,-3305829.4 852.82,-3301707.06"/>
<polygon fill="#63b8ff" stroke="#63b8ff" points="856.32,-3301707.07 852.82,-3301697.07 849.32,-3301707.07 856.32,-3301707.07"/>
</g>
<!-- Node4&#45;&gt;Node5 -->
<g id="edge4" class="edge">
<title>Node4&#45;&gt;Node5</title>
<path fill="none" stroke="#63b8ff" d="M984.82,-3301673.17C984.54,-3299223.24 943.09,-2933826.79 925.82,-2641313.24 925.82,-2641313.24 887.82,-1320614.88 887.82,-1320614.88 878.04,-1320599.66 861.59,-1320589.61 844.99,-1320583.01"/>
<polygon fill="#63b8ff" stroke="#63b8ff" points="846.29,-1320579.4 835.69,-1320579.32 843.93,-1320585.99 846.29,-1320579.4"/>
</g>
<!-- Node9 -->
<g id="node9" class="node">
<title>Node9</title>
<g id="a_node9"><a xlink:href="sqsh__data_8h.html" target="_top" xlink:title=" ">
<polygon fill="white" stroke="#666666" points="879.07,-1980977.06 780.57,-1980977.06 780.57,-1980951.06 879.07,-1980951.06 879.07,-1980977.06"/>
<text text-anchor="middle" x="829.82" y="-1980963.56" font-family="Helvetica,sans-Serif" font-size="10.00">sqsh_data.h</text>
</a>
</g>
</g>
<!-- Node4&#45;&gt;Node9 -->
<g id="edge8" class="edge">
<title>Node4&#45;&gt;Node9</title>
<path fill="none" stroke="#63b8ff" d="M984.82,-3301673.18C985.24,-3298387.54 1069.71,-2641899.63 914.82,-2641349.24 909.74,-2641331.19 897.9,-2641331.29 892.82,-2641313.24 738.07,-2640763.34 829.19,-1985464.67 829.81,-1980988.1"/>
<polygon fill="#63b8ff" stroke="#63b8ff" points="833.31,-1980988.43 829.82,-1980978.43 826.31,-1980988.43 833.31,-1980988.43"/>
</g>
<!-- Node6 -->
<g id="node6" class="node">
<title>Node6</title>
<g id="a_node6"><a xlink:title=" ">
<polygon fill="#e0e0e0" stroke="#999999" points="734.57,-660271.44 651.07,-660271.44 651.07,-660252.94 734.57,-660252.94 734.57,-660271.44"/>
<text text-anchor="middle" x="692.82" y="-660257.94" font-family="Helvetica,sans-Serif" font-size="10.00">stdbool.h</text>
</a>
</g>
</g>
<!-- Node5&#45;&gt;Node6 -->
<g id="edge5" class="edge">
<title>Node5&#45;&gt;Node6</title>
<path fill="none" stroke="#63b8ff" d="M776.75,-1320560.09C765.47,-1320552.35 750.48,-1320539.81 743.82,-1320524.38 -162.54,-1318426.41 687.44,-664391.42 692.79,-660282.63"/>
<polygon fill="#63b8ff" stroke="#63b8ff" points="696.29,-660282.93 692.81,-660272.93 689.29,-660282.93 696.29,-660282.93"/>
</g>
<!-- Node7 -->
<g id="node7" class="node">
<title>Node7</title>
<g id="a_node7"><a xlink:title=" ">
<polygon fill="#e0e0e0" stroke="#999999" points="828.82,-660271.44 752.82,-660271.44 752.82,-660252.94 828.82,-660252.94 828.82,-660271.44"/>
<text text-anchor="middle" x="790.82" y="-660257.94" font-family="Helvetica,sans-Serif" font-size="10.00">stddef.h</text>
</a>
</g>
</g>
<!-- Node5&#45;&gt;Node7 -->
<g id="edge6" class="edge">
<title>Node5&#45;&gt;Node7</title>
<path fill="none" stroke="#63b8ff" d="M790.82,-1320560.11C790.82,-1317839.52 790.82,-664387.73 790.82,-660282.61"/>
<polygon fill="#63b8ff" stroke="#63b8ff" points="794.32,-660282.92 790.82,-660272.92 787.32,-660282.92 794.32,-660282.92"/>
</g>
<!-- Node8 -->
<g id="node8" class="node">
<title>Node8</title>
<g id="a_node8"><a xlink:title=" ">
<polygon fill="#e0e0e0" stroke="#999999" points="922.82,-1320524.38 846.82,-1320524.38 846.82,0 922.82,0 922.82,-1320524.38"/>
<text text-anchor="middle" x="884.82" y="-1320510.88" font-family="Helvetica,sans-Serif" font-size="10.00">stdint.h</text>
</a>
</g>
</g>
<!-- Node5&#45;&gt;Node8 -->
<g id="edge7" class="edge">
<title>Node5&#45;&gt;Node8</title>
<path fill="none" stroke="#63b8ff" d="M804.89,-1320560.09C816.16,-1320552.35 831.15,-1320539.81 837.82,-1320524.38 1627.85,-1318695.67 1080.42,-821535.29 923.33,-691229.38"/>
<polygon fill="#63b8ff" stroke="#63b8ff" points="926.83,-691229.57 923.32,-691219.57 919.83,-691229.58 926.83,-691229.57"/>
</g>
<!-- Node9&#45;&gt;Node5 -->
<g id="edge9" class="edge">
<title>Node9&#45;&gt;Node5</title>
<path fill="none" stroke="#63b8ff" d="M829.82,-1980950.67C829.62,-1977672.34 791.06,-1324692.19 790.82,-1320590.03"/>
<polygon fill="#63b8ff" stroke="#63b8ff" points="794.32,-1320590.35 790.82,-1320580.35 787.32,-1320590.35 794.32,-1320590.35"/>
</g>
<!-- Node10&#45;&gt;Node11 -->
<g id="edge12" class="edge">
<title>Node10&#45;&gt;Node11</title>
<path fill="none" stroke="#63b8ff" d="M713.82,-3301673.16C713.73,-3299347.85 700.77,-2970336.07 687.82,-2641324.54"/>
<polygon fill="#63b8ff" stroke="#63b8ff" points="691.32,-2641324.72 687.82,-2641314.72 684.32,-2641324.72 691.32,-2641324.72"/>
</g>
<!-- Node11&#45;&gt;Node5 -->
<g id="edge13" class="edge">
<title>Node11&#45;&gt;Node5</title>
<path fill="none" stroke="#63b8ff" d="M612.07,-1676838.02C597.59,-1503671.26 612.29,-1320888.64 738.82,-1320614.88 744.41,-1320602.76 755.14,-1320592.75 765.4,-1320585.33"/>
<polygon fill="#63b8ff" stroke="#63b8ff" points="767.15,-1320587.71 773.54,-1320579.26 763.27,-1320581.88 767.15,-1320587.71"/>
</g>
<!-- Node12&#45;&gt;Node5 -->
<g id="edge15" class="edge">
<title>Node12&#45;&gt;Node5</title>
<path fill="none" stroke="#63b8ff" d="M173.82,-2641348.93C173.82,-2641337.03 173.82,-2641325.13 173.82,-2641313.24 173.82,-2641313.24 211.82,-1320614.88 211.82,-1320614.88 245.92,-1320578.07 577.08,-1320571.75 722.7,-1320570.76"/>
<polygon fill="#63b8ff" stroke="#63b8ff" points="722.71,-1320574.25 732.69,-1320570.69 722.67,-1320567.25 722.71,-1320574.25"/>
</g>
<!-- Node13 -->
<g id="node13" class="node">
<title>Node13</title>
<g id="a_node13"><a xlink:title=" ">
<polygon fill="#e0e0e0" stroke="#999999" points="165.07,-1980973.31 96.57,-1980973.31 96.57,-1980954.81 165.07,-1980954.81 165.07,-1980973.31"/>
<text text-anchor="middle" x="130.82" y="-1980959.81" font-family="Helvetica,sans-Serif" font-size="10.00">fcntl.h</text>
</a>
</g>
</g>
<!-- Node12&#45;&gt;Node13 -->
<g id="edge16" class="edge">
<title>Node12&#45;&gt;Node13</title>
<path fill="none" stroke="#63b8ff" d="M130.82,-2641348.92C130.82,-2312620.58 130.82,-1983884.43 130.82,-1980984.39"/>
<polygon fill="#63b8ff" stroke="#63b8ff" points="134.32,-1980984.55 130.82,-1980974.55 127.32,-1980984.55 134.32,-1980984.55"/>
</g>
<!-- Node12&#45;&gt;Node14 -->
<g id="edge17" class="edge">
<title>Node12&#45;&gt;Node14</title>
<path fill="none" stroke="#63b8ff" d="M81.07,-3188878.07C6.26,-3000704.5 -97.51,-2643013.29 193.82,-2641349.24 196.75,-2641332.48 203.88,-2641329.99 206.82,-2641313.24 600.96,-2639061.8 256.99,-1985092.87 254.83,-1980984.5"/>
<polygon fill="#63b8ff" stroke="#63b8ff" points="258.33,-1980984.8 254.82,-1980974.8 251.33,-1980984.8 258.33,-1980984.8"/>
</g>
<!-- Node15 -->
<g id="node15" class="node">
<title>Node15</title>
<g id="a_node15"><a xlink:title=" ">
<polygon fill="#e0e0e0" stroke="#999999" points="78.32,-1980973.31 17.32,-1980973.31 17.32,-1980954.81 78.32,-1980954.81 78.32,-1980973.31"/>
<text text-anchor="middle" x="47.82" y="-1980959.81" font-family="Helvetica,sans-Serif" font-size="10.00">time.h</text>
</a>
</g>
</g>
<!-- Node12&#45;&gt;Node15 -->
<g id="edge18" class="edge">
<title>Node12&#45;&gt;Node15</title>
<path fill="none" stroke="#63b8ff" d="M87.82,-2641348.93C87.82,-2641337.03 87.82,-2641325.13 87.82,-2641313.24 69.45,-2349060 48,-1984050.87 47.82,-1980984.51"/>
<polygon fill="#63b8ff" stroke="#63b8ff" points="51.32,-1980984.72 47.82,-1980974.72 44.32,-1980984.72 51.32,-1980984.72"/>
</g>
<!-- Node16&#45;&gt;Node5 -->
<g id="edge20" class="edge">
<title>Node16&#45;&gt;Node5</title>
<path fill="none" stroke="#63b8ff" d="M987.82,-1980954.54C987.54,-1978225.2 920.82,-1320614.88 920.82,-1320614.88 906.31,-1320594.61 881.97,-1320583.52 858.26,-1320577.49"/>
<polygon fill="#63b8ff" stroke="#63b8ff" points="859.33,-1320573.91 848.8,-1320575.13 857.79,-1320580.74 859.33,-1320573.91"/>
</g>
<!-- Node18&#45;&gt;Node5 -->
<g id="edge24" class="edge">
<title>Node18&#45;&gt;Node5</title>
<path fill="none" stroke="#63b8ff" d="M420.82,-3301664.98C421.33,-3294316.61 557.82,-1320614.88 557.82,-1320614.88 578.47,-1320589.93 661.72,-1320578.93 722.84,-1320574.16"/>
<polygon fill="#63b8ff" stroke="#63b8ff" points="722.87,-1320577.6 732.59,-1320573.37 722.36,-1320570.61 722.87,-1320577.6"/>
</g>
<!-- Node18&#45;&gt;Node14 -->
<g id="edge25" class="edge">
<title>Node18&#45;&gt;Node14</title>
<path fill="none" stroke="#63b8ff" d="M420.82,-3301664.92C420.6,-3298507.42 395.54,-2933560.24 358.82,-2641349.24 322.08,-2349080.07 255.38,-1984051.04 254.82,-1980984.51"/>
<polygon fill="#63b8ff" stroke="#63b8ff" points="258.32,-1980984.72 254.82,-1980974.72 251.32,-1980984.72 258.32,-1980984.72"/>
</g>
<!-- Node19&#45;&gt;Node5 -->
<g id="edge27" class="edge">
<title>Node19&#45;&gt;Node5</title>
<path fill="none" stroke="#63b8ff" d="M1111.82,-1980950.67C1111.51,-1977662.23 1049.82,-1320614.88 1049.82,-1320614.88 1025.8,-1320586.41 927.08,-1320576.26 858.7,-1320572.63"/>
<polygon fill="#63b8ff" stroke="#63b8ff" points="859.16,-1320569.1 849,-1320572.11 858.82,-1320576.09 859.16,-1320569.1"/>
</g>
<!-- Node20&#45;&gt;Node5 -->
<g id="edge29" class="edge">
<title>Node20&#45;&gt;Node5</title>
<path fill="none" stroke="#63b8ff" d="M540.82,-3301677.14C540.97,-3296972.68 603.82,-1320614.88 603.82,-1320614.88 618.7,-1320596.06 675.86,-1320584.42 723.12,-1320577.83"/>
<polygon fill="#63b8ff" stroke="#63b8ff" points="723.51,-1320581.18 732.95,-1320576.38 722.58,-1320574.24 723.51,-1320581.18"/>
</g>
<!-- Node20&#45;&gt;Node11 -->
<g id="edge30" class="edge">
<title>Node20&#45;&gt;Node11</title>
<path fill="none" stroke="#63b8ff" d="M540.82,-3301677.06C541.02,-3299521 578.78,-2887286.98 612.07,-2523999.11"/>
<polygon fill="#63b8ff" stroke="#63b8ff" points="615.57,-2523999.2 612.07,-2523989.2 608.57,-2523999.2 615.57,-2523999.2"/>
</g>
<!-- Node21&#45;&gt;Node5 -->
<g id="edge32" class="edge">
<title>Node21&#45;&gt;Node5</title>
<path fill="none" stroke="#63b8ff" d="M852.82,-3301677.04C853.13,-3298950.05 928.38,-2641904.47 790.82,-2641349.24 786.47,-2641331.68 776.17,-2641330.8 771.82,-2641313.24 771.82,-2641313.24 771.82,-1320614.88 771.82,-1320614.88 773.65,-1320605.97 777.35,-1320596.64 781.01,-1320588.86"/>
<polygon fill="#63b8ff" stroke="#63b8ff" points="784.56,-1320590.6 785.94,-1320580.1 778.31,-1320587.45 784.56,-1320590.6"/>
</g>
<!-- Node21&#45;&gt;Node9 -->
<g id="edge33" class="edge">
<title>Node21&#45;&gt;Node9</title>
<path fill="none" stroke="#63b8ff" d="M852.82,-3301677.06C852.75,-3297828.45 829.93,-1987344.04 829.82,-1980988.25"/>
<polygon fill="#63b8ff" stroke="#63b8ff" points="833.32,-1980988.42 829.82,-1980978.42 826.32,-1980988.42 833.32,-1980988.42"/>
</g>
</g>
</svg>
