<?xml version="1.0" encoding="UTF-8" standalone="no"?>
<!DOCTYPE svg PUBLIC "-//W3C//DTD SVG 1.1//EN"
 "http://www.w3.org/Graphics/SVG/1.1/DTD/svg11.dtd">
<!-- Generated by graphviz version 8.0.5 (20230430.1635)
 -->
<!-- Title: libsqsh/include/sqsh_directory_private.h Pages: 1 -->
<!--zoomable 286 -->
<svg id="main" version="1.1" xmlns="http://www.w3.org/2000/svg" xmlns:xlink="http://www.w3.org/1999/xlink" xml:space="preserve" onload="init(evt)">
<style type="text/css"><![CDATA[
.edge:hover path { stroke: red; }
.edge:hover polygon { stroke: red; fill: red; }
]]></style>
<script type="text/javascript"><![CDATA[
var edges = document.getElementsByTagName('g');
if (edges && edges.length) {
  for (var i=0;i<edges.length;i++) {
    if (edges[i].id.substr(0,4)=='edge') {
      edges[i].setAttribute('class','edge');
    }
  }
}
]]></script>
        <defs>
                <circle id="rim" cx="0" cy="0" r="7"/>
                <circle id="rim2" cx="0" cy="0" r="3.5"/>
                <g id="zoomPlus">
                        <use xlink:href="#rim" fill="#404040">
                                <set attributeName="fill" to="#808080" begin="zoomplus.mouseover" end="zoomplus.mouseout"/>
                        </use>
                        <path d="M-4,0h8M0,-4v8" fill="none" stroke="white" stroke-width="1.5" pointer-events="none"/>
                </g>
                <g id="zoomMin">
                        <use xlink:href="#rim" fill="#404040">
                                <set attributeName="fill" to="#808080" begin="zoomminus.mouseover" end="zoomminus.mouseout"/>
                        </use>
                        <path d="M-4,0h8" fill="none" stroke="white" stroke-width="1.5" pointer-events="none"/>
                </g>
                <g id="dirArrow">
                        <path fill="none" stroke="white" stroke-width="1.5" d="M0,-3.0v7 M-2.5,-0.5L0,-3.0L2.5,-0.5"/>
                </g>
               <g id="resetDef">
                       <use xlink:href="#rim2" fill="#404040">
                               <set attributeName="fill" to="#808080" begin="reset.mouseover" end="reset.mouseout"/>
                       </use>
               </g>
        </defs>

<script type="text/javascript">
var viewWidth = 1089;
var viewHeight = 286;
var sectionId = 'dynsection-0';
</script>
<script xlink:href="svgpan.js"/>
<svg id="graph" class="graph">
<g id="viewport">
<title>libsqsh/include/sqsh_directory_private.h</title>
<!-- Node1 -->
<g id="node1" class="node">
<title>Node1</title>
<g id="a_node1"><a xlink:title=" ">
<polygon fill="#999999" stroke="#666666" points="554.75,-278.36 388.75,-278.36 388.75,-249.36 554.75,-249.36 554.75,-278.36"/>
<text text-anchor="start" x="396.75" y="-264.86" font-family="Helvetica,sans-Serif" font-size="10.00">libsqsh/include/sqsh</text>
<text text-anchor="middle" x="471.75" y="-254.36" font-family="Helvetica,sans-Serif" font-size="10.00">_directory_private.h</text>
</a>
</g>
</g>
<!-- Node2 -->
<g id="node2" class="node">
<title>Node2</title>
<g id="a_node2"><a xlink:href="sqsh__directory_8h.html" target="_top" xlink:title=" ">
<polygon fill="white" stroke="#666666" points="374.75,-213.36 238.75,-213.36 238.75,-194.86 374.75,-194.86 374.75,-213.36"/>
<text text-anchor="middle" x="306.75" y="-199.86" font-family="Helvetica,sans-Serif" font-size="10.00">sqsh_directory.h</text>
</a>
</g>
</g>
<!-- Node1&#45;&gt;Node2 -->
<g id="edge1" class="edge">
<title>Node1&#45;&gt;Node2</title>
<path fill="none" stroke="#63b8ff" d="M431.81,-248.88C404.31,-239.25 368.13,-226.59 341.77,-217.36"/>
<polygon fill="#63b8ff" stroke="#63b8ff" points="343.07,-213.76 332.47,-213.76 340.76,-220.37 343.07,-213.76"/>
</g>
<!-- Node8 -->
<g id="node8" class="node">
<title>Node8</title>
<g id="a_node8"><a xlink:href="sqsh__file__private_8h.html" target="_top" xlink:title=" ">
<polygon fill="white" stroke="#666666" points="551,-213.36 392.5,-213.36 392.5,-194.86 551,-194.86 551,-213.36"/>
<text text-anchor="middle" x="471.75" y="-199.86" font-family="Helvetica,sans-Serif" font-size="10.00">sqsh_file_private.h</text>
</a>
</g>
</g>
<!-- Node1&#45;&gt;Node8 -->
<g id="edge7" class="edge">
<title>Node1&#45;&gt;Node8</title>
<path fill="none" stroke="#63b8ff" d="M471.75,-248.88C471.75,-241.61 471.75,-232.6 471.75,-224.65"/>
<polygon fill="#63b8ff" stroke="#63b8ff" points="475.25,-224.76 471.75,-214.76 468.25,-224.76 475.25,-224.76"/>
</g>
<!-- Node16 -->
<g id="node16" class="node">
<title>Node16</title>
<g id="a_node16"><a xlink:href="sqsh__metablock__private_8h.html" target="_top" xlink:title=" ">
<polygon fill="white" stroke="#666666" points="712.75,-158.86 516.75,-158.86 516.75,-140.36 712.75,-140.36 712.75,-158.86"/>
<text text-anchor="middle" x="614.75" y="-145.36" font-family="Helvetica,sans-Serif" font-size="10.00">sqsh_metablock_private.h</text>
</a>
</g>
</g>
<!-- Node1&#45;&gt;Node16 -->
<g id="edge22" class="edge">
<title>Node1&#45;&gt;Node16</title>
<path fill="none" stroke="#63b8ff" d="M502.27,-248.92C519.98,-240.06 542.19,-227.61 559.75,-213.36 576.22,-199.99 591.85,-181.38 602.21,-167.9"/>
<polygon fill="#63b8ff" stroke="#63b8ff" points="605.57,-170.25 608.75,-160.14 599.96,-166.05 605.57,-170.25"/>
</g>
<!-- Node3 -->
<g id="node3" class="node">
<title>Node3</title>
<g id="a_node3"><a xlink:href="sqsh__file_8h.html" target="_top" xlink:title=" ">
<polygon fill="white" stroke="#666666" points="356,-158.86 257.5,-158.86 257.5,-140.36 356,-140.36 356,-158.86"/>
<text text-anchor="middle" x="306.75" y="-145.36" font-family="Helvetica,sans-Serif" font-size="10.00">sqsh_file.h</text>
</a>
</g>
</g>
<!-- Node2&#45;&gt;Node3 -->
<g id="edge2" class="edge">
<title>Node2&#45;&gt;Node3</title>
<path fill="none" stroke="#63b8ff" d="M306.75,-194.44C306.75,-187.79 306.75,-178.35 306.75,-169.93"/>
<polygon fill="#63b8ff" stroke="#63b8ff" points="310.25,-170.11 306.75,-160.11 303.25,-170.11 310.25,-170.11"/>
</g>
<!-- Node4 -->
<g id="node4" class="node">
<title>Node4</title>
<g id="a_node4"><a xlink:href="sqsh__common_8h.html" target="_top" xlink:title=" ">
<polygon fill="white" stroke="#666666" points="243.5,-100.61 130,-100.61 130,-82.11 243.5,-82.11 243.5,-100.61"/>
<text text-anchor="middle" x="186.75" y="-87.11" font-family="Helvetica,sans-Serif" font-size="10.00">sqsh_common.h</text>
</a>
</g>
</g>
<!-- Node3&#45;&gt;Node4 -->
<g id="edge3" class="edge">
<title>Node3&#45;&gt;Node4</title>
<path fill="none" stroke="#63b8ff" d="M288.26,-139.94C268.65,-130.75 237.43,-116.11 214.79,-105.5"/>
<polygon fill="#63b8ff" stroke="#63b8ff" points="216.6,-102.02 206.06,-100.94 213.63,-108.35 216.6,-102.02"/>
</g>
<!-- Node5 -->
<g id="node5" class="node">
<title>Node5</title>
<g id="a_node5"><a xlink:title=" ">
<polygon fill="#e0e0e0" stroke="#999999" points="83.5,-34.18 0,-34.18 0,-8.18 83.5,-8.18 83.5,-34.18"/>
<text text-anchor="middle" x="41.75" y="-20.68" font-family="Helvetica,sans-Serif" font-size="10.00">stdbool.h</text>
</a>
</g>
</g>
<!-- Node4&#45;&gt;Node5 -->
<g id="edge4" class="edge">
<title>Node4&#45;&gt;Node5</title>
<path fill="none" stroke="#63b8ff" d="M168.39,-81.72C145.75,-71.08 106.77,-52.75 78.02,-39.23"/>
<polygon fill="#63b8ff" stroke="#63b8ff" points="79.86,-35.76 69.32,-34.67 76.88,-42.09 79.86,-35.76"/>
</g>
<!-- Node6 -->
<g id="node6" class="node">
<title>Node6</title>
<g id="a_node6"><a xlink:title=" ">
<polygon fill="#e0e0e0" stroke="#999999" points="177.75,-42.36 101.75,-42.36 101.75,0 177.75,0 177.75,-42.36"/>
<text text-anchor="middle" x="139.75" y="-28.86" font-family="Helvetica,sans-Serif" font-size="10.00">stddef.h</text>
</a>
</g>
</g>
<!-- Node4&#45;&gt;Node6 -->
<g id="edge5" class="edge">
<title>Node4&#45;&gt;Node6</title>
<path fill="none" stroke="#63b8ff" d="M180.8,-81.72C175.55,-74.11 167.59,-62.56 160.07,-51.65"/>
<polygon fill="#63b8ff" stroke="#63b8ff" points="162.48,-49.98 153.92,-43.74 156.72,-53.96 162.48,-49.98"/>
</g>
<!-- Node7 -->
<g id="node7" class="node">
<title>Node7</title>
<g id="a_node7"><a xlink:title=" ">
<polygon fill="#e0e0e0" stroke="#999999" points="271.75,-30.43 195.75,-30.43 195.75,-11.93 271.75,-11.93 271.75,-30.43"/>
<text text-anchor="middle" x="233.75" y="-16.93" font-family="Helvetica,sans-Serif" font-size="10.00">stdint.h</text>
</a>
</g>
</g>
<!-- Node4&#45;&gt;Node7 -->
<g id="edge6" class="edge">
<title>Node4&#45;&gt;Node7</title>
<path fill="none" stroke="#63b8ff" d="M192.7,-81.72C200.02,-71.11 212.6,-52.86 221.91,-39.35"/>
<polygon fill="#63b8ff" stroke="#63b8ff" points="225.2,-41.75 227.99,-31.53 219.44,-37.78 225.2,-41.75"/>
</g>
<!-- Node8&#45;&gt;Node3 -->
<g id="edge8" class="edge">
<title>Node8&#45;&gt;Node3</title>
<path fill="none" stroke="#63b8ff" d="M444.5,-194.44C417.16,-185.74 374.82,-172.26 344.3,-162.55"/>
<polygon fill="#63b8ff" stroke="#63b8ff" points="345.63,-158.99 335.04,-159.29 343.5,-165.66 345.63,-158.99"/>
</g>
<!-- Node9 -->
<g id="node9" class="node">
<title>Node9</title>
<g id="a_node9"><a xlink:href="sqsh__extract__private_8h.html" target="_top" xlink:title=" ">
<polygon fill="white" stroke="#666666" points="896.25,-104.36 715.25,-104.36 715.25,-78.36 896.25,-78.36 896.25,-104.36"/>
<text text-anchor="middle" x="805.75" y="-90.86" font-family="Helvetica,sans-Serif" font-size="10.00">sqsh_extract_private.h</text>
</a>
</g>
</g>
<!-- Node8&#45;&gt;Node9 -->
<g id="edge9" class="edge">
<title>Node8&#45;&gt;Node9</title>
<path fill="none" stroke="#63b8ff" d="M474.04,-194.58C478.24,-180.75 488.53,-153.64 507.75,-140.36 516.06,-134.61 622.53,-118.37 705.86,-106.36"/>
<polygon fill="#63b8ff" stroke="#63b8ff" points="706.28,-109.69 715.68,-104.8 705.28,-102.76 706.28,-109.69"/>
</g>
<!-- Node12 -->
<g id="node12" class="node">
<title>Node12</title>
<g id="a_node12"><a xlink:href="sqsh__mapper__private_8h.html" target="_top" xlink:title=" ">
<polygon fill="white" stroke="#666666" points="697.5,-100.61 524,-100.61 524,-82.11 697.5,-82.11 697.5,-100.61"/>
<text text-anchor="middle" x="610.75" y="-87.11" font-family="Helvetica,sans-Serif" font-size="10.00">sqsh_mapper_private.h</text>
</a>
</g>
</g>
<!-- Node8&#45;&gt;Node12 -->
<g id="edge12" class="edge">
<title>Node8&#45;&gt;Node12</title>
<path fill="none" stroke="#63b8ff" d="M469.39,-194.4C466.38,-181.28 462.9,-156.28 474.75,-140.36 488.04,-122.49 508.52,-111.24 529.58,-104.17"/>
<polygon fill="#63b8ff" stroke="#63b8ff" points="530.38,-107.28 538.93,-101.03 528.35,-100.59 530.38,-107.28"/>
</g>
<!-- Node14 -->
<g id="node14" class="node">
<title>Node14</title>
<g id="a_node14"><a xlink:title=" ">
<polygon fill="#e0e0e0" stroke="#999999" points="463.5,-34.18 290,-34.18 290,-8.18 463.5,-8.18 463.5,-34.18"/>
<text text-anchor="middle" x="376.75" y="-20.68" font-family="Helvetica,sans-Serif" font-size="10.00">sqsh_reader_private.h</text>
</a>
</g>
</g>
<!-- Node8&#45;&gt;Node14 -->
<g id="edge21" class="edge">
<title>Node8&#45;&gt;Node14</title>
<path fill="none" stroke="#63b8ff" d="M467.17,-194.38C452.95,-167.29 409.26,-84.09 388.26,-44.09"/>
<polygon fill="#63b8ff" stroke="#63b8ff" points="390.96,-42.7 383.21,-35.48 384.76,-45.96 390.96,-42.7"/>
</g>
<!-- Node8&#45;&gt;Node16 -->
<g id="edge18" class="edge">
<title>Node8&#45;&gt;Node16</title>
<path fill="none" stroke="#63b8ff" d="M495.36,-194.44C518.65,-185.89 554.48,-172.73 580.81,-163.07"/>
<polygon fill="#63b8ff" stroke="#63b8ff" points="581.92,-166.02 590.1,-159.29 579.51,-159.45 581.92,-166.02"/>
</g>
<!-- Node10 -->
<g id="node10" class="node">
<title>Node10</title>
<g id="a_node10"><a xlink:title=" ">
<polygon fill="#e0e0e0" stroke="#999999" points="888.75,-34.18 722.75,-34.18 722.75,-8.18 888.75,-8.18 888.75,-34.18"/>
<text text-anchor="middle" x="805.75" y="-20.68" font-family="Helvetica,sans-Serif" font-size="10.00">cextras/collection.h</text>
</a>
</g>
</g>
<!-- Node9&#45;&gt;Node10 -->
<g id="edge10" class="edge">
<title>Node9&#45;&gt;Node10</title>
<path fill="none" stroke="#63b8ff" d="M805.75,-78.17C805.75,-68.96 805.75,-56.05 805.75,-44.95"/>
<polygon fill="#63b8ff" stroke="#63b8ff" points="809.25,-45.26 805.75,-35.26 802.25,-45.26 809.25,-45.26"/>
</g>
<!-- Node11 -->
<g id="node11" class="node">
<title>Node11</title>
<g id="a_node11"><a xlink:title=" ">
<polygon fill="#e0e0e0" stroke="#999999" points="1080.5,-30.43 907,-30.43 907,-11.93 1080.5,-11.93 1080.5,-30.43"/>
<text text-anchor="middle" x="993.75" y="-16.93" font-family="Helvetica,sans-Serif" font-size="10.00">sqsh_thread_private.h</text>
</a>
</g>
</g>
<!-- Node9&#45;&gt;Node11 -->
<g id="edge11" class="edge">
<title>Node9&#45;&gt;Node11</title>
<path fill="none" stroke="#63b8ff" d="M839.8,-78.01C873.84,-65.66 925.88,-46.79 959.87,-34.47"/>
<polygon fill="#63b8ff" stroke="#63b8ff" points="960.59,-37.56 968.8,-30.87 958.2,-30.98 960.59,-37.56"/>
</g>
<!-- Node12&#45;&gt;Node10 -->
<g id="edge16" class="edge">
<title>Node12&#45;&gt;Node10</title>
<path fill="none" stroke="#63b8ff" d="M635.45,-81.72C666.68,-70.8 721.07,-51.78 759.99,-38.18"/>
<polygon fill="#63b8ff" stroke="#63b8ff" points="760.73,-41.28 769.02,-34.67 758.42,-34.67 760.73,-41.28"/>
</g>
<!-- Node12&#45;&gt;Node11 -->
<g id="edge15" class="edge">
<title>Node12&#45;&gt;Node11</title>
<path fill="none" stroke="#63b8ff" d="M667.24,-81.62C725.2,-72.48 817.95,-57.41 897.75,-42.36 912.7,-39.54 928.9,-36.23 943.67,-33.12"/>
<polygon fill="#63b8ff" stroke="#63b8ff" points="944.07,-36.4 953.12,-30.89 942.61,-29.55 944.07,-36.4"/>
</g>
<!-- Node13 -->
<g id="node13" class="node">
<title>Node13</title>
<g id="a_node13"><a xlink:href="sqsh__mapper_8h.html" target="_top" xlink:title=" ">
<polygon fill="white" stroke="#666666" points="595.5,-30.43 482,-30.43 482,-11.93 595.5,-11.93 595.5,-30.43"/>
<text text-anchor="middle" x="538.75" y="-16.93" font-family="Helvetica,sans-Serif" font-size="10.00">sqsh_mapper.h</text>
</a>
</g>
</g>
<!-- Node12&#45;&gt;Node13 -->
<g id="edge13" class="edge">
<title>Node12&#45;&gt;Node13</title>
<path fill="none" stroke="#63b8ff" d="M601.63,-81.72C589.99,-70.7 569.64,-51.43 555.24,-37.8"/>
<polygon fill="#63b8ff" stroke="#63b8ff" points="558.24,-35.86 548.57,-31.53 553.42,-40.95 558.24,-35.86"/>
</g>
<!-- Node12&#45;&gt;Node14 -->
<g id="edge14" class="edge">
<title>Node12&#45;&gt;Node14</title>
<path fill="none" stroke="#63b8ff" d="M581.11,-81.72C543.23,-70.69 476.97,-51.38 430.18,-37.75"/>
<polygon fill="#63b8ff" stroke="#63b8ff" points="431.21,-34.11 420.63,-34.67 429.25,-40.83 431.21,-34.11"/>
</g>
<!-- Node15 -->
<g id="node15" class="node">
<title>Node15</title>
<g id="a_node15"><a xlink:title=" ">
<polygon fill="#e0e0e0" stroke="#999999" points="704.25,-34.18 613.25,-34.18 613.25,-8.18 704.25,-8.18 704.25,-34.18"/>
<text text-anchor="middle" x="658.75" y="-20.68" font-family="Helvetica,sans-Serif" font-size="10.00">sys/wait.h</text>
</a>
</g>
</g>
<!-- Node12&#45;&gt;Node15 -->
<g id="edge17" class="edge">
<title>Node12&#45;&gt;Node15</title>
<path fill="none" stroke="#63b8ff" d="M616.83,-81.72C623.57,-72.15 634.69,-56.35 643.78,-43.44"/>
<polygon fill="#63b8ff" stroke="#63b8ff" points="647.06,-45.86 649.95,-35.67 641.34,-41.83 647.06,-45.86"/>
</g>
<!-- Node16&#45;&gt;Node9 -->
<g id="edge19" class="edge">
<title>Node16&#45;&gt;Node9</title>
<path fill="none" stroke="#63b8ff" d="M644.18,-139.94C673.1,-131.42 717.88,-118.23 752.97,-107.9"/>
<polygon fill="#63b8ff" stroke="#63b8ff" points="753.92,-110.97 762.52,-104.79 751.94,-104.26 753.92,-110.97"/>
</g>
<!-- Node16&#45;&gt;Node12 -->
<g id="edge20" class="edge">
<title>Node16&#45;&gt;Node12</title>
<path fill="none" stroke="#63b8ff" d="M614.16,-140.31C613.63,-132.83 612.83,-121.56 612.13,-111.82"/>
<polygon fill="#63b8ff" stroke="#63b8ff" points="615.57,-111.79 611.37,-102.06 608.59,-112.28 615.57,-111.79"/>
</g>
</g>
</svg>
        <g id="navigator" transform="translate(0 0)" fill="#404254">
                <rect fill="#f2f5e9" fill-opacity="0.5" stroke="#606060" stroke-width=".5" x="0" y="0" width="60" height="60"/>
                <use id="zoomplus" xlink:href="#zoomPlus" x="17" y="9" onmousedown="handleZoom(evt,'in')"/>
                <use id="zoomminus" xlink:href="#zoomMin" x="42" y="9" onmousedown="handleZoom(evt,'out')"/>
                <use id="reset" xlink:href="#resetDef" x="30" y="36" onmousedown="handleReset()"/>
                <g id="arrowUp" xlink:href="#dirArrow" transform="translate(30 24)" onmousedown="handlePan(0,-1)">
                  <use xlink:href="#rim" fill="#404040">
                        <set attributeName="fill" to="#808080" begin="arrowUp.mouseover" end="arrowUp.mouseout"/>
                  </use>
                  <path fill="none" stroke="white" stroke-width="1.5" d="M0,-3.0v7 M-2.5,-0.5L0,-3.0L2.5,-0.5"/>
                </g>
                <g id="arrowRight" xlink:href="#dirArrow" transform="rotate(90) translate(36 -43)" onmousedown="handlePan(1,0)">
                  <use xlink:href="#rim" fill="#404040">
                        <set attributeName="fill" to="#808080" begin="arrowRight.mouseover" end="arrowRight.mouseout"/>
                  </use>
                  <path fill="none" stroke="white" stroke-width="1.5" d="M0,-3.0v7 M-2.5,-0.5L0,-3.0L2.5,-0.5"/>
                </g>
                <g id="arrowDown" xlink:href="#dirArrow" transform="rotate(180) translate(-30 -48)" onmousedown="handlePan(0,1)">
                  <use xlink:href="#rim" fill="#404040">
                        <set attributeName="fill" to="#808080" begin="arrowDown.mouseover" end="arrowDown.mouseout"/>
                  </use>
                  <path fill="none" stroke="white" stroke-width="1.5" d="M0,-3.0v7 M-2.5,-0.5L0,-3.0L2.5,-0.5"/>
                </g>
                <g id="arrowLeft" xlink:href="#dirArrow" transform="rotate(270) translate(-36 17)" onmousedown="handlePan(-1,0)">
                  <use xlink:href="#rim" fill="#404040">
                        <set attributeName="fill" to="#808080" begin="arrowLeft.mouseover" end="arrowLeft.mouseout"/>
                  </use>
                  <path fill="none" stroke="white" stroke-width="1.5" d="M0,-3.0v7 M-2.5,-0.5L0,-3.0L2.5,-0.5"/>
                </g>
        </g>
        <svg viewBox="0 0 15 15" width="100%" height="30px" preserveAspectRatio="xMaxYMin meet">
         <g id="arrow_out" transform="scale(0.3 0.3)">
          <a xlink:href="sqsh__directory__private_8h__incl_org.svg" target="_base">
           <rect id="button" ry="5" rx="5" y="6" x="6" height="38" width="38"
                fill="#f2f5e9" fill-opacity="0.5" stroke="#606060" stroke-width="1.0"/>
           <path id="arrow"
             d="M 11.500037,31.436501 C 11.940474,20.09759 22.043105,11.32322 32.158766,21.979434 L 37.068811,17.246167 C 37.068811,17.246167 37.088388,32 37.088388,32 L 22.160133,31.978069 C 22.160133,31.978069 26.997745,27.140456 26.997745,27.140456 C 18.528582,18.264221 13.291696,25.230495 11.500037,31.436501 z"
             style="fill:#404040;"/>
          </a>
         </g>
        </svg>
</svg>
