<?xml version="1.0" encoding="UTF-8" standalone="no"?>
<!DOCTYPE svg PUBLIC "-//W3C//DTD SVG 1.1//EN"
 "http://www.w3.org/Graphics/SVG/1.1/DTD/svg11.dtd">
<!-- Generated by graphviz version 9.0.0 (20230911.1827)
 -->
<!-- Title: include/sqsh.h Pages: 1 -->
<!--zoomable 1230886 -->

<svg id="main" version="1.1" xmlns="http://www.w3.org/2000/svg" xmlns:xlink="http://www.w3.org/1999/xlink" xml:space="preserve" onload="init(evt)">
<style type="text/css"><![CDATA[
.node, .edge {opacity: 0.7;}
.node.selected, .edge.selected {opacity: 1;}
.edge:hover path { stroke: red; }
.edge:hover polygon { stroke: red; fill: red; }
]]></style>

<defs>
  <circle id="rim" cx="0" cy="0" r="7"/>
  <circle id="rim2" cx="0" cy="0" r="3.5"/>
  <g id="zoomPlus">
    <use xlink:href="#rim" fill="#404040"><set attributeName="fill" to="#808080" begin="zoomplus.mouseover" end="zoomplus.mouseout"/></use>
    <path d="M-4,0h8M0,-4v8" fill="none" stroke="white" stroke-width="1.5" pointer-events="none"/>
  </g>
  <g id="zoomMin">
    <use xlink:href="#rim" fill="#404040"><set attributeName="fill" to="#808080" begin="zoomminus.mouseover" end="zoomminus.mouseout"/></use>
    <path d="M-4,0h8" fill="none" stroke="white" stroke-width="1.5" pointer-events="none"/>
  </g>
  <g id="arrowUp" transform="translate(30 24)">
    <use xlink:href="#rim"/>
    <path pointer-events="none" fill="none" stroke="white" stroke-width="1.5" d="M0,-3.0v7 M-2.5,-0.5L0,-3.0L2.5,-0.5"/>
  </g>
  <g id="arrowRight" transform="rotate(90) translate(36 -43)">
    <use xlink:href="#rim"/>
    <path pointer-events="none" fill="none" stroke="white" stroke-width="1.5" d="M0,-3.0v7 M-2.5,-0.5L0,-3.0L2.5,-0.5"/>
  </g>
  <g id="arrowDown" transform="rotate(180) translate(-30 -48)">
    <use xlink:href="#rim"/>
    <path pointer-events="none" fill="none" stroke="white" stroke-width="1.5" d="M0,-3.0v7 M-2.5,-0.5L0,-3.0L2.5,-0.5"/>
  </g>
  <g id="arrowLeft" transform="rotate(270) translate(-36 17)">
    <use xlink:href="#rim"/>
    <path pointer-events="none" fill="none" stroke="white" stroke-width="1.5" d="M0,-3.0v7 M-2.5,-0.5L0,-3.0L2.5,-0.5"/>
  </g>
  <g id="resetDef">
    <use xlink:href="#rim2" fill="#404040"><set attributeName="fill" to="#808080" begin="reset.mouseover" end="reset.mouseout"/></use>
  </g>
</defs>
<script type="application/ecmascript">
var viewWidth = 1286;
var viewHeight = 1230886;
var sectionId = 'dynsection-0';
</script>
<script type="application/ecmascript" xlink:href="svg.min.js"/>
<svg id="graph" class="graph">
<g id="viewport">
<title>include/sqsh.h</title>
<!-- Node1 -->
<g id="Node000001" class="node">
<title>Node1</title>
<g id="a_Node000001"><a xlink:title=" ">
<polygon fill="#999999" stroke="#666666" points="768.56,-1230878.48 647.56,-1230878.48 647.56,-1230859.98 768.56,-1230859.98 768.56,-1230878.48"/>
<text text-anchor="middle" x="708.06" y="-1230864.98" font-family="Helvetica,sans-Serif" font-size="10.00">include/sqsh.h</text>
</a>
</g>
</g>
<!-- Node2 -->
<g id="Node000002" class="node">
<title>Node2</title>
<g id="a_Node000002"><a xlink:href="sqsh__archive_8h.html" target="_top" xlink:title=" ">
<polygon fill="white" stroke="#666666" points="264.56,-1230823.98 143.56,-1230823.98 143.56,-1203401.65 264.56,-1203401.65 264.56,-1230823.98"/>
<text text-anchor="middle" x="204.06" y="-1230810.48" font-family="Helvetica,sans-Serif" font-size="10.00">sqsh_archive.h</text>
</a>
</g>
</g>
<!-- Node1&#45;&gt;Node2 -->
<g id="edge1_Node000001_Node000002" class="edge">
<title>Node1&#45;&gt;Node2</title>
<g id="a_edge1_Node000001_Node000002"><a xlink:title=" ">
<path fill="none" stroke="#63b8ff" d="M647.49,-1230866.45C534.04,-1230862.5 298.69,-1230851.1 274.06,-1230823.98 272.6,-1230822.36 271.15,-1230820.32 269.71,-1230817.85"/>
<polygon fill="#63b8ff" stroke="#63b8ff" points="273.03,-1230816.68 265.54,-1230809.19 266.73,-1230819.72 273.03,-1230816.68"/>
</a>
</g>
</g>
<!-- Node3 -->
<g id="Node000003" class="node">
<title>Node3</title>
<g id="a_Node000003"><a xlink:href="sqsh__common_8h.html" target="_top" xlink:title=" ">
<polygon fill="white" stroke="#666666" points="753.81,-41118.38 640.31,-41118.38 640.31,-41099.88 753.81,-41099.88 753.81,-41118.38"/>
<text text-anchor="middle" x="697.06" y="-41104.88" font-family="Helvetica,sans-Serif" font-size="10.00">sqsh_common.h</text>
</a>
</g>
</g>
<!-- Node1&#45;&gt;Node3 -->
<g id="edge8_Node000001_Node000003" class="edge">
<title>Node1&#45;&gt;Node3</title>
<g id="a_edge8_Node000001_Node000003"><a xlink:title=" ">
<path fill="none" stroke="#63b8ff" d="M768.92,-1230861.02C791.98,-1230854.99 816.03,-1230844 830.06,-1230823.98 857.39,-1230784.99 857.11,-1203440.83 830.06,-1203401.65 804.41,-1203364.49 760.72,-1203402.81 735.06,-1203365.65 735.06,-1203365.65 702.06,-54795.5 702.06,-54795.5 700.9,-48894.51 697.29,-41562.28 697.07,-41130.18"/>
<polygon fill="#63b8ff" stroke="#63b8ff" points="700.57,-41130.27 697.07,-41120.28 693.57,-41130.28 700.57,-41130.27"/>
</a>
</g>
</g>
<!-- Node8 -->
<g id="Node000008" class="node">
<title>Node8</title>
<g id="a_Node000008"><a xlink:href="sqsh__directory_8h.html" target="_top" xlink:title=" ">
<polygon fill="white" stroke="#666666" points="581.06,-1217122.06 445.06,-1217122.06 445.06,-1217103.56 581.06,-1217103.56 581.06,-1217122.06"/>
<text text-anchor="middle" x="513.06" y="-1217108.56" font-family="Helvetica,sans-Serif" font-size="10.00">sqsh_directory.h</text>
</a>
</g>
</g>
<!-- Node1&#45;&gt;Node8 -->
<g id="edge9_Node000001_Node000008" class="edge">
<title>Node1&#45;&gt;Node8</title>
<g id="a_edge9_Node000001_Node000008"><a xlink:title=" ">
<path fill="none" stroke="#63b8ff" d="M647.35,-1230859.96C625.63,-1230853.76 603.26,-1230842.91 590.06,-1230823.98 377.13,-1230518.54 506.95,-1217706.07 512.86,-1217133.59"/>
<polygon fill="#63b8ff" stroke="#63b8ff" points="516.36,-1217133.9 512.96,-1217123.87 509.36,-1217133.83 516.36,-1217133.9"/>
</a>
</g>
</g>
<!-- Node9 -->
<g id="Node000009" class="node">
<title>Node9</title>
<g id="a_Node000009"><a xlink:href="sqsh__file_8h.html" target="_top" xlink:title=" ">
<polygon fill="white" stroke="#666666" points="587.31,-629101.73 488.81,-629101.73 488.81,-629059.41 587.31,-629059.41 587.31,-629101.73"/>
<text text-anchor="middle" x="538.06" y="-629088.23" font-family="Helvetica,sans-Serif" font-size="10.00">sqsh_file.h</text>
</a>
</g>
</g>
<!-- Node1&#45;&gt;Node9 -->
<g id="edge19_Node000001_Node000009" class="edge">
<title>Node1&#45;&gt;Node9</title>
<g id="a_edge19_Node000001_Node000009"><a xlink:title=" ">
<path fill="none" stroke="#63b8ff" d="M647.1,-1230867.15C575.35,-1230864.44 462.6,-1230855.18 436.06,-1230823.98 374.38,-1230751.45 405.16,-1203491.71 436.06,-1203401.65 442.64,-1203382.48 457.48,-1203384.82 464.06,-1203365.65 625.18,-1202896.16 538.81,-634005.8 538.07,-629113.31"/>
<polygon fill="#63b8ff" stroke="#63b8ff" points="541.57,-629113.51 538.07,-629103.51 534.57,-629113.51 541.57,-629113.51"/>
</a>
</g>
</g>
<!-- Node10 -->
<g id="Node000010" class="node">
<title>Node10</title>
<g id="a_Node000010"><a xlink:href="sqsh__easy_8h.html" target="_top" xlink:title=" ">
<polygon fill="white" stroke="#666666" points="1222.31,-629093.57 1123.81,-629093.57 1123.81,-629067.57 1222.31,-629067.57 1222.31,-629093.57"/>
<text text-anchor="middle" x="1173.06" y="-629080.07" font-family="Helvetica,sans-Serif" font-size="10.00">sqsh_easy.h</text>
</a>
</g>
</g>
<!-- Node1&#45;&gt;Node10 -->
<g id="edge12_Node000001_Node000010" class="edge">
<title>Node1&#45;&gt;Node10</title>
<g id="a_edge12_Node000001_Node000010"><a xlink:title=" ">
<path fill="none" stroke="#63b8ff" d="M768.84,-1230867.34C841.8,-1230864.85 957.77,-1230855.83 985.06,-1230823.98 1481.41,-1230244.83 1113.22,-1204128.39 1115.06,-1203365.65 1422.31,-1076284.34 1175.16,-632834.96 1173.08,-629105.24"/>
<polygon fill="#63b8ff" stroke="#63b8ff" points="1176.58,-629105.54 1173.07,-629095.54 1169.58,-629105.55 1176.58,-629105.54"/>
</a>
</g>
</g>
<!-- Node14 -->
<g id="Node000014" class="node">
<title>Node14</title>
<g id="a_Node000014"><a xlink:href="sqsh__error_8h.html" target="_top" xlink:title=" ">
<polygon fill="white" stroke="#666666" points="821.06,-1217133.97 715.06,-1217133.97 715.06,-1217091.65 821.06,-1217091.65 821.06,-1217133.97"/>
<text text-anchor="middle" x="768.06" y="-1217120.47" font-family="Helvetica,sans-Serif" font-size="10.00">sqsh_error.h</text>
</a>
</g>
</g>
<!-- Node1&#45;&gt;Node14 -->
<g id="edge17_Node000001_Node000014" class="edge">
<title>Node1&#45;&gt;Node14</title>
<g id="a_edge17_Node000001_Node000014"><a xlink:title=" ">
<path fill="none" stroke="#63b8ff" d="M708.1,-1230859.75C709.73,-1230485.78 764.8,-1217863.07 767.93,-1217145.61"/>
<polygon fill="#63b8ff" stroke="#63b8ff" points="771.42,-1217145.7 767.97,-1217135.68 764.42,-1217145.67 771.42,-1217145.7"/>
</a>
</g>
</g>
<!-- Node15 -->
<g id="Node000015" class="node">
<title>Node15</title>
<g id="a_Node000015"><a xlink:href="sqsh__mapper_8h.html" target="_top" xlink:title=" ">
<polygon fill="white" stroke="#666666" points="981.81,-1203365.65 868.31,-1203365.65 868.31,-54795.5 981.81,-54795.5 981.81,-1203365.65"/>
<text text-anchor="middle" x="925.06" y="-1203352.15" font-family="Helvetica,sans-Serif" font-size="10.00">sqsh_mapper.h</text>
</a>
</g>
</g>
<!-- Node1&#45;&gt;Node15 -->
<g id="edge20_Node000001_Node000015" class="edge">
<title>Node1&#45;&gt;Node15</title>
<g id="a_edge20_Node000001_Node000015"><a xlink:title=" ">
<path fill="none" stroke="#63b8ff" d="M769.02,-1230861.48C815.89,-1230854.89 875.09,-1230843.02 890.06,-1230823.98 890.06,-1230823.98 890.65,-1220814.41 891.66,-1203377.22"/>
<polygon fill="#63b8ff" stroke="#63b8ff" points="895.16,-1203377.56 891.66,-1203367.56 888.16,-1203377.56 895.16,-1203377.56"/>
</a>
</g>
</g>
<!-- Node16 -->
<g id="Node000016" class="node">
<title>Node16</title>
<g id="a_Node000016"><a xlink:href="sqsh__posix_8h.html" target="_top" xlink:title=" ">
<polygon fill="white" stroke="#666666" points="1106.06,-642703.55 1000.06,-642703.55 1000.06,-615457.6 1106.06,-615457.6 1106.06,-642703.55"/>
<text text-anchor="middle" x="1053.06" y="-642690.05" font-family="Helvetica,sans-Serif" font-size="10.00">sqsh_posix.h</text>
</a>
</g>
</g>
<!-- Node1&#45;&gt;Node16 -->
<g id="edge23_Node000001_Node000016" class="edge">
<title>Node1&#45;&gt;Node16</title>
<g id="a_edge23_Node000001_Node000016"><a xlink:title=" ">
<path fill="none" stroke="#63b8ff" d="M768.61,-1230862.73C819.74,-1230856.69 887.26,-1230844.93 904.06,-1230823.98 1142.67,-1230526.47 990.44,-1203747.02 991.06,-1203365.65 1178.38,-1089020.28 1079.8,-718542.47 1057.27,-642715.27"/>
<polygon fill="#63b8ff" stroke="#63b8ff" points="1060.77,-642715.51 1057.27,-642705.51 1053.77,-642715.51 1060.77,-642715.51"/>
</a>
</g>
</g>
<!-- Node17 -->
<g id="Node000017" class="node">
<title>Node17</title>
<g id="a_Node000017"><a xlink:href="sqsh__table_8h.html" target="_top" xlink:title=" ">
<polygon fill="white" stroke="#666666" points="850.06,-629089.82 744.06,-629089.82 744.06,-629071.32 850.06,-629071.32 850.06,-629089.82"/>
<text text-anchor="middle" x="797.06" y="-629076.32" font-family="Helvetica,sans-Serif" font-size="10.00">sqsh_table.h</text>
</a>
</g>
</g>
<!-- Node1&#45;&gt;Node17 -->
<g id="edge27_Node000001_Node000017" class="edge">
<title>Node1&#45;&gt;Node17</title>
<g id="a_edge27_Node000001_Node000017"><a xlink:title=" ">
<path fill="none" stroke="#63b8ff" d="M763.73,-1230859.54C803.07,-1230852.14 850.89,-1230840.12 863.06,-1230823.98 920.41,-1230747.97 868.33,-1203496.72 863.06,-1203401.65 862.17,-1203385.58 859.96,-1203381.72 859.06,-1203365.65 639.06,-1199397.28 795.98,-632970.53 797.06,-629101.48"/>
<polygon fill="#63b8ff" stroke="#63b8ff" points="800.56,-629101.8 797.06,-629091.8 793.56,-629101.8 800.56,-629101.8"/>
</a>
</g>
</g>
<!-- Node18 -->
<g id="Node000018" class="node">
<title>Node18</title>
<g id="a_Node000018"><a xlink:href="sqsh__tree_8h.html" target="_top" xlink:title=" ">
<polygon fill="white" stroke="#666666" points="697.31,-1217125.81 598.81,-1217125.81 598.81,-1217099.81 697.31,-1217099.81 697.31,-1217125.81"/>
<text text-anchor="middle" x="648.06" y="-1217112.31" font-family="Helvetica,sans-Serif" font-size="10.00">sqsh_tree.h</text>
</a>
</g>
</g>
<!-- Node1&#45;&gt;Node18 -->
<g id="edge29_Node000001_Node000018" class="edge">
<title>Node1&#45;&gt;Node18</title>
<g id="a_edge29_Node000001_Node000018"><a xlink:title=" ">
<path fill="none" stroke="#63b8ff" d="M707.58,-1230859.75C707.09,-1230850.84 706.37,-1230836.43 706.06,-1230823.98 560.47,-1224930.34 642.31,-1217607.37 647.78,-1217137.64"/>
<polygon fill="#63b8ff" stroke="#63b8ff" points="651.28,-1217137.81 647.9,-1217127.76 644.28,-1217137.72 651.28,-1217137.81"/>
</a>
</g>
</g>
<!-- Node19 -->
<g id="Node000019" class="node">
<title>Node19</title>
<g id="a_Node000019"><a xlink:href="sqsh__utils_8h.html" target="_top" xlink:title=" ">
<polygon fill="white" stroke="#666666" points="125.06,-1217133.97 19.06,-1217133.97 19.06,-1217091.65 125.06,-1217091.65 125.06,-1217133.97"/>
<text text-anchor="middle" x="72.06" y="-1217120.47" font-family="Helvetica,sans-Serif" font-size="10.00">sqsh_utils.h</text>
</a>
</g>
</g>
<!-- Node1&#45;&gt;Node19 -->
<g id="edge32_Node000001_Node000019" class="edge">
<title>Node1&#45;&gt;Node19</title>
<g id="a_edge32_Node000001_Node000019"><a xlink:title=" ">
<path fill="none" stroke="#63b8ff" d="M647.07,-1230868.09C506.37,-1230867.13 168.46,-1230860.96 134.06,-1230823.98 -117.93,-1230553.04 61.21,-1217866.92 71.6,-1217145.77"/>
<polygon fill="#63b8ff" stroke="#63b8ff" points="75.1,-1217145.84 71.74,-1217135.79 68.1,-1217145.74 75.1,-1217145.84"/>
</a>
</g>
</g>
<!-- Node20 -->
<g id="Node000020" class="node">
<title>Node20</title>
<g id="a_Node000020"><a xlink:href="sqsh__xattr_8h.html" target="_top" xlink:title=" ">
<polygon fill="white" stroke="#666666" points="389.06,-1217122.06 283.06,-1217122.06 283.06,-1217103.56 389.06,-1217103.56 389.06,-1217122.06"/>
<text text-anchor="middle" x="336.06" y="-1217108.56" font-family="Helvetica,sans-Serif" font-size="10.00">sqsh_xattr.h</text>
</a>
</g>
</g>
<!-- Node1&#45;&gt;Node20 -->
<g id="edge34_Node000001_Node000020" class="edge">
<title>Node1&#45;&gt;Node20</title>
<g id="a_edge34_Node000001_Node000020"><a xlink:title=" ">
<path fill="none" stroke="#63b8ff" d="M647.39,-1230868.39C567.67,-1230867.16 434.09,-1230859.66 403.06,-1230823.98 280.9,-1230683.5 333.56,-1217713.44 335.98,-1217133.84"/>
<polygon fill="#63b8ff" stroke="#63b8ff" points="339.48,-1217133.99 336.02,-1217123.98 332.48,-1217133.96 339.48,-1217133.99"/>
</a>
</g>
</g>
<!-- Node2&#45;&gt;Node3 -->
<g id="edge2_Node000002_Node000003" class="edge">
<title>Node2&#45;&gt;Node3</title>
<g id="a_edge2_Node000002_Node000003"><a xlink:title=" ">
<path fill="none" stroke="#63b8ff" d="M203.51,-1203401.33C198.38,-1073386.72 162.25,-62347.14 278.06,-54795.5 368.6,-48892.44 677.84,-41562.16 696.21,-41130.17"/>
<polygon fill="#63b8ff" stroke="#63b8ff" points="699.7,-41130.41 696.63,-41120.27 692.71,-41130.11 699.7,-41130.41"/>
</a>
</g>
</g>
<!-- Node7 -->
<g id="Node000007" class="node">
<title>Node7</title>
<g id="a_Node000007"><a xlink:href="sqsh__data_8h.html" target="_top" xlink:title=" ">
<polygon fill="white" stroke="#666666" points="385.31,-642792.01 286.81,-642792.01 286.81,-615369.14 385.31,-615369.14 385.31,-642792.01"/>
<text text-anchor="middle" x="336.06" y="-642778.51" font-family="Helvetica,sans-Serif" font-size="10.00">sqsh_data.h</text>
</a>
</g>
</g>
<!-- Node2&#45;&gt;Node7 -->
<g id="edge6_Node000002_Node000007" class="edge">
<title>Node2&#45;&gt;Node7</title>
<g id="a_edge6_Node000002_Node000007"><a xlink:title=" ">
<path fill="none" stroke="#63b8ff" d="M245.01,-1203401.18C245.03,-1203389.33 245.05,-1203377.49 245.06,-1203365.65 424.58,-1089064.56 355.53,-718829.49 339.16,-642803.54"/>
<polygon fill="#63b8ff" stroke="#63b8ff" points="342.66,-642803.74 339.16,-642793.74 335.66,-642803.74 342.66,-642803.74"/>
</a>
</g>
</g>
<!-- Node4 -->
<g id="Node000004" class="node">
<title>Node4</title>
<g id="a_Node000004"><a xlink:title=" ">
<polygon fill="#e0e0e0" stroke="#999999" points="738.81,-13720.63 655.31,-13720.63 655.31,-13702.13 738.81,-13702.13 738.81,-13720.63"/>
<text text-anchor="middle" x="697.06" y="-13707.13" font-family="Helvetica,sans-Serif" font-size="10.00">stdbool.h</text>
</a>
</g>
</g>
<!-- Node3&#45;&gt;Node4 -->
<g id="edge3_Node000003_Node000004" class="edge">
<title>Node3&#45;&gt;Node4</title>
<g id="a_edge3_Node000003_Node000004"><a xlink:title=" ">
<path fill="none" stroke="#63b8ff" d="M697.06,-41099.55C697.06,-40557.88 697.06,-14554.47 697.06,-13732.3"/>
<polygon fill="#63b8ff" stroke="#63b8ff" points="700.56,-13732.3 697.06,-13722.3 693.56,-13732.3 700.56,-13732.3"/>
</a>
</g>
</g>
<!-- Node5 -->
<g id="Node000005" class="node">
<title>Node5</title>
<g id="a_Node000005"><a xlink:title=" ">
<polygon fill="#e0e0e0" stroke="#999999" points="852.06,-13720.63 776.06,-13720.63 776.06,-13702.13 852.06,-13702.13 852.06,-13720.63"/>
<text text-anchor="middle" x="814.06" y="-13707.13" font-family="Helvetica,sans-Serif" font-size="10.00">stddef.h</text>
</a>
</g>
</g>
<!-- Node3&#45;&gt;Node5 -->
<g id="edge4_Node000003_Node000005" class="edge">
<title>Node3&#45;&gt;Node5</title>
<g id="a_edge4_Node000003_Node000005"><a xlink:title=" ">
<path fill="none" stroke="#63b8ff" d="M697.1,-41099.55C699.41,-40557.88 810.47,-14554.47 813.98,-13732.3"/>
<polygon fill="#63b8ff" stroke="#63b8ff" points="817.48,-13732.32 814.02,-13722.3 810.48,-13732.29 817.48,-13732.32"/>
</a>
</g>
</g>
<!-- Node6 -->
<g id="Node000006" class="node">
<title>Node6</title>
<g id="a_Node000006"><a xlink:title=" ">
<polygon fill="#e0e0e0" stroke="#999999" points="1006.06,-27422.76 930.06,-27422.76 930.06,0 1006.06,0 1006.06,-27422.76"/>
<text text-anchor="middle" x="968.06" y="-27409.26" font-family="Helvetica,sans-Serif" font-size="10.00">stdint.h</text>
</a>
</g>
</g>
<!-- Node3&#45;&gt;Node6 -->
<g id="edge5_Node000003_Node000006" class="edge">
<title>Node3&#45;&gt;Node6</title>
<g id="a_edge5_Node000003_Node000006"><a xlink:title=" ">
<path fill="none" stroke="#63b8ff" d="M697.18,-41099.5C701.1,-40811.72 802.06,-33386.49 861.06,-27422.76 887.37,-24763.66 911.1,-21814.42 929.48,-19334.65"/>
<polygon fill="#63b8ff" stroke="#63b8ff" points="932.98,-19334.82 929.55,-19324.79 925.98,-19334.77 932.98,-19334.82"/>
</a>
</g>
</g>
<!-- Node7&#45;&gt;Node3 -->
<g id="edge7_Node000007_Node000003" class="edge">
<title>Node7&#45;&gt;Node3</title>
<g id="a_edge7_Node000007_Node000003"><a xlink:title=" ">
<path fill="none" stroke="#63b8ff" d="M331.1,-615368.87C301.46,-530886.5 158.18,-83676.03 436.06,-54795.5 492.85,-48893.71 685.12,-41562.24 696.53,-41130.17"/>
<polygon fill="#63b8ff" stroke="#63b8ff" points="700.03,-41130.36 696.79,-41120.27 693.03,-41130.18 700.03,-41130.36"/>
</a>
</g>
</g>
<!-- Node8&#45;&gt;Node9 -->
<g id="edge10_Node000008_Node000009" class="edge">
<title>Node8&#45;&gt;Node9</title>
<g id="a_edge10_Node000008_Node000009"><a xlink:title=" ">
<path fill="none" stroke="#63b8ff" d="M513.06,-1217103.31C513.17,-1214541.52 537.85,-634070.14 538.06,-629113.5"/>
<polygon fill="#63b8ff" stroke="#63b8ff" points="541.56,-629113.56 538.06,-629103.56 534.56,-629113.56 541.56,-629113.56"/>
</a>
</g>
</g>
<!-- Node9&#45;&gt;Node3 -->
<g id="edge11_Node000009_Node000003" class="edge">
<title>Node9&#45;&gt;Node3</title>
<g id="a_edge11_Node000009_Node000003"><a xlink:title=" ">
<path fill="none" stroke="#63b8ff" d="M538.06,-629059.08C537.46,-625346.73 456.28,-118370.94 626.06,-54795.5 641.82,-48894.45 693.83,-41562.28 696.92,-41130.17"/>
<polygon fill="#63b8ff" stroke="#63b8ff" points="700.42,-41130.3 696.99,-41120.28 693.42,-41130.25 700.42,-41130.3"/>
</a>
</g>
</g>
<!-- Node10&#45;&gt;Node3 -->
<g id="edge13_Node000010_Node000003" class="edge">
<title>Node10&#45;&gt;Node3</title>
<g id="a_edge13_Node000010_Node000003"><a xlink:title=" ">
<path fill="none" stroke="#63b8ff" d="M1173.07,-629067.18C1174.28,-626001.37 1398.96,-55203.64 1115.06,-54795.5 1088.81,-54757.75 1044.76,-54796.94 1018.06,-54759.5 -700.3,-52349.8 628.34,-41653.13 694.53,-41130"/>
<polygon fill="#63b8ff" stroke="#63b8ff" points="697.98,-41130.62 695.77,-41120.25 691.04,-41129.73 697.98,-41130.62"/>
</a>
</g>
</g>
<!-- Node11 -->
<g id="Node000011" class="node">
<title>Node11</title>
<g id="a_Node000011"><a xlink:title=" ">
<polygon fill="#e0e0e0" stroke="#999999" points="1198.31,-54727.49 1129.81,-54727.49 1129.81,-27490.77 1198.31,-27490.77 1198.31,-54727.49"/>
<text text-anchor="middle" x="1164.06" y="-54713.99" font-family="Helvetica,sans-Serif" font-size="10.00">fcntl.h</text>
</a>
</g>
</g>
<!-- Node10&#45;&gt;Node11 -->
<g id="edge14_Node000010_Node000011" class="edge">
<title>Node10&#45;&gt;Node11</title>
<g id="a_edge14_Node000010_Node000011"><a xlink:title=" ">
<path fill="none" stroke="#63b8ff" d="M1173.06,-629067.16C1173.02,-626243.95 1165.62,-142658.03 1164.27,-54739.3"/>
<polygon fill="#63b8ff" stroke="#63b8ff" points="1167.77,-54739.5 1164.27,-54729.5 1160.77,-54739.5 1167.77,-54739.5"/>
</a>
</g>
</g>
<!-- Node12 -->
<g id="Node000012" class="node">
<title>Node12</title>
<g id="a_Node000012"><a xlink:title=" ">
<polygon fill="#e0e0e0" stroke="#999999" points="1095.31,-54759.5 1026.81,-54759.5 1026.81,-27458.76 1095.31,-27458.76 1095.31,-54759.5"/>
<text text-anchor="middle" x="1061.06" y="-54746" font-family="Helvetica,sans-Serif" font-size="10.00">stdio.h</text>
</a>
</g>
</g>
<!-- Node10&#45;&gt;Node12 -->
<g id="edge15_Node000010_Node000012" class="edge">
<title>Node10&#45;&gt;Node12</title>
<g id="a_edge15_Node000010_Node000012"><a xlink:title=" ">
<path fill="none" stroke="#63b8ff" d="M1173.07,-629067.12C1174.28,-626356.31 1372.5,-182024.46 1115.06,-54795.5 1111.01,-52790.32 1103.76,-50619.9 1095.86,-48611.1"/>
<polygon fill="#63b8ff" stroke="#63b8ff" points="1099.36,-48611.18 1095.82,-48601.2 1092.36,-48611.21 1099.36,-48611.18"/>
</a>
</g>
</g>
<!-- Node13 -->
<g id="Node000013" class="node">
<title>Node13</title>
<g id="a_Node000013"><a xlink:title=" ">
<polygon fill="#e0e0e0" stroke="#999999" points="1277.56,-41118.38 1216.56,-41118.38 1216.56,-41099.88 1277.56,-41099.88 1277.56,-41118.38"/>
<text text-anchor="middle" x="1247.06" y="-41104.88" font-family="Helvetica,sans-Serif" font-size="10.00">time.h</text>
</a>
</g>
</g>
<!-- Node10&#45;&gt;Node13 -->
<g id="edge16_Node000010_Node000013" class="edge">
<title>Node10&#45;&gt;Node13</title>
<g id="a_edge16_Node000010_Node000013"><a xlink:title=" ">
<path fill="none" stroke="#63b8ff" d="M1173.07,-629067.16C1173.46,-625971.98 1246.57,-45027.22 1247.06,-41129.83"/>
<polygon fill="#63b8ff" stroke="#63b8ff" points="1250.56,-41130.1 1247.06,-41120.1 1243.56,-41130.1 1250.56,-41130.1"/>
</a>
</g>
</g>
<!-- Node14&#45;&gt;Node3 -->
<g id="edge18_Node000014_Node000003" class="edge">
<title>Node14&#45;&gt;Node3</title>
<g id="a_edge18_Node000014_Node000003"><a xlink:title=" ">
<path fill="none" stroke="#63b8ff" d="M768.28,-1217091.48C773.63,-1216574.97 876.97,-1206366.1 706.06,-1203401.65 705.14,-1203385.58 702.95,-1203381.72 702.06,-1203365.65 646.4,-1202360.7 696.82,-46664.29 697.06,-41130.07"/>
<polygon fill="#63b8ff" stroke="#63b8ff" points="700.56,-41130.07 697.06,-41120.07 693.56,-41130.07 700.56,-41130.07"/>
</a>
</g>
</g>
<!-- Node15&#45;&gt;Node3 -->
<g id="edge21_Node000015_Node000003" class="edge">
<title>Node15&#45;&gt;Node3</title>
<g id="a_edge21_Node000015_Node000003"><a xlink:title=" ">
<path fill="none" stroke="#63b8ff" d="M867.82,-55736.59C865,-55156.82 862.08,-54839.11 859.06,-54795.5 857.95,-54779.38 855.27,-54775.6 854.06,-54759.5 414.48,-48890.08 680.07,-41562.05 696.3,-41130.17"/>
<polygon fill="#63b8ff" stroke="#63b8ff" points="699.8,-41130.4 696.68,-41120.27 692.8,-41130.13 699.8,-41130.4"/>
</a>
</g>
</g>
<!-- Node15&#45;&gt;Node5 -->
<g id="edge22_Node000015_Node000005" class="edge">
<title>Node15&#45;&gt;Node5</title>
<g id="a_edge22_Node000015_Node000005"><a xlink:title=" ">
<path fill="none" stroke="#63b8ff" d="M867.81,-69777.87C864.99,-64761.43 862.07,-59766.36 859.06,-54795.5 848.2,-36849.37 815.22,-14493.66 814.09,-13732.37"/>
<polygon fill="#63b8ff" stroke="#63b8ff" points="817.59,-13732.49 814.08,-13722.49 810.59,-13732.5 817.59,-13732.49"/>
</a>
</g>
</g>
<!-- Node16&#45;&gt;Node3 -->
<g id="edge24_Node000016_Node000003" class="edge">
<title>Node16&#45;&gt;Node3</title>
<g id="a_edge24_Node000016_Node000003"><a xlink:title=" ">
<path fill="none" stroke="#63b8ff" d="M1055.21,-615457.16C1068.5,-528548.84 1134.26,-55225 991.06,-54795.5 984.74,-54776.52 970.57,-54778.41 964.06,-54759.5 -953.86,-49187.94 601.54,-41565.04 692.93,-41129.66"/>
<polygon fill="#63b8ff" stroke="#63b8ff" points="696.29,-41130.65 694.93,-41120.15 689.44,-41129.21 696.29,-41130.65"/>
</a>
</g>
</g>
<!-- Node16&#45;&gt;Node6 -->
<g id="edge25_Node000016_Node000006" class="edge">
<title>Node16&#45;&gt;Node6</title>
<g id="a_edge25_Node000016_Node000006"><a xlink:title=" ">
<path fill="none" stroke="#63b8ff" d="M1053.87,-615457.25C1057.12,-551976.66 1065.86,-278809.74 991.06,-54795.5 988.02,-45676.5 982.28,-35418.95 977.3,-27434.54"/>
<polygon fill="#63b8ff" stroke="#63b8ff" points="980.8,-27434.72 977.29,-27424.72 973.8,-27434.73 980.8,-27434.72"/>
</a>
</g>
</g>
<!-- Node16&#45;&gt;Node12 -->
<g id="edge26_Node000016_Node000012" class="edge">
<title>Node16&#45;&gt;Node12</title>
<g id="a_edge26_Node000016_Node000012"><a xlink:title=" ">
<path fill="none" stroke="#63b8ff" d="M1053.25,-615457.27C1054.33,-536101.83 1059.8,-134231.8 1060.88,-54771.26"/>
<polygon fill="#63b8ff" stroke="#63b8ff" points="1064.38,-54771.4 1060.88,-54761.4 1057.38,-54771.4 1064.38,-54771.4"/>
</a>
</g>
</g>
<!-- Node17&#45;&gt;Node3 -->
<g id="edge28_Node000017_Node000003" class="edge">
<title>Node17&#45;&gt;Node3</title>
<g id="a_edge28_Node000017_Node000003"><a xlink:title=" ">
<path fill="none" stroke="#63b8ff" d="M797.07,-629071.19C797.53,-626846.06 890.97,-182094.72 730.06,-54795.5 722.61,-48894.5 698.56,-41562.28 697.13,-41130.18"/>
<polygon fill="#63b8ff" stroke="#63b8ff" points="700.63,-41130.26 697.1,-41120.28 693.63,-41130.29 700.63,-41130.26"/>
</a>
</g>
</g>
<!-- Node18&#45;&gt;Node3 -->
<g id="edge30_Node000018_Node000003" class="edge">
<title>Node18&#45;&gt;Node3</title>
<g id="a_edge30_Node000018_Node000003"><a xlink:title=" ">
<path fill="none" stroke="#63b8ff" d="M648.06,-1217099.66C647.82,-1212894.57 585.92,-119244.43 664.06,-54795.5 671.22,-48894.5 695.55,-41562.28 697,-41130.18"/>
<polygon fill="#63b8ff" stroke="#63b8ff" points="700.5,-41130.29 697.03,-41120.28 693.5,-41130.26 700.5,-41130.29"/>
</a>
</g>
</g>
<!-- Node18&#45;&gt;Node9 -->
<g id="edge31_Node000018_Node000009" class="edge">
<title>Node18&#45;&gt;Node9</title>
<g id="a_edge31_Node000018_Node000009"><a xlink:title=" ">
<path fill="none" stroke="#63b8ff" d="M648.04,-1217099.35C647.29,-1216754.68 631.3,-1209331.87 626.06,-1203365.65 403.56,-949606.96 536.5,-632775.88 538.05,-629113.62"/>
<polygon fill="#63b8ff" stroke="#63b8ff" points="541.55,-629113.64 538.05,-629103.64 534.55,-629113.64 541.55,-629113.64"/>
</a>
</g>
</g>
<!-- Node19&#45;&gt;Node3 -->
<g id="edge33_Node000019_Node000003" class="edge">
<title>Node19&#45;&gt;Node3</title>
<g id="a_edge33_Node000019_Node000003"><a xlink:title=" ">
<path fill="none" stroke="#63b8ff" d="M72.06,-1217091.35C71.19,-1211521.99 -107.32,-70896.6 191.06,-54795.5 300.48,-48891.49 673.86,-41562.1 696.03,-41130.17"/>
<polygon fill="#63b8ff" stroke="#63b8ff" points="699.52,-41130.44 696.54,-41120.27 692.53,-41130.08 699.52,-41130.44"/>
</a>
</g>
</g>
<!-- Node20&#45;&gt;Node3 -->
<g id="edge35_Node000020_Node000003" class="edge">
<title>Node20&#45;&gt;Node3</title>
<g id="a_edge35_Node000020_Node000003"><a xlink:title=" ">
<path fill="none" stroke="#63b8ff" d="M336.11,-1217103.14C337.81,-1216814.09 381.2,-1209355.77 394.06,-1203365.65 428.32,-1187413.32 353.01,-70747.35 480.06,-54795.5 527.07,-48893.96 687.12,-41562.25 696.62,-41130.17"/>
<polygon fill="#63b8ff" stroke="#63b8ff" points="700.12,-41130.35 696.84,-41120.27 693.12,-41130.19 700.12,-41130.35"/>
</a>
</g>
</g>
<!-- Node20&#45;&gt;Node7 -->
<g id="edge36_Node000020_Node000007" class="edge">
<title>Node20&#45;&gt;Node7</title>
<g id="a_edge36_Node000020_Node000007"><a xlink:title=" ">
<path fill="none" stroke="#63b8ff" d="M336.06,-1217103.31C336.06,-1214765.17 336.06,-731020.2 336.06,-642803.86"/>
<polygon fill="#63b8ff" stroke="#63b8ff" points="339.56,-642804.02 336.06,-642794.02 332.56,-642804.02 339.56,-642804.02"/>
</a>
</g>
</g>
</g>
</svg>

<g id="navigator" transform="translate(0 0)" fill="#404254">
  <rect fill="#f2f5e9" fill-opacity="0.5" stroke="#606060" stroke-width=".5" x="0" y="0" width="60" height="60"/>
  <use id="zoomplus" xlink:href="#zoomPlus" x="17" y="9" onmousedown="handleZoom(evt,'in')"/>
  <use id="zoomminus" xlink:href="#zoomMin" x="42" y="9" onmousedown="handleZoom(evt,'out')"/>
  <use id="reset" xlink:href="#resetDef" x="30" y="36" onmousedown="handleReset()"/>
   <use id="arrowup" xlink:href="#arrowUp" x="0" y="0" onmousedown="handlePan(0,-1)"/>
  <use id="arrowright" xlink:href="#arrowRight" x="0" y="0" onmousedown="handlePan(1,0)"/>
  <use id="arrowdown" xlink:href="#arrowDown" x="0" y="0" onmousedown="handlePan(0,1)"/>
  <use id="arrowleft" xlink:href="#arrowLeft" x="0" y="0" onmousedown="handlePan(-1,0)"/>
</g>
<svg viewBox="0 0 15 15" width="100%" height="30px" preserveAspectRatio="xMaxYMin meet">
 <g id="arrow_out" transform="scale(0.3 0.3)">
  <a xlink:href="sqsh_8h__incl_org.svg" target="_base">
   <rect id="button" ry="5" rx="5" y="6" x="6" height="38" width="38"
        fill="#f2f5e9" fill-opacity="0.5" stroke="#606060" stroke-width="1.0"/>
   <path id="arrow"
     d="M 11.500037,31.436501 C 11.940474,20.09759 22.043105,11.32322 32.158766,21.979434 L 37.068811,17.246167 C 37.068811,17.246167 37.088388,32 37.088388,32 L 22.160133,31.978069 C 22.160133,31.978069 26.997745,27.140456 26.997745,27.140456 C 18.528582,18.264221 13.291696,25.230495 11.500037,31.436501 z"
     style="fill:#404040;"/>
  </a>
 </g>
</svg>

<style type='text/css'>
<![CDATA[
[data-mouse-over-selected='false'] { opacity: 0.7; }
[data-mouse-over-selected='true']  { opacity: 1.0; }
]]>
</style>
<script type="application/ecmascript"><![CDATA[
document.addEventListener('DOMContentLoaded', (event) => {
  highlightEdges();
  highlightAdjacentNodes();
});
]]></script>
</svg>
