<?xml version="1.0" encoding="UTF-8" standalone="no"?>
<!DOCTYPE svg PUBLIC "-//W3C//DTD SVG 1.1//EN"
 "http://www.w3.org/Graphics/SVG/1.1/DTD/svg11.dtd">
<!-- Generated by graphviz version 8.0.5 (20230430.1635)
 -->
<!-- Title: include/sqsh_file.h Pages: 1 -->
<!--zoomable 2014370 -->
<svg id="main" version="1.1" xmlns="http://www.w3.org/2000/svg" xmlns:xlink="http://www.w3.org/1999/xlink" xml:space="preserve" onload="init(evt)">
<style type="text/css"><![CDATA[
.edge:hover path { stroke: red; }
.edge:hover polygon { stroke: red; fill: red; }
]]></style>
<script type="text/javascript"><![CDATA[
var edges = document.getElementsByTagName('g');
if (edges && edges.length) {
  for (var i=0;i<edges.length;i++) {
    if (edges[i].id.substr(0,4)=='edge') {
      edges[i].setAttribute('class','edge');
    }
  }
}
]]></script>
        <defs>
                <circle id="rim" cx="0" cy="0" r="7"/>
                <circle id="rim2" cx="0" cy="0" r="3.5"/>
                <g id="zoomPlus">
                        <use xlink:href="#rim" fill="#404040">
                                <set attributeName="fill" to="#808080" begin="zoomplus.mouseover" end="zoomplus.mouseout"/>
                        </use>
                        <path d="M-4,0h8M0,-4v8" fill="none" stroke="white" stroke-width="1.5" pointer-events="none"/>
                </g>
                <g id="zoomMin">
                        <use xlink:href="#rim" fill="#404040">
                                <set attributeName="fill" to="#808080" begin="zoomminus.mouseover" end="zoomminus.mouseout"/>
                        </use>
                        <path d="M-4,0h8" fill="none" stroke="white" stroke-width="1.5" pointer-events="none"/>
                </g>
                <g id="dirArrow">
                        <path fill="none" stroke="white" stroke-width="1.5" d="M0,-3.0v7 M-2.5,-0.5L0,-3.0L2.5,-0.5"/>
                </g>
               <g id="resetDef">
                       <use xlink:href="#rim2" fill="#404040">
                               <set attributeName="fill" to="#808080" begin="reset.mouseover" end="reset.mouseout"/>
                       </use>
               </g>
        </defs>

<script type="text/javascript">
var viewWidth = 1691;
var viewHeight = 2014370;
var sectionId = 'dynsection-1';
</script>
<script xlink:href="svgpan.js"/>
<svg id="graph" class="graph">
<g id="viewport">
<title>include/sqsh_file.h</title>
<!-- Node1 -->
<g id="node1" class="node">
<title>Node1</title>
<g id="a_node1"><a xlink:title=" ">
<polygon fill="#999999" stroke="#666666" points="1259,-2014362.28 1100.5,-2014362.28 1100.5,-2014343.78 1259,-2014343.78 1259,-2014362.28"/>
<text text-anchor="middle" x="1179.75" y="-2014348.78" font-family="Helvetica,sans-Serif" font-size="10.00">include/sqsh_file.h</text>
</a>
</g>
</g>
<!-- Node2 -->
<g id="node2" class="node">
<title>Node2</title>
<g id="a_node2"><a xlink:href="sqsh_8h.html" target="_top" xlink:title=" ">
<polygon fill="white" stroke="#666666" points="978.25,-2014242.78 857.25,-2014242.78 857.25,-1007206.84 978.25,-1007206.84 978.25,-2014242.78"/>
<text text-anchor="middle" x="917.75" y="-2014229.28" font-family="Helvetica,sans-Serif" font-size="10.00">include/sqsh.h</text>
</a>
</g>
</g>
<!-- Node1&#45;&gt;Node2 -->
<g id="edge1" class="edge">
<title>Node1&#45;&gt;Node2</title>
<path fill="none" stroke="#63b8ff" d="M1092.29,-2014341.56C1050.72,-2014334.61 1007.36,-2014323.76 994.75,-2014307.78 -945.67,-2011848.88 528.17,-1609790.02 856.75,-1525939.99"/>
<polygon fill="#63b8ff" stroke="#63b8ff" points="1091.66,-2014345.17 1102.09,-2014343.29 1092.77,-2014338.25 1091.66,-2014345.17"/>
</g>
<!-- Node10 -->
<g id="node10" class="node">
<title>Node10</title>
<g id="a_node10"><a xlink:href="sqsh__directory_8h.html" target="_top" xlink:title=" ">
<polygon fill="white" stroke="#666666" points="1375.75,-2014302.53 1179.75,-2014302.53 1179.75,-2014284.03 1375.75,-2014284.03 1375.75,-2014302.53"/>
<text text-anchor="middle" x="1277.75" y="-2014289.03" font-family="Helvetica,sans-Serif" font-size="10.00">include/sqsh_directory.h</text>
</a>
</g>
</g>
<!-- Node1&#45;&gt;Node10 -->
<g id="edge9" class="edge">
<title>Node1&#45;&gt;Node10</title>
<path fill="none" stroke="#63b8ff" d="M1203.46,-2014338.06C1221.98,-2014327.14 1247.14,-2014312.31 1262.91,-2014303.02"/>
<polygon fill="#63b8ff" stroke="#63b8ff" points="1202.05,-2014335.41 1195.21,-2014343.51 1205.6,-2014341.44 1202.05,-2014335.41"/>
</g>
<!-- Node13 -->
<g id="node13" class="node">
<title>Node13</title>
<g id="a_node13"><a xlink:href="sqsh__tree_8h.html" target="_top" xlink:title=" ">
<polygon fill="white" stroke="#666666" points="1162,-2014302.53 1003.5,-2014302.53 1003.5,-2014284.03 1162,-2014284.03 1162,-2014302.53"/>
<text text-anchor="middle" x="1082.75" y="-2014289.03" font-family="Helvetica,sans-Serif" font-size="10.00">include/sqsh_tree.h</text>
</a>
</g>
</g>
<!-- Node1&#45;&gt;Node13 -->
<g id="edge13" class="edge">
<title>Node1&#45;&gt;Node13</title>
<path fill="none" stroke="#63b8ff" d="M1156.03,-2014337.9C1137.72,-2014327.01 1112.98,-2014312.27 1097.44,-2014303.02"/>
<polygon fill="#63b8ff" stroke="#63b8ff" points="1154.05,-2014341.4 1164.44,-2014343.51 1157.64,-2014335.38 1154.05,-2014341.4"/>
</g>
<!-- Node14 -->
<g id="node14" class="node">
<title>Node14</title>
<g id="a_node14"><a xlink:href="sqsh__file__private_8h.html" target="_top" xlink:title=" ">
<polygon fill="white" stroke="#666666" points="1569.75,-2014307.78 1403.75,-2014307.78 1403.75,-2014278.78 1569.75,-2014278.78 1569.75,-2014307.78"/>
<text text-anchor="start" x="1411.75" y="-2014294.28" font-family="Helvetica,sans-Serif" font-size="10.00">libsqsh/include/sqsh</text>
<text text-anchor="middle" x="1486.75" y="-2014283.78" font-family="Helvetica,sans-Serif" font-size="10.00">_file_private.h</text>
</a>
</g>
</g>
<!-- Node1&#45;&gt;Node14 -->
<g id="edge16" class="edge">
<title>Node1&#45;&gt;Node14</title>
<path fill="none" stroke="#63b8ff" d="M1236.58,-2014341.34C1286.16,-2014332.01 1358.45,-2014318.41 1412.58,-2014308.23"/>
<polygon fill="#63b8ff" stroke="#63b8ff" points="1236.22,-2014338.03 1227.04,-2014343.32 1237.52,-2014344.91 1236.22,-2014338.03"/>
</g>
<!-- Node3 -->
<g id="node3" class="node">
<title>Node3</title>
<g id="a_node3"><a xlink:href="list__dir_8c.html" target="_top" xlink:title=" ">
<polygon fill="white" stroke="#666666" points="992,-1007170.84 833.5,-1007170.84 833.5,0 992,0 992,-1007170.84"/>
<text text-anchor="middle" x="912.75" y="-1007157.34" font-family="Helvetica,sans-Serif" font-size="10.00">examples/list_dir.c</text>
</a>
</g>
</g>
<!-- Node2&#45;&gt;Node3 -->
<g id="edge2" class="edge">
<title>Node2&#45;&gt;Node3</title>
<path fill="none" stroke="#63b8ff" d="M915.25,-1007195.86C915.25,-1007187.68 915.25,-1007179.5 915.25,-1007171.32"/>
<polygon fill="#63b8ff" stroke="#63b8ff" points="911.75,-1007195.62 915.25,-1007205.62 918.75,-1007195.62 911.75,-1007195.62"/>
</g>
<!-- Node4 -->
<g id="node4" class="node">
<title>Node4</title>
<g id="a_node4"><a xlink:href="list__dir__ll_8c.html" target="_top" xlink:title=" ">
<polygon fill="white" stroke="#666666" points="1191.25,-503594.67 1010.25,-503594.67 1010.25,-503576.17 1191.25,-503576.17 1191.25,-503594.67"/>
<text text-anchor="middle" x="1100.75" y="-503581.17" font-family="Helvetica,sans-Serif" font-size="10.00">examples/list_dir_ll.c</text>
</a>
</g>
</g>
<!-- Node2&#45;&gt;Node4 -->
<g id="edge3" class="edge">
<title>Node2&#45;&gt;Node4</title>
<path fill="none" stroke="#63b8ff" d="M978.75,-1175000.5C1031.83,-882878.15 1100.37,-505664.89 1100.75,-503594.97"/>
<polygon fill="#63b8ff" stroke="#63b8ff" points="975.25,-1175000.36 978.75,-1175010.36 982.25,-1175000.36 975.25,-1175000.36"/>
</g>
<!-- Node5 -->
<g id="node5" class="node">
<title>Node5</title>
<g id="a_node5"><a xlink:href="list__xattrs_8c.html" target="_top" xlink:title=" ">
<polygon fill="white" stroke="#666666" points="1390.25,-503606.63 1209.25,-503606.63 1209.25,-503564.21 1390.25,-503564.21 1390.25,-503606.63"/>
<text text-anchor="middle" x="1299.75" y="-503593.13" font-family="Helvetica,sans-Serif" font-size="10.00">examples/list_xattrs.c</text>
</a>
</g>
</g>
<!-- Node2&#45;&gt;Node5 -->
<g id="edge4" class="edge">
<title>Node2&#45;&gt;Node5</title>
<path fill="none" stroke="#63b8ff" d="M856.73,-1483125.14C633.93,-1378212.79 -60.74,-1009945.51 1159.75,-1007206.84 1169.49,-1007184.99 1190.02,-1007192.68 1199.75,-1007170.84 1554.21,-1006375.17 1301.63,-507292.77 1299.76,-503606.93"/>
<polygon fill="#63b8ff" stroke="#63b8ff" points="853.23,-1483124.95 856.75,-1483134.94 860.23,-1483124.94 853.23,-1483124.95"/>
</g>
<!-- Node6 -->
<g id="node6" class="node">
<title>Node6</title>
<g id="a_node6"><a xlink:href="list__xattrs__ll_8c.html" target="_top" xlink:title=" ">
<polygon fill="white" stroke="#666666" points="203.5,-503598.42 0,-503598.42 0,-503572.42 203.5,-503572.42 203.5,-503598.42"/>
<text text-anchor="middle" x="101.75" y="-503584.92" font-family="Helvetica,sans-Serif" font-size="10.00">examples/list_xattrs_ll.c</text>
</a>
</g>
</g>
<!-- Node2&#45;&gt;Node6 -->
<g id="edge5" class="edge">
<title>Node2&#45;&gt;Node6</title>
<path fill="none" stroke="#63b8ff" d="M856.73,-1476958.58C713.31,-1395934.09 356.08,-1184073.58 212.75,-1007170.84 32.1,-784216.22 101.21,-505737.14 101.75,-503598.81"/>
<polygon fill="#63b8ff" stroke="#63b8ff" points="853.23,-1476958.25 856.75,-1476968.24 860.23,-1476958.23 853.23,-1476958.25"/>
</g>
<!-- Node7 -->
<g id="node7" class="node">
<title>Node7</title>
<g id="a_node7"><a xlink:href="read__file_8c.html" target="_top" xlink:title=" ">
<polygon fill="white" stroke="#666666" points="387.75,-503594.67 221.75,-503594.67 221.75,-503576.17 387.75,-503576.17 387.75,-503594.67"/>
<text text-anchor="middle" x="304.75" y="-503581.17" font-family="Helvetica,sans-Serif" font-size="10.00">examples/read_file.c</text>
</a>
</g>
</g>
<!-- Node2&#45;&gt;Node7 -->
<g id="edge6" class="edge">
<title>Node2&#45;&gt;Node7</title>
<path fill="none" stroke="#63b8ff" d="M856.74,-1464477.34C742.64,-1375784.74 499.28,-1175627.96 396.75,-1007170.84 260.95,-784065.93 304.47,-505361.73 304.75,-503594.86"/>
<polygon fill="#63b8ff" stroke="#63b8ff" points="853.24,-1464477.26 856.75,-1464487.25 860.24,-1464477.25 853.24,-1464477.26"/>
</g>
<!-- Node8 -->
<g id="node8" class="node">
<title>Node8</title>
<g id="a_node8"><a xlink:href="read__file__ll_8c.html" target="_top" xlink:title=" ">
<polygon fill="white" stroke="#666666" points="594,-503594.67 405.5,-503594.67 405.5,-503576.17 594,-503576.17 594,-503594.67"/>
<text text-anchor="middle" x="499.75" y="-503581.17" font-family="Helvetica,sans-Serif" font-size="10.00">examples/read_file_ll.c</text>
</a>
</g>
</g>
<!-- Node2&#45;&gt;Node8 -->
<g id="edge7" class="edge">
<title>Node2&#45;&gt;Node8</title>
<path fill="none" stroke="#63b8ff" d="M856.74,-1429930.14C784.05,-1330466.81 664.68,-1156383.47 602.75,-1007170.84 510.15,-784065.9 499.81,-505361.73 499.75,-503594.86"/>
<polygon fill="#63b8ff" stroke="#63b8ff" points="853.24,-1429929.96 856.75,-1429939.96 860.24,-1429929.95 853.24,-1429929.96"/>
</g>
<!-- Node9 -->
<g id="node9" class="node">
<title>Node9</title>
<g id="a_node9"><a xlink:href="readme__example_8c.html" target="_top" xlink:title=" ">
<polygon fill="white" stroke="#666666" points="815.5,-503594.67 612,-503594.67 612,-503576.17 815.5,-503576.17 815.5,-503594.67"/>
<text text-anchor="middle" x="713.75" y="-503581.17" font-family="Helvetica,sans-Serif" font-size="10.00">examples/readme_example.c</text>
</a>
</g>
</g>
<!-- Node2&#45;&gt;Node9 -->
<g id="edge8" class="edge">
<title>Node2&#45;&gt;Node9</title>
<path fill="none" stroke="#63b8ff" d="M856.75,-1209559.43C796.8,-913597.28 714.18,-505733.74 713.75,-503594.87"/>
<polygon fill="#63b8ff" stroke="#63b8ff" points="853.25,-1209559.02 856.75,-1209569.02 860.25,-1209559.02 853.25,-1209559.02"/>
</g>
<!-- Node10&#45;&gt;Node2 -->
<g id="edge10" class="edge">
<title>Node10&#45;&gt;Node2</title>
<path fill="none" stroke="#63b8ff" d="M1277.74,-2014272.82C1275.84,-2011622.94 1080.94,-1738996.43 978.75,-1596052.2"/>
<polygon fill="#63b8ff" stroke="#63b8ff" points="1274.24,-2014272.73 1277.74,-2014282.73 1281.24,-2014272.73 1274.24,-2014272.73"/>
</g>
<!-- Node11 -->
<g id="node11" class="node">
<title>Node11</title>
<g id="a_node11"><a xlink:href="sqsh__directory__private_8h.html" target="_top" xlink:title=" ">
<polygon fill="white" stroke="#666666" points="1460.75,-1510743.06 1294.75,-1510743.06 1294.75,-1510706.56 1460.75,-1510706.56 1460.75,-1510743.06"/>
<text text-anchor="start" x="1302.75" y="-1510729.56" font-family="Helvetica,sans-Serif" font-size="10.00">libsqsh/include/sqsh</text>
<text text-anchor="middle" x="1377.75" y="-1510711.56" font-family="Helvetica,sans-Serif" font-size="10.00">_directory_private.h</text>
</a>
</g>
</g>
<!-- Node10&#45;&gt;Node11 -->
<g id="edge11" class="edge">
<title>Node10&#45;&gt;Node11</title>
<path fill="none" stroke="#63b8ff" d="M1277.75,-2014272.81C1278.47,-2010691.44 1377.07,-1514141.81 1377.75,-1510743.33"/>
<polygon fill="#63b8ff" stroke="#63b8ff" points="1274.25,-2014272.73 1277.75,-2014282.73 1281.25,-2014272.73 1274.25,-2014272.73"/>
</g>
<!-- Node12 -->
<g id="node12" class="node">
<title>Node12</title>
<g id="a_node12"><a xlink:href="sqsh__tree__private_8h.html" target="_top" xlink:title=" ">
<polygon fill="white" stroke="#666666" points="1574.75,-503599.92 1408.75,-503599.92 1408.75,-503570.92 1574.75,-503570.92 1574.75,-503599.92"/>
<text text-anchor="start" x="1416.75" y="-503586.42" font-family="Helvetica,sans-Serif" font-size="10.00">libsqsh/include/sqsh</text>
<text text-anchor="middle" x="1491.75" y="-503575.92" font-family="Helvetica,sans-Serif" font-size="10.00">_tree_private.h</text>
</a>
</g>
</g>
<!-- Node11&#45;&gt;Node12 -->
<g id="edge12" class="edge">
<title>Node11&#45;&gt;Node12</title>
<path fill="none" stroke="#63b8ff" d="M1377.75,-1510695.5C1378.45,-1504574.56 1491.27,-507861.3 1491.75,-503600.12"/>
<polygon fill="#63b8ff" stroke="#63b8ff" points="1374.25,-1510695.27 1377.75,-1510705.27 1381.25,-1510695.27 1374.25,-1510695.27"/>
</g>
<!-- Node13&#45;&gt;Node2 -->
<g id="edge14" class="edge">
<title>Node13&#45;&gt;Node2</title>
<path fill="none" stroke="#63b8ff" d="M1082.74,-2014272.8C1082.05,-2012165.21 1025.46,-1839445.85 978.75,-1696892.71"/>
<polygon fill="#63b8ff" stroke="#63b8ff" points="1079.24,-2014272.73 1082.75,-2014282.73 1086.24,-2014272.73 1079.24,-2014272.73"/>
</g>
<!-- Node13&#45;&gt;Node12 -->
<g id="edge15" class="edge">
<title>Node13&#45;&gt;Node12</title>
<path fill="none" stroke="#63b8ff" d="M1082.74,-2014272.96C1081.17,-2009203.37 770.22,-1007910.11 1285.75,-1007206.84 1317.16,-1007163.98 1368.34,-1007213.69 1399.75,-1007170.84 1915.06,-1006467.84 1494.31,-506620.47 1491.76,-503600.16"/>
<polygon fill="#63b8ff" stroke="#63b8ff" points="1079.24,-2014272.78 1082.75,-2014282.78 1086.24,-2014272.78 1079.24,-2014272.78"/>
</g>
<!-- Node14&#45;&gt;Node11 -->
<g id="edge18" class="edge">
<title>Node14&#45;&gt;Node11</title>
<path fill="none" stroke="#63b8ff" d="M1479.67,-2014268.1C1477.66,-2014260.12 1475.75,-2014251.13 1474.75,-2014242.78 1061,-2010782.73 1375.58,-1514138.28 1377.74,-1510743.29"/>
<polygon fill="#63b8ff" stroke="#63b8ff" points="1476.51,-2014268.83 1482.5,-2014277.57 1483.27,-2014267 1476.51,-2014268.83"/>
</g>
<!-- Node14&#45;&gt;Node12 -->
<g id="edge19" class="edge">
<title>Node14&#45;&gt;Node12</title>
<path fill="none" stroke="#63b8ff" d="M1486.75,-2014267.66C1486.77,-2007265.18 1491.73,-508816.26 1491.75,-503600.07"/>
<polygon fill="#63b8ff" stroke="#63b8ff" points="1483.25,-2014267.58 1486.75,-2014277.58 1490.25,-2014267.58 1483.25,-2014267.58"/>
</g>
<!-- Node15 -->
<g id="node15" class="node">
<title>Node15</title>
<g id="a_node15"><a xlink:href="sqsh__archive__private_8h.html" target="_top" xlink:title=" ">
<polygon fill="white" stroke="#666666" points="1682.75,-1510739.31 1516.75,-1510739.31 1516.75,-1510710.31 1682.75,-1510710.31 1682.75,-1510739.31"/>
<text text-anchor="start" x="1524.75" y="-1510725.81" font-family="Helvetica,sans-Serif" font-size="10.00">libsqsh/include/sqsh</text>
<text text-anchor="middle" x="1599.75" y="-1510715.31" font-family="Helvetica,sans-Serif" font-size="10.00">_archive_private.h</text>
</a>
</g>
</g>
<!-- Node14&#45;&gt;Node15 -->
<g id="edge17" class="edge">
<title>Node14&#45;&gt;Node15</title>
<path fill="none" stroke="#63b8ff" d="M1496.08,-2014268.54C1498.8,-2014260.49 1501.4,-2014251.36 1502.75,-2014242.78 1774.26,-2012521.07 1600.82,-1513783.83 1599.75,-1510739.8"/>
<polygon fill="#63b8ff" stroke="#63b8ff" points="1492.52,-2014267.1 1492.42,-2014277.69 1499.11,-2014269.48 1492.52,-2014267.1"/>
</g>
</g>
</svg>
        <g id="navigator" transform="translate(0 0)" fill="#404254">
                <rect fill="#f2f5e9" fill-opacity="0.5" stroke="#606060" stroke-width=".5" x="0" y="0" width="60" height="60"/>
                <use id="zoomplus" xlink:href="#zoomPlus" x="17" y="9" onmousedown="handleZoom(evt,'in')"/>
                <use id="zoomminus" xlink:href="#zoomMin" x="42" y="9" onmousedown="handleZoom(evt,'out')"/>
                <use id="reset" xlink:href="#resetDef" x="30" y="36" onmousedown="handleReset()"/>
                <g id="arrowUp" xlink:href="#dirArrow" transform="translate(30 24)" onmousedown="handlePan(0,-1)">
                  <use xlink:href="#rim" fill="#404040">
                        <set attributeName="fill" to="#808080" begin="arrowUp.mouseover" end="arrowUp.mouseout"/>
                  </use>
                  <path fill="none" stroke="white" stroke-width="1.5" d="M0,-3.0v7 M-2.5,-0.5L0,-3.0L2.5,-0.5"/>
                </g>
                <g id="arrowRight" xlink:href="#dirArrow" transform="rotate(90) translate(36 -43)" onmousedown="handlePan(1,0)">
                  <use xlink:href="#rim" fill="#404040">
                        <set attributeName="fill" to="#808080" begin="arrowRight.mouseover" end="arrowRight.mouseout"/>
                  </use>
                  <path fill="none" stroke="white" stroke-width="1.5" d="M0,-3.0v7 M-2.5,-0.5L0,-3.0L2.5,-0.5"/>
                </g>
                <g id="arrowDown" xlink:href="#dirArrow" transform="rotate(180) translate(-30 -48)" onmousedown="handlePan(0,1)">
                  <use xlink:href="#rim" fill="#404040">
                        <set attributeName="fill" to="#808080" begin="arrowDown.mouseover" end="arrowDown.mouseout"/>
                  </use>
                  <path fill="none" stroke="white" stroke-width="1.5" d="M0,-3.0v7 M-2.5,-0.5L0,-3.0L2.5,-0.5"/>
                </g>
                <g id="arrowLeft" xlink:href="#dirArrow" transform="rotate(270) translate(-36 17)" onmousedown="handlePan(-1,0)">
                  <use xlink:href="#rim" fill="#404040">
                        <set attributeName="fill" to="#808080" begin="arrowLeft.mouseover" end="arrowLeft.mouseout"/>
                  </use>
                  <path fill="none" stroke="white" stroke-width="1.5" d="M0,-3.0v7 M-2.5,-0.5L0,-3.0L2.5,-0.5"/>
                </g>
        </g>
        <svg viewBox="0 0 15 15" width="100%" height="30px" preserveAspectRatio="xMaxYMin meet">
         <g id="arrow_out" transform="scale(0.3 0.3)">
          <a xlink:href="sqsh__file_8h__dep__incl_org.svg" target="_base">
           <rect id="button" ry="5" rx="5" y="6" x="6" height="38" width="38"
                fill="#f2f5e9" fill-opacity="0.5" stroke="#606060" stroke-width="1.0"/>
           <path id="arrow"
             d="M 11.500037,31.436501 C 11.940474,20.09759 22.043105,11.32322 32.158766,21.979434 L 37.068811,17.246167 C 37.068811,17.246167 37.088388,32 37.088388,32 L 22.160133,31.978069 C 22.160133,31.978069 26.997745,27.140456 26.997745,27.140456 C 18.528582,18.264221 13.291696,25.230495 11.500037,31.436501 z"
             style="fill:#404040;"/>
          </a>
         </g>
        </svg>
</svg>
