<?xml version="1.0" encoding="UTF-8" standalone="no"?>
<!DOCTYPE svg PUBLIC "-//W3C//DTD SVG 1.1//EN"
 "http://www.w3.org/Graphics/SVG/1.1/DTD/svg11.dtd">
<!-- Generated by graphviz version 8.0.5 (20230430.1635)
 -->
<!-- Title: libsqsh/include/sqsh_table_private.h Pages: 1 -->
<!--zoomable 1976579 -->
<svg id="main" version="1.1" xmlns="http://www.w3.org/2000/svg" xmlns:xlink="http://www.w3.org/1999/xlink" xml:space="preserve" onload="init(evt)">
<style type="text/css"><![CDATA[
.edge:hover path { stroke: red; }
.edge:hover polygon { stroke: red; fill: red; }
]]></style>
<script type="text/javascript"><![CDATA[
var edges = document.getElementsByTagName('g');
if (edges && edges.length) {
  for (var i=0;i<edges.length;i++) {
    if (edges[i].id.substr(0,4)=='edge') {
      edges[i].setAttribute('class','edge');
    }
  }
}
]]></script>
        <defs>
                <circle id="rim" cx="0" cy="0" r="7"/>
                <circle id="rim2" cx="0" cy="0" r="3.5"/>
                <g id="zoomPlus">
                        <use xlink:href="#rim" fill="#404040">
                                <set attributeName="fill" to="#808080" begin="zoomplus.mouseover" end="zoomplus.mouseout"/>
                        </use>
                        <path d="M-4,0h8M0,-4v8" fill="none" stroke="white" stroke-width="1.5" pointer-events="none"/>
                </g>
                <g id="zoomMin">
                        <use xlink:href="#rim" fill="#404040">
                                <set attributeName="fill" to="#808080" begin="zoomminus.mouseover" end="zoomminus.mouseout"/>
                        </use>
                        <path d="M-4,0h8" fill="none" stroke="white" stroke-width="1.5" pointer-events="none"/>
                </g>
                <g id="dirArrow">
                        <path fill="none" stroke="white" stroke-width="1.5" d="M0,-3.0v7 M-2.5,-0.5L0,-3.0L2.5,-0.5"/>
                </g>
               <g id="resetDef">
                       <use xlink:href="#rim2" fill="#404040">
                               <set attributeName="fill" to="#808080" begin="reset.mouseover" end="reset.mouseout"/>
                       </use>
               </g>
        </defs>

<script type="text/javascript">
var viewWidth = 1019;
var viewHeight = 1976579;
var sectionId = 'dynsection-0';
</script>
<script xlink:href="svgpan.js"/>
<svg id="graph" class="graph">
<g id="viewport">
<title>libsqsh/include/sqsh_table_private.h</title>
<!-- Node1 -->
<g id="node1" class="node">
<title>Node1</title>
<g id="a_node1"><a xlink:title=" ">
<polygon fill="#999999" stroke="#666666" points="546.15,-1976571.35 380.15,-1976571.35 380.15,-1976542.35 546.15,-1976542.35 546.15,-1976571.35"/>
<text text-anchor="start" x="388.15" y="-1976557.85" font-family="Helvetica,sans-Serif" font-size="10.00">libsqsh/include/sqsh</text>
<text text-anchor="middle" x="463.15" y="-1976547.35" font-family="Helvetica,sans-Serif" font-size="10.00">_table_private.h</text>
</a>
</g>
</g>
<!-- Node2 -->
<g id="node2" class="node">
<title>Node2</title>
<g id="a_node2"><a xlink:href="sqsh__extract__private_8h.html" target="_top" xlink:title=" ">
<polygon fill="white" stroke="#666666" points="358.65,-1976506.35 177.65,-1976506.35 177.65,-1317626.93 358.65,-1317626.93 358.65,-1976506.35"/>
<text text-anchor="middle" x="268.15" y="-1976492.85" font-family="Helvetica,sans-Serif" font-size="10.00">sqsh_extract_private.h</text>
</a>
</g>
</g>
<!-- Node1&#45;&gt;Node2 -->
<g id="edge1" class="edge">
<title>Node1&#45;&gt;Node2</title>
<path fill="none" stroke="#63b8ff" d="M412.8,-1976541.94C395.22,-1976534.4 377.35,-1976523.08 367.15,-1976506.35 -49.87,-1975822.37 68.65,-1814525.15 177.14,-1717910.54"/>
<polygon fill="#63b8ff" stroke="#63b8ff" points="180.64,-1717910.76 177.15,-1717900.76 173.64,-1717910.75 180.64,-1717910.76"/>
</g>
<!-- Node5 -->
<g id="node5" class="node">
<title>Node5</title>
<g id="a_node5"><a xlink:href="sqsh__mapper__private_8h.html" target="_top" xlink:title=" ">
<polygon fill="white" stroke="#666666" points="549.9,-1647075.89 376.4,-1647075.89 376.4,-1647057.39 549.9,-1647057.39 549.9,-1647075.89"/>
<text text-anchor="middle" x="463.15" y="-1647062.39" font-family="Helvetica,sans-Serif" font-size="10.00">sqsh_mapper_private.h</text>
</a>
</g>
</g>
<!-- Node1&#45;&gt;Node5 -->
<g id="edge4" class="edge">
<title>Node1&#45;&gt;Node5</title>
<path fill="none" stroke="#63b8ff" d="M463.15,-1976542.18C463.15,-1974117.79 463.15,-1649972.58 463.15,-1647087.02"/>
<polygon fill="#63b8ff" stroke="#63b8ff" points="466.65,-1647087.05 463.15,-1647077.05 459.65,-1647087.05 466.65,-1647087.05"/>
</g>
<!-- Node9 -->
<g id="node9" class="node">
<title>Node9</title>
<g id="a_node9"><a xlink:href="sqsh__table_8h.html" target="_top" xlink:title=" ">
<polygon fill="white" stroke="#666666" points="811.15,-1647079.64 705.15,-1647079.64 705.15,-1647053.64 811.15,-1647053.64 811.15,-1647079.64"/>
<text text-anchor="middle" x="758.15" y="-1647066.14" font-family="Helvetica,sans-Serif" font-size="10.00">sqsh_table.h</text>
</a>
</g>
</g>
<!-- Node1&#45;&gt;Node9 -->
<g id="edge10" class="edge">
<title>Node1&#45;&gt;Node9</title>
<path fill="none" stroke="#63b8ff" d="M513.5,-1976541.94C531.08,-1976534.4 548.95,-1976523.08 559.15,-1976506.35 1151.88,-1975534.5 761.97,-1650244.48 758.18,-1647090.72"/>
<polygon fill="#63b8ff" stroke="#63b8ff" points="761.68,-1647090.96 758.16,-1647080.96 754.68,-1647090.96 761.68,-1647090.96"/>
</g>
<!-- Node3 -->
<g id="node3" class="node">
<title>Node3</title>
<g id="a_node3"><a xlink:title=" ">
<polygon fill="#e0e0e0" stroke="#999999" points="180.15,-988226.74 14.15,-988226.74 14.15,-988200.74 180.15,-988200.74 180.15,-988226.74"/>
<text text-anchor="middle" x="97.15" y="-988213.24" font-family="Helvetica,sans-Serif" font-size="10.00">cextras/collection.h</text>
</a>
</g>
</g>
<!-- Node2&#45;&gt;Node3 -->
<g id="edge2" class="edge">
<title>Node2&#45;&gt;Node3</title>
<path fill="none" stroke="#63b8ff" d="M182.65,-1317626.52C140.19,-1154042.78 97.73,-990463.53 97.16,-988237.72"/>
<polygon fill="#63b8ff" stroke="#63b8ff" points="100.66,-988238.1 97.15,-988228.1 93.66,-988238.1 100.66,-988238.1"/>
</g>
<!-- Node4 -->
<g id="node4" class="node">
<title>Node4</title>
<g id="a_node4"><a xlink:title=" ">
<polygon fill="#e0e0e0" stroke="#999999" points="371.9,-988222.99 198.4,-988222.99 198.4,-988204.49 371.9,-988204.49 371.9,-988222.99"/>
<text text-anchor="middle" x="285.15" y="-988209.49" font-family="Helvetica,sans-Serif" font-size="10.00">sqsh_thread_private.h</text>
</a>
</g>
</g>
<!-- Node2&#45;&gt;Node4 -->
<g id="edge3" class="edge">
<title>Node2&#45;&gt;Node4</title>
<path fill="none" stroke="#63b8ff" d="M276.65,-1317626.52C280.87,-1153952.35 285.1,-990282.68 285.15,-988234.17"/>
<polygon fill="#63b8ff" stroke="#63b8ff" points="288.65,-988234.24 285.15,-988224.24 281.65,-988234.24 288.65,-988234.24"/>
</g>
<!-- Node5&#45;&gt;Node3 -->
<g id="edge8" class="edge">
<title>Node5&#45;&gt;Node3</title>
<path fill="none" stroke="#63b8ff" d="M463.16,-1647057.19C464.7,-1645140.75 728.28,-1318068.28 367.15,-1317626.93 316.04,-1317564.47 240.26,-1317653.4 189.15,-1317590.93 -171.22,-1317150.52 94.55,-991396.13 97.13,-988237.85"/>
<polygon fill="#63b8ff" stroke="#63b8ff" points="100.63,-988238.08 97.14,-988228.08 93.63,-988238.07 100.63,-988238.08"/>
</g>
<!-- Node5&#45;&gt;Node4 -->
<g id="edge7" class="edge">
<title>Node5&#45;&gt;Node4</title>
<path fill="none" stroke="#63b8ff" d="M463.15,-1647057.14C462.41,-1644342.54 286.26,-992330.2 285.15,-988234.12"/>
<polygon fill="#63b8ff" stroke="#63b8ff" points="288.65,-988234.45 285.15,-988224.46 281.65,-988234.46 288.65,-988234.45"/>
</g>
<!-- Node6 -->
<g id="node6" class="node">
<title>Node6</title>
<g id="a_node6"><a xlink:href="sqsh__mapper_8h.html" target="_top" xlink:title=" ">
<polygon fill="white" stroke="#666666" points="503.9,-988220.94 390.4,-988220.94 390.4,-988206.54 503.9,-988206.54 503.9,-988220.94"/>
<text text-anchor="middle" x="447.15" y="-988204.24" font-family="Helvetica,sans-Serif" font-size="10.00">sqsh_mapper.h</text>
</a>
</g>
</g>
<!-- Node5&#45;&gt;Node6 -->
<g id="edge5" class="edge">
<title>Node5&#45;&gt;Node6</title>
<path fill="none" stroke="#63b8ff" d="M463.15,-1647057.14C463.08,-1644342.13 447.24,-992130.66 447.15,-988232.29"/>
<polygon fill="#63b8ff" stroke="#63b8ff" points="450.65,-988232.33 447.15,-988222.33 443.65,-988232.33 450.65,-988232.33"/>
</g>
<!-- Node7 -->
<g id="node7" class="node">
<title>Node7</title>
<g id="a_node7"><a xlink:title=" ">
<polygon fill="#e0e0e0" stroke="#999999" points="695.9,-988228.49 522.4,-988228.49 522.4,-988198.99 695.9,-988198.99 695.9,-988228.49"/>
<text text-anchor="middle" x="609.15" y="-988214.99" font-family="Helvetica,sans-Serif" font-size="10.00">sqsh_reader_private.h</text>
</a>
</g>
</g>
<!-- Node5&#45;&gt;Node7 -->
<g id="edge6" class="edge">
<title>Node5&#45;&gt;Node7</title>
<path fill="none" stroke="#63b8ff" d="M463.15,-1647057.14C463.75,-1644343.71 608.11,-992888.72 609.14,-988239.74"/>
<polygon fill="#63b8ff" stroke="#63b8ff" points="612.64,-988239.91 609.15,-988229.91 605.64,-988239.91 612.64,-988239.91"/>
</g>
<!-- Node8 -->
<g id="node8" class="node">
<title>Node8</title>
<g id="a_node8"><a xlink:title=" ">
<polygon fill="#e0e0e0" stroke="#999999" points="804.65,-988234.99 713.65,-988234.99 713.65,-988192.49 804.65,-988192.49 804.65,-988234.99"/>
<text text-anchor="middle" x="759.15" y="-988221.49" font-family="Helvetica,sans-Serif" font-size="10.00">sys/wait.h</text>
</a>
</g>
</g>
<!-- Node5&#45;&gt;Node8 -->
<g id="edge9" class="edge">
<title>Node5&#45;&gt;Node8</title>
<path fill="none" stroke="#63b8ff" d="M463.14,-1647056.94C461.2,-1645125.15 137.17,-1322154.41 696.15,-1317626.93 698.17,-1317610.57 703.13,-1317607.3 705.15,-1317590.93 844.19,-1316462.28 760.12,-991927.29 759.16,-988246.29"/>
<polygon fill="#63b8ff" stroke="#63b8ff" points="762.66,-988246.31 759.16,-988236.31 755.66,-988246.31 762.66,-988246.31"/>
</g>
<!-- Node10 -->
<g id="node10" class="node">
<title>Node10</title>
<g id="a_node10"><a xlink:href="sqsh__common_8h.html" target="_top" xlink:title=" ">
<polygon fill="white" stroke="#666666" points="935.9,-1317590.93 822.4,-1317590.93 822.4,-658836.55 935.9,-658836.55 935.9,-1317590.93"/>
<text text-anchor="middle" x="879.15" y="-1317577.43" font-family="Helvetica,sans-Serif" font-size="10.00">sqsh_common.h</text>
</a>
</g>
</g>
<!-- Node9&#45;&gt;Node10 -->
<g id="edge11" class="edge">
<title>Node9&#45;&gt;Node10</title>
<path fill="none" stroke="#63b8ff" d="M758.15,-1647053.28C758.46,-1645358.02 790.76,-1469522.59 821.9,-1299954.01"/>
<polygon fill="#63b8ff" stroke="#63b8ff" points="825.4,-1299954.34 821.9,-1299944.34 818.4,-1299954.33 825.4,-1299954.34"/>
</g>
<!-- Node11 -->
<g id="node11" class="node">
<title>Node11</title>
<g id="a_node11"><a xlink:title=" ">
<polygon fill="#e0e0e0" stroke="#999999" points="822.9,-658800.55 739.4,-658800.55 739.4,0 822.9,0 822.9,-658800.55"/>
<text text-anchor="middle" x="781.15" y="-658787.05" font-family="Helvetica,sans-Serif" font-size="10.00">stdbool.h</text>
</a>
</g>
</g>
<!-- Node10&#45;&gt;Node11 -->
<g id="edge12" class="edge">
<title>Node10&#45;&gt;Node11</title>
<path fill="none" stroke="#63b8ff" d="M830.15,-658836.22C827.9,-643661.28 825.64,-628486.25 823.4,-613439.95"/>
<polygon fill="#63b8ff" stroke="#63b8ff" points="826.9,-613440.27 823.4,-613430.27 819.9,-613440.27 826.9,-613440.27"/>
</g>
<!-- Node12 -->
<g id="node12" class="node">
<title>Node12</title>
<g id="a_node12"><a xlink:title=" ">
<polygon fill="#e0e0e0" stroke="#999999" points="917.15,-329413.27 841.15,-329413.27 841.15,-329387.27 917.15,-329387.27 917.15,-329413.27"/>
<text text-anchor="middle" x="879.15" y="-329399.77" font-family="Helvetica,sans-Serif" font-size="10.00">stddef.h</text>
</a>
</g>
</g>
<!-- Node10&#45;&gt;Node12 -->
<g id="edge13" class="edge">
<title>Node10&#45;&gt;Node12</title>
<path fill="none" stroke="#63b8ff" d="M879.15,-658836.22C879.15,-495248.07 879.15,-331650.32 879.15,-329424.25"/>
<polygon fill="#63b8ff" stroke="#63b8ff" points="882.65,-329424.63 879.15,-329414.63 875.65,-329424.63 882.65,-329424.63"/>
</g>
<!-- Node13 -->
<g id="node13" class="node">
<title>Node13</title>
<g id="a_node13"><a xlink:title=" ">
<polygon fill="#e0e0e0" stroke="#999999" points="1011.15,-329409.52 935.15,-329409.52 935.15,-329391.02 1011.15,-329391.02 1011.15,-329409.52"/>
<text text-anchor="middle" x="973.15" y="-329396.02" font-family="Helvetica,sans-Serif" font-size="10.00">stdint.h</text>
</a>
</g>
</g>
<!-- Node10&#45;&gt;Node13 -->
<g id="edge14" class="edge">
<title>Node10&#45;&gt;Node13</title>
<path fill="none" stroke="#63b8ff" d="M926.15,-658836.22C949.5,-495157.64 972.85,-331469.45 973.15,-329420.71"/>
<polygon fill="#63b8ff" stroke="#63b8ff" points="976.65,-329420.77 973.15,-329410.77 969.65,-329420.77 976.65,-329420.77"/>
</g>
</g>
</svg>
        <g id="navigator" transform="translate(0 0)" fill="#404254">
                <rect fill="#f2f5e9" fill-opacity="0.5" stroke="#606060" stroke-width=".5" x="0" y="0" width="60" height="60"/>
                <use id="zoomplus" xlink:href="#zoomPlus" x="17" y="9" onmousedown="handleZoom(evt,'in')"/>
                <use id="zoomminus" xlink:href="#zoomMin" x="42" y="9" onmousedown="handleZoom(evt,'out')"/>
                <use id="reset" xlink:href="#resetDef" x="30" y="36" onmousedown="handleReset()"/>
                <g id="arrowUp" xlink:href="#dirArrow" transform="translate(30 24)" onmousedown="handlePan(0,-1)">
                  <use xlink:href="#rim" fill="#404040">
                        <set attributeName="fill" to="#808080" begin="arrowUp.mouseover" end="arrowUp.mouseout"/>
                  </use>
                  <path fill="none" stroke="white" stroke-width="1.5" d="M0,-3.0v7 M-2.5,-0.5L0,-3.0L2.5,-0.5"/>
                </g>
                <g id="arrowRight" xlink:href="#dirArrow" transform="rotate(90) translate(36 -43)" onmousedown="handlePan(1,0)">
                  <use xlink:href="#rim" fill="#404040">
                        <set attributeName="fill" to="#808080" begin="arrowRight.mouseover" end="arrowRight.mouseout"/>
                  </use>
                  <path fill="none" stroke="white" stroke-width="1.5" d="M0,-3.0v7 M-2.5,-0.5L0,-3.0L2.5,-0.5"/>
                </g>
                <g id="arrowDown" xlink:href="#dirArrow" transform="rotate(180) translate(-30 -48)" onmousedown="handlePan(0,1)">
                  <use xlink:href="#rim" fill="#404040">
                        <set attributeName="fill" to="#808080" begin="arrowDown.mouseover" end="arrowDown.mouseout"/>
                  </use>
                  <path fill="none" stroke="white" stroke-width="1.5" d="M0,-3.0v7 M-2.5,-0.5L0,-3.0L2.5,-0.5"/>
                </g>
                <g id="arrowLeft" xlink:href="#dirArrow" transform="rotate(270) translate(-36 17)" onmousedown="handlePan(-1,0)">
                  <use xlink:href="#rim" fill="#404040">
                        <set attributeName="fill" to="#808080" begin="arrowLeft.mouseover" end="arrowLeft.mouseout"/>
                  </use>
                  <path fill="none" stroke="white" stroke-width="1.5" d="M0,-3.0v7 M-2.5,-0.5L0,-3.0L2.5,-0.5"/>
                </g>
        </g>
        <svg viewBox="0 0 15 15" width="100%" height="30px" preserveAspectRatio="xMaxYMin meet">
         <g id="arrow_out" transform="scale(0.3 0.3)">
          <a xlink:href="sqsh__table__private_8h__incl_org.svg" target="_base">
           <rect id="button" ry="5" rx="5" y="6" x="6" height="38" width="38"
                fill="#f2f5e9" fill-opacity="0.5" stroke="#606060" stroke-width="1.0"/>
           <path id="arrow"
             d="M 11.500037,31.436501 C 11.940474,20.09759 22.043105,11.32322 32.158766,21.979434 L 37.068811,17.246167 C 37.068811,17.246167 37.088388,32 37.088388,32 L 22.160133,31.978069 C 22.160133,31.978069 26.997745,27.140456 26.997745,27.140456 C 18.528582,18.264221 13.291696,25.230495 11.500037,31.436501 z"
             style="fill:#404040;"/>
          </a>
         </g>
        </svg>
</svg>
