<?xml version="1.0" encoding="UTF-8" standalone="no"?>
<!DOCTYPE svg PUBLIC "-//W3C//DTD SVG 1.1//EN"
 "http://www.w3.org/Graphics/SVG/1.1/DTD/svg11.dtd">
<!-- Generated by graphviz version 9.0.0 (20230911.1827)
 -->
<!-- Title: libsqsh/include/sqsh_directory_private.h Pages: 1 -->
<!--zoomable 3962438 -->

<svg id="main" version="1.1" xmlns="http://www.w3.org/2000/svg" xmlns:xlink="http://www.w3.org/1999/xlink" xml:space="preserve" onload="init(evt)">
<style type="text/css"><![CDATA[
.node, .edge {opacity: 0.7;}
.node.selected, .edge.selected {opacity: 1;}
.edge:hover path { stroke: red; }
.edge:hover polygon { stroke: red; fill: red; }
]]></style>

<defs>
  <circle id="rim" cx="0" cy="0" r="7"/>
  <circle id="rim2" cx="0" cy="0" r="3.5"/>
  <g id="zoomPlus">
    <use xlink:href="#rim" fill="#404040"><set attributeName="fill" to="#808080" begin="zoomplus.mouseover" end="zoomplus.mouseout"/></use>
    <path d="M-4,0h8M0,-4v8" fill="none" stroke="white" stroke-width="1.5" pointer-events="none"/>
  </g>
  <g id="zoomMin">
    <use xlink:href="#rim" fill="#404040"><set attributeName="fill" to="#808080" begin="zoomminus.mouseover" end="zoomminus.mouseout"/></use>
    <path d="M-4,0h8" fill="none" stroke="white" stroke-width="1.5" pointer-events="none"/>
  </g>
  <g id="arrowUp" transform="translate(30 24)">
    <use xlink:href="#rim"/>
    <path pointer-events="none" fill="none" stroke="white" stroke-width="1.5" d="M0,-3.0v7 M-2.5,-0.5L0,-3.0L2.5,-0.5"/>
  </g>
  <g id="arrowRight" transform="rotate(90) translate(36 -43)">
    <use xlink:href="#rim"/>
    <path pointer-events="none" fill="none" stroke="white" stroke-width="1.5" d="M0,-3.0v7 M-2.5,-0.5L0,-3.0L2.5,-0.5"/>
  </g>
  <g id="arrowDown" transform="rotate(180) translate(-30 -48)">
    <use xlink:href="#rim"/>
    <path pointer-events="none" fill="none" stroke="white" stroke-width="1.5" d="M0,-3.0v7 M-2.5,-0.5L0,-3.0L2.5,-0.5"/>
  </g>
  <g id="arrowLeft" transform="rotate(270) translate(-36 17)">
    <use xlink:href="#rim"/>
    <path pointer-events="none" fill="none" stroke="white" stroke-width="1.5" d="M0,-3.0v7 M-2.5,-0.5L0,-3.0L2.5,-0.5"/>
  </g>
  <g id="resetDef">
    <use xlink:href="#rim2" fill="#404040"><set attributeName="fill" to="#808080" begin="reset.mouseover" end="reset.mouseout"/></use>
  </g>
</defs>
<script type="application/ecmascript">
var viewWidth = 930;
var viewHeight = 3962438;
var sectionId = 'dynsection-0';
</script>
<script type="application/ecmascript" xlink:href="svg.min.js"/>
<svg id="graph" class="graph">
<g id="viewport">
<title>libsqsh/include/sqsh_directory_private.h</title>
<!-- Node1 -->
<g id="Node000001" class="node">
<title>Node1</title>
<g id="a_Node000001"><a xlink:title=" ">
<polygon fill="#999999" stroke="#666666" points="690.85,-3962429.51 524.85,-3962429.51 524.85,-3258868.64 690.85,-3258868.64 690.85,-3962429.51"/>
<text text-anchor="start" x="532.85" y="-3962416.01" font-family="Helvetica,sans-Serif" font-size="10.00">libsqsh/include/sqsh</text>
<text text-anchor="middle" x="607.85" y="-3258873.73" font-family="Helvetica,sans-Serif" font-size="10.00">_directory_private.h</text>
</a>
</g>
</g>
<!-- Node2 -->
<g id="Node000002" class="node">
<title>Node2</title>
<g id="a_Node000002"><a xlink:href="sqsh__directory_8h.html" target="_top" xlink:title=" ">
<polygon fill="white" stroke="#666666" points="872.85,-3258832.64 736.85,-3258832.64 736.85,-2555458.88 872.85,-2555458.88 872.85,-3258832.64"/>
<text text-anchor="middle" x="804.85" y="-3258819.14" font-family="Helvetica,sans-Serif" font-size="10.00">sqsh_directory.h</text>
</a>
</g>
</g>
<!-- Node1&#45;&gt;Node2 -->
<g id="edge1_Node000001_Node000002" class="edge">
<title>Node1&#45;&gt;Node2</title>
<g id="a_edge1_Node000001_Node000002"><a xlink:title=" ">
<path fill="none" stroke="#63b8ff" d="M691.35,-3312463.52C706.35,-3258889.01 721.83,-3203616.88 736.34,-3151776.41"/>
<polygon fill="#63b8ff" stroke="#63b8ff" points="739.84,-3151776.65 736.35,-3151766.65 732.84,-3151776.65 739.84,-3151776.65"/>
</a>
</g>
</g>
<!-- Node8 -->
<g id="Node000008" class="node">
<title>Node8</title>
<g id="a_Node000008"><a xlink:href="sqsh__file__private_8h.html" target="_top" xlink:title=" ">
<polygon fill="white" stroke="#666666" points="687.1,-2907155.01 528.6,-2907155.01 528.6,-2907136.51 687.1,-2907136.51 687.1,-2907155.01"/>
<text text-anchor="middle" x="607.85" y="-2907141.51" font-family="Helvetica,sans-Serif" font-size="10.00">sqsh_file_private.h</text>
</a>
</g>
</g>
<!-- Node1&#45;&gt;Node8 -->
<g id="edge7_Node000001_Node000008" class="edge">
<title>Node1&#45;&gt;Node8</title>
<g id="a_edge7_Node000001_Node000008"><a xlink:title=" ">
<path fill="none" stroke="#63b8ff" d="M607.85,-3258868.23C607.85,-3084085.25 607.85,-2909311.88 607.85,-2907166.71"/>
<polygon fill="#63b8ff" stroke="#63b8ff" points="611.35,-2907166.83 607.85,-2907156.83 604.35,-2907166.83 611.35,-2907166.83"/>
</a>
</g>
</g>
<!-- Node16 -->
<g id="Node000016" class="node">
<title>Node16</title>
<g id="a_Node000016"><a xlink:href="sqsh__metablock__private_8h.html" target="_top" xlink:title=" ">
<polygon fill="white" stroke="#666666" points="563.85,-2203752.27 367.85,-2203752.27 367.85,-2203733.77 563.85,-2203733.77 563.85,-2203752.27"/>
<text text-anchor="middle" x="465.85" y="-2203738.77" font-family="Helvetica,sans-Serif" font-size="10.00">sqsh_metablock_private.h</text>
</a>
</g>
</g>
<!-- Node1&#45;&gt;Node16 -->
<g id="edge25_Node000001_Node000016" class="edge">
<title>Node1&#45;&gt;Node16</title>
<g id="a_edge25_Node000001_Node000016"><a xlink:title=" ">
<path fill="none" stroke="#63b8ff" d="M524.35,-3286440.48C522.72,-3277136.55 521.22,-3267918.6 519.85,-3258832.64 449.44,-2791477.34 465.74,-2207675.12 465.85,-2203763.78"/>
<polygon fill="#63b8ff" stroke="#63b8ff" points="469.35,-2203764.02 465.85,-2203754.02 462.35,-2203764.02 469.35,-2203764.02"/>
</a>
</g>
</g>
<!-- Node3 -->
<g id="Node000003" class="node">
<title>Node3</title>
<g id="a_Node000003"><a xlink:href="sqsh__file_8h.html" target="_top" xlink:title=" ">
<polygon fill="white" stroke="#666666" points="863.1,-2555422.88 764.6,-2555422.88 764.6,-1852063.16 863.1,-1852063.16 863.1,-2555422.88"/>
<text text-anchor="middle" x="813.85" y="-2555409.38" font-family="Helvetica,sans-Serif" font-size="10.00">sqsh_file.h</text>
</a>
</g>
</g>
<!-- Node2&#45;&gt;Node3 -->
<g id="edge2_Node000002_Node000003" class="edge">
<title>Node2&#45;&gt;Node3</title>
<g id="a_edge2_Node000002_Node000003"><a xlink:title=" ">
<path fill="none" stroke="#63b8ff" d="M809.35,-2555458.48C809.35,-2555450.5 809.35,-2555442.52 809.35,-2555434.54"/>
<polygon fill="#63b8ff" stroke="#63b8ff" points="812.85,-2555434.77 809.35,-2555424.77 805.85,-2555434.77 812.85,-2555434.77"/>
</a>
</g>
</g>
<!-- Node4 -->
<g id="Node000004" class="node">
<title>Node4</title>
<g id="a_Node000004"><a xlink:href="sqsh__common_8h.html" target="_top" xlink:title=" ">
<polygon fill="white" stroke="#666666" points="586.6,-80.5 473.1,-80.5 473.1,-62 586.6,-62 586.6,-80.5"/>
<text text-anchor="middle" x="529.85" y="-67" font-family="Helvetica,sans-Serif" font-size="10.00">sqsh_common.h</text>
</a>
</g>
</g>
<!-- Node3&#45;&gt;Node4 -->
<g id="edge3_Node000003_Node000004" class="edge">
<title>Node3&#45;&gt;Node4</title>
<g id="a_edge3_Node000003_Node000004"><a xlink:title=" ">
<path fill="none" stroke="#63b8ff" d="M833.68,-1852062.68C849.79,-1548012.8 871.2,-1096719.86 879.85,-703421.01 879.85,-703421.01 879.85,-116.5 879.85,-116.5 861.56,-95.75 694.78,-82.25 598.2,-76.1"/>
<polygon fill="#63b8ff" stroke="#63b8ff" points="598.49,-72.61 588.29,-75.48 598.06,-79.6 598.49,-72.61"/>
</a>
</g>
</g>
<!-- Node5 -->
<g id="Node000005" class="node">
<title>Node5</title>
<g id="a_Node000005"><a xlink:title=" ">
<polygon fill="#e0e0e0" stroke="#999999" points="565.6,-22.25 482.1,-22.25 482.1,-3.75 565.6,-3.75 565.6,-22.25"/>
<text text-anchor="middle" x="523.85" y="-8.75" font-family="Helvetica,sans-Serif" font-size="10.00">stdbool.h</text>
</a>
</g>
</g>
<!-- Node4&#45;&gt;Node5 -->
<g id="edge4_Node000004_Node000005" class="edge">
<title>Node4&#45;&gt;Node5</title>
<g id="a_edge4_Node000004_Node000005"><a xlink:title=" ">
<path fill="none" stroke="#63b8ff" d="M528.96,-61.95C528.18,-54.64 527.01,-43.7 525.99,-34.11"/>
<polygon fill="#63b8ff" stroke="#63b8ff" points="529.48,-33.78 524.94,-24.21 522.52,-34.52 529.48,-33.78"/>
</a>
</g>
</g>
<!-- Node6 -->
<g id="Node000006" class="node">
<title>Node6</title>
<g id="a_Node000006"><a xlink:title=" ">
<polygon fill="#e0e0e0" stroke="#999999" points="659.85,-22.25 583.85,-22.25 583.85,-3.75 659.85,-3.75 659.85,-22.25"/>
<text text-anchor="middle" x="621.85" y="-8.75" font-family="Helvetica,sans-Serif" font-size="10.00">stddef.h</text>
</a>
</g>
</g>
<!-- Node4&#45;&gt;Node6 -->
<g id="edge5_Node000004_Node000006" class="edge">
<title>Node4&#45;&gt;Node6</title>
<g id="a_edge5_Node000004_Node000006"><a xlink:title=" ">
<path fill="none" stroke="#63b8ff" d="M543.82,-61.71C558.28,-52.87 581.11,-38.91 598.35,-28.37"/>
<polygon fill="#63b8ff" stroke="#63b8ff" points="599.75,-31.62 606.45,-23.41 596.09,-25.64 599.75,-31.62"/>
</a>
</g>
</g>
<!-- Node7 -->
<g id="Node000007" class="node">
<title>Node7</title>
<g id="a_Node000007"><a xlink:title=" ">
<polygon fill="#e0e0e0" stroke="#999999" points="277.85,-26 201.85,-26 201.85,0 277.85,0 277.85,-26"/>
<text text-anchor="middle" x="239.85" y="-12.5" font-family="Helvetica,sans-Serif" font-size="10.00">stdint.h</text>
</a>
</g>
</g>
<!-- Node4&#45;&gt;Node7 -->
<g id="edge6_Node000004_Node000007" class="edge">
<title>Node4&#45;&gt;Node7</title>
<g id="a_edge6_Node000004_Node000007"><a xlink:title=" ">
<path fill="none" stroke="#63b8ff" d="M484.85,-61.52C431.83,-51.24 344.02,-34.21 289.18,-23.57"/>
<polygon fill="#63b8ff" stroke="#63b8ff" points="289.97,-20.16 279.49,-21.69 288.64,-27.03 289.97,-20.16"/>
</a>
</g>
</g>
<!-- Node8&#45;&gt;Node3 -->
<g id="edge8_Node000008_Node000003" class="edge">
<title>Node8&#45;&gt;Node3</title>
<g id="a_edge8_Node000008_Node000003"><a xlink:title=" ">
<path fill="none" stroke="#63b8ff" d="M607.84,-2907136.13C606.57,-2905136.63 386.16,-2556627.59 727.85,-2555458.88 733.18,-2555440.66 745.52,-2555441.11 750.85,-2555422.88 992.46,-2554596.2 924.59,-2379985.72 863.6,-2277147.7"/>
<polygon fill="#63b8ff" stroke="#63b8ff" points="867.1,-2277147.73 863.6,-2277137.73 860.1,-2277147.74 867.1,-2277147.73"/>
</a>
</g>
</g>
<!-- Node8&#45;&gt;Node7 -->
<g id="edge24_Node000008_Node000007" class="edge">
<title>Node8&#45;&gt;Node7</title>
<g id="a_edge24_Node000008_Node000007"><a xlink:title=" ">
<path fill="none" stroke="#63b8ff" d="M607.84,-2907136.11C606.5,-2905642.62 432.62,-2711142.65 358.85,-2555422.88 89.84,-1987565.24 52.85,-1845600.79 52.85,-1277743.08 52.85,-1277743.08 52.85,-1277743.08 52.85,-351767.75 52.85,-351462.5 -77.57,-382.68 71.85,-116.5 97.13,-71.47 151.12,-43.88 191.1,-28.84"/>
<polygon fill="#63b8ff" stroke="#63b8ff" points="192.07,-32.21 200.29,-25.53 189.7,-25.62 192.07,-32.21"/>
</a>
</g>
</g>
<!-- Node9 -->
<g id="Node000009" class="node">
<title>Node9</title>
<g id="a_Node000009"><a xlink:href="sqsh__extract__private_8h.html" target="_top" xlink:title=" ">
<polygon fill="white" stroke="#666666" points="517.35,-1852027.16 336.35,-1852027.16 336.35,-703457.01 517.35,-703457.01 517.35,-1852027.16"/>
<text text-anchor="middle" x="426.85" y="-1852013.66" font-family="Helvetica,sans-Serif" font-size="10.00">sqsh_extract_private.h</text>
</a>
</g>
</g>
<!-- Node8&#45;&gt;Node9 -->
<g id="edge9_Node000008_Node000009" class="edge">
<title>Node8&#45;&gt;Node9</title>
<g id="a_edge9_Node000008_Node000009"><a xlink:title=" ">
<path fill="none" stroke="#63b8ff" d="M607.85,-2907136.18C607.73,-2903670.19 572.85,-1852063.16 572.85,-1852063.16 561.2,-1852039.57 537.5,-1852050.75 525.85,-1852027.16 -158.53,-1850641.18 158.63,-1506315.03 335.83,-1351561.74"/>
<polygon fill="#63b8ff" stroke="#63b8ff" points="339.33,-1351561.75 335.85,-1351551.75 332.33,-1351561.74 339.33,-1351561.75"/>
</a>
</g>
</g>
<!-- Node13 -->
<g id="Node000013" class="node">
<title>Node13</title>
<g id="a_Node000013"><a xlink:href="sqsh__mapper__private_8h.html" target="_top" xlink:title=" ">
<polygon fill="white" stroke="#666666" points="708.6,-1277751.33 535.1,-1277751.33 535.1,-1277732.83 708.6,-1277732.83 708.6,-1277751.33"/>
<text text-anchor="middle" x="621.85" y="-1277737.83" font-family="Helvetica,sans-Serif" font-size="10.00">sqsh_mapper_private.h</text>
</a>
</g>
</g>
<!-- Node8&#45;&gt;Node13 -->
<g id="edge14_Node000008_Node000013" class="edge">
<title>Node8&#45;&gt;Node13</title>
<g id="a_edge14_Node000008_Node000013"><a xlink:title=" ">
<path fill="none" stroke="#63b8ff" d="M607.85,-2907136.35C607.88,-2902879.77 621.79,-1284280.06 621.85,-1277762.82"/>
<polygon fill="#63b8ff" stroke="#63b8ff" points="625.35,-1277762.98 621.85,-1277752.98 618.35,-1277762.98 625.35,-1277762.98"/>
</a>
</g>
</g>
<!-- Node15 -->
<g id="Node000015" class="node">
<title>Node15</title>
<g id="a_Node000015"><a xlink:title=" ">
<polygon fill="#e0e0e0" stroke="#999999" points="870.6,-351778 697.1,-351778 697.1,-351759.5 870.6,-351759.5 870.6,-351778"/>
<text text-anchor="middle" x="783.85" y="-351764.5" font-family="Helvetica,sans-Serif" font-size="10.00">sqsh_reader_private.h</text>
</a>
</g>
</g>
<!-- Node8&#45;&gt;Node15 -->
<g id="edge23_Node000008_Node000015" class="edge">
<title>Node8&#45;&gt;Node15</title>
<g id="a_edge23_Node000008_Node000015"><a xlink:title=" ">
<path fill="none" stroke="#63b8ff" d="M607.85,-2907136.28C608.18,-2904569.36 683.16,-2319937.93 717.85,-1852027.16 767.13,-1187137.29 783.75,-356496.42 783.85,-351789.85"/>
<polygon fill="#63b8ff" stroke="#63b8ff" points="787.35,-351789.93 783.85,-351779.93 780.35,-351789.93 787.35,-351789.93"/>
</a>
</g>
</g>
<!-- Node8&#45;&gt;Node16 -->
<g id="edge20_Node000008_Node000016" class="edge">
<title>Node8&#45;&gt;Node16</title>
<g id="a_edge20_Node000008_Node000016"><a xlink:title=" ">
<path fill="none" stroke="#63b8ff" d="M607.85,-2907136.21C607.28,-2904322.79 466.72,-2208053.09 465.85,-2203763.92"/>
<polygon fill="#63b8ff" stroke="#63b8ff" points="469.35,-2203764.05 465.85,-2203754.05 462.35,-2203764.05 469.35,-2203764.05"/>
</a>
</g>
</g>
<!-- Node10 -->
<g id="Node000010" class="node">
<title>Node10</title>
<g id="a_Node000010"><a xlink:title=" ">
<polygon fill="#e0e0e0" stroke="#999999" points="362.85,-703420.06 196.85,-703420.06 196.85,-117.44 362.85,-117.44 362.85,-703420.06"/>
<text text-anchor="middle" x="279.85" y="-703406.56" font-family="Helvetica,sans-Serif" font-size="10.00">cextras/collection.h</text>
</a>
</g>
</g>
<!-- Node9&#45;&gt;Node10 -->
<g id="edge10_Node000009_Node000010" class="edge">
<title>Node9&#45;&gt;Node10</title>
<g id="a_edge10_Node000009_Node000010"><a xlink:title=" ">
<path fill="none" stroke="#63b8ff" d="M335.85,-704521.01C335.79,-704157.83 335.73,-703794.74 335.67,-703431.75"/>
<polygon fill="#63b8ff" stroke="#63b8ff" points="339.17,-703431.99 335.67,-703421.99 332.17,-703431.99 339.17,-703431.99"/>
</a>
</g>
</g>
<!-- Node11 -->
<g id="Node000011" class="node">
<title>Node11</title>
<g id="a_Node000011"><a xlink:href="sqsh__data_8h.html" target="_top" xlink:title=" ">
<polygon fill="white" stroke="#666666" points="179.1,-703421.01 80.6,-703421.01 80.6,-116.5 179.1,-116.5 179.1,-703421.01"/>
<text text-anchor="middle" x="129.85" y="-703407.51" font-family="Helvetica,sans-Serif" font-size="10.00">sqsh_data.h</text>
</a>
</g>
</g>
<!-- Node9&#45;&gt;Node11 -->
<g id="edge11_Node000009_Node000011" class="edge">
<title>Node9&#45;&gt;Node11</title>
<g id="a_edge11_Node000009_Node000011"><a xlink:title=" ">
<path fill="none" stroke="#63b8ff" d="M335.85,-1087825.96C285.22,-975936.81 225.1,-831629.37 187.85,-703421.01 184.97,-693510.92 182.22,-683443.75 179.6,-673279.24"/>
<polygon fill="#63b8ff" stroke="#63b8ff" points="183.1,-673279.58 179.6,-673269.59 176.1,-673279.59 183.1,-673279.58"/>
</a>
</g>
</g>
<!-- Node12 -->
<g id="Node000012" class="node">
<title>Node12</title>
<g id="a_Node000012"><a xlink:title=" ">
<polygon fill="#e0e0e0" stroke="#999999" points="546.85,-351781.75 380.85,-351781.75 380.85,-351755.75 546.85,-351755.75 546.85,-351781.75"/>
<text text-anchor="middle" x="463.85" y="-351768.25" font-family="Helvetica,sans-Serif" font-size="10.00">sqsh_utils_private.h</text>
</a>
</g>
</g>
<!-- Node9&#45;&gt;Node12 -->
<g id="edge13_Node000009_Node000012" class="edge">
<title>Node9&#45;&gt;Node12</title>
<g id="a_edge13_Node000009_Node000012"><a xlink:title=" ">
<path fill="none" stroke="#63b8ff" d="M449.79,-703456.81C457.29,-515775.18 463.76,-354031.87 463.85,-351793.27"/>
<polygon fill="#63b8ff" stroke="#63b8ff" points="467.35,-351793.48 463.85,-351783.48 460.35,-351793.48 467.35,-351793.48"/>
</a>
</g>
</g>
<!-- Node11&#45;&gt;Node4 -->
<g id="edge12_Node000011_Node000004" class="edge">
<title>Node11&#45;&gt;Node4</title>
<g id="a_edge12_Node000011_Node000004"><a xlink:title=" ">
<path fill="none" stroke="#63b8ff" d="M179.59,-330.47C182.27,-191.68 185.03,-119.71 187.85,-116.5 205.59,-96.32 366.61,-82.68 461.25,-76.34"/>
<polygon fill="#63b8ff" stroke="#63b8ff" points="461.47,-79.83 471.22,-75.68 461.01,-72.84 461.47,-79.83"/>
</a>
</g>
</g>
<!-- Node13&#45;&gt;Node12 -->
<g id="edge19_Node000013_Node000012" class="edge">
<title>Node13&#45;&gt;Node12</title>
<g id="a_edge19_Node000013_Node000012"><a xlink:title=" ">
<path fill="none" stroke="#63b8ff" d="M621.85,-1277732.53C621.54,-1275833.29 569.55,-957931.03 525.85,-703457.01 499.18,-548142.47 464.29,-354245.45 463.85,-351793.25"/>
<polygon fill="#63b8ff" stroke="#63b8ff" points="467.35,-351793.53 463.85,-351783.53 460.35,-351793.53 467.35,-351793.53"/>
</a>
</g>
</g>
<!-- Node14 -->
<g id="Node000014" class="node">
<title>Node14</title>
<g id="a_Node000014"><a xlink:href="sqsh__mapper_8h.html" target="_top" xlink:title=" ">
<polygon fill="white" stroke="#666666" points="678.6,-351778 565.1,-351778 565.1,-351759.5 678.6,-351759.5 678.6,-351778"/>
<text text-anchor="middle" x="621.85" y="-351764.5" font-family="Helvetica,sans-Serif" font-size="10.00">sqsh_mapper.h</text>
</a>
</g>
</g>
<!-- Node13&#45;&gt;Node14 -->
<g id="edge15_Node000013_Node000014" class="edge">
<title>Node13&#45;&gt;Node14</title>
<g id="a_edge15_Node000013_Node000014"><a xlink:title=" ">
<path fill="none" stroke="#63b8ff" d="M621.85,-1277732.39C621.85,-1274474.78 621.85,-356716.03 621.85,-351789.66"/>
<polygon fill="#63b8ff" stroke="#63b8ff" points="625.35,-351789.93 621.85,-351779.93 618.35,-351789.93 625.35,-351789.93"/>
</a>
</g>
</g>
<!-- Node13&#45;&gt;Node15 -->
<g id="edge18_Node000013_Node000015" class="edge">
<title>Node13&#45;&gt;Node15</title>
<g id="a_edge18_Node000013_Node000015"><a xlink:title=" ">
<path fill="none" stroke="#63b8ff" d="M621.85,-1277732.39C622.42,-1274474.78 782.98,-356716.03 783.84,-351789.66"/>
<polygon fill="#63b8ff" stroke="#63b8ff" points="787.34,-351789.93 783.85,-351779.93 780.34,-351789.93 787.34,-351789.93"/>
</a>
</g>
</g>
<!-- Node14&#45;&gt;Node4 -->
<g id="edge16_Node000014_Node000004" class="edge">
<title>Node14&#45;&gt;Node4</title>
<g id="a_edge16_Node000014_Node000004"><a xlink:title=" ">
<path fill="none" stroke="#63b8ff" d="M621.85,-351759.1C622.39,-349756.49 715.7,-703.89 555.85,-116.5 553.31,-107.16 548.24,-97.78 543.25,-90.08"/>
<polygon fill="#63b8ff" stroke="#63b8ff" points="546.2,-88.19 537.6,-82.01 540.47,-92.21 546.2,-88.19"/>
</a>
</g>
</g>
<!-- Node14&#45;&gt;Node6 -->
<g id="edge17_Node000014_Node000006" class="edge">
<title>Node14&#45;&gt;Node6</title>
<g id="a_edge17_Node000014_Node000006"><a xlink:title=" ">
<path fill="none" stroke="#63b8ff" d="M621.85,-351759.09C621.85,-349761.28 621.85,-3056.92 621.85,-33.88"/>
<polygon fill="#63b8ff" stroke="#63b8ff" points="625.35,-34.13 621.85,-24.13 618.35,-34.13 625.35,-34.13"/>
</a>
</g>
</g>
<!-- Node16&#45;&gt;Node9 -->
<g id="edge21_Node000016_Node000009" class="edge">
<title>Node16&#45;&gt;Node9</title>
<g id="a_edge21_Node000016_Node000009"><a xlink:title=" ">
<path fill="none" stroke="#63b8ff" d="M465.85,-2203733.33C465.79,-2202367.49 458.96,-2040243.56 451.03,-1852038.8"/>
<polygon fill="#63b8ff" stroke="#63b8ff" points="454.53,-1852039 451.03,-1852029 447.53,-1852039 454.53,-1852039"/>
</a>
</g>
</g>
<!-- Node16&#45;&gt;Node13 -->
<g id="edge22_Node000016_Node000013" class="edge">
<title>Node16&#45;&gt;Node13</title>
<g id="a_edge22_Node000016_Node000013"><a xlink:title=" ">
<path fill="none" stroke="#63b8ff" d="M465.85,-2203733.37C466.11,-2202239.91 499.55,-2007743.8 525.85,-1852027.16 568.75,-1597956.96 621.36,-1280659.68 621.84,-1277763.06"/>
<polygon fill="#63b8ff" stroke="#63b8ff" points="625.34,-1277763.15 621.85,-1277753.15 618.34,-1277763.15 625.34,-1277763.15"/>
</a>
</g>
</g>
</g>
</svg>

<g id="navigator" transform="translate(0 0)" fill="#404254">
  <rect fill="#f2f5e9" fill-opacity="0.5" stroke="#606060" stroke-width=".5" x="0" y="0" width="60" height="60"/>
  <use id="zoomplus" xlink:href="#zoomPlus" x="17" y="9" onmousedown="handleZoom(evt,'in')"/>
  <use id="zoomminus" xlink:href="#zoomMin" x="42" y="9" onmousedown="handleZoom(evt,'out')"/>
  <use id="reset" xlink:href="#resetDef" x="30" y="36" onmousedown="handleReset()"/>
   <use id="arrowup" xlink:href="#arrowUp" x="0" y="0" onmousedown="handlePan(0,-1)"/>
  <use id="arrowright" xlink:href="#arrowRight" x="0" y="0" onmousedown="handlePan(1,0)"/>
  <use id="arrowdown" xlink:href="#arrowDown" x="0" y="0" onmousedown="handlePan(0,1)"/>
  <use id="arrowleft" xlink:href="#arrowLeft" x="0" y="0" onmousedown="handlePan(-1,0)"/>
</g>
<svg viewBox="0 0 15 15" width="100%" height="30px" preserveAspectRatio="xMaxYMin meet">
 <g id="arrow_out" transform="scale(0.3 0.3)">
  <a xlink:href="sqsh__directory__private_8h__incl_org.svg" target="_base">
   <rect id="button" ry="5" rx="5" y="6" x="6" height="38" width="38"
        fill="#f2f5e9" fill-opacity="0.5" stroke="#606060" stroke-width="1.0"/>
   <path id="arrow"
     d="M 11.500037,31.436501 C 11.940474,20.09759 22.043105,11.32322 32.158766,21.979434 L 37.068811,17.246167 C 37.068811,17.246167 37.088388,32 37.088388,32 L 22.160133,31.978069 C 22.160133,31.978069 26.997745,27.140456 26.997745,27.140456 C 18.528582,18.264221 13.291696,25.230495 11.500037,31.436501 z"
     style="fill:#404040;"/>
  </a>
 </g>
</svg>

<style type='text/css'>
<![CDATA[
[data-mouse-over-selected='false'] { opacity: 0.7; }
[data-mouse-over-selected='true']  { opacity: 1.0; }
]]>
</style>
<script type="application/ecmascript"><![CDATA[
document.addEventListener('DOMContentLoaded', (event) => {
  highlightEdges();
  highlightAdjacentNodes();
});
]]></script>
</svg>
