<?xml version="1.0" encoding="UTF-8" standalone="no"?>
<!DOCTYPE svg PUBLIC "-//W3C//DTD SVG 1.1//EN"
 "http://www.w3.org/Graphics/SVG/1.1/DTD/svg11.dtd">
<!-- Generated by graphviz version 8.0.5 (20230430.1635)
 -->
<!-- Title: include/sqsh_archive.h Pages: 1 -->
<svg width="1398pt" height="194pt"
 viewBox="0.00 0.00 1398.00 193.84" xmlns="http://www.w3.org/2000/svg" xmlns:xlink="http://www.w3.org/1999/xlink">
<g id="graph0" class="graph" transform="scale(1 1) rotate(0) translate(4 189.84)">
<title>include/sqsh_archive.h</title>
<!-- Node1 -->
<g id="node1" class="node">
<title>Node1</title>
<g id="a_node1"><a xlink:title=" ">
<polygon fill="#999999" stroke="#666666" points="847.75,-185.84 666.75,-185.84 666.75,-167.27 847.75,-167.27 847.75,-185.84"/>
<text text-anchor="middle" x="757.25" y="-172.34" font-family="Helvetica,sans-Serif" font-size="10.00">include/sqsh_archive.h</text>
</a>
</g>
</g>
<!-- Node2 -->
<g id="node2" class="node">
<title>Node2</title>
<g id="a_node2"><a xlink:href="sqsh_8h.html" target="_top" xlink:title=" ">
<polygon fill="white" stroke="#666666" points="736.75,-114.08 615.75,-114.08 615.75,-95.58 736.75,-95.58 736.75,-114.08"/>
<text text-anchor="middle" x="676.25" y="-100.58" font-family="Helvetica,sans-Serif" font-size="10.00">include/sqsh.h</text>
</a>
</g>
</g>
<!-- Node1&#45;&gt;Node2 -->
<g id="edge1" class="edge">
<title>Node1&#45;&gt;Node2</title>
<path fill="none" stroke="#63b8ff" d="M739.09,-159.92C722.77,-145.87 699.42,-125.77 686.26,-114.45"/>
<polygon fill="#63b8ff" stroke="#63b8ff" points="736.46,-163.13 746.32,-167 741.02,-157.83 736.46,-163.13"/>
</g>
<!-- Node10 -->
<g id="node10" class="node">
<title>Node10</title>
<g id="a_node10"><a xlink:href="sqsh__archive__private_8h.html" target="_top" xlink:title=" ">
<polygon fill="white" stroke="#666666" points="921.25,-131.27 755.25,-131.27 755.25,-78.38 921.25,-78.38 921.25,-131.27"/>
<text text-anchor="start" x="763.25" y="-117.77" font-family="Helvetica,sans-Serif" font-size="10.00">libsqsh/include/sqsh</text>
<text text-anchor="middle" x="838.25" y="-83.38" font-family="Helvetica,sans-Serif" font-size="10.00">_archive_private.h</text>
</a>
</g>
</g>
<!-- Node1&#45;&gt;Node10 -->
<g id="edge9" class="edge">
<title>Node1&#45;&gt;Node10</title>
<path fill="none" stroke="#63b8ff" d="M775.29,-160.02C785,-151.66 797.24,-141.13 808.33,-131.58"/>
<polygon fill="#63b8ff" stroke="#63b8ff" points="773.48,-157.83 768.18,-167 778.04,-163.13 773.48,-157.83"/>
</g>
<!-- Node3 -->
<g id="node3" class="node">
<title>Node3</title>
<g id="a_node3"><a xlink:href="list__dir_8c.html" target="_top" xlink:title=" ">
<polygon fill="white" stroke="#666666" points="158.5,-30.44 0,-30.44 0,-11.94 158.5,-11.94 158.5,-30.44"/>
<text text-anchor="middle" x="79.25" y="-16.94" font-family="Helvetica,sans-Serif" font-size="10.00">examples/list_dir.c</text>
</a>
</g>
</g>
<!-- Node2&#45;&gt;Node3 -->
<g id="edge2" class="edge">
<title>Node2&#45;&gt;Node3</title>
<path fill="none" stroke="#63b8ff" d="M604.87,-97.6C506.09,-88.45 322.34,-69.46 167.25,-42.38 149.34,-39.26 129.59,-34.82 113.35,-30.9"/>
<polygon fill="#63b8ff" stroke="#63b8ff" points="604.34,-101.16 614.62,-98.59 604.98,-94.19 604.34,-101.16"/>
</g>
<!-- Node4 -->
<g id="node4" class="node">
<title>Node4</title>
<g id="a_node4"><a xlink:href="list__dir__ll_8c.html" target="_top" xlink:title=" ">
<polygon fill="white" stroke="#666666" points="357.75,-30.44 176.75,-30.44 176.75,-11.94 357.75,-11.94 357.75,-30.44"/>
<text text-anchor="middle" x="267.25" y="-16.94" font-family="Helvetica,sans-Serif" font-size="10.00">examples/list_dir_ll.c</text>
</a>
</g>
</g>
<!-- Node2&#45;&gt;Node4 -->
<g id="edge3" class="edge">
<title>Node2&#45;&gt;Node4</title>
<path fill="none" stroke="#63b8ff" d="M621.12,-93C559.12,-80.79 455.43,-60.32 366.25,-42.38 347.68,-38.65 327.16,-34.47 309.63,-30.89"/>
<polygon fill="#63b8ff" stroke="#63b8ff" points="620.34,-96.6 630.83,-95.1 621.69,-89.74 620.34,-96.6"/>
</g>
<!-- Node5 -->
<g id="node5" class="node">
<title>Node5</title>
<g id="a_node5"><a xlink:href="list__xattrs_8c.html" target="_top" xlink:title=" ">
<polygon fill="white" stroke="#666666" points="556.75,-42.38 375.75,-42.38 375.75,0 556.75,0 556.75,-42.38"/>
<text text-anchor="middle" x="466.25" y="-28.88" font-family="Helvetica,sans-Serif" font-size="10.00">examples/list_xattrs.c</text>
</a>
</g>
</g>
<!-- Node2&#45;&gt;Node5 -->
<g id="edge4" class="edge">
<title>Node2&#45;&gt;Node5</title>
<path fill="none" stroke="#63b8ff" d="M643.7,-91.17C610.51,-78.27 558.48,-58.04 519.32,-42.82"/>
<polygon fill="#63b8ff" stroke="#63b8ff" points="642.19,-94.73 652.78,-95.09 644.72,-88.2 642.19,-94.73"/>
</g>
<!-- Node6 -->
<g id="node6" class="node">
<title>Node6</title>
<g id="a_node6"><a xlink:href="list__xattrs__ll_8c.html" target="_top" xlink:title=" ">
<polygon fill="white" stroke="#666666" points="778,-34.19 574.5,-34.19 574.5,-8.19 778,-8.19 778,-34.19"/>
<text text-anchor="middle" x="676.25" y="-20.69" font-family="Helvetica,sans-Serif" font-size="10.00">examples/list_xattrs_ll.c</text>
</a>
</g>
</g>
<!-- Node2&#45;&gt;Node6 -->
<g id="edge5" class="edge">
<title>Node2&#45;&gt;Node6</title>
<path fill="none" stroke="#63b8ff" d="M676.25,-84.17C676.25,-68.74 676.25,-47.74 676.25,-34.57"/>
<polygon fill="#63b8ff" stroke="#63b8ff" points="672.75,-84.09 676.25,-94.09 679.75,-84.09 672.75,-84.09"/>
</g>
<!-- Node7 -->
<g id="node7" class="node">
<title>Node7</title>
<g id="a_node7"><a xlink:href="read__file_8c.html" target="_top" xlink:title=" ">
<polygon fill="white" stroke="#666666" points="962.25,-30.44 796.25,-30.44 796.25,-11.94 962.25,-11.94 962.25,-30.44"/>
<text text-anchor="middle" x="879.25" y="-16.94" font-family="Helvetica,sans-Serif" font-size="10.00">examples/read_file.c</text>
</a>
</g>
</g>
<!-- Node2&#45;&gt;Node7 -->
<g id="edge6" class="edge">
<title>Node2&#45;&gt;Node7</title>
<path fill="none" stroke="#63b8ff" d="M708.14,-91C749.85,-74.23 821.84,-45.28 857.68,-30.87"/>
<polygon fill="#63b8ff" stroke="#63b8ff" points="706.95,-88.11 698.97,-95.09 709.56,-94.61 706.95,-88.11"/>
</g>
<!-- Node8 -->
<g id="node8" class="node">
<title>Node8</title>
<g id="a_node8"><a xlink:href="read__file__ll_8c.html" target="_top" xlink:title=" ">
<polygon fill="white" stroke="#666666" points="1168.5,-30.44 980,-30.44 980,-11.94 1168.5,-11.94 1168.5,-30.44"/>
<text text-anchor="middle" x="1074.25" y="-16.94" font-family="Helvetica,sans-Serif" font-size="10.00">examples/read_file_ll.c</text>
</a>
</g>
</g>
<!-- Node2&#45;&gt;Node8 -->
<g id="edge7" class="edge">
<title>Node2&#45;&gt;Node8</title>
<path fill="none" stroke="#63b8ff" d="M707.07,-91.19C719.13,-86.63 733.18,-81.77 746.25,-78.38 844.28,-52.97 871.54,-60.13 971.25,-42.38 991.07,-38.86 1012.97,-34.61 1031.47,-30.93"/>
<polygon fill="#63b8ff" stroke="#63b8ff" points="706.11,-88.2 698.06,-95.08 708.65,-94.72 706.11,-88.2"/>
</g>
<!-- Node9 -->
<g id="node9" class="node">
<title>Node9</title>
<g id="a_node9"><a xlink:href="readme__example_8c.html" target="_top" xlink:title=" ">
<polygon fill="white" stroke="#666666" points="1390,-30.44 1186.5,-30.44 1186.5,-11.94 1390,-11.94 1390,-30.44"/>
<text text-anchor="middle" x="1288.25" y="-16.94" font-family="Helvetica,sans-Serif" font-size="10.00">examples/readme_example.c</text>
</a>
</g>
</g>
<!-- Node2&#45;&gt;Node9 -->
<g id="edge8" class="edge">
<title>Node2&#45;&gt;Node9</title>
<path fill="none" stroke="#63b8ff" d="M705.88,-91.08C718.15,-86.33 732.67,-81.36 746.25,-78.38 934.01,-37.19 986.69,-67.61 1177.25,-42.38 1199.97,-39.38 1225.11,-34.9 1245.71,-30.93"/>
<polygon fill="#63b8ff" stroke="#63b8ff" points="704.72,-88.18 696.75,-95.15 707.33,-94.67 704.72,-88.18"/>
</g>
</g>
</svg>
