<?xml version="1.0" encoding="UTF-8" standalone="no"?>
<!DOCTYPE svg PUBLIC "-//W3C//DTD SVG 1.1//EN"
 "http://www.w3.org/Graphics/SVG/1.1/DTD/svg11.dtd">
<!-- Generated by graphviz version 9.0.0 (20230911.1827)
 -->
<!-- Title: include/sqsh_table.h Pages: 1 -->
<svg width="280pt" height="395702pt"
 viewBox="0.00 0.00 279.75 395701.72" xmlns="http://www.w3.org/2000/svg" xmlns:xlink="http://www.w3.org/1999/xlink">
<g id="graph0" class="graph" transform="scale(1 1) rotate(0) translate(4 395697.72)">
<title>include/sqsh_table.h</title>
<!-- Node1 -->
<g id="Node000001" class="node">
<title>Node1</title>
<g id="a_Node000001"><a xlink:title=" ">
<polygon fill="#999999" stroke="#666666" points="222.75,-395693.72 56.75,-395693.72 56.75,-395675.22 222.75,-395675.22 222.75,-395693.72"/>
<text text-anchor="middle" x="139.75" y="-395680.22" font-family="Helvetica,sans-Serif" font-size="10.00">include/sqsh_table.h</text>
</a>
</g>
</g>
<!-- Node2 -->
<g id="Node000002" class="node">
<title>Node2</title>
<g id="a_Node000002"><a xlink:href="sqsh__common_8h.html" target="_top" xlink:title=" ">
<polygon fill="white" stroke="#666666" points="196.5,-395639.22 83,-395639.22 83,-65.56 196.5,-65.56 196.5,-395639.22"/>
<text text-anchor="middle" x="139.75" y="-395625.72" font-family="Helvetica,sans-Serif" font-size="10.00">sqsh_common.h</text>
</a>
</g>
</g>
<!-- Node1&#45;&gt;Node2 -->
<g id="edge1_Node000001_Node000002" class="edge">
<title>Node1&#45;&gt;Node2</title>
<g id="a_edge1_Node000001_Node000002"><a xlink:title=" ">
<path fill="none" stroke="#63b8ff" d="M139.75,-395674.99C139.75,-395669.58 139.75,-395661.59 139.75,-395651.04"/>
<polygon fill="#63b8ff" stroke="#63b8ff" points="143.25,-395651.15 139.75,-395641.15 136.25,-395651.15 143.25,-395651.15"/>
</a>
</g>
</g>
<!-- Node3 -->
<g id="Node000003" class="node">
<title>Node3</title>
<g id="a_Node000003"><a xlink:title=" ">
<polygon fill="#e0e0e0" stroke="#999999" points="83.5,-24.03 0,-24.03 0,-5.53 83.5,-5.53 83.5,-24.03"/>
<text text-anchor="middle" x="41.75" y="-10.53" font-family="Helvetica,sans-Serif" font-size="10.00">stdbool.h</text>
</a>
</g>
</g>
<!-- Node2&#45;&gt;Node3 -->
<g id="edge2_Node000002_Node000003" class="edge">
<title>Node2&#45;&gt;Node3</title>
<g id="a_edge2_Node000002_Node000003"><a xlink:title=" ">
<path fill="none" stroke="#63b8ff" d="M82.5,-82279.32C61.32,-39517.27 42.25,-1030.68 41.76,-35.51"/>
<polygon fill="#63b8ff" stroke="#63b8ff" points="45.26,-35.8 41.75,-25.8 38.26,-35.8 45.26,-35.8"/>
</a>
</g>
</g>
<!-- Node4 -->
<g id="Node000004" class="node">
<title>Node4</title>
<g id="a_Node000004"><a xlink:title=" ">
<polygon fill="#e0e0e0" stroke="#999999" points="177.75,-29.56 101.75,-29.56 101.75,0 177.75,0 177.75,-29.56"/>
<text text-anchor="middle" x="139.75" y="-16.06" font-family="Helvetica,sans-Serif" font-size="10.00">stddef.h</text>
</a>
</g>
</g>
<!-- Node2&#45;&gt;Node4 -->
<g id="edge3_Node000002_Node000004" class="edge">
<title>Node2&#45;&gt;Node4</title>
<g id="a_edge3_Node000002_Node000004"><a xlink:title=" ">
<path fill="none" stroke="#63b8ff" d="M139.75,-65.22C139.75,-55.84 139.75,-47.78 139.75,-41.06"/>
<polygon fill="#63b8ff" stroke="#63b8ff" points="143.25,-41.29 139.75,-31.29 136.25,-41.29 143.25,-41.29"/>
</a>
</g>
</g>
<!-- Node5 -->
<g id="Node000005" class="node">
<title>Node5</title>
<g id="a_Node000005"><a xlink:title=" ">
<polygon fill="#e0e0e0" stroke="#999999" points="271.75,-24.03 195.75,-24.03 195.75,-5.53 271.75,-5.53 271.75,-24.03"/>
<text text-anchor="middle" x="233.75" y="-10.53" font-family="Helvetica,sans-Serif" font-size="10.00">stdint.h</text>
</a>
</g>
</g>
<!-- Node2&#45;&gt;Node5 -->
<g id="edge4_Node000002_Node000005" class="edge">
<title>Node2&#45;&gt;Node5</title>
<g id="a_edge4_Node000002_Node000005"><a xlink:title=" ">
<path fill="none" stroke="#63b8ff" d="M197,-77361.1C216.36,-36608.1 233.29,-990.24 233.74,-35.43"/>
<polygon fill="#63b8ff" stroke="#63b8ff" points="237.24,-35.62 233.75,-25.62 230.24,-35.62 237.24,-35.62"/>
</a>
</g>
</g>
</g>
</svg>
