<?xml version="1.0" encoding="UTF-8" standalone="no"?>
<!DOCTYPE svg PUBLIC "-//W3C//DTD SVG 1.1//EN"
 "http://www.w3.org/Graphics/SVG/1.1/DTD/svg11.dtd">
<!-- Generated by graphviz version 9.0.0 (20230911.1827)
 -->
<!-- Title: include/sqsh_common.h Pages: 1 -->
<svg width="280pt" height="743318pt"
 viewBox="0.00 0.00 279.75 743317.98" xmlns="http://www.w3.org/2000/svg" xmlns:xlink="http://www.w3.org/1999/xlink">
<g id="graph0" class="graph" transform="scale(1 1) rotate(0) translate(4 743313.98)">
<title>include/sqsh_common.h</title>
<!-- Node1 -->
<g id="Node000001" class="node">
<title>Node1</title>
<g id="a_Node000001"><a xlink:title=" ">
<polygon fill="#999999" stroke="#666666" points="226.5,-743309.98 53,-743309.98 53,-743291.48 226.5,-743291.48 226.5,-743309.98"/>
<text text-anchor="middle" x="139.75" y="-743296.48" font-family="Helvetica,sans-Serif" font-size="10.00">include/sqsh_common.h</text>
</a>
</g>
</g>
<!-- Node2 -->
<g id="Node000002" class="node">
<title>Node2</title>
<g id="a_Node000002"><a xlink:title=" ">
<polygon fill="#e0e0e0" stroke="#999999" points="83.5,-371636.99 0,-371636.99 0,-371618.49 83.5,-371618.49 83.5,-371636.99"/>
<text text-anchor="middle" x="41.75" y="-371623.49" font-family="Helvetica,sans-Serif" font-size="10.00">stdbool.h</text>
</a>
</g>
</g>
<!-- Node1&#45;&gt;Node2 -->
<g id="edge1_Node000001_Node000002" class="edge">
<title>Node1&#45;&gt;Node2</title>
<g id="a_edge1_Node000001_Node000002"><a xlink:title=" ">
<path fill="none" stroke="#63b8ff" d="M125.68,-743291.19C114.41,-743283.45 99.42,-743270.91 92.75,-743255.48 -34.66,-742960.59 41.11,-374746.85 41.75,-371648.41"/>
<polygon fill="#63b8ff" stroke="#63b8ff" points="45.25,-371648.64 41.75,-371638.64 38.25,-371648.64 45.25,-371648.64"/>
</a>
</g>
</g>
<!-- Node3 -->
<g id="Node000003" class="node">
<title>Node3</title>
<g id="a_Node000003"><a xlink:title=" ">
<polygon fill="#e0e0e0" stroke="#999999" points="177.75,-371642.56 101.75,-371642.56 101.75,-371612.92 177.75,-371612.92 177.75,-371642.56"/>
<text text-anchor="middle" x="139.75" y="-371629.06" font-family="Helvetica,sans-Serif" font-size="10.00">stddef.h</text>
</a>
</g>
</g>
<!-- Node1&#45;&gt;Node3 -->
<g id="edge2_Node000001_Node000003" class="edge">
<title>Node1&#45;&gt;Node3</title>
<g id="a_edge2_Node000001_Node000003"><a xlink:title=" ">
<path fill="none" stroke="#63b8ff" d="M139.75,-743291.33C139.75,-741270.6 139.75,-375159.05 139.75,-371654.07"/>
<polygon fill="#63b8ff" stroke="#63b8ff" points="143.25,-371654.12 139.75,-371644.12 136.25,-371654.12 143.25,-371654.12"/>
</a>
</g>
</g>
<!-- Node4 -->
<g id="Node000004" class="node">
<title>Node4</title>
<g id="a_Node000004"><a xlink:title=" ">
<polygon fill="#e0e0e0" stroke="#999999" points="271.75,-743255.48 195.75,-743255.48 195.75,0 271.75,0 271.75,-743255.48"/>
<text text-anchor="middle" x="233.75" y="-743241.98" font-family="Helvetica,sans-Serif" font-size="10.00">stdint.h</text>
</a>
</g>
</g>
<!-- Node1&#45;&gt;Node4 -->
<g id="edge3_Node000001_Node000004" class="edge">
<title>Node1&#45;&gt;Node4</title>
<g id="a_edge3_Node000001_Node000004"><a xlink:title=" ">
<path fill="none" stroke="#63b8ff" d="M153.82,-743291.19C165.09,-743283.45 180.08,-743270.91 186.75,-743255.48 189.66,-743248.74 192.47,-743049.48 195.17,-742666.5"/>
<polygon fill="#63b8ff" stroke="#63b8ff" points="198.67,-742666.65 195.24,-742656.63 191.67,-742666.6 198.67,-742666.65"/>
</a>
</g>
</g>
</g>
</svg>
