<?xml version="1.0" encoding="UTF-8" standalone="no"?>
<!DOCTYPE svg PUBLIC "-//W3C//DTD SVG 1.1//EN"
 "http://www.w3.org/Graphics/SVG/1.1/DTD/svg11.dtd">
<!-- Generated by graphviz version 8.0.5 (20230430.1635)
 -->
<!-- Title: libsqsh/include/sqsh_xattr_private.h Pages: 1 -->
<svg width="1006pt" height="2063134pt"
 viewBox="0.00 0.00 1005.50 2063133.79" xmlns="http://www.w3.org/2000/svg" xmlns:xlink="http://www.w3.org/1999/xlink">
<g id="graph0" class="graph" transform="scale(1 1) rotate(0) translate(4 2063129.79)">
<title>libsqsh/include/sqsh_xattr_private.h</title>
<!-- Node1 -->
<g id="node1" class="node">
<title>Node1</title>
<g id="a_node1"><a xlink:title=" ">
<polygon fill="#999999" stroke="#666666" points="713.5,-2063125.79 547.5,-2063125.79 547.5,-1031665.48 713.5,-1031665.48 713.5,-2063125.79"/>
<text text-anchor="start" x="555.5" y="-2063112.29" font-family="Helvetica,sans-Serif" font-size="10.00">libsqsh/include/sqsh</text>
<text text-anchor="middle" x="630.5" y="-1031670.57" font-family="Helvetica,sans-Serif" font-size="10.00">_xattr_private.h</text>
</a>
</g>
</g>
<!-- Node2 -->
<g id="node2" class="node">
<title>Node2</title>
<g id="a_node2"><a xlink:href="sqsh__metablock__private_8h.html" target="_top" xlink:title=" ">
<polygon fill="white" stroke="#666666" points="529.5,-1031617.54 333.5,-1031617.54 333.5,-1031599.04 529.5,-1031599.04 529.5,-1031617.54"/>
<text text-anchor="middle" x="431.5" y="-1031604.04" font-family="Helvetica,sans-Serif" font-size="10.00">sqsh_metablock_private.h</text>
</a>
</g>
</g>
<!-- Node1&#45;&gt;Node2 -->
<g id="edge1" class="edge">
<title>Node1&#45;&gt;Node2</title>
<path fill="none" stroke="#63b8ff" d="M547,-1330972.21C492.88,-1190706.45 432.28,-1033633.34 431.51,-1031628.68"/>
<polygon fill="#63b8ff" stroke="#63b8ff" points="435.01,-1031628.94 431.5,-1031618.94 428.01,-1031628.94 435.01,-1031628.94"/>
</g>
<!-- Node10 -->
<g id="node10" class="node">
<title>Node10</title>
<g id="a_node10"><a xlink:href="sqsh__table__private_8h.html" target="_top" xlink:title=" ">
<polygon fill="white" stroke="#666666" points="713.5,-1031629.48 547.5,-1031629.48 547.5,-1031587.1 713.5,-1031587.1 713.5,-1031629.48"/>
<text text-anchor="middle" x="630.5" y="-1031615.98" font-family="Helvetica,sans-Serif" font-size="10.00">sqsh_table_private.h</text>
</a>
</g>
</g>
<!-- Node1&#45;&gt;Node10 -->
<g id="edge11" class="edge">
<title>Node1&#45;&gt;Node10</title>
<path fill="none" stroke="#63b8ff" d="M630.5,-1031665C630.5,-1031655.74 630.5,-1031647.64 630.5,-1031640.69"/>
<polygon fill="#63b8ff" stroke="#63b8ff" points="634,-1031640.75 630.5,-1031630.75 627,-1031640.75 634,-1031640.75"/>
</g>
<!-- Node16 -->
<g id="node16" class="node">
<title>Node16</title>
<g id="a_node16"><a xlink:href="sqsh__xattr_8h.html" target="_top" xlink:title=" ">
<polygon fill="white" stroke="#666666" points="879.5,-1031617.54 773.5,-1031617.54 773.5,-1031599.04 879.5,-1031599.04 879.5,-1031617.54"/>
<text text-anchor="middle" x="826.5" y="-1031604.04" font-family="Helvetica,sans-Serif" font-size="10.00">sqsh_xattr.h</text>
</a>
</g>
</g>
<!-- Node1&#45;&gt;Node16 -->
<g id="edge19" class="edge">
<title>Node1&#45;&gt;Node16</title>
<path fill="none" stroke="#63b8ff" d="M714,-1327659.65C766.98,-1188246.77 825.74,-1033620.8 826.49,-1031628.75"/>
<polygon fill="#63b8ff" stroke="#63b8ff" points="829.99,-1031628.81 826.5,-1031618.81 822.99,-1031628.81 829.99,-1031628.81"/>
</g>
<!-- Node3 -->
<g id="node3" class="node">
<title>Node3</title>
<g id="a_node3"><a xlink:href="sqsh__extract__private_8h.html" target="_top" xlink:title=" ">
<polygon fill="white" stroke="#666666" points="674,-1031547.35 493,-1031547.35 493,-1031528.85 674,-1031528.85 674,-1031547.35"/>
<text text-anchor="middle" x="583.5" y="-1031533.85" font-family="Helvetica,sans-Serif" font-size="10.00">sqsh_extract_private.h</text>
</a>
</g>
</g>
<!-- Node2&#45;&gt;Node3 -->
<g id="edge2" class="edge">
<title>Node2&#45;&gt;Node3</title>
<path fill="none" stroke="#63b8ff" d="M450.75,-1031598.66C476.91,-1031586.92 523.89,-1031565.84 554.37,-1031552.17"/>
<polygon fill="#63b8ff" stroke="#63b8ff" points="555.71,-1031554.95 563.41,-1031547.67 552.85,-1031548.57 555.71,-1031554.95"/>
</g>
<!-- Node6 -->
<g id="node6" class="node">
<title>Node6</title>
<g id="a_node6"><a xlink:href="sqsh__mapper__private_8h.html" target="_top" xlink:title=" ">
<polygon fill="white" stroke="#666666" points="475.25,-1031547.35 301.75,-1031547.35 301.75,-1031528.85 475.25,-1031528.85 475.25,-1031547.35"/>
<text text-anchor="middle" x="388.5" y="-1031533.85" font-family="Helvetica,sans-Serif" font-size="10.00">sqsh_mapper_private.h</text>
</a>
</g>
</g>
<!-- Node2&#45;&gt;Node6 -->
<g id="edge5" class="edge">
<title>Node2&#45;&gt;Node6</title>
<path fill="none" stroke="#63b8ff" d="M426.05,-1031598.66C419.43,-1031588.15 408.07,-1031570.14 399.58,-1031556.67"/>
<polygon fill="#63b8ff" stroke="#63b8ff" points="402.06,-1031555.05 393.77,-1031548.45 396.14,-1031558.78 402.06,-1031555.05"/>
</g>
<!-- Node4 -->
<g id="node4" class="node">
<title>Node4</title>
<g id="a_node4"><a xlink:title=" ">
<polygon fill="#e0e0e0" stroke="#999999" points="790.5,-515796.74 624.5,-515796.74 624.5,-515754.36 790.5,-515754.36 790.5,-515796.74"/>
<text text-anchor="middle" x="707.5" y="-515783.24" font-family="Helvetica,sans-Serif" font-size="10.00">cextras/collection.h</text>
</a>
</g>
</g>
<!-- Node3&#45;&gt;Node4 -->
<g id="edge3" class="edge">
<title>Node3&#45;&gt;Node4</title>
<path fill="none" stroke="#63b8ff" d="M591.67,-1031528.38C599.52,-1031519.35 610.85,-1031504.44 615.5,-1031489.1 873.86,-1030636.07 709,-520413.65 707.51,-515807.92"/>
<polygon fill="#63b8ff" stroke="#63b8ff" points="711.01,-515808.21 707.51,-515798.21 704.01,-515808.22 711.01,-515808.21"/>
</g>
<!-- Node5 -->
<g id="node5" class="node">
<title>Node5</title>
<g id="a_node5"><a xlink:title=" ">
<polygon fill="#e0e0e0" stroke="#999999" points="606.25,-515788.55 432.75,-515788.55 432.75,-515762.55 606.25,-515762.55 606.25,-515788.55"/>
<text text-anchor="middle" x="519.5" y="-515775.05" font-family="Helvetica,sans-Serif" font-size="10.00">sqsh_thread_private.h</text>
</a>
</g>
</g>
<!-- Node3&#45;&gt;Node5 -->
<g id="edge4" class="edge">
<title>Node3&#45;&gt;Node5</title>
<path fill="none" stroke="#63b8ff" d="M583.5,-1031528.79C583.2,-1029156.65 519.99,-519745.24 519.5,-515799.59"/>
<polygon fill="#63b8ff" stroke="#63b8ff" points="523,-515799.93 519.5,-515789.93 516,-515799.93 523,-515799.93"/>
</g>
<!-- Node6&#45;&gt;Node4 -->
<g id="edge9" class="edge">
<title>Node6&#45;&gt;Node4</title>
<path fill="none" stroke="#63b8ff" d="M448.46,-1031528.38C512.09,-1031518.51 604.94,-1031502.13 615.5,-1031489.1 896.17,-1031142.94 709.2,-520418.23 707.51,-515807.95"/>
<polygon fill="#63b8ff" stroke="#63b8ff" points="711.01,-515808.23 707.51,-515798.23 704.01,-515808.24 711.01,-515808.23"/>
</g>
<!-- Node6&#45;&gt;Node5 -->
<g id="edge8" class="edge">
<title>Node6&#45;&gt;Node5</title>
<path fill="none" stroke="#63b8ff" d="M397.42,-1031528.53C405.99,-1031519.62 418.39,-1031504.79 423.5,-1031489.1 699.91,-1030641.15 520.9,-519756.74 519.51,-515799.66"/>
<polygon fill="#63b8ff" stroke="#63b8ff" points="523.01,-515799.97 519.5,-515789.97 516.01,-515799.97 523.01,-515799.97"/>
</g>
<!-- Node7 -->
<g id="node7" class="node">
<title>Node7</title>
<g id="a_node7"><a xlink:href="sqsh__mapper_8h.html" target="_top" xlink:title=" ">
<polygon fill="white" stroke="#666666" points="222.25,-515784.8 108.75,-515784.8 108.75,-515766.3 222.25,-515766.3 222.25,-515784.8"/>
<text text-anchor="middle" x="165.5" y="-515771.3" font-family="Helvetica,sans-Serif" font-size="10.00">sqsh_mapper.h</text>
</a>
</g>
</g>
<!-- Node6&#45;&gt;Node7 -->
<g id="edge6" class="edge">
<title>Node6&#45;&gt;Node7</title>
<path fill="none" stroke="#63b8ff" d="M301.48,-1031530.37C274.74,-1031523.72 248.03,-1031511.44 231.5,-1031489.1 231.5,-1031489.1 165.96,-519387.17 165.5,-515795.53"/>
<polygon fill="#63b8ff" stroke="#63b8ff" points="169,-515795.86 165.5,-515785.86 162,-515795.86 169,-515795.86"/>
</g>
<!-- Node8 -->
<g id="node8" class="node">
<title>Node8</title>
<g id="a_node8"><a xlink:title=" ">
<polygon fill="#e0e0e0" stroke="#999999" points="414.25,-1031489.1 240.75,-1031489.1 240.75,-62 414.25,-62 414.25,-1031489.1"/>
<text text-anchor="middle" x="327.5" y="-1031475.6" font-family="Helvetica,sans-Serif" font-size="10.00">sqsh_reader_private.h</text>
</a>
</g>
</g>
<!-- Node6&#45;&gt;Node8 -->
<g id="edge7" class="edge">
<title>Node6&#45;&gt;Node8</title>
<path fill="none" stroke="#63b8ff" d="M388.5,-1031528.79C388.5,-1031522.68 388.5,-1031513.22 388.5,-1031500.4"/>
<polygon fill="#63b8ff" stroke="#63b8ff" points="392,-1031500.41 388.49,-1031490.41 385,-1031500.41 392,-1031500.41"/>
</g>
<!-- Node9 -->
<g id="node9" class="node">
<title>Node9</title>
<g id="a_node9"><a xlink:title=" ">
<polygon fill="#e0e0e0" stroke="#999999" points="91,-515784.8 0,-515784.8 0,-515766.3 91,-515766.3 91,-515784.8"/>
<text text-anchor="middle" x="45.5" y="-515771.3" font-family="Helvetica,sans-Serif" font-size="10.00">sys/wait.h</text>
</a>
</g>
</g>
<!-- Node6&#45;&gt;Node9 -->
<g id="edge10" class="edge">
<title>Node6&#45;&gt;Node9</title>
<path fill="none" stroke="#63b8ff" d="M301.31,-1031534.64C225.88,-1031530.46 125.03,-1031519.22 99.5,-1031489.1 99.5,-1031489.1 45.88,-519387.17 45.5,-515795.53"/>
<polygon fill="#63b8ff" stroke="#63b8ff" points="49,-515795.86 45.5,-515785.86 42,-515795.86 49,-515795.86"/>
</g>
<!-- Node10&#45;&gt;Node3 -->
<g id="edge12" class="edge">
<title>Node10&#45;&gt;Node3</title>
<path fill="none" stroke="#63b8ff" d="M616.4,-1031586.83C609.81,-1031577.27 602.03,-1031565.99 595.7,-1031556.8"/>
<polygon fill="#63b8ff" stroke="#63b8ff" points="598.07,-1031555.07 589.51,-1031548.82 592.3,-1031559.04 598.07,-1031555.07"/>
</g>
<!-- Node10&#45;&gt;Node6 -->
<g id="edge13" class="edge">
<title>Node10&#45;&gt;Node6</title>
<path fill="none" stroke="#63b8ff" d="M557.24,-1031586.65C515.38,-1031574.85 464.45,-1031560.5 429.56,-1031550.67"/>
<polygon fill="#63b8ff" stroke="#63b8ff" points="430.85,-1031547.12 420.28,-1031547.77 428.95,-1031553.85 430.85,-1031547.12"/>
</g>
<!-- Node11 -->
<g id="node11" class="node">
<title>Node11</title>
<g id="a_node11"><a xlink:href="sqsh__table_8h.html" target="_top" xlink:title=" ">
<polygon fill="white" stroke="#666666" points="798.5,-1031551.1 692.5,-1031551.1 692.5,-1031525.1 798.5,-1031525.1 798.5,-1031551.1"/>
<text text-anchor="middle" x="745.5" y="-1031537.6" font-family="Helvetica,sans-Serif" font-size="10.00">sqsh_table.h</text>
</a>
</g>
</g>
<!-- Node10&#45;&gt;Node11 -->
<g id="edge14" class="edge">
<title>Node10&#45;&gt;Node11</title>
<path fill="none" stroke="#63b8ff" d="M665.32,-1031586.65C681.3,-1031577.17 700.07,-1031566.04 715.43,-1031556.93"/>
<polygon fill="#63b8ff" stroke="#63b8ff" points="716.68,-1031559.66 723.5,-1031551.55 713.11,-1031553.64 716.68,-1031559.66"/>
</g>
<!-- Node12 -->
<g id="node12" class="node">
<title>Node12</title>
<g id="a_node12"><a xlink:href="sqsh__common_8h.html" target="_top" xlink:title=" ">
<polygon fill="white" stroke="#666666" points="922.25,-1031419.59 808.75,-1031419.59 808.75,-131.51 922.25,-131.51 922.25,-1031419.59"/>
<text text-anchor="middle" x="865.5" y="-1031406.09" font-family="Helvetica,sans-Serif" font-size="10.00">sqsh_common.h</text>
</a>
</g>
</g>
<!-- Node11&#45;&gt;Node12 -->
<g id="edge15" class="edge">
<title>Node11&#45;&gt;Node12</title>
<path fill="none" stroke="#63b8ff" d="M766.74,-1031524.67C778.79,-1031516.31 792.77,-1031504.09 799.5,-1031489.1 1053.43,-1030923.74 987.43,-784026.9 922.75,-632101.31"/>
<polygon fill="#63b8ff" stroke="#63b8ff" points="926.25,-632101.44 922.75,-632091.44 919.25,-632101.44 926.25,-632101.44"/>
</g>
<!-- Node13 -->
<g id="node13" class="node">
<title>Node13</title>
<g id="a_node13"><a xlink:title=" ">
<polygon fill="#e0e0e0" stroke="#999999" points="809.25,-22.25 725.75,-22.25 725.75,-3.75 809.25,-3.75 809.25,-22.25"/>
<text text-anchor="middle" x="767.5" y="-8.75" font-family="Helvetica,sans-Serif" font-size="10.00">stdbool.h</text>
</a>
</g>
</g>
<!-- Node12&#45;&gt;Node13 -->
<g id="edge16" class="edge">
<title>Node12&#45;&gt;Node13</title>
<path fill="none" stroke="#63b8ff" d="M922.75,-304760.14C948.09,-162493.76 944.95,-542.28 799.5,-62 796.09,-50.74 789.07,-39.7 782.47,-31.06"/>
<polygon fill="#63b8ff" stroke="#63b8ff" points="784.7,-29.25 775.67,-23.72 779.28,-33.68 784.7,-29.25"/>
</g>
<!-- Node14 -->
<g id="node14" class="node">
<title>Node14</title>
<g id="a_node14"><a xlink:title=" ">
<polygon fill="#e0e0e0" stroke="#999999" points="903.5,-26 827.5,-26 827.5,0 903.5,0 903.5,-26"/>
<text text-anchor="middle" x="865.5" y="-12.5" font-family="Helvetica,sans-Serif" font-size="10.00">stddef.h</text>
</a>
</g>
</g>
<!-- Node12&#45;&gt;Node14 -->
<g id="edge17" class="edge">
<title>Node12&#45;&gt;Node14</title>
<path fill="none" stroke="#63b8ff" d="M865.5,-131.18C865.5,-88 865.5,-56.69 865.5,-37.35"/>
<polygon fill="#63b8ff" stroke="#63b8ff" points="869,-37.37 865.5,-27.37 862,-37.37 869,-37.37"/>
</g>
<!-- Node15 -->
<g id="node15" class="node">
<title>Node15</title>
<g id="a_node15"><a xlink:title=" ">
<polygon fill="#e0e0e0" stroke="#999999" points="997.5,-22.25 921.5,-22.25 921.5,-3.75 997.5,-3.75 997.5,-22.25"/>
<text text-anchor="middle" x="959.5" y="-8.75" font-family="Helvetica,sans-Serif" font-size="10.00">stdint.h</text>
</a>
</g>
</g>
<!-- Node12&#45;&gt;Node15 -->
<g id="edge18" class="edge">
<title>Node12&#45;&gt;Node15</title>
<path fill="none" stroke="#63b8ff" d="M922.75,-201654.46C942.22,-94848.28 959.22,-1571.63 959.5,-33.3"/>
<polygon fill="#63b8ff" stroke="#63b8ff" points="963,-33.49 959.5,-23.49 956,-33.49 963,-33.49"/>
</g>
<!-- Node16&#45;&gt;Node12 -->
<g id="edge20" class="edge">
<title>Node16&#45;&gt;Node12</title>
<path fill="none" stroke="#63b8ff" d="M826.5,-1031598.98C826.5,-1031578.93 826.51,-1031522.66 826.51,-1031430.77"/>
<polygon fill="#63b8ff" stroke="#63b8ff" points="830.01,-1031430.99 826.51,-1031420.99 823.01,-1031430.99 830.01,-1031430.99"/>
</g>
<!-- Node17 -->
<g id="node17" class="node">
<title>Node17</title>
<g id="a_node17"><a xlink:href="sqsh__data_8h.html" target="_top" xlink:title=" ">
<polygon fill="white" stroke="#666666" points="952.75,-1031547.35 854.25,-1031547.35 854.25,-1031528.85 952.75,-1031528.85 952.75,-1031547.35"/>
<text text-anchor="middle" x="903.5" y="-1031533.85" font-family="Helvetica,sans-Serif" font-size="10.00">sqsh_data.h</text>
</a>
</g>
</g>
<!-- Node16&#45;&gt;Node17 -->
<g id="edge21" class="edge">
<title>Node16&#45;&gt;Node17</title>
<path fill="none" stroke="#63b8ff" d="M836.25,-1031598.66C848.7,-1031587.63 870.47,-1031568.36 885.86,-1031554.72"/>
<polygon fill="#63b8ff" stroke="#63b8ff" points="887.9,-1031557.7 893.07,-1031548.45 883.26,-1031552.46 887.9,-1031557.7"/>
</g>
<!-- Node17&#45;&gt;Node12 -->
<g id="edge22" class="edge">
<title>Node17&#45;&gt;Node12</title>
<path fill="none" stroke="#63b8ff" d="M903.5,-1031528.79C903.5,-1031514.48 903.5,-1031481.71 903.49,-1031430.71"/>
<polygon fill="#63b8ff" stroke="#63b8ff" points="906.99,-1031430.91 903.49,-1031420.91 899.99,-1031430.91 906.99,-1031430.91"/>
</g>
</g>
</svg>
