<?xml version="1.0" encoding="UTF-8" standalone="no"?>
<!DOCTYPE svg PUBLIC "-//W3C//DTD SVG 1.1//EN"
 "http://www.w3.org/Graphics/SVG/1.1/DTD/svg11.dtd">
<!-- Generated by graphviz version 8.0.5 (20230430.1635)
 -->
<!-- Title: libsqsh/include/sqsh_file_private.h Pages: 1 -->
<svg width="413pt" height="191pt"
 viewBox="0.00 0.00 413.00 190.85" xmlns="http://www.w3.org/2000/svg" xmlns:xlink="http://www.w3.org/1999/xlink">
<g id="graph0" class="graph" transform="scale(1 1) rotate(0) translate(4 186.85)">
<title>libsqsh/include/sqsh_file_private.h</title>
<!-- Node1 -->
<g id="node1" class="node">
<title>Node1</title>
<g id="a_node1"><a xlink:title=" ">
<polygon fill="#999999" stroke="#666666" points="350,-182.85 184,-182.85 184,-153.85 350,-153.85 350,-182.85"/>
<text text-anchor="start" x="192" y="-169.35" font-family="Helvetica,sans-Serif" font-size="10.00">libsqsh/include/sqsh</text>
<text text-anchor="middle" x="267" y="-158.85" font-family="Helvetica,sans-Serif" font-size="10.00">_file_private.h</text>
</a>
</g>
</g>
<!-- Node2 -->
<g id="node2" class="node">
<title>Node2</title>
<g id="a_node2"><a xlink:href="sqsh__archive__private_8h.html" target="_top" xlink:title=" ">
<polygon fill="white" stroke="#666666" points="166,-117.85 0,-117.85 0,-88.85 166,-88.85 166,-117.85"/>
<text text-anchor="start" x="8" y="-104.35" font-family="Helvetica,sans-Serif" font-size="10.00">libsqsh/include/sqsh</text>
<text text-anchor="middle" x="83" y="-93.85" font-family="Helvetica,sans-Serif" font-size="10.00">_archive_private.h</text>
</a>
</g>
</g>
<!-- Node1&#45;&gt;Node2 -->
<g id="edge1" class="edge">
<title>Node1&#45;&gt;Node2</title>
<path fill="none" stroke="#63b8ff" d="M215.79,-149.82C186.73,-139.87 150.85,-127.58 123.72,-118.29"/>
<polygon fill="#63b8ff" stroke="#63b8ff" points="214.57,-153.44 225.16,-153.37 216.84,-146.82 214.57,-153.44"/>
</g>
<!-- Node3 -->
<g id="node3" class="node">
<title>Node3</title>
<g id="a_node3"><a xlink:href="sqsh__directory__private_8h.html" target="_top" xlink:title=" ">
<polygon fill="white" stroke="#666666" points="350,-117.85 184,-117.85 184,-88.85 350,-88.85 350,-117.85"/>
<text text-anchor="start" x="192" y="-104.35" font-family="Helvetica,sans-Serif" font-size="10.00">libsqsh/include/sqsh</text>
<text text-anchor="middle" x="267" y="-93.85" font-family="Helvetica,sans-Serif" font-size="10.00">_directory_private.h</text>
</a>
</g>
</g>
<!-- Node1&#45;&gt;Node3 -->
<g id="edge2" class="edge">
<title>Node1&#45;&gt;Node3</title>
<path fill="none" stroke="#63b8ff" d="M267,-142.43C267,-134.22 267,-125.38 267,-118.29"/>
<polygon fill="#63b8ff" stroke="#63b8ff" points="263.5,-142.37 267,-152.37 270.5,-142.37 263.5,-142.37"/>
</g>
<!-- Node4 -->
<g id="node4" class="node">
<title>Node4</title>
<g id="a_node4"><a xlink:href="sqsh__tree__private_8h.html" target="_top" xlink:title=" ">
<polygon fill="white" stroke="#666666" points="405,-52.85 239,-52.85 239,0 405,0 405,-52.85"/>
<text text-anchor="start" x="247" y="-39.35" font-family="Helvetica,sans-Serif" font-size="10.00">libsqsh/include/sqsh</text>
<text text-anchor="middle" x="322" y="-28.85" font-family="Helvetica,sans-Serif" font-size="10.00">_tree_private.h</text>
</a>
</g>
</g>
<!-- Node1&#45;&gt;Node4 -->
<g id="edge4" class="edge">
<title>Node1&#45;&gt;Node4</title>
<path fill="none" stroke="#63b8ff" d="M323.79,-148.81C337.71,-141.44 350.91,-131.39 359,-117.85 371.27,-97.32 358.8,-71.97 345.12,-53.35"/>
<polygon fill="#63b8ff" stroke="#63b8ff" points="322.58,-145.99 315.1,-153.5 325.63,-152.29 322.58,-145.99"/>
</g>
<!-- Node3&#45;&gt;Node4 -->
<g id="edge3" class="edge">
<title>Node3&#45;&gt;Node4</title>
<path fill="none" stroke="#63b8ff" d="M283.57,-79.77C289.72,-71.4 296.74,-61.84 303.07,-53.21"/>
<polygon fill="#63b8ff" stroke="#63b8ff" points="280.18,-77.48 277.09,-87.61 285.83,-81.62 280.18,-77.48"/>
</g>
</g>
</svg>
