<?xml version="1.0" encoding="UTF-8" standalone="no"?>
<!DOCTYPE svg PUBLIC "-//W3C//DTD SVG 1.1//EN"
 "http://www.w3.org/Graphics/SVG/1.1/DTD/svg11.dtd">
<!-- Generated by graphviz version 9.0.0 (20230911.1827)
 -->
<!-- Title: include/sqsh_xattr.h Pages: 1 -->
<!--zoomable 1516262 -->

<svg id="main" version="1.1" xmlns="http://www.w3.org/2000/svg" xmlns:xlink="http://www.w3.org/1999/xlink" xml:space="preserve" onload="init(evt)">
<style type="text/css"><![CDATA[
.node, .edge {opacity: 0.7;}
.node.selected, .edge.selected {opacity: 1;}
.edge:hover path { stroke: red; }
.edge:hover polygon { stroke: red; fill: red; }
]]></style>

<defs>
  <circle id="rim" cx="0" cy="0" r="7"/>
  <circle id="rim2" cx="0" cy="0" r="3.5"/>
  <g id="zoomPlus">
    <use xlink:href="#rim" fill="#404040"><set attributeName="fill" to="#808080" begin="zoomplus.mouseover" end="zoomplus.mouseout"/></use>
    <path d="M-4,0h8M0,-4v8" fill="none" stroke="white" stroke-width="1.5" pointer-events="none"/>
  </g>
  <g id="zoomMin">
    <use xlink:href="#rim" fill="#404040"><set attributeName="fill" to="#808080" begin="zoomminus.mouseover" end="zoomminus.mouseout"/></use>
    <path d="M-4,0h8" fill="none" stroke="white" stroke-width="1.5" pointer-events="none"/>
  </g>
  <g id="arrowUp" transform="translate(30 24)">
    <use xlink:href="#rim"/>
    <path pointer-events="none" fill="none" stroke="white" stroke-width="1.5" d="M0,-3.0v7 M-2.5,-0.5L0,-3.0L2.5,-0.5"/>
  </g>
  <g id="arrowRight" transform="rotate(90) translate(36 -43)">
    <use xlink:href="#rim"/>
    <path pointer-events="none" fill="none" stroke="white" stroke-width="1.5" d="M0,-3.0v7 M-2.5,-0.5L0,-3.0L2.5,-0.5"/>
  </g>
  <g id="arrowDown" transform="rotate(180) translate(-30 -48)">
    <use xlink:href="#rim"/>
    <path pointer-events="none" fill="none" stroke="white" stroke-width="1.5" d="M0,-3.0v7 M-2.5,-0.5L0,-3.0L2.5,-0.5"/>
  </g>
  <g id="arrowLeft" transform="rotate(270) translate(-36 17)">
    <use xlink:href="#rim"/>
    <path pointer-events="none" fill="none" stroke="white" stroke-width="1.5" d="M0,-3.0v7 M-2.5,-0.5L0,-3.0L2.5,-0.5"/>
  </g>
  <g id="resetDef">
    <use xlink:href="#rim2" fill="#404040"><set attributeName="fill" to="#808080" begin="reset.mouseover" end="reset.mouseout"/></use>
  </g>
</defs>
<script type="application/ecmascript">
var viewWidth = 2232;
var viewHeight = 1516262;
var sectionId = 'dynsection-1';
</script>
<script type="application/ecmascript" xlink:href="svg.min.js"/>
<svg id="graph" class="graph">
<g id="viewport">
<title>include/sqsh_xattr.h</title>
<!-- Node1 -->
<g id="Node000001" class="node">
<title>Node1</title>
<g id="a_Node000001"><a xlink:title=" ">
<polygon fill="#999999" stroke="#666666" points="1257,-1516253.61 1091,-1516253.61 1091,-1516235.11 1257,-1516235.11 1257,-1516253.61"/>
<text text-anchor="middle" x="1174" y="-1516240.11" font-family="Helvetica,sans-Serif" font-size="10.00">include/sqsh_xattr.h</text>
</a>
</g>
</g>
<!-- Node2 -->
<g id="Node000002" class="node">
<title>Node2</title>
<g id="a_Node000002"><a xlink:href="sqsh_8h.html" target="_top" xlink:title=" ">
<polygon fill="white" stroke="#666666" points="1153.5,-1516181.94 1032.5,-1516181.94 1032.5,-1516163.44 1153.5,-1516163.44 1153.5,-1516181.94"/>
<text text-anchor="middle" x="1093" y="-1516168.44" font-family="Helvetica,sans-Serif" font-size="10.00">include/sqsh.h</text>
</a>
</g>
</g>
<!-- Node1&#45;&gt;Node2 -->
<g id="edge1_Node000001_Node000002" class="edge">
<title>Node1&#45;&gt;Node2</title>
<g id="a_edge1_Node000001_Node000002"><a xlink:title=" ">
<path fill="none" stroke="#63b8ff" d="M1155.38,-1516227.35C1139.09,-1516213.34 1116.05,-1516193.52 1103.01,-1516182.3"/>
<polygon fill="#63b8ff" stroke="#63b8ff" points="1153.06,-1516229.96 1162.92,-1516233.83 1157.62,-1516224.66 1153.06,-1516229.96"/>
</a>
</g>
</g>
<!-- Node13 -->
<g id="Node000013" class="node">
<title>Node13</title>
<g id="a_Node000013"><a xlink:href="sqsh__xattr__private_8h.html" target="_top" xlink:title=" ">
<polygon fill="white" stroke="#666666" points="1781,-1516199.11 1615,-1516199.11 1615,-1516146.27 1781,-1516146.27 1781,-1516199.11"/>
<text text-anchor="start" x="1623" y="-1516185.61" font-family="Helvetica,sans-Serif" font-size="10.00">libsqsh/include/sqsh</text>
<text text-anchor="middle" x="1698" y="-1516151.27" font-family="Helvetica,sans-Serif" font-size="10.00">_xattr_private.h</text>
</a>
</g>
</g>
<!-- Node1&#45;&gt;Node13 -->
<g id="edge12_Node000001_Node000013" class="edge">
<title>Node1&#45;&gt;Node13</title>
<g id="a_edge12_Node000001_Node000013"><a xlink:title=" ">
<path fill="none" stroke="#63b8ff" d="M1250.77,-1516233.15C1347.88,-1516220.24 1514.5,-1516198.09 1614.64,-1516184.77"/>
<polygon fill="#63b8ff" stroke="#63b8ff" points="1250.52,-1516229.66 1241.07,-1516234.44 1251.44,-1516236.6 1250.52,-1516229.66"/>
</a>
</g>
</g>
<!-- Node3 -->
<g id="Node000003" class="node">
<title>Node3</title>
<g id="a_Node000003"><a xlink:href="custom__mapper_8c.html" target="_top" xlink:title=" ">
<polygon fill="white" stroke="#666666" points="196,-1516109.81 0,-1516109.81 0,-0.46 196,-0.46 196,-1516109.81"/>
<text text-anchor="middle" x="98" y="-1516096.31" font-family="Helvetica,sans-Serif" font-size="10.00">examples/custom_mapper.c</text>
</a>
</g>
</g>
<!-- Node2&#45;&gt;Node3 -->
<g id="edge2_Node000002_Node000003" class="edge">
<title>Node2&#45;&gt;Node3</title>
<g id="a_edge2_Node000002_Node000003"><a xlink:title=" ">
<path fill="none" stroke="#63b8ff" d="M1020.67,-1516172.2C818.76,-1516172.89 260.18,-1516169.38 205,-1516110.27 205,-1516110.27 201.8,-1493420 196.5,-1455890.72"/>
<polygon fill="#63b8ff" stroke="#63b8ff" points="1020.52,-1516175.7 1030.51,-1516172.17 1020.49,-1516168.7 1020.52,-1516175.7"/>
</a>
</g>
</g>
<!-- Node4 -->
<g id="Node000004" class="node">
<title>Node4</title>
<g id="a_Node000004"><a xlink:href="list__dir_8c.html" target="_top" xlink:title=" ">
<polygon fill="white" stroke="#666666" points="372.25,-1516110.09 213.75,-1516110.09 213.75,-0.18 372.25,-0.18 372.25,-1516110.09"/>
<text text-anchor="middle" x="293" y="-1516096.59" font-family="Helvetica,sans-Serif" font-size="10.00">examples/list_dir.c</text>
</a>
</g>
</g>
<!-- Node2&#45;&gt;Node4 -->
<g id="edge3_Node000002_Node000004" class="edge">
<title>Node2&#45;&gt;Node4</title>
<g id="a_edge3_Node000002_Node000004"><a xlink:title=" ">
<path fill="none" stroke="#63b8ff" d="M1020.71,-1516170.86C848.21,-1516168.15 423.66,-1516156.76 381,-1516110.27 381,-1516110.27 377.85,-1489003.9 372.75,-1445042.65"/>
<polygon fill="#63b8ff" stroke="#63b8ff" points="1020.62,-1516174.36 1030.68,-1516171.02 1020.73,-1516167.36 1020.62,-1516174.36"/>
</a>
</g>
</g>
<!-- Node5 -->
<g id="Node000005" class="node">
<title>Node5</title>
<g id="a_Node000005"><a xlink:href="list__dir__ll_8c.html" target="_top" xlink:title=" ">
<polygon fill="white" stroke="#666666" points="571.5,-758064.38 390.5,-758064.38 390.5,-758045.88 571.5,-758045.88 571.5,-758064.38"/>
<text text-anchor="middle" x="481" y="-758050.88" font-family="Helvetica,sans-Serif" font-size="10.00">examples/list_dir_ll.c</text>
</a>
</g>
</g>
<!-- Node2&#45;&gt;Node5 -->
<g id="edge4_Node000002_Node000005" class="edge">
<title>Node2&#45;&gt;Node5</title>
<g id="a_edge4_Node000002_Node000005"><a xlink:title=" ">
<path fill="none" stroke="#63b8ff" d="M1021.07,-1516168.28C886.76,-1516161.18 608.78,-1516142.7 580,-1516110.27 580,-1516110.27 481.39,-761014.39 481,-758064.8"/>
<polygon fill="#63b8ff" stroke="#63b8ff" points="1020.75,-1516171.77 1030.92,-1516168.79 1021.12,-1516164.78 1020.75,-1516171.77"/>
</a>
</g>
</g>
<!-- Node6 -->
<g id="Node000006" class="node">
<title>Node6</title>
<g id="a_Node000006"><a xlink:href="list__xattrs_8c.html" target="_top" xlink:title=" ">
<polygon fill="white" stroke="#666666" points="770.5,-1516047.46 589.5,-1516047.46 589.5,-62.81 770.5,-62.81 770.5,-1516047.46"/>
<text text-anchor="middle" x="680" y="-1516033.96" font-family="Helvetica,sans-Serif" font-size="10.00">examples/list_xattrs.c</text>
</a>
</g>
</g>
<!-- Node2&#45;&gt;Node6 -->
<g id="edge5_Node000002_Node000006" class="edge">
<title>Node2&#45;&gt;Node6</title>
<g id="a_edge5_Node000002_Node000006"><a xlink:title=" ">
<path fill="none" stroke="#63b8ff" d="M1020.67,-1516167.89C937.64,-1516161.84 809.01,-1516146.71 779,-1516110.27 779,-1516110.27 775.98,-1493001.46 771,-1454853.35"/>
<polygon fill="#63b8ff" stroke="#63b8ff" points="1020.34,-1516171.38 1030.56,-1516168.58 1020.82,-1516164.39 1020.34,-1516171.38"/>
</a>
</g>
</g>
<!-- Node7 -->
<g id="Node000007" class="node">
<title>Node7</title>
<g id="a_Node000007"><a xlink:href="list__xattrs__ll_8c.html" target="_top" xlink:title=" ">
<polygon fill="white" stroke="#666666" points="991.75,-758064.38 788.25,-758064.38 788.25,-758045.88 991.75,-758045.88 991.75,-758064.38"/>
<text text-anchor="middle" x="890" y="-758050.88" font-family="Helvetica,sans-Serif" font-size="10.00">examples/list_xattrs_ll.c</text>
</a>
</g>
</g>
<!-- Node2&#45;&gt;Node7 -->
<g id="edge6_Node000002_Node000007" class="edge">
<title>Node2&#45;&gt;Node7</title>
<g id="a_edge6_Node000002_Node000007"><a xlink:title=" ">
<path fill="none" stroke="#63b8ff" d="M1057.96,-1516158.34C1037.35,-1516148.45 1013.03,-1516132.76 1001,-1516110.27 691.26,-1515531.15 889.22,-761012.13 890,-758064.79"/>
<polygon fill="#63b8ff" stroke="#63b8ff" points="1056.38,-1516161.47 1066.94,-1516162.37 1059.25,-1516155.08 1056.38,-1516161.47"/>
</a>
</g>
</g>
<!-- Node8 -->
<g id="Node000008" class="node">
<title>Node8</title>
<g id="a_Node000008"><a xlink:href="read__file_8c.html" target="_top" xlink:title=" ">
<polygon fill="white" stroke="#666666" points="1176,-1516110.27 1010,-1516110.27 1010,0 1176,0 1176,-1516110.27"/>
<text text-anchor="middle" x="1093" y="-1516096.77" font-family="Helvetica,sans-Serif" font-size="10.00">examples/read_file.c</text>
</a>
</g>
</g>
<!-- Node2&#45;&gt;Node8 -->
<g id="edge7_Node000002_Node000008" class="edge">
<title>Node2&#45;&gt;Node8</title>
<g id="a_edge7_Node000002_Node000008"><a xlink:title=" ">
<path fill="none" stroke="#63b8ff" d="M1093,-1516151.71C1093,-1516141.71 1093,-1516127.96 1093,-1516110.48"/>
<polygon fill="#63b8ff" stroke="#63b8ff" points="1089.5,-1516151.51 1093,-1516161.51 1096.5,-1516151.51 1089.5,-1516151.51"/>
</a>
</g>
</g>
<!-- Node9 -->
<g id="Node000009" class="node">
<title>Node9</title>
<g id="a_Node000009"><a xlink:href="read__file__ll_8c.html" target="_top" xlink:title=" ">
<polygon fill="white" stroke="#666666" points="1382.25,-758068.13 1193.75,-758068.13 1193.75,-758042.13 1382.25,-758042.13 1382.25,-758068.13"/>
<text text-anchor="middle" x="1288" y="-758054.63" font-family="Helvetica,sans-Serif" font-size="10.00">examples/read_file_ll.c</text>
</a>
</g>
</g>
<!-- Node2&#45;&gt;Node9 -->
<g id="edge8_Node000002_Node000009" class="edge">
<title>Node2&#45;&gt;Node9</title>
<g id="a_edge8_Node000002_Node000009"><a xlink:title=" ">
<path fill="none" stroke="#63b8ff" d="M1128.04,-1516158.34C1148.65,-1516148.45 1172.97,-1516132.76 1185,-1516110.27 1494.62,-1515531.36 1288.96,-761565.73 1288,-758068.34"/>
<polygon fill="#63b8ff" stroke="#63b8ff" points="1126.75,-1516155.08 1119.06,-1516162.37 1129.62,-1516161.47 1126.75,-1516155.08"/>
</a>
</g>
</g>
<!-- Node10 -->
<g id="Node000010" class="node">
<title>Node10</title>
<g id="a_Node000010"><a xlink:href="readme__example_8c.html" target="_top" xlink:title=" ">
<polygon fill="white" stroke="#666666" points="1603.75,-758064.38 1400.25,-758064.38 1400.25,-758045.88 1603.75,-758045.88 1603.75,-758064.38"/>
<text text-anchor="middle" x="1502" y="-758050.88" font-family="Helvetica,sans-Serif" font-size="10.00">examples/readme_example.c</text>
</a>
</g>
</g>
<!-- Node2&#45;&gt;Node10 -->
<g id="edge9_Node000002_Node000010" class="edge">
<title>Node2&#45;&gt;Node10</title>
<g id="a_edge9_Node000002_Node000010"><a xlink:title=" ">
<path fill="none" stroke="#63b8ff" d="M1165.18,-1516167.04C1244.08,-1516160.27 1363.05,-1516144.56 1391,-1516110.27 1805.91,-1515601.18 1503.19,-761012.4 1502,-758064.79"/>
<polygon fill="#63b8ff" stroke="#63b8ff" points="1165.03,-1516163.54 1155.35,-1516167.85 1165.61,-1516170.52 1165.03,-1516163.54"/>
</a>
</g>
</g>
<!-- Node11 -->
<g id="Node000011" class="node">
<title>Node11</title>
<g id="a_Node000011"><a xlink:href="traverse__dir_8c.html" target="_top" xlink:title=" ">
<polygon fill="white" stroke="#666666" points="1810.25,-758064.38 1621.75,-758064.38 1621.75,-758045.88 1810.25,-758045.88 1810.25,-758064.38"/>
<text text-anchor="middle" x="1716" y="-758050.88" font-family="Helvetica,sans-Serif" font-size="10.00">examples/traverse_dir.c</text>
</a>
</g>
</g>
<!-- Node2&#45;&gt;Node11 -->
<g id="edge10_Node000002_Node000011" class="edge">
<title>Node2&#45;&gt;Node11</title>
<g id="a_edge10_Node000002_Node000011"><a xlink:title=" ">
<path fill="none" stroke="#63b8ff" d="M1164.99,-1516168.4C1300.77,-1516161.46 1583.74,-1516143.18 1613,-1516110.27 1613,-1516110.27 1715.6,-761014.39 1716,-758064.8"/>
<polygon fill="#63b8ff" stroke="#63b8ff" points="1165.22,-1516164.89 1155.41,-1516168.89 1165.57,-1516171.88 1165.22,-1516164.89"/>
</a>
</g>
</g>
<!-- Node12 -->
<g id="Node000012" class="node">
<title>Node12</title>
<g id="a_Node000012"><a xlink:href="traverse__dir__ll_8c.html" target="_top" xlink:title=" ">
<polygon fill="white" stroke="#666666" points="2039.5,-758064.38 1828.5,-758064.38 1828.5,-758045.88 2039.5,-758045.88 2039.5,-758064.38"/>
<text text-anchor="middle" x="1934" y="-758050.88" font-family="Helvetica,sans-Serif" font-size="10.00">examples/traverse_dir_ll.c</text>
</a>
</g>
</g>
<!-- Node2&#45;&gt;Node12 -->
<g id="edge11_Node000002_Node000012" class="edge">
<title>Node2&#45;&gt;Node12</title>
<g id="a_edge11_Node000002_Node000012"><a xlink:title=" ">
<path fill="none" stroke="#63b8ff" d="M1165.35,-1516168.19C1344.72,-1516159.16 1797.07,-1516134.13 1819,-1516110.27 1819,-1516110.27 1933.55,-761014.39 1934,-758064.8"/>
<polygon fill="#63b8ff" stroke="#63b8ff" points="1165.26,-1516164.69 1155.45,-1516168.68 1165.61,-1516171.68 1165.26,-1516164.69"/>
</a>
</g>
</g>
<!-- Node14 -->
<g id="Node000014" class="node">
<title>Node14</title>
<g id="a_Node000014"><a xlink:href="sqsh__archive__private_8h.html" target="_top" xlink:title=" ">
<polygon fill="white" stroke="#666666" points="2224,-758069.63 2058,-758069.63 2058,-758040.63 2224,-758040.63 2224,-758069.63"/>
<text text-anchor="start" x="2066" y="-758056.13" font-family="Helvetica,sans-Serif" font-size="10.00">libsqsh/include/sqsh</text>
<text text-anchor="middle" x="2141" y="-758045.63" font-family="Helvetica,sans-Serif" font-size="10.00">_archive_private.h</text>
</a>
</g>
</g>
<!-- Node13&#45;&gt;Node14 -->
<g id="edge13_Node000013_Node000014" class="edge">
<title>Node13&#45;&gt;Node14</title>
<g id="a_edge13_Node000013_Node000014"><a xlink:title=" ">
<path fill="none" stroke="#63b8ff" d="M1792.6,-1516168.42C1885.17,-1516162.99 2016.81,-1516148.57 2049,-1516110.27 2049,-1516110.27 2140.55,-761799.2 2141,-758070.01"/>
<polygon fill="#63b8ff" stroke="#63b8ff" points="1792.54,-1516164.92 1782.75,-1516168.97 1792.92,-1516171.91 1792.54,-1516164.92"/>
</a>
</g>
</g>
</g>
</svg>

<g id="navigator" transform="translate(0 0)" fill="#404254">
  <rect fill="#f2f5e9" fill-opacity="0.5" stroke="#606060" stroke-width=".5" x="0" y="0" width="60" height="60"/>
  <use id="zoomplus" xlink:href="#zoomPlus" x="17" y="9" onmousedown="handleZoom(evt,'in')"/>
  <use id="zoomminus" xlink:href="#zoomMin" x="42" y="9" onmousedown="handleZoom(evt,'out')"/>
  <use id="reset" xlink:href="#resetDef" x="30" y="36" onmousedown="handleReset()"/>
   <use id="arrowup" xlink:href="#arrowUp" x="0" y="0" onmousedown="handlePan(0,-1)"/>
  <use id="arrowright" xlink:href="#arrowRight" x="0" y="0" onmousedown="handlePan(1,0)"/>
  <use id="arrowdown" xlink:href="#arrowDown" x="0" y="0" onmousedown="handlePan(0,1)"/>
  <use id="arrowleft" xlink:href="#arrowLeft" x="0" y="0" onmousedown="handlePan(-1,0)"/>
</g>
<svg viewBox="0 0 15 15" width="100%" height="30px" preserveAspectRatio="xMaxYMin meet">
 <g id="arrow_out" transform="scale(0.3 0.3)">
  <a xlink:href="sqsh__xattr_8h__dep__incl_org.svg" target="_base">
   <rect id="button" ry="5" rx="5" y="6" x="6" height="38" width="38"
        fill="#f2f5e9" fill-opacity="0.5" stroke="#606060" stroke-width="1.0"/>
   <path id="arrow"
     d="M 11.500037,31.436501 C 11.940474,20.09759 22.043105,11.32322 32.158766,21.979434 L 37.068811,17.246167 C 37.068811,17.246167 37.088388,32 37.088388,32 L 22.160133,31.978069 C 22.160133,31.978069 26.997745,27.140456 26.997745,27.140456 C 18.528582,18.264221 13.291696,25.230495 11.500037,31.436501 z"
     style="fill:#404040;"/>
  </a>
 </g>
</svg>

<style type='text/css'>
<![CDATA[
[data-mouse-over-selected='false'] { opacity: 0.7; }
[data-mouse-over-selected='true']  { opacity: 1.0; }
]]>
</style>
<script type="application/ecmascript"><![CDATA[
document.addEventListener('DOMContentLoaded', (event) => {
  highlightEdges();
  highlightAdjacentNodes();
});
]]></script>
</svg>
