<?xml version="1.0" encoding="UTF-8" standalone="no"?>
<!DOCTYPE svg PUBLIC "-//W3C//DTD SVG 1.1//EN"
 "http://www.w3.org/Graphics/SVG/1.1/DTD/svg11.dtd">
<!-- Generated by graphviz version 9.0.0 (20230911.1827)
 -->
<!-- Title: libsqsh/include/sqsh_metablock_private.h Pages: 1 -->
<svg width="798pt" height="482034pt"
 viewBox="0.00 0.00 797.75 482033.53" xmlns="http://www.w3.org/2000/svg" xmlns:xlink="http://www.w3.org/1999/xlink">
<g id="graph0" class="graph" transform="scale(1 1) rotate(0) translate(4 482029.53)">
<title>libsqsh/include/sqsh_metablock_private.h</title>
<!-- Node1 -->
<g id="Node000001" class="node">
<title>Node1</title>
<g id="a_Node000001"><a xlink:title=" ">
<polygon fill="#999999" stroke="#666666" points="469,-482025.53 303,-482025.53 303,-481996.53 469,-481996.53 469,-482025.53"/>
<text text-anchor="start" x="311" y="-482012.03" font-family="Helvetica,sans-Serif" font-size="10.00">libsqsh/include/sqsh</text>
<text text-anchor="middle" x="386" y="-482001.53" font-family="Helvetica,sans-Serif" font-size="10.00">_metablock_private.h</text>
</a>
</g>
</g>
<!-- Node2 -->
<g id="Node000002" class="node">
<title>Node2</title>
<g id="a_Node000002"><a xlink:href="sqsh__extract__private_8h.html" target="_top" xlink:title=" ">
<polygon fill="white" stroke="#666666" points="379.5,-481960.53 198.5,-481960.53 198.5,-240964.61 379.5,-240964.61 379.5,-481960.53"/>
<text text-anchor="middle" x="289" y="-481947.03" font-family="Helvetica,sans-Serif" font-size="10.00">sqsh_extract_private.h</text>
</a>
</g>
</g>
<!-- Node1&#45;&gt;Node2 -->
<g id="edge1_Node000001_Node000002" class="edge">
<title>Node1&#45;&gt;Node2</title>
<g id="a_edge1_Node000001_Node000002"><a xlink:title=" ">
<path fill="none" stroke="#63b8ff" d="M385.99,-481996.07C385.81,-481779.65 383.62,-479056.96 380.01,-474564.48"/>
<polygon fill="#63b8ff" stroke="#63b8ff" points="383.51,-474564.87 380,-474554.88 376.51,-474564.88 383.51,-474564.87"/>
</a>
</g>
</g>
<!-- Node10 -->
<g id="Node000010" class="node">
<title>Node10</title>
<g id="a_Node000010"><a xlink:href="sqsh__mapper__private_8h.html" target="_top" xlink:title=" ">
<polygon fill="white" stroke="#666666" points="598.75,-361471.82 425.25,-361471.82 425.25,-361453.32 598.75,-361453.32 598.75,-361471.82"/>
<text text-anchor="middle" x="512" y="-361458.32" font-family="Helvetica,sans-Serif" font-size="10.00">sqsh_mapper_private.h</text>
</a>
</g>
</g>
<!-- Node1&#45;&gt;Node10 -->
<g id="edge9_Node000001_Node000010" class="edge">
<title>Node1&#45;&gt;Node10</title>
<g id="a_edge9_Node000001_Node000010"><a xlink:title=" ">
<path fill="none" stroke="#63b8ff" d="M386.71,-481996.17C387.18,-481986.25 387.75,-481972.57 388,-481960.53 937.74,-455414.22 519.17,-363034.69 512.09,-361483.35"/>
<polygon fill="#63b8ff" stroke="#63b8ff" points="515.59,-361483.52 512.05,-361473.54 508.59,-361483.56 515.59,-361483.52"/>
</a>
</g>
</g>
<!-- Node3 -->
<g id="Node000003" class="node">
<title>Node3</title>
<g id="a_Node000003"><a xlink:title=" ">
<polygon fill="#e0e0e0" stroke="#999999" points="166,-240928.61 0,-240928.61 0,-109 166,-109 166,-240928.61"/>
<text text-anchor="middle" x="83" y="-240915.11" font-family="Helvetica,sans-Serif" font-size="10.00">cextras/collection.h</text>
</a>
</g>
</g>
<!-- Node2&#45;&gt;Node3 -->
<g id="edge2_Node000002_Node000003" class="edge">
<title>Node2&#45;&gt;Node3</title>
<g id="a_edge2_Node000002_Node000003"><a xlink:title=" ">
<path fill="none" stroke="#63b8ff" d="M198,-266975.17C190.01,-258169.99 182.23,-249382.53 175,-240928.61 172.17,-237615.94 169.33,-234252 166.51,-230855.84"/>
<polygon fill="#63b8ff" stroke="#63b8ff" points="170.01,-230856.15 166.5,-230846.15 163.01,-230856.15 170.01,-230856.15"/>
</a>
</g>
</g>
<!-- Node4 -->
<g id="Node000004" class="node">
<title>Node4</title>
<g id="a_Node000004"><a xlink:href="sqsh__data_8h.html" target="_top" xlink:title=" ">
<polygon fill="white" stroke="#666666" points="282.25,-240916.59 183.75,-240916.59 183.75,-121.02 282.25,-121.02 282.25,-240916.59"/>
<text text-anchor="middle" x="233" y="-240903.09" font-family="Helvetica,sans-Serif" font-size="10.00">sqsh_data.h</text>
</a>
</g>
</g>
<!-- Node2&#45;&gt;Node4 -->
<g id="edge3_Node000002_Node000004" class="edge">
<title>Node2&#45;&gt;Node4</title>
<g id="a_edge3_Node000002_Node000004"><a xlink:title=" ">
<path fill="none" stroke="#63b8ff" d="M260.99,-240964.15C260.99,-240952.22 260.99,-240940.29 260.99,-240928.37"/>
<polygon fill="#63b8ff" stroke="#63b8ff" points="264.49,-240928.45 260.98,-240918.45 257.49,-240928.45 264.49,-240928.45"/>
</a>
</g>
</g>
<!-- Node9 -->
<g id="Node000009" class="node">
<title>Node9</title>
<g id="a_Node000009"><a xlink:title=" ">
<polygon fill="#e0e0e0" stroke="#999999" points="466,-120528.05 300,-120528.05 300,-120509.55 466,-120509.55 466,-120528.05"/>
<text text-anchor="middle" x="383" y="-120514.55" font-family="Helvetica,sans-Serif" font-size="10.00">sqsh_utils_private.h</text>
</a>
</g>
</g>
<!-- Node2&#45;&gt;Node9 -->
<g id="edge8_Node000002_Node000009" class="edge">
<title>Node2&#45;&gt;Node9</title>
<g id="a_edge8_Node000002_Node000009"><a xlink:title=" ">
<path fill="none" stroke="#63b8ff" d="M336.01,-240964.15C359.26,-181375.63 382.5,-121795.77 382.99,-120540.01"/>
<polygon fill="#63b8ff" stroke="#63b8ff" points="386.49,-120540.04 383,-120530.04 379.49,-120540.04 386.49,-120540.04"/>
</a>
</g>
</g>
<!-- Node5 -->
<g id="Node000005" class="node">
<title>Node5</title>
<g id="a_Node000005"><a xlink:href="sqsh__common_8h.html" target="_top" xlink:title=" ">
<polygon fill="white" stroke="#666666" points="503.75,-73 390.25,-73 390.25,-54.5 503.75,-54.5 503.75,-73"/>
<text text-anchor="middle" x="447" y="-59.5" font-family="Helvetica,sans-Serif" font-size="10.00">sqsh_common.h</text>
</a>
</g>
</g>
<!-- Node4&#45;&gt;Node5 -->
<g id="edge4_Node000004_Node000005" class="edge">
<title>Node4&#45;&gt;Node5</title>
<g id="a_edge4_Node000004_Node000005"><a xlink:title=" ">
<path fill="none" stroke="#63b8ff" d="M282.75,-301.49C285.4,-177.86 288.15,-112.77 291,-109 302.08,-94.35 342.4,-83.14 379.27,-75.66"/>
<polygon fill="#63b8ff" stroke="#63b8ff" points="379.94,-79.1 389.08,-73.75 378.6,-72.23 379.94,-79.1"/>
</a>
</g>
</g>
<!-- Node6 -->
<g id="Node000006" class="node">
<title>Node6</title>
<g id="a_Node000006"><a xlink:title=" ">
<polygon fill="#e0e0e0" stroke="#999999" points="390.75,-18.5 307.25,-18.5 307.25,0 390.75,0 390.75,-18.5"/>
<text text-anchor="middle" x="349" y="-5" font-family="Helvetica,sans-Serif" font-size="10.00">stdbool.h</text>
</a>
</g>
</g>
<!-- Node5&#45;&gt;Node6 -->
<g id="edge5_Node000005_Node000006" class="edge">
<title>Node5&#45;&gt;Node6</title>
<g id="a_edge5_Node000005_Node000006"><a xlink:title=" ">
<path fill="none" stroke="#63b8ff" d="M430.82,-54.08C415.64,-45.95 392.68,-33.65 374.95,-24.15"/>
<polygon fill="#63b8ff" stroke="#63b8ff" points="377.01,-21.28 366.54,-19.65 373.7,-27.45 377.01,-21.28"/>
</a>
</g>
</g>
<!-- Node7 -->
<g id="Node000007" class="node">
<title>Node7</title>
<g id="a_Node000007"><a xlink:title=" ">
<polygon fill="#e0e0e0" stroke="#999999" points="579,-18.5 503,-18.5 503,0 579,0 579,-18.5"/>
<text text-anchor="middle" x="541" y="-5" font-family="Helvetica,sans-Serif" font-size="10.00">stddef.h</text>
</a>
</g>
</g>
<!-- Node5&#45;&gt;Node7 -->
<g id="edge6_Node000005_Node000007" class="edge">
<title>Node5&#45;&gt;Node7</title>
<g id="a_edge6_Node000005_Node000007"><a xlink:title=" ">
<path fill="none" stroke="#63b8ff" d="M462.52,-54.08C476.95,-46.03 498.69,-33.88 515.63,-24.42"/>
<polygon fill="#63b8ff" stroke="#63b8ff" points="517.11,-27.6 524.13,-19.67 513.7,-21.49 517.11,-27.6"/>
</a>
</g>
</g>
<!-- Node8 -->
<g id="Node000008" class="node">
<title>Node8</title>
<g id="a_Node000008"><a xlink:title=" ">
<polygon fill="#e0e0e0" stroke="#999999" points="485,-18.5 409,-18.5 409,0 485,0 485,-18.5"/>
<text text-anchor="middle" x="447" y="-5" font-family="Helvetica,sans-Serif" font-size="10.00">stdint.h</text>
</a>
</g>
</g>
<!-- Node5&#45;&gt;Node8 -->
<g id="edge7_Node000005_Node000008" class="edge">
<title>Node5&#45;&gt;Node8</title>
<g id="a_edge7_Node000005_Node000008"><a xlink:title=" ">
<path fill="none" stroke="#63b8ff" d="M447,-54.08C447,-47.58 447,-38.42 447,-30.16"/>
<polygon fill="#63b8ff" stroke="#63b8ff" points="450.5,-30.27 447,-20.27 443.5,-30.27 450.5,-30.27"/>
</a>
</g>
</g>
<!-- Node10&#45;&gt;Node9 -->
<g id="edge14_Node000010_Node000009" class="edge">
<title>Node10&#45;&gt;Node9</title>
<g id="a_edge14_Node000010_Node000009"><a xlink:title=" ">
<path fill="none" stroke="#63b8ff" d="M512,-361452.84C511.11,-359796.84 384.36,-123051.13 383.01,-120539.92"/>
<polygon fill="#63b8ff" stroke="#63b8ff" points="386.51,-120539.98 383.01,-120529.98 379.51,-120539.99 386.51,-120539.98"/>
</a>
</g>
</g>
<!-- Node11 -->
<g id="Node000011" class="node">
<title>Node11</title>
<g id="a_Node000011"><a xlink:href="sqsh__mapper_8h.html" target="_top" xlink:title=" ">
<polygon fill="white" stroke="#666666" points="597.75,-120540.03 484.25,-120540.03 484.25,-120497.58 597.75,-120497.58 597.75,-120540.03"/>
<text text-anchor="middle" x="541" y="-120526.53" font-family="Helvetica,sans-Serif" font-size="10.00">sqsh_mapper.h</text>
</a>
</g>
</g>
<!-- Node10&#45;&gt;Node11 -->
<g id="edge10_Node000010_Node000011" class="edge">
<title>Node10&#45;&gt;Node11</title>
<g id="a_edge10_Node000010_Node000011"><a xlink:title=" ">
<path fill="none" stroke="#63b8ff" d="M512,-361452.84C512.2,-359799.18 540.62,-123718.49 541,-120551.95"/>
<polygon fill="#63b8ff" stroke="#63b8ff" points="544.5,-120551.95 541,-120541.95 537.5,-120551.95 544.5,-120551.95"/>
</a>
</g>
</g>
<!-- Node12 -->
<g id="Node000012" class="node">
<title>Node12</title>
<g id="a_Node000012"><a xlink:title=" ">
<polygon fill="#e0e0e0" stroke="#999999" points="789.75,-120531.8 616.25,-120531.8 616.25,-120505.8 789.75,-120505.8 789.75,-120531.8"/>
<text text-anchor="middle" x="703" y="-120518.3" font-family="Helvetica,sans-Serif" font-size="10.00">sqsh_reader_private.h</text>
</a>
</g>
</g>
<!-- Node10&#45;&gt;Node12 -->
<g id="edge13_Node000010_Node000012" class="edge">
<title>Node10&#45;&gt;Node12</title>
<g id="a_edge13_Node000010_Node000012"><a xlink:title=" ">
<path fill="none" stroke="#63b8ff" d="M512.01,-361452.84C513.32,-359797.55 700.83,-123254.36 702.98,-120543.29"/>
<polygon fill="#63b8ff" stroke="#63b8ff" points="706.48,-120543.65 702.99,-120533.65 699.48,-120543.64 706.48,-120543.65"/>
</a>
</g>
</g>
<!-- Node11&#45;&gt;Node5 -->
<g id="edge11_Node000011_Node000005" class="edge">
<title>Node11&#45;&gt;Node5</title>
<g id="a_edge11_Node000011_Node000005"><a xlink:title=" ">
<path fill="none" stroke="#63b8ff" d="M541.03,-120497.35C543.5,-118714.17 706.21,-905.98 475,-109 472.25,-99.53 466.81,-90.14 461.44,-82.46"/>
<polygon fill="#63b8ff" stroke="#63b8ff" points="464.4,-80.58 455.58,-74.7 458.82,-84.79 464.4,-80.58"/>
</a>
</g>
</g>
<!-- Node11&#45;&gt;Node7 -->
<g id="edge12_Node000011_Node000007" class="edge">
<title>Node11&#45;&gt;Node7</title>
<g id="a_edge12_Node000011_Node000007"><a xlink:title=" ">
<path fill="none" stroke="#63b8ff" d="M541,-120497.2C541,-118714.08 541,-1782.74 541,-30.15"/>
<polygon fill="#63b8ff" stroke="#63b8ff" points="544.5,-30.23 541,-20.23 537.5,-30.23 544.5,-30.23"/>
</a>
</g>
</g>
</g>
</svg>
