<?xml version="1.0" encoding="UTF-8" standalone="no"?>
<!DOCTYPE svg PUBLIC "-//W3C//DTD SVG 1.1//EN"
 "http://www.w3.org/Graphics/SVG/1.1/DTD/svg11.dtd">
<!-- Generated by graphviz version 9.0.0 (20230911.1827)
 -->
<!-- Title: include/sqsh_easy.h Pages: 1 -->
<svg width="464pt" height="640561pt"
 viewBox="0.00 0.00 464.21 640561.45" xmlns="http://www.w3.org/2000/svg" xmlns:xlink="http://www.w3.org/1999/xlink">
<g id="graph0" class="graph" transform="scale(1 1) rotate(0) translate(4 640557.45)">
<title>include/sqsh_easy.h</title>
<!-- Node1 -->
<g id="Node000001" class="node">
<title>Node1</title>
<g id="a_Node000001"><a xlink:title=" ">
<polygon fill="#999999" stroke="#666666" points="371,-640553.45 212.5,-640553.45 212.5,-640534.95 371,-640534.95 371,-640553.45"/>
<text text-anchor="middle" x="291.75" y="-640539.95" font-family="Helvetica,sans-Serif" font-size="10.00">include/sqsh_easy.h</text>
</a>
</g>
</g>
<!-- Node2 -->
<g id="Node000002" class="node">
<title>Node2</title>
<g id="a_Node000002"><a xlink:href="sqsh__common_8h.html" target="_top" xlink:title=" ">
<polygon fill="white" stroke="#666666" points="196.5,-640498.95 83,-640498.95 83,-65.63 196.5,-65.63 196.5,-640498.95"/>
<text text-anchor="middle" x="139.75" y="-640485.45" font-family="Helvetica,sans-Serif" font-size="10.00">sqsh_common.h</text>
</a>
</g>
</g>
<!-- Node1&#45;&gt;Node2 -->
<g id="edge1_Node000001_Node000002" class="edge">
<title>Node1&#45;&gt;Node2</title>
<g id="a_edge1_Node000001_Node000002"><a xlink:title=" ">
<path fill="none" stroke="#63b8ff" d="M256.27,-640534.53C237.78,-640528.01 216.77,-640517.01 205.75,-640498.95 27.47,-640206.79 43.69,-518905.14 82.5,-425703.42"/>
<polygon fill="#63b8ff" stroke="#63b8ff" points="86,-425703.46 82.5,-425693.46 79,-425703.46 86,-425703.46"/>
</a>
</g>
</g>
<!-- Node6 -->
<g id="Node000006" class="node">
<title>Node6</title>
<g id="a_Node000006"><a xlink:title=" ">
<polygon fill="#e0e0e0" stroke="#999999" points="283,-320295.29 214.5,-320295.29 214.5,-320269.29 283,-320269.29 283,-320295.29"/>
<text text-anchor="middle" x="248.75" y="-320281.79" font-family="Helvetica,sans-Serif" font-size="10.00">fcntl.h</text>
</a>
</g>
</g>
<!-- Node1&#45;&gt;Node6 -->
<g id="edge5_Node000001_Node000006" class="edge">
<title>Node1&#45;&gt;Node6</title>
<g id="a_edge5_Node000001_Node000006"><a xlink:title=" ">
<path fill="none" stroke="#63b8ff" d="M291.75,-640534.62C291.49,-638639.97 249.18,-323458.74 248.75,-320307.09"/>
<polygon fill="#63b8ff" stroke="#63b8ff" points="252.25,-320307.16 248.75,-320297.16 245.25,-320307.16 252.25,-320307.16"/>
</a>
</g>
</g>
<!-- Node7 -->
<g id="Node000007" class="node">
<title>Node7</title>
<g id="a_Node000007"><a xlink:title=" ">
<polygon fill="#e0e0e0" stroke="#999999" points="370,-320303.48 301.5,-320303.48 301.5,-320261.1 370,-320261.1 370,-320303.48"/>
<text text-anchor="middle" x="335.75" y="-320289.98" font-family="Helvetica,sans-Serif" font-size="10.00">stdio.h</text>
</a>
</g>
</g>
<!-- Node1&#45;&gt;Node7 -->
<g id="edge6_Node000001_Node000007" class="edge">
<title>Node1&#45;&gt;Node7</title>
<g id="a_edge6_Node000001_Node000007"><a xlink:title=" ">
<path fill="none" stroke="#63b8ff" d="M291.75,-640534.62C292.01,-638641.48 335.24,-323961.02 335.75,-320315.22"/>
<polygon fill="#63b8ff" stroke="#63b8ff" points="339.25,-320315.29 335.75,-320305.29 332.25,-320315.29 339.25,-320315.29"/>
</a>
</g>
</g>
<!-- Node8 -->
<g id="Node000008" class="node">
<title>Node8</title>
<g id="a_Node000008"><a xlink:title=" ">
<polygon fill="#e0e0e0" stroke="#999999" points="449.25,-320303.48 388.25,-320303.48 388.25,-320261.1 449.25,-320261.1 449.25,-320303.48"/>
<text text-anchor="middle" x="418.75" y="-320289.98" font-family="Helvetica,sans-Serif" font-size="10.00">time.h</text>
</a>
</g>
</g>
<!-- Node1&#45;&gt;Node8 -->
<g id="edge7_Node000001_Node000008" class="edge">
<title>Node1&#45;&gt;Node8</title>
<g id="a_edge7_Node000001_Node000008"><a xlink:title=" ">
<path fill="none" stroke="#63b8ff" d="M328.08,-640534.48C346.67,-640527.98 367.67,-640517.01 378.75,-640498.95 523.24,-640263.38 419.96,-323979.81 418.76,-320315.38"/>
<polygon fill="#63b8ff" stroke="#63b8ff" points="422.26,-320315.4 418.76,-320305.4 415.26,-320315.4 422.26,-320315.4"/>
</a>
</g>
</g>
<!-- Node3 -->
<g id="Node000003" class="node">
<title>Node3</title>
<g id="a_Node000003"><a xlink:title=" ">
<polygon fill="#e0e0e0" stroke="#999999" points="83.5,-24.07 0,-24.07 0,-5.57 83.5,-5.57 83.5,-24.07"/>
<text text-anchor="middle" x="41.75" y="-10.57" font-family="Helvetica,sans-Serif" font-size="10.00">stdbool.h</text>
</a>
</g>
</g>
<!-- Node2&#45;&gt;Node3 -->
<g id="edge2_Node000002_Node000003" class="edge">
<title>Node2&#45;&gt;Node3</title>
<g id="a_edge2_Node000002_Node000003"><a xlink:title=" ">
<path fill="none" stroke="#63b8ff" d="M82.5,-133187.87C61.26,-63766.79 42.14,-1306.24 41.76,-35.55"/>
<polygon fill="#63b8ff" stroke="#63b8ff" points="45.26,-35.84 41.75,-25.84 38.26,-35.84 45.26,-35.84"/>
</a>
</g>
</g>
<!-- Node4 -->
<g id="Node000004" class="node">
<title>Node4</title>
<g id="a_Node000004"><a xlink:title=" ">
<polygon fill="#e0e0e0" stroke="#999999" points="177.75,-24.07 101.75,-24.07 101.75,-5.57 177.75,-5.57 177.75,-24.07"/>
<text text-anchor="middle" x="139.75" y="-10.57" font-family="Helvetica,sans-Serif" font-size="10.00">stddef.h</text>
</a>
</g>
</g>
<!-- Node2&#45;&gt;Node4 -->
<g id="edge3_Node000002_Node000004" class="edge">
<title>Node2&#45;&gt;Node4</title>
<g id="a_edge3_Node000002_Node000004"><a xlink:title=" ">
<path fill="none" stroke="#63b8ff" d="M139.75,-65.42C139.75,-53.34 139.75,-43.45 139.75,-35.78"/>
<polygon fill="#63b8ff" stroke="#63b8ff" points="143.25,-35.86 139.75,-25.86 136.25,-35.86 143.25,-35.86"/>
</a>
</g>
</g>
<!-- Node5 -->
<g id="Node000005" class="node">
<title>Node5</title>
<g id="a_Node000005"><a xlink:title=" ">
<polygon fill="#e0e0e0" stroke="#999999" points="271.75,-29.63 195.75,-29.63 195.75,0 271.75,0 271.75,-29.63"/>
<text text-anchor="middle" x="233.75" y="-16.13" font-family="Helvetica,sans-Serif" font-size="10.00">stdint.h</text>
</a>
</g>
</g>
<!-- Node2&#45;&gt;Node5 -->
<g id="edge4_Node000002_Node000005" class="edge">
<title>Node2&#45;&gt;Node5</title>
<g id="a_edge4_Node000002_Node000005"><a xlink:title=" ">
<path fill="none" stroke="#63b8ff" d="M82.5,-209546.63C46.91,-117260.38 35.72,-714.9 205.75,-65.63 208.13,-56.56 212.57,-47.39 217.22,-39.44"/>
<polygon fill="#63b8ff" stroke="#63b8ff" points="220.13,-41.39 222.51,-31.07 214.21,-37.66 220.13,-41.39"/>
</a>
</g>
</g>
</g>
</svg>
