<?xml version="1.0" encoding="UTF-8" standalone="no"?>
<!DOCTYPE svg PUBLIC "-//W3C//DTD SVG 1.1//EN"
 "http://www.w3.org/Graphics/SVG/1.1/DTD/svg11.dtd">
<!-- Generated by graphviz version 8.0.5 (20230430.1635)
 -->
<!-- Title: include/sqsh_archive.h Pages: 1 -->
<!--zoomable 1464239 -->
<svg id="main" version="1.1" xmlns="http://www.w3.org/2000/svg" xmlns:xlink="http://www.w3.org/1999/xlink" xml:space="preserve" onload="init(evt)">
<style type="text/css"><![CDATA[
.edge:hover path { stroke: red; }
.edge:hover polygon { stroke: red; fill: red; }
]]></style>
<script type="text/javascript"><![CDATA[
var edges = document.getElementsByTagName('g');
if (edges && edges.length) {
  for (var i=0;i<edges.length;i++) {
    if (edges[i].id.substr(0,4)=='edge') {
      edges[i].setAttribute('class','edge');
    }
  }
}
]]></script>
        <defs>
                <circle id="rim" cx="0" cy="0" r="7"/>
                <circle id="rim2" cx="0" cy="0" r="3.5"/>
                <g id="zoomPlus">
                        <use xlink:href="#rim" fill="#404040">
                                <set attributeName="fill" to="#808080" begin="zoomplus.mouseover" end="zoomplus.mouseout"/>
                        </use>
                        <path d="M-4,0h8M0,-4v8" fill="none" stroke="white" stroke-width="1.5" pointer-events="none"/>
                </g>
                <g id="zoomMin">
                        <use xlink:href="#rim" fill="#404040">
                                <set attributeName="fill" to="#808080" begin="zoomminus.mouseover" end="zoomminus.mouseout"/>
                        </use>
                        <path d="M-4,0h8" fill="none" stroke="white" stroke-width="1.5" pointer-events="none"/>
                </g>
                <g id="dirArrow">
                        <path fill="none" stroke="white" stroke-width="1.5" d="M0,-3.0v7 M-2.5,-0.5L0,-3.0L2.5,-0.5"/>
                </g>
               <g id="resetDef">
                       <use xlink:href="#rim2" fill="#404040">
                               <set attributeName="fill" to="#808080" begin="reset.mouseover" end="reset.mouseout"/>
                       </use>
               </g>
        </defs>

<script type="text/javascript">
var viewWidth = 1635;
var viewHeight = 1464239;
var sectionId = 'dynsection-1';
</script>
<script xlink:href="svgpan.js"/>
<svg id="graph" class="graph">
<g id="viewport">
<title>include/sqsh_archive.h</title>
<!-- Node1 -->
<g id="node1" class="node">
<title>Node1</title>
<g id="a_node1"><a xlink:title=" ">
<polygon fill="#999999" stroke="#666666" points="948.75,-1464230.72 767.75,-1464230.72 767.75,-1464212.22 948.75,-1464212.22 948.75,-1464230.72"/>
<text text-anchor="middle" x="858.25" y="-1464217.22" font-family="Helvetica,sans-Serif" font-size="10.00">include/sqsh_archive.h</text>
</a>
</g>
</g>
<!-- Node2 -->
<g id="node2" class="node">
<title>Node2</title>
<g id="a_node2"><a xlink:href="sqsh_8h.html" target="_top" xlink:title=" ">
<polygon fill="white" stroke="#666666" points="837.75,-1098172.42 716.75,-1098172.42 716.75,-1098153.92 837.75,-1098153.92 837.75,-1098172.42"/>
<text text-anchor="middle" x="777.25" y="-1098158.92" font-family="Helvetica,sans-Serif" font-size="10.00">include/sqsh.h</text>
</a>
</g>
</g>
<!-- Node1&#45;&gt;Node2 -->
<g id="edge1" class="edge">
<title>Node1&#45;&gt;Node2</title>
<path fill="none" stroke="#63b8ff" d="M852.41,-1464201.33C850.34,-1464193.61 848.27,-1464184.57 847.25,-1464176.22 -385.77,-1454113.02 770.72,-1100160.02 777.22,-1098172.57"/>
<polygon fill="#63b8ff" stroke="#63b8ff" points="849.29,-1464202.13 855.42,-1464210.77 856.01,-1464200.19 849.29,-1464202.13"/>
</g>
<!-- Node11 -->
<g id="node11" class="node">
<title>Node11</title>
<g id="a_node11"><a xlink:href="sqsh__archive__private_8h.html" target="_top" xlink:title=" ">
<polygon fill="white" stroke="#666666" points="1022.25,-1464176.22 856.25,-1464176.22 856.25,-732150.11 1022.25,-732150.11 1022.25,-1464176.22"/>
<text text-anchor="start" x="864.25" y="-1464162.72" font-family="Helvetica,sans-Serif" font-size="10.00">libsqsh/include/sqsh</text>
<text text-anchor="middle" x="939.25" y="-1464144.72" font-family="Helvetica,sans-Serif" font-size="10.00">_archive_private.h</text>
</a>
</g>
</g>
<!-- Node1&#45;&gt;Node11 -->
<g id="edge10" class="edge">
<title>Node1&#45;&gt;Node11</title>
<path fill="none" stroke="#63b8ff" d="M858.25,-1464201.02C858.26,-1464194.5 858.26,-1464186.34 858.26,-1464176.55"/>
<polygon fill="#63b8ff" stroke="#63b8ff" points="854.75,-1464200.83 858.25,-1464210.83 861.75,-1464200.83 854.75,-1464200.83"/>
</g>
<!-- Node3 -->
<g id="node3" class="node">
<title>Node3</title>
<g id="a_node3"><a xlink:href="list__dir_8c.html" target="_top" xlink:title=" ">
<polygon fill="white" stroke="#666666" points="158.5,-366066.31 0,-366066.31 0,-366047.81 158.5,-366047.81 158.5,-366066.31"/>
<text text-anchor="middle" x="79.25" y="-366052.81" font-family="Helvetica,sans-Serif" font-size="10.00">examples/list_dir.c</text>
</a>
</g>
</g>
<!-- Node2&#45;&gt;Node3 -->
<g id="edge2" class="edge">
<title>Node2&#45;&gt;Node3</title>
<path fill="none" stroke="#63b8ff" d="M777.21,-1098142.6C772.1,-1095857.73 321.48,-893879.99 167.25,-732114.11 12.72,-570038.26 78.75,-367596.61 79.25,-366066.78"/>
<polygon fill="#63b8ff" stroke="#63b8ff" points="773.71,-1098142.45 777.23,-1098152.44 780.71,-1098142.44 773.71,-1098142.45"/>
</g>
<!-- Node4 -->
<g id="node4" class="node">
<title>Node4</title>
<g id="a_node4"><a xlink:href="list__dir__ll_8c.html" target="_top" xlink:title=" ">
<polygon fill="white" stroke="#666666" points="357.75,-732114.11 176.75,-732114.11 176.75,0 357.75,0 357.75,-732114.11"/>
<text text-anchor="middle" x="267.25" y="-732100.61" font-family="Helvetica,sans-Serif" font-size="10.00">examples/list_dir_ll.c</text>
</a>
</g>
</g>
<!-- Node2&#45;&gt;Node4 -->
<g id="edge3" class="edge">
<title>Node2&#45;&gt;Node4</title>
<path fill="none" stroke="#63b8ff" d="M777.22,-1098142.6C773.88,-1095857.73 478.94,-893879.9 366.25,-732114.11 363.51,-728179.85 360.84,-724221.81 358.25,-720243.43"/>
<polygon fill="#63b8ff" stroke="#63b8ff" points="773.72,-1098142.45 777.24,-1098152.44 780.72,-1098142.44 773.72,-1098142.45"/>
</g>
<!-- Node5 -->
<g id="node5" class="node">
<title>Node5</title>
<g id="a_node5"><a xlink:href="list__xattrs_8c.html" target="_top" xlink:title=" ">
<polygon fill="white" stroke="#666666" points="556.75,-732055.75 375.75,-732055.75 375.75,-58.37 556.75,-58.37 556.75,-732055.75"/>
<text text-anchor="middle" x="466.25" y="-732042.25" font-family="Helvetica,sans-Serif" font-size="10.00">examples/list_xattrs.c</text>
</a>
</g>
</g>
<!-- Node2&#45;&gt;Node5 -->
<g id="edge4" class="edge">
<title>Node2&#45;&gt;Node5</title>
<path fill="none" stroke="#63b8ff" d="M777.24,-1098142.6C775.63,-1095857.73 633.97,-893879.85 565.25,-732114.11 562.52,-725693.34 559.86,-719209.22 557.25,-712676.75"/>
<polygon fill="#63b8ff" stroke="#63b8ff" points="773.74,-1098142.45 777.24,-1098152.44 780.74,-1098142.44 773.74,-1098142.45"/>
</g>
<!-- Node6 -->
<g id="node6" class="node">
<title>Node6</title>
<g id="a_node6"><a xlink:href="list__xattrs__ll_8c.html" target="_top" xlink:title=" ">
<polygon fill="white" stroke="#666666" points="778,-366070.06 574.5,-366070.06 574.5,-366044.06 778,-366044.06 778,-366070.06"/>
<text text-anchor="middle" x="676.25" y="-366056.56" font-family="Helvetica,sans-Serif" font-size="10.00">examples/list_xattrs_ll.c</text>
</a>
</g>
</g>
<!-- Node2&#45;&gt;Node6 -->
<g id="edge5" class="edge">
<title>Node2&#45;&gt;Node6</title>
<path fill="none" stroke="#63b8ff" d="M777.25,-1098142.62C776.65,-1093806.44 676.73,-369522.01 676.25,-366070.43"/>
<polygon fill="#63b8ff" stroke="#63b8ff" points="773.75,-1098142.54 777.25,-1098152.54 780.75,-1098142.53 773.75,-1098142.54"/>
</g>
<!-- Node7 -->
<g id="node7" class="node">
<title>Node7</title>
<g id="a_node7"><a xlink:href="read__file_8c.html" target="_top" xlink:title=" ">
<polygon fill="white" stroke="#666666" points="962.25,-366066.31 796.25,-366066.31 796.25,-366047.81 962.25,-366047.81 962.25,-366066.31"/>
<text text-anchor="middle" x="879.25" y="-366052.81" font-family="Helvetica,sans-Serif" font-size="10.00">examples/read_file.c</text>
</a>
</g>
</g>
<!-- Node2&#45;&gt;Node7 -->
<g id="edge6" class="edge">
<title>Node2&#45;&gt;Node7</title>
<path fill="none" stroke="#63b8ff" d="M777.25,-1098142.61C777.86,-1093804.13 878.85,-368945.25 879.25,-366066.65"/>
<polygon fill="#63b8ff" stroke="#63b8ff" points="773.75,-1098142.53 777.25,-1098152.54 780.75,-1098142.54 773.75,-1098142.53"/>
</g>
<!-- Node8 -->
<g id="node8" class="node">
<title>Node8</title>
<g id="a_node8"><a xlink:href="read__file__ll_8c.html" target="_top" xlink:title=" ">
<polygon fill="white" stroke="#666666" points="1168.5,-366066.31 980,-366066.31 980,-366047.81 1168.5,-366047.81 1168.5,-366066.31"/>
<text text-anchor="middle" x="1074.25" y="-366052.81" font-family="Helvetica,sans-Serif" font-size="10.00">examples/read_file_ll.c</text>
</a>
</g>
</g>
<!-- Node2&#45;&gt;Node8 -->
<g id="edge7" class="edge">
<title>Node2&#45;&gt;Node8</title>
<path fill="none" stroke="#63b8ff" d="M777.17,-1098142.61C764.96,-1095083.64 -672.78,-734173.81 847.25,-732150.11 881.71,-732104.23 936.78,-732160 971.25,-732114.11 1351.87,-731607.42 1075.81,-368107.82 1074.26,-366066.69"/>
<polygon fill="#63b8ff" stroke="#63b8ff" points="773.68,-1098142.59 777.22,-1098152.57 780.68,-1098142.56 773.68,-1098142.59"/>
</g>
<!-- Node9 -->
<g id="node9" class="node">
<title>Node9</title>
<g id="a_node9"><a xlink:href="readme__example_8c.html" target="_top" xlink:title=" ">
<polygon fill="white" stroke="#666666" points="1390,-366066.31 1186.5,-366066.31 1186.5,-366047.81 1390,-366047.81 1390,-366066.31"/>
<text text-anchor="middle" x="1288.25" y="-366052.81" font-family="Helvetica,sans-Serif" font-size="10.00">examples/readme_example.c</text>
</a>
</g>
</g>
<!-- Node2&#45;&gt;Node9 -->
<g id="edge8" class="edge">
<title>Node2&#45;&gt;Node9</title>
<path fill="none" stroke="#63b8ff" d="M777.16,-1098142.6C763.52,-1095082.45 -842.78,-734034.17 847.25,-732150.11 896.51,-732095.2 1127.99,-732169.02 1177.25,-732114.11 1388.85,-731878.25 1288.82,-368109.34 1288.25,-366066.69"/>
<polygon fill="#63b8ff" stroke="#63b8ff" points="773.67,-1098142.59 777.21,-1098152.57 780.67,-1098142.56 773.67,-1098142.59"/>
</g>
<!-- Node10 -->
<g id="node10" class="node">
<title>Node10</title>
<g id="a_node10"><a xlink:href="traverse__dir__ll_8c.html" target="_top" xlink:title=" ">
<polygon fill="white" stroke="#666666" points="1618.75,-366078.26 1407.75,-366078.26 1407.75,-366035.85 1618.75,-366035.85 1618.75,-366078.26"/>
<text text-anchor="middle" x="1513.25" y="-366064.76" font-family="Helvetica,sans-Serif" font-size="10.00">examples/traverse_dir_ll.c</text>
</a>
</g>
</g>
<!-- Node2&#45;&gt;Node10 -->
<g id="edge9" class="edge">
<title>Node2&#45;&gt;Node10</title>
<path fill="none" stroke="#63b8ff" d="M777.16,-1098142.6C763.17,-1095082.14 -883.38,-733996.94 847.25,-732150.11 931.31,-732060.41 1315.19,-732203.81 1399.25,-732114.11 1831.95,-731652.42 1516.01,-369219.79 1513.27,-366078.59"/>
<polygon fill="#63b8ff" stroke="#63b8ff" points="773.66,-1098142.59 777.21,-1098152.57 780.66,-1098142.55 773.66,-1098142.59"/>
</g>
</g>
</svg>
        <g id="navigator" transform="translate(0 0)" fill="#404254">
                <rect fill="#f2f5e9" fill-opacity="0.5" stroke="#606060" stroke-width=".5" x="0" y="0" width="60" height="60"/>
                <use id="zoomplus" xlink:href="#zoomPlus" x="17" y="9" onmousedown="handleZoom(evt,'in')"/>
                <use id="zoomminus" xlink:href="#zoomMin" x="42" y="9" onmousedown="handleZoom(evt,'out')"/>
                <use id="reset" xlink:href="#resetDef" x="30" y="36" onmousedown="handleReset()"/>
                <g id="arrowUp" xlink:href="#dirArrow" transform="translate(30 24)" onmousedown="handlePan(0,-1)">
                  <use xlink:href="#rim" fill="#404040">
                        <set attributeName="fill" to="#808080" begin="arrowUp.mouseover" end="arrowUp.mouseout"/>
                  </use>
                  <path fill="none" stroke="white" stroke-width="1.5" d="M0,-3.0v7 M-2.5,-0.5L0,-3.0L2.5,-0.5"/>
                </g>
                <g id="arrowRight" xlink:href="#dirArrow" transform="rotate(90) translate(36 -43)" onmousedown="handlePan(1,0)">
                  <use xlink:href="#rim" fill="#404040">
                        <set attributeName="fill" to="#808080" begin="arrowRight.mouseover" end="arrowRight.mouseout"/>
                  </use>
                  <path fill="none" stroke="white" stroke-width="1.5" d="M0,-3.0v7 M-2.5,-0.5L0,-3.0L2.5,-0.5"/>
                </g>
                <g id="arrowDown" xlink:href="#dirArrow" transform="rotate(180) translate(-30 -48)" onmousedown="handlePan(0,1)">
                  <use xlink:href="#rim" fill="#404040">
                        <set attributeName="fill" to="#808080" begin="arrowDown.mouseover" end="arrowDown.mouseout"/>
                  </use>
                  <path fill="none" stroke="white" stroke-width="1.5" d="M0,-3.0v7 M-2.5,-0.5L0,-3.0L2.5,-0.5"/>
                </g>
                <g id="arrowLeft" xlink:href="#dirArrow" transform="rotate(270) translate(-36 17)" onmousedown="handlePan(-1,0)">
                  <use xlink:href="#rim" fill="#404040">
                        <set attributeName="fill" to="#808080" begin="arrowLeft.mouseover" end="arrowLeft.mouseout"/>
                  </use>
                  <path fill="none" stroke="white" stroke-width="1.5" d="M0,-3.0v7 M-2.5,-0.5L0,-3.0L2.5,-0.5"/>
                </g>
        </g>
        <svg viewBox="0 0 15 15" width="100%" height="30px" preserveAspectRatio="xMaxYMin meet">
         <g id="arrow_out" transform="scale(0.3 0.3)">
          <a xlink:href="sqsh__archive_8h__dep__incl_org.svg" target="_base">
           <rect id="button" ry="5" rx="5" y="6" x="6" height="38" width="38"
                fill="#f2f5e9" fill-opacity="0.5" stroke="#606060" stroke-width="1.0"/>
           <path id="arrow"
             d="M 11.500037,31.436501 C 11.940474,20.09759 22.043105,11.32322 32.158766,21.979434 L 37.068811,17.246167 C 37.068811,17.246167 37.088388,32 37.088388,32 L 22.160133,31.978069 C 22.160133,31.978069 26.997745,27.140456 26.997745,27.140456 C 18.528582,18.264221 13.291696,25.230495 11.500037,31.436501 z"
             style="fill:#404040;"/>
          </a>
         </g>
        </svg>
</svg>
