<?xml version="1.0" encoding="UTF-8" standalone="no"?>
<!DOCTYPE svg PUBLIC "-//W3C//DTD SVG 1.1//EN"
 "http://www.w3.org/Graphics/SVG/1.1/DTD/svg11.dtd">
<!-- Generated by graphviz version 9.0.0 (20230911.1827)
 -->
<!-- Title: include/sqsh.h Pages: 1 -->
<svg width="1318pt" height="1933069pt"
 viewBox="0.00 0.00 1318.36 1933069.35" xmlns="http://www.w3.org/2000/svg" xmlns:xlink="http://www.w3.org/1999/xlink">
<g id="graph0" class="graph" transform="scale(1 1) rotate(0) translate(4 1933065.35)">
<title>include/sqsh.h</title>
<!-- Node1 -->
<g id="Node000001" class="node">
<title>Node1</title>
<g id="a_Node000001"><a xlink:title=" ">
<polygon fill="#999999" stroke="#666666" points="789.99,-1933061.35 668.99,-1933061.35 668.99,-1933042.85 789.99,-1933042.85 789.99,-1933061.35"/>
<text text-anchor="middle" x="729.49" y="-1933047.85" font-family="Helvetica,sans-Serif" font-size="10.00">include/sqsh.h</text>
</a>
</g>
</g>
<!-- Node2 -->
<g id="Node000002" class="node">
<title>Node2</title>
<g id="a_Node000002"><a xlink:href="sqsh__archive_8h.html" target="_top" xlink:title=" ">
<polygon fill="white" stroke="#666666" points="285.99,-1933006.85 164.99,-1933006.85 164.99,-1671625.68 285.99,-1671625.68 285.99,-1933006.85"/>
<text text-anchor="middle" x="225.49" y="-1932993.35" font-family="Helvetica,sans-Serif" font-size="10.00">sqsh_archive.h</text>
</a>
</g>
</g>
<!-- Node1&#45;&gt;Node2 -->
<g id="edge1_Node000001_Node000002" class="edge">
<title>Node1&#45;&gt;Node2</title>
<g id="a_edge1_Node000001_Node000002"><a xlink:title=" ">
<path fill="none" stroke="#63b8ff" d="M668.91,-1933049.34C555.44,-1933045.4 320.05,-1933034.03 295.49,-1933006.85 292.5,-1933003.54 289.6,-1932949.96 286.79,-1932848.07"/>
<polygon fill="#63b8ff" stroke="#63b8ff" points="290.3,-1932848.15 286.53,-1932838.25 283.3,-1932848.34 290.3,-1932848.15"/>
</a>
</g>
</g>
<!-- Node3 -->
<g id="Node000003" class="node">
<title>Node3</title>
<g id="a_Node000003"><a xlink:href="sqsh__common_8h.html" target="_top" xlink:title=" ">
<polygon fill="white" stroke="#666666" points="775.24,-392209.38 661.74,-392209.38 661.74,-392190.88 775.24,-392190.88 775.24,-392209.38"/>
<text text-anchor="middle" x="718.49" y="-392195.88" font-family="Helvetica,sans-Serif" font-size="10.00">sqsh_common.h</text>
</a>
</g>
</g>
<!-- Node1&#45;&gt;Node3 -->
<g id="edge8_Node000001_Node000003" class="edge">
<title>Node1&#45;&gt;Node3</title>
<g id="a_edge8_Node000001_Node000003"><a xlink:title=" ">
<path fill="none" stroke="#63b8ff" d="M790.35,-1933043.89C813.4,-1933037.86 837.46,-1933026.87 851.49,-1933006.85 851.49,-1933006.85 851.49,-1671625.68 851.49,-1671625.68 825.83,-1671588.52 782.14,-1671626.83 756.49,-1671589.68 756.49,-1671589.68 722.49,-523019.52 722.49,-523019.52 720.76,-465430.42 718.53,-393580.82 718.49,-392220.74"/>
<polygon fill="#63b8ff" stroke="#63b8ff" points="721.99,-392221.07 718.49,-392211.07 714.99,-392221.07 721.99,-392221.07"/>
</a>
</g>
</g>
<!-- Node8 -->
<g id="Node000008" class="node">
<title>Node8</title>
<g id="a_Node000008"><a xlink:href="sqsh__directory_8h.html" target="_top" xlink:title=" ">
<polygon fill="white" stroke="#666666" points="602.49,-1802325.51 466.49,-1802325.51 466.49,-1802307.01 602.49,-1802307.01 602.49,-1802325.51"/>
<text text-anchor="middle" x="534.49" y="-1802312.01" font-family="Helvetica,sans-Serif" font-size="10.00">sqsh_directory.h</text>
</a>
</g>
</g>
<!-- Node1&#45;&gt;Node8 -->
<g id="edge9_Node000001_Node000008" class="edge">
<title>Node1&#45;&gt;Node8</title>
<g id="a_edge9_Node000001_Node000008"><a xlink:title=" ">
<path fill="none" stroke="#63b8ff" d="M668.73,-1933042.87C646.99,-1933036.67 624.64,-1933025.82 611.49,-1933006.85 354.75,-1932636.61 531.92,-1804168.85 534.46,-1802337.04"/>
<polygon fill="#63b8ff" stroke="#63b8ff" points="537.96,-1802337.17 534.48,-1802327.16 530.96,-1802337.16 537.96,-1802337.17"/>
</a>
</g>
</g>
<!-- Node9 -->
<g id="Node000009" class="node">
<title>Node9</title>
<g id="a_Node000009"><a xlink:href="sqsh__file_8h.html" target="_top" xlink:title=" ">
<polygon fill="white" stroke="#666666" points="608.74,-1097325.79 510.24,-1097325.79 510.24,-1097283.42 608.74,-1097283.42 608.74,-1097325.79"/>
<text text-anchor="middle" x="559.49" y="-1097312.29" font-family="Helvetica,sans-Serif" font-size="10.00">sqsh_file.h</text>
</a>
</g>
</g>
<!-- Node1&#45;&gt;Node9 -->
<g id="edge19_Node000001_Node000009" class="edge">
<title>Node1&#45;&gt;Node9</title>
<g id="a_edge19_Node000001_Node000009"><a xlink:title=" ">
<path fill="none" stroke="#63b8ff" d="M668.52,-1933050.02C596.78,-1933047.31 484.03,-1933038.06 457.49,-1933006.85 457.49,-1933006.85 457.49,-1671625.68 457.49,-1671625.68 464.07,-1671606.5 478.91,-1671608.85 485.49,-1671589.68 646.61,-1671120.19 560.24,-1102229.82 559.49,-1097337.34"/>
<polygon fill="#63b8ff" stroke="#63b8ff" points="562.99,-1097337.54 559.49,-1097327.54 555.99,-1097337.54 562.99,-1097337.54"/>
</a>
</g>
</g>
<!-- Node10 -->
<g id="Node000010" class="node">
<title>Node10</title>
<g id="a_Node000010"><a xlink:href="sqsh__easy_8h.html" target="_top" xlink:title=" ">
<polygon fill="white" stroke="#666666" points="1243.74,-1097317.6 1145.24,-1097317.6 1145.24,-1097291.6 1243.74,-1097291.6 1243.74,-1097317.6"/>
<text text-anchor="middle" x="1194.49" y="-1097304.1" font-family="Helvetica,sans-Serif" font-size="10.00">sqsh_easy.h</text>
</a>
</g>
</g>
<!-- Node1&#45;&gt;Node10 -->
<g id="edge12_Node000001_Node000010" class="edge">
<title>Node1&#45;&gt;Node10</title>
<g id="a_edge12_Node000001_Node000010"><a xlink:title=" ">
<path fill="none" stroke="#63b8ff" d="M790.19,-1933050.4C864.16,-1933048.11 982.72,-1933039.31 1010.49,-1933006.85 1600.47,-1932317.03 1136.22,-1672497.38 1136.49,-1671589.68 1210.52,-1417628.46 1194.65,-1100494.36 1194.49,-1097329.48"/>
<polygon fill="#63b8ff" stroke="#63b8ff" points="1197.99,-1097329.51 1194.49,-1097319.51 1190.99,-1097329.51 1197.99,-1097329.51"/>
</a>
</g>
</g>
<!-- Node14 -->
<g id="Node000014" class="node">
<title>Node14</title>
<g id="a_Node000014"><a xlink:href="sqsh__error_8h.html" target="_top" xlink:title=" ">
<polygon fill="white" stroke="#666666" points="842.49,-1802337.45 736.49,-1802337.45 736.49,-1802295.08 842.49,-1802295.08 842.49,-1802337.45"/>
<text text-anchor="middle" x="789.49" y="-1802323.95" font-family="Helvetica,sans-Serif" font-size="10.00">sqsh_error.h</text>
</a>
</g>
</g>
<!-- Node1&#45;&gt;Node14 -->
<g id="edge17_Node000001_Node000014" class="edge">
<title>Node1&#45;&gt;Node14</title>
<g id="a_edge17_Node000001_Node000014"><a xlink:title=" ">
<path fill="none" stroke="#63b8ff" d="M729.49,-1933042.69C730.04,-1931851.96 788.41,-1804659.08 789.47,-1802349.11"/>
<polygon fill="#63b8ff" stroke="#63b8ff" points="792.97,-1802349.18 789.48,-1802339.18 785.97,-1802349.17 792.97,-1802349.18"/>
</a>
</g>
</g>
<!-- Node15 -->
<g id="Node000015" class="node">
<title>Node15</title>
<g id="a_Node000015"><a xlink:href="sqsh__mapper_8h.html" target="_top" xlink:title=" ">
<polygon fill="white" stroke="#666666" points="1003.24,-1671589.68 889.74,-1671589.68 889.74,-523019.52 1003.24,-523019.52 1003.24,-1671589.68"/>
<text text-anchor="middle" x="946.49" y="-1671576.18" font-family="Helvetica,sans-Serif" font-size="10.00">sqsh_mapper.h</text>
</a>
</g>
</g>
<!-- Node1&#45;&gt;Node15 -->
<g id="edge20_Node000001_Node000015" class="edge">
<title>Node1&#45;&gt;Node15</title>
<g id="a_edge20_Node000001_Node000015"><a xlink:title=" ">
<path fill="none" stroke="#63b8ff" d="M790.12,-1933043.1C832.98,-1933036.06 885.1,-1933024.2 898.49,-1933006.85 898.49,-1933006.85 905.15,-1817091.34 913.5,-1671601.26"/>
<polygon fill="#63b8ff" stroke="#63b8ff" points="917,-1671601.54 913.5,-1671591.54 910,-1671601.54 917,-1671601.54"/>
</a>
</g>
</g>
<!-- Node16 -->
<g id="Node000016" class="node">
<title>Node16</title>
<g id="a_Node000016"><a xlink:href="sqsh__posix_8h.html" target="_top" xlink:title=" ">
<polygon fill="white" stroke="#666666" points="1127.49,-1228083.38 1021.49,-1228083.38 1021.49,-966525.82 1127.49,-966525.82 1127.49,-1228083.38"/>
<text text-anchor="middle" x="1074.49" y="-1228069.88" font-family="Helvetica,sans-Serif" font-size="10.00">sqsh_posix.h</text>
</a>
</g>
</g>
<!-- Node1&#45;&gt;Node16 -->
<g id="edge23_Node000001_Node000016" class="edge">
<title>Node1&#45;&gt;Node16</title>
<g id="a_edge23_Node000001_Node000016"><a xlink:title=" ">
<path fill="none" stroke="#63b8ff" d="M790.16,-1933045.1C839.5,-1933038.83 903.48,-1933027.01 919.49,-1933006.85 1201.74,-1932651.44 1012.38,-1672043.53 1012.49,-1671589.68 1047.78,-1519387.17 1063.03,-1344494.4 1069.59,-1228094.96"/>
<polygon fill="#63b8ff" stroke="#63b8ff" points="1073.09,-1228095.15 1069.59,-1228085.15 1066.09,-1228095.15 1073.09,-1228095.15"/>
</a>
</g>
</g>
<!-- Node17 -->
<g id="Node000017" class="node">
<title>Node17</title>
<g id="a_Node000017"><a xlink:href="sqsh__table_8h.html" target="_top" xlink:title=" ">
<polygon fill="white" stroke="#666666" points="871.49,-1097313.85 765.49,-1097313.85 765.49,-1097295.35 871.49,-1097295.35 871.49,-1097313.85"/>
<text text-anchor="middle" x="818.49" y="-1097300.35" font-family="Helvetica,sans-Serif" font-size="10.00">sqsh_table.h</text>
</a>
</g>
</g>
<!-- Node1&#45;&gt;Node17 -->
<g id="edge27_Node000001_Node000017" class="edge">
<title>Node1&#45;&gt;Node17</title>
<g id="a_edge27_Node000001_Node000017"><a xlink:title=" ">
<path fill="none" stroke="#63b8ff" d="M785.16,-1933042.41C824.5,-1933035.01 872.31,-1933022.99 884.49,-1933006.85 884.49,-1933006.85 884.49,-1671625.68 884.49,-1671625.68 883.6,-1671609.6 881.38,-1671605.75 880.49,-1671589.68 660.49,-1667621.31 817.41,-1101194.56 818.48,-1097325.51"/>
<polygon fill="#63b8ff" stroke="#63b8ff" points="821.98,-1097325.83 818.49,-1097315.83 814.98,-1097325.83 821.98,-1097325.83"/>
</a>
</g>
</g>
<!-- Node18 -->
<g id="Node000018" class="node">
<title>Node18</title>
<g id="a_Node000018"><a xlink:href="sqsh__tree_8h.html" target="_top" xlink:title=" ">
<polygon fill="white" stroke="#666666" points="718.74,-1802329.26 620.24,-1802329.26 620.24,-1802303.26 718.74,-1802303.26 718.74,-1802329.26"/>
<text text-anchor="middle" x="669.49" y="-1802315.76" font-family="Helvetica,sans-Serif" font-size="10.00">sqsh_tree.h</text>
</a>
</g>
</g>
<!-- Node1&#45;&gt;Node18 -->
<g id="edge29_Node000001_Node000018" class="edge">
<title>Node1&#45;&gt;Node18</title>
<g id="a_edge29_Node000001_Node000018"><a xlink:title=" ">
<path fill="none" stroke="#63b8ff" d="M728.99,-1933042.62C728.5,-1933033.72 727.77,-1933019.3 727.49,-1933006.85 563.26,-1925806.59 667.78,-1804295.39 669.47,-1802341.1"/>
<polygon fill="#63b8ff" stroke="#63b8ff" points="672.97,-1802341.18 669.48,-1802331.18 665.97,-1802341.18 672.97,-1802341.18"/>
</a>
</g>
</g>
<!-- Node19 -->
<g id="Node000019" class="node">
<title>Node19</title>
<g id="a_Node000019"><a xlink:href="sqsh__utils_8h.html" target="_top" xlink:title=" ">
<polygon fill="white" stroke="#666666" points="146.49,-1802337.45 40.49,-1802337.45 40.49,-1802295.08 146.49,-1802295.08 146.49,-1802337.45"/>
<text text-anchor="middle" x="93.49" y="-1802323.95" font-family="Helvetica,sans-Serif" font-size="10.00">sqsh_utils.h</text>
</a>
</g>
</g>
<!-- Node1&#45;&gt;Node19 -->
<g id="edge32_Node000001_Node000019" class="edge">
<title>Node1&#45;&gt;Node19</title>
<g id="a_edge32_Node000001_Node000019"><a xlink:title=" ">
<path fill="none" stroke="#63b8ff" d="M668.74,-1933050.97C528.18,-1933050.04 189.83,-1933043.92 155.49,-1933006.85 -150.1,-1932676.95 89.09,-1804658.41 93.43,-1802348.89"/>
<polygon fill="#63b8ff" stroke="#63b8ff" points="96.93,-1802349.31 93.45,-1802339.31 89.93,-1802349.3 96.93,-1802349.31"/>
</a>
</g>
</g>
<!-- Node20 -->
<g id="Node000020" class="node">
<title>Node20</title>
<g id="a_Node000020"><a xlink:href="sqsh__xattr_8h.html" target="_top" xlink:title=" ">
<polygon fill="white" stroke="#666666" points="410.49,-1802325.51 304.49,-1802325.51 304.49,-1802307.01 410.49,-1802307.01 410.49,-1802325.51"/>
<text text-anchor="middle" x="357.49" y="-1802312.01" font-family="Helvetica,sans-Serif" font-size="10.00">sqsh_xattr.h</text>
</a>
</g>
</g>
<!-- Node1&#45;&gt;Node20 -->
<g id="edge34_Node000001_Node000020" class="edge">
<title>Node1&#45;&gt;Node20</title>
<g id="a_edge34_Node000001_Node000020"><a xlink:title=" ">
<path fill="none" stroke="#63b8ff" d="M668.8,-1933051.28C589.04,-1933050.08 455.44,-1933042.6 424.49,-1933006.85 277.03,-1932836.54 356.34,-1804171.7 357.48,-1802337.07"/>
<polygon fill="#63b8ff" stroke="#63b8ff" points="360.98,-1802337.18 357.48,-1802327.18 353.98,-1802337.17 360.98,-1802337.18"/>
</a>
</g>
</g>
<!-- Node2&#45;&gt;Node3 -->
<g id="edge2_Node000002_Node000003" class="edge">
<title>Node2&#45;&gt;Node3</title>
<g id="a_edge2_Node000002_Node000003"><a xlink:title=" ">
<path fill="none" stroke="#63b8ff" d="M221.96,-1671625.2C214.97,-1357083.58 207.23,-579607.3 299.49,-523019.52 393.38,-465430.2 712.35,-393580.82 718.4,-392220.74"/>
<polygon fill="#63b8ff" stroke="#63b8ff" points="721.9,-392221.09 718.44,-392211.07 714.9,-392221.06 721.9,-392221.09"/>
</a>
</g>
</g>
<!-- Node7 -->
<g id="Node000007" class="node">
<title>Node7</title>
<g id="a_Node000007"><a xlink:href="sqsh__data_8h.html" target="_top" xlink:title=" ">
<polygon fill="white" stroke="#666666" points="406.74,-1227994.92 308.24,-1227994.92 308.24,-966614.28 406.74,-966614.28 406.74,-1227994.92"/>
<text text-anchor="middle" x="357.49" y="-1227981.42" font-family="Helvetica,sans-Serif" font-size="10.00">sqsh_data.h</text>
</a>
</g>
</g>
<!-- Node2&#45;&gt;Node7 -->
<g id="edge6_Node000002_Node000007" class="edge">
<title>Node2&#45;&gt;Node7</title>
<g id="a_edge6_Node000002_Node000007"><a xlink:title=" ">
<path fill="none" stroke="#63b8ff" d="M266.48,-1671625.25C266.48,-1671613.39 266.49,-1671601.53 266.49,-1671589.68 302.42,-1519348.71 327.87,-1344406.02 342.55,-1228006.74"/>
<polygon fill="#63b8ff" stroke="#63b8ff" points="346.05,-1228006.93 342.55,-1227996.93 339.05,-1228006.93 346.05,-1228006.93"/>
</a>
</g>
</g>
<!-- Node4 -->
<g id="Node000004" class="node">
<title>Node4</title>
<g id="a_Node000004"><a xlink:title=" ">
<polygon fill="#e0e0e0" stroke="#999999" points="760.24,-130699.62 676.74,-130699.62 676.74,-130681.12 760.24,-130681.12 760.24,-130699.62"/>
<text text-anchor="middle" x="718.49" y="-130686.12" font-family="Helvetica,sans-Serif" font-size="10.00">stdbool.h</text>
</a>
</g>
</g>
<!-- Node3&#45;&gt;Node4 -->
<g id="edge3_Node000003_Node000004" class="edge">
<title>Node3&#45;&gt;Node4</title>
<g id="a_edge3_Node000003_Node000004"><a xlink:title=" ">
<path fill="none" stroke="#63b8ff" d="M718.49,-392190.63C718.49,-390486.83 718.49,-133313.85 718.49,-130711.26"/>
<polygon fill="#63b8ff" stroke="#63b8ff" points="721.99,-130711.33 718.49,-130701.33 714.99,-130711.33 721.99,-130711.33"/>
</a>
</g>
</g>
<!-- Node5 -->
<g id="Node000005" class="node">
<title>Node5</title>
<g id="a_Node000005"><a xlink:title=" ">
<polygon fill="#e0e0e0" stroke="#999999" points="873.49,-130699.62 797.49,-130699.62 797.49,-130681.12 873.49,-130681.12 873.49,-130699.62"/>
<text text-anchor="middle" x="835.49" y="-130686.12" font-family="Helvetica,sans-Serif" font-size="10.00">stddef.h</text>
</a>
</g>
</g>
<!-- Node3&#45;&gt;Node5 -->
<g id="edge4_Node000003_Node000005" class="edge">
<title>Node3&#45;&gt;Node5</title>
<g id="a_edge4_Node000003_Node000005"><a xlink:title=" ">
<path fill="none" stroke="#63b8ff" d="M718.49,-392190.63C719.26,-390486.83 834.32,-133313.85 835.48,-130711.26"/>
<polygon fill="#63b8ff" stroke="#63b8ff" points="838.98,-130711.33 835.48,-130701.33 831.98,-130711.33 838.98,-130711.33"/>
</a>
</g>
</g>
<!-- Node6 -->
<g id="Node000006" class="node">
<title>Node6</title>
<g id="a_Node000006"><a xlink:title=" ">
<polygon fill="#e0e0e0" stroke="#999999" points="1027.49,-261380.74 951.49,-261380.74 951.49,0 1027.49,0 1027.49,-261380.74"/>
<text text-anchor="middle" x="989.49" y="-261367.24" font-family="Helvetica,sans-Serif" font-size="10.00">stdint.h</text>
</a>
</g>
</g>
<!-- Node3&#45;&gt;Node6 -->
<g id="edge5_Node000003_Node000006" class="edge">
<title>Node3&#45;&gt;Node6</title>
<g id="a_edge5_Node000003_Node000006"><a xlink:title=" ">
<path fill="none" stroke="#63b8ff" d="M718.5,-392190.7C719.78,-391294.78 822.62,-319160.3 882.49,-261380.74 908.81,-235979.97 932.57,-207802.2 950.98,-184133.88"/>
<polygon fill="#63b8ff" stroke="#63b8ff" points="954.48,-184134.02 950.99,-184124.02 947.48,-184134.02 954.48,-184134.02"/>
</a>
</g>
</g>
<!-- Node7&#45;&gt;Node3 -->
<g id="edge7_Node000007_Node000003" class="edge">
<title>Node7&#45;&gt;Node3</title>
<g id="a_edge7_Node000007_Node000003"><a xlink:title=" ">
<path fill="none" stroke="#63b8ff" d="M312.53,-966614.02C288.64,-850214.74 292.36,-675265.46 457.49,-523019.52 519.95,-465430.34 714.74,-393580.82 718.44,-392220.74"/>
<polygon fill="#63b8ff" stroke="#63b8ff" points="721.93,-392221.08 718.46,-392211.07 714.93,-392221.06 721.93,-392221.08"/>
</a>
</g>
</g>
<!-- Node8&#45;&gt;Node9 -->
<g id="edge10_Node000008_Node000009" class="edge">
<title>Node8&#45;&gt;Node9</title>
<g id="a_edge10_Node000008_Node000009"><a xlink:title=" ">
<path fill="none" stroke="#63b8ff" d="M534.49,-1802306.69C534.59,-1799489.07 559.3,-1102734.64 559.49,-1097337.12"/>
<polygon fill="#63b8ff" stroke="#63b8ff" points="562.99,-1097337.48 559.49,-1097327.48 555.99,-1097337.48 562.99,-1097337.48"/>
</a>
</g>
</g>
<!-- Node9&#45;&gt;Node3 -->
<g id="edge11_Node000009_Node000003" class="edge">
<title>Node9&#45;&gt;Node3</title>
<g id="a_edge11_Node000009_Node000003"><a xlink:title=" ">
<path fill="none" stroke="#63b8ff" d="M559.49,-1097283.04C559.48,-1094345.07 559.08,-777072.92 647.49,-523019.52 667.53,-465430.41 717.53,-393580.82 718.48,-392220.74"/>
<polygon fill="#63b8ff" stroke="#63b8ff" points="721.97,-392221.08 718.48,-392211.07 714.97,-392221.07 721.97,-392221.08"/>
</a>
</g>
</g>
<!-- Node10&#45;&gt;Node3 -->
<g id="edge13_Node000010_Node000003" class="edge">
<title>Node10&#45;&gt;Node3</title>
<g id="a_edge13_Node000010_Node000003"><a xlink:title=" ">
<path fill="none" stroke="#63b8ff" d="M1194.49,-1097291.21C1195.7,-1094225.4 1420.39,-523427.67 1136.49,-523019.52 1110.23,-522981.77 1065.79,-523021.24 1039.49,-522983.52 -1023.42,-520025.26 693.21,-394048.03 718.21,-392221.19"/>
<polygon fill="#63b8ff" stroke="#63b8ff" points="721.71,-392221.35 718.35,-392211.31 714.71,-392221.26 721.71,-392221.35"/>
</a>
</g>
</g>
<!-- Node11 -->
<g id="Node000011" class="node">
<title>Node11</title>
<g id="a_Node000011"><a xlink:title=" ">
<polygon fill="#e0e0e0" stroke="#999999" points="1219.74,-522983.52 1151.24,-522983.52 1151.24,-261416.74 1219.74,-261416.74 1219.74,-522983.52"/>
<text text-anchor="middle" x="1185.49" y="-522970.02" font-family="Helvetica,sans-Serif" font-size="10.00">fcntl.h</text>
</a>
</g>
</g>
<!-- Node10&#45;&gt;Node11 -->
<g id="edge14_Node000010_Node000011" class="edge">
<title>Node10&#45;&gt;Node11</title>
<g id="a_edge14_Node000010_Node000011"><a xlink:title=" ">
<path fill="none" stroke="#63b8ff" d="M1194.49,-1097291.33C1194.46,-1094841.16 1189.75,-726189.66 1187.16,-522994.97"/>
<polygon fill="#63b8ff" stroke="#63b8ff" points="1190.66,-522995.14 1187.16,-522985.14 1183.66,-522995.14 1190.66,-522995.14"/>
</a>
</g>
</g>
<!-- Node12 -->
<g id="Node000012" class="node">
<title>Node12</title>
<g id="a_Node000012"><a xlink:title=" ">
<polygon fill="#e0e0e0" stroke="#999999" points="1116.74,-522951.51 1048.24,-522951.51 1048.24,-261448.75 1116.74,-261448.75 1116.74,-522951.51"/>
<text text-anchor="middle" x="1082.49" y="-522938.01" font-family="Helvetica,sans-Serif" font-size="10.00">stdio.h</text>
</a>
</g>
</g>
<!-- Node10&#45;&gt;Node12 -->
<g id="edge15_Node000010_Node000012" class="edge">
<title>Node10&#45;&gt;Node12</title>
<g id="a_edge15_Node000010_Node000012"><a xlink:title=" ">
<path fill="none" stroke="#63b8ff" d="M1194.49,-1097291.21C1194.54,-1095006.61 1201.82,-777337.76 1136.49,-523019.52 1131.8,-504766.9 1124.73,-485081.74 1117.24,-466662.38"/>
<polygon fill="#63b8ff" stroke="#63b8ff" points="1120.74,-466662.51 1117.24,-466652.51 1113.74,-466662.51 1120.74,-466662.51"/>
</a>
</g>
</g>
<!-- Node13 -->
<g id="Node000013" class="node">
<title>Node13</title>
<g id="a_Node000013"><a xlink:title=" ">
<polygon fill="#e0e0e0" stroke="#999999" points="1298.99,-392209.38 1237.99,-392209.38 1237.99,-392190.88 1298.99,-392190.88 1298.99,-392209.38"/>
<text text-anchor="middle" x="1268.49" y="-392195.88" font-family="Helvetica,sans-Serif" font-size="10.00">time.h</text>
</a>
</g>
</g>
<!-- Node10&#45;&gt;Node13 -->
<g id="edge16_Node000010_Node000013" class="edge">
<title>Node10&#45;&gt;Node13</title>
<g id="a_edge16_Node000010_Node000013"><a xlink:title=" ">
<path fill="none" stroke="#63b8ff" d="M1194.49,-1097291.33C1194.84,-1093918.27 1268.04,-396517.19 1268.49,-392221.06"/>
<polygon fill="#63b8ff" stroke="#63b8ff" points="1271.99,-392221.17 1268.49,-392211.17 1264.99,-392221.17 1271.99,-392221.17"/>
</a>
</g>
</g>
<!-- Node14&#45;&gt;Node3 -->
<g id="edge18_Node000014_Node000003" class="edge">
<title>Node14&#45;&gt;Node3</title>
<g id="a_edge18_Node000014_Node000003"><a xlink:title=" ">
<path fill="none" stroke="#63b8ff" d="M789.51,-1802294.91C791.52,-1800460.58 927.63,-1675223.79 727.49,-1671625.68 726.59,-1671609.6 724.38,-1671605.75 723.49,-1671589.68 662.21,-1670483.33 718.23,-398042.91 718.49,-392221.17"/>
<polygon fill="#63b8ff" stroke="#63b8ff" points="721.99,-392221.21 718.49,-392211.21 714.99,-392221.21 721.99,-392221.21"/>
</a>
</g>
</g>
<!-- Node15&#45;&gt;Node3 -->
<g id="edge21_Node000015_Node000003" class="edge">
<title>Node15&#45;&gt;Node3</title>
<g id="a_edge21_Node000015_Node000003"><a xlink:title=" ">
<path fill="none" stroke="#63b8ff" d="M889.24,-523960.62C886.42,-523380.85 883.51,-523063.13 880.49,-523019.52 879.37,-523003.41 876.61,-522999.64 875.49,-522983.52 -127.43,-508597.73 705.59,-393966.56 718.34,-392221.27"/>
<polygon fill="#63b8ff" stroke="#63b8ff" points="721.84,-392221.38 718.41,-392211.36 714.84,-392221.33 721.84,-392221.38"/>
</a>
</g>
</g>
<!-- Node15&#45;&gt;Node5 -->
<g id="edge22_Node000015_Node000005" class="edge">
<title>Node15&#45;&gt;Node5</title>
<g id="a_edge22_Node000015_Node000005"><a xlink:title=" ">
<path fill="none" stroke="#63b8ff" d="M889.24,-598758.37C862.23,-363558.89 835.77,-133176.39 835.49,-130711.33"/>
<polygon fill="#63b8ff" stroke="#63b8ff" points="838.99,-130711.58 835.49,-130701.58 831.99,-130711.58 838.99,-130711.58"/>
</a>
</g>
</g>
<!-- Node16&#45;&gt;Node3 -->
<g id="edge24_Node000016_Node000003" class="edge">
<title>Node16&#45;&gt;Node3</title>
<g id="a_edge24_Node000016_Node000003"><a xlink:title=" ">
<path fill="none" stroke="#63b8ff" d="M1091.62,-966525.65C1109.44,-797152.11 1121.38,-523346.14 1012.49,-523019.52 1006.16,-523000.55 991.83,-523002.49 985.49,-522983.52 -158.48,-519563.25 705.76,-394041.33 718.35,-392221.12"/>
<polygon fill="#63b8ff" stroke="#63b8ff" points="721.85,-392221.3 718.42,-392211.28 714.85,-392221.25 721.85,-392221.3"/>
</a>
</g>
</g>
<!-- Node16&#45;&gt;Node6 -->
<g id="edge25_Node000016_Node000006" class="edge">
<title>Node16&#45;&gt;Node6</title>
<g id="a_edge25_Node000016_Node000006"><a xlink:title=" ">
<path fill="none" stroke="#63b8ff" d="M1062.99,-966525.8C1046.74,-781726.21 1017.23,-446149.97 1000.98,-261392.24"/>
<polygon fill="#63b8ff" stroke="#63b8ff" points="1004.48,-261392.38 1000.98,-261382.39 997.48,-261392.39 1004.48,-261392.38"/>
</a>
</g>
</g>
<!-- Node16&#45;&gt;Node12 -->
<g id="edge26_Node000016_Node000012" class="edge">
<title>Node16&#45;&gt;Node12</title>
<g id="a_edge26_Node000016_Node000012"><a xlink:title=" ">
<path fill="none" stroke="#63b8ff" d="M1075.97,-966525.69C1077.41,-840043.1 1079.57,-649440.31 1081.01,-522963.11"/>
<polygon fill="#63b8ff" stroke="#63b8ff" points="1084.51,-522963.4 1081.01,-522953.4 1077.51,-522963.4 1084.51,-522963.4"/>
</a>
</g>
</g>
<!-- Node17&#45;&gt;Node3 -->
<g id="edge28_Node000017_Node000003" class="edge">
<title>Node17&#45;&gt;Node3</title>
<g id="a_edge28_Node000017_Node000003"><a xlink:title=" ">
<path fill="none" stroke="#63b8ff" d="M818.49,-1097295.05C818.37,-1095395.81 798.43,-777493.54 751.49,-523019.52 740.87,-465430.42 718.91,-393580.82 718.49,-392220.74"/>
<polygon fill="#63b8ff" stroke="#63b8ff" points="722,-392221.07 718.49,-392211.07 715,-392221.07 722,-392221.07"/>
</a>
</g>
</g>
<!-- Node18&#45;&gt;Node3 -->
<g id="edge30_Node000018_Node000003" class="edge">
<title>Node18&#45;&gt;Node3</title>
<g id="a_edge30_Node000018_Node000003"><a xlink:title=" ">
<path fill="none" stroke="#63b8ff" d="M669.49,-1802302.88C669.2,-1798889.16 610.4,-1090224.63 685.49,-523019.52 693.11,-465430.41 718.01,-393580.82 718.48,-392220.74"/>
<polygon fill="#63b8ff" stroke="#63b8ff" points="721.98,-392221.08 718.49,-392211.07 714.98,-392221.07 721.98,-392221.08"/>
</a>
</g>
</g>
<!-- Node18&#45;&gt;Node9 -->
<g id="edge31_Node000018_Node000009" class="edge">
<title>Node18&#45;&gt;Node9</title>
<g id="a_edge31_Node000018_Node000009"><a xlink:title=" ">
<path fill="none" stroke="#63b8ff" d="M669.49,-1802302.82C669.3,-1801216.79 656.76,-1729250.21 647.49,-1671589.68 606.69,-1417830.89 560.03,-1100999.91 559.49,-1097337.65"/>
<polygon fill="#63b8ff" stroke="#63b8ff" points="562.99,-1097337.67 559.49,-1097327.67 555.99,-1097337.67 562.99,-1097337.67"/>
</a>
</g>
</g>
<!-- Node19&#45;&gt;Node3 -->
<g id="edge33_Node000019_Node000003" class="edge">
<title>Node19&#45;&gt;Node3</title>
<g id="a_edge33_Node000019_Node000003"><a xlink:title=" ">
<path fill="none" stroke="#63b8ff" d="M93.49,-1802294.71C92.71,-1796734.06 -65.36,-664814.02 214.49,-523019.52 328.15,-465430.1 711.12,-393580.81 718.38,-392220.74"/>
<polygon fill="#63b8ff" stroke="#63b8ff" points="721.88,-392221.09 718.44,-392211.07 714.88,-392221.05 721.88,-392221.09"/>
</a>
</g>
</g>
<!-- Node20&#45;&gt;Node3 -->
<g id="edge35_Node000020_Node000003" class="edge">
<title>Node20&#45;&gt;Node3</title>
<g id="a_edge35_Node000020_Node000003"><a xlink:title=" ">
<path fill="none" stroke="#63b8ff" d="M357.49,-1802306.84C358.02,-1801411.56 400.52,-1729328.23 415.49,-1671589.68 448.58,-1543970.78 390.86,-650638.38 501.49,-523019.52 551.41,-465430.36 715.33,-393580.82 718.44,-392220.74"/>
<polygon fill="#63b8ff" stroke="#63b8ff" points="721.94,-392221.08 718.47,-392211.07 714.94,-392221.07 721.94,-392221.08"/>
</a>
</g>
</g>
<!-- Node20&#45;&gt;Node7 -->
<g id="edge36_Node000020_Node000007" class="edge">
<title>Node20&#45;&gt;Node7</title>
<g id="a_edge36_Node000020_Node000007"><a xlink:title=" ">
<path fill="none" stroke="#63b8ff" d="M357.49,-1802306.69C357.49,-1800257.8 357.49,-1431270.4 357.49,-1228006.74"/>
<polygon fill="#63b8ff" stroke="#63b8ff" points="360.99,-1228006.91 357.49,-1227996.91 353.99,-1228006.91 360.99,-1228006.91"/>
</a>
</g>
</g>
</g>
</svg>
