<?xml version="1.0" encoding="UTF-8" standalone="no"?>
<!DOCTYPE svg PUBLIC "-//W3C//DTD SVG 1.1//EN"
 "http://www.w3.org/Graphics/SVG/1.1/DTD/svg11.dtd">
<!-- Generated by graphviz version 9.0.0 (20230911.1827)
 -->
<!-- Title: include/sqsh_tree.h Pages: 1 -->
<svg width="280pt" height="2028848pt"
 viewBox="0.00 0.00 279.75 2028848.03" xmlns="http://www.w3.org/2000/svg" xmlns:xlink="http://www.w3.org/1999/xlink">
<g id="graph0" class="graph" transform="scale(1 1) rotate(0) translate(4 2028844.03)">
<title>include/sqsh_tree.h</title>
<!-- Node1 -->
<g id="Node000001" class="node">
<title>Node1</title>
<g id="a_Node000001"><a xlink:title=" ">
<polygon fill="#999999" stroke="#666666" points="219,-2028840.03 60.5,-2028840.03 60.5,-2028821.53 219,-2028821.53 219,-2028840.03"/>
<text text-anchor="middle" x="139.75" y="-2028826.53" font-family="Helvetica,sans-Serif" font-size="10.00">include/sqsh_tree.h</text>
</a>
</g>
</g>
<!-- Node2 -->
<g id="Node000002" class="node">
<title>Node2</title>
<g id="a_Node000002"><a xlink:href="sqsh__common_8h.html" target="_top" xlink:title=" ">
<polygon fill="white" stroke="#666666" points="196.5,-2028723.53 83,-2028723.53 83,-1014379.62 196.5,-1014379.62 196.5,-2028723.53"/>
<text text-anchor="middle" x="139.75" y="-2028710.03" font-family="Helvetica,sans-Serif" font-size="10.00">sqsh_common.h</text>
</a>
</g>
</g>
<!-- Node1&#45;&gt;Node2 -->
<g id="edge1_Node000001_Node000002" class="edge">
<title>Node1&#45;&gt;Node2</title>
<g id="a_edge1_Node000001_Node000002"><a xlink:title=" ">
<path fill="none" stroke="#63b8ff" d="M134.87,-2028821.31C130.19,-2028812.64 123.44,-2028798.63 120.75,-2028785.53 118.42,-2028774.21 120.75,-2028771.09 120.75,-2028759.53 120.75,-2028751.42 120.75,-2028743.31 120.75,-2028735.2"/>
<polygon fill="#63b8ff" stroke="#63b8ff" points="124.25,-2028735.25 120.75,-2028725.25 117.25,-2028735.25 124.25,-2028735.25"/>
</a>
</g>
</g>
<!-- Node6 -->
<g id="Node000006" class="node">
<title>Node6</title>
<g id="a_Node000006"><a xlink:href="sqsh__file_8h.html" target="_top" xlink:title=" ">
<polygon fill="white" stroke="#666666" points="228,-2028785.53 129.5,-2028785.53 129.5,-2028759.53 228,-2028759.53 228,-2028785.53"/>
<text text-anchor="middle" x="178.75" y="-2028772.03" font-family="Helvetica,sans-Serif" font-size="10.00">sqsh_file.h</text>
</a>
</g>
</g>
<!-- Node1&#45;&gt;Node6 -->
<g id="edge5_Node000001_Node000006" class="edge">
<title>Node1&#45;&gt;Node6</title>
<g id="a_edge5_Node000001_Node000006"><a xlink:title=" ">
<path fill="none" stroke="#63b8ff" d="M145.5,-2028821.48C150.3,-2028814.57 157.34,-2028804.41 163.72,-2028795.21"/>
<polygon fill="#63b8ff" stroke="#63b8ff" points="166.55,-2028797.28 169.37,-2028787.06 160.79,-2028793.29 166.55,-2028797.28"/>
</a>
</g>
</g>
<!-- Node3 -->
<g id="Node000003" class="node">
<title>Node3</title>
<g id="a_Node000003"><a xlink:title=" ">
<polygon fill="#e0e0e0" stroke="#999999" points="83.5,-1014250.56 0,-1014250.56 0,-93.06 83.5,-93.06 83.5,-1014250.56"/>
<text text-anchor="middle" x="41.75" y="-1014237.06" font-family="Helvetica,sans-Serif" font-size="10.00">stdbool.h</text>
</a>
</g>
</g>
<!-- Node2&#45;&gt;Node3 -->
<g id="edge2_Node000002_Node000003" class="edge">
<title>Node2&#45;&gt;Node3</title>
<g id="a_edge2_Node000002_Node000003"><a xlink:title=" ">
<path fill="none" stroke="#63b8ff" d="M90.75,-1014379.47C88.5,-991021.96 86.24,-967664.39 84,-944504.93"/>
<polygon fill="#63b8ff" stroke="#63b8ff" points="87.5,-944505.05 84,-944495.05 80.5,-944505.05 87.5,-944505.05"/>
</a>
</g>
</g>
<!-- Node4 -->
<g id="Node000004" class="node">
<title>Node4</title>
<g id="a_Node000004"><a xlink:title=" ">
<polygon fill="#e0e0e0" stroke="#999999" points="177.75,-507181.06 101.75,-507181.06 101.75,-507162.56 177.75,-507162.56 177.75,-507181.06"/>
<text text-anchor="middle" x="139.75" y="-507167.56" font-family="Helvetica,sans-Serif" font-size="10.00">stddef.h</text>
</a>
</g>
</g>
<!-- Node2&#45;&gt;Node4 -->
<g id="edge3_Node000002_Node000004" class="edge">
<title>Node2&#45;&gt;Node4</title>
<g id="a_edge3_Node000002_Node000004"><a xlink:title=" ">
<path fill="none" stroke="#63b8ff" d="M139.75,-1014379.47C139.75,-762077.79 139.75,-509770.25 139.75,-507192.73"/>
<polygon fill="#63b8ff" stroke="#63b8ff" points="143.25,-507192.89 139.75,-507182.89 136.25,-507192.89 143.25,-507192.89"/>
</a>
</g>
</g>
<!-- Node5 -->
<g id="Node000005" class="node">
<title>Node5</title>
<g id="a_Node000005"><a xlink:title=" ">
<polygon fill="#e0e0e0" stroke="#999999" points="271.75,-1014343.62 195.75,-1014343.62 195.75,0 271.75,0 271.75,-1014343.62"/>
<text text-anchor="middle" x="233.75" y="-1014330.12" font-family="Helvetica,sans-Serif" font-size="10.00">stdint.h</text>
</a>
</g>
</g>
<!-- Node2&#45;&gt;Node5 -->
<g id="edge4_Node000002_Node000005" class="edge">
<title>Node2&#45;&gt;Node5</title>
<g id="a_edge4_Node000002_Node000005"><a xlink:title=" ">
<path fill="none" stroke="#63b8ff" d="M186.75,-1014379.47C189.6,-983651.79 192.44,-952924.02 195.25,-922647.31"/>
<polygon fill="#63b8ff" stroke="#63b8ff" points="198.75,-922647.39 195.25,-922637.39 191.75,-922647.39 198.75,-922647.39"/>
</a>
</g>
</g>
<!-- Node6&#45;&gt;Node2 -->
<g id="edge6_Node000006_Node000002" class="edge">
<title>Node6&#45;&gt;Node2</title>
<g id="a_edge6_Node000006_Node000002"><a xlink:title=" ">
<path fill="none" stroke="#63b8ff" d="M178.75,-2028759.03C178.75,-2028753.14 178.75,-2028745.15 178.75,-2028735.1"/>
<polygon fill="#63b8ff" stroke="#63b8ff" points="182.25,-2028735.38 178.75,-2028725.38 175.25,-2028735.38 182.25,-2028735.38"/>
</a>
</g>
</g>
</g>
</svg>
