<?xml version="1.0" encoding="UTF-8" standalone="no"?>
<!DOCTYPE svg PUBLIC "-//W3C//DTD SVG 1.1//EN"
 "http://www.w3.org/Graphics/SVG/1.1/DTD/svg11.dtd">
<!-- Generated by graphviz version 9.0.0 (20230911.1827)
 -->
<!-- Title: libsqsh/include/sqsh_file_private.h Pages: 1 -->
<svg width="358pt" height="1198293pt"
 viewBox="0.00 0.00 358.00 1198293.03" xmlns="http://www.w3.org/2000/svg" xmlns:xlink="http://www.w3.org/1999/xlink">
<g id="graph0" class="graph" transform="scale(1 1) rotate(0) translate(4 1198289.03)">
<title>libsqsh/include/sqsh_file_private.h</title>
<!-- Node1 -->
<g id="Node000001" class="node">
<title>Node1</title>
<g id="a_Node000001"><a xlink:title=" ">
<polygon fill="#999999" stroke="#666666" points="258,-1198285.03 92,-1198285.03 92,-1198256.03 258,-1198256.03 258,-1198285.03"/>
<text text-anchor="start" x="100" y="-1198271.53" font-family="Helvetica,sans-Serif" font-size="10.00">libsqsh/include/sqsh</text>
<text text-anchor="middle" x="175" y="-1198261.03" font-family="Helvetica,sans-Serif" font-size="10.00">_file_private.h</text>
</a>
</g>
</g>
<!-- Node2 -->
<g id="Node000002" class="node">
<title>Node2</title>
<g id="a_Node000002"><a xlink:href="sqsh__archive__private_8h.html" target="_top" xlink:title=" ">
<polygon fill="white" stroke="#666666" points="166,-1198220.03 0,-1198220.03 0,-399329.33 166,-399329.33 166,-1198220.03"/>
<text text-anchor="start" x="8" y="-1198206.53" font-family="Helvetica,sans-Serif" font-size="10.00">libsqsh/include/sqsh</text>
<text text-anchor="middle" x="83" y="-798739.97" font-family="Helvetica,sans-Serif" font-size="10.00">_archive_private.h</text>
</a>
</g>
</g>
<!-- Node1&#45;&gt;Node2 -->
<g id="edge1_Node000001_Node000002" class="edge">
<title>Node1&#45;&gt;Node2</title>
<g id="a_edge1_Node000001_Node000002"><a xlink:title=" ">
<path fill="none" stroke="#63b8ff" d="M174.99,-1198244.39C174.84,-1197576.64 171.63,-1183648.68 166.5,-1161359.49"/>
<polygon fill="#63b8ff" stroke="#63b8ff" points="171.49,-1198244.05 175,-1198254.05 178.49,-1198244.05 171.49,-1198244.05"/>
</a>
</g>
</g>
<!-- Node3 -->
<g id="Node000003" class="node">
<title>Node3</title>
<g id="a_Node000003"><a xlink:href="sqsh__directory__private_8h.html" target="_top" xlink:title=" ">
<polygon fill="white" stroke="#666666" points="350,-998420.94 184,-998420.94 184,-599128.42 350,-599128.42 350,-998420.94"/>
<text text-anchor="start" x="192" y="-998407.44" font-family="Helvetica,sans-Serif" font-size="10.00">libsqsh/include/sqsh</text>
<text text-anchor="middle" x="267" y="-599133.5" font-family="Helvetica,sans-Serif" font-size="10.00">_directory_private.h</text>
</a>
</g>
</g>
<!-- Node1&#45;&gt;Node3 -->
<g id="edge2_Node000001_Node000003" class="edge">
<title>Node1&#45;&gt;Node3</title>
<g id="a_edge2_Node000001_Node000003"><a xlink:title=" ">
<path fill="none" stroke="#63b8ff" d="M175.01,-1198244.24C175.42,-1196431.07 198.23,-1097409.69 221.02,-998421.43"/>
<polygon fill="#63b8ff" stroke="#63b8ff" points="171.51,-1198244.05 175,-1198254.05 178.51,-1198244.05 171.51,-1198244.05"/>
</a>
</g>
</g>
<!-- Node4 -->
<g id="Node000004" class="node">
<title>Node4</title>
<g id="a_Node000004"><a xlink:href="sqsh__tree__private_8h.html" target="_top" xlink:title=" ">
<polygon fill="white" stroke="#666666" points="350,-399293.33 184,-399293.33 184,0 350,0 350,-399293.33"/>
<text text-anchor="start" x="192" y="-399279.83" font-family="Helvetica,sans-Serif" font-size="10.00">libsqsh/include/sqsh</text>
<text text-anchor="middle" x="267" y="-5" font-family="Helvetica,sans-Serif" font-size="10.00">_tree_private.h</text>
</a>
</g>
</g>
<!-- Node3&#45;&gt;Node4 -->
<g id="edge3_Node000003_Node000004" class="edge">
<title>Node3&#45;&gt;Node4</title>
<g id="a_edge3_Node000003_Node000004"><a xlink:title=" ">
<path fill="none" stroke="#63b8ff" d="M267,-599116.84C267,-534820.4 267,-463589.42 267,-399293.75"/>
<polygon fill="#63b8ff" stroke="#63b8ff" points="263.5,-599116.73 267,-599126.73 270.5,-599116.73 263.5,-599116.73"/>
</a>
</g>
</g>
</g>
</svg>
