<?xml version="1.0" encoding="UTF-8" standalone="no"?>
<!DOCTYPE svg PUBLIC "-//W3C//DTD SVG 1.1//EN"
 "http://www.w3.org/Graphics/SVG/1.1/DTD/svg11.dtd">
<!-- Generated by graphviz version 9.0.0 (20230911.1827)
 -->
<!-- Title: include/sqsh_mapper.h Pages: 1 -->
<svg width="318pt" height="1501394pt"
 viewBox="0.00 0.00 317.51 1501393.77" xmlns="http://www.w3.org/2000/svg" xmlns:xlink="http://www.w3.org/1999/xlink">
<g id="graph0" class="graph" transform="scale(1 1) rotate(0) translate(4 1501389.77)">
<title>include/sqsh_mapper.h</title>
<!-- Node1 -->
<g id="Node000001" class="node">
<title>Node1</title>
<g id="a_Node000001"><a xlink:title=" ">
<polygon fill="#999999" stroke="#666666" points="272.5,-1501385.77 99,-1501385.77 99,-1501367.27 272.5,-1501367.27 272.5,-1501385.77"/>
<text text-anchor="middle" x="185.75" y="-1501372.27" font-family="Helvetica,sans-Serif" font-size="10.00">include/sqsh_mapper.h</text>
</a>
</g>
</g>
<!-- Node2 -->
<g id="Node000002" class="node">
<title>Node2</title>
<g id="a_Node000002"><a xlink:href="sqsh__common_8h.html" target="_top" xlink:title=" ">
<polygon fill="white" stroke="#666666" points="200.5,-1501331.27 87,-1501331.27 87,-1501312.77 200.5,-1501312.77 200.5,-1501331.27"/>
<text text-anchor="middle" x="143.75" y="-1501317.77" font-family="Helvetica,sans-Serif" font-size="10.00">sqsh_common.h</text>
</a>
</g>
</g>
<!-- Node1&#45;&gt;Node2 -->
<g id="edge1_Node000001_Node000002" class="edge">
<title>Node1&#45;&gt;Node2</title>
<g id="a_edge1_Node000001_Node000002"><a xlink:title=" ">
<path fill="none" stroke="#63b8ff" d="M178.81,-1501366.85C173.07,-1501359.66 164.71,-1501349.22 157.6,-1501340.33"/>
<polygon fill="#63b8ff" stroke="#63b8ff" points="160.48,-1501338.33 151.5,-1501332.71 155.02,-1501342.7 160.48,-1501338.33"/>
</a>
</g>
</g>
<!-- Node4 -->
<g id="Node000004" class="node">
<title>Node4</title>
<g id="a_Node000004"><a xlink:title=" ">
<polygon fill="#e0e0e0" stroke="#999999" points="271.75,-750647.63 195.75,-750647.63 195.75,-750629.13 271.75,-750629.13 271.75,-750647.63"/>
<text text-anchor="middle" x="233.75" y="-750634.13" font-family="Helvetica,sans-Serif" font-size="10.00">stddef.h</text>
</a>
</g>
</g>
<!-- Node1&#45;&gt;Node4 -->
<g id="edge5_Node000001_Node000004" class="edge">
<title>Node1&#45;&gt;Node4</title>
<g id="a_edge5_Node000001_Node000004"><a xlink:title=" ">
<path fill="none" stroke="#63b8ff" d="M192.12,-1501366.91C198.01,-1501358.37 206.35,-1501344.65 209.75,-1501331.27 369.54,-1500701.53 234.56,-755116.09 233.75,-750659.44"/>
<polygon fill="#63b8ff" stroke="#63b8ff" points="237.25,-750659.47 233.75,-750649.47 230.25,-750659.47 237.25,-750659.47"/>
</a>
</g>
</g>
<!-- Node3 -->
<g id="Node000003" class="node">
<title>Node3</title>
<g id="a_Node000003"><a xlink:title=" ">
<polygon fill="#e0e0e0" stroke="#999999" points="83.5,-1501276.77 0,-1501276.77 0,0 83.5,0 83.5,-1501276.77"/>
<text text-anchor="middle" x="41.75" y="-1501263.27" font-family="Helvetica,sans-Serif" font-size="10.00">stdbool.h</text>
</a>
</g>
</g>
<!-- Node2&#45;&gt;Node3 -->
<g id="edge2_Node000002_Node000003" class="edge">
<title>Node2&#45;&gt;Node3</title>
<g id="a_edge2_Node000002_Node000003"><a xlink:title=" ">
<path fill="none" stroke="#63b8ff" d="M128.02,-1501312.46C115.87,-1501304.87 99.95,-1501292.55 92.75,-1501276.77 92.75,-1501276.77 89.21,-1449209.98 84,-1372502.01"/>
<polygon fill="#63b8ff" stroke="#63b8ff" points="87.5,-1372502.11 84,-1372492.11 80.5,-1372502.11 87.5,-1372502.11"/>
</a>
</g>
</g>
<!-- Node2&#45;&gt;Node4 -->
<g id="edge3_Node000002_Node000004" class="edge">
<title>Node2&#45;&gt;Node4</title>
<g id="a_edge3_Node000002_Node000004"><a xlink:title=" ">
<path fill="none" stroke="#63b8ff" d="M156.24,-1501312.51C166.62,-1501304.62 180.63,-1501291.85 186.75,-1501276.77 431.07,-1500674.81 234.93,-755115.93 233.76,-750659.44"/>
<polygon fill="#63b8ff" stroke="#63b8ff" points="237.26,-750659.47 233.75,-750649.47 230.26,-750659.47 237.26,-750659.47"/>
</a>
</g>
</g>
<!-- Node5 -->
<g id="Node000005" class="node">
<title>Node5</title>
<g id="a_Node000005"><a xlink:title=" ">
<polygon fill="#e0e0e0" stroke="#999999" points="177.75,-1501183.33 101.75,-1501183.33 101.75,-93.43 177.75,-93.43 177.75,-1501183.33"/>
<text text-anchor="middle" x="139.75" y="-1501169.83" font-family="Helvetica,sans-Serif" font-size="10.00">stdint.h</text>
</a>
</g>
</g>
<!-- Node2&#45;&gt;Node5 -->
<g id="edge4_Node000002_Node000005" class="edge">
<title>Node2&#45;&gt;Node5</title>
<g id="a_edge4_Node000002_Node000005"><a xlink:title=" ">
<path fill="none" stroke="#63b8ff" d="M143.75,-1501312.44C143.75,-1501296.21 143.75,-1501256.98 143.75,-1501195.02"/>
<polygon fill="#63b8ff" stroke="#63b8ff" points="147.25,-1501195.13 143.75,-1501185.13 140.25,-1501195.13 147.25,-1501195.13"/>
</a>
</g>
</g>
</g>
</svg>
