<?xml version="1.0" encoding="UTF-8" standalone="no"?>
<!DOCTYPE svg PUBLIC "-//W3C//DTD SVG 1.1//EN"
 "http://www.w3.org/Graphics/SVG/1.1/DTD/svg11.dtd">
<!-- Generated by graphviz version 8.0.5 (20230430.1635)
 -->
<!-- Title: include/sqsh_error.h Pages: 1 -->
<svg width="1398pt" height="2456560pt"
 viewBox="0.00 0.00 1398.00 2456560.10" xmlns="http://www.w3.org/2000/svg" xmlns:xlink="http://www.w3.org/1999/xlink">
<g id="graph0" class="graph" transform="scale(1 1) rotate(0) translate(4 2456556.1)">
<title>include/sqsh_error.h</title>
<!-- Node1 -->
<g id="node1" class="node">
<title>Node1</title>
<g id="a_node1"><a xlink:title=" ">
<polygon fill="#999999" stroke="#666666" points="840.25,-2456552.1 674.25,-2456552.1 674.25,-2456533.59 840.25,-2456533.59 840.25,-2456552.1"/>
<text text-anchor="middle" x="757.25" y="-2456538.6" font-family="Helvetica,sans-Serif" font-size="10.00">include/sqsh_error.h</text>
</a>
</g>
</g>
<!-- Node2 -->
<g id="node2" class="node">
<title>Node2</title>
<g id="a_node2"><a xlink:href="sqsh_8h.html" target="_top" xlink:title=" ">
<polygon fill="white" stroke="#666666" points="736.75,-2456497.59 615.75,-2456497.59 615.75,-1228266.09 736.75,-1228266.09 736.75,-2456497.59"/>
<text text-anchor="middle" x="676.25" y="-2456484.09" font-family="Helvetica,sans-Serif" font-size="10.00">include/sqsh.h</text>
</a>
</g>
</g>
<!-- Node1&#45;&gt;Node2 -->
<g id="edge1" class="edge">
<title>Node1&#45;&gt;Node2</title>
<path fill="none" stroke="#63b8ff" d="M751.41,-2456522.7C749.34,-2456514.98 747.27,-2456505.94 746.25,-2456497.59 -126.34,-2449372.84 420.17,-2019309.19 615.25,-1883209.79"/>
<polygon fill="#63b8ff" stroke="#63b8ff" points="748.29,-2456523.5 754.42,-2456532.14 755.01,-2456521.57 748.29,-2456523.5"/>
</g>
<!-- Node10 -->
<g id="node10" class="node">
<title>Node10</title>
<g id="a_node10"><a xlink:href="sqsh__archive__private_8h.html" target="_top" xlink:title=" ">
<polygon fill="white" stroke="#666666" points="921.25,-1842408.25 755.25,-1842408.25 755.25,-1842355.43 921.25,-1842355.43 921.25,-1842408.25"/>
<text text-anchor="start" x="763.25" y="-1842394.75" font-family="Helvetica,sans-Serif" font-size="10.00">libsqsh/include/sqsh</text>
<text text-anchor="middle" x="838.25" y="-1842360.43" font-family="Helvetica,sans-Serif" font-size="10.00">_archive_private.h</text>
</a>
</g>
</g>
<!-- Node1&#45;&gt;Node10 -->
<g id="edge9" class="edge">
<title>Node1&#45;&gt;Node10</title>
<path fill="none" stroke="#63b8ff" d="M757.25,-2456522.68C757.77,-2452597.54 837.65,-1846960.26 838.25,-1842408.62"/>
<polygon fill="#63b8ff" stroke="#63b8ff" points="753.75,-2456522.44 757.25,-2456532.45 760.75,-2456522.45 753.75,-2456522.44"/>
</g>
<!-- Node3 -->
<g id="node3" class="node">
<title>Node3</title>
<g id="a_node3"><a xlink:href="list__dir_8c.html" target="_top" xlink:title=" ">
<polygon fill="white" stroke="#666666" points="158.5,-1228230.09 0,-1228230.09 0,0 158.5,0 158.5,-1228230.09"/>
<text text-anchor="middle" x="79.25" y="-1228216.59" font-family="Helvetica,sans-Serif" font-size="10.00">examples/list_dir.c</text>
</a>
</g>
</g>
<!-- Node2&#45;&gt;Node3 -->
<g id="edge2" class="edge">
<title>Node2&#45;&gt;Node3</title>
<path fill="none" stroke="#63b8ff" d="M615.24,-1784672.12C503.12,-1675851.62 266.71,-1432864.21 167.25,-1228230.09 164.42,-1222407.54 161.67,-1216553.94 159,-1210673.26"/>
<polygon fill="#63b8ff" stroke="#63b8ff" points="611.74,-1784672.02 615.25,-1784682.02 618.74,-1784672.01 611.74,-1784672.02"/>
</g>
<!-- Node4 -->
<g id="node4" class="node">
<title>Node4</title>
<g id="a_node4"><a xlink:href="list__dir__ll_8c.html" target="_top" xlink:title=" ">
<polygon fill="white" stroke="#666666" points="357.75,-1228172.45 176.75,-1228172.45 176.75,-57.64 357.75,-57.64 357.75,-1228172.45"/>
<text text-anchor="middle" x="267.25" y="-1228158.95" font-family="Helvetica,sans-Serif" font-size="10.00">examples/list_dir_ll.c</text>
</a>
</g>
</g>
<!-- Node2&#45;&gt;Node4 -->
<g id="edge3" class="edge">
<title>Node2&#45;&gt;Node4</title>
<path fill="none" stroke="#63b8ff" d="M615.24,-1742401.2C543.51,-1620857.32 426.61,-1409496.62 366.25,-1228230.09 363.51,-1219997.6 360.84,-1211703.02 358.25,-1203357.61"/>
<polygon fill="#63b8ff" stroke="#63b8ff" points="611.74,-1742400.99 615.25,-1742410.98 618.74,-1742400.98 611.74,-1742400.99"/>
</g>
<!-- Node5 -->
<g id="node5" class="node">
<title>Node5</title>
<g id="a_node5"><a xlink:href="list__xattrs_8c.html" target="_top" xlink:title=" ">
<polygon fill="white" stroke="#666666" points="556.75,-614124.3 375.75,-614124.3 375.75,-614105.79 556.75,-614105.79 556.75,-614124.3"/>
<text text-anchor="middle" x="466.25" y="-614110.8" font-family="Helvetica,sans-Serif" font-size="10.00">examples/list_xattrs.c</text>
</a>
</g>
</g>
<!-- Node2&#45;&gt;Node5 -->
<g id="edge4" class="edge">
<title>Node2&#45;&gt;Node5</title>
<path fill="none" stroke="#63b8ff" d="M615.25,-1511417.87C598.67,-1419698.8 580.96,-1320099.37 565.25,-1228230.09 518.72,-956073.48 466.55,-616072.91 466.25,-614124.46"/>
<polygon fill="#63b8ff" stroke="#63b8ff" points="611.75,-1511417.63 615.25,-1511427.63 618.75,-1511417.63 611.75,-1511417.63"/>
</g>
<!-- Node6 -->
<g id="node6" class="node">
<title>Node6</title>
<g id="a_node6"><a xlink:href="list__xattrs__ll_8c.html" target="_top" xlink:title=" ">
<polygon fill="white" stroke="#666666" points="778,-614128.04 574.5,-614128.04 574.5,-614102.04 778,-614102.04 778,-614128.04"/>
<text text-anchor="middle" x="676.25" y="-614114.54" font-family="Helvetica,sans-Serif" font-size="10.00">examples/list_xattrs_ll.c</text>
</a>
</g>
</g>
<!-- Node2&#45;&gt;Node6 -->
<g id="edge5" class="edge">
<title>Node2&#45;&gt;Node6</title>
<path fill="none" stroke="#63b8ff" d="M676.25,-1228255.07C676.25,-922311.19 676.25,-616365.12 676.25,-614128.38"/>
<polygon fill="#63b8ff" stroke="#63b8ff" points="672.75,-1228255.01 676.25,-1228265.01 679.75,-1228255.01 672.75,-1228255.01"/>
</g>
<!-- Node7 -->
<g id="node7" class="node">
<title>Node7</title>
<g id="a_node7"><a xlink:href="read__file_8c.html" target="_top" xlink:title=" ">
<polygon fill="white" stroke="#666666" points="962.25,-614124.29 796.25,-614124.29 796.25,-614105.79 962.25,-614105.79 962.25,-614124.29"/>
<text text-anchor="middle" x="879.25" y="-614110.79" font-family="Helvetica,sans-Serif" font-size="10.00">examples/read_file.c</text>
</a>
</g>
</g>
<!-- Node2&#45;&gt;Node7 -->
<g id="edge6" class="edge">
<title>Node2&#45;&gt;Node7</title>
<path fill="none" stroke="#63b8ff" d="M615.24,-1792666.74C444.59,-1646766.76 20.65,-1229868.56 746.25,-1228266.09 756.25,-1228244 777.25,-1228252.18 787.25,-1228230.09 1006.68,-1227745.51 879.79,-616734.95 879.25,-614124.43"/>
<polygon fill="#63b8ff" stroke="#63b8ff" points="611.74,-1792666.6 615.25,-1792676.59 618.74,-1792666.59 611.74,-1792666.6"/>
</g>
<!-- Node8 -->
<g id="node8" class="node">
<title>Node8</title>
<g id="a_node8"><a xlink:href="read__file__ll_8c.html" target="_top" xlink:title=" ">
<polygon fill="white" stroke="#666666" points="1168.5,-614124.29 980,-614124.29 980,-614105.79 1168.5,-614105.79 1168.5,-614124.29"/>
<text text-anchor="middle" x="1074.25" y="-614110.79" font-family="Helvetica,sans-Serif" font-size="10.00">examples/read_file_ll.c</text>
</a>
</g>
</g>
<!-- Node2&#45;&gt;Node8 -->
<g id="edge7" class="edge">
<title>Node2&#45;&gt;Node8</title>
<path fill="none" stroke="#63b8ff" d="M615.23,-1812377.54C372.83,-1689318.42 -452.15,-1229671.32 746.25,-1228266.09 811.96,-1228189.03 905.53,-1228307.14 971.25,-1228230.09 1316.44,-1227825.35 1075.29,-616735.29 1074.25,-614124.43"/>
<polygon fill="#63b8ff" stroke="#63b8ff" points="611.73,-1812377.46 615.25,-1812387.45 618.73,-1812377.45 611.73,-1812377.46"/>
</g>
<!-- Node9 -->
<g id="node9" class="node">
<title>Node9</title>
<g id="a_node9"><a xlink:href="readme__example_8c.html" target="_top" xlink:title=" ">
<polygon fill="white" stroke="#666666" points="1390,-614124.29 1186.5,-614124.29 1186.5,-614105.79 1390,-614105.79 1390,-614124.29"/>
<text text-anchor="middle" x="1288.25" y="-614110.79" font-family="Helvetica,sans-Serif" font-size="10.00">examples/readme_example.c</text>
</a>
</g>
</g>
<!-- Node2&#45;&gt;Node9 -->
<g id="edge8" class="edge">
<title>Node2&#45;&gt;Node9</title>
<path fill="none" stroke="#63b8ff" d="M615.23,-1813731.89C365.33,-1692725.8 -508.85,-1229630.24 746.25,-1228266.09 811.33,-1228195.36 1112.17,-1228300.82 1177.25,-1228230.09 1537.43,-1227838.64 1289.32,-616735.35 1288.25,-614124.44"/>
<polygon fill="#63b8ff" stroke="#63b8ff" points="611.73,-1813731.63 615.25,-1813741.62 618.73,-1813731.61 611.73,-1813731.63"/>
</g>
</g>
</svg>
