<?xml version="1.0" encoding="UTF-8" standalone="no"?>
<!DOCTYPE svg PUBLIC "-//W3C//DTD SVG 1.1//EN"
 "http://www.w3.org/Graphics/SVG/1.1/DTD/svg11.dtd">
<!-- Generated by graphviz version 8.0.5 (20230430.1635)
 -->
<!-- Title: include/sqsh_file.h Pages: 1 -->
<!--zoomable 4502387 -->
<svg id="main" version="1.1" xmlns="http://www.w3.org/2000/svg" xmlns:xlink="http://www.w3.org/1999/xlink" xml:space="preserve" onload="init(evt)">
<style type="text/css"><![CDATA[
.edge:hover path { stroke: red; }
.edge:hover polygon { stroke: red; fill: red; }
]]></style>
<script type="text/javascript"><![CDATA[
var edges = document.getElementsByTagName('g');
if (edges && edges.length) {
  for (var i=0;i<edges.length;i++) {
    if (edges[i].id.substr(0,4)=='edge') {
      edges[i].setAttribute('class','edge');
    }
  }
}
]]></script>
        <defs>
                <circle id="rim" cx="0" cy="0" r="7"/>
                <circle id="rim2" cx="0" cy="0" r="3.5"/>
                <g id="zoomPlus">
                        <use xlink:href="#rim" fill="#404040">
                                <set attributeName="fill" to="#808080" begin="zoomplus.mouseover" end="zoomplus.mouseout"/>
                        </use>
                        <path d="M-4,0h8M0,-4v8" fill="none" stroke="white" stroke-width="1.5" pointer-events="none"/>
                </g>
                <g id="zoomMin">
                        <use xlink:href="#rim" fill="#404040">
                                <set attributeName="fill" to="#808080" begin="zoomminus.mouseover" end="zoomminus.mouseout"/>
                        </use>
                        <path d="M-4,0h8" fill="none" stroke="white" stroke-width="1.5" pointer-events="none"/>
                </g>
                <g id="dirArrow">
                        <path fill="none" stroke="white" stroke-width="1.5" d="M0,-3.0v7 M-2.5,-0.5L0,-3.0L2.5,-0.5"/>
                </g>
               <g id="resetDef">
                       <use xlink:href="#rim2" fill="#404040">
                               <set attributeName="fill" to="#808080" begin="reset.mouseover" end="reset.mouseout"/>
                       </use>
               </g>
        </defs>

<script type="text/javascript">
var viewWidth = 1717;
var viewHeight = 4502387;
var sectionId = 'dynsection-1';
</script>
<script xlink:href="svgpan.js"/>
<svg id="graph" class="graph">
<g id="viewport">
<title>include/sqsh_file.h</title>
<!-- Node1 -->
<g id="node1" class="node">
<title>Node1</title>
<g id="a_node1"><a xlink:title=" ">
<polygon fill="#999999" stroke="#666666" points="1259,-4502379.2 1100.5,-4502379.2 1100.5,-3001631.51 1259,-3001631.51 1259,-4502379.2"/>
<text text-anchor="middle" x="1179.75" y="-4502365.7" font-family="Helvetica,sans-Serif" font-size="10.00">include/sqsh_file.h</text>
</a>
</g>
</g>
<!-- Node2 -->
<g id="node2" class="node">
<title>Node2</title>
<g id="a_node2"><a xlink:href="sqsh_8h.html" target="_top" xlink:title=" ">
<polygon fill="white" stroke="#666666" points="978.25,-2251170.95 857.25,-2251170.95 857.25,-2251152.45 978.25,-2251152.45 978.25,-2251170.95"/>
<text text-anchor="middle" x="917.75" y="-2251157.45" font-family="Helvetica,sans-Serif" font-size="10.00">include/sqsh.h</text>
</a>
</g>
</g>
<!-- Node1&#45;&gt;Node2 -->
<g id="edge1" class="edge">
<title>Node1&#45;&gt;Node2</title>
<path fill="none" stroke="#63b8ff" d="M1100,-3467582.44C1063.12,-3327296.8 1021.63,-3155561.43 994.75,-3001595.51 936.68,-2668945.16 917.85,-2253350.48 917.75,-2251171.3"/>
<polygon fill="#63b8ff" stroke="#63b8ff" points="1096.5,-3467582.28 1100,-3467592.28 1103.5,-3467582.28 1096.5,-3467582.28"/>
</g>
<!-- Node10 -->
<g id="node10" class="node">
<title>Node10</title>
<g id="a_node10"><a xlink:href="sqsh__directory_8h.html" target="_top" xlink:title=" ">
<polygon fill="white" stroke="#666666" points="1375.75,-3001595.51 1179.75,-3001595.51 1179.75,-3001577.01 1375.75,-3001577.01 1375.75,-3001595.51"/>
<text text-anchor="middle" x="1277.75" y="-3001582.01" font-family="Helvetica,sans-Serif" font-size="10.00">include/sqsh_directory.h</text>
</a>
</g>
</g>
<!-- Node1&#45;&gt;Node10 -->
<g id="edge9" class="edge">
<title>Node1&#45;&gt;Node10</title>
<path fill="none" stroke="#63b8ff" d="M1259.5,-3141322.52C1270.22,-3059243.5 1277.64,-3002396.71 1277.75,-3001595.83"/>
<polygon fill="#63b8ff" stroke="#63b8ff" points="1256,-3141322.33 1259.5,-3141332.33 1263,-3141322.33 1256,-3141322.33"/>
</g>
<!-- Node13 -->
<g id="node13" class="node">
<title>Node13</title>
<g id="a_node13"><a xlink:href="sqsh__file__private_8h.html" target="_top" xlink:title=" ">
<polygon fill="white" stroke="#666666" points="1622,-3001595.51 1403.5,-3001595.51 1403.5,-3001577.01 1622,-3001577.01 1622,-3001595.51"/>
<text text-anchor="middle" x="1512.75" y="-3001582.01" font-family="Helvetica,sans-Serif" font-size="10.00">include/sqsh_file_private.h</text>
</a>
</g>
</g>
<!-- Node1&#45;&gt;Node13 -->
<g id="edge13" class="edge">
<title>Node1&#45;&gt;Node13</title>
<path fill="none" stroke="#63b8ff" d="M1259.5,-3572277.02C1357.74,-3350910.39 1511.86,-3003586.77 1512.75,-3001595.86"/>
<polygon fill="#63b8ff" stroke="#63b8ff" points="1256,-3572276.78 1259.5,-3572286.78 1263,-3572276.78 1256,-3572276.78"/>
</g>
<!-- Node15 -->
<g id="node15" class="node">
<title>Node15</title>
<g id="a_node15"><a xlink:href="sqsh__tree_8h.html" target="_top" xlink:title=" ">
<polygon fill="white" stroke="#666666" points="1162,-3001595.51 1003.5,-3001595.51 1003.5,-3001577.01 1162,-3001577.01 1162,-3001595.51"/>
<text text-anchor="middle" x="1082.75" y="-3001582.01" font-family="Helvetica,sans-Serif" font-size="10.00">include/sqsh_tree.h</text>
</a>
</g>
</g>
<!-- Node1&#45;&gt;Node15 -->
<g id="edge17" class="edge">
<title>Node1&#45;&gt;Node15</title>
<path fill="none" stroke="#63b8ff" d="M1100,-3135026.94C1089.83,-3056355.06 1082.85,-3002382.4 1082.75,-3001595.97"/>
<polygon fill="#63b8ff" stroke="#63b8ff" points="1096.5,-3135026.74 1100,-3135036.74 1103.5,-3135026.74 1096.5,-3135026.74"/>
</g>
<!-- Node3 -->
<g id="node3" class="node">
<title>Node3</title>
<g id="a_node3"><a xlink:href="list__dir_8c.html" target="_top" xlink:title=" ">
<polygon fill="white" stroke="#666666" points="992,-1500746.39 833.5,-1500746.39 833.5,0 992,0 992,-1500746.39"/>
<text text-anchor="middle" x="912.75" y="-1500732.89" font-family="Helvetica,sans-Serif" font-size="10.00">examples/list_dir.c</text>
</a>
</g>
</g>
<!-- Node2&#45;&gt;Node3 -->
<g id="edge2" class="edge">
<title>Node2&#45;&gt;Node3</title>
<path fill="none" stroke="#63b8ff" d="M917.75,-2251141.37C917.74,-2248049.09 916.49,-1874394.55 915.25,-1500746.83"/>
<polygon fill="#63b8ff" stroke="#63b8ff" points="914.25,-2251141.21 917.75,-2251151.21 921.25,-2251141.21 914.25,-2251141.21"/>
</g>
<!-- Node4 -->
<g id="node4" class="node">
<title>Node4</title>
<g id="a_node4"><a xlink:href="list__dir__ll_8c.html" target="_top" xlink:title=" ">
<polygon fill="white" stroke="#666666" points="1191.25,-750382.44 1010.25,-750382.44 1010.25,-750363.94 1191.25,-750363.94 1191.25,-750382.44"/>
<text text-anchor="middle" x="1100.75" y="-750368.94" font-family="Helvetica,sans-Serif" font-size="10.00">examples/list_dir_ll.c</text>
</a>
</g>
</g>
<!-- Node2&#45;&gt;Node4 -->
<g id="edge3" class="edge">
<title>Node2&#45;&gt;Node4</title>
<path fill="none" stroke="#63b8ff" d="M917.75,-2251141.37C918.51,-2244952.6 1100.25,-754479.22 1100.75,-750382.65"/>
<polygon fill="#63b8ff" stroke="#63b8ff" points="914.25,-2251141.21 917.75,-2251151.21 921.25,-2251141.21 914.25,-2251141.21"/>
</g>
<!-- Node5 -->
<g id="node5" class="node">
<title>Node5</title>
<g id="a_node5"><a xlink:href="list__xattrs_8c.html" target="_top" xlink:title=" ">
<polygon fill="white" stroke="#666666" points="1390.25,-750394.42 1209.25,-750394.42 1209.25,-750351.96 1390.25,-750351.96 1390.25,-750394.42"/>
<text text-anchor="middle" x="1299.75" y="-750380.92" font-family="Helvetica,sans-Serif" font-size="10.00">examples/list_xattrs.c</text>
</a>
</g>
</g>
<!-- Node2&#45;&gt;Node5 -->
<g id="edge4" class="edge">
<title>Node2&#45;&gt;Node5</title>
<path fill="none" stroke="#63b8ff" d="M917.71,-2251141.56C907.55,-2246801.35 -824.35,-1505582.26 1164.75,-1500782.39 1173.41,-1500761.48 1192.09,-1500767.29 1200.75,-1500746.39 1449.3,-1500146.44 1300.65,-754897.83 1299.75,-750394.68"/>
<polygon fill="#63b8ff" stroke="#63b8ff" points="914.21,-2251141.18 917.73,-2251151.18 921.21,-2251141.17 914.21,-2251141.18"/>
</g>
<!-- Node6 -->
<g id="node6" class="node">
<title>Node6</title>
<g id="a_node6"><a xlink:href="list__xattrs__ll_8c.html" target="_top" xlink:title=" ">
<polygon fill="white" stroke="#666666" points="203.5,-750386.19 0,-750386.19 0,-750360.19 203.5,-750360.19 203.5,-750386.19"/>
<text text-anchor="middle" x="101.75" y="-750372.69" font-family="Helvetica,sans-Serif" font-size="10.00">examples/list_xattrs_ll.c</text>
</a>
</g>
</g>
<!-- Node2&#45;&gt;Node6 -->
<g id="edge5" class="edge">
<title>Node2&#45;&gt;Node6</title>
<path fill="none" stroke="#63b8ff" d="M917.73,-2251141.38C913.64,-2247882.41 393.37,-1832952.12 212.75,-1500746.39 31.99,-1168285.79 101.31,-752968.67 101.75,-750386.3"/>
<polygon fill="#63b8ff" stroke="#63b8ff" points="914.23,-2251141.1 917.74,-2251151.09 921.23,-2251141.09 914.23,-2251141.1"/>
</g>
<!-- Node7 -->
<g id="node7" class="node">
<title>Node7</title>
<g id="a_node7"><a xlink:href="read__file_8c.html" target="_top" xlink:title=" ">
<polygon fill="white" stroke="#666666" points="387.75,-750382.44 221.75,-750382.44 221.75,-750363.94 387.75,-750363.94 387.75,-750382.44"/>
<text text-anchor="middle" x="304.75" y="-750368.94" font-family="Helvetica,sans-Serif" font-size="10.00">examples/read_file.c</text>
</a>
</g>
</g>
<!-- Node2&#45;&gt;Node7 -->
<g id="edge6" class="edge">
<title>Node2&#45;&gt;Node7</title>
<path fill="none" stroke="#63b8ff" d="M917.73,-2251141.38C914.73,-2247882.41 532.44,-1832952.08 396.75,-1500746.39 260.89,-1168122.93 304.52,-752561.8 304.75,-750382.8"/>
<polygon fill="#63b8ff" stroke="#63b8ff" points="914.23,-2251141.09 917.74,-2251151.09 921.23,-2251141.09 914.23,-2251141.09"/>
</g>
<!-- Node8 -->
<g id="node8" class="node">
<title>Node8</title>
<g id="a_node8"><a xlink:href="read__file__ll_8c.html" target="_top" xlink:title=" ">
<polygon fill="white" stroke="#666666" points="594,-1324658.27 405.5,-1324658.27 405.5,-176088.12 594,-176088.12 594,-1324658.27"/>
<text text-anchor="middle" x="499.75" y="-1324644.77" font-family="Helvetica,sans-Serif" font-size="10.00">examples/read_file_ll.c</text>
</a>
</g>
</g>
<!-- Node2&#45;&gt;Node8 -->
<g id="edge7" class="edge">
<title>Node2&#45;&gt;Node8</title>
<path fill="none" stroke="#63b8ff" d="M917.74,-2251141.38C916,-2247882.41 695.27,-1832952.04 602.75,-1500746.39 586.85,-1443657.19 573.37,-1384124.83 561.96,-1324658.67"/>
<polygon fill="#63b8ff" stroke="#63b8ff" points="914.24,-2251141.09 917.75,-2251151.09 921.24,-2251141.09 914.24,-2251141.09"/>
</g>
<!-- Node9 -->
<g id="node9" class="node">
<title>Node9</title>
<g id="a_node9"><a xlink:href="readme__example_8c.html" target="_top" xlink:title=" ">
<polygon fill="white" stroke="#666666" points="815.5,-1500677.46 612,-1500677.46 612,-68.93 815.5,-68.93 815.5,-1500677.46"/>
<text text-anchor="middle" x="713.75" y="-1500663.96" font-family="Helvetica,sans-Serif" font-size="10.00">examples/readme_example.c</text>
</a>
</g>
</g>
<!-- Node2&#45;&gt;Node9 -->
<g id="edge8" class="edge">
<title>Node2&#45;&gt;Node9</title>
<path fill="none" stroke="#63b8ff" d="M917.75,-2251141.37C917.33,-2248048.83 866.53,-1874348.6 815.74,-1500677.96"/>
<polygon fill="#63b8ff" stroke="#63b8ff" points="914.25,-2251141.21 917.75,-2251151.21 921.25,-2251141.21 914.25,-2251141.21"/>
</g>
<!-- Node10&#45;&gt;Node2 -->
<g id="edge10" class="edge">
<title>Node10&#45;&gt;Node2</title>
<path fill="none" stroke="#63b8ff" d="M1277.74,-3001566.02C1275.65,-2997208.93 919.15,-2254076.92 917.75,-2251171.24"/>
<polygon fill="#63b8ff" stroke="#63b8ff" points="1274.24,-3001565.68 1277.75,-3001575.68 1281.24,-3001565.68 1274.24,-3001565.68"/>
</g>
<!-- Node11 -->
<g id="node11" class="node">
<title>Node11</title>
<g id="a_node11"><a xlink:href="sqsh__directory__private_8h.html" target="_top" xlink:title=" ">
<polygon fill="white" stroke="#666666" points="1486.25,-2251179.95 1305.25,-2251179.95 1305.25,-2251143.45 1486.25,-2251143.45 1486.25,-2251179.95"/>
<text text-anchor="start" x="1313.25" y="-2251166.45" font-family="Helvetica,sans-Serif" font-size="10.00">include/sqsh_directory</text>
<text text-anchor="middle" x="1395.75" y="-2251148.45" font-family="Helvetica,sans-Serif" font-size="10.00">_private.h</text>
</a>
</g>
</g>
<!-- Node10&#45;&gt;Node11 -->
<g id="edge11" class="edge">
<title>Node10&#45;&gt;Node11</title>
<path fill="none" stroke="#63b8ff" d="M1277.75,-3001566.03C1278.44,-2997213.91 1395.09,-2255350.11 1395.75,-2251180.34"/>
<polygon fill="#63b8ff" stroke="#63b8ff" points="1274.25,-3001565.68 1277.75,-3001575.68 1281.25,-3001565.68 1274.25,-3001565.68"/>
</g>
<!-- Node12 -->
<g id="node12" class="node">
<title>Node12</title>
<g id="a_node12"><a xlink:href="sqsh__tree__private_8h.html" target="_top" xlink:title=" ">
<polygon fill="white" stroke="#666666" points="1627,-1500726.53 1408.5,-1500726.53 1408.5,-19.86 1627,-19.86 1627,-1500726.53"/>
<text text-anchor="middle" x="1517.75" y="-1500713.03" font-family="Helvetica,sans-Serif" font-size="10.00">include/sqsh_tree_private.h</text>
</a>
</g>
</g>
<!-- Node11&#45;&gt;Node12 -->
<g id="edge12" class="edge">
<title>Node11&#45;&gt;Node12</title>
<path fill="none" stroke="#63b8ff" d="M1395.75,-2251132.25C1396.06,-2247385.18 1426.41,-1874049.32 1456.75,-1500726.86"/>
<polygon fill="#63b8ff" stroke="#63b8ff" points="1392.25,-2251132 1395.75,-2251142 1399.25,-2251132 1392.25,-2251132"/>
</g>
<!-- Node13&#45;&gt;Node11 -->
<g id="edge15" class="edge">
<title>Node13&#45;&gt;Node11</title>
<path fill="none" stroke="#63b8ff" d="M1506.38,-3001566.15C1504.12,-3001558.44 1501.87,-3001549.39 1500.75,-3001541.01 1157.55,-2998965.61 1394.41,-2255355.87 1395.74,-2251180.35"/>
<polygon fill="#63b8ff" stroke="#63b8ff" points="1503.32,-3001567.09 1509.66,-3001575.58 1510,-3001564.99 1503.32,-3001567.09"/>
</g>
<!-- Node13&#45;&gt;Node12 -->
<g id="edge16" class="edge">
<title>Node13&#45;&gt;Node12</title>
<path fill="none" stroke="#63b8ff" d="M1512.75,-3001566C1512.76,-2996923.64 1514.63,-2153699.93 1516.08,-1500726.92"/>
<polygon fill="#63b8ff" stroke="#63b8ff" points="1509.25,-3001565.65 1512.75,-3001575.65 1516.25,-3001565.65 1509.25,-3001565.65"/>
</g>
<!-- Node14 -->
<g id="node14" class="node">
<title>Node14</title>
<g id="a_node14"><a xlink:href="sqsh__archive__private_8h.html" target="_top" xlink:title=" ">
<polygon fill="white" stroke="#666666" points="1708.75,-3001541.01 1542.75,-3001541.01 1542.75,-1500782.39 1708.75,-1500782.39 1708.75,-3001541.01"/>
<text text-anchor="start" x="1550.75" y="-3001527.51" font-family="Helvetica,sans-Serif" font-size="10.00">include/sqsh_archive</text>
<text text-anchor="middle" x="1625.75" y="-1500787.39" font-family="Helvetica,sans-Serif" font-size="10.00">_private.h</text>
</a>
</g>
</g>
<!-- Node13&#45;&gt;Node14 -->
<g id="edge14" class="edge">
<title>Node13&#45;&gt;Node14</title>
<path fill="none" stroke="#63b8ff" d="M1521.12,-3001566.59C1524.17,-3001558.85 1527.23,-3001549.66 1528.75,-3001541.01 1533.4,-3001514.48 1537.9,-3001168.4 1542.25,-3000515.98"/>
<polygon fill="#63b8ff" stroke="#63b8ff" points="1517.53,-3001565.11 1516.86,-3001575.69 1523.98,-3001567.84 1517.53,-3001565.11"/>
</g>
<!-- Node15&#45;&gt;Node2 -->
<g id="edge18" class="edge">
<title>Node15&#45;&gt;Node2</title>
<path fill="none" stroke="#63b8ff" d="M1082.75,-3001566.02C1081.79,-2997208.93 918.39,-2254076.92 917.75,-2251171.24"/>
<polygon fill="#63b8ff" stroke="#63b8ff" points="1079.25,-3001565.68 1082.75,-3001575.68 1086.25,-3001565.68 1079.25,-3001565.68"/>
</g>
<!-- Node15&#45;&gt;Node12 -->
<g id="edge19" class="edge">
<title>Node15&#45;&gt;Node12</title>
<path fill="none" stroke="#63b8ff" d="M1082.75,-3001565.91C1083.64,-2995365.69 1296.75,-1500782.39 1296.75,-1500782.39 1324.82,-1500742.84 1371.68,-1500785.93 1399.75,-1500746.39 1402.53,-1500742.46 1405.28,-1500697.67 1408,-1500612.62"/>
<polygon fill="#63b8ff" stroke="#63b8ff" points="1079.25,-3001565.77 1082.75,-3001575.77 1086.25,-3001565.77 1079.25,-3001565.77"/>
</g>
</g>
</svg>
        <g id="navigator" transform="translate(0 0)" fill="#404254">
                <rect fill="#f2f5e9" fill-opacity="0.5" stroke="#606060" stroke-width=".5" x="0" y="0" width="60" height="60"/>
                <use id="zoomplus" xlink:href="#zoomPlus" x="17" y="9" onmousedown="handleZoom(evt,'in')"/>
                <use id="zoomminus" xlink:href="#zoomMin" x="42" y="9" onmousedown="handleZoom(evt,'out')"/>
                <use id="reset" xlink:href="#resetDef" x="30" y="36" onmousedown="handleReset()"/>
                <g id="arrowUp" xlink:href="#dirArrow" transform="translate(30 24)" onmousedown="handlePan(0,-1)">
                  <use xlink:href="#rim" fill="#404040">
                        <set attributeName="fill" to="#808080" begin="arrowUp.mouseover" end="arrowUp.mouseout"/>
                  </use>
                  <path fill="none" stroke="white" stroke-width="1.5" d="M0,-3.0v7 M-2.5,-0.5L0,-3.0L2.5,-0.5"/>
                </g>
                <g id="arrowRight" xlink:href="#dirArrow" transform="rotate(90) translate(36 -43)" onmousedown="handlePan(1,0)">
                  <use xlink:href="#rim" fill="#404040">
                        <set attributeName="fill" to="#808080" begin="arrowRight.mouseover" end="arrowRight.mouseout"/>
                  </use>
                  <path fill="none" stroke="white" stroke-width="1.5" d="M0,-3.0v7 M-2.5,-0.5L0,-3.0L2.5,-0.5"/>
                </g>
                <g id="arrowDown" xlink:href="#dirArrow" transform="rotate(180) translate(-30 -48)" onmousedown="handlePan(0,1)">
                  <use xlink:href="#rim" fill="#404040">
                        <set attributeName="fill" to="#808080" begin="arrowDown.mouseover" end="arrowDown.mouseout"/>
                  </use>
                  <path fill="none" stroke="white" stroke-width="1.5" d="M0,-3.0v7 M-2.5,-0.5L0,-3.0L2.5,-0.5"/>
                </g>
                <g id="arrowLeft" xlink:href="#dirArrow" transform="rotate(270) translate(-36 17)" onmousedown="handlePan(-1,0)">
                  <use xlink:href="#rim" fill="#404040">
                        <set attributeName="fill" to="#808080" begin="arrowLeft.mouseover" end="arrowLeft.mouseout"/>
                  </use>
                  <path fill="none" stroke="white" stroke-width="1.5" d="M0,-3.0v7 M-2.5,-0.5L0,-3.0L2.5,-0.5"/>
                </g>
        </g>
        <svg viewBox="0 0 15 15" width="100%" height="30px" preserveAspectRatio="xMaxYMin meet">
         <g id="arrow_out" transform="scale(0.3 0.3)">
          <a xlink:href="sqsh__file_8h__dep__incl_org.svg" target="_base">
           <rect id="button" ry="5" rx="5" y="6" x="6" height="38" width="38"
                fill="#f2f5e9" fill-opacity="0.5" stroke="#606060" stroke-width="1.0"/>
           <path id="arrow"
             d="M 11.500037,31.436501 C 11.940474,20.09759 22.043105,11.32322 32.158766,21.979434 L 37.068811,17.246167 C 37.068811,17.246167 37.088388,32 37.088388,32 L 22.160133,31.978069 C 22.160133,31.978069 26.997745,27.140456 26.997745,27.140456 C 18.528582,18.264221 13.291696,25.230495 11.500037,31.436501 z"
             style="fill:#404040;"/>
          </a>
         </g>
        </svg>
</svg>
