<?xml version="1.0" encoding="UTF-8" standalone="no"?>
<!DOCTYPE svg PUBLIC "-//W3C//DTD SVG 1.1//EN"
 "http://www.w3.org/Graphics/SVG/1.1/DTD/svg11.dtd">
<!-- Generated by graphviz version 9.0.0 (20230911.1827)
 -->
<!-- Title: include/sqsh_archive.h Pages: 1 -->
<svg width="280pt" height="2540474pt"
 viewBox="0.00 0.00 279.75 2540474.03" xmlns="http://www.w3.org/2000/svg" xmlns:xlink="http://www.w3.org/1999/xlink">
<g id="graph0" class="graph" transform="scale(1 1) rotate(0) translate(4 2540470.03)">
<title>include/sqsh_archive.h</title>
<!-- Node1 -->
<g id="Node000001" class="node">
<title>Node1</title>
<g id="a_Node000001"><a xlink:title=" ">
<polygon fill="#999999" stroke="#666666" points="230.25,-2540466.03 49.25,-2540466.03 49.25,-2540447.53 230.25,-2540447.53 230.25,-2540466.03"/>
<text text-anchor="middle" x="139.75" y="-2540452.53" font-family="Helvetica,sans-Serif" font-size="10.00">include/sqsh_archive.h</text>
</a>
</g>
</g>
<!-- Node2 -->
<g id="Node000002" class="node">
<title>Node2</title>
<g id="a_Node000002"><a xlink:href="sqsh__common_8h.html" target="_top" xlink:title=" ">
<polygon fill="white" stroke="#666666" points="196.5,-2540349.53 83,-2540349.53 83,-1270192.62 196.5,-1270192.62 196.5,-2540349.53"/>
<text text-anchor="middle" x="139.75" y="-2540336.03" font-family="Helvetica,sans-Serif" font-size="10.00">sqsh_common.h</text>
</a>
</g>
</g>
<!-- Node1&#45;&gt;Node2 -->
<g id="edge1_Node000001_Node000002" class="edge">
<title>Node1&#45;&gt;Node2</title>
<g id="a_edge1_Node000001_Node000002"><a xlink:title=" ">
<path fill="none" stroke="#63b8ff" d="M134.87,-2540447.31C130.19,-2540438.64 123.44,-2540424.63 120.75,-2540411.53 118.42,-2540400.21 120.75,-2540397.09 120.75,-2540385.53 120.75,-2540377.48 120.75,-2540369.43 120.75,-2540361.38"/>
<polygon fill="#63b8ff" stroke="#63b8ff" points="124.25,-2540361.51 120.75,-2540351.51 117.25,-2540361.51 124.25,-2540361.51"/>
</a>
</g>
</g>
<!-- Node6 -->
<g id="Node000006" class="node">
<title>Node6</title>
<g id="a_Node000006"><a xlink:href="sqsh__data_8h.html" target="_top" xlink:title=" ">
<polygon fill="white" stroke="#666666" points="228,-2540411.53 129.5,-2540411.53 129.5,-2540385.53 228,-2540385.53 228,-2540411.53"/>
<text text-anchor="middle" x="178.75" y="-2540398.03" font-family="Helvetica,sans-Serif" font-size="10.00">sqsh_data.h</text>
</a>
</g>
</g>
<!-- Node1&#45;&gt;Node6 -->
<g id="edge5_Node000001_Node000006" class="edge">
<title>Node1&#45;&gt;Node6</title>
<g id="a_edge5_Node000001_Node000006"><a xlink:title=" ">
<path fill="none" stroke="#63b8ff" d="M145.5,-2540447.48C150.3,-2540440.57 157.34,-2540430.41 163.72,-2540421.21"/>
<polygon fill="#63b8ff" stroke="#63b8ff" points="166.55,-2540423.28 169.37,-2540413.06 160.79,-2540419.29 166.55,-2540423.28"/>
</a>
</g>
</g>
<!-- Node3 -->
<g id="Node000003" class="node">
<title>Node3</title>
<g id="a_Node000003"><a xlink:title=" ">
<polygon fill="#e0e0e0" stroke="#999999" points="83.5,-1270064.69 0,-1270064.69 0,-91.93 83.5,-91.93 83.5,-1270064.69"/>
<text text-anchor="middle" x="41.75" y="-1270051.19" font-family="Helvetica,sans-Serif" font-size="10.00">stdbool.h</text>
</a>
</g>
</g>
<!-- Node2&#45;&gt;Node3 -->
<g id="edge2_Node000002_Node000003" class="edge">
<title>Node2&#45;&gt;Node3</title>
<g id="a_edge2_Node000002_Node000003"><a xlink:title=" ">
<path fill="none" stroke="#63b8ff" d="M90.75,-1270192.41C88.49,-1240944.93 86.24,-1211697.4 84,-1182697.93"/>
<polygon fill="#63b8ff" stroke="#63b8ff" points="87.5,-1182698.16 84,-1182688.16 80.5,-1182698.16 87.5,-1182698.16"/>
</a>
</g>
</g>
<!-- Node4 -->
<g id="Node000004" class="node">
<title>Node4</title>
<g id="a_Node000004"><a xlink:title=" ">
<polygon fill="#e0e0e0" stroke="#999999" points="177.75,-635087.56 101.75,-635087.56 101.75,-635069.06 177.75,-635069.06 177.75,-635087.56"/>
<text text-anchor="middle" x="139.75" y="-635074.06" font-family="Helvetica,sans-Serif" font-size="10.00">stddef.h</text>
</a>
</g>
</g>
<!-- Node2&#45;&gt;Node4 -->
<g id="edge3_Node000002_Node000004" class="edge">
<title>Node2&#45;&gt;Node4</title>
<g id="a_edge3_Node000002_Node000004"><a xlink:title=" ">
<path fill="none" stroke="#63b8ff" d="M139.75,-1270192.41C139.75,-954090.95 139.75,-637983.64 139.75,-635099.2"/>
<polygon fill="#63b8ff" stroke="#63b8ff" points="143.25,-635099.34 139.75,-635089.34 136.25,-635099.34 143.25,-635099.34"/>
</a>
</g>
</g>
<!-- Node5 -->
<g id="Node000005" class="node">
<title>Node5</title>
<g id="a_Node000005"><a xlink:title=" ">
<polygon fill="#e0e0e0" stroke="#999999" points="271.75,-1270156.62 195.75,-1270156.62 195.75,0 271.75,0 271.75,-1270156.62"/>
<text text-anchor="middle" x="233.75" y="-1270143.12" font-family="Helvetica,sans-Serif" font-size="10.00">stdint.h</text>
</a>
</g>
</g>
<!-- Node2&#45;&gt;Node5 -->
<g id="edge4_Node000002_Node000005" class="edge">
<title>Node2&#45;&gt;Node5</title>
<g id="a_edge4_Node000002_Node000005"><a xlink:title=" ">
<path fill="none" stroke="#63b8ff" d="M186.75,-1270192.41C189.6,-1231716.12 192.44,-1193239.75 195.25,-1155328.18"/>
<polygon fill="#63b8ff" stroke="#63b8ff" points="198.75,-1155328.41 195.25,-1155318.41 191.75,-1155328.41 198.75,-1155328.41"/>
</a>
</g>
</g>
<!-- Node6&#45;&gt;Node2 -->
<g id="edge6_Node000006_Node000002" class="edge">
<title>Node6&#45;&gt;Node2</title>
<g id="a_edge6_Node000006_Node000002"><a xlink:title=" ">
<path fill="none" stroke="#63b8ff" d="M178.75,-2540385.03C178.75,-2540379.12 178.75,-2540371.13 178.75,-2540361.05"/>
<polygon fill="#63b8ff" stroke="#63b8ff" points="182.25,-2540361.31 178.75,-2540351.31 175.25,-2540361.31 182.25,-2540361.31"/>
</a>
</g>
</g>
</g>
</svg>
