<?xml version="1.0" encoding="UTF-8" standalone="no"?>
<!DOCTYPE svg PUBLIC "-//W3C//DTD SVG 1.1//EN"
 "http://www.w3.org/Graphics/SVG/1.1/DTD/svg11.dtd">
<!-- Generated by graphviz version 8.0.5 (20230430.1635)
 -->
<!-- Title: include/sqsh_tree.h Pages: 1 -->
<!--zoomable 1148722 -->
<svg id="main" version="1.1" xmlns="http://www.w3.org/2000/svg" xmlns:xlink="http://www.w3.org/1999/xlink" xml:space="preserve" onload="init(evt)">
<style type="text/css"><![CDATA[
.edge:hover path { stroke: red; }
.edge:hover polygon { stroke: red; fill: red; }
]]></style>
<script type="text/javascript"><![CDATA[
var edges = document.getElementsByTagName('g');
if (edges && edges.length) {
  for (var i=0;i<edges.length;i++) {
    if (edges[i].id.substr(0,4)=='edge') {
      edges[i].setAttribute('class','edge');
    }
  }
}
]]></script>
        <defs>
                <circle id="rim" cx="0" cy="0" r="7"/>
                <circle id="rim2" cx="0" cy="0" r="3.5"/>
                <g id="zoomPlus">
                        <use xlink:href="#rim" fill="#404040">
                                <set attributeName="fill" to="#808080" begin="zoomplus.mouseover" end="zoomplus.mouseout"/>
                        </use>
                        <path d="M-4,0h8M0,-4v8" fill="none" stroke="white" stroke-width="1.5" pointer-events="none"/>
                </g>
                <g id="zoomMin">
                        <use xlink:href="#rim" fill="#404040">
                                <set attributeName="fill" to="#808080" begin="zoomminus.mouseover" end="zoomminus.mouseout"/>
                        </use>
                        <path d="M-4,0h8" fill="none" stroke="white" stroke-width="1.5" pointer-events="none"/>
                </g>
                <g id="dirArrow">
                        <path fill="none" stroke="white" stroke-width="1.5" d="M0,-3.0v7 M-2.5,-0.5L0,-3.0L2.5,-0.5"/>
                </g>
               <g id="resetDef">
                       <use xlink:href="#rim2" fill="#404040">
                               <set attributeName="fill" to="#808080" begin="reset.mouseover" end="reset.mouseout"/>
                       </use>
               </g>
        </defs>

<script type="text/javascript">
var viewWidth = 1405;
var viewHeight = 1148722;
var sectionId = 'dynsection-1';
</script>
<script xlink:href="svgpan.js"/>
<svg id="graph" class="graph">
<g id="viewport">
<title>include/sqsh_tree.h</title>
<!-- Node1 -->
<g id="node1" class="node">
<title>Node1</title>
<g id="a_node1"><a xlink:title=" ">
<polygon fill="#999999" stroke="#666666" points="843.42,-1148713.64 684.92,-1148713.64 684.92,-1148695.07 843.42,-1148695.07 843.42,-1148713.64"/>
<text text-anchor="middle" x="764.17" y="-1148700.14" font-family="Helvetica,sans-Serif" font-size="10.00">include/sqsh_tree.h</text>
</a>
</g>
</g>
<!-- Node2 -->
<g id="node2" class="node">
<title>Node2</title>
<g id="a_node2"><a xlink:href="sqsh_8h.html" target="_top" xlink:title=" ">
<polygon fill="white" stroke="#666666" points="743.67,-1148641.86 622.67,-1148641.86 622.67,-1148623.36 743.67,-1148623.36 743.67,-1148641.86"/>
<text text-anchor="middle" x="683.17" y="-1148628.36" font-family="Helvetica,sans-Serif" font-size="10.00">include/sqsh.h</text>
</a>
</g>
</g>
<!-- Node1&#45;&gt;Node2 -->
<g id="edge1" class="edge">
<title>Node1&#45;&gt;Node2</title>
<path fill="none" stroke="#63b8ff" d="M746.01,-1148687.71C729.69,-1148673.67 706.34,-1148653.56 693.18,-1148642.23"/>
<polygon fill="#63b8ff" stroke="#63b8ff" points="743.38,-1148690.93 753.24,-1148694.8 747.94,-1148685.62 743.38,-1148690.93"/>
</g>
<!-- Node10 -->
<g id="node10" class="node">
<title>Node10</title>
<g id="a_node10"><a xlink:href="sqsh__tree__private_8h.html" target="_top" xlink:title=" ">
<polygon fill="white" stroke="#666666" points="928.17,-1148659.07 762.17,-1148659.07 762.17,-1148606.15 928.17,-1148606.15 928.17,-1148659.07"/>
<text text-anchor="start" x="770.17" y="-1148645.57" font-family="Helvetica,sans-Serif" font-size="10.00">libsqsh/include/sqsh</text>
<text text-anchor="middle" x="845.17" y="-1148611.15" font-family="Helvetica,sans-Serif" font-size="10.00">_tree_private.h</text>
</a>
</g>
</g>
<!-- Node1&#45;&gt;Node10 -->
<g id="edge9" class="edge">
<title>Node1&#45;&gt;Node10</title>
<path fill="none" stroke="#63b8ff" d="M782.21,-1148687.82C791.92,-1148679.46 804.16,-1148668.92 815.25,-1148659.37"/>
<polygon fill="#63b8ff" stroke="#63b8ff" points="780.4,-1148685.62 775.1,-1148694.8 784.96,-1148690.93 780.4,-1148685.62"/>
</g>
<!-- Node3 -->
<g id="node3" class="node">
<title>Node3</title>
<g id="a_node3"><a xlink:href="list__dir_8c.html" target="_top" xlink:title=" ">
<polygon fill="white" stroke="#666666" points="165.42,-1148570.15 6.92,-1148570.15 6.92,0 165.42,0 165.42,-1148570.15"/>
<text text-anchor="middle" x="86.17" y="-1148556.65" font-family="Helvetica,sans-Serif" font-size="10.00">examples/list_dir.c</text>
</a>
</g>
</g>
<!-- Node2&#45;&gt;Node3 -->
<g id="edge2" class="edge">
<title>Node2&#45;&gt;Node3</title>
<path fill="none" stroke="#63b8ff" d="M611.69,-1148628.15C478.4,-1148620.96 202.71,-1148602.34 174.17,-1148570.15 8.04,-1148382.78 -13.4,-1003472.09 6.42,-859282.76"/>
<polygon fill="#63b8ff" stroke="#63b8ff" points="611.42,-1148631.69 621.59,-1148628.73 611.79,-1148624.7 611.42,-1148631.69"/>
</g>
<!-- Node4 -->
<g id="node4" class="node">
<title>Node4</title>
<g id="a_node4"><a xlink:href="list__dir__ll_8c.html" target="_top" xlink:title=" ">
<polygon fill="white" stroke="#666666" points="364.67,-574294.33 183.67,-574294.33 183.67,-574275.83 364.67,-574275.83 364.67,-574294.33"/>
<text text-anchor="middle" x="274.17" y="-574280.83" font-family="Helvetica,sans-Serif" font-size="10.00">examples/list_dir_ll.c</text>
</a>
</g>
</g>
<!-- Node2&#45;&gt;Node4 -->
<g id="edge3" class="edge">
<title>Node2&#45;&gt;Node4</title>
<path fill="none" stroke="#63b8ff" d="M611.56,-1148627.65C529.57,-1148621.45 402.75,-1148606.17 373.17,-1148570.15 57.46,-1148185.78 273.22,-576805.32 274.17,-574294.38"/>
<polygon fill="#63b8ff" stroke="#63b8ff" points="611.09,-1148631.2 621.32,-1148628.43 611.6,-1148624.22 611.09,-1148631.2"/>
</g>
<!-- Node5 -->
<g id="node5" class="node">
<title>Node5</title>
<g id="a_node5"><a xlink:href="list__xattrs_8c.html" target="_top" xlink:title=" ">
<polygon fill="white" stroke="#666666" points="563.67,-574306.28 382.67,-574306.28 382.67,-574263.87 563.67,-574263.87 563.67,-574306.28"/>
<text text-anchor="middle" x="473.17" y="-574292.78" font-family="Helvetica,sans-Serif" font-size="10.00">examples/list_xattrs.c</text>
</a>
</g>
</g>
<!-- Node2&#45;&gt;Node5 -->
<g id="edge4" class="edge">
<title>Node2&#45;&gt;Node5</title>
<path fill="none" stroke="#63b8ff" d="M639.01,-1148619.33C614.7,-1148610.06 586.61,-1148594.64 572.17,-1148570.15 319.89,-1148142.19 472.11,-578237.12 473.17,-574306.5"/>
<polygon fill="#63b8ff" stroke="#63b8ff" points="637.55,-1148622.88 648.15,-1148622.93 639.9,-1148616.28 637.55,-1148622.88"/>
</g>
<!-- Node6 -->
<g id="node6" class="node">
<title>Node6</title>
<g id="a_node6"><a xlink:href="list__xattrs__ll_8c.html" target="_top" xlink:title=" ">
<polygon fill="white" stroke="#666666" points="784.92,-574298.08 581.42,-574298.08 581.42,-574272.08 784.92,-574272.08 784.92,-574298.08"/>
<text text-anchor="middle" x="683.17" y="-574284.58" font-family="Helvetica,sans-Serif" font-size="10.00">examples/list_xattrs_ll.c</text>
</a>
</g>
</g>
<!-- Node2&#45;&gt;Node6 -->
<g id="edge5" class="edge">
<title>Node2&#45;&gt;Node6</title>
<path fill="none" stroke="#63b8ff" d="M683.17,-1148612.65C683.17,-1144833.43 683.17,-577349.84 683.17,-574298.43"/>
<polygon fill="#63b8ff" stroke="#63b8ff" points="679.67,-1148612.3 683.17,-1148622.3 686.67,-1148612.3 679.67,-1148612.3"/>
</g>
<!-- Node7 -->
<g id="node7" class="node">
<title>Node7</title>
<g id="a_node7"><a xlink:href="read__file_8c.html" target="_top" xlink:title=" ">
<polygon fill="white" stroke="#666666" points="969.17,-574294.33 803.17,-574294.33 803.17,-574275.83 969.17,-574275.83 969.17,-574294.33"/>
<text text-anchor="middle" x="886.17" y="-574280.83" font-family="Helvetica,sans-Serif" font-size="10.00">examples/read_file.c</text>
</a>
</g>
</g>
<!-- Node2&#45;&gt;Node7 -->
<g id="edge6" class="edge">
<title>Node2&#45;&gt;Node7</title>
<path fill="none" stroke="#63b8ff" d="M714.45,-1148618.6C744.04,-1148605.58 785.22,-1148585.35 794.17,-1148570.15 1046.77,-1148141.65 886.88,-576805.13 886.17,-574294.38"/>
<polygon fill="#63b8ff" stroke="#63b8ff" points="713.33,-1148615.7 705.54,-1148622.88 716.11,-1148622.13 713.33,-1148615.7"/>
</g>
<!-- Node8 -->
<g id="node8" class="node">
<title>Node8</title>
<g id="a_node8"><a xlink:href="read__file__ll_8c.html" target="_top" xlink:title=" ">
<polygon fill="white" stroke="#666666" points="1175.42,-574294.33 986.92,-574294.33 986.92,-574275.83 1175.42,-574275.83 1175.42,-574294.33"/>
<text text-anchor="middle" x="1081.17" y="-574280.83" font-family="Helvetica,sans-Serif" font-size="10.00">examples/read_file_ll.c</text>
</a>
</g>
</g>
<!-- Node2&#45;&gt;Node8 -->
<g id="edge7" class="edge">
<title>Node2&#45;&gt;Node8</title>
<path fill="none" stroke="#63b8ff" d="M713.99,-1148618.97C726.05,-1148614.4 740.1,-1148609.54 753.17,-1148606.15 802.19,-1148593.44 945.31,-1148608.68 978.17,-1148570.15 1300.95,-1148191.69 1082.14,-576805.35 1081.17,-574294.38"/>
<polygon fill="#63b8ff" stroke="#63b8ff" points="713.03,-1148615.98 704.98,-1148622.86 715.57,-1148622.5 713.03,-1148615.98"/>
</g>
<!-- Node9 -->
<g id="node9" class="node">
<title>Node9</title>
<g id="a_node9"><a xlink:href="readme__example_8c.html" target="_top" xlink:title=" ">
<polygon fill="white" stroke="#666666" points="1396.92,-574294.33 1193.42,-574294.33 1193.42,-574275.83 1396.92,-574275.83 1396.92,-574294.33"/>
<text text-anchor="middle" x="1295.17" y="-574280.83" font-family="Helvetica,sans-Serif" font-size="10.00">examples/readme_example.c</text>
</a>
</g>
</g>
<!-- Node2&#45;&gt;Node9 -->
<g id="edge8" class="edge">
<title>Node2&#45;&gt;Node9</title>
<path fill="none" stroke="#63b8ff" d="M712.8,-1148618.86C725.07,-1148614.1 739.59,-1148609.13 753.17,-1148606.15 800.11,-1148595.85 1151.63,-1148605.52 1184.17,-1148570.15 1520.98,-1148204.12 1296.16,-576805.41 1295.17,-574294.38"/>
<polygon fill="#63b8ff" stroke="#63b8ff" points="711.64,-1148615.95 703.67,-1148622.93 714.25,-1148622.45 711.64,-1148615.95"/>
</g>
</g>
</svg>
        <g id="navigator" transform="translate(0 0)" fill="#404254">
                <rect fill="#f2f5e9" fill-opacity="0.5" stroke="#606060" stroke-width=".5" x="0" y="0" width="60" height="60"/>
                <use id="zoomplus" xlink:href="#zoomPlus" x="17" y="9" onmousedown="handleZoom(evt,'in')"/>
                <use id="zoomminus" xlink:href="#zoomMin" x="42" y="9" onmousedown="handleZoom(evt,'out')"/>
                <use id="reset" xlink:href="#resetDef" x="30" y="36" onmousedown="handleReset()"/>
                <g id="arrowUp" xlink:href="#dirArrow" transform="translate(30 24)" onmousedown="handlePan(0,-1)">
                  <use xlink:href="#rim" fill="#404040">
                        <set attributeName="fill" to="#808080" begin="arrowUp.mouseover" end="arrowUp.mouseout"/>
                  </use>
                  <path fill="none" stroke="white" stroke-width="1.5" d="M0,-3.0v7 M-2.5,-0.5L0,-3.0L2.5,-0.5"/>
                </g>
                <g id="arrowRight" xlink:href="#dirArrow" transform="rotate(90) translate(36 -43)" onmousedown="handlePan(1,0)">
                  <use xlink:href="#rim" fill="#404040">
                        <set attributeName="fill" to="#808080" begin="arrowRight.mouseover" end="arrowRight.mouseout"/>
                  </use>
                  <path fill="none" stroke="white" stroke-width="1.5" d="M0,-3.0v7 M-2.5,-0.5L0,-3.0L2.5,-0.5"/>
                </g>
                <g id="arrowDown" xlink:href="#dirArrow" transform="rotate(180) translate(-30 -48)" onmousedown="handlePan(0,1)">
                  <use xlink:href="#rim" fill="#404040">
                        <set attributeName="fill" to="#808080" begin="arrowDown.mouseover" end="arrowDown.mouseout"/>
                  </use>
                  <path fill="none" stroke="white" stroke-width="1.5" d="M0,-3.0v7 M-2.5,-0.5L0,-3.0L2.5,-0.5"/>
                </g>
                <g id="arrowLeft" xlink:href="#dirArrow" transform="rotate(270) translate(-36 17)" onmousedown="handlePan(-1,0)">
                  <use xlink:href="#rim" fill="#404040">
                        <set attributeName="fill" to="#808080" begin="arrowLeft.mouseover" end="arrowLeft.mouseout"/>
                  </use>
                  <path fill="none" stroke="white" stroke-width="1.5" d="M0,-3.0v7 M-2.5,-0.5L0,-3.0L2.5,-0.5"/>
                </g>
        </g>
        <svg viewBox="0 0 15 15" width="100%" height="30px" preserveAspectRatio="xMaxYMin meet">
         <g id="arrow_out" transform="scale(0.3 0.3)">
          <a xlink:href="sqsh__tree_8h__dep__incl_org.svg" target="_base">
           <rect id="button" ry="5" rx="5" y="6" x="6" height="38" width="38"
                fill="#f2f5e9" fill-opacity="0.5" stroke="#606060" stroke-width="1.0"/>
           <path id="arrow"
             d="M 11.500037,31.436501 C 11.940474,20.09759 22.043105,11.32322 32.158766,21.979434 L 37.068811,17.246167 C 37.068811,17.246167 37.088388,32 37.088388,32 L 22.160133,31.978069 C 22.160133,31.978069 26.997745,27.140456 26.997745,27.140456 C 18.528582,18.264221 13.291696,25.230495 11.500037,31.436501 z"
             style="fill:#404040;"/>
          </a>
         </g>
        </svg>
</svg>
