<?xml version="1.0" encoding="UTF-8" standalone="no"?>
<!DOCTYPE svg PUBLIC "-//W3C//DTD SVG 1.1//EN"
 "http://www.w3.org/Graphics/SVG/1.1/DTD/svg11.dtd">
<!-- Generated by graphviz version 9.0.0 (20230911.1827)
 -->
<!-- Title: libsqsh/include/sqsh_directory_private.h Pages: 1 -->
<!--zoomable 3238437 -->

<svg id="main" version="1.1" xmlns="http://www.w3.org/2000/svg" xmlns:xlink="http://www.w3.org/1999/xlink" xml:space="preserve" onload="init(evt)">
<style type="text/css"><![CDATA[
.node, .edge {opacity: 0.7;}
.node.selected, .edge.selected {opacity: 1;}
.edge:hover path { stroke: red; }
.edge:hover polygon { stroke: red; fill: red; }
]]></style>

<defs>
  <circle id="rim" cx="0" cy="0" r="7"/>
  <circle id="rim2" cx="0" cy="0" r="3.5"/>
  <g id="zoomPlus">
    <use xlink:href="#rim" fill="#404040"><set attributeName="fill" to="#808080" begin="zoomplus.mouseover" end="zoomplus.mouseout"/></use>
    <path d="M-4,0h8M0,-4v8" fill="none" stroke="white" stroke-width="1.5" pointer-events="none"/>
  </g>
  <g id="zoomMin">
    <use xlink:href="#rim" fill="#404040"><set attributeName="fill" to="#808080" begin="zoomminus.mouseover" end="zoomminus.mouseout"/></use>
    <path d="M-4,0h8" fill="none" stroke="white" stroke-width="1.5" pointer-events="none"/>
  </g>
  <g id="arrowUp" transform="translate(30 24)">
    <use xlink:href="#rim"/>
    <path pointer-events="none" fill="none" stroke="white" stroke-width="1.5" d="M0,-3.0v7 M-2.5,-0.5L0,-3.0L2.5,-0.5"/>
  </g>
  <g id="arrowRight" transform="rotate(90) translate(36 -43)">
    <use xlink:href="#rim"/>
    <path pointer-events="none" fill="none" stroke="white" stroke-width="1.5" d="M0,-3.0v7 M-2.5,-0.5L0,-3.0L2.5,-0.5"/>
  </g>
  <g id="arrowDown" transform="rotate(180) translate(-30 -48)">
    <use xlink:href="#rim"/>
    <path pointer-events="none" fill="none" stroke="white" stroke-width="1.5" d="M0,-3.0v7 M-2.5,-0.5L0,-3.0L2.5,-0.5"/>
  </g>
  <g id="arrowLeft" transform="rotate(270) translate(-36 17)">
    <use xlink:href="#rim"/>
    <path pointer-events="none" fill="none" stroke="white" stroke-width="1.5" d="M0,-3.0v7 M-2.5,-0.5L0,-3.0L2.5,-0.5"/>
  </g>
  <g id="resetDef">
    <use xlink:href="#rim2" fill="#404040"><set attributeName="fill" to="#808080" begin="reset.mouseover" end="reset.mouseout"/></use>
  </g>
</defs>
<script type="application/ecmascript">
var viewWidth = 924;
var viewHeight = 3238437;
var sectionId = 'dynsection-0';
</script>
<script type="application/ecmascript" xlink:href="svg.min.js"/>
<svg id="graph" class="graph">
<g id="viewport">
<title>libsqsh/include/sqsh_directory_private.h</title>
<!-- Node1 -->
<g id="Node000001" class="node">
<title>Node1</title>
<g id="a_Node000001"><a xlink:title=" ">
<polygon fill="#999999" stroke="#666666" points="723.1,-3238428.86 557.1,-3238428.86 557.1,-2716175.05 723.1,-2716175.05 723.1,-3238428.86"/>
<text text-anchor="start" x="565.1" y="-3238415.36" font-family="Helvetica,sans-Serif" font-size="10.00">libsqsh/include/sqsh</text>
<text text-anchor="middle" x="640.1" y="-2716180.14" font-family="Helvetica,sans-Serif" font-size="10.00">_directory_private.h</text>
</a>
</g>
</g>
<!-- Node2 -->
<g id="Node000002" class="node">
<title>Node2</title>
<g id="a_Node000002"><a xlink:href="sqsh__directory_8h.html" target="_top" xlink:title=" ">
<polygon fill="white" stroke="#666666" points="905.1,-2716139.05 769.1,-2716139.05 769.1,-2193719.32 905.1,-2193719.32 905.1,-2716139.05"/>
<text text-anchor="middle" x="837.1" y="-2716125.55" font-family="Helvetica,sans-Serif" font-size="10.00">sqsh_directory.h</text>
</a>
</g>
</g>
<!-- Node1&#45;&gt;Node2 -->
<g id="edge1_Node000001_Node000002" class="edge">
<title>Node1&#45;&gt;Node2</title>
<g id="a_edge1_Node000001_Node000002"><a xlink:title=" ">
<path fill="none" stroke="#63b8ff" d="M723.6,-2755890C738.61,-2716110.39 754.08,-2675070.31 768.6,-2636578.1"/>
<polygon fill="#63b8ff" stroke="#63b8ff" points="772.1,-2636578.16 768.6,-2636568.16 765.1,-2636578.16 772.1,-2636578.16"/>
</a>
</g>
</g>
<!-- Node8 -->
<g id="Node000008" class="node">
<title>Node8</title>
<g id="a_Node000008"><a xlink:href="sqsh__file__private_8h.html" target="_top" xlink:title=" ">
<polygon fill="white" stroke="#666666" points="719.35,-2454938.43 560.85,-2454938.43 560.85,-2454919.93 719.35,-2454919.93 719.35,-2454938.43"/>
<text text-anchor="middle" x="640.1" y="-2454924.93" font-family="Helvetica,sans-Serif" font-size="10.00">sqsh_file_private.h</text>
</a>
</g>
</g>
<!-- Node1&#45;&gt;Node8 -->
<g id="edge7_Node000001_Node000008" class="edge">
<title>Node1&#45;&gt;Node8</title>
<g id="a_edge7_Node000001_Node000008"><a xlink:title=" ">
<path fill="none" stroke="#63b8ff" d="M640.1,-2716174.6C640.1,-2586493.44 640.1,-2456792.87 640.1,-2454950.06"/>
<polygon fill="#63b8ff" stroke="#63b8ff" points="643.6,-2454950.12 640.1,-2454940.12 636.6,-2454950.12 643.6,-2454950.12"/>
</a>
</g>
</g>
<!-- Node16 -->
<g id="Node000016" class="node">
<title>Node16</title>
<g id="a_Node000016"><a xlink:href="sqsh__metablock__private_8h.html" target="_top" xlink:title=" ">
<polygon fill="white" stroke="#666666" points="596.1,-1932475.68 400.1,-1932475.68 400.1,-1932457.18 596.1,-1932457.18 596.1,-1932475.68"/>
<text text-anchor="middle" x="498.1" y="-1932462.18" font-family="Helvetica,sans-Serif" font-size="10.00">sqsh_metablock_private.h</text>
</a>
</g>
</g>
<!-- Node1&#45;&gt;Node16 -->
<g id="edge25_Node000001_Node000016" class="edge">
<title>Node1&#45;&gt;Node16</title>
<g id="a_edge25_Node000001_Node000016"><a xlink:title=" ">
<path fill="none" stroke="#63b8ff" d="M556.6,-2736634.44C554.98,-2729727.43 553.47,-2722884.24 552.1,-2716139.05 481.7,-2369199.9 497.97,-1935864.46 498.1,-1932487.29"/>
<polygon fill="#63b8ff" stroke="#63b8ff" points="501.6,-1932487.51 498.1,-1932477.51 494.6,-1932487.51 501.6,-1932487.51"/>
</a>
</g>
</g>
<!-- Node3 -->
<g id="Node000003" class="node">
<title>Node3</title>
<g id="a_Node000003"><a xlink:href="sqsh__file_8h.html" target="_top" xlink:title=" ">
<polygon fill="white" stroke="#666666" points="895.35,-2193683.32 796.85,-2193683.32 796.85,-1671249.54 895.35,-1671249.54 895.35,-2193683.32"/>
<text text-anchor="middle" x="846.1" y="-2193669.82" font-family="Helvetica,sans-Serif" font-size="10.00">sqsh_file.h</text>
</a>
</g>
</g>
<!-- Node2&#45;&gt;Node3 -->
<g id="edge2_Node000002_Node000003" class="edge">
<title>Node2&#45;&gt;Node3</title>
<g id="a_edge2_Node000002_Node000003"><a xlink:title=" ">
<path fill="none" stroke="#63b8ff" d="M841.6,-2193719.11C841.6,-2193711.06 841.6,-2193703.02 841.6,-2193694.98"/>
<polygon fill="#63b8ff" stroke="#63b8ff" points="845.1,-2193695.12 841.6,-2193685.12 838.1,-2193695.12 845.1,-2193695.12"/>
</a>
</g>
</g>
<!-- Node4 -->
<g id="Node000004" class="node">
<title>Node4</title>
<g id="a_Node000004"><a xlink:href="sqsh__common_8h.html" target="_top" xlink:title=" ">
<polygon fill="white" stroke="#666666" points="618.85,-80.5 505.35,-80.5 505.35,-62 618.85,-62 618.85,-80.5"/>
<text text-anchor="middle" x="562.1" y="-67" font-family="Helvetica,sans-Serif" font-size="10.00">sqsh_common.h</text>
</a>
</g>
</g>
<!-- Node3&#45;&gt;Node4 -->
<g id="edge3_Node000003_Node000004" class="edge">
<title>Node3&#45;&gt;Node4</title>
<g id="a_edge3_Node000003_Node000004"><a xlink:title=" ">
<path fill="none" stroke="#63b8ff" d="M861.99,-1671249.05C878.34,-1388233.4 902.72,-923379.02 912.1,-522607.38 912.1,-522607.38 912.1,-116.5 912.1,-116.5 893.81,-95.75 727.04,-82.25 630.46,-76.1"/>
<polygon fill="#63b8ff" stroke="#63b8ff" points="630.75,-72.61 620.55,-75.48 630.31,-79.6 630.75,-72.61"/>
</a>
</g>
</g>
<!-- Node5 -->
<g id="Node000005" class="node">
<title>Node5</title>
<g id="a_Node000005"><a xlink:title=" ">
<polygon fill="#e0e0e0" stroke="#999999" points="597.85,-22.25 514.35,-22.25 514.35,-3.75 597.85,-3.75 597.85,-22.25"/>
<text text-anchor="middle" x="556.1" y="-8.75" font-family="Helvetica,sans-Serif" font-size="10.00">stdbool.h</text>
</a>
</g>
</g>
<!-- Node4&#45;&gt;Node5 -->
<g id="edge4_Node000004_Node000005" class="edge">
<title>Node4&#45;&gt;Node5</title>
<g id="a_edge4_Node000004_Node000005"><a xlink:title=" ">
<path fill="none" stroke="#63b8ff" d="M561.22,-61.95C560.44,-54.64 559.27,-43.7 558.25,-34.11"/>
<polygon fill="#63b8ff" stroke="#63b8ff" points="561.73,-33.78 557.19,-24.21 554.77,-34.52 561.73,-33.78"/>
</a>
</g>
</g>
<!-- Node6 -->
<g id="Node000006" class="node">
<title>Node6</title>
<g id="a_Node000006"><a xlink:title=" ">
<polygon fill="#e0e0e0" stroke="#999999" points="692.1,-22.25 616.1,-22.25 616.1,-3.75 692.1,-3.75 692.1,-22.25"/>
<text text-anchor="middle" x="654.1" y="-8.75" font-family="Helvetica,sans-Serif" font-size="10.00">stddef.h</text>
</a>
</g>
</g>
<!-- Node4&#45;&gt;Node6 -->
<g id="edge5_Node000004_Node000006" class="edge">
<title>Node4&#45;&gt;Node6</title>
<g id="a_edge5_Node000004_Node000006"><a xlink:title=" ">
<path fill="none" stroke="#63b8ff" d="M576.08,-61.71C590.53,-52.87 613.36,-38.91 630.6,-28.37"/>
<polygon fill="#63b8ff" stroke="#63b8ff" points="632,-31.62 638.71,-23.41 628.35,-25.64 632,-31.62"/>
</a>
</g>
</g>
<!-- Node7 -->
<g id="Node000007" class="node">
<title>Node7</title>
<g id="a_Node000007"><a xlink:title=" ">
<polygon fill="#e0e0e0" stroke="#999999" points="310.1,-26 234.1,-26 234.1,0 310.1,0 310.1,-26"/>
<text text-anchor="middle" x="272.1" y="-12.5" font-family="Helvetica,sans-Serif" font-size="10.00">stdint.h</text>
</a>
</g>
</g>
<!-- Node4&#45;&gt;Node7 -->
<g id="edge6_Node000004_Node000007" class="edge">
<title>Node4&#45;&gt;Node7</title>
<g id="a_edge6_Node000004_Node000007"><a xlink:title=" ">
<path fill="none" stroke="#63b8ff" d="M517.11,-61.52C464.08,-51.24 376.27,-34.21 321.43,-23.57"/>
<polygon fill="#63b8ff" stroke="#63b8ff" points="322.22,-20.16 311.74,-21.69 320.89,-27.03 322.22,-20.16"/>
</a>
</g>
</g>
<!-- Node8&#45;&gt;Node3 -->
<g id="edge8_Node000008_Node000003" class="edge">
<title>Node8&#45;&gt;Node3</title>
<g id="a_edge8_Node000008_Node000003"><a xlink:title=" ">
<path fill="none" stroke="#63b8ff" d="M640.1,-2454919.72C639.22,-2453214.91 506.38,-2194586.97 760.1,-2193719.32 765.43,-2193701.09 777.78,-2193701.54 783.1,-2193683.32 938.01,-2193153.36 927.67,-2096469.13 895.86,-2020894.25"/>
<polygon fill="#63b8ff" stroke="#63b8ff" points="899.36,-2020894.51 895.85,-2020884.52 892.36,-2020894.52 899.36,-2020894.51"/>
</a>
</g>
</g>
<!-- Node8&#45;&gt;Node7 -->
<g id="edge24_Node000008_Node000007" class="edge">
<title>Node8&#45;&gt;Node7</title>
<g id="a_edge24_Node000008_Node000007"><a xlink:title=" ">
<path fill="none" stroke="#63b8ff" d="M640.09,-2454919.79C638.55,-2453653.14 462.32,-2309281.93 391.1,-2193683.32 90.8,-1706237.23 85.1,-1584375.64 85.1,-1096929.46 85.1,-1096929.46 85.1,-1096929.46 85.1,-261360.94 85.1,-260907.39 -117.91,-512 104.1,-116.5 129.38,-71.47 183.37,-43.88 223.36,-28.84"/>
<polygon fill="#63b8ff" stroke="#63b8ff" points="224.33,-32.21 232.55,-25.53 221.95,-25.62 224.33,-32.21"/>
</a>
</g>
</g>
<!-- Node9 -->
<g id="Node000009" class="node">
<title>Node9</title>
<g id="a_Node000009"><a xlink:href="sqsh__extract__private_8h.html" target="_top" xlink:title=" ">
<polygon fill="white" stroke="#666666" points="549.6,-1671213.54 368.6,-1671213.54 368.6,-522643.38 549.6,-522643.38 549.6,-1671213.54"/>
<text text-anchor="middle" x="459.1" y="-1671200.04" font-family="Helvetica,sans-Serif" font-size="10.00">sqsh_extract_private.h</text>
</a>
</g>
</g>
<!-- Node8&#45;&gt;Node9 -->
<g id="edge9_Node000008_Node000009" class="edge">
<title>Node8&#45;&gt;Node9</title>
<g id="a_edge9_Node000008_Node000009"><a xlink:title=" ">
<path fill="none" stroke="#63b8ff" d="M640.1,-2454919.51C639.97,-2451917.67 605.1,-1671249.54 605.1,-1671249.54 593.46,-1671225.94 569.75,-1671237.13 558.1,-1671213.54 -126.28,-1669827.56 190.89,-1325501.41 368.09,-1170748.12"/>
<polygon fill="#63b8ff" stroke="#63b8ff" points="371.59,-1170748.13 368.1,-1170738.12 364.59,-1170748.12 371.59,-1170748.13"/>
</a>
</g>
</g>
<!-- Node13 -->
<g id="Node000013" class="node">
<title>Node13</title>
<g id="a_Node000013"><a xlink:href="sqsh__mapper__private_8h.html" target="_top" xlink:title=" ">
<polygon fill="white" stroke="#666666" points="740.85,-1096937.71 567.35,-1096937.71 567.35,-1096919.21 740.85,-1096919.21 740.85,-1096937.71"/>
<text text-anchor="middle" x="654.1" y="-1096924.21" font-family="Helvetica,sans-Serif" font-size="10.00">sqsh_mapper_private.h</text>
</a>
</g>
</g>
<!-- Node8&#45;&gt;Node13 -->
<g id="edge14_Node000008_Node000013" class="edge">
<title>Node8&#45;&gt;Node13</title>
<g id="a_edge14_Node000008_Node000013"><a xlink:title=" ">
<path fill="none" stroke="#63b8ff" d="M640.1,-2454919.45C640.14,-2450961.42 654.04,-1102952.68 654.1,-1096949.57"/>
<polygon fill="#63b8ff" stroke="#63b8ff" points="657.6,-1096949.68 654.1,-1096939.68 650.6,-1096949.68 657.6,-1096949.68"/>
</a>
</g>
</g>
<!-- Node15 -->
<g id="Node000015" class="node">
<title>Node15</title>
<g id="a_Node000015"><a xlink:title=" ">
<polygon fill="#e0e0e0" stroke="#999999" points="902.85,-261371.19 729.35,-261371.19 729.35,-261352.69 902.85,-261352.69 902.85,-261371.19"/>
<text text-anchor="middle" x="816.1" y="-261357.69" font-family="Helvetica,sans-Serif" font-size="10.00">sqsh_reader_private.h</text>
</a>
</g>
</g>
<!-- Node8&#45;&gt;Node15 -->
<g id="edge23_Node000008_Node000015" class="edge">
<title>Node8&#45;&gt;Node15</title>
<g id="a_edge23_Node000008_Node000015"><a xlink:title=" ">
<path fill="none" stroke="#63b8ff" d="M640.1,-2454919.61C640.5,-2452696.5 717.59,-2018638.26 750.1,-1671213.54 808.57,-1046447.81 816.06,-265947.92 816.1,-261383.06"/>
<polygon fill="#63b8ff" stroke="#63b8ff" points="819.6,-261383.14 816.1,-261373.14 812.6,-261383.14 819.6,-261383.14"/>
</a>
</g>
</g>
<!-- Node8&#45;&gt;Node16 -->
<g id="edge20_Node000008_Node000016" class="edge">
<title>Node8&#45;&gt;Node16</title>
<g id="a_edge20_Node000008_Node000016"><a xlink:title=" ">
<path fill="none" stroke="#63b8ff" d="M640.1,-2454919.77C639.45,-2452516.08 499.11,-1936171.48 498.11,-1932487.24"/>
<polygon fill="#63b8ff" stroke="#63b8ff" points="501.61,-1932487.32 498.11,-1932477.32 494.61,-1932487.32 501.61,-1932487.32"/>
</a>
</g>
</g>
<!-- Node10 -->
<g id="Node000010" class="node">
<title>Node10</title>
<g id="a_Node000010"><a xlink:title=" ">
<polygon fill="#e0e0e0" stroke="#999999" points="395.1,-522607.38 229.1,-522607.38 229.1,-116.5 395.1,-116.5 395.1,-522607.38"/>
<text text-anchor="middle" x="312.1" y="-522593.88" font-family="Helvetica,sans-Serif" font-size="10.00">cextras/collection.h</text>
</a>
</g>
</g>
<!-- Node9&#45;&gt;Node10 -->
<g id="edge10_Node000009_Node000010" class="edge">
<title>Node9&#45;&gt;Node10</title>
<g id="a_edge10_Node000009_Node000010"><a xlink:title=" ">
<path fill="none" stroke="#63b8ff" d="M368.1,-579673.48C364.69,-560292.02 361.34,-541213.8 358.07,-522619.19"/>
<polygon fill="#63b8ff" stroke="#63b8ff" points="361.57,-522619.21 358.06,-522609.21 354.57,-522619.21 361.57,-522619.21"/>
</a>
</g>
</g>
<!-- Node11 -->
<g id="Node000011" class="node">
<title>Node11</title>
<g id="a_Node000011"><a xlink:href="sqsh__data_8h.html" target="_top" xlink:title=" ">
<polygon fill="white" stroke="#666666" points="211.35,-522606.44 112.85,-522606.44 112.85,-117.44 211.35,-117.44 211.35,-522606.44"/>
<text text-anchor="middle" x="162.1" y="-522592.94" font-family="Helvetica,sans-Serif" font-size="10.00">sqsh_data.h</text>
</a>
</g>
</g>
<!-- Node9&#45;&gt;Node11 -->
<g id="edge11_Node000009_Node000011" class="edge">
<title>Node9&#45;&gt;Node11</title>
<g id="a_edge11_Node000009_Node000011"><a xlink:title=" ">
<path fill="none" stroke="#63b8ff" d="M368.1,-900881.59C318.94,-789884.5 260.27,-648486.26 220.1,-522607.38 217.26,-513692.55 214.51,-504606.59 211.86,-495428.34"/>
<polygon fill="#63b8ff" stroke="#63b8ff" points="215.36,-495428.5 211.85,-495418.51 208.36,-495428.51 215.36,-495428.5"/>
</a>
</g>
</g>
<!-- Node12 -->
<g id="Node000012" class="node">
<title>Node12</title>
<g id="a_Node000012"><a xlink:title=" ">
<polygon fill="#e0e0e0" stroke="#999999" points="579.1,-261374.94 413.1,-261374.94 413.1,-261348.94 579.1,-261348.94 579.1,-261374.94"/>
<text text-anchor="middle" x="496.1" y="-261361.44" font-family="Helvetica,sans-Serif" font-size="10.00">sqsh_utils_private.h</text>
</a>
</g>
</g>
<!-- Node9&#45;&gt;Node12 -->
<g id="edge13_Node000009_Node000012" class="edge">
<title>Node9&#45;&gt;Node12</title>
<g id="a_edge13_Node000009_Node000012"><a xlink:title=" ">
<path fill="none" stroke="#63b8ff" d="M484.53,-522643.13C490.92,-378420.75 496.02,-263285.09 496.1,-261386.76"/>
<polygon fill="#63b8ff" stroke="#63b8ff" points="499.6,-261386.87 496.1,-261376.87 492.6,-261386.87 499.6,-261386.87"/>
</a>
</g>
</g>
<!-- Node11&#45;&gt;Node4 -->
<g id="edge12_Node000011_Node000004" class="edge">
<title>Node11&#45;&gt;Node4</title>
<g id="a_edge12_Node000011_Node000004"><a xlink:title=" ">
<path fill="none" stroke="#63b8ff" d="M211.85,-403.75C214.51,-216.66 217.27,-119.73 220.1,-116.5 237.84,-96.32 398.87,-82.68 493.51,-76.34"/>
<polygon fill="#63b8ff" stroke="#63b8ff" points="493.73,-79.83 503.48,-75.68 493.27,-72.84 493.73,-79.83"/>
</a>
</g>
</g>
<!-- Node13&#45;&gt;Node12 -->
<g id="edge19_Node000013_Node000012" class="edge">
<title>Node13&#45;&gt;Node12</title>
<g id="a_edge19_Node000013_Node000012"><a xlink:title=" ">
<path fill="none" stroke="#63b8ff" d="M654.1,-1096918.91C653.84,-1095019.67 609.57,-777117.41 558.1,-522643.38 534.79,-407375.07 496.67,-263502.19 496.11,-261386.55"/>
<polygon fill="#63b8ff" stroke="#63b8ff" points="499.61,-261386.71 496.11,-261376.71 492.61,-261386.71 499.61,-261386.71"/>
</a>
</g>
</g>
<!-- Node14 -->
<g id="Node000014" class="node">
<title>Node14</title>
<g id="a_Node000014"><a xlink:href="sqsh__mapper_8h.html" target="_top" xlink:title=" ">
<polygon fill="white" stroke="#666666" points="710.85,-261371.19 597.35,-261371.19 597.35,-261352.69 710.85,-261352.69 710.85,-261371.19"/>
<text text-anchor="middle" x="654.1" y="-261357.69" font-family="Helvetica,sans-Serif" font-size="10.00">sqsh_mapper.h</text>
</a>
</g>
</g>
<!-- Node13&#45;&gt;Node14 -->
<g id="edge15_Node000013_Node000014" class="edge">
<title>Node13&#45;&gt;Node14</title>
<g id="a_edge15_Node000013_Node000014"><a xlink:title=" ">
<path fill="none" stroke="#63b8ff" d="M654.1,-1096918.79C654.1,-1093828.22 654.1,-266078.49 654.1,-261383"/>
<polygon fill="#63b8ff" stroke="#63b8ff" points="657.6,-261383.1 654.1,-261373.1 650.6,-261383.1 657.6,-261383.1"/>
</a>
</g>
</g>
<!-- Node13&#45;&gt;Node15 -->
<g id="edge18_Node000013_Node000015" class="edge">
<title>Node13&#45;&gt;Node15</title>
<g id="a_edge18_Node000013_Node000015"><a xlink:title=" ">
<path fill="none" stroke="#63b8ff" d="M654.1,-1096918.91C654.4,-1095019.67 703.02,-777117.41 755.1,-522643.38 778.71,-407304.26 815.6,-263325.41 816.1,-261382.81"/>
<polygon fill="#63b8ff" stroke="#63b8ff" points="819.6,-261382.85 816.1,-261372.85 812.6,-261382.85 819.6,-261382.85"/>
</a>
</g>
</g>
<!-- Node14&#45;&gt;Node4 -->
<g id="edge16_Node000014_Node000004" class="edge">
<title>Node14&#45;&gt;Node4</title>
<g id="a_edge16_Node000014_Node000004"><a xlink:title=" ">
<path fill="none" stroke="#63b8ff" d="M654.11,-261352.48C655.23,-259647.46 825.54,-988.88 588.1,-116.5 585.56,-107.16 580.5,-97.78 575.51,-90.08"/>
<polygon fill="#63b8ff" stroke="#63b8ff" points="578.46,-88.19 569.86,-82.01 572.73,-92.21 578.46,-88.19"/>
</a>
</g>
</g>
<!-- Node14&#45;&gt;Node6 -->
<g id="edge17_Node000014_Node000006" class="edge">
<title>Node14&#45;&gt;Node6</title>
<g id="a_edge17_Node000014_Node000006"><a xlink:title=" ">
<path fill="none" stroke="#63b8ff" d="M654.1,-261352.44C654.1,-259649.7 654.1,-2634.87 654.1,-33.88"/>
<polygon fill="#63b8ff" stroke="#63b8ff" points="657.6,-33.96 654.1,-23.96 650.6,-33.96 657.6,-33.96"/>
</a>
</g>
</g>
<!-- Node16&#45;&gt;Node9 -->
<g id="edge21_Node000016_Node000009" class="edge">
<title>Node16&#45;&gt;Node9</title>
<g id="a_edge21_Node000016_Node000009"><a xlink:title=" ">
<path fill="none" stroke="#63b8ff" d="M498.1,-1932456.75C498.05,-1931306.42 492.66,-1815906.21 485.91,-1671225.21"/>
<polygon fill="#63b8ff" stroke="#63b8ff" points="489.41,-1671225.54 485.91,-1671215.54 482.41,-1671225.54 489.41,-1671225.54"/>
</a>
</g>
</g>
<!-- Node16&#45;&gt;Node13 -->
<g id="edge22_Node000016_Node000013" class="edge">
<title>Node16&#45;&gt;Node13</title>
<g id="a_edge22_Node000016_Node000013"><a xlink:title=" ">
<path fill="none" stroke="#63b8ff" d="M498.11,-1932457.03C498.43,-1931190.34 535.17,-1786815.23 558.1,-1671213.54 608.51,-1417143.34 653.69,-1099846.06 654.1,-1096949.44"/>
<polygon fill="#63b8ff" stroke="#63b8ff" points="657.6,-1096949.53 654.1,-1096939.53 650.6,-1096949.53 657.6,-1096949.53"/>
</a>
</g>
</g>
</g>
</svg>

<g id="navigator" transform="translate(0 0)" fill="#404254">
  <rect fill="#f2f5e9" fill-opacity="0.5" stroke="#606060" stroke-width=".5" x="0" y="0" width="60" height="60"/>
  <use id="zoomplus" xlink:href="#zoomPlus" x="17" y="9" onmousedown="handleZoom(evt,'in')"/>
  <use id="zoomminus" xlink:href="#zoomMin" x="42" y="9" onmousedown="handleZoom(evt,'out')"/>
  <use id="reset" xlink:href="#resetDef" x="30" y="36" onmousedown="handleReset()"/>
   <use id="arrowup" xlink:href="#arrowUp" x="0" y="0" onmousedown="handlePan(0,-1)"/>
  <use id="arrowright" xlink:href="#arrowRight" x="0" y="0" onmousedown="handlePan(1,0)"/>
  <use id="arrowdown" xlink:href="#arrowDown" x="0" y="0" onmousedown="handlePan(0,1)"/>
  <use id="arrowleft" xlink:href="#arrowLeft" x="0" y="0" onmousedown="handlePan(-1,0)"/>
</g>
<svg viewBox="0 0 15 15" width="100%" height="30px" preserveAspectRatio="xMaxYMin meet">
 <g id="arrow_out" transform="scale(0.3 0.3)">
  <a xlink:href="sqsh__directory__private_8h__incl_org.svg" target="_base">
   <rect id="button" ry="5" rx="5" y="6" x="6" height="38" width="38"
        fill="#f2f5e9" fill-opacity="0.5" stroke="#606060" stroke-width="1.0"/>
   <path id="arrow"
     d="M 11.500037,31.436501 C 11.940474,20.09759 22.043105,11.32322 32.158766,21.979434 L 37.068811,17.246167 C 37.068811,17.246167 37.088388,32 37.088388,32 L 22.160133,31.978069 C 22.160133,31.978069 26.997745,27.140456 26.997745,27.140456 C 18.528582,18.264221 13.291696,25.230495 11.500037,31.436501 z"
     style="fill:#404040;"/>
  </a>
 </g>
</svg>

<style type='text/css'>
<![CDATA[
[data-mouse-over-selected='false'] { opacity: 0.7; }
[data-mouse-over-selected='true']  { opacity: 1.0; }
]]>
</style>
<script type="application/ecmascript"><![CDATA[
document.addEventListener('DOMContentLoaded', (event) => {
  highlightEdges();
  highlightAdjacentNodes();
});
]]></script>
</svg>
