<?xml version="1.0" encoding="UTF-8" standalone="no"?>
<!DOCTYPE svg PUBLIC "-//W3C//DTD SVG 1.1//EN"
 "http://www.w3.org/Graphics/SVG/1.1/DTD/svg11.dtd">
<!-- Generated by graphviz version 8.0.5 (20230430.1635)
 -->
<!-- Title: libsqsh/include/sqsh_table_private.h Pages: 1 -->
<svg width="1037pt" height="4089429pt"
 viewBox="0.00 0.00 1036.57 4089428.86" xmlns="http://www.w3.org/2000/svg" xmlns:xlink="http://www.w3.org/1999/xlink">
<g id="graph0" class="graph" transform="scale(1 1) rotate(0) translate(4 4089424.86)">
<title>libsqsh/include/sqsh_table_private.h</title>
<!-- Node1 -->
<g id="node1" class="node">
<title>Node1</title>
<g id="a_node1"><a xlink:title=" ">
<polygon fill="#999999" stroke="#666666" points="411.75,-4089420.86 245.75,-4089420.86 245.75,-4089391.86 411.75,-4089391.86 411.75,-4089420.86"/>
<text text-anchor="start" x="253.75" y="-4089407.36" font-family="Helvetica,sans-Serif" font-size="10.00">libsqsh/include/sqsh</text>
<text text-anchor="middle" x="328.75" y="-4089396.86" font-family="Helvetica,sans-Serif" font-size="10.00">_table_private.h</text>
</a>
</g>
</g>
<!-- Node2 -->
<g id="node2" class="node">
<title>Node2</title>
<g id="a_node2"><a xlink:href="sqsh__extract__private_8h.html" target="_top" xlink:title=" ">
<polygon fill="white" stroke="#666666" points="419.25,-4089355.86 238.25,-4089355.86 238.25,-2726363.09 419.25,-2726363.09 419.25,-4089355.86"/>
<text text-anchor="middle" x="328.75" y="-4089342.36" font-family="Helvetica,sans-Serif" font-size="10.00">sqsh_extract_private.h</text>
</a>
</g>
</g>
<!-- Node1&#45;&gt;Node2 -->
<g id="edge1" class="edge">
<title>Node1&#45;&gt;Node2</title>
<path fill="none" stroke="#63b8ff" d="M328.75,-4089391.63C328.75,-4089385.51 328.75,-4089377.35 328.75,-4089367.15"/>
<polygon fill="#63b8ff" stroke="#63b8ff" points="332.25,-4089367.28 328.75,-4089357.28 325.25,-4089367.28 332.25,-4089367.28"/>
</g>
<!-- Node10 -->
<g id="node10" class="node">
<title>Node10</title>
<g id="a_node10"><a xlink:href="sqsh__mapper__private_8h.html" target="_top" xlink:title=" ">
<polygon fill="white" stroke="#666666" points="683.5,-3407868.72 510,-3407868.72 510,-3407850.22 683.5,-3407850.22 683.5,-3407868.72"/>
<text text-anchor="middle" x="596.75" y="-3407855.22" font-family="Helvetica,sans-Serif" font-size="10.00">sqsh_mapper_private.h</text>
</a>
</g>
</g>
<!-- Node1&#45;&gt;Node10 -->
<g id="edge9" class="edge">
<title>Node1&#45;&gt;Node10</title>
<path fill="none" stroke="#63b8ff" d="M381.68,-4089391.38C399.46,-4089383.89 417.39,-4089372.61 427.75,-4089355.86 1668.21,-4087349.32 603.35,-3412039.87 596.78,-3407879.77"/>
<polygon fill="#63b8ff" stroke="#63b8ff" points="600.28,-3407879.98 596.76,-3407869.98 593.28,-3407879.99 600.28,-3407879.98"/>
</g>
<!-- Node14 -->
<g id="node14" class="node">
<title>Node14</title>
<g id="a_node14"><a xlink:href="sqsh__table_8h.html" target="_top" xlink:title=" ">
<polygon fill="white" stroke="#666666" points="187.75,-3407868.72 81.75,-3407868.72 81.75,-3407850.22 187.75,-3407850.22 187.75,-3407868.72"/>
<text text-anchor="middle" x="134.75" y="-3407855.22" font-family="Helvetica,sans-Serif" font-size="10.00">sqsh_table.h</text>
</a>
</g>
</g>
<!-- Node1&#45;&gt;Node14 -->
<g id="edge15" class="edge">
<title>Node1&#45;&gt;Node14</title>
<path fill="none" stroke="#63b8ff" d="M275.04,-4089391.4C257.17,-4089383.91 239.17,-4089372.65 228.75,-4089355.86 -82.34,-4088854.83 133.41,-3412049.14 134.74,-3407879.82"/>
<polygon fill="#63b8ff" stroke="#63b8ff" points="138.24,-3407880 134.75,-3407870 131.24,-3407880 138.24,-3407880"/>
</g>
<!-- Node3 -->
<g id="node3" class="node">
<title>Node3</title>
<g id="a_node3"><a xlink:title=" ">
<polygon fill="#e0e0e0" stroke="#999999" points="595.75,-2726327.09 429.75,-2726327.09 429.75,-1363214.77 595.75,-1363214.77 595.75,-2726327.09"/>
<text text-anchor="middle" x="512.75" y="-2726313.59" font-family="Helvetica,sans-Serif" font-size="10.00">cextras/collection.h</text>
</a>
</g>
</g>
<!-- Node2&#45;&gt;Node3 -->
<g id="edge2" class="edge">
<title>Node2&#45;&gt;Node3</title>
<path fill="none" stroke="#63b8ff" d="M419.75,-2733735.38C420.08,-2731261.1 420.42,-2728791.59 420.75,-2726327.09 423.54,-2705645.83 426.38,-2684611.57 429.25,-2663368.92"/>
<polygon fill="#63b8ff" stroke="#63b8ff" points="432.75,-2663369.23 429.25,-2663359.23 425.75,-2663369.23 432.75,-2663369.23"/>
</g>
<!-- Node4 -->
<g id="node4" class="node">
<title>Node4</title>
<g id="a_node4"><a xlink:href="sqsh__data_8h.html" target="_top" xlink:title=" ">
<polygon fill="white" stroke="#666666" points="228,-2044780.18 129.5,-2044780.18 129.5,-2044761.68 228,-2044761.68 228,-2044780.18"/>
<text text-anchor="middle" x="178.75" y="-2044766.68" font-family="Helvetica,sans-Serif" font-size="10.00">sqsh_data.h</text>
</a>
</g>
</g>
<!-- Node2&#45;&gt;Node4 -->
<g id="edge3" class="edge">
<title>Node2&#45;&gt;Node4</title>
<path fill="none" stroke="#63b8ff" d="M237.75,-2735369.16C237.41,-2732347.97 237.08,-2729333.8 236.75,-2726327.09 203.55,-2424669.72 178.95,-2047910.73 178.75,-2044791.43"/>
<polygon fill="#63b8ff" stroke="#63b8ff" points="182.25,-2044791.49 178.75,-2044781.49 175.25,-2044791.49 182.25,-2044791.49"/>
</g>
<!-- Node9 -->
<g id="node9" class="node">
<title>Node9</title>
<g id="a_node9"><a xlink:title=" ">
<polygon fill="#e0e0e0" stroke="#999999" points="411.75,-2044780.18 245.75,-2044780.18 245.75,-2044761.68 411.75,-2044761.68 411.75,-2044780.18"/>
<text text-anchor="middle" x="328.75" y="-2044766.68" font-family="Helvetica,sans-Serif" font-size="10.00">sqsh_utils_private.h</text>
</a>
</g>
</g>
<!-- Node2&#45;&gt;Node9 -->
<g id="edge8" class="edge">
<title>Node2&#45;&gt;Node9</title>
<path fill="none" stroke="#63b8ff" d="M328.75,-2726362.97C328.75,-2387061.15 328.75,-2047743.55 328.75,-2044791.33"/>
<polygon fill="#63b8ff" stroke="#63b8ff" points="332.25,-2044791.33 328.75,-2044781.33 325.25,-2044791.33 332.25,-2044791.33"/>
</g>
<!-- Node5 -->
<g id="node5" class="node">
<title>Node5</title>
<g id="a_node5"><a xlink:href="sqsh__common_8h.html" target="_top" xlink:title=" ">
<polygon fill="white" stroke="#666666" points="196.5,-1363178.77 83,-1363178.77 83,-1363152.77 196.5,-1363152.77 196.5,-1363178.77"/>
<text text-anchor="middle" x="139.75" y="-1363165.27" font-family="Helvetica,sans-Serif" font-size="10.00">sqsh_common.h</text>
</a>
</g>
</g>
<!-- Node4&#45;&gt;Node5 -->
<g id="edge4" class="edge">
<title>Node4&#45;&gt;Node5</title>
<path fill="none" stroke="#63b8ff" d="M178.75,-2044761.39C178.59,-2041994.86 140.01,-1367754.88 139.75,-1363190.05"/>
<polygon fill="#63b8ff" stroke="#63b8ff" points="143.25,-1363190.19 139.75,-1363180.19 136.25,-1363190.19 143.25,-1363190.19"/>
</g>
<!-- Node6 -->
<g id="node6" class="node">
<title>Node6</title>
<g id="a_node6"><a xlink:title=" ">
<polygon fill="#e0e0e0" stroke="#999999" points="83.5,-681571.38 0,-681571.38 0,-681545.38 83.5,-681545.38 83.5,-681571.38"/>
<text text-anchor="middle" x="41.75" y="-681557.88" font-family="Helvetica,sans-Serif" font-size="10.00">stdbool.h</text>
</a>
</g>
</g>
<!-- Node5&#45;&gt;Node6 -->
<g id="edge5" class="edge">
<title>Node5&#45;&gt;Node6</title>
<path fill="none" stroke="#63b8ff" d="M121.92,-1363152.31C111.26,-1363143.71 98.66,-1363131.24 92.75,-1363116.77 92.75,-1363116.77 42.09,-686165.97 41.75,-681582.76"/>
<polygon fill="#63b8ff" stroke="#63b8ff" points="45.25,-681582.86 41.75,-681572.86 38.25,-681582.86 45.25,-681582.86"/>
</g>
<!-- Node7 -->
<g id="node7" class="node">
<title>Node7</title>
<g id="a_node7"><a xlink:title=" ">
<polygon fill="#e0e0e0" stroke="#999999" points="177.75,-681579.57 101.75,-681579.57 101.75,-681537.2 177.75,-681537.2 177.75,-681579.57"/>
<text text-anchor="middle" x="139.75" y="-681566.07" font-family="Helvetica,sans-Serif" font-size="10.00">stddef.h</text>
</a>
</g>
</g>
<!-- Node5&#45;&gt;Node7 -->
<g id="edge6" class="edge">
<title>Node5&#45;&gt;Node7</title>
<path fill="none" stroke="#63b8ff" d="M139.75,-1363152.3C139.75,-1359812.37 139.75,-686885.8 139.75,-681590.8"/>
<polygon fill="#63b8ff" stroke="#63b8ff" points="143.25,-681590.84 139.75,-681580.84 136.25,-681590.84 143.25,-681590.84"/>
</g>
<!-- Node8 -->
<g id="node8" class="node">
<title>Node8</title>
<g id="a_node8"><a xlink:title=" ">
<polygon fill="#e0e0e0" stroke="#999999" points="271.75,-1363116.77 195.75,-1363116.77 195.75,0 271.75,0 271.75,-1363116.77"/>
<text text-anchor="middle" x="233.75" y="-1363103.27" font-family="Helvetica,sans-Serif" font-size="10.00">stdint.h</text>
</a>
</g>
</g>
<!-- Node5&#45;&gt;Node8 -->
<g id="edge7" class="edge">
<title>Node5&#45;&gt;Node8</title>
<path fill="none" stroke="#63b8ff" d="M157.58,-1363152.31C168.24,-1363143.71 180.84,-1363131.24 186.75,-1363116.77 1814.05,-1359129.29 518.79,-798083.32 272.28,-697052.76"/>
<polygon fill="#63b8ff" stroke="#63b8ff" points="275.77,-697052.77 272.25,-697042.78 268.77,-697052.79 275.77,-697052.77"/>
</g>
<!-- Node10&#45;&gt;Node3 -->
<g id="edge13" class="edge">
<title>Node10&#45;&gt;Node3</title>
<path fill="none" stroke="#63b8ff" d="M596.75,-3407850.07C596.63,-3405903.41 575.69,-3066124.42 554.75,-2726337.91"/>
<polygon fill="#63b8ff" stroke="#63b8ff" points="558.25,-2726338.21 554.75,-2726328.21 551.25,-2726338.21 558.25,-2726338.21"/>
</g>
<!-- Node10&#45;&gt;Node9 -->
<g id="edge12" class="edge">
<title>Node10&#45;&gt;Node9</title>
<path fill="none" stroke="#63b8ff" d="M596.76,-3407849.8C599.81,-3405071.96 1334.52,-2735765.03 427.75,-2726363.09 426.19,-2726346.86 422.31,-2726343.31 420.75,-2726327.09 194.4,-2723978.75 327.92,-2048949.58 328.75,-2044791.22"/>
<polygon fill="#63b8ff" stroke="#63b8ff" points="332.25,-2044791.44 328.75,-2044781.43 325.25,-2044791.43 332.25,-2044791.44"/>
</g>
<!-- Node11 -->
<g id="node11" class="node">
<title>Node11</title>
<g id="a_node11"><a xlink:href="sqsh__mapper_8h.html" target="_top" xlink:title=" ">
<polygon fill="white" stroke="#666666" points="727.5,-2044780.18 614,-2044780.18 614,-2044761.68 727.5,-2044761.68 727.5,-2044780.18"/>
<text text-anchor="middle" x="670.75" y="-2044766.68" font-family="Helvetica,sans-Serif" font-size="10.00">sqsh_mapper.h</text>
</a>
</g>
</g>
<!-- Node10&#45;&gt;Node11 -->
<g id="edge10" class="edge">
<title>Node10&#45;&gt;Node11</title>
<path fill="none" stroke="#63b8ff" d="M596.75,-3407850.07C596.96,-3403959.62 670.43,-2050735.43 670.75,-2044791.57"/>
<polygon fill="#63b8ff" stroke="#63b8ff" points="674.25,-2044791.67 670.75,-2044781.67 667.25,-2044791.67 674.25,-2044791.67"/>
</g>
<!-- Node12 -->
<g id="node12" class="node">
<title>Node12</title>
<g id="a_node12"><a xlink:title=" ">
<polygon fill="#e0e0e0" stroke="#999999" points="919.5,-2044780.18 746,-2044780.18 746,-2044761.68 919.5,-2044761.68 919.5,-2044780.18"/>
<text text-anchor="middle" x="832.75" y="-2044766.68" font-family="Helvetica,sans-Serif" font-size="10.00">sqsh_reader_private.h</text>
</a>
</g>
</g>
<!-- Node10&#45;&gt;Node12 -->
<g id="edge11" class="edge">
<title>Node10&#45;&gt;Node12</title>
<path fill="none" stroke="#63b8ff" d="M596.75,-3407849.91C597.23,-3405779.18 684.45,-3028397.98 736.75,-2726327.09 788.98,-2424669.72 832.39,-2047910.73 832.75,-2044791.43"/>
<polygon fill="#63b8ff" stroke="#63b8ff" points="836.25,-2044791.49 832.75,-2044781.49 829.25,-2044791.49 836.25,-2044791.49"/>
</g>
<!-- Node13 -->
<g id="node13" class="node">
<title>Node13</title>
<g id="a_node13"><a xlink:title=" ">
<polygon fill="#e0e0e0" stroke="#999999" points="1028.25,-2044780.18 937.25,-2044780.18 937.25,-2044761.68 1028.25,-2044761.68 1028.25,-2044780.18"/>
<text text-anchor="middle" x="982.75" y="-2044766.68" font-family="Helvetica,sans-Serif" font-size="10.00">sys/wait.h</text>
</a>
</g>
</g>
<!-- Node10&#45;&gt;Node13 -->
<g id="edge14" class="edge">
<title>Node10&#45;&gt;Node13</title>
<path fill="none" stroke="#63b8ff" d="M596.76,-3407849.91C598.1,-3405779.18 843.21,-3028398 928.75,-2726327.09 1014.17,-2424669.73 983.01,-2047910.73 982.75,-2044791.43"/>
<polygon fill="#63b8ff" stroke="#63b8ff" points="986.25,-2044791.49 982.75,-2044781.49 979.25,-2044791.49 986.25,-2044791.49"/>
</g>
<!-- Node14&#45;&gt;Node5 -->
<g id="edge16" class="edge">
<title>Node14&#45;&gt;Node5</title>
<path fill="none" stroke="#63b8ff" d="M134.75,-3407849.91C134.69,-3405779.18 123.85,-3028397.98 120.75,-2726327.09 120.74,-2725143.83 -100.92,-1364377.08 120.75,-1363214.77 122.41,-1363206.05 125.63,-1363196.9 128.95,-1363188.95"/>
<polygon fill="#63b8ff" stroke="#63b8ff" points="132.51,-1363190.57 133.41,-1363180.01 126.12,-1363187.71 132.51,-1363190.57"/>
</g>
</g>
</svg>
