<?xml version="1.0" encoding="UTF-8" standalone="no"?>
<!DOCTYPE svg PUBLIC "-//W3C//DTD SVG 1.1//EN"
 "http://www.w3.org/Graphics/SVG/1.1/DTD/svg11.dtd">
<!-- Generated by graphviz version 9.0.0 (20230911.1827)
 -->
<!-- Title: include/sqsh_error.h Pages: 1 -->
<svg width="1627pt" height="146pt"
 viewBox="0.00 0.00 1626.75 146.00" xmlns="http://www.w3.org/2000/svg" xmlns:xlink="http://www.w3.org/1999/xlink">
<g id="graph0" class="graph" transform="scale(1 1) rotate(0) translate(4 142)">
<title>include/sqsh_error.h</title>
<!-- Node1 -->
<g id="Node000001" class="node">
<title>Node1</title>
<g id="a_Node000001"><a xlink:title=" ">
<polygon fill="#999999" stroke="#666666" points="941.25,-138 775.25,-138 775.25,-119.5 941.25,-119.5 941.25,-138"/>
<text text-anchor="middle" x="858.25" y="-124.5" font-family="Helvetica,sans-Serif" font-size="10.00">include/sqsh_error.h</text>
</a>
</g>
</g>
<!-- Node2 -->
<g id="Node000002" class="node">
<title>Node2</title>
<g id="a_Node000002"><a xlink:href="sqsh_8h.html" target="_top" xlink:title=" ">
<polygon fill="white" stroke="#666666" points="837.75,-78.29 716.75,-78.29 716.75,-59.71 837.75,-59.71 837.75,-78.29"/>
<text text-anchor="middle" x="777.25" y="-64.79" font-family="Helvetica,sans-Serif" font-size="10.00">include/sqsh.h</text>
</a>
</g>
</g>
<!-- Node1&#45;&gt;Node2 -->
<g id="edge1_Node000001_Node000002" class="edge">
<title>Node1&#45;&gt;Node2</title>
<g id="a_edge1_Node000001_Node000002"><a xlink:title=" ">
<path fill="none" stroke="#63b8ff" d="M837.16,-112.71C822.01,-101.91 802.13,-87.74 789.52,-78.75"/>
<polygon fill="#63b8ff" stroke="#63b8ff" points="834.89,-115.39 845.07,-118.35 838.96,-109.69 834.89,-115.39"/>
</a>
</g>
</g>
<!-- Node11 -->
<g id="Node000011" class="node">
<title>Node11</title>
<g id="a_Node000011"><a xlink:href="sqsh__archive__private_8h.html" target="_top" xlink:title=" ">
<polygon fill="white" stroke="#666666" points="1022.25,-83.5 856.25,-83.5 856.25,-54.5 1022.25,-54.5 1022.25,-83.5"/>
<text text-anchor="start" x="864.25" y="-70" font-family="Helvetica,sans-Serif" font-size="10.00">libsqsh/include/sqsh</text>
<text text-anchor="middle" x="939.25" y="-59.5" font-family="Helvetica,sans-Serif" font-size="10.00">_archive_private.h</text>
</a>
</g>
</g>
<!-- Node1&#45;&gt;Node11 -->
<g id="edge10_Node000001_Node000011" class="edge">
<title>Node1&#45;&gt;Node11</title>
<g id="a_edge10_Node000001_Node000011"><a xlink:title=" ">
<path fill="none" stroke="#63b8ff" d="M879.39,-112.68C891.86,-103.79 907.53,-92.62 919.71,-83.93"/>
<polygon fill="#63b8ff" stroke="#63b8ff" points="877.54,-109.69 871.43,-118.35 881.61,-115.39 877.54,-109.69"/>
</a>
</g>
</g>
<!-- Node3 -->
<g id="Node000003" class="node">
<title>Node3</title>
<g id="a_Node000003"><a xlink:href="list__dir_8c.html" target="_top" xlink:title=" ">
<polygon fill="white" stroke="#666666" points="158.5,-18.5 0,-18.5 0,0 158.5,0 158.5,-18.5"/>
<text text-anchor="middle" x="79.25" y="-5" font-family="Helvetica,sans-Serif" font-size="10.00">examples/list_dir.c</text>
</a>
</g>
</g>
<!-- Node2&#45;&gt;Node3 -->
<g id="edge2_Node000002_Node000003" class="edge">
<title>Node2&#45;&gt;Node3</title>
<g id="a_edge2_Node000002_Node000003"><a xlink:title=" ">
<path fill="none" stroke="#63b8ff" d="M705.28,-62.45C591.16,-53.59 361.68,-35.5 167.25,-18.5 164.5,-18.26 161.7,-18.01 158.87,-17.76"/>
<polygon fill="#63b8ff" stroke="#63b8ff" points="704.87,-65.93 715.11,-63.22 705.41,-58.95 704.87,-65.93"/>
</a>
</g>
</g>
<!-- Node4 -->
<g id="Node000004" class="node">
<title>Node4</title>
<g id="a_Node000004"><a xlink:href="list__dir__ll_8c.html" target="_top" xlink:title=" ">
<polygon fill="white" stroke="#666666" points="357.75,-18.5 176.75,-18.5 176.75,0 357.75,0 357.75,-18.5"/>
<text text-anchor="middle" x="267.25" y="-5" font-family="Helvetica,sans-Serif" font-size="10.00">examples/list_dir_ll.c</text>
</a>
</g>
</g>
<!-- Node2&#45;&gt;Node4 -->
<g id="edge3_Node000002_Node000004" class="edge">
<title>Node2&#45;&gt;Node4</title>
<g id="a_edge3_Node000002_Node000004"><a xlink:title=" ">
<path fill="none" stroke="#63b8ff" d="M705.22,-59.84C609.77,-49.04 442.07,-30.05 344.21,-18.96"/>
<polygon fill="#63b8ff" stroke="#63b8ff" points="704.66,-63.3 714.99,-60.95 705.44,-56.35 704.66,-63.3"/>
</a>
</g>
</g>
<!-- Node5 -->
<g id="Node000005" class="node">
<title>Node5</title>
<g id="a_Node000005"><a xlink:href="list__xattrs_8c.html" target="_top" xlink:title=" ">
<polygon fill="white" stroke="#666666" points="556.75,-18.5 375.75,-18.5 375.75,0 556.75,0 556.75,-18.5"/>
<text text-anchor="middle" x="466.25" y="-5" font-family="Helvetica,sans-Serif" font-size="10.00">examples/list_xattrs.c</text>
</a>
</g>
</g>
<!-- Node2&#45;&gt;Node5 -->
<g id="edge4_Node000002_Node000005" class="edge">
<title>Node2&#45;&gt;Node5</title>
<g id="a_edge4_Node000002_Node000005"><a xlink:title=" ">
<path fill="none" stroke="#63b8ff" d="M718.92,-57.17C659.4,-46.12 568.18,-29.18 513.16,-18.96"/>
<polygon fill="#63b8ff" stroke="#63b8ff" points="718.06,-60.57 728.53,-58.95 719.33,-53.69 718.06,-60.57"/>
</a>
</g>
</g>
<!-- Node6 -->
<g id="Node000006" class="node">
<title>Node6</title>
<g id="a_Node000006"><a xlink:href="list__xattrs__ll_8c.html" target="_top" xlink:title=" ">
<polygon fill="white" stroke="#666666" points="778,-18.5 574.5,-18.5 574.5,0 778,0 778,-18.5"/>
<text text-anchor="middle" x="676.25" y="-5" font-family="Helvetica,sans-Serif" font-size="10.00">examples/list_xattrs_ll.c</text>
</a>
</g>
</g>
<!-- Node2&#45;&gt;Node6 -->
<g id="edge5_Node000002_Node000006" class="edge">
<title>Node2&#45;&gt;Node6</title>
<g id="a_edge5_Node000002_Node000006"><a xlink:title=" ">
<path fill="none" stroke="#63b8ff" d="M752.09,-53.61C733.02,-42.71 707.44,-28.08 691.4,-18.91"/>
<polygon fill="#63b8ff" stroke="#63b8ff" points="750.18,-56.55 760.6,-58.48 753.65,-50.48 750.18,-56.55"/>
</a>
</g>
</g>
<!-- Node7 -->
<g id="Node000007" class="node">
<title>Node7</title>
<g id="a_Node000007"><a xlink:href="read__file_8c.html" target="_top" xlink:title=" ">
<polygon fill="white" stroke="#666666" points="962.25,-18.5 796.25,-18.5 796.25,0 962.25,0 962.25,-18.5"/>
<text text-anchor="middle" x="879.25" y="-5" font-family="Helvetica,sans-Serif" font-size="10.00">examples/read_file.c</text>
</a>
</g>
</g>
<!-- Node2&#45;&gt;Node7 -->
<g id="edge6_Node000002_Node000007" class="edge">
<title>Node2&#45;&gt;Node7</title>
<g id="a_edge6_Node000002_Node000007"><a xlink:title=" ">
<path fill="none" stroke="#63b8ff" d="M802.66,-53.61C821.92,-42.71 847.75,-28.08 863.95,-18.91"/>
<polygon fill="#63b8ff" stroke="#63b8ff" points="801.04,-50.51 794.06,-58.48 804.49,-56.6 801.04,-50.51"/>
</a>
</g>
</g>
<!-- Node8 -->
<g id="Node000008" class="node">
<title>Node8</title>
<g id="a_Node000008"><a xlink:href="read__file__ll_8c.html" target="_top" xlink:title=" ">
<polygon fill="white" stroke="#666666" points="1168.5,-18.5 980,-18.5 980,0 1168.5,0 1168.5,-18.5"/>
<text text-anchor="middle" x="1074.25" y="-5" font-family="Helvetica,sans-Serif" font-size="10.00">examples/read_file_ll.c</text>
</a>
</g>
</g>
<!-- Node2&#45;&gt;Node8 -->
<g id="edge7_Node000002_Node000008" class="edge">
<title>Node2&#45;&gt;Node8</title>
<g id="a_edge7_Node000002_Node000008"><a xlink:title=" ">
<path fill="none" stroke="#63b8ff" d="M833.33,-57.1C890.26,-46.03 977.29,-29.1 1029.69,-18.91"/>
<polygon fill="#63b8ff" stroke="#63b8ff" points="832.99,-53.6 823.84,-58.94 834.33,-60.47 832.99,-53.6"/>
</a>
</g>
</g>
<!-- Node9 -->
<g id="Node000009" class="node">
<title>Node9</title>
<g id="a_Node000009"><a xlink:href="readme__example_8c.html" target="_top" xlink:title=" ">
<polygon fill="white" stroke="#666666" points="1390,-18.5 1186.5,-18.5 1186.5,0 1390,0 1390,-18.5"/>
<text text-anchor="middle" x="1288.25" y="-5" font-family="Helvetica,sans-Serif" font-size="10.00">examples/readme_example.c</text>
</a>
</g>
</g>
<!-- Node2&#45;&gt;Node9 -->
<g id="edge8_Node000002_Node000009" class="edge">
<title>Node2&#45;&gt;Node9</title>
<g id="a_edge8_Node000002_Node000009"><a xlink:title=" ">
<path fill="none" stroke="#63b8ff" d="M830.25,-57.25C835.98,-56.25 841.73,-55.31 847.25,-54.5 962.98,-37.57 1096.75,-25.14 1186.34,-17.84"/>
<polygon fill="#63b8ff" stroke="#63b8ff" points="830.04,-53.73 820.83,-58.97 831.3,-60.62 830.04,-53.73"/>
</a>
</g>
</g>
<!-- Node10 -->
<g id="Node000010" class="node">
<title>Node10</title>
<g id="a_Node000010"><a xlink:href="traverse__dir__ll_8c.html" target="_top" xlink:title=" ">
<polygon fill="white" stroke="#666666" points="1618.75,-18.5 1407.75,-18.5 1407.75,0 1618.75,0 1618.75,-18.5"/>
<text text-anchor="middle" x="1513.25" y="-5" font-family="Helvetica,sans-Serif" font-size="10.00">examples/traverse_dir_ll.c</text>
</a>
</g>
</g>
<!-- Node2&#45;&gt;Node10 -->
<g id="edge9_Node000002_Node000010" class="edge">
<title>Node2&#45;&gt;Node10</title>
<g id="a_edge9_Node000002_Node000010"><a xlink:title=" ">
<path fill="none" stroke="#63b8ff" d="M828.83,-57.29C835.02,-56.23 841.27,-55.27 847.25,-54.5 1091.1,-23.16 1153.98,-35.37 1399.25,-18.5 1401.92,-18.32 1404.63,-18.13 1407.36,-17.94"/>
<polygon fill="#63b8ff" stroke="#63b8ff" points="828.54,-53.79 819.32,-59.01 829.78,-60.68 828.54,-53.79"/>
</a>
</g>
</g>
</g>
</svg>
