<?xml version="1.0" encoding="UTF-8" standalone="no"?>
<!DOCTYPE svg PUBLIC "-//W3C//DTD SVG 1.1//EN"
 "http://www.w3.org/Graphics/SVG/1.1/DTD/svg11.dtd">
<!-- Generated by graphviz version 8.0.5 (20230430.1635)
 -->
<!-- Title: include/sqsh_error.h Pages: 1 -->
<svg width="291pt" height="287727pt"
 viewBox="0.00 0.00 290.76 287726.83" xmlns="http://www.w3.org/2000/svg" xmlns:xlink="http://www.w3.org/1999/xlink">
<g id="graph0" class="graph" transform="scale(1 1) rotate(0) translate(4 287722.83)">
<title>include/sqsh_error.h</title>
<!-- Node1 -->
<g id="node1" class="node">
<title>Node1</title>
<g id="a_node1"><a xlink:title=" ">
<polygon fill="#999999" stroke="#666666" points="233.76,-287718.83 67.76,-287718.83 67.76,-287700.33 233.76,-287700.33 233.76,-287718.83"/>
<text text-anchor="middle" x="150.76" y="-287705.33" font-family="Helvetica,sans-Serif" font-size="10.00">include/sqsh_error.h</text>
</a>
</g>
</g>
<!-- Node2 -->
<g id="node2" class="node">
<title>Node2</title>
<g id="a_node2"><a xlink:href="sqsh__common_8h.html" target="_top" xlink:title=" ">
<polygon fill="white" stroke="#666666" points="207.51,-287664.33 94.01,-287664.33 94.01,-287645.83 207.51,-287645.83 207.51,-287664.33"/>
<text text-anchor="middle" x="150.76" y="-287650.83" font-family="Helvetica,sans-Serif" font-size="10.00">sqsh_common.h</text>
</a>
</g>
</g>
<!-- Node1&#45;&gt;Node2 -->
<g id="edge1" class="edge">
<title>Node1&#45;&gt;Node2</title>
<path fill="none" stroke="#63b8ff" d="M150.76,-287699.91C150.76,-287693.26 150.76,-287683.82 150.76,-287675.41"/>
<polygon fill="#63b8ff" stroke="#63b8ff" points="154.26,-287675.59 150.76,-287665.59 147.26,-287675.59 154.26,-287675.59"/>
</g>
<!-- Node3 -->
<g id="node3" class="node">
<title>Node3</title>
<g id="a_node3"><a xlink:title=" ">
<polygon fill="#e0e0e0" stroke="#999999" points="94.51,-287609.8 11.01,-287609.8 11.01,-0.04 94.51,-0.04 94.51,-287609.8"/>
<text text-anchor="middle" x="52.76" y="-287596.3" font-family="Helvetica,sans-Serif" font-size="10.00">stdbool.h</text>
</a>
</g>
</g>
<!-- Node2&#45;&gt;Node3 -->
<g id="edge2" class="edge">
<title>Node2&#45;&gt;Node3</title>
<path fill="none" stroke="#63b8ff" d="M136.69,-287645.54C125.42,-287637.8 110.43,-287625.26 103.76,-287609.83 -9.51,-287347.73 -9.92,-240362.36 10.5,-200175.32"/>
<polygon fill="#63b8ff" stroke="#63b8ff" points="14.01,-200175.75 10.51,-200165.74 7.01,-200175.74 14.01,-200175.75"/>
</g>
<!-- Node4 -->
<g id="node4" class="node">
<title>Node4</title>
<g id="a_node4"><a xlink:title=" ">
<polygon fill="#e0e0e0" stroke="#999999" points="188.76,-287609.83 112.76,-287609.83 112.76,0 188.76,0 188.76,-287609.83"/>
<text text-anchor="middle" x="150.76" y="-287596.33" font-family="Helvetica,sans-Serif" font-size="10.00">stddef.h</text>
</a>
</g>
</g>
<!-- Node2&#45;&gt;Node4 -->
<g id="edge3" class="edge">
<title>Node2&#45;&gt;Node4</title>
<path fill="none" stroke="#63b8ff" d="M150.76,-287645.77C150.76,-287640.27 150.76,-287632.04 150.76,-287621.1"/>
<polygon fill="#63b8ff" stroke="#63b8ff" points="154.26,-287621.3 150.76,-287611.3 147.26,-287621.3 154.26,-287621.3"/>
</g>
<!-- Node5 -->
<g id="node5" class="node">
<title>Node5</title>
<g id="a_node5"><a xlink:title=" ">
<polygon fill="#e0e0e0" stroke="#999999" points="282.76,-143814.17 206.76,-143814.17 206.76,-143795.67 282.76,-143795.67 282.76,-143814.17"/>
<text text-anchor="middle" x="244.76" y="-143800.67" font-family="Helvetica,sans-Serif" font-size="10.00">stdint.h</text>
</a>
</g>
</g>
<!-- Node2&#45;&gt;Node5 -->
<g id="edge4" class="edge">
<title>Node2&#45;&gt;Node5</title>
<path fill="none" stroke="#63b8ff" d="M164.83,-287645.54C176.1,-287637.8 191.09,-287625.26 197.76,-287609.83 296.14,-287382.19 245.45,-145724.43 244.77,-143825.19"/>
<polygon fill="#63b8ff" stroke="#63b8ff" points="248.27,-143825.21 244.76,-143815.21 241.27,-143825.21 248.27,-143825.21"/>
</g>
</g>
</svg>
