<?xml version="1.0" encoding="UTF-8" standalone="no"?>
<!DOCTYPE svg PUBLIC "-//W3C//DTD SVG 1.1//EN"
 "http://www.w3.org/Graphics/SVG/1.1/DTD/svg11.dtd">
<!-- Generated by graphviz version 9.0.0 (20230911.1827)
 -->
<!-- Title: include/sqsh_archive.h Pages: 1 -->
<svg width="280pt" height="134012pt"
 viewBox="0.00 0.00 279.75 134011.50" xmlns="http://www.w3.org/2000/svg" xmlns:xlink="http://www.w3.org/1999/xlink">
<g id="graph0" class="graph" transform="scale(1 1) rotate(0) translate(4 134007.5)">
<title>include/sqsh_archive.h</title>
<!-- Node1 -->
<g id="Node000001" class="node">
<title>Node1</title>
<g id="a_Node000001"><a xlink:title=" ">
<polygon fill="#999999" stroke="#666666" points="230.25,-134003.5 49.25,-134003.5 49.25,-89285.39 230.25,-89285.39 230.25,-134003.5"/>
<text text-anchor="middle" x="139.75" y="-133990" font-family="Helvetica,sans-Serif" font-size="10.00">include/sqsh_archive.h</text>
</a>
</g>
</g>
<!-- Node2 -->
<g id="Node000002" class="node">
<title>Node2</title>
<g id="a_Node000002"><a xlink:href="sqsh__common_8h.html" target="_top" xlink:title=" ">
<polygon fill="white" stroke="#666666" points="196.5,-44717.35 83,-44717.35 83,-54.5 196.5,-54.5 196.5,-44717.35"/>
<text text-anchor="middle" x="139.75" y="-44703.85" font-family="Helvetica,sans-Serif" font-size="10.00">sqsh_common.h</text>
</a>
</g>
</g>
<!-- Node1&#45;&gt;Node2 -->
<g id="edge1_Node000001_Node000002" class="edge">
<title>Node1&#45;&gt;Node2</title>
<g id="a_edge1_Node000001_Node000002"><a xlink:title=" ">
<path fill="none" stroke="#63b8ff" d="M120.77,-89284.94C120.76,-89273.09 120.76,-89261.24 120.75,-89249.39 112.36,-69473.37 112.35,-64529.36 120.75,-44753.35 120.75,-44745.31 120.76,-44737.26 120.76,-44729.22"/>
<polygon fill="#63b8ff" stroke="#63b8ff" points="124.26,-44729.36 120.76,-44719.36 117.26,-44729.36 124.26,-44729.36"/>
</a>
</g>
</g>
<!-- Node6 -->
<g id="Node000006" class="node">
<title>Node6</title>
<g id="a_Node000006"><a xlink:href="sqsh__data_8h.html" target="_top" xlink:title=" ">
<polygon fill="white" stroke="#666666" points="228,-89249.39 129.5,-89249.39 129.5,-44753.35 228,-44753.35 228,-89249.39"/>
<text text-anchor="middle" x="178.75" y="-89235.89" font-family="Helvetica,sans-Serif" font-size="10.00">sqsh_data.h</text>
</a>
</g>
</g>
<!-- Node1&#45;&gt;Node6 -->
<g id="edge5_Node000001_Node000006" class="edge">
<title>Node1&#45;&gt;Node6</title>
<g id="a_edge5_Node000001_Node000006"><a xlink:title=" ">
<path fill="none" stroke="#63b8ff" d="M159.28,-89285.1C159.29,-89277.07 159.3,-89269.03 159.3,-89261"/>
<polygon fill="#63b8ff" stroke="#63b8ff" points="162.8,-89261.15 159.31,-89251.15 155.8,-89261.15 162.8,-89261.15"/>
</a>
</g>
</g>
<!-- Node3 -->
<g id="Node000003" class="node">
<title>Node3</title>
<g id="a_Node000003"><a xlink:title=" ">
<polygon fill="#e0e0e0" stroke="#999999" points="83.5,-18.5 0,-18.5 0,0 83.5,0 83.5,-18.5"/>
<text text-anchor="middle" x="41.75" y="-5" font-family="Helvetica,sans-Serif" font-size="10.00">stdbool.h</text>
</a>
</g>
</g>
<!-- Node2&#45;&gt;Node3 -->
<g id="edge2_Node000002_Node000003" class="edge">
<title>Node2&#45;&gt;Node3</title>
<g id="a_edge2_Node000002_Node000003"><a xlink:title=" ">
<path fill="none" stroke="#63b8ff" d="M82.5,-9314.1C61.87,-4603.7 43.25,-351.98 41.84,-29.83"/>
<polygon fill="#63b8ff" stroke="#63b8ff" points="45.34,-30.2 41.79,-20.22 38.34,-30.23 45.34,-30.2"/>
</a>
</g>
</g>
<!-- Node4 -->
<g id="Node000004" class="node">
<title>Node4</title>
<g id="a_Node000004"><a xlink:title=" ">
<polygon fill="#e0e0e0" stroke="#999999" points="177.75,-18.5 101.75,-18.5 101.75,0 177.75,0 177.75,-18.5"/>
<text text-anchor="middle" x="139.75" y="-5" font-family="Helvetica,sans-Serif" font-size="10.00">stddef.h</text>
</a>
</g>
</g>
<!-- Node2&#45;&gt;Node4 -->
<g id="edge3_Node000002_Node000004" class="edge">
<title>Node2&#45;&gt;Node4</title>
<g id="a_edge3_Node000002_Node000004"><a xlink:title=" ">
<path fill="none" stroke="#63b8ff" d="M139.75,-54.02C139.75,-44.48 139.75,-36.48 139.75,-30.03"/>
<polygon fill="#63b8ff" stroke="#63b8ff" points="143.25,-30.22 139.75,-20.22 136.25,-30.22 143.25,-30.22"/>
</a>
</g>
</g>
<!-- Node5 -->
<g id="Node000005" class="node">
<title>Node5</title>
<g id="a_Node000005"><a xlink:title=" ">
<polygon fill="#e0e0e0" stroke="#999999" points="271.75,-18.5 195.75,-18.5 195.75,0 271.75,0 271.75,-18.5"/>
<text text-anchor="middle" x="233.75" y="-5" font-family="Helvetica,sans-Serif" font-size="10.00">stdint.h</text>
</a>
</g>
</g>
<!-- Node2&#45;&gt;Node5 -->
<g id="edge4_Node000002_Node000005" class="edge">
<title>Node2&#45;&gt;Node5</title>
<g id="a_edge4_Node000002_Node000005"><a xlink:title=" ">
<path fill="none" stroke="#63b8ff" d="M197,-8758.02C215.83,-4275.59 232.35,-342.41 233.67,-30.2"/>
<polygon fill="#63b8ff" stroke="#63b8ff" points="237.17,-30.21 233.71,-20.2 230.17,-30.19 237.17,-30.21"/>
</a>
</g>
</g>
<!-- Node6&#45;&gt;Node2 -->
<g id="edge6_Node000006_Node000002" class="edge">
<title>Node6&#45;&gt;Node2</title>
<g id="a_edge6_Node000006_Node000002"><a xlink:title=" ">
<path fill="none" stroke="#63b8ff" d="M159.3,-44752.87C159.29,-44745.03 159.29,-44737.18 159.28,-44729.33"/>
<polygon fill="#63b8ff" stroke="#63b8ff" points="162.78,-44729.35 159.27,-44719.35 155.78,-44729.35 162.78,-44729.35"/>
</a>
</g>
</g>
</g>
</svg>
