<?xml version="1.0" encoding="UTF-8" standalone="no"?>
<!DOCTYPE svg PUBLIC "-//W3C//DTD SVG 1.1//EN"
 "http://www.w3.org/Graphics/SVG/1.1/DTD/svg11.dtd">
<!-- Generated by graphviz version 9.0.0 (20230911.1827)
 -->
<!-- Title: include/sqsh_easy.h Pages: 1 -->
<!--zoomable 654940 -->

<svg id="main" version="1.1" xmlns="http://www.w3.org/2000/svg" xmlns:xlink="http://www.w3.org/1999/xlink" xml:space="preserve" onload="init(evt)">
<style type="text/css"><![CDATA[
.node, .edge {opacity: 0.7;}
.node.selected, .edge.selected {opacity: 1;}
.edge:hover path { stroke: red; }
.edge:hover polygon { stroke: red; fill: red; }
]]></style>

<defs>
  <circle id="rim" cx="0" cy="0" r="7"/>
  <circle id="rim2" cx="0" cy="0" r="3.5"/>
  <g id="zoomPlus">
    <use xlink:href="#rim" fill="#404040"><set attributeName="fill" to="#808080" begin="zoomplus.mouseover" end="zoomplus.mouseout"/></use>
    <path d="M-4,0h8M0,-4v8" fill="none" stroke="white" stroke-width="1.5" pointer-events="none"/>
  </g>
  <g id="zoomMin">
    <use xlink:href="#rim" fill="#404040"><set attributeName="fill" to="#808080" begin="zoomminus.mouseover" end="zoomminus.mouseout"/></use>
    <path d="M-4,0h8" fill="none" stroke="white" stroke-width="1.5" pointer-events="none"/>
  </g>
  <g id="arrowUp" transform="translate(30 24)">
    <use xlink:href="#rim"/>
    <path pointer-events="none" fill="none" stroke="white" stroke-width="1.5" d="M0,-3.0v7 M-2.5,-0.5L0,-3.0L2.5,-0.5"/>
  </g>
  <g id="arrowRight" transform="rotate(90) translate(36 -43)">
    <use xlink:href="#rim"/>
    <path pointer-events="none" fill="none" stroke="white" stroke-width="1.5" d="M0,-3.0v7 M-2.5,-0.5L0,-3.0L2.5,-0.5"/>
  </g>
  <g id="arrowDown" transform="rotate(180) translate(-30 -48)">
    <use xlink:href="#rim"/>
    <path pointer-events="none" fill="none" stroke="white" stroke-width="1.5" d="M0,-3.0v7 M-2.5,-0.5L0,-3.0L2.5,-0.5"/>
  </g>
  <g id="arrowLeft" transform="rotate(270) translate(-36 17)">
    <use xlink:href="#rim"/>
    <path pointer-events="none" fill="none" stroke="white" stroke-width="1.5" d="M0,-3.0v7 M-2.5,-0.5L0,-3.0L2.5,-0.5"/>
  </g>
  <g id="resetDef">
    <use xlink:href="#rim2" fill="#404040"><set attributeName="fill" to="#808080" begin="reset.mouseover" end="reset.mouseout"/></use>
  </g>
</defs>
<script type="application/ecmascript">
var viewWidth = 2049;
var viewHeight = 654940;
var sectionId = 'dynsection-1';
</script>
<script type="application/ecmascript" xlink:href="svg.min.js"/>
<svg id="graph" class="graph">
<g id="viewport">
<title>include/sqsh_easy.h</title>
<!-- Node1 -->
<g id="Node000001" class="node">
<title>Node1</title>
<g id="a_Node000001"><a xlink:title=" ">
<polygon fill="#999999" stroke="#666666" points="1071.97,-654931.7 913.47,-654931.7 913.47,-654913.2 1071.97,-654913.2 1071.97,-654931.7"/>
<text text-anchor="middle" x="992.72" y="-654918.2" font-family="Helvetica,sans-Serif" font-size="10.00">include/sqsh_easy.h</text>
</a>
</g>
</g>
<!-- Node2 -->
<g id="Node000002" class="node">
<title>Node2</title>
<g id="a_Node000002"><a xlink:href="sqsh_8h.html" target="_top" xlink:title=" ">
<polygon fill="white" stroke="#666666" points="1053.22,-654877.2 932.22,-654877.2 932.22,-654858.7 1053.22,-654858.7 1053.22,-654877.2"/>
<text text-anchor="middle" x="992.72" y="-654863.7" font-family="Helvetica,sans-Serif" font-size="10.00">include/sqsh.h</text>
</a>
</g>
</g>
<!-- Node1&#45;&gt;Node2 -->
<g id="edge1_Node000001_Node000002" class="edge">
<title>Node1&#45;&gt;Node2</title>
<g id="a_edge1_Node000001_Node000002"><a xlink:title=" ">
<path fill="none" stroke="#63b8ff" d="M992.72,-654901.34C992.72,-654893.05 992.72,-654883.91 992.72,-654877.46"/>
<polygon fill="#63b8ff" stroke="#63b8ff" points="989.22,-654901.27 992.72,-654911.27 996.22,-654901.27 989.22,-654901.27"/>
</a>
</g>
</g>
<!-- Node3 -->
<g id="Node000003" class="node">
<title>Node3</title>
<g id="a_Node000003"><a xlink:href="custom__mapper_8c.html" target="_top" xlink:title=" ">
<polygon fill="white" stroke="#666666" points="197.72,-327420.6 1.72,-327420.6 1.72,-327402.1 197.72,-327402.1 197.72,-327420.6"/>
<text text-anchor="middle" x="99.72" y="-327407.1" font-family="Helvetica,sans-Serif" font-size="10.00">examples/custom_mapper.c</text>
</a>
</g>
</g>
<!-- Node2&#45;&gt;Node3 -->
<g id="edge2_Node000002_Node000003" class="edge">
<title>Node2&#45;&gt;Node3</title>
<g id="a_edge2_Node000002_Node000003"><a xlink:title=" ">
<path fill="none" stroke="#63b8ff" d="M920.48,-654865.54C730.71,-654861.49 231.04,-654848.42 206.72,-654822.7 -182.68,-654410.9 98.07,-329325.55 99.71,-327420.75"/>
<polygon fill="#63b8ff" stroke="#63b8ff" points="920.39,-654869.04 930.47,-654865.75 920.54,-654862.04 920.39,-654869.04"/>
</a>
</g>
</g>
<!-- Node4 -->
<g id="Node000004" class="node">
<title>Node4</title>
<g id="a_Node000004"><a xlink:href="list__dir_8c.html" target="_top" xlink:title=" ">
<polygon fill="white" stroke="#666666" points="373.97,-654822.66 215.47,-654822.66 215.47,-0.04 373.97,-0.04 373.97,-654822.66"/>
<text text-anchor="middle" x="294.72" y="-654809.16" font-family="Helvetica,sans-Serif" font-size="10.00">examples/list_dir.c</text>
</a>
</g>
</g>
<!-- Node2&#45;&gt;Node4 -->
<g id="edge3_Node000002_Node000004" class="edge">
<title>Node2&#45;&gt;Node4</title>
<g id="a_edge3_Node000002_Node000004"><a xlink:title=" ">
<path fill="none" stroke="#63b8ff" d="M920.58,-654867.1C766.99,-654866.66 418.69,-654861.36 382.72,-654822.7 379.91,-654819.67 377.16,-654747.5 374.47,-654608.2"/>
<polygon fill="#63b8ff" stroke="#63b8ff" points="920.22,-654870.6 930.22,-654867.12 920.23,-654863.6 920.22,-654870.6"/>
</a>
</g>
</g>
<!-- Node5 -->
<g id="Node000005" class="node">
<title>Node5</title>
<g id="a_Node000005"><a xlink:href="list__dir__ll_8c.html" target="_top" xlink:title=" ">
<polygon fill="white" stroke="#666666" points="573.22,-654822.7 392.22,-654822.7 392.22,0 573.22,0 573.22,-654822.7"/>
<text text-anchor="middle" x="482.72" y="-654809.2" font-family="Helvetica,sans-Serif" font-size="10.00">examples/list_dir_ll.c</text>
</a>
</g>
</g>
<!-- Node2&#45;&gt;Node5 -->
<g id="edge4_Node000002_Node000005" class="edge">
<title>Node2&#45;&gt;Node5</title>
<g id="a_edge4_Node000002_Node000005"><a xlink:title=" ">
<path fill="none" stroke="#63b8ff" d="M920.79,-654864.33C808.98,-654859.52 603.92,-654847.41 581.72,-654822.7 386.63,-654605.54 365.81,-568255.01 391.72,-484299.72"/>
<polygon fill="#63b8ff" stroke="#63b8ff" points="920.32,-654867.82 930.46,-654864.74 920.61,-654860.82 920.32,-654867.82"/>
</a>
</g>
</g>
<!-- Node6 -->
<g id="Node000006" class="node">
<title>Node6</title>
<g id="a_Node000006"><a xlink:href="list__xattrs_8c.html" target="_top" xlink:title=" ">
<polygon fill="white" stroke="#666666" points="772.22,-327420.6 591.22,-327420.6 591.22,-327402.1 772.22,-327402.1 772.22,-327420.6"/>
<text text-anchor="middle" x="681.72" y="-327407.1" font-family="Helvetica,sans-Serif" font-size="10.00">examples/list_xattrs.c</text>
</a>
</g>
</g>
<!-- Node2&#45;&gt;Node6 -->
<g id="edge5_Node000002_Node000006" class="edge">
<title>Node2&#45;&gt;Node6</title>
<g id="a_edge5_Node000002_Node000006"><a xlink:title=" ">
<path fill="none" stroke="#63b8ff" d="M920.45,-654861.46C866.15,-654855.66 798.24,-654844.25 780.72,-654822.7 423.18,-654382.96 680.21,-329325.38 681.72,-327420.75"/>
<polygon fill="#63b8ff" stroke="#63b8ff" points="920,-654864.94 930.3,-654862.46 920.71,-654857.97 920,-654864.94"/>
</a>
</g>
</g>
<!-- Node7 -->
<g id="Node000007" class="node">
<title>Node7</title>
<g id="a_Node000007"><a xlink:href="list__xattrs__ll_8c.html" target="_top" xlink:title=" ">
<polygon fill="white" stroke="#666666" points="993.47,-327420.6 789.97,-327420.6 789.97,-327402.1 993.47,-327402.1 993.47,-327420.6"/>
<text text-anchor="middle" x="891.72" y="-327407.1" font-family="Helvetica,sans-Serif" font-size="10.00">examples/list_xattrs_ll.c</text>
</a>
</g>
</g>
<!-- Node2&#45;&gt;Node7 -->
<g id="edge6_Node000002_Node000007" class="edge">
<title>Node2&#45;&gt;Node7</title>
<g id="a_edge6_Node000002_Node000007"><a xlink:title=" ">
<path fill="none" stroke="#63b8ff" d="M992.72,-654847.05C991.82,-651930.54 892.32,-329353.58 891.72,-327421.07"/>
<polygon fill="#63b8ff" stroke="#63b8ff" points="989.22,-654847.02 992.72,-654857.02 996.22,-654847.02 989.22,-654847.02"/>
</a>
</g>
</g>
<!-- Node8 -->
<g id="Node000008" class="node">
<title>Node8</title>
<g id="a_Node000008"><a xlink:href="read__file_8c.html" target="_top" xlink:title=" ">
<polygon fill="white" stroke="#666666" points="1177.72,-327420.6 1011.72,-327420.6 1011.72,-327402.1 1177.72,-327402.1 1177.72,-327420.6"/>
<text text-anchor="middle" x="1094.72" y="-327407.1" font-family="Helvetica,sans-Serif" font-size="10.00">examples/read_file.c</text>
</a>
</g>
</g>
<!-- Node2&#45;&gt;Node8 -->
<g id="edge7_Node000002_Node000008" class="edge">
<title>Node2&#45;&gt;Node8</title>
<g id="a_edge7_Node000002_Node000008"><a xlink:title=" ">
<path fill="none" stroke="#63b8ff" d="M998.16,-654847.23C1000,-654839.63 1001.81,-654830.82 1002.72,-654822.7 1254.43,-652569.83 1095.68,-329354.33 1094.73,-327421.06"/>
<polygon fill="#63b8ff" stroke="#63b8ff" points="994.81,-654846.21 995.68,-654856.77 1001.59,-654847.97 994.81,-654846.21"/>
</a>
</g>
</g>
<!-- Node9 -->
<g id="Node000009" class="node">
<title>Node9</title>
<g id="a_Node000009"><a xlink:href="read__file__ll_8c.html" target="_top" xlink:title=" ">
<polygon fill="white" stroke="#666666" points="1383.97,-327432.57 1195.47,-327432.57 1195.47,-327390.13 1383.97,-327390.13 1383.97,-327432.57"/>
<text text-anchor="middle" x="1289.72" y="-327419.07" font-family="Helvetica,sans-Serif" font-size="10.00">examples/read_file_ll.c</text>
</a>
</g>
</g>
<!-- Node2&#45;&gt;Node9 -->
<g id="edge8_Node000002_Node000009" class="edge">
<title>Node2&#45;&gt;Node9</title>
<g id="a_edge8_Node000002_Node000009"><a xlink:title=" ">
<path fill="none" stroke="#63b8ff" d="M1064.83,-654859.84C1113.46,-654853.38 1171.43,-654841.86 1186.72,-654822.7 1539.61,-654380.41 1292.01,-330398.97 1289.74,-327432.84"/>
<polygon fill="#63b8ff" stroke="#63b8ff" points="1064.64,-654856.33 1055.16,-654861.07 1065.52,-654863.28 1064.64,-654856.33"/>
</a>
</g>
</g>
<!-- Node10 -->
<g id="Node000010" class="node">
<title>Node10</title>
<g id="a_Node000010"><a xlink:href="readme__example_8c.html" target="_top" xlink:title=" ">
<polygon fill="white" stroke="#666666" points="1605.47,-327424.35 1401.97,-327424.35 1401.97,-327398.35 1605.47,-327398.35 1605.47,-327424.35"/>
<text text-anchor="middle" x="1503.72" y="-327410.85" font-family="Helvetica,sans-Serif" font-size="10.00">examples/readme_example.c</text>
</a>
</g>
</g>
<!-- Node2&#45;&gt;Node10 -->
<g id="edge9_Node000002_Node000010" class="edge">
<title>Node2&#45;&gt;Node10</title>
<g id="a_edge9_Node000002_Node000010"><a xlink:title=" ">
<path fill="none" stroke="#63b8ff" d="M1064.78,-654864.1C1174.04,-654859.02 1371.28,-654846.64 1392.72,-654822.7 1770.65,-654400.81 1505.61,-329723.35 1503.73,-327424.61"/>
<polygon fill="#63b8ff" stroke="#63b8ff" points="1064.86,-654860.59 1055.03,-654864.54 1065.18,-654867.58 1064.86,-654860.59"/>
</a>
</g>
</g>
<!-- Node11 -->
<g id="Node000011" class="node">
<title>Node11</title>
<g id="a_Node000011"><a xlink:href="traverse__dir_8c.html" target="_top" xlink:title=" ">
<polygon fill="white" stroke="#666666" points="1811.97,-327420.6 1623.47,-327420.6 1623.47,-327402.1 1811.97,-327402.1 1811.97,-327420.6"/>
<text text-anchor="middle" x="1717.72" y="-327407.1" font-family="Helvetica,sans-Serif" font-size="10.00">examples/traverse_dir.c</text>
</a>
</g>
</g>
<!-- Node2&#45;&gt;Node11 -->
<g id="edge10_Node000002_Node000011" class="edge">
<title>Node2&#45;&gt;Node11</title>
<g id="a_edge10_Node000002_Node000011"><a xlink:title=" ">
<path fill="none" stroke="#63b8ff" d="M1064.85,-654867.21C1220.71,-654867.01 1577.91,-654862.21 1614.72,-654822.7 2001.06,-654408.03 1719.38,-329325.53 1717.73,-327420.75"/>
<polygon fill="#63b8ff" stroke="#63b8ff" points="1065.04,-654863.71 1055.04,-654867.21 1065.05,-654870.71 1065.04,-654863.71"/>
</a>
</g>
</g>
<!-- Node12 -->
<g id="Node000012" class="node">
<title>Node12</title>
<g id="a_Node000012"><a xlink:href="traverse__dir__ll_8c.html" target="_top" xlink:title=" ">
<polygon fill="white" stroke="#666666" points="2041.22,-327420.6 1830.22,-327420.6 1830.22,-327402.1 2041.22,-327402.1 2041.22,-327420.6"/>
<text text-anchor="middle" x="1935.72" y="-327407.1" font-family="Helvetica,sans-Serif" font-size="10.00">examples/traverse_dir_ll.c</text>
</a>
</g>
</g>
<!-- Node2&#45;&gt;Node12 -->
<g id="edge11_Node000002_Node000012" class="edge">
<title>Node2&#45;&gt;Node12</title>
<g id="a_edge11_Node000002_Node000012"><a xlink:title=" ">
<path fill="none" stroke="#63b8ff" d="M1065.07,-654865.75C1262.04,-654862.15 1794.91,-654849.92 1820.72,-654822.7 2210.71,-654411.46 1937.33,-329325.55 1935.73,-327420.75"/>
<polygon fill="#63b8ff" stroke="#63b8ff" points="1065.16,-654862.25 1055.22,-654865.93 1065.28,-654869.25 1065.16,-654862.25"/>
</a>
</g>
</g>
</g>
</svg>

<g id="navigator" transform="translate(0 0)" fill="#404254">
  <rect fill="#f2f5e9" fill-opacity="0.5" stroke="#606060" stroke-width=".5" x="0" y="0" width="60" height="60"/>
  <use id="zoomplus" xlink:href="#zoomPlus" x="17" y="9" onmousedown="handleZoom(evt,'in')"/>
  <use id="zoomminus" xlink:href="#zoomMin" x="42" y="9" onmousedown="handleZoom(evt,'out')"/>
  <use id="reset" xlink:href="#resetDef" x="30" y="36" onmousedown="handleReset()"/>
   <use id="arrowup" xlink:href="#arrowUp" x="0" y="0" onmousedown="handlePan(0,-1)"/>
  <use id="arrowright" xlink:href="#arrowRight" x="0" y="0" onmousedown="handlePan(1,0)"/>
  <use id="arrowdown" xlink:href="#arrowDown" x="0" y="0" onmousedown="handlePan(0,1)"/>
  <use id="arrowleft" xlink:href="#arrowLeft" x="0" y="0" onmousedown="handlePan(-1,0)"/>
</g>
<svg viewBox="0 0 15 15" width="100%" height="30px" preserveAspectRatio="xMaxYMin meet">
 <g id="arrow_out" transform="scale(0.3 0.3)">
  <a xlink:href="sqsh__easy_8h__dep__incl_org.svg" target="_base">
   <rect id="button" ry="5" rx="5" y="6" x="6" height="38" width="38"
        fill="#f2f5e9" fill-opacity="0.5" stroke="#606060" stroke-width="1.0"/>
   <path id="arrow"
     d="M 11.500037,31.436501 C 11.940474,20.09759 22.043105,11.32322 32.158766,21.979434 L 37.068811,17.246167 C 37.068811,17.246167 37.088388,32 37.088388,32 L 22.160133,31.978069 C 22.160133,31.978069 26.997745,27.140456 26.997745,27.140456 C 18.528582,18.264221 13.291696,25.230495 11.500037,31.436501 z"
     style="fill:#404040;"/>
  </a>
 </g>
</svg>

<style type='text/css'>
<![CDATA[
[data-mouse-over-selected='false'] { opacity: 0.7; }
[data-mouse-over-selected='true']  { opacity: 1.0; }
]]>
</style>
<script type="application/ecmascript"><![CDATA[
document.addEventListener('DOMContentLoaded', (event) => {
  highlightEdges();
  highlightAdjacentNodes();
});
]]></script>
</svg>
