<?xml version="1.0" encoding="UTF-8" standalone="no"?>
<!DOCTYPE svg PUBLIC "-//W3C//DTD SVG 1.1//EN"
 "http://www.w3.org/Graphics/SVG/1.1/DTD/svg11.dtd">
<!-- Generated by graphviz version 9.0.0 (20230911.1827)
 -->
<!-- Title: libsqsh/include/sqsh_xattr_private.h Pages: 1 -->
<!--zoomable 924642 -->

<svg id="main" version="1.1" xmlns="http://www.w3.org/2000/svg" xmlns:xlink="http://www.w3.org/1999/xlink" xml:space="preserve" onload="init(evt)">
<style type="text/css"><![CDATA[
.node, .edge {opacity: 0.7;}
.node.selected, .edge.selected {opacity: 1;}
.edge:hover path { stroke: red; }
.edge:hover polygon { stroke: red; fill: red; }
]]></style>

<defs>
  <circle id="rim" cx="0" cy="0" r="7"/>
  <circle id="rim2" cx="0" cy="0" r="3.5"/>
  <g id="zoomPlus">
    <use xlink:href="#rim" fill="#404040"><set attributeName="fill" to="#808080" begin="zoomplus.mouseover" end="zoomplus.mouseout"/></use>
    <path d="M-4,0h8M0,-4v8" fill="none" stroke="white" stroke-width="1.5" pointer-events="none"/>
  </g>
  <g id="zoomMin">
    <use xlink:href="#rim" fill="#404040"><set attributeName="fill" to="#808080" begin="zoomminus.mouseover" end="zoomminus.mouseout"/></use>
    <path d="M-4,0h8" fill="none" stroke="white" stroke-width="1.5" pointer-events="none"/>
  </g>
  <g id="arrowUp" transform="translate(30 24)">
    <use xlink:href="#rim"/>
    <path pointer-events="none" fill="none" stroke="white" stroke-width="1.5" d="M0,-3.0v7 M-2.5,-0.5L0,-3.0L2.5,-0.5"/>
  </g>
  <g id="arrowRight" transform="rotate(90) translate(36 -43)">
    <use xlink:href="#rim"/>
    <path pointer-events="none" fill="none" stroke="white" stroke-width="1.5" d="M0,-3.0v7 M-2.5,-0.5L0,-3.0L2.5,-0.5"/>
  </g>
  <g id="arrowDown" transform="rotate(180) translate(-30 -48)">
    <use xlink:href="#rim"/>
    <path pointer-events="none" fill="none" stroke="white" stroke-width="1.5" d="M0,-3.0v7 M-2.5,-0.5L0,-3.0L2.5,-0.5"/>
  </g>
  <g id="arrowLeft" transform="rotate(270) translate(-36 17)">
    <use xlink:href="#rim"/>
    <path pointer-events="none" fill="none" stroke="white" stroke-width="1.5" d="M0,-3.0v7 M-2.5,-0.5L0,-3.0L2.5,-0.5"/>
  </g>
  <g id="resetDef">
    <use xlink:href="#rim2" fill="#404040"><set attributeName="fill" to="#808080" begin="reset.mouseover" end="reset.mouseout"/></use>
  </g>
</defs>
<script type="application/ecmascript">
var viewWidth = 1081;
var viewHeight = 924642;
var sectionId = 'dynsection-0';
</script>
<script type="application/ecmascript" xlink:href="svg.min.js"/>
<svg id="graph" class="graph">
<g id="viewport">
<title>libsqsh/include/sqsh_xattr_private.h</title>
<!-- Node1 -->
<g id="Node000001" class="node">
<title>Node1</title>
<g id="a_Node000001"><a xlink:title=" ">
<polygon fill="#999999" stroke="#666666" points="735.75,-924634.03 569.75,-924634.03 569.75,-924605.03 735.75,-924605.03 735.75,-924634.03"/>
<text text-anchor="start" x="577.75" y="-924620.53" font-family="Helvetica,sans-Serif" font-size="10.00">libsqsh/include/sqsh</text>
<text text-anchor="middle" x="652.75" y="-924610.03" font-family="Helvetica,sans-Serif" font-size="10.00">_xattr_private.h</text>
</a>
</g>
</g>
<!-- Node2 -->
<g id="Node000002" class="node">
<title>Node2</title>
<g id="a_Node000002"><a xlink:href="sqsh__metablock__private_8h.html" target="_top" xlink:title=" ">
<polygon fill="white" stroke="#666666" points="551.75,-924557.1 355.75,-924557.1 355.75,-924538.6 551.75,-924538.6 551.75,-924557.1"/>
<text text-anchor="middle" x="453.75" y="-924543.6" font-family="Helvetica,sans-Serif" font-size="10.00">sqsh_metablock_private.h</text>
</a>
</g>
</g>
<!-- Node1&#45;&gt;Node2 -->
<g id="edge1_Node000001_Node000002" class="edge">
<title>Node1&#45;&gt;Node2</title>
<g id="a_edge1_Node000001_Node000002"><a xlink:title=" ">
<path fill="none" stroke="#63b8ff" d="M612.96,-924604.6C576.83,-924591.95 524.03,-924573.46 489.29,-924561.3"/>
<polygon fill="#63b8ff" stroke="#63b8ff" points="490.71,-924558.09 480.12,-924558.09 488.4,-924564.69 490.71,-924558.09"/>
</a>
</g>
</g>
<!-- Node14 -->
<g id="Node000014" class="node">
<title>Node14</title>
<g id="a_Node000014"><a xlink:href="sqsh__table__private_8h.html" target="_top" xlink:title=" ">
<polygon fill="white" stroke="#666666" points="735.75,-924569.03 569.75,-924569.03 569.75,-924526.67 735.75,-924526.67 735.75,-924569.03"/>
<text text-anchor="middle" x="652.75" y="-924555.53" font-family="Helvetica,sans-Serif" font-size="10.00">sqsh_table_private.h</text>
</a>
</g>
</g>
<!-- Node1&#45;&gt;Node14 -->
<g id="edge16_Node000001_Node000014" class="edge">
<title>Node1&#45;&gt;Node14</title>
<g id="a_edge16_Node000001_Node000014"><a xlink:title=" ">
<path fill="none" stroke="#63b8ff" d="M652.75,-924604.77C652.75,-924597.92 652.75,-924589.33 652.75,-924580.96"/>
<polygon fill="#63b8ff" stroke="#63b8ff" points="656.25,-924580.98 652.75,-924570.98 649.25,-924580.98 656.25,-924580.98"/>
</a>
</g>
</g>
<!-- Node16 -->
<g id="Node000016" class="node">
<title>Node16</title>
<g id="a_Node000016"><a xlink:href="sqsh__xattr_8h.html" target="_top" xlink:title=" ">
<polygon fill="white" stroke="#666666" points="908.75,-770526.36 802.75,-770526.36 802.75,-770507.86 908.75,-770507.86 908.75,-770526.36"/>
<text text-anchor="middle" x="855.75" y="-770512.86" font-family="Helvetica,sans-Serif" font-size="10.00">sqsh_xattr.h</text>
</a>
</g>
</g>
<!-- Node1&#45;&gt;Node16 -->
<g id="edge21_Node000001_Node000016" class="edge">
<title>Node1&#45;&gt;Node16</title>
<g id="a_edge21_Node000001_Node000016"><a xlink:title=" ">
<path fill="none" stroke="#63b8ff" d="M688.26,-924604.68C706.6,-924596.31 728.47,-924584.28 744.75,-924569.03 774.73,-924540.95 782.41,-924530.15 793.75,-924490.67 1380.06,-922448.75 862.65,-772511.42 855.82,-770537.77"/>
<polygon fill="#63b8ff" stroke="#63b8ff" points="859.32,-770537.91 855.78,-770527.92 852.32,-770537.93 859.32,-770537.91"/>
</a>
</g>
</g>
<!-- Node3 -->
<g id="Node000003" class="node">
<title>Node3</title>
<g id="a_Node000003"><a xlink:href="sqsh__extract__private_8h.html" target="_top" xlink:title=" ">
<polygon fill="white" stroke="#666666" points="660.25,-770526.36 479.25,-770526.36 479.25,-770507.86 660.25,-770507.86 660.25,-770526.36"/>
<text text-anchor="middle" x="569.75" y="-770512.86" font-family="Helvetica,sans-Serif" font-size="10.00">sqsh_extract_private.h</text>
</a>
</g>
</g>
<!-- Node2&#45;&gt;Node3 -->
<g id="edge2_Node000002_Node000003" class="edge">
<title>Node2&#45;&gt;Node3</title>
<g id="a_edge2_Node000002_Node000003"><a xlink:title=" ">
<path fill="none" stroke="#63b8ff" d="M457.21,-924538.28C461.39,-924527.41 468.18,-924508.01 470.75,-924490.67 782.42,-922389.23 572.55,-772510.64 569.78,-770537.76"/>
<polygon fill="#63b8ff" stroke="#63b8ff" points="573.28,-770537.91 569.76,-770527.92 566.28,-770537.92 573.28,-770537.91"/>
</a>
</g>
</g>
<!-- Node11 -->
<g id="Node000011" class="node">
<title>Node11</title>
<g id="a_Node000011"><a xlink:href="sqsh__mapper__private_8h.html" target="_top" xlink:title=" ">
<polygon fill="white" stroke="#666666" points="461.5,-924490.67 288,-924490.67 288,-616543.55 461.5,-616543.55 461.5,-924490.67"/>
<text text-anchor="middle" x="374.75" y="-924477.17" font-family="Helvetica,sans-Serif" font-size="10.00">sqsh_mapper_private.h</text>
</a>
</g>
</g>
<!-- Node2&#45;&gt;Node11 -->
<g id="edge10_Node000002_Node000011" class="edge">
<title>Node2&#45;&gt;Node11</title>
<g id="a_edge10_Node000002_Node000011"><a xlink:title=" ">
<path fill="none" stroke="#63b8ff" d="M453.75,-924538.44C453.74,-924531.12 453.74,-924519.03 453.73,-924502.23"/>
<polygon fill="#63b8ff" stroke="#63b8ff" points="457.23,-924502.68 453.72,-924492.68 450.23,-924502.68 457.23,-924502.68"/>
</a>
</g>
</g>
<!-- Node4 -->
<g id="Node000004" class="node">
<title>Node4</title>
<g id="a_Node000004"><a xlink:title=" ">
<polygon fill="#e0e0e0" stroke="#999999" points="673.75,-616507.55 507.75,-616507.55 507.75,-616465.19 673.75,-616465.19 673.75,-616507.55"/>
<text text-anchor="middle" x="590.75" y="-616494.05" font-family="Helvetica,sans-Serif" font-size="10.00">cextras/collection.h</text>
</a>
</g>
</g>
<!-- Node3&#45;&gt;Node4 -->
<g id="edge3_Node000003_Node000004" class="edge">
<title>Node3&#45;&gt;Node4</title>
<g id="a_edge3_Node000003_Node000004"><a xlink:title=" ">
<path fill="none" stroke="#63b8ff" d="M569.75,-770507.7C569.93,-769213.66 590.4,-619027.39 590.75,-616519.14"/>
<polygon fill="#63b8ff" stroke="#63b8ff" points="594.25,-616519.44 590.75,-616509.44 587.25,-616519.44 594.25,-616519.44"/>
</a>
</g>
</g>
<!-- Node5 -->
<g id="Node000005" class="node">
<title>Node5</title>
<g id="a_Node000005"><a xlink:href="sqsh__data_8h.html" target="_top" xlink:title=" ">
<polygon fill="white" stroke="#666666" points="790,-616499.37 691.5,-616499.37 691.5,-616473.37 790,-616473.37 790,-616499.37"/>
<text text-anchor="middle" x="740.75" y="-616485.87" font-family="Helvetica,sans-Serif" font-size="10.00">sqsh_data.h</text>
</a>
</g>
</g>
<!-- Node3&#45;&gt;Node5 -->
<g id="edge4_Node000003_Node000005" class="edge">
<title>Node3&#45;&gt;Node5</title>
<g id="a_edge4_Node000003_Node000005"><a xlink:title=" ">
<path fill="none" stroke="#63b8ff" d="M569.74,-770507.73C568.62,-769207.33 437.71,-617022.66 669.75,-616543.55 677.43,-616527.69 692.01,-616514.94 705.96,-616505.63"/>
<polygon fill="#63b8ff" stroke="#63b8ff" points="707.51,-616508.79 714.14,-616500.53 703.8,-616502.84 707.51,-616508.79"/>
</a>
</g>
</g>
<!-- Node10 -->
<g id="Node000010" class="node">
<title>Node10</title>
<g id="a_Node000010"><a xlink:title=" ">
<polygon fill="#e0e0e0" stroke="#999999" points="489.75,-616495.62 323.75,-616495.62 323.75,-616477.12 489.75,-616477.12 489.75,-616495.62"/>
<text text-anchor="middle" x="406.75" y="-616482.12" font-family="Helvetica,sans-Serif" font-size="10.00">sqsh_utils_private.h</text>
</a>
</g>
</g>
<!-- Node3&#45;&gt;Node10 -->
<g id="edge9_Node000003_Node000010" class="edge">
<title>Node3&#45;&gt;Node10</title>
<g id="a_edge9_Node000003_Node000010"><a xlink:title=" ">
<path fill="none" stroke="#63b8ff" d="M569.76,-770507.73C570.78,-769207.38 690.49,-617028.42 470.75,-616543.55 462.82,-616526.04 446.44,-616511.83 432.23,-616502.08"/>
<polygon fill="#63b8ff" stroke="#63b8ff" points="434.46,-616499.34 424.15,-616496.87 430.67,-616505.23 434.46,-616499.34"/>
</a>
</g>
</g>
<!-- Node6 -->
<g id="Node000006" class="node">
<title>Node6</title>
<g id="a_Node000006"><a xlink:href="sqsh__common_8h.html" target="_top" xlink:title=" ">
<polygon fill="white" stroke="#666666" points="797.5,-616429.19 684,-616429.19 684,-308232.5 797.5,-308232.5 797.5,-616429.19"/>
<text text-anchor="middle" x="740.75" y="-616415.69" font-family="Helvetica,sans-Serif" font-size="10.00">sqsh_common.h</text>
</a>
</g>
</g>
<!-- Node5&#45;&gt;Node6 -->
<g id="edge5_Node000005_Node000006" class="edge">
<title>Node5&#45;&gt;Node6</title>
<g id="a_edge5_Node000005_Node000006"><a xlink:title=" ">
<path fill="none" stroke="#63b8ff" d="M740.75,-616472.96C740.75,-616465.57 740.75,-616454.89 740.75,-616440.95"/>
<polygon fill="#63b8ff" stroke="#63b8ff" points="744.25,-616441.16 740.75,-616431.16 737.25,-616441.16 744.25,-616441.16"/>
</a>
</g>
</g>
<!-- Node7 -->
<g id="Node000007" class="node">
<title>Node7</title>
<g id="a_Node000007"><a xlink:title=" ">
<polygon fill="#e0e0e0" stroke="#999999" points="831.5,-308196.5 748,-308196.5 748,0 831.5,0 831.5,-308196.5"/>
<text text-anchor="middle" x="789.75" y="-308183" font-family="Helvetica,sans-Serif" font-size="10.00">stdbool.h</text>
</a>
</g>
</g>
<!-- Node6&#45;&gt;Node7 -->
<g id="edge6_Node000006_Node000007" class="edge">
<title>Node6&#45;&gt;Node7</title>
<g id="a_edge6_Node000006_Node000007"><a xlink:title=" ">
<path fill="none" stroke="#63b8ff" d="M765.25,-308232.18C765.25,-308224.19 765.25,-308216.2 765.25,-308208.21"/>
<polygon fill="#63b8ff" stroke="#63b8ff" points="768.75,-308208.42 765.25,-308198.42 761.75,-308208.42 768.75,-308208.42"/>
</a>
</g>
</g>
<!-- Node8 -->
<g id="Node000008" class="node">
<title>Node8</title>
<g id="a_Node000008"><a xlink:title=" ">
<polygon fill="#e0e0e0" stroke="#999999" points="536.75,-154111.25 460.75,-154111.25 460.75,-154085.25 536.75,-154085.25 536.75,-154111.25"/>
<text text-anchor="middle" x="498.75" y="-154097.75" font-family="Helvetica,sans-Serif" font-size="10.00">stddef.h</text>
</a>
</g>
</g>
<!-- Node6&#45;&gt;Node8 -->
<g id="edge7_Node000006_Node000008" class="edge">
<title>Node6&#45;&gt;Node8</title>
<g id="a_edge7_Node000006_Node000008"><a xlink:title=" ">
<path fill="none" stroke="#63b8ff" d="M683.5,-389412.02C612.48,-298948.65 500.43,-156240.19 498.77,-154123.08"/>
<polygon fill="#63b8ff" stroke="#63b8ff" points="502.27,-154123.21 498.76,-154113.21 495.27,-154123.21 502.27,-154123.21"/>
</a>
</g>
</g>
<!-- Node9 -->
<g id="Node000009" class="node">
<title>Node9</title>
<g id="a_Node000009"><a xlink:title=" ">
<polygon fill="#e0e0e0" stroke="#999999" points="729.75,-154107.5 653.75,-154107.5 653.75,-154089 729.75,-154089 729.75,-154107.5"/>
<text text-anchor="middle" x="691.75" y="-154094" font-family="Helvetica,sans-Serif" font-size="10.00">stdint.h</text>
</a>
</g>
</g>
<!-- Node6&#45;&gt;Node9 -->
<g id="edge8_Node000006_Node000009" class="edge">
<title>Node6&#45;&gt;Node9</title>
<g id="a_edge8_Node000006_Node000009"><a xlink:title=" ">
<path fill="none" stroke="#63b8ff" d="M716.25,-308232.18C704.12,-231886.78 691.98,-155535.61 691.75,-154119.27"/>
<polygon fill="#63b8ff" stroke="#63b8ff" points="695.25,-154119.36 691.75,-154109.36 688.25,-154119.36 695.25,-154119.36"/>
</a>
</g>
</g>
<!-- Node11&#45;&gt;Node10 -->
<g id="edge15_Node000011_Node000010" class="edge">
<title>Node11&#45;&gt;Node10</title>
<g id="a_edge15_Node000011_Node000010"><a xlink:title=" ">
<path fill="none" stroke="#63b8ff" d="M406.74,-616543.35C406.74,-616528.3 406.74,-616516.27 406.75,-616507.27"/>
<polygon fill="#63b8ff" stroke="#63b8ff" points="410.25,-616507.46 406.75,-616497.46 403.25,-616507.46 410.25,-616507.46"/>
</a>
</g>
</g>
<!-- Node12 -->
<g id="Node000012" class="node">
<title>Node12</title>
<g id="a_Node000012"><a xlink:href="sqsh__mapper_8h.html" target="_top" xlink:title=" ">
<polygon fill="white" stroke="#666666" points="305.5,-616495.62 192,-616495.62 192,-616477.12 305.5,-616477.12 305.5,-616495.62"/>
<text text-anchor="middle" x="248.75" y="-616482.12" font-family="Helvetica,sans-Serif" font-size="10.00">sqsh_mapper.h</text>
</a>
</g>
</g>
<!-- Node11&#45;&gt;Node12 -->
<g id="edge11_Node000011_Node000012" class="edge">
<title>Node11&#45;&gt;Node12</title>
<g id="a_edge11_Node000011_Node000012"><a xlink:title=" ">
<path fill="none" stroke="#63b8ff" d="M287.5,-663857.35C266.26,-637895.38 249.36,-617237.42 248.77,-616507.34"/>
<polygon fill="#63b8ff" stroke="#63b8ff" points="252.27,-616507.48 248.76,-616497.48 245.27,-616507.48 252.27,-616507.48"/>
</a>
</g>
</g>
<!-- Node13 -->
<g id="Node000013" class="node">
<title>Node13</title>
<g id="a_Node000013"><a xlink:title=" ">
<polygon fill="#e0e0e0" stroke="#999999" points="173.5,-616499.37 0,-616499.37 0,-616473.37 173.5,-616473.37 173.5,-616499.37"/>
<text text-anchor="middle" x="86.75" y="-616485.87" font-family="Helvetica,sans-Serif" font-size="10.00">sqsh_reader_private.h</text>
</a>
</g>
</g>
<!-- Node11&#45;&gt;Node13 -->
<g id="edge14_Node000011_Node000013" class="edge">
<title>Node11&#45;&gt;Node13</title>
<g id="a_edge14_Node000011_Node000013"><a xlink:title=" ">
<path fill="none" stroke="#63b8ff" d="M287.5,-723852.94C203.7,-679034.51 89.37,-617890.48 86.79,-616511.13"/>
<polygon fill="#63b8ff" stroke="#63b8ff" points="90.29,-616511.28 86.78,-616501.29 83.29,-616511.29 90.29,-616511.28"/>
</a>
</g>
</g>
<!-- Node12&#45;&gt;Node6 -->
<g id="edge12_Node000012_Node000006" class="edge">
<title>Node12&#45;&gt;Node6</title>
<g id="a_edge12_Node000012_Node000006"><a xlink:title=" ">
<path fill="none" stroke="#63b8ff" d="M265.12,-616476.74C280.89,-616467.4 303.79,-616450.88 313.75,-616429.19 987.48,-614961.75 887.67,-527997.03 798.02,-485377.2"/>
<polygon fill="#63b8ff" stroke="#63b8ff" points="801.52,-485377.49 798,-485367.5 794.52,-485377.51 801.52,-485377.49"/>
</a>
</g>
</g>
<!-- Node12&#45;&gt;Node8 -->
<g id="edge13_Node000012_Node000008" class="edge">
<title>Node12&#45;&gt;Node8</title>
<g id="a_edge13_Node000012_Node000008"><a xlink:title=" ">
<path fill="none" stroke="#63b8ff" d="M248.75,-616476.7C249.99,-614183.62 496.69,-157907.17 498.74,-154122.92"/>
<polygon fill="#63b8ff" stroke="#63b8ff" points="502.24,-154123.09 498.74,-154113.08 495.24,-154123.08 502.24,-154123.09"/>
</a>
</g>
</g>
<!-- Node14&#45;&gt;Node3 -->
<g id="edge17_Node000014_Node000003" class="edge">
<title>Node14&#45;&gt;Node3</title>
<g id="a_edge17_Node000014_Node000003"><a xlink:title=" ">
<path fill="none" stroke="#63b8ff" d="M652.74,-924526.49C651.66,-922517.53 570.82,-772512.32 569.76,-770537.78"/>
<polygon fill="#63b8ff" stroke="#63b8ff" points="573.26,-770537.92 569.76,-770527.92 566.26,-770537.93 573.26,-770537.92"/>
</a>
</g>
</g>
<!-- Node14&#45;&gt;Node11 -->
<g id="edge18_Node000014_Node000011" class="edge">
<title>Node14&#45;&gt;Node11</title>
<g id="a_edge18_Node000014_Node000011"><a xlink:title=" ">
<path fill="none" stroke="#63b8ff" d="M569.87,-924526.22C524.54,-924514.1 476.26,-924499.47 469.75,-924490.67 9.19,-923867.91 166.03,-843351.1 287.47,-799016.36"/>
<polygon fill="#63b8ff" stroke="#63b8ff" points="290.97,-799016.47 287.5,-799006.46 283.97,-799016.45 290.97,-799016.47"/>
</a>
</g>
</g>
<!-- Node15 -->
<g id="Node000015" class="node">
<title>Node15</title>
<g id="a_Node000015"><a xlink:href="sqsh__table_8h.html" target="_top" xlink:title=" ">
<polygon fill="white" stroke="#666666" points="784.75,-770526.36 678.75,-770526.36 678.75,-770507.86 784.75,-770507.86 784.75,-770526.36"/>
<text text-anchor="middle" x="731.75" y="-770512.86" font-family="Helvetica,sans-Serif" font-size="10.00">sqsh_table.h</text>
</a>
</g>
</g>
<!-- Node14&#45;&gt;Node15 -->
<g id="edge19_Node000014_Node000015" class="edge">
<title>Node14&#45;&gt;Node15</title>
<g id="a_edge19_Node000014_Node000015"><a xlink:title=" ">
<path fill="none" stroke="#63b8ff" d="M660.07,-924526.34C663.44,-924515.82 667.06,-924502.72 668.75,-924490.67 815.85,-923438.69 732.86,-772524.45 731.76,-770537.9"/>
<polygon fill="#63b8ff" stroke="#63b8ff" points="735.26,-770537.97 731.76,-770527.97 728.26,-770537.98 735.26,-770537.97"/>
</a>
</g>
</g>
<!-- Node15&#45;&gt;Node6 -->
<g id="edge20_Node000015_Node000006" class="edge">
<title>Node15&#45;&gt;Node6</title>
<g id="a_edge20_Node000015_Node000006"><a xlink:title=" ">
<path fill="none" stroke="#63b8ff" d="M731.75,-770507.82C731.02,-769221.39 646.51,-618667.82 793.75,-616543.55 794.87,-616527.43 797.64,-616523.66 798.75,-616507.55 800.05,-616488.77 798.75,-616484.01 798.75,-616465.19 798.51,-615198.11 798.26,-613925.17 798,-612647.02"/>
<polygon fill="#63b8ff" stroke="#63b8ff" points="801.5,-612647.26 798,-612637.27 794.5,-612647.27 801.5,-612647.26"/>
</a>
</g>
</g>
<!-- Node16&#45;&gt;Node5 -->
<g id="edge23_Node000016_Node000005" class="edge">
<title>Node16&#45;&gt;Node5</title>
<g id="a_edge23_Node000016_Node000005"><a xlink:title=" ">
<path fill="none" stroke="#63b8ff" d="M855.77,-770507.76C858.58,-769211.69 1187.02,-617532.94 793.75,-616543.55 788.14,-616529.43 777.12,-616516.81 766.57,-616507.12"/>
<polygon fill="#63b8ff" stroke="#63b8ff" points="768.96,-616504.56 759.1,-616500.69 764.4,-616509.87 768.96,-616504.56"/>
</a>
</g>
</g>
<!-- Node16&#45;&gt;Node6 -->
<g id="edge22_Node000016_Node000006" class="edge">
<title>Node16&#45;&gt;Node6</title>
<g id="a_edge22_Node000016_Node000006"><a xlink:title=" ">
<path fill="none" stroke="#63b8ff" d="M855.75,-770507.68C855.56,-769534.63 839.15,-684539.45 813.75,-616465.19 809.09,-603973.49 803.7,-590912.32 798,-577904.75"/>
<polygon fill="#63b8ff" stroke="#63b8ff" points="801.51,-577904.94 798,-577894.94 794.51,-577904.95 801.51,-577904.94"/>
</a>
</g>
</g>
</g>
</svg>

<g id="navigator" transform="translate(0 0)" fill="#404254">
  <rect fill="#f2f5e9" fill-opacity="0.5" stroke="#606060" stroke-width=".5" x="0" y="0" width="60" height="60"/>
  <use id="zoomplus" xlink:href="#zoomPlus" x="17" y="9" onmousedown="handleZoom(evt,'in')"/>
  <use id="zoomminus" xlink:href="#zoomMin" x="42" y="9" onmousedown="handleZoom(evt,'out')"/>
  <use id="reset" xlink:href="#resetDef" x="30" y="36" onmousedown="handleReset()"/>
   <use id="arrowup" xlink:href="#arrowUp" x="0" y="0" onmousedown="handlePan(0,-1)"/>
  <use id="arrowright" xlink:href="#arrowRight" x="0" y="0" onmousedown="handlePan(1,0)"/>
  <use id="arrowdown" xlink:href="#arrowDown" x="0" y="0" onmousedown="handlePan(0,1)"/>
  <use id="arrowleft" xlink:href="#arrowLeft" x="0" y="0" onmousedown="handlePan(-1,0)"/>
</g>
<svg viewBox="0 0 15 15" width="100%" height="30px" preserveAspectRatio="xMaxYMin meet">
 <g id="arrow_out" transform="scale(0.3 0.3)">
  <a xlink:href="sqsh__xattr__private_8h__incl_org.svg" target="_base">
   <rect id="button" ry="5" rx="5" y="6" x="6" height="38" width="38"
        fill="#f2f5e9" fill-opacity="0.5" stroke="#606060" stroke-width="1.0"/>
   <path id="arrow"
     d="M 11.500037,31.436501 C 11.940474,20.09759 22.043105,11.32322 32.158766,21.979434 L 37.068811,17.246167 C 37.068811,17.246167 37.088388,32 37.088388,32 L 22.160133,31.978069 C 22.160133,31.978069 26.997745,27.140456 26.997745,27.140456 C 18.528582,18.264221 13.291696,25.230495 11.500037,31.436501 z"
     style="fill:#404040;"/>
  </a>
 </g>
</svg>

<style type='text/css'>
<![CDATA[
[data-mouse-over-selected='false'] { opacity: 0.7; }
[data-mouse-over-selected='true']  { opacity: 1.0; }
]]>
</style>
<script type="application/ecmascript"><![CDATA[
document.addEventListener('DOMContentLoaded', (event) => {
  highlightEdges();
  highlightAdjacentNodes();
});
]]></script>
</svg>
