<?xml version="1.0" encoding="UTF-8" standalone="no"?>
<!DOCTYPE svg PUBLIC "-//W3C//DTD SVG 1.1//EN"
 "http://www.w3.org/Graphics/SVG/1.1/DTD/svg11.dtd">
<!-- Generated by graphviz version 9.0.0 (20230911.1827)
 -->
<!-- Title: include/sqsh_posix.h Pages: 1 -->
<svg width="343pt" height="2543448pt"
 viewBox="0.00 0.00 343.16 2543448.03" xmlns="http://www.w3.org/2000/svg" xmlns:xlink="http://www.w3.org/1999/xlink">
<g id="graph0" class="graph" transform="scale(1 1) rotate(0) translate(4 2543444.03)">
<title>include/sqsh_posix.h</title>
<!-- Node1 -->
<g id="Node000001" class="node">
<title>Node1</title>
<g id="a_Node000001"><a xlink:title=" ">
<polygon fill="#999999" stroke="#666666" points="313.75,-2543440.03 147.75,-2543440.03 147.75,-2543421.53 313.75,-2543421.53 313.75,-2543440.03"/>
<text text-anchor="middle" x="230.75" y="-2543426.53" font-family="Helvetica,sans-Serif" font-size="10.00">include/sqsh_posix.h</text>
</a>
</g>
</g>
<!-- Node2 -->
<g id="Node000002" class="node">
<title>Node2</title>
<g id="a_Node000002"><a xlink:href="sqsh__common_8h.html" target="_top" xlink:title=" ">
<polygon fill="white" stroke="#666666" points="200.5,-2543385.53 87,-2543385.53 87,-1271710.62 200.5,-1271710.62 200.5,-2543385.53"/>
<text text-anchor="middle" x="143.75" y="-2543372.03" font-family="Helvetica,sans-Serif" font-size="10.00">sqsh_common.h</text>
</a>
</g>
</g>
<!-- Node1&#45;&gt;Node2 -->
<g id="edge1_Node000001_Node000002" class="edge">
<title>Node1&#45;&gt;Node2</title>
<g id="a_edge1_Node000001_Node000002"><a xlink:title=" ">
<path fill="none" stroke="#63b8ff" d="M227.15,-2543421.16C223.69,-2543412.37 218.72,-2543398.27 216.75,-2543385.53 -6.15,-2541942.59 33.84,-2264323.33 86.5,-2076444.27"/>
<polygon fill="#63b8ff" stroke="#63b8ff" points="90,-2076444.5 86.5,-2076434.5 83,-2076444.5 90,-2076444.5"/>
</a>
</g>
</g>
<!-- Node5 -->
<g id="Node000005" class="node">
<title>Node5</title>
<g id="a_Node000005"><a xlink:title=" ">
<polygon fill="#e0e0e0" stroke="#999999" points="271.75,-1271674.62 195.75,-1271674.62 195.75,0 271.75,0 271.75,-1271674.62"/>
<text text-anchor="middle" x="233.75" y="-1271661.12" font-family="Helvetica,sans-Serif" font-size="10.00">stdint.h</text>
</a>
</g>
</g>
<!-- Node1&#45;&gt;Node5 -->
<g id="edge5_Node000001_Node000005" class="edge">
<title>Node1&#45;&gt;Node5</title>
<g id="a_edge5_Node000001_Node000005"><a xlink:title=" ">
<path fill="none" stroke="#63b8ff" d="M230.75,-2543421.26C230.75,-2540575.36 231.88,-1825411.43 232.75,-1271686.32"/>
<polygon fill="#63b8ff" stroke="#63b8ff" points="236.25,-1271686.34 232.75,-1271676.34 229.25,-1271686.34 236.25,-1271686.34"/>
</a>
</g>
</g>
<!-- Node6 -->
<g id="Node000006" class="node">
<title>Node6</title>
<g id="a_Node000006"><a xlink:title=" ">
<polygon fill="#e0e0e0" stroke="#999999" points="327,-1907557.33 258.5,-1907557.33 258.5,-1907538.83 327,-1907538.83 327,-1907557.33"/>
<text text-anchor="middle" x="292.75" y="-1907543.83" font-family="Helvetica,sans-Serif" font-size="10.00">stdio.h</text>
</a>
</g>
</g>
<!-- Node1&#45;&gt;Node6 -->
<g id="edge6_Node000001_Node000006" class="edge">
<title>Node1&#45;&gt;Node6</title>
<g id="a_edge6_Node000001_Node000006"><a xlink:title=" ">
<path fill="none" stroke="#63b8ff" d="M234.35,-2543421.16C237.81,-2543412.37 242.78,-2543398.27 244.75,-2543385.53 412.71,-2542298.11 293.53,-1911646.11 292.75,-1907568.93"/>
<polygon fill="#63b8ff" stroke="#63b8ff" points="296.25,-1907569.27 292.75,-1907559.27 289.25,-1907569.27 296.25,-1907569.27"/>
</a>
</g>
</g>
<!-- Node3 -->
<g id="Node000003" class="node">
<title>Node3</title>
<g id="a_Node000003"><a xlink:title=" ">
<polygon fill="#e0e0e0" stroke="#999999" points="83.5,-1271581.19 0,-1271581.19 0,-93.43 83.5,-93.43 83.5,-1271581.19"/>
<text text-anchor="middle" x="41.75" y="-1271567.69" font-family="Helvetica,sans-Serif" font-size="10.00">stdbool.h</text>
</a>
</g>
</g>
<!-- Node2&#45;&gt;Node3 -->
<g id="edge2_Node000002_Node000003" class="edge">
<title>Node2&#45;&gt;Node3</title>
<g id="a_edge2_Node000002_Node000003"><a xlink:title=" ">
<path fill="none" stroke="#63b8ff" d="M92.75,-1271710.43C89.82,-1235183.34 86.89,-1198656.17 84,-1162611.09"/>
<polygon fill="#63b8ff" stroke="#63b8ff" points="87.5,-1162611.46 84,-1162601.46 80.5,-1162611.46 87.5,-1162611.46"/>
</a>
</g>
</g>
<!-- Node4 -->
<g id="Node000004" class="node">
<title>Node4</title>
<g id="a_Node000004"><a xlink:title=" ">
<polygon fill="#e0e0e0" stroke="#999999" points="177.75,-635846.56 101.75,-635846.56 101.75,-635828.06 177.75,-635828.06 177.75,-635846.56"/>
<text text-anchor="middle" x="139.75" y="-635833.06" font-family="Helvetica,sans-Serif" font-size="10.00">stddef.h</text>
</a>
</g>
</g>
<!-- Node2&#45;&gt;Node4 -->
<g id="edge3_Node000002_Node000004" class="edge">
<title>Node2&#45;&gt;Node4</title>
<g id="a_edge3_Node000002_Node000004"><a xlink:title=" ">
<path fill="none" stroke="#63b8ff" d="M141.75,-1271710.43C140.75,-955231.2 139.76,-638746.11 139.75,-635858.23"/>
<polygon fill="#63b8ff" stroke="#63b8ff" points="143.25,-635858.35 139.75,-635848.35 136.25,-635858.35 143.25,-635858.35"/>
</a>
</g>
</g>
<!-- Node2&#45;&gt;Node5 -->
<g id="edge4_Node000002_Node000005" class="edge">
<title>Node2&#45;&gt;Node5</title>
<g id="a_edge4_Node000002_Node000005"><a xlink:title=" ">
<path fill="none" stroke="#63b8ff" d="M188.75,-1271710.43C190.92,-1240997.55 193.1,-1210284.61 195.25,-1179858.23"/>
<polygon fill="#63b8ff" stroke="#63b8ff" points="198.75,-1179858.25 195.25,-1179848.25 191.75,-1179858.25 198.75,-1179858.25"/>
</a>
</g>
</g>
</g>
</svg>
