<?xml version="1.0" encoding="UTF-8" standalone="no"?>
<!DOCTYPE svg PUBLIC "-//W3C//DTD SVG 1.1//EN"
 "http://www.w3.org/Graphics/SVG/1.1/DTD/svg11.dtd">
<!-- Generated by graphviz version 9.0.0 (20230911.1827)
 -->
<!-- Title: include/sqsh_data.h Pages: 1 -->
<!--zoomable 6086929 -->

<svg id="main" version="1.1" xmlns="http://www.w3.org/2000/svg" xmlns:xlink="http://www.w3.org/1999/xlink" xml:space="preserve" onload="init(evt)">
<style type="text/css"><![CDATA[
.node, .edge {opacity: 0.7;}
.node.selected, .edge.selected {opacity: 1;}
.edge:hover path { stroke: red; }
.edge:hover polygon { stroke: red; fill: red; }
]]></style>

<defs>
  <circle id="rim" cx="0" cy="0" r="7"/>
  <circle id="rim2" cx="0" cy="0" r="3.5"/>
  <g id="zoomPlus">
    <use xlink:href="#rim" fill="#404040"><set attributeName="fill" to="#808080" begin="zoomplus.mouseover" end="zoomplus.mouseout"/></use>
    <path d="M-4,0h8M0,-4v8" fill="none" stroke="white" stroke-width="1.5" pointer-events="none"/>
  </g>
  <g id="zoomMin">
    <use xlink:href="#rim" fill="#404040"><set attributeName="fill" to="#808080" begin="zoomminus.mouseover" end="zoomminus.mouseout"/></use>
    <path d="M-4,0h8" fill="none" stroke="white" stroke-width="1.5" pointer-events="none"/>
  </g>
  <g id="arrowUp" transform="translate(30 24)">
    <use xlink:href="#rim"/>
    <path pointer-events="none" fill="none" stroke="white" stroke-width="1.5" d="M0,-3.0v7 M-2.5,-0.5L0,-3.0L2.5,-0.5"/>
  </g>
  <g id="arrowRight" transform="rotate(90) translate(36 -43)">
    <use xlink:href="#rim"/>
    <path pointer-events="none" fill="none" stroke="white" stroke-width="1.5" d="M0,-3.0v7 M-2.5,-0.5L0,-3.0L2.5,-0.5"/>
  </g>
  <g id="arrowDown" transform="rotate(180) translate(-30 -48)">
    <use xlink:href="#rim"/>
    <path pointer-events="none" fill="none" stroke="white" stroke-width="1.5" d="M0,-3.0v7 M-2.5,-0.5L0,-3.0L2.5,-0.5"/>
  </g>
  <g id="arrowLeft" transform="rotate(270) translate(-36 17)">
    <use xlink:href="#rim"/>
    <path pointer-events="none" fill="none" stroke="white" stroke-width="1.5" d="M0,-3.0v7 M-2.5,-0.5L0,-3.0L2.5,-0.5"/>
  </g>
  <g id="resetDef">
    <use xlink:href="#rim2" fill="#404040"><set attributeName="fill" to="#808080" begin="reset.mouseover" end="reset.mouseout"/></use>
  </g>
</defs>
<script type="application/ecmascript">
var viewWidth = 2546;
var viewHeight = 6086929;
var sectionId = 'dynsection-1';
</script>
<script type="application/ecmascript" xlink:href="svg.min.js"/>
<svg id="graph" class="graph">
<g id="viewport">
<title>include/sqsh_data.h</title>
<!-- Node1 -->
<g id="Node000001" class="node">
<title>Node1</title>
<g id="a_Node000001"><a xlink:title=" ">
<polygon fill="#999999" stroke="#666666" points="1765.07,-6086920.58 1606.57,-6086920.58 1606.57,-6086902.08 1765.07,-6086902.08 1765.07,-6086920.58"/>
<text text-anchor="middle" x="1685.82" y="-6086907.08" font-family="Helvetica,sans-Serif" font-size="10.00">include/sqsh_data.h</text>
</a>
</g>
</g>
<!-- Node2 -->
<g id="Node000002" class="node">
<title>Node2</title>
<g id="a_Node000002"><a xlink:href="sqsh__archive_8h.html" target="_top" xlink:title=" ">
<polygon fill="white" stroke="#666666" points="1277.32,-6086866.08 1096.32,-6086866.08 1096.32,-4852392.86 1277.32,-4852392.86 1277.32,-6086866.08"/>
<text text-anchor="middle" x="1186.82" y="-6086852.58" font-family="Helvetica,sans-Serif" font-size="10.00">include/sqsh_archive.h</text>
</a>
</g>
</g>
<!-- Node1&#45;&gt;Node2 -->
<g id="edge1_Node000001_Node000002" class="edge">
<title>Node1&#45;&gt;Node2</title>
<g id="a_edge1_Node000001_Node000002"><a xlink:title=" ">
<path fill="none" stroke="#63b8ff" d="M1635.52,-6086897.79C1619.39,-6086891.13 1603.27,-6086881.1 1593.82,-6086866.08 -374.31,-6083737.8 749,-5627108.65 1095.82,-5501363.49"/>
<polygon fill="#63b8ff" stroke="#63b8ff" points="1634.04,-6086900.98 1644.63,-6086901.17 1636.47,-6086894.41 1634.04,-6086900.98"/>
</a>
</g>
</g>
<!-- Node15 -->
<g id="Node000015" class="node">
<title>Node15</title>
<g id="a_Node000015"><a xlink:href="sqsh__xattr_8h.html" target="_top" xlink:title=" ">
<polygon fill="white" stroke="#666666" points="1768.82,-5469638.72 1602.82,-5469638.72 1602.82,-5469620.22 1768.82,-5469620.22 1768.82,-5469638.72"/>
<text text-anchor="middle" x="1685.82" y="-5469625.22" font-family="Helvetica,sans-Serif" font-size="10.00">include/sqsh_xattr.h</text>
</a>
</g>
</g>
<!-- Node1&#45;&gt;Node15 -->
<g id="edge14_Node000001_Node000015" class="edge">
<title>Node1&#45;&gt;Node15</title>
<g id="a_edge14_Node000001_Node000015"><a xlink:title=" ">
<path fill="none" stroke="#63b8ff" d="M1685.82,-6086890.69C1685.82,-6082900.09 1685.82,-5472250.78 1685.82,-5469638.88"/>
<polygon fill="#63b8ff" stroke="#63b8ff" points="1682.32,-6086890.38 1685.82,-6086900.38 1689.32,-6086890.38 1682.32,-6086890.38"/>
</a>
</g>
</g>
<!-- Node17 -->
<g id="Node000017" class="node">
<title>Node17</title>
<g id="a_Node000017"><a xlink:href="sqsh__extract__private_8h.html" target="_top" xlink:title=" ">
<polygon fill="white" stroke="#666666" points="2334.82,-5469643.97 2168.82,-5469643.97 2168.82,-5469614.97 2334.82,-5469614.97 2334.82,-5469643.97"/>
<text text-anchor="start" x="2176.82" y="-5469630.47" font-family="Helvetica,sans-Serif" font-size="10.00">libsqsh/include/sqsh</text>
<text text-anchor="middle" x="2251.82" y="-5469619.97" font-family="Helvetica,sans-Serif" font-size="10.00">_extract_private.h</text>
</a>
</g>
</g>
<!-- Node1&#45;&gt;Node17 -->
<g id="edge18_Node000001_Node000017" class="edge">
<title>Node1&#45;&gt;Node17</title>
<g id="a_edge18_Node000001_Node000017"><a xlink:title=" ">
<path fill="none" stroke="#63b8ff" d="M1736.12,-6086897.79C1752.25,-6086891.13 1768.37,-6086881.1 1777.82,-6086866.08 2916.06,-6085057.1 2255.47,-5473006.46 2251.84,-5469644.38"/>
<polygon fill="#63b8ff" stroke="#63b8ff" points="1735.17,-6086894.41 1727.01,-6086901.17 1737.6,-6086900.98 1735.17,-6086894.41"/>
</a>
</g>
</g>
<!-- Node3 -->
<g id="Node000003" class="node">
<title>Node3</title>
<g id="a_Node000003"><a xlink:href="sqsh_8h.html" target="_top" xlink:title=" ">
<polygon fill="white" stroke="#666666" points="1247.32,-4852356.86 1126.32,-4852356.86 1126.32,-3617645.03 1247.32,-3617645.03 1247.32,-4852356.86"/>
<text text-anchor="middle" x="1186.82" y="-4852343.36" font-family="Helvetica,sans-Serif" font-size="10.00">include/sqsh.h</text>
</a>
</g>
</g>
<!-- Node2&#45;&gt;Node3 -->
<g id="edge2_Node000002_Node000003" class="edge">
<title>Node2&#45;&gt;Node3</title>
<g id="a_edge2_Node000002_Node000003"><a xlink:title=" ">
<path fill="none" stroke="#63b8ff" d="M1186.82,-4852381.16C1186.82,-4852373.16 1186.82,-4852365.16 1186.82,-4852357.15"/>
<polygon fill="#63b8ff" stroke="#63b8ff" points="1183.32,-4852380.97 1186.82,-4852390.97 1190.32,-4852380.97 1183.32,-4852380.97"/>
</a>
</g>
</g>
<!-- Node14 -->
<g id="Node000014" class="node">
<title>Node14</title>
<g id="a_Node000014"><a xlink:href="sqsh__archive__private_8h.html" target="_top" xlink:title=" ">
<polygon fill="white" stroke="#666666" points="2298.82,-2383100.09 2132.82,-2383100.09 2132.82,-65 2298.82,-65 2298.82,-2383100.09"/>
<text text-anchor="start" x="2140.82" y="-2383086.59" font-family="Helvetica,sans-Serif" font-size="10.00">libsqsh/include/sqsh</text>
<text text-anchor="middle" x="2215.82" y="-1234524.44" font-family="Helvetica,sans-Serif" font-size="10.00">_archive_private.h</text>
</a>
</g>
</g>
<!-- Node2&#45;&gt;Node14 -->
<g id="edge13_Node000002_Node000014" class="edge">
<title>Node2&#45;&gt;Node14</title>
<g id="a_edge13_Node000002_Node000014"><a xlink:title=" ">
<path fill="none" stroke="#63b8ff" d="M1095.81,-5358118.35C865.85,-5070098.91 265.59,-4277687.56 65.82,-3617609.03 24.31,-3480445.38 -57.93,-2520299.7 65.82,-2383136.09 479.45,-1924661.52 1788.31,-1366958.87 2132.32,-1225462.1"/>
<polygon fill="#63b8ff" stroke="#63b8ff" points="1092.31,-5358117.97 1095.82,-5358127.96 1099.31,-5358117.96 1092.31,-5358117.97"/>
</a>
</g>
</g>
<!-- Node4 -->
<g id="Node000004" class="node">
<title>Node4</title>
<g id="a_Node000004"><a xlink:href="custom__mapper_8c.html" target="_top" xlink:title=" ">
<polygon fill="white" stroke="#666666" points="1938.82,-3000381.81 1742.82,-3000381.81 1742.82,-3000363.31 1938.82,-3000363.31 1938.82,-3000381.81"/>
<text text-anchor="middle" x="1840.82" y="-3000368.31" font-family="Helvetica,sans-Serif" font-size="10.00">examples/custom_mapper.c</text>
</a>
</g>
</g>
<!-- Node3&#45;&gt;Node4 -->
<g id="edge3_Node000003_Node000004" class="edge">
<title>Node3&#45;&gt;Node4</title>
<g id="a_edge3_Node000003_Node000004"><a xlink:title=" ">
<path fill="none" stroke="#63b8ff" d="M1247.83,-4180648.24C1365.67,-4073125.1 1622.63,-3825650.51 1732.82,-3617609.03 1877.71,-3344069.14 1841.03,-3002340.37 1840.82,-3000382.02"/>
<polygon fill="#63b8ff" stroke="#63b8ff" points="1244.33,-4180648.1 1247.82,-4180658.11 1251.33,-4180648.11 1244.33,-4180648.1"/>
</a>
</g>
</g>
<!-- Node5 -->
<g id="Node000005" class="node">
<title>Node5</title>
<g id="a_Node000005"><a xlink:href="list__dir_8c.html" target="_top" xlink:title=" ">
<polygon fill="white" stroke="#666666" points="2115.07,-3000381.81 1956.57,-3000381.81 1956.57,-3000363.31 2115.07,-3000363.31 2115.07,-3000381.81"/>
<text text-anchor="middle" x="2035.82" y="-3000368.31" font-family="Helvetica,sans-Serif" font-size="10.00">examples/list_dir.c</text>
</a>
</g>
</g>
<!-- Node3&#45;&gt;Node5 -->
<g id="edge4_Node000003_Node000005" class="edge">
<title>Node3&#45;&gt;Node5</title>
<g id="a_edge4_Node000003_Node000005"><a xlink:title=" ">
<path fill="none" stroke="#63b8ff" d="M1125.79,-4211600.35C843.38,-4099290.07 -236.21,-3620793.98 1861.82,-3617645.03 1884.8,-3617610.55 1924.86,-3617643.52 1947.82,-3617609.03 2244.06,-3617163.95 2036.71,-3003005.96 2035.82,-3000381.99"/>
<polygon fill="#63b8ff" stroke="#63b8ff" points="1122.29,-4211600.09 1125.82,-4211610.08 1129.29,-4211600.07 1122.29,-4211600.09"/>
</a>
</g>
</g>
<!-- Node6 -->
<g id="Node000006" class="node">
<title>Node6</title>
<g id="a_Node000006"><a xlink:href="list__dir__ll_8c.html" target="_top" xlink:title=" ">
<polygon fill="white" stroke="#666666" points="256.32,-3000381.81 75.32,-3000381.81 75.32,-3000363.31 256.32,-3000363.31 256.32,-3000381.81"/>
<text text-anchor="middle" x="165.82" y="-3000368.31" font-family="Helvetica,sans-Serif" font-size="10.00">examples/list_dir_ll.c</text>
</a>
</g>
</g>
<!-- Node3&#45;&gt;Node6 -->
<g id="edge5_Node000003_Node000006" class="edge">
<title>Node3&#45;&gt;Node6</title>
<g id="a_edge5_Node000003_Node000006"><a xlink:title=" ">
<path fill="none" stroke="#63b8ff" d="M1125.8,-4203935.93C951.29,-4113493.83 450.79,-3842509.9 264.82,-3617609.03 38.63,-3344069.19 165.09,-3002340.37 165.82,-3000382.02"/>
<polygon fill="#63b8ff" stroke="#63b8ff" points="1122.3,-4203935.81 1125.82,-4203945.8 1129.3,-4203935.79 1122.3,-4203935.81"/>
</a>
</g>
</g>
<!-- Node7 -->
<g id="Node000007" class="node">
<title>Node7</title>
<g id="a_Node000007"><a xlink:href="list__xattrs_8c.html" target="_top" xlink:title=" ">
<polygon fill="white" stroke="#666666" points="455.32,-3000385.56 274.32,-3000385.56 274.32,-3000359.56 455.32,-3000359.56 455.32,-3000385.56"/>
<text text-anchor="middle" x="364.82" y="-3000372.06" font-family="Helvetica,sans-Serif" font-size="10.00">examples/list_xattrs.c</text>
</a>
</g>
</g>
<!-- Node3&#45;&gt;Node7 -->
<g id="edge6_Node000003_Node000007" class="edge">
<title>Node3&#45;&gt;Node7</title>
<g id="a_edge6_Node000003_Node000007"><a xlink:title=" ">
<path fill="none" stroke="#63b8ff" d="M1125.8,-4194879.19C979.25,-4096503.61 608.84,-3835440.51 463.82,-3617609.03 281.83,-3344236.6 364.24,-3002758.69 364.82,-3000385.99"/>
<polygon fill="#63b8ff" stroke="#63b8ff" points="1122.3,-4194878.94 1125.82,-4194888.93 1129.3,-4194878.93 1122.3,-4194878.94"/>
</a>
</g>
</g>
<!-- Node8 -->
<g id="Node000008" class="node">
<title>Node8</title>
<g id="a_Node000008"><a xlink:href="list__xattrs__ll_8c.html" target="_top" xlink:title=" ">
<polygon fill="white" stroke="#666666" points="676.57,-3000381.81 473.07,-3000381.81 473.07,-3000363.31 676.57,-3000363.31 676.57,-3000381.81"/>
<text text-anchor="middle" x="574.82" y="-3000368.31" font-family="Helvetica,sans-Serif" font-size="10.00">examples/list_xattrs_ll.c</text>
</a>
</g>
</g>
<!-- Node3&#45;&gt;Node8 -->
<g id="edge7_Node000003_Node000008" class="edge">
<title>Node3&#45;&gt;Node8</title>
<g id="a_edge7_Node000003_Node000008"><a xlink:title=" ">
<path fill="none" stroke="#63b8ff" d="M1125.81,-4175257.53C1016.04,-4065035.52 787.25,-3822245.77 685.82,-3617609.03 550.24,-3344069.13 574.68,-3002340.37 574.82,-3000382.02"/>
<polygon fill="#63b8ff" stroke="#63b8ff" points="1122.31,-4175257.37 1125.82,-4175267.37 1129.31,-4175257.37 1122.31,-4175257.37"/>
</a>
</g>
</g>
<!-- Node9 -->
<g id="Node000009" class="node">
<title>Node9</title>
<g id="a_Node000009"><a xlink:href="read__file_8c.html" target="_top" xlink:title=" ">
<polygon fill="white" stroke="#666666" points="860.82,-3000381.81 694.82,-3000381.81 694.82,-3000363.31 860.82,-3000363.31 860.82,-3000381.81"/>
<text text-anchor="middle" x="777.82" y="-3000368.31" font-family="Helvetica,sans-Serif" font-size="10.00">examples/read_file.c</text>
</a>
</g>
</g>
<!-- Node3&#45;&gt;Node9 -->
<g id="edge8_Node000003_Node000009" class="edge">
<title>Node3&#45;&gt;Node9</title>
<g id="a_edge8_Node000003_Node000009"><a xlink:title=" ">
<path fill="none" stroke="#63b8ff" d="M1125.81,-4137532.02C1052.18,-4015855.11 930.69,-3801352.15 869.82,-3617609.03 779.21,-3344069.11 777.83,-3002340.37 777.82,-3000382.02"/>
<polygon fill="#63b8ff" stroke="#63b8ff" points="1122.31,-4137531.99 1125.82,-4137541.99 1129.31,-4137531.99 1122.31,-4137531.99"/>
</a>
</g>
</g>
<!-- Node10 -->
<g id="Node000010" class="node">
<title>Node10</title>
<g id="a_Node000010"><a xlink:href="read__file__ll_8c.html" target="_top" xlink:title=" ">
<polygon fill="white" stroke="#666666" points="1067.07,-3000381.81 878.57,-3000381.81 878.57,-3000363.31 1067.07,-3000363.31 1067.07,-3000381.81"/>
<text text-anchor="middle" x="972.82" y="-3000368.31" font-family="Helvetica,sans-Serif" font-size="10.00">examples/read_file_ll.c</text>
</a>
</g>
</g>
<!-- Node3&#45;&gt;Node10 -->
<g id="edge9_Node000003_Node000010" class="edge">
<title>Node3&#45;&gt;Node10</title>
<g id="a_edge9_Node000003_Node000010"><a xlink:title=" ">
<path fill="none" stroke="#63b8ff" d="M1125.82,-3900082.61C1109.35,-3808490.83 1091.7,-3709226.21 1075.82,-3617609.03 1028.41,-3344069.1 973.14,-3002340.37 972.82,-3000382.02"/>
<polygon fill="#63b8ff" stroke="#63b8ff" points="1122.32,-3900082.37 1125.82,-3900092.37 1129.32,-3900082.37 1122.32,-3900082.37"/>
</a>
</g>
</g>
<!-- Node11 -->
<g id="Node000011" class="node">
<title>Node11</title>
<g id="a_Node000011"><a xlink:href="readme__example_8c.html" target="_top" xlink:title=" ">
<polygon fill="white" stroke="#666666" points="1288.57,-3000393.76 1085.07,-3000393.76 1085.07,-3000351.36 1288.57,-3000351.36 1288.57,-3000393.76"/>
<text text-anchor="middle" x="1186.82" y="-3000380.26" font-family="Helvetica,sans-Serif" font-size="10.00">examples/readme_example.c</text>
</a>
</g>
</g>
<!-- Node3&#45;&gt;Node11 -->
<g id="edge10_Node000003_Node000011" class="edge">
<title>Node3&#45;&gt;Node11</title>
<g id="a_edge10_Node000003_Node000011"><a xlink:title=" ">
<path fill="none" stroke="#63b8ff" d="M1186.82,-3617633.38C1186.82,-3310454.53 1186.82,-3003293.29 1186.82,-3000394.24"/>
<polygon fill="#63b8ff" stroke="#63b8ff" points="1183.32,-3617633.29 1186.82,-3617643.29 1190.32,-3617633.29 1183.32,-3617633.29"/>
</a>
</g>
</g>
<!-- Node12 -->
<g id="Node000012" class="node">
<title>Node12</title>
<g id="a_Node000012"><a xlink:href="traverse__dir_8c.html" target="_top" xlink:title=" ">
<polygon fill="white" stroke="#666666" points="1495.07,-3000385.56 1306.57,-3000385.56 1306.57,-3000359.56 1495.07,-3000359.56 1495.07,-3000385.56"/>
<text text-anchor="middle" x="1400.82" y="-3000372.06" font-family="Helvetica,sans-Serif" font-size="10.00">examples/traverse_dir.c</text>
</a>
</g>
</g>
<!-- Node3&#45;&gt;Node12 -->
<g id="edge11_Node000003_Node000012" class="edge">
<title>Node3&#45;&gt;Node12</title>
<g id="a_edge11_Node000003_Node000012"><a xlink:title=" ">
<path fill="none" stroke="#63b8ff" d="M1247.82,-3900082.61C1264.29,-3808490.83 1281.94,-3709226.21 1297.82,-3617609.03 1345.2,-3344236.54 1400.43,-3002758.69 1400.82,-3000385.99"/>
<polygon fill="#63b8ff" stroke="#63b8ff" points="1244.32,-3900082.37 1247.82,-3900092.37 1251.32,-3900082.37 1244.32,-3900082.37"/>
</a>
</g>
</g>
<!-- Node13 -->
<g id="Node000013" class="node">
<title>Node13</title>
<g id="a_Node000013"><a xlink:href="traverse__dir__ll_8c.html" target="_top" xlink:title=" ">
<polygon fill="white" stroke="#666666" points="1724.32,-3617609.03 1513.32,-3617609.03 1513.32,-2383136.09 1724.32,-2383136.09 1724.32,-3617609.03"/>
<text text-anchor="middle" x="1618.82" y="-3617595.53" font-family="Helvetica,sans-Serif" font-size="10.00">examples/traverse_dir_ll.c</text>
</a>
</g>
</g>
<!-- Node3&#45;&gt;Node13 -->
<g id="edge12_Node000003_Node000013" class="edge">
<title>Node3&#45;&gt;Node13</title>
<g id="a_edge12_Node000003_Node000013"><a xlink:title=" ">
<path fill="none" stroke="#63b8ff" d="M1247.83,-4135650.18C1320.43,-4013652.88 1439.86,-3800408.58 1503.82,-3617609.03 1506.9,-3608810.15 1509.9,-3599940.71 1512.82,-3591014.29"/>
<polygon fill="#63b8ff" stroke="#63b8ff" points="1244.33,-4135649.83 1247.82,-4135659.83 1251.33,-4135649.84 1244.33,-4135649.83"/>
</a>
</g>
</g>
<!-- Node15&#45;&gt;Node3 -->
<g id="edge15_Node000015_Node000003" class="edge">
<title>Node15&#45;&gt;Node3</title>
<g id="a_edge15_Node000015_Node000003"><a xlink:title=" ">
<path fill="none" stroke="#63b8ff" d="M1685.81,-5469608.71C1684.02,-5465170.99 1380.58,-4714391.46 1247.82,-4385928.12"/>
<polygon fill="#63b8ff" stroke="#63b8ff" points="1682.31,-5469608.35 1685.82,-5469618.35 1689.31,-5469608.34 1682.31,-5469608.35"/>
</a>
</g>
</g>
<!-- Node16 -->
<g id="Node000016" class="node">
<title>Node16</title>
<g id="a_Node000016"><a xlink:href="sqsh__xattr__private_8h.html" target="_top" xlink:title=" ">
<polygon fill="white" stroke="#666666" points="2298.82,-3000387.06 2132.82,-3000387.06 2132.82,-3000358.06 2298.82,-3000358.06 2298.82,-3000387.06"/>
<text text-anchor="start" x="2140.82" y="-3000373.56" font-family="Helvetica,sans-Serif" font-size="10.00">libsqsh/include/sqsh</text>
<text text-anchor="middle" x="2215.82" y="-3000363.06" font-family="Helvetica,sans-Serif" font-size="10.00">_xattr_private.h</text>
</a>
</g>
</g>
<!-- Node15&#45;&gt;Node16 -->
<g id="edge16_Node000015_Node000016" class="edge">
<title>Node15&#45;&gt;Node16</title>
<g id="a_edge16_Node000015_Node000016"><a xlink:title=" ">
<path fill="none" stroke="#63b8ff" d="M1685.81,-5469608.37C1681.53,-5462597.24 560.96,-3623874.82 2104.82,-3617645.03 2109.17,-3617627.47 2119.47,-3617626.59 2123.82,-3617609.03 2380.83,-3616571.75 2216.73,-3003753.78 2215.82,-3000387.48"/>
<polygon fill="#63b8ff" stroke="#63b8ff" points="1682.31,-5469608.3 1685.81,-5469618.3 1689.31,-5469608.3 1682.31,-5469608.3"/>
</a>
</g>
</g>
<!-- Node16&#45;&gt;Node14 -->
<g id="edge17_Node000016_Node000014" class="edge">
<title>Node16&#45;&gt;Node14</title>
<g id="a_edge17_Node000016_Node000014"><a xlink:title=" ">
<path fill="none" stroke="#63b8ff" d="M2215.82,-3000346.21C2215.82,-2997298.53 2215.82,-2719823.34 2215.82,-2383100.54"/>
<polygon fill="#63b8ff" stroke="#63b8ff" points="2212.32,-3000346.13 2215.82,-3000356.13 2219.32,-3000346.13 2212.32,-3000346.13"/>
</a>
</g>
</g>
<!-- Node18 -->
<g id="Node000018" class="node">
<title>Node18</title>
<g id="a_Node000018"><a xlink:href="sqsh__file__private_8h.html" target="_top" xlink:title=" ">
<polygon fill="white" stroke="#666666" points="2482.82,-3000387.06 2316.82,-3000387.06 2316.82,-3000358.06 2482.82,-3000358.06 2482.82,-3000387.06"/>
<text text-anchor="start" x="2324.82" y="-3000373.56" font-family="Helvetica,sans-Serif" font-size="10.00">libsqsh/include/sqsh</text>
<text text-anchor="middle" x="2399.82" y="-3000363.06" font-family="Helvetica,sans-Serif" font-size="10.00">_file_private.h</text>
</a>
</g>
</g>
<!-- Node17&#45;&gt;Node18 -->
<g id="edge19_Node000017_Node000018" class="edge">
<title>Node17&#45;&gt;Node18</title>
<g id="a_edge19_Node000017_Node000018"><a xlink:title=" ">
<path fill="none" stroke="#63b8ff" d="M2251.82,-5469603.43C2252.06,-5466242.59 2276.44,-5125344.78 2288.82,-4852356.86 2313.71,-4303596.05 2285.93,-4166405.84 2326.82,-3617645.03 2347.19,-3344306.83 2399.44,-3002884.32 2399.82,-3000387.34"/>
<polygon fill="#63b8ff" stroke="#63b8ff" points="2248.32,-5469603.18 2251.82,-5469613.18 2255.32,-5469603.18 2248.32,-5469603.18"/>
</a>
</g>
</g>
<!-- Node21 -->
<g id="Node000021" class="node">
<title>Node21</title>
<g id="a_Node000021"><a xlink:href="sqsh__metablock__private_8h.html" target="_top" xlink:title=" ">
<polygon fill="white" stroke="#666666" points="2501.82,-4235019.2 2335.82,-4235019.2 2335.82,-4234982.7 2501.82,-4234982.7 2501.82,-4235019.2"/>
<text text-anchor="start" x="2343.82" y="-4235005.7" font-family="Helvetica,sans-Serif" font-size="10.00">libsqsh/include/sqsh</text>
<text text-anchor="middle" x="2418.82" y="-4234995.2" font-family="Helvetica,sans-Serif" font-size="10.00">_metablock_private.h</text>
</a>
</g>
</g>
<!-- Node17&#45;&gt;Node21 -->
<g id="edge23_Node000017_Node000021" class="edge">
<title>Node17&#45;&gt;Node21</title>
<g id="a_edge23_Node000017_Node000021"><a xlink:title=" ">
<path fill="none" stroke="#63b8ff" d="M2251.82,-5469603.36C2252.69,-5463214.76 2418.1,-4240322.25 2418.82,-4235019.24"/>
<polygon fill="#63b8ff" stroke="#63b8ff" points="2248.32,-5469603.29 2251.82,-5469613.29 2255.32,-5469603.29 2248.32,-5469603.29"/>
</a>
</g>
</g>
<!-- Node22 -->
<g id="Node000022" class="node">
<title>Node22</title>
<g id="a_Node000022"><a xlink:href="sqsh__table__private_8h.html" target="_top" xlink:title=" ">
<polygon fill="white" stroke="#666666" points="2279.82,-4235015.45 2113.82,-4235015.45 2113.82,-4234986.45 2279.82,-4234986.45 2279.82,-4235015.45"/>
<text text-anchor="start" x="2121.82" y="-4235001.95" font-family="Helvetica,sans-Serif" font-size="10.00">libsqsh/include/sqsh</text>
<text text-anchor="middle" x="2196.82" y="-4234991.45" font-family="Helvetica,sans-Serif" font-size="10.00">_table_private.h</text>
</a>
</g>
</g>
<!-- Node17&#45;&gt;Node22 -->
<g id="edge27_Node000017_Node000022" class="edge">
<title>Node17&#45;&gt;Node22</title>
<g id="a_edge27_Node000017_Node000022"><a xlink:title=" ">
<path fill="none" stroke="#63b8ff" d="M2251.82,-5469603.35C2251.53,-5463212.79 2197.03,-4239723.35 2196.82,-4235015.57"/>
<polygon fill="#63b8ff" stroke="#63b8ff" points="2248.32,-5469603.29 2251.82,-5469613.29 2255.32,-5469603.29 2248.32,-5469603.29"/>
</a>
</g>
</g>
<!-- Node18&#45;&gt;Node14 -->
<g id="edge20_Node000018_Node000014" class="edge">
<title>Node18&#45;&gt;Node14</title>
<g id="a_edge20_Node000018_Node000014"><a xlink:title=" ">
<path fill="none" stroke="#63b8ff" d="M2399.82,-3000346.48C2399.4,-2996240.84 2347.77,-2488740.05 2299.32,-2012419.12"/>
<polygon fill="#63b8ff" stroke="#63b8ff" points="2396.32,-3000346.13 2399.82,-3000356.13 2403.32,-3000346.13 2396.32,-3000346.13"/>
</a>
</g>
</g>
<!-- Node19 -->
<g id="Node000019" class="node">
<title>Node19</title>
<g id="a_Node000019"><a xlink:href="sqsh__directory__private_8h.html" target="_top" xlink:title=" ">
<polygon fill="white" stroke="#666666" points="2537.82,-1191608.99 2371.82,-1191608.99 2371.82,-1191556.1 2537.82,-1191556.1 2537.82,-1191608.99"/>
<text text-anchor="start" x="2379.82" y="-1191595.49" font-family="Helvetica,sans-Serif" font-size="10.00">libsqsh/include/sqsh</text>
<text text-anchor="middle" x="2454.82" y="-1191561.1" font-family="Helvetica,sans-Serif" font-size="10.00">_directory_private.h</text>
</a>
</g>
</g>
<!-- Node18&#45;&gt;Node19 -->
<g id="edge21_Node000018_Node000019" class="edge">
<title>Node18&#45;&gt;Node19</title>
<g id="a_edge21_Node000018_Node000019"><a xlink:title=" ">
<path fill="none" stroke="#63b8ff" d="M2399.82,-3000346.17C2400.06,-2992566.4 2454.58,-1199438.87 2454.82,-1191609.26"/>
<polygon fill="#63b8ff" stroke="#63b8ff" points="2396.32,-3000346.13 2399.82,-3000356.13 2403.32,-3000346.13 2396.32,-3000346.13"/>
</a>
</g>
</g>
<!-- Node20 -->
<g id="Node000020" class="node">
<title>Node20</title>
<g id="a_Node000020"><a xlink:href="sqsh__tree__private_8h.html" target="_top" xlink:title=" ">
<polygon fill="white" stroke="#666666" points="2537.82,-29 2371.82,-29 2371.82,0 2537.82,0 2537.82,-29"/>
<text text-anchor="start" x="2379.82" y="-15.5" font-family="Helvetica,sans-Serif" font-size="10.00">libsqsh/include/sqsh</text>
<text text-anchor="middle" x="2454.82" y="-5" font-family="Helvetica,sans-Serif" font-size="10.00">_tree_private.h</text>
</a>
</g>
</g>
<!-- Node19&#45;&gt;Node20 -->
<g id="edge22_Node000019_Node000020" class="edge">
<title>Node19&#45;&gt;Node20</title>
<g id="a_edge22_Node000019_Node000020"><a xlink:title=" ">
<path fill="none" stroke="#63b8ff" d="M2454.82,-1191544.63C2454.82,-1183942.19 2454.82,-4710.29 2454.82,-29.47"/>
<polygon fill="#63b8ff" stroke="#63b8ff" points="2451.32,-1191544.3 2454.82,-1191554.3 2458.32,-1191544.3 2451.32,-1191544.3"/>
</a>
</g>
</g>
<!-- Node21&#45;&gt;Node16 -->
<g id="edge26_Node000021_Node000016" class="edge">
<title>Node21&#45;&gt;Node16</title>
<g id="a_edge26_Node000021_Node000016"><a xlink:title=" ">
<path fill="none" stroke="#63b8ff" d="M2418.81,-4234971.05C2418.12,-4231362.53 2352.7,-3890549.26 2307.82,-3617609.03 2262.88,-3344286.77 2216.16,-3002884.18 2215.82,-3000387.34"/>
<polygon fill="#63b8ff" stroke="#63b8ff" points="2415.31,-4234970.74 2418.82,-4234980.74 2422.31,-4234970.74 2415.31,-4234970.74"/>
</a>
</g>
</g>
<!-- Node21&#45;&gt;Node18 -->
<g id="edge25_Node000021_Node000018" class="edge">
<title>Node21&#45;&gt;Node18</title>
<g id="a_edge25_Node000021_Node000018"><a xlink:title=" ">
<path fill="none" stroke="#63b8ff" d="M2418.82,-4234971.17C2418.71,-4228134.01 2399.89,-3005092.94 2399.82,-3000387.17"/>
<polygon fill="#63b8ff" stroke="#63b8ff" points="2415.32,-4234971.07 2418.82,-4234981.07 2422.32,-4234971.07 2415.32,-4234971.07"/>
</a>
</g>
</g>
<!-- Node21&#45;&gt;Node19 -->
<g id="edge24_Node000021_Node000019" class="edge">
<title>Node21&#45;&gt;Node19</title>
<g id="a_edge24_Node000021_Node000019"><a xlink:title=" ">
<path fill="none" stroke="#63b8ff" d="M2418.83,-4234971.05C2419.42,-4231362.53 2475.68,-3890549.26 2491.82,-3617609.03 2555.4,-2542106.6 2455.33,-1198409.62 2454.82,-1191609.46"/>
<polygon fill="#63b8ff" stroke="#63b8ff" points="2415.33,-4234970.74 2418.82,-4234980.74 2422.33,-4234970.74 2415.33,-4234970.74"/>
</a>
</g>
</g>
<!-- Node22&#45;&gt;Node16 -->
<g id="edge28_Node000022_Node000016" class="edge">
<title>Node22&#45;&gt;Node16</title>
<g id="a_edge28_Node000022_Node000016"><a xlink:title=" ">
<path fill="none" stroke="#63b8ff" d="M2196.82,-4234974.82C2196.92,-4228584.26 2215.75,-3005094.96 2215.82,-3000387.18"/>
<polygon fill="#63b8ff" stroke="#63b8ff" points="2193.32,-4234974.76 2196.82,-4234984.76 2200.32,-4234974.76 2193.32,-4234974.76"/>
</a>
</g>
</g>
</g>
</svg>

<g id="navigator" transform="translate(0 0)" fill="#404254">
  <rect fill="#f2f5e9" fill-opacity="0.5" stroke="#606060" stroke-width=".5" x="0" y="0" width="60" height="60"/>
  <use id="zoomplus" xlink:href="#zoomPlus" x="17" y="9" onmousedown="handleZoom(evt,'in')"/>
  <use id="zoomminus" xlink:href="#zoomMin" x="42" y="9" onmousedown="handleZoom(evt,'out')"/>
  <use id="reset" xlink:href="#resetDef" x="30" y="36" onmousedown="handleReset()"/>
   <use id="arrowup" xlink:href="#arrowUp" x="0" y="0" onmousedown="handlePan(0,-1)"/>
  <use id="arrowright" xlink:href="#arrowRight" x="0" y="0" onmousedown="handlePan(1,0)"/>
  <use id="arrowdown" xlink:href="#arrowDown" x="0" y="0" onmousedown="handlePan(0,1)"/>
  <use id="arrowleft" xlink:href="#arrowLeft" x="0" y="0" onmousedown="handlePan(-1,0)"/>
</g>
<svg viewBox="0 0 15 15" width="100%" height="30px" preserveAspectRatio="xMaxYMin meet">
 <g id="arrow_out" transform="scale(0.3 0.3)">
  <a xlink:href="sqsh__data_8h__dep__incl_org.svg" target="_base">
   <rect id="button" ry="5" rx="5" y="6" x="6" height="38" width="38"
        fill="#f2f5e9" fill-opacity="0.5" stroke="#606060" stroke-width="1.0"/>
   <path id="arrow"
     d="M 11.500037,31.436501 C 11.940474,20.09759 22.043105,11.32322 32.158766,21.979434 L 37.068811,17.246167 C 37.068811,17.246167 37.088388,32 37.088388,32 L 22.160133,31.978069 C 22.160133,31.978069 26.997745,27.140456 26.997745,27.140456 C 18.528582,18.264221 13.291696,25.230495 11.500037,31.436501 z"
     style="fill:#404040;"/>
  </a>
 </g>
</svg>

<style type='text/css'>
<![CDATA[
[data-mouse-over-selected='false'] { opacity: 0.7; }
[data-mouse-over-selected='true']  { opacity: 1.0; }
]]>
</style>
<script type="application/ecmascript"><![CDATA[
document.addEventListener('DOMContentLoaded', (event) => {
  highlightEdges();
  highlightAdjacentNodes();
});
]]></script>
</svg>
