<?xml version="1.0" encoding="UTF-8" standalone="no"?>
<!DOCTYPE svg PUBLIC "-//W3C//DTD SVG 1.1//EN"
 "http://www.w3.org/Graphics/SVG/1.1/DTD/svg11.dtd">
<!-- Generated by graphviz version 9.0.0 (20230911.1827)
 -->
<!-- Title: libsqsh/include/sqsh_table_private.h Pages: 1 -->
<svg width="886pt" height="2756434pt"
 viewBox="0.00 0.00 885.94 2756434.38" xmlns="http://www.w3.org/2000/svg" xmlns:xlink="http://www.w3.org/1999/xlink">
<g id="graph0" class="graph" transform="scale(1 1) rotate(0) translate(4 2756430.38)">
<title>libsqsh/include/sqsh_table_private.h</title>
<!-- Node1 -->
<g id="Node000001" class="node">
<title>Node1</title>
<g id="a_Node000001"><a xlink:title=" ">
<polygon fill="#999999" stroke="#666666" points="404.19,-2756426.38 238.19,-2756426.38 238.19,-2756397.38 404.19,-2756397.38 404.19,-2756426.38"/>
<text text-anchor="start" x="246.19" y="-2756412.88" font-family="Helvetica,sans-Serif" font-size="10.00">libsqsh/include/sqsh</text>
<text text-anchor="middle" x="321.19" y="-2756402.38" font-family="Helvetica,sans-Serif" font-size="10.00">_table_private.h</text>
</a>
</g>
</g>
<!-- Node2 -->
<g id="Node000002" class="node">
<title>Node2</title>
<g id="a_Node000002"><a xlink:href="sqsh__extract__private_8h.html" target="_top" xlink:title=" ">
<polygon fill="white" stroke="#666666" points="411.69,-2756361.38 230.69,-2756361.38 230.69,-1837576.05 411.69,-1837576.05 411.69,-2756361.38"/>
<text text-anchor="middle" x="321.19" y="-2756347.88" font-family="Helvetica,sans-Serif" font-size="10.00">sqsh_extract_private.h</text>
</a>
</g>
</g>
<!-- Node1&#45;&gt;Node2 -->
<g id="edge1_Node000001_Node000002" class="edge">
<title>Node1&#45;&gt;Node2</title>
<g id="a_edge1_Node000001_Node000002"><a xlink:title=" ">
<path fill="none" stroke="#63b8ff" d="M321.19,-2756397.03C321.19,-2756391.02 321.19,-2756383.06 321.19,-2756373.17"/>
<polygon fill="#63b8ff" stroke="#63b8ff" points="324.69,-2756373.18 321.19,-2756363.18 317.69,-2756373.18 324.69,-2756373.18"/>
</a>
</g>
</g>
<!-- Node10 -->
<g id="Node000010" class="node">
<title>Node10</title>
<g id="a_Node000010"><a xlink:href="sqsh__mapper__private_8h.html" target="_top" xlink:title=" ">
<polygon fill="white" stroke="#666666" points="673.94,-2296981.72 500.44,-2296981.72 500.44,-2296955.72 673.94,-2296955.72 673.94,-2296981.72"/>
<text text-anchor="middle" x="587.19" y="-2296968.22" font-family="Helvetica,sans-Serif" font-size="10.00">sqsh_mapper_private.h</text>
</a>
</g>
</g>
<!-- Node1&#45;&gt;Node10 -->
<g id="edge9_Node000001_Node000010" class="edge">
<title>Node1&#45;&gt;Node10</title>
<g id="a_edge9_Node000001_Node000010"><a xlink:title=" ">
<path fill="none" stroke="#63b8ff" d="M374.89,-2756396.92C392.77,-2756389.44 410.76,-2756378.17 421.19,-2756361.38 1259.26,-2755011.96 592.76,-2300760.75 587.22,-2296993.28"/>
<polygon fill="#63b8ff" stroke="#63b8ff" points="590.72,-2296993.49 587.21,-2296983.5 583.72,-2296993.5 590.72,-2296993.49"/>
</a>
</g>
</g>
<!-- Node13 -->
<g id="Node000013" class="node">
<title>Node13</title>
<g id="a_Node000013"><a xlink:href="sqsh__table_8h.html" target="_top" xlink:title=" ">
<polygon fill="white" stroke="#666666" points="163.19,-2296977.97 57.19,-2296977.97 57.19,-2296959.47 163.19,-2296959.47 163.19,-2296977.97"/>
<text text-anchor="middle" x="110.19" y="-2296964.47" font-family="Helvetica,sans-Serif" font-size="10.00">sqsh_table.h</text>
</a>
</g>
</g>
<!-- Node1&#45;&gt;Node13 -->
<g id="edge15_Node000001_Node000013" class="edge">
<title>Node1&#45;&gt;Node13</title>
<g id="a_edge15_Node000001_Node000013"><a xlink:title=" ">
<path fill="none" stroke="#63b8ff" d="M267.48,-2756396.92C249.6,-2756389.44 231.61,-2756378.17 221.19,-2756361.38 -197.95,-2755686.42 107.84,-2300459.76 110.17,-2296989.66"/>
<polygon fill="#63b8ff" stroke="#63b8ff" points="113.67,-2296989.84 110.18,-2296979.84 106.67,-2296989.83 113.67,-2296989.84"/>
</a>
</g>
</g>
<!-- Node3 -->
<g id="Node000003" class="node">
<title>Node3</title>
<g id="a_Node000003"><a xlink:title=" ">
<polygon fill="#e0e0e0" stroke="#999999" points="254.19,-1837405.82 88.19,-1837405.82 88.19,-918888.35 254.19,-918888.35 254.19,-1837405.82"/>
<text text-anchor="middle" x="171.19" y="-1837392.32" font-family="Helvetica,sans-Serif" font-size="10.00">cextras/collection.h</text>
</a>
</g>
</g>
<!-- Node2&#45;&gt;Node3 -->
<g id="edge2_Node000002_Node000003" class="edge">
<title>Node2&#45;&gt;Node3</title>
<g id="a_edge2_Node000002_Node000003"><a xlink:title=" ">
<path fill="none" stroke="#63b8ff" d="M246.19,-1837575.65C246.18,-1837522.88 246.17,-1837470.11 246.16,-1837417.35"/>
<polygon fill="#63b8ff" stroke="#63b8ff" points="249.66,-1837417.6 246.16,-1837407.6 242.66,-1837417.6 249.66,-1837417.6"/>
</a>
</g>
</g>
<!-- Node4 -->
<g id="Node000004" class="node">
<title>Node4</title>
<g id="a_Node000004"><a xlink:href="sqsh__data_8h.html" target="_top" xlink:title=" ">
<polygon fill="white" stroke="#666666" points="370.44,-1837540.05 271.94,-1837540.05 271.94,-918754.12 370.44,-918754.12 370.44,-1837540.05"/>
<text text-anchor="middle" x="321.19" y="-1837526.55" font-family="Helvetica,sans-Serif" font-size="10.00">sqsh_data.h</text>
</a>
</g>
</g>
<!-- Node2&#45;&gt;Node4 -->
<g id="edge3_Node000002_Node000004" class="edge">
<title>Node2&#45;&gt;Node4</title>
<g id="a_edge3_Node000002_Node000004"><a xlink:title=" ">
<path fill="none" stroke="#63b8ff" d="M321.19,-1837575.65C321.19,-1837567.68 321.19,-1837559.71 321.19,-1837551.75"/>
<polygon fill="#63b8ff" stroke="#63b8ff" points="324.69,-1837552 321.19,-1837542 317.69,-1837552 324.69,-1837552"/>
</a>
</g>
</g>
<!-- Node9 -->
<g id="Node000009" class="node">
<title>Node9</title>
<g id="a_Node000009"><a xlink:title=" ">
<polygon fill="#e0e0e0" stroke="#999999" points="554.19,-1378168.31 388.19,-1378168.31 388.19,-1378125.86 554.19,-1378125.86 554.19,-1378168.31"/>
<text text-anchor="middle" x="471.19" y="-1378154.81" font-family="Helvetica,sans-Serif" font-size="10.00">sqsh_utils_private.h</text>
</a>
</g>
</g>
<!-- Node2&#45;&gt;Node9 -->
<g id="edge8_Node000002_Node000009" class="edge">
<title>Node2&#45;&gt;Node9</title>
<g id="a_edge8_Node000002_Node000009"><a xlink:title=" ">
<path fill="none" stroke="#63b8ff" d="M396.18,-1837575.65C433.43,-1609426.39 470.68,-1381271.3 471.18,-1378179.86"/>
<polygon fill="#63b8ff" stroke="#63b8ff" points="474.68,-1378179.9 471.18,-1378169.9 467.68,-1378179.9 474.68,-1378179.9"/>
</a>
</g>
</g>
<!-- Node5 -->
<g id="Node000005" class="node">
<title>Node5</title>
<g id="a_Node000005"><a xlink:href="sqsh__common_8h.html" target="_top" xlink:title=" ">
<polygon fill="white" stroke="#666666" points="578.94,-918718.12 465.44,-918718.12 465.44,-54.5 578.94,-54.5 578.94,-918718.12"/>
<text text-anchor="middle" x="522.19" y="-918704.62" font-family="Helvetica,sans-Serif" font-size="10.00">sqsh_common.h</text>
</a>
</g>
</g>
<!-- Node4&#45;&gt;Node5 -->
<g id="edge4_Node000004_Node000005" class="edge">
<title>Node4&#45;&gt;Node5</title>
<g id="a_edge4_Node000004_Node000005"><a xlink:title=" ">
<path fill="none" stroke="#63b8ff" d="M370.94,-958780.66C373.56,-945281.14 376.31,-931911.64 379.19,-918754.12 400.9,-819482.56 435.31,-708143.64 464.93,-619942.93"/>
<polygon fill="#63b8ff" stroke="#63b8ff" points="468.43,-619943.09 464.94,-619933.09 461.43,-619943.09 468.43,-619943.09"/>
</a>
</g>
</g>
<!-- Node6 -->
<g id="Node000006" class="node">
<title>Node6</title>
<g id="a_Node000006"><a xlink:title=" ">
<polygon fill="#e0e0e0" stroke="#999999" points="612.94,-18.5 529.44,-18.5 529.44,0 612.94,0 612.94,-18.5"/>
<text text-anchor="middle" x="571.19" y="-5" font-family="Helvetica,sans-Serif" font-size="10.00">stdbool.h</text>
</a>
</g>
</g>
<!-- Node5&#45;&gt;Node6 -->
<g id="edge5_Node000005_Node000006" class="edge">
<title>Node5&#45;&gt;Node6</title>
<g id="a_edge5_Node000005_Node000006"><a xlink:title=" ">
<path fill="none" stroke="#63b8ff" d="M571.18,-54.01C571.18,-44.55 571.18,-36.61 571.18,-30.21"/>
<polygon fill="#63b8ff" stroke="#63b8ff" points="574.68,-30.46 571.18,-20.46 567.68,-30.46 574.68,-30.46"/>
</a>
</g>
</g>
<!-- Node7 -->
<g id="Node000007" class="node">
<title>Node7</title>
<g id="a_Node000007"><a xlink:title=" ">
<polygon fill="#e0e0e0" stroke="#999999" points="783.19,-18.5 707.19,-18.5 707.19,0 783.19,0 783.19,-18.5"/>
<text text-anchor="middle" x="745.19" y="-5" font-family="Helvetica,sans-Serif" font-size="10.00">stddef.h</text>
</a>
</g>
</g>
<!-- Node5&#45;&gt;Node7 -->
<g id="edge6_Node000005_Node000007" class="edge">
<title>Node5&#45;&gt;Node7</title>
<g id="a_edge6_Node000005_Node000007"><a xlink:title=" ">
<path fill="none" stroke="#63b8ff" d="M579.44,-341451.64C645.13,-206115.43 744.06,-2336.1 745.18,-30"/>
<polygon fill="#63b8ff" stroke="#63b8ff" points="748.68,-30.29 745.18,-20.29 741.68,-30.29 748.68,-30.29"/>
</a>
</g>
</g>
<!-- Node8 -->
<g id="Node000008" class="node">
<title>Node8</title>
<g id="a_Node000008"><a xlink:title=" ">
<polygon fill="#e0e0e0" stroke="#999999" points="511.19,-18.5 435.19,-18.5 435.19,0 511.19,0 511.19,-18.5"/>
<text text-anchor="middle" x="473.19" y="-5" font-family="Helvetica,sans-Serif" font-size="10.00">stdint.h</text>
</a>
</g>
</g>
<!-- Node5&#45;&gt;Node8 -->
<g id="edge7_Node000005_Node000008" class="edge">
<title>Node5&#45;&gt;Node8</title>
<g id="a_edge7_Node000005_Node000008"><a xlink:title=" ">
<path fill="none" stroke="#63b8ff" d="M473.19,-54.01C473.19,-44.55 473.19,-36.61 473.19,-30.21"/>
<polygon fill="#63b8ff" stroke="#63b8ff" points="476.69,-30.46 473.19,-20.46 469.69,-30.46 476.69,-30.46"/>
</a>
</g>
</g>
<!-- Node10&#45;&gt;Node9 -->
<g id="edge14_Node000010_Node000009" class="edge">
<title>Node10&#45;&gt;Node9</title>
<g id="a_edge14_Node000010_Node000009"><a xlink:title=" ">
<path fill="none" stroke="#63b8ff" d="M587.18,-2296955.51C586.7,-2293115.42 471.97,-1384388.65 471.19,-1378180.05"/>
<polygon fill="#63b8ff" stroke="#63b8ff" points="474.69,-1378180.27 471.19,-1378170.27 467.69,-1378180.27 474.69,-1378180.27"/>
</a>
</g>
</g>
<!-- Node11 -->
<g id="Node000011" class="node">
<title>Node11</title>
<g id="a_Node000011"><a xlink:href="sqsh__mapper_8h.html" target="_top" xlink:title=" ">
<polygon fill="white" stroke="#666666" points="877.94,-1378156.34 764.44,-1378156.34 764.44,-1378137.84 877.94,-1378137.84 877.94,-1378156.34"/>
<text text-anchor="middle" x="821.19" y="-1378142.84" font-family="Helvetica,sans-Serif" font-size="10.00">sqsh_mapper.h</text>
</a>
</g>
</g>
<!-- Node10&#45;&gt;Node11 -->
<g id="edge10_Node000010_Node000011" class="edge">
<title>Node10&#45;&gt;Node11</title>
<g id="a_edge10_Node000010_Node000011"><a xlink:title=" ">
<path fill="none" stroke="#63b8ff" d="M587.19,-2296955.31C588.12,-2294912.19 703.39,-2040907.59 755.19,-1837540.05 806.92,-1634411.43 821.04,-1380760.69 821.18,-1378168.12"/>
<polygon fill="#63b8ff" stroke="#63b8ff" points="824.68,-1378168.22 821.19,-1378158.22 817.68,-1378168.22 824.68,-1378168.22"/>
</a>
</g>
</g>
<!-- Node12 -->
<g id="Node000012" class="node">
<title>Node12</title>
<g id="a_Node000012"><a xlink:title=" ">
<polygon fill="#e0e0e0" stroke="#999999" points="745.94,-1378156.34 572.44,-1378156.34 572.44,-1378137.84 745.94,-1378137.84 745.94,-1378156.34"/>
<text text-anchor="middle" x="659.19" y="-1378142.84" font-family="Helvetica,sans-Serif" font-size="10.00">sqsh_reader_private.h</text>
</a>
</g>
</g>
<!-- Node10&#45;&gt;Node12 -->
<g id="edge13_Node000010_Node000012" class="edge">
<title>Node10&#45;&gt;Node12</title>
<g id="a_edge13_Node000010_Node000012"><a xlink:title=" ">
<path fill="none" stroke="#63b8ff" d="M587.19,-2296955.51C587.49,-2293112.59 658.8,-1383052.86 659.18,-1378167.82"/>
<polygon fill="#63b8ff" stroke="#63b8ff" points="662.68,-1378168.19 659.19,-1378158.19 655.68,-1378168.19 662.68,-1378168.19"/>
</a>
</g>
</g>
<!-- Node11&#45;&gt;Node5 -->
<g id="edge11_Node000011_Node000005" class="edge">
<title>Node11&#45;&gt;Node5</title>
<g id="a_edge11_Node000011_Node000005"><a xlink:title=" ">
<path fill="none" stroke="#63b8ff" d="M821.19,-1378137.47C821.19,-1376433.16 821.41,-1122242.92 755.19,-918754.12 713.92,-791969.73 634.06,-645502.2 579.44,-552690.43"/>
<polygon fill="#63b8ff" stroke="#63b8ff" points="582.94,-552690.52 579.44,-552680.53 575.94,-552690.53 582.94,-552690.52"/>
</a>
</g>
</g>
<!-- Node11&#45;&gt;Node7 -->
<g id="edge12_Node000011_Node000007" class="edge">
<title>Node11&#45;&gt;Node7</title>
<g id="a_edge12_Node000011_Node000007"><a xlink:title=" ">
<path fill="none" stroke="#63b8ff" d="M821.19,-1378137.59C820.97,-1374204.19 745.52,-6039.53 745.19,-30.1"/>
<polygon fill="#63b8ff" stroke="#63b8ff" points="748.69,-30.24 745.19,-20.24 741.69,-30.24 748.69,-30.24"/>
</a>
</g>
</g>
<!-- Node13&#45;&gt;Node5 -->
<g id="edge16_Node000013_Node000005" class="edge">
<title>Node13&#45;&gt;Node5</title>
<g id="a_edge16_Node000013_Node000005"><a xlink:title=" ">
<path fill="none" stroke="#63b8ff" d="M110.18,-2296958.99C109.6,-2293436.78 -68.25,-1224519.05 79.19,-918754.12 152.56,-766575.1 362.68,-586038.38 464.92,-503967.74"/>
<polygon fill="#63b8ff" stroke="#63b8ff" points="468.42,-503967.98 464.93,-503957.98 461.42,-503967.97 468.42,-503967.98"/>
</a>
</g>
</g>
</g>
</svg>
