<?xml version="1.0" encoding="UTF-8" standalone="no"?>
<!DOCTYPE svg PUBLIC "-//W3C//DTD SVG 1.1//EN"
 "http://www.w3.org/Graphics/SVG/1.1/DTD/svg11.dtd">
<!-- Generated by graphviz version 9.0.0 (20230911.1827)
 -->
<!-- Title: include/sqsh_error.h Pages: 1 -->
<!--zoomable 49237 -->

<svg id="main" version="1.1" xmlns="http://www.w3.org/2000/svg" xmlns:xlink="http://www.w3.org/1999/xlink" xml:space="preserve" onload="init(evt)">
<style type="text/css"><![CDATA[
.node, .edge {opacity: 0.7;}
.node.selected, .edge.selected {opacity: 1;}
.edge:hover path { stroke: red; }
.edge:hover polygon { stroke: red; fill: red; }
]]></style>

<defs>
  <circle id="rim" cx="0" cy="0" r="7"/>
  <circle id="rim2" cx="0" cy="0" r="3.5"/>
  <g id="zoomPlus">
    <use xlink:href="#rim" fill="#404040"><set attributeName="fill" to="#808080" begin="zoomplus.mouseover" end="zoomplus.mouseout"/></use>
    <path d="M-4,0h8M0,-4v8" fill="none" stroke="white" stroke-width="1.5" pointer-events="none"/>
  </g>
  <g id="zoomMin">
    <use xlink:href="#rim" fill="#404040"><set attributeName="fill" to="#808080" begin="zoomminus.mouseover" end="zoomminus.mouseout"/></use>
    <path d="M-4,0h8" fill="none" stroke="white" stroke-width="1.5" pointer-events="none"/>
  </g>
  <g id="arrowUp" transform="translate(30 24)">
    <use xlink:href="#rim"/>
    <path pointer-events="none" fill="none" stroke="white" stroke-width="1.5" d="M0,-3.0v7 M-2.5,-0.5L0,-3.0L2.5,-0.5"/>
  </g>
  <g id="arrowRight" transform="rotate(90) translate(36 -43)">
    <use xlink:href="#rim"/>
    <path pointer-events="none" fill="none" stroke="white" stroke-width="1.5" d="M0,-3.0v7 M-2.5,-0.5L0,-3.0L2.5,-0.5"/>
  </g>
  <g id="arrowDown" transform="rotate(180) translate(-30 -48)">
    <use xlink:href="#rim"/>
    <path pointer-events="none" fill="none" stroke="white" stroke-width="1.5" d="M0,-3.0v7 M-2.5,-0.5L0,-3.0L2.5,-0.5"/>
  </g>
  <g id="arrowLeft" transform="rotate(270) translate(-36 17)">
    <use xlink:href="#rim"/>
    <path pointer-events="none" fill="none" stroke="white" stroke-width="1.5" d="M0,-3.0v7 M-2.5,-0.5L0,-3.0L2.5,-0.5"/>
  </g>
  <g id="resetDef">
    <use xlink:href="#rim2" fill="#404040"><set attributeName="fill" to="#808080" begin="reset.mouseover" end="reset.mouseout"/></use>
  </g>
</defs>
<script type="application/ecmascript">
var viewWidth = 2048;
var viewHeight = 49237;
var sectionId = 'dynsection-1';
</script>
<script type="application/ecmascript" xlink:href="svg.min.js"/>
<svg id="graph" class="graph">
<g id="viewport">
<title>include/sqsh_error.h</title>
<!-- Node1 -->
<g id="Node000001" class="node">
<title>Node1</title>
<g id="a_Node000001"><a xlink:title=" ">
<polygon fill="#999999" stroke="#666666" points="1155,-49228.73 989,-49228.73 989,-49210.23 1155,-49210.23 1155,-49228.73"/>
<text text-anchor="middle" x="1072" y="-49215.23" font-family="Helvetica,sans-Serif" font-size="10.00">include/sqsh_error.h</text>
</a>
</g>
</g>
<!-- Node2 -->
<g id="Node000002" class="node">
<title>Node2</title>
<g id="a_Node000002"><a xlink:href="sqsh_8h.html" target="_top" xlink:title=" ">
<polygon fill="white" stroke="#666666" points="1051.5,-49157.06 930.5,-49157.06 930.5,-49138.56 1051.5,-49138.56 1051.5,-49157.06"/>
<text text-anchor="middle" x="991" y="-49143.56" font-family="Helvetica,sans-Serif" font-size="10.00">include/sqsh.h</text>
</a>
</g>
</g>
<!-- Node1&#45;&gt;Node2 -->
<g id="edge1_Node000001_Node000002" class="edge">
<title>Node1&#45;&gt;Node2</title>
<g id="a_edge1_Node000001_Node000002"><a xlink:title=" ">
<path fill="none" stroke="#63b8ff" d="M1053.38,-49202.46C1037.09,-49188.45 1014.05,-49168.63 1001.01,-49157.42"/>
<polygon fill="#63b8ff" stroke="#63b8ff" points="1051.06,-49205.08 1060.92,-49208.95 1055.62,-49199.77 1051.06,-49205.08"/>
</a>
</g>
</g>
<!-- Node13 -->
<g id="Node000013" class="node">
<title>Node13</title>
<g id="a_Node000013"><a xlink:href="sqsh__archive__private_8h.html" target="_top" xlink:title=" ">
<polygon fill="white" stroke="#666666" points="1236,-49174.23 1070,-49174.23 1070,-49121.39 1236,-49121.39 1236,-49174.23"/>
<text text-anchor="start" x="1078" y="-49160.73" font-family="Helvetica,sans-Serif" font-size="10.00">libsqsh/include/sqsh</text>
<text text-anchor="middle" x="1153" y="-49150.23" font-family="Helvetica,sans-Serif" font-size="10.00">_archive_private.h</text>
</a>
</g>
</g>
<!-- Node1&#45;&gt;Node13 -->
<g id="edge12_Node000001_Node000013" class="edge">
<title>Node1&#45;&gt;Node13</title>
<g id="a_edge12_Node000001_Node000013"><a xlink:title=" ">
<path fill="none" stroke="#63b8ff" d="M1090.64,-49202.45C1100.25,-49194.18 1112.21,-49183.89 1123.08,-49174.54"/>
<polygon fill="#63b8ff" stroke="#63b8ff" points="1088.38,-49199.77 1083.08,-49208.95 1092.94,-49205.08 1088.38,-49199.77"/>
</a>
</g>
</g>
<!-- Node3 -->
<g id="Node000003" class="node">
<title>Node3</title>
<g id="a_Node000003"><a xlink:href="custom__mapper_8c.html" target="_top" xlink:title=" ">
<polygon fill="white" stroke="#666666" points="196,-48992.29 0,-48992.29 0,-93.1 196,-93.1 196,-48992.29"/>
<text text-anchor="middle" x="98" y="-48978.79" font-family="Helvetica,sans-Serif" font-size="10.00">examples/custom_mapper.c</text>
</a>
</g>
</g>
<!-- Node2&#45;&gt;Node3 -->
<g id="edge2_Node000002_Node000003" class="edge">
<title>Node2&#45;&gt;Node3</title>
<g id="a_edge2_Node000002_Node000003"><a xlink:title=" ">
<path fill="none" stroke="#63b8ff" d="M918.8,-49146.61C733.64,-49145.35 253.02,-49137.08 205,-49085.39 197.74,-49077.57 190.82,-49046.18 184.24,-48992.7"/>
<polygon fill="#63b8ff" stroke="#63b8ff" points="918.76,-49150.11 928.78,-49146.67 918.81,-49143.11 918.76,-49150.11"/>
</a>
</g>
</g>
<!-- Node4 -->
<g id="Node000004" class="node">
<title>Node4</title>
<g id="a_Node000004"><a xlink:href="list__dir_8c.html" target="_top" xlink:title=" ">
<polygon fill="white" stroke="#666666" points="372.25,-49085.39 213.75,-49085.39 213.75,0 372.25,0 372.25,-49085.39"/>
<text text-anchor="middle" x="293" y="-49071.89" font-family="Helvetica,sans-Serif" font-size="10.00">examples/list_dir.c</text>
</a>
</g>
</g>
<!-- Node2&#45;&gt;Node4 -->
<g id="edge3_Node000002_Node000004" class="edge">
<title>Node2&#45;&gt;Node4</title>
<g id="a_edge3_Node000002_Node000004"><a xlink:title=" ">
<path fill="none" stroke="#63b8ff" d="M919.08,-49144.86C765.52,-49139.96 416.59,-49124.6 381,-49085.39 378.18,-49082.27 375.41,-49075.51 372.69,-49065.18"/>
<polygon fill="#63b8ff" stroke="#63b8ff" points="918.62,-49148.35 928.72,-49145.16 918.84,-49141.35 918.62,-49148.35"/>
</a>
</g>
</g>
<!-- Node5 -->
<g id="Node000005" class="node">
<title>Node5</title>
<g id="a_Node000005"><a xlink:href="list__dir__ll_8c.html" target="_top" xlink:title=" ">
<polygon fill="white" stroke="#666666" points="571.5,-24551.94 390.5,-24551.94 390.5,-24533.44 571.5,-24533.44 571.5,-24551.94"/>
<text text-anchor="middle" x="481" y="-24538.44" font-family="Helvetica,sans-Serif" font-size="10.00">examples/list_dir_ll.c</text>
</a>
</g>
</g>
<!-- Node2&#45;&gt;Node5 -->
<g id="edge4_Node000002_Node000005" class="edge">
<title>Node2&#45;&gt;Node5</title>
<g id="a_edge4_Node000002_Node000005"><a xlink:title=" ">
<path fill="none" stroke="#63b8ff" d="M918.8,-49146.83C812.8,-49145.15 622.98,-49135.07 580,-49085.39 359.43,-48830.45 478.32,-25074.38 480.96,-24552.42"/>
<polygon fill="#63b8ff" stroke="#63b8ff" points="918.48,-49150.32 928.52,-49146.96 918.57,-49143.32 918.48,-49150.32"/>
</a>
</g>
</g>
<!-- Node6 -->
<g id="Node000006" class="node">
<title>Node6</title>
<g id="a_Node000006"><a xlink:href="list__xattrs_8c.html" target="_top" xlink:title=" ">
<polygon fill="white" stroke="#666666" points="770.5,-49039.51 589.5,-49039.51 589.5,-45.88 770.5,-45.88 770.5,-49039.51"/>
<text text-anchor="middle" x="680" y="-49026.01" font-family="Helvetica,sans-Serif" font-size="10.00">examples/list_xattrs.c</text>
</a>
</g>
</g>
<!-- Node2&#45;&gt;Node6 -->
<g id="edge5_Node000002_Node000006" class="edge">
<title>Node2&#45;&gt;Node6</title>
<g id="a_edge5_Node000002_Node000006"><a xlink:title=" ">
<path fill="none" stroke="#63b8ff" d="M922.67,-49136.05C867.58,-49125.83 796.49,-49108.57 779,-49085.39 774.84,-49079.87 770.81,-49064.51 766.9,-49039.69"/>
<polygon fill="#63b8ff" stroke="#63b8ff" points="921.85,-49139.46 932.31,-49137.8 923.1,-49132.57 921.85,-49139.46"/>
</a>
</g>
</g>
<!-- Node7 -->
<g id="Node000007" class="node">
<title>Node7</title>
<g id="a_Node000007"><a xlink:href="list__xattrs__ll_8c.html" target="_top" xlink:title=" ">
<polygon fill="white" stroke="#666666" points="991.75,-24551.94 788.25,-24551.94 788.25,-24533.44 991.75,-24533.44 991.75,-24551.94"/>
<text text-anchor="middle" x="890" y="-24538.44" font-family="Helvetica,sans-Serif" font-size="10.00">examples/list_xattrs_ll.c</text>
</a>
</g>
</g>
<!-- Node2&#45;&gt;Node7 -->
<g id="edge6_Node000002_Node000007" class="edge">
<title>Node2&#45;&gt;Node7</title>
<g id="a_edge6_Node000002_Node000007"><a xlink:title=" ">
<path fill="none" stroke="#63b8ff" d="M990.92,-49126.99C987.74,-48351.48 892.15,-25066.86 890.04,-24552.35"/>
<polygon fill="#63b8ff" stroke="#63b8ff" points="987.42,-49126.85 990.96,-49136.84 994.42,-49126.82 987.42,-49126.85"/>
</a>
</g>
</g>
<!-- Node8 -->
<g id="Node000008" class="node">
<title>Node8</title>
<g id="a_Node000008"><a xlink:href="read__file_8c.html" target="_top" xlink:title=" ">
<polygon fill="white" stroke="#666666" points="1176,-24551.94 1010,-24551.94 1010,-24533.44 1176,-24533.44 1176,-24551.94"/>
<text text-anchor="middle" x="1093" y="-24538.44" font-family="Helvetica,sans-Serif" font-size="10.00">examples/read_file.c</text>
</a>
</g>
</g>
<!-- Node2&#45;&gt;Node8 -->
<g id="edge7_Node000002_Node000008" class="edge">
<title>Node2&#45;&gt;Node8</title>
<g id="a_edge7_Node000002_Node000008"><a xlink:title=" ">
<path fill="none" stroke="#63b8ff" d="M995.01,-49127.16C997.26,-49115.15 999.84,-49099.45 1001,-49085.39 1223.33,-46398.99 1096,-25042.02 1093.05,-24552.25"/>
<polygon fill="#63b8ff" stroke="#63b8ff" points="991.64,-49126.14 993.15,-49136.63 998.51,-49127.49 991.64,-49126.14"/>
</a>
</g>
</g>
<!-- Node9 -->
<g id="Node000009" class="node">
<title>Node9</title>
<g id="a_Node000009"><a xlink:href="read__file__ll_8c.html" target="_top" xlink:title=" ">
<polygon fill="white" stroke="#666666" points="1382.25,-24551.94 1193.75,-24551.94 1193.75,-24533.44 1382.25,-24533.44 1382.25,-24551.94"/>
<text text-anchor="middle" x="1288" y="-24538.44" font-family="Helvetica,sans-Serif" font-size="10.00">examples/read_file_ll.c</text>
</a>
</g>
</g>
<!-- Node2&#45;&gt;Node9 -->
<g id="edge8_Node000002_Node000009" class="edge">
<title>Node2&#45;&gt;Node9</title>
<g id="a_edge8_Node000002_Node000009"><a xlink:title=" ">
<path fill="none" stroke="#63b8ff" d="M1024.4,-49134.17C1035.94,-49129.94 1048.98,-49125.31 1061,-49121.39 1115.56,-49103.58 1150.44,-49131.2 1185,-49085.39 1388,-48816.25 1290.21,-25074.06 1288.04,-24552.42"/>
<polygon fill="#63b8ff" stroke="#63b8ff" points="1023.46,-49130.78 1015.3,-49137.54 1025.9,-49137.35 1023.46,-49130.78"/>
</a>
</g>
</g>
<!-- Node10 -->
<g id="Node000010" class="node">
<title>Node10</title>
<g id="a_Node000010"><a xlink:href="readme__example_8c.html" target="_top" xlink:title=" ">
<polygon fill="white" stroke="#666666" points="1603.75,-24551.94 1400.25,-24551.94 1400.25,-24533.44 1603.75,-24533.44 1603.75,-24551.94"/>
<text text-anchor="middle" x="1502" y="-24538.44" font-family="Helvetica,sans-Serif" font-size="10.00">examples/readme_example.c</text>
</a>
</g>
</g>
<!-- Node2&#45;&gt;Node10 -->
<g id="edge9_Node000002_Node000010" class="edge">
<title>Node2&#45;&gt;Node10</title>
<g id="a_edge9_Node000002_Node000010"><a xlink:title=" ">
<path fill="none" stroke="#63b8ff" d="M1021.3,-49134C1033.45,-49129.35 1047.69,-49124.48 1061,-49121.39 1132.85,-49104.68 1341.62,-49140.19 1391,-49085.39 1616.65,-48834.93 1504.53,-25074.47 1502.04,-24552.42"/>
<polygon fill="#63b8ff" stroke="#63b8ff" points="1020.24,-49130.66 1012.24,-49137.6 1022.82,-49137.17 1020.24,-49130.66"/>
</a>
</g>
</g>
<!-- Node11 -->
<g id="Node000011" class="node">
<title>Node11</title>
<g id="a_Node000011"><a xlink:href="traverse__dir_8c.html" target="_top" xlink:title=" ">
<polygon fill="white" stroke="#666666" points="1810.25,-24563.86 1621.75,-24563.86 1621.75,-24521.52 1810.25,-24521.52 1810.25,-24563.86"/>
<text text-anchor="middle" x="1716" y="-24550.36" font-family="Helvetica,sans-Serif" font-size="10.00">examples/traverse_dir.c</text>
</a>
</g>
</g>
<!-- Node2&#45;&gt;Node11 -->
<g id="edge10_Node000002_Node000011" class="edge">
<title>Node2&#45;&gt;Node11</title>
<g id="a_edge10_Node000002_Node000011"><a xlink:title=" ">
<path fill="none" stroke="#63b8ff" d="M1020.71,-49133.91C1032.96,-49129.15 1047.44,-49124.23 1061,-49121.39 1121.15,-49108.77 1570.88,-49130.15 1613,-49085.39 1842.64,-48841.31 1720.3,-25355.35 1716.11,-24564.14"/>
<polygon fill="#63b8ff" stroke="#63b8ff" points="1019.54,-49130.61 1011.58,-49137.6 1022.17,-49137.09 1019.54,-49130.61"/>
</a>
</g>
</g>
<!-- Node12 -->
<g id="Node000012" class="node">
<title>Node12</title>
<g id="a_Node000012"><a xlink:href="traverse__dir__ll_8c.html" target="_top" xlink:title=" ">
<polygon fill="white" stroke="#666666" points="2039.5,-24555.69 1828.5,-24555.69 1828.5,-24529.69 2039.5,-24529.69 2039.5,-24555.69"/>
<text text-anchor="middle" x="1934" y="-24542.19" font-family="Helvetica,sans-Serif" font-size="10.00">examples/traverse_dir_ll.c</text>
</a>
</g>
</g>
<!-- Node2&#45;&gt;Node12 -->
<g id="edge11_Node000002_Node000012" class="edge">
<title>Node2&#45;&gt;Node12</title>
<g id="a_edge11_Node000002_Node000012"><a xlink:title=" ">
<path fill="none" stroke="#63b8ff" d="M1020.69,-49133.79C1032.93,-49129.01 1047.41,-49124.11 1061,-49121.39 1143.67,-49104.81 1760.67,-49146.27 1819,-49085.39 2051.76,-48842.45 1937.07,-25168.41 1934.06,-24555.79"/>
<polygon fill="#63b8ff" stroke="#63b8ff" points="1019.5,-49130.49 1011.56,-49137.5 1022.14,-49136.97 1019.5,-49130.49"/>
</a>
</g>
</g>
</g>
</svg>

<g id="navigator" transform="translate(0 0)" fill="#404254">
  <rect fill="#f2f5e9" fill-opacity="0.5" stroke="#606060" stroke-width=".5" x="0" y="0" width="60" height="60"/>
  <use id="zoomplus" xlink:href="#zoomPlus" x="17" y="9" onmousedown="handleZoom(evt,'in')"/>
  <use id="zoomminus" xlink:href="#zoomMin" x="42" y="9" onmousedown="handleZoom(evt,'out')"/>
  <use id="reset" xlink:href="#resetDef" x="30" y="36" onmousedown="handleReset()"/>
   <use id="arrowup" xlink:href="#arrowUp" x="0" y="0" onmousedown="handlePan(0,-1)"/>
  <use id="arrowright" xlink:href="#arrowRight" x="0" y="0" onmousedown="handlePan(1,0)"/>
  <use id="arrowdown" xlink:href="#arrowDown" x="0" y="0" onmousedown="handlePan(0,1)"/>
  <use id="arrowleft" xlink:href="#arrowLeft" x="0" y="0" onmousedown="handlePan(-1,0)"/>
</g>
<svg viewBox="0 0 15 15" width="100%" height="30px" preserveAspectRatio="xMaxYMin meet">
 <g id="arrow_out" transform="scale(0.3 0.3)">
  <a xlink:href="sqsh__error_8h__dep__incl_org.svg" target="_base">
   <rect id="button" ry="5" rx="5" y="6" x="6" height="38" width="38"
        fill="#f2f5e9" fill-opacity="0.5" stroke="#606060" stroke-width="1.0"/>
   <path id="arrow"
     d="M 11.500037,31.436501 C 11.940474,20.09759 22.043105,11.32322 32.158766,21.979434 L 37.068811,17.246167 C 37.068811,17.246167 37.088388,32 37.088388,32 L 22.160133,31.978069 C 22.160133,31.978069 26.997745,27.140456 26.997745,27.140456 C 18.528582,18.264221 13.291696,25.230495 11.500037,31.436501 z"
     style="fill:#404040;"/>
  </a>
 </g>
</svg>

<style type='text/css'>
<![CDATA[
[data-mouse-over-selected='false'] { opacity: 0.7; }
[data-mouse-over-selected='true']  { opacity: 1.0; }
]]>
</style>
<script type="application/ecmascript"><![CDATA[
document.addEventListener('DOMContentLoaded', (event) => {
  highlightEdges();
  highlightAdjacentNodes();
});
]]></script>
</svg>
