<?xml version="1.0" encoding="UTF-8" standalone="no"?>
<!DOCTYPE svg PUBLIC "-//W3C//DTD SVG 1.1//EN"
 "http://www.w3.org/Graphics/SVG/1.1/DTD/svg11.dtd">
<!-- Generated by graphviz version 8.0.5 (20230430.1635)
 -->
<!-- Title: include/sqsh_file.h Pages: 1 -->
<!--zoomable 1499557 -->
<svg id="main" version="1.1" xmlns="http://www.w3.org/2000/svg" xmlns:xlink="http://www.w3.org/1999/xlink" xml:space="preserve" onload="init(evt)">
<style type="text/css"><![CDATA[
.edge:hover path { stroke: red; }
.edge:hover polygon { stroke: red; fill: red; }
]]></style>
<script type="text/javascript"><![CDATA[
var edges = document.getElementsByTagName('g');
if (edges && edges.length) {
  for (var i=0;i<edges.length;i++) {
    if (edges[i].id.substr(0,4)=='edge') {
      edges[i].setAttribute('class','edge');
    }
  }
}
]]></script>
        <defs>
                <circle id="rim" cx="0" cy="0" r="7"/>
                <circle id="rim2" cx="0" cy="0" r="3.5"/>
                <g id="zoomPlus">
                        <use xlink:href="#rim" fill="#404040">
                                <set attributeName="fill" to="#808080" begin="zoomplus.mouseover" end="zoomplus.mouseout"/>
                        </use>
                        <path d="M-4,0h8M0,-4v8" fill="none" stroke="white" stroke-width="1.5" pointer-events="none"/>
                </g>
                <g id="zoomMin">
                        <use xlink:href="#rim" fill="#404040">
                                <set attributeName="fill" to="#808080" begin="zoomminus.mouseover" end="zoomminus.mouseout"/>
                        </use>
                        <path d="M-4,0h8" fill="none" stroke="white" stroke-width="1.5" pointer-events="none"/>
                </g>
                <g id="dirArrow">
                        <path fill="none" stroke="white" stroke-width="1.5" d="M0,-3.0v7 M-2.5,-0.5L0,-3.0L2.5,-0.5"/>
                </g>
               <g id="resetDef">
                       <use xlink:href="#rim2" fill="#404040">
                               <set attributeName="fill" to="#808080" begin="reset.mouseover" end="reset.mouseout"/>
                       </use>
               </g>
        </defs>

<script type="text/javascript">
var viewWidth = 1918;
var viewHeight = 1499557;
var sectionId = 'dynsection-1';
</script>
<script xlink:href="svgpan.js"/>
<svg id="graph" class="graph">
<g id="viewport">
<title>include/sqsh_file.h</title>
<!-- Node1 -->
<g id="node1" class="node">
<title>Node1</title>
<g id="a_node1"><a xlink:title=" ">
<polygon fill="#999999" stroke="#666666" points="1483,-1499549.35 1324.5,-1499549.35 1324.5,-999774.54 1483,-999774.54 1483,-1499549.35"/>
<text text-anchor="middle" x="1403.75" y="-1499535.85" font-family="Helvetica,sans-Serif" font-size="10.00">include/sqsh_file.h</text>
</a>
</g>
</g>
<!-- Node2 -->
<g id="node2" class="node">
<title>Node2</title>
<g id="a_node2"><a xlink:href="sqsh_8h.html" target="_top" xlink:title=" ">
<polygon fill="white" stroke="#666666" points="1202.25,-749778.34 1081.25,-749778.34 1081.25,-749759.84 1202.25,-749759.84 1202.25,-749778.34"/>
<text text-anchor="middle" x="1141.75" y="-749764.84" font-family="Helvetica,sans-Serif" font-size="10.00">include/sqsh.h</text>
</a>
</g>
</g>
<!-- Node1&#45;&gt;Node2 -->
<g id="edge1" class="edge">
<title>Node1&#45;&gt;Node2</title>
<path fill="none" stroke="#63b8ff" d="M1323.99,-1154928.66C1287.11,-1108207.88 1245.63,-1051014.43 1218.75,-999738.54 1160.78,-889143.24 1141.92,-751023.97 1141.75,-749778.57"/>
<polygon fill="#63b8ff" stroke="#63b8ff" points="1320.49,-1154928.63 1324,-1154938.62 1327.49,-1154928.62 1320.49,-1154928.63"/>
</g>
<!-- Node11 -->
<g id="node11" class="node">
<title>Node11</title>
<g id="a_node11"><a xlink:href="sqsh__directory_8h.html" target="_top" xlink:title=" ">
<polygon fill="white" stroke="#666666" points="1599.75,-999737.04 1403.75,-999737.04 1403.75,-999711.04 1599.75,-999711.04 1599.75,-999737.04"/>
<text text-anchor="middle" x="1501.75" y="-999723.54" font-family="Helvetica,sans-Serif" font-size="10.00">include/sqsh_directory.h</text>
</a>
</g>
</g>
<!-- Node1&#45;&gt;Node11 -->
<g id="edge10" class="edge">
<title>Node1&#45;&gt;Node11</title>
<path fill="none" stroke="#63b8ff" d="M1483.5,-1046258.51C1494.14,-1019133.26 1501.53,-1000283.73 1501.75,-999737.24"/>
<polygon fill="#63b8ff" stroke="#63b8ff" points="1480,-1046258.38 1483.5,-1046268.38 1487,-1046258.38 1480,-1046258.38"/>
</g>
<!-- Node14 -->
<g id="node14" class="node">
<title>Node14</title>
<g id="a_node14"><a xlink:href="sqsh__tree_8h.html" target="_top" xlink:title=" ">
<polygon fill="white" stroke="#666666" points="1386,-999733.29 1227.5,-999733.29 1227.5,-999714.79 1386,-999714.79 1386,-999733.29"/>
<text text-anchor="middle" x="1306.75" y="-999719.79" font-family="Helvetica,sans-Serif" font-size="10.00">include/sqsh_tree.h</text>
</a>
</g>
</g>
<!-- Node1&#45;&gt;Node14 -->
<g id="edge14" class="edge">
<title>Node1&#45;&gt;Node14</title>
<path fill="none" stroke="#63b8ff" d="M1324,-1044161.82C1313.88,-1018104.72 1306.93,-1000184.61 1306.75,-999733.75"/>
<polygon fill="#63b8ff" stroke="#63b8ff" points="1320.5,-1044161.55 1324,-1044171.55 1327.5,-1044161.55 1320.5,-1044161.55"/>
</g>
<!-- Node15 -->
<g id="node15" class="node">
<title>Node15</title>
<g id="a_node15"><a xlink:href="sqsh__file__private_8h.html" target="_top" xlink:title=" ">
<polygon fill="white" stroke="#666666" points="1793.75,-999738.54 1627.75,-999738.54 1627.75,-999709.54 1793.75,-999709.54 1793.75,-999738.54"/>
<text text-anchor="start" x="1635.75" y="-999725.04" font-family="Helvetica,sans-Serif" font-size="10.00">libsqsh/include/sqsh</text>
<text text-anchor="middle" x="1710.75" y="-999714.54" font-family="Helvetica,sans-Serif" font-size="10.00">_file_private.h</text>
</a>
</g>
</g>
<!-- Node1&#45;&gt;Node15 -->
<g id="edge17" class="edge">
<title>Node1&#45;&gt;Node15</title>
<path fill="none" stroke="#63b8ff" d="M1483.51,-1184723.79C1573.89,-1111147.94 1708.99,-1001159.12 1710.73,-999738.93"/>
<polygon fill="#63b8ff" stroke="#63b8ff" points="1480.01,-1184723.74 1483.5,-1184733.74 1487.01,-1184723.74 1480.01,-1184723.74"/>
</g>
<!-- Node3 -->
<g id="node3" class="node">
<title>Node3</title>
<g id="a_node3"><a xlink:href="list__dir_8c.html" target="_top" xlink:title=" ">
<polygon fill="white" stroke="#666666" points="1221,-499802.39 1062.5,-499802.39 1062.5,-26.25 1221,-26.25 1221,-499802.39"/>
<text text-anchor="middle" x="1141.75" y="-499788.89" font-family="Helvetica,sans-Serif" font-size="10.00">examples/list_dir.c</text>
</a>
</g>
</g>
<!-- Node2&#45;&gt;Node3 -->
<g id="edge2" class="edge">
<title>Node2&#45;&gt;Node3</title>
<path fill="none" stroke="#63b8ff" d="M1141.75,-749748.75C1141.75,-747970.74 1141.75,-623880.4 1141.75,-499802.84"/>
<polygon fill="#63b8ff" stroke="#63b8ff" points="1138.25,-749748.6 1141.75,-749758.6 1145.25,-749748.61 1138.25,-749748.6"/>
</g>
<!-- Node4 -->
<g id="node4" class="node">
<title>Node4</title>
<g id="a_node4"><a xlink:href="list__dir__ll_8c.html" target="_top" xlink:title=" ">
<polygon fill="white" stroke="#666666" points="1420.25,-249935.56 1239.25,-249935.56 1239.25,-249893.08 1420.25,-249893.08 1420.25,-249935.56"/>
<text text-anchor="middle" x="1329.75" y="-249922.06" font-family="Helvetica,sans-Serif" font-size="10.00">examples/list_dir_ll.c</text>
</a>
</g>
</g>
<!-- Node2&#45;&gt;Node4 -->
<g id="edge3" class="edge">
<title>Node2&#45;&gt;Node4</title>
<path fill="none" stroke="#63b8ff" d="M1141.76,-749748.77C1143.09,-746195.26 1328.36,-253608.32 1329.74,-249935.95"/>
<polygon fill="#63b8ff" stroke="#63b8ff" points="1138.26,-749748.6 1141.75,-749758.6 1145.26,-749748.61 1138.26,-749748.6"/>
</g>
<!-- Node5 -->
<g id="node5" class="node">
<title>Node5</title>
<g id="a_node5"><a xlink:href="list__xattrs_8c.html" target="_top" xlink:title=" ">
<polygon fill="white" stroke="#666666" points="1619.25,-249923.57 1438.25,-249923.57 1438.25,-249905.07 1619.25,-249905.07 1619.25,-249923.57"/>
<text text-anchor="middle" x="1528.75" y="-249910.07" font-family="Helvetica,sans-Serif" font-size="10.00">examples/list_xattrs.c</text>
</a>
</g>
</g>
<!-- Node2&#45;&gt;Node5 -->
<g id="edge4" class="edge">
<title>Node2&#45;&gt;Node5</title>
<path fill="none" stroke="#63b8ff" d="M1141.65,-749748.74C1128.89,-747246.94 -113.6,-502976.21 1383.75,-499864.64 1394.86,-499841.56 1417.65,-499851.72 1428.75,-499828.64 1803.52,-499049.27 1530.63,-251615.46 1528.76,-249924.03"/>
<polygon fill="#63b8ff" stroke="#63b8ff" points="1138.15,-749748.48 1141.71,-749758.46 1145.15,-749748.44 1138.15,-749748.48"/>
</g>
<!-- Node6 -->
<g id="node6" class="node">
<title>Node6</title>
<g id="a_node6"><a xlink:href="list__xattrs__ll_8c.html" target="_top" xlink:title=" ">
<polygon fill="white" stroke="#666666" points="203.5,-249923.57 0,-249923.57 0,-249905.07 203.5,-249905.07 203.5,-249923.57"/>
<text text-anchor="middle" x="101.75" y="-249910.07" font-family="Helvetica,sans-Serif" font-size="10.00">examples/list_xattrs_ll.c</text>
</a>
</g>
</g>
<!-- Node2&#45;&gt;Node6 -->
<g id="edge5" class="edge">
<title>Node2&#45;&gt;Node6</title>
<path fill="none" stroke="#63b8ff" d="M1141.65,-749748.73C1132.24,-747873.89 442.29,-610155.16 212.75,-499828.64 -17.29,-389257.95 100.67,-251168.93 101.74,-249923.8"/>
<polygon fill="#63b8ff" stroke="#63b8ff" points="1138.16,-749748.62 1141.71,-749758.61 1145.16,-749748.59 1138.16,-749748.62"/>
</g>
<!-- Node7 -->
<g id="node7" class="node">
<title>Node7</title>
<g id="a_node7"><a xlink:href="read__file_8c.html" target="_top" xlink:title=" ">
<polygon fill="white" stroke="#666666" points="387.75,-249935.56 221.75,-249935.56 221.75,-249893.08 387.75,-249893.08 387.75,-249935.56"/>
<text text-anchor="middle" x="304.75" y="-249922.06" font-family="Helvetica,sans-Serif" font-size="10.00">examples/read_file.c</text>
</a>
</g>
</g>
<!-- Node2&#45;&gt;Node7 -->
<g id="edge6" class="edge">
<title>Node2&#45;&gt;Node7</title>
<path fill="none" stroke="#63b8ff" d="M1141.67,-749748.73C1134.14,-747873.88 581.48,-610154.97 396.75,-499828.64 212.07,-389535.82 303.44,-251863.01 304.74,-249935.78"/>
<polygon fill="#63b8ff" stroke="#63b8ff" points="1138.18,-749748.62 1141.72,-749758.61 1145.18,-749748.59 1138.18,-749748.62"/>
</g>
<!-- Node8 -->
<g id="node8" class="node">
<title>Node8</title>
<g id="a_node8"><a xlink:href="read__file__ll_8c.html" target="_top" xlink:title=" ">
<polygon fill="white" stroke="#666666" points="594,-499802.41 405.5,-499802.41 405.5,-26.23 594,-26.23 594,-499802.41"/>
<text text-anchor="middle" x="499.75" y="-499788.91" font-family="Helvetica,sans-Serif" font-size="10.00">examples/read_file_ll.c</text>
</a>
</g>
</g>
<!-- Node2&#45;&gt;Node8 -->
<g id="edge7" class="edge">
<title>Node2&#45;&gt;Node8</title>
<path fill="none" stroke="#63b8ff" d="M1141.69,-749748.73C1136.35,-747873.88 744.45,-610154.8 602.75,-499828.64 599.93,-497632.35 597.18,-495425.2 594.5,-493208.48"/>
<polygon fill="#63b8ff" stroke="#63b8ff" points="1138.2,-749748.62 1141.73,-749758.61 1145.2,-749748.6 1138.2,-749748.62"/>
</g>
<!-- Node9 -->
<g id="node9" class="node">
<title>Node9</title>
<g id="a_node9"><a xlink:href="readme__example_8c.html" target="_top" xlink:title=" ">
<polygon fill="white" stroke="#666666" points="815.5,-499802.47 612,-499802.47 612,-26.16 815.5,-26.16 815.5,-499802.47"/>
<text text-anchor="middle" x="713.75" y="-499788.97" font-family="Helvetica,sans-Serif" font-size="10.00">examples/readme_example.c</text>
</a>
</g>
</g>
<!-- Node2&#45;&gt;Node9 -->
<g id="edge8" class="edge">
<title>Node2&#45;&gt;Node9</title>
<path fill="none" stroke="#63b8ff" d="M1141.72,-749748.73C1138.71,-747873.88 918.21,-610154.69 823.75,-499828.64 821.11,-496739.59 818.52,-493629.07 816,-490500.65"/>
<polygon fill="#63b8ff" stroke="#63b8ff" points="1138.22,-749748.61 1141.74,-749758.61 1145.22,-749748.6 1138.22,-749748.61"/>
</g>
<!-- Node10 -->
<g id="node10" class="node">
<title>Node10</title>
<g id="a_node10"><a xlink:href="traverse__dir__ll_8c.html" target="_top" xlink:title=" ">
<polygon fill="white" stroke="#666666" points="1044.25,-249923.57 833.25,-249923.57 833.25,-249905.07 1044.25,-249905.07 1044.25,-249923.57"/>
<text text-anchor="middle" x="938.75" y="-249910.07" font-family="Helvetica,sans-Serif" font-size="10.00">examples/traverse_dir_ll.c</text>
</a>
</g>
</g>
<!-- Node2&#45;&gt;Node10 -->
<g id="edge9" class="edge">
<title>Node2&#45;&gt;Node10</title>
<path fill="none" stroke="#63b8ff" d="M1141.74,-749748.75C1140.3,-746188.84 939.71,-252277.99 938.75,-249923.76"/>
<polygon fill="#63b8ff" stroke="#63b8ff" points="1138.24,-749748.61 1141.75,-749758.6 1145.24,-749748.6 1138.24,-749748.61"/>
</g>
<!-- Node11&#45;&gt;Node2 -->
<g id="edge11" class="edge">
<title>Node11&#45;&gt;Node2</title>
<path fill="none" stroke="#63b8ff" d="M1501.72,-999700.09C1497.78,-996969.19 1144.18,-751459.57 1141.76,-749778.76"/>
<polygon fill="#63b8ff" stroke="#63b8ff" points="1498.22,-999699.91 1501.73,-999709.9 1505.22,-999699.9 1498.22,-999699.91"/>
</g>
<!-- Node12 -->
<g id="node12" class="node">
<title>Node12</title>
<g id="a_node12"><a xlink:href="sqsh__directory__private_8h.html" target="_top" xlink:title=" ">
<polygon fill="white" stroke="#666666" points="1687.75,-999673.54 1521.75,-999673.54 1521.75,-499864.64 1687.75,-499864.64 1687.75,-999673.54"/>
<text text-anchor="start" x="1529.75" y="-999660.04" font-family="Helvetica,sans-Serif" font-size="10.00">libsqsh/include/sqsh</text>
<text text-anchor="middle" x="1604.75" y="-999625.56" font-family="Helvetica,sans-Serif" font-size="10.00">_directory_private.h</text>
</a>
</g>
</g>
<!-- Node11&#45;&gt;Node12 -->
<g id="edge12" class="edge">
<title>Node11&#45;&gt;Node12</title>
<path fill="none" stroke="#63b8ff" d="M1501.76,-999700.15C1502.07,-998949.37 1509.96,-979799.11 1521.25,-952401.58"/>
<polygon fill="#63b8ff" stroke="#63b8ff" points="1498.26,-999699.9 1501.76,-999709.9 1505.26,-999699.91 1498.26,-999699.9"/>
</g>
<!-- Node13 -->
<g id="node13" class="node">
<title>Node13</title>
<g id="a_node13"><a xlink:href="sqsh__tree__private_8h.html" target="_top" xlink:title=" ">
<polygon fill="white" stroke="#666666" points="1803.75,-499828.64 1637.75,-499828.64 1637.75,0 1803.75,0 1803.75,-499828.64"/>
<text text-anchor="start" x="1645.75" y="-499815.14" font-family="Helvetica,sans-Serif" font-size="10.00">libsqsh/include/sqsh</text>
<text text-anchor="middle" x="1720.75" y="-499804.64" font-family="Helvetica,sans-Serif" font-size="10.00">_tree_private.h</text>
</a>
</g>
</g>
<!-- Node12&#45;&gt;Node13 -->
<g id="edge13" class="edge">
<title>Node12&#45;&gt;Node13</title>
<path fill="none" stroke="#63b8ff" d="M1662.75,-499853.44C1662.75,-499845.24 1662.75,-499837.03 1662.75,-499828.83"/>
<polygon fill="#63b8ff" stroke="#63b8ff" points="1659.25,-499853.23 1662.74,-499863.23 1666.25,-499853.23 1659.25,-499853.23"/>
</g>
<!-- Node14&#45;&gt;Node2 -->
<g id="edge15" class="edge">
<title>Node14&#45;&gt;Node2</title>
<path fill="none" stroke="#63b8ff" d="M1306.74,-999703.49C1305.07,-997181.08 1142.87,-751461.33 1141.76,-749778.77"/>
<polygon fill="#63b8ff" stroke="#63b8ff" points="1303.24,-999703.3 1306.74,-999713.3 1310.24,-999703.3 1303.24,-999703.3"/>
</g>
<!-- Node14&#45;&gt;Node13 -->
<g id="edge16" class="edge">
<title>Node14&#45;&gt;Node13</title>
<path fill="none" stroke="#63b8ff" d="M1306.74,-999703.7C1304.54,-996137.37 999.74,-500560.7 1512.75,-499864.64 1544.78,-499821.18 1596.72,-499872.09 1628.75,-499828.64 1981.19,-499350.42 1894.19,-382399.98 1804.25,-308674.08"/>
<polygon fill="#63b8ff" stroke="#63b8ff" points="1303.24,-999703.57 1306.74,-999713.57 1310.24,-999703.57 1303.24,-999703.57"/>
</g>
<!-- Node15&#45;&gt;Node12 -->
<g id="edge19" class="edge">
<title>Node15&#45;&gt;Node12</title>
<path fill="none" stroke="#63b8ff" d="M1705.39,-999698.5C1703.9,-999690.57 1702.49,-999681.72 1701.75,-999673.54 1697.13,-999622.43 1692.63,-999518.19 1688.24,-999362.42"/>
<polygon fill="#63b8ff" stroke="#63b8ff" points="1702.15,-999699.15 1707.56,-999708.26 1709.01,-999697.77 1702.15,-999699.15"/>
</g>
<!-- Node15&#45;&gt;Node13 -->
<g id="edge20" class="edge">
<title>Node15&#45;&gt;Node13</title>
<path fill="none" stroke="#63b8ff" d="M1710.75,-999698.44C1710.79,-996681.45 1714.52,-716737.99 1717.42,-499829.13"/>
<polygon fill="#63b8ff" stroke="#63b8ff" points="1707.25,-999698.32 1710.75,-999708.32 1714.25,-999698.32 1707.25,-999698.32"/>
</g>
<!-- Node16 -->
<g id="node16" class="node">
<title>Node16</title>
<g id="a_node16"><a xlink:href="sqsh__archive__private_8h.html" target="_top" xlink:title=" ">
<polygon fill="white" stroke="#666666" points="1909.75,-749783.63 1743.75,-749783.63 1743.75,-749754.55 1909.75,-749754.55 1909.75,-749783.63"/>
<text text-anchor="start" x="1751.75" y="-749770.13" font-family="Helvetica,sans-Serif" font-size="10.00">libsqsh/include/sqsh</text>
<text text-anchor="middle" x="1826.75" y="-749759.55" font-family="Helvetica,sans-Serif" font-size="10.00">_archive_private.h</text>
</a>
</g>
</g>
<!-- Node15&#45;&gt;Node16 -->
<g id="edge18" class="edge">
<title>Node15&#45;&gt;Node16</title>
<path fill="none" stroke="#63b8ff" d="M1721.96,-999699.1C1725.14,-999691.15 1728.16,-999682.13 1729.75,-999673.54 2044.95,-997974.61 1828.64,-751916.58 1826.76,-749784.03"/>
<polygon fill="#63b8ff" stroke="#63b8ff" points="1718.38,-999697.57 1717.66,-999708.15 1724.82,-999700.33 1718.38,-999697.57"/>
</g>
</g>
</svg>
        <g id="navigator" transform="translate(0 0)" fill="#404254">
                <rect fill="#f2f5e9" fill-opacity="0.5" stroke="#606060" stroke-width=".5" x="0" y="0" width="60" height="60"/>
                <use id="zoomplus" xlink:href="#zoomPlus" x="17" y="9" onmousedown="handleZoom(evt,'in')"/>
                <use id="zoomminus" xlink:href="#zoomMin" x="42" y="9" onmousedown="handleZoom(evt,'out')"/>
                <use id="reset" xlink:href="#resetDef" x="30" y="36" onmousedown="handleReset()"/>
                <g id="arrowUp" xlink:href="#dirArrow" transform="translate(30 24)" onmousedown="handlePan(0,-1)">
                  <use xlink:href="#rim" fill="#404040">
                        <set attributeName="fill" to="#808080" begin="arrowUp.mouseover" end="arrowUp.mouseout"/>
                  </use>
                  <path fill="none" stroke="white" stroke-width="1.5" d="M0,-3.0v7 M-2.5,-0.5L0,-3.0L2.5,-0.5"/>
                </g>
                <g id="arrowRight" xlink:href="#dirArrow" transform="rotate(90) translate(36 -43)" onmousedown="handlePan(1,0)">
                  <use xlink:href="#rim" fill="#404040">
                        <set attributeName="fill" to="#808080" begin="arrowRight.mouseover" end="arrowRight.mouseout"/>
                  </use>
                  <path fill="none" stroke="white" stroke-width="1.5" d="M0,-3.0v7 M-2.5,-0.5L0,-3.0L2.5,-0.5"/>
                </g>
                <g id="arrowDown" xlink:href="#dirArrow" transform="rotate(180) translate(-30 -48)" onmousedown="handlePan(0,1)">
                  <use xlink:href="#rim" fill="#404040">
                        <set attributeName="fill" to="#808080" begin="arrowDown.mouseover" end="arrowDown.mouseout"/>
                  </use>
                  <path fill="none" stroke="white" stroke-width="1.5" d="M0,-3.0v7 M-2.5,-0.5L0,-3.0L2.5,-0.5"/>
                </g>
                <g id="arrowLeft" xlink:href="#dirArrow" transform="rotate(270) translate(-36 17)" onmousedown="handlePan(-1,0)">
                  <use xlink:href="#rim" fill="#404040">
                        <set attributeName="fill" to="#808080" begin="arrowLeft.mouseover" end="arrowLeft.mouseout"/>
                  </use>
                  <path fill="none" stroke="white" stroke-width="1.5" d="M0,-3.0v7 M-2.5,-0.5L0,-3.0L2.5,-0.5"/>
                </g>
        </g>
        <svg viewBox="0 0 15 15" width="100%" height="30px" preserveAspectRatio="xMaxYMin meet">
         <g id="arrow_out" transform="scale(0.3 0.3)">
          <a xlink:href="sqsh__file_8h__dep__incl_org.svg" target="_base">
           <rect id="button" ry="5" rx="5" y="6" x="6" height="38" width="38"
                fill="#f2f5e9" fill-opacity="0.5" stroke="#606060" stroke-width="1.0"/>
           <path id="arrow"
             d="M 11.500037,31.436501 C 11.940474,20.09759 22.043105,11.32322 32.158766,21.979434 L 37.068811,17.246167 C 37.068811,17.246167 37.088388,32 37.088388,32 L 22.160133,31.978069 C 22.160133,31.978069 26.997745,27.140456 26.997745,27.140456 C 18.528582,18.264221 13.291696,25.230495 11.500037,31.436501 z"
             style="fill:#404040;"/>
          </a>
         </g>
        </svg>
</svg>
