<?xml version="1.0" encoding="UTF-8" standalone="no"?>
<!DOCTYPE svg PUBLIC "-//W3C//DTD SVG 1.1//EN"
 "http://www.w3.org/Graphics/SVG/1.1/DTD/svg11.dtd">
<!-- Generated by graphviz version 8.0.5 (20230430.1635)
 -->
<!-- Title: include/sqsh_common.h Pages: 1 -->
<svg width="280pt" height="1373672pt"
 viewBox="0.00 0.00 279.75 1373672.36" xmlns="http://www.w3.org/2000/svg" xmlns:xlink="http://www.w3.org/1999/xlink">
<g id="graph0" class="graph" transform="scale(1 1) rotate(0) translate(4 1373668.36)">
<title>include/sqsh_common.h</title>
<!-- Node1 -->
<g id="node1" class="node">
<title>Node1</title>
<g id="a_node1"><a xlink:title=" ">
<polygon fill="#999999" stroke="#666666" points="226.5,-1373664.36 53,-1373664.36 53,-1373645.86 226.5,-1373645.86 226.5,-1373664.36"/>
<text text-anchor="middle" x="139.75" y="-1373650.86" font-family="Helvetica,sans-Serif" font-size="10.00">include/sqsh_common.h</text>
</a>
</g>
</g>
<!-- Node2 -->
<g id="node2" class="node">
<title>Node2</title>
<g id="a_node2"><a xlink:title=" ">
<polygon fill="#e0e0e0" stroke="#999999" points="83.5,-686814.18 0,-686814.18 0,-686795.68 83.5,-686795.68 83.5,-686814.18"/>
<text text-anchor="middle" x="41.75" y="-686800.68" font-family="Helvetica,sans-Serif" font-size="10.00">stdbool.h</text>
</a>
</g>
</g>
<!-- Node1&#45;&gt;Node2 -->
<g id="edge1" class="edge">
<title>Node1&#45;&gt;Node2</title>
<path fill="none" stroke="#63b8ff" d="M125.68,-1373645.57C114.41,-1373637.83 99.42,-1373625.29 92.75,-1373609.86 92.75,-1373609.86 42.06,-691030.34 41.75,-686825.44"/>
<polygon fill="#63b8ff" stroke="#63b8ff" points="45.25,-686825.53 41.75,-686815.53 38.25,-686825.53 45.25,-686825.53"/>
</g>
<!-- Node3 -->
<g id="node3" class="node">
<title>Node3</title>
<g id="a_node3"><a xlink:title=" ">
<polygon fill="#e0e0e0" stroke="#999999" points="177.75,-686826.14 101.75,-686826.14 101.75,-686783.71 177.75,-686783.71 177.75,-686826.14"/>
<text text-anchor="middle" x="139.75" y="-686812.64" font-family="Helvetica,sans-Serif" font-size="10.00">stddef.h</text>
</a>
</g>
</g>
<!-- Node1&#45;&gt;Node3 -->
<g id="edge2" class="edge">
<title>Node1&#45;&gt;Node3</title>
<path fill="none" stroke="#63b8ff" d="M139.75,-1373645.5C139.75,-1370859.13 139.75,-692136.45 139.75,-686837.12"/>
<polygon fill="#63b8ff" stroke="#63b8ff" points="143.25,-686837.56 139.75,-686827.56 136.25,-686837.56 143.25,-686837.56"/>
</g>
<!-- Node4 -->
<g id="node4" class="node">
<title>Node4</title>
<g id="a_node4"><a xlink:title=" ">
<polygon fill="#e0e0e0" stroke="#999999" points="271.75,-1373609.86 195.75,-1373609.86 195.75,0 271.75,0 271.75,-1373609.86"/>
<text text-anchor="middle" x="233.75" y="-1373596.36" font-family="Helvetica,sans-Serif" font-size="10.00">stdint.h</text>
</a>
</g>
</g>
<!-- Node1&#45;&gt;Node4 -->
<g id="edge3" class="edge">
<title>Node1&#45;&gt;Node4</title>
<path fill="none" stroke="#63b8ff" d="M153.82,-1373645.57C165.09,-1373637.83 180.08,-1373625.29 186.75,-1373609.86 186.75,-1373609.86 190.21,-1323070.56 195.25,-1249411.32"/>
<polygon fill="#63b8ff" stroke="#63b8ff" points="198.75,-1249411.36 195.25,-1249401.36 191.75,-1249411.36 198.75,-1249411.36"/>
</g>
</g>
</svg>
