<?xml version="1.0" encoding="UTF-8" standalone="no"?>
<!DOCTYPE svg PUBLIC "-//W3C//DTD SVG 1.1//EN"
 "http://www.w3.org/Graphics/SVG/1.1/DTD/svg11.dtd">
<!-- Generated by graphviz version 9.0.0 (20230911.1827)
 -->
<!-- Title: include/sqsh_easy.h Pages: 1 -->
<svg width="457pt" height="1828370pt"
 viewBox="0.00 0.00 457.25 1828369.84" xmlns="http://www.w3.org/2000/svg" xmlns:xlink="http://www.w3.org/1999/xlink">
<g id="graph0" class="graph" transform="scale(1 1) rotate(0) translate(4 1828365.84)">
<title>include/sqsh_easy.h</title>
<!-- Node1 -->
<g id="Node000001" class="node">
<title>Node1</title>
<g id="a_Node000001"><a xlink:title=" ">
<polygon fill="#999999" stroke="#666666" points="371,-1828361.84 212.5,-1828361.84 212.5,-1218881.99 371,-1218881.99 371,-1828361.84"/>
<text text-anchor="middle" x="291.75" y="-1828348.34" font-family="Helvetica,sans-Serif" font-size="10.00">include/sqsh_easy.h</text>
</a>
</g>
</g>
<!-- Node2 -->
<g id="Node000002" class="node">
<title>Node2</title>
<g id="a_Node000002"><a xlink:href="sqsh__common_8h.html" target="_top" xlink:title=" ">
<polygon fill="white" stroke="#666666" points="196.5,-1218845.99 83,-1218845.99 83,-609517.23 196.5,-609517.23 196.5,-1218845.99"/>
<text text-anchor="middle" x="139.75" y="-1218832.49" font-family="Helvetica,sans-Serif" font-size="10.00">sqsh_common.h</text>
</a>
</g>
</g>
<!-- Node1&#45;&gt;Node2 -->
<g id="edge1_Node000001_Node000002" class="edge">
<title>Node1&#45;&gt;Node2</title>
<g id="a_edge1_Node000001_Node000002"><a xlink:title=" ">
<path fill="none" stroke="#63b8ff" d="M212,-1243492.43C209.86,-1235184.66 207.77,-1226954.65 205.75,-1218845.99 202.82,-1207081.51 199.89,-1195061.49 197,-1182919.15"/>
<polygon fill="#63b8ff" stroke="#63b8ff" points="200.5,-1182919.27 197,-1182909.27 193.5,-1182919.27 200.5,-1182919.27"/>
</a>
</g>
</g>
<!-- Node6 -->
<g id="Node000006" class="node">
<title>Node6</title>
<g id="a_Node000006"><a xlink:title=" ">
<polygon fill="#e0e0e0" stroke="#999999" points="283,-914190.86 214.5,-914190.86 214.5,-914172.36 283,-914172.36 283,-914190.86"/>
<text text-anchor="middle" x="248.75" y="-914177.36" font-family="Helvetica,sans-Serif" font-size="10.00">fcntl.h</text>
</a>
</g>
</g>
<!-- Node1&#45;&gt;Node6 -->
<g id="edge5_Node000001_Node000006" class="edge">
<title>Node1&#45;&gt;Node6</title>
<g id="a_edge5_Node000001_Node000006"><a xlink:title=" ">
<path fill="none" stroke="#63b8ff" d="M270.25,-1218881.71C259.57,-1067531.59 248.89,-916188.06 248.75,-914202.37"/>
<polygon fill="#63b8ff" stroke="#63b8ff" points="252.25,-914202.45 248.75,-914192.45 245.25,-914202.45 252.25,-914202.45"/>
</a>
</g>
</g>
<!-- Node7 -->
<g id="Node000007" class="node">
<title>Node7</title>
<g id="a_Node000007"><a xlink:title=" ">
<polygon fill="#e0e0e0" stroke="#999999" points="370,-914190.86 301.5,-914190.86 301.5,-914172.36 370,-914172.36 370,-914190.86"/>
<text text-anchor="middle" x="335.75" y="-914177.36" font-family="Helvetica,sans-Serif" font-size="10.00">stdio.h</text>
</a>
</g>
</g>
<!-- Node1&#45;&gt;Node7 -->
<g id="edge6_Node000001_Node000007" class="edge">
<title>Node1&#45;&gt;Node7</title>
<g id="a_edge6_Node000001_Node000007"><a xlink:title=" ">
<path fill="none" stroke="#63b8ff" d="M313.75,-1218881.71C324.68,-1067531.59 335.61,-916188.06 335.75,-914202.37"/>
<polygon fill="#63b8ff" stroke="#63b8ff" points="339.25,-914202.45 335.75,-914192.45 332.25,-914202.45 339.25,-914202.45"/>
</a>
</g>
</g>
<!-- Node8 -->
<g id="Node000008" class="node">
<title>Node8</title>
<g id="a_Node000008"><a xlink:title=" ">
<polygon fill="#e0e0e0" stroke="#999999" points="449.25,-914190.86 388.25,-914190.86 388.25,-914172.36 449.25,-914172.36 449.25,-914190.86"/>
<text text-anchor="middle" x="418.75" y="-914177.36" font-family="Helvetica,sans-Serif" font-size="10.00">time.h</text>
</a>
</g>
</g>
<!-- Node1&#45;&gt;Node8 -->
<g id="edge7_Node000001_Node000008" class="edge">
<title>Node1&#45;&gt;Node8</title>
<g id="a_edge7_Node000001_Node000008"><a xlink:title=" ">
<path fill="none" stroke="#63b8ff" d="M371.5,-1251623.14C374.08,-1240551.92 376.51,-1229592.38 378.75,-1218845.99 406.79,-1084290.09 418.6,-916306.39 418.75,-914202.57"/>
<polygon fill="#63b8ff" stroke="#63b8ff" points="422.25,-914202.86 418.75,-914192.86 415.25,-914202.85 422.25,-914202.86"/>
</a>
</g>
</g>
<!-- Node3 -->
<g id="Node000003" class="node">
<title>Node3</title>
<g id="a_Node000003"><a xlink:title=" ">
<polygon fill="#e0e0e0" stroke="#999999" points="83.5,-304749.86 0,-304749.86 0,-304731.36 83.5,-304731.36 83.5,-304749.86"/>
<text text-anchor="middle" x="41.75" y="-304736.36" font-family="Helvetica,sans-Serif" font-size="10.00">stdbool.h</text>
</a>
</g>
</g>
<!-- Node2&#45;&gt;Node3 -->
<g id="edge2_Node000002_Node000003" class="edge">
<title>Node2&#45;&gt;Node3</title>
<g id="a_edge2_Node000002_Node000003"><a xlink:title=" ">
<path fill="none" stroke="#63b8ff" d="M90.76,-609516.91C66.42,-458141.5 42.07,-306747.73 41.75,-304761.38"/>
<polygon fill="#63b8ff" stroke="#63b8ff" points="45.25,-304761.46 41.75,-304751.46 38.25,-304761.46 45.25,-304761.46"/>
</a>
</g>
</g>
<!-- Node4 -->
<g id="Node000004" class="node">
<title>Node4</title>
<g id="a_Node000004"><a xlink:title=" ">
<polygon fill="#e0e0e0" stroke="#999999" points="177.75,-609481.23 101.75,-609481.23 101.75,0 177.75,0 177.75,-609481.23"/>
<text text-anchor="middle" x="139.75" y="-609467.73" font-family="Helvetica,sans-Serif" font-size="10.00">stddef.h</text>
</a>
</g>
</g>
<!-- Node2&#45;&gt;Node4 -->
<g id="edge3_Node000002_Node000004" class="edge">
<title>Node2&#45;&gt;Node4</title>
<g id="a_edge3_Node000002_Node000004"><a xlink:title=" ">
<path fill="none" stroke="#63b8ff" d="M139.75,-609516.91C139.75,-609508.91 139.75,-609500.91 139.75,-609492.91"/>
<polygon fill="#63b8ff" stroke="#63b8ff" points="143.25,-609493.11 139.75,-609483.11 136.25,-609493.11 143.25,-609493.11"/>
</a>
</g>
</g>
<!-- Node5 -->
<g id="Node000005" class="node">
<title>Node5</title>
<g id="a_Node000005"><a xlink:title=" ">
<polygon fill="#e0e0e0" stroke="#999999" points="271.75,-304749.86 195.75,-304749.86 195.75,-304731.36 271.75,-304731.36 271.75,-304749.86"/>
<text text-anchor="middle" x="233.75" y="-304736.36" font-family="Helvetica,sans-Serif" font-size="10.00">stdint.h</text>
</a>
</g>
</g>
<!-- Node2&#45;&gt;Node5 -->
<g id="edge4_Node000002_Node000005" class="edge">
<title>Node2&#45;&gt;Node5</title>
<g id="a_edge4_Node000002_Node000005"><a xlink:title=" ">
<path fill="none" stroke="#63b8ff" d="M186.74,-609516.87C186.75,-609504.99 186.75,-609493.11 186.75,-609481.23 207.51,-474891.66 233.42,-306865.92 233.75,-304761.58"/>
<polygon fill="#63b8ff" stroke="#63b8ff" points="237.25,-304761.86 233.75,-304751.86 230.25,-304761.86 237.25,-304761.86"/>
</a>
</g>
</g>
</g>
</svg>
