<?xml version="1.0" encoding="UTF-8" standalone="no"?>
<!DOCTYPE svg PUBLIC "-//W3C//DTD SVG 1.1//EN"
 "http://www.w3.org/Graphics/SVG/1.1/DTD/svg11.dtd">
<!-- Generated by graphviz version 9.0.0 (20230911.1827)
 -->
<!-- Title: include/sqsh_posix.h Pages: 1 -->
<svg width="1627pt" height="2735196pt"
 viewBox="0.00 0.00 1626.75 2735196.07" xmlns="http://www.w3.org/2000/svg" xmlns:xlink="http://www.w3.org/1999/xlink">
<g id="graph0" class="graph" transform="scale(1 1) rotate(0) translate(4 2735192.07)">
<title>include/sqsh_posix.h</title>
<!-- Node1 -->
<g id="Node000001" class="node">
<title>Node1</title>
<g id="a_Node000001"><a xlink:title=" ">
<polygon fill="#999999" stroke="#666666" points="860.25,-2735188.07 694.25,-2735188.07 694.25,-2735169.57 860.25,-2735169.57 860.25,-2735188.07"/>
<text text-anchor="middle" x="777.25" y="-2735174.57" font-family="Helvetica,sans-Serif" font-size="10.00">include/sqsh_posix.h</text>
</a>
</g>
</g>
<!-- Node2 -->
<g id="Node000002" class="node">
<title>Node2</title>
<g id="a_Node000002"><a xlink:href="sqsh_8h.html" target="_top" xlink:title=" ">
<polygon fill="white" stroke="#666666" points="837.75,-2735133.57 716.75,-2735133.57 716.75,-1367583.76 837.75,-1367583.76 837.75,-2735133.57"/>
<text text-anchor="middle" x="777.25" y="-2735120.07" font-family="Helvetica,sans-Serif" font-size="10.00">include/sqsh.h</text>
</a>
</g>
</g>
<!-- Node1&#45;&gt;Node2 -->
<g id="edge1_Node000001_Node000002" class="edge">
<title>Node1&#45;&gt;Node2</title>
<g id="a_edge1_Node000001_Node000002"><a xlink:title=" ">
<path fill="none" stroke="#63b8ff" d="M777.25,-2735157.93C777.25,-2735151.49 777.25,-2735143.48 777.25,-2735133.91"/>
<polygon fill="#63b8ff" stroke="#63b8ff" points="773.75,-2735157.74 777.25,-2735167.74 780.75,-2735157.74 773.75,-2735157.74"/>
</a>
</g>
</g>
<!-- Node3 -->
<g id="Node000003" class="node">
<title>Node3</title>
<g id="a_Node000003"><a xlink:href="list__dir_8c.html" target="_top" xlink:title=" ">
<polygon fill="white" stroke="#666666" points="158.5,-1367547.12 0,-1367547.12 0,-0.64 158.5,-0.64 158.5,-1367547.12"/>
<text text-anchor="middle" x="79.25" y="-1367533.62" font-family="Helvetica,sans-Serif" font-size="10.00">examples/list_dir.c</text>
</a>
</g>
</g>
<!-- Node2&#45;&gt;Node3 -->
<g id="edge2_Node000002_Node000003" class="edge">
<title>Node2&#45;&gt;Node3</title>
<g id="a_edge2_Node000002_Node000003"><a xlink:title=" ">
<path fill="none" stroke="#63b8ff" d="M716.24,-1998389.52C586.92,-1883493.67 287.3,-1602764.83 167.25,-1367547.76 164.43,-1362016.39 161.68,-1356459.84 159,-1350880.88"/>
<polygon fill="#63b8ff" stroke="#63b8ff" points="712.74,-1998389.51 716.25,-1998399.51 719.74,-1998389.5 712.74,-1998389.51"/>
</a>
</g>
</g>
<!-- Node4 -->
<g id="Node000004" class="node">
<title>Node4</title>
<g id="a_Node000004"><a xlink:href="list__dir__ll_8c.html" target="_top" xlink:title=" ">
<polygon fill="white" stroke="#666666" points="357.75,-1367538.59 176.75,-1367538.59 176.75,-9.16 357.75,-9.16 357.75,-1367538.59"/>
<text text-anchor="middle" x="267.25" y="-1367525.09" font-family="Helvetica,sans-Serif" font-size="10.00">examples/list_dir_ll.c</text>
</a>
</g>
</g>
<!-- Node2&#45;&gt;Node4 -->
<g id="edge3_Node000002_Node000004" class="edge">
<title>Node2&#45;&gt;Node4</title>
<g id="a_edge3_Node000002_Node000004"><a xlink:title=" ">
<path fill="none" stroke="#63b8ff" d="M716.24,-1969845.68C623.01,-1841663.02 447.39,-1585133.14 366.25,-1367547.76 363.51,-1360198.34 360.84,-1352804.49 358.25,-1345372.65"/>
<polygon fill="#63b8ff" stroke="#63b8ff" points="712.74,-1969845.54 716.25,-1969855.54 719.74,-1969845.54 712.74,-1969845.54"/>
</a>
</g>
</g>
<!-- Node5 -->
<g id="Node000005" class="node">
<title>Node5</title>
<g id="a_Node000005"><a xlink:href="list__xattrs_8c.html" target="_top" xlink:title=" ">
<polygon fill="white" stroke="#666666" points="556.75,-1367547.73 375.75,-1367547.73 375.75,-0.03 556.75,-0.03 556.75,-1367547.73"/>
<text text-anchor="middle" x="466.25" y="-1367534.23" font-family="Helvetica,sans-Serif" font-size="10.00">examples/list_xattrs.c</text>
</a>
</g>
</g>
<!-- Node2&#45;&gt;Node5 -->
<g id="edge4_Node000002_Node000005" class="edge">
<title>Node2&#45;&gt;Node5</title>
<g id="a_edge4_Node000002_Node000005"><a xlink:title=" ">
<path fill="none" stroke="#63b8ff" d="M716.25,-1879887.34C668.93,-1741583.52 604.93,-1542042.28 565.25,-1367547.76 562.52,-1355553.38 559.86,-1343440.66 557.25,-1331237.61"/>
<polygon fill="#63b8ff" stroke="#63b8ff" points="712.75,-1879887.3 716.25,-1879897.3 719.75,-1879887.3 712.75,-1879887.3"/>
</a>
</g>
</g>
<!-- Node6 -->
<g id="Node000006" class="node">
<title>Node6</title>
<g id="a_Node000006"><a xlink:href="list__xattrs__ll_8c.html" target="_top" xlink:title=" ">
<polygon fill="white" stroke="#666666" points="778,-1367547.76 574.5,-1367547.76 574.5,0 778,0 778,-1367547.76"/>
<text text-anchor="middle" x="676.25" y="-1367534.26" font-family="Helvetica,sans-Serif" font-size="10.00">examples/list_xattrs_ll.c</text>
</a>
</g>
</g>
<!-- Node2&#45;&gt;Node6 -->
<g id="edge5_Node000002_Node000006" class="edge">
<title>Node2&#45;&gt;Node6</title>
<g id="a_edge5_Node000002_Node000006"><a xlink:title=" ">
<path fill="none" stroke="#63b8ff" d="M726.75,-1367572.11C726.75,-1367564.13 726.75,-1367556.15 726.75,-1367548.17"/>
<polygon fill="#63b8ff" stroke="#63b8ff" points="723.25,-1367571.88 726.75,-1367581.87 730.25,-1367571.87 723.25,-1367571.88"/>
</a>
</g>
</g>
<!-- Node7 -->
<g id="Node000007" class="node">
<title>Node7</title>
<g id="a_Node000007"><a xlink:href="read__file_8c.html" target="_top" xlink:title=" ">
<polygon fill="white" stroke="#666666" points="962.25,-683783.13 796.25,-683783.13 796.25,-683764.63 962.25,-683764.63 962.25,-683783.13"/>
<text text-anchor="middle" x="879.25" y="-683769.63" font-family="Helvetica,sans-Serif" font-size="10.00">examples/read_file.c</text>
</a>
</g>
</g>
<!-- Node2&#45;&gt;Node7 -->
<g id="edge6_Node000002_Node000007" class="edge">
<title>Node2&#45;&gt;Node7</title>
<g id="a_edge6_Node000002_Node000007"><a xlink:title=" ">
<path fill="none" stroke="#63b8ff" d="M828.25,-1367572.17C853.68,-1026655.31 879.1,-685736.48 879.25,-683783.31"/>
<polygon fill="#63b8ff" stroke="#63b8ff" points="824.75,-1367571.87 828.25,-1367581.87 831.75,-1367571.88 824.75,-1367571.87"/>
</a>
</g>
</g>
<!-- Node8 -->
<g id="Node000008" class="node">
<title>Node8</title>
<g id="a_Node000008"><a xlink:href="read__file__ll_8c.html" target="_top" xlink:title=" ">
<polygon fill="white" stroke="#666666" points="1168.5,-683783.13 980,-683783.13 980,-683764.63 1168.5,-683764.63 1168.5,-683783.13"/>
<text text-anchor="middle" x="1074.25" y="-683769.63" font-family="Helvetica,sans-Serif" font-size="10.00">examples/read_file_ll.c</text>
</a>
</g>
</g>
<!-- Node2&#45;&gt;Node8 -->
<g id="edge7_Node000002_Node000008" class="edge">
<title>Node2&#45;&gt;Node8</title>
<g id="a_edge7_Node000002_Node000008"><a xlink:title=" ">
<path fill="none" stroke="#63b8ff" d="M838.25,-1860298.81C880.38,-1723166.25 935.11,-1533966.07 971.25,-1367547.76 1037.07,-1064483.39 1074.05,-685861.02 1074.25,-683783.47"/>
<polygon fill="#63b8ff" stroke="#63b8ff" points="834.75,-1860298.67 838.25,-1860308.67 841.75,-1860298.67 834.75,-1860298.67"/>
</a>
</g>
</g>
<!-- Node9 -->
<g id="Node000009" class="node">
<title>Node9</title>
<g id="a_Node000009"><a xlink:href="readme__example_8c.html" target="_top" xlink:title=" ">
<polygon fill="white" stroke="#666666" points="1390,-683783.13 1186.5,-683783.13 1186.5,-683764.63 1390,-683764.63 1390,-683783.13"/>
<text text-anchor="middle" x="1288.25" y="-683769.63" font-family="Helvetica,sans-Serif" font-size="10.00">examples/readme_example.c</text>
</a>
</g>
</g>
<!-- Node2&#45;&gt;Node9 -->
<g id="edge8_Node000002_Node000009" class="edge">
<title>Node2&#45;&gt;Node9</title>
<g id="a_edge8_Node000002_Node000009"><a xlink:title=" ">
<path fill="none" stroke="#63b8ff" d="M838.26,-1966712.96C928.77,-1837519.35 1096.61,-1583374.75 1177.25,-1367547.76 1290.49,-1064483.4 1288.26,-685861.02 1288.25,-683783.47"/>
<polygon fill="#63b8ff" stroke="#63b8ff" points="834.76,-1966712.9 838.25,-1966722.9 841.76,-1966712.9 834.76,-1966712.9"/>
</a>
</g>
</g>
<!-- Node10 -->
<g id="Node000010" class="node">
<title>Node10</title>
<g id="a_Node000010"><a xlink:href="traverse__dir__ll_8c.html" target="_top" xlink:title=" ">
<polygon fill="white" stroke="#666666" points="1618.75,-683783.13 1407.75,-683783.13 1407.75,-683764.63 1618.75,-683764.63 1618.75,-683783.13"/>
<text text-anchor="middle" x="1513.25" y="-683769.63" font-family="Helvetica,sans-Serif" font-size="10.00">examples/traverse_dir_ll.c</text>
</a>
</g>
</g>
<!-- Node2&#45;&gt;Node10 -->
<g id="edge9_Node000002_Node000010" class="edge">
<title>Node2&#45;&gt;Node10</title>
<g id="a_edge9_Node000002_Node000010"><a xlink:title=" ">
<path fill="none" stroke="#63b8ff" d="M838.26,-1998882.43C968.57,-1884298.34 1272.48,-1603101.9 1399.25,-1367547.76 1562.35,-1064483.42 1513.52,-685861.02 1513.25,-683783.47"/>
<polygon fill="#63b8ff" stroke="#63b8ff" points="834.76,-1998882.39 838.25,-1998892.39 841.76,-1998882.4 834.76,-1998882.39"/>
</a>
</g>
</g>
</g>
</svg>
