<?xml version="1.0" encoding="UTF-8" standalone="no"?>
<!DOCTYPE svg PUBLIC "-//W3C//DTD SVG 1.1//EN"
 "http://www.w3.org/Graphics/SVG/1.1/DTD/svg11.dtd">
<!-- Generated by graphviz version 9.0.0 (20230911.1827)
 -->
<!-- Title: include/sqsh.h Pages: 1 -->
<svg width="1627pt" height="847970pt"
 viewBox="0.00 0.00 1626.75 847969.78" xmlns="http://www.w3.org/2000/svg" xmlns:xlink="http://www.w3.org/1999/xlink">
<g id="graph0" class="graph" transform="scale(1 1) rotate(0) translate(4 847965.78)">
<title>include/sqsh.h</title>
<!-- Node1 -->
<g id="Node000001" class="node">
<title>Node1</title>
<g id="a_Node000001"><a xlink:title=" ">
<polygon fill="#999999" stroke="#666666" points="837.75,-847961.78 716.75,-847961.78 716.75,-847943.28 837.75,-847943.28 837.75,-847961.78"/>
<text text-anchor="middle" x="777.25" y="-847948.28" font-family="Helvetica,sans-Serif" font-size="10.00">include/sqsh.h</text>
</a>
</g>
</g>
<!-- Node2 -->
<g id="Node000002" class="node">
<title>Node2</title>
<g id="a_Node000002"><a xlink:href="list__dir_8c.html" target="_top" xlink:title=" ">
<polygon fill="white" stroke="#666666" points="158.5,-423962.89 0,-423962.89 0,-423944.39 158.5,-423944.39 158.5,-423962.89"/>
<text text-anchor="middle" x="79.25" y="-423949.39" font-family="Helvetica,sans-Serif" font-size="10.00">examples/list_dir.c</text>
</a>
</g>
</g>
<!-- Node1&#45;&gt;Node2 -->
<g id="edge1_Node000001_Node000002" class="edge">
<title>Node1&#45;&gt;Node2</title>
<g id="a_edge1_Node000001_Node000002"><a xlink:title=" ">
<path fill="none" stroke="#63b8ff" d="M705.11,-847951.68C551.51,-847951.24 203.21,-847945.94 167.25,-847907.28 -82.76,-847638.54 78.4,-426175.65 79.25,-423963.38"/>
<polygon fill="#63b8ff" stroke="#63b8ff" points="704.74,-847955.18 714.75,-847951.7 704.76,-847948.18 704.74,-847955.18"/>
</a>
</g>
</g>
<!-- Node3 -->
<g id="Node000003" class="node">
<title>Node3</title>
<g id="a_Node000003"><a xlink:href="list__dir__ll_8c.html" target="_top" xlink:title=" ">
<polygon fill="white" stroke="#666666" points="357.75,-423962.89 176.75,-423962.89 176.75,-423944.39 357.75,-423944.39 357.75,-423962.89"/>
<text text-anchor="middle" x="267.25" y="-423949.39" font-family="Helvetica,sans-Serif" font-size="10.00">examples/list_dir_ll.c</text>
</a>
</g>
</g>
<!-- Node1&#45;&gt;Node3 -->
<g id="edge2_Node000001_Node000003" class="edge">
<title>Node1&#45;&gt;Node3</title>
<g id="a_edge2_Node000001_Node000003"><a xlink:title=" ">
<path fill="none" stroke="#63b8ff" d="M705.32,-847948.92C593.5,-847944.1 388.45,-847931.99 366.25,-847907.28 120.96,-847634.23 266.48,-426175.62 267.25,-423963.38"/>
<polygon fill="#63b8ff" stroke="#63b8ff" points="704.85,-847952.4 714.99,-847949.32 705.14,-847945.41 704.85,-847952.4"/>
</a>
</g>
</g>
<!-- Node4 -->
<g id="Node000004" class="node">
<title>Node4</title>
<g id="a_Node000004"><a xlink:href="list__xattrs_8c.html" target="_top" xlink:title=" ">
<polygon fill="white" stroke="#666666" points="556.75,-423962.89 375.75,-423962.89 375.75,-423944.39 556.75,-423944.39 556.75,-423962.89"/>
<text text-anchor="middle" x="466.25" y="-423949.39" font-family="Helvetica,sans-Serif" font-size="10.00">examples/list_xattrs.c</text>
</a>
</g>
</g>
<!-- Node1&#45;&gt;Node4 -->
<g id="edge3_Node000001_Node000004" class="edge">
<title>Node1&#45;&gt;Node4</title>
<g id="a_edge3_Node000001_Node000004"><a xlink:title=" ">
<path fill="none" stroke="#63b8ff" d="M704.98,-847946.05C650.68,-847940.25 582.77,-847928.83 565.25,-847907.28 333.7,-847622.48 465.55,-426175.56 466.25,-423963.38"/>
<polygon fill="#63b8ff" stroke="#63b8ff" points="704.53,-847949.52 714.83,-847947.05 705.23,-847942.55 704.53,-847949.52"/>
</a>
</g>
</g>
<!-- Node5 -->
<g id="Node000005" class="node">
<title>Node5</title>
<g id="a_Node000005"><a xlink:href="list__xattrs__ll_8c.html" target="_top" xlink:title=" ">
<polygon fill="white" stroke="#666666" points="778,-847907.28 574.5,-847907.28 574.5,0 778,0 778,-847907.28"/>
<text text-anchor="middle" x="676.25" y="-847893.78" font-family="Helvetica,sans-Serif" font-size="10.00">examples/list_xattrs_ll.c</text>
</a>
</g>
</g>
<!-- Node1&#45;&gt;Node5 -->
<g id="edge4_Node000001_Node000005" class="edge">
<title>Node1&#45;&gt;Node5</title>
<g id="a_edge4_Node000001_Node000005"><a xlink:title=" ">
<path fill="none" stroke="#63b8ff" d="M777.25,-847931.51C777.24,-847925.1 777.24,-847917.17 777.24,-847907.71"/>
<polygon fill="#63b8ff" stroke="#63b8ff" points="773.75,-847931.27 777.25,-847941.27 780.75,-847931.27 773.75,-847931.27"/>
</a>
</g>
</g>
<!-- Node6 -->
<g id="Node000006" class="node">
<title>Node6</title>
<g id="a_Node000006"><a xlink:href="read__file_8c.html" target="_top" xlink:title=" ">
<polygon fill="white" stroke="#666666" points="962.25,-847907.24 796.25,-847907.24 796.25,-0.04 962.25,-0.04 962.25,-847907.24"/>
<text text-anchor="middle" x="879.25" y="-847893.74" font-family="Helvetica,sans-Serif" font-size="10.00">examples/read_file.c</text>
</a>
</g>
</g>
<!-- Node1&#45;&gt;Node6 -->
<g id="edge5_Node000001_Node000006" class="edge">
<title>Node1&#45;&gt;Node6</title>
<g id="a_edge5_Node000001_Node000006"><a xlink:title=" ">
<path fill="none" stroke="#63b8ff" d="M782.69,-847931.81C784.53,-847924.21 786.34,-847915.4 787.25,-847907.28 790.13,-847881.52 792.96,-847823.35 795.75,-847733.34"/>
<polygon fill="#63b8ff" stroke="#63b8ff" points="779.34,-847930.79 780.21,-847941.35 786.11,-847932.56 779.34,-847930.79"/>
</a>
</g>
</g>
<!-- Node7 -->
<g id="Node000007" class="node">
<title>Node7</title>
<g id="a_Node000007"><a xlink:href="read__file__ll_8c.html" target="_top" xlink:title=" ">
<polygon fill="white" stroke="#666666" points="1168.5,-423962.93 980,-423962.93 980,-423944.35 1168.5,-423944.35 1168.5,-423962.93"/>
<text text-anchor="middle" x="1074.25" y="-423949.43" font-family="Helvetica,sans-Serif" font-size="10.00">examples/read_file_ll.c</text>
</a>
</g>
</g>
<!-- Node1&#45;&gt;Node7 -->
<g id="edge6_Node000001_Node000007" class="edge">
<title>Node1&#45;&gt;Node7</title>
<g id="a_edge6_Node000001_Node000007"><a xlink:title=" ">
<path fill="none" stroke="#63b8ff" d="M849.36,-847944.42C897.98,-847937.96 955.96,-847926.45 971.25,-847907.28 1200.16,-847620.36 1074.91,-426175.55 1074.25,-423963.38"/>
<polygon fill="#63b8ff" stroke="#63b8ff" points="849.17,-847940.92 839.69,-847945.65 850.05,-847947.86 849.17,-847940.92"/>
</a>
</g>
</g>
<!-- Node8 -->
<g id="Node000008" class="node">
<title>Node8</title>
<g id="a_Node000008"><a xlink:href="readme__example_8c.html" target="_top" xlink:title=" ">
<polygon fill="white" stroke="#666666" points="1390,-423962.89 1186.5,-423962.89 1186.5,-423944.39 1390,-423944.39 1390,-423962.89"/>
<text text-anchor="middle" x="1288.25" y="-423949.39" font-family="Helvetica,sans-Serif" font-size="10.00">examples/readme_example.c</text>
</a>
</g>
</g>
<!-- Node1&#45;&gt;Node8 -->
<g id="edge7_Node000001_Node000008" class="edge">
<title>Node1&#45;&gt;Node8</title>
<g id="a_edge7_Node000001_Node000008"><a xlink:title=" ">
<path fill="none" stroke="#63b8ff" d="M849.31,-847948.68C958.57,-847943.61 1155.81,-847931.22 1177.25,-847907.28 1422.14,-847633.87 1288.95,-426175.62 1288.25,-423963.38"/>
<polygon fill="#63b8ff" stroke="#63b8ff" points="849.39,-847945.17 839.56,-847949.12 849.71,-847952.16 849.39,-847945.17"/>
</a>
</g>
</g>
<!-- Node9 -->
<g id="Node000009" class="node">
<title>Node9</title>
<g id="a_Node000009"><a xlink:href="traverse__dir__ll_8c.html" target="_top" xlink:title=" ">
<polygon fill="white" stroke="#666666" points="1618.75,-423962.89 1407.75,-423962.89 1407.75,-423944.39 1618.75,-423944.39 1618.75,-423962.89"/>
<text text-anchor="middle" x="1513.25" y="-423949.39" font-family="Helvetica,sans-Serif" font-size="10.00">examples/traverse_dir_ll.c</text>
</a>
</g>
</g>
<!-- Node1&#45;&gt;Node9 -->
<g id="edge8_Node000001_Node000009" class="edge">
<title>Node1&#45;&gt;Node9</title>
<g id="a_edge8_Node000001_Node000009"><a xlink:title=" ">
<path fill="none" stroke="#63b8ff" d="M849.37,-847951.79C1005.23,-847951.59 1362.44,-847946.79 1399.25,-847907.28 1649.45,-847638.72 1513.97,-426175.65 1513.25,-423963.38"/>
<polygon fill="#63b8ff" stroke="#63b8ff" points="849.57,-847948.29 839.57,-847951.8 849.57,-847955.29 849.57,-847948.29"/>
</a>
</g>
</g>
</g>
</svg>
