<?xml version="1.0" encoding="UTF-8" standalone="no"?>
<!DOCTYPE svg PUBLIC "-//W3C//DTD SVG 1.1//EN"
 "http://www.w3.org/Graphics/SVG/1.1/DTD/svg11.dtd">
<!-- Generated by graphviz version 9.0.0 (20230911.1827)
 -->
<!-- Title: libsqsh/include/sqsh_mapper_private.h Pages: 1 -->
<svg width="445pt" height="1117727pt"
 viewBox="0.00 0.00 444.92 1117727.40" xmlns="http://www.w3.org/2000/svg" xmlns:xlink="http://www.w3.org/1999/xlink">
<g id="graph0" class="graph" transform="scale(1 1) rotate(0) translate(4 1117723.4)">
<title>libsqsh/include/sqsh_mapper_private.h</title>
<!-- Node1 -->
<g id="Node000001" class="node">
<title>Node1</title>
<g id="a_Node000001"><a xlink:title=" ">
<polygon fill="#999999" stroke="#666666" points="295,-1117719.4 129,-1117719.4 129,-1117690.4 295,-1117690.4 295,-1117719.4"/>
<text text-anchor="start" x="137" y="-1117705.9" font-family="Helvetica,sans-Serif" font-size="10.00">libsqsh/include/sqsh</text>
<text text-anchor="middle" x="212" y="-1117695.4" font-family="Helvetica,sans-Serif" font-size="10.00">_mapper_private.h</text>
</a>
</g>
</g>
<!-- Node2 -->
<g id="Node000002" class="node">
<title>Node2</title>
<g id="a_Node000002"><a xlink:href="sqsh__file__private_8h.html" target="_top" xlink:title=" ">
<polygon fill="white" stroke="#666666" points="222,-1117569.92 56,-1117569.92 56,-1117540.92 222,-1117540.92 222,-1117569.92"/>
<text text-anchor="start" x="64" y="-1117556.42" font-family="Helvetica,sans-Serif" font-size="10.00">libsqsh/include/sqsh</text>
<text text-anchor="middle" x="139" y="-1117545.92" font-family="Helvetica,sans-Serif" font-size="10.00">_file_private.h</text>
</a>
</g>
</g>
<!-- Node1&#45;&gt;Node2 -->
<g id="edge1_Node000001_Node000002" class="edge">
<title>Node1&#45;&gt;Node2</title>
<g id="a_edge1_Node000001_Node000002"><a xlink:title=" ">
<path fill="none" stroke="#63b8ff" d="M209.79,-1117678.65C207.44,-1117660.89 202.67,-1117636.98 193,-1117617.9 183.56,-1117599.27 167.16,-1117581.77 154.9,-1117570.24"/>
<polygon fill="#63b8ff" stroke="#63b8ff" points="206.31,-1117679.04 210.91,-1117688.58 213.26,-1117678.25 206.31,-1117679.04"/>
</a>
</g>
</g>
<!-- Node6 -->
<g id="Node000006" class="node">
<title>Node6</title>
<g id="a_Node000006"><a xlink:href="sqsh__metablock__private_8h.html" target="_top" xlink:title=" ">
<polygon fill="white" stroke="#666666" points="184,-1117654.4 18,-1117654.4 18,-1117617.9 184,-1117617.9 184,-1117654.4"/>
<text text-anchor="start" x="26" y="-1117640.9" font-family="Helvetica,sans-Serif" font-size="10.00">libsqsh/include/sqsh</text>
<text text-anchor="middle" x="101" y="-1117622.9" font-family="Helvetica,sans-Serif" font-size="10.00">_metablock_private.h</text>
</a>
</g>
</g>
<!-- Node1&#45;&gt;Node6 -->
<g id="edge5_Node000001_Node000006" class="edge">
<title>Node1&#45;&gt;Node6</title>
<g id="a_edge5_Node000001_Node000006"><a xlink:title=" ">
<path fill="none" stroke="#63b8ff" d="M179.01,-1117684.06C163.5,-1117674.74 145.17,-1117663.71 130.18,-1117654.7"/>
<polygon fill="#63b8ff" stroke="#63b8ff" points="177.06,-1117686.98 187.43,-1117689.13 180.67,-1117680.98 177.06,-1117686.98"/>
</a>
</g>
</g>
<!-- Node8 -->
<g id="Node000008" class="node">
<title>Node8</title>
<g id="a_Node000008"><a xlink:href="sqsh__table__private_8h.html" target="_top" xlink:title=" ">
<polygon fill="white" stroke="#666666" points="406,-1117650.65 240,-1117650.65 240,-1117621.65 406,-1117621.65 406,-1117650.65"/>
<text text-anchor="start" x="248" y="-1117637.15" font-family="Helvetica,sans-Serif" font-size="10.00">libsqsh/include/sqsh</text>
<text text-anchor="middle" x="323" y="-1117626.65" font-family="Helvetica,sans-Serif" font-size="10.00">_table_private.h</text>
</a>
</g>
</g>
<!-- Node1&#45;&gt;Node8 -->
<g id="edge10_Node000001_Node000008" class="edge">
<title>Node1&#45;&gt;Node8</title>
<g id="a_edge10_Node000001_Node000008"><a xlink:title=" ">
<path fill="none" stroke="#63b8ff" d="M244.65,-1117684.27C262.34,-1117673.63 283.78,-1117660.73 299.76,-1117651.13"/>
<polygon fill="#63b8ff" stroke="#63b8ff" points="243.33,-1117680.98 236.57,-1117689.13 246.94,-1117686.98 243.33,-1117680.98"/>
</a>
</g>
</g>
<!-- Node3 -->
<g id="Node000003" class="node">
<title>Node3</title>
<g id="a_Node000003"><a xlink:href="sqsh__archive__private_8h.html" target="_top" xlink:title=" ">
<polygon fill="white" stroke="#666666" points="378,-1117492.94 212,-1117492.94 212,-88.96 378,-88.96 378,-1117492.94"/>
<text text-anchor="start" x="220" y="-1117479.44" font-family="Helvetica,sans-Serif" font-size="10.00">libsqsh/include/sqsh</text>
<text text-anchor="middle" x="295" y="-558787.8" font-family="Helvetica,sans-Serif" font-size="10.00">_archive_private.h</text>
</a>
</g>
</g>
<!-- Node2&#45;&gt;Node3 -->
<g id="edge2_Node000002_Node000003" class="edge">
<title>Node2&#45;&gt;Node3</title>
<g id="a_edge2_Node000002_Node000003"><a xlink:title=" ">
<path fill="none" stroke="#63b8ff" d="M156.37,-1117531.46C163.65,-1117520.43 171.28,-1117506.65 175,-1117492.94 511.17,-1116254.04 454.98,-872012.86 378.5,-706911.89"/>
<polygon fill="#63b8ff" stroke="#63b8ff" points="153.62,-1117529.29 150.77,-1117539.49 159.36,-1117533.29 153.62,-1117529.29"/>
</a>
</g>
</g>
<!-- Node4 -->
<g id="Node000004" class="node">
<title>Node4</title>
<g id="a_Node000004"><a xlink:href="sqsh__directory__private_8h.html" target="_top" xlink:title=" ">
<polygon fill="white" stroke="#666666" points="166,-558811.02 0,-558811.02 0,-558770.88 166,-558770.88 166,-558811.02"/>
<text text-anchor="start" x="8" y="-558797.52" font-family="Helvetica,sans-Serif" font-size="10.00">libsqsh/include/sqsh</text>
<text text-anchor="middle" x="83" y="-558787.02" font-family="Helvetica,sans-Serif" font-size="10.00">_directory_private.h</text>
</a>
</g>
</g>
<!-- Node2&#45;&gt;Node4 -->
<g id="edge3_Node000002_Node000004" class="edge">
<title>Node2&#45;&gt;Node4</title>
<g id="a_edge3_Node000002_Node000004"><a xlink:title=" ">
<path fill="none" stroke="#63b8ff" d="M139,-1117529.39C138.57,-1113253.3 83.38,-562579.48 83,-558811.38"/>
<polygon fill="#63b8ff" stroke="#63b8ff" points="135.5,-1117529.14 139,-1117539.14 142.5,-1117529.14 135.5,-1117529.14"/>
</a>
</g>
</g>
<!-- Node5 -->
<g id="Node000005" class="node">
<title>Node5</title>
<g id="a_Node000005"><a xlink:href="sqsh__tree__private_8h.html" target="_top" xlink:title=" ">
<polygon fill="white" stroke="#666666" points="166,-52.96 0,-52.96 0,0 166,0 166,-52.96"/>
<text text-anchor="start" x="8" y="-39.46" font-family="Helvetica,sans-Serif" font-size="10.00">libsqsh/include/sqsh</text>
<text text-anchor="middle" x="83" y="-28.96" font-family="Helvetica,sans-Serif" font-size="10.00">_tree_private.h</text>
</a>
</g>
</g>
<!-- Node4&#45;&gt;Node5 -->
<g id="edge4_Node000004_Node000005" class="edge">
<title>Node4&#45;&gt;Node5</title>
<g id="a_edge4_Node000004_Node000005"><a xlink:title=" ">
<path fill="none" stroke="#63b8ff" d="M83,-558759.1C83,-554017.6 83,-4384.52 83,-53.22"/>
<polygon fill="#63b8ff" stroke="#63b8ff" points="79.5,-558758.9 83,-558768.9 86.5,-558758.9 79.5,-558758.9"/>
</a>
</g>
</g>
<!-- Node6&#45;&gt;Node2 -->
<g id="edge7_Node000006_Node000002" class="edge">
<title>Node6&#45;&gt;Node2</title>
<g id="a_edge7_Node000006_Node000002"><a xlink:title=" ">
<path fill="none" stroke="#63b8ff" d="M114.3,-1117607.6C120.41,-1117594.95 127.38,-1117580.5 132.36,-1117570.18"/>
<polygon fill="#63b8ff" stroke="#63b8ff" points="111.29,-1117605.79 110.09,-1117616.32 117.59,-1117608.83 111.29,-1117605.79"/>
</a>
</g>
</g>
<!-- Node6&#45;&gt;Node4 -->
<g id="edge6_Node000006_Node000004" class="edge">
<title>Node6&#45;&gt;Node4</title>
<g id="a_edge6_Node000006_Node000004"><a xlink:title=" ">
<path fill="none" stroke="#63b8ff" d="M67,-1117609.74C58.91,-1117601.81 51.37,-1117592.36 47,-1117581.9 37.92,-1117560.19 47,-1117552.48 47,-1117528.94 54.96,-870338.14 82.74,-561632.53 83,-558811.43"/>
<polygon fill="#63b8ff" stroke="#63b8ff" points="64.62,-1117612.31 74.38,-1117616.42 69.31,-1117607.12 64.62,-1117612.31"/>
</a>
</g>
</g>
<!-- Node7 -->
<g id="Node000007" class="node">
<title>Node7</title>
<g id="a_Node000007"><a xlink:href="sqsh__xattr__private_8h.html" target="_top" xlink:title=" ">
<polygon fill="white" stroke="#666666" points="406,-1117581.9 240,-1117581.9 240,-1117528.94 406,-1117528.94 406,-1117581.9"/>
<text text-anchor="start" x="248" y="-1117568.4" font-family="Helvetica,sans-Serif" font-size="10.00">libsqsh/include/sqsh</text>
<text text-anchor="middle" x="323" y="-1117533.94" font-family="Helvetica,sans-Serif" font-size="10.00">_xattr_private.h</text>
</a>
</g>
</g>
<!-- Node6&#45;&gt;Node7 -->
<g id="edge8_Node000006_Node000007" class="edge">
<title>Node6&#45;&gt;Node7</title>
<g id="a_edge8_Node000006_Node000007"><a xlink:title=" ">
<path fill="none" stroke="#63b8ff" d="M161.38,-1117613.74C188.65,-1117604.07 221.1,-1117592.56 249.75,-1117582.4"/>
<polygon fill="#63b8ff" stroke="#63b8ff" points="160.5,-1117610.34 152.25,-1117616.98 162.84,-1117616.93 160.5,-1117610.34"/>
</a>
</g>
</g>
<!-- Node7&#45;&gt;Node3 -->
<g id="edge9_Node000007_Node000003" class="edge">
<title>Node7&#45;&gt;Node3</title>
<g id="a_edge9_Node000007_Node000003"><a xlink:title=" ">
<path fill="none" stroke="#63b8ff" d="M323,-1117517.05C323,-1117510.11 323,-1117502.2 323,-1117493.32"/>
<polygon fill="#63b8ff" stroke="#63b8ff" points="319.5,-1117517 323,-1117527 326.5,-1117517 319.5,-1117517"/>
</a>
</g>
</g>
<!-- Node8&#45;&gt;Node7 -->
<g id="edge11_Node000008_Node000007" class="edge">
<title>Node8&#45;&gt;Node7</title>
<g id="a_edge11_Node000008_Node000007"><a xlink:title=" ">
<path fill="none" stroke="#63b8ff" d="M323,-1117609.94C323,-1117601.13 323,-1117591.24 323,-1117582.38"/>
<polygon fill="#63b8ff" stroke="#63b8ff" points="319.5,-1117609.92 323,-1117619.92 326.5,-1117609.92 319.5,-1117609.92"/>
</a>
</g>
</g>
</g>
</svg>
