<?xml version="1.0" encoding="UTF-8" standalone="no"?>
<!DOCTYPE svg PUBLIC "-//W3C//DTD SVG 1.1//EN"
 "http://www.w3.org/Graphics/SVG/1.1/DTD/svg11.dtd">
<!-- Generated by graphviz version 9.0.0 (20230911.1827)
 -->
<!-- Title: libsqsh/include/sqsh_mapper_private.h Pages: 1 -->
<svg width="414pt" height="393588pt"
 viewBox="0.00 0.00 414.00 393588.22" xmlns="http://www.w3.org/2000/svg" xmlns:xlink="http://www.w3.org/1999/xlink">
<g id="graph0" class="graph" transform="scale(1 1) rotate(0) translate(4 393584.22)">
<title>libsqsh/include/sqsh_mapper_private.h</title>
<!-- Node1 -->
<g id="Node000001" class="node">
<title>Node1</title>
<g id="a_Node000001"><a xlink:title=" ">
<polygon fill="#999999" stroke="#666666" points="295,-393580.22 129,-393580.22 129,-393551.22 295,-393551.22 295,-393580.22"/>
<text text-anchor="start" x="137" y="-393566.72" font-family="Helvetica,sans-Serif" font-size="10.00">libsqsh/include/sqsh</text>
<text text-anchor="middle" x="212" y="-393556.22" font-family="Helvetica,sans-Serif" font-size="10.00">_mapper_private.h</text>
</a>
</g>
</g>
<!-- Node2 -->
<g id="Node000002" class="node">
<title>Node2</title>
<g id="a_Node000002"><a xlink:href="sqsh__file__private_8h.html" target="_top" xlink:title=" ">
<polygon fill="white" stroke="#666666" points="222,-393430.8 56,-393430.8 56,-393401.8 222,-393401.8 222,-393430.8"/>
<text text-anchor="start" x="64" y="-393417.3" font-family="Helvetica,sans-Serif" font-size="10.00">libsqsh/include/sqsh</text>
<text text-anchor="middle" x="139" y="-393406.8" font-family="Helvetica,sans-Serif" font-size="10.00">_file_private.h</text>
</a>
</g>
</g>
<!-- Node1&#45;&gt;Node2 -->
<g id="edge1_Node000001_Node000002" class="edge">
<title>Node1&#45;&gt;Node2</title>
<g id="a_edge1_Node000001_Node000002"><a xlink:title=" ">
<path fill="none" stroke="#63b8ff" d="M209.79,-393539.47C207.45,-393521.7 202.67,-393497.8 193,-393478.72 183.56,-393460.1 167.16,-393442.61 154.9,-393431.1"/>
<polygon fill="#63b8ff" stroke="#63b8ff" points="206.31,-393539.85 210.91,-393549.4 213.27,-393539.07 206.31,-393539.85"/>
</a>
</g>
</g>
<!-- Node6 -->
<g id="Node000006" class="node">
<title>Node6</title>
<g id="a_Node000006"><a xlink:href="sqsh__metablock__private_8h.html" target="_top" xlink:title=" ">
<polygon fill="white" stroke="#666666" points="184,-393515.22 18,-393515.22 18,-393478.72 184,-393478.72 184,-393515.22"/>
<text text-anchor="start" x="26" y="-393501.72" font-family="Helvetica,sans-Serif" font-size="10.00">libsqsh/include/sqsh</text>
<text text-anchor="middle" x="101" y="-393483.72" font-family="Helvetica,sans-Serif" font-size="10.00">_metablock_private.h</text>
</a>
</g>
</g>
<!-- Node1&#45;&gt;Node6 -->
<g id="edge5_Node000001_Node000006" class="edge">
<title>Node1&#45;&gt;Node6</title>
<g id="a_edge5_Node000001_Node000006"><a xlink:title=" ">
<path fill="none" stroke="#63b8ff" d="M179.01,-393544.88C163.5,-393535.56 145.17,-393524.53 130.18,-393515.51"/>
<polygon fill="#63b8ff" stroke="#63b8ff" points="177.06,-393547.79 187.43,-393549.95 180.67,-393541.79 177.06,-393547.79"/>
</a>
</g>
</g>
<!-- Node8 -->
<g id="Node000008" class="node">
<title>Node8</title>
<g id="a_Node000008"><a xlink:href="sqsh__table__private_8h.html" target="_top" xlink:title=" ">
<polygon fill="white" stroke="#666666" points="406,-393511.47 240,-393511.47 240,-393482.47 406,-393482.47 406,-393511.47"/>
<text text-anchor="start" x="248" y="-393497.97" font-family="Helvetica,sans-Serif" font-size="10.00">libsqsh/include/sqsh</text>
<text text-anchor="middle" x="323" y="-393487.47" font-family="Helvetica,sans-Serif" font-size="10.00">_table_private.h</text>
</a>
</g>
</g>
<!-- Node1&#45;&gt;Node8 -->
<g id="edge10_Node000001_Node000008" class="edge">
<title>Node1&#45;&gt;Node8</title>
<g id="a_edge10_Node000001_Node000008"><a xlink:title=" ">
<path fill="none" stroke="#63b8ff" d="M244.65,-393545.08C262.34,-393534.45 283.78,-393521.55 299.76,-393511.94"/>
<polygon fill="#63b8ff" stroke="#63b8ff" points="243.33,-393541.79 236.57,-393549.95 246.94,-393547.79 243.33,-393541.79"/>
</a>
</g>
</g>
<!-- Node3 -->
<g id="Node000003" class="node">
<title>Node3</title>
<g id="a_Node000003"><a xlink:href="sqsh__archive__private_8h.html" target="_top" xlink:title=" ">
<polygon fill="white" stroke="#666666" points="378,-393353.87 212,-393353.87 212,-88.85 378,-88.85 378,-393353.87"/>
<text text-anchor="start" x="220" y="-393340.37" font-family="Helvetica,sans-Serif" font-size="10.00">libsqsh/include/sqsh</text>
<text text-anchor="middle" x="295" y="-196705.51" font-family="Helvetica,sans-Serif" font-size="10.00">_archive_private.h</text>
</a>
</g>
</g>
<!-- Node2&#45;&gt;Node3 -->
<g id="edge2_Node000002_Node000003" class="edge">
<title>Node2&#45;&gt;Node3</title>
<g id="a_edge2_Node000002_Node000003"><a xlink:title=" ">
<path fill="none" stroke="#63b8ff" d="M156.37,-393392.36C163.65,-393381.34 171.28,-393367.57 175,-393353.87 187.93,-393306.29 200.09,-393005.75 211.5,-392470.59"/>
<polygon fill="#63b8ff" stroke="#63b8ff" points="153.62,-393390.18 150.77,-393400.39 159.36,-393394.19 153.62,-393390.18"/>
</a>
</g>
</g>
<!-- Node4 -->
<g id="Node000004" class="node">
<title>Node4</title>
<g id="a_Node000004"><a xlink:href="sqsh__directory__private_8h.html" target="_top" xlink:title=" ">
<polygon fill="white" stroke="#666666" points="166,-196741.43 0,-196741.43 0,-196701.29 166,-196701.29 166,-196741.43"/>
<text text-anchor="start" x="8" y="-196727.93" font-family="Helvetica,sans-Serif" font-size="10.00">libsqsh/include/sqsh</text>
<text text-anchor="middle" x="83" y="-196717.43" font-family="Helvetica,sans-Serif" font-size="10.00">_directory_private.h</text>
</a>
</g>
</g>
<!-- Node2&#45;&gt;Node4 -->
<g id="edge3_Node000002_Node000004" class="edge">
<title>Node2&#45;&gt;Node4</title>
<g id="a_edge3_Node000002_Node000004"><a xlink:title=" ">
<path fill="none" stroke="#63b8ff" d="M138.99,-393390.38C138.28,-390876.14 83.63,-198947.49 83.01,-196741.52"/>
<polygon fill="#63b8ff" stroke="#63b8ff" points="135.49,-393390.11 139,-393400.11 142.49,-393390.11 135.49,-393390.11"/>
</a>
</g>
</g>
<!-- Node5 -->
<g id="Node000005" class="node">
<title>Node5</title>
<g id="a_Node000005"><a xlink:href="sqsh__tree__private_8h.html" target="_top" xlink:title=" ">
<polygon fill="white" stroke="#666666" points="166,-52.85 0,-52.85 0,0 166,0 166,-52.85"/>
<text text-anchor="start" x="8" y="-39.35" font-family="Helvetica,sans-Serif" font-size="10.00">libsqsh/include/sqsh</text>
<text text-anchor="middle" x="83" y="-28.85" font-family="Helvetica,sans-Serif" font-size="10.00">_tree_private.h</text>
</a>
</g>
</g>
<!-- Node4&#45;&gt;Node5 -->
<g id="edge4_Node000004_Node000005" class="edge">
<title>Node4&#45;&gt;Node5</title>
<g id="a_edge4_Node000004_Node000005"><a xlink:title=" ">
<path fill="none" stroke="#63b8ff" d="M83,-196689.54C83,-193899.58 83,-2602.21 83,-53.13"/>
<polygon fill="#63b8ff" stroke="#63b8ff" points="79.5,-196689.5 83,-196699.5 86.5,-196689.5 79.5,-196689.5"/>
</a>
</g>
</g>
<!-- Node6&#45;&gt;Node2 -->
<g id="edge7_Node000006_Node000002" class="edge">
<title>Node6&#45;&gt;Node2</title>
<g id="a_edge7_Node000006_Node000002"><a xlink:title=" ">
<path fill="none" stroke="#63b8ff" d="M114.3,-393468.44C120.41,-393455.79 127.38,-393441.35 132.36,-393431.05"/>
<polygon fill="#63b8ff" stroke="#63b8ff" points="111.29,-393466.62 110.09,-393477.15 117.59,-393469.66 111.29,-393466.62"/>
</a>
</g>
</g>
<!-- Node6&#45;&gt;Node4 -->
<g id="edge6_Node000006_Node000004" class="edge">
<title>Node6&#45;&gt;Node4</title>
<g id="a_edge6_Node000006_Node000004"><a xlink:title=" ">
<path fill="none" stroke="#63b8ff" d="M67,-393470.56C58.91,-393462.62 51.37,-393453.18 47,-393442.72 37.94,-393421.05 47,-393413.36 47,-393389.87 54.94,-306654.29 82.57,-198401.58 83,-196741.69"/>
<polygon fill="#63b8ff" stroke="#63b8ff" points="64.62,-393473.12 74.38,-393477.24 69.31,-393467.93 64.62,-393473.12"/>
</a>
</g>
</g>
<!-- Node7 -->
<g id="Node000007" class="node">
<title>Node7</title>
<g id="a_Node000007"><a xlink:href="sqsh__xattr__private_8h.html" target="_top" xlink:title=" ">
<polygon fill="white" stroke="#666666" points="406,-393442.72 240,-393442.72 240,-393389.87 406,-393389.87 406,-393442.72"/>
<text text-anchor="start" x="248" y="-393429.22" font-family="Helvetica,sans-Serif" font-size="10.00">libsqsh/include/sqsh</text>
<text text-anchor="middle" x="323" y="-393394.87" font-family="Helvetica,sans-Serif" font-size="10.00">_xattr_private.h</text>
</a>
</g>
</g>
<!-- Node6&#45;&gt;Node7 -->
<g id="edge8_Node000006_Node000007" class="edge">
<title>Node6&#45;&gt;Node7</title>
<g id="a_edge8_Node000006_Node000007"><a xlink:title=" ">
<path fill="none" stroke="#63b8ff" d="M161.43,-393474.55C188.82,-393464.85 221.44,-393453.29 250.17,-393443.11"/>
<polygon fill="#63b8ff" stroke="#63b8ff" points="160.5,-393471.17 152.25,-393477.81 162.84,-393477.77 160.5,-393471.17"/>
</a>
</g>
</g>
<!-- Node7&#45;&gt;Node3 -->
<g id="edge9_Node000007_Node000003" class="edge">
<title>Node7&#45;&gt;Node3</title>
<g id="a_edge9_Node000007_Node000003"><a xlink:title=" ">
<path fill="none" stroke="#63b8ff" d="M322.99,-393378.51C322.99,-393371.46 322.99,-393363.4 322.99,-393354.33"/>
<polygon fill="#63b8ff" stroke="#63b8ff" points="319.49,-393378.26 323,-393388.26 326.49,-393378.26 319.49,-393378.26"/>
</a>
</g>
</g>
<!-- Node8&#45;&gt;Node7 -->
<g id="edge11_Node000008_Node000007" class="edge">
<title>Node8&#45;&gt;Node7</title>
<g id="a_edge11_Node000008_Node000007"><a xlink:title=" ">
<path fill="none" stroke="#63b8ff" d="M323,-393470.98C323,-393462.02 323,-393451.92 323,-393442.91"/>
<polygon fill="#63b8ff" stroke="#63b8ff" points="319.5,-393470.75 323,-393480.75 326.5,-393470.75 319.5,-393470.75"/>
</a>
</g>
</g>
</g>
</svg>
