<?xml version="1.0" encoding="UTF-8" standalone="no"?>
<!DOCTYPE svg PUBLIC "-//W3C//DTD SVG 1.1//EN"
 "http://www.w3.org/Graphics/SVG/1.1/DTD/svg11.dtd">
<!-- Generated by graphviz version 9.0.0 (20230911.1827)
 -->
<!-- Title: include/sqsh_xattr.h Pages: 1 -->
<!--zoomable 48521 -->

<svg id="main" version="1.1" xmlns="http://www.w3.org/2000/svg" xmlns:xlink="http://www.w3.org/1999/xlink" xml:space="preserve" onload="init(evt)">
<style type="text/css"><![CDATA[
.node, .edge {opacity: 0.7;}
.node.selected, .edge.selected {opacity: 1;}
.edge:hover path { stroke: red; }
.edge:hover polygon { stroke: red; fill: red; }
]]></style>

<defs>
  <circle id="rim" cx="0" cy="0" r="7"/>
  <circle id="rim2" cx="0" cy="0" r="3.5"/>
  <g id="zoomPlus">
    <use xlink:href="#rim" fill="#404040"><set attributeName="fill" to="#808080" begin="zoomplus.mouseover" end="zoomplus.mouseout"/></use>
    <path d="M-4,0h8M0,-4v8" fill="none" stroke="white" stroke-width="1.5" pointer-events="none"/>
  </g>
  <g id="zoomMin">
    <use xlink:href="#rim" fill="#404040"><set attributeName="fill" to="#808080" begin="zoomminus.mouseover" end="zoomminus.mouseout"/></use>
    <path d="M-4,0h8" fill="none" stroke="white" stroke-width="1.5" pointer-events="none"/>
  </g>
  <g id="arrowUp" transform="translate(30 24)">
    <use xlink:href="#rim"/>
    <path pointer-events="none" fill="none" stroke="white" stroke-width="1.5" d="M0,-3.0v7 M-2.5,-0.5L0,-3.0L2.5,-0.5"/>
  </g>
  <g id="arrowRight" transform="rotate(90) translate(36 -43)">
    <use xlink:href="#rim"/>
    <path pointer-events="none" fill="none" stroke="white" stroke-width="1.5" d="M0,-3.0v7 M-2.5,-0.5L0,-3.0L2.5,-0.5"/>
  </g>
  <g id="arrowDown" transform="rotate(180) translate(-30 -48)">
    <use xlink:href="#rim"/>
    <path pointer-events="none" fill="none" stroke="white" stroke-width="1.5" d="M0,-3.0v7 M-2.5,-0.5L0,-3.0L2.5,-0.5"/>
  </g>
  <g id="arrowLeft" transform="rotate(270) translate(-36 17)">
    <use xlink:href="#rim"/>
    <path pointer-events="none" fill="none" stroke="white" stroke-width="1.5" d="M0,-3.0v7 M-2.5,-0.5L0,-3.0L2.5,-0.5"/>
  </g>
  <g id="resetDef">
    <use xlink:href="#rim2" fill="#404040"><set attributeName="fill" to="#808080" begin="reset.mouseover" end="reset.mouseout"/></use>
  </g>
</defs>
<script type="application/ecmascript">
var viewWidth = 2232;
var viewHeight = 48521;
var sectionId = 'dynsection-1';
</script>
<script type="application/ecmascript" xlink:href="svg.min.js"/>
<svg id="graph" class="graph">
<g id="viewport">
<title>include/sqsh_xattr.h</title>
<!-- Node1 -->
<g id="Node000001" class="node">
<title>Node1</title>
<g id="a_Node000001"><a xlink:title=" ">
<polygon fill="#999999" stroke="#666666" points="1257,-48512.62 1091,-48512.62 1091,-48494.12 1257,-48494.12 1257,-48512.62"/>
<text text-anchor="middle" x="1174" y="-48499.12" font-family="Helvetica,sans-Serif" font-size="10.00">include/sqsh_xattr.h</text>
</a>
</g>
</g>
<!-- Node2 -->
<g id="Node000002" class="node">
<title>Node2</title>
<g id="a_Node000002"><a xlink:href="sqsh_8h.html" target="_top" xlink:title=" ">
<polygon fill="white" stroke="#666666" points="1153.5,-48440.95 1032.5,-48440.95 1032.5,-48422.45 1153.5,-48422.45 1153.5,-48440.95"/>
<text text-anchor="middle" x="1093" y="-48427.45" font-family="Helvetica,sans-Serif" font-size="10.00">include/sqsh.h</text>
</a>
</g>
</g>
<!-- Node1&#45;&gt;Node2 -->
<g id="edge1_Node000001_Node000002" class="edge">
<title>Node1&#45;&gt;Node2</title>
<g id="a_edge1_Node000001_Node000002"><a xlink:title=" ">
<path fill="none" stroke="#63b8ff" d="M1155.38,-48486.36C1139.09,-48472.35 1116.05,-48452.52 1103.01,-48441.31"/>
<polygon fill="#63b8ff" stroke="#63b8ff" points="1153.06,-48488.98 1162.92,-48492.84 1157.62,-48483.67 1153.06,-48488.98"/>
</a>
</g>
</g>
<!-- Node13 -->
<g id="Node000013" class="node">
<title>Node13</title>
<g id="a_Node000013"><a xlink:href="sqsh__xattr__private_8h.html" target="_top" xlink:title=" ">
<polygon fill="white" stroke="#666666" points="1781,-48458.12 1615,-48458.12 1615,-48405.27 1781,-48405.27 1781,-48458.12"/>
<text text-anchor="start" x="1623" y="-48444.62" font-family="Helvetica,sans-Serif" font-size="10.00">libsqsh/include/sqsh</text>
<text text-anchor="middle" x="1698" y="-48410.27" font-family="Helvetica,sans-Serif" font-size="10.00">_xattr_private.h</text>
</a>
</g>
</g>
<!-- Node1&#45;&gt;Node13 -->
<g id="edge12_Node000001_Node000013" class="edge">
<title>Node1&#45;&gt;Node13</title>
<g id="a_edge12_Node000001_Node000013"><a xlink:title=" ">
<path fill="none" stroke="#63b8ff" d="M1250.77,-48492.17C1347.88,-48479.25 1514.5,-48457.1 1614.64,-48443.78"/>
<polygon fill="#63b8ff" stroke="#63b8ff" points="1250.52,-48488.67 1241.07,-48493.46 1251.44,-48495.61 1250.52,-48488.67"/>
</a>
</g>
</g>
<!-- Node3 -->
<g id="Node000003" class="node">
<title>Node3</title>
<g id="a_Node000003"><a xlink:href="custom__mapper_8c.html" target="_top" xlink:title=" ">
<polygon fill="white" stroke="#666666" points="196,-48368.81 0,-48368.81 0,-0.46 196,-0.46 196,-48368.81"/>
<text text-anchor="middle" x="98" y="-48355.31" font-family="Helvetica,sans-Serif" font-size="10.00">examples/custom_mapper.c</text>
</a>
</g>
</g>
<!-- Node2&#45;&gt;Node3 -->
<g id="edge2_Node000002_Node000003" class="edge">
<title>Node2&#45;&gt;Node3</title>
<g id="a_edge2_Node000002_Node000003"><a xlink:title=" ">
<path fill="none" stroke="#63b8ff" d="M1020.68,-48431.2C818.81,-48431.85 260.3,-48428.26 205,-48369.27 202.08,-48366.15 199.22,-48359.22 196.42,-48348.57"/>
<polygon fill="#63b8ff" stroke="#63b8ff" points="1020.53,-48434.7 1030.52,-48431.16 1020.5,-48427.7 1020.53,-48434.7"/>
</a>
</g>
</g>
<!-- Node4 -->
<g id="Node000004" class="node">
<title>Node4</title>
<g id="a_Node000004"><a xlink:href="list__dir_8c.html" target="_top" xlink:title=" ">
<polygon fill="white" stroke="#666666" points="372.25,-48369.09 213.75,-48369.09 213.75,-0.18 372.25,-0.18 372.25,-48369.09"/>
<text text-anchor="middle" x="293" y="-48355.59" font-family="Helvetica,sans-Serif" font-size="10.00">examples/list_dir.c</text>
</a>
</g>
</g>
<!-- Node2&#45;&gt;Node4 -->
<g id="edge3_Node000002_Node000004" class="edge">
<title>Node2&#45;&gt;Node4</title>
<g id="a_edge3_Node000002_Node000004"><a xlink:title=" ">
<path fill="none" stroke="#63b8ff" d="M1020.72,-48429.86C848.24,-48427.12 423.75,-48415.69 381,-48369.27 378.17,-48366.19 375.39,-48359.44 372.67,-48349.11"/>
<polygon fill="#63b8ff" stroke="#63b8ff" points="1020.63,-48433.36 1030.69,-48430.01 1020.74,-48426.36 1020.63,-48433.36"/>
</a>
</g>
</g>
<!-- Node5 -->
<g id="Node000005" class="node">
<title>Node5</title>
<g id="a_Node000005"><a xlink:href="list__dir__ll_8c.html" target="_top" xlink:title=" ">
<polygon fill="white" stroke="#666666" points="571.5,-24193.88 390.5,-24193.88 390.5,-24175.38 571.5,-24175.38 571.5,-24193.88"/>
<text text-anchor="middle" x="481" y="-24180.38" font-family="Helvetica,sans-Serif" font-size="10.00">examples/list_dir_ll.c</text>
</a>
</g>
</g>
<!-- Node2&#45;&gt;Node5 -->
<g id="edge4_Node000002_Node000005" class="edge">
<title>Node2&#45;&gt;Node5</title>
<g id="a_edge4_Node000002_Node000005"><a xlink:title=" ">
<path fill="none" stroke="#63b8ff" d="M1021.08,-48427.28C886.79,-48420.15 608.85,-48401.64 580,-48369.27 359,-48121.25 478.31,-24708.64 480.96,-24194.24"/>
<polygon fill="#63b8ff" stroke="#63b8ff" points="1020.76,-48430.76 1030.93,-48427.79 1021.13,-48423.77 1020.76,-48430.76"/>
</a>
</g>
</g>
<!-- Node6 -->
<g id="Node000006" class="node">
<title>Node6</title>
<g id="a_Node000006"><a xlink:href="list__xattrs_8c.html" target="_top" xlink:title=" ">
<polygon fill="white" stroke="#666666" points="770.5,-48306.46 589.5,-48306.46 589.5,-62.81 770.5,-62.81 770.5,-48306.46"/>
<text text-anchor="middle" x="680" y="-48292.96" font-family="Helvetica,sans-Serif" font-size="10.00">examples/list_xattrs.c</text>
</a>
</g>
</g>
<!-- Node2&#45;&gt;Node6 -->
<g id="edge5_Node000002_Node000006" class="edge">
<title>Node2&#45;&gt;Node6</title>
<g id="a_edge5_Node000002_Node000006"><a xlink:title=" ">
<path fill="none" stroke="#63b8ff" d="M1020.69,-48426.88C937.69,-48420.8 809.09,-48405.66 779,-48369.27 773.68,-48362.83 768.57,-48341.8 763.65,-48306.89"/>
<polygon fill="#63b8ff" stroke="#63b8ff" points="1020.36,-48430.36 1030.58,-48427.57 1020.85,-48423.38 1020.36,-48430.36"/>
</a>
</g>
</g>
<!-- Node7 -->
<g id="Node000007" class="node">
<title>Node7</title>
<g id="a_Node000007"><a xlink:href="list__xattrs__ll_8c.html" target="_top" xlink:title=" ">
<polygon fill="white" stroke="#666666" points="991.75,-24193.88 788.25,-24193.88 788.25,-24175.38 991.75,-24175.38 991.75,-24193.88"/>
<text text-anchor="middle" x="890" y="-24180.38" font-family="Helvetica,sans-Serif" font-size="10.00">examples/list_xattrs_ll.c</text>
</a>
</g>
</g>
<!-- Node2&#45;&gt;Node7 -->
<g id="edge6_Node000002_Node000007" class="edge">
<title>Node2&#45;&gt;Node7</title>
<g id="a_edge6_Node000002_Node000007"><a xlink:title=" ">
<path fill="none" stroke="#63b8ff" d="M1058,-48417.33C1037.4,-48407.43 1013.08,-48391.74 1001,-48369.27 686.37,-47784.09 885.51,-24701.23 889.93,-24194.11"/>
<polygon fill="#63b8ff" stroke="#63b8ff" points="1056.41,-48420.45 1066.97,-48421.36 1059.28,-48414.06 1056.41,-48420.45"/>
</a>
</g>
</g>
<!-- Node8 -->
<g id="Node000008" class="node">
<title>Node8</title>
<g id="a_Node000008"><a xlink:href="read__file_8c.html" target="_top" xlink:title=" ">
<polygon fill="white" stroke="#666666" points="1176,-48369.27 1010,-48369.27 1010,0 1176,0 1176,-48369.27"/>
<text text-anchor="middle" x="1093" y="-48355.77" font-family="Helvetica,sans-Serif" font-size="10.00">examples/read_file.c</text>
</a>
</g>
</g>
<!-- Node2&#45;&gt;Node8 -->
<g id="edge7_Node000002_Node000008" class="edge">
<title>Node2&#45;&gt;Node8</title>
<g id="a_edge7_Node000002_Node000008"><a xlink:title=" ">
<path fill="none" stroke="#63b8ff" d="M1093,-48410.59C1093,-48400.53 1093,-48386.74 1093,-48369.32"/>
<polygon fill="#63b8ff" stroke="#63b8ff" points="1089.5,-48410.47 1093,-48420.47 1096.5,-48410.47 1089.5,-48410.47"/>
</a>
</g>
</g>
<!-- Node9 -->
<g id="Node000009" class="node">
<title>Node9</title>
<g id="a_Node000009"><a xlink:href="read__file__ll_8c.html" target="_top" xlink:title=" ">
<polygon fill="white" stroke="#666666" points="1382.25,-24197.63 1193.75,-24197.63 1193.75,-24171.63 1382.25,-24171.63 1382.25,-24197.63"/>
<text text-anchor="middle" x="1288" y="-24184.13" font-family="Helvetica,sans-Serif" font-size="10.00">examples/read_file_ll.c</text>
</a>
</g>
</g>
<!-- Node2&#45;&gt;Node9 -->
<g id="edge8_Node000002_Node000009" class="edge">
<title>Node2&#45;&gt;Node9</title>
<g id="a_edge8_Node000002_Node000009"><a xlink:title=" ">
<path fill="none" stroke="#63b8ff" d="M1128,-48417.33C1148.61,-48407.43 1172.92,-48391.74 1185,-48369.27 1498.84,-47785.34 1293.58,-24803.69 1288.11,-24197.83"/>
<polygon fill="#63b8ff" stroke="#63b8ff" points="1126.72,-48414.07 1119.03,-48421.36 1129.59,-48420.45 1126.72,-48414.07"/>
</a>
</g>
</g>
<!-- Node10 -->
<g id="Node000010" class="node">
<title>Node10</title>
<g id="a_Node000010"><a xlink:href="readme__example_8c.html" target="_top" xlink:title=" ">
<polygon fill="white" stroke="#666666" points="1603.75,-24193.88 1400.25,-24193.88 1400.25,-24175.38 1603.75,-24175.38 1603.75,-24193.88"/>
<text text-anchor="middle" x="1502" y="-24180.38" font-family="Helvetica,sans-Serif" font-size="10.00">examples/readme_example.c</text>
</a>
</g>
</g>
<!-- Node2&#45;&gt;Node10 -->
<g id="edge9_Node000002_Node000010" class="edge">
<title>Node2&#45;&gt;Node10</title>
<g id="a_edge9_Node000002_Node000010"><a xlink:title=" ">
<path fill="none" stroke="#63b8ff" d="M1165.15,-48426.02C1244.03,-48419.23 1362.97,-48403.5 1391,-48369.27 1601.44,-48112.23 1504.2,-24708.44 1502.04,-24194.23"/>
<polygon fill="#63b8ff" stroke="#63b8ff" points="1165.01,-48422.52 1155.33,-48426.83 1165.59,-48429.5 1165.01,-48422.52"/>
</a>
</g>
</g>
<!-- Node11 -->
<g id="Node000011" class="node">
<title>Node11</title>
<g id="a_Node000011"><a xlink:href="traverse__dir_8c.html" target="_top" xlink:title=" ">
<polygon fill="white" stroke="#666666" points="1810.25,-24193.88 1621.75,-24193.88 1621.75,-24175.38 1810.25,-24175.38 1810.25,-24193.88"/>
<text text-anchor="middle" x="1716" y="-24180.38" font-family="Helvetica,sans-Serif" font-size="10.00">examples/traverse_dir.c</text>
</a>
</g>
</g>
<!-- Node2&#45;&gt;Node11 -->
<g id="edge10_Node000002_Node000011" class="edge">
<title>Node2&#45;&gt;Node11</title>
<g id="a_edge10_Node000002_Node000011"><a xlink:title=" ">
<path fill="none" stroke="#63b8ff" d="M1164.98,-48427.4C1300.73,-48420.44 1583.67,-48402.12 1613,-48369.27 1834.22,-48121.44 1718.61,-24708.65 1716.04,-24194.24"/>
<polygon fill="#63b8ff" stroke="#63b8ff" points="1165.21,-48423.88 1155.4,-48427.88 1165.56,-48430.87 1165.21,-48423.88"/>
</a>
</g>
</g>
<!-- Node12 -->
<g id="Node000012" class="node">
<title>Node12</title>
<g id="a_Node000012"><a xlink:href="traverse__dir__ll_8c.html" target="_top" xlink:title=" ">
<polygon fill="white" stroke="#666666" points="2039.5,-24193.88 1828.5,-24193.88 1828.5,-24175.38 2039.5,-24175.38 2039.5,-24193.88"/>
<text text-anchor="middle" x="1934" y="-24180.38" font-family="Helvetica,sans-Serif" font-size="10.00">examples/traverse_dir_ll.c</text>
</a>
</g>
</g>
<!-- Node2&#45;&gt;Node12 -->
<g id="edge11_Node000002_Node000012" class="edge">
<title>Node2&#45;&gt;Node12</title>
<g id="a_edge11_Node000002_Node000012"><a xlink:title=" ">
<path fill="none" stroke="#63b8ff" d="M1165.34,-48427.19C1344.7,-48418.15 1797.01,-48393.08 1819,-48369.27 2044.36,-48125.2 1936.44,-24708.73 1934.04,-24194.24"/>
<polygon fill="#63b8ff" stroke="#63b8ff" points="1165.26,-48423.69 1155.45,-48427.68 1165.61,-48430.68 1165.26,-48423.69"/>
</a>
</g>
</g>
<!-- Node14 -->
<g id="Node000014" class="node">
<title>Node14</title>
<g id="a_Node000014"><a xlink:href="sqsh__archive__private_8h.html" target="_top" xlink:title=" ">
<polygon fill="white" stroke="#666666" points="2224,-24199.13 2058,-24199.13 2058,-24170.13 2224,-24170.13 2224,-24199.13"/>
<text text-anchor="start" x="2066" y="-24185.63" font-family="Helvetica,sans-Serif" font-size="10.00">libsqsh/include/sqsh</text>
<text text-anchor="middle" x="2141" y="-24175.13" font-family="Helvetica,sans-Serif" font-size="10.00">_archive_private.h</text>
</a>
</g>
</g>
<!-- Node13&#45;&gt;Node14 -->
<g id="edge13_Node000013_Node000014" class="edge">
<title>Node13&#45;&gt;Node14</title>
<g id="a_edge13_Node000013_Node000014"><a xlink:title=" ">
<path fill="none" stroke="#63b8ff" d="M1792.57,-48427.4C1885.12,-48421.95 2016.74,-48407.51 2049,-48369.27 2262.54,-48116.08 2144.4,-24846.98 2141.07,-24199.41"/>
<polygon fill="#63b8ff" stroke="#63b8ff" points="1792.51,-48423.9 1782.72,-48427.95 1792.9,-48430.89 1792.51,-48423.9"/>
</a>
</g>
</g>
</g>
</svg>

<g id="navigator" transform="translate(0 0)" fill="#404254">
  <rect fill="#f2f5e9" fill-opacity="0.5" stroke="#606060" stroke-width=".5" x="0" y="0" width="60" height="60"/>
  <use id="zoomplus" xlink:href="#zoomPlus" x="17" y="9" onmousedown="handleZoom(evt,'in')"/>
  <use id="zoomminus" xlink:href="#zoomMin" x="42" y="9" onmousedown="handleZoom(evt,'out')"/>
  <use id="reset" xlink:href="#resetDef" x="30" y="36" onmousedown="handleReset()"/>
   <use id="arrowup" xlink:href="#arrowUp" x="0" y="0" onmousedown="handlePan(0,-1)"/>
  <use id="arrowright" xlink:href="#arrowRight" x="0" y="0" onmousedown="handlePan(1,0)"/>
  <use id="arrowdown" xlink:href="#arrowDown" x="0" y="0" onmousedown="handlePan(0,1)"/>
  <use id="arrowleft" xlink:href="#arrowLeft" x="0" y="0" onmousedown="handlePan(-1,0)"/>
</g>
<svg viewBox="0 0 15 15" width="100%" height="30px" preserveAspectRatio="xMaxYMin meet">
 <g id="arrow_out" transform="scale(0.3 0.3)">
  <a xlink:href="sqsh__xattr_8h__dep__incl_org.svg" target="_base">
   <rect id="button" ry="5" rx="5" y="6" x="6" height="38" width="38"
        fill="#f2f5e9" fill-opacity="0.5" stroke="#606060" stroke-width="1.0"/>
   <path id="arrow"
     d="M 11.500037,31.436501 C 11.940474,20.09759 22.043105,11.32322 32.158766,21.979434 L 37.068811,17.246167 C 37.068811,17.246167 37.088388,32 37.088388,32 L 22.160133,31.978069 C 22.160133,31.978069 26.997745,27.140456 26.997745,27.140456 C 18.528582,18.264221 13.291696,25.230495 11.500037,31.436501 z"
     style="fill:#404040;"/>
  </a>
 </g>
</svg>

<style type='text/css'>
<![CDATA[
[data-mouse-over-selected='false'] { opacity: 0.7; }
[data-mouse-over-selected='true']  { opacity: 1.0; }
]]>
</style>
<script type="application/ecmascript"><![CDATA[
document.addEventListener('DOMContentLoaded', (event) => {
  highlightEdges();
  highlightAdjacentNodes();
});
]]></script>
</svg>
