<?xml version="1.0" encoding="UTF-8" standalone="no"?>
<!DOCTYPE svg PUBLIC "-//W3C//DTD SVG 1.1//EN"
 "http://www.w3.org/Graphics/SVG/1.1/DTD/svg11.dtd">
<!-- Generated by graphviz version 9.0.0 (20230911.1827)
 -->
<!-- Title: include/sqsh_archive.h Pages: 1 -->
<!--zoomable 1318001 -->

<svg id="main" version="1.1" xmlns="http://www.w3.org/2000/svg" xmlns:xlink="http://www.w3.org/1999/xlink" xml:space="preserve" onload="init(evt)">
<style type="text/css"><![CDATA[
.node, .edge {opacity: 0.7;}
.node.selected, .edge.selected {opacity: 1;}
.edge:hover path { stroke: red; }
.edge:hover polygon { stroke: red; fill: red; }
]]></style>

<defs>
  <circle id="rim" cx="0" cy="0" r="7"/>
  <circle id="rim2" cx="0" cy="0" r="3.5"/>
  <g id="zoomPlus">
    <use xlink:href="#rim" fill="#404040"><set attributeName="fill" to="#808080" begin="zoomplus.mouseover" end="zoomplus.mouseout"/></use>
    <path d="M-4,0h8M0,-4v8" fill="none" stroke="white" stroke-width="1.5" pointer-events="none"/>
  </g>
  <g id="zoomMin">
    <use xlink:href="#rim" fill="#404040"><set attributeName="fill" to="#808080" begin="zoomminus.mouseover" end="zoomminus.mouseout"/></use>
    <path d="M-4,0h8" fill="none" stroke="white" stroke-width="1.5" pointer-events="none"/>
  </g>
  <g id="arrowUp" transform="translate(30 24)">
    <use xlink:href="#rim"/>
    <path pointer-events="none" fill="none" stroke="white" stroke-width="1.5" d="M0,-3.0v7 M-2.5,-0.5L0,-3.0L2.5,-0.5"/>
  </g>
  <g id="arrowRight" transform="rotate(90) translate(36 -43)">
    <use xlink:href="#rim"/>
    <path pointer-events="none" fill="none" stroke="white" stroke-width="1.5" d="M0,-3.0v7 M-2.5,-0.5L0,-3.0L2.5,-0.5"/>
  </g>
  <g id="arrowDown" transform="rotate(180) translate(-30 -48)">
    <use xlink:href="#rim"/>
    <path pointer-events="none" fill="none" stroke="white" stroke-width="1.5" d="M0,-3.0v7 M-2.5,-0.5L0,-3.0L2.5,-0.5"/>
  </g>
  <g id="arrowLeft" transform="rotate(270) translate(-36 17)">
    <use xlink:href="#rim"/>
    <path pointer-events="none" fill="none" stroke="white" stroke-width="1.5" d="M0,-3.0v7 M-2.5,-0.5L0,-3.0L2.5,-0.5"/>
  </g>
  <g id="resetDef">
    <use xlink:href="#rim2" fill="#404040"><set attributeName="fill" to="#808080" begin="reset.mouseover" end="reset.mouseout"/></use>
  </g>
</defs>
<script type="application/ecmascript">
var viewWidth = 2048;
var viewHeight = 1318001;
var sectionId = 'dynsection-1';
</script>
<script type="application/ecmascript" xlink:href="svg.min.js"/>
<svg id="graph" class="graph">
<g id="viewport">
<title>include/sqsh_archive.h</title>
<!-- Node1 -->
<g id="Node000001" class="node">
<title>Node1</title>
<g id="a_Node000001"><a xlink:title=" ">
<polygon fill="#999999" stroke="#666666" points="1162.5,-1317992.66 981.5,-1317992.66 981.5,-1317974.16 1162.5,-1317974.16 1162.5,-1317992.66"/>
<text text-anchor="middle" x="1072" y="-1317979.16" font-family="Helvetica,sans-Serif" font-size="10.00">include/sqsh_archive.h</text>
</a>
</g>
</g>
<!-- Node2 -->
<g id="Node000002" class="node">
<title>Node2</title>
<g id="a_Node000002"><a xlink:href="sqsh_8h.html" target="_top" xlink:title=" ">
<polygon fill="white" stroke="#666666" points="1051.5,-1317920.99 930.5,-1317920.99 930.5,-1317902.49 1051.5,-1317902.49 1051.5,-1317920.99"/>
<text text-anchor="middle" x="991" y="-1317907.49" font-family="Helvetica,sans-Serif" font-size="10.00">include/sqsh.h</text>
</a>
</g>
</g>
<!-- Node1&#45;&gt;Node2 -->
<g id="edge1_Node000001_Node000002" class="edge">
<title>Node1&#45;&gt;Node2</title>
<g id="a_edge1_Node000001_Node000002"><a xlink:title=" ">
<path fill="none" stroke="#63b8ff" d="M1053.38,-1317966.4C1037.09,-1317952.39 1014.05,-1317932.57 1001.01,-1317921.35"/>
<polygon fill="#63b8ff" stroke="#63b8ff" points="1051.06,-1317969.01 1060.92,-1317972.88 1055.62,-1317963.71 1051.06,-1317969.01"/>
</a>
</g>
</g>
<!-- Node13 -->
<g id="Node000013" class="node">
<title>Node13</title>
<g id="a_Node000013"><a xlink:href="sqsh__archive__private_8h.html" target="_top" xlink:title=" ">
<polygon fill="white" stroke="#666666" points="1236,-1317938.16 1070,-1317938.16 1070,-1317885.31 1236,-1317885.31 1236,-1317938.16"/>
<text text-anchor="start" x="1078" y="-1317924.66" font-family="Helvetica,sans-Serif" font-size="10.00">libsqsh/include/sqsh</text>
<text text-anchor="middle" x="1153" y="-1317914.16" font-family="Helvetica,sans-Serif" font-size="10.00">_archive_private.h</text>
</a>
</g>
</g>
<!-- Node1&#45;&gt;Node13 -->
<g id="edge12_Node000001_Node000013" class="edge">
<title>Node1&#45;&gt;Node13</title>
<g id="a_edge12_Node000001_Node000013"><a xlink:title=" ">
<path fill="none" stroke="#63b8ff" d="M1090.64,-1317966.38C1100.25,-1317958.11 1112.21,-1317947.82 1123.08,-1317938.47"/>
<polygon fill="#63b8ff" stroke="#63b8ff" points="1088.38,-1317963.71 1083.08,-1317972.88 1092.94,-1317969.01 1088.38,-1317963.71"/>
</a>
</g>
</g>
<!-- Node3 -->
<g id="Node000003" class="node">
<title>Node3</title>
<g id="a_Node000003"><a xlink:href="custom__mapper_8c.html" target="_top" xlink:title=" ">
<polygon fill="white" stroke="#666666" points="196,-1317849.31 0,-1317849.31 0,0 196,0 196,-1317849.31"/>
<text text-anchor="middle" x="98" y="-1317835.81" font-family="Helvetica,sans-Serif" font-size="10.00">examples/custom_mapper.c</text>
</a>
</g>
</g>
<!-- Node2&#45;&gt;Node3 -->
<g id="edge2_Node000002_Node000003" class="edge">
<title>Node2&#45;&gt;Node3</title>
<g id="a_edge2_Node000002_Node000003"><a xlink:title=" ">
<path fill="none" stroke="#63b8ff" d="M918.79,-1317910.55C733.6,-1317909.32 252.91,-1317901.11 205,-1317849.31 202.13,-1317846.21 199.29,-1317807.06 196.49,-1317732.4"/>
<polygon fill="#63b8ff" stroke="#63b8ff" points="918.75,-1317914.05 928.77,-1317910.61 918.79,-1317907.05 918.75,-1317914.05"/>
</a>
</g>
</g>
<!-- Node4 -->
<g id="Node000004" class="node">
<title>Node4</title>
<g id="a_Node000004"><a xlink:href="list__dir_8c.html" target="_top" xlink:title=" ">
<polygon fill="white" stroke="#666666" points="372.25,-1317756.21 213.75,-1317756.21 213.75,-93.1 372.25,-93.1 372.25,-1317756.21"/>
<text text-anchor="middle" x="293" y="-1317742.71" font-family="Helvetica,sans-Serif" font-size="10.00">examples/list_dir.c</text>
</a>
</g>
</g>
<!-- Node2&#45;&gt;Node4 -->
<g id="edge3_Node000002_Node000004" class="edge">
<title>Node2&#45;&gt;Node4</title>
<g id="a_edge3_Node000002_Node000004"><a xlink:title=" ">
<path fill="none" stroke="#63b8ff" d="M919.07,-1317908.8C765.49,-1317903.92 416.52,-1317888.59 381,-1317849.31 381,-1317849.31 377.85,-1294287.63 372.75,-1256075.18"/>
<polygon fill="#63b8ff" stroke="#63b8ff" points="918.61,-1317912.29 928.71,-1317909.1 918.83,-1317905.29 918.61,-1317912.29"/>
</a>
</g>
</g>
<!-- Node5 -->
<g id="Node000005" class="node">
<title>Node5</title>
<g id="a_Node000005"><a xlink:href="list__dir__ll_8c.html" target="_top" xlink:title=" ">
<polygon fill="white" stroke="#666666" points="571.5,-658933.91 390.5,-658933.91 390.5,-658915.41 571.5,-658915.41 571.5,-658933.91"/>
<text text-anchor="middle" x="481" y="-658920.41" font-family="Helvetica,sans-Serif" font-size="10.00">examples/list_dir_ll.c</text>
</a>
</g>
</g>
<!-- Node2&#45;&gt;Node5 -->
<g id="edge4_Node000002_Node000005" class="edge">
<title>Node2&#45;&gt;Node5</title>
<g id="a_edge4_Node000002_Node000005"><a xlink:title=" ">
<path fill="none" stroke="#63b8ff" d="M918.77,-1317910.78C812.75,-1317909.12 622.89,-1317899.08 580,-1317849.31 207.39,-1317416.94 479.85,-661695.92 481,-658934.4"/>
<polygon fill="#63b8ff" stroke="#63b8ff" points="918.46,-1317914.27 928.5,-1317910.91 918.55,-1317907.27 918.46,-1317914.27"/>
</a>
</g>
</g>
<!-- Node6 -->
<g id="Node000006" class="node">
<title>Node6</title>
<g id="a_Node000006"><a xlink:href="list__xattrs_8c.html" target="_top" xlink:title=" ">
<polygon fill="white" stroke="#666666" points="770.5,-1317802.09 589.5,-1317802.09 589.5,-47.22 770.5,-47.22 770.5,-1317802.09"/>
<text text-anchor="middle" x="680" y="-1317788.59" font-family="Helvetica,sans-Serif" font-size="10.00">examples/list_xattrs.c</text>
</a>
</g>
</g>
<!-- Node2&#45;&gt;Node6 -->
<g id="edge5_Node000002_Node000006" class="edge">
<title>Node2&#45;&gt;Node6</title>
<g id="a_edge5_Node000002_Node000006"><a xlink:title=" ">
<path fill="none" stroke="#63b8ff" d="M922.64,-1317900C867.54,-1317889.78 796.45,-1317872.53 779,-1317849.31 776.29,-1317845.71 773.63,-1317801.32 770.99,-1317716.78"/>
<polygon fill="#63b8ff" stroke="#63b8ff" points="921.83,-1317903.41 932.29,-1317901.74 923.07,-1317896.52 921.83,-1317903.41"/>
</a>
</g>
</g>
<!-- Node7 -->
<g id="Node000007" class="node">
<title>Node7</title>
<g id="a_Node000007"><a xlink:href="list__xattrs__ll_8c.html" target="_top" xlink:title=" ">
<polygon fill="white" stroke="#666666" points="991.75,-658933.91 788.25,-658933.91 788.25,-658915.41 991.75,-658915.41 991.75,-658933.91"/>
<text text-anchor="middle" x="890" y="-658920.41" font-family="Helvetica,sans-Serif" font-size="10.00">examples/list_xattrs_ll.c</text>
</a>
</g>
</g>
<!-- Node2&#45;&gt;Node7 -->
<g id="edge6_Node000002_Node000007" class="edge">
<title>Node2&#45;&gt;Node7</title>
<g id="a_edge6_Node000002_Node000007"><a xlink:title=" ">
<path fill="none" stroke="#63b8ff" d="M991,-1317890.92C990.36,-1313749.14 890.42,-661683.5 890,-658934.37"/>
<polygon fill="#63b8ff" stroke="#63b8ff" points="987.5,-1317890.72 991,-1317900.72 994.5,-1317890.72 987.5,-1317890.72"/>
</a>
</g>
</g>
<!-- Node8 -->
<g id="Node000008" class="node">
<title>Node8</title>
<g id="a_Node000008"><a xlink:href="read__file_8c.html" target="_top" xlink:title=" ">
<polygon fill="white" stroke="#666666" points="1176,-658933.91 1010,-658933.91 1010,-658915.41 1176,-658915.41 1176,-658933.91"/>
<text text-anchor="middle" x="1093" y="-658920.41" font-family="Helvetica,sans-Serif" font-size="10.00">examples/read_file.c</text>
</a>
</g>
</g>
<!-- Node2&#45;&gt;Node8 -->
<g id="edge7_Node000002_Node000008" class="edge">
<title>Node2&#45;&gt;Node8</title>
<g id="a_edge7_Node000002_Node000008"><a xlink:title=" ">
<path fill="none" stroke="#63b8ff" d="M995.03,-1317891.09C997.28,-1317879.08 999.86,-1317863.38 1001,-1317849.31 1185.19,-1315573.64 1093.39,-661688.16 1093,-658934.38"/>
<polygon fill="#63b8ff" stroke="#63b8ff" points="991.66,-1317890.07 993.16,-1317900.56 998.53,-1317891.42 991.66,-1317890.07"/>
</a>
</g>
</g>
<!-- Node9 -->
<g id="Node000009" class="node">
<title>Node9</title>
<g id="a_Node000009"><a xlink:href="read__file__ll_8c.html" target="_top" xlink:title=" ">
<polygon fill="white" stroke="#666666" points="1382.25,-658933.91 1193.75,-658933.91 1193.75,-658915.41 1382.25,-658915.41 1382.25,-658933.91"/>
<text text-anchor="middle" x="1288" y="-658920.41" font-family="Helvetica,sans-Serif" font-size="10.00">examples/read_file_ll.c</text>
</a>
</g>
</g>
<!-- Node2&#45;&gt;Node9 -->
<g id="edge8_Node000002_Node000009" class="edge">
<title>Node2&#45;&gt;Node9</title>
<g id="a_edge8_Node000002_Node000009"><a xlink:title=" ">
<path fill="none" stroke="#63b8ff" d="M1024.4,-1317898.1C1035.94,-1317893.87 1048.98,-1317889.23 1061,-1317885.31 1115.55,-1317867.51 1150.54,-1317895.2 1185,-1317849.31 1527.79,-1317392.93 1289.01,-661695.82 1288,-658934.4"/>
<polygon fill="#63b8ff" stroke="#63b8ff" points="1023.46,-1317894.71 1015.3,-1317901.47 1025.9,-1317901.28 1023.46,-1317894.71"/>
</a>
</g>
</g>
<!-- Node10 -->
<g id="Node000010" class="node">
<title>Node10</title>
<g id="a_Node000010"><a xlink:href="readme__example_8c.html" target="_top" xlink:title=" ">
<polygon fill="white" stroke="#666666" points="1603.75,-658933.91 1400.25,-658933.91 1400.25,-658915.41 1603.75,-658915.41 1603.75,-658933.91"/>
<text text-anchor="middle" x="1502" y="-658920.41" font-family="Helvetica,sans-Serif" font-size="10.00">examples/readme_example.c</text>
</a>
</g>
</g>
<!-- Node2&#45;&gt;Node10 -->
<g id="edge9_Node000002_Node000010" class="edge">
<title>Node2&#45;&gt;Node10</title>
<g id="a_edge9_Node000002_Node000010"><a xlink:title=" ">
<path fill="none" stroke="#63b8ff" d="M1021.3,-1317897.93C1033.45,-1317893.28 1047.69,-1317888.41 1061,-1317885.31 1132.85,-1317868.6 1341.74,-1317904.23 1391,-1317849.31 1772.12,-1317424.42 1503.14,-661695.95 1502,-658934.4"/>
<polygon fill="#63b8ff" stroke="#63b8ff" points="1020.24,-1317894.59 1012.24,-1317901.53 1022.82,-1317901.1 1020.24,-1317894.59"/>
</a>
</g>
</g>
<!-- Node11 -->
<g id="Node000011" class="node">
<title>Node11</title>
<g id="a_Node000011"><a xlink:href="traverse__dir_8c.html" target="_top" xlink:title=" ">
<polygon fill="white" stroke="#666666" points="1810.25,-658945.83 1621.75,-658945.83 1621.75,-658903.48 1810.25,-658903.48 1810.25,-658945.83"/>
<text text-anchor="middle" x="1716" y="-658932.33" font-family="Helvetica,sans-Serif" font-size="10.00">examples/traverse_dir.c</text>
</a>
</g>
</g>
<!-- Node2&#45;&gt;Node11 -->
<g id="edge10_Node000002_Node000011" class="edge">
<title>Node2&#45;&gt;Node11</title>
<g id="a_edge10_Node000002_Node000011"><a xlink:title=" ">
<path fill="none" stroke="#63b8ff" d="M1020.71,-1317897.84C1032.96,-1317893.08 1047.44,-1317888.16 1061,-1317885.31 1121.15,-1317872.69 1570.97,-1317894.16 1613,-1317849.31 2002.84,-1317433.29 1717.86,-663179.13 1716.01,-658946.28"/>
<polygon fill="#63b8ff" stroke="#63b8ff" points="1019.54,-1317894.53 1011.58,-1317901.53 1022.17,-1317901.02 1019.54,-1317894.53"/>
</a>
</g>
</g>
<!-- Node12 -->
<g id="Node000012" class="node">
<title>Node12</title>
<g id="a_Node000012"><a xlink:href="traverse__dir__ll_8c.html" target="_top" xlink:title=" ">
<polygon fill="white" stroke="#666666" points="2039.5,-658937.66 1828.5,-658937.66 1828.5,-658911.66 2039.5,-658911.66 2039.5,-658937.66"/>
<text text-anchor="middle" x="1934" y="-658924.16" font-family="Helvetica,sans-Serif" font-size="10.00">examples/traverse_dir_ll.c</text>
</a>
</g>
</g>
<!-- Node2&#45;&gt;Node12 -->
<g id="edge11_Node000002_Node000012" class="edge">
<title>Node2&#45;&gt;Node12</title>
<g id="a_edge11_Node000002_Node000012"><a xlink:title=" ">
<path fill="none" stroke="#63b8ff" d="M1020.69,-1317897.71C1032.93,-1317892.94 1047.41,-1317888.04 1061,-1317885.31 1143.67,-1317868.73 1760.8,-1317910.33 1819,-1317849.31 2212.79,-1317436.45 1935.4,-662217.3 1934.01,-658938.01"/>
<polygon fill="#63b8ff" stroke="#63b8ff" points="1019.5,-1317894.42 1011.56,-1317901.43 1022.14,-1317900.9 1019.5,-1317894.42"/>
</a>
</g>
</g>
</g>
</svg>

<g id="navigator" transform="translate(0 0)" fill="#404254">
  <rect fill="#f2f5e9" fill-opacity="0.5" stroke="#606060" stroke-width=".5" x="0" y="0" width="60" height="60"/>
  <use id="zoomplus" xlink:href="#zoomPlus" x="17" y="9" onmousedown="handleZoom(evt,'in')"/>
  <use id="zoomminus" xlink:href="#zoomMin" x="42" y="9" onmousedown="handleZoom(evt,'out')"/>
  <use id="reset" xlink:href="#resetDef" x="30" y="36" onmousedown="handleReset()"/>
   <use id="arrowup" xlink:href="#arrowUp" x="0" y="0" onmousedown="handlePan(0,-1)"/>
  <use id="arrowright" xlink:href="#arrowRight" x="0" y="0" onmousedown="handlePan(1,0)"/>
  <use id="arrowdown" xlink:href="#arrowDown" x="0" y="0" onmousedown="handlePan(0,1)"/>
  <use id="arrowleft" xlink:href="#arrowLeft" x="0" y="0" onmousedown="handlePan(-1,0)"/>
</g>
<svg viewBox="0 0 15 15" width="100%" height="30px" preserveAspectRatio="xMaxYMin meet">
 <g id="arrow_out" transform="scale(0.3 0.3)">
  <a xlink:href="sqsh__archive_8h__dep__incl_org.svg" target="_base">
   <rect id="button" ry="5" rx="5" y="6" x="6" height="38" width="38"
        fill="#f2f5e9" fill-opacity="0.5" stroke="#606060" stroke-width="1.0"/>
   <path id="arrow"
     d="M 11.500037,31.436501 C 11.940474,20.09759 22.043105,11.32322 32.158766,21.979434 L 37.068811,17.246167 C 37.068811,17.246167 37.088388,32 37.088388,32 L 22.160133,31.978069 C 22.160133,31.978069 26.997745,27.140456 26.997745,27.140456 C 18.528582,18.264221 13.291696,25.230495 11.500037,31.436501 z"
     style="fill:#404040;"/>
  </a>
 </g>
</svg>

<style type='text/css'>
<![CDATA[
[data-mouse-over-selected='false'] { opacity: 0.7; }
[data-mouse-over-selected='true']  { opacity: 1.0; }
]]>
</style>
<script type="application/ecmascript"><![CDATA[
document.addEventListener('DOMContentLoaded', (event) => {
  highlightEdges();
  highlightAdjacentNodes();
});
]]></script>
</svg>
