<?xml version="1.0" encoding="UTF-8" standalone="no"?>
<!DOCTYPE svg PUBLIC "-//W3C//DTD SVG 1.1//EN"
 "http://www.w3.org/Graphics/SVG/1.1/DTD/svg11.dtd">
<!-- Generated by graphviz version 8.0.5 (20230430.1635)
 -->
<!-- Title: include/sqsh_mapper_private.h Pages: 1 -->
<svg width="617pt" height="208pt"
 viewBox="0.00 0.00 617.25 208.07" xmlns="http://www.w3.org/2000/svg" xmlns:xlink="http://www.w3.org/1999/xlink">
<g id="graph0" class="graph" transform="scale(1 1) rotate(0) translate(4 204.07)">
<title>include/sqsh_mapper_private.h</title>
<!-- Node1 -->
<g id="node1" class="node">
<title>Node1</title>
<g id="a_node1"><a xlink:title=" ">
<polygon fill="#999999" stroke="#666666" points="413,-200.07 254.5,-200.07 254.5,-171.07 413,-171.07 413,-200.07"/>
<text text-anchor="start" x="262.5" y="-186.57" font-family="Helvetica,sans-Serif" font-size="10.00">include/sqsh_mapper</text>
<text text-anchor="middle" x="333.75" y="-176.07" font-family="Helvetica,sans-Serif" font-size="10.00">_private.h</text>
</a>
</g>
</g>
<!-- Node2 -->
<g id="node2" class="node">
<title>Node2</title>
<g id="a_node2"><a xlink:href="sqsh__mapper_8h.html" target="_top" xlink:title=" ">
<polygon fill="white" stroke="#666666" points="113.5,-135.07 0,-135.07 0,-116.5 113.5,-116.5 113.5,-135.07"/>
<text text-anchor="middle" x="56.75" y="-121.57" font-family="Helvetica,sans-Serif" font-size="10.00">sqsh_mapper.h</text>
</a>
</g>
</g>
<!-- Node1&#45;&gt;Node2 -->
<g id="edge1" class="edge">
<title>Node1&#45;&gt;Node2</title>
<path fill="none" stroke="#63b8ff" d="M266.7,-170.58C218.33,-160.49 153.95,-147.06 109.29,-137.75"/>
<polygon fill="#63b8ff" stroke="#63b8ff" points="110.17,-134.15 99.67,-135.53 108.74,-141 110.17,-134.15"/>
</g>
<!-- Node3 -->
<g id="node3" class="node">
<title>Node3</title>
<g id="a_node3"><a xlink:href="sqsh__reader__private_8h.html" target="_top" xlink:title=" ">
<polygon fill="white" stroke="#666666" points="535.5,-135.04 362,-135.04 362,-116.54 535.5,-116.54 535.5,-135.04"/>
<text text-anchor="middle" x="448.75" y="-121.54" font-family="Helvetica,sans-Serif" font-size="10.00">sqsh_reader_private.h</text>
</a>
</g>
</g>
<!-- Node1&#45;&gt;Node3 -->
<g id="edge2" class="edge">
<title>Node1&#45;&gt;Node3</title>
<path fill="none" stroke="#63b8ff" d="M361.59,-170.58C379.9,-161.38 403.74,-149.4 421.86,-140.3"/>
<polygon fill="#63b8ff" stroke="#63b8ff" points="423.15,-143.06 430.52,-135.45 420.01,-136.81 423.15,-143.06"/>
</g>
<!-- Node8 -->
<g id="node8" class="node">
<title>Node8</title>
<g id="a_node8"><a xlink:title=" ">
<polygon fill="#e0e0e0" stroke="#999999" points="499.75,-80.5 333.75,-80.5 333.75,-62 499.75,-62 499.75,-80.5"/>
<text text-anchor="middle" x="416.75" y="-67" font-family="Helvetica,sans-Serif" font-size="10.00">cextras/collection.h</text>
</a>
</g>
</g>
<!-- Node1&#45;&gt;Node8 -->
<g id="edge12" class="edge">
<title>Node1&#45;&gt;Node8</title>
<path fill="none" stroke="#63b8ff" d="M334.86,-170.6C336.62,-155.93 341.15,-132.79 352.75,-116.5 361.72,-103.91 375.45,-93.74 387.9,-86.33"/>
<polygon fill="#63b8ff" stroke="#63b8ff" points="389.46,-88.92 396.5,-81 386.06,-82.8 389.46,-88.92"/>
</g>
<!-- Node9 -->
<g id="node9" class="node">
<title>Node9</title>
<g id="a_node9"><a xlink:title=" ">
<polygon fill="#e0e0e0" stroke="#999999" points="609.25,-80.5 518.25,-80.5 518.25,-62 609.25,-62 609.25,-80.5"/>
<text text-anchor="middle" x="563.75" y="-67" font-family="Helvetica,sans-Serif" font-size="10.00">sys/wait.h</text>
</a>
</g>
</g>
<!-- Node1&#45;&gt;Node9 -->
<g id="edge13" class="edge">
<title>Node1&#45;&gt;Node9</title>
<path fill="none" stroke="#63b8ff" d="M413.46,-174.26C464.9,-166.07 525.65,-153 544.75,-135.07 556.57,-123.97 561.12,-105.8 562.83,-91.85"/>
<polygon fill="#63b8ff" stroke="#63b8ff" points="566.4,-92.21 563.71,-81.96 559.42,-91.64 566.4,-92.21"/>
</g>
<!-- Node10 -->
<g id="node10" class="node">
<title>Node10</title>
<g id="a_node10"><a xlink:href="sqsh__thread__private_8h.html" target="_top" xlink:title=" ">
<polygon fill="white" stroke="#666666" points="305.5,-135.04 132,-135.04 132,-116.54 305.5,-116.54 305.5,-135.04"/>
<text text-anchor="middle" x="218.75" y="-121.54" font-family="Helvetica,sans-Serif" font-size="10.00">sqsh_thread_private.h</text>
</a>
</g>
</g>
<!-- Node1&#45;&gt;Node10 -->
<g id="edge9" class="edge">
<title>Node1&#45;&gt;Node10</title>
<path fill="none" stroke="#63b8ff" d="M305.91,-170.58C287.6,-161.38 263.76,-149.4 245.64,-140.3"/>
<polygon fill="#63b8ff" stroke="#63b8ff" points="247.49,-136.81 236.98,-135.45 244.35,-143.06 247.49,-136.81"/>
</g>
<!-- Node4 -->
<g id="node4" class="node">
<title>Node4</title>
<g id="a_node4"><a xlink:href="sqsh__common_8h.html" target="_top" xlink:title=" ">
<polygon fill="white" stroke="#666666" points="315.5,-80.5 202,-80.5 202,-62 315.5,-62 315.5,-80.5"/>
<text text-anchor="middle" x="258.75" y="-67" font-family="Helvetica,sans-Serif" font-size="10.00">sqsh_common.h</text>
</a>
</g>
</g>
<!-- Node3&#45;&gt;Node4 -->
<g id="edge3" class="edge">
<title>Node3&#45;&gt;Node4</title>
<path fill="none" stroke="#63b8ff" d="M417.38,-116.11C385.47,-107.29 335.85,-93.57 300.61,-83.82"/>
<polygon fill="#63b8ff" stroke="#63b8ff" points="301.74,-80.23 291.17,-80.94 299.88,-86.98 301.74,-80.23"/>
</g>
<!-- Node3&#45;&gt;Node8 -->
<g id="edge7" class="edge">
<title>Node3&#45;&gt;Node8</title>
<path fill="none" stroke="#63b8ff" d="M443.47,-116.11C439.18,-109.07 432.99,-98.92 427.65,-90.15"/>
<polygon fill="#63b8ff" stroke="#63b8ff" points="430.13,-88.48 421.94,-81.76 424.15,-92.13 430.13,-88.48"/>
</g>
<!-- Node3&#45;&gt;Node9 -->
<g id="edge8" class="edge">
<title>Node3&#45;&gt;Node9</title>
<path fill="none" stroke="#63b8ff" d="M467.74,-116.11C485.97,-107.78 513.75,-95.09 534.75,-85.5"/>
<polygon fill="#63b8ff" stroke="#63b8ff" points="536.09,-88.28 543.73,-80.94 533.18,-81.91 536.09,-88.28"/>
</g>
<!-- Node5 -->
<g id="node5" class="node">
<title>Node5</title>
<g id="a_node5"><a xlink:title=" ">
<polygon fill="#e0e0e0" stroke="#999999" points="202.5,-22.25 119,-22.25 119,-3.75 202.5,-3.75 202.5,-22.25"/>
<text text-anchor="middle" x="160.75" y="-8.75" font-family="Helvetica,sans-Serif" font-size="10.00">stdbool.h</text>
</a>
</g>
</g>
<!-- Node4&#45;&gt;Node5 -->
<g id="edge4" class="edge">
<title>Node4&#45;&gt;Node5</title>
<path fill="none" stroke="#63b8ff" d="M243.87,-61.71C228.32,-52.79 203.69,-38.65 185.27,-28.08"/>
<polygon fill="#63b8ff" stroke="#63b8ff" points="187.19,-24.57 176.77,-22.62 183.7,-30.64 187.19,-24.57"/>
</g>
<!-- Node6 -->
<g id="node6" class="node">
<title>Node6</title>
<g id="a_node6"><a xlink:title=" ">
<polygon fill="#e0e0e0" stroke="#999999" points="296.75,-22.25 220.75,-22.25 220.75,-3.75 296.75,-3.75 296.75,-22.25"/>
<text text-anchor="middle" x="258.75" y="-8.75" font-family="Helvetica,sans-Serif" font-size="10.00">stddef.h</text>
</a>
</g>
</g>
<!-- Node4&#45;&gt;Node6 -->
<g id="edge5" class="edge">
<title>Node4&#45;&gt;Node6</title>
<path fill="none" stroke="#63b8ff" d="M258.75,-61.95C258.75,-54.48 258.75,-43.2 258.75,-33.46"/>
<polygon fill="#63b8ff" stroke="#63b8ff" points="262.25,-33.7 258.75,-23.7 255.25,-33.7 262.25,-33.7"/>
</g>
<!-- Node7 -->
<g id="node7" class="node">
<title>Node7</title>
<g id="a_node7"><a xlink:title=" ">
<polygon fill="#e0e0e0" stroke="#999999" points="390.75,-26 314.75,-26 314.75,0 390.75,0 390.75,-26"/>
<text text-anchor="middle" x="352.75" y="-12.5" font-family="Helvetica,sans-Serif" font-size="10.00">stdint.h</text>
</a>
</g>
</g>
<!-- Node4&#45;&gt;Node7 -->
<g id="edge6" class="edge">
<title>Node4&#45;&gt;Node7</title>
<path fill="none" stroke="#63b8ff" d="M273.03,-61.71C286.16,-53.85 306.07,-41.93 322.71,-31.98"/>
<polygon fill="#63b8ff" stroke="#63b8ff" points="324.27,-34.52 331.05,-26.39 320.67,-28.52 324.27,-34.52"/>
</g>
<!-- Node10&#45;&gt;Node4 -->
<g id="edge11" class="edge">
<title>Node10&#45;&gt;Node4</title>
<path fill="none" stroke="#63b8ff" d="M225.36,-116.11C230.89,-108.84 238.95,-98.25 245.77,-89.29"/>
<polygon fill="#63b8ff" stroke="#63b8ff" points="248.99,-91.84 252.27,-81.76 243.43,-87.6 248.99,-91.84"/>
</g>
<!-- Node11 -->
<g id="node11" class="node">
<title>Node11</title>
<g id="a_node11"><a xlink:title=" ">
<polygon fill="#e0e0e0" stroke="#999999" points="183.5,-80.5 100,-80.5 100,-62 183.5,-62 183.5,-80.5"/>
<text text-anchor="middle" x="141.75" y="-67" font-family="Helvetica,sans-Serif" font-size="10.00">pthread.h</text>
</a>
</g>
</g>
<!-- Node10&#45;&gt;Node11 -->
<g id="edge10" class="edge">
<title>Node10&#45;&gt;Node11</title>
<path fill="none" stroke="#63b8ff" d="M206.04,-116.11C194.44,-108.2 177.08,-96.36 163.32,-86.97"/>
<polygon fill="#63b8ff" stroke="#63b8ff" points="165.72,-83.68 155.48,-80.94 161.77,-89.47 165.72,-83.68"/>
</g>
</g>
</svg>
