<?xml version="1.0" encoding="UTF-8" standalone="no"?>
<!DOCTYPE svg PUBLIC "-//W3C//DTD SVG 1.1//EN"
 "http://www.w3.org/Graphics/SVG/1.1/DTD/svg11.dtd">
<!-- Generated by graphviz version 9.0.0 (20230911.1827)
 -->
<!-- Title: libsqsh/include/sqsh_tree_private.h Pages: 1 -->
<!--zoomable 2978998 -->

<svg id="main" version="1.1" xmlns="http://www.w3.org/2000/svg" xmlns:xlink="http://www.w3.org/1999/xlink" xml:space="preserve" onload="init(evt)">
<style type="text/css"><![CDATA[
.node, .edge {opacity: 0.7;}
.node.selected, .edge.selected {opacity: 1;}
.edge:hover path { stroke: red; }
.edge:hover polygon { stroke: red; fill: red; }
]]></style>

<defs>
  <circle id="rim" cx="0" cy="0" r="7"/>
  <circle id="rim2" cx="0" cy="0" r="3.5"/>
  <g id="zoomPlus">
    <use xlink:href="#rim" fill="#404040"><set attributeName="fill" to="#808080" begin="zoomplus.mouseover" end="zoomplus.mouseout"/></use>
    <path d="M-4,0h8M0,-4v8" fill="none" stroke="white" stroke-width="1.5" pointer-events="none"/>
  </g>
  <g id="zoomMin">
    <use xlink:href="#rim" fill="#404040"><set attributeName="fill" to="#808080" begin="zoomminus.mouseover" end="zoomminus.mouseout"/></use>
    <path d="M-4,0h8" fill="none" stroke="white" stroke-width="1.5" pointer-events="none"/>
  </g>
  <g id="arrowUp" transform="translate(30 24)">
    <use xlink:href="#rim"/>
    <path pointer-events="none" fill="none" stroke="white" stroke-width="1.5" d="M0,-3.0v7 M-2.5,-0.5L0,-3.0L2.5,-0.5"/>
  </g>
  <g id="arrowRight" transform="rotate(90) translate(36 -43)">
    <use xlink:href="#rim"/>
    <path pointer-events="none" fill="none" stroke="white" stroke-width="1.5" d="M0,-3.0v7 M-2.5,-0.5L0,-3.0L2.5,-0.5"/>
  </g>
  <g id="arrowDown" transform="rotate(180) translate(-30 -48)">
    <use xlink:href="#rim"/>
    <path pointer-events="none" fill="none" stroke="white" stroke-width="1.5" d="M0,-3.0v7 M-2.5,-0.5L0,-3.0L2.5,-0.5"/>
  </g>
  <g id="arrowLeft" transform="rotate(270) translate(-36 17)">
    <use xlink:href="#rim"/>
    <path pointer-events="none" fill="none" stroke="white" stroke-width="1.5" d="M0,-3.0v7 M-2.5,-0.5L0,-3.0L2.5,-0.5"/>
  </g>
  <g id="resetDef">
    <use xlink:href="#rim2" fill="#404040"><set attributeName="fill" to="#808080" begin="reset.mouseover" end="reset.mouseout"/></use>
  </g>
</defs>
<script type="application/ecmascript">
var viewWidth = 1090;
var viewHeight = 2978998;
var sectionId = 'dynsection-0';
</script>
<script type="application/ecmascript" xlink:href="svg.min.js"/>
<svg id="graph" class="graph">
<g id="viewport">
<title>libsqsh/include/sqsh_tree_private.h</title>
<!-- Node1 -->
<g id="Node000001" class="node">
<title>Node1</title>
<g id="a_Node000001"><a xlink:title=" ">
<polygon fill="#999999" stroke="#666666" points="783.15,-2978990.08 617.15,-2978990.08 617.15,-2064052.13 783.15,-2064052.13 783.15,-2978990.08"/>
<text text-anchor="start" x="625.15" y="-2978976.58" font-family="Helvetica,sans-Serif" font-size="10.00">libsqsh/include/sqsh</text>
<text text-anchor="middle" x="700.15" y="-2978966.08" font-family="Helvetica,sans-Serif" font-size="10.00">_tree_private.h</text>
</a>
</g>
</g>
<!-- Node2 -->
<g id="Node000002" class="node">
<title>Node2</title>
<g id="a_Node000002"><a xlink:href="sqsh__directory__private_8h.html" target="_top" xlink:title=" ">
<polygon fill="white" stroke="#666666" points="798.15,-2064016.13 602.15,-2064016.13 602.15,-2063997.63 798.15,-2063997.63 798.15,-2064016.13"/>
<text text-anchor="middle" x="700.15" y="-2064002.63" font-family="Helvetica,sans-Serif" font-size="10.00">sqsh_directory_private.h</text>
</a>
</g>
</g>
<!-- Node1&#45;&gt;Node2 -->
<g id="edge1_Node000001_Node000002" class="edge">
<title>Node1&#45;&gt;Node2</title>
<g id="a_edge1_Node000001_Node000002"><a xlink:title=" ">
<path fill="none" stroke="#63b8ff" d="M700.15,-2064051.94C700.15,-2064042.28 700.15,-2064034.2 700.15,-2064027.71"/>
<polygon fill="#63b8ff" stroke="#63b8ff" points="703.65,-2064027.85 700.15,-2064017.85 696.65,-2064027.85 703.65,-2064027.85"/>
</a>
</g>
</g>
<!-- Node9 -->
<g id="Node000009" class="node">
<title>Node9</title>
<g id="a_Node000009"><a xlink:href="sqsh__file__private_8h.html" target="_top" xlink:title=" ">
<polygon fill="white" stroke="#666666" points="653.4,-2063953.47 494.9,-2063953.47 494.9,-2063927.47 653.4,-2063927.47 653.4,-2063953.47"/>
<text text-anchor="middle" x="574.15" y="-2063939.97" font-family="Helvetica,sans-Serif" font-size="10.00">sqsh_file_private.h</text>
</a>
</g>
</g>
<!-- Node1&#45;&gt;Node9 -->
<g id="edge27_Node000001_Node000009" class="edge">
<title>Node1&#45;&gt;Node9</title>
<g id="a_edge27_Node000001_Node000009"><a xlink:title=" ">
<path fill="none" stroke="#63b8ff" d="M616.65,-2218283.56C593.54,-2134353.31 574.56,-2065424.85 574.16,-2063965.09"/>
<polygon fill="#63b8ff" stroke="#63b8ff" points="577.66,-2063965.29 574.15,-2063955.29 570.66,-2063965.29 577.66,-2063965.29"/>
</a>
</g>
</g>
<!-- Node19 -->
<g id="Node000019" class="node">
<title>Node19</title>
<g id="a_Node000019"><a xlink:href="sqsh__tree_8h.html" target="_top" xlink:title=" ">
<polygon fill="white" stroke="#666666" points="980.4,-2063961.63 881.9,-2063961.63 881.9,-2063919.3 980.4,-2063919.3 980.4,-2063961.63"/>
<text text-anchor="middle" x="931.15" y="-2063948.13" font-family="Helvetica,sans-Serif" font-size="10.00">sqsh_tree.h</text>
</a>
</g>
</g>
<!-- Node1&#45;&gt;Node19 -->
<g id="edge28_Node000001_Node000019" class="edge">
<title>Node1&#45;&gt;Node19</title>
<g id="a_edge28_Node000001_Node000019"><a xlink:title=" ">
<path fill="none" stroke="#63b8ff" d="M783.65,-2356118.43C849.26,-2226149.75 929.83,-2066552.41 931.13,-2063973.14"/>
<polygon fill="#63b8ff" stroke="#63b8ff" points="934.63,-2063973.55 931.14,-2063963.54 927.63,-2063973.54 934.63,-2063973.55"/>
</a>
</g>
</g>
<!-- Node3 -->
<g id="Node000003" class="node">
<title>Node3</title>
<g id="a_Node000003"><a xlink:href="sqsh__directory_8h.html" target="_top" xlink:title=" ">
<polygon fill="white" stroke="#666666" points="864.15,-2063949.72 728.15,-2063949.72 728.15,-2063931.22 864.15,-2063931.22 864.15,-2063949.72"/>
<text text-anchor="middle" x="796.15" y="-2063936.22" font-family="Helvetica,sans-Serif" font-size="10.00">sqsh_directory.h</text>
</a>
</g>
</g>
<!-- Node2&#45;&gt;Node3 -->
<g id="edge2_Node000002_Node000003" class="edge">
<title>Node2&#45;&gt;Node3</title>
<g id="a_edge2_Node000002_Node000003"><a xlink:title=" ">
<path fill="none" stroke="#63b8ff" d="M713.1,-2063997.2C728.71,-2063986.72 755.22,-2063968.93 774.08,-2063956.27"/>
<polygon fill="#63b8ff" stroke="#63b8ff" points="775.8,-2063959.34 782.15,-2063950.86 771.9,-2063953.52 775.8,-2063959.34"/>
</a>
</g>
</g>
<!-- Node2&#45;&gt;Node9 -->
<g id="edge8_Node000002_Node000009" class="edge">
<title>Node2&#45;&gt;Node9</title>
<g id="a_edge8_Node000002_Node000009"><a xlink:title=" ">
<path fill="none" stroke="#63b8ff" d="M683.16,-2063997.2C664.08,-2063987.44 632.63,-2063971.36 608.4,-2063958.98"/>
<polygon fill="#63b8ff" stroke="#63b8ff" points="610.03,-2063955.88 599.53,-2063954.44 606.84,-2063962.11 610.03,-2063955.88"/>
</a>
</g>
</g>
<!-- Node18 -->
<g id="Node000018" class="node">
<title>Node18</title>
<g id="a_Node000018"><a xlink:href="sqsh__metablock__private_8h.html" target="_top" xlink:title=" ">
<polygon fill="white" stroke="#666666" points="798.15,-2063879.55 602.15,-2063879.55 602.15,-2063861.05 798.15,-2063861.05 798.15,-2063879.55"/>
<text text-anchor="middle" x="700.15" y="-2063866.05" font-family="Helvetica,sans-Serif" font-size="10.00">sqsh_metablock_private.h</text>
</a>
</g>
</g>
<!-- Node2&#45;&gt;Node18 -->
<g id="edge26_Node000002_Node000018" class="edge">
<title>Node2&#45;&gt;Node18</title>
<g id="a_edge26_Node000002_Node000018"><a xlink:title=" ">
<path fill="none" stroke="#63b8ff" d="M700.15,-2063997.46C700.15,-2063976.41 700.15,-2063921.02 700.15,-2063891.12"/>
<polygon fill="#63b8ff" stroke="#63b8ff" points="703.65,-2063891.23 700.15,-2063881.23 696.65,-2063891.23 703.65,-2063891.23"/>
</a>
</g>
</g>
<!-- Node4 -->
<g id="Node000004" class="node">
<title>Node4</title>
<g id="a_Node000004"><a xlink:href="sqsh__file_8h.html" target="_top" xlink:title=" ">
<polygon fill="white" stroke="#666666" points="947.4,-2063883.3 848.9,-2063883.3 848.9,-2063857.3 947.4,-2063857.3 947.4,-2063883.3"/>
<text text-anchor="middle" x="898.15" y="-2063869.8" font-family="Helvetica,sans-Serif" font-size="10.00">sqsh_file.h</text>
</a>
</g>
</g>
<!-- Node3&#45;&gt;Node4 -->
<g id="edge3_Node000003_Node000004" class="edge">
<title>Node3&#45;&gt;Node4</title>
<g id="a_edge3_Node000003_Node000004"><a xlink:title=" ">
<path fill="none" stroke="#63b8ff" d="M809.07,-2063930.83C824.29,-2063920.66 850.04,-2063903.45 869.95,-2063890.15"/>
<polygon fill="#63b8ff" stroke="#63b8ff" points="871.83,-2063893.1 878.2,-2063884.63 867.94,-2063887.28 871.83,-2063893.1"/>
</a>
</g>
</g>
<!-- Node5 -->
<g id="Node000005" class="node">
<title>Node5</title>
<g id="a_Node000005"><a xlink:href="sqsh__common_8h.html" target="_top" xlink:title=" ">
<polygon fill="white" stroke="#666666" points="1047.9,-915153.14 934.4,-915153.14 934.4,-915134.64 1047.9,-915134.64 1047.9,-915153.14"/>
<text text-anchor="middle" x="991.15" y="-915139.64" font-family="Helvetica,sans-Serif" font-size="10.00">sqsh_common.h</text>
</a>
</g>
</g>
<!-- Node4&#45;&gt;Node5 -->
<g id="edge4_Node000004_Node000005" class="edge">
<title>Node4&#45;&gt;Node5</title>
<g id="a_edge4_Node000004_Node000005"><a xlink:title=" ">
<path fill="none" stroke="#63b8ff" d="M918.41,-2063857.09C945.5,-2063839.44 992.3,-2063803.94 1011.15,-2063759.3 1011.15,-2063759.3 1011.15,-915189.14 1011.15,-915189.14 1009.24,-915180.29 1005.41,-915171.06 1001.6,-915163.35"/>
<polygon fill="#63b8ff" stroke="#63b8ff" points="1004.77,-915161.85 996.99,-915154.67 998.59,-915165.14 1004.77,-915161.85"/>
</a>
</g>
</g>
<!-- Node6 -->
<g id="Node000006" class="node">
<title>Node6</title>
<g id="a_Node000006"><a xlink:title=" ">
<polygon fill="#e0e0e0" stroke="#999999" points="1081.9,-457558.57 998.4,-457558.57 998.4,-457540.07 1081.9,-457540.07 1081.9,-457558.57"/>
<text text-anchor="middle" x="1040.15" y="-457545.07" font-family="Helvetica,sans-Serif" font-size="10.00">stdbool.h</text>
</a>
</g>
</g>
<!-- Node5&#45;&gt;Node6 -->
<g id="edge5_Node000005_Node000006" class="edge">
<title>Node5&#45;&gt;Node6</title>
<g id="a_edge5_Node000005_Node000006"><a xlink:title=" ">
<path fill="none" stroke="#63b8ff" d="M991.15,-915134.31C991.39,-912864.25 1039.78,-461014.45 1040.15,-457570.11"/>
<polygon fill="#63b8ff" stroke="#63b8ff" points="1043.65,-457570.38 1040.15,-457560.38 1036.65,-457570.37 1043.65,-457570.38"/>
</a>
</g>
</g>
<!-- Node7 -->
<g id="Node000007" class="node">
<title>Node7</title>
<g id="a_Node000007"><a xlink:title=" ">
<polygon fill="#e0e0e0" stroke="#999999" points="980.15,-915098.64 904.15,-915098.64 904.15,0 980.15,0 980.15,-915098.64"/>
<text text-anchor="middle" x="942.15" y="-915085.14" font-family="Helvetica,sans-Serif" font-size="10.00">stddef.h</text>
</a>
</g>
</g>
<!-- Node5&#45;&gt;Node7 -->
<g id="edge6_Node000005_Node000007" class="edge">
<title>Node5&#45;&gt;Node7</title>
<g id="a_edge6_Node000005_Node000007"><a xlink:title=" ">
<path fill="none" stroke="#63b8ff" d="M990.65,-915134.42C990.16,-915125.51 989.43,-915111.1 989.15,-915098.64 512.68,-894052.19 793.18,-594040.65 903.64,-491567.16"/>
<polygon fill="#63b8ff" stroke="#63b8ff" points="907.14,-491567.25 903.65,-491557.24 900.14,-491567.24 907.14,-491567.25"/>
</a>
</g>
</g>
<!-- Node8 -->
<g id="Node000008" class="node">
<title>Node8</title>
<g id="a_Node000008"><a xlink:title=" ">
<polygon fill="#e0e0e0" stroke="#999999" points="495.15,-915013.95 419.15,-915013.95 419.15,-84.69 495.15,-84.69 495.15,-915013.95"/>
<text text-anchor="middle" x="457.15" y="-915000.45" font-family="Helvetica,sans-Serif" font-size="10.00">stdint.h</text>
</a>
</g>
</g>
<!-- Node5&#45;&gt;Node8 -->
<g id="edge7_Node000005_Node000008" class="edge">
<title>Node5&#45;&gt;Node8</title>
<g id="a_edge7_Node000005_Node000008"><a xlink:title=" ">
<path fill="none" stroke="#63b8ff" d="M948.22,-915134.24C928.5,-915127.89 906.93,-915117.03 895.15,-915098.64 -636.05,-912709.34 218.48,-549612.85 418.62,-472029.58"/>
<polygon fill="#63b8ff" stroke="#63b8ff" points="422.12,-472030.01 418.64,-472020 415.12,-472029.99 422.12,-472030.01"/>
</a>
</g>
</g>
<!-- Node9&#45;&gt;Node4 -->
<g id="edge9_Node000009_Node000004" class="edge">
<title>Node9&#45;&gt;Node4</title>
<g id="a_edge9_Node000009_Node000004"><a xlink:title=" ">
<path fill="none" stroke="#63b8ff" d="M633.2,-2063927.04C691.16,-2063914.85 779.13,-2063896.34 837.6,-2063884.04"/>
<polygon fill="#63b8ff" stroke="#63b8ff" points="837.98,-2063887.53 847.04,-2063882.05 836.54,-2063880.68 837.98,-2063887.53"/>
</a>
</g>
</g>
<!-- Node9&#45;&gt;Node8 -->
<g id="edge25_Node000009_Node000008" class="edge">
<title>Node9&#45;&gt;Node8</title>
<g id="a_edge25_Node000009_Node000008"><a xlink:title=" ">
<path fill="none" stroke="#63b8ff" d="M494.41,-2063935.08C353.73,-2063925.13 76.15,-2063894.7 76.15,-2063809.3 76.15,-2063809.3 76.15,-2063809.3 76.15,-1489473.22 76.15,-1234235.85 -10.02,-1170426.49 95.15,-915189.14 159.65,-758648.64 339.29,-571988.34 418.64,-494296.42"/>
<polygon fill="#63b8ff" stroke="#63b8ff" points="422.14,-494296.82 418.65,-494286.82 415.14,-494296.82 422.14,-494296.82"/>
</a>
</g>
</g>
<!-- Node10 -->
<g id="Node000010" class="node">
<title>Node10</title>
<g id="a_Node000010"><a xlink:href="sqsh__extract__private_8h.html" target="_top" xlink:title=" ">
<polygon fill="white" stroke="#666666" points="805.65,-2063821.3 624.65,-2063821.3 624.65,-2063795.3 805.65,-2063795.3 805.65,-2063821.3"/>
<text text-anchor="middle" x="715.15" y="-2063807.8" font-family="Helvetica,sans-Serif" font-size="10.00">sqsh_extract_private.h</text>
</a>
</g>
</g>
<!-- Node9&#45;&gt;Node10 -->
<g id="edge10_Node000009_Node000010" class="edge">
<title>Node9&#45;&gt;Node10</title>
<g id="a_edge10_Node000009_Node000010"><a xlink:title=" ">
<path fill="none" stroke="#63b8ff" d="M573.63,-2063927.02C573.56,-2063909.41 576.03,-2063877.15 593.15,-2063857.3 605.64,-2063842.82 623.07,-2063832.67 640.85,-2063825.57"/>
<polygon fill="#63b8ff" stroke="#63b8ff" points="641.72,-2063828.98 649.91,-2063822.26 639.31,-2063822.41 641.72,-2063828.98"/>
</a>
</g>
</g>
<!-- Node14 -->
<g id="Node000014" class="node">
<title>Node14</title>
<g id="a_Node000014"><a xlink:href="sqsh__mapper__private_8h.html" target="_top" xlink:title=" ">
<polygon fill="white" stroke="#666666" points="606.9,-2063821.3 433.4,-2063821.3 433.4,-2063795.3 606.9,-2063795.3 606.9,-2063821.3"/>
<text text-anchor="middle" x="520.15" y="-2063807.8" font-family="Helvetica,sans-Serif" font-size="10.00">sqsh_mapper_private.h</text>
</a>
</g>
</g>
<!-- Node9&#45;&gt;Node14 -->
<g id="edge15_Node000009_Node000014" class="edge">
<title>Node9&#45;&gt;Node14</title>
<g id="a_edge15_Node000009_Node000014"><a xlink:title=" ">
<path fill="none" stroke="#63b8ff" d="M568.97,-2063926.98C559.92,-2063905.16 541.08,-2063859.76 529.64,-2063832.17"/>
<polygon fill="#63b8ff" stroke="#63b8ff" points="532.88,-2063830.85 525.81,-2063822.95 526.41,-2063833.53 532.88,-2063830.85"/>
</a>
</g>
</g>
<!-- Node16 -->
<g id="Node000016" class="node">
<title>Node16</title>
<g id="a_Node000016"><a xlink:title=" ">
<polygon fill="#e0e0e0" stroke="#999999" points="277.9,-1489483.47 104.4,-1489483.47 104.4,-1489464.97 277.9,-1489464.97 277.9,-1489483.47"/>
<text text-anchor="middle" x="191.15" y="-1489469.97" font-family="Helvetica,sans-Serif" font-size="10.00">sqsh_reader_private.h</text>
</a>
</g>
</g>
<!-- Node9&#45;&gt;Node16 -->
<g id="edge24_Node000009_Node000016" class="edge">
<title>Node9&#45;&gt;Node16</title>
<g id="a_edge24_Node000009_Node000016"><a xlink:title=" ">
<path fill="none" stroke="#63b8ff" d="M530.28,-2063926.99C463.49,-2063905.35 338.53,-2063853.83 286.15,-2063759.3 45.36,-2063324.73 190.16,-1493353.41 191.14,-1489494.9"/>
<polygon fill="#63b8ff" stroke="#63b8ff" points="194.64,-1489495.04 191.15,-1489485.03 187.64,-1489495.03 194.64,-1489495.04"/>
</a>
</g>
</g>
<!-- Node9&#45;&gt;Node18 -->
<g id="edge21_Node000009_Node000018" class="edge">
<title>Node9&#45;&gt;Node18</title>
<g id="a_edge21_Node000009_Node000018"><a xlink:title=" ">
<path fill="none" stroke="#63b8ff" d="M596.97,-2063927.12C618.76,-2063915.33 651.57,-2063897.58 674.31,-2063885.28"/>
<polygon fill="#63b8ff" stroke="#63b8ff" points="675.82,-2063888.44 682.95,-2063880.6 672.49,-2063882.28 675.82,-2063888.44"/>
</a>
</g>
</g>
<!-- Node11 -->
<g id="Node000011" class="node">
<title>Node11</title>
<g id="a_Node000011"><a xlink:title=" ">
<polygon fill="#e0e0e0" stroke="#999999" points="702.15,-1489483.47 536.15,-1489483.47 536.15,-1489464.97 702.15,-1489464.97 702.15,-1489483.47"/>
<text text-anchor="middle" x="619.15" y="-1489469.97" font-family="Helvetica,sans-Serif" font-size="10.00">cextras/collection.h</text>
</a>
</g>
</g>
<!-- Node10&#45;&gt;Node11 -->
<g id="edge11_Node000010_Node000011" class="edge">
<title>Node10&#45;&gt;Node11</title>
<g id="a_edge11_Node000010_Node000011"><a xlink:title=" ">
<path fill="none" stroke="#63b8ff" d="M713.85,-2063795.08C712.89,-2063785.39 711.66,-2063771.5 711.15,-2063759.3 380.18,-2055817.51 617.5,-1493371.41 619.14,-1489495.35"/>
<polygon fill="#63b8ff" stroke="#63b8ff" points="622.64,-1489495.39 619.14,-1489485.39 615.64,-1489495.38 622.64,-1489495.39"/>
</a>
</g>
</g>
<!-- Node12 -->
<g id="Node000012" class="node">
<title>Node12</title>
<g id="a_Node000012"><a xlink:href="sqsh__data_8h.html" target="_top" xlink:title=" ">
<polygon fill="white" stroke="#666666" points="1002.4,-1489483.47 903.9,-1489483.47 903.9,-1489464.97 1002.4,-1489464.97 1002.4,-1489483.47"/>
<text text-anchor="middle" x="953.15" y="-1489469.97" font-family="Helvetica,sans-Serif" font-size="10.00">sqsh_data.h</text>
</a>
</g>
</g>
<!-- Node10&#45;&gt;Node12 -->
<g id="edge12_Node000010_Node000012" class="edge">
<title>Node10&#45;&gt;Node12</title>
<g id="a_edge12_Node000010_Node000012"><a xlink:title=" ">
<path fill="none" stroke="#63b8ff" d="M799.62,-2063794.86C840.32,-2063786.96 882.93,-2063775.2 895.15,-2063759.3 895.15,-2063759.3 952.76,-1493356.36 953.15,-1489494.92"/>
<polygon fill="#63b8ff" stroke="#63b8ff" points="956.65,-1489495.04 953.15,-1489485.04 949.65,-1489495.04 956.65,-1489495.04"/>
</a>
</g>
</g>
<!-- Node13 -->
<g id="Node000013" class="node">
<title>Node13</title>
<g id="a_Node000013"><a xlink:title=" ">
<polygon fill="#e0e0e0" stroke="#999999" points="886.15,-2063759.3 720.15,-2063759.3 720.15,-915189.14 886.15,-915189.14 886.15,-2063759.3"/>
<text text-anchor="middle" x="803.15" y="-2063745.8" font-family="Helvetica,sans-Serif" font-size="10.00">sqsh_utils_private.h</text>
</a>
</g>
</g>
<!-- Node10&#45;&gt;Node13 -->
<g id="edge14_Node000010_Node000013" class="edge">
<title>Node10&#45;&gt;Node13</title>
<g id="a_edge14_Node000010_Node000013"><a xlink:title=" ">
<path fill="none" stroke="#63b8ff" d="M715.15,-2063794.89C715.21,-2063381.88 716.85,-2052673.6 719.65,-2034449.22"/>
<polygon fill="#63b8ff" stroke="#63b8ff" points="723.15,-2034449.47 719.65,-2034439.46 716.15,-2034449.46 723.15,-2034449.47"/>
</a>
</g>
</g>
<!-- Node12&#45;&gt;Node5 -->
<g id="edge13_Node000012_Node000005" class="edge">
<title>Node12&#45;&gt;Node5</title>
<g id="a_edge13_Node000012_Node000005"><a xlink:title=" ">
<path fill="none" stroke="#63b8ff" d="M953.15,-1489464.92C953.31,-1486960.67 990.89,-919044.1 991.15,-915164.86"/>
<polygon fill="#63b8ff" stroke="#63b8ff" points="994.65,-915165.14 991.15,-915155.14 987.65,-915165.14 994.65,-915165.14"/>
</a>
</g>
</g>
<!-- Node14&#45;&gt;Node11 -->
<g id="edge19_Node000014_Node000011" class="edge">
<title>Node14&#45;&gt;Node11</title>
<g id="a_edge19_Node000014_Node000011"><a xlink:title=" ">
<path fill="none" stroke="#63b8ff" d="M522.42,-2063795.12C524.11,-2063785.45 526.26,-2063771.56 527.15,-2063759.3 814.99,-2059795.27 620.49,-1493364.21 619.16,-1489495.13"/>
<polygon fill="#63b8ff" stroke="#63b8ff" points="622.66,-1489495.45 619.15,-1489485.45 615.66,-1489495.45 622.66,-1489495.45"/>
</a>
</g>
</g>
<!-- Node14&#45;&gt;Node13 -->
<g id="edge18_Node000014_Node000013" class="edge">
<title>Node14&#45;&gt;Node13</title>
<g id="a_edge18_Node000014_Node000013"><a xlink:title=" ">
<path fill="none" stroke="#63b8ff" d="M607.38,-2063795.92C651.24,-2063788.22 697.88,-2063776.32 711.15,-2063759.3 713.92,-2063755.74 716.65,-2063705.29 719.34,-2063608.78"/>
<polygon fill="#63b8ff" stroke="#63b8ff" points="722.83,-2063609.02 719.61,-2063598.93 715.84,-2063608.83 722.83,-2063609.02"/>
</a>
</g>
</g>
<!-- Node15 -->
<g id="Node000015" class="node">
<title>Node15</title>
<g id="a_Node000015"><a xlink:href="sqsh__mapper_8h.html" target="_top" xlink:title=" ">
<polygon fill="white" stroke="#666666" points="517.9,-1489483.47 404.4,-1489483.47 404.4,-1489464.97 517.9,-1489464.97 517.9,-1489483.47"/>
<text text-anchor="middle" x="461.15" y="-1489469.97" font-family="Helvetica,sans-Serif" font-size="10.00">sqsh_mapper.h</text>
</a>
</g>
</g>
<!-- Node14&#45;&gt;Node15 -->
<g id="edge16_Node000014_Node000015" class="edge">
<title>Node14&#45;&gt;Node15</title>
<g id="a_edge16_Node000014_Node000015"><a xlink:title=" ">
<path fill="none" stroke="#63b8ff" d="M520.15,-2063794.89C519.83,-2060737.13 461.55,-1493370.64 461.15,-1489495.17"/>
<polygon fill="#63b8ff" stroke="#63b8ff" points="464.65,-1489495.46 461.15,-1489485.46 457.65,-1489495.46 464.65,-1489495.46"/>
</a>
</g>
</g>
<!-- Node14&#45;&gt;Node16 -->
<g id="edge17_Node000014_Node000016" class="edge">
<title>Node14&#45;&gt;Node16</title>
<g id="a_edge17_Node000014_Node000016"><a xlink:title=" ">
<path fill="none" stroke="#63b8ff" d="M433.03,-2063800.76C374.48,-2063794.34 304.73,-2063782.07 286.15,-2063759.3 -27.92,-2063374.34 189.66,-1493353.75 191.14,-1489494.9"/>
<polygon fill="#63b8ff" stroke="#63b8ff" points="194.64,-1489495.04 191.14,-1489485.04 187.64,-1489495.03 194.64,-1489495.04"/>
</a>
</g>
</g>
<!-- Node17 -->
<g id="Node000017" class="node">
<title>Node17</title>
<g id="a_Node000017"><a xlink:title=" ">
<polygon fill="#e0e0e0" stroke="#999999" points="386.65,-1489483.47 295.65,-1489483.47 295.65,-1489464.97 386.65,-1489464.97 386.65,-1489483.47"/>
<text text-anchor="middle" x="341.15" y="-1489469.97" font-family="Helvetica,sans-Serif" font-size="10.00">sys/wait.h</text>
</a>
</g>
</g>
<!-- Node14&#45;&gt;Node17 -->
<g id="edge20_Node000014_Node000017" class="edge">
<title>Node14&#45;&gt;Node17</title>
<g id="a_edge20_Node000014_Node000017"><a xlink:title=" ">
<path fill="none" stroke="#63b8ff" d="M446.24,-2063794.91C426.39,-2063787.84 407.13,-2063776.73 395.15,-2063759.3 395.15,-2063759.3 341.51,-1493356.36 341.15,-1489494.92"/>
<polygon fill="#63b8ff" stroke="#63b8ff" points="344.65,-1489495.04 341.15,-1489485.04 337.65,-1489495.04 344.65,-1489495.04"/>
</a>
</g>
</g>
<!-- Node18&#45;&gt;Node10 -->
<g id="edge22_Node000018_Node000010" class="edge">
<title>Node18&#45;&gt;Node10</title>
<g id="a_edge22_Node000018_Node000010"><a xlink:title=" ">
<path fill="none" stroke="#63b8ff" d="M702.3,-2063860.7C704.14,-2063853.34 706.87,-2063842.4 709.35,-2063832.49"/>
<polygon fill="#63b8ff" stroke="#63b8ff" points="712.67,-2063833.65 711.7,-2063823.1 705.88,-2063831.95 712.67,-2063833.65"/>
</a>
</g>
</g>
<!-- Node18&#45;&gt;Node14 -->
<g id="edge23_Node000018_Node000014" class="edge">
<title>Node18&#45;&gt;Node14</title>
<g id="a_edge23_Node000018_Node000014"><a xlink:title=" ">
<path fill="none" stroke="#63b8ff" d="M673.98,-2063860.57C646.35,-2063851.36 602.19,-2063836.65 568.26,-2063825.33"/>
<polygon fill="#63b8ff" stroke="#63b8ff" points="569.66,-2063822.11 559.07,-2063822.27 567.45,-2063828.75 569.66,-2063822.11"/>
</a>
</g>
</g>
<!-- Node19&#45;&gt;Node4 -->
<g id="edge30_Node000019_Node000004" class="edge">
<title>Node19&#45;&gt;Node4</title>
<g id="a_edge30_Node000019_Node000004"><a xlink:title=" ">
<path fill="none" stroke="#63b8ff" d="M921.25,-2063919.01C917.38,-2063911.03 912.94,-2063901.86 908.99,-2063893.7"/>
<polygon fill="#63b8ff" stroke="#63b8ff" points="912.18,-2063892.25 904.67,-2063884.77 905.88,-2063895.3 912.18,-2063892.25"/>
</a>
</g>
</g>
<!-- Node19&#45;&gt;Node5 -->
<g id="edge29_Node000019_Node000005" class="edge">
<title>Node19&#45;&gt;Node5</title>
<g id="a_edge29_Node000019_Node000005"><a xlink:title=" ">
<path fill="none" stroke="#63b8ff" d="M946.15,-2063918.9C968.57,-2063886.77 1009.82,-2063821.83 1025.15,-2063759.3 1025.15,-2063759.3 1025.15,-915189.14 1025.15,-915189.14 1021.74,-915179.1 1015.02,-915169.56 1008.46,-915161.92"/>
<polygon fill="#63b8ff" stroke="#63b8ff" points="1011.16,-915159.68 1001.79,-915154.75 1006.04,-915164.45 1011.16,-915159.68"/>
</a>
</g>
</g>
</g>
</svg>

<g id="navigator" transform="translate(0 0)" fill="#404254">
  <rect fill="#f2f5e9" fill-opacity="0.5" stroke="#606060" stroke-width=".5" x="0" y="0" width="60" height="60"/>
  <use id="zoomplus" xlink:href="#zoomPlus" x="17" y="9" onmousedown="handleZoom(evt,'in')"/>
  <use id="zoomminus" xlink:href="#zoomMin" x="42" y="9" onmousedown="handleZoom(evt,'out')"/>
  <use id="reset" xlink:href="#resetDef" x="30" y="36" onmousedown="handleReset()"/>
   <use id="arrowup" xlink:href="#arrowUp" x="0" y="0" onmousedown="handlePan(0,-1)"/>
  <use id="arrowright" xlink:href="#arrowRight" x="0" y="0" onmousedown="handlePan(1,0)"/>
  <use id="arrowdown" xlink:href="#arrowDown" x="0" y="0" onmousedown="handlePan(0,1)"/>
  <use id="arrowleft" xlink:href="#arrowLeft" x="0" y="0" onmousedown="handlePan(-1,0)"/>
</g>
<svg viewBox="0 0 15 15" width="100%" height="30px" preserveAspectRatio="xMaxYMin meet">
 <g id="arrow_out" transform="scale(0.3 0.3)">
  <a xlink:href="sqsh__tree__private_8h__incl_org.svg" target="_base">
   <rect id="button" ry="5" rx="5" y="6" x="6" height="38" width="38"
        fill="#f2f5e9" fill-opacity="0.5" stroke="#606060" stroke-width="1.0"/>
   <path id="arrow"
     d="M 11.500037,31.436501 C 11.940474,20.09759 22.043105,11.32322 32.158766,21.979434 L 37.068811,17.246167 C 37.068811,17.246167 37.088388,32 37.088388,32 L 22.160133,31.978069 C 22.160133,31.978069 26.997745,27.140456 26.997745,27.140456 C 18.528582,18.264221 13.291696,25.230495 11.500037,31.436501 z"
     style="fill:#404040;"/>
  </a>
 </g>
</svg>

<style type='text/css'>
<![CDATA[
[data-mouse-over-selected='false'] { opacity: 0.7; }
[data-mouse-over-selected='true']  { opacity: 1.0; }
]]>
</style>
<script type="application/ecmascript"><![CDATA[
document.addEventListener('DOMContentLoaded', (event) => {
  highlightEdges();
  highlightAdjacentNodes();
});
]]></script>
</svg>
