<?xml version="1.0" encoding="UTF-8" standalone="no"?>
<!DOCTYPE svg PUBLIC "-//W3C//DTD SVG 1.1//EN"
 "http://www.w3.org/Graphics/SVG/1.1/DTD/svg11.dtd">
<!-- Generated by graphviz version 9.0.0 (20230911.1827)
 -->
<!-- Title: include/sqsh_directory.h Pages: 1 -->
<svg width="280pt" height="1054445pt"
 viewBox="0.00 0.00 279.75 1054445.36" xmlns="http://www.w3.org/2000/svg" xmlns:xlink="http://www.w3.org/1999/xlink">
<g id="graph0" class="graph" transform="scale(1 1) rotate(0) translate(4 1054441.36)">
<title>include/sqsh_directory.h</title>
<!-- Node1 -->
<g id="Node000001" class="node">
<title>Node1</title>
<g id="a_Node000001"><a xlink:title=" ">
<polygon fill="#999999" stroke="#666666" points="237.75,-1054437.36 41.75,-1054437.36 41.75,-1054418.86 237.75,-1054418.86 237.75,-1054437.36"/>
<text text-anchor="middle" x="139.75" y="-1054423.86" font-family="Helvetica,sans-Serif" font-size="10.00">include/sqsh_directory.h</text>
</a>
</g>
</g>
<!-- Node2 -->
<g id="Node000002" class="node">
<title>Node2</title>
<g id="a_Node000002"><a xlink:href="sqsh__file_8h.html" target="_top" xlink:title=" ">
<polygon fill="white" stroke="#666666" points="189,-1054382.86 90.5,-1054382.86 90.5,-527330.27 189,-527330.27 189,-1054382.86"/>
<text text-anchor="middle" x="139.75" y="-1054369.36" font-family="Helvetica,sans-Serif" font-size="10.00">sqsh_file.h</text>
</a>
</g>
</g>
<!-- Node1&#45;&gt;Node2 -->
<g id="edge1_Node000001_Node000002" class="edge">
<title>Node1&#45;&gt;Node2</title>
<g id="a_edge1_Node000001_Node000002"><a xlink:title=" ">
<path fill="none" stroke="#63b8ff" d="M139.75,-1054418.54C139.75,-1054413.13 139.75,-1054405.16 139.75,-1054394.65"/>
<polygon fill="#63b8ff" stroke="#63b8ff" points="143.25,-1054394.8 139.75,-1054384.8 136.25,-1054394.8 143.25,-1054394.8"/>
</a>
</g>
</g>
<!-- Node3 -->
<g id="Node000003" class="node">
<title>Node3</title>
<g id="a_Node000003"><a xlink:href="sqsh__common_8h.html" target="_top" xlink:title=" ">
<polygon fill="white" stroke="#666666" points="196.5,-527294.27 83,-527294.27 83,-54.5 196.5,-54.5 196.5,-527294.27"/>
<text text-anchor="middle" x="139.75" y="-527280.77" font-family="Helvetica,sans-Serif" font-size="10.00">sqsh_common.h</text>
</a>
</g>
</g>
<!-- Node2&#45;&gt;Node3 -->
<g id="edge2_Node000002_Node000003" class="edge">
<title>Node2&#45;&gt;Node3</title>
<g id="a_edge2_Node000002_Node000003"><a xlink:title=" ">
<path fill="none" stroke="#63b8ff" d="M139.75,-527329.95C139.75,-527321.92 139.75,-527313.89 139.75,-527305.86"/>
<polygon fill="#63b8ff" stroke="#63b8ff" points="143.25,-527306.02 139.75,-527296.02 136.25,-527306.02 143.25,-527306.02"/>
</a>
</g>
</g>
<!-- Node4 -->
<g id="Node000004" class="node">
<title>Node4</title>
<g id="a_Node000004"><a xlink:title=" ">
<polygon fill="#e0e0e0" stroke="#999999" points="83.5,-18.5 0,-18.5 0,0 83.5,0 83.5,-18.5"/>
<text text-anchor="middle" x="41.75" y="-5" font-family="Helvetica,sans-Serif" font-size="10.00">stdbool.h</text>
</a>
</g>
</g>
<!-- Node3&#45;&gt;Node4 -->
<g id="edge3_Node000003_Node000004" class="edge">
<title>Node3&#45;&gt;Node4</title>
<g id="a_edge3_Node000003_Node000004"><a xlink:title=" ">
<path fill="none" stroke="#63b8ff" d="M82.5,-109646.04C61.28,-52557.28 42.19,-1186.22 41.76,-30.14"/>
<polygon fill="#63b8ff" stroke="#63b8ff" points="45.26,-30.38 41.75,-20.38 38.26,-30.38 45.26,-30.38"/>
</a>
</g>
</g>
<!-- Node5 -->
<g id="Node000005" class="node">
<title>Node5</title>
<g id="a_Node000005"><a xlink:title=" ">
<polygon fill="#e0e0e0" stroke="#999999" points="177.75,-18.5 101.75,-18.5 101.75,0 177.75,0 177.75,-18.5"/>
<text text-anchor="middle" x="139.75" y="-5" font-family="Helvetica,sans-Serif" font-size="10.00">stddef.h</text>
</a>
</g>
</g>
<!-- Node3&#45;&gt;Node5 -->
<g id="edge4_Node000003_Node000005" class="edge">
<title>Node3&#45;&gt;Node5</title>
<g id="a_edge4_Node000003_Node000005"><a xlink:title=" ">
<path fill="none" stroke="#63b8ff" d="M139.75,-54.25C139.75,-44.74 139.75,-36.76 139.75,-30.33"/>
<polygon fill="#63b8ff" stroke="#63b8ff" points="143.25,-30.51 139.75,-20.51 136.25,-30.51 143.25,-30.51"/>
</a>
</g>
</g>
<!-- Node6 -->
<g id="Node000006" class="node">
<title>Node6</title>
<g id="a_Node000006"><a xlink:title=" ">
<polygon fill="#e0e0e0" stroke="#999999" points="271.75,-18.5 195.75,-18.5 195.75,0 271.75,0 271.75,-18.5"/>
<text text-anchor="middle" x="233.75" y="-5" font-family="Helvetica,sans-Serif" font-size="10.00">stdint.h</text>
</a>
</g>
</g>
<!-- Node3&#45;&gt;Node6 -->
<g id="edge5_Node000003_Node000006" class="edge">
<title>Node3&#45;&gt;Node6</title>
<g id="a_edge5_Node000003_Node000006"><a xlink:title=" ">
<path fill="none" stroke="#63b8ff" d="M197,-103091.33C216.4,-48678.03 233.35,-1133.8 233.74,-29.87"/>
<polygon fill="#63b8ff" stroke="#63b8ff" points="237.24,-30.27 233.75,-20.27 230.24,-30.26 237.24,-30.27"/>
</a>
</g>
</g>
</g>
</svg>
