<?xml version="1.0" encoding="UTF-8" standalone="no"?>
<!DOCTYPE svg PUBLIC "-//W3C//DTD SVG 1.1//EN"
 "http://www.w3.org/Graphics/SVG/1.1/DTD/svg11.dtd">
<!-- Generated by graphviz version 8.0.5 (20230430.1635)
 -->
<!-- Title: include/sqsh_posix.h Pages: 1 -->
<!--zoomable 2168689 -->
<svg id="main" version="1.1" xmlns="http://www.w3.org/2000/svg" xmlns:xlink="http://www.w3.org/1999/xlink" xml:space="preserve" onload="init(evt)">
<style type="text/css"><![CDATA[
.edge:hover path { stroke: red; }
.edge:hover polygon { stroke: red; fill: red; }
]]></style>
<script type="text/javascript"><![CDATA[
var edges = document.getElementsByTagName('g');
if (edges && edges.length) {
  for (var i=0;i<edges.length;i++) {
    if (edges[i].id.substr(0,4)=='edge') {
      edges[i].setAttribute('class','edge');
    }
  }
}
]]></script>
        <defs>
                <circle id="rim" cx="0" cy="0" r="7"/>
                <circle id="rim2" cx="0" cy="0" r="3.5"/>
                <g id="zoomPlus">
                        <use xlink:href="#rim" fill="#404040">
                                <set attributeName="fill" to="#808080" begin="zoomplus.mouseover" end="zoomplus.mouseout"/>
                        </use>
                        <path d="M-4,0h8M0,-4v8" fill="none" stroke="white" stroke-width="1.5" pointer-events="none"/>
                </g>
                <g id="zoomMin">
                        <use xlink:href="#rim" fill="#404040">
                                <set attributeName="fill" to="#808080" begin="zoomminus.mouseover" end="zoomminus.mouseout"/>
                        </use>
                        <path d="M-4,0h8" fill="none" stroke="white" stroke-width="1.5" pointer-events="none"/>
                </g>
                <g id="dirArrow">
                        <path fill="none" stroke="white" stroke-width="1.5" d="M0,-3.0v7 M-2.5,-0.5L0,-3.0L2.5,-0.5"/>
                </g>
               <g id="resetDef">
                       <use xlink:href="#rim2" fill="#404040">
                               <set attributeName="fill" to="#808080" begin="reset.mouseover" end="reset.mouseout"/>
                       </use>
               </g>
        </defs>

<script type="text/javascript">
var viewWidth = 1627;
var viewHeight = 2168689;
var sectionId = 'dynsection-1';
</script>
<script xlink:href="svgpan.js"/>
<svg id="graph" class="graph">
<g id="viewport">
<title>include/sqsh_posix.h</title>
<!-- Node1 -->
<g id="node1" class="node">
<title>Node1</title>
<g id="a_node1"><a xlink:title=" ">
<polygon fill="#999999" stroke="#666666" points="860.25,-2168680.95 694.25,-2168680.95 694.25,-2168662.45 860.25,-2168662.45 860.25,-2168680.95"/>
<text text-anchor="middle" x="777.25" y="-2168667.45" font-family="Helvetica,sans-Serif" font-size="10.00">include/sqsh_posix.h</text>
</a>
</g>
</g>
<!-- Node2 -->
<g id="node2" class="node">
<title>Node2</title>
<g id="a_node2"><a xlink:href="sqsh_8h.html" target="_top" xlink:title=" ">
<polygon fill="white" stroke="#666666" points="837.75,-2168626.45 716.75,-2168626.45 716.75,-1084389.65 837.75,-1084389.65 837.75,-2168626.45"/>
<text text-anchor="middle" x="777.25" y="-2168612.95" font-family="Helvetica,sans-Serif" font-size="10.00">include/sqsh.h</text>
</a>
</g>
</g>
<!-- Node1&#45;&gt;Node2 -->
<g id="edge1" class="edge">
<title>Node1&#45;&gt;Node2</title>
<path fill="none" stroke="#63b8ff" d="M777.25,-2168651.2C777.25,-2168644.72 777.25,-2168636.63 777.25,-2168626.93"/>
<polygon fill="#63b8ff" stroke="#63b8ff" points="773.75,-2168650.96 777.25,-2168660.96 780.75,-2168650.96 773.75,-2168650.96"/>
</g>
<!-- Node3 -->
<g id="node3" class="node">
<title>Node3</title>
<g id="a_node3"><a xlink:href="list__dir_8c.html" target="_top" xlink:title=" ">
<polygon fill="white" stroke="#666666" points="158.5,-542186.08 0,-542186.08 0,-542167.58 158.5,-542167.58 158.5,-542186.08"/>
<text text-anchor="middle" x="79.25" y="-542172.58" font-family="Helvetica,sans-Serif" font-size="10.00">examples/list_dir.c</text>
</a>
</g>
</g>
<!-- Node2&#45;&gt;Node3 -->
<g id="edge2" class="edge">
<title>Node2&#45;&gt;Node3</title>
<path fill="none" stroke="#63b8ff" d="M716.23,-1584510.18C586.91,-1493414.97 287.3,-1270842.7 167.25,-1084353.65 12.62,-844136.75 78.83,-544052.44 79.25,-542186.57"/>
<polygon fill="#63b8ff" stroke="#63b8ff" points="712.74,-1584510.13 716.25,-1584520.13 719.74,-1584510.12 712.74,-1584510.13"/>
</g>
<!-- Node4 -->
<g id="node4" class="node">
<title>Node4</title>
<g id="a_node4"><a xlink:href="list__dir__ll_8c.html" target="_top" xlink:title=" ">
<polygon fill="white" stroke="#666666" points="357.75,-1084353.65 176.75,-1084353.65 176.75,0 357.75,0 357.75,-1084353.65"/>
<text text-anchor="middle" x="267.25" y="-1084340.15" font-family="Helvetica,sans-Serif" font-size="10.00">examples/list_dir_ll.c</text>
</a>
</g>
</g>
<!-- Node2&#45;&gt;Node4 -->
<g id="edge3" class="edge">
<title>Node2&#45;&gt;Node4</title>
<path fill="none" stroke="#63b8ff" d="M716.24,-1561879.57C623.01,-1460250.5 447.39,-1256863.8 366.25,-1084353.65 363.51,-1078526.63 360.84,-1072664.37 358.25,-1066772"/>
<polygon fill="#63b8ff" stroke="#63b8ff" points="712.74,-1561879.33 716.25,-1561889.33 719.74,-1561879.33 712.74,-1561879.33"/>
</g>
<!-- Node5 -->
<g id="node5" class="node">
<title>Node5</title>
<g id="a_node5"><a xlink:href="list__xattrs_8c.html" target="_top" xlink:title=" ">
<polygon fill="white" stroke="#666666" points="556.75,-1084353.03 375.75,-1084353.03 375.75,-0.63 556.75,-0.63 556.75,-1084353.03"/>
<text text-anchor="middle" x="466.25" y="-1084339.53" font-family="Helvetica,sans-Serif" font-size="10.00">examples/list_xattrs.c</text>
</a>
</g>
</g>
<!-- Node2&#45;&gt;Node5 -->
<g id="edge4" class="edge">
<title>Node2&#45;&gt;Node5</title>
<path fill="none" stroke="#63b8ff" d="M716.25,-1490557.61C668.93,-1380904.52 604.93,-1222700.07 565.25,-1084353.65 562.52,-1074843.79 559.86,-1065240.09 557.25,-1055564.79"/>
<polygon fill="#63b8ff" stroke="#63b8ff" points="712.75,-1490557.6 716.25,-1490567.59 719.75,-1490557.59 712.75,-1490557.6"/>
</g>
<!-- Node6 -->
<g id="node6" class="node">
<title>Node6</title>
<g id="a_node6"><a xlink:href="list__xattrs__ll_8c.html" target="_top" xlink:title=" ">
<polygon fill="white" stroke="#666666" points="778,-542189.83 574.5,-542189.83 574.5,-542163.83 778,-542163.83 778,-542189.83"/>
<text text-anchor="middle" x="676.25" y="-542176.33" font-family="Helvetica,sans-Serif" font-size="10.00">examples/list_xattrs_ll.c</text>
</a>
</g>
</g>
<!-- Node2&#45;&gt;Node6 -->
<g id="edge5" class="edge">
<title>Node2&#45;&gt;Node6</title>
<path fill="none" stroke="#63b8ff" d="M726.75,-1084378.54C701.6,-814343.18 676.45,-544295.87 676.25,-542190.22"/>
<polygon fill="#63b8ff" stroke="#63b8ff" points="723.25,-1084378.36 726.75,-1084388.36 730.25,-1084378.36 723.25,-1084378.36"/>
</g>
<!-- Node7 -->
<g id="node7" class="node">
<title>Node7</title>
<g id="a_node7"><a xlink:href="read__file_8c.html" target="_top" xlink:title=" ">
<polygon fill="white" stroke="#666666" points="962.25,-542186.08 796.25,-542186.08 796.25,-542167.58 962.25,-542167.58 962.25,-542186.08"/>
<text text-anchor="middle" x="879.25" y="-542172.58" font-family="Helvetica,sans-Serif" font-size="10.00">examples/read_file.c</text>
</a>
</g>
</g>
<!-- Node2&#45;&gt;Node7 -->
<g id="edge6" class="edge">
<title>Node2&#45;&gt;Node7</title>
<path fill="none" stroke="#63b8ff" d="M828.25,-1084378.54C853.67,-814161.16 879.09,-543931.83 879.25,-542186.33"/>
<polygon fill="#63b8ff" stroke="#63b8ff" points="824.75,-1084378.36 828.25,-1084388.36 831.75,-1084378.36 824.75,-1084378.36"/>
</g>
<!-- Node8 -->
<g id="node8" class="node">
<title>Node8</title>
<g id="a_node8"><a xlink:href="read__file__ll_8c.html" target="_top" xlink:title=" ">
<polygon fill="white" stroke="#666666" points="1168.5,-542186.08 980,-542186.08 980,-542167.58 1168.5,-542167.58 1168.5,-542186.08"/>
<text text-anchor="middle" x="1074.25" y="-542172.58" font-family="Helvetica,sans-Serif" font-size="10.00">examples/read_file_ll.c</text>
</a>
</g>
</g>
<!-- Node2&#45;&gt;Node8 -->
<g id="edge7" class="edge">
<title>Node2&#45;&gt;Node8</title>
<path fill="none" stroke="#63b8ff" d="M838.25,-1475027.35C880.38,-1366302.88 935.11,-1216297.06 971.25,-1084353.65 1037.05,-844136.7 1074.02,-544052.44 1074.25,-542186.57"/>
<polygon fill="#63b8ff" stroke="#63b8ff" points="834.75,-1475027.24 838.25,-1475037.24 841.75,-1475027.24 834.75,-1475027.24"/>
</g>
<!-- Node9 -->
<g id="node9" class="node">
<title>Node9</title>
<g id="a_node9"><a xlink:href="readme__example_8c.html" target="_top" xlink:title=" ">
<polygon fill="white" stroke="#666666" points="1390,-542186.08 1186.5,-542186.08 1186.5,-542167.58 1390,-542167.58 1390,-542186.08"/>
<text text-anchor="middle" x="1288.25" y="-542172.58" font-family="Helvetica,sans-Serif" font-size="10.00">examples/readme_example.c</text>
</a>
</g>
</g>
<!-- Node2&#45;&gt;Node9 -->
<g id="edge8" class="edge">
<title>Node2&#45;&gt;Node9</title>
<path fill="none" stroke="#63b8ff" d="M838.26,-1559395.8C928.78,-1456965.23 1096.61,-1255469.68 1177.25,-1084353.65 1290.46,-844136.72 1288.26,-544052.44 1288.25,-542186.57"/>
<polygon fill="#63b8ff" stroke="#63b8ff" points="834.76,-1559395.64 838.25,-1559405.65 841.76,-1559395.65 834.76,-1559395.64"/>
</g>
<!-- Node10 -->
<g id="node10" class="node">
<title>Node10</title>
<g id="a_node10"><a xlink:href="traverse__dir__ll_8c.html" target="_top" xlink:title=" ">
<polygon fill="white" stroke="#666666" points="1618.75,-542198.02 1407.75,-542198.02 1407.75,-542155.63 1618.75,-542155.63 1618.75,-542198.02"/>
<text text-anchor="middle" x="1513.25" y="-542184.52" font-family="Helvetica,sans-Serif" font-size="10.00">examples/traverse_dir_ll.c</text>
</a>
</g>
</g>
<!-- Node2&#45;&gt;Node10 -->
<g id="edge9" class="edge">
<title>Node2&#45;&gt;Node10</title>
<path fill="none" stroke="#63b8ff" d="M838.27,-1584900.66C968.58,-1494052.39 1272.49,-1271109.72 1399.25,-1084353.65 1562.03,-844533.85 1513.72,-545044.42 1513.25,-542198.27"/>
<polygon fill="#63b8ff" stroke="#63b8ff" points="834.76,-1584900.57 838.25,-1584910.57 841.76,-1584900.58 834.76,-1584900.57"/>
</g>
</g>
</svg>
        <g id="navigator" transform="translate(0 0)" fill="#404254">
                <rect fill="#f2f5e9" fill-opacity="0.5" stroke="#606060" stroke-width=".5" x="0" y="0" width="60" height="60"/>
                <use id="zoomplus" xlink:href="#zoomPlus" x="17" y="9" onmousedown="handleZoom(evt,'in')"/>
                <use id="zoomminus" xlink:href="#zoomMin" x="42" y="9" onmousedown="handleZoom(evt,'out')"/>
                <use id="reset" xlink:href="#resetDef" x="30" y="36" onmousedown="handleReset()"/>
                <g id="arrowUp" xlink:href="#dirArrow" transform="translate(30 24)" onmousedown="handlePan(0,-1)">
                  <use xlink:href="#rim" fill="#404040">
                        <set attributeName="fill" to="#808080" begin="arrowUp.mouseover" end="arrowUp.mouseout"/>
                  </use>
                  <path fill="none" stroke="white" stroke-width="1.5" d="M0,-3.0v7 M-2.5,-0.5L0,-3.0L2.5,-0.5"/>
                </g>
                <g id="arrowRight" xlink:href="#dirArrow" transform="rotate(90) translate(36 -43)" onmousedown="handlePan(1,0)">
                  <use xlink:href="#rim" fill="#404040">
                        <set attributeName="fill" to="#808080" begin="arrowRight.mouseover" end="arrowRight.mouseout"/>
                  </use>
                  <path fill="none" stroke="white" stroke-width="1.5" d="M0,-3.0v7 M-2.5,-0.5L0,-3.0L2.5,-0.5"/>
                </g>
                <g id="arrowDown" xlink:href="#dirArrow" transform="rotate(180) translate(-30 -48)" onmousedown="handlePan(0,1)">
                  <use xlink:href="#rim" fill="#404040">
                        <set attributeName="fill" to="#808080" begin="arrowDown.mouseover" end="arrowDown.mouseout"/>
                  </use>
                  <path fill="none" stroke="white" stroke-width="1.5" d="M0,-3.0v7 M-2.5,-0.5L0,-3.0L2.5,-0.5"/>
                </g>
                <g id="arrowLeft" xlink:href="#dirArrow" transform="rotate(270) translate(-36 17)" onmousedown="handlePan(-1,0)">
                  <use xlink:href="#rim" fill="#404040">
                        <set attributeName="fill" to="#808080" begin="arrowLeft.mouseover" end="arrowLeft.mouseout"/>
                  </use>
                  <path fill="none" stroke="white" stroke-width="1.5" d="M0,-3.0v7 M-2.5,-0.5L0,-3.0L2.5,-0.5"/>
                </g>
        </g>
        <svg viewBox="0 0 15 15" width="100%" height="30px" preserveAspectRatio="xMaxYMin meet">
         <g id="arrow_out" transform="scale(0.3 0.3)">
          <a xlink:href="sqsh__posix_8h__dep__incl_org.svg" target="_base">
           <rect id="button" ry="5" rx="5" y="6" x="6" height="38" width="38"
                fill="#f2f5e9" fill-opacity="0.5" stroke="#606060" stroke-width="1.0"/>
           <path id="arrow"
             d="M 11.500037,31.436501 C 11.940474,20.09759 22.043105,11.32322 32.158766,21.979434 L 37.068811,17.246167 C 37.068811,17.246167 37.088388,32 37.088388,32 L 22.160133,31.978069 C 22.160133,31.978069 26.997745,27.140456 26.997745,27.140456 C 18.528582,18.264221 13.291696,25.230495 11.500037,31.436501 z"
             style="fill:#404040;"/>
          </a>
         </g>
        </svg>
</svg>
