<?xml version="1.0" encoding="UTF-8" standalone="no"?>
<!DOCTYPE svg PUBLIC "-//W3C//DTD SVG 1.1//EN"
 "http://www.w3.org/Graphics/SVG/1.1/DTD/svg11.dtd">
<!-- Generated by graphviz version 9.0.0 (20230911.1827)
 -->
<!-- Title: include/sqsh_common.h Pages: 1 -->
<svg width="280pt" height="893511pt"
 viewBox="0.00 0.00 279.75 893511.02" xmlns="http://www.w3.org/2000/svg" xmlns:xlink="http://www.w3.org/1999/xlink">
<g id="graph0" class="graph" transform="scale(1 1) rotate(0) translate(4 893507.02)">
<title>include/sqsh_common.h</title>
<!-- Node1 -->
<g id="Node000001" class="node">
<title>Node1</title>
<g id="a_Node000001"><a xlink:title=" ">
<polygon fill="#999999" stroke="#666666" points="226.5,-893503.02 53,-893503.02 53,-893484.52 226.5,-893484.52 226.5,-893503.02"/>
<text text-anchor="middle" x="139.75" y="-893489.52" font-family="Helvetica,sans-Serif" font-size="10.00">include/sqsh_common.h</text>
</a>
</g>
</g>
<!-- Node2 -->
<g id="Node000002" class="node">
<title>Node2</title>
<g id="a_Node000002"><a xlink:title=" ">
<polygon fill="#e0e0e0" stroke="#999999" points="83.5,-446733.51 0,-446733.51 0,-446715.01 83.5,-446715.01 83.5,-446733.51"/>
<text text-anchor="middle" x="41.75" y="-446720.01" font-family="Helvetica,sans-Serif" font-size="10.00">stdbool.h</text>
</a>
</g>
</g>
<!-- Node1&#45;&gt;Node2 -->
<g id="edge1_Node000001_Node000002" class="edge">
<title>Node1&#45;&gt;Node2</title>
<g id="a_edge1_Node000001_Node000002"><a xlink:title=" ">
<path fill="none" stroke="#63b8ff" d="M125.68,-893484.23C114.41,-893476.5 99.42,-893463.96 92.75,-893448.52 -60.46,-893093.91 40.96,-450148.44 41.75,-446744.98"/>
<polygon fill="#63b8ff" stroke="#63b8ff" points="45.25,-446745.15 41.75,-446735.15 38.25,-446745.15 45.25,-446745.15"/>
</a>
</g>
</g>
<!-- Node3 -->
<g id="Node000003" class="node">
<title>Node3</title>
<g id="a_Node000003"><a xlink:title=" ">
<polygon fill="#e0e0e0" stroke="#999999" points="177.75,-893448.52 101.75,-893448.52 101.75,0 177.75,0 177.75,-893448.52"/>
<text text-anchor="middle" x="139.75" y="-893435.02" font-family="Helvetica,sans-Serif" font-size="10.00">stddef.h</text>
</a>
</g>
</g>
<!-- Node1&#45;&gt;Node3 -->
<g id="edge2_Node000001_Node000003" class="edge">
<title>Node1&#45;&gt;Node3</title>
<g id="a_edge2_Node000001_Node000003"><a xlink:title=" ">
<path fill="none" stroke="#63b8ff" d="M139.75,-893484.39C139.75,-893479 139.75,-893471 139.75,-893460.4"/>
<polygon fill="#63b8ff" stroke="#63b8ff" points="143.25,-893460.46 139.75,-893450.46 136.25,-893460.46 143.25,-893460.46"/>
</a>
</g>
</g>
<!-- Node4 -->
<g id="Node000004" class="node">
<title>Node4</title>
<g id="a_Node000004"><a xlink:title=" ">
<polygon fill="#e0e0e0" stroke="#999999" points="271.75,-446733.51 195.75,-446733.51 195.75,-446715.01 271.75,-446715.01 271.75,-446733.51"/>
<text text-anchor="middle" x="233.75" y="-446720.01" font-family="Helvetica,sans-Serif" font-size="10.00">stdint.h</text>
</a>
</g>
</g>
<!-- Node1&#45;&gt;Node4 -->
<g id="edge3_Node000001_Node000004" class="edge">
<title>Node1&#45;&gt;Node4</title>
<g id="a_edge3_Node000001_Node000004"><a xlink:title=" ">
<path fill="none" stroke="#63b8ff" d="M153.82,-893484.23C165.09,-893476.5 180.08,-893463.96 186.75,-893448.52 339.95,-893093.91 234.57,-450148.44 233.75,-446744.98"/>
<polygon fill="#63b8ff" stroke="#63b8ff" points="237.25,-446745.15 233.75,-446735.15 230.25,-446745.15 237.25,-446745.15"/>
</a>
</g>
</g>
</g>
</svg>
