<?xml version="1.0" encoding="UTF-8" standalone="no"?>
<!DOCTYPE svg PUBLIC "-//W3C//DTD SVG 1.1//EN"
 "http://www.w3.org/Graphics/SVG/1.1/DTD/svg11.dtd">
<!-- Generated by graphviz version 9.0.0 (20230911.1827)
 -->
<!-- Title: include/sqsh.h Pages: 1 -->
<svg width="1080pt" height="3634994pt"
 viewBox="0.00 0.00 1080.48 3634994.22" xmlns="http://www.w3.org/2000/svg" xmlns:xlink="http://www.w3.org/1999/xlink">
<g id="graph0" class="graph" transform="scale(1 1) rotate(0) translate(4 3634990.22)">
<title>include/sqsh.h</title>
<!-- Node1 -->
<g id="Node000001" class="node">
<title>Node1</title>
<g id="a_Node000001"><a xlink:title=" ">
<polygon fill="#999999" stroke="#666666" points="756.23,-3634986.22 635.23,-3634986.22 635.23,-3634967.72 756.23,-3634967.72 756.23,-3634986.22"/>
<text text-anchor="middle" x="695.73" y="-3634972.72" font-family="Helvetica,sans-Serif" font-size="10.00">include/sqsh.h</text>
</a>
</g>
</g>
<!-- Node2 -->
<g id="Node000002" class="node">
<title>Node2</title>
<g id="a_Node000002"><a xlink:href="sqsh__archive_8h.html" target="_top" xlink:title=" ">
<polygon fill="white" stroke="#666666" points="275.23,-3634931.72 154.23,-3634931.72 154.23,-2806029.44 275.23,-2806029.44 275.23,-3634931.72"/>
<text text-anchor="middle" x="214.73" y="-3634918.22" font-family="Helvetica,sans-Serif" font-size="10.00">sqsh_archive.h</text>
</a>
</g>
</g>
<!-- Node1&#45;&gt;Node2 -->
<g id="edge1_Node000001_Node000002" class="edge">
<title>Node1&#45;&gt;Node2</title>
<g id="a_edge1_Node000001_Node000002"><a xlink:title=" ">
<path fill="none" stroke="#63b8ff" d="M634.98,-3634973.82C526.28,-3634969.36 307.69,-3634957.28 284.73,-3634931.72 281.75,-3634928.4 278.83,-3634861.49 275.98,-3634732.56"/>
<polygon fill="#63b8ff" stroke="#63b8ff" points="279.48,-3634732.57 275.76,-3634722.64 272.48,-3634732.72 279.48,-3634732.57"/>
</a>
</g>
</g>
<!-- Node3 -->
<g id="Node000003" class="node">
<title>Node3</title>
<g id="a_Node000003"><a xlink:href="sqsh__common_8h.html" target="_top" xlink:title=" ">
<polygon fill="white" stroke="#666666" points="711.48,-1657387.28 597.98,-1657387.28 597.98,-828729.62 711.48,-828729.62 711.48,-1657387.28"/>
<text text-anchor="middle" x="654.73" y="-1657373.78" font-family="Helvetica,sans-Serif" font-size="10.00">sqsh_common.h</text>
</a>
</g>
</g>
<!-- Node1&#45;&gt;Node3 -->
<g id="edge8_Node000001_Node000003" class="edge">
<title>Node1&#45;&gt;Node3</title>
<g id="a_edge8_Node000001_Node000003"><a xlink:title=" ">
<path fill="none" stroke="#63b8ff" d="M699.33,-3634967.34C702.78,-3634958.56 707.76,-3634944.46 709.73,-3634931.72 709.73,-3634931.72 754.73,-2806029.44 754.73,-2806029.44 755.39,-2806013.39 757.06,-2806009.48 757.73,-2805993.44 799.16,-2804997.27 757.85,-1658420.3 757.73,-1657423.28 748.64,-1584280.51 730.52,-1503875.28 711.98,-1433514"/>
<polygon fill="#63b8ff" stroke="#63b8ff" points="715.48,-1433514.24 711.98,-1433504.24 708.48,-1433514.24 715.48,-1433514.24"/>
</a>
</g>
</g>
<!-- Node8 -->
<g id="Node000008" class="node">
<title>Node8</title>
<g id="a_Node000008"><a xlink:href="sqsh__directory_8h.html" target="_top" xlink:title=" ">
<polygon fill="white" stroke="#666666" points="1053.73,-3220489.83 917.73,-3220489.83 917.73,-3220471.33 1053.73,-3220471.33 1053.73,-3220489.83"/>
<text text-anchor="middle" x="985.73" y="-3220476.33" font-family="Helvetica,sans-Serif" font-size="10.00">sqsh_directory.h</text>
</a>
</g>
</g>
<!-- Node1&#45;&gt;Node8 -->
<g id="edge9_Node000001_Node000008" class="edge">
<title>Node1&#45;&gt;Node8</title>
<g id="a_edge9_Node000001_Node000008"><a xlink:title=" ">
<path fill="none" stroke="#63b8ff" d="M756.54,-3634971.36C811.15,-3634965.82 885.46,-3634954.27 903.73,-3634931.72 1129.23,-3634653.25 986.87,-3223783.53 985.73,-3220501.35"/>
<polygon fill="#63b8ff" stroke="#63b8ff" points="989.23,-3220501.63 985.73,-3220491.63 982.23,-3220501.63 989.23,-3220501.63"/>
</a>
</g>
</g>
<!-- Node9 -->
<g id="Node000009" class="node">
<title>Node9</title>
<g id="a_Node000009"><a xlink:href="sqsh__file_8h.html" target="_top" xlink:title=" ">
<polygon fill="white" stroke="#666666" points="940.98,-2231717.61 842.48,-2231717.61 842.48,-2231699.11 940.98,-2231699.11 940.98,-2231717.61"/>
<text text-anchor="middle" x="891.73" y="-2231704.11" font-family="Helvetica,sans-Serif" font-size="10.00">sqsh_file.h</text>
</a>
</g>
</g>
<!-- Node1&#45;&gt;Node9 -->
<g id="edge19_Node000001_Node000009" class="edge">
<title>Node1&#45;&gt;Node9</title>
<g id="a_edge19_Node000001_Node000009"><a xlink:title=" ">
<path fill="none" stroke="#63b8ff" d="M756.65,-3634968.55C801.35,-3634961.7 856.62,-3634949.83 870.73,-3634931.72 870.73,-3634931.72 891.64,-2237823.36 891.73,-2231729.35"/>
<polygon fill="#63b8ff" stroke="#63b8ff" points="895.23,-2231729.52 891.73,-2231719.52 888.23,-2231729.52 895.23,-2231729.52"/>
</a>
</g>
</g>
<!-- Node10 -->
<g id="Node000010" class="node">
<title>Node10</title>
<g id="a_Node000010"><a xlink:href="sqsh__easy_8h.html" target="_top" xlink:title=" ">
<polygon fill="white" stroke="#666666" points="539.98,-3220501.77 441.48,-3220501.77 441.48,-3220459.38 539.98,-3220459.38 539.98,-3220501.77"/>
<text text-anchor="middle" x="490.73" y="-3220488.27" font-family="Helvetica,sans-Serif" font-size="10.00">sqsh_easy.h</text>
</a>
</g>
</g>
<!-- Node1&#45;&gt;Node10 -->
<g id="edge12_Node000001_Node000010" class="edge">
<title>Node1&#45;&gt;Node10</title>
<g id="a_edge12_Node000001_Node000010"><a xlink:title=" ">
<path fill="none" stroke="#63b8ff" d="M635.04,-3634973.32C605.18,-3634968.57 571.62,-3634957.34 552.73,-3634931.72 340.28,-3634643.64 489.2,-3224663.79 490.72,-3220513.3"/>
<polygon fill="#63b8ff" stroke="#63b8ff" points="494.22,-3220513.5 490.72,-3220503.5 487.22,-3220513.5 494.22,-3220513.5"/>
</a>
</g>
</g>
<!-- Node14 -->
<g id="Node000014" class="node">
<title>Node14</title>
<g id="a_Node000014"><a xlink:href="sqsh__error_8h.html" target="_top" xlink:title=" ">
<polygon fill="white" stroke="#666666" points="135.73,-3220489.83 29.73,-3220489.83 29.73,-3220471.33 135.73,-3220471.33 135.73,-3220489.83"/>
<text text-anchor="middle" x="82.73" y="-3220476.33" font-family="Helvetica,sans-Serif" font-size="10.00">sqsh_error.h</text>
</a>
</g>
</g>
<!-- Node1&#45;&gt;Node14 -->
<g id="edge17_Node000001_Node000014" class="edge">
<title>Node1&#45;&gt;Node14</title>
<g id="a_edge17_Node000001_Node000014"><a xlink:title=" ">
<path fill="none" stroke="#63b8ff" d="M634.74,-3634975.61C498.42,-3634974.19 178.35,-3634967.07 145.73,-3634931.72 -97.3,-3634668.39 81.29,-3223783.65 82.72,-3220501.35"/>
<polygon fill="#63b8ff" stroke="#63b8ff" points="86.22,-3220501.63 82.72,-3220491.63 79.22,-3220501.63 86.22,-3220501.63"/>
</a>
</g>
</g>
<!-- Node15 -->
<g id="Node000015" class="node">
<title>Node15</title>
<g id="a_Node000015"><a xlink:href="sqsh__mapper_8h.html" target="_top" xlink:title=" ">
<polygon fill="white" stroke="#666666" points="1072.48,-2231729.56 958.98,-2231729.56 958.98,-2231687.16 1072.48,-2231687.16 1072.48,-2231729.56"/>
<text text-anchor="middle" x="1015.73" y="-2231716.06" font-family="Helvetica,sans-Serif" font-size="10.00">sqsh_mapper.h</text>
</a>
</g>
</g>
<!-- Node1&#45;&gt;Node15 -->
<g id="edge20_Node000001_Node000015" class="edge">
<title>Node1&#45;&gt;Node15</title>
<g id="a_edge20_Node000001_Node000015"><a xlink:title=" ">
<path fill="none" stroke="#63b8ff" d="M756.6,-3634972.97C855.67,-3634967.46 1042.8,-3634954.2 1062.73,-3634931.72 1062.73,-3634931.72 1062.73,-2806029.44 1062.73,-2806029.44 1052.34,-2552254.74 1016.15,-2235403.9 1015.73,-2231741.41"/>
<polygon fill="#63b8ff" stroke="#63b8ff" points="1019.23,-2231741.43 1015.73,-2231731.43 1012.23,-2231741.43 1019.23,-2231741.43"/>
</a>
</g>
</g>
<!-- Node16 -->
<g id="Node000016" class="node">
<title>Node16</title>
<g id="a_Node000016"><a xlink:href="sqsh__posix_8h.html" target="_top" xlink:title=" ">
<polygon fill="white" stroke="#666666" points="667.73,-3220489.83 561.73,-3220489.83 561.73,-3220471.33 667.73,-3220471.33 667.73,-3220489.83"/>
<text text-anchor="middle" x="614.73" y="-3220476.33" font-family="Helvetica,sans-Serif" font-size="10.00">sqsh_posix.h</text>
</a>
</g>
</g>
<!-- Node1&#45;&gt;Node16 -->
<g id="edge23_Node000001_Node000016" class="edge">
<title>Node1&#45;&gt;Node16</title>
<g id="a_edge23_Node000001_Node000016"><a xlink:title=" ">
<path fill="none" stroke="#63b8ff" d="M692.13,-3634967.34C688.67,-3634958.56 683.7,-3634944.46 681.73,-3634931.72 462.88,-3633515.25 613.5,-3223799.48 614.72,-3220501.59"/>
<polygon fill="#63b8ff" stroke="#63b8ff" points="618.22,-3220501.61 614.72,-3220491.61 611.22,-3220501.61 618.22,-3220501.61"/>
</a>
</g>
</g>
<!-- Node17 -->
<g id="Node000017" class="node">
<title>Node17</title>
<g id="a_Node000017"><a xlink:href="sqsh__table_8h.html" target="_top" xlink:title=" ">
<polygon fill="white" stroke="#666666" points="748.73,-2231717.61 642.73,-2231717.61 642.73,-2231699.11 748.73,-2231699.11 748.73,-2231717.61"/>
<text text-anchor="middle" x="695.73" y="-2231704.11" font-family="Helvetica,sans-Serif" font-size="10.00">sqsh_table.h</text>
</a>
</g>
</g>
<!-- Node1&#45;&gt;Node17 -->
<g id="edge26_Node000001_Node000017" class="edge">
<title>Node1&#45;&gt;Node17</title>
<g id="a_edge26_Node000001_Node000017"><a xlink:title=" ">
<path fill="none" stroke="#63b8ff" d="M695.73,-3634967.31C695.73,-3630962.12 695.73,-2237806.04 695.73,-2231729.3"/>
<polygon fill="#63b8ff" stroke="#63b8ff" points="699.23,-2231729.5 695.73,-2231719.5 692.23,-2231729.5 699.23,-2231729.5"/>
</a>
</g>
</g>
<!-- Node18 -->
<g id="Node000018" class="node">
<title>Node18</title>
<g id="a_Node000018"><a xlink:href="sqsh__tree_8h.html" target="_top" xlink:title=" ">
<polygon fill="white" stroke="#666666" points="861.98,-3220489.83 763.48,-3220489.83 763.48,-3220471.33 861.98,-3220471.33 861.98,-3220489.83"/>
<text text-anchor="middle" x="812.73" y="-3220476.33" font-family="Helvetica,sans-Serif" font-size="10.00">sqsh_tree.h</text>
</a>
</g>
</g>
<!-- Node1&#45;&gt;Node18 -->
<g id="edge28_Node000001_Node000018" class="edge">
<title>Node1&#45;&gt;Node18</title>
<g id="a_edge28_Node000001_Node000018"><a xlink:title=" ">
<path fill="none" stroke="#63b8ff" d="M712.87,-3634967.34C725.66,-3634959.85 742.15,-3634947.71 749.73,-3634931.72 903.08,-3634607.86 813.45,-3223783.17 812.73,-3220501.34"/>
<polygon fill="#63b8ff" stroke="#63b8ff" points="816.23,-3220501.63 812.73,-3220491.63 809.23,-3220501.63 816.23,-3220501.63"/>
</a>
</g>
</g>
<!-- Node19 -->
<g id="Node000019" class="node">
<title>Node19</title>
<g id="a_Node000019"><a xlink:href="sqsh__xattr_8h.html" target="_top" xlink:title=" ">
<polygon fill="white" stroke="#666666" points="399.73,-3220493.58 293.73,-3220493.58 293.73,-3220467.58 399.73,-3220467.58 399.73,-3220493.58"/>
<text text-anchor="middle" x="346.73" y="-3220480.08" font-family="Helvetica,sans-Serif" font-size="10.00">sqsh_xattr.h</text>
</a>
</g>
</g>
<!-- Node1&#45;&gt;Node19 -->
<g id="edge31_Node000001_Node000019" class="edge">
<title>Node1&#45;&gt;Node19</title>
<g id="a_edge31_Node000001_Node000019"><a xlink:title=" ">
<path fill="none" stroke="#63b8ff" d="M634.93,-3634974.5C565.47,-3634971.39 458.11,-3634961.72 432.73,-3634931.72 201.39,-3634658.26 345.45,-3224110.6 346.72,-3220505.46"/>
<polygon fill="#63b8ff" stroke="#63b8ff" points="350.22,-3220505.58 346.72,-3220495.58 343.22,-3220505.58 350.22,-3220505.58"/>
</a>
</g>
</g>
<!-- Node2&#45;&gt;Node3 -->
<g id="edge2_Node000002_Node000003" class="edge">
<title>Node2&#45;&gt;Node3</title>
<g id="a_edge2_Node000002_Node000003"><a xlink:title=" ">
<path fill="none" stroke="#63b8ff" d="M153.73,-2830063.68C153,-2821969.38 152.33,-2813938.57 151.73,-2805993.44 142.03,-2678374.53 74.27,-1785042.16 151.73,-1657423.28 236.95,-1517020.79 484.59,-1349858.18 597.46,-1278345.18"/>
<polygon fill="#63b8ff" stroke="#63b8ff" points="600.96,-1278345.24 597.47,-1278335.23 593.96,-1278345.23 600.96,-1278345.24"/>
</a>
</g>
</g>
<!-- Node7 -->
<g id="Node000007" class="node">
<title>Node7</title>
<g id="a_Node000007"><a xlink:href="sqsh__data_8h.html" target="_top" xlink:title=" ">
<polygon fill="white" stroke="#666666" points="258.98,-2231717.61 160.48,-2231717.61 160.48,-2231699.11 258.98,-2231699.11 258.98,-2231717.61"/>
<text text-anchor="middle" x="209.73" y="-2231704.11" font-family="Helvetica,sans-Serif" font-size="10.00">sqsh_data.h</text>
</a>
</g>
</g>
<!-- Node2&#45;&gt;Node7 -->
<g id="edge6_Node000002_Node000007" class="edge">
<title>Node2&#45;&gt;Node7</title>
<g id="a_edge6_Node000002_Node000007"><a xlink:title=" ">
<path fill="none" stroke="#63b8ff" d="M212.63,-2806029.19C211.27,-2536557.93 209.74,-2234540.65 209.73,-2231729.14"/>
<polygon fill="#63b8ff" stroke="#63b8ff" points="213.23,-2231729.34 209.73,-2231719.34 206.23,-2231729.34 213.23,-2231729.34"/>
</a>
</g>
</g>
<!-- Node4 -->
<g id="Node000004" class="node">
<title>Node4</title>
<g id="a_Node000004"><a xlink:title=" ">
<polygon fill="#e0e0e0" stroke="#999999" points="745.48,-414356.06 661.98,-414356.06 661.98,-414337.56 745.48,-414337.56 745.48,-414356.06"/>
<text text-anchor="middle" x="703.73" y="-414342.56" font-family="Helvetica,sans-Serif" font-size="10.00">stdbool.h</text>
</a>
</g>
</g>
<!-- Node3&#45;&gt;Node4 -->
<g id="edge3_Node000003_Node000004" class="edge">
<title>Node3&#45;&gt;Node4</title>
<g id="a_edge3_Node000003_Node000004"><a xlink:title=" ">
<path fill="none" stroke="#63b8ff" d="M679.23,-828729.3C691.41,-622717.54 703.59,-416696.99 703.73,-414367.75"/>
<polygon fill="#63b8ff" stroke="#63b8ff" points="707.23,-414367.93 703.73,-414357.93 700.23,-414367.93 707.23,-414367.93"/>
</a>
</g>
</g>
<!-- Node5 -->
<g id="Node000005" class="node">
<title>Node5</title>
<g id="a_Node000005"><a xlink:title=" ">
<polygon fill="#e0e0e0" stroke="#999999" points="966.73,-828693.62 890.73,-828693.62 890.73,0 966.73,0 966.73,-828693.62"/>
<text text-anchor="middle" x="928.73" y="-828680.12" font-family="Helvetica,sans-Serif" font-size="10.00">stddef.h</text>
</a>
</g>
</g>
<!-- Node3&#45;&gt;Node5 -->
<g id="edge4_Node000003_Node000005" class="edge">
<title>Node3&#45;&gt;Node5</title>
<g id="a_edge4_Node000003_Node000005"><a xlink:title=" ">
<path fill="none" stroke="#63b8ff" d="M711.98,-1069905.83C765.46,-908137.19 843.83,-671117.61 890.22,-530801.55"/>
<polygon fill="#63b8ff" stroke="#63b8ff" points="893.72,-530801.83 890.23,-530791.83 886.72,-530801.83 893.72,-530801.83"/>
</a>
</g>
</g>
<!-- Node6 -->
<g id="Node000006" class="node">
<title>Node6</title>
<g id="a_Node000006"><a xlink:title=" ">
<polygon fill="#e0e0e0" stroke="#999999" points="643.73,-414359.81 567.73,-414359.81 567.73,-414333.81 643.73,-414333.81 643.73,-414359.81"/>
<text text-anchor="middle" x="605.73" y="-414346.31" font-family="Helvetica,sans-Serif" font-size="10.00">stdint.h</text>
</a>
</g>
</g>
<!-- Node3&#45;&gt;Node6 -->
<g id="edge5_Node000003_Node000006" class="edge">
<title>Node3&#45;&gt;Node6</title>
<g id="a_edge5_Node000003_Node000006"><a xlink:title=" ">
<path fill="none" stroke="#63b8ff" d="M630.23,-828729.3C618.05,-622818.63 605.88,-416899.18 605.73,-414371.32"/>
<polygon fill="#63b8ff" stroke="#63b8ff" points="609.23,-414371.64 605.73,-414361.64 602.23,-414371.64 609.23,-414371.64"/>
</a>
</g>
</g>
<!-- Node7&#45;&gt;Node3 -->
<g id="edge7_Node000007_Node000003" class="edge">
<title>Node7&#45;&gt;Node3</title>
<g id="a_edge7_Node000007_Node000003"><a xlink:title=" ">
<path fill="none" stroke="#63b8ff" d="M209.73,-2231698.81C209.32,-2229799.57 141.47,-1911897.27 272.73,-1657423.28 341.05,-1524963.3 508.71,-1368685.13 597.46,-1291377.63"/>
<polygon fill="#63b8ff" stroke="#63b8ff" points="600.96,-1291377.64 597.48,-1291367.64 593.96,-1291377.63 600.96,-1291377.64"/>
</a>
</g>
</g>
<!-- Node8&#45;&gt;Node9 -->
<g id="edge10_Node000008_Node000009" class="edge">
<title>Node8&#45;&gt;Node9</title>
<g id="a_edge10_Node000008_Node000009"><a xlink:title=" ">
<path fill="none" stroke="#63b8ff" d="M985.73,-3220470.92C985.41,-3217111.61 892.21,-2236811.99 891.73,-2231729.19"/>
<polygon fill="#63b8ff" stroke="#63b8ff" points="895.23,-2231729.5 891.73,-2231719.5 888.23,-2231729.5 895.23,-2231729.5"/>
</a>
</g>
</g>
<!-- Node9&#45;&gt;Node3 -->
<g id="edge11_Node000009_Node000003" class="edge">
<title>Node9&#45;&gt;Node3</title>
<g id="a_edge11_Node000009_Node000003"><a xlink:title=" ">
<path fill="none" stroke="#63b8ff" d="M891.73,-2231698.81C891.75,-2229799.57 896.11,-1911897.3 828.73,-1657423.28 801.8,-1555755.03 751.58,-1440055.05 711.98,-1356801.46"/>
<polygon fill="#63b8ff" stroke="#63b8ff" points="715.48,-1356801.54 711.98,-1356791.54 708.48,-1356801.55 715.48,-1356801.54"/>
</a>
</g>
</g>
<!-- Node10&#45;&gt;Node3 -->
<g id="edge13_Node000010_Node000003" class="edge">
<title>Node10&#45;&gt;Node3</title>
<g id="a_edge13_Node000010_Node000003"><a xlink:title=" ">
<path fill="none" stroke="#63b8ff" d="M490.73,-3220458.94C490.52,-3214696.81 446.99,-2003942.31 509.73,-1657423.28 526.87,-1562708.27 564.74,-1455815.19 597.47,-1374323.38"/>
<polygon fill="#63b8ff" stroke="#63b8ff" points="600.97,-1374323.71 597.48,-1374313.71 593.97,-1374323.7 600.97,-1374323.71"/>
</a>
</g>
</g>
<!-- Node11 -->
<g id="Node000011" class="node">
<title>Node11</title>
<g id="a_Node000011"><a xlink:title=" ">
<polygon fill="#e0e0e0" stroke="#999999" points="382.98,-2646039.27 314.48,-2646039.27 314.48,-1817377.45 382.98,-1817377.45 382.98,-2646039.27"/>
<text text-anchor="middle" x="348.73" y="-2646025.77" font-family="Helvetica,sans-Serif" font-size="10.00">fcntl.h</text>
</a>
</g>
</g>
<!-- Node10&#45;&gt;Node11 -->
<g id="edge14_Node000010_Node000011" class="edge">
<title>Node10&#45;&gt;Node11</title>
<g id="a_edge14_Node000010_Node000011"><a xlink:title=" ">
<path fill="none" stroke="#63b8ff" d="M490.73,-3220459.18C491.27,-3217127.72 557.56,-2806730.42 408.73,-2806029.44 405.09,-2806012.31 396.36,-2806010.56 392.73,-2805993.44 356.78,-2805824.05 340.49,-2736486.34 334.55,-2646051.09"/>
<polygon fill="#63b8ff" stroke="#63b8ff" points="338.05,-2646051.21 334.55,-2646041.21 331.05,-2646051.21 338.05,-2646051.21"/>
</a>
</g>
</g>
<!-- Node12 -->
<g id="Node000012" class="node">
<title>Node12</title>
<g id="a_Node000012"><a xlink:title=" ">
<polygon fill="#e0e0e0" stroke="#999999" points="586.98,-2805993.44 518.48,-2805993.44 518.48,-1657423.28 586.98,-1657423.28 586.98,-2805993.44"/>
<text text-anchor="middle" x="552.73" y="-2805979.94" font-family="Helvetica,sans-Serif" font-size="10.00">stdio.h</text>
</a>
</g>
</g>
<!-- Node10&#45;&gt;Node12 -->
<g id="edge15_Node000010_Node000012" class="edge">
<title>Node10&#45;&gt;Node12</title>
<g id="a_edge15_Node000010_Node000012"><a xlink:title=" ">
<path fill="none" stroke="#63b8ff" d="M490.73,-3220459.18C490.88,-3218093.76 503.9,-3010346.85 517.98,-2785910.11"/>
<polygon fill="#63b8ff" stroke="#63b8ff" points="521.48,-2785910.38 517.98,-2785900.38 514.48,-2785910.38 521.48,-2785910.38"/>
</a>
</g>
</g>
<!-- Node13 -->
<g id="Node000013" class="node">
<title>Node13</title>
<g id="a_Node000013"><a xlink:title=" ">
<polygon fill="#e0e0e0" stroke="#999999" points="462.23,-2231717.61 401.23,-2231717.61 401.23,-2231699.11 462.23,-2231699.11 462.23,-2231717.61"/>
<text text-anchor="middle" x="431.73" y="-2231704.11" font-family="Helvetica,sans-Serif" font-size="10.00">time.h</text>
</a>
</g>
</g>
<!-- Node10&#45;&gt;Node13 -->
<g id="edge16_Node000010_Node000013" class="edge">
<title>Node10&#45;&gt;Node13</title>
<g id="a_edge16_Node000010_Node000013"><a xlink:title=" ">
<path fill="none" stroke="#63b8ff" d="M490.73,-3220459.18C490.42,-3215309.69 432.03,-2236802.64 431.73,-2231729.16"/>
<polygon fill="#63b8ff" stroke="#63b8ff" points="435.23,-2231729.48 431.73,-2231719.48 428.23,-2231729.48 435.23,-2231729.48"/>
</a>
</g>
</g>
<!-- Node14&#45;&gt;Node3 -->
<g id="edge18_Node000014_Node000003" class="edge">
<title>Node14&#45;&gt;Node3</title>
<g id="a_edge18_Node000014_Node000003"><a xlink:title=" ">
<path fill="none" stroke="#63b8ff" d="M82.73,-3220471.09C82.11,-3216771.54 -120.04,-2004239.04 110.73,-1657423.28 205.31,-1515281.78 477.96,-1345713.18 597.46,-1275732.19"/>
<polygon fill="#63b8ff" stroke="#63b8ff" points="600.96,-1275732.49 597.47,-1275722.49 593.96,-1275732.48 600.96,-1275732.49"/>
</a>
</g>
</g>
<!-- Node15&#45;&gt;Node3 -->
<g id="edge21_Node000015_Node000003" class="edge">
<title>Node15&#45;&gt;Node3</title>
<g id="a_edge21_Node000015_Node000003"><a xlink:title=" ">
<path fill="none" stroke="#63b8ff" d="M1015.73,-2231686.8C1016.09,-2228748.82 1054.76,-1911476.67 949.73,-1657423.28 898.41,-1533302.76 782.27,-1388268.73 711.99,-1306892.47"/>
<polygon fill="#63b8ff" stroke="#63b8ff" points="715.49,-1306892.8 711.98,-1306882.81 708.49,-1306892.81 715.49,-1306892.8"/>
</a>
</g>
</g>
<!-- Node15&#45;&gt;Node5 -->
<g id="edge22_Node000015_Node000005" class="edge">
<title>Node15&#45;&gt;Node5</title>
<g id="a_edge22_Node000015_Node000005"><a xlink:title=" ">
<path fill="none" stroke="#63b8ff" d="M1015.73,-2231686.91C1015.49,-2226845.93 974.17,-1363552.78 948.56,-828705.58"/>
<polygon fill="#63b8ff" stroke="#63b8ff" points="952.06,-828705.61 948.56,-828695.61 945.06,-828705.61 952.06,-828705.61"/>
</a>
</g>
</g>
<!-- Node16&#45;&gt;Node3 -->
<g id="edge24_Node000016_Node000003" class="edge">
<title>Node16&#45;&gt;Node3</title>
<g id="a_edge24_Node000016_Node000003"><a xlink:title=" ">
<path fill="none" stroke="#63b8ff" d="M614.73,-3220470.85C614.72,-3217300.11 611.94,-2350842.95 633.73,-1657423.28 633.73,-1657415.22 633.73,-1657407.17 633.73,-1657399.11"/>
<polygon fill="#63b8ff" stroke="#63b8ff" points="637.23,-1657399.23 633.73,-1657389.23 630.23,-1657399.23 637.23,-1657399.23"/>
</a>
</g>
</g>
<!-- Node16&#45;&gt;Node12 -->
<g id="edge25_Node000016_Node000012" class="edge">
<title>Node16&#45;&gt;Node12</title>
<g id="a_edge25_Node000016_Node000012"><a xlink:title=" ">
<path fill="none" stroke="#63b8ff" d="M614.73,-3220470.92C614.63,-3218926.15 601.58,-3010796.57 587.48,-2785910.2"/>
<polygon fill="#63b8ff" stroke="#63b8ff" points="590.98,-2785910.45 587.48,-2785900.45 583.98,-2785910.45 590.98,-2785910.45"/>
</a>
</g>
</g>
<!-- Node17&#45;&gt;Node3 -->
<g id="edge27_Node000017_Node000003" class="edge">
<title>Node17&#45;&gt;Node3</title>
<g id="a_edge27_Node000017_Node000003"><a xlink:title=" ">
<path fill="none" stroke="#63b8ff" d="M695.73,-2231698.71C695.65,-2229835.12 683.1,-1927279.49 671.91,-1657398.73"/>
<polygon fill="#63b8ff" stroke="#63b8ff" points="675.41,-1657399.05 671.91,-1657389.05 668.41,-1657399.05 675.41,-1657399.05"/>
</a>
</g>
</g>
<!-- Node18&#45;&gt;Node3 -->
<g id="edge29_Node000018_Node000003" class="edge">
<title>Node18&#45;&gt;Node3</title>
<g id="a_edge29_Node000018_Node000003"><a xlink:title=" ">
<path fill="none" stroke="#63b8ff" d="M812.73,-3220471.09C812.84,-3216771.54 850.08,-2004239.11 790.73,-1657423.28 775.16,-1566436.9 741.77,-1464212.41 711.98,-1384063.42"/>
<polygon fill="#63b8ff" stroke="#63b8ff" points="715.48,-1384063.47 711.98,-1384053.47 708.48,-1384063.47 715.48,-1384063.47"/>
</a>
</g>
</g>
<!-- Node18&#45;&gt;Node9 -->
<g id="edge30_Node000018_Node000009" class="edge">
<title>Node18&#45;&gt;Node9</title>
<g id="a_edge30_Node000018_Node000009"><a xlink:title=" ">
<path fill="none" stroke="#63b8ff" d="M812.73,-3220470.92C813,-3217111.61 891.32,-2236811.99 891.73,-2231729.19"/>
<polygon fill="#63b8ff" stroke="#63b8ff" points="895.23,-2231729.5 891.73,-2231719.5 888.23,-2231729.5 895.23,-2231729.5"/>
</a>
</g>
</g>
<!-- Node19&#45;&gt;Node3 -->
<g id="edge32_Node000019_Node000003" class="edge">
<title>Node19&#45;&gt;Node3</title>
<g id="a_edge32_Node000019_Node000003"><a xlink:title=" ">
<path fill="none" stroke="#63b8ff" d="M346.73,-3220467.34C346.46,-3218540.86 314.8,-2989433.69 305.73,-2805993.44 299.42,-2678374.53 251.98,-1785042.18 305.73,-1657423.28 360.76,-1526733.5 513.44,-1372857.88 597.47,-1294519.1"/>
<polygon fill="#63b8ff" stroke="#63b8ff" points="600.96,-1294519.41 597.48,-1294509.41 593.96,-1294519.4 600.96,-1294519.41"/>
</a>
</g>
</g>
<!-- Node19&#45;&gt;Node7 -->
<g id="edge33_Node000019_Node000007" class="edge">
<title>Node19&#45;&gt;Node7</title>
<g id="a_edge33_Node000019_Node000007"><a xlink:title=" ">
<path fill="none" stroke="#63b8ff" d="M346.73,-3220467.12C347.79,-3217861.95 514.61,-2807445.39 284.73,-2806029.44 282.02,-2806012.79 275.43,-2806010.08 272.73,-2805993.44 113.51,-2805012.63 209.08,-2235583.85 209.72,-2231729.02"/>
<polygon fill="#63b8ff" stroke="#63b8ff" points="213.22,-2231729.16 209.73,-2231719.16 206.22,-2231729.16 213.22,-2231729.16"/>
</a>
</g>
</g>
</g>
</svg>
