<?xml version="1.0" encoding="UTF-8" standalone="no"?>
<!DOCTYPE svg PUBLIC "-//W3C//DTD SVG 1.1//EN"
 "http://www.w3.org/Graphics/SVG/1.1/DTD/svg11.dtd">
<!-- Generated by graphviz version 9.0.0 (20230911.1827)
 -->
<!-- Title: include/sqsh_easy.h Pages: 1 -->
<!--zoomable 1218894 -->

<svg id="main" version="1.1" xmlns="http://www.w3.org/2000/svg" xmlns:xlink="http://www.w3.org/1999/xlink" xml:space="preserve" onload="init(evt)">
<style type="text/css"><![CDATA[
.node, .edge {opacity: 0.7;}
.node.selected, .edge.selected {opacity: 1;}
.edge:hover path { stroke: red; }
.edge:hover polygon { stroke: red; fill: red; }
]]></style>

<defs>
  <circle id="rim" cx="0" cy="0" r="7"/>
  <circle id="rim2" cx="0" cy="0" r="3.5"/>
  <g id="zoomPlus">
    <use xlink:href="#rim" fill="#404040"><set attributeName="fill" to="#808080" begin="zoomplus.mouseover" end="zoomplus.mouseout"/></use>
    <path d="M-4,0h8M0,-4v8" fill="none" stroke="white" stroke-width="1.5" pointer-events="none"/>
  </g>
  <g id="zoomMin">
    <use xlink:href="#rim" fill="#404040"><set attributeName="fill" to="#808080" begin="zoomminus.mouseover" end="zoomminus.mouseout"/></use>
    <path d="M-4,0h8" fill="none" stroke="white" stroke-width="1.5" pointer-events="none"/>
  </g>
  <g id="arrowUp" transform="translate(30 24)">
    <use xlink:href="#rim"/>
    <path pointer-events="none" fill="none" stroke="white" stroke-width="1.5" d="M0,-3.0v7 M-2.5,-0.5L0,-3.0L2.5,-0.5"/>
  </g>
  <g id="arrowRight" transform="rotate(90) translate(36 -43)">
    <use xlink:href="#rim"/>
    <path pointer-events="none" fill="none" stroke="white" stroke-width="1.5" d="M0,-3.0v7 M-2.5,-0.5L0,-3.0L2.5,-0.5"/>
  </g>
  <g id="arrowDown" transform="rotate(180) translate(-30 -48)">
    <use xlink:href="#rim"/>
    <path pointer-events="none" fill="none" stroke="white" stroke-width="1.5" d="M0,-3.0v7 M-2.5,-0.5L0,-3.0L2.5,-0.5"/>
  </g>
  <g id="arrowLeft" transform="rotate(270) translate(-36 17)">
    <use xlink:href="#rim"/>
    <path pointer-events="none" fill="none" stroke="white" stroke-width="1.5" d="M0,-3.0v7 M-2.5,-0.5L0,-3.0L2.5,-0.5"/>
  </g>
  <g id="resetDef">
    <use xlink:href="#rim2" fill="#404040"><set attributeName="fill" to="#808080" begin="reset.mouseover" end="reset.mouseout"/></use>
  </g>
</defs>
<script type="application/ecmascript">
var viewWidth = 2048;
var viewHeight = 1218894;
var sectionId = 'dynsection-1';
</script>
<script type="application/ecmascript" xlink:href="svg.min.js"/>
<svg id="graph" class="graph">
<g id="viewport">
<title>include/sqsh_easy.h</title>
<!-- Node1 -->
<g id="Node000001" class="node">
<title>Node1</title>
<g id="a_Node000001"><a xlink:title=" ">
<polygon fill="#999999" stroke="#666666" points="1070.25,-1218885.79 911.75,-1218885.79 911.75,-1218867.29 1070.25,-1218867.29 1070.25,-1218885.79"/>
<text text-anchor="middle" x="991" y="-1218872.29" font-family="Helvetica,sans-Serif" font-size="10.00">include/sqsh_easy.h</text>
</a>
</g>
</g>
<!-- Node2 -->
<g id="Node000002" class="node">
<title>Node2</title>
<g id="a_Node000002"><a xlink:href="sqsh_8h.html" target="_top" xlink:title=" ">
<polygon fill="white" stroke="#666666" points="1051.5,-1218831.29 930.5,-1218831.29 930.5,-1218812.79 1051.5,-1218812.79 1051.5,-1218831.29"/>
<text text-anchor="middle" x="991" y="-1218817.79" font-family="Helvetica,sans-Serif" font-size="10.00">include/sqsh.h</text>
</a>
</g>
</g>
<!-- Node1&#45;&gt;Node2 -->
<g id="edge1_Node000001_Node000002" class="edge">
<title>Node1&#45;&gt;Node2</title>
<g id="a_edge1_Node000001_Node000002"><a xlink:title=" ">
<path fill="none" stroke="#63b8ff" d="M991,-1218855.42C991,-1218847.14 991,-1218838 991,-1218831.54"/>
<polygon fill="#63b8ff" stroke="#63b8ff" points="987.5,-1218855.35 991,-1218865.35 994.5,-1218855.35 987.5,-1218855.35"/>
</a>
</g>
</g>
<!-- Node3 -->
<g id="Node000003" class="node">
<title>Node3</title>
<g id="a_Node000003"><a xlink:href="custom__mapper_8c.html" target="_top" xlink:title=" ">
<polygon fill="white" stroke="#666666" points="196,-1218690.73 0,-1218690.73 0,-86.05 196,-86.05 196,-1218690.73"/>
<text text-anchor="middle" x="98" y="-1218677.23" font-family="Helvetica,sans-Serif" font-size="10.00">examples/custom_mapper.c</text>
</a>
</g>
</g>
<!-- Node2&#45;&gt;Node3 -->
<g id="edge2_Node000002_Node000003" class="edge">
<title>Node2&#45;&gt;Node3</title>
<g id="a_edge2_Node000002_Node000003"><a xlink:title=" ">
<path fill="none" stroke="#63b8ff" d="M918.75,-1218819.63C728.99,-1218815.57 229.31,-1218802.5 205,-1218776.79 202.13,-1218773.75 199.29,-1218732.69 196.5,-1218654.2"/>
<polygon fill="#63b8ff" stroke="#63b8ff" points="918.67,-1218823.13 928.74,-1218819.84 918.82,-1218816.13 918.67,-1218823.13"/>
</a>
</g>
</g>
<!-- Node4 -->
<g id="Node000004" class="node">
<title>Node4</title>
<g id="a_Node000004"><a xlink:href="list__dir_8c.html" target="_top" xlink:title=" ">
<polygon fill="white" stroke="#666666" points="372.25,-609397.64 213.75,-609397.64 213.75,-609379.14 372.25,-609379.14 372.25,-609397.64"/>
<text text-anchor="middle" x="293" y="-609384.14" font-family="Helvetica,sans-Serif" font-size="10.00">examples/list_dir.c</text>
</a>
</g>
</g>
<!-- Node2&#45;&gt;Node4 -->
<g id="edge3_Node000002_Node000004" class="edge">
<title>Node2&#45;&gt;Node4</title>
<g id="a_edge3_Node000002_Node000004"><a xlink:title=" ">
<path fill="none" stroke="#63b8ff" d="M918.86,-1218821.18C765.26,-1218820.74 416.96,-1218815.44 381,-1218776.79 381,-1218776.79 293.38,-611990.2 293,-609397.72"/>
<polygon fill="#63b8ff" stroke="#63b8ff" points="918.49,-1218824.68 928.5,-1218821.2 918.51,-1218817.68 918.49,-1218824.68"/>
</a>
</g>
</g>
<!-- Node5 -->
<g id="Node000005" class="node">
<title>Node5</title>
<g id="a_Node000005"><a xlink:href="list__dir__ll_8c.html" target="_top" xlink:title=" ">
<polygon fill="white" stroke="#666666" points="571.5,-609397.64 390.5,-609397.64 390.5,-609379.14 571.5,-609379.14 571.5,-609397.64"/>
<text text-anchor="middle" x="481" y="-609384.14" font-family="Helvetica,sans-Serif" font-size="10.00">examples/list_dir_ll.c</text>
</a>
</g>
</g>
<!-- Node2&#45;&gt;Node5 -->
<g id="edge4_Node000002_Node000005" class="edge">
<title>Node2&#45;&gt;Node5</title>
<g id="a_edge4_Node000002_Node000005"><a xlink:title=" ">
<path fill="none" stroke="#63b8ff" d="M919.07,-1218818.42C807.25,-1218813.61 602.2,-1218801.5 580,-1218776.79 227.26,-1218384.1 479.92,-611988.52 481,-609397.72"/>
<polygon fill="#63b8ff" stroke="#63b8ff" points="918.6,-1218821.9 928.74,-1218818.83 918.89,-1218814.91 918.6,-1218821.9"/>
</a>
</g>
</g>
<!-- Node6 -->
<g id="Node000006" class="node">
<title>Node6</title>
<g id="a_Node000006"><a xlink:href="list__xattrs_8c.html" target="_top" xlink:title=" ">
<polygon fill="white" stroke="#666666" points="770.5,-609409.64 589.5,-609409.64 589.5,-609367.15 770.5,-609367.15 770.5,-609409.64"/>
<text text-anchor="middle" x="680" y="-609396.14" font-family="Helvetica,sans-Serif" font-size="10.00">examples/list_xattrs.c</text>
</a>
</g>
</g>
<!-- Node2&#45;&gt;Node6 -->
<g id="edge5_Node000002_Node000006" class="edge">
<title>Node2&#45;&gt;Node6</title>
<g id="a_edge5_Node000002_Node000006"><a xlink:title=" ">
<path fill="none" stroke="#63b8ff" d="M918.73,-1218815.55C864.43,-1218809.75 796.52,-1218798.34 779,-1218776.79 446.43,-1218367.7 678.43,-613471.12 679.99,-609409.93"/>
<polygon fill="#63b8ff" stroke="#63b8ff" points="918.28,-1218819.02 928.58,-1218816.55 918.98,-1218812.06 918.28,-1218819.02"/>
</a>
</g>
</g>
<!-- Node7 -->
<g id="Node000007" class="node">
<title>Node7</title>
<g id="a_Node000007"><a xlink:href="list__xattrs__ll_8c.html" target="_top" xlink:title=" ">
<polygon fill="white" stroke="#666666" points="991.75,-1218775.3 788.25,-1218775.3 788.25,-1.49 991.75,-1.49 991.75,-1218775.3"/>
<text text-anchor="middle" x="890" y="-1218761.8" font-family="Helvetica,sans-Serif" font-size="10.00">examples/list_xattrs_ll.c</text>
</a>
</g>
</g>
<!-- Node2&#45;&gt;Node7 -->
<g id="edge6_Node000002_Node000007" class="edge">
<title>Node2&#45;&gt;Node7</title>
<g id="a_edge6_Node000002_Node000007"><a xlink:title=" ">
<path fill="none" stroke="#63b8ff" d="M991,-1218801.25C991,-1218794.49 990.99,-1218786 990.99,-1218775.78"/>
<polygon fill="#63b8ff" stroke="#63b8ff" points="987.5,-1218801.19 991,-1218811.19 994.5,-1218801.19 987.5,-1218801.19"/>
</a>
</g>
</g>
<!-- Node8 -->
<g id="Node000008" class="node">
<title>Node8</title>
<g id="a_Node000008"><a xlink:href="read__file_8c.html" target="_top" xlink:title=" ">
<polygon fill="white" stroke="#666666" points="1176,-1218775.21 1010,-1218775.21 1010,-1.57 1176,-1.57 1176,-1218775.21"/>
<text text-anchor="middle" x="1093" y="-1218761.71" font-family="Helvetica,sans-Serif" font-size="10.00">examples/read_file.c</text>
</a>
</g>
</g>
<!-- Node2&#45;&gt;Node8 -->
<g id="edge7_Node000002_Node000008" class="edge">
<title>Node2&#45;&gt;Node8</title>
<g id="a_edge7_Node000002_Node000008"><a xlink:title=" ">
<path fill="none" stroke="#63b8ff" d="M996.44,-1218801.32C998.28,-1218793.71 1000.09,-1218784.91 1001,-1218776.79 1003.89,-1218750.89 1006.73,-1218633.23 1009.5,-1218426.07"/>
<polygon fill="#63b8ff" stroke="#63b8ff" points="993.09,-1218800.29 993.96,-1218810.85 999.86,-1218802.06 993.09,-1218800.29"/>
</a>
</g>
</g>
<!-- Node9 -->
<g id="Node000009" class="node">
<title>Node9</title>
<g id="a_Node000009"><a xlink:href="read__file__ll_8c.html" target="_top" xlink:title=" ">
<polygon fill="white" stroke="#666666" points="1382.25,-609397.64 1193.75,-609397.64 1193.75,-609379.14 1382.25,-609379.14 1382.25,-609397.64"/>
<text text-anchor="middle" x="1288" y="-609384.14" font-family="Helvetica,sans-Serif" font-size="10.00">examples/read_file_ll.c</text>
</a>
</g>
</g>
<!-- Node2&#45;&gt;Node9 -->
<g id="edge8_Node000002_Node000009" class="edge">
<title>Node2&#45;&gt;Node9</title>
<g id="a_edge8_Node000002_Node000009"><a xlink:title=" ">
<path fill="none" stroke="#63b8ff" d="M1063.11,-1218813.92C1111.73,-1218807.47 1169.71,-1218795.95 1185,-1218776.79 1514.17,-1218364.14 1288.97,-611988.43 1288,-609397.72"/>
<polygon fill="#63b8ff" stroke="#63b8ff" points="1062.92,-1218810.42 1053.44,-1218815.15 1063.8,-1218817.36 1062.92,-1218810.42"/>
</a>
</g>
</g>
<!-- Node10 -->
<g id="Node000010" class="node">
<title>Node10</title>
<g id="a_Node000010"><a xlink:href="readme__example_8c.html" target="_top" xlink:title=" ">
<polygon fill="white" stroke="#666666" points="1603.75,-609401.39 1400.25,-609401.39 1400.25,-609375.39 1603.75,-609375.39 1603.75,-609401.39"/>
<text text-anchor="middle" x="1502" y="-609387.89" font-family="Helvetica,sans-Serif" font-size="10.00">examples/readme_example.c</text>
</a>
</g>
</g>
<!-- Node2&#45;&gt;Node10 -->
<g id="edge9_Node000002_Node000010" class="edge">
<title>Node2&#45;&gt;Node10</title>
<g id="a_edge9_Node000002_Node000010"><a xlink:title=" ">
<path fill="none" stroke="#63b8ff" d="M1063.06,-1218818.18C1172.32,-1218813.11 1369.56,-1218800.72 1391,-1218776.79 1743,-1218383.76 1503.25,-612544.75 1502,-609401.66"/>
<polygon fill="#63b8ff" stroke="#63b8ff" points="1063.14,-1218814.68 1053.31,-1218818.63 1063.46,-1218821.67 1063.14,-1218814.68"/>
</a>
</g>
</g>
<!-- Node11 -->
<g id="Node000011" class="node">
<title>Node11</title>
<g id="a_Node000011"><a xlink:href="traverse__dir_8c.html" target="_top" xlink:title=" ">
<polygon fill="white" stroke="#666666" points="1810.25,-609409.64 1621.75,-609409.64 1621.75,-609367.15 1810.25,-609367.15 1810.25,-609409.64"/>
<text text-anchor="middle" x="1716" y="-609396.14" font-family="Helvetica,sans-Serif" font-size="10.00">examples/traverse_dir.c</text>
</a>
</g>
</g>
<!-- Node2&#45;&gt;Node11 -->
<g id="edge10_Node000002_Node000011" class="edge">
<title>Node2&#45;&gt;Node11</title>
<g id="a_edge10_Node000002_Node000011"><a xlink:title=" ">
<path fill="none" stroke="#63b8ff" d="M1063.12,-1218821.29C1218.99,-1218821.1 1576.2,-1218816.29 1613,-1218776.79 1972.35,-1218391.02 1717.72,-613471.28 1716.01,-609409.93"/>
<polygon fill="#63b8ff" stroke="#63b8ff" points="1063.32,-1218817.79 1053.32,-1218821.3 1063.32,-1218824.79 1063.32,-1218817.79"/>
</a>
</g>
</g>
<!-- Node12 -->
<g id="Node000012" class="node">
<title>Node12</title>
<g id="a_Node000012"><a xlink:href="traverse__dir__ll_8c.html" target="_top" xlink:title=" ">
<polygon fill="white" stroke="#666666" points="2039.5,-1218776.79 1828.5,-1218776.79 1828.5,0 2039.5,0 2039.5,-1218776.79"/>
<text text-anchor="middle" x="1934" y="-1218763.29" font-family="Helvetica,sans-Serif" font-size="10.00">examples/traverse_dir_ll.c</text>
</a>
</g>
</g>
<!-- Node2&#45;&gt;Node12 -->
<g id="edge11_Node000002_Node000012" class="edge">
<title>Node2&#45;&gt;Node12</title>
<g id="a_edge11_Node000002_Node000012"><a xlink:title=" ">
<path fill="none" stroke="#63b8ff" d="M1063.35,-1218819.84C1260.32,-1218816.24 1793.19,-1218804.01 1819,-1218776.79 1822.04,-1218773.58 1825.04,-1218727.81 1828,-1218640.2"/>
<polygon fill="#63b8ff" stroke="#63b8ff" points="1063.44,-1218816.34 1053.5,-1218820.02 1063.56,-1218823.34 1063.44,-1218816.34"/>
</a>
</g>
</g>
</g>
</svg>

<g id="navigator" transform="translate(0 0)" fill="#404254">
  <rect fill="#f2f5e9" fill-opacity="0.5" stroke="#606060" stroke-width=".5" x="0" y="0" width="60" height="60"/>
  <use id="zoomplus" xlink:href="#zoomPlus" x="17" y="9" onmousedown="handleZoom(evt,'in')"/>
  <use id="zoomminus" xlink:href="#zoomMin" x="42" y="9" onmousedown="handleZoom(evt,'out')"/>
  <use id="reset" xlink:href="#resetDef" x="30" y="36" onmousedown="handleReset()"/>
   <use id="arrowup" xlink:href="#arrowUp" x="0" y="0" onmousedown="handlePan(0,-1)"/>
  <use id="arrowright" xlink:href="#arrowRight" x="0" y="0" onmousedown="handlePan(1,0)"/>
  <use id="arrowdown" xlink:href="#arrowDown" x="0" y="0" onmousedown="handlePan(0,1)"/>
  <use id="arrowleft" xlink:href="#arrowLeft" x="0" y="0" onmousedown="handlePan(-1,0)"/>
</g>
<svg viewBox="0 0 15 15" width="100%" height="30px" preserveAspectRatio="xMaxYMin meet">
 <g id="arrow_out" transform="scale(0.3 0.3)">
  <a xlink:href="sqsh__easy_8h__dep__incl_org.svg" target="_base">
   <rect id="button" ry="5" rx="5" y="6" x="6" height="38" width="38"
        fill="#f2f5e9" fill-opacity="0.5" stroke="#606060" stroke-width="1.0"/>
   <path id="arrow"
     d="M 11.500037,31.436501 C 11.940474,20.09759 22.043105,11.32322 32.158766,21.979434 L 37.068811,17.246167 C 37.068811,17.246167 37.088388,32 37.088388,32 L 22.160133,31.978069 C 22.160133,31.978069 26.997745,27.140456 26.997745,27.140456 C 18.528582,18.264221 13.291696,25.230495 11.500037,31.436501 z"
     style="fill:#404040;"/>
  </a>
 </g>
</svg>

<style type='text/css'>
<![CDATA[
[data-mouse-over-selected='false'] { opacity: 0.7; }
[data-mouse-over-selected='true']  { opacity: 1.0; }
]]>
</style>
<script type="application/ecmascript"><![CDATA[
document.addEventListener('DOMContentLoaded', (event) => {
  highlightEdges();
  highlightAdjacentNodes();
});
]]></script>
</svg>
