<?xml version="1.0" encoding="UTF-8" standalone="no"?>
<!DOCTYPE svg PUBLIC "-//W3C//DTD SVG 1.1//EN"
 "http://www.w3.org/Graphics/SVG/1.1/DTD/svg11.dtd">
<!-- Generated by graphviz version 8.0.5 (20230430.1635)
 -->
<!-- Title: include/sqsh_directory.h Pages: 1 -->
<svg width="280pt" height="1925359pt"
 viewBox="0.00 0.00 279.75 1925359.01" xmlns="http://www.w3.org/2000/svg" xmlns:xlink="http://www.w3.org/1999/xlink">
<g id="graph0" class="graph" transform="scale(1 1) rotate(0) translate(4 1925355.01)">
<title>include/sqsh_directory.h</title>
<!-- Node1 -->
<g id="node1" class="node">
<title>Node1</title>
<g id="a_node1"><a xlink:title=" ">
<polygon fill="#999999" stroke="#666666" points="237.75,-1925351.01 41.75,-1925351.01 41.75,-1925332.51 237.75,-1925332.51 237.75,-1925351.01"/>
<text text-anchor="middle" x="139.75" y="-1925337.51" font-family="Helvetica,sans-Serif" font-size="10.00">include/sqsh_directory.h</text>
</a>
</g>
</g>
<!-- Node2 -->
<g id="node2" class="node">
<title>Node2</title>
<g id="a_node2"><a xlink:href="sqsh__file_8h.html" target="_top" xlink:title=" ">
<polygon fill="white" stroke="#666666" points="189,-1925296.51 90.5,-1925296.51 90.5,-962798.1 189,-962798.1 189,-1925296.51"/>
<text text-anchor="middle" x="139.75" y="-1925283.01" font-family="Helvetica,sans-Serif" font-size="10.00">sqsh_file.h</text>
</a>
</g>
</g>
<!-- Node1&#45;&gt;Node2 -->
<g id="edge1" class="edge">
<title>Node1&#45;&gt;Node2</title>
<path fill="none" stroke="#63b8ff" d="M139.75,-1925332.17C139.75,-1925326.65 139.75,-1925318.48 139.75,-1925307.66"/>
<polygon fill="#63b8ff" stroke="#63b8ff" points="143.25,-1925307.99 139.75,-1925297.99 136.25,-1925307.99 143.25,-1925307.99"/>
</g>
<!-- Node3 -->
<g id="node3" class="node">
<title>Node3</title>
<g id="a_node3"><a xlink:href="sqsh__common_8h.html" target="_top" xlink:title=" ">
<polygon fill="white" stroke="#666666" points="196.5,-962762.1 83,-962762.1 83,-54.5 196.5,-54.5 196.5,-962762.1"/>
<text text-anchor="middle" x="139.75" y="-962748.6" font-family="Helvetica,sans-Serif" font-size="10.00">sqsh_common.h</text>
</a>
</g>
</g>
<!-- Node2&#45;&gt;Node3 -->
<g id="edge2" class="edge">
<title>Node2&#45;&gt;Node3</title>
<path fill="none" stroke="#63b8ff" d="M139.75,-962797.69C139.75,-962789.64 139.75,-962781.59 139.75,-962773.55"/>
<polygon fill="#63b8ff" stroke="#63b8ff" points="143.25,-962773.57 139.75,-962763.57 136.25,-962773.57 143.25,-962773.57"/>
</g>
<!-- Node4 -->
<g id="node4" class="node">
<title>Node4</title>
<g id="a_node4"><a xlink:title=" ">
<polygon fill="#e0e0e0" stroke="#999999" points="83.5,-18.5 0,-18.5 0,0 83.5,0 83.5,-18.5"/>
<text text-anchor="middle" x="41.75" y="-5" font-family="Helvetica,sans-Serif" font-size="10.00">stdbool.h</text>
</a>
</g>
</g>
<!-- Node3&#45;&gt;Node4 -->
<g id="edge3" class="edge">
<title>Node3&#45;&gt;Node4</title>
<path fill="none" stroke="#63b8ff" d="M82.5,-200183.32C61.22,-95630.3 42.07,-1581 41.75,-29.71"/>
<polygon fill="#63b8ff" stroke="#63b8ff" points="45.25,-29.81 41.75,-19.81 38.25,-29.81 45.25,-29.81"/>
</g>
<!-- Node5 -->
<g id="node5" class="node">
<title>Node5</title>
<g id="a_node5"><a xlink:title=" ">
<polygon fill="#e0e0e0" stroke="#999999" points="177.75,-18.5 101.75,-18.5 101.75,0 177.75,0 177.75,-18.5"/>
<text text-anchor="middle" x="139.75" y="-5" font-family="Helvetica,sans-Serif" font-size="10.00">stddef.h</text>
</a>
</g>
</g>
<!-- Node3&#45;&gt;Node5 -->
<g id="edge4" class="edge">
<title>Node3&#45;&gt;Node5</title>
<path fill="none" stroke="#63b8ff" d="M139.75,-54.15C139.75,-44.4 139.75,-36.27 139.75,-29.77"/>
<polygon fill="#63b8ff" stroke="#63b8ff" points="143.25,-29.97 139.75,-19.97 136.25,-29.97 143.25,-29.97"/>
</g>
<!-- Node6 -->
<g id="node6" class="node">
<title>Node6</title>
<g id="a_node6"><a xlink:title=" ">
<polygon fill="#e0e0e0" stroke="#999999" points="271.75,-18.5 195.75,-18.5 195.75,0 271.75,0 271.75,-18.5"/>
<text text-anchor="middle" x="233.75" y="-5" font-family="Helvetica,sans-Serif" font-size="10.00">stdint.h</text>
</a>
</g>
</g>
<!-- Node3&#45;&gt;Node6 -->
<g id="edge5" class="edge">
<title>Node3&#45;&gt;Node6</title>
<path fill="none" stroke="#63b8ff" d="M197,-188216.05C216.46,-88562.69 233.45,-1528.16 233.75,-29.88"/>
<polygon fill="#63b8ff" stroke="#63b8ff" points="237.25,-29.9 233.75,-19.89 230.25,-29.89 237.25,-29.9"/>
</g>
</g>
</svg>
