<?xml version="1.0" encoding="UTF-8" standalone="no"?>
<!DOCTYPE svg PUBLIC "-//W3C//DTD SVG 1.1//EN"
 "http://www.w3.org/Graphics/SVG/1.1/DTD/svg11.dtd">
<!-- Generated by graphviz version 9.0.0 (20230911.1827)
 -->
<!-- Title: include/sqsh_mapper.h Pages: 1 -->
<!--zoomable 4326790 -->

<svg id="main" version="1.1" xmlns="http://www.w3.org/2000/svg" xmlns:xlink="http://www.w3.org/1999/xlink" xml:space="preserve" onload="init(evt)">
<style type="text/css"><![CDATA[
.node, .edge {opacity: 0.7;}
.node.selected, .edge.selected {opacity: 1;}
.edge:hover path { stroke: red; }
.edge:hover polygon { stroke: red; fill: red; }
]]></style>

<defs>
  <circle id="rim" cx="0" cy="0" r="7"/>
  <circle id="rim2" cx="0" cy="0" r="3.5"/>
  <g id="zoomPlus">
    <use xlink:href="#rim" fill="#404040"><set attributeName="fill" to="#808080" begin="zoomplus.mouseover" end="zoomplus.mouseout"/></use>
    <path d="M-4,0h8M0,-4v8" fill="none" stroke="white" stroke-width="1.5" pointer-events="none"/>
  </g>
  <g id="zoomMin">
    <use xlink:href="#rim" fill="#404040"><set attributeName="fill" to="#808080" begin="zoomminus.mouseover" end="zoomminus.mouseout"/></use>
    <path d="M-4,0h8" fill="none" stroke="white" stroke-width="1.5" pointer-events="none"/>
  </g>
  <g id="arrowUp" transform="translate(30 24)">
    <use xlink:href="#rim"/>
    <path pointer-events="none" fill="none" stroke="white" stroke-width="1.5" d="M0,-3.0v7 M-2.5,-0.5L0,-3.0L2.5,-0.5"/>
  </g>
  <g id="arrowRight" transform="rotate(90) translate(36 -43)">
    <use xlink:href="#rim"/>
    <path pointer-events="none" fill="none" stroke="white" stroke-width="1.5" d="M0,-3.0v7 M-2.5,-0.5L0,-3.0L2.5,-0.5"/>
  </g>
  <g id="arrowDown" transform="rotate(180) translate(-30 -48)">
    <use xlink:href="#rim"/>
    <path pointer-events="none" fill="none" stroke="white" stroke-width="1.5" d="M0,-3.0v7 M-2.5,-0.5L0,-3.0L2.5,-0.5"/>
  </g>
  <g id="arrowLeft" transform="rotate(270) translate(-36 17)">
    <use xlink:href="#rim"/>
    <path pointer-events="none" fill="none" stroke="white" stroke-width="1.5" d="M0,-3.0v7 M-2.5,-0.5L0,-3.0L2.5,-0.5"/>
  </g>
  <g id="resetDef">
    <use xlink:href="#rim2" fill="#404040"><set attributeName="fill" to="#808080" begin="reset.mouseover" end="reset.mouseout"/></use>
  </g>
</defs>
<script type="application/ecmascript">
var viewWidth = 2495;
var viewHeight = 4326790;
var sectionId = 'dynsection-1';
</script>
<script type="application/ecmascript" xlink:href="svg.min.js"/>
<svg id="graph" class="graph">
<g id="viewport">
<title>include/sqsh_mapper.h</title>
<!-- Node1 -->
<g id="Node000001" class="node">
<title>Node1</title>
<g id="a_Node000001"><a xlink:title=" ">
<polygon fill="#999999" stroke="#666666" points="1716.25,-4326781.51 1542.75,-4326781.51 1542.75,-4326763.01 1716.25,-4326763.01 1716.25,-4326781.51"/>
<text text-anchor="middle" x="1629.5" y="-4326768.01" font-family="Helvetica,sans-Serif" font-size="10.00">include/sqsh_mapper.h</text>
</a>
</g>
</g>
<!-- Node2 -->
<g id="Node000002" class="node">
<title>Node2</title>
<g id="a_Node000002"><a xlink:href="sqsh_8h.html" target="_top" xlink:title=" ">
<polygon fill="white" stroke="#666666" points="1180,-4326721.76 1059,-4326721.76 1059,-4326703.26 1180,-4326703.26 1180,-4326721.76"/>
<text text-anchor="middle" x="1119.5" y="-4326708.26" font-family="Helvetica,sans-Serif" font-size="10.00">include/sqsh.h</text>
</a>
</g>
</g>
<!-- Node1&#45;&gt;Node2 -->
<g id="edge1_Node000001_Node000002" class="edge">
<title>Node1&#45;&gt;Node2</title>
<g id="a_edge1_Node000001_Node000002"><a xlink:title=" ">
<path fill="none" stroke="#63b8ff" d="M1540.98,-4326761.24C1437.69,-4326749.54 1269.67,-4326730.51 1180.15,-4326720.38"/>
<polygon fill="#63b8ff" stroke="#63b8ff" points="1540.48,-4326764.7 1550.82,-4326762.35 1541.27,-4326757.75 1540.48,-4326764.7"/>
</a>
</g>
</g>
<!-- Node13 -->
<g id="Node000013" class="node">
<title>Node13</title>
<g id="a_Node000013"><a xlink:href="sqsh__mapper__private_8h.html" target="_top" xlink:title=" ">
<polygon fill="white" stroke="#666666" points="2278.5,-4326727.01 2112.5,-4326727.01 2112.5,-4326698.01 2278.5,-4326698.01 2278.5,-4326727.01"/>
<text text-anchor="start" x="2120.5" y="-4326713.51" font-family="Helvetica,sans-Serif" font-size="10.00">libsqsh/include/sqsh</text>
<text text-anchor="middle" x="2195.5" y="-4326703.01" font-family="Helvetica,sans-Serif" font-size="10.00">_mapper_private.h</text>
</a>
</g>
</g>
<!-- Node1&#45;&gt;Node13 -->
<g id="edge12_Node000001_Node000013" class="edge">
<title>Node1&#45;&gt;Node13</title>
<g id="a_edge12_Node000001_Node000013"><a xlink:title=" ">
<path fill="none" stroke="#63b8ff" d="M1726.44,-4326761.37C1835.14,-4326750.28 2009.59,-4326732.48 2112.32,-4326722"/>
<polygon fill="#63b8ff" stroke="#63b8ff" points="1726.25,-4326757.87 1716.66,-4326762.37 1726.97,-4326764.83 1726.25,-4326757.87"/>
</a>
</g>
</g>
<!-- Node3 -->
<g id="Node000003" class="node">
<title>Node3</title>
<g id="a_Node000003"><a xlink:href="custom__mapper_8c.html" target="_top" xlink:title=" ">
<polygon fill="white" stroke="#666666" points="425.5,-3785796.41 229.5,-3785796.41 229.5,-3785777.91 425.5,-3785777.91 425.5,-3785796.41"/>
<text text-anchor="middle" x="327.5" y="-3785782.91" font-family="Helvetica,sans-Serif" font-size="10.00">examples/custom_mapper.c</text>
</a>
</g>
</g>
<!-- Node2&#45;&gt;Node3 -->
<g id="edge2_Node000002_Node000003" class="edge">
<title>Node2&#45;&gt;Node3</title>
<g id="a_edge2_Node000002_Node000003"><a xlink:title=" ">
<path fill="none" stroke="#63b8ff" d="M1047.32,-4326711.72C879.78,-4326711.44 475.59,-4326706.17 434.5,-4326662.01 115.4,-4326319.09 326.52,-3788292.6 327.5,-3785796.87"/>
<polygon fill="#63b8ff" stroke="#63b8ff" points="1047.21,-4326715.22 1057.22,-4326711.73 1047.22,-4326708.22 1047.21,-4326715.22"/>
</a>
</g>
</g>
<!-- Node4 -->
<g id="Node000004" class="node">
<title>Node4</title>
<g id="a_Node000004"><a xlink:href="list__dir_8c.html" target="_top" xlink:title=" ">
<polygon fill="white" stroke="#666666" points="601.75,-4326661.97 443.25,-4326661.97 443.25,-3244912.34 601.75,-3244912.34 601.75,-4326661.97"/>
<text text-anchor="middle" x="522.5" y="-4326648.47" font-family="Helvetica,sans-Serif" font-size="10.00">examples/list_dir.c</text>
</a>
</g>
</g>
<!-- Node2&#45;&gt;Node4 -->
<g id="edge3_Node000002_Node000004" class="edge">
<title>Node2&#45;&gt;Node4</title>
<g id="a_edge3_Node000002_Node000004"><a xlink:title=" ">
<path fill="none" stroke="#63b8ff" d="M1047.68,-4326709.76C914.32,-4326705.77 639.31,-4326693.75 610.5,-4326662.01 607.71,-4326658.93 604.96,-4326613.55 602.25,-4326526.6"/>
<polygon fill="#63b8ff" stroke="#63b8ff" points="1047.36,-4326713.25 1057.45,-4326710.05 1047.56,-4326706.26 1047.36,-4326713.25"/>
</a>
</g>
</g>
<!-- Node5 -->
<g id="Node000005" class="node">
<title>Node5</title>
<g id="a_Node000005"><a xlink:href="list__dir__ll_8c.html" target="_top" xlink:title=" ">
<polygon fill="white" stroke="#666666" points="801,-4326662.01 620,-4326662.01 620,-3244912.31 801,-3244912.31 801,-4326662.01"/>
<text text-anchor="middle" x="710.5" y="-4326648.51" font-family="Helvetica,sans-Serif" font-size="10.00">examples/list_dir_ll.c</text>
</a>
</g>
</g>
<!-- Node2&#45;&gt;Node5 -->
<g id="edge4_Node000002_Node000005" class="edge">
<title>Node2&#45;&gt;Node5</title>
<g id="a_edge4_Node000002_Node000005"><a xlink:title=" ">
<path fill="none" stroke="#63b8ff" d="M1047.29,-4326710.4C965.44,-4326707.44 839.45,-4326697.12 809.5,-4326662.01 806.79,-4326658.83 804.12,-4326612.91 801.49,-4326525"/>
<polygon fill="#63b8ff" stroke="#63b8ff" points="1047.16,-4326713.9 1057.27,-4326710.73 1047.39,-4326706.9 1047.16,-4326713.9"/>
</a>
</g>
</g>
<!-- Node6 -->
<g id="Node000006" class="node">
<title>Node6</title>
<g id="a_Node000006"><a xlink:href="list__xattrs_8c.html" target="_top" xlink:title=" ">
<polygon fill="white" stroke="#666666" points="1000,-3785796.41 819,-3785796.41 819,-3785777.91 1000,-3785777.91 1000,-3785796.41"/>
<text text-anchor="middle" x="909.5" y="-3785782.91" font-family="Helvetica,sans-Serif" font-size="10.00">examples/list_xattrs.c</text>
</a>
</g>
</g>
<!-- Node2&#45;&gt;Node6 -->
<g id="edge5_Node000002_Node000006" class="edge">
<title>Node2&#45;&gt;Node6</title>
<g id="a_edge5_Node000002_Node000006"><a xlink:title=" ">
<path fill="none" stroke="#63b8ff" d="M1060.87,-4326699.22C1040.78,-4326691.9 1020.38,-4326680.31 1008.5,-4326662.01 753.46,-4326269.11 908.78,-3788292.36 909.5,-3785796.87"/>
<polygon fill="#63b8ff" stroke="#63b8ff" points="1059.59,-4326702.49 1070.18,-4326702.29 1061.78,-4326695.84 1059.59,-4326702.49"/>
</a>
</g>
</g>
<!-- Node7 -->
<g id="Node000007" class="node">
<title>Node7</title>
<g id="a_Node000007"><a xlink:href="list__xattrs__ll_8c.html" target="_top" xlink:title=" ">
<polygon fill="white" stroke="#666666" points="1221.25,-3785796.41 1017.75,-3785796.41 1017.75,-3785777.91 1221.25,-3785777.91 1221.25,-3785796.41"/>
<text text-anchor="middle" x="1119.5" y="-3785782.91" font-family="Helvetica,sans-Serif" font-size="10.00">examples/list_xattrs_ll.c</text>
</a>
</g>
</g>
<!-- Node2&#45;&gt;Node7 -->
<g id="edge6_Node000002_Node000007" class="edge">
<title>Node2&#45;&gt;Node7</title>
<g id="a_edge6_Node000002_Node000007"><a xlink:title=" ">
<path fill="none" stroke="#63b8ff" d="M1119.5,-4326691.29C1119.5,-4322903.42 1119.5,-3788279.78 1119.5,-3785796.83"/>
<polygon fill="#63b8ff" stroke="#63b8ff" points="1116,-4326691.28 1119.5,-4326701.28 1123,-4326691.28 1116,-4326691.28"/>
</a>
</g>
</g>
<!-- Node8 -->
<g id="Node000008" class="node">
<title>Node8</title>
<g id="a_Node000008"><a xlink:href="read__file_8c.html" target="_top" xlink:title=" ">
<polygon fill="white" stroke="#666666" points="1405.5,-3785796.41 1239.5,-3785796.41 1239.5,-3785777.91 1405.5,-3785777.91 1405.5,-3785796.41"/>
<text text-anchor="middle" x="1322.5" y="-3785782.91" font-family="Helvetica,sans-Serif" font-size="10.00">examples/read_file.c</text>
</a>
</g>
</g>
<!-- Node2&#45;&gt;Node8 -->
<g id="edge7_Node000002_Node000008" class="edge">
<title>Node2&#45;&gt;Node8</title>
<g id="a_edge7_Node000002_Node000008"><a xlink:title=" ">
<path fill="none" stroke="#63b8ff" d="M1178.13,-4326699.22C1198.22,-4326691.9 1218.62,-4326680.31 1230.5,-4326662.01 1485.54,-4326269.1 1323.26,-3788292.36 1322.5,-3785796.87"/>
<polygon fill="#63b8ff" stroke="#63b8ff" points="1177.22,-4326695.84 1168.82,-4326702.29 1179.41,-4326702.49 1177.22,-4326695.84"/>
</a>
</g>
</g>
<!-- Node9 -->
<g id="Node000009" class="node">
<title>Node9</title>
<g id="a_Node000009"><a xlink:href="read__file__ll_8c.html" target="_top" xlink:title=" ">
<polygon fill="white" stroke="#666666" points="1611.75,-3785808.38 1423.25,-3785808.38 1423.25,-3785765.94 1611.75,-3785765.94 1611.75,-3785808.38"/>
<text text-anchor="middle" x="1517.5" y="-3785794.88" font-family="Helvetica,sans-Serif" font-size="10.00">examples/read_file_ll.c</text>
</a>
</g>
</g>
<!-- Node2&#45;&gt;Node9 -->
<g id="edge8_Node000002_Node000009" class="edge">
<title>Node2&#45;&gt;Node9</title>
<g id="a_edge8_Node000002_Node000009"><a xlink:title=" ">
<path fill="none" stroke="#63b8ff" d="M1191.47,-4326709.72C1269.43,-4326706.09 1386.48,-4326695.12 1414.5,-4326662.01 1716.73,-4326304.91 1518.92,-3789641.15 1517.51,-3785808.78"/>
<polygon fill="#63b8ff" stroke="#63b8ff" points="1191.61,-4326706.21 1181.77,-4326710.14 1191.92,-4326713.21 1191.61,-4326706.21"/>
</a>
</g>
</g>
<!-- Node10 -->
<g id="Node000010" class="node">
<title>Node10</title>
<g id="a_Node000010"><a xlink:href="readme__example_8c.html" target="_top" xlink:title=" ">
<polygon fill="white" stroke="#666666" points="1833.25,-3785800.16 1629.75,-3785800.16 1629.75,-3785774.16 1833.25,-3785774.16 1833.25,-3785800.16"/>
<text text-anchor="middle" x="1731.5" y="-3785786.66" font-family="Helvetica,sans-Serif" font-size="10.00">examples/readme_example.c</text>
</a>
</g>
</g>
<!-- Node2&#45;&gt;Node10 -->
<g id="edge9_Node000002_Node000010" class="edge">
<title>Node2&#45;&gt;Node10</title>
<g id="a_edge9_Node000002_Node000010"><a xlink:title=" ">
<path fill="none" stroke="#63b8ff" d="M1191.19,-4326709.64C1322.83,-4326705.48 1592.23,-4326693.2 1620.5,-4326662.01 1934.91,-4326315.08 1732.63,-3788786.18 1731.5,-3785800.64"/>
<polygon fill="#63b8ff" stroke="#63b8ff" points="1191.44,-4326706.14 1181.56,-4326709.94 1191.66,-4326713.13 1191.44,-4326706.14"/>
</a>
</g>
</g>
<!-- Node11 -->
<g id="Node000011" class="node">
<title>Node11</title>
<g id="a_Node000011"><a xlink:href="traverse__dir_8c.html" target="_top" xlink:title=" ">
<polygon fill="white" stroke="#666666" points="2039.75,-3785796.41 1851.25,-3785796.41 1851.25,-3785777.91 2039.75,-3785777.91 2039.75,-3785796.41"/>
<text text-anchor="middle" x="1945.5" y="-3785782.91" font-family="Helvetica,sans-Serif" font-size="10.00">examples/traverse_dir.c</text>
</a>
</g>
</g>
<!-- Node2&#45;&gt;Node11 -->
<g id="edge10_Node000002_Node000011" class="edge">
<title>Node2&#45;&gt;Node11</title>
<g id="a_edge10_Node000002_Node000011"><a xlink:title=" ">
<path fill="none" stroke="#63b8ff" d="M1191.66,-4326712.02C1365.94,-4326712.49 1798.72,-4326708.88 1842.5,-4326662.01 2162.24,-4326319.69 1946.51,-3788292.6 1945.5,-3785796.87"/>
<polygon fill="#63b8ff" stroke="#63b8ff" points="1191.84,-4326708.52 1181.83,-4326711.98 1191.81,-4326715.52 1191.84,-4326708.52"/>
</a>
</g>
</g>
<!-- Node12 -->
<g id="Node000012" class="node">
<title>Node12</title>
<g id="a_Node000012"><a xlink:href="traverse__dir__ll_8c.html" target="_top" xlink:title=" ">
<polygon fill="white" stroke="#666666" points="211,-3785796.41 0,-3785796.41 0,-3785777.91 211,-3785777.91 211,-3785796.41"/>
<text text-anchor="middle" x="105.5" y="-3785782.91" font-family="Helvetica,sans-Serif" font-size="10.00">examples/traverse_dir_ll.c</text>
</a>
</g>
</g>
<!-- Node2&#45;&gt;Node12 -->
<g id="edge11_Node000002_Node000012" class="edge">
<title>Node2&#45;&gt;Node12</title>
<g id="a_edge11_Node000002_Node000012"><a xlink:title=" ">
<path fill="none" stroke="#63b8ff" d="M1047.14,-4326710.21C838.5,-4326706.1 248.78,-4326691.88 220.5,-4326662.01 -101.53,-4326321.84 104.54,-3788292.61 105.5,-3785796.87"/>
<polygon fill="#63b8ff" stroke="#63b8ff" points="1046.98,-4326713.7 1057.04,-4326710.4 1047.11,-4326706.7 1046.98,-4326713.7"/>
</a>
</g>
</g>
<!-- Node14 -->
<g id="Node000014" class="node">
<title>Node14</title>
<g id="a_Node000014"><a xlink:href="sqsh__file__private_8h.html" target="_top" xlink:title=" ">
<polygon fill="white" stroke="#666666" points="2261.5,-3244876.31 2095.5,-3244876.31 2095.5,-1081713.13 2261.5,-1081713.13 2261.5,-3244876.31"/>
<text text-anchor="start" x="2103.5" y="-3244862.81" font-family="Helvetica,sans-Serif" font-size="10.00">libsqsh/include/sqsh</text>
<text text-anchor="middle" x="2178.5" y="-2163243.72" font-family="Helvetica,sans-Serif" font-size="10.00">_file_private.h</text>
</a>
</g>
</g>
<!-- Node13&#45;&gt;Node14 -->
<g id="edge13_Node000013_Node000014" class="edge">
<title>Node13&#45;&gt;Node14</title>
<g id="a_edge13_Node000013_Node000014"><a xlink:title=" ">
<path fill="none" stroke="#63b8ff" d="M2216.92,-4326689.2C2223.2,-4326681.25 2229.24,-4326671.81 2232.5,-4326662.01 2232.5,-4326662.01 2232.5,-3244912.31 2232.5,-3244912.31 2232.5,-3244900.39 2232.5,-3244888.47 2232.5,-3244876.55"/>
<polygon fill="#63b8ff" stroke="#63b8ff" points="2214.41,-4326686.76 2210.59,-4326696.64 2219.74,-4326691.3 2214.41,-4326686.76"/>
</a>
</g>
</g>
<!-- Node18 -->
<g id="Node000018" class="node">
<title>Node18</title>
<g id="a_Node000018"><a xlink:href="sqsh__metablock__private_8h.html" target="_top" xlink:title=" ">
<polygon fill="white" stroke="#666666" points="2223.5,-3785801.66 2057.5,-3785801.66 2057.5,-3785772.66 2223.5,-3785772.66 2223.5,-3785801.66"/>
<text text-anchor="start" x="2065.5" y="-3785788.16" font-family="Helvetica,sans-Serif" font-size="10.00">libsqsh/include/sqsh</text>
<text text-anchor="middle" x="2140.5" y="-3785777.66" font-family="Helvetica,sans-Serif" font-size="10.00">_metablock_private.h</text>
</a>
</g>
</g>
<!-- Node13&#45;&gt;Node18 -->
<g id="edge17_Node000013_Node000018" class="edge">
<title>Node13&#45;&gt;Node18</title>
<g id="a_edge17_Node000013_Node000018"><a xlink:title=" ">
<path fill="none" stroke="#63b8ff" d="M2195.5,-4326686.11C2195.07,-4322447.04 2140.82,-3788931.25 2140.5,-3785801.98"/>
<polygon fill="#63b8ff" stroke="#63b8ff" points="2192,-4326686.09 2195.5,-4326696.09 2199,-4326686.09 2192,-4326686.09"/>
</a>
</g>
</g>
<!-- Node20 -->
<g id="Node000020" class="node">
<title>Node20</title>
<g id="a_Node000020"><a xlink:href="sqsh__table__private_8h.html" target="_top" xlink:title=" ">
<polygon fill="white" stroke="#666666" points="2445.5,-3785813.63 2279.5,-3785813.63 2279.5,-3785760.69 2445.5,-3785760.69 2445.5,-3785813.63"/>
<text text-anchor="start" x="2287.5" y="-3785800.13" font-family="Helvetica,sans-Serif" font-size="10.00">libsqsh/include/sqsh</text>
<text text-anchor="middle" x="2362.5" y="-3785789.63" font-family="Helvetica,sans-Serif" font-size="10.00">_table_private.h</text>
</a>
</g>
</g>
<!-- Node13&#45;&gt;Node20 -->
<g id="edge22_Node000013_Node000020" class="edge">
<title>Node13&#45;&gt;Node20</title>
<g id="a_edge22_Node000013_Node000020"><a xlink:title=" ">
<path fill="none" stroke="#63b8ff" d="M2236.77,-4326691.8C2248.16,-4326684.19 2259.14,-4326674.3 2265.5,-4326662.01 2695.51,-4325831.46 2365.16,-3790097.49 2362.52,-3785813.98"/>
<polygon fill="#63b8ff" stroke="#63b8ff" points="2235.18,-4326688.67 2228.48,-4326696.88 2238.84,-4326694.64 2235.18,-4326688.67"/>
</a>
</g>
</g>
<!-- Node15 -->
<g id="Node000015" class="node">
<title>Node15</title>
<g id="a_Node000015"><a xlink:href="sqsh__archive__private_8h.html" target="_top" xlink:title=" ">
<polygon fill="white" stroke="#666666" points="2417.5,-1081677.13 2251.5,-1081677.13 2251.5,-89.02 2417.5,-89.02 2417.5,-1081677.13"/>
<text text-anchor="start" x="2259.5" y="-1081663.63" font-family="Helvetica,sans-Serif" font-size="10.00">libsqsh/include/sqsh</text>
<text text-anchor="middle" x="2334.5" y="-117.96" font-family="Helvetica,sans-Serif" font-size="10.00">_archive_private.h</text>
</a>
</g>
</g>
<!-- Node14&#45;&gt;Node15 -->
<g id="edge14_Node000014_Node000015" class="edge">
<title>Node14&#45;&gt;Node15</title>
<g id="a_edge14_Node000014_Node000015"><a xlink:title=" ">
<path fill="none" stroke="#63b8ff" d="M2262,-1167023.07C2264.81,-1138272.27 2267.64,-1109787.74 2270.5,-1081713.13 2270.5,-1081701.21 2270.5,-1081689.29 2270.5,-1081677.37"/>
<polygon fill="#63b8ff" stroke="#63b8ff" points="2258.5,-1167022.74 2262,-1167032.75 2265.5,-1167022.75 2258.5,-1167022.74"/>
</a>
</g>
</g>
<!-- Node16 -->
<g id="Node000016" class="node">
<title>Node16</title>
<g id="a_Node000016"><a xlink:href="sqsh__directory__private_8h.html" target="_top" xlink:title=" ">
<polygon fill="white" stroke="#666666" points="2205.5,-540901.33 2039.5,-540901.33 2039.5,-540864.83 2205.5,-540864.83 2205.5,-540901.33"/>
<text text-anchor="start" x="2047.5" y="-540887.83" font-family="Helvetica,sans-Serif" font-size="10.00">libsqsh/include/sqsh</text>
<text text-anchor="middle" x="2122.5" y="-540869.83" font-family="Helvetica,sans-Serif" font-size="10.00">_directory_private.h</text>
</a>
</g>
</g>
<!-- Node14&#45;&gt;Node16 -->
<g id="edge15_Node000014_Node000016" class="edge">
<title>Node14&#45;&gt;Node16</title>
<g id="a_edge15_Node000014_Node000016"><a xlink:title=" ">
<path fill="none" stroke="#63b8ff" d="M2141.17,-1081701.41C2130.94,-785286.6 2122.58,-543257.95 2122.5,-540901.43"/>
<polygon fill="#63b8ff" stroke="#63b8ff" points="2137.67,-1081701.35 2141.17,-1081711.35 2144.67,-1081701.35 2137.67,-1081701.35"/>
</a>
</g>
</g>
<!-- Node17 -->
<g id="Node000017" class="node">
<title>Node17</title>
<g id="a_Node000017"><a xlink:href="sqsh__tree__private_8h.html" target="_top" xlink:title=" ">
<polygon fill="white" stroke="#666666" points="2205.5,-53.02 2039.5,-53.02 2039.5,0 2205.5,0 2205.5,-53.02"/>
<text text-anchor="start" x="2047.5" y="-39.52" font-family="Helvetica,sans-Serif" font-size="10.00">libsqsh/include/sqsh</text>
<text text-anchor="middle" x="2122.5" y="-5.08" font-family="Helvetica,sans-Serif" font-size="10.00">_tree_private.h</text>
</a>
</g>
</g>
<!-- Node16&#45;&gt;Node17 -->
<g id="edge16_Node000016_Node000017" class="edge">
<title>Node16&#45;&gt;Node17</title>
<g id="a_edge16_Node000016_Node000017"><a xlink:title=" ">
<path fill="none" stroke="#63b8ff" d="M2122.5,-540853.06C2122.5,-536328.85 2122.5,-4310.95 2122.5,-53.2"/>
<polygon fill="#63b8ff" stroke="#63b8ff" points="2119,-540852.97 2122.5,-540862.97 2126,-540852.97 2119,-540852.97"/>
</a>
</g>
</g>
<!-- Node18&#45;&gt;Node14 -->
<g id="edge19_Node000018_Node000014" class="edge">
<title>Node18&#45;&gt;Node14</title>
<g id="a_edge19_Node000018_Node000014"><a xlink:title=" ">
<path fill="none" stroke="#63b8ff" d="M2140.5,-3785761.19C2140.57,-3782938.11 2146.23,-3541045.78 2153.17,-3244876.6"/>
<polygon fill="#63b8ff" stroke="#63b8ff" points="2137,-3785760.95 2140.5,-3785770.95 2144,-3785760.95 2137,-3785760.95"/>
</a>
</g>
</g>
<!-- Node18&#45;&gt;Node16 -->
<g id="edge18_Node000018_Node000016" class="edge">
<title>Node18&#45;&gt;Node16</title>
<g id="a_edge18_Node000018_Node000016"><a xlink:title=" ">
<path fill="none" stroke="#63b8ff" d="M2140.5,-3785761.13C2140.06,-3782617.99 2098.44,-3484012.75 2086.5,-3244876.31 2038.51,-2283470.45 2054.5,-2043118.99 2086.5,-1081713.13 2094.46,-842400.97 2122.25,-543523.68 2122.5,-540901.45"/>
<polygon fill="#63b8ff" stroke="#63b8ff" points="2137,-3785760.91 2140.5,-3785770.91 2144,-3785760.91 2137,-3785760.91"/>
</a>
</g>
</g>
<!-- Node19 -->
<g id="Node000019" class="node">
<title>Node19</title>
<g id="a_Node000019"><a xlink:href="sqsh__xattr__private_8h.html" target="_top" xlink:title=" ">
<polygon fill="white" stroke="#666666" points="2445.5,-2163312.97 2279.5,-2163312.97 2279.5,-2163276.47 2445.5,-2163276.47 2445.5,-2163312.97"/>
<text text-anchor="start" x="2287.5" y="-2163299.47" font-family="Helvetica,sans-Serif" font-size="10.00">libsqsh/include/sqsh</text>
<text text-anchor="middle" x="2362.5" y="-2163288.97" font-family="Helvetica,sans-Serif" font-size="10.00">_xattr_private.h</text>
</a>
</g>
</g>
<!-- Node18&#45;&gt;Node19 -->
<g id="edge20_Node000018_Node000019" class="edge">
<title>Node18&#45;&gt;Node19</title>
<g id="a_edge20_Node000018_Node000019"><a xlink:title=" ">
<path fill="none" stroke="#63b8ff" d="M2140.51,-3785761.13C2141.46,-3782617.99 2231.59,-3484012.76 2270.5,-3244876.31 2348.47,-2765670.16 2362.41,-2167035.37 2362.5,-2163313.16"/>
<polygon fill="#63b8ff" stroke="#63b8ff" points="2137.01,-3785760.91 2140.5,-3785770.91 2144.01,-3785760.91 2137.01,-3785760.91"/>
</a>
</g>
</g>
<!-- Node19&#45;&gt;Node15 -->
<g id="edge21_Node000019_Node000015" class="edge">
<title>Node19&#45;&gt;Node15</title>
<g id="a_edge21_Node000019_Node000015"><a xlink:title=" ">
<path fill="none" stroke="#63b8ff" d="M2362.5,-2163264.59C2362.42,-2158425.92 2351.94,-1551676.3 2343.83,-1081677.57"/>
<polygon fill="#63b8ff" stroke="#63b8ff" points="2359,-2163264.52 2362.5,-2163274.52 2366,-2163264.52 2359,-2163264.52"/>
</a>
</g>
</g>
<!-- Node20&#45;&gt;Node19 -->
<g id="edge23_Node000020_Node000019" class="edge">
<title>Node20&#45;&gt;Node19</title>
<g id="a_edge23_Node000020_Node000019"><a xlink:title=" ">
<path fill="none" stroke="#63b8ff" d="M2362.5,-3785749.15C2362.5,-3776859.64 2362.5,-2169447.88 2362.5,-2163313.32"/>
<polygon fill="#63b8ff" stroke="#63b8ff" points="2359,-3785748.85 2362.5,-3785758.85 2366,-3785748.85 2359,-3785748.85"/>
</a>
</g>
</g>
</g>
</svg>

<g id="navigator" transform="translate(0 0)" fill="#404254">
  <rect fill="#f2f5e9" fill-opacity="0.5" stroke="#606060" stroke-width=".5" x="0" y="0" width="60" height="60"/>
  <use id="zoomplus" xlink:href="#zoomPlus" x="17" y="9" onmousedown="handleZoom(evt,'in')"/>
  <use id="zoomminus" xlink:href="#zoomMin" x="42" y="9" onmousedown="handleZoom(evt,'out')"/>
  <use id="reset" xlink:href="#resetDef" x="30" y="36" onmousedown="handleReset()"/>
   <use id="arrowup" xlink:href="#arrowUp" x="0" y="0" onmousedown="handlePan(0,-1)"/>
  <use id="arrowright" xlink:href="#arrowRight" x="0" y="0" onmousedown="handlePan(1,0)"/>
  <use id="arrowdown" xlink:href="#arrowDown" x="0" y="0" onmousedown="handlePan(0,1)"/>
  <use id="arrowleft" xlink:href="#arrowLeft" x="0" y="0" onmousedown="handlePan(-1,0)"/>
</g>
<svg viewBox="0 0 15 15" width="100%" height="30px" preserveAspectRatio="xMaxYMin meet">
 <g id="arrow_out" transform="scale(0.3 0.3)">
  <a xlink:href="sqsh__mapper_8h__dep__incl_org.svg" target="_base">
   <rect id="button" ry="5" rx="5" y="6" x="6" height="38" width="38"
        fill="#f2f5e9" fill-opacity="0.5" stroke="#606060" stroke-width="1.0"/>
   <path id="arrow"
     d="M 11.500037,31.436501 C 11.940474,20.09759 22.043105,11.32322 32.158766,21.979434 L 37.068811,17.246167 C 37.068811,17.246167 37.088388,32 37.088388,32 L 22.160133,31.978069 C 22.160133,31.978069 26.997745,27.140456 26.997745,27.140456 C 18.528582,18.264221 13.291696,25.230495 11.500037,31.436501 z"
     style="fill:#404040;"/>
  </a>
 </g>
</svg>

<style type='text/css'>
<![CDATA[
[data-mouse-over-selected='false'] { opacity: 0.7; }
[data-mouse-over-selected='true']  { opacity: 1.0; }
]]>
</style>
<script type="application/ecmascript"><![CDATA[
document.addEventListener('DOMContentLoaded', (event) => {
  highlightEdges();
  highlightAdjacentNodes();
});
]]></script>
</svg>
