<?xml version="1.0" encoding="UTF-8" standalone="no"?>
<!DOCTYPE svg PUBLIC "-//W3C//DTD SVG 1.1//EN"
 "http://www.w3.org/Graphics/SVG/1.1/DTD/svg11.dtd">
<!-- Generated by graphviz version 9.0.0 (20230911.1827)
 -->
<!-- Title: include/sqsh_mapper.h Pages: 1 -->
<svg width="304pt" height="1315544pt"
 viewBox="0.00 0.00 304.32 1315543.60" xmlns="http://www.w3.org/2000/svg" xmlns:xlink="http://www.w3.org/1999/xlink">
<g id="graph0" class="graph" transform="scale(1 1) rotate(0) translate(4 1315539.6)">
<title>include/sqsh_mapper.h</title>
<!-- Node1 -->
<g id="Node000001" class="node">
<title>Node1</title>
<g id="a_Node000001"><a xlink:title=" ">
<polygon fill="#999999" stroke="#666666" points="272.5,-1315535.6 99,-1315535.6 99,-1315517.1 272.5,-1315517.1 272.5,-1315535.6"/>
<text text-anchor="middle" x="185.75" y="-1315522.1" font-family="Helvetica,sans-Serif" font-size="10.00">include/sqsh_mapper.h</text>
</a>
</g>
</g>
<!-- Node2 -->
<g id="Node000002" class="node">
<title>Node2</title>
<g id="a_Node000002"><a xlink:href="sqsh__common_8h.html" target="_top" xlink:title=" ">
<polygon fill="white" stroke="#666666" points="200.5,-1315481.1 87,-1315481.1 87,-1315462.6 200.5,-1315462.6 200.5,-1315481.1"/>
<text text-anchor="middle" x="143.75" y="-1315467.6" font-family="Helvetica,sans-Serif" font-size="10.00">sqsh_common.h</text>
</a>
</g>
</g>
<!-- Node1&#45;&gt;Node2 -->
<g id="edge1_Node000001_Node000002" class="edge">
<title>Node1&#45;&gt;Node2</title>
<g id="a_edge1_Node000001_Node000002"><a xlink:title=" ">
<path fill="none" stroke="#63b8ff" d="M178.81,-1315516.68C173.07,-1315509.5 164.71,-1315499.06 157.6,-1315490.17"/>
<polygon fill="#63b8ff" stroke="#63b8ff" points="160.48,-1315488.16 151.5,-1315482.54 155.02,-1315492.54 160.48,-1315488.16"/>
</a>
</g>
</g>
<!-- Node4 -->
<g id="Node000004" class="node">
<title>Node4</title>
<g id="a_Node000004"><a xlink:title=" ">
<polygon fill="#e0e0e0" stroke="#999999" points="271.75,-657722.55 195.75,-657722.55 195.75,-657704.05 271.75,-657704.05 271.75,-657722.55"/>
<text text-anchor="middle" x="233.75" y="-657709.05" font-family="Helvetica,sans-Serif" font-size="10.00">stddef.h</text>
</a>
</g>
</g>
<!-- Node1&#45;&gt;Node4 -->
<g id="edge5_Node000001_Node000004" class="edge">
<title>Node1&#45;&gt;Node4</title>
<g id="a_edge5_Node000001_Node000004"><a xlink:title=" ">
<path fill="none" stroke="#63b8ff" d="M192.12,-1315516.75C198.01,-1315508.2 206.35,-1315494.49 209.75,-1315481.1 349.73,-1314929.43 234.49,-661916.4 233.75,-657734.47"/>
<polygon fill="#63b8ff" stroke="#63b8ff" points="237.25,-657734.54 233.75,-657724.54 230.25,-657734.55 237.25,-657734.54"/>
</a>
</g>
</g>
<!-- Node3 -->
<g id="Node000003" class="node">
<title>Node3</title>
<g id="a_Node000003"><a xlink:title=" ">
<polygon fill="#e0e0e0" stroke="#999999" points="83.5,-1315333.17 0,-1315333.17 0,-93.43 83.5,-93.43 83.5,-1315333.17"/>
<text text-anchor="middle" x="41.75" y="-1315319.67" font-family="Helvetica,sans-Serif" font-size="10.00">stdbool.h</text>
</a>
</g>
</g>
<!-- Node2&#45;&gt;Node3 -->
<g id="edge2_Node000002_Node000003" class="edge">
<title>Node2&#45;&gt;Node3</title>
<g id="a_edge2_Node000002_Node000003"><a xlink:title=" ">
<path fill="none" stroke="#63b8ff" d="M128.02,-1315462.3C115.87,-1315454.71 99.95,-1315442.38 92.75,-1315426.6 92.75,-1315426.6 89.21,-1269805.94 84,-1202594.66"/>
<polygon fill="#63b8ff" stroke="#63b8ff" points="87.5,-1202595.02 84,-1202585.02 80.5,-1202595.02 87.5,-1202595.02"/>
</a>
</g>
</g>
<!-- Node2&#45;&gt;Node4 -->
<g id="edge3_Node000002_Node000004" class="edge">
<title>Node2&#45;&gt;Node4</title>
<g id="a_edge3_Node000002_Node000004"><a xlink:title=" ">
<path fill="none" stroke="#63b8ff" d="M156.24,-1315462.35C166.62,-1315454.46 180.63,-1315441.69 186.75,-1315426.6 400.78,-1314899.28 234.82,-661916.21 233.76,-657734.47"/>
<polygon fill="#63b8ff" stroke="#63b8ff" points="237.26,-657734.54 233.75,-657724.54 230.26,-657734.54 237.26,-657734.54"/>
</a>
</g>
</g>
<!-- Node5 -->
<g id="Node000005" class="node">
<title>Node5</title>
<g id="a_Node000005"><a xlink:title=" ">
<polygon fill="#e0e0e0" stroke="#999999" points="177.75,-1315426.6 101.75,-1315426.6 101.75,0 177.75,0 177.75,-1315426.6"/>
<text text-anchor="middle" x="139.75" y="-1315413.1" font-family="Helvetica,sans-Serif" font-size="10.00">stdint.h</text>
</a>
</g>
</g>
<!-- Node2&#45;&gt;Node5 -->
<g id="edge4_Node000002_Node000005" class="edge">
<title>Node2&#45;&gt;Node5</title>
<g id="a_edge4_Node000002_Node000005"><a xlink:title=" ">
<path fill="none" stroke="#63b8ff" d="M143.75,-1315462.11C143.75,-1315456.68 143.75,-1315448.73 143.75,-1315438.25"/>
<polygon fill="#63b8ff" stroke="#63b8ff" points="147.25,-1315438.45 143.75,-1315428.46 140.25,-1315438.46 147.25,-1315438.45"/>
</a>
</g>
</g>
</g>
</svg>
