<?xml version="1.0" encoding="UTF-8" standalone="no"?>
<!DOCTYPE svg PUBLIC "-//W3C//DTD SVG 1.1//EN"
 "http://www.w3.org/Graphics/SVG/1.1/DTD/svg11.dtd">
<!-- Generated by graphviz version 8.0.5 (20230430.1635)
 -->
<!-- Title: libsqsh/include/sqsh_table_private.h Pages: 1 -->
<svg width="174pt" height="2043803pt"
 viewBox="0.00 0.00 174.00 2043802.64" xmlns="http://www.w3.org/2000/svg" xmlns:xlink="http://www.w3.org/1999/xlink">
<g id="graph0" class="graph" transform="scale(1 1) rotate(0) translate(4 2043798.64)">
<title>libsqsh/include/sqsh_table_private.h</title>
<!-- Node1 -->
<g id="node1" class="node">
<title>Node1</title>
<g id="a_node1"><a xlink:title=" ">
<polygon fill="#999999" stroke="#666666" points="166,-2043794.64 0,-2043794.64 0,-2043765.64 166,-2043765.64 166,-2043794.64"/>
<text text-anchor="start" x="8" y="-2043781.14" font-family="Helvetica,sans-Serif" font-size="10.00">libsqsh/include/sqsh</text>
<text text-anchor="middle" x="83" y="-2043770.64" font-family="Helvetica,sans-Serif" font-size="10.00">_table_private.h</text>
</a>
</g>
</g>
<!-- Node2 -->
<g id="node2" class="node">
<title>Node2</title>
<g id="a_node2"><a xlink:href="sqsh__xattr__private_8h.html" target="_top" xlink:title=" ">
<polygon fill="white" stroke="#666666" points="166,-2043729.64 0,-2043729.64 0,-1021885.65 166,-1021885.65 166,-2043729.64"/>
<text text-anchor="start" x="8" y="-2043716.14" font-family="Helvetica,sans-Serif" font-size="10.00">libsqsh/include/sqsh</text>
<text text-anchor="middle" x="83" y="-2043705.64" font-family="Helvetica,sans-Serif" font-size="10.00">_xattr_private.h</text>
</a>
</g>
</g>
<!-- Node1&#45;&gt;Node2 -->
<g id="edge1" class="edge">
<title>Node1&#45;&gt;Node2</title>
<path fill="none" stroke="#63b8ff" d="M83,-2043754.25C83,-2043747.54 83,-2043739.48 83,-2043730.07"/>
<polygon fill="#63b8ff" stroke="#63b8ff" points="79.5,-2043754.17 83,-2043764.17 86.5,-2043754.17 79.5,-2043754.17"/>
</g>
<!-- Node3 -->
<g id="node3" class="node">
<title>Node3</title>
<g id="a_node3"><a xlink:href="sqsh__archive__private_8h.html" target="_top" xlink:title=" ">
<polygon fill="white" stroke="#666666" points="166,-1021849.65 0,-1021849.65 0,0 166,0 166,-1021849.65"/>
<text text-anchor="start" x="8" y="-1021836.15" font-family="Helvetica,sans-Serif" font-size="10.00">libsqsh/include/sqsh</text>
<text text-anchor="middle" x="83" y="-5" font-family="Helvetica,sans-Serif" font-size="10.00">_archive_private.h</text>
</a>
</g>
</g>
<!-- Node2&#45;&gt;Node3 -->
<g id="edge2" class="edge">
<title>Node2&#45;&gt;Node3</title>
<path fill="none" stroke="#63b8ff" d="M83,-1021874.44C83,-1021866.22 83,-1021858 83,-1021849.79"/>
<polygon fill="#63b8ff" stroke="#63b8ff" points="79.5,-1021874.24 83,-1021884.24 86.5,-1021874.24 79.5,-1021874.24"/>
</g>
</g>
</svg>
