<?xml version="1.0" encoding="UTF-8" standalone="no"?>
<!DOCTYPE svg PUBLIC "-//W3C//DTD SVG 1.1//EN"
 "http://www.w3.org/Graphics/SVG/1.1/DTD/svg11.dtd">
<!-- Generated by graphviz version 9.0.0 (20230911.1827)
 -->
<!-- Title: libsqsh/include/sqsh_archive_private.h Pages: 1 -->
<svg width="1291pt" height="7323502pt"
 viewBox="0.00 0.00 1290.99 7323502.16" xmlns="http://www.w3.org/2000/svg" xmlns:xlink="http://www.w3.org/1999/xlink">
<g id="graph0" class="graph" transform="scale(1 1) rotate(0) translate(4 7323498.16)">
<title>libsqsh/include/sqsh_archive_private.h</title>
<!-- Node1 -->
<g id="Node000001" class="node">
<title>Node1</title>
<g id="a_Node000001"><a xlink:title=" ">
<polygon fill="#999999" stroke="#666666" points="495.5,-7323494.16 329.5,-7323494.16 329.5,-4394305.1 495.5,-4394305.1 495.5,-7323494.16"/>
<text text-anchor="start" x="337.5" y="-7323480.66" font-family="Helvetica,sans-Serif" font-size="10.00">libsqsh/include/sqsh</text>
<text text-anchor="middle" x="412.5" y="-5858939.56" font-family="Helvetica,sans-Serif" font-size="10.00">_archive_private.h</text>
</a>
</g>
</g>
<!-- Node2 -->
<g id="Node000002" class="node">
<title>Node2</title>
<g id="a_Node000002"><a xlink:href="sqsh__archive_8h.html" target="_top" xlink:title=" ">
<polygon fill="white" stroke="#666666" points="121,-1464897.49 0,-1464897.49 0,-1464878.99 121,-1464878.99 121,-1464897.49"/>
<text text-anchor="middle" x="60.5" y="-1464883.99" font-family="Helvetica,sans-Serif" font-size="10.00">sqsh_archive.h</text>
</a>
</g>
</g>
<!-- Node1&#45;&gt;Node2 -->
<g id="edge1_Node000001_Node000002" class="edge">
<title>Node1&#45;&gt;Node2</title>
<g id="a_edge1_Node000001_Node000002"><a xlink:title=" ">
<path fill="none" stroke="#63b8ff" d="M329,-5056876.61C307.72,-4841683.55 285.73,-4609112.73 267.5,-4394269.1 157.28,-3094943.63 60.89,-1471440.74 60.5,-1464909.01"/>
<polygon fill="#63b8ff" stroke="#63b8ff" points="64,-1464909.15 60.5,-1464899.15 57,-1464909.16 64,-1464909.15"/>
</a>
</g>
</g>
<!-- Node8 -->
<g id="Node000008" class="node">
<title>Node8</title>
<g id="a_Node000008"><a xlink:href="sqsh__error_8h.html" target="_top" xlink:title=" ">
<polygon fill="white" stroke="#666666" points="1086.5,-3661965.36 980.5,-3661965.36 980.5,-3661922.99 1086.5,-3661922.99 1086.5,-3661965.36"/>
<text text-anchor="middle" x="1033.5" y="-3661951.86" font-family="Helvetica,sans-Serif" font-size="10.00">sqsh_error.h</text>
</a>
</g>
</g>
<!-- Node1&#45;&gt;Node8 -->
<g id="edge8_Node000001_Node000008" class="edge">
<title>Node1&#45;&gt;Node8</title>
<g id="a_edge8_Node000001_Node000008"><a xlink:title=" ">
<path fill="none" stroke="#63b8ff" d="M496,-5606579.15C591.24,-5314710.55 748.61,-4819729.56 863.5,-4394269.1 950.94,-4070459.16 1032.66,-3666111.43 1033.49,-3661977.14"/>
<polygon fill="#63b8ff" stroke="#63b8ff" points="1036.99,-3661977.37 1033.5,-3661967.37 1029.99,-3661977.37 1036.99,-3661977.37"/>
</a>
</g>
</g>
<!-- Node9 -->
<g id="Node000009" class="node">
<title>Node9</title>
<g id="a_Node000009"><a xlink:href="sqsh__file__private_8h.html" target="_top" xlink:title=" ">
<polygon fill="white" stroke="#666666" points="854.75,-4394269.1 696.25,-4394269.1 696.25,-2929619.25 854.75,-2929619.25 854.75,-4394269.1"/>
<text text-anchor="middle" x="775.5" y="-4394255.6" font-family="Helvetica,sans-Serif" font-size="10.00">sqsh_file_private.h</text>
</a>
</g>
</g>
<!-- Node1&#45;&gt;Node9 -->
<g id="edge10_Node000001_Node000009" class="edge">
<title>Node1&#45;&gt;Node9</title>
<g id="a_edge10_Node000001_Node000009"><a xlink:title=" ">
<path fill="none" stroke="#63b8ff" d="M496,-5353538.91C556.06,-4990051.36 636.56,-4502810.61 695.75,-4144620.38"/>
<polygon fill="#63b8ff" stroke="#63b8ff" points="699.25,-4144620.62 695.75,-4144610.62 692.25,-4144620.62 699.25,-4144620.62"/>
</a>
</g>
</g>
<!-- Node13 -->
<g id="Node000013" class="node">
<title>Node13</title>
<g id="a_Node000013"><a xlink:title=" ">
<polygon fill="#e0e0e0" stroke="#999999" points="438.5,-1464842.99 272.5,-1464842.99 272.5,-1464800.62 438.5,-1464800.62 438.5,-1464842.99"/>
<text text-anchor="middle" x="355.5" y="-1464829.49" font-family="Helvetica,sans-Serif" font-size="10.00">sqsh_utils_private.h</text>
</a>
</g>
</g>
<!-- Node1&#45;&gt;Node13 -->
<g id="edge28_Node000001_Node000013" class="edge">
<title>Node1&#45;&gt;Node13</title>
<g id="a_edge28_Node000001_Node000013"><a xlink:title=" ">
<path fill="none" stroke="#63b8ff" d="M329,-4602505.47C325.75,-4532059.39 322.87,-4462276.13 320.5,-4394269.1 275.17,-3092326.16 304.94,-2766840.43 300.5,-1464897.49 300.5,-1464889.27 297.39,-1464886.6 300.5,-1464878.99 304.67,-1464868.76 311.7,-1464859.39 319.36,-1464851.35"/>
<polygon fill="#63b8ff" stroke="#63b8ff" points="321.65,-1464854 326.39,-1464844.53 316.78,-1464848.98 321.65,-1464854"/>
</a>
</g>
</g>
<!-- Node19 -->
<g id="Node000019" class="node">
<title>Node19</title>
<g id="a_Node000019"><a xlink:href="sqsh__xattr__private_8h.html" target="_top" xlink:title=" ">
<polygon fill="white" stroke="#666666" points="495.5,-3661953.43 329.5,-3661953.43 329.5,-3661934.93 495.5,-3661934.93 495.5,-3661953.43"/>
<text text-anchor="middle" x="412.5" y="-3661939.93" font-family="Helvetica,sans-Serif" font-size="10.00">sqsh_xattr_private.h</text>
</a>
</g>
</g>
<!-- Node1&#45;&gt;Node19 -->
<g id="edge29_Node000001_Node000019" class="edge">
<title>Node1&#45;&gt;Node19</title>
<g id="a_edge29_Node000001_Node000019"><a xlink:title=" ">
<path fill="none" stroke="#63b8ff" d="M412.5,-4394304.7C412.5,-3992748.39 412.5,-3664895.47 412.5,-3661964.98"/>
<polygon fill="#63b8ff" stroke="#63b8ff" points="416,-3661965.16 412.5,-3661955.16 409,-3661965.16 416,-3661965.16"/>
</a>
</g>
</g>
<!-- Node3 -->
<g id="Node000003" class="node">
<title>Node3</title>
<g id="a_Node000003"><a xlink:href="sqsh__common_8h.html" target="_top" xlink:title=" ">
<polygon fill="white" stroke="#666666" points="301.25,-1464764.62 187.75,-1464764.62 187.75,-1464722.25 301.25,-1464722.25 301.25,-1464764.62"/>
<text text-anchor="middle" x="244.5" y="-1464751.12" font-family="Helvetica,sans-Serif" font-size="10.00">sqsh_common.h</text>
</a>
</g>
</g>
<!-- Node2&#45;&gt;Node3 -->
<g id="edge2_Node000002_Node000003" class="edge">
<title>Node2&#45;&gt;Node3</title>
<g id="a_edge2_Node000002_Node000003"><a xlink:title=" ">
<path fill="none" stroke="#63b8ff" d="M62,-1464878.59C65.42,-1464861.42 75.34,-1464822.73 98.5,-1464800.62 119.91,-1464780.17 149.55,-1464766.95 176.53,-1464758.51"/>
<polygon fill="#63b8ff" stroke="#63b8ff" points="177.45,-1464761.89 186.05,-1464755.72 175.47,-1464755.18 177.45,-1464761.89"/>
</a>
</g>
</g>
<!-- Node7 -->
<g id="Node000007" class="node">
<title>Node7</title>
<g id="a_Node000007"><a xlink:href="sqsh__data_8h.html" target="_top" xlink:title=" ">
<polygon fill="white" stroke="#666666" points="216.75,-1464831.05 118.25,-1464831.05 118.25,-1464812.55 216.75,-1464812.55 216.75,-1464831.05"/>
<text text-anchor="middle" x="167.5" y="-1464817.55" font-family="Helvetica,sans-Serif" font-size="10.00">sqsh_data.h</text>
</a>
</g>
</g>
<!-- Node2&#45;&gt;Node7 -->
<g id="edge6_Node000002_Node000007" class="edge">
<title>Node2&#45;&gt;Node7</title>
<g id="a_edge6_Node000002_Node000007"><a xlink:title=" ">
<path fill="none" stroke="#63b8ff" d="M74.93,-1464878.55C92.5,-1464867.97 122.42,-1464849.95 143.48,-1464837.26"/>
<polygon fill="#63b8ff" stroke="#63b8ff" points="145.24,-1464840.29 152,-1464832.14 141.63,-1464834.3 145.24,-1464840.29"/>
</a>
</g>
</g>
<!-- Node4 -->
<g id="Node000004" class="node">
<title>Node4</title>
<g id="a_Node000004"><a xlink:title=" ">
<polygon fill="#e0e0e0" stroke="#999999" points="335.25,-732364.31 251.75,-732364.31 251.75,-732321.94 335.25,-732321.94 335.25,-732364.31"/>
<text text-anchor="middle" x="293.5" y="-732350.81" font-family="Helvetica,sans-Serif" font-size="10.00">stdbool.h</text>
</a>
</g>
</g>
<!-- Node3&#45;&gt;Node4 -->
<g id="edge3_Node000003_Node000004" class="edge">
<title>Node3&#45;&gt;Node4</title>
<g id="a_edge3_Node000003_Node000004"><a xlink:title=" ">
<path fill="none" stroke="#63b8ff" d="M244.5,-1464722.01C244.8,-1460295.99 293.13,-737883.92 293.5,-732375.78"/>
<polygon fill="#63b8ff" stroke="#63b8ff" points="297,-732375.93 293.5,-732365.93 290,-732375.93 297,-732375.93"/>
</a>
</g>
</g>
<!-- Node5 -->
<g id="Node000005" class="node">
<title>Node5</title>
<g id="a_Node000005"><a xlink:title=" ">
<polygon fill="#e0e0e0" stroke="#999999" points="233.5,-1464686.25 157.5,-1464686.25 157.5,0 233.5,0 233.5,-1464686.25"/>
<text text-anchor="middle" x="195.5" y="-1464672.75" font-family="Helvetica,sans-Serif" font-size="10.00">stddef.h</text>
</a>
</g>
</g>
<!-- Node3&#45;&gt;Node5 -->
<g id="edge4_Node000003_Node000005" class="edge">
<title>Node3&#45;&gt;Node5</title>
<g id="a_edge4_Node000003_Node000005"><a xlink:title=" ">
<path fill="none" stroke="#63b8ff" d="M243.59,-1464721.89C243.17,-1464711.25 242.71,-1464698.05 242.5,-1464686.25 -35.99,-1449062.51 85.63,-1025327.01 157,-829675.17"/>
<polygon fill="#63b8ff" stroke="#63b8ff" points="160.5,-829675.21 157,-829665.21 153.5,-829675.21 160.5,-829675.21"/>
</a>
</g>
</g>
<!-- Node6 -->
<g id="Node000006" class="node">
<title>Node6</title>
<g id="a_Node000006"><a xlink:title=" ">
<polygon fill="#e0e0e0" stroke="#999999" points="813.5,-732352.37 737.5,-732352.37 737.5,-732333.87 813.5,-732333.87 813.5,-732352.37"/>
<text text-anchor="middle" x="775.5" y="-732338.87" font-family="Helvetica,sans-Serif" font-size="10.00">stdint.h</text>
</a>
</g>
</g>
<!-- Node3&#45;&gt;Node6 -->
<g id="edge5_Node000003_Node000006" class="edge">
<title>Node3&#45;&gt;Node6</title>
<g id="a_edge5_Node000003_Node000006"><a xlink:title=" ">
<path fill="none" stroke="#63b8ff" d="M301.54,-1464723.36C318.36,-1464714.77 334.84,-1464702.74 344.5,-1464686.25 1625.55,-1462498.55 780.64,-736746.39 775.52,-732364.05"/>
<polygon fill="#63b8ff" stroke="#63b8ff" points="779.02,-732364.24 775.51,-732354.24 772.02,-732364.25 779.02,-732364.24"/>
</a>
</g>
</g>
<!-- Node7&#45;&gt;Node3 -->
<g id="edge7_Node000007_Node000003" class="edge">
<title>Node7&#45;&gt;Node3</title>
<g id="a_edge7_Node000007_Node000003"><a xlink:title=" ">
<path fill="none" stroke="#63b8ff" d="M176.03,-1464812.34C185.59,-1464802.86 201.6,-1464786.98 215.73,-1464772.97"/>
<polygon fill="#63b8ff" stroke="#63b8ff" points="218.06,-1464775.58 222.7,-1464766.05 213.13,-1464770.61 218.06,-1464775.58"/>
</a>
</g>
</g>
<!-- Node8&#45;&gt;Node3 -->
<g id="edge9_Node000008_Node000003" class="edge">
<title>Node8&#45;&gt;Node3</title>
<g id="a_edge9_Node000008_Node000003"><a xlink:title=" ">
<path fill="none" stroke="#63b8ff" d="M1033.5,-3661922.71C1033.68,-3656170.78 1070.86,-2439022.46 1081.5,-1464842.99 1081.5,-1464824.16 1094.36,-1464814.37 1081.5,-1464800.62 1029.47,-1464744.98 503.4,-1464742.75 312.9,-1464743.8"/>
<polygon fill="#63b8ff" stroke="#63b8ff" points="313.15,-1464740.3 303.17,-1464743.86 313.19,-1464747.3 313.15,-1464740.3"/>
</a>
</g>
</g>
<!-- Node9&#45;&gt;Node6 -->
<g id="edge27_Node000009_Node000006" class="edge">
<title>Node9&#45;&gt;Node6</title>
<g id="a_edge27_Node000009_Node000006"><a xlink:title=" ">
<path fill="none" stroke="#63b8ff" d="M695.75,-3449182.76C634.75,-3233221.61 613.15,-2930354.49 971.5,-2929619.25 982.87,-2929595.92 1006.13,-2929606.59 1017.5,-2929583.25 1574.45,-2928440.21 1081.77,-1466072.13 1081.5,-1464800.62 1013.77,-1140574.54 777.41,-735618.22 775.51,-732363.86"/>
<polygon fill="#63b8ff" stroke="#63b8ff" points="779.01,-732364.03 775.51,-732354.04 772.01,-732364.04 779.01,-732364.03"/>
</a>
</g>
</g>
<!-- Node10 -->
<g id="Node000010" class="node">
<title>Node10</title>
<g id="a_Node000010"><a xlink:href="sqsh__file_8h.html" target="_top" xlink:title=" ">
<polygon fill="white" stroke="#666666" points="1008.75,-2929583.25 910.25,-2929583.25 910.25,-1464933.49 1008.75,-1464933.49 1008.75,-2929583.25"/>
<text text-anchor="middle" x="959.5" y="-2929569.75" font-family="Helvetica,sans-Serif" font-size="10.00">sqsh_file.h</text>
</a>
</g>
</g>
<!-- Node9&#45;&gt;Node10 -->
<g id="edge11_Node000009_Node000010" class="edge">
<title>Node9&#45;&gt;Node10</title>
<g id="a_edge11_Node000009_Node000010"><a xlink:title=" ">
<path fill="none" stroke="#63b8ff" d="M855.25,-3064911.35C861.16,-3019118.74 866.97,-2973606.72 872.5,-2929583.25 884.91,-2830768.45 897.81,-2724453.61 909.75,-2624300.79"/>
<polygon fill="#63b8ff" stroke="#63b8ff" points="913.25,-2624300.84 909.75,-2624290.84 906.25,-2624300.84 913.25,-2624300.84"/>
</a>
</g>
</g>
<!-- Node11 -->
<g id="Node000011" class="node">
<title>Node11</title>
<g id="a_Node000011"><a xlink:href="sqsh__extract__private_8h.html" target="_top" xlink:title=" ">
<polygon fill="white" stroke="#666666" points="615,-1464897.49 434,-1464897.49 434,-1464878.99 615,-1464878.99 615,-1464897.49"/>
<text text-anchor="middle" x="524.5" y="-1464883.99" font-family="Helvetica,sans-Serif" font-size="10.00">sqsh_extract_private.h</text>
</a>
</g>
</g>
<!-- Node9&#45;&gt;Node11 -->
<g id="edge13_Node000009_Node000011" class="edge">
<title>Node9&#45;&gt;Node11</title>
<g id="a_edge13_Node000009_Node000011"><a xlink:title=" ">
<path fill="none" stroke="#63b8ff" d="M751.5,-2929619.11C751.5,-2929607.16 751.5,-2929595.2 751.5,-2929583.25 751.5,-2929583.25 718.5,-1464933.49 718.5,-1464933.49 705.57,-1464917.28 662.12,-1464906.54 619.61,-1464899.71"/>
<polygon fill="#63b8ff" stroke="#63b8ff" points="620.17,-1464896.26 609.76,-1464898.2 619.11,-1464903.18 620.17,-1464896.26"/>
</a>
</g>
</g>
<!-- Node14 -->
<g id="Node000014" class="node">
<title>Node14</title>
<g id="a_Node000014"><a xlink:href="sqsh__mapper__private_8h.html" target="_top" xlink:title=" ">
<polygon fill="white" stroke="#666666" points="806.25,-1464897.49 632.75,-1464897.49 632.75,-1464878.99 806.25,-1464878.99 806.25,-1464897.49"/>
<text text-anchor="middle" x="719.5" y="-1464883.99" font-family="Helvetica,sans-Serif" font-size="10.00">sqsh_mapper_private.h</text>
</a>
</g>
</g>
<!-- Node9&#45;&gt;Node14 -->
<g id="edge17_Node000009_Node000014" class="edge">
<title>Node9&#45;&gt;Node14</title>
<g id="a_edge17_Node000009_Node000014"><a xlink:title=" ">
<path fill="none" stroke="#63b8ff" d="M767.5,-2929618.96C760.52,-2290611.54 751.5,-1464933.49 751.5,-1464933.49 748.3,-1464923.59 741.96,-1464914.06 735.77,-1464906.38"/>
<polygon fill="#63b8ff" stroke="#63b8ff" points="738.46,-1464904.14 729.24,-1464898.92 733.19,-1464908.75 738.46,-1464904.14"/>
</a>
</g>
</g>
<!-- Node16 -->
<g id="Node000016" class="node">
<title>Node16</title>
<g id="a_Node000016"><a xlink:title=" ">
<polygon fill="#e0e0e0" stroke="#999999" points="1055.25,-1464831.05 881.75,-1464831.05 881.75,-1464812.55 1055.25,-1464812.55 1055.25,-1464831.05"/>
<text text-anchor="middle" x="968.5" y="-1464817.55" font-family="Helvetica,sans-Serif" font-size="10.00">sqsh_reader_private.h</text>
</a>
</g>
</g>
<!-- Node9&#45;&gt;Node16 -->
<g id="edge26_Node000009_Node000016" class="edge">
<title>Node9&#45;&gt;Node16</title>
<g id="a_edge26_Node000009_Node000016"><a xlink:title=" ">
<path fill="none" stroke="#63b8ff" d="M817.5,-2929618.96C854.15,-2290611.54 901.5,-1464933.49 901.5,-1464933.49 911.62,-1464897.23 937.2,-1464861.01 953.66,-1464840.32"/>
<polygon fill="#63b8ff" stroke="#63b8ff" points="956.32,-1464842.6 959.95,-1464832.65 950.9,-1464838.17 956.32,-1464842.6"/>
</a>
</g>
</g>
<!-- Node18 -->
<g id="Node000018" class="node">
<title>Node18</title>
<g id="a_Node000018"><a xlink:href="sqsh__metablock__private_8h.html" target="_top" xlink:title=" ">
<polygon fill="white" stroke="#666666" points="709.5,-2197267.62 513.5,-2197267.62 513.5,-2197249.12 709.5,-2197249.12 709.5,-2197267.62"/>
<text text-anchor="middle" x="611.5" y="-2197254.12" font-family="Helvetica,sans-Serif" font-size="10.00">sqsh_metablock_private.h</text>
</a>
</g>
</g>
<!-- Node9&#45;&gt;Node18 -->
<g id="edge23_Node000009_Node000018" class="edge">
<title>Node9&#45;&gt;Node18</title>
<g id="a_edge23_Node000009_Node000018"><a xlink:title=" ">
<path fill="none" stroke="#63b8ff" d="M695.75,-2949696.12C654.19,-2578507.88 611.86,-2200431.17 611.5,-2197279.22"/>
<polygon fill="#63b8ff" stroke="#63b8ff" points="615,-2197279.47 611.5,-2197269.47 608,-2197279.47 615,-2197279.47"/>
</a>
</g>
</g>
<!-- Node10&#45;&gt;Node3 -->
<g id="edge12_Node000010_Node000003" class="edge">
<title>Node10&#45;&gt;Node3</title>
<g id="a_edge12_Node000010_Node000003"><a xlink:title=" ">
<path fill="none" stroke="#63b8ff" d="M1009.25,-1915974.98C1030.94,-1779737.5 1053.82,-1613772.98 1064.5,-1464842.99 1064.5,-1464824.16 1077.35,-1464814.38 1064.5,-1464800.62 1013.7,-1464746.22 501.08,-1464743.17 313.12,-1464743.9"/>
<polygon fill="#63b8ff" stroke="#63b8ff" points="313.24,-1464740.4 303.26,-1464743.95 313.27,-1464747.4 313.24,-1464740.4"/>
</a>
</g>
</g>
<!-- Node11&#45;&gt;Node7 -->
<g id="edge15_Node000011_Node000007" class="edge">
<title>Node11&#45;&gt;Node7</title>
<g id="a_edge15_Node000011_Node000007"><a xlink:title=" ">
<path fill="none" stroke="#63b8ff" d="M469.14,-1464878.5C416.23,-1464870 334.28,-1464856.42 263.5,-1464842.99 248.7,-1464840.18 232.67,-1464836.9 218.02,-1464833.81"/>
<polygon fill="#63b8ff" stroke="#63b8ff" points="219.12,-1464830.47 208.61,-1464831.82 217.67,-1464837.32 219.12,-1464830.47"/>
</a>
</g>
</g>
<!-- Node12 -->
<g id="Node000012" class="node">
<title>Node12</title>
<g id="a_Node000012"><a xlink:title=" ">
<polygon fill="#e0e0e0" stroke="#999999" points="622.5,-1464834.8 456.5,-1464834.8 456.5,-1464808.8 622.5,-1464808.8 622.5,-1464834.8"/>
<text text-anchor="middle" x="539.5" y="-1464821.3" font-family="Helvetica,sans-Serif" font-size="10.00">cextras/collection.h</text>
</a>
</g>
</g>
<!-- Node11&#45;&gt;Node12 -->
<g id="edge14_Node000011_Node000012" class="edge">
<title>Node11&#45;&gt;Node12</title>
<g id="a_edge14_Node000011_Node000012"><a xlink:title=" ">
<path fill="none" stroke="#63b8ff" d="M526.52,-1464878.55C528.47,-1464870.19 531.5,-1464857.17 534.14,-1464845.82"/>
<polygon fill="#63b8ff" stroke="#63b8ff" points="537.49,-1464846.87 536.35,-1464836.34 530.67,-1464845.28 537.49,-1464846.87"/>
</a>
</g>
</g>
<!-- Node11&#45;&gt;Node13 -->
<g id="edge16_Node000011_Node000013" class="edge">
<title>Node11&#45;&gt;Node13</title>
<g id="a_edge16_Node000011_Node000013"><a xlink:title=" ">
<path fill="none" stroke="#63b8ff" d="M501.71,-1464878.55C480.76,-1464870.56 448.7,-1464858.34 419.93,-1464847.37"/>
<polygon fill="#63b8ff" stroke="#63b8ff" points="421.51,-1464844.23 410.92,-1464843.93 419.02,-1464850.77 421.51,-1464844.23"/>
</a>
</g>
</g>
<!-- Node14&#45;&gt;Node12 -->
<g id="edge21_Node000014_Node000012" class="edge">
<title>Node14&#45;&gt;Node12</title>
<g id="a_edge21_Node000014_Node000012"><a xlink:title=" ">
<path fill="none" stroke="#63b8ff" d="M695.22,-1464878.55C666.96,-1464868.43 619.68,-1464851.51 584.62,-1464838.95"/>
<polygon fill="#63b8ff" stroke="#63b8ff" points="586.18,-1464835.8 575.59,-1464835.72 583.82,-1464842.39 586.18,-1464835.8"/>
</a>
</g>
</g>
<!-- Node14&#45;&gt;Node13 -->
<g id="edge20_Node000014_Node000013" class="edge">
<title>Node14&#45;&gt;Node13</title>
<g id="a_edge20_Node000014_Node000013"><a xlink:title=" ">
<path fill="none" stroke="#63b8ff" d="M659.91,-1464878.5C607.17,-1464870.56 527.86,-1464858.08 449.72,-1464843.36"/>
<polygon fill="#63b8ff" stroke="#63b8ff" points="450.67,-1464839.98 440.19,-1464841.55 449.36,-1464846.86 450.67,-1464839.98"/>
</a>
</g>
</g>
<!-- Node15 -->
<g id="Node000015" class="node">
<title>Node15</title>
<g id="a_Node000015"><a xlink:href="sqsh__mapper_8h.html" target="_top" xlink:title=" ">
<polygon fill="white" stroke="#666666" points="863.25,-1464831.05 749.75,-1464831.05 749.75,-1464812.55 863.25,-1464812.55 863.25,-1464831.05"/>
<text text-anchor="middle" x="806.5" y="-1464817.55" font-family="Helvetica,sans-Serif" font-size="10.00">sqsh_mapper.h</text>
</a>
</g>
</g>
<!-- Node14&#45;&gt;Node15 -->
<g id="edge18_Node000014_Node000015" class="edge">
<title>Node14&#45;&gt;Node15</title>
<g id="a_edge18_Node000014_Node000015"><a xlink:title=" ">
<path fill="none" stroke="#63b8ff" d="M731.23,-1464878.55C745.19,-1464868.21 768.74,-1464850.77 785.79,-1464838.14"/>
<polygon fill="#63b8ff" stroke="#63b8ff" points="787.78,-1464841.02 793.74,-1464832.26 783.62,-1464835.4 787.78,-1464841.02"/>
</a>
</g>
</g>
<!-- Node14&#45;&gt;Node16 -->
<g id="edge19_Node000014_Node000016" class="edge">
<title>Node14&#45;&gt;Node16</title>
<g id="a_edge19_Node000014_Node000016"><a xlink:title=" ">
<path fill="none" stroke="#63b8ff" d="M753.08,-1464878.55C797.29,-1464867.11 875.14,-1464846.96 924.15,-1464834.28"/>
<polygon fill="#63b8ff" stroke="#63b8ff" points="924.78,-1464837.73 933.59,-1464831.84 923.03,-1464830.95 924.78,-1464837.73"/>
</a>
</g>
</g>
<!-- Node17 -->
<g id="Node000017" class="node">
<title>Node17</title>
<g id="a_Node000017"><a xlink:title=" ">
<polygon fill="#e0e0e0" stroke="#999999" points="732,-1464842.99 641,-1464842.99 641,-1464800.62 732,-1464800.62 732,-1464842.99"/>
<text text-anchor="middle" x="686.5" y="-1464829.49" font-family="Helvetica,sans-Serif" font-size="10.00">sys/wait.h</text>
</a>
</g>
</g>
<!-- Node14&#45;&gt;Node17 -->
<g id="edge22_Node000014_Node000017" class="edge">
<title>Node14&#45;&gt;Node17</title>
<g id="a_edge22_Node000014_Node000017"><a xlink:title=" ">
<path fill="none" stroke="#63b8ff" d="M715.05,-1464878.55C711.7,-1464872.01 706.9,-1464862.63 702.18,-1464853.42"/>
<polygon fill="#63b8ff" stroke="#63b8ff" points="705.34,-1464851.91 697.67,-1464844.61 699.11,-1464855.1 705.34,-1464851.91"/>
</a>
</g>
</g>
<!-- Node18&#45;&gt;Node11 -->
<g id="edge24_Node000018_Node000011" class="edge">
<title>Node18&#45;&gt;Node11</title>
<g id="a_edge24_Node000018_Node000011"><a xlink:title=" ">
<path fill="none" stroke="#63b8ff" d="M611.5,-2197248.74C611.16,-2194363.48 525.02,-1469287.39 524.5,-1464909.15"/>
<polygon fill="#63b8ff" stroke="#63b8ff" points="528,-1464909.35 524.5,-1464899.35 521,-1464909.35 528,-1464909.35"/>
</a>
</g>
</g>
<!-- Node18&#45;&gt;Node14 -->
<g id="edge25_Node000018_Node000014" class="edge">
<title>Node18&#45;&gt;Node14</title>
<g id="a_edge25_Node000018_Node000014"><a xlink:title=" ">
<path fill="none" stroke="#63b8ff" d="M611.5,-2197248.74C611.93,-2194363.48 718.85,-1469287.39 719.5,-1464909.15"/>
<polygon fill="#63b8ff" stroke="#63b8ff" points="723,-1464909.35 719.5,-1464899.35 716,-1464909.35 723,-1464909.35"/>
</a>
</g>
</g>
<!-- Node19&#45;&gt;Node18 -->
<g id="edge30_Node000019_Node000018" class="edge">
<title>Node19&#45;&gt;Node18</title>
<g id="a_edge30_Node000019_Node000018"><a xlink:title=" ">
<path fill="none" stroke="#63b8ff" d="M412.5,-3661934.53C413.06,-3657842.55 610.65,-2203489.97 611.5,-2197279.32"/>
<polygon fill="#63b8ff" stroke="#63b8ff" points="615,-2197279.51 611.5,-2197269.51 608,-2197279.51 615,-2197279.51"/>
</a>
</g>
</g>
<!-- Node20 -->
<g id="Node000020" class="node">
<title>Node20</title>
<g id="a_Node000020"><a xlink:href="sqsh__table__private_8h.html" target="_top" xlink:title=" ">
<polygon fill="white" stroke="#666666" points="495.5,-2197267.62 329.5,-2197267.62 329.5,-2197249.12 495.5,-2197249.12 495.5,-2197267.62"/>
<text text-anchor="middle" x="412.5" y="-2197254.12" font-family="Helvetica,sans-Serif" font-size="10.00">sqsh_table_private.h</text>
</a>
</g>
</g>
<!-- Node19&#45;&gt;Node20 -->
<g id="edge31_Node000019_Node000020" class="edge">
<title>Node19&#45;&gt;Node20</title>
<g id="a_edge31_Node000019_Node000020"><a xlink:title=" ">
<path fill="none" stroke="#63b8ff" d="M412.5,-3661934.53C412.5,-3657842.55 412.5,-2203489.97 412.5,-2197279.32"/>
<polygon fill="#63b8ff" stroke="#63b8ff" points="416,-2197279.51 412.5,-2197269.51 409,-2197279.51 416,-2197279.51"/>
</a>
</g>
</g>
<!-- Node22 -->
<g id="Node000022" class="node">
<title>Node22</title>
<g id="a_Node000022"><a xlink:href="sqsh__xattr_8h.html" target="_top" xlink:title=" ">
<polygon fill="white" stroke="#666666" points="245.5,-1464897.49 139.5,-1464897.49 139.5,-1464878.99 245.5,-1464878.99 245.5,-1464897.49"/>
<text text-anchor="middle" x="192.5" y="-1464883.99" font-family="Helvetica,sans-Serif" font-size="10.00">sqsh_xattr.h</text>
</a>
</g>
</g>
<!-- Node19&#45;&gt;Node22 -->
<g id="edge36_Node000019_Node000022" class="edge">
<title>Node19&#45;&gt;Node22</title>
<g id="a_edge36_Node000019_Node000022"><a xlink:title=" ">
<path fill="none" stroke="#63b8ff" d="M412.5,-3661934.78C412.2,-3659808.09 355.08,-3254222.29 320.5,-2929583.25 251.37,-2280474.36 192.84,-1469553.45 192.5,-1464909.28"/>
<polygon fill="#63b8ff" stroke="#63b8ff" points="196,-1464909.48 192.5,-1464899.48 189,-1464909.48 196,-1464909.48"/>
</a>
</g>
</g>
<!-- Node20&#45;&gt;Node11 -->
<g id="edge32_Node000020_Node000011" class="edge">
<title>Node20&#45;&gt;Node11</title>
<g id="a_edge32_Node000020_Node000011"><a xlink:title=" ">
<path fill="none" stroke="#63b8ff" d="M412.5,-2197248.75C411.8,-2194359.84 237.12,-1466173.87 504.5,-1464933.49 506.41,-1464924.63 510.24,-1464915.41 514.05,-1464907.69"/>
<polygon fill="#63b8ff" stroke="#63b8ff" points="517.06,-1464909.49 518.66,-1464899.01 510.87,-1464906.2 517.06,-1464909.49"/>
</a>
</g>
</g>
<!-- Node20&#45;&gt;Node14 -->
<g id="edge33_Node000020_Node000014" class="edge">
<title>Node20&#45;&gt;Node14</title>
<g id="a_edge33_Node000020_Node000014"><a xlink:title=" ">
<path fill="none" stroke="#63b8ff" d="M412.5,-2197248.74C411.27,-2194356.87 103.61,-1465425.22 504.5,-1464933.49 513.65,-1464922.27 587.69,-1464908.78 646.36,-1464899.66"/>
<polygon fill="#63b8ff" stroke="#63b8ff" points="646.64,-1464903.16 656,-1464898.19 645.58,-1464896.24 646.64,-1464903.16"/>
</a>
</g>
</g>
<!-- Node21 -->
<g id="Node000021" class="node">
<title>Node21</title>
<g id="a_Node000021"><a xlink:href="sqsh__table_8h.html" target="_top" xlink:title=" ">
<polygon fill="white" stroke="#666666" points="415.5,-1464897.49 309.5,-1464897.49 309.5,-1464878.99 415.5,-1464878.99 415.5,-1464897.49"/>
<text text-anchor="middle" x="362.5" y="-1464883.99" font-family="Helvetica,sans-Serif" font-size="10.00">sqsh_table.h</text>
</a>
</g>
</g>
<!-- Node20&#45;&gt;Node21 -->
<g id="edge34_Node000020_Node000021" class="edge">
<title>Node20&#45;&gt;Node21</title>
<g id="a_edge34_Node000020_Node000021"><a xlink:title=" ">
<path fill="none" stroke="#63b8ff" d="M412.5,-2197248.74C412.3,-2194363.48 362.8,-1469287.39 362.5,-1464909.15"/>
<polygon fill="#63b8ff" stroke="#63b8ff" points="366,-1464909.35 362.5,-1464899.35 359,-1464909.35 366,-1464909.35"/>
</a>
</g>
</g>
<!-- Node21&#45;&gt;Node3 -->
<g id="edge35_Node000021_Node000003" class="edge">
<title>Node21&#45;&gt;Node3</title>
<g id="a_edge35_Node000021_Node000003"><a xlink:title=" ">
<path fill="none" stroke="#63b8ff" d="M321.75,-1464878.51C301.3,-1464872.06 277.89,-1464861.13 263.5,-1464842.99 248.59,-1464824.18 244.22,-1464797.08 243.37,-1464776.06"/>
<polygon fill="#63b8ff" stroke="#63b8ff" points="246.87,-1464776.26 243.24,-1464766.31 239.87,-1464776.35 246.87,-1464776.26"/>
</a>
</g>
</g>
<!-- Node22&#45;&gt;Node3 -->
<g id="edge37_Node000022_Node000003" class="edge">
<title>Node22&#45;&gt;Node3</title>
<g id="a_edge37_Node000022_Node000003"><a xlink:title=" ">
<path fill="none" stroke="#63b8ff" d="M159.07,-1464878.56C141.01,-1464871.97 120.26,-1464860.91 109.5,-1464842.99 99.81,-1464826.84 99.05,-1464816.28 109.5,-1464800.62 124.72,-1464777.79 151.15,-1464764.23 176.61,-1464756.17"/>
<polygon fill="#63b8ff" stroke="#63b8ff" points="177.33,-1464759.6 185.97,-1464753.46 175.39,-1464752.88 177.33,-1464759.6"/>
</a>
</g>
</g>
<!-- Node22&#45;&gt;Node7 -->
<g id="edge38_Node000022_Node000007" class="edge">
<title>Node22&#45;&gt;Node7</title>
<g id="a_edge38_Node000022_Node000007"><a xlink:title=" ">
<path fill="none" stroke="#63b8ff" d="M189.13,-1464878.55C185.49,-1464869.18 179.59,-1464853.97 174.87,-1464841.8"/>
<polygon fill="#63b8ff" stroke="#63b8ff" points="178.25,-1464840.82 171.37,-1464832.77 171.72,-1464843.36 178.25,-1464840.82"/>
</a>
</g>
</g>
</g>
</svg>
