<?xml version="1.0" encoding="UTF-8" standalone="no"?>
<!DOCTYPE svg PUBLIC "-//W3C//DTD SVG 1.1//EN"
 "http://www.w3.org/Graphics/SVG/1.1/DTD/svg11.dtd">
<!-- Generated by graphviz version 9.0.0 (20230911.1827)
 -->
<!-- Title: libsqsh/include/sqsh_file_private.h Pages: 1 -->
<!--zoomable 1552676 -->

<svg id="main" version="1.1" xmlns="http://www.w3.org/2000/svg" xmlns:xlink="http://www.w3.org/1999/xlink" xml:space="preserve" onload="init(evt)">
<style type="text/css"><![CDATA[
.node, .edge {opacity: 0.7;}
.node.selected, .edge.selected {opacity: 1;}
.edge:hover path { stroke: red; }
.edge:hover polygon { stroke: red; fill: red; }
]]></style>

<defs>
  <circle id="rim" cx="0" cy="0" r="7"/>
  <circle id="rim2" cx="0" cy="0" r="3.5"/>
  <g id="zoomPlus">
    <use xlink:href="#rim" fill="#404040"><set attributeName="fill" to="#808080" begin="zoomplus.mouseover" end="zoomplus.mouseout"/></use>
    <path d="M-4,0h8M0,-4v8" fill="none" stroke="white" stroke-width="1.5" pointer-events="none"/>
  </g>
  <g id="zoomMin">
    <use xlink:href="#rim" fill="#404040"><set attributeName="fill" to="#808080" begin="zoomminus.mouseover" end="zoomminus.mouseout"/></use>
    <path d="M-4,0h8" fill="none" stroke="white" stroke-width="1.5" pointer-events="none"/>
  </g>
  <g id="arrowUp" transform="translate(30 24)">
    <use xlink:href="#rim"/>
    <path pointer-events="none" fill="none" stroke="white" stroke-width="1.5" d="M0,-3.0v7 M-2.5,-0.5L0,-3.0L2.5,-0.5"/>
  </g>
  <g id="arrowRight" transform="rotate(90) translate(36 -43)">
    <use xlink:href="#rim"/>
    <path pointer-events="none" fill="none" stroke="white" stroke-width="1.5" d="M0,-3.0v7 M-2.5,-0.5L0,-3.0L2.5,-0.5"/>
  </g>
  <g id="arrowDown" transform="rotate(180) translate(-30 -48)">
    <use xlink:href="#rim"/>
    <path pointer-events="none" fill="none" stroke="white" stroke-width="1.5" d="M0,-3.0v7 M-2.5,-0.5L0,-3.0L2.5,-0.5"/>
  </g>
  <g id="arrowLeft" transform="rotate(270) translate(-36 17)">
    <use xlink:href="#rim"/>
    <path pointer-events="none" fill="none" stroke="white" stroke-width="1.5" d="M0,-3.0v7 M-2.5,-0.5L0,-3.0L2.5,-0.5"/>
  </g>
  <g id="resetDef">
    <use xlink:href="#rim2" fill="#404040"><set attributeName="fill" to="#808080" begin="reset.mouseover" end="reset.mouseout"/></use>
  </g>
</defs>
<script type="application/ecmascript">
var viewWidth = 940;
var viewHeight = 1552676;
var sectionId = 'dynsection-0';
</script>
<script type="application/ecmascript" xlink:href="svg.min.js"/>
<svg id="graph" class="graph">
<g id="viewport">
<title>libsqsh/include/sqsh_file_private.h</title>
<!-- Node1 -->
<g id="Node000001" class="node">
<title>Node1</title>
<g id="a_Node000001"><a xlink:title=" ">
<polygon fill="#999999" stroke="#666666" points="458.69,-1552668.07 292.69,-1552668.07 292.69,-1164539.28 458.69,-1164539.28 458.69,-1552668.07"/>
<text text-anchor="start" x="300.69" y="-1552654.57" font-family="Helvetica,sans-Serif" font-size="10.00">libsqsh/include/sqsh</text>
<text text-anchor="middle" x="375.69" y="-1552644.07" font-family="Helvetica,sans-Serif" font-size="10.00">_file_private.h</text>
</a>
</g>
</g>
<!-- Node2 -->
<g id="Node000002" class="node">
<title>Node2</title>
<g id="a_Node000002"><a xlink:href="sqsh__file_8h.html" target="_top" xlink:title=" ">
<polygon fill="white" stroke="#666666" points="257.94,-1164499.53 159.44,-1164499.53 159.44,-1164481.03 257.94,-1164481.03 257.94,-1164499.53"/>
<text text-anchor="middle" x="208.69" y="-1164486.03" font-family="Helvetica,sans-Serif" font-size="10.00">sqsh_file.h</text>
</a>
</g>
</g>
<!-- Node1&#45;&gt;Node2 -->
<g id="edge1_Node000001_Node000002" class="edge">
<title>Node1&#45;&gt;Node2</title>
<g id="a_edge1_Node000001_Node000002"><a xlink:title=" ">
<path fill="none" stroke="#63b8ff" d="M292.19,-1261546.98C250.92,-1213586.31 209.66,-1165625.64 208.7,-1164511.09"/>
<polygon fill="#63b8ff" stroke="#63b8ff" points="212.2,-1164511.38 208.69,-1164501.38 205.2,-1164511.38 212.2,-1164511.38"/>
</a>
</g>
</g>
<!-- Node6 -->
<g id="Node000006" class="node">
<title>Node6</title>
<g id="a_Node000006"><a xlink:title=" ">
<polygon fill="#e0e0e0" stroke="#999999" points="123.69,-194142.59 47.69,-194142.59 47.69,-194116.59 123.69,-194116.59 123.69,-194142.59"/>
<text text-anchor="middle" x="85.69" y="-194129.09" font-family="Helvetica,sans-Serif" font-size="10.00">stdint.h</text>
</a>
</g>
</g>
<!-- Node1&#45;&gt;Node6 -->
<g id="edge21_Node000001_Node000006" class="edge">
<title>Node1&#45;&gt;Node6</title>
<g id="a_edge21_Node000001_Node000006"><a xlink:title=" ">
<path fill="none" stroke="#63b8ff" d="M292.19,-1303812.01C236.43,-1264918.94 166.9,-1211475.63 130.69,-1164441.28 64.27,-1078193.37 76.69,-1056631.37 76.69,-970383.43 76.69,-970383.43 76.69,-970383.43 76.69,-582317.63 76.69,-410841.79 85.58,-196758.31 85.68,-194154.58"/>
<polygon fill="#63b8ff" stroke="#63b8ff" points="89.18,-194154.58 85.69,-194144.58 82.18,-194154.58 89.18,-194154.58"/>
</a>
</g>
</g>
<!-- Node7 -->
<g id="Node000007" class="node">
<title>Node7</title>
<g id="a_Node000007"><a xlink:href="sqsh__extract__private_8h.html" target="_top" xlink:title=" ">
<polygon fill="white" stroke="#666666" points="432.19,-970391.68 251.19,-970391.68 251.19,-970373.18 432.19,-970373.18 432.19,-970391.68"/>
<text text-anchor="middle" x="341.69" y="-970378.18" font-family="Helvetica,sans-Serif" font-size="10.00">sqsh_extract_private.h</text>
</a>
</g>
</g>
<!-- Node1&#45;&gt;Node7 -->
<g id="edge6_Node000001_Node000007" class="edge">
<title>Node1&#45;&gt;Node7</title>
<g id="a_edge6_Node000001_Node000007"><a xlink:title=" ">
<path fill="none" stroke="#63b8ff" d="M331.68,-1164538.99C331.68,-1164518.42 331.69,-1164497.85 331.69,-1164477.28 333.89,-1078891.33 341.56,-972077.07 341.68,-970403.35"/>
<polygon fill="#63b8ff" stroke="#63b8ff" points="345.18,-970403.43 341.68,-970393.43 338.18,-970403.43 345.18,-970403.43"/>
</a>
</g>
</g>
<!-- Node11 -->
<g id="Node000011" class="node">
<title>Node11</title>
<g id="a_Node000011"><a xlink:href="sqsh__mapper__private_8h.html" target="_top" xlink:title=" ">
<polygon fill="white" stroke="#666666" points="651.44,-1164441.28 477.94,-1164441.28 477.94,-776323.58 651.44,-776323.58 651.44,-1164441.28"/>
<text text-anchor="middle" x="564.69" y="-1164427.78" font-family="Helvetica,sans-Serif" font-size="10.00">sqsh_mapper_private.h</text>
</a>
</g>
</g>
<!-- Node1&#45;&gt;Node11 -->
<g id="edge11_Node000001_Node000011" class="edge">
<title>Node1&#45;&gt;Node11</title>
<g id="a_edge11_Node000001_Node000011"><a xlink:title=" ">
<path fill="none" stroke="#63b8ff" d="M459.19,-1279184.4C492.54,-1244041.72 527.33,-1202212.09 545.69,-1164503.28 545.69,-1164486.4 545.7,-1164469.53 545.71,-1164452.65"/>
<polygon fill="#63b8ff" stroke="#63b8ff" points="549.21,-1164453.08 545.71,-1164443.08 542.21,-1164453.08 549.21,-1164453.08"/>
</a>
</g>
</g>
<!-- Node13 -->
<g id="Node000013" class="node">
<title>Node13</title>
<g id="a_Node000013"><a xlink:title=" ">
<polygon fill="#e0e0e0" stroke="#999999" points="932.44,-582327.88 758.94,-582327.88 758.94,-582309.38 932.44,-582309.38 932.44,-582327.88"/>
<text text-anchor="middle" x="845.69" y="-582314.38" font-family="Helvetica,sans-Serif" font-size="10.00">sqsh_reader_private.h</text>
</a>
</g>
</g>
<!-- Node1&#45;&gt;Node13 -->
<g id="edge20_Node000001_Node000013" class="edge">
<title>Node1&#45;&gt;Node13</title>
<g id="a_edge20_Node000001_Node000013"><a xlink:title=" ">
<path fill="none" stroke="#63b8ff" d="M459.19,-1311960.37C525.99,-1272629.95 615.68,-1214854.23 660.69,-1164441.28 890.63,-906895.87 846.1,-585256.38 845.69,-582339.62"/>
<polygon fill="#63b8ff" stroke="#63b8ff" points="849.19,-582339.82 845.69,-582329.82 842.19,-582339.82 849.19,-582339.82"/>
</a>
</g>
</g>
<!-- Node14 -->
<g id="Node000014" class="node">
<title>Node14</title>
<g id="a_Node000014"><a xlink:href="sqsh__metablock__private_8h.html" target="_top" xlink:title=" ">
<polygon fill="white" stroke="#666666" points="536.69,-1164503.28 340.69,-1164503.28 340.69,-1164477.28 536.69,-1164477.28 536.69,-1164503.28"/>
<text text-anchor="middle" x="438.69" y="-1164489.78" font-family="Helvetica,sans-Serif" font-size="10.00">sqsh_metablock_private.h</text>
</a>
</g>
</g>
<!-- Node1&#45;&gt;Node14 -->
<g id="edge17_Node000001_Node000014" class="edge">
<title>Node1&#45;&gt;Node14</title>
<g id="a_edge17_Node000001_Node000014"><a xlink:title=" ">
<path fill="none" stroke="#63b8ff" d="M438.67,-1164538.83C438.67,-1164529.47 438.68,-1164521.49 438.68,-1164514.88"/>
<polygon fill="#63b8ff" stroke="#63b8ff" points="442.18,-1164515.09 438.68,-1164505.09 435.18,-1164515.09 442.18,-1164515.09"/>
</a>
</g>
</g>
<!-- Node3 -->
<g id="Node000003" class="node">
<title>Node3</title>
<g id="a_Node000003"><a xlink:href="sqsh__common_8h.html" target="_top" xlink:title=" ">
<polygon fill="white" stroke="#666666" points="248.44,-388313.69 134.94,-388313.69 134.94,-388295.19 248.44,-388295.19 248.44,-388313.69"/>
<text text-anchor="middle" x="191.69" y="-388300.19" font-family="Helvetica,sans-Serif" font-size="10.00">sqsh_common.h</text>
</a>
</g>
</g>
<!-- Node2&#45;&gt;Node3 -->
<g id="edge2_Node000002_Node000003" class="edge">
<title>Node2&#45;&gt;Node3</title>
<g id="a_edge2_Node000002_Node000003"><a xlink:title=" ">
<path fill="none" stroke="#63b8ff" d="M208.68,-1164480.61C208.26,-1162910.26 150.29,-948189.83 133.69,-776287.58 133.69,-776287.58 133.69,-388349.69 133.69,-388349.69 139.94,-388337.04 151.73,-388327.03 163.06,-388319.74"/>
<polygon fill="#63b8ff" stroke="#63b8ff" points="164.59,-388322.9 171.44,-388314.82 161.04,-388316.87 164.59,-388322.9"/>
</a>
</g>
</g>
<!-- Node4 -->
<g id="Node000004" class="node">
<title>Node4</title>
<g id="a_Node000004"><a xlink:title=" ">
<polygon fill="#e0e0e0" stroke="#999999" points="233.44,-388154.9 149.94,-388154.9 149.94,-104.29 233.44,-104.29 233.44,-388154.9"/>
<text text-anchor="middle" x="191.69" y="-388141.4" font-family="Helvetica,sans-Serif" font-size="10.00">stdbool.h</text>
</a>
</g>
</g>
<!-- Node3&#45;&gt;Node4 -->
<g id="edge3_Node000003_Node000004" class="edge">
<title>Node3&#45;&gt;Node4</title>
<g id="a_edge3_Node000003_Node000004"><a xlink:title=" ">
<path fill="none" stroke="#63b8ff" d="M191.69,-388294.85C191.69,-388277.63 191.69,-388234.62 191.69,-388166.41"/>
<polygon fill="#63b8ff" stroke="#63b8ff" points="195.19,-388166.76 191.69,-388156.76 188.19,-388166.76 195.19,-388166.76"/>
</a>
</g>
</g>
<!-- Node5 -->
<g id="Node000005" class="node">
<title>Node5</title>
<g id="a_Node000005"><a xlink:title=" ">
<polygon fill="#e0e0e0" stroke="#999999" points="524.69,-388259.19 448.69,-388259.19 448.69,0 524.69,0 524.69,-388259.19"/>
<text text-anchor="middle" x="486.69" y="-388245.69" font-family="Helvetica,sans-Serif" font-size="10.00">stddef.h</text>
</a>
</g>
</g>
<!-- Node3&#45;&gt;Node5 -->
<g id="edge4_Node000003_Node000005" class="edge">
<title>Node3&#45;&gt;Node5</title>
<g id="a_edge4_Node000003_Node000005"><a xlink:title=" ">
<path fill="none" stroke="#63b8ff" d="M207.41,-388294.88C219.55,-388287.29 235.47,-388274.97 242.69,-388259.19 1216.93,-386127.59 681.82,-241020.69 525.23,-203110.27"/>
<polygon fill="#63b8ff" stroke="#63b8ff" points="528.73,-203110.49 525.19,-203100.5 521.73,-203110.52 528.73,-203110.49"/>
</a>
</g>
</g>
<!-- Node3&#45;&gt;Node6 -->
<g id="edge5_Node000003_Node000006" class="edge">
<title>Node3&#45;&gt;Node6</title>
<g id="a_edge5_Node000003_Node000006"><a xlink:title=" ">
<path fill="none" stroke="#63b8ff" d="M175.96,-388294.88C163.81,-388287.29 147.89,-388274.97 140.69,-388259.19 -137.42,-387649.92 82.83,-196599.87 85.66,-194154.28"/>
<polygon fill="#63b8ff" stroke="#63b8ff" points="89.16,-194154.56 85.67,-194144.56 82.16,-194154.56 89.16,-194154.56"/>
</a>
</g>
</g>
<!-- Node8 -->
<g id="Node000008" class="node">
<title>Node8</title>
<g id="a_Node000008"><a xlink:title=" ">
<polygon fill="#e0e0e0" stroke="#999999" points="424.69,-582327.88 258.69,-582327.88 258.69,-582309.38 424.69,-582309.38 424.69,-582327.88"/>
<text text-anchor="middle" x="341.69" y="-582314.38" font-family="Helvetica,sans-Serif" font-size="10.00">cextras/collection.h</text>
</a>
</g>
</g>
<!-- Node7&#45;&gt;Node8 -->
<g id="edge7_Node000007_Node000008" class="edge">
<title>Node7&#45;&gt;Node8</title>
<g id="a_edge7_Node000007_Node000008"><a xlink:title=" ">
<path fill="none" stroke="#63b8ff" d="M341.69,-970373.05C341.69,-968308.57 341.69,-585537.39 341.69,-582339.78"/>
<polygon fill="#63b8ff" stroke="#63b8ff" points="345.19,-582339.87 341.69,-582329.87 338.19,-582339.87 345.19,-582339.87"/>
</a>
</g>
</g>
<!-- Node9 -->
<g id="Node000009" class="node">
<title>Node9</title>
<g id="a_Node000009"><a xlink:href="sqsh__data_8h.html" target="_top" xlink:title=" ">
<polygon fill="white" stroke="#666666" points="240.94,-582327.88 142.44,-582327.88 142.44,-582309.38 240.94,-582309.38 240.94,-582327.88"/>
<text text-anchor="middle" x="191.69" y="-582314.38" font-family="Helvetica,sans-Serif" font-size="10.00">sqsh_data.h</text>
</a>
</g>
</g>
<!-- Node7&#45;&gt;Node9 -->
<g id="edge8_Node000007_Node000009" class="edge">
<title>Node7&#45;&gt;Node9</title>
<g id="a_edge8_Node000007_Node000009"><a xlink:title=" ">
<path fill="none" stroke="#63b8ff" d="M341.68,-970372.94C341.08,-969276.32 282.86,-862109.25 249.69,-776287.58 216.63,-690757.16 192.07,-584012.17 191.69,-582339.54"/>
<polygon fill="#63b8ff" stroke="#63b8ff" points="195.19,-582339.63 191.69,-582329.63 188.19,-582339.63 195.19,-582339.63"/>
</a>
</g>
</g>
<!-- Node10 -->
<g id="Node000010" class="node">
<title>Node10</title>
<g id="a_Node000010"><a xlink:title=" ">
<polygon fill="#e0e0e0" stroke="#999999" points="608.69,-582339.81 442.69,-582339.81 442.69,-582297.46 608.69,-582297.46 608.69,-582339.81"/>
<text text-anchor="middle" x="525.69" y="-582326.31" font-family="Helvetica,sans-Serif" font-size="10.00">sqsh_utils_private.h</text>
</a>
</g>
</g>
<!-- Node7&#45;&gt;Node10 -->
<g id="edge10_Node000007_Node000010" class="edge">
<title>Node7&#45;&gt;Node10</title>
<g id="a_edge10_Node000007_Node000010"><a xlink:title=" ">
<path fill="none" stroke="#63b8ff" d="M341.69,-970373.05C342.67,-968310.79 523.77,-586357.74 525.67,-582351.37"/>
<polygon fill="#63b8ff" stroke="#63b8ff" points="529.17,-582351.63 525.68,-582341.63 522.17,-582351.63 529.17,-582351.63"/>
</a>
</g>
</g>
<!-- Node9&#45;&gt;Node3 -->
<g id="edge9_Node000009_Node000003" class="edge">
<title>Node9&#45;&gt;Node3</title>
<g id="a_edge9_Node000009_Node000003"><a xlink:title=" ">
<path fill="none" stroke="#63b8ff" d="M191.69,-582309.05C191.69,-580837.13 191.69,-390552.04 191.69,-388325.14"/>
<polygon fill="#63b8ff" stroke="#63b8ff" points="195.19,-388325.47 191.69,-388315.47 188.19,-388325.47 195.19,-388325.47"/>
</a>
</g>
</g>
<!-- Node11&#45;&gt;Node10 -->
<g id="edge16_Node000011_Node000010" class="edge">
<title>Node11&#45;&gt;Node10</title>
<g id="a_edge16_Node000011_Node000010"><a xlink:title=" ">
<path fill="none" stroke="#63b8ff" d="M545.18,-776323.33C535.54,-680333.63 525.89,-584352.81 525.69,-582351.49"/>
<polygon fill="#63b8ff" stroke="#63b8ff" points="529.19,-582351.73 525.69,-582341.73 522.19,-582351.73 529.19,-582351.73"/>
</a>
</g>
</g>
<!-- Node12 -->
<g id="Node000012" class="node">
<title>Node12</title>
<g id="a_Node000012"><a xlink:href="sqsh__mapper_8h.html" target="_top" xlink:title=" ">
<polygon fill="white" stroke="#666666" points="740.44,-776287.58 626.94,-776287.58 626.94,-388349.69 740.44,-388349.69 740.44,-776287.58"/>
<text text-anchor="middle" x="683.69" y="-776274.08" font-family="Helvetica,sans-Serif" font-size="10.00">sqsh_mapper.h</text>
</a>
</g>
</g>
<!-- Node11&#45;&gt;Node12 -->
<g id="edge12_Node000011_Node000012" class="edge">
<title>Node11&#45;&gt;Node12</title>
<g id="a_edge12_Node000011_Node000012"><a xlink:title=" ">
<path fill="none" stroke="#63b8ff" d="M624.19,-776323.33C624.94,-773889.81 625.69,-771456.29 626.43,-769024.31"/>
<polygon fill="#63b8ff" stroke="#63b8ff" points="629.93,-769024.68 626.44,-769014.67 622.93,-769024.67 629.93,-769024.68"/>
</a>
</g>
</g>
<!-- Node11&#45;&gt;Node13 -->
<g id="edge15_Node000011_Node000013" class="edge">
<title>Node11&#45;&gt;Node13</title>
<g id="a_edge15_Node000011_Node000013"><a xlink:title=" ">
<path fill="none" stroke="#63b8ff" d="M651.94,-790839.91C678.12,-784065.92 710.01,-779016.95 748.69,-776323.58 748.92,-776307.58 749.46,-776303.59 749.69,-776287.58 1052.37,-754871.71 848.26,-584457.6 845.71,-582339.55"/>
<polygon fill="#63b8ff" stroke="#63b8ff" points="849.21,-582339.77 845.7,-582329.78 842.21,-582339.78 849.21,-582339.77"/>
</a>
</g>
</g>
<!-- Node12&#45;&gt;Node3 -->
<g id="edge13_Node000012_Node000003" class="edge">
<title>Node12&#45;&gt;Node3</title>
<g id="a_edge13_Node000012_Node000003"><a xlink:title=" ">
<path fill="none" stroke="#63b8ff" d="M626.45,-388460.54C623.59,-388390.25 620.67,-388353 617.69,-388349.69 594.22,-388323.66 374.28,-388311.97 259.98,-388307.62"/>
<polygon fill="#63b8ff" stroke="#63b8ff" points="260.22,-388304.12 250.1,-388307.25 259.96,-388311.12 260.22,-388304.12"/>
</a>
</g>
</g>
<!-- Node12&#45;&gt;Node5 -->
<g id="edge14_Node000012_Node000005" class="edge">
<title>Node12&#45;&gt;Node5</title>
<g id="a_edge14_Node000012_Node000005"><a xlink:title=" ">
<path fill="none" stroke="#63b8ff" d="M626.44,-406466.48C623.62,-400353.22 620.7,-394300.11 617.69,-388349.69 592.87,-339441.64 554.12,-283605.87 525.19,-244393.58"/>
<polygon fill="#63b8ff" stroke="#63b8ff" points="528.69,-244393.87 525.19,-244383.87 521.69,-244393.87 528.69,-244393.87"/>
</a>
</g>
</g>
<!-- Node14&#45;&gt;Node7 -->
<g id="edge18_Node000014_Node000007" class="edge">
<title>Node14&#45;&gt;Node7</title>
<g id="a_edge18_Node000014_Node000007"><a xlink:title=" ">
<path fill="none" stroke="#63b8ff" d="M438.68,-1164476.79C437.79,-1162703.11 342.81,-972627.55 341.7,-970403.11"/>
<polygon fill="#63b8ff" stroke="#63b8ff" points="345.2,-970403.45 341.69,-970393.45 338.2,-970403.45 345.2,-970403.45"/>
</a>
</g>
</g>
<!-- Node14&#45;&gt;Node11 -->
<g id="edge19_Node000014_Node000011" class="edge">
<title>Node14&#45;&gt;Node11</title>
<g id="a_edge19_Node000014_Node000011"><a xlink:title=" ">
<path fill="none" stroke="#63b8ff" d="M439.66,-1164477.06C440.38,-1164467.36 441.3,-1164453.46 441.69,-1164441.28 454.31,-1164041.03 466.16,-1163402.78 477.29,-1162544.76"/>
<polygon fill="#63b8ff" stroke="#63b8ff" points="480.79,-1162544.95 477.42,-1162534.9 473.79,-1162544.86 480.79,-1162544.95"/>
</a>
</g>
</g>
</g>
</svg>

<g id="navigator" transform="translate(0 0)" fill="#404254">
  <rect fill="#f2f5e9" fill-opacity="0.5" stroke="#606060" stroke-width=".5" x="0" y="0" width="60" height="60"/>
  <use id="zoomplus" xlink:href="#zoomPlus" x="17" y="9" onmousedown="handleZoom(evt,'in')"/>
  <use id="zoomminus" xlink:href="#zoomMin" x="42" y="9" onmousedown="handleZoom(evt,'out')"/>
  <use id="reset" xlink:href="#resetDef" x="30" y="36" onmousedown="handleReset()"/>
   <use id="arrowup" xlink:href="#arrowUp" x="0" y="0" onmousedown="handlePan(0,-1)"/>
  <use id="arrowright" xlink:href="#arrowRight" x="0" y="0" onmousedown="handlePan(1,0)"/>
  <use id="arrowdown" xlink:href="#arrowDown" x="0" y="0" onmousedown="handlePan(0,1)"/>
  <use id="arrowleft" xlink:href="#arrowLeft" x="0" y="0" onmousedown="handlePan(-1,0)"/>
</g>
<svg viewBox="0 0 15 15" width="100%" height="30px" preserveAspectRatio="xMaxYMin meet">
 <g id="arrow_out" transform="scale(0.3 0.3)">
  <a xlink:href="sqsh__file__private_8h__incl_org.svg" target="_base">
   <rect id="button" ry="5" rx="5" y="6" x="6" height="38" width="38"
        fill="#f2f5e9" fill-opacity="0.5" stroke="#606060" stroke-width="1.0"/>
   <path id="arrow"
     d="M 11.500037,31.436501 C 11.940474,20.09759 22.043105,11.32322 32.158766,21.979434 L 37.068811,17.246167 C 37.068811,17.246167 37.088388,32 37.088388,32 L 22.160133,31.978069 C 22.160133,31.978069 26.997745,27.140456 26.997745,27.140456 C 18.528582,18.264221 13.291696,25.230495 11.500037,31.436501 z"
     style="fill:#404040;"/>
  </a>
 </g>
</svg>

<style type='text/css'>
<![CDATA[
[data-mouse-over-selected='false'] { opacity: 0.7; }
[data-mouse-over-selected='true']  { opacity: 1.0; }
]]>
</style>
<script type="application/ecmascript"><![CDATA[
document.addEventListener('DOMContentLoaded', (event) => {
  highlightEdges();
  highlightAdjacentNodes();
});
]]></script>
</svg>
