<?xml version="1.0" encoding="UTF-8" standalone="no"?>
<!DOCTYPE svg PUBLIC "-//W3C//DTD SVG 1.1//EN"
 "http://www.w3.org/Graphics/SVG/1.1/DTD/svg11.dtd">
<!-- Generated by graphviz version 9.0.0 (20230911.1827)
 -->
<!-- Title: libsqsh/include/sqsh_tree_private.h Pages: 1 -->
<!--zoomable 5668129 -->

<svg id="main" version="1.1" xmlns="http://www.w3.org/2000/svg" xmlns:xlink="http://www.w3.org/1999/xlink" xml:space="preserve" onload="init(evt)">
<style type="text/css"><![CDATA[
.node, .edge {opacity: 0.7;}
.node.selected, .edge.selected {opacity: 1;}
.edge:hover path { stroke: red; }
.edge:hover polygon { stroke: red; fill: red; }
]]></style>

<defs>
  <circle id="rim" cx="0" cy="0" r="7"/>
  <circle id="rim2" cx="0" cy="0" r="3.5"/>
  <g id="zoomPlus">
    <use xlink:href="#rim" fill="#404040"><set attributeName="fill" to="#808080" begin="zoomplus.mouseover" end="zoomplus.mouseout"/></use>
    <path d="M-4,0h8M0,-4v8" fill="none" stroke="white" stroke-width="1.5" pointer-events="none"/>
  </g>
  <g id="zoomMin">
    <use xlink:href="#rim" fill="#404040"><set attributeName="fill" to="#808080" begin="zoomminus.mouseover" end="zoomminus.mouseout"/></use>
    <path d="M-4,0h8" fill="none" stroke="white" stroke-width="1.5" pointer-events="none"/>
  </g>
  <g id="arrowUp" transform="translate(30 24)">
    <use xlink:href="#rim"/>
    <path pointer-events="none" fill="none" stroke="white" stroke-width="1.5" d="M0,-3.0v7 M-2.5,-0.5L0,-3.0L2.5,-0.5"/>
  </g>
  <g id="arrowRight" transform="rotate(90) translate(36 -43)">
    <use xlink:href="#rim"/>
    <path pointer-events="none" fill="none" stroke="white" stroke-width="1.5" d="M0,-3.0v7 M-2.5,-0.5L0,-3.0L2.5,-0.5"/>
  </g>
  <g id="arrowDown" transform="rotate(180) translate(-30 -48)">
    <use xlink:href="#rim"/>
    <path pointer-events="none" fill="none" stroke="white" stroke-width="1.5" d="M0,-3.0v7 M-2.5,-0.5L0,-3.0L2.5,-0.5"/>
  </g>
  <g id="arrowLeft" transform="rotate(270) translate(-36 17)">
    <use xlink:href="#rim"/>
    <path pointer-events="none" fill="none" stroke="white" stroke-width="1.5" d="M0,-3.0v7 M-2.5,-0.5L0,-3.0L2.5,-0.5"/>
  </g>
  <g id="resetDef">
    <use xlink:href="#rim2" fill="#404040"><set attributeName="fill" to="#808080" begin="reset.mouseover" end="reset.mouseout"/></use>
  </g>
</defs>
<script type="application/ecmascript">
var viewWidth = 1128;
var viewHeight = 5668129;
var sectionId = 'dynsection-0';
</script>
<script type="application/ecmascript" xlink:href="svg.min.js"/>
<svg id="graph" class="graph">
<g id="viewport">
<title>libsqsh/include/sqsh_tree_private.h</title>
<!-- Node1 -->
<g id="Node000001" class="node">
<title>Node1</title>
<g id="a_Node000001"><a xlink:title=" ">
<polygon fill="#999999" stroke="#666666" points="865.05,-5668121.31 699.05,-5668121.31 699.05,-5668092.31 865.05,-5668092.31 865.05,-5668121.31"/>
<text text-anchor="start" x="707.05" y="-5668107.81" font-family="Helvetica,sans-Serif" font-size="10.00">libsqsh/include/sqsh</text>
<text text-anchor="middle" x="782.05" y="-5668097.31" font-family="Helvetica,sans-Serif" font-size="10.00">_tree_private.h</text>
</a>
</g>
</g>
<!-- Node2 -->
<g id="Node000002" class="node">
<title>Node2</title>
<g id="a_Node000002"><a xlink:href="sqsh__directory__private_8h.html" target="_top" xlink:title=" ">
<polygon fill="white" stroke="#666666" points="726.05,-5668056.31 530.05,-5668056.31 530.05,-4251213.14 726.05,-4251213.14 726.05,-5668056.31"/>
<text text-anchor="middle" x="628.05" y="-5668042.81" font-family="Helvetica,sans-Serif" font-size="10.00">sqsh_directory_private.h</text>
</a>
</g>
</g>
<!-- Node1&#45;&gt;Node2 -->
<g id="edge1_Node000001_Node000002" class="edge">
<title>Node1&#45;&gt;Node2</title>
<g id="a_edge1_Node000001_Node000002"><a xlink:title=" ">
<path fill="none" stroke="#63b8ff" d="M777.09,-5668092.16C773.79,-5668082.34 769.77,-5668068.69 768.05,-5668056.31 -337.3,-5660092.37 270.38,-5192084.07 529.53,-5021218.69"/>
<polygon fill="#63b8ff" stroke="#63b8ff" points="533.03,-5021218.96 529.55,-5021208.96 526.03,-5021218.95 533.03,-5021218.96"/>
</a>
</g>
</g>
<!-- Node18 -->
<g id="Node000018" class="node">
<title>Node18</title>
<g id="a_Node000018"><a xlink:href="sqsh__tree_8h.html" target="_top" xlink:title=" ">
<polygon fill="white" stroke="#666666" points="860.3,-3542628.98 761.8,-3542628.98 761.8,-3542610.48 860.3,-3542610.48 860.3,-3542628.98"/>
<text text-anchor="middle" x="811.05" y="-3542615.48" font-family="Helvetica,sans-Serif" font-size="10.00">sqsh_tree.h</text>
</a>
</g>
</g>
<!-- Node1&#45;&gt;Node18 -->
<g id="edge27_Node000001_Node000018" class="edge">
<title>Node1&#45;&gt;Node18</title>
<g id="a_edge27_Node000001_Node000018"><a xlink:title=" ">
<path fill="none" stroke="#63b8ff" d="M782.05,-5668092.1C782.1,-5664311.2 792.41,-4879425 801.05,-4251213.14 805.37,-3937579.44 811,-3545860.04 811.05,-3542640.7"/>
<polygon fill="#63b8ff" stroke="#63b8ff" points="814.55,-3542640.75 811.05,-3542630.75 807.55,-3542640.75 814.55,-3542640.75"/>
</a>
</g>
</g>
<!-- Node19 -->
<g id="Node000019" class="node">
<title>Node19</title>
<g id="a_Node000019"><a xlink:title=" ">
<polygon fill="#e0e0e0" stroke="#999999" points="946.05,-4959643.97 810.05,-4959643.97 810.05,-4959625.47 946.05,-4959625.47 946.05,-4959643.97"/>
<text text-anchor="middle" x="878.05" y="-4959630.47" font-family="Helvetica,sans-Serif" font-size="10.00">cextras/memory.h</text>
</a>
</g>
</g>
<!-- Node1&#45;&gt;Node19 -->
<g id="edge30_Node000001_Node000019" class="edge">
<title>Node1&#45;&gt;Node19</title>
<g id="a_edge30_Node000001_Node000019"><a xlink:title=" ">
<path fill="none" stroke="#63b8ff" d="M787.01,-5668092.16C790.31,-5668082.34 794.33,-5668068.69 796.05,-5668056.31 1470.1,-5663198.41 881.7,-4963963.12 878.07,-4959655.71"/>
<polygon fill="#63b8ff" stroke="#63b8ff" points="881.57,-4959655.78 878.06,-4959645.79 874.57,-4959655.79 881.57,-4959655.78"/>
</a>
</g>
</g>
<!-- Node3 -->
<g id="Node000003" class="node">
<title>Node3</title>
<g id="a_Node000003"><a xlink:href="sqsh__directory_8h.html" target="_top" xlink:title=" ">
<polygon fill="white" stroke="#666666" points="744.05,-4251177.14 608.05,-4251177.14 608.05,-2834062.32 744.05,-2834062.32 744.05,-4251177.14"/>
<text text-anchor="middle" x="676.05" y="-4251163.64" font-family="Helvetica,sans-Serif" font-size="10.00">sqsh_directory.h</text>
</a>
</g>
</g>
<!-- Node2&#45;&gt;Node3 -->
<g id="edge2_Node000002_Node000003" class="edge">
<title>Node2&#45;&gt;Node3</title>
<g id="a_edge2_Node000002_Node000003"><a xlink:title=" ">
<path fill="none" stroke="#63b8ff" d="M652.05,-4251212.87C652.05,-4251204.83 652.05,-4251196.79 652.05,-4251188.76"/>
<polygon fill="#63b8ff" stroke="#63b8ff" points="655.55,-4251188.91 652.05,-4251178.91 648.55,-4251188.91 655.55,-4251188.91"/>
</a>
</g>
</g>
<!-- Node9 -->
<g id="Node000009" class="node">
<title>Node9</title>
<g id="a_Node000009"><a xlink:href="sqsh__file__private_8h.html" target="_top" xlink:title=" ">
<polygon fill="white" stroke="#666666" points="552.3,-3542640.92 393.8,-3542640.92 393.8,-3542598.54 552.3,-3542598.54 552.3,-3542640.92"/>
<text text-anchor="middle" x="473.05" y="-3542627.42" font-family="Helvetica,sans-Serif" font-size="10.00">sqsh_file_private.h</text>
</a>
</g>
</g>
<!-- Node2&#45;&gt;Node9 -->
<g id="edge8_Node000002_Node000009" class="edge">
<title>Node2&#45;&gt;Node9</title>
<g id="a_edge8_Node000002_Node000009"><a xlink:title=" ">
<path fill="none" stroke="#63b8ff" d="M550.56,-4251212.87C512.02,-3898875.49 473.48,-3546509.88 473.05,-3542652.69"/>
<polygon fill="#63b8ff" stroke="#63b8ff" points="476.55,-3542652.74 473.05,-3542642.74 469.55,-3542652.74 476.55,-3542652.74"/>
</a>
</g>
</g>
<!-- Node17 -->
<g id="Node000017" class="node">
<title>Node17</title>
<g id="a_Node000017"><a xlink:href="sqsh__metablock__private_8h.html" target="_top" xlink:title=" ">
<polygon fill="white" stroke="#666666" points="625.05,-2125614.29 429.05,-2125614.29 429.05,-2125595.79 625.05,-2125595.79 625.05,-2125614.29"/>
<text text-anchor="middle" x="527.05" y="-2125600.79" font-family="Helvetica,sans-Serif" font-size="10.00">sqsh_metablock_private.h</text>
</a>
</g>
</g>
<!-- Node2&#45;&gt;Node17 -->
<g id="edge26_Node000002_Node000017" class="edge">
<title>Node2&#45;&gt;Node17</title>
<g id="a_edge26_Node000002_Node000017"><a xlink:title=" ">
<path fill="none" stroke="#63b8ff" d="M599.05,-4251212.72C599.05,-4251200.86 599.05,-4251189 599.05,-4251177.14 577.71,-3621348.33 584.61,-3463891.13 561.05,-2834062.32 549.32,-2520488.87 527.23,-2128844.73 527.05,-2125626.01"/>
<polygon fill="#63b8ff" stroke="#63b8ff" points="530.55,-2125626.06 527.05,-2125616.06 523.55,-2125626.06 530.55,-2125626.06"/>
</a>
</g>
</g>
<!-- Node4 -->
<g id="Node000004" class="node">
<title>Node4</title>
<g id="a_Node000004"><a xlink:href="sqsh__file_8h.html" target="_top" xlink:title=" ">
<polygon fill="white" stroke="#666666" points="820.3,-2834026.32 721.8,-2834026.32 721.8,-1417183.76 820.3,-1417183.76 820.3,-2834026.32"/>
<text text-anchor="middle" x="771.05" y="-2834012.82" font-family="Helvetica,sans-Serif" font-size="10.00">sqsh_file.h</text>
</a>
</g>
</g>
<!-- Node3&#45;&gt;Node4 -->
<g id="edge3_Node000003_Node000004" class="edge">
<title>Node3&#45;&gt;Node4</title>
<g id="a_edge3_Node000003_Node000004"><a xlink:title=" ">
<path fill="none" stroke="#63b8ff" d="M723.55,-2834061.96C723.55,-2834053.98 723.55,-2834046 723.56,-2834038.03"/>
<polygon fill="#63b8ff" stroke="#63b8ff" points="727.05,-2834038.26 723.56,-2834028.26 720.05,-2834038.26 727.05,-2834038.26"/>
</a>
</g>
</g>
<!-- Node5 -->
<g id="Node000005" class="node">
<title>Node5</title>
<g id="a_Node000005"><a xlink:href="sqsh__common_8h.html" target="_top" xlink:title=" ">
<polygon fill="white" stroke="#666666" points="854.8,-1417007.38 741.3,-1417007.38 741.3,-54.5 854.8,-54.5 854.8,-1417007.38"/>
<text text-anchor="middle" x="798.05" y="-1416993.88" font-family="Helvetica,sans-Serif" font-size="10.00">sqsh_common.h</text>
</a>
</g>
</g>
<!-- Node4&#45;&gt;Node5 -->
<g id="edge4_Node000004_Node000005" class="edge">
<title>Node4&#45;&gt;Node5</title>
<g id="a_edge4_Node000004_Node000005"><a xlink:title=" ">
<path fill="none" stroke="#63b8ff" d="M820.8,-1982169.81C865.16,-1839035.74 920.97,-1612825.01 906.05,-1417043.38 896.06,-1286019.99 875.69,-1141367.3 855.3,-1017111.18"/>
<polygon fill="#63b8ff" stroke="#63b8ff" points="858.8,-1017111.32 855.3,-1017101.32 851.8,-1017111.32 858.8,-1017111.32"/>
</a>
</g>
</g>
<!-- Node6 -->
<g id="Node000006" class="node">
<title>Node6</title>
<g id="a_Node000006"><a xlink:title=" ">
<polygon fill="#e0e0e0" stroke="#999999" points="839.8,-18.5 756.3,-18.5 756.3,0 839.8,0 839.8,-18.5"/>
<text text-anchor="middle" x="798.05" y="-5" font-family="Helvetica,sans-Serif" font-size="10.00">stdbool.h</text>
</a>
</g>
</g>
<!-- Node5&#45;&gt;Node6 -->
<g id="edge5_Node000005_Node000006" class="edge">
<title>Node5&#45;&gt;Node6</title>
<g id="a_edge5_Node000005_Node000006"><a xlink:title=" ">
<path fill="none" stroke="#63b8ff" d="M798.05,-54.07C798.05,-44.59 798.05,-36.64 798.05,-30.23"/>
<polygon fill="#63b8ff" stroke="#63b8ff" points="801.55,-30.47 798.05,-20.47 794.55,-30.47 801.55,-30.47"/>
</a>
</g>
</g>
<!-- Node7 -->
<g id="Node000007" class="node">
<title>Node7</title>
<g id="a_Node000007"><a xlink:title=" ">
<polygon fill="#e0e0e0" stroke="#999999" points="640.05,-18.5 564.05,-18.5 564.05,0 640.05,0 640.05,-18.5"/>
<text text-anchor="middle" x="602.05" y="-5" font-family="Helvetica,sans-Serif" font-size="10.00">stddef.h</text>
</a>
</g>
</g>
<!-- Node5&#45;&gt;Node7 -->
<g id="edge6_Node000005_Node000007" class="edge">
<title>Node5&#45;&gt;Node7</title>
<g id="a_edge6_Node000005_Node000007"><a xlink:title=" ">
<path fill="none" stroke="#63b8ff" d="M740.8,-501577.52C683.23,-293450.44 602.82,-2789.88 602.06,-30.05"/>
<polygon fill="#63b8ff" stroke="#63b8ff" points="605.56,-30.25 602.05,-20.25 598.56,-30.25 605.56,-30.25"/>
</a>
</g>
</g>
<!-- Node8 -->
<g id="Node000008" class="node">
<title>Node8</title>
<g id="a_Node000008"><a xlink:title=" ">
<polygon fill="#e0e0e0" stroke="#999999" points="356.05,-18.5 280.05,-18.5 280.05,0 356.05,0 356.05,-18.5"/>
<text text-anchor="middle" x="318.05" y="-5" font-family="Helvetica,sans-Serif" font-size="10.00">stdint.h</text>
</a>
</g>
</g>
<!-- Node5&#45;&gt;Node8 -->
<g id="edge7_Node000005_Node000008" class="edge">
<title>Node5&#45;&gt;Node8</title>
<g id="a_edge7_Node000005_Node000008"><a xlink:title=" ">
<path fill="none" stroke="#63b8ff" d="M740.8,-624024.42C613.98,-436832.99 320.35,-3410.42 318.06,-30.14"/>
<polygon fill="#63b8ff" stroke="#63b8ff" points="321.56,-30.35 318.06,-20.35 314.56,-30.35 321.56,-30.35"/>
</a>
</g>
</g>
<!-- Node9&#45;&gt;Node4 -->
<g id="edge9_Node000009_Node000004" class="edge">
<title>Node9&#45;&gt;Node4</title>
<g id="a_edge9_Node000009_Node000004"><a xlink:title=" ">
<path fill="none" stroke="#63b8ff" d="M473.02,-3542598.24C465.96,-3538227.5 -666.21,-2836163.37 599.05,-2834062.32 616.69,-2834033.03 649.41,-2834055.62 667.05,-2834026.32 867.19,-2833693.96 856.19,-2551800 820.8,-2343754.34"/>
<polygon fill="#63b8ff" stroke="#63b8ff" points="824.3,-2343754.54 820.8,-2343744.55 817.3,-2343754.55 824.3,-2343754.54"/>
</a>
</g>
</g>
<!-- Node9&#45;&gt;Node8 -->
<g id="edge25_Node000009_Node000008" class="edge">
<title>Node9&#45;&gt;Node8</title>
<g id="a_edge25_Node000009_Node000008"><a xlink:title=" ">
<path fill="none" stroke="#63b8ff" d="M473.04,-3542598.12C471.32,-3539328.37 265.85,-3147639.6 191.05,-2834026.32 40.85,-2204293.56 79.05,-2046860.35 79.05,-1417127.57 79.05,-1417127.57 79.05,-1417127.57 79.05,-1417055.38 79.05,-789101.43 316.65,-4618.63 318.04,-30.47"/>
<polygon fill="#63b8ff" stroke="#63b8ff" points="321.54,-30.49 318.05,-20.49 314.54,-30.49 321.54,-30.49"/>
</a>
</g>
</g>
<!-- Node10 -->
<g id="Node000010" class="node">
<title>Node10</title>
<g id="a_Node000010"><a xlink:href="sqsh__extract__private_8h.html" target="_top" xlink:title=" ">
<polygon fill="white" stroke="#666666" points="743.55,-1417139.57 562.55,-1417139.57 562.55,-1417113.57 743.55,-1417113.57 743.55,-1417139.57"/>
<text text-anchor="middle" x="653.05" y="-1417126.07" font-family="Helvetica,sans-Serif" font-size="10.00">sqsh_extract_private.h</text>
</a>
</g>
</g>
<!-- Node9&#45;&gt;Node10 -->
<g id="edge10_Node000009_Node000010" class="edge">
<title>Node9&#45;&gt;Node10</title>
<g id="a_edge10_Node000009_Node000010"><a xlink:title=" ">
<path fill="none" stroke="#63b8ff" d="M473.03,-3542598.24C468.09,-3538228.56 -323.74,-2836334.71 599.05,-2834062.32 607.45,-2834041.65 625.66,-2834047 634.05,-2834026.32 634.05,-2834026.32 652.96,-1423818.73 653.05,-1417151.29"/>
<polygon fill="#63b8ff" stroke="#63b8ff" points="656.55,-1417151.49 653.05,-1417141.49 649.55,-1417151.49 656.55,-1417151.49"/>
</a>
</g>
</g>
<!-- Node14 -->
<g id="Node000014" class="node">
<title>Node14</title>
<g id="a_Node000014"><a xlink:href="sqsh__mapper__private_8h.html" target="_top" xlink:title=" ">
<polygon fill="white" stroke="#666666" points="487.8,-1417147.76 314.3,-1417147.76 314.3,-1417105.38 487.8,-1417105.38 487.8,-1417147.76"/>
<text text-anchor="middle" x="401.05" y="-1417134.26" font-family="Helvetica,sans-Serif" font-size="10.00">sqsh_mapper_private.h</text>
</a>
</g>
</g>
<!-- Node9&#45;&gt;Node14 -->
<g id="edge15_Node000009_Node000014" class="edge">
<title>Node9&#45;&gt;Node14</title>
<g id="a_edge15_Node000009_Node000014"><a xlink:title=" ">
<path fill="none" stroke="#63b8ff" d="M473.05,-3542598.12C472.72,-3539328.37 433.88,-3147639.59 420.05,-2834026.32 392.38,-2206617.55 400.99,-1422935.44 401.05,-1417159.69"/>
<polygon fill="#63b8ff" stroke="#63b8ff" points="404.55,-1417159.75 401.05,-1417149.75 397.55,-1417159.75 404.55,-1417159.75"/>
</a>
</g>
</g>
<!-- Node16 -->
<g id="Node000016" class="node">
<title>Node16</title>
<g id="a_Node000016"><a xlink:title=" ">
<polygon fill="#e0e0e0" stroke="#999999" points="280.8,-1417065.63 107.3,-1417065.63 107.3,-1417047.13 280.8,-1417047.13 280.8,-1417065.63"/>
<text text-anchor="middle" x="194.05" y="-1417052.13" font-family="Helvetica,sans-Serif" font-size="10.00">sqsh_reader_private.h</text>
</a>
</g>
</g>
<!-- Node9&#45;&gt;Node16 -->
<g id="edge24_Node000009_Node000016" class="edge">
<title>Node9&#45;&gt;Node16</title>
<g id="a_edge24_Node000009_Node000016"><a xlink:title=" ">
<path fill="none" stroke="#63b8ff" d="M473.05,-3542598.08C472.05,-3534984.81 195.03,-1424545.28 194.05,-1417077.25"/>
<polygon fill="#63b8ff" stroke="#63b8ff" points="197.55,-1417077.43 194.05,-1417067.43 190.55,-1417077.43 197.55,-1417077.43"/>
</a>
</g>
</g>
<!-- Node9&#45;&gt;Node17 -->
<g id="edge21_Node000009_Node000017" class="edge">
<title>Node9&#45;&gt;Node17</title>
<g id="a_edge21_Node000009_Node000017"><a xlink:title=" ">
<path fill="none" stroke="#63b8ff" d="M473.05,-3542598.24C473.29,-3536411.99 526.82,-2131753.05 527.05,-2125626.14"/>
<polygon fill="#63b8ff" stroke="#63b8ff" points="530.55,-2125626.26 527.05,-2125616.25 523.55,-2125626.25 530.55,-2125626.26"/>
</a>
</g>
</g>
<!-- Node11 -->
<g id="Node000011" class="node">
<title>Node11</title>
<g id="a_Node000011"><a xlink:title=" ">
<polygon fill="#e0e0e0" stroke="#999999" points="781.05,-1417065.63 615.05,-1417065.63 615.05,-1417047.13 781.05,-1417047.13 781.05,-1417065.63"/>
<text text-anchor="middle" x="698.05" y="-1417052.13" font-family="Helvetica,sans-Serif" font-size="10.00">cextras/collection.h</text>
</a>
</g>
</g>
<!-- Node10&#45;&gt;Node11 -->
<g id="edge11_Node000010_Node000011" class="edge">
<title>Node10&#45;&gt;Node11</title>
<g id="a_edge11_Node000010_Node000011"><a xlink:title=" ">
<path fill="none" stroke="#63b8ff" d="M661.1,-1417113.38C668.06,-1417102.83 678.22,-1417087.44 686.12,-1417075.45"/>
<polygon fill="#63b8ff" stroke="#63b8ff" points="688.93,-1417077.55 691.52,-1417067.28 683.09,-1417073.69 688.93,-1417077.55"/>
</a>
</g>
</g>
<!-- Node12 -->
<g id="Node000012" class="node">
<title>Node12</title>
<g id="a_Node000012"><a xlink:href="sqsh__data_8h.html" target="_top" xlink:title=" ">
<polygon fill="white" stroke="#666666" points="897.3,-1417065.63 798.8,-1417065.63 798.8,-1417047.13 897.3,-1417047.13 897.3,-1417065.63"/>
<text text-anchor="middle" x="848.05" y="-1417052.13" font-family="Helvetica,sans-Serif" font-size="10.00">sqsh_data.h</text>
</a>
</g>
</g>
<!-- Node10&#45;&gt;Node12 -->
<g id="edge12_Node000010_Node000012" class="edge">
<title>Node10&#45;&gt;Node12</title>
<g id="a_edge12_Node000010_Node000012"><a xlink:title=" ">
<path fill="none" stroke="#63b8ff" d="M688.36,-1417113.22C723.52,-1417100.93 777.19,-1417082.16 812.45,-1417069.83"/>
<polygon fill="#63b8ff" stroke="#63b8ff" points="813.49,-1417073.18 821.78,-1417066.57 811.18,-1417066.57 813.49,-1417073.18"/>
</a>
</g>
</g>
<!-- Node13 -->
<g id="Node000013" class="node">
<title>Node13</title>
<g id="a_Node000013"><a xlink:title=" ">
<polygon fill="#e0e0e0" stroke="#999999" points="597.05,-1417065.63 431.05,-1417065.63 431.05,-1417047.13 597.05,-1417047.13 597.05,-1417065.63"/>
<text text-anchor="middle" x="514.05" y="-1417052.13" font-family="Helvetica,sans-Serif" font-size="10.00">sqsh_utils_private.h</text>
</a>
</g>
</g>
<!-- Node10&#45;&gt;Node13 -->
<g id="edge14_Node000010_Node000013" class="edge">
<title>Node10&#45;&gt;Node13</title>
<g id="a_edge14_Node000010_Node000013"><a xlink:title=" ">
<path fill="none" stroke="#63b8ff" d="M627.88,-1417113.22C603.62,-1417101.32 566.99,-1417083.35 541.87,-1417071.03"/>
<polygon fill="#63b8ff" stroke="#63b8ff" points="543.43,-1417067.9 532.91,-1417066.64 540.35,-1417074.18 543.43,-1417067.9"/>
</a>
</g>
</g>
<!-- Node12&#45;&gt;Node5 -->
<g id="edge13_Node000012_Node000005" class="edge">
<title>Node12&#45;&gt;Node5</title>
<g id="a_edge13_Node000012_Node000005"><a xlink:title=" ">
<path fill="none" stroke="#63b8ff" d="M848.05,-1417046.77C848.05,-1417040.71 848.05,-1417031.44 848.05,-1417018.99"/>
<polygon fill="#63b8ff" stroke="#63b8ff" points="851.55,-1417019.29 848.05,-1417009.29 844.55,-1417019.29 851.55,-1417019.29"/>
</a>
</g>
</g>
<!-- Node14&#45;&gt;Node13 -->
<g id="edge20_Node000014_Node000013" class="edge">
<title>Node14&#45;&gt;Node13</title>
<g id="a_edge20_Node000014_Node000013"><a xlink:title=" ">
<path fill="none" stroke="#63b8ff" d="M435.26,-1417104.93C452.95,-1417094.25 474.11,-1417081.48 490.05,-1417071.86"/>
<polygon fill="#63b8ff" stroke="#63b8ff" points="491.63,-1417075 498.38,-1417066.84 488.01,-1417069.01 491.63,-1417075"/>
</a>
</g>
</g>
<!-- Node15 -->
<g id="Node000015" class="node">
<title>Node15</title>
<g id="a_Node000015"><a xlink:href="sqsh__mapper_8h.html" target="_top" xlink:title=" ">
<polygon fill="white" stroke="#666666" points="412.8,-1417069.38 299.3,-1417069.38 299.3,-1417043.38 412.8,-1417043.38 412.8,-1417069.38"/>
<text text-anchor="middle" x="356.05" y="-1417055.88" font-family="Helvetica,sans-Serif" font-size="10.00">sqsh_mapper.h</text>
</a>
</g>
</g>
<!-- Node14&#45;&gt;Node15 -->
<g id="edge16_Node000014_Node000015" class="edge">
<title>Node14&#45;&gt;Node15</title>
<g id="a_edge16_Node000014_Node000015"><a xlink:title=" ">
<path fill="none" stroke="#63b8ff" d="M387.55,-1417105.11C382.1,-1417096.86 375.81,-1417087.33 370.29,-1417078.96"/>
<polygon fill="#63b8ff" stroke="#63b8ff" points="373.31,-1417077.18 364.88,-1417070.76 367.47,-1417081.04 373.31,-1417077.18"/>
</a>
</g>
</g>
<!-- Node14&#45;&gt;Node16 -->
<g id="edge19_Node000014_Node000016" class="edge">
<title>Node14&#45;&gt;Node16</title>
<g id="a_edge19_Node000014_Node000016"><a xlink:title=" ">
<path fill="none" stroke="#63b8ff" d="M338.38,-1417104.93C303.35,-1417093.39 260.89,-1417079.4 231.12,-1417069.59"/>
<polygon fill="#63b8ff" stroke="#63b8ff" points="232.41,-1417066.33 221.81,-1417066.53 230.22,-1417072.98 232.41,-1417066.33"/>
</a>
</g>
</g>
<!-- Node15&#45;&gt;Node5 -->
<g id="edge17_Node000015_Node000005" class="edge">
<title>Node15&#45;&gt;Node5</title>
<g id="a_edge17_Node000015_Node000005"><a xlink:title=" ">
<path fill="none" stroke="#63b8ff" d="M382.01,-1417043.02C395.73,-1417034.97 411.3,-1417023.03 419.05,-1417007.38 1309.42,-1415210.86 1000.15,-945675.62 855.31,-772074.24"/>
<polygon fill="#63b8ff" stroke="#63b8ff" points="858.81,-772074.32 855.3,-772064.33 851.81,-772074.33 858.81,-772074.32"/>
</a>
</g>
</g>
<!-- Node15&#45;&gt;Node7 -->
<g id="edge18_Node000015_Node000007" class="edge">
<title>Node15&#45;&gt;Node7</title>
<g id="a_edge18_Node000015_Node000007"><a xlink:title=" ">
<path fill="none" stroke="#63b8ff" d="M356.05,-1417042.98C356.89,-1412226.63 600.98,-6163.41 602.05,-30.37"/>
<polygon fill="#63b8ff" stroke="#63b8ff" points="605.55,-30.47 602.05,-20.47 598.55,-30.47 605.55,-30.47"/>
</a>
</g>
</g>
<!-- Node17&#45;&gt;Node10 -->
<g id="edge22_Node000017_Node000010" class="edge">
<title>Node17&#45;&gt;Node10</title>
<g id="a_edge22_Node000017_Node000010"><a xlink:title=" ">
<path fill="none" stroke="#63b8ff" d="M527.05,-2125595.46C526.3,-2122762.99 339.88,-1419620.3 639.05,-1417183.76 640.41,-1417172.72 643.21,-1417160.72 645.95,-1417150.66"/>
<polygon fill="#63b8ff" stroke="#63b8ff" points="649.22,-1417151.94 648.63,-1417141.36 642.5,-1417150 649.22,-1417151.94"/>
</a>
</g>
</g>
<!-- Node17&#45;&gt;Node14 -->
<g id="edge23_Node000017_Node000014" class="edge">
<title>Node17&#45;&gt;Node14</title>
<g id="a_edge23_Node000017_Node000014"><a xlink:title=" ">
<path fill="none" stroke="#63b8ff" d="M527.05,-2125595.46C527.8,-2122762.99 714.22,-1419620.3 415.05,-1417183.76 414.06,-1417175.72 412.31,-1417167.17 410.37,-1417159.23"/>
<polygon fill="#63b8ff" stroke="#63b8ff" points="413.77,-1417158.41 407.85,-1417149.62 407,-1417160.18 413.77,-1417158.41"/>
</a>
</g>
</g>
<!-- Node18&#45;&gt;Node4 -->
<g id="edge29_Node000018_Node000004" class="edge">
<title>Node18&#45;&gt;Node4</title>
<g id="a_edge29_Node000018_Node000004"><a xlink:title=" ">
<path fill="none" stroke="#63b8ff" d="M811.05,-3542609.99C810.99,-3540586.13 801.02,-3187299.79 791.05,-2834038.07"/>
<polygon fill="#63b8ff" stroke="#63b8ff" points="794.55,-2834038.22 791.05,-2834028.22 787.55,-2834038.22 794.55,-2834038.22"/>
</a>
</g>
</g>
<!-- Node18&#45;&gt;Node5 -->
<g id="edge28_Node000018_Node000005" class="edge">
<title>Node18&#45;&gt;Node5</title>
<g id="a_edge28_Node000018_Node000005"><a xlink:title=" ">
<path fill="none" stroke="#63b8ff" d="M811.05,-3542610.15C811.65,-3538943.59 1002.91,-2360307.69 921.05,-1417105.38 908.38,-1271081.55 881.01,-1108130.53 855.3,-975345.45"/>
<polygon fill="#63b8ff" stroke="#63b8ff" points="858.8,-975345.57 855.3,-975335.57 851.8,-975345.57 858.8,-975345.57"/>
</a>
</g>
</g>
</g>
</svg>

<g id="navigator" transform="translate(0 0)" fill="#404254">
  <rect fill="#f2f5e9" fill-opacity="0.5" stroke="#606060" stroke-width=".5" x="0" y="0" width="60" height="60"/>
  <use id="zoomplus" xlink:href="#zoomPlus" x="17" y="9" onmousedown="handleZoom(evt,'in')"/>
  <use id="zoomminus" xlink:href="#zoomMin" x="42" y="9" onmousedown="handleZoom(evt,'out')"/>
  <use id="reset" xlink:href="#resetDef" x="30" y="36" onmousedown="handleReset()"/>
   <use id="arrowup" xlink:href="#arrowUp" x="0" y="0" onmousedown="handlePan(0,-1)"/>
  <use id="arrowright" xlink:href="#arrowRight" x="0" y="0" onmousedown="handlePan(1,0)"/>
  <use id="arrowdown" xlink:href="#arrowDown" x="0" y="0" onmousedown="handlePan(0,1)"/>
  <use id="arrowleft" xlink:href="#arrowLeft" x="0" y="0" onmousedown="handlePan(-1,0)"/>
</g>
<svg viewBox="0 0 15 15" width="100%" height="30px" preserveAspectRatio="xMaxYMin meet">
 <g id="arrow_out" transform="scale(0.3 0.3)">
  <a xlink:href="sqsh__tree__private_8h__incl_org.svg" target="_base">
   <rect id="button" ry="5" rx="5" y="6" x="6" height="38" width="38"
        fill="#f2f5e9" fill-opacity="0.5" stroke="#606060" stroke-width="1.0"/>
   <path id="arrow"
     d="M 11.500037,31.436501 C 11.940474,20.09759 22.043105,11.32322 32.158766,21.979434 L 37.068811,17.246167 C 37.068811,17.246167 37.088388,32 37.088388,32 L 22.160133,31.978069 C 22.160133,31.978069 26.997745,27.140456 26.997745,27.140456 C 18.528582,18.264221 13.291696,25.230495 11.500037,31.436501 z"
     style="fill:#404040;"/>
  </a>
 </g>
</svg>

<style type='text/css'>
<![CDATA[
[data-mouse-over-selected='false'] { opacity: 0.7; }
[data-mouse-over-selected='true']  { opacity: 1.0; }
]]>
</style>
<script type="application/ecmascript"><![CDATA[
document.addEventListener('DOMContentLoaded', (event) => {
  highlightEdges();
  highlightAdjacentNodes();
});
]]></script>
</svg>
