<?xml version="1.0" encoding="UTF-8" standalone="no"?>
<!DOCTYPE svg PUBLIC "-//W3C//DTD SVG 1.1//EN"
 "http://www.w3.org/Graphics/SVG/1.1/DTD/svg11.dtd">
<!-- Generated by graphviz version 9.0.0 (20230911.1827)
 -->
<!-- Title: include/sqsh_table.h Pages: 1 -->
<!--zoomable 989728 -->

<svg id="main" version="1.1" xmlns="http://www.w3.org/2000/svg" xmlns:xlink="http://www.w3.org/1999/xlink" xml:space="preserve" onload="init(evt)">
<style type="text/css"><![CDATA[
.node, .edge {opacity: 0.7;}
.node.selected, .edge.selected {opacity: 1;}
.edge:hover path { stroke: red; }
.edge:hover polygon { stroke: red; fill: red; }
]]></style>

<defs>
  <circle id="rim" cx="0" cy="0" r="7"/>
  <circle id="rim2" cx="0" cy="0" r="3.5"/>
  <g id="zoomPlus">
    <use xlink:href="#rim" fill="#404040"><set attributeName="fill" to="#808080" begin="zoomplus.mouseover" end="zoomplus.mouseout"/></use>
    <path d="M-4,0h8M0,-4v8" fill="none" stroke="white" stroke-width="1.5" pointer-events="none"/>
  </g>
  <g id="zoomMin">
    <use xlink:href="#rim" fill="#404040"><set attributeName="fill" to="#808080" begin="zoomminus.mouseover" end="zoomminus.mouseout"/></use>
    <path d="M-4,0h8" fill="none" stroke="white" stroke-width="1.5" pointer-events="none"/>
  </g>
  <g id="arrowUp" transform="translate(30 24)">
    <use xlink:href="#rim"/>
    <path pointer-events="none" fill="none" stroke="white" stroke-width="1.5" d="M0,-3.0v7 M-2.5,-0.5L0,-3.0L2.5,-0.5"/>
  </g>
  <g id="arrowRight" transform="rotate(90) translate(36 -43)">
    <use xlink:href="#rim"/>
    <path pointer-events="none" fill="none" stroke="white" stroke-width="1.5" d="M0,-3.0v7 M-2.5,-0.5L0,-3.0L2.5,-0.5"/>
  </g>
  <g id="arrowDown" transform="rotate(180) translate(-30 -48)">
    <use xlink:href="#rim"/>
    <path pointer-events="none" fill="none" stroke="white" stroke-width="1.5" d="M0,-3.0v7 M-2.5,-0.5L0,-3.0L2.5,-0.5"/>
  </g>
  <g id="arrowLeft" transform="rotate(270) translate(-36 17)">
    <use xlink:href="#rim"/>
    <path pointer-events="none" fill="none" stroke="white" stroke-width="1.5" d="M0,-3.0v7 M-2.5,-0.5L0,-3.0L2.5,-0.5"/>
  </g>
  <g id="resetDef">
    <use xlink:href="#rim2" fill="#404040"><set attributeName="fill" to="#808080" begin="reset.mouseover" end="reset.mouseout"/></use>
  </g>
</defs>
<script type="application/ecmascript">
var viewWidth = 2232;
var viewHeight = 989728;
var sectionId = 'dynsection-1';
</script>
<script type="application/ecmascript" xlink:href="svg.min.js"/>
<svg id="graph" class="graph">
<g id="viewport">
<title>include/sqsh_table.h</title>
<!-- Node1 -->
<g id="Node000001" class="node">
<title>Node1</title>
<g id="a_Node000001"><a xlink:title=" ">
<polygon fill="#999999" stroke="#666666" points="1257,-989720.14 1091,-989720.14 1091,-989701.64 1257,-989701.64 1257,-989720.14"/>
<text text-anchor="middle" x="1174" y="-989706.64" font-family="Helvetica,sans-Serif" font-size="10.00">include/sqsh_table.h</text>
</a>
</g>
</g>
<!-- Node2 -->
<g id="Node000002" class="node">
<title>Node2</title>
<g id="a_Node000002"><a xlink:href="sqsh_8h.html" target="_top" xlink:title=" ">
<polygon fill="white" stroke="#666666" points="1153.5,-824697.68 1032.5,-824697.68 1032.5,-494755.41 1153.5,-494755.41 1153.5,-824697.68"/>
<text text-anchor="middle" x="1093" y="-824684.18" font-family="Helvetica,sans-Serif" font-size="10.00">include/sqsh.h</text>
</a>
</g>
</g>
<!-- Node1&#45;&gt;Node2 -->
<g id="edge1_Node000001_Node000002" class="edge">
<title>Node1&#45;&gt;Node2</title>
<g id="a_edge1_Node000001_Node000002"><a xlink:title=" ">
<path fill="none" stroke="#63b8ff" d="M1174,-989690.11C1173.64,-988232.4 1153.57,-906461.66 1133.49,-824697.77"/>
<polygon fill="#63b8ff" stroke="#63b8ff" points="1170.49,-989689.9 1174,-989699.9 1177.49,-989689.9 1170.49,-989689.9"/>
</a>
</g>
</g>
<!-- Node13 -->
<g id="Node000013" class="node">
<title>Node13</title>
<g id="a_Node000013"><a xlink:href="sqsh__table__private_8h.html" target="_top" xlink:title=" ">
<polygon fill="white" stroke="#666666" points="1781,-989665.64 1615,-989665.64 1615,-329787.45 1781,-329787.45 1781,-989665.64"/>
<text text-anchor="start" x="1623" y="-989652.14" font-family="Helvetica,sans-Serif" font-size="10.00">libsqsh/include/sqsh</text>
<text text-anchor="middle" x="1698" y="-659717.07" font-family="Helvetica,sans-Serif" font-size="10.00">_table_private.h</text>
</a>
</g>
</g>
<!-- Node1&#45;&gt;Node13 -->
<g id="edge12_Node000001_Node000013" class="edge">
<title>Node1&#45;&gt;Node13</title>
<g id="a_edge12_Node000001_Node000013"><a xlink:title=" ">
<path fill="none" stroke="#63b8ff" d="M1174.03,-989690.13C1177.5,-987506.6 1467.48,-804893.78 1614.5,-712310.37"/>
<polygon fill="#63b8ff" stroke="#63b8ff" points="1170.53,-989689.89 1174.02,-989699.9 1177.53,-989689.9 1170.53,-989689.89"/>
</a>
</g>
</g>
<!-- Node3 -->
<g id="Node000003" class="node">
<title>Node3</title>
<g id="a_Node000003"><a xlink:href="custom__mapper_8c.html" target="_top" xlink:title=" ">
<polygon fill="white" stroke="#666666" points="196,-329751.45 0,-329751.45 0,-72.5 196,-72.5 196,-329751.45"/>
<text text-anchor="middle" x="98" y="-329737.95" font-family="Helvetica,sans-Serif" font-size="10.00">examples/custom_mapper.c</text>
</a>
</g>
</g>
<!-- Node2&#45;&gt;Node3 -->
<g id="edge2_Node000002_Node000003" class="edge">
<title>Node2&#45;&gt;Node3</title>
<g id="a_edge2_Node000002_Node000003"><a xlink:title=" ">
<path fill="none" stroke="#63b8ff" d="M1031.96,-641818.01C865.7,-592225.24 403.98,-448890.43 205,-329751.45 202.09,-328008.67 199.26,-326255.53 196.5,-324493.5"/>
<polygon fill="#63b8ff" stroke="#63b8ff" points="1028.46,-641817.86 1031.99,-641827.85 1035.46,-641817.84 1028.46,-641817.86"/>
</a>
</g>
</g>
<!-- Node4 -->
<g id="Node000004" class="node">
<title>Node4</title>
<g id="a_Node000004"><a xlink:href="list__dir_8c.html" target="_top" xlink:title=" ">
<polygon fill="white" stroke="#666666" points="372.25,-164919.17 213.75,-164919.17 213.75,-164904.77 372.25,-164904.77 372.25,-164919.17"/>
<text text-anchor="middle" x="293" y="-164902.47" font-family="Helvetica,sans-Serif" font-size="10.00">examples/list_dir.c</text>
</a>
</g>
</g>
<!-- Node2&#45;&gt;Node4 -->
<g id="edge3_Node000002_Node000004" class="edge">
<title>Node2&#45;&gt;Node4</title>
<g id="a_edge3_Node000002_Node000004"><a xlink:title=" ">
<path fill="none" stroke="#63b8ff" d="M1031.97,-637214.8C889.99,-583836.98 537.81,-445395.56 382,-329751.45 283.78,-256847.68 292.91,-165806.84 293,-164919.51"/>
<polygon fill="#63b8ff" stroke="#63b8ff" points="1028.47,-637214.59 1032,-637224.58 1035.47,-637214.57 1028.47,-637214.59"/>
</a>
</g>
</g>
<!-- Node5 -->
<g id="Node000005" class="node">
<title>Node5</title>
<g id="a_Node000005"><a xlink:href="list__dir__ll_8c.html" target="_top" xlink:title=" ">
<polygon fill="white" stroke="#666666" points="571.5,-164926.79 390.5,-164926.79 390.5,-164897.16 571.5,-164897.16 571.5,-164926.79"/>
<text text-anchor="middle" x="481" y="-164913.29" font-family="Helvetica,sans-Serif" font-size="10.00">examples/list_dir_ll.c</text>
</a>
</g>
</g>
<!-- Node2&#45;&gt;Node5 -->
<g id="edge4_Node000002_Node000005" class="edge">
<title>Node2&#45;&gt;Node5</title>
<g id="a_edge4_Node000002_Node000005"><a xlink:title=" ">
<path fill="none" stroke="#63b8ff" d="M1031.98,-626998.42C923.74,-567721.93 698.5,-438632.24 581,-329751.45 502.51,-257017.57 481.3,-166231.13 481,-164927.18"/>
<polygon fill="#63b8ff" stroke="#63b8ff" points="1028.48,-626998.11 1032,-627008.1 1035.48,-626998.1 1028.48,-626998.11"/>
</a>
</g>
</g>
<!-- Node6 -->
<g id="Node000006" class="node">
<title>Node6</title>
<g id="a_Node000006"><a xlink:href="list__xattrs_8c.html" target="_top" xlink:title=" ">
<polygon fill="white" stroke="#666666" points="770.5,-164921.26 589.5,-164921.26 589.5,-164902.69 770.5,-164902.69 770.5,-164921.26"/>
<text text-anchor="middle" x="680" y="-164907.76" font-family="Helvetica,sans-Serif" font-size="10.00">examples/list_xattrs.c</text>
</a>
</g>
</g>
<!-- Node2&#45;&gt;Node6 -->
<g id="edge5_Node000002_Node000006" class="edge">
<title>Node2&#45;&gt;Node6</title>
<g id="a_edge5_Node000002_Node000006"><a xlink:title=" ">
<path fill="none" stroke="#63b8ff" d="M1031.99,-602047.98C963.74,-536185.82 853.08,-425202.99 779,-329751.45 722.46,-256901.29 680.47,-165940.85 680,-164921.62"/>
<polygon fill="#63b8ff" stroke="#63b8ff" points="1028.49,-602047.77 1032,-602057.77 1035.49,-602047.77 1028.49,-602047.77"/>
</a>
</g>
</g>
<!-- Node7 -->
<g id="Node000007" class="node">
<title>Node7</title>
<g id="a_Node000007"><a xlink:href="list__xattrs__ll_8c.html" target="_top" xlink:title=" ">
<polygon fill="white" stroke="#666666" points="991.75,-164921.22 788.25,-164921.22 788.25,-164902.72 991.75,-164902.72 991.75,-164921.22"/>
<text text-anchor="middle" x="890" y="-164907.72" font-family="Helvetica,sans-Serif" font-size="10.00">examples/list_xattrs_ll.c</text>
</a>
</g>
</g>
<!-- Node2&#45;&gt;Node7 -->
<g id="edge6_Node000002_Node000007" class="edge">
<title>Node2&#45;&gt;Node7</title>
<g id="a_edge6_Node000002_Node000007"><a xlink:title=" ">
<path fill="none" stroke="#63b8ff" d="M1032,-511026.94C972.43,-365848.06 890.62,-166428.81 890,-164921.57"/>
<polygon fill="#63b8ff" stroke="#63b8ff" points="1028.5,-511026.65 1032,-511036.65 1035.5,-511026.64 1028.5,-511026.65"/>
</a>
</g>
</g>
<!-- Node8 -->
<g id="Node000008" class="node">
<title>Node8</title>
<g id="a_Node000008"><a xlink:href="read__file_8c.html" target="_top" xlink:title=" ">
<polygon fill="white" stroke="#666666" points="1176,-164921.22 1010,-164921.22 1010,-164902.72 1176,-164902.72 1176,-164921.22"/>
<text text-anchor="middle" x="1093" y="-164907.72" font-family="Helvetica,sans-Serif" font-size="10.00">examples/read_file.c</text>
</a>
</g>
</g>
<!-- Node2&#45;&gt;Node8 -->
<g id="edge7_Node000002_Node000008" class="edge">
<title>Node2&#45;&gt;Node8</title>
<g id="a_edge7_Node000002_Node000008"><a xlink:title=" ">
<path fill="none" stroke="#63b8ff" d="M1093,-494743.47C1093,-351394.35 1093,-166364.87 1093,-164921.47"/>
<polygon fill="#63b8ff" stroke="#63b8ff" points="1089.5,-494743.44 1093,-494753.44 1096.5,-494743.44 1089.5,-494743.44"/>
</a>
</g>
</g>
<!-- Node9 -->
<g id="Node000009" class="node">
<title>Node9</title>
<g id="a_Node000009"><a xlink:href="read__file__ll_8c.html" target="_top" xlink:title=" ">
<polygon fill="white" stroke="#666666" points="1382.25,-164921.22 1193.75,-164921.22 1193.75,-164902.72 1382.25,-164902.72 1382.25,-164921.22"/>
<text text-anchor="middle" x="1288" y="-164907.72" font-family="Helvetica,sans-Serif" font-size="10.00">examples/read_file_ll.c</text>
</a>
</g>
</g>
<!-- Node2&#45;&gt;Node9 -->
<g id="edge8_Node000002_Node000009" class="edge">
<title>Node2&#45;&gt;Node9</title>
<g id="a_edge8_Node000002_Node000009"><a xlink:title=" ">
<path fill="none" stroke="#63b8ff" d="M1154,-504926.93C1210.99,-360329.89 1287.41,-166410.83 1288,-164921.6"/>
<polygon fill="#63b8ff" stroke="#63b8ff" points="1150.5,-504926.58 1154,-504936.58 1157.5,-504926.58 1150.5,-504926.58"/>
</a>
</g>
</g>
<!-- Node10 -->
<g id="Node000010" class="node">
<title>Node10</title>
<g id="a_Node000010"><a xlink:href="readme__example_8c.html" target="_top" xlink:title=" ">
<polygon fill="white" stroke="#666666" points="1603.75,-164933.21 1400.25,-164933.21 1400.25,-164890.74 1603.75,-164890.74 1603.75,-164933.21"/>
<text text-anchor="middle" x="1502" y="-164919.71" font-family="Helvetica,sans-Serif" font-size="10.00">examples/readme_example.c</text>
</a>
</g>
</g>
<!-- Node2&#45;&gt;Node10 -->
<g id="edge9_Node000002_Node000010" class="edge">
<title>Node2&#45;&gt;Node10</title>
<g id="a_edge9_Node000002_Node000010"><a xlink:title=" ">
<path fill="none" stroke="#63b8ff" d="M1154.01,-596916.23C1217.49,-530529.01 1317.68,-422766.04 1391,-329751.45 1448.25,-257124.87 1501.08,-166498.99 1501.99,-164933.54"/>
<polygon fill="#63b8ff" stroke="#63b8ff" points="1150.51,-596916.11 1154,-596926.12 1157.51,-596916.12 1150.51,-596916.11"/>
</a>
</g>
</g>
<!-- Node11 -->
<g id="Node000011" class="node">
<title>Node11</title>
<g id="a_Node000011"><a xlink:href="traverse__dir_8c.html" target="_top" xlink:title=" ">
<polygon fill="white" stroke="#666666" points="1810.25,-164924.97 1621.75,-164924.97 1621.75,-164898.97 1810.25,-164898.97 1810.25,-164924.97"/>
<text text-anchor="middle" x="1716" y="-164911.47" font-family="Helvetica,sans-Serif" font-size="10.00">examples/traverse_dir.c</text>
</a>
</g>
</g>
<!-- Node2&#45;&gt;Node11 -->
<g id="edge10_Node000002_Node000011" class="edge">
<title>Node2&#45;&gt;Node11</title>
<g id="a_edge10_Node000002_Node000011"><a xlink:title=" ">
<path fill="none" stroke="#63b8ff" d="M1031.96,-643394.65C802.48,-579011.39 79.79,-345504.61 1606,-329787.45 1607.58,-329771.23 1611.43,-329767.67 1613,-329751.45 1832.1,-327484.19 1717.18,-166555.89 1716.01,-164925.45"/>
<polygon fill="#63b8ff" stroke="#63b8ff" points="1028.46,-643394.56 1032,-643404.55 1035.46,-643394.54 1028.46,-643394.56"/>
</a>
</g>
</g>
<!-- Node12 -->
<g id="Node000012" class="node">
<title>Node12</title>
<g id="a_Node000012"><a xlink:href="traverse__dir__ll_8c.html" target="_top" xlink:title=" ">
<polygon fill="white" stroke="#666666" points="2039.5,-164921.22 1828.5,-164921.22 1828.5,-164902.72 2039.5,-164902.72 2039.5,-164921.22"/>
<text text-anchor="middle" x="1934" y="-164907.72" font-family="Helvetica,sans-Serif" font-size="10.00">examples/traverse_dir_ll.c</text>
</a>
</g>
</g>
<!-- Node2&#45;&gt;Node12 -->
<g id="edge11_Node000002_Node000012" class="edge">
<title>Node2&#45;&gt;Node12</title>
<g id="a_edge11_Node000002_Node000012"><a xlink:title=" ">
<path fill="none" stroke="#63b8ff" d="M1031.92,-651224.11C671.74,-599849.88 -1069.62,-332948.24 1606,-329787.45 1668.03,-329714.17 1757,-329824.76 1819,-329751.45 2187.05,-329316.28 1936.13,-166294.8 1934.01,-164921.7"/>
<polygon fill="#63b8ff" stroke="#63b8ff" points="1028.42,-651224.08 1031.99,-651234.05 1035.42,-651224.03 1028.42,-651224.08"/>
</a>
</g>
</g>
<!-- Node14 -->
<g id="Node000014" class="node">
<title>Node14</title>
<g id="a_Node000014"><a xlink:href="sqsh__xattr__private_8h.html" target="_top" xlink:title=" ">
<polygon fill="white" stroke="#666666" points="2224,-164938.46 2058,-164938.46 2058,-164885.49 2224,-164885.49 2224,-164938.46"/>
<text text-anchor="start" x="2066" y="-164924.96" font-family="Helvetica,sans-Serif" font-size="10.00">libsqsh/include/sqsh</text>
<text text-anchor="middle" x="2141" y="-164914.46" font-family="Helvetica,sans-Serif" font-size="10.00">_xattr_private.h</text>
</a>
</g>
</g>
<!-- Node13&#45;&gt;Node14 -->
<g id="edge13_Node000013_Node000014" class="edge">
<title>Node13&#45;&gt;Node14</title>
<g id="a_edge13_Node000013_Node000014"><a xlink:title=" ">
<path fill="none" stroke="#63b8ff" d="M1781.51,-590747.86C1859.94,-523989.9 1975.87,-419938.08 2049,-329751.45 2107.83,-257200.89 2140.36,-166688.68 2140.99,-164938.75"/>
<polygon fill="#63b8ff" stroke="#63b8ff" points="1778.01,-590747.8 1781.5,-590757.8 1785.01,-590747.81 1778.01,-590747.8"/>
</a>
</g>
</g>
<!-- Node15 -->
<g id="Node000015" class="node">
<title>Node15</title>
<g id="a_Node000015"><a xlink:href="sqsh__archive__private_8h.html" target="_top" xlink:title=" ">
<polygon fill="white" stroke="#666666" points="2224,-36.5 2058,-36.5 2058,0 2224,0 2224,-36.5"/>
<text text-anchor="start" x="2066" y="-23" font-family="Helvetica,sans-Serif" font-size="10.00">libsqsh/include/sqsh</text>
<text text-anchor="middle" x="2141" y="-5" font-family="Helvetica,sans-Serif" font-size="10.00">_archive_private.h</text>
</a>
</g>
</g>
<!-- Node14&#45;&gt;Node15 -->
<g id="edge14_Node000014_Node000015" class="edge">
<title>Node14&#45;&gt;Node15</title>
<g id="a_edge14_Node000014_Node000015"><a xlink:title=" ">
<path fill="none" stroke="#63b8ff" d="M2141,-164873.68C2141,-162068.61 2141,-1974.43 2141,-36.98"/>
<polygon fill="#63b8ff" stroke="#63b8ff" points="2137.5,-164873.49 2141,-164883.49 2144.5,-164873.49 2137.5,-164873.49"/>
</a>
</g>
</g>
</g>
</svg>

<g id="navigator" transform="translate(0 0)" fill="#404254">
  <rect fill="#f2f5e9" fill-opacity="0.5" stroke="#606060" stroke-width=".5" x="0" y="0" width="60" height="60"/>
  <use id="zoomplus" xlink:href="#zoomPlus" x="17" y="9" onmousedown="handleZoom(evt,'in')"/>
  <use id="zoomminus" xlink:href="#zoomMin" x="42" y="9" onmousedown="handleZoom(evt,'out')"/>
  <use id="reset" xlink:href="#resetDef" x="30" y="36" onmousedown="handleReset()"/>
   <use id="arrowup" xlink:href="#arrowUp" x="0" y="0" onmousedown="handlePan(0,-1)"/>
  <use id="arrowright" xlink:href="#arrowRight" x="0" y="0" onmousedown="handlePan(1,0)"/>
  <use id="arrowdown" xlink:href="#arrowDown" x="0" y="0" onmousedown="handlePan(0,1)"/>
  <use id="arrowleft" xlink:href="#arrowLeft" x="0" y="0" onmousedown="handlePan(-1,0)"/>
</g>
<svg viewBox="0 0 15 15" width="100%" height="30px" preserveAspectRatio="xMaxYMin meet">
 <g id="arrow_out" transform="scale(0.3 0.3)">
  <a xlink:href="sqsh__table_8h__dep__incl_org.svg" target="_base">
   <rect id="button" ry="5" rx="5" y="6" x="6" height="38" width="38"
        fill="#f2f5e9" fill-opacity="0.5" stroke="#606060" stroke-width="1.0"/>
   <path id="arrow"
     d="M 11.500037,31.436501 C 11.940474,20.09759 22.043105,11.32322 32.158766,21.979434 L 37.068811,17.246167 C 37.068811,17.246167 37.088388,32 37.088388,32 L 22.160133,31.978069 C 22.160133,31.978069 26.997745,27.140456 26.997745,27.140456 C 18.528582,18.264221 13.291696,25.230495 11.500037,31.436501 z"
     style="fill:#404040;"/>
  </a>
 </g>
</svg>

<style type='text/css'>
<![CDATA[
[data-mouse-over-selected='false'] { opacity: 0.7; }
[data-mouse-over-selected='true']  { opacity: 1.0; }
]]>
</style>
<script type="application/ecmascript"><![CDATA[
document.addEventListener('DOMContentLoaded', (event) => {
  highlightEdges();
  highlightAdjacentNodes();
});
]]></script>
</svg>
