<?xml version="1.0" encoding="UTF-8" standalone="no"?>
<!DOCTYPE svg PUBLIC "-//W3C//DTD SVG 1.1//EN"
 "http://www.w3.org/Graphics/SVG/1.1/DTD/svg11.dtd">
<!-- Generated by graphviz version 9.0.0 (20230911.1827)
 -->
<!-- Title: include/sqsh_posix.h Pages: 1 -->
<svg width="358pt" height="3095640pt"
 viewBox="0.00 0.00 358.47 3095640.03" xmlns="http://www.w3.org/2000/svg" xmlns:xlink="http://www.w3.org/1999/xlink">
<g id="graph0" class="graph" transform="scale(1 1) rotate(0) translate(4 3095636.03)">
<title>include/sqsh_posix.h</title>
<!-- Node1 -->
<g id="Node000001" class="node">
<title>Node1</title>
<g id="a_Node000001"><a xlink:title=" ">
<polygon fill="#999999" stroke="#666666" points="313.75,-3095632.03 147.75,-3095632.03 147.75,-3095613.53 313.75,-3095613.53 313.75,-3095632.03"/>
<text text-anchor="middle" x="230.75" y="-3095618.53" font-family="Helvetica,sans-Serif" font-size="10.00">include/sqsh_posix.h</text>
</a>
</g>
</g>
<!-- Node2 -->
<g id="Node000002" class="node">
<title>Node2</title>
<g id="a_Node000002"><a xlink:href="sqsh__common_8h.html" target="_top" xlink:title=" ">
<polygon fill="white" stroke="#666666" points="200.5,-3095577.53 87,-3095577.53 87,-1547806.62 200.5,-1547806.62 200.5,-3095577.53"/>
<text text-anchor="middle" x="143.75" y="-3095564.03" font-family="Helvetica,sans-Serif" font-size="10.00">sqsh_common.h</text>
</a>
</g>
</g>
<!-- Node1&#45;&gt;Node2 -->
<g id="edge1_Node000001_Node000002" class="edge">
<title>Node1&#45;&gt;Node2</title>
<g id="a_edge1_Node000001_Node000002"><a xlink:title=" ">
<path fill="none" stroke="#63b8ff" d="M227.15,-3095613.16C223.69,-3095604.37 218.72,-3095590.27 216.75,-3095577.53 -76.29,-3093680.41 12.1,-2699547.65 86.5,-2474560.11"/>
<polygon fill="#63b8ff" stroke="#63b8ff" points="90,-2474560.36 86.5,-2474550.35 83,-2474560.35 90,-2474560.36"/>
</a>
</g>
</g>
<!-- Node5 -->
<g id="Node000005" class="node">
<title>Node5</title>
<g id="a_Node000005"><a xlink:title=" ">
<polygon fill="#e0e0e0" stroke="#999999" points="271.75,-1547770.62 195.75,-1547770.62 195.75,0 271.75,0 271.75,-1547770.62"/>
<text text-anchor="middle" x="233.75" y="-1547757.12" font-family="Helvetica,sans-Serif" font-size="10.00">stdint.h</text>
</a>
</g>
</g>
<!-- Node1&#45;&gt;Node5 -->
<g id="edge5_Node000001_Node000005" class="edge">
<title>Node1&#45;&gt;Node5</title>
<g id="a_edge5_Node000001_Node000005"><a xlink:title=" ">
<path fill="none" stroke="#63b8ff" d="M230.75,-3095613.38C230.75,-3092495 231.88,-2221856.54 232.75,-1547781.96"/>
<polygon fill="#63b8ff" stroke="#63b8ff" points="236.25,-1547782.38 232.75,-1547772.38 229.25,-1547782.38 236.25,-1547782.38"/>
</a>
</g>
</g>
<!-- Node6 -->
<g id="Node000006" class="node">
<title>Node6</title>
<g id="a_Node000006"><a xlink:title=" ">
<polygon fill="#e0e0e0" stroke="#999999" points="327,-2321701.33 258.5,-2321701.33 258.5,-2321682.83 327,-2321682.83 327,-2321701.33"/>
<text text-anchor="middle" x="292.75" y="-2321687.83" font-family="Helvetica,sans-Serif" font-size="10.00">stdio.h</text>
</a>
</g>
</g>
<!-- Node1&#45;&gt;Node6 -->
<g id="edge6_Node000001_Node000006" class="edge">
<title>Node1&#45;&gt;Node6</title>
<g id="a_edge6_Node000001_Node000006"><a xlink:title=" ">
<path fill="none" stroke="#63b8ff" d="M234.35,-3095613.16C237.81,-3095604.37 242.78,-3095590.27 244.75,-3095577.53 449.23,-3094253.61 293.67,-2326210.17 292.75,-2321712.91"/>
<polygon fill="#63b8ff" stroke="#63b8ff" points="296.25,-2321713.15 292.75,-2321703.15 289.25,-2321713.15 296.25,-2321713.15"/>
</a>
</g>
</g>
<!-- Node3 -->
<g id="Node000003" class="node">
<title>Node3</title>
<g id="a_Node000003"><a xlink:title=" ">
<polygon fill="#e0e0e0" stroke="#999999" points="83.5,-1547677.19 0,-1547677.19 0,-93.43 83.5,-93.43 83.5,-1547677.19"/>
<text text-anchor="middle" x="41.75" y="-1547663.69" font-family="Helvetica,sans-Serif" font-size="10.00">stdbool.h</text>
</a>
</g>
</g>
<!-- Node2&#45;&gt;Node3 -->
<g id="edge2_Node000002_Node000003" class="edge">
<title>Node2&#45;&gt;Node3</title>
<g id="a_edge2_Node000002_Node000003"><a xlink:title=" ">
<path fill="none" stroke="#63b8ff" d="M92.75,-1547806.13C89.82,-1503349.38 86.89,-1458892.54 84,-1415022.45"/>
<polygon fill="#63b8ff" stroke="#63b8ff" points="87.5,-1415022.66 84,-1415012.66 80.5,-1415022.66 87.5,-1415022.66"/>
</a>
</g>
</g>
<!-- Node4 -->
<g id="Node000004" class="node">
<title>Node4</title>
<g id="a_Node000004"><a xlink:title=" ">
<polygon fill="#e0e0e0" stroke="#999999" points="177.75,-773894.56 101.75,-773894.56 101.75,-773876.06 177.75,-773876.06 177.75,-773894.56"/>
<text text-anchor="middle" x="139.75" y="-773881.06" font-family="Helvetica,sans-Serif" font-size="10.00">stddef.h</text>
</a>
</g>
</g>
<!-- Node2&#45;&gt;Node4 -->
<g id="edge3_Node000002_Node000004" class="edge">
<title>Node2&#45;&gt;Node4</title>
<g id="a_edge3_Node000002_Node000004"><a xlink:title=" ">
<path fill="none" stroke="#63b8ff" d="M141.75,-1547806.13C140.75,-1162465.44 139.76,-777118.98 139.75,-773906.54"/>
<polygon fill="#63b8ff" stroke="#63b8ff" points="143.25,-773906.58 139.75,-773896.58 136.25,-773906.58 143.25,-773906.58"/>
</a>
</g>
</g>
<!-- Node2&#45;&gt;Node5 -->
<g id="edge4_Node000002_Node000005" class="edge">
<title>Node2&#45;&gt;Node5</title>
<g id="a_edge4_Node000002_Node000005"><a xlink:title=" ">
<path fill="none" stroke="#63b8ff" d="M188.75,-1547806.13C190.92,-1510425.85 193.1,-1473045.52 195.25,-1436013.97"/>
<polygon fill="#63b8ff" stroke="#63b8ff" points="198.75,-1436014.04 195.25,-1436004.04 191.75,-1436014.04 198.75,-1436014.04"/>
</a>
</g>
</g>
</g>
</svg>
