<?xml version="1.0" encoding="UTF-8" standalone="no"?>
<!DOCTYPE svg PUBLIC "-//W3C//DTD SVG 1.1//EN"
 "http://www.w3.org/Graphics/SVG/1.1/DTD/svg11.dtd">
<!-- Generated by graphviz version 9.0.0 (20230911.1827)
 -->
<!-- Title: libsqsh/include/sqsh_file_private.h Pages: 1 -->
<svg width="996pt" height="3579889pt"
 viewBox="0.00 0.00 995.96 3579889.09" xmlns="http://www.w3.org/2000/svg" xmlns:xlink="http://www.w3.org/1999/xlink">
<g id="graph0" class="graph" transform="scale(1 1) rotate(0) translate(4 3579885.09)">
<title>libsqsh/include/sqsh_file_private.h</title>
<!-- Node1 -->
<g id="Node000001" class="node">
<title>Node1</title>
<g id="a_Node000001"><a xlink:title=" ">
<polygon fill="#999999" stroke="#666666" points="625.71,-3579881.09 459.71,-3579881.09 459.71,-3579852.09 625.71,-3579852.09 625.71,-3579881.09"/>
<text text-anchor="start" x="467.71" y="-3579867.59" font-family="Helvetica,sans-Serif" font-size="10.00">libsqsh/include/sqsh</text>
<text text-anchor="middle" x="542.71" y="-3579857.09" font-family="Helvetica,sans-Serif" font-size="10.00">_file_private.h</text>
</a>
</g>
</g>
<!-- Node2 -->
<g id="Node000002" class="node">
<title>Node2</title>
<g id="a_Node000002"><a xlink:href="sqsh__file_8h.html" target="_top" xlink:title=" ">
<polygon fill="white" stroke="#666666" points="211.96,-3579816.09 113.46,-3579816.09 113.46,-2769305.45 211.96,-2769305.45 211.96,-3579816.09"/>
<text text-anchor="middle" x="162.71" y="-3579802.59" font-family="Helvetica,sans-Serif" font-size="10.00">sqsh_file.h</text>
</a>
</g>
</g>
<!-- Node1&#45;&gt;Node2 -->
<g id="edge1_Node000001_Node000002" class="edge">
<title>Node1&#45;&gt;Node2</title>
<g id="a_edge1_Node000001_Node000002"><a xlink:title=" ">
<path fill="none" stroke="#63b8ff" d="M459.4,-3579855.73C410.26,-3579848.01 354.81,-3579835.3 339.71,-3579816.09 47.81,-3579444.63 68.12,-3396851.35 112.96,-3276918.62"/>
<polygon fill="#63b8ff" stroke="#63b8ff" points="116.46,-3276918.81 112.96,-3276908.81 109.46,-3276918.81 116.46,-3276918.81"/>
</a>
</g>
</g>
<!-- Node6 -->
<g id="Node000006" class="node">
<title>Node6</title>
<g id="a_Node000006"><a xlink:title=" ">
<polygon fill="#e0e0e0" stroke="#999999" points="647.71,-979541.08 571.71,-979541.08 571.71,-169029.08 647.71,-169029.08 647.71,-979541.08"/>
<text text-anchor="middle" x="609.71" y="-979527.58" font-family="Helvetica,sans-Serif" font-size="10.00">stdint.h</text>
</a>
</g>
</g>
<!-- Node1&#45;&gt;Node6 -->
<g id="edge21_Node000001_Node000006" class="edge">
<title>Node1&#45;&gt;Node6</title>
<g id="a_edge21_Node000001_Node000006"><a xlink:title=" ">
<path fill="none" stroke="#63b8ff" d="M621.18,-3579851.66C658.96,-3579843.19 698.49,-3579831.11 709.71,-3579816.09 709.71,-3579816.09 974.71,-2364127.83 974.71,-2364127.83 974.71,-2364127.83 974.71,-2364127.83 974.71,-1553803.43 974.71,-1373739.97 1014.17,-1328724.1 955.71,-1148660.65 892.5,-953945.42 724.42,-722100.05 648.22,-623052.7"/>
<polygon fill="#63b8ff" stroke="#63b8ff" points="651.72,-623052.87 648.21,-623042.88 644.72,-623052.88 651.72,-623052.87"/>
</a>
</g>
</g>
<!-- Node7 -->
<g id="Node000007" class="node">
<title>Node7</title>
<g id="a_Node000007"><a xlink:href="sqsh__extract__private_8h.html" target="_top" xlink:title=" ">
<polygon fill="white" stroke="#666666" points="444.21,-2364136.08 263.21,-2364136.08 263.21,-2364117.58 444.21,-2364117.58 444.21,-2364136.08"/>
<text text-anchor="middle" x="353.71" y="-2364122.58" font-family="Helvetica,sans-Serif" font-size="10.00">sqsh_extract_private.h</text>
</a>
</g>
</g>
<!-- Node1&#45;&gt;Node7 -->
<g id="edge6_Node000001_Node000007" class="edge">
<title>Node1&#45;&gt;Node7</title>
<g id="a_edge6_Node000001_Node000007"><a xlink:title=" ">
<path fill="none" stroke="#63b8ff" d="M461.92,-3579851.63C423.75,-3579843.23 384.06,-3579831.21 372.71,-3579816.09 372.71,-3579816.09 353.8,-2369794.49 353.71,-2364147.65"/>
<polygon fill="#63b8ff" stroke="#63b8ff" points="357.21,-2364147.82 353.71,-2364137.82 350.21,-2364147.82 357.21,-2364147.82"/>
</a>
</g>
</g>
<!-- Node11 -->
<g id="Node000011" class="node">
<title>Node11</title>
<g id="a_Node000011"><a xlink:href="sqsh__mapper__private_8h.html" target="_top" xlink:title=" ">
<polygon fill="white" stroke="#666666" points="664.46,-2769269.45 490.96,-2769269.45 490.96,-1958984.2 664.46,-1958984.2 664.46,-2769269.45"/>
<text text-anchor="middle" x="577.71" y="-2769255.95" font-family="Helvetica,sans-Serif" font-size="10.00">sqsh_mapper_private.h</text>
</a>
</g>
</g>
<!-- Node1&#45;&gt;Node11 -->
<g id="edge11_Node000001_Node000011" class="edge">
<title>Node1&#45;&gt;Node11</title>
<g id="a_edge11_Node000001_Node000011"><a xlink:title=" ">
<path fill="none" stroke="#63b8ff" d="M559.89,-3579851.98C569.79,-3579842.99 581.32,-3579830.27 586.71,-3579816.09 836.75,-3579158.45 586.72,-2770009.02 586.71,-2769305.45 586.71,-2769297.39 586.71,-2769289.34 586.71,-2769281.28"/>
<polygon fill="#63b8ff" stroke="#63b8ff" points="590.21,-2769281.41 586.71,-2769271.41 583.21,-2769281.41 590.21,-2769281.41"/>
</a>
</g>
</g>
<!-- Node13 -->
<g id="Node000013" class="node">
<title>Node13</title>
<g id="a_Node000013"><a xlink:title=" ">
<polygon fill="#e0e0e0" stroke="#999999" points="946.46,-1553817.43 772.96,-1553817.43 772.96,-1553791.43 946.46,-1553791.43 946.46,-1553817.43"/>
<text text-anchor="middle" x="859.71" y="-1553803.93" font-family="Helvetica,sans-Serif" font-size="10.00">sqsh_reader_private.h</text>
</a>
</g>
</g>
<!-- Node1&#45;&gt;Node13 -->
<g id="edge20_Node000001_Node000013" class="edge">
<title>Node1&#45;&gt;Node13</title>
<g id="a_edge20_Node000001_Node000013"><a xlink:title=" ">
<path fill="none" stroke="#63b8ff" d="M607.37,-3579851.69C626.15,-3579844.33 644.58,-3579833.12 655.71,-3579816.09 655.71,-3579816.09 858.9,-1561832.03 859.71,-1553829.29"/>
<polygon fill="#63b8ff" stroke="#63b8ff" points="863.21,-1553829.44 859.71,-1553819.44 856.21,-1553829.43 863.21,-1553829.44"/>
</a>
</g>
</g>
<!-- Node15 -->
<g id="Node000015" class="node">
<title>Node15</title>
<g id="a_Node000015"><a xlink:href="sqsh__metablock__private_8h.html" target="_top" xlink:title=" ">
<polygon fill="white" stroke="#666666" points="577.71,-3174570.02 381.71,-3174570.02 381.71,-3174551.52 577.71,-3174551.52 577.71,-3174570.02"/>
<text text-anchor="middle" x="479.71" y="-3174556.52" font-family="Helvetica,sans-Serif" font-size="10.00">sqsh_metablock_private.h</text>
</a>
</g>
</g>
<!-- Node1&#45;&gt;Node15 -->
<g id="edge17_Node000001_Node000015" class="edge">
<title>Node1&#45;&gt;Node15</title>
<g id="a_edge17_Node000001_Node000015"><a xlink:title=" ">
<path fill="none" stroke="#63b8ff" d="M542.71,-3579851.92C542.29,-3577160.04 480.22,-3177844.7 479.72,-3174581.87"/>
<polygon fill="#63b8ff" stroke="#63b8ff" points="483.22,-3174581.98 479.71,-3174571.98 476.22,-3174581.98 483.22,-3174581.98"/>
</a>
</g>
</g>
<!-- Node3 -->
<g id="Node000003" class="node">
<title>Node3</title>
<g id="a_Node000003"><a xlink:href="sqsh__common_8h.html" target="_top" xlink:title=" ">
<polygon fill="white" stroke="#666666" points="153.46,-1148624.65 39.96,-1148624.65 39.96,-1148606.15 153.46,-1148606.15 153.46,-1148624.65"/>
<text text-anchor="middle" x="96.71" y="-1148611.15" font-family="Helvetica,sans-Serif" font-size="10.00">sqsh_common.h</text>
</a>
</g>
</g>
<!-- Node2&#45;&gt;Node3 -->
<g id="edge2_Node000002_Node000003" class="edge">
<title>Node2&#45;&gt;Node3</title>
<g id="a_edge2_Node000002_Node000003"><a xlink:title=" ">
<path fill="none" stroke="#63b8ff" d="M112.96,-2785736.26C84.94,-2547140.58 52.81,-2235366.47 38.71,-1958948.2 38.71,-1958948.2 38.71,-1148660.65 38.71,-1148660.65 44.97,-1148648.01 56.76,-1148637.99 68.08,-1148630.71"/>
<polygon fill="#63b8ff" stroke="#63b8ff" points="69.62,-1148633.87 76.46,-1148625.78 66.07,-1148627.84 69.62,-1148633.87"/>
</a>
</g>
</g>
<!-- Node4 -->
<g id="Node000004" class="node">
<title>Node4</title>
<g id="a_Node000004"><a xlink:title=" ">
<polygon fill="#e0e0e0" stroke="#999999" points="187.46,-574294.33 103.96,-574294.33 103.96,-574275.83 187.46,-574275.83 187.46,-574294.33"/>
<text text-anchor="middle" x="145.71" y="-574280.83" font-family="Helvetica,sans-Serif" font-size="10.00">stdbool.h</text>
</a>
</g>
</g>
<!-- Node3&#45;&gt;Node4 -->
<g id="edge3_Node000003_Node000004" class="edge">
<title>Node3&#45;&gt;Node4</title>
<g id="a_edge3_Node000003_Node000004"><a xlink:title=" ">
<path fill="none" stroke="#63b8ff" d="M96.71,-1148606.1C96.93,-1146101.86 145.38,-578185.28 145.71,-574306.04"/>
<polygon fill="#63b8ff" stroke="#63b8ff" points="149.21,-574306.33 145.71,-574296.33 142.21,-574306.33 149.21,-574306.33"/>
</a>
</g>
</g>
<!-- Node5 -->
<g id="Node000005" class="node">
<title>Node5</title>
<g id="a_Node000005"><a xlink:title=" ">
<polygon fill="#e0e0e0" stroke="#999999" points="85.71,-1148570.15 9.71,-1148570.15 9.71,0 85.71,0 85.71,-1148570.15"/>
<text text-anchor="middle" x="47.71" y="-1148556.65" font-family="Helvetica,sans-Serif" font-size="10.00">stddef.h</text>
</a>
</g>
</g>
<!-- Node3&#45;&gt;Node5 -->
<g id="edge4_Node000003_Node000005" class="edge">
<title>Node3&#45;&gt;Node5</title>
<g id="a_edge4_Node000003_Node000005"><a xlink:title=" ">
<path fill="none" stroke="#63b8ff" d="M96.22,-1148605.92C95.72,-1148597.02 94.99,-1148582.61 94.71,-1148570.15 -8.05,-1144028.8 -9.01,-958395.13 9.21,-799410.31"/>
<polygon fill="#63b8ff" stroke="#63b8ff" points="12.71,-799410.45 9.21,-799400.45 5.71,-799410.45 12.71,-799410.45"/>
</a>
</g>
</g>
<!-- Node3&#45;&gt;Node6 -->
<g id="edge5_Node000003_Node000006" class="edge">
<title>Node3&#45;&gt;Node6</title>
<g id="a_edge5_Node000003_Node000006"><a xlink:title=" ">
<path fill="none" stroke="#63b8ff" d="M142.94,-1148605.73C163.03,-1148599.42 184.69,-1148588.61 196.71,-1148570.15 1119.17,-1147154.34 774.78,-735724.88 648.22,-610212.78"/>
<polygon fill="#63b8ff" stroke="#63b8ff" points="651.72,-610212.8 648.21,-610202.8 644.72,-610212.8 651.72,-610212.8"/>
</a>
</g>
</g>
<!-- Node8 -->
<g id="Node000008" class="node">
<title>Node8</title>
<g id="a_Node000008"><a xlink:title=" ">
<polygon fill="#e0e0e0" stroke="#999999" points="513.71,-1553813.68 347.71,-1553813.68 347.71,-1553795.18 513.71,-1553795.18 513.71,-1553813.68"/>
<text text-anchor="middle" x="430.71" y="-1553800.18" font-family="Helvetica,sans-Serif" font-size="10.00">cextras/collection.h</text>
</a>
</g>
</g>
<!-- Node7&#45;&gt;Node8 -->
<g id="edge7_Node000007_Node000008" class="edge">
<title>Node7&#45;&gt;Node8</title>
<g id="a_edge7_Node000007_Node000008"><a xlink:title=" ">
<path fill="none" stroke="#63b8ff" d="M353.71,-2364117.13C354,-2361071.09 430.27,-1558427.32 430.71,-1553825.29"/>
<polygon fill="#63b8ff" stroke="#63b8ff" points="434.21,-1553825.6 430.71,-1553815.6 427.21,-1553825.6 434.21,-1553825.6"/>
</a>
</g>
</g>
<!-- Node9 -->
<g id="Node000009" class="node">
<title>Node9</title>
<g id="a_Node000009"><a xlink:href="sqsh__data_8h.html" target="_top" xlink:title=" ">
<polygon fill="white" stroke="#666666" points="145.96,-1553825.61 47.46,-1553825.61 47.46,-1553783.25 145.96,-1553783.25 145.96,-1553825.61"/>
<text text-anchor="middle" x="96.71" y="-1553812.11" font-family="Helvetica,sans-Serif" font-size="10.00">sqsh_data.h</text>
</a>
</g>
</g>
<!-- Node7&#45;&gt;Node9 -->
<g id="edge8_Node000007_Node000009" class="edge">
<title>Node7&#45;&gt;Node9</title>
<g id="a_edge8_Node000007_Node000009"><a xlink:title=" ">
<path fill="none" stroke="#63b8ff" d="M353.71,-2364117.08C352.69,-2362505.22 211.62,-2138378.68 154.71,-1958948.2 98,-1780119.8 96.73,-1556890.91 96.71,-1553837.11"/>
<polygon fill="#63b8ff" stroke="#63b8ff" points="100.21,-1553837.27 96.71,-1553827.27 93.21,-1553837.27 100.21,-1553837.27"/>
</a>
</g>
</g>
<!-- Node10 -->
<g id="Node000010" class="node">
<title>Node10</title>
<g id="a_Node000010"><a xlink:title=" ">
<polygon fill="#e0e0e0" stroke="#999999" points="329.71,-1958948.2 163.71,-1958948.2 163.71,-1148660.65 329.71,-1148660.65 329.71,-1958948.2"/>
<text text-anchor="middle" x="246.71" y="-1958934.7" font-family="Helvetica,sans-Serif" font-size="10.00">sqsh_utils_private.h</text>
</a>
</g>
</g>
<!-- Node7&#45;&gt;Node10 -->
<g id="edge10_Node000007_Node000010" class="edge">
<title>Node7&#45;&gt;Node10</title>
<g id="a_edge10_Node000007_Node000010"><a xlink:title=" ">
<path fill="none" stroke="#63b8ff" d="M353.71,-2364117.13C353.51,-2362592.61 326.86,-2160775.35 300.21,-1958959.96"/>
<polygon fill="#63b8ff" stroke="#63b8ff" points="303.71,-1958960.21 300.21,-1958950.21 296.71,-1958960.21 303.71,-1958960.21"/>
</a>
</g>
</g>
<!-- Node9&#45;&gt;Node3 -->
<g id="edge9_Node000009_Node000003" class="edge">
<title>Node9&#45;&gt;Node3</title>
<g id="a_edge9_Node000009_Node000003"><a xlink:title=" ">
<path fill="none" stroke="#63b8ff" d="M96.71,-1553782.85C96.71,-1550485.2 96.71,-1151893.38 96.71,-1148636.47"/>
<polygon fill="#63b8ff" stroke="#63b8ff" points="100.21,-1148636.6 96.71,-1148626.6 93.21,-1148636.6 100.21,-1148636.6"/>
</a>
</g>
</g>
<!-- Node11&#45;&gt;Node8 -->
<g id="edge15_Node000011_Node000008" class="edge">
<title>Node11&#45;&gt;Node8</title>
<g id="a_edge15_Node000011_Node000008"><a xlink:title=" ">
<path fill="none" stroke="#63b8ff" d="M504.22,-1958983.88C467.68,-1757558.5 431.13,-1556127.1 430.72,-1553825.35"/>
<polygon fill="#63b8ff" stroke="#63b8ff" points="434.22,-1553825.63 430.71,-1553815.64 427.22,-1553825.64 434.22,-1553825.63"/>
</a>
</g>
</g>
<!-- Node11&#45;&gt;Node10 -->
<g id="edge14_Node000011_Node000010" class="edge">
<title>Node11&#45;&gt;Node10</title>
<g id="a_edge14_Node000011_Node000010"><a xlink:title=" ">
<path fill="none" stroke="#63b8ff" d="M664.96,-2187037.18C695.88,-2078154.3 677.99,-1959291.49 452.71,-1958984.2 421.3,-1958941.35 370.13,-1958991.06 338.71,-1958948.2 335.89,-1958944.35 333.12,-1958865.76 330.41,-1958714.47"/>
<polygon fill="#63b8ff" stroke="#63b8ff" points="333.91,-1958714.43 330.24,-1958704.49 326.91,-1958714.55 333.91,-1958714.43"/>
</a>
</g>
</g>
<!-- Node12 -->
<g id="Node000012" class="node">
<title>Node12</title>
<g id="a_Node000012"><a xlink:href="sqsh__mapper_8h.html" target="_top" xlink:title=" ">
<polygon fill="white" stroke="#666666" points="754.46,-1553813.68 640.96,-1553813.68 640.96,-1553795.18 754.46,-1553795.18 754.46,-1553813.68"/>
<text text-anchor="middle" x="697.71" y="-1553800.18" font-family="Helvetica,sans-Serif" font-size="10.00">sqsh_mapper.h</text>
</a>
</g>
</g>
<!-- Node11&#45;&gt;Node12 -->
<g id="edge12_Node000011_Node000012" class="edge">
<title>Node11&#45;&gt;Node12</title>
<g id="a_edge12_Node000011_Node000012"><a xlink:title=" ">
<path fill="none" stroke="#63b8ff" d="M637.71,-1958983.88C667.54,-1757558.5 697.37,-1556127.1 697.71,-1553825.35"/>
<polygon fill="#63b8ff" stroke="#63b8ff" points="701.21,-1553825.64 697.71,-1553815.64 694.21,-1553825.63 701.21,-1553825.64"/>
</a>
</g>
</g>
<!-- Node11&#45;&gt;Node13 -->
<g id="edge13_Node000011_Node000013" class="edge">
<title>Node11&#45;&gt;Node13</title>
<g id="a_edge13_Node000011_Node000013"><a xlink:title=" ">
<path fill="none" stroke="#63b8ff" d="M664.96,-1978943.85C691.22,-1967493.51 723.12,-1960363.35 761.71,-1958984.2 762.16,-1958968.19 763.27,-1958964.22 763.71,-1958948.2 1075.89,-1947749.03 861.65,-1557328.63 859.73,-1553829.1"/>
<polygon fill="#63b8ff" stroke="#63b8ff" points="863.23,-1553829.28 859.72,-1553819.28 856.23,-1553829.28 863.23,-1553829.28"/>
</a>
</g>
</g>
<!-- Node14 -->
<g id="Node000014" class="node">
<title>Node14</title>
<g id="a_Node000014"><a xlink:title=" ">
<polygon fill="#e0e0e0" stroke="#999999" points="623.21,-1553813.68 532.21,-1553813.68 532.21,-1553795.18 623.21,-1553795.18 623.21,-1553813.68"/>
<text text-anchor="middle" x="577.71" y="-1553800.18" font-family="Helvetica,sans-Serif" font-size="10.00">sys/wait.h</text>
</a>
</g>
</g>
<!-- Node11&#45;&gt;Node14 -->
<g id="edge16_Node000011_Node000014" class="edge">
<title>Node11&#45;&gt;Node14</title>
<g id="a_edge16_Node000011_Node000014"><a xlink:title=" ">
<path fill="none" stroke="#63b8ff" d="M577.71,-1958983.88C577.71,-1757558.5 577.71,-1556127.1 577.71,-1553825.35"/>
<polygon fill="#63b8ff" stroke="#63b8ff" points="581.21,-1553825.64 577.71,-1553815.64 574.21,-1553825.64 581.21,-1553825.64"/>
</a>
</g>
</g>
<!-- Node15&#45;&gt;Node7 -->
<g id="edge18_Node000015_Node000007" class="edge">
<title>Node15&#45;&gt;Node7</title>
<g id="a_edge18_Node000015_Node000007"><a xlink:title=" ">
<path fill="none" stroke="#63b8ff" d="M479.71,-3174551.07C479.24,-3171504.61 354.43,-2368750.35 353.72,-2364147.69"/>
<polygon fill="#63b8ff" stroke="#63b8ff" points="357.22,-2364148 353.71,-2364138 350.22,-2364148 357.22,-2364148"/>
</a>
</g>
</g>
<!-- Node15&#45;&gt;Node11 -->
<g id="edge19_Node000015_Node000011" class="edge">
<title>Node15&#45;&gt;Node11</title>
<g id="a_edge19_Node000015_Node000011"><a xlink:title=" ">
<path fill="none" stroke="#63b8ff" d="M479.71,-3174551.07C479.9,-3173026.2 504.31,-2971143.3 528.72,-2769281.14"/>
<polygon fill="#63b8ff" stroke="#63b8ff" points="532.22,-2769281.39 528.72,-2769271.39 525.22,-2769281.39 532.22,-2769281.39"/>
</a>
</g>
</g>
</g>
</svg>
