<?xml version="1.0" encoding="UTF-8" standalone="no"?>
<!DOCTYPE svg PUBLIC "-//W3C//DTD SVG 1.1//EN"
 "http://www.w3.org/Graphics/SVG/1.1/DTD/svg11.dtd">
<!-- Generated by graphviz version 9.0.0 (20230911.1827)
 -->
<!-- Title: libsqsh/include/sqsh_file_private.h Pages: 1 -->
<svg width="925pt" height="2707724pt"
 viewBox="0.00 0.00 924.81 2707724.07" xmlns="http://www.w3.org/2000/svg" xmlns:xlink="http://www.w3.org/1999/xlink">
<g id="graph0" class="graph" transform="scale(1 1) rotate(0) translate(4 2707720.07)">
<title>libsqsh/include/sqsh_file_private.h</title>
<!-- Node1 -->
<g id="Node000001" class="node">
<title>Node1</title>
<g id="a_Node000001"><a xlink:title=" ">
<polygon fill="#999999" stroke="#666666" points="443.06,-2707716.07 277.06,-2707716.07 277.06,-2030825.28 443.06,-2030825.28 443.06,-2707716.07"/>
<text text-anchor="start" x="285.06" y="-2707702.57" font-family="Helvetica,sans-Serif" font-size="10.00">libsqsh/include/sqsh</text>
<text text-anchor="middle" x="360.06" y="-2707692.07" font-family="Helvetica,sans-Serif" font-size="10.00">_file_private.h</text>
</a>
</g>
</g>
<!-- Node2 -->
<g id="Node000002" class="node">
<title>Node2</title>
<g id="a_Node000002"><a xlink:href="sqsh__file_8h.html" target="_top" xlink:title=" ">
<polygon fill="white" stroke="#666666" points="242.31,-2030785.53 143.81,-2030785.53 143.81,-2030767.03 242.31,-2030767.03 242.31,-2030785.53"/>
<text text-anchor="middle" x="193.06" y="-2030772.03" font-family="Helvetica,sans-Serif" font-size="10.00">sqsh_file.h</text>
</a>
</g>
</g>
<!-- Node1&#45;&gt;Node2 -->
<g id="edge1_Node000001_Node000002" class="edge">
<title>Node1&#45;&gt;Node2</title>
<g id="a_edge1_Node000001_Node000002"><a xlink:title=" ">
<path fill="none" stroke="#63b8ff" d="M276.56,-2200023.48C235.18,-2116152.95 193.8,-2032282.43 193.07,-2030797.3"/>
<polygon fill="#63b8ff" stroke="#63b8ff" points="196.57,-2030797.49 193.06,-2030787.49 189.57,-2030797.49 196.57,-2030797.49"/>
</a>
</g>
</g>
<!-- Node6 -->
<g id="Node000006" class="node">
<title>Node6</title>
<g id="a_Node000006"><a xlink:title=" ">
<polygon fill="#e0e0e0" stroke="#999999" points="108.06,-338523.59 32.06,-338523.59 32.06,-338497.59 108.06,-338497.59 108.06,-338523.59"/>
<text text-anchor="middle" x="70.06" y="-338510.09" font-family="Helvetica,sans-Serif" font-size="10.00">stdint.h</text>
</a>
</g>
</g>
<!-- Node1&#45;&gt;Node6 -->
<g id="edge21_Node000001_Node000006" class="edge">
<title>Node1&#45;&gt;Node6</title>
<g id="a_edge21_Node000001_Node000006"><a xlink:title=" ">
<path fill="none" stroke="#63b8ff" d="M276.56,-2273736.99C220.79,-2205922.42 151.27,-2112737.4 115.06,-2030727.28 48.63,-1880310.02 61.06,-1842705.7 61.06,-1692288.43 61.06,-1692288.43 61.06,-1692288.43 61.06,-1015460.63 61.06,-715970.38 69.97,-341949.98 70.05,-338535.15"/>
<polygon fill="#63b8ff" stroke="#63b8ff" points="73.55,-338535.35 70.06,-338525.35 66.55,-338535.35 73.55,-338535.35"/>
</a>
</g>
</g>
<!-- Node7 -->
<g id="Node000007" class="node">
<title>Node7</title>
<g id="a_Node000007"><a xlink:href="sqsh__extract__private_8h.html" target="_top" xlink:title=" ">
<polygon fill="white" stroke="#666666" points="416.56,-1692296.68 235.56,-1692296.68 235.56,-1692278.18 416.56,-1692278.18 416.56,-1692296.68"/>
<text text-anchor="middle" x="326.06" y="-1692283.18" font-family="Helvetica,sans-Serif" font-size="10.00">sqsh_extract_private.h</text>
</a>
</g>
</g>
<!-- Node1&#45;&gt;Node7 -->
<g id="edge6_Node000001_Node000007" class="edge">
<title>Node1&#45;&gt;Node7</title>
<g id="a_edge6_Node000001_Node000007"><a xlink:title=" ">
<path fill="none" stroke="#63b8ff" d="M316.05,-2030824.83C316.05,-2030804.31 316.06,-2030783.79 316.06,-2030763.28 318.26,-1881228.6 325.96,-1694533.56 326.05,-1692308.51"/>
<polygon fill="#63b8ff" stroke="#63b8ff" points="329.55,-1692308.54 326.06,-1692298.54 322.55,-1692308.54 329.55,-1692308.54"/>
</a>
</g>
</g>
<!-- Node11 -->
<g id="Node000011" class="node">
<title>Node11</title>
<g id="a_Node000011"><a xlink:href="sqsh__mapper__private_8h.html" target="_top" xlink:title=" ">
<polygon fill="white" stroke="#666666" points="635.81,-2030727.28 462.31,-2030727.28 462.31,-1353847.58 635.81,-1353847.58 635.81,-2030727.28"/>
<text text-anchor="middle" x="549.06" y="-2030713.78" font-family="Helvetica,sans-Serif" font-size="10.00">sqsh_mapper_private.h</text>
</a>
</g>
</g>
<!-- Node1&#45;&gt;Node11 -->
<g id="edge11_Node000001_Node000011" class="edge">
<title>Node1&#45;&gt;Node11</title>
<g id="a_edge11_Node000001_Node000011"><a xlink:title=" ">
<path fill="none" stroke="#63b8ff" d="M443.56,-2230775.63C476.91,-2169492.13 511.7,-2096547.67 530.06,-2030789.28 530.06,-2030772.45 530.06,-2030755.62 530.07,-2030738.78"/>
<polygon fill="#63b8ff" stroke="#63b8ff" points="533.57,-2030739.24 530.07,-2030729.24 526.57,-2030739.24 533.57,-2030739.24"/>
</a>
</g>
</g>
<!-- Node13 -->
<g id="Node000013" class="node">
<title>Node13</title>
<g id="a_Node000013"><a xlink:title=" ">
<polygon fill="#e0e0e0" stroke="#999999" points="916.81,-1015470.88 743.31,-1015470.88 743.31,-1015452.38 916.81,-1015452.38 916.81,-1015470.88"/>
<text text-anchor="middle" x="830.06" y="-1015457.38" font-family="Helvetica,sans-Serif" font-size="10.00">sqsh_reader_private.h</text>
</a>
</g>
</g>
<!-- Node1&#45;&gt;Node13 -->
<g id="edge20_Node000001_Node000013" class="edge">
<title>Node1&#45;&gt;Node13</title>
<g id="a_edge20_Node000001_Node000013"><a xlink:title=" ">
<path fill="none" stroke="#63b8ff" d="M443.56,-2287944.18C510.36,-2219367.11 600.05,-2118628.22 645.06,-2030727.28 875.3,-1581053.44 830.37,-1019348.4 830.06,-1015482.7"/>
<polygon fill="#63b8ff" stroke="#63b8ff" points="833.56,-1015482.77 830.06,-1015472.77 826.56,-1015482.77 833.56,-1015482.77"/>
</a>
</g>
</g>
<!-- Node14 -->
<g id="Node000014" class="node">
<title>Node14</title>
<g id="a_Node000014"><a xlink:href="sqsh__metablock__private_8h.html" target="_top" xlink:title=" ">
<polygon fill="white" stroke="#666666" points="521.06,-2030789.28 325.06,-2030789.28 325.06,-2030763.28 521.06,-2030763.28 521.06,-2030789.28"/>
<text text-anchor="middle" x="423.06" y="-2030775.78" font-family="Helvetica,sans-Serif" font-size="10.00">sqsh_metablock_private.h</text>
</a>
</g>
</g>
<!-- Node1&#45;&gt;Node14 -->
<g id="edge17_Node000001_Node000014" class="edge">
<title>Node1&#45;&gt;Node14</title>
<g id="a_edge17_Node000001_Node000014"><a xlink:title=" ">
<path fill="none" stroke="#63b8ff" d="M423.05,-2030824.94C423.05,-2030815.55 423.05,-2030807.54 423.05,-2030800.92"/>
<polygon fill="#63b8ff" stroke="#63b8ff" points="426.55,-2030801.11 423.05,-2030791.11 419.55,-2030801.11 426.55,-2030801.11"/>
</a>
</g>
</g>
<!-- Node3 -->
<g id="Node000003" class="node">
<title>Node3</title>
<g id="a_Node000003"><a xlink:href="sqsh__common_8h.html" target="_top" xlink:title=" ">
<polygon fill="white" stroke="#666666" points="232.81,-677075.69 119.31,-677075.69 119.31,-677057.19 232.81,-677057.19 232.81,-677075.69"/>
<text text-anchor="middle" x="176.06" y="-677062.19" font-family="Helvetica,sans-Serif" font-size="10.00">sqsh_common.h</text>
</a>
</g>
</g>
<!-- Node2&#45;&gt;Node3 -->
<g id="edge2_Node000002_Node000003" class="edge">
<title>Node2&#45;&gt;Node3</title>
<g id="a_edge2_Node000002_Node000003"><a xlink:title=" ">
<path fill="none" stroke="#63b8ff" d="M193.05,-2030766.78C192.74,-2028709.92 134.68,-1653857.97 118.06,-1353811.58 118.06,-1353811.58 118.06,-677111.69 118.06,-677111.69 124.31,-677099.04 136.1,-677089.03 147.43,-677081.74"/>
<polygon fill="#63b8ff" stroke="#63b8ff" points="148.96,-677084.9 155.8,-677076.82 145.41,-677078.87 148.96,-677084.9"/>
</a>
</g>
</g>
<!-- Node4 -->
<g id="Node000004" class="node">
<title>Node4</title>
<g id="a_Node000004"><a xlink:title=" ">
<polygon fill="#e0e0e0" stroke="#999999" points="217.81,-676916.9 134.31,-676916.9 134.31,-104.29 217.81,-104.29 217.81,-676916.9"/>
<text text-anchor="middle" x="176.06" y="-676903.4" font-family="Helvetica,sans-Serif" font-size="10.00">stdbool.h</text>
</a>
</g>
</g>
<!-- Node3&#45;&gt;Node4 -->
<g id="edge3_Node000003_Node000004" class="edge">
<title>Node3&#45;&gt;Node4</title>
<g id="a_edge3_Node000003_Node000004"><a xlink:title=" ">
<path fill="none" stroke="#63b8ff" d="M176.06,-677056.74C176.06,-677039.46 176.06,-676996.48 176.06,-676928.27"/>
<polygon fill="#63b8ff" stroke="#63b8ff" points="179.56,-676928.62 176.06,-676918.62 172.56,-676928.62 179.56,-676928.62"/>
</a>
</g>
</g>
<!-- Node5 -->
<g id="Node000005" class="node">
<title>Node5</title>
<g id="a_Node000005"><a xlink:title=" ">
<polygon fill="#e0e0e0" stroke="#999999" points="509.06,-677021.19 433.06,-677021.19 433.06,0 509.06,0 509.06,-677021.19"/>
<text text-anchor="middle" x="471.06" y="-677007.69" font-family="Helvetica,sans-Serif" font-size="10.00">stddef.h</text>
</a>
</g>
</g>
<!-- Node3&#45;&gt;Node5 -->
<g id="edge4_Node000003_Node000005" class="edge">
<title>Node3&#45;&gt;Node5</title>
<g id="a_edge4_Node000003_Node000005"><a xlink:title=" ">
<path fill="none" stroke="#63b8ff" d="M191.78,-677056.88C203.93,-677049.29 219.85,-677036.97 227.06,-677021.19 1062.55,-675191.87 647.09,-428741.11 509.58,-357557.53"/>
<polygon fill="#63b8ff" stroke="#63b8ff" points="513.08,-357557.64 509.56,-357547.64 506.08,-357557.65 513.08,-357557.64"/>
</a>
</g>
</g>
<!-- Node3&#45;&gt;Node6 -->
<g id="edge5_Node000003_Node000006" class="edge">
<title>Node3&#45;&gt;Node6</title>
<g id="a_edge5_Node000003_Node000006"><a xlink:title=" ">
<path fill="none" stroke="#63b8ff" d="M160.33,-677056.88C148.18,-677049.29 132.26,-677036.97 125.06,-677021.19 -117.77,-676489.14 68.23,-341780.34 70.04,-338535.34"/>
<polygon fill="#63b8ff" stroke="#63b8ff" points="73.54,-338535.35 70.05,-338525.35 66.54,-338535.35 73.54,-338535.35"/>
</a>
</g>
</g>
<!-- Node8 -->
<g id="Node000008" class="node">
<title>Node8</title>
<g id="a_Node000008"><a xlink:title=" ">
<polygon fill="#e0e0e0" stroke="#999999" points="409.06,-1015470.88 243.06,-1015470.88 243.06,-1015452.38 409.06,-1015452.38 409.06,-1015470.88"/>
<text text-anchor="middle" x="326.06" y="-1015457.38" font-family="Helvetica,sans-Serif" font-size="10.00">cextras/collection.h</text>
</a>
</g>
</g>
<!-- Node7&#45;&gt;Node8 -->
<g id="edge7_Node000007_Node000008" class="edge">
<title>Node7&#45;&gt;Node8</title>
<g id="a_edge7_Node000007_Node000008"><a xlink:title=" ">
<path fill="none" stroke="#63b8ff" d="M326.06,-1692277.7C326.06,-1689489.05 326.06,-1019690.32 326.06,-1015482.54"/>
<polygon fill="#63b8ff" stroke="#63b8ff" points="329.56,-1015482.84 326.06,-1015472.84 322.56,-1015482.84 329.56,-1015482.84"/>
</a>
</g>
</g>
<!-- Node9 -->
<g id="Node000009" class="node">
<title>Node9</title>
<g id="a_Node000009"><a xlink:href="sqsh__data_8h.html" target="_top" xlink:title=" ">
<polygon fill="white" stroke="#666666" points="225.31,-1015470.88 126.81,-1015470.88 126.81,-1015452.38 225.31,-1015452.38 225.31,-1015470.88"/>
<text text-anchor="middle" x="176.06" y="-1015457.38" font-family="Helvetica,sans-Serif" font-size="10.00">sqsh_data.h</text>
</a>
</g>
</g>
<!-- Node7&#45;&gt;Node9 -->
<g id="edge8_Node000007_Node000009" class="edge">
<title>Node7&#45;&gt;Node9</title>
<g id="a_edge8_Node000007_Node000009"><a xlink:title=" ">
<path fill="none" stroke="#63b8ff" d="M326.05,-1692277.84C325.6,-1690817.93 267.26,-1503657.22 234.06,-1353811.58 200.93,-1204332.53 176.35,-1017706.93 176.06,-1015482.71"/>
<polygon fill="#63b8ff" stroke="#63b8ff" points="179.56,-1015482.74 176.06,-1015472.74 172.56,-1015482.74 179.56,-1015482.74"/>
</a>
</g>
</g>
<!-- Node10 -->
<g id="Node000010" class="node">
<title>Node10</title>
<g id="a_Node000010"><a xlink:title=" ">
<polygon fill="#e0e0e0" stroke="#999999" points="593.06,-1015482.85 427.06,-1015482.85 427.06,-1015440.42 593.06,-1015440.42 593.06,-1015482.85"/>
<text text-anchor="middle" x="510.06" y="-1015469.35" font-family="Helvetica,sans-Serif" font-size="10.00">sqsh_utils_private.h</text>
</a>
</g>
</g>
<!-- Node7&#45;&gt;Node10 -->
<g id="edge10_Node000007_Node000010" class="edge">
<title>Node7&#45;&gt;Node10</title>
<g id="a_edge10_Node000007_Node000010"><a xlink:title=" ">
<path fill="none" stroke="#63b8ff" d="M326.06,-1692277.7C326.82,-1689491.35 508.61,-1020796.73 510.05,-1015494.34"/>
<polygon fill="#63b8ff" stroke="#63b8ff" points="513.55,-1015494.47 510.05,-1015484.47 506.55,-1015494.47 513.55,-1015494.47"/>
</a>
</g>
</g>
<!-- Node9&#45;&gt;Node3 -->
<g id="edge9_Node000009_Node000003" class="edge">
<title>Node9&#45;&gt;Node3</title>
<g id="a_edge9_Node000009_Node000003"><a xlink:title=" ">
<path fill="none" stroke="#63b8ff" d="M176.06,-1015451.94C176.06,-1013489.54 176.06,-680055.63 176.06,-677087.37"/>
<polygon fill="#63b8ff" stroke="#63b8ff" points="179.56,-677087.6 176.06,-677077.6 172.56,-677087.6 179.56,-677087.6"/>
</a>
</g>
</g>
<!-- Node11&#45;&gt;Node10 -->
<g id="edge16_Node000011_Node000010" class="edge">
<title>Node11&#45;&gt;Node10</title>
<g id="a_edge16_Node000011_Node000010"><a xlink:title=" ">
<path fill="none" stroke="#63b8ff" d="M529.55,-1353847.42C519.88,-1185991.31 510.21,-1018144.09 510.06,-1015494.42"/>
<polygon fill="#63b8ff" stroke="#63b8ff" points="513.56,-1015494.56 510.06,-1015484.56 506.56,-1015494.56 513.56,-1015494.56"/>
</a>
</g>
</g>
<!-- Node12 -->
<g id="Node000012" class="node">
<title>Node12</title>
<g id="a_Node000012"><a xlink:href="sqsh__mapper_8h.html" target="_top" xlink:title=" ">
<polygon fill="white" stroke="#666666" points="724.81,-1353811.58 611.31,-1353811.58 611.31,-677111.69 724.81,-677111.69 724.81,-1353811.58"/>
<text text-anchor="middle" x="668.06" y="-1353798.08" font-family="Helvetica,sans-Serif" font-size="10.00">sqsh_mapper.h</text>
</a>
</g>
</g>
<!-- Node11&#45;&gt;Node12 -->
<g id="edge12_Node000011_Node000012" class="edge">
<title>Node11&#45;&gt;Node12</title>
<g id="a_edge12_Node000011_Node000012"><a xlink:title=" ">
<path fill="none" stroke="#63b8ff" d="M608.56,-1353847.42C609.31,-1349593.58 610.06,-1345339.74 610.8,-1341088.6"/>
<polygon fill="#63b8ff" stroke="#63b8ff" points="614.3,-1341088.81 610.81,-1341078.81 607.3,-1341088.81 614.3,-1341088.81"/>
</a>
</g>
</g>
<!-- Node11&#45;&gt;Node13 -->
<g id="edge15_Node000011_Node000013" class="edge">
<title>Node11&#45;&gt;Node13</title>
<g id="a_edge15_Node000011_Node000013"><a xlink:title=" ">
<path fill="none" stroke="#63b8ff" d="M461.81,-1586340.59C411.27,-1495788.05 410.86,-1376604.72 733.06,-1353847.58 733.28,-1353831.58 733.83,-1353827.59 734.06,-1353811.58 996.51,-1335102.22 831.58,-1018378.91 830.07,-1015482.62"/>
<polygon fill="#63b8ff" stroke="#63b8ff" points="833.57,-1015482.7 830.06,-1015472.71 826.57,-1015482.71 833.57,-1015482.7"/>
</a>
</g>
</g>
<!-- Node12&#45;&gt;Node3 -->
<g id="edge13_Node000012_Node000003" class="edge">
<title>Node12&#45;&gt;Node3</title>
<g id="a_edge13_Node000012_Node000003"><a xlink:title=" ">
<path fill="none" stroke="#63b8ff" d="M610.81,-677353.88C607.96,-677196.53 605.05,-677115.01 602.06,-677111.69 578.59,-677085.66 358.65,-677073.97 244.35,-677069.61"/>
<polygon fill="#63b8ff" stroke="#63b8ff" points="244.59,-677066.12 234.47,-677069.25 244.33,-677073.12 244.59,-677066.12"/>
</a>
</g>
</g>
<!-- Node12&#45;&gt;Node5 -->
<g id="edge14_Node000012_Node000005" class="edge">
<title>Node12&#45;&gt;Node5</title>
<g id="a_edge14_Node000012_Node000005"><a xlink:title=" ">
<path fill="none" stroke="#63b8ff" d="M610.81,-708702.76C607.99,-698042.82 605.07,-687487.76 602.06,-677111.69 577.24,-591839.92 538.49,-494488.75 509.56,-426125.62"/>
<polygon fill="#63b8ff" stroke="#63b8ff" points="513.06,-426125.79 509.56,-426115.79 506.06,-426125.79 513.06,-426125.79"/>
</a>
</g>
</g>
<!-- Node14&#45;&gt;Node7 -->
<g id="edge18_Node000014_Node000007" class="edge">
<title>Node14&#45;&gt;Node7</title>
<g id="a_edge18_Node000014_Node000007"><a xlink:title=" ">
<path fill="none" stroke="#63b8ff" d="M423.05,-2030763.02C422.38,-2028434.59 326.91,-1695274.16 326.06,-1692308.35"/>
<polygon fill="#63b8ff" stroke="#63b8ff" points="329.56,-1692308.58 326.06,-1692298.58 322.56,-1692308.58 329.56,-1692308.58"/>
</a>
</g>
</g>
<!-- Node14&#45;&gt;Node11 -->
<g id="edge19_Node000014_Node000011" class="edge">
<title>Node14&#45;&gt;Node11</title>
<g id="a_edge19_Node000014_Node000011"><a xlink:title=" ">
<path fill="none" stroke="#63b8ff" d="M424.03,-2030763.06C424.75,-2030753.36 425.67,-2030739.46 426.06,-2030727.28 835.99,-2017672.76 735.75,-1859444.43 636.32,-1764032.02"/>
<polygon fill="#63b8ff" stroke="#63b8ff" points="639.82,-1764032.06 636.31,-1764022.07 632.82,-1764032.07 639.82,-1764032.06"/>
</a>
</g>
</g>
</g>
</svg>
