<?xml version="1.0" encoding="UTF-8" standalone="no"?>
<!DOCTYPE svg PUBLIC "-//W3C//DTD SVG 1.1//EN"
 "http://www.w3.org/Graphics/SVG/1.1/DTD/svg11.dtd">
<!-- Generated by graphviz version 9.0.0 (20230911.1827)
 -->
<!-- Title: libsqsh/include/sqsh_extract_private.h Pages: 1 -->
<svg width="414pt" height="1340736pt"
 viewBox="0.00 0.00 414.00 1340736.25" xmlns="http://www.w3.org/2000/svg" xmlns:xlink="http://www.w3.org/1999/xlink">
<g id="graph0" class="graph" transform="scale(1 1) rotate(0) translate(4 1340732.25)">
<title>libsqsh/include/sqsh_extract_private.h</title>
<!-- Node1 -->
<g id="Node000001" class="node">
<title>Node1</title>
<g id="a_Node000001"><a xlink:title=" ">
<polygon fill="#999999" stroke="#666666" points="295,-1340728.25 129,-1340728.25 129,-1340699.25 295,-1340699.25 295,-1340728.25"/>
<text text-anchor="start" x="137" y="-1340714.75" font-family="Helvetica,sans-Serif" font-size="10.00">libsqsh/include/sqsh</text>
<text text-anchor="middle" x="212" y="-1340704.25" font-family="Helvetica,sans-Serif" font-size="10.00">_extract_private.h</text>
</a>
</g>
</g>
<!-- Node2 -->
<g id="Node000002" class="node">
<title>Node2</title>
<g id="a_Node000002"><a xlink:href="sqsh__file__private_8h.html" target="_top" xlink:title=" ">
<polygon fill="white" stroke="#666666" points="222,-1340578.82 56,-1340578.82 56,-1340549.82 222,-1340549.82 222,-1340578.82"/>
<text text-anchor="start" x="64" y="-1340565.32" font-family="Helvetica,sans-Serif" font-size="10.00">libsqsh/include/sqsh</text>
<text text-anchor="middle" x="139" y="-1340554.82" font-family="Helvetica,sans-Serif" font-size="10.00">_file_private.h</text>
</a>
</g>
</g>
<!-- Node1&#45;&gt;Node2 -->
<g id="edge1_Node000001_Node000002" class="edge">
<title>Node1&#45;&gt;Node2</title>
<g id="a_edge1_Node000001_Node000002"><a xlink:title=" ">
<path fill="none" stroke="#63b8ff" d="M209.79,-1340687.5C207.45,-1340669.74 202.67,-1340645.83 193,-1340626.75 183.56,-1340608.14 167.16,-1340590.65 154.9,-1340579.12"/>
<polygon fill="#63b8ff" stroke="#63b8ff" points="206.31,-1340687.89 210.91,-1340697.43 213.27,-1340687.1 206.31,-1340687.89"/>
</a>
</g>
</g>
<!-- Node6 -->
<g id="Node000006" class="node">
<title>Node6</title>
<g id="a_Node000006"><a xlink:href="sqsh__metablock__private_8h.html" target="_top" xlink:title=" ">
<polygon fill="white" stroke="#666666" points="184,-1340663.25 18,-1340663.25 18,-1340626.75 184,-1340626.75 184,-1340663.25"/>
<text text-anchor="start" x="26" y="-1340649.75" font-family="Helvetica,sans-Serif" font-size="10.00">libsqsh/include/sqsh</text>
<text text-anchor="middle" x="101" y="-1340631.75" font-family="Helvetica,sans-Serif" font-size="10.00">_metablock_private.h</text>
</a>
</g>
</g>
<!-- Node1&#45;&gt;Node6 -->
<g id="edge5_Node000001_Node000006" class="edge">
<title>Node1&#45;&gt;Node6</title>
<g id="a_edge5_Node000001_Node000006"><a xlink:title=" ">
<path fill="none" stroke="#63b8ff" d="M179.01,-1340692.92C163.5,-1340683.59 145.17,-1340672.57 130.18,-1340663.55"/>
<polygon fill="#63b8ff" stroke="#63b8ff" points="177.06,-1340695.83 187.43,-1340697.98 180.67,-1340689.83 177.06,-1340695.83"/>
</a>
</g>
</g>
<!-- Node8 -->
<g id="Node000008" class="node">
<title>Node8</title>
<g id="a_Node000008"><a xlink:href="sqsh__table__private_8h.html" target="_top" xlink:title=" ">
<polygon fill="white" stroke="#666666" points="406,-1340659.5 240,-1340659.5 240,-1340630.5 406,-1340630.5 406,-1340659.5"/>
<text text-anchor="start" x="248" y="-1340646" font-family="Helvetica,sans-Serif" font-size="10.00">libsqsh/include/sqsh</text>
<text text-anchor="middle" x="323" y="-1340635.5" font-family="Helvetica,sans-Serif" font-size="10.00">_table_private.h</text>
</a>
</g>
</g>
<!-- Node1&#45;&gt;Node8 -->
<g id="edge10_Node000001_Node000008" class="edge">
<title>Node1&#45;&gt;Node8</title>
<g id="a_edge10_Node000001_Node000008"><a xlink:title=" ">
<path fill="none" stroke="#63b8ff" d="M244.65,-1340693.12C262.34,-1340682.48 283.78,-1340669.59 299.76,-1340659.98"/>
<polygon fill="#63b8ff" stroke="#63b8ff" points="243.33,-1340689.83 236.57,-1340697.98 246.94,-1340695.83 243.33,-1340689.83"/>
</a>
</g>
</g>
<!-- Node3 -->
<g id="Node000003" class="node">
<title>Node3</title>
<g id="a_Node000003"><a xlink:href="sqsh__archive__private_8h.html" target="_top" xlink:title=" ">
<polygon fill="white" stroke="#666666" points="378,-1340501.89 212,-1340501.89 212,-88.86 378,-88.86 378,-1340501.89"/>
<text text-anchor="start" x="220" y="-1340488.39" font-family="Helvetica,sans-Serif" font-size="10.00">libsqsh/include/sqsh</text>
<text text-anchor="middle" x="295" y="-670279.53" font-family="Helvetica,sans-Serif" font-size="10.00">_archive_private.h</text>
</a>
</g>
</g>
<!-- Node2&#45;&gt;Node3 -->
<g id="edge2_Node000002_Node000003" class="edge">
<title>Node2&#45;&gt;Node3</title>
<g id="a_edge2_Node000002_Node000003"><a xlink:title=" ">
<path fill="none" stroke="#63b8ff" d="M156.37,-1340540.38C163.65,-1340529.36 171.28,-1340515.59 175,-1340501.89 188.05,-1340453.84 200.2,-1339182.8 211.5,-1336793.52"/>
<polygon fill="#63b8ff" stroke="#63b8ff" points="153.62,-1340538.21 150.77,-1340548.41 159.36,-1340542.21 153.62,-1340538.21"/>
</a>
</g>
</g>
<!-- Node4 -->
<g id="Node000004" class="node">
<title>Node4</title>
<g id="a_Node000004"><a xlink:href="sqsh__directory__private_8h.html" target="_top" xlink:title=" ">
<polygon fill="white" stroke="#666666" points="166,-670315.44 0,-670315.44 0,-670275.31 166,-670275.31 166,-670315.44"/>
<text text-anchor="start" x="8" y="-670301.94" font-family="Helvetica,sans-Serif" font-size="10.00">libsqsh/include/sqsh</text>
<text text-anchor="middle" x="83" y="-670291.44" font-family="Helvetica,sans-Serif" font-size="10.00">_directory_private.h</text>
</a>
</g>
</g>
<!-- Node2&#45;&gt;Node4 -->
<g id="edge3_Node000002_Node000004" class="edge">
<title>Node2&#45;&gt;Node4</title>
<g id="a_edge3_Node000002_Node000004"><a xlink:title=" ">
<path fill="none" stroke="#63b8ff" d="M139,-1340538.26C138.61,-1335847.85 83.35,-674437.1 83,-670315.72"/>
<polygon fill="#63b8ff" stroke="#63b8ff" points="135.5,-1340537.98 139,-1340547.98 142.5,-1340537.98 135.5,-1340537.98"/>
</a>
</g>
</g>
<!-- Node5 -->
<g id="Node000005" class="node">
<title>Node5</title>
<g id="a_Node000005"><a xlink:href="sqsh__tree__private_8h.html" target="_top" xlink:title=" ">
<polygon fill="white" stroke="#666666" points="166,-52.86 0,-52.86 0,0 166,0 166,-52.86"/>
<text text-anchor="start" x="8" y="-39.36" font-family="Helvetica,sans-Serif" font-size="10.00">libsqsh/include/sqsh</text>
<text text-anchor="middle" x="83" y="-28.86" font-family="Helvetica,sans-Serif" font-size="10.00">_tree_private.h</text>
</a>
</g>
</g>
<!-- Node4&#45;&gt;Node5 -->
<g id="edge4_Node000004_Node000005" class="edge">
<title>Node4&#45;&gt;Node5</title>
<g id="a_edge4_Node000004_Node000005"><a xlink:title=" ">
<path fill="none" stroke="#63b8ff" d="M83,-670263.86C83,-665093.95 83,-4812.42 83,-53.28"/>
<polygon fill="#63b8ff" stroke="#63b8ff" points="79.5,-670263.42 83,-670273.42 86.5,-670263.42 79.5,-670263.42"/>
</a>
</g>
</g>
<!-- Node6&#45;&gt;Node2 -->
<g id="edge7_Node000006_Node000002" class="edge">
<title>Node6&#45;&gt;Node2</title>
<g id="a_edge7_Node000006_Node000002"><a xlink:title=" ">
<path fill="none" stroke="#63b8ff" d="M114.3,-1340616.47C120.41,-1340603.83 127.38,-1340589.38 132.36,-1340579.08"/>
<polygon fill="#63b8ff" stroke="#63b8ff" points="111.29,-1340614.65 110.09,-1340625.18 117.59,-1340617.7 111.29,-1340614.65"/>
</a>
</g>
</g>
<!-- Node6&#45;&gt;Node4 -->
<g id="edge6_Node000006_Node000004" class="edge">
<title>Node6&#45;&gt;Node4</title>
<g id="a_edge6_Node000006_Node000004"><a xlink:title=" ">
<path fill="none" stroke="#63b8ff" d="M67,-1340618.59C58.91,-1340610.66 51.37,-1340601.21 47,-1340590.75 37.93,-1340569.08 47,-1340561.39 47,-1340537.89 54.97,-1043898.2 82.77,-673408.65 83,-670315.87"/>
<polygon fill="#63b8ff" stroke="#63b8ff" points="64.62,-1340621.16 74.38,-1340625.27 69.31,-1340615.97 64.62,-1340621.16"/>
</a>
</g>
</g>
<!-- Node7 -->
<g id="Node000007" class="node">
<title>Node7</title>
<g id="a_Node000007"><a xlink:href="sqsh__xattr__private_8h.html" target="_top" xlink:title=" ">
<polygon fill="white" stroke="#666666" points="406,-1340590.75 240,-1340590.75 240,-1340537.89 406,-1340537.89 406,-1340590.75"/>
<text text-anchor="start" x="248" y="-1340577.25" font-family="Helvetica,sans-Serif" font-size="10.00">libsqsh/include/sqsh</text>
<text text-anchor="middle" x="323" y="-1340542.89" font-family="Helvetica,sans-Serif" font-size="10.00">_xattr_private.h</text>
</a>
</g>
</g>
<!-- Node6&#45;&gt;Node7 -->
<g id="edge8_Node000006_Node000007" class="edge">
<title>Node6&#45;&gt;Node7</title>
<g id="a_edge8_Node000006_Node000007"><a xlink:title=" ">
<path fill="none" stroke="#63b8ff" d="M161.43,-1340622.59C188.82,-1340612.88 221.44,-1340601.32 250.17,-1340591.13"/>
<polygon fill="#63b8ff" stroke="#63b8ff" points="160.5,-1340619.2 152.25,-1340625.84 162.84,-1340625.8 160.5,-1340619.2"/>
</a>
</g>
</g>
<!-- Node7&#45;&gt;Node3 -->
<g id="edge9_Node000007_Node000003" class="edge">
<title>Node7&#45;&gt;Node3</title>
<g id="a_edge9_Node000007_Node000003"><a xlink:title=" ">
<path fill="none" stroke="#63b8ff" d="M323,-1340526.24C323,-1340519.26 323,-1340511.3 323,-1340502.35"/>
<polygon fill="#63b8ff" stroke="#63b8ff" points="319.5,-1340526.24 323,-1340536.24 326.5,-1340526.23 319.5,-1340526.24"/>
</a>
</g>
</g>
<!-- Node8&#45;&gt;Node7 -->
<g id="edge11_Node000008_Node000007" class="edge">
<title>Node8&#45;&gt;Node7</title>
<g id="a_edge11_Node000008_Node000007"><a xlink:title=" ">
<path fill="none" stroke="#63b8ff" d="M323,-1340619.01C323,-1340610.06 323,-1340599.95 323,-1340590.94"/>
<polygon fill="#63b8ff" stroke="#63b8ff" points="319.5,-1340618.79 323,-1340628.79 326.5,-1340618.79 319.5,-1340618.79"/>
</a>
</g>
</g>
</g>
</svg>
