<?xml version="1.0" encoding="UTF-8" standalone="no"?>
<!DOCTYPE svg PUBLIC "-//W3C//DTD SVG 1.1//EN"
 "http://www.w3.org/Graphics/SVG/1.1/DTD/svg11.dtd">
<!-- Generated by graphviz version 8.0.5 (20230430.1635)
 -->
<!-- Title: include/sqsh_xattr.h Pages: 1 -->
<svg width="1582pt" height="1437039pt"
 viewBox="0.00 0.00 1582.25 1437039.12" xmlns="http://www.w3.org/2000/svg" xmlns:xlink="http://www.w3.org/1999/xlink">
<g id="graph0" class="graph" transform="scale(1 1) rotate(0) translate(4 1437035.12)">
<title>include/sqsh_xattr.h</title>
<!-- Node1 -->
<g id="node1" class="node">
<title>Node1</title>
<g id="a_node1"><a xlink:title=" ">
<polygon fill="#999999" stroke="#666666" points="941.25,-1437031.12 775.25,-1437031.12 775.25,-1437012.62 941.25,-1437012.62 941.25,-1437031.12"/>
<text text-anchor="middle" x="858.25" y="-1437017.62" font-family="Helvetica,sans-Serif" font-size="10.00">include/sqsh_xattr.h</text>
</a>
</g>
</g>
<!-- Node2 -->
<g id="node2" class="node">
<title>Node2</title>
<g id="a_node2"><a xlink:href="sqsh_8h.html" target="_top" xlink:title=" ">
<polygon fill="white" stroke="#666666" points="837.75,-1436971.38 716.75,-1436971.38 716.75,-1436952.88 837.75,-1436952.88 837.75,-1436971.38"/>
<text text-anchor="middle" x="777.25" y="-1436957.88" font-family="Helvetica,sans-Serif" font-size="10.00">include/sqsh.h</text>
</a>
</g>
</g>
<!-- Node1&#45;&gt;Node2 -->
<g id="edge1" class="edge">
<title>Node1&#45;&gt;Node2</title>
<path fill="none" stroke="#63b8ff" d="M837.59,-1437006.14C822.39,-1436995.31 802.25,-1436980.95 789.52,-1436971.87"/>
<polygon fill="#63b8ff" stroke="#63b8ff" points="835.12,-1437009.4 845.3,-1437012.35 839.19,-1437003.7 835.12,-1437009.4"/>
</g>
<!-- Node10 -->
<g id="node10" class="node">
<title>Node10</title>
<g id="a_node10"><a xlink:href="sqsh__xattr__private_8h.html" target="_top" xlink:title=" ">
<polygon fill="white" stroke="#666666" points="1298.25,-1436976.62 1132.25,-1436976.62 1132.25,-1436947.62 1298.25,-1436947.62 1298.25,-1436976.62"/>
<text text-anchor="start" x="1140.25" y="-1436963.12" font-family="Helvetica,sans-Serif" font-size="10.00">libsqsh/include/sqsh</text>
<text text-anchor="middle" x="1215.25" y="-1436952.62" font-family="Helvetica,sans-Serif" font-size="10.00">_xattr_private.h</text>
</a>
</g>
</g>
<!-- Node1&#45;&gt;Node10 -->
<g id="edge9" class="edge">
<title>Node1&#45;&gt;Node10</title>
<path fill="none" stroke="#63b8ff" d="M922.69,-1437010.45C981.33,-1437000.97 1068.22,-1436986.91 1132.08,-1436976.58"/>
<polygon fill="#63b8ff" stroke="#63b8ff" points="922.4,-1437007.11 913.08,-1437012.17 923.51,-1437014.02 922.4,-1437007.11"/>
</g>
<!-- Node3 -->
<g id="node3" class="node">
<title>Node3</title>
<g id="a_node3"><a xlink:href="list__dir_8c.html" target="_top" xlink:title=" ">
<polygon fill="white" stroke="#666666" points="158.5,-718465.06 0,-718465.06 0,-718446.56 158.5,-718446.56 158.5,-718465.06"/>
<text text-anchor="middle" x="79.25" y="-718451.56" font-family="Helvetica,sans-Serif" font-size="10.00">examples/list_dir.c</text>
</a>
</g>
</g>
<!-- Node2&#45;&gt;Node3 -->
<g id="edge2" class="edge">
<title>Node2&#45;&gt;Node3</title>
<path fill="none" stroke="#63b8ff" d="M705.83,-1436960.64C552.58,-1436958.86 203.13,-1436950.53 167.25,-1436911.62 167.25,-1436911.62 79.6,-721348.06 79.25,-718465.54"/>
<polygon fill="#63b8ff" stroke="#63b8ff" points="705.48,-1436964.15 715.52,-1436960.76 705.56,-1436957.15 705.48,-1436964.15"/>
</g>
<!-- Node4 -->
<g id="node4" class="node">
<title>Node4</title>
<g id="a_node4"><a xlink:href="list__dir__ll_8c.html" target="_top" xlink:title=" ">
<polygon fill="white" stroke="#666666" points="357.75,-718465.06 176.75,-718465.06 176.75,-718446.56 357.75,-718446.56 357.75,-718465.06"/>
<text text-anchor="middle" x="267.25" y="-718451.56" font-family="Helvetica,sans-Serif" font-size="10.00">examples/list_dir_ll.c</text>
</a>
</g>
</g>
<!-- Node2&#45;&gt;Node4 -->
<g id="edge3" class="edge">
<title>Node2&#45;&gt;Node4</title>
<path fill="none" stroke="#63b8ff" d="M705.63,-1436957.59C593.85,-1436951.32 388.35,-1436936.54 366.25,-1436911.62 366.25,-1436911.62 267.65,-721348.06 267.25,-718465.54"/>
<polygon fill="#63b8ff" stroke="#63b8ff" points="705.3,-1436961.13 715.47,-1436958.18 705.68,-1436954.14 705.3,-1436961.13"/>
</g>
<!-- Node5 -->
<g id="node5" class="node">
<title>Node5</title>
<g id="a_node5"><a xlink:href="list__xattrs_8c.html" target="_top" xlink:title=" ">
<polygon fill="white" stroke="#666666" points="556.75,-718465.06 375.75,-718465.06 375.75,-718446.56 556.75,-718446.56 556.75,-718465.06"/>
<text text-anchor="middle" x="466.25" y="-718451.56" font-family="Helvetica,sans-Serif" font-size="10.00">examples/list_xattrs.c</text>
</a>
</g>
</g>
<!-- Node2&#45;&gt;Node5 -->
<g id="edge4" class="edge">
<title>Node2&#45;&gt;Node5</title>
<path fill="none" stroke="#63b8ff" d="M705.57,-1436953.88C651.11,-1436946.72 582.68,-1436933.59 565.25,-1436911.62 565.25,-1436911.62 466.65,-721348.06 466.25,-718465.54"/>
<polygon fill="#63b8ff" stroke="#63b8ff" points="704.9,-1436957.45 715.26,-1436955.23 705.78,-1436950.5 704.9,-1436957.45"/>
</g>
<!-- Node6 -->
<g id="node6" class="node">
<title>Node6</title>
<g id="a_node6"><a xlink:href="list__xattrs__ll_8c.html" target="_top" xlink:title=" ">
<polygon fill="white" stroke="#666666" points="778,-1436853.74 574.5,-1436853.74 574.5,-57.88 778,-57.88 778,-1436853.74"/>
<text text-anchor="middle" x="676.25" y="-1436840.24" font-family="Helvetica,sans-Serif" font-size="10.00">examples/list_xattrs_ll.c</text>
</a>
</g>
</g>
<!-- Node2&#45;&gt;Node6 -->
<g id="edge5" class="edge">
<title>Node2&#45;&gt;Node6</title>
<path fill="none" stroke="#63b8ff" d="M777.25,-1436941.49C777.24,-1436923.96 777.24,-1436894.73 777.23,-1436853.89"/>
<polygon fill="#63b8ff" stroke="#63b8ff" points="773.75,-1436941.39 777.25,-1436951.39 780.75,-1436941.39 773.75,-1436941.39"/>
</g>
<!-- Node7 -->
<g id="node7" class="node">
<title>Node7</title>
<g id="a_node7"><a xlink:href="read__file_8c.html" target="_top" xlink:title=" ">
<polygon fill="white" stroke="#666666" points="962.25,-1436853.82 796.25,-1436853.82 796.25,-57.8 962.25,-57.8 962.25,-1436853.82"/>
<text text-anchor="middle" x="879.25" y="-1436840.32" font-family="Helvetica,sans-Serif" font-size="10.00">examples/read_file.c</text>
</a>
</g>
</g>
<!-- Node2&#45;&gt;Node7 -->
<g id="edge6" class="edge">
<title>Node2&#45;&gt;Node7</title>
<path fill="none" stroke="#63b8ff" d="M782.07,-1436941.85C784.11,-1436932.75 786.24,-1436921.69 787.25,-1436911.62 790.14,-1436882.76 792.97,-1436757.44 795.75,-1436537.91"/>
<polygon fill="#63b8ff" stroke="#63b8ff" points="778.46,-1436940.9 779.55,-1436951.44 785.27,-1436942.52 778.46,-1436940.9"/>
</g>
<!-- Node8 -->
<g id="node8" class="node">
<title>Node8</title>
<g id="a_node8"><a xlink:href="read__file__ll_8c.html" target="_top" xlink:title=" ">
<polygon fill="white" stroke="#666666" points="1168.5,-1436853.89 980,-1436853.89 980,-57.73 1168.5,-57.73 1168.5,-1436853.89"/>
<text text-anchor="middle" x="1074.25" y="-1436840.39" font-family="Helvetica,sans-Serif" font-size="10.00">examples/read_file_ll.c</text>
</a>
</g>
</g>
<!-- Node2&#45;&gt;Node8 -->
<g id="edge7" class="edge">
<title>Node2&#45;&gt;Node8</title>
<path fill="none" stroke="#63b8ff" d="M848.36,-1436952.18C897.25,-1436944.4 956,-1436931.25 971.25,-1436911.62 974.04,-1436908.04 976.79,-1436866.45 979.5,-1436787.4"/>
<polygon fill="#63b8ff" stroke="#63b8ff" points="848.13,-1436948.83 838.77,-1436953.8 849.19,-1436955.74 848.13,-1436948.83"/>
</g>
<!-- Node9 -->
<g id="node9" class="node">
<title>Node9</title>
<g id="a_node9"><a xlink:href="readme__example_8c.html" target="_top" xlink:title=" ">
<polygon fill="white" stroke="#666666" points="1390,-718465.06 1186.5,-718465.06 1186.5,-718446.56 1390,-718446.56 1390,-718465.06"/>
<text text-anchor="middle" x="1288.25" y="-718451.56" font-family="Helvetica,sans-Serif" font-size="10.00">examples/readme_example.c</text>
</a>
</g>
</g>
<!-- Node2&#45;&gt;Node9 -->
<g id="edge8" class="edge">
<title>Node2&#45;&gt;Node9</title>
<path fill="none" stroke="#63b8ff" d="M849,-1436957.32C958.24,-1436950.79 1155.91,-1436935.76 1177.25,-1436911.62 1589.48,-1436445.31 1289.46,-721346.19 1288.25,-718465.54"/>
<polygon fill="#63b8ff" stroke="#63b8ff" points="848.85,-1436953.88 839.07,-1436957.97 849.26,-1436960.87 848.85,-1436953.88"/>
</g>
<!-- Node11 -->
<g id="node11" class="node">
<title>Node11</title>
<g id="a_node11"><a xlink:href="sqsh__archive__private_8h.html" target="_top" xlink:title=" ">
<polygon fill="white" stroke="#666666" points="1574.25,-1436911.62 1408.25,-1436911.62 1408.25,0 1574.25,0 1574.25,-1436911.62"/>
<text text-anchor="start" x="1416.25" y="-1436898.12" font-family="Helvetica,sans-Serif" font-size="10.00">libsqsh/include/sqsh</text>
<text text-anchor="middle" x="1491.25" y="-5" font-family="Helvetica,sans-Serif" font-size="10.00">_archive_private.h</text>
</a>
</g>
</g>
<!-- Node10&#45;&gt;Node11 -->
<g id="edge10" class="edge">
<title>Node10&#45;&gt;Node11</title>
<path fill="none" stroke="#63b8ff" d="M1309.34,-1436946.64C1348.48,-1436938.51 1387.54,-1436926.9 1399.25,-1436911.62 1399.25,-1436911.62 1402.49,-1411622.09 1407.75,-1370532.48"/>
<polygon fill="#63b8ff" stroke="#63b8ff" points="1308.71,-1436943.39 1299.59,-1436948.78 1310.08,-1436950.26 1308.71,-1436943.39"/>
</g>
</g>
</svg>
