<?xml version="1.0" encoding="UTF-8" standalone="no"?>
<!DOCTYPE svg PUBLIC "-//W3C//DTD SVG 1.1//EN"
 "http://www.w3.org/Graphics/SVG/1.1/DTD/svg11.dtd">
<!-- Generated by graphviz version 9.0.0 (20230911.1827)
 -->
<!-- Title: libsqsh/include/sqsh_mapper_private.h Pages: 1 -->
<svg width="414pt" height="2573964pt"
 viewBox="0.00 0.00 414.00 2573964.42" xmlns="http://www.w3.org/2000/svg" xmlns:xlink="http://www.w3.org/1999/xlink">
<g id="graph0" class="graph" transform="scale(1 1) rotate(0) translate(4 2573960.42)">
<title>libsqsh/include/sqsh_mapper_private.h</title>
<!-- Node1 -->
<g id="Node000001" class="node">
<title>Node1</title>
<g id="a_Node000001"><a xlink:title=" ">
<polygon fill="#999999" stroke="#666666" points="295,-2573956.42 129,-2573956.42 129,-2573927.42 295,-2573927.42 295,-2573956.42"/>
<text text-anchor="start" x="137" y="-2573942.92" font-family="Helvetica,sans-Serif" font-size="10.00">libsqsh/include/sqsh</text>
<text text-anchor="middle" x="212" y="-2573932.42" font-family="Helvetica,sans-Serif" font-size="10.00">_mapper_private.h</text>
</a>
</g>
</g>
<!-- Node2 -->
<g id="Node000002" class="node">
<title>Node2</title>
<g id="a_Node000002"><a xlink:href="sqsh__file__private_8h.html" target="_top" xlink:title=" ">
<polygon fill="white" stroke="#666666" points="222,-2573806.95 56,-2573806.95 56,-2573777.94 222,-2573777.94 222,-2573806.95"/>
<text text-anchor="start" x="64" y="-2573793.45" font-family="Helvetica,sans-Serif" font-size="10.00">libsqsh/include/sqsh</text>
<text text-anchor="middle" x="139" y="-2573782.95" font-family="Helvetica,sans-Serif" font-size="10.00">_file_private.h</text>
</a>
</g>
</g>
<!-- Node1&#45;&gt;Node2 -->
<g id="edge1_Node000001_Node000002" class="edge">
<title>Node1&#45;&gt;Node2</title>
<g id="a_edge1_Node000001_Node000002"><a xlink:title=" ">
<path fill="none" stroke="#63b8ff" d="M209.79,-2573915.66C207.45,-2573897.9 202.67,-2573874 193,-2573854.92 183.56,-2573836.29 167.16,-2573818.79 154.9,-2573807.26"/>
<polygon fill="#63b8ff" stroke="#63b8ff" points="206.31,-2573916.05 210.91,-2573925.6 213.26,-2573915.27 206.31,-2573916.05"/>
</a>
</g>
</g>
<!-- Node6 -->
<g id="Node000006" class="node">
<title>Node6</title>
<g id="a_Node000006"><a xlink:href="sqsh__metablock__private_8h.html" target="_top" xlink:title=" ">
<polygon fill="white" stroke="#666666" points="184,-2573891.42 18,-2573891.42 18,-2573854.92 184,-2573854.92 184,-2573891.42"/>
<text text-anchor="start" x="26" y="-2573877.92" font-family="Helvetica,sans-Serif" font-size="10.00">libsqsh/include/sqsh</text>
<text text-anchor="middle" x="101" y="-2573859.92" font-family="Helvetica,sans-Serif" font-size="10.00">_metablock_private.h</text>
</a>
</g>
</g>
<!-- Node1&#45;&gt;Node6 -->
<g id="edge5_Node000001_Node000006" class="edge">
<title>Node1&#45;&gt;Node6</title>
<g id="a_edge5_Node000001_Node000006"><a xlink:title=" ">
<path fill="none" stroke="#63b8ff" d="M179.01,-2573921.08C163.5,-2573911.75 145.17,-2573900.73 130.18,-2573891.71"/>
<polygon fill="#63b8ff" stroke="#63b8ff" points="177.06,-2573923.99 187.43,-2573926.14 180.67,-2573917.99 177.06,-2573923.99"/>
</a>
</g>
</g>
<!-- Node8 -->
<g id="Node000008" class="node">
<title>Node8</title>
<g id="a_Node000008"><a xlink:href="sqsh__table__private_8h.html" target="_top" xlink:title=" ">
<polygon fill="white" stroke="#666666" points="406,-2573887.67 240,-2573887.67 240,-2573858.67 406,-2573858.67 406,-2573887.67"/>
<text text-anchor="start" x="248" y="-2573874.17" font-family="Helvetica,sans-Serif" font-size="10.00">libsqsh/include/sqsh</text>
<text text-anchor="middle" x="323" y="-2573863.67" font-family="Helvetica,sans-Serif" font-size="10.00">_table_private.h</text>
</a>
</g>
</g>
<!-- Node1&#45;&gt;Node8 -->
<g id="edge10_Node000001_Node000008" class="edge">
<title>Node1&#45;&gt;Node8</title>
<g id="a_edge10_Node000001_Node000008"><a xlink:title=" ">
<path fill="none" stroke="#63b8ff" d="M244.65,-2573921.28C262.34,-2573910.64 283.78,-2573897.75 299.76,-2573888.14"/>
<polygon fill="#63b8ff" stroke="#63b8ff" points="243.33,-2573917.99 236.57,-2573926.14 246.94,-2573923.99 243.33,-2573917.99"/>
</a>
</g>
</g>
<!-- Node3 -->
<g id="Node000003" class="node">
<title>Node3</title>
<g id="a_Node000003"><a xlink:href="sqsh__archive__private_8h.html" target="_top" xlink:title=" ">
<polygon fill="white" stroke="#666666" points="378,-2573729.97 212,-2573729.97 212,-88.95 378,-88.95 378,-2573729.97"/>
<text text-anchor="start" x="220" y="-2573716.47" font-family="Helvetica,sans-Serif" font-size="10.00">libsqsh/include/sqsh</text>
<text text-anchor="middle" x="295" y="-1286893.61" font-family="Helvetica,sans-Serif" font-size="10.00">_archive_private.h</text>
</a>
</g>
</g>
<!-- Node2&#45;&gt;Node3 -->
<g id="edge2_Node000002_Node000003" class="edge">
<title>Node2&#45;&gt;Node3</title>
<g id="a_edge2_Node000002_Node000003"><a xlink:title=" ">
<path fill="none" stroke="#63b8ff" d="M156.37,-2573768.49C163.65,-2573757.46 171.28,-2573743.68 175,-2573729.97 188.08,-2573681.77 200.22,-2571065.64 211.5,-2566111.3"/>
<polygon fill="#63b8ff" stroke="#63b8ff" points="153.62,-2573766.32 150.77,-2573776.52 159.36,-2573770.32 153.62,-2573766.32"/>
</a>
</g>
</g>
<!-- Node4 -->
<g id="Node000004" class="node">
<title>Node4</title>
<g id="a_Node000004"><a xlink:href="sqsh__directory__private_8h.html" target="_top" xlink:title=" ">
<polygon fill="white" stroke="#666666" points="166,-1286929.53 0,-1286929.53 0,-1286889.39 166,-1286889.39 166,-1286929.53"/>
<text text-anchor="start" x="8" y="-1286916.03" font-family="Helvetica,sans-Serif" font-size="10.00">libsqsh/include/sqsh</text>
<text text-anchor="middle" x="83" y="-1286905.53" font-family="Helvetica,sans-Serif" font-size="10.00">_directory_private.h</text>
</a>
</g>
</g>
<!-- Node2&#45;&gt;Node4 -->
<g id="edge3_Node000002_Node000004" class="edge">
<title>Node2&#45;&gt;Node4</title>
<g id="a_edge3_Node000002_Node000004"><a xlink:title=" ">
<path fill="none" stroke="#63b8ff" d="M139,-2573766.17C138.71,-2567223.96 83.25,-1292651.42 83,-1286929.78"/>
<polygon fill="#63b8ff" stroke="#63b8ff" points="135.5,-2573766.13 139,-2573776.13 142.5,-2573766.13 135.5,-2573766.13"/>
</a>
</g>
</g>
<!-- Node5 -->
<g id="Node000005" class="node">
<title>Node5</title>
<g id="a_Node000005"><a xlink:href="sqsh__tree__private_8h.html" target="_top" xlink:title=" ">
<polygon fill="white" stroke="#666666" points="166,-52.95 0,-52.95 0,0 166,0 166,-52.95"/>
<text text-anchor="start" x="8" y="-39.45" font-family="Helvetica,sans-Serif" font-size="10.00">libsqsh/include/sqsh</text>
<text text-anchor="middle" x="83" y="-28.95" font-family="Helvetica,sans-Serif" font-size="10.00">_tree_private.h</text>
</a>
</g>
</g>
<!-- Node4&#45;&gt;Node5 -->
<g id="edge4_Node000004_Node000005" class="edge">
<title>Node4&#45;&gt;Node5</title>
<g id="a_edge4_Node000004_Node000005"><a xlink:title=" ">
<path fill="none" stroke="#63b8ff" d="M83,-1286877.81C83,-1279679.22 83,-6661.46 83,-53.29"/>
<polygon fill="#63b8ff" stroke="#63b8ff" points="79.5,-1286877.55 83,-1286887.55 86.5,-1286877.55 79.5,-1286877.55"/>
</a>
</g>
</g>
<!-- Node6&#45;&gt;Node2 -->
<g id="edge7_Node000006_Node000002" class="edge">
<title>Node6&#45;&gt;Node2</title>
<g id="a_edge7_Node000006_Node000002"><a xlink:title=" ">
<path fill="none" stroke="#63b8ff" d="M114.3,-2573844.62C120.41,-2573831.97 127.38,-2573817.52 132.36,-2573807.21"/>
<polygon fill="#63b8ff" stroke="#63b8ff" points="111.29,-2573842.81 110.09,-2573853.33 117.59,-2573845.85 111.29,-2573842.81"/>
</a>
</g>
</g>
<!-- Node6&#45;&gt;Node4 -->
<g id="edge6_Node000006_Node000004" class="edge">
<title>Node6&#45;&gt;Node4</title>
<g id="a_edge6_Node000006_Node000004"><a xlink:title=" ">
<path fill="none" stroke="#63b8ff" d="M67,-2573846.75C58.91,-2573838.82 51.37,-2573829.37 47,-2573818.92 37.92,-2573797.21 47,-2573789.5 47,-2573765.97 54.98,-2003558.14 82.83,-1291229.04 83,-1286930.01"/>
<polygon fill="#63b8ff" stroke="#63b8ff" points="64.62,-2573849.32 74.38,-2573853.44 69.31,-2573844.13 64.62,-2573849.32"/>
</a>
</g>
</g>
<!-- Node7 -->
<g id="Node000007" class="node">
<title>Node7</title>
<g id="a_Node000007"><a xlink:href="sqsh__xattr__private_8h.html" target="_top" xlink:title=" ">
<polygon fill="white" stroke="#666666" points="406,-2573818.92 240,-2573818.92 240,-2573765.97 406,-2573765.97 406,-2573818.92"/>
<text text-anchor="start" x="248" y="-2573805.42" font-family="Helvetica,sans-Serif" font-size="10.00">libsqsh/include/sqsh</text>
<text text-anchor="middle" x="323" y="-2573770.97" font-family="Helvetica,sans-Serif" font-size="10.00">_xattr_private.h</text>
</a>
</g>
</g>
<!-- Node6&#45;&gt;Node7 -->
<g id="edge8_Node000006_Node000007" class="edge">
<title>Node6&#45;&gt;Node7</title>
<g id="a_edge8_Node000006_Node000007"><a xlink:title=" ">
<path fill="none" stroke="#63b8ff" d="M161.43,-2573850.74C188.82,-2573841.02 221.44,-2573829.46 250.17,-2573819.27"/>
<polygon fill="#63b8ff" stroke="#63b8ff" points="160.5,-2573847.35 152.25,-2573853.99 162.84,-2573853.95 160.5,-2573847.35"/>
</a>
</g>
</g>
<!-- Node7&#45;&gt;Node3 -->
<g id="edge9_Node000007_Node000003" class="edge">
<title>Node7&#45;&gt;Node3</title>
<g id="a_edge9_Node000007_Node000003"><a xlink:title=" ">
<path fill="none" stroke="#63b8ff" d="M323,-2573754.23C323,-2573747.16 323,-2573739.09 323,-2573730.02"/>
<polygon fill="#63b8ff" stroke="#63b8ff" points="319.5,-2573754 323,-2573764 326.5,-2573754 319.5,-2573754"/>
</a>
</g>
</g>
<!-- Node8&#45;&gt;Node7 -->
<g id="edge11_Node000008_Node000007" class="edge">
<title>Node8&#45;&gt;Node7</title>
<g id="a_edge11_Node000008_Node000007"><a xlink:title=" ">
<path fill="none" stroke="#63b8ff" d="M323,-2573846.96C323,-2573838.15 323,-2573828.26 323,-2573819.4"/>
<polygon fill="#63b8ff" stroke="#63b8ff" points="319.5,-2573846.94 323,-2573856.94 326.5,-2573846.94 319.5,-2573846.94"/>
</a>
</g>
</g>
</g>
</svg>
