<?xml version="1.0" encoding="UTF-8" standalone="no"?>
<!DOCTYPE svg PUBLIC "-//W3C//DTD SVG 1.1//EN"
 "http://www.w3.org/Graphics/SVG/1.1/DTD/svg11.dtd">
<!-- Generated by graphviz version 9.0.0 (20230911.1827)
 -->
<!-- Title: include/sqsh_table.h Pages: 1 -->
<svg width="2044pt" height="1384574pt"
 viewBox="0.00 0.00 2044.16 1384574.20" xmlns="http://www.w3.org/2000/svg" xmlns:xlink="http://www.w3.org/1999/xlink">
<g id="graph0" class="graph" transform="scale(1 1) rotate(0) translate(4 1384570.2)">
<title>include/sqsh_table.h</title>
<!-- Node1 -->
<g id="Node000001" class="node">
<title>Node1</title>
<g id="a_Node000001"><a xlink:title=" ">
<polygon fill="#999999" stroke="#666666" points="1140.25,-1384566.2 974.25,-1384566.2 974.25,-1384547.7 1140.25,-1384547.7 1140.25,-1384566.2"/>
<text text-anchor="middle" x="1057.25" y="-1384552.7" font-family="Helvetica,sans-Serif" font-size="10.00">include/sqsh_table.h</text>
</a>
</g>
</g>
<!-- Node2 -->
<g id="Node000002" class="node">
<title>Node2</title>
<g id="a_Node000002"><a xlink:href="sqsh_8h.html" target="_top" xlink:title=" ">
<polygon fill="white" stroke="#666666" points="1036.75,-1384506.45 915.75,-1384506.45 915.75,-1384487.95 1036.75,-1384487.95 1036.75,-1384506.45"/>
<text text-anchor="middle" x="976.25" y="-1384492.95" font-family="Helvetica,sans-Serif" font-size="10.00">include/sqsh.h</text>
</a>
</g>
</g>
<!-- Node1&#45;&gt;Node2 -->
<g id="edge1_Node000001_Node000002" class="edge">
<title>Node1&#45;&gt;Node2</title>
<g id="a_edge1_Node000001_Node000002"><a xlink:title=" ">
<path fill="none" stroke="#63b8ff" d="M1036.16,-1384540.91C1021.01,-1384530.11 1001.13,-1384515.94 988.52,-1384506.95"/>
<polygon fill="#63b8ff" stroke="#63b8ff" points="1033.89,-1384543.6 1044.07,-1384546.55 1037.96,-1384537.9 1033.89,-1384543.6"/>
</a>
</g>
</g>
<!-- Node12 -->
<g id="Node000012" class="node">
<title>Node12</title>
<g id="a_Node000012"><a xlink:href="sqsh__table__private_8h.html" target="_top" xlink:title=" ">
<polygon fill="white" stroke="#666666" points="1615.25,-1384511.7 1449.25,-1384511.7 1449.25,-1384482.7 1615.25,-1384482.7 1615.25,-1384511.7"/>
<text text-anchor="start" x="1457.25" y="-1384498.2" font-family="Helvetica,sans-Serif" font-size="10.00">libsqsh/include/sqsh</text>
<text text-anchor="middle" x="1532.25" y="-1384487.7" font-family="Helvetica,sans-Serif" font-size="10.00">_table_private.h</text>
</a>
</g>
</g>
<!-- Node1&#45;&gt;Node12 -->
<g id="edge11_Node000001_Node000012" class="edge">
<title>Node1&#45;&gt;Node12</title>
<g id="a_edge11_Node000001_Node000012"><a xlink:title=" ">
<path fill="none" stroke="#63b8ff" d="M1140.51,-1384545.83C1227.2,-1384535.29 1362.2,-1384518.88 1448.92,-1384508.33"/>
<polygon fill="#63b8ff" stroke="#63b8ff" points="1140.14,-1384542.35 1130.64,-1384547.03 1140.99,-1384549.3 1140.14,-1384542.35"/>
</a>
</g>
</g>
<!-- Node3 -->
<g id="Node000003" class="node">
<title>Node3</title>
<g id="a_Node000003"><a xlink:href="list__dir_8c.html" target="_top" xlink:title=" ">
<polygon fill="white" stroke="#666666" points="158.5,-1384384.35 0,-1384384.35 0,-151.2 158.5,-151.2 158.5,-1384384.35"/>
<text text-anchor="middle" x="79.25" y="-1384370.85" font-family="Helvetica,sans-Serif" font-size="10.00">examples/list_dir.c</text>
</a>
</g>
</g>
<!-- Node2&#45;&gt;Node3 -->
<g id="edge2_Node000002_Node000003" class="edge">
<title>Node2&#45;&gt;Node3</title>
<g id="a_edge2_Node000002_Node000003"><a xlink:title=" ">
<path fill="none" stroke="#63b8ff" d="M903.9,-1384494.43C710.11,-1384489.35 192.3,-1384473.33 167.25,-1384446.7 167.25,-1384446.7 164.1,-1359695.92 159,-1319554.98"/>
<polygon fill="#63b8ff" stroke="#63b8ff" points="903.76,-1384497.93 913.85,-1384494.69 903.94,-1384490.93 903.76,-1384497.93"/>
</a>
</g>
</g>
<!-- Node4 -->
<g id="Node000004" class="node">
<title>Node4</title>
<g id="a_Node000004"><a xlink:href="list__dir__ll_8c.html" target="_top" xlink:title=" ">
<polygon fill="white" stroke="#666666" points="357.75,-1384384.07 176.75,-1384384.07 176.75,-151.48 357.75,-151.48 357.75,-1384384.07"/>
<text text-anchor="middle" x="267.25" y="-1384370.57" font-family="Helvetica,sans-Serif" font-size="10.00">examples/list_dir_ll.c</text>
</a>
</g>
</g>
<!-- Node2&#45;&gt;Node4 -->
<g id="edge3_Node000002_Node000004" class="edge">
<title>Node2&#45;&gt;Node4</title>
<g id="a_edge3_Node000002_Node000004"><a xlink:title=" ">
<path fill="none" stroke="#63b8ff" d="M904.2,-1384495.7C750.82,-1384493.88 403.01,-1384485.48 367.25,-1384446.7 367.25,-1384446.7 363.83,-1360760.22 358.25,-1322150.65"/>
<polygon fill="#63b8ff" stroke="#63b8ff" points="903.79,-1384499.19 913.83,-1384495.81 903.87,-1384492.2 903.79,-1384499.19"/>
</a>
</g>
</g>
<!-- Node5 -->
<g id="Node000005" class="node">
<title>Node5</title>
<g id="a_Node000005"><a xlink:href="list__xattrs_8c.html" target="_top" xlink:title=" ">
<polygon fill="white" stroke="#666666" points="556.75,-692277.03 375.75,-692277.03 375.75,-692258.53 556.75,-692258.53 556.75,-692277.03"/>
<text text-anchor="middle" x="466.25" y="-692263.53" font-family="Helvetica,sans-Serif" font-size="10.00">examples/list_xattrs.c</text>
</a>
</g>
</g>
<!-- Node2&#45;&gt;Node5 -->
<g id="edge4_Node000002_Node000005" class="edge">
<title>Node2&#45;&gt;Node5</title>
<g id="a_edge4_Node000002_Node000005"><a xlink:title=" ">
<path fill="none" stroke="#63b8ff" d="M904.29,-1384492.64C792.44,-1384486.37 587.32,-1384471.59 565.25,-1384446.7 565.25,-1384446.7 466.65,-695096.45 466.25,-692277.45"/>
<polygon fill="#63b8ff" stroke="#63b8ff" points="903.78,-1384496.12 913.96,-1384493.18 904.17,-1384489.13 903.78,-1384496.12"/>
</a>
</g>
</g>
<!-- Node6 -->
<g id="Node000006" class="node">
<title>Node6</title>
<g id="a_Node000006"><a xlink:href="list__xattrs__ll_8c.html" target="_top" xlink:title=" ">
<polygon fill="white" stroke="#666666" points="778,-1384446.7 574.5,-1384446.7 574.5,-88.85 778,-88.85 778,-1384446.7"/>
<text text-anchor="middle" x="676.25" y="-1384433.2" font-family="Helvetica,sans-Serif" font-size="10.00">examples/list_xattrs_ll.c</text>
</a>
</g>
</g>
<!-- Node2&#45;&gt;Node6 -->
<g id="edge5_Node000002_Node000006" class="edge">
<title>Node2&#45;&gt;Node6</title>
<g id="a_edge5_Node000002_Node000006"><a xlink:title=" ">
<path fill="none" stroke="#63b8ff" d="M904.19,-1384486.54C857.12,-1384478.59 801.79,-1384465.53 787.25,-1384446.7 784.29,-1384442.87 781.37,-1384394.17 778.5,-1384301.33"/>
<polygon fill="#63b8ff" stroke="#63b8ff" points="903.4,-1384489.96 913.84,-1384488.11 904.53,-1384483.05 903.4,-1384489.96"/>
</a>
</g>
</g>
<!-- Node7 -->
<g id="Node000007" class="node">
<title>Node7</title>
<g id="a_Node000007"><a xlink:href="read__file_8c.html" target="_top" xlink:title=" ">
<polygon fill="white" stroke="#666666" points="962.25,-692277.03 796.25,-692277.03 796.25,-692258.53 962.25,-692258.53 962.25,-692277.03"/>
<text text-anchor="middle" x="879.25" y="-692263.53" font-family="Helvetica,sans-Serif" font-size="10.00">examples/read_file.c</text>
</a>
</g>
</g>
<!-- Node2&#45;&gt;Node7 -->
<g id="edge6_Node000002_Node000007" class="edge">
<title>Node2&#45;&gt;Node7</title>
<g id="a_edge6_Node000002_Node000007"><a xlink:title=" ">
<path fill="none" stroke="#63b8ff" d="M973.77,-1384476.2C972.77,-1384467.2 971.74,-1384456.43 971.25,-1384446.7 729.58,-1379655.83 878.64,-695076.85 879.25,-692277.39"/>
<polygon fill="#63b8ff" stroke="#63b8ff" points="970.27,-1384476.44 974.92,-1384485.96 977.22,-1384475.61 970.27,-1384476.44"/>
</a>
</g>
</g>
<!-- Node8 -->
<g id="Node000008" class="node">
<title>Node8</title>
<g id="a_Node000008"><a xlink:href="read__file__ll_8c.html" target="_top" xlink:title=" ">
<polygon fill="white" stroke="#666666" points="1168.5,-1384383.89 980,-1384383.89 980,-151.66 1168.5,-151.66 1168.5,-1384383.89"/>
<text text-anchor="middle" x="1074.25" y="-1384370.39" font-family="Helvetica,sans-Serif" font-size="10.00">examples/read_file_ll.c</text>
</a>
</g>
</g>
<!-- Node2&#45;&gt;Node8 -->
<g id="edge7_Node000002_Node000008" class="edge">
<title>Node2&#45;&gt;Node8</title>
<g id="a_edge7_Node000002_Node000008"><a xlink:title=" ">
<path fill="none" stroke="#63b8ff" d="M976.25,-1384476.06C976.32,-1384019.73 977.48,-1375823.41 979.5,-1361539.43"/>
<polygon fill="#63b8ff" stroke="#63b8ff" points="972.75,-1384476.02 976.25,-1384486.02 979.75,-1384476.02 972.75,-1384476.02"/>
</a>
</g>
</g>
<!-- Node9 -->
<g id="Node000009" class="node">
<title>Node9</title>
<g id="a_Node000009"><a xlink:href="readme__example_8c.html" target="_top" xlink:title=" ">
<polygon fill="white" stroke="#666666" points="1390,-692280.78 1186.5,-692280.78 1186.5,-692254.78 1390,-692254.78 1390,-692280.78"/>
<text text-anchor="middle" x="1288.25" y="-692267.28" font-family="Helvetica,sans-Serif" font-size="10.00">examples/readme_example.c</text>
</a>
</g>
</g>
<!-- Node2&#45;&gt;Node9 -->
<g id="edge8_Node000002_Node000009" class="edge">
<title>Node2&#45;&gt;Node9</title>
<g id="a_edge8_Node000002_Node000009"><a xlink:title=" ">
<path fill="none" stroke="#63b8ff" d="M1048.49,-1384487.81C1099.4,-1384480.24 1161.25,-1384467.11 1177.25,-1384446.7 1546.98,-1383974.94 1289.51,-695642.12 1288.25,-692281.13"/>
<polygon fill="#63b8ff" stroke="#63b8ff" points="1048.05,-1384484.34 1038.64,-1384489.22 1049.04,-1384491.27 1048.05,-1384484.34"/>
</a>
</g>
</g>
<!-- Node10 -->
<g id="Node000010" class="node">
<title>Node10</title>
<g id="a_Node000010"><a xlink:href="traverse__dir_8c.html" target="_top" xlink:title=" ">
<polygon fill="white" stroke="#666666" points="1596.5,-692277.03 1408,-692277.03 1408,-692258.53 1596.5,-692258.53 1596.5,-692277.03"/>
<text text-anchor="middle" x="1502.25" y="-692263.53" font-family="Helvetica,sans-Serif" font-size="10.00">examples/traverse_dir.c</text>
</a>
</g>
</g>
<!-- Node2&#45;&gt;Node10 -->
<g id="edge9_Node000002_Node000010" class="edge">
<title>Node2&#45;&gt;Node10</title>
<g id="a_edge9_Node000002_Node000010"><a xlink:title=" ">
<path fill="none" stroke="#63b8ff" d="M1048.51,-1384492.89C1163.2,-1384486.89 1376.38,-1384472.4 1399.25,-1384446.7 1399.25,-1384446.7 1501.83,-695096.45 1502.25,-692277.45"/>
<polygon fill="#63b8ff" stroke="#63b8ff" points="1048.37,-1384489.4 1038.56,-1384493.4 1048.73,-1384496.39 1048.37,-1384489.4"/>
</a>
</g>
</g>
<!-- Node11 -->
<g id="Node000011" class="node">
<title>Node11</title>
<g id="a_Node000011"><a xlink:href="traverse__dir__ll_8c.html" target="_top" xlink:title=" ">
<polygon fill="white" stroke="#666666" points="1825.75,-692277.03 1614.75,-692277.03 1614.75,-692258.53 1825.75,-692258.53 1825.75,-692277.03"/>
<text text-anchor="middle" x="1720.25" y="-692263.53" font-family="Helvetica,sans-Serif" font-size="10.00">examples/traverse_dir_ll.c</text>
</a>
</g>
</g>
<!-- Node2&#45;&gt;Node11 -->
<g id="edge10_Node000002_Node000011" class="edge">
<title>Node2&#45;&gt;Node11</title>
<g id="a_edge10_Node000002_Node000011"><a xlink:title=" ">
<path fill="none" stroke="#63b8ff" d="M1048.63,-1384495.9C1205.97,-1384494.49 1568.12,-1384486.87 1605.25,-1384446.7 2012.31,-1384006.42 1721.44,-695094.64 1720.25,-692277.44"/>
<polygon fill="#63b8ff" stroke="#63b8ff" points="1048.69,-1384492.4 1038.72,-1384495.98 1048.75,-1384499.4 1048.69,-1384492.4"/>
</a>
</g>
</g>
<!-- Node13 -->
<g id="Node000013" class="node">
<title>Node13</title>
<g id="a_Node000013"><a xlink:href="sqsh__xattr__private_8h.html" target="_top" xlink:title=" ">
<polygon fill="white" stroke="#666666" points="2010.25,-692286.03 1844.25,-692286.03 1844.25,-692249.53 2010.25,-692249.53 2010.25,-692286.03"/>
<text text-anchor="start" x="1852.25" y="-692272.53" font-family="Helvetica,sans-Serif" font-size="10.00">libsqsh/include/sqsh</text>
<text text-anchor="middle" x="1927.25" y="-692262.03" font-family="Helvetica,sans-Serif" font-size="10.00">_xattr_private.h</text>
</a>
</g>
</g>
<!-- Node12&#45;&gt;Node13 -->
<g id="edge12_Node000012_Node000013" class="edge">
<title>Node12&#45;&gt;Node13</title>
<g id="a_edge12_Node000012_Node000013"><a xlink:title=" ">
<path fill="none" stroke="#63b8ff" d="M1627.14,-1384493.7C1705.8,-1384489.38 1808.85,-1384477.76 1835.25,-1384446.7 2223.26,-1383990.22 1928.97,-696273.8 1927.26,-692286.19"/>
<polygon fill="#63b8ff" stroke="#63b8ff" points="1627.04,-1384490.2 1617.24,-1384494.2 1627.4,-1384497.19 1627.04,-1384490.2"/>
</a>
</g>
</g>
<!-- Node14 -->
<g id="Node000014" class="node">
<title>Node14</title>
<g id="a_Node000014"><a xlink:href="sqsh__archive__private_8h.html" target="_top" xlink:title=" ">
<polygon fill="white" stroke="#666666" points="2010.25,-52.85 1844.25,-52.85 1844.25,0 2010.25,0 2010.25,-52.85"/>
<text text-anchor="start" x="1852.25" y="-39.35" font-family="Helvetica,sans-Serif" font-size="10.00">libsqsh/include/sqsh</text>
<text text-anchor="middle" x="1927.25" y="-28.85" font-family="Helvetica,sans-Serif" font-size="10.00">_archive_private.h</text>
</a>
</g>
</g>
<!-- Node13&#45;&gt;Node14 -->
<g id="edge13_Node000013_Node000014" class="edge">
<title>Node13&#45;&gt;Node14</title>
<g id="a_edge13_Node000013_Node000014"><a xlink:title=" ">
<path fill="none" stroke="#63b8ff" d="M1927.25,-692238.14C1927.25,-687147.17 1927.25,-4887.6 1927.25,-53.24"/>
<polygon fill="#63b8ff" stroke="#63b8ff" points="1923.75,-692237.84 1927.25,-692247.84 1930.75,-692237.84 1923.75,-692237.84"/>
</a>
</g>
</g>
</g>
</svg>
