<?xml version="1.0" encoding="UTF-8" standalone="no"?>
<!DOCTYPE svg PUBLIC "-//W3C//DTD SVG 1.1//EN"
 "http://www.w3.org/Graphics/SVG/1.1/DTD/svg11.dtd">
<!-- Generated by graphviz version 8.0.5 (20230430.1635)
 -->
<!-- Title: libsqsh/include/sqsh_extract_private.h Pages: 1 -->
<svg width="366pt" height="92pt"
 viewBox="0.00 0.00 365.75 91.50" xmlns="http://www.w3.org/2000/svg" xmlns:xlink="http://www.w3.org/1999/xlink">
<g id="graph0" class="graph" transform="scale(1 1) rotate(0) translate(4 87.5)">
<title>libsqsh/include/sqsh_extract_private.h</title>
<!-- Node1 -->
<g id="node1" class="node">
<title>Node1</title>
<g id="a_node1"><a xlink:title=" ">
<polygon fill="#999999" stroke="#666666" points="260,-83.5 94,-83.5 94,-54.5 260,-54.5 260,-83.5"/>
<text text-anchor="start" x="102" y="-70" font-family="Helvetica,sans-Serif" font-size="10.00">libsqsh/include/sqsh</text>
<text text-anchor="middle" x="177" y="-59.5" font-family="Helvetica,sans-Serif" font-size="10.00">_extract_private.h</text>
</a>
</g>
</g>
<!-- Node2 -->
<g id="node2" class="node">
<title>Node2</title>
<g id="a_node2"><a xlink:title=" ">
<polygon fill="#e0e0e0" stroke="#999999" points="166,-18.5 0,-18.5 0,0 166,0 166,-18.5"/>
<text text-anchor="middle" x="83" y="-5" font-family="Helvetica,sans-Serif" font-size="10.00">cextras/collection.h</text>
</a>
</g>
</g>
<!-- Node1&#45;&gt;Node2 -->
<g id="edge1" class="edge">
<title>Node1&#45;&gt;Node2</title>
<path fill="none" stroke="#63b8ff" d="M154.25,-54.02C139.76,-45.12 121.06,-33.63 106.44,-24.65"/>
<polygon fill="#63b8ff" stroke="#63b8ff" points="108.44,-21.16 98.09,-18.9 104.77,-27.12 108.44,-21.16"/>
</g>
<!-- Node3 -->
<g id="node3" class="node">
<title>Node3</title>
<g id="a_node3"><a xlink:title=" ">
<polygon fill="#e0e0e0" stroke="#999999" points="357.75,-18.5 184.25,-18.5 184.25,0 357.75,0 357.75,-18.5"/>
<text text-anchor="middle" x="271" y="-5" font-family="Helvetica,sans-Serif" font-size="10.00">sqsh_thread_private.h</text>
</a>
</g>
</g>
<!-- Node1&#45;&gt;Node3 -->
<g id="edge2" class="edge">
<title>Node1&#45;&gt;Node3</title>
<path fill="none" stroke="#63b8ff" d="M199.75,-54.02C214.24,-45.12 232.94,-33.63 247.56,-24.65"/>
<polygon fill="#63b8ff" stroke="#63b8ff" points="249.23,-27.12 255.91,-18.9 245.56,-21.16 249.23,-27.12"/>
</g>
</g>
</svg>
