<?xml version="1.0" encoding="UTF-8" standalone="no"?>
<!DOCTYPE svg PUBLIC "-//W3C//DTD SVG 1.1//EN"
 "http://www.w3.org/Graphics/SVG/1.1/DTD/svg11.dtd">
<!-- Generated by graphviz version 8.0.5 (20230430.1635)
 -->
<!-- Title: libsqsh/include/sqsh_metablock_private.h Pages: 1 -->
<!--zoomable 286 -->
<svg id="main" version="1.1" xmlns="http://www.w3.org/2000/svg" xmlns:xlink="http://www.w3.org/1999/xlink" xml:space="preserve" onload="init(evt)">
<style type="text/css"><![CDATA[
.edge:hover path { stroke: red; }
.edge:hover polygon { stroke: red; fill: red; }
]]></style>
<script type="text/javascript"><![CDATA[
var edges = document.getElementsByTagName('g');
if (edges && edges.length) {
  for (var i=0;i<edges.length;i++) {
    if (edges[i].id.substr(0,4)=='edge') {
      edges[i].setAttribute('class','edge');
    }
  }
}
]]></script>
        <defs>
                <circle id="rim" cx="0" cy="0" r="7"/>
                <circle id="rim2" cx="0" cy="0" r="3.5"/>
                <g id="zoomPlus">
                        <use xlink:href="#rim" fill="#404040">
                                <set attributeName="fill" to="#808080" begin="zoomplus.mouseover" end="zoomplus.mouseout"/>
                        </use>
                        <path d="M-4,0h8M0,-4v8" fill="none" stroke="white" stroke-width="1.5" pointer-events="none"/>
                </g>
                <g id="zoomMin">
                        <use xlink:href="#rim" fill="#404040">
                                <set attributeName="fill" to="#808080" begin="zoomminus.mouseover" end="zoomminus.mouseout"/>
                        </use>
                        <path d="M-4,0h8" fill="none" stroke="white" stroke-width="1.5" pointer-events="none"/>
                </g>
                <g id="dirArrow">
                        <path fill="none" stroke="white" stroke-width="1.5" d="M0,-3.0v7 M-2.5,-0.5L0,-3.0L2.5,-0.5"/>
                </g>
               <g id="resetDef">
                       <use xlink:href="#rim2" fill="#404040">
                               <set attributeName="fill" to="#808080" begin="reset.mouseover" end="reset.mouseout"/>
                       </use>
               </g>
        </defs>

<script type="text/javascript">
var viewWidth = 997;
var viewHeight = 286;
var sectionId = 'dynsection-0';
</script>
<script xlink:href="svgpan.js"/>
<svg id="graph" class="graph">
<g id="viewport">
<title>libsqsh/include/sqsh_metablock_private.h</title>
<!-- Node1 -->
<g id="node1" class="node">
<title>Node1</title>
<g id="a_node1"><a xlink:title=" ">
<polygon fill="#999999" stroke="#666666" points="542.75,-278.33 376.75,-278.33 376.75,-249.33 542.75,-249.33 542.75,-278.33"/>
<text text-anchor="start" x="384.75" y="-264.83" font-family="Helvetica,sans-Serif" font-size="10.00">libsqsh/include/sqsh</text>
<text text-anchor="middle" x="459.75" y="-254.33" font-family="Helvetica,sans-Serif" font-size="10.00">_metablock_private.h</text>
</a>
</g>
</g>
<!-- Node2 -->
<g id="node2" class="node">
<title>Node2</title>
<g id="a_node2"><a xlink:href="sqsh__extract__private_8h.html" target="_top" xlink:title=" ">
<polygon fill="white" stroke="#666666" points="453.25,-213.33 272.25,-213.33 272.25,-194.83 453.25,-194.83 453.25,-213.33"/>
<text text-anchor="middle" x="362.75" y="-199.83" font-family="Helvetica,sans-Serif" font-size="10.00">sqsh_extract_private.h</text>
</a>
</g>
</g>
<!-- Node1&#45;&gt;Node2 -->
<g id="edge1" class="edge">
<title>Node1&#45;&gt;Node2</title>
<path fill="none" stroke="#63b8ff" d="M436.27,-248.85C421.18,-239.87 401.65,-228.24 386.51,-219.23"/>
<polygon fill="#63b8ff" stroke="#63b8ff" points="388.67,-215.84 378.28,-213.73 385.09,-221.86 388.67,-215.84"/>
</g>
<!-- Node10 -->
<g id="node10" class="node">
<title>Node10</title>
<g id="a_node10"><a xlink:href="sqsh__mapper__private_8h.html" target="_top" xlink:title=" ">
<polygon fill="white" stroke="#666666" points="681.5,-213.33 508,-213.33 508,-194.83 681.5,-194.83 681.5,-213.33"/>
<text text-anchor="middle" x="594.75" y="-199.83" font-family="Helvetica,sans-Serif" font-size="10.00">sqsh_mapper_private.h</text>
</a>
</g>
</g>
<!-- Node1&#45;&gt;Node10 -->
<g id="edge9" class="edge">
<title>Node1&#45;&gt;Node10</title>
<path fill="none" stroke="#63b8ff" d="M492.43,-248.85C514.43,-239.44 543.21,-227.13 564.65,-217.96"/>
<polygon fill="#63b8ff" stroke="#63b8ff" points="565.7,-220.89 573.52,-213.73 562.95,-214.45 565.7,-220.89"/>
</g>
<!-- Node3 -->
<g id="node3" class="node">
<title>Node3</title>
<g id="a_node3"><a xlink:title=" ">
<polygon fill="#e0e0e0" stroke="#999999" points="372.75,-150.67 206.75,-150.67 206.75,-124.67 372.75,-124.67 372.75,-150.67"/>
<text text-anchor="middle" x="289.75" y="-137.17" font-family="Helvetica,sans-Serif" font-size="10.00">cextras/collection.h</text>
</a>
</g>
</g>
<!-- Node2&#45;&gt;Node3 -->
<g id="edge2" class="edge">
<title>Node2&#45;&gt;Node3</title>
<path fill="none" stroke="#63b8ff" d="M352.9,-194.39C342.4,-185.12 325.41,-170.13 311.7,-158.04"/>
<polygon fill="#63b8ff" stroke="#63b8ff" points="314.49,-155.95 304.68,-151.95 309.86,-161.19 314.49,-155.95"/>
</g>
<!-- Node4 -->
<g id="node4" class="node">
<title>Node4</title>
<g id="a_node4"><a xlink:href="sqsh__data_8h.html" target="_top" xlink:title=" ">
<polygon fill="white" stroke="#666666" points="189,-146.92 90.5,-146.92 90.5,-128.42 189,-128.42 189,-146.92"/>
<text text-anchor="middle" x="139.75" y="-133.42" font-family="Helvetica,sans-Serif" font-size="10.00">sqsh_data.h</text>
</a>
</g>
</g>
<!-- Node2&#45;&gt;Node4 -->
<g id="edge3" class="edge">
<title>Node2&#45;&gt;Node4</title>
<path fill="none" stroke="#63b8ff" d="M327.45,-194.41C293.9,-185.97 242.11,-172.47 197.75,-158.83 189.97,-156.44 181.68,-153.68 173.87,-150.99"/>
<polygon fill="#63b8ff" stroke="#63b8ff" points="175.2,-147.4 164.61,-147.4 172.89,-154.01 175.2,-147.4"/>
</g>
<!-- Node9 -->
<g id="node9" class="node">
<title>Node9</title>
<g id="a_node9"><a xlink:title=" ">
<polygon fill="#e0e0e0" stroke="#999999" points="556.75,-146.92 390.75,-146.92 390.75,-128.42 556.75,-128.42 556.75,-146.92"/>
<text text-anchor="middle" x="473.75" y="-133.42" font-family="Helvetica,sans-Serif" font-size="10.00">sqsh_utils_private.h</text>
</a>
</g>
</g>
<!-- Node2&#45;&gt;Node9 -->
<g id="edge8" class="edge">
<title>Node2&#45;&gt;Node9</title>
<path fill="none" stroke="#63b8ff" d="M377.72,-194.39C396.19,-183.67 427.84,-165.31 449.73,-152.6"/>
<polygon fill="#63b8ff" stroke="#63b8ff" points="451.12,-155.26 458.02,-147.22 447.61,-149.21 451.12,-155.26"/>
</g>
<!-- Node5 -->
<g id="node5" class="node">
<title>Node5</title>
<g id="a_node5"><a xlink:href="sqsh__common_8h.html" target="_top" xlink:title=" ">
<polygon fill="white" stroke="#666666" points="196.5,-80.5 83,-80.5 83,-62 196.5,-62 196.5,-80.5"/>
<text text-anchor="middle" x="139.75" y="-67" font-family="Helvetica,sans-Serif" font-size="10.00">sqsh_common.h</text>
</a>
</g>
</g>
<!-- Node4&#45;&gt;Node5 -->
<g id="edge4" class="edge">
<title>Node4&#45;&gt;Node5</title>
<path fill="none" stroke="#63b8ff" d="M139.75,-127.98C139.75,-118.71 139.75,-103.72 139.75,-91.62"/>
<polygon fill="#63b8ff" stroke="#63b8ff" points="143.25,-91.8 139.75,-81.8 136.25,-91.8 143.25,-91.8"/>
</g>
<!-- Node6 -->
<g id="node6" class="node">
<title>Node6</title>
<g id="a_node6"><a xlink:title=" ">
<polygon fill="#e0e0e0" stroke="#999999" points="83.5,-22.25 0,-22.25 0,-3.75 83.5,-3.75 83.5,-22.25"/>
<text text-anchor="middle" x="41.75" y="-8.75" font-family="Helvetica,sans-Serif" font-size="10.00">stdbool.h</text>
</a>
</g>
</g>
<!-- Node5&#45;&gt;Node6 -->
<g id="edge5" class="edge">
<title>Node5&#45;&gt;Node6</title>
<path fill="none" stroke="#63b8ff" d="M124.87,-61.71C109.32,-52.79 84.69,-38.65 66.27,-28.08"/>
<polygon fill="#63b8ff" stroke="#63b8ff" points="68.19,-24.57 57.77,-22.62 64.7,-30.64 68.19,-24.57"/>
</g>
<!-- Node7 -->
<g id="node7" class="node">
<title>Node7</title>
<g id="a_node7"><a xlink:title=" ">
<polygon fill="#e0e0e0" stroke="#999999" points="177.75,-22.25 101.75,-22.25 101.75,-3.75 177.75,-3.75 177.75,-22.25"/>
<text text-anchor="middle" x="139.75" y="-8.75" font-family="Helvetica,sans-Serif" font-size="10.00">stddef.h</text>
</a>
</g>
</g>
<!-- Node5&#45;&gt;Node7 -->
<g id="edge6" class="edge">
<title>Node5&#45;&gt;Node7</title>
<path fill="none" stroke="#63b8ff" d="M139.75,-61.95C139.75,-54.48 139.75,-43.2 139.75,-33.46"/>
<polygon fill="#63b8ff" stroke="#63b8ff" points="143.25,-33.7 139.75,-23.7 136.25,-33.7 143.25,-33.7"/>
</g>
<!-- Node8 -->
<g id="node8" class="node">
<title>Node8</title>
<g id="a_node8"><a xlink:title=" ">
<polygon fill="#e0e0e0" stroke="#999999" points="271.75,-26 195.75,-26 195.75,0 271.75,0 271.75,-26"/>
<text text-anchor="middle" x="233.75" y="-12.5" font-family="Helvetica,sans-Serif" font-size="10.00">stdint.h</text>
</a>
</g>
</g>
<!-- Node5&#45;&gt;Node8 -->
<g id="edge7" class="edge">
<title>Node5&#45;&gt;Node8</title>
<path fill="none" stroke="#63b8ff" d="M154.03,-61.71C167.16,-53.85 187.07,-41.93 203.71,-31.98"/>
<polygon fill="#63b8ff" stroke="#63b8ff" points="205.27,-34.52 212.05,-26.39 201.67,-28.52 205.27,-34.52"/>
</g>
<!-- Node10&#45;&gt;Node3 -->
<g id="edge13" class="edge">
<title>Node10&#45;&gt;Node3</title>
<path fill="none" stroke="#63b8ff" d="M552.29,-194.4C509.28,-185.58 440.85,-171.45 381.75,-158.83 373.65,-157.1 365.16,-155.27 356.75,-153.44"/>
<polygon fill="#63b8ff" stroke="#63b8ff" points="357.68,-149.84 347.17,-151.13 356.19,-156.68 357.68,-149.84"/>
</g>
<!-- Node10&#45;&gt;Node9 -->
<g id="edge12" class="edge">
<title>Node10&#45;&gt;Node9</title>
<path fill="none" stroke="#63b8ff" d="M578.43,-194.39C558.11,-183.58 523.17,-164.98 499.29,-152.26"/>
<polygon fill="#63b8ff" stroke="#63b8ff" points="501.28,-148.82 490.81,-147.22 497.99,-155 501.28,-148.82"/>
</g>
<!-- Node11 -->
<g id="node11" class="node">
<title>Node11</title>
<g id="a_node11"><a xlink:href="sqsh__mapper_8h.html" target="_top" xlink:title=" ">
<polygon fill="white" stroke="#666666" points="688.5,-146.92 575,-146.92 575,-128.42 688.5,-128.42 688.5,-146.92"/>
<text text-anchor="middle" x="631.75" y="-133.42" font-family="Helvetica,sans-Serif" font-size="10.00">sqsh_mapper.h</text>
</a>
</g>
</g>
<!-- Node10&#45;&gt;Node11 -->
<g id="edge10" class="edge">
<title>Node10&#45;&gt;Node11</title>
<path fill="none" stroke="#63b8ff" d="M599.74,-194.39C605.29,-184.74 614.4,-168.87 621.49,-156.53"/>
<polygon fill="#63b8ff" stroke="#63b8ff" points="624.89,-158.63 626.84,-148.22 618.82,-155.14 624.89,-158.63"/>
</g>
<!-- Node12 -->
<g id="node12" class="node">
<title>Node12</title>
<g id="a_node12"><a xlink:title=" ">
<polygon fill="#e0e0e0" stroke="#999999" points="880.5,-158.83 707,-158.83 707,-116.5 880.5,-116.5 880.5,-158.83"/>
<text text-anchor="middle" x="793.75" y="-145.33" font-family="Helvetica,sans-Serif" font-size="10.00">sqsh_reader_private.h</text>
</a>
</g>
</g>
<!-- Node10&#45;&gt;Node12 -->
<g id="edge11" class="edge">
<title>Node10&#45;&gt;Node12</title>
<path fill="none" stroke="#63b8ff" d="M621.59,-194.39C646.79,-186.24 685.67,-173.65 720.1,-162.5"/>
<polygon fill="#63b8ff" stroke="#63b8ff" points="720.72,-165.66 729.15,-159.25 718.56,-159 720.72,-165.66"/>
</g>
<!-- Node13 -->
<g id="node13" class="node">
<title>Node13</title>
<g id="a_node13"><a xlink:title=" ">
<polygon fill="#e0e0e0" stroke="#999999" points="989.25,-158.83 898.25,-158.83 898.25,-116.5 989.25,-116.5 989.25,-158.83"/>
<text text-anchor="middle" x="943.75" y="-145.33" font-family="Helvetica,sans-Serif" font-size="10.00">sys/wait.h</text>
</a>
</g>
</g>
<!-- Node10&#45;&gt;Node13 -->
<g id="edge14" class="edge">
<title>Node10&#45;&gt;Node13</title>
<path fill="none" stroke="#63b8ff" d="M681.87,-194.84C738.45,-188.37 813.81,-177.65 887.6,-159.15"/>
<polygon fill="#63b8ff" stroke="#63b8ff" points="888.18,-162.36 897,-156.49 886.45,-155.58 888.18,-162.36"/>
</g>
</g>
</svg>
        <g id="navigator" transform="translate(0 0)" fill="#404254">
                <rect fill="#f2f5e9" fill-opacity="0.5" stroke="#606060" stroke-width=".5" x="0" y="0" width="60" height="60"/>
                <use id="zoomplus" xlink:href="#zoomPlus" x="17" y="9" onmousedown="handleZoom(evt,'in')"/>
                <use id="zoomminus" xlink:href="#zoomMin" x="42" y="9" onmousedown="handleZoom(evt,'out')"/>
                <use id="reset" xlink:href="#resetDef" x="30" y="36" onmousedown="handleReset()"/>
                <g id="arrowUp" xlink:href="#dirArrow" transform="translate(30 24)" onmousedown="handlePan(0,-1)">
                  <use xlink:href="#rim" fill="#404040">
                        <set attributeName="fill" to="#808080" begin="arrowUp.mouseover" end="arrowUp.mouseout"/>
                  </use>
                  <path fill="none" stroke="white" stroke-width="1.5" d="M0,-3.0v7 M-2.5,-0.5L0,-3.0L2.5,-0.5"/>
                </g>
                <g id="arrowRight" xlink:href="#dirArrow" transform="rotate(90) translate(36 -43)" onmousedown="handlePan(1,0)">
                  <use xlink:href="#rim" fill="#404040">
                        <set attributeName="fill" to="#808080" begin="arrowRight.mouseover" end="arrowRight.mouseout"/>
                  </use>
                  <path fill="none" stroke="white" stroke-width="1.5" d="M0,-3.0v7 M-2.5,-0.5L0,-3.0L2.5,-0.5"/>
                </g>
                <g id="arrowDown" xlink:href="#dirArrow" transform="rotate(180) translate(-30 -48)" onmousedown="handlePan(0,1)">
                  <use xlink:href="#rim" fill="#404040">
                        <set attributeName="fill" to="#808080" begin="arrowDown.mouseover" end="arrowDown.mouseout"/>
                  </use>
                  <path fill="none" stroke="white" stroke-width="1.5" d="M0,-3.0v7 M-2.5,-0.5L0,-3.0L2.5,-0.5"/>
                </g>
                <g id="arrowLeft" xlink:href="#dirArrow" transform="rotate(270) translate(-36 17)" onmousedown="handlePan(-1,0)">
                  <use xlink:href="#rim" fill="#404040">
                        <set attributeName="fill" to="#808080" begin="arrowLeft.mouseover" end="arrowLeft.mouseout"/>
                  </use>
                  <path fill="none" stroke="white" stroke-width="1.5" d="M0,-3.0v7 M-2.5,-0.5L0,-3.0L2.5,-0.5"/>
                </g>
        </g>
        <svg viewBox="0 0 15 15" width="100%" height="30px" preserveAspectRatio="xMaxYMin meet">
         <g id="arrow_out" transform="scale(0.3 0.3)">
          <a xlink:href="sqsh__metablock__private_8h__incl_org.svg" target="_base">
           <rect id="button" ry="5" rx="5" y="6" x="6" height="38" width="38"
                fill="#f2f5e9" fill-opacity="0.5" stroke="#606060" stroke-width="1.0"/>
           <path id="arrow"
             d="M 11.500037,31.436501 C 11.940474,20.09759 22.043105,11.32322 32.158766,21.979434 L 37.068811,17.246167 C 37.068811,17.246167 37.088388,32 37.088388,32 L 22.160133,31.978069 C 22.160133,31.978069 26.997745,27.140456 26.997745,27.140456 C 18.528582,18.264221 13.291696,25.230495 11.500037,31.436501 z"
             style="fill:#404040;"/>
          </a>
         </g>
        </svg>
</svg>
