<?xml version="1.0" encoding="UTF-8" standalone="no"?>
<!DOCTYPE svg PUBLIC "-//W3C//DTD SVG 1.1//EN"
 "http://www.w3.org/Graphics/SVG/1.1/DTD/svg11.dtd">
<!-- Generated by graphviz version 9.0.0 (20230911.1827)
 -->
<!-- Title: include/sqsh_tree.h Pages: 1 -->
<svg width="2048pt" height="1553270pt"
 viewBox="0.00 0.00 2047.50 1553269.77" xmlns="http://www.w3.org/2000/svg" xmlns:xlink="http://www.w3.org/1999/xlink">
<g id="graph0" class="graph" transform="scale(1 1) rotate(0) translate(4 1553265.77)">
<title>include/sqsh_tree.h</title>
<!-- Node1 -->
<g id="Node000001" class="node">
<title>Node1</title>
<g id="a_Node000001"><a xlink:title=" ">
<polygon fill="#999999" stroke="#666666" points="1151.25,-1553261.77 992.75,-1553261.77 992.75,-1553243.27 1151.25,-1553243.27 1151.25,-1553261.77"/>
<text text-anchor="middle" x="1072" y="-1553248.27" font-family="Helvetica,sans-Serif" font-size="10.00">include/sqsh_tree.h</text>
</a>
</g>
</g>
<!-- Node2 -->
<g id="Node000002" class="node">
<title>Node2</title>
<g id="a_Node000002"><a xlink:href="sqsh_8h.html" target="_top" xlink:title=" ">
<polygon fill="white" stroke="#666666" points="1051.5,-1553190.04 930.5,-1553190.04 930.5,-1553171.54 1051.5,-1553171.54 1051.5,-1553190.04"/>
<text text-anchor="middle" x="991" y="-1553176.54" font-family="Helvetica,sans-Serif" font-size="10.00">include/sqsh.h</text>
</a>
</g>
</g>
<!-- Node1&#45;&gt;Node2 -->
<g id="edge1_Node000001_Node000002" class="edge">
<title>Node1&#45;&gt;Node2</title>
<g id="a_edge1_Node000001_Node000002"><a xlink:title=" ">
<path fill="none" stroke="#63b8ff" d="M1053.38,-1553235.5C1037.09,-1553221.47 1014.05,-1553201.64 1001.01,-1553190.41"/>
<polygon fill="#63b8ff" stroke="#63b8ff" points="1051.06,-1553238.11 1060.92,-1553241.99 1055.63,-1553232.81 1051.06,-1553238.11"/>
</a>
</g>
</g>
<!-- Node13 -->
<g id="Node000013" class="node">
<title>Node13</title>
<g id="a_Node000013"><a xlink:href="sqsh__tree__private_8h.html" target="_top" xlink:title=" ">
<polygon fill="white" stroke="#666666" points="1236,-1553207.27 1070,-1553207.27 1070,-1553154.31 1236,-1553154.31 1236,-1553207.27"/>
<text text-anchor="start" x="1078" y="-1553193.77" font-family="Helvetica,sans-Serif" font-size="10.00">libsqsh/include/sqsh</text>
<text text-anchor="middle" x="1153" y="-1553183.27" font-family="Helvetica,sans-Serif" font-size="10.00">_tree_private.h</text>
</a>
</g>
</g>
<!-- Node1&#45;&gt;Node13 -->
<g id="edge12_Node000001_Node000013" class="edge">
<title>Node1&#45;&gt;Node13</title>
<g id="a_edge12_Node000001_Node000013"><a xlink:title=" ">
<path fill="none" stroke="#63b8ff" d="M1090.64,-1553235.48C1100.25,-1553227.2 1112.21,-1553216.9 1123.08,-1553207.55"/>
<polygon fill="#63b8ff" stroke="#63b8ff" points="1088.37,-1553232.81 1083.08,-1553241.99 1092.94,-1553238.11 1088.37,-1553232.81"/>
</a>
</g>
</g>
<!-- Node3 -->
<g id="Node000003" class="node">
<title>Node3</title>
<g id="a_Node000003"><a xlink:href="custom__mapper_8c.html" target="_top" xlink:title=" ">
<polygon fill="white" stroke="#666666" points="196,-1553118.31 0,-1553118.31 0,0 196,0 196,-1553118.31"/>
<text text-anchor="middle" x="98" y="-1553104.81" font-family="Helvetica,sans-Serif" font-size="10.00">examples/custom_mapper.c</text>
</a>
</g>
</g>
<!-- Node2&#45;&gt;Node3 -->
<g id="edge2_Node000002_Node000003" class="edge">
<title>Node2&#45;&gt;Node3</title>
<g id="a_edge2_Node000002_Node000003"><a xlink:title=" ">
<path fill="none" stroke="#63b8ff" d="M918.79,-1553179.6C733.59,-1553178.35 252.91,-1553170.11 205,-1553118.31 205,-1553118.31 201.8,-1529874.18 196.5,-1491428.82"/>
<polygon fill="#63b8ff" stroke="#63b8ff" points="918.75,-1553183.1 928.77,-1553179.66 918.79,-1553176.1 918.75,-1553183.1"/>
</a>
</g>
</g>
<!-- Node4 -->
<g id="Node000004" class="node">
<title>Node4</title>
<g id="a_Node000004"><a xlink:href="list__dir_8c.html" target="_top" xlink:title=" ">
<polygon fill="white" stroke="#666666" points="372.25,-1553025.21 213.75,-1553025.21 213.75,-93.1 372.25,-93.1 372.25,-1553025.21"/>
<text text-anchor="middle" x="293" y="-1553011.71" font-family="Helvetica,sans-Serif" font-size="10.00">examples/list_dir.c</text>
</a>
</g>
</g>
<!-- Node2&#45;&gt;Node4 -->
<g id="edge3_Node000002_Node000004" class="edge">
<title>Node2&#45;&gt;Node4</title>
<g id="a_edge3_Node000002_Node000004"><a xlink:title=" ">
<path fill="none" stroke="#63b8ff" d="M919.07,-1553177.85C765.49,-1553172.96 416.52,-1553157.59 381,-1553118.31 381,-1553118.31 377.85,-1525350.28 372.75,-1480315.94"/>
<polygon fill="#63b8ff" stroke="#63b8ff" points="918.61,-1553181.34 928.71,-1553178.15 918.83,-1553174.34 918.61,-1553181.34"/>
</a>
</g>
</g>
<!-- Node5 -->
<g id="Node000005" class="node">
<title>Node5</title>
<g id="a_Node000005"><a xlink:href="list__dir__ll_8c.html" target="_top" xlink:title=" ">
<polygon fill="white" stroke="#666666" points="571.5,-776568.41 390.5,-776568.41 390.5,-776549.91 571.5,-776549.91 571.5,-776568.41"/>
<text text-anchor="middle" x="481" y="-776554.91" font-family="Helvetica,sans-Serif" font-size="10.00">examples/list_dir_ll.c</text>
</a>
</g>
</g>
<!-- Node2&#45;&gt;Node5 -->
<g id="edge4_Node000002_Node000005" class="edge">
<title>Node2&#45;&gt;Node5</title>
<g id="a_edge4_Node000002_Node000005"><a xlink:title=" ">
<path fill="none" stroke="#63b8ff" d="M918.77,-1553179.82C812.75,-1553178.15 622.88,-1553168.08 580,-1553118.31 580,-1553118.31 481.38,-779543.32 481,-776568.76"/>
<polygon fill="#63b8ff" stroke="#63b8ff" points="918.46,-1553183.32 928.5,-1553179.95 918.55,-1553176.32 918.46,-1553183.32"/>
</a>
</g>
</g>
<!-- Node6 -->
<g id="Node000006" class="node">
<title>Node6</title>
<g id="a_Node000006"><a xlink:href="list__xattrs_8c.html" target="_top" xlink:title=" ">
<polygon fill="white" stroke="#666666" points="770.5,-1553071.09 589.5,-1553071.09 589.5,-47.22 770.5,-47.22 770.5,-1553071.09"/>
<text text-anchor="middle" x="680" y="-1553057.59" font-family="Helvetica,sans-Serif" font-size="10.00">examples/list_xattrs.c</text>
</a>
</g>
</g>
<!-- Node2&#45;&gt;Node6 -->
<g id="edge5_Node000002_Node000006" class="edge">
<title>Node2&#45;&gt;Node6</title>
<g id="a_edge5_Node000002_Node000006"><a xlink:title=" ">
<path fill="none" stroke="#63b8ff" d="M922.64,-1553169.04C867.54,-1553158.81 796.44,-1553141.53 779,-1553118.31 779,-1553118.31 775.98,-1529445.43 771,-1490366.12"/>
<polygon fill="#63b8ff" stroke="#63b8ff" points="921.83,-1553172.45 932.29,-1553170.78 923.08,-1553165.56 921.83,-1553172.45"/>
</a>
</g>
</g>
<!-- Node7 -->
<g id="Node000007" class="node">
<title>Node7</title>
<g id="a_Node000007"><a xlink:href="list__xattrs__ll_8c.html" target="_top" xlink:title=" ">
<polygon fill="white" stroke="#666666" points="991.75,-776568.41 788.25,-776568.41 788.25,-776549.91 991.75,-776549.91 991.75,-776568.41"/>
<text text-anchor="middle" x="890" y="-776554.91" font-family="Helvetica,sans-Serif" font-size="10.00">examples/list_xattrs_ll.c</text>
</a>
</g>
</g>
<!-- Node2&#45;&gt;Node7 -->
<g id="edge6_Node000002_Node000007" class="edge">
<title>Node2&#45;&gt;Node7</title>
<g id="a_edge6_Node000002_Node000007"><a xlink:title=" ">
<path fill="none" stroke="#63b8ff" d="M991,-1553159.89C990.41,-1548650.64 890.39,-779529.12 890,-776568.72"/>
<polygon fill="#63b8ff" stroke="#63b8ff" points="987.5,-1553159.68 991,-1553169.68 994.5,-1553159.68 987.5,-1553159.68"/>
</a>
</g>
</g>
<!-- Node8 -->
<g id="Node000008" class="node">
<title>Node8</title>
<g id="a_Node000008"><a xlink:href="read__file_8c.html" target="_top" xlink:title=" ">
<polygon fill="white" stroke="#666666" points="1176,-776568.41 1010,-776568.41 1010,-776549.91 1176,-776549.91 1176,-776568.41"/>
<text text-anchor="middle" x="1093" y="-776554.91" font-family="Helvetica,sans-Serif" font-size="10.00">examples/read_file.c</text>
</a>
</g>
</g>
<!-- Node2&#45;&gt;Node8 -->
<g id="edge7_Node000002_Node000008" class="edge">
<title>Node2&#45;&gt;Node8</title>
<g id="a_edge7_Node000002_Node000008"><a xlink:title=" ">
<path fill="none" stroke="#63b8ff" d="M995.03,-1553160.13C997.28,-1553148.11 999.86,-1553132.39 1001,-1553118.31 1217.89,-1550435.87 1093.48,-779533 1093,-776568.73"/>
<polygon fill="#63b8ff" stroke="#63b8ff" points="991.66,-1553159.12 993.16,-1553169.61 998.53,-1553160.47 991.66,-1553159.12"/>
</a>
</g>
</g>
<!-- Node9 -->
<g id="Node000009" class="node">
<title>Node9</title>
<g id="a_Node000009"><a xlink:href="read__file__ll_8c.html" target="_top" xlink:title=" ">
<polygon fill="white" stroke="#666666" points="1382.25,-776568.41 1193.75,-776568.41 1193.75,-776549.91 1382.25,-776549.91 1382.25,-776568.41"/>
<text text-anchor="middle" x="1288" y="-776554.91" font-family="Helvetica,sans-Serif" font-size="10.00">examples/read_file_ll.c</text>
</a>
</g>
</g>
<!-- Node2&#45;&gt;Node9 -->
<g id="edge8_Node000002_Node000009" class="edge">
<title>Node2&#45;&gt;Node9</title>
<g id="a_edge8_Node000002_Node000009"><a xlink:title=" ">
<path fill="none" stroke="#63b8ff" d="M1024.13,-1553167.22C1035.73,-1553162.95 1048.89,-1553158.27 1061,-1553154.31 1115.55,-1553136.49 1150.54,-1553164.2 1185,-1553118.31 1185,-1553118.31 1287.6,-779543.32 1288,-776568.76"/>
<polygon fill="#63b8ff" stroke="#63b8ff" points="1023.14,-1553163.86 1014.98,-1553170.62 1025.58,-1553170.42 1023.14,-1553163.86"/>
</a>
</g>
</g>
<!-- Node10 -->
<g id="Node000010" class="node">
<title>Node10</title>
<g id="a_Node000010"><a xlink:href="readme__example_8c.html" target="_top" xlink:title=" ">
<polygon fill="white" stroke="#666666" points="1603.75,-776568.41 1400.25,-776568.41 1400.25,-776549.91 1603.75,-776549.91 1603.75,-776568.41"/>
<text text-anchor="middle" x="1502" y="-776554.91" font-family="Helvetica,sans-Serif" font-size="10.00">examples/readme_example.c</text>
</a>
</g>
</g>
<!-- Node2&#45;&gt;Node10 -->
<g id="edge9_Node000002_Node000010" class="edge">
<title>Node2&#45;&gt;Node10</title>
<g id="a_edge9_Node000002_Node000010"><a xlink:title=" ">
<path fill="none" stroke="#63b8ff" d="M1021.3,-1553166.96C1033.45,-1553162.29 1047.69,-1553157.41 1061,-1553154.31 1132.84,-1553137.58 1341.74,-1553173.23 1391,-1553118.31 1391,-1553118.31 1501.57,-779543.32 1502,-776568.76"/>
<polygon fill="#63b8ff" stroke="#63b8ff" points="1020.23,-1553163.62 1012.23,-1553170.56 1022.82,-1553170.12 1020.23,-1553163.62"/>
</a>
</g>
</g>
<!-- Node11 -->
<g id="Node000011" class="node">
<title>Node11</title>
<g id="a_Node000011"><a xlink:href="traverse__dir_8c.html" target="_top" xlink:title=" ">
<polygon fill="white" stroke="#666666" points="1810.25,-776580.39 1621.75,-776580.39 1621.75,-776537.93 1810.25,-776537.93 1810.25,-776580.39"/>
<text text-anchor="middle" x="1716" y="-776566.89" font-family="Helvetica,sans-Serif" font-size="10.00">examples/traverse_dir.c</text>
</a>
</g>
</g>
<!-- Node2&#45;&gt;Node11 -->
<g id="edge10_Node000002_Node000011" class="edge">
<title>Node2&#45;&gt;Node11</title>
<g id="a_edge10_Node000002_Node000011"><a xlink:title=" ">
<path fill="none" stroke="#63b8ff" d="M1020.71,-1553166.86C1032.96,-1553162.09 1047.43,-1553157.16 1061,-1553154.31 1121.15,-1553141.67 1570.97,-1553163.16 1613,-1553118.31 1613,-1553118.31 1715.39,-781150.89 1716,-776580.53"/>
<polygon fill="#63b8ff" stroke="#63b8ff" points="1019.53,-1553163.56 1011.58,-1553170.56 1022.16,-1553170.05 1019.53,-1553163.56"/>
</a>
</g>
</g>
<!-- Node12 -->
<g id="Node000012" class="node">
<title>Node12</title>
<g id="a_Node000012"><a xlink:href="traverse__dir__ll_8c.html" target="_top" xlink:title=" ">
<polygon fill="white" stroke="#666666" points="2039.5,-776572.16 1828.5,-776572.16 1828.5,-776546.16 2039.5,-776546.16 2039.5,-776572.16"/>
<text text-anchor="middle" x="1934" y="-776558.66" font-family="Helvetica,sans-Serif" font-size="10.00">examples/traverse_dir_ll.c</text>
</a>
</g>
</g>
<!-- Node2&#45;&gt;Node12 -->
<g id="edge11_Node000002_Node000012" class="edge">
<title>Node2&#45;&gt;Node12</title>
<g id="a_edge11_Node000002_Node000012"><a xlink:title=" ">
<path fill="none" stroke="#63b8ff" d="M1020.42,-1553166.84C1032.72,-1553162.02 1047.31,-1553157.06 1061,-1553154.31 1143.67,-1553137.7 1760.81,-1553179.33 1819,-1553118.31 1819,-1553118.31 1933.47,-780110.89 1934,-776572.34"/>
<polygon fill="#63b8ff" stroke="#63b8ff" points="1019.19,-1553163.56 1011.26,-1553170.59 1021.84,-1553170.04 1019.19,-1553163.56"/>
</a>
</g>
</g>
</g>
</svg>
