<?xml version="1.0" encoding="UTF-8" standalone="no"?>
<!DOCTYPE svg PUBLIC "-//W3C//DTD SVG 1.1//EN"
 "http://www.w3.org/Graphics/SVG/1.1/DTD/svg11.dtd">
<!-- Generated by graphviz version 8.0.5 (20230430.1635)
 -->
<!-- Title: include/sqsh.h Pages: 1 -->
<!--zoomable 1735891 -->
<svg id="main" version="1.1" xmlns="http://www.w3.org/2000/svg" xmlns:xlink="http://www.w3.org/1999/xlink" xml:space="preserve" onload="init(evt)">
<style type="text/css"><![CDATA[
.edge:hover path { stroke: red; }
.edge:hover polygon { stroke: red; fill: red; }
]]></style>
<script type="text/javascript"><![CDATA[
var edges = document.getElementsByTagName('g');
if (edges && edges.length) {
  for (var i=0;i<edges.length;i++) {
    if (edges[i].id.substr(0,4)=='edge') {
      edges[i].setAttribute('class','edge');
    }
  }
}
]]></script>
        <defs>
                <circle id="rim" cx="0" cy="0" r="7"/>
                <circle id="rim2" cx="0" cy="0" r="3.5"/>
                <g id="zoomPlus">
                        <use xlink:href="#rim" fill="#404040">
                                <set attributeName="fill" to="#808080" begin="zoomplus.mouseover" end="zoomplus.mouseout"/>
                        </use>
                        <path d="M-4,0h8M0,-4v8" fill="none" stroke="white" stroke-width="1.5" pointer-events="none"/>
                </g>
                <g id="zoomMin">
                        <use xlink:href="#rim" fill="#404040">
                                <set attributeName="fill" to="#808080" begin="zoomminus.mouseover" end="zoomminus.mouseout"/>
                        </use>
                        <path d="M-4,0h8" fill="none" stroke="white" stroke-width="1.5" pointer-events="none"/>
                </g>
                <g id="dirArrow">
                        <path fill="none" stroke="white" stroke-width="1.5" d="M0,-3.0v7 M-2.5,-0.5L0,-3.0L2.5,-0.5"/>
                </g>
               <g id="resetDef">
                       <use xlink:href="#rim2" fill="#404040">
                               <set attributeName="fill" to="#808080" begin="reset.mouseover" end="reset.mouseout"/>
                       </use>
               </g>
        </defs>

<script type="text/javascript">
var viewWidth = 1202;
var viewHeight = 1735891;
var sectionId = 'dynsection-0';
</script>
<script xlink:href="svgpan.js"/>
<svg id="graph" class="graph">
<g id="viewport">
<title>include/sqsh.h</title>
<!-- Node1 -->
<g id="node1" class="node">
<title>Node1</title>
<g id="a_node1"><a xlink:title=" ">
<polygon fill="#999999" stroke="#666666" points="722.14,-1735883.42 601.14,-1735883.42 601.14,-1735864.92 722.14,-1735864.92 722.14,-1735883.42"/>
<text text-anchor="middle" x="661.64" y="-1735869.92" font-family="Helvetica,sans-Serif" font-size="10.00">include/sqsh.h</text>
</a>
</g>
</g>
<!-- Node2 -->
<g id="node2" class="node">
<title>Node2</title>
<g id="a_node2"><a xlink:href="sqsh__archive_8h.html" target="_top" xlink:title=" ">
<polygon fill="white" stroke="#666666" points="752.14,-1301856.66 631.14,-1301856.66 631.14,-1301838.16 752.14,-1301838.16 752.14,-1301856.66"/>
<text text-anchor="middle" x="691.64" y="-1301843.16" font-family="Helvetica,sans-Serif" font-size="10.00">sqsh_archive.h</text>
</a>
</g>
</g>
<!-- Node1&#45;&gt;Node2 -->
<g id="edge1" class="edge">
<title>Node1&#45;&gt;Node2</title>
<path fill="none" stroke="#63b8ff" d="M661.64,-1735864.63C661.79,-1733659.37 691.41,-1305186.16 691.64,-1301867.78"/>
<polygon fill="#63b8ff" stroke="#63b8ff" points="695.14,-1301867.9 691.64,-1301857.9 688.14,-1301867.9 695.14,-1301867.9"/>
</g>
<!-- Node3 -->
<g id="node3" class="node">
<title>Node3</title>
<g id="a_node3"><a xlink:href="sqsh__common_8h.html" target="_top" xlink:title=" ">
<polygon fill="white" stroke="#666666" points="659.39,-867891.89 545.89,-867891.89 545.89,-867873.39 659.39,-867873.39 659.39,-867891.89"/>
<text text-anchor="middle" x="602.64" y="-867878.39" font-family="Helvetica,sans-Serif" font-size="10.00">sqsh_common.h</text>
</a>
</g>
</g>
<!-- Node1&#45;&gt;Node3 -->
<g id="edge6" class="edge">
<title>Node1&#45;&gt;Node3</title>
<path fill="none" stroke="#63b8ff" d="M715.09,-1735864.44C753.57,-1735856.94 800.72,-1735844.82 812.64,-1735828.92 819.56,-1735819.67 812.64,-1735814.47 812.64,-1735802.92 812.64,-1735802.92 761.64,-867927.89 761.64,-867927.89 750.19,-867912.83 708.23,-867901.53 670.29,-867894.12"/>
<polygon fill="#63b8ff" stroke="#63b8ff" points="671.2,-867890.54 660.72,-867892.13 669.9,-867897.42 671.2,-867890.54"/>
</g>
<!-- Node7 -->
<g id="node7" class="node">
<title>Node7</title>
<g id="a_node7"><a xlink:href="sqsh__directory_8h.html" target="_top" xlink:title=" ">
<polygon fill="white" stroke="#666666" points="1149.64,-1735828.92 1013.64,-1735828.92 1013.64,-1735802.92 1149.64,-1735802.92 1149.64,-1735828.92"/>
<text text-anchor="middle" x="1081.64" y="-1735815.42" font-family="Helvetica,sans-Serif" font-size="10.00">sqsh_directory.h</text>
</a>
</g>
</g>
<!-- Node1&#45;&gt;Node7 -->
<g id="edge7" class="edge">
<title>Node1&#45;&gt;Node7</title>
<path fill="none" stroke="#63b8ff" d="M722.43,-1735865.49C790.12,-1735856.88 902.77,-1735842.35 999.64,-1735828.92 1000.6,-1735828.78 1001.58,-1735828.65 1002.55,-1735828.51"/>
<polygon fill="#63b8ff" stroke="#63b8ff" points="1002.78,-1735831.87 1012.19,-1735827.01 1001.8,-1735824.94 1002.78,-1735831.87"/>
</g>
<!-- Node8 -->
<g id="node8" class="node">
<title>Node8</title>
<g id="a_node8"><a xlink:href="sqsh__file_8h.html" target="_top" xlink:title=" ">
<polygon fill="white" stroke="#666666" points="1024.89,-1301860.41 926.39,-1301860.41 926.39,-1301834.41 1024.89,-1301834.41 1024.89,-1301860.41"/>
<text text-anchor="middle" x="975.64" y="-1301846.91" font-family="Helvetica,sans-Serif" font-size="10.00">sqsh_file.h</text>
</a>
</g>
</g>
<!-- Node1&#45;&gt;Node8 -->
<g id="edge17" class="edge">
<title>Node1&#45;&gt;Node8</title>
<path fill="none" stroke="#63b8ff" d="M722.33,-1735873.35C802.09,-1735872.15 935.69,-1735864.67 966.64,-1735828.92 1457.6,-1735261.59 979.69,-1305488.23 975.66,-1301871.36"/>
<polygon fill="#63b8ff" stroke="#63b8ff" points="979.16,-1301871.49 975.65,-1301861.49 972.16,-1301871.49 979.16,-1301871.49"/>
</g>
<!-- Node9 -->
<g id="node9" class="node">
<title>Node9</title>
<g id="a_node9"><a xlink:href="sqsh__easy_8h.html" target="_top" xlink:title=" ">
<polygon fill="white" stroke="#666666" points="385.89,-1735825.17 287.39,-1735825.17 287.39,-1735806.67 385.89,-1735806.67 385.89,-1735825.17"/>
<text text-anchor="middle" x="336.64" y="-1735811.67" font-family="Helvetica,sans-Serif" font-size="10.00">sqsh_easy.h</text>
</a>
</g>
</g>
<!-- Node1&#45;&gt;Node9 -->
<g id="edge10" class="edge">
<title>Node1&#45;&gt;Node9</title>
<path fill="none" stroke="#63b8ff" d="M605.01,-1735864.45C550.88,-1735855.96 467.04,-1735842.4 394.64,-1735828.92 392.59,-1735828.54 390.5,-1735828.14 388.4,-1735827.73"/>
<polygon fill="#63b8ff" stroke="#63b8ff" points="389.28,-1735824.14 378.79,-1735825.64 387.92,-1735831.01 389.28,-1735824.14"/>
</g>
<!-- Node13 -->
<g id="node13" class="node">
<title>Node13</title>
<g id="a_node13"><a xlink:href="sqsh__error_8h.html" target="_top" xlink:title=" ">
<polygon fill="white" stroke="#666666" points="122.64,-1301856.66 16.64,-1301856.66 16.64,-1301838.16 122.64,-1301838.16 122.64,-1301856.66"/>
<text text-anchor="middle" x="69.64" y="-1301843.16" font-family="Helvetica,sans-Serif" font-size="10.00">sqsh_error.h</text>
</a>
</g>
</g>
<!-- Node1&#45;&gt;Node13 -->
<g id="edge15" class="edge">
<title>Node1&#45;&gt;Node13</title>
<path fill="none" stroke="#63b8ff" d="M600.69,-1735871.26C472.52,-1735865.72 182.69,-1735844.68 131.64,-1735766.92 -74.27,-1735453.26 68.52,-1305200.06 69.63,-1301867.86"/>
<polygon fill="#63b8ff" stroke="#63b8ff" points="73.13,-1301867.94 69.63,-1301857.94 66.13,-1301867.94 73.13,-1301867.94"/>
</g>
<!-- Node14 -->
<g id="node14" class="node">
<title>Node14</title>
<g id="a_node14"><a xlink:href="sqsh__mapper_8h.html" target="_top" xlink:title=" ">
<polygon fill="white" stroke="#666666" points="803.39,-1735825.17 689.89,-1735825.17 689.89,-1735806.67 803.39,-1735806.67 803.39,-1735825.17"/>
<text text-anchor="middle" x="746.64" y="-1735811.67" font-family="Helvetica,sans-Serif" font-size="10.00">sqsh_mapper.h</text>
</a>
</g>
</g>
<!-- Node1&#45;&gt;Node14 -->
<g id="edge18" class="edge">
<title>Node1&#45;&gt;Node14</title>
<path fill="none" stroke="#63b8ff" d="M674.55,-1735864.62C687.78,-1735855.87 708.6,-1735842.09 724.47,-1735831.58"/>
<polygon fill="#63b8ff" stroke="#63b8ff" points="726.2,-1735833.98 732.61,-1735825.54 722.33,-1735828.14 726.2,-1735833.98"/>
</g>
<!-- Node15 -->
<g id="node15" class="node">
<title>Node15</title>
<g id="a_node15"><a xlink:href="sqsh__posix_8h.html" target="_top" xlink:title=" ">
<polygon fill="white" stroke="#666666" points="509.64,-1735825.17 403.64,-1735825.17 403.64,-1735806.67 509.64,-1735806.67 509.64,-1735825.17"/>
<text text-anchor="middle" x="456.64" y="-1735811.67" font-family="Helvetica,sans-Serif" font-size="10.00">sqsh_posix.h</text>
</a>
</g>
</g>
<!-- Node1&#45;&gt;Node15 -->
<g id="edge19" class="edge">
<title>Node1&#45;&gt;Node15</title>
<path fill="none" stroke="#63b8ff" d="M630.05,-1735864.5C594.84,-1735854.84 537.73,-1735839.17 498.74,-1735828.47"/>
<polygon fill="#63b8ff" stroke="#63b8ff" points="499.82,-1735824.86 489.25,-1735825.59 497.97,-1735831.62 499.82,-1735824.86"/>
</g>
<!-- Node16 -->
<g id="node16" class="node">
<title>Node16</title>
<g id="a_node16"><a xlink:href="sqsh__table_8h.html" target="_top" xlink:title=" ">
<polygon fill="white" stroke="#666666" points="246.64,-1301868.63 140.64,-1301868.63 140.64,-1301826.18 246.64,-1301826.18 246.64,-1301868.63"/>
<text text-anchor="middle" x="193.64" y="-1301855.13" font-family="Helvetica,sans-Serif" font-size="10.00">sqsh_table.h</text>
</a>
</g>
</g>
<!-- Node1&#45;&gt;Node16 -->
<g id="edge22" class="edge">
<title>Node1&#45;&gt;Node16</title>
<path fill="none" stroke="#63b8ff" d="M600.99,-1735870.51C498.41,-1735865.4 299.68,-1735852.53 278.64,-1735828.92 29.21,-1735549.07 192.02,-1306096.52 193.62,-1301879.67"/>
<polygon fill="#63b8ff" stroke="#63b8ff" points="197.13,-1301879.83 193.63,-1301869.83 190.13,-1301879.83 197.13,-1301879.83"/>
</g>
<!-- Node17 -->
<g id="node17" class="node">
<title>Node17</title>
<g id="a_node17"><a xlink:href="sqsh__tree_8h.html" target="_top" xlink:title=" ">
<polygon fill="white" stroke="#666666" points="957.89,-1735828.92 859.39,-1735828.92 859.39,-1735802.92 957.89,-1735802.92 957.89,-1735828.92"/>
<text text-anchor="middle" x="908.64" y="-1735815.42" font-family="Helvetica,sans-Serif" font-size="10.00">sqsh_tree.h</text>
</a>
</g>
</g>
<!-- Node1&#45;&gt;Node17 -->
<g id="edge24" class="edge">
<title>Node1&#45;&gt;Node17</title>
<path fill="none" stroke="#63b8ff" d="M699.96,-1735864.44C739.68,-1735855.39 802.33,-1735841.13 848.63,-1735830.58"/>
<polygon fill="#63b8ff" stroke="#63b8ff" points="849.16,-1735833.82 858.13,-1735828.19 847.61,-1735827 849.16,-1735833.82"/>
</g>
<!-- Node18 -->
<g id="node18" class="node">
<title>Node18</title>
<g id="a_node18"><a xlink:href="sqsh__xattr_8h.html" target="_top" xlink:title=" ">
<polygon fill="white" stroke="#666666" points="633.64,-1735825.17 527.64,-1735825.17 527.64,-1735806.67 633.64,-1735806.67 633.64,-1735825.17"/>
<text text-anchor="middle" x="580.64" y="-1735811.67" font-family="Helvetica,sans-Serif" font-size="10.00">sqsh_xattr.h</text>
</a>
</g>
</g>
<!-- Node1&#45;&gt;Node18 -->
<g id="edge27" class="edge">
<title>Node1&#45;&gt;Node18</title>
<path fill="none" stroke="#63b8ff" d="M649.33,-1735864.62C636.73,-1735855.87 616.88,-1735842.09 601.76,-1735831.58"/>
<polygon fill="#63b8ff" stroke="#63b8ff" points="604.26,-1735828.37 594.05,-1735825.54 600.27,-1735834.12 604.26,-1735828.37"/>
</g>
<!-- Node2&#45;&gt;Node3 -->
<g id="edge2" class="edge">
<title>Node2&#45;&gt;Node3</title>
<path fill="none" stroke="#63b8ff" d="M691.64,-1301837.9C692.43,-1299632.19 846.11,-869413.07 616.64,-867927.89 615.31,-867919.33 612.63,-867910.16 609.97,-867902.4"/>
<polygon fill="#63b8ff" stroke="#63b8ff" points="612.98,-867901.44 606.24,-867893.27 606.41,-867903.86 612.98,-867901.44"/>
</g>
<!-- Node4 -->
<g id="node4" class="node">
<title>Node4</title>
<g id="a_node4"><a xlink:title=" ">
<polygon fill="#e0e0e0" stroke="#999999" points="546.39,-433927.95 462.89,-433927.95 462.89,-433909.45 546.39,-433909.45 546.39,-433927.95"/>
<text text-anchor="middle" x="504.64" y="-433914.45" font-family="Helvetica,sans-Serif" font-size="10.00">stdbool.h</text>
</a>
</g>
</g>
<!-- Node3&#45;&gt;Node4 -->
<g id="edge3" class="edge">
<title>Node3&#45;&gt;Node4</title>
<path fill="none" stroke="#63b8ff" d="M588.57,-867873.1C577.29,-867865.37 562.3,-867852.83 555.64,-867837.39 -634.85,-865081.92 495.81,-437252.43 504.59,-433939.04"/>
<polygon fill="#63b8ff" stroke="#63b8ff" points="508.09,-433939.19 504.61,-433929.18 501.09,-433939.17 508.09,-433939.19"/>
</g>
<!-- Node5 -->
<g id="node5" class="node">
<title>Node5</title>
<g id="a_node5"><a xlink:title=" ">
<polygon fill="#e0e0e0" stroke="#999999" points="640.64,-867761.29 564.64,-867761.29 564.64,-76.1 640.64,-76.1 640.64,-867761.29"/>
<text text-anchor="middle" x="602.64" y="-867747.79" font-family="Helvetica,sans-Serif" font-size="10.00">stddef.h</text>
</a>
</g>
</g>
<!-- Node3&#45;&gt;Node5 -->
<g id="edge4" class="edge">
<title>Node3&#45;&gt;Node5</title>
<path fill="none" stroke="#63b8ff" d="M602.64,-867873.1C602.64,-867858.38 602.64,-867824.65 602.64,-867772.17"/>
<polygon fill="#63b8ff" stroke="#63b8ff" points="606.14,-867772.42 602.64,-867762.42 599.14,-867772.42 606.14,-867772.42"/>
</g>
<!-- Node6 -->
<g id="node6" class="node">
<title>Node6</title>
<g id="a_node6"><a xlink:title=" ">
<polygon fill="#e0e0e0" stroke="#999999" points="734.64,-867837.39 658.64,-867837.39 658.64,0 734.64,0 734.64,-867837.39"/>
<text text-anchor="middle" x="696.64" y="-867823.89" font-family="Helvetica,sans-Serif" font-size="10.00">stdint.h</text>
</a>
</g>
</g>
<!-- Node3&#45;&gt;Node6 -->
<g id="edge5" class="edge">
<title>Node3&#45;&gt;Node6</title>
<path fill="none" stroke="#63b8ff" d="M616.71,-867873.1C627.98,-867865.37 642.97,-867852.83 649.64,-867837.39 1710.47,-865381.99 925.04,-525394.23 735.16,-449028.12"/>
<polygon fill="#63b8ff" stroke="#63b8ff" points="738.66,-449028.19 735.14,-449018.2 731.66,-449028.2 738.66,-449028.19"/>
</g>
<!-- Node7&#45;&gt;Node8 -->
<g id="edge8" class="edge">
<title>Node7&#45;&gt;Node8</title>
<path fill="none" stroke="#63b8ff" d="M1081.63,-1735802.82C1080.99,-1733181.32 976.52,-1305470.72 975.64,-1301871.25"/>
<polygon fill="#63b8ff" stroke="#63b8ff" points="979.14,-1301871.43 975.64,-1301861.43 972.14,-1301871.43 979.14,-1301871.43"/>
</g>
<!-- Node8&#45;&gt;Node3 -->
<g id="edge9" class="edge">
<title>Node8&#45;&gt;Node3</title>
<path fill="none" stroke="#63b8ff" d="M975.65,-1301834.32C978.13,-1299205.5 1383.21,-868497.43 893.64,-867927.89 865.4,-867895.05 746.95,-867886.3 670.15,-867884.14"/>
<polygon fill="#63b8ff" stroke="#63b8ff" points="670.69,-867880.62 660.6,-867883.87 670.51,-867887.62 670.69,-867880.62"/>
</g>
<!-- Node9&#45;&gt;Node3 -->
<g id="edge11" class="edge">
<title>Node9&#45;&gt;Node3</title>
<path fill="none" stroke="#63b8ff" d="M325.33,-1735806.46C314.85,-1735797.84 299.95,-1735783.43 293.64,-1735766.92 293.64,-1735766.92 293.64,-867927.89 293.64,-867927.89 324.21,-867892.63 453.56,-867884.79 534.9,-867883.43"/>
<polygon fill="#63b8ff" stroke="#63b8ff" points="534.6,-867886.92 544.55,-867883.29 534.51,-867879.92 534.6,-867886.92"/>
</g>
<!-- Node10 -->
<g id="node10" class="node">
<title>Node10</title>
<g id="a_node10"><a xlink:title=" ">
<polygon fill="#e0e0e0" stroke="#999999" points="370.89,-1735766.92 302.39,-1735766.92 302.39,-867927.89 370.89,-867927.89 370.89,-1735766.92"/>
<text text-anchor="middle" x="336.64" y="-1735753.42" font-family="Helvetica,sans-Serif" font-size="10.00">fcntl.h</text>
</a>
</g>
</g>
<!-- Node9&#45;&gt;Node10 -->
<g id="edge12" class="edge">
<title>Node9&#45;&gt;Node10</title>
<path fill="none" stroke="#63b8ff" d="M336.64,-1735806.38C336.64,-1735800.25 336.64,-1735790.82 336.64,-1735778.12"/>
<polygon fill="#63b8ff" stroke="#63b8ff" points="340.14,-1735778.24 336.64,-1735768.24 333.14,-1735778.24 340.14,-1735778.24"/>
</g>
<!-- Node11 -->
<g id="node11" class="node">
<title>Node11</title>
<g id="a_node11"><a xlink:title=" ">
<polygon fill="#e0e0e0" stroke="#999999" points="536.89,-1301860.41 468.39,-1301860.41 468.39,-1301834.41 536.89,-1301834.41 536.89,-1301860.41"/>
<text text-anchor="middle" x="502.64" y="-1301846.91" font-family="Helvetica,sans-Serif" font-size="10.00">stdio.h</text>
</a>
</g>
</g>
<!-- Node9&#45;&gt;Node11 -->
<g id="edge13" class="edge">
<title>Node9&#45;&gt;Node11</title>
<path fill="none" stroke="#63b8ff" d="M370.88,-1735806.2C403.55,-1735797.12 449.26,-1735782.11 459.64,-1735766.92 459.64,-1735766.92 502.28,-1305492.48 502.63,-1301871.39"/>
<polygon fill="#63b8ff" stroke="#63b8ff" points="506.13,-1301871.51 502.64,-1301861.51 499.13,-1301871.5 506.13,-1301871.51"/>
</g>
<!-- Node12 -->
<g id="node12" class="node">
<title>Node12</title>
<g id="a_node12"><a xlink:title=" ">
<polygon fill="#e0e0e0" stroke="#999999" points="450.14,-1301856.66 389.14,-1301856.66 389.14,-1301838.16 450.14,-1301838.16 450.14,-1301856.66"/>
<text text-anchor="middle" x="419.64" y="-1301843.16" font-family="Helvetica,sans-Serif" font-size="10.00">time.h</text>
</a>
</g>
</g>
<!-- Node9&#45;&gt;Node12 -->
<g id="edge14" class="edge">
<title>Node9&#45;&gt;Node12</title>
<path fill="none" stroke="#63b8ff" d="M347.94,-1735806.46C358.42,-1735797.84 373.32,-1735783.43 379.64,-1735766.92 513.67,-1735416.47 420.37,-1305199.77 419.64,-1301867.86"/>
<polygon fill="#63b8ff" stroke="#63b8ff" points="423.14,-1301867.94 419.64,-1301857.94 416.14,-1301867.94 423.14,-1301867.94"/>
</g>
<!-- Node13&#45;&gt;Node3 -->
<g id="edge16" class="edge">
<title>Node13&#45;&gt;Node3</title>
<path fill="none" stroke="#63b8ff" d="M69.63,-1301837.87C68.66,-1299626 -121.31,-868205.68 131.64,-867927.89 158.24,-867898.68 411.01,-867888.38 534.88,-867885.07"/>
<polygon fill="#63b8ff" stroke="#63b8ff" points="534.82,-867888.55 544.73,-867884.79 534.64,-867881.55 534.82,-867888.55"/>
</g>
<!-- Node15&#45;&gt;Node3 -->
<g id="edge20" class="edge">
<title>Node15&#45;&gt;Node3</title>
<path fill="none" stroke="#63b8ff" d="M490.24,-1735806.21C510.12,-1735799.14 533.67,-1735786.97 545.64,-1735766.92 545.64,-1735766.92 578.64,-867927.89 578.64,-867927.89 581,-867918.59 585.75,-867909.12 590.41,-867901.34"/>
<polygon fill="#63b8ff" stroke="#63b8ff" points="593.8,-867903.55 596.27,-867893.25 587.91,-867899.76 593.8,-867903.55"/>
</g>
<!-- Node15&#45;&gt;Node11 -->
<g id="edge21" class="edge">
<title>Node15&#45;&gt;Node11</title>
<path fill="none" stroke="#63b8ff" d="M457.33,-1735806.43C458.07,-1735796.84 459.2,-1735780.77 459.64,-1735766.92 553.41,-1732767.92 503.07,-1305519.56 502.64,-1301871.9"/>
<polygon fill="#63b8ff" stroke="#63b8ff" points="506.14,-1301871.91 502.64,-1301861.91 499.14,-1301871.91 506.14,-1301871.91"/>
</g>
<!-- Node16&#45;&gt;Node3 -->
<g id="edge23" class="edge">
<title>Node16&#45;&gt;Node3</title>
<path fill="none" stroke="#63b8ff" d="M193.64,-1301825.97C194.17,-1298410.28 260.64,-867927.89 260.64,-867927.89 278.41,-867907.67 440.06,-867894.02 534.62,-867887.69"/>
<polygon fill="#63b8ff" stroke="#63b8ff" points="534.77,-867891.12 544.52,-867886.97 534.31,-867884.14 534.77,-867891.12"/>
</g>
<!-- Node17&#45;&gt;Node3 -->
<g id="edge25" class="edge">
<title>Node17&#45;&gt;Node3</title>
<path fill="none" stroke="#63b8ff" d="M908.64,-1735802.71C908.36,-1732058.01 845.64,-867927.89 845.64,-867927.89 823.69,-867901.59 734.5,-867890.89 670.54,-867886.55"/>
<polygon fill="#63b8ff" stroke="#63b8ff" points="670.92,-867883.01 660.71,-867885.86 670.47,-867889.99 670.92,-867883.01"/>
</g>
<!-- Node17&#45;&gt;Node8 -->
<g id="edge26" class="edge">
<title>Node17&#45;&gt;Node8</title>
<path fill="none" stroke="#63b8ff" d="M908.64,-1735802.82C909.04,-1733181.32 975.08,-1305470.72 975.63,-1301871.25"/>
<polygon fill="#63b8ff" stroke="#63b8ff" points="979.13,-1301871.43 975.63,-1301861.43 972.13,-1301871.43 979.13,-1301871.43"/>
</g>
<!-- Node18&#45;&gt;Node3 -->
<g id="edge28" class="edge">
<title>Node18&#45;&gt;Node3</title>
<path fill="none" stroke="#63b8ff" d="M580.64,-1735806.2C580.72,-1732648.06 602.52,-872624.5 602.64,-867903.16"/>
<polygon fill="#63b8ff" stroke="#63b8ff" points="606.14,-867903.33 602.64,-867893.33 599.14,-867903.33 606.14,-867903.33"/>
</g>
</g>
</svg>
        <g id="navigator" transform="translate(0 0)" fill="#404254">
                <rect fill="#f2f5e9" fill-opacity="0.5" stroke="#606060" stroke-width=".5" x="0" y="0" width="60" height="60"/>
                <use id="zoomplus" xlink:href="#zoomPlus" x="17" y="9" onmousedown="handleZoom(evt,'in')"/>
                <use id="zoomminus" xlink:href="#zoomMin" x="42" y="9" onmousedown="handleZoom(evt,'out')"/>
                <use id="reset" xlink:href="#resetDef" x="30" y="36" onmousedown="handleReset()"/>
                <g id="arrowUp" xlink:href="#dirArrow" transform="translate(30 24)" onmousedown="handlePan(0,-1)">
                  <use xlink:href="#rim" fill="#404040">
                        <set attributeName="fill" to="#808080" begin="arrowUp.mouseover" end="arrowUp.mouseout"/>
                  </use>
                  <path fill="none" stroke="white" stroke-width="1.5" d="M0,-3.0v7 M-2.5,-0.5L0,-3.0L2.5,-0.5"/>
                </g>
                <g id="arrowRight" xlink:href="#dirArrow" transform="rotate(90) translate(36 -43)" onmousedown="handlePan(1,0)">
                  <use xlink:href="#rim" fill="#404040">
                        <set attributeName="fill" to="#808080" begin="arrowRight.mouseover" end="arrowRight.mouseout"/>
                  </use>
                  <path fill="none" stroke="white" stroke-width="1.5" d="M0,-3.0v7 M-2.5,-0.5L0,-3.0L2.5,-0.5"/>
                </g>
                <g id="arrowDown" xlink:href="#dirArrow" transform="rotate(180) translate(-30 -48)" onmousedown="handlePan(0,1)">
                  <use xlink:href="#rim" fill="#404040">
                        <set attributeName="fill" to="#808080" begin="arrowDown.mouseover" end="arrowDown.mouseout"/>
                  </use>
                  <path fill="none" stroke="white" stroke-width="1.5" d="M0,-3.0v7 M-2.5,-0.5L0,-3.0L2.5,-0.5"/>
                </g>
                <g id="arrowLeft" xlink:href="#dirArrow" transform="rotate(270) translate(-36 17)" onmousedown="handlePan(-1,0)">
                  <use xlink:href="#rim" fill="#404040">
                        <set attributeName="fill" to="#808080" begin="arrowLeft.mouseover" end="arrowLeft.mouseout"/>
                  </use>
                  <path fill="none" stroke="white" stroke-width="1.5" d="M0,-3.0v7 M-2.5,-0.5L0,-3.0L2.5,-0.5"/>
                </g>
        </g>
        <svg viewBox="0 0 15 15" width="100%" height="30px" preserveAspectRatio="xMaxYMin meet">
         <g id="arrow_out" transform="scale(0.3 0.3)">
          <a xlink:href="sqsh_8h__incl_org.svg" target="_base">
           <rect id="button" ry="5" rx="5" y="6" x="6" height="38" width="38"
                fill="#f2f5e9" fill-opacity="0.5" stroke="#606060" stroke-width="1.0"/>
           <path id="arrow"
             d="M 11.500037,31.436501 C 11.940474,20.09759 22.043105,11.32322 32.158766,21.979434 L 37.068811,17.246167 C 37.068811,17.246167 37.088388,32 37.088388,32 L 22.160133,31.978069 C 22.160133,31.978069 26.997745,27.140456 26.997745,27.140456 C 18.528582,18.264221 13.291696,25.230495 11.500037,31.436501 z"
             style="fill:#404040;"/>
          </a>
         </g>
        </svg>
</svg>
