<?xml version="1.0" encoding="UTF-8" standalone="no"?>
<!DOCTYPE svg PUBLIC "-//W3C//DTD SVG 1.1//EN"
 "http://www.w3.org/Graphics/SVG/1.1/DTD/svg11.dtd">
<!-- Generated by graphviz version 9.0.0 (20230911.1827)
 -->
<!-- Title: include/sqsh_easy.h Pages: 1 -->
<svg width="1834pt" height="1255719pt"
 viewBox="0.00 0.00 1833.75 1255718.93" xmlns="http://www.w3.org/2000/svg" xmlns:xlink="http://www.w3.org/1999/xlink">
<g id="graph0" class="graph" transform="scale(1 1) rotate(0) translate(4 1255714.93)">
<title>include/sqsh_easy.h</title>
<!-- Node1 -->
<g id="Node000001" class="node">
<title>Node1</title>
<g id="a_Node000001"><a xlink:title=" ">
<polygon fill="#999999" stroke="#666666" points="958.5,-1255710.93 800,-1255710.93 800,-1255692.43 958.5,-1255692.43 958.5,-1255710.93"/>
<text text-anchor="middle" x="879.25" y="-1255697.43" font-family="Helvetica,sans-Serif" font-size="10.00">include/sqsh_easy.h</text>
</a>
</g>
</g>
<!-- Node2 -->
<g id="Node000002" class="node">
<title>Node2</title>
<g id="a_Node000002"><a xlink:href="sqsh_8h.html" target="_top" xlink:title=" ">
<polygon fill="white" stroke="#666666" points="939.75,-1255656.43 818.75,-1255656.43 818.75,-1255637.93 939.75,-1255637.93 939.75,-1255656.43"/>
<text text-anchor="middle" x="879.25" y="-1255642.93" font-family="Helvetica,sans-Serif" font-size="10.00">include/sqsh.h</text>
</a>
</g>
</g>
<!-- Node1&#45;&gt;Node2 -->
<g id="edge1_Node000001_Node000002" class="edge">
<title>Node1&#45;&gt;Node2</title>
<g id="a_edge1_Node000001_Node000002"><a xlink:title=" ">
<path fill="none" stroke="#63b8ff" d="M879.25,-1255680.56C879.25,-1255672.28 879.25,-1255663.14 879.25,-1255656.68"/>
<polygon fill="#63b8ff" stroke="#63b8ff" points="875.75,-1255680.49 879.25,-1255690.49 882.75,-1255680.49 875.75,-1255680.49"/>
</a>
</g>
</g>
<!-- Node3 -->
<g id="Node000003" class="node">
<title>Node3</title>
<g id="a_Node000003"><a xlink:href="list__dir_8c.html" target="_top" xlink:title=" ">
<polygon fill="white" stroke="#666666" points="158.5,-1255601.93 0,-1255601.93 0,0 158.5,0 158.5,-1255601.93"/>
<text text-anchor="middle" x="79.25" y="-1255588.43" font-family="Helvetica,sans-Serif" font-size="10.00">examples/list_dir.c</text>
</a>
</g>
</g>
<!-- Node2&#45;&gt;Node3 -->
<g id="edge2_Node000002_Node000003" class="edge">
<title>Node2&#45;&gt;Node3</title>
<g id="a_edge2_Node000002_Node000003"><a xlink:title=" ">
<path fill="none" stroke="#63b8ff" d="M807.06,-1255644.33C630.36,-1255639.45 188.93,-1255625 167.25,-1255601.93 167.25,-1255601.93 164.1,-1233153.16 159,-1196745.64"/>
<polygon fill="#63b8ff" stroke="#63b8ff" points="806.7,-1255647.82 816.79,-1255644.59 806.89,-1255640.82 806.7,-1255647.82"/>
</a>
</g>
</g>
<!-- Node4 -->
<g id="Node000004" class="node">
<title>Node4</title>
<g id="a_Node000004"><a xlink:href="list__dir__ll_8c.html" target="_top" xlink:title=" ">
<polygon fill="white" stroke="#666666" points="357.75,-1255555.77 176.75,-1255555.77 176.75,-46.16 357.75,-46.16 357.75,-1255555.77"/>
<text text-anchor="middle" x="267.25" y="-1255542.27" font-family="Helvetica,sans-Serif" font-size="10.00">examples/list_dir_ll.c</text>
</a>
</g>
</g>
<!-- Node2&#45;&gt;Node4 -->
<g id="edge3_Node000002_Node000004" class="edge">
<title>Node2&#45;&gt;Node4</title>
<g id="a_edge3_Node000002_Node000004"><a xlink:title=" ">
<path fill="none" stroke="#63b8ff" d="M806.89,-1255645.23C672.53,-1255642.73 395.43,-1255633.73 366.25,-1255601.93 363.55,-1255598.98 360.88,-1255562.26 358.24,-1255492.26"/>
<polygon fill="#63b8ff" stroke="#63b8ff" points="806.69,-1255648.73 816.75,-1255645.41 806.81,-1255641.73 806.69,-1255648.73"/>
</a>
</g>
</g>
<!-- Node5 -->
<g id="Node000005" class="node">
<title>Node5</title>
<g id="a_Node000005"><a xlink:href="list__xattrs_8c.html" target="_top" xlink:title=" ">
<polygon fill="white" stroke="#666666" points="556.75,-1255495.75 375.75,-1255495.75 375.75,-106.18 556.75,-106.18 556.75,-1255495.75"/>
<text text-anchor="middle" x="466.25" y="-1255482.25" font-family="Helvetica,sans-Serif" font-size="10.00">examples/list_xattrs.c</text>
</a>
</g>
</g>
<!-- Node2&#45;&gt;Node5 -->
<g id="edge4_Node000002_Node000005" class="edge">
<title>Node2&#45;&gt;Node5</title>
<g id="a_edge4_Node000002_Node000005"><a xlink:title=" ">
<path fill="none" stroke="#63b8ff" d="M807.15,-1255646.51C724.35,-1255645.17 595.95,-1255637.25 565.25,-1255601.93 562.54,-1255598.81 559.87,-1255559.79 557.24,-1255485.39"/>
<polygon fill="#63b8ff" stroke="#63b8ff" points="806.96,-1255650.01 817,-1255646.64 807.05,-1255643.01 806.96,-1255650.01"/>
</a>
</g>
</g>
<!-- Node6 -->
<g id="Node000006" class="node">
<title>Node6</title>
<g id="a_Node000006"><a xlink:href="list__xattrs__ll_8c.html" target="_top" xlink:title=" ">
<polygon fill="white" stroke="#666666" points="778,-627810.21 574.5,-627810.21 574.5,-627791.71 778,-627791.71 778,-627810.21"/>
<text text-anchor="middle" x="676.25" y="-627796.71" font-family="Helvetica,sans-Serif" font-size="10.00">examples/list_xattrs_ll.c</text>
</a>
</g>
</g>
<!-- Node2&#45;&gt;Node6 -->
<g id="edge5_Node000002_Node000006" class="edge">
<title>Node2&#45;&gt;Node6</title>
<g id="a_edge5_Node000002_Node000006"><a xlink:title=" ">
<path fill="none" stroke="#63b8ff" d="M828.94,-1255633.64C812.81,-1255626.98 796.69,-1255616.94 787.25,-1255601.93 497.78,-1255141.57 675.49,-630479.38 676.25,-627810.54"/>
<polygon fill="#63b8ff" stroke="#63b8ff" points="827.47,-1255636.82 838.06,-1255637.02 829.9,-1255630.26 827.47,-1255636.82"/>
</a>
</g>
</g>
<!-- Node7 -->
<g id="Node000007" class="node">
<title>Node7</title>
<g id="a_Node000007"><a xlink:href="read__file_8c.html" target="_top" xlink:title=" ">
<polygon fill="white" stroke="#666666" points="962.25,-627810.21 796.25,-627810.21 796.25,-627791.71 962.25,-627791.71 962.25,-627810.21"/>
<text text-anchor="middle" x="879.25" y="-627796.71" font-family="Helvetica,sans-Serif" font-size="10.00">examples/read_file.c</text>
</a>
</g>
</g>
<!-- Node2&#45;&gt;Node7 -->
<g id="edge6_Node000002_Node000007" class="edge">
<title>Node2&#45;&gt;Node7</title>
<g id="a_edge6_Node000002_Node000007"><a xlink:title=" ">
<path fill="none" stroke="#63b8ff" d="M879.25,-1255626.19C879.25,-1251567.3 879.25,-630467.11 879.25,-627810.51"/>
<polygon fill="#63b8ff" stroke="#63b8ff" points="875.75,-1255626.08 879.25,-1255636.08 882.75,-1255626.08 875.75,-1255626.08"/>
</a>
</g>
</g>
<!-- Node8 -->
<g id="Node000008" class="node">
<title>Node8</title>
<g id="a_Node000008"><a xlink:href="read__file__ll_8c.html" target="_top" xlink:title=" ">
<polygon fill="white" stroke="#666666" points="1168.5,-627813.96 980,-627813.96 980,-627787.96 1168.5,-627787.96 1168.5,-627813.96"/>
<text text-anchor="middle" x="1074.25" y="-627800.46" font-family="Helvetica,sans-Serif" font-size="10.00">examples/read_file_ll.c</text>
</a>
</g>
</g>
<!-- Node2&#45;&gt;Node8 -->
<g id="edge7_Node000002_Node000008" class="edge">
<title>Node2&#45;&gt;Node8</title>
<g id="a_edge7_Node000002_Node000008"><a xlink:title=" ">
<path fill="none" stroke="#63b8ff" d="M929.56,-1255633.64C945.69,-1255626.98 961.81,-1255616.94 971.25,-1255601.93 1260.59,-1255141.77 1075.21,-631014.18 1074.25,-627814.31"/>
<polygon fill="#63b8ff" stroke="#63b8ff" points="928.6,-1255630.26 920.44,-1255637.02 931.03,-1255636.82 928.6,-1255630.26"/>
</a>
</g>
</g>
<!-- Node9 -->
<g id="Node000009" class="node">
<title>Node9</title>
<g id="a_Node000009"><a xlink:href="readme__example_8c.html" target="_top" xlink:title=" ">
<polygon fill="white" stroke="#666666" points="1390,-627810.21 1186.5,-627810.21 1186.5,-627791.71 1390,-627791.71 1390,-627810.21"/>
<text text-anchor="middle" x="1288.25" y="-627796.71" font-family="Helvetica,sans-Serif" font-size="10.00">examples/readme_example.c</text>
</a>
</g>
</g>
<!-- Node2&#45;&gt;Node9 -->
<g id="edge8_Node000002_Node000009" class="edge">
<title>Node2&#45;&gt;Node9</title>
<g id="a_edge8_Node000002_Node000009"><a xlink:title=" ">
<path fill="none" stroke="#63b8ff" d="M951.53,-1255645.85C1030.21,-1255643.78 1148.68,-1255635.05 1177.25,-1255601.93 1532.45,-1255190.16 1289.29,-630479.59 1288.25,-627810.54"/>
<polygon fill="#63b8ff" stroke="#63b8ff" points="951.65,-1255642.35 941.74,-1255646.08 951.82,-1255649.34 951.65,-1255642.35"/>
</a>
</g>
</g>
<!-- Node10 -->
<g id="Node000010" class="node">
<title>Node10</title>
<g id="a_Node000010"><a xlink:href="traverse__dir_8c.html" target="_top" xlink:title=" ">
<polygon fill="white" stroke="#666666" points="1596.5,-627810.21 1408,-627810.21 1408,-627791.71 1596.5,-627791.71 1596.5,-627810.21"/>
<text text-anchor="middle" x="1502.25" y="-627796.71" font-family="Helvetica,sans-Serif" font-size="10.00">examples/traverse_dir.c</text>
</a>
</g>
</g>
<!-- Node2&#45;&gt;Node10 -->
<g id="edge9_Node000002_Node000010" class="edge">
<title>Node2&#45;&gt;Node10</title>
<g id="a_edge9_Node000002_Node000010"><a xlink:title=" ">
<path fill="none" stroke="#63b8ff" d="M951.57,-1255645.33C1087.37,-1255642.98 1369.58,-1255634.22 1399.25,-1255601.93 1767.15,-1255201.46 1503.38,-630479.64 1502.25,-627810.54"/>
<polygon fill="#63b8ff" stroke="#63b8ff" points="951.53,-1255641.83 941.59,-1255645.49 951.65,-1255648.83 951.53,-1255641.83"/>
</a>
</g>
</g>
<!-- Node11 -->
<g id="Node000011" class="node">
<title>Node11</title>
<g id="a_Node000011"><a xlink:href="traverse__dir__ll_8c.html" target="_top" xlink:title=" ">
<polygon fill="white" stroke="#666666" points="1825.75,-627810.21 1614.75,-627810.21 1614.75,-627791.71 1825.75,-627791.71 1825.75,-627810.21"/>
<text text-anchor="middle" x="1720.25" y="-627796.71" font-family="Helvetica,sans-Serif" font-size="10.00">examples/traverse_dir_ll.c</text>
</a>
</g>
</g>
<!-- Node2&#45;&gt;Node11 -->
<g id="edge10_Node000002_Node000011" class="edge">
<title>Node2&#45;&gt;Node11</title>
<g id="a_edge10_Node000002_Node000011"><a xlink:title=" ">
<path fill="none" stroke="#63b8ff" d="M951.57,-1255644.41C1130.87,-1255639.69 1583.07,-1255625.49 1605.25,-1255601.93 1977.93,-1255205.91 1721.35,-630479.66 1720.25,-627810.54"/>
<polygon fill="#63b8ff" stroke="#63b8ff" points="951.58,-1255640.91 941.68,-1255644.67 951.77,-1255647.91 951.58,-1255640.91"/>
</a>
</g>
</g>
</g>
</svg>
