<?xml version="1.0" encoding="UTF-8" standalone="no"?>
<!DOCTYPE svg PUBLIC "-//W3C//DTD SVG 1.1//EN"
 "http://www.w3.org/Graphics/SVG/1.1/DTD/svg11.dtd">
<!-- Generated by graphviz version 9.0.0 (20230911.1827)
 -->
<!-- Title: include/sqsh_tree.h Pages: 1 -->
<svg width="280pt" height="1297952pt"
 viewBox="0.00 0.00 279.75 1297952.03" xmlns="http://www.w3.org/2000/svg" xmlns:xlink="http://www.w3.org/1999/xlink">
<g id="graph0" class="graph" transform="scale(1 1) rotate(0) translate(4 1297948.03)">
<title>include/sqsh_tree.h</title>
<!-- Node1 -->
<g id="Node000001" class="node">
<title>Node1</title>
<g id="a_Node000001"><a xlink:title=" ">
<polygon fill="#999999" stroke="#666666" points="219,-1297944.03 60.5,-1297944.03 60.5,-1297925.53 219,-1297925.53 219,-1297944.03"/>
<text text-anchor="middle" x="139.75" y="-1297930.53" font-family="Helvetica,sans-Serif" font-size="10.00">include/sqsh_tree.h</text>
</a>
</g>
</g>
<!-- Node2 -->
<g id="Node000002" class="node">
<title>Node2</title>
<g id="a_Node000002"><a xlink:href="sqsh__common_8h.html" target="_top" xlink:title=" ">
<polygon fill="white" stroke="#666666" points="196.5,-1297827.53 83,-1297827.53 83,-648931.62 196.5,-648931.62 196.5,-1297827.53"/>
<text text-anchor="middle" x="139.75" y="-1297814.03" font-family="Helvetica,sans-Serif" font-size="10.00">sqsh_common.h</text>
</a>
</g>
</g>
<!-- Node1&#45;&gt;Node2 -->
<g id="edge1_Node000001_Node000002" class="edge">
<title>Node1&#45;&gt;Node2</title>
<g id="a_edge1_Node000001_Node000002"><a xlink:title=" ">
<path fill="none" stroke="#63b8ff" d="M134.87,-1297925.31C130.19,-1297916.64 123.44,-1297902.63 120.75,-1297889.53 118.42,-1297878.21 120.75,-1297875.09 120.75,-1297863.53 120.75,-1297855.4 120.75,-1297847.27 120.75,-1297839.13"/>
<polygon fill="#63b8ff" stroke="#63b8ff" points="124.25,-1297839.15 120.75,-1297829.15 117.25,-1297839.15 124.25,-1297839.15"/>
</a>
</g>
</g>
<!-- Node6 -->
<g id="Node000006" class="node">
<title>Node6</title>
<g id="a_Node000006"><a xlink:href="sqsh__file_8h.html" target="_top" xlink:title=" ">
<polygon fill="white" stroke="#666666" points="228,-1297889.53 129.5,-1297889.53 129.5,-1297863.53 228,-1297863.53 228,-1297889.53"/>
<text text-anchor="middle" x="178.75" y="-1297876.03" font-family="Helvetica,sans-Serif" font-size="10.00">sqsh_file.h</text>
</a>
</g>
</g>
<!-- Node1&#45;&gt;Node6 -->
<g id="edge5_Node000001_Node000006" class="edge">
<title>Node1&#45;&gt;Node6</title>
<g id="a_edge5_Node000001_Node000006"><a xlink:title=" ">
<path fill="none" stroke="#63b8ff" d="M145.5,-1297925.48C150.3,-1297918.57 157.34,-1297908.41 163.72,-1297899.21"/>
<polygon fill="#63b8ff" stroke="#63b8ff" points="166.55,-1297901.28 169.37,-1297891.06 160.79,-1297897.29 166.55,-1297901.28"/>
</a>
</g>
</g>
<!-- Node3 -->
<g id="Node000003" class="node">
<title>Node3</title>
<g id="a_Node000003"><a xlink:title=" ">
<polygon fill="#e0e0e0" stroke="#999999" points="83.5,-648802.56 0,-648802.56 0,-93.06 83.5,-93.06 83.5,-648802.56"/>
<text text-anchor="middle" x="41.75" y="-648789.06" font-family="Helvetica,sans-Serif" font-size="10.00">stdbool.h</text>
</a>
</g>
</g>
<!-- Node2&#45;&gt;Node3 -->
<g id="edge2_Node000002_Node000003" class="edge">
<title>Node2&#45;&gt;Node3</title>
<g id="a_edge2_Node000002_Node000003"><a xlink:title=" ">
<path fill="none" stroke="#63b8ff" d="M90.75,-648931.33C88.5,-633987.97 86.24,-619044.56 84,-604227.89"/>
<polygon fill="#63b8ff" stroke="#63b8ff" points="87.5,-604228.21 84,-604218.21 80.5,-604228.21 87.5,-604228.21"/>
</a>
</g>
</g>
<!-- Node4 -->
<g id="Node000004" class="node">
<title>Node4</title>
<g id="a_Node000004"><a xlink:title=" ">
<polygon fill="#e0e0e0" stroke="#999999" points="177.75,-324457.06 101.75,-324457.06 101.75,-324438.56 177.75,-324438.56 177.75,-324457.06"/>
<text text-anchor="middle" x="139.75" y="-324443.56" font-family="Helvetica,sans-Serif" font-size="10.00">stddef.h</text>
</a>
</g>
</g>
<!-- Node2&#45;&gt;Node4 -->
<g id="edge3_Node000002_Node000004" class="edge">
<title>Node2&#45;&gt;Node4</title>
<g id="a_edge3_Node000002_Node000004"><a xlink:title=" ">
<path fill="none" stroke="#63b8ff" d="M139.75,-648931.33C139.75,-487721.37 139.75,-326505.59 139.75,-324468.33"/>
<polygon fill="#63b8ff" stroke="#63b8ff" points="143.25,-324468.7 139.75,-324458.7 136.25,-324468.7 143.25,-324468.7"/>
</a>
</g>
</g>
<!-- Node5 -->
<g id="Node000005" class="node">
<title>Node5</title>
<g id="a_Node000005"><a xlink:title=" ">
<polygon fill="#e0e0e0" stroke="#999999" points="271.75,-648895.62 195.75,-648895.62 195.75,0 271.75,0 271.75,-648895.62"/>
<text text-anchor="middle" x="233.75" y="-648882.12" font-family="Helvetica,sans-Serif" font-size="10.00">stdint.h</text>
</a>
</g>
</g>
<!-- Node2&#45;&gt;Node5 -->
<g id="edge4_Node000002_Node000005" class="edge">
<title>Node2&#45;&gt;Node5</title>
<g id="a_edge4_Node000002_Node000005"><a xlink:title=" ">
<path fill="none" stroke="#63b8ff" d="M186.75,-648931.33C189.6,-629272.95 192.44,-609614.47 195.25,-590244.56"/>
<polygon fill="#63b8ff" stroke="#63b8ff" points="198.75,-590244.99 195.25,-590234.99 191.75,-590244.99 198.75,-590244.99"/>
</a>
</g>
</g>
<!-- Node6&#45;&gt;Node2 -->
<g id="edge6_Node000006_Node000002" class="edge">
<title>Node6&#45;&gt;Node2</title>
<g id="a_edge6_Node000006_Node000002"><a xlink:title=" ">
<path fill="none" stroke="#63b8ff" d="M178.75,-1297863.36C178.75,-1297857.47 178.75,-1297849.45 178.75,-1297839.3"/>
<polygon fill="#63b8ff" stroke="#63b8ff" points="182.25,-1297839.48 178.74,-1297829.48 175.25,-1297839.48 182.25,-1297839.48"/>
</a>
</g>
</g>
</g>
</svg>
