<?xml version="1.0" encoding="UTF-8" standalone="no"?>
<!DOCTYPE svg PUBLIC "-//W3C//DTD SVG 1.1//EN"
 "http://www.w3.org/Graphics/SVG/1.1/DTD/svg11.dtd">
<!-- Generated by graphviz version 9.0.0 (20230911.1827)
 -->
<!-- Title: include/sqsh_table.h Pages: 1 -->
<svg width="280pt" height="1316237pt"
 viewBox="0.00 0.00 279.75 1316236.99" xmlns="http://www.w3.org/2000/svg" xmlns:xlink="http://www.w3.org/1999/xlink">
<g id="graph0" class="graph" transform="scale(1 1) rotate(0) translate(4 1316232.99)">
<title>include/sqsh_table.h</title>
<!-- Node1 -->
<g id="Node000001" class="node">
<title>Node1</title>
<g id="a_Node000001"><a xlink:title=" ">
<polygon fill="#999999" stroke="#666666" points="222.75,-1316228.99 56.75,-1316228.99 56.75,-1316210.49 222.75,-1316210.49 222.75,-1316228.99"/>
<text text-anchor="middle" x="139.75" y="-1316215.49" font-family="Helvetica,sans-Serif" font-size="10.00">include/sqsh_table.h</text>
</a>
</g>
</g>
<!-- Node2 -->
<g id="Node000002" class="node">
<title>Node2</title>
<g id="a_Node000002"><a xlink:href="sqsh__common_8h.html" target="_top" xlink:title=" ">
<polygon fill="white" stroke="#666666" points="196.5,-1316174.49 83,-1316174.49 83,-1316155.99 196.5,-1316155.99 196.5,-1316174.49"/>
<text text-anchor="middle" x="139.75" y="-1316160.99" font-family="Helvetica,sans-Serif" font-size="10.00">sqsh_common.h</text>
</a>
</g>
</g>
<!-- Node1&#45;&gt;Node2 -->
<g id="edge1_Node000001_Node000002" class="edge">
<title>Node1&#45;&gt;Node2</title>
<g id="a_edge1_Node000001_Node000002"><a xlink:title=" ">
<path fill="none" stroke="#63b8ff" d="M139.75,-1316210.07C139.75,-1316203.57 139.75,-1316194.41 139.75,-1316186.15"/>
<polygon fill="#63b8ff" stroke="#63b8ff" points="143.25,-1316186.26 139.75,-1316176.26 136.25,-1316186.26 143.25,-1316186.26"/>
</a>
</g>
</g>
<!-- Node3 -->
<g id="Node000003" class="node">
<title>Node3</title>
<g id="a_Node000003"><a xlink:title=" ">
<polygon fill="#e0e0e0" stroke="#999999" points="83.5,-1316119.99 0,-1316119.99 0,0 83.5,0 83.5,-1316119.99"/>
<text text-anchor="middle" x="41.75" y="-1316106.49" font-family="Helvetica,sans-Serif" font-size="10.00">stdbool.h</text>
</a>
</g>
</g>
<!-- Node2&#45;&gt;Node3 -->
<g id="edge2_Node000002_Node000003" class="edge">
<title>Node2&#45;&gt;Node3</title>
<g id="a_edge2_Node000002_Node000003"><a xlink:title=" ">
<path fill="none" stroke="#63b8ff" d="M125.68,-1316155.7C114.41,-1316147.96 99.42,-1316135.42 92.75,-1316119.99 92.75,-1316119.99 89.21,-1270475.28 84,-1203228.57"/>
<polygon fill="#63b8ff" stroke="#63b8ff" points="87.5,-1203228.93 84,-1203218.93 80.5,-1203228.93 87.5,-1203228.93"/>
</a>
</g>
</g>
<!-- Node4 -->
<g id="Node000004" class="node">
<title>Node4</title>
<g id="a_Node000004"><a xlink:title=" ">
<polygon fill="#e0e0e0" stroke="#999999" points="177.75,-658069.24 101.75,-658069.24 101.75,-658050.74 177.75,-658050.74 177.75,-658069.24"/>
<text text-anchor="middle" x="139.75" y="-658055.74" font-family="Helvetica,sans-Serif" font-size="10.00">stddef.h</text>
</a>
</g>
</g>
<!-- Node2&#45;&gt;Node4 -->
<g id="edge3_Node000002_Node000004" class="edge">
<title>Node2&#45;&gt;Node4</title>
<g id="a_edge3_Node000002_Node000004"><a xlink:title=" ">
<path fill="none" stroke="#63b8ff" d="M139.75,-1316155.5C139.75,-1313404.44 139.75,-662251.11 139.75,-658081.11"/>
<polygon fill="#63b8ff" stroke="#63b8ff" points="143.25,-658081.21 139.75,-658071.21 136.25,-658081.21 143.25,-658081.21"/>
</a>
</g>
</g>
<!-- Node5 -->
<g id="Node000005" class="node">
<title>Node5</title>
<g id="a_Node000005"><a xlink:title=" ">
<polygon fill="#e0e0e0" stroke="#999999" points="271.75,-658069.24 195.75,-658069.24 195.75,-658050.74 271.75,-658050.74 271.75,-658069.24"/>
<text text-anchor="middle" x="233.75" y="-658055.74" font-family="Helvetica,sans-Serif" font-size="10.00">stdint.h</text>
</a>
</g>
</g>
<!-- Node2&#45;&gt;Node5 -->
<g id="edge4_Node000002_Node000005" class="edge">
<title>Node2&#45;&gt;Node5</title>
<g id="a_edge4_Node000002_Node000005"><a xlink:title=" ">
<path fill="none" stroke="#63b8ff" d="M153.82,-1316155.7C165.09,-1316147.96 180.08,-1316135.42 186.75,-1316119.99 186.75,-1316119.99 233.45,-662268.5 233.75,-658081.19"/>
<polygon fill="#63b8ff" stroke="#63b8ff" points="237.25,-658081.25 233.75,-658071.25 230.25,-658081.25 237.25,-658081.25"/>
</a>
</g>
</g>
</g>
</svg>
