<?xml version="1.0" encoding="UTF-8" standalone="no"?>
<!DOCTYPE svg PUBLIC "-//W3C//DTD SVG 1.1//EN"
 "http://www.w3.org/Graphics/SVG/1.1/DTD/svg11.dtd">
<!-- Generated by graphviz version 8.0.5 (20230430.1635)
 -->
<!-- Title: include/sqsh_directory.h Pages: 1 -->
<svg width="280pt" height="2959815pt"
 viewBox="0.00 0.00 279.75 2959814.69" xmlns="http://www.w3.org/2000/svg" xmlns:xlink="http://www.w3.org/1999/xlink">
<g id="graph0" class="graph" transform="scale(1 1) rotate(0) translate(4 2959810.69)">
<title>include/sqsh_directory.h</title>
<!-- Node1 -->
<g id="node1" class="node">
<title>Node1</title>
<g id="a_node1"><a xlink:title=" ">
<polygon fill="#999999" stroke="#666666" points="237.75,-2959806.69 41.75,-2959806.69 41.75,-2959788.19 237.75,-2959788.19 237.75,-2959806.69"/>
<text text-anchor="middle" x="139.75" y="-2959793.19" font-family="Helvetica,sans-Serif" font-size="10.00">include/sqsh_directory.h</text>
</a>
</g>
</g>
<!-- Node2 -->
<g id="node2" class="node">
<title>Node2</title>
<g id="a_node2"><a xlink:href="sqsh__file_8h.html" target="_top" xlink:title=" ">
<polygon fill="white" stroke="#666666" points="189,-2959752.19 90.5,-2959752.19 90.5,-2959733.69 189,-2959733.69 189,-2959752.19"/>
<text text-anchor="middle" x="139.75" y="-2959738.69" font-family="Helvetica,sans-Serif" font-size="10.00">sqsh_file.h</text>
</a>
</g>
</g>
<!-- Node1&#45;&gt;Node2 -->
<g id="edge1" class="edge">
<title>Node1&#45;&gt;Node2</title>
<path fill="none" stroke="#63b8ff" d="M139.75,-2959787.77C139.75,-2959781.12 139.75,-2959771.68 139.75,-2959763.26"/>
<polygon fill="#63b8ff" stroke="#63b8ff" points="143.25,-2959763.45 139.75,-2959753.45 136.25,-2959763.45 143.25,-2959763.45"/>
</g>
<!-- Node3 -->
<g id="node3" class="node">
<title>Node3</title>
<g id="a_node3"><a xlink:href="sqsh__common_8h.html" target="_top" xlink:title=" ">
<polygon fill="white" stroke="#666666" points="196.5,-2959697.69 83,-2959697.69 83,-1479818.57 196.5,-1479818.57 196.5,-2959697.69"/>
<text text-anchor="middle" x="139.75" y="-2959684.19" font-family="Helvetica,sans-Serif" font-size="10.00">sqsh_common.h</text>
</a>
</g>
</g>
<!-- Node2&#45;&gt;Node3 -->
<g id="edge2" class="edge">
<title>Node2&#45;&gt;Node3</title>
<path fill="none" stroke="#63b8ff" d="M139.75,-2959733.21C139.75,-2959727.74 139.75,-2959719.68 139.75,-2959709.06"/>
<polygon fill="#63b8ff" stroke="#63b8ff" points="143.25,-2959709.1 139.75,-2959699.1 136.25,-2959709.1 143.25,-2959709.1"/>
</g>
<!-- Node4 -->
<g id="node4" class="node">
<title>Node4</title>
<g id="a_node4"><a xlink:title=" ">
<polygon fill="#e0e0e0" stroke="#999999" points="83.5,-1479782.57 0,-1479782.57 0,0 83.5,0 83.5,-1479782.57"/>
<text text-anchor="middle" x="41.75" y="-1479769.07" font-family="Helvetica,sans-Serif" font-size="10.00">stdbool.h</text>
</a>
</g>
</g>
<!-- Node3&#45;&gt;Node4 -->
<g id="edge3" class="edge">
<title>Node3&#45;&gt;Node4</title>
<path fill="none" stroke="#63b8ff" d="M90.75,-1479818.09C88.49,-1445751.08 86.24,-1411684.09 84,-1377905.97"/>
<polygon fill="#63b8ff" stroke="#63b8ff" points="87.5,-1377906.14 84,-1377896.14 80.5,-1377906.14 87.5,-1377906.14"/>
</g>
<!-- Node5 -->
<g id="node5" class="node">
<title>Node5</title>
<g id="a_node5"><a xlink:title=" ">
<polygon fill="#e0e0e0" stroke="#999999" points="177.75,-739900.54 101.75,-739900.54 101.75,-739882.04 177.75,-739882.04 177.75,-739900.54"/>
<text text-anchor="middle" x="139.75" y="-739887.04" font-family="Helvetica,sans-Serif" font-size="10.00">stddef.h</text>
</a>
</g>
</g>
<!-- Node3&#45;&gt;Node5 -->
<g id="edge4" class="edge">
<title>Node3&#45;&gt;Node5</title>
<path fill="none" stroke="#63b8ff" d="M139.75,-1479818.09C139.75,-1111410.71 139.75,-743005.5 139.75,-739911.91"/>
<polygon fill="#63b8ff" stroke="#63b8ff" points="143.25,-739912.03 139.75,-739902.03 136.25,-739912.03 143.25,-739912.03"/>
</g>
<!-- Node6 -->
<g id="node6" class="node">
<title>Node6</title>
<g id="a_node6"><a xlink:title=" ">
<polygon fill="#e0e0e0" stroke="#999999" points="271.75,-739900.54 195.75,-739900.54 195.75,-739882.04 271.75,-739882.04 271.75,-739900.54"/>
<text text-anchor="middle" x="233.75" y="-739887.04" font-family="Helvetica,sans-Serif" font-size="10.00">stdint.h</text>
</a>
</g>
</g>
<!-- Node3&#45;&gt;Node6 -->
<g id="edge5" class="edge">
<title>Node3&#45;&gt;Node6</title>
<path fill="none" stroke="#63b8ff" d="M186.75,-1479818.09C210.15,-1111410.71 233.55,-743005.5 233.75,-739911.91"/>
<polygon fill="#63b8ff" stroke="#63b8ff" points="237.25,-739912.03 233.75,-739902.03 230.25,-739912.03 237.25,-739912.03"/>
</g>
</g>
</svg>
