<?xml version="1.0" encoding="UTF-8" standalone="no"?>
<!DOCTYPE svg PUBLIC "-//W3C//DTD SVG 1.1//EN"
 "http://www.w3.org/Graphics/SVG/1.1/DTD/svg11.dtd">
<!-- Generated by graphviz version 8.0.5 (20230430.1635)
 -->
<!-- Title: libsqsh/include/sqsh_mapper_private.h Pages: 1 -->
<svg width="488pt" height="388055pt"
 viewBox="0.00 0.00 488.10 388054.69" xmlns="http://www.w3.org/2000/svg" xmlns:xlink="http://www.w3.org/1999/xlink">
<g id="graph0" class="graph" transform="scale(1 1) rotate(0) translate(4 388050.69)">
<title>libsqsh/include/sqsh_mapper_private.h</title>
<!-- Node1 -->
<g id="node1" class="node">
<title>Node1</title>
<g id="a_node1"><a xlink:title=" ">
<polygon fill="#999999" stroke="#666666" points="369.1,-388046.69 203.1,-388046.69 203.1,-388017.69 369.1,-388017.69 369.1,-388046.69"/>
<text text-anchor="start" x="211.1" y="-388033.19" font-family="Helvetica,sans-Serif" font-size="10.00">libsqsh/include/sqsh</text>
<text text-anchor="middle" x="286.1" y="-388022.69" font-family="Helvetica,sans-Serif" font-size="10.00">_mapper_private.h</text>
</a>
</g>
</g>
<!-- Node2 -->
<g id="node2" class="node">
<title>Node2</title>
<g id="a_node2"><a xlink:href="sqsh__file__private_8h.html" target="_top" xlink:title=" ">
<polygon fill="white" stroke="#666666" points="296.1,-387909.19 130.1,-387909.19 130.1,-258628.38 296.1,-258628.38 296.1,-387909.19"/>
<text text-anchor="start" x="138.1" y="-387895.69" font-family="Helvetica,sans-Serif" font-size="10.00">libsqsh/include/sqsh</text>
<text text-anchor="middle" x="213.1" y="-258633.38" font-family="Helvetica,sans-Serif" font-size="10.00">_file_private.h</text>
</a>
</g>
</g>
<!-- Node1&#45;&gt;Node2 -->
<g id="edge1" class="edge">
<title>Node1&#45;&gt;Node2</title>
<path fill="none" stroke="#63b8ff" d="M286.07,-388006.51C286.05,-387986.32 286.01,-387953.84 285.96,-387909.43"/>
<polygon fill="#63b8ff" stroke="#63b8ff" points="282.57,-388006.49 286.08,-388016.48 289.57,-388006.48 282.57,-388006.49"/>
</g>
<!-- Node6 -->
<g id="node6" class="node">
<title>Node6</title>
<g id="a_node6"><a xlink:href="sqsh__metablock__private_8h.html" target="_top" xlink:title=" ">
<polygon fill="white" stroke="#666666" points="258.1,-387981.69 92.1,-387981.69 92.1,-387945.19 258.1,-387945.19 258.1,-387981.69"/>
<text text-anchor="start" x="100.1" y="-387968.19" font-family="Helvetica,sans-Serif" font-size="10.00">libsqsh/include/sqsh</text>
<text text-anchor="middle" x="175.1" y="-387950.19" font-family="Helvetica,sans-Serif" font-size="10.00">_metablock_private.h</text>
</a>
</g>
</g>
<!-- Node1&#45;&gt;Node6 -->
<g id="edge6" class="edge">
<title>Node1&#45;&gt;Node6</title>
<path fill="none" stroke="#63b8ff" d="M253.55,-388011.62C237.95,-388002.24 219.41,-387991.09 204.28,-387981.99"/>
<polygon fill="#63b8ff" stroke="#63b8ff" points="251.46,-388015.04 261.83,-388017.2 255.06,-388009.04 251.46,-388015.04"/>
</g>
<!-- Node8 -->
<g id="node8" class="node">
<title>Node8</title>
<g id="a_node8"><a xlink:href="sqsh__table__private_8h.html" target="_top" xlink:title=" ">
<polygon fill="white" stroke="#666666" points="480.1,-387977.94 314.1,-387977.94 314.1,-387948.94 480.1,-387948.94 480.1,-387977.94"/>
<text text-anchor="start" x="322.1" y="-387964.44" font-family="Helvetica,sans-Serif" font-size="10.00">libsqsh/include/sqsh</text>
<text text-anchor="middle" x="397.1" y="-387953.94" font-family="Helvetica,sans-Serif" font-size="10.00">_table_private.h</text>
</a>
</g>
</g>
<!-- Node1&#45;&gt;Node8 -->
<g id="edge11" class="edge">
<title>Node1&#45;&gt;Node8</title>
<path fill="none" stroke="#63b8ff" d="M318.75,-388011.55C336.44,-388000.92 357.88,-387988.02 373.86,-387978.41"/>
<polygon fill="#63b8ff" stroke="#63b8ff" points="317.14,-388009.04 310.37,-388017.2 320.74,-388015.04 317.14,-388009.04"/>
</g>
<!-- Node3 -->
<g id="node3" class="node">
<title>Node3</title>
<g id="a_node3"><a xlink:href="sqsh__archive__private_8h.html" target="_top" xlink:title=" ">
<polygon fill="white" stroke="#666666" points="443.1,-193909.38 277.1,-193909.38 277.1,-193880.3 443.1,-193880.3 443.1,-193909.38"/>
<text text-anchor="start" x="285.1" y="-193895.88" font-family="Helvetica,sans-Serif" font-size="10.00">libsqsh/include/sqsh</text>
<text text-anchor="middle" x="360.1" y="-193885.38" font-family="Helvetica,sans-Serif" font-size="10.00">_archive_private.h</text>
</a>
</g>
</g>
<!-- Node2&#45;&gt;Node3 -->
<g id="edge2" class="edge">
<title>Node2&#45;&gt;Node3</title>
<path fill="none" stroke="#63b8ff" d="M286.56,-258617.1C322.88,-226649.46 359.22,-194670.32 360.08,-193909.69"/>
<polygon fill="#63b8ff" stroke="#63b8ff" points="283.06,-258617.08 286.55,-258627.08 290.06,-258617.08 283.06,-258617.08"/>
</g>
<!-- Node4 -->
<g id="node4" class="node">
<title>Node4</title>
<g id="a_node4"><a xlink:href="sqsh__directory__private_8h.html" target="_top" xlink:title=" ">
<polygon fill="white" stroke="#666666" points="185.1,-258592.38 19.1,-258592.38 19.1,-129197.31 185.1,-129197.31 185.1,-258592.38"/>
<text text-anchor="start" x="27.1" y="-258578.88" font-family="Helvetica,sans-Serif" font-size="10.00">libsqsh/include/sqsh</text>
<text text-anchor="middle" x="102.1" y="-129202.31" font-family="Helvetica,sans-Serif" font-size="10.00">_directory_private.h</text>
</a>
</g>
</g>
<!-- Node2&#45;&gt;Node4 -->
<g id="edge3" class="edge">
<title>Node2&#45;&gt;Node4</title>
<path fill="none" stroke="#63b8ff" d="M157.63,-258617.25C157.62,-258609.01 157.62,-258600.77 157.61,-258592.53"/>
<polygon fill="#63b8ff" stroke="#63b8ff" points="154.13,-258617.08 157.64,-258627.08 161.13,-258617.08 154.13,-258617.08"/>
</g>
<!-- Node5 -->
<g id="node5" class="node">
<title>Node5</title>
<g id="a_node5"><a xlink:href="sqsh__tree__private_8h.html" target="_top" xlink:title=" ">
<polygon fill="white" stroke="#666666" points="240.1,-129161.31 74.1,-129161.31 74.1,0 240.1,0 240.1,-129161.31"/>
<text text-anchor="start" x="82.1" y="-129147.81" font-family="Helvetica,sans-Serif" font-size="10.00">libsqsh/include/sqsh</text>
<text text-anchor="middle" x="157.1" y="-28.94" font-family="Helvetica,sans-Serif" font-size="10.00">_tree_private.h</text>
</a>
</g>
</g>
<!-- Node2&#45;&gt;Node5 -->
<g id="edge5" class="edge">
<title>Node2&#45;&gt;Node5</title>
<path fill="none" stroke="#63b8ff" d="M214.45,-258617.35C213.31,-220875.75 208.56,-172339.21 194.1,-129197.31 194.1,-129185.37 194.09,-129173.42 194.09,-129161.48"/>
<polygon fill="#63b8ff" stroke="#63b8ff" points="210.95,-258617.14 214.45,-258627.14 217.95,-258617.14 210.95,-258617.14"/>
</g>
<!-- Node4&#45;&gt;Node5 -->
<g id="edge4" class="edge">
<title>Node4&#45;&gt;Node5</title>
<path fill="none" stroke="#63b8ff" d="M129.62,-129186.24C129.63,-129178.01 129.63,-129169.78 129.63,-129161.55"/>
<polygon fill="#63b8ff" stroke="#63b8ff" points="126.12,-129186.05 129.62,-129196.05 133.12,-129186.05 126.12,-129186.05"/>
</g>
<!-- Node6&#45;&gt;Node2 -->
<g id="edge8" class="edge">
<title>Node6&#45;&gt;Node2</title>
<path fill="none" stroke="#63b8ff" d="M175.12,-387934.17C175.12,-387927.23 175.13,-387919.04 175.13,-387909.59"/>
<polygon fill="#63b8ff" stroke="#63b8ff" points="171.62,-387933.96 175.11,-387943.96 178.62,-387933.96 171.62,-387933.96"/>
</g>
<!-- Node6&#45;&gt;Node4 -->
<g id="edge7" class="edge">
<title>Node6&#45;&gt;Node4</title>
<path fill="none" stroke="#63b8ff" d="M141.61,-387937.53C133.33,-387929.49 125.57,-387919.87 121.1,-387909.19 -38.11,-387528.66 -9.46,-314870.93 36.67,-258592.63"/>
<polygon fill="#63b8ff" stroke="#63b8ff" points="138.83,-387939.63 148.6,-387943.72 143.51,-387934.43 138.83,-387939.63"/>
</g>
<!-- Node7 -->
<g id="node7" class="node">
<title>Node7</title>
<g id="a_node7"><a xlink:href="sqsh__xattr__private_8h.html" target="_top" xlink:title=" ">
<polygon fill="white" stroke="#666666" points="480.1,-323295.26 314.1,-323295.26 314.1,-323242.31 480.1,-323242.31 480.1,-323295.26"/>
<text text-anchor="start" x="322.1" y="-323281.76" font-family="Helvetica,sans-Serif" font-size="10.00">libsqsh/include/sqsh</text>
<text text-anchor="middle" x="397.1" y="-323247.31" font-family="Helvetica,sans-Serif" font-size="10.00">_xattr_private.h</text>
</a>
</g>
</g>
<!-- Node6&#45;&gt;Node7 -->
<g id="edge9" class="edge">
<title>Node6&#45;&gt;Node7</title>
<path fill="none" stroke="#63b8ff" d="M268.24,-387940.35C282.79,-387932.82 296,-387922.72 305.1,-387909.19 552.58,-387540.95 400.72,-324751.76 397.16,-323295.51"/>
<polygon fill="#63b8ff" stroke="#63b8ff" points="267.06,-387937.51 259.51,-387944.94 270.04,-387943.84 267.06,-387937.51"/>
</g>
<!-- Node7&#45;&gt;Node3 -->
<g id="edge10" class="edge">
<title>Node7&#45;&gt;Node3</title>
<path fill="none" stroke="#63b8ff" d="M397.09,-323231.18C396.39,-320774.05 360.54,-195426.85 360.1,-193909.73"/>
<polygon fill="#63b8ff" stroke="#63b8ff" points="393.59,-323230.97 397.09,-323240.96 400.59,-323230.96 393.59,-323230.97"/>
</g>
<!-- Node8&#45;&gt;Node7 -->
<g id="edge12" class="edge">
<title>Node8&#45;&gt;Node7</title>
<path fill="none" stroke="#63b8ff" d="M397.1,-387937.87C397.1,-386526.12 397.1,-324740.08 397.1,-323295.52"/>
<polygon fill="#63b8ff" stroke="#63b8ff" points="393.6,-387937.75 397.1,-387947.75 400.6,-387937.75 393.6,-387937.75"/>
</g>
</g>
</svg>
