<?xml version="1.0" encoding="UTF-8" standalone="no"?>
<!DOCTYPE svg PUBLIC "-//W3C//DTD SVG 1.1//EN"
 "http://www.w3.org/Graphics/SVG/1.1/DTD/svg11.dtd">
<!-- Generated by graphviz version 9.0.0 (20230911.1827)
 -->
<!-- Title: include/sqsh_tree.h Pages: 1 -->
<svg width="2048pt" height="1543816pt"
 viewBox="0.00 0.00 2047.50 1543815.71" xmlns="http://www.w3.org/2000/svg" xmlns:xlink="http://www.w3.org/1999/xlink">
<g id="graph0" class="graph" transform="scale(1 1) rotate(0) translate(4 1543811.71)">
<title>include/sqsh_tree.h</title>
<!-- Node1 -->
<g id="Node000001" class="node">
<title>Node1</title>
<g id="a_Node000001"><a xlink:title=" ">
<polygon fill="#999999" stroke="#666666" points="1151.25,-1543807.71 992.75,-1543807.71 992.75,-1543789.21 1151.25,-1543789.21 1151.25,-1543807.71"/>
<text text-anchor="middle" x="1072" y="-1543794.21" font-family="Helvetica,sans-Serif" font-size="10.00">include/sqsh_tree.h</text>
</a>
</g>
</g>
<!-- Node2 -->
<g id="Node000002" class="node">
<title>Node2</title>
<g id="a_Node000002"><a xlink:href="sqsh_8h.html" target="_top" xlink:title=" ">
<polygon fill="white" stroke="#666666" points="1051.5,-1543736.05 930.5,-1543736.05 930.5,-1543717.55 1051.5,-1543717.55 1051.5,-1543736.05"/>
<text text-anchor="middle" x="991" y="-1543722.55" font-family="Helvetica,sans-Serif" font-size="10.00">include/sqsh.h</text>
</a>
</g>
</g>
<!-- Node1&#45;&gt;Node2 -->
<g id="edge1_Node000001_Node000002" class="edge">
<title>Node1&#45;&gt;Node2</title>
<g id="a_edge1_Node000001_Node000002"><a xlink:title=" ">
<path fill="none" stroke="#63b8ff" d="M1053.38,-1543781.45C1037.09,-1543767.44 1014.05,-1543747.62 1001.01,-1543736.41"/>
<polygon fill="#63b8ff" stroke="#63b8ff" points="1051.06,-1543784.06 1060.92,-1543787.93 1055.62,-1543778.76 1051.06,-1543784.06"/>
</a>
</g>
</g>
<!-- Node13 -->
<g id="Node000013" class="node">
<title>Node13</title>
<g id="a_Node000013"><a xlink:href="sqsh__tree__private_8h.html" target="_top" xlink:title=" ">
<polygon fill="white" stroke="#666666" points="1236,-1543753.21 1070,-1543753.21 1070,-1543700.39 1236,-1543700.39 1236,-1543753.21"/>
<text text-anchor="start" x="1078" y="-1543739.71" font-family="Helvetica,sans-Serif" font-size="10.00">libsqsh/include/sqsh</text>
<text text-anchor="middle" x="1153" y="-1543729.21" font-family="Helvetica,sans-Serif" font-size="10.00">_tree_private.h</text>
</a>
</g>
</g>
<!-- Node1&#45;&gt;Node13 -->
<g id="edge12_Node000001_Node000013" class="edge">
<title>Node1&#45;&gt;Node13</title>
<g id="a_edge12_Node000001_Node000013"><a xlink:title=" ">
<path fill="none" stroke="#63b8ff" d="M1090.64,-1543781.43C1100.25,-1543773.16 1112.21,-1543762.87 1123.08,-1543753.53"/>
<polygon fill="#63b8ff" stroke="#63b8ff" points="1088.38,-1543778.76 1083.08,-1543787.93 1092.94,-1543784.06 1088.38,-1543778.76"/>
</a>
</g>
</g>
<!-- Node3 -->
<g id="Node000003" class="node">
<title>Node3</title>
<g id="a_Node000003"><a xlink:href="custom__mapper_8c.html" target="_top" xlink:title=" ">
<polygon fill="white" stroke="#666666" points="196,-1543571.29 0,-1543571.29 0,-93.1 196,-93.1 196,-1543571.29"/>
<text text-anchor="middle" x="98" y="-1543557.79" font-family="Helvetica,sans-Serif" font-size="10.00">examples/custom_mapper.c</text>
</a>
</g>
</g>
<!-- Node2&#45;&gt;Node3 -->
<g id="edge2_Node000002_Node000003" class="edge">
<title>Node2&#45;&gt;Node3</title>
<g id="a_edge2_Node000002_Node000003"><a xlink:title=" ">
<path fill="none" stroke="#63b8ff" d="M918.79,-1543725.61C733.59,-1543724.38 252.91,-1543716.18 205,-1543664.39 205,-1543664.39 201.8,-1520561.74 196.5,-1482350.4"/>
<polygon fill="#63b8ff" stroke="#63b8ff" points="918.75,-1543729.11 928.77,-1543725.67 918.79,-1543722.11 918.75,-1543729.11"/>
</a>
</g>
</g>
<!-- Node4 -->
<g id="Node000004" class="node">
<title>Node4</title>
<g id="a_Node000004"><a xlink:href="list__dir_8c.html" target="_top" xlink:title=" ">
<polygon fill="white" stroke="#666666" points="372.25,-1543664.39 213.75,-1543664.39 213.75,0 372.25,0 372.25,-1543664.39"/>
<text text-anchor="middle" x="293" y="-1543650.89" font-family="Helvetica,sans-Serif" font-size="10.00">examples/list_dir.c</text>
</a>
</g>
</g>
<!-- Node2&#45;&gt;Node4 -->
<g id="edge3_Node000002_Node000004" class="edge">
<title>Node2&#45;&gt;Node4</title>
<g id="a_edge3_Node000002_Node000004"><a xlink:title=" ">
<path fill="none" stroke="#63b8ff" d="M919.07,-1543723.86C765.49,-1543718.99 416.52,-1543703.66 381,-1543664.39 381,-1543664.39 377.85,-1516065.38 372.75,-1471305.17"/>
<polygon fill="#63b8ff" stroke="#63b8ff" points="918.61,-1543727.35 928.71,-1543724.16 918.83,-1543720.35 918.61,-1543727.35"/>
</a>
</g>
</g>
<!-- Node5 -->
<g id="Node000005" class="node">
<title>Node5</title>
<g id="a_Node000005"><a xlink:href="list__dir__ll_8c.html" target="_top" xlink:title=" ">
<polygon fill="white" stroke="#666666" points="571.5,-771841.44 390.5,-771841.44 390.5,-771822.94 571.5,-771822.94 571.5,-771841.44"/>
<text text-anchor="middle" x="481" y="-771827.94" font-family="Helvetica,sans-Serif" font-size="10.00">examples/list_dir_ll.c</text>
</a>
</g>
</g>
<!-- Node2&#45;&gt;Node5 -->
<g id="edge4_Node000002_Node000005" class="edge">
<title>Node2&#45;&gt;Node5</title>
<g id="a_edge4_Node000002_Node000005"><a xlink:title=" ">
<path fill="none" stroke="#63b8ff" d="M918.77,-1543725.84C812.75,-1543724.19 622.89,-1543714.15 580,-1543664.39 580,-1543664.39 481.38,-774798.2 481,-771841.74"/>
<polygon fill="#63b8ff" stroke="#63b8ff" points="918.46,-1543729.34 928.5,-1543725.97 918.55,-1543722.34 918.46,-1543729.34"/>
</a>
</g>
</g>
<!-- Node6 -->
<g id="Node000006" class="node">
<title>Node6</title>
<g id="a_Node000006"><a xlink:href="list__xattrs_8c.html" target="_top" xlink:title=" ">
<polygon fill="white" stroke="#666666" points="770.5,-1543618.51 589.5,-1543618.51 589.5,-45.88 770.5,-45.88 770.5,-1543618.51"/>
<text text-anchor="middle" x="680" y="-1543605.01" font-family="Helvetica,sans-Serif" font-size="10.00">examples/list_xattrs.c</text>
</a>
</g>
</g>
<!-- Node2&#45;&gt;Node6 -->
<g id="edge5_Node000002_Node000006" class="edge">
<title>Node2&#45;&gt;Node6</title>
<g id="a_edge5_Node000002_Node000006"><a xlink:title=" ">
<path fill="none" stroke="#63b8ff" d="M922.64,-1543715.06C867.54,-1543704.85 796.45,-1543687.6 779,-1543664.39 779,-1543664.39 775.98,-1520135.6 771,-1481294.17"/>
<polygon fill="#63b8ff" stroke="#63b8ff" points="921.83,-1543718.47 932.29,-1543716.81 923.07,-1543711.59 921.83,-1543718.47"/>
</a>
</g>
</g>
<!-- Node7 -->
<g id="Node000007" class="node">
<title>Node7</title>
<g id="a_Node000007"><a xlink:href="list__xattrs__ll_8c.html" target="_top" xlink:title=" ">
<polygon fill="white" stroke="#666666" points="991.75,-771841.44 788.25,-771841.44 788.25,-771822.94 991.75,-771822.94 991.75,-771841.44"/>
<text text-anchor="middle" x="890" y="-771827.94" font-family="Helvetica,sans-Serif" font-size="10.00">examples/list_xattrs_ll.c</text>
</a>
</g>
</g>
<!-- Node2&#45;&gt;Node7 -->
<g id="edge6_Node000002_Node000007" class="edge">
<title>Node2&#45;&gt;Node7</title>
<g id="a_edge6_Node000002_Node000007"><a xlink:title=" ">
<path fill="none" stroke="#63b8ff" d="M991,-1543706.01C990.41,-1539224.21 890.39,-774784.09 890,-771841.71"/>
<polygon fill="#63b8ff" stroke="#63b8ff" points="987.5,-1543705.74 991,-1543715.74 994.5,-1543705.73 987.5,-1543705.74"/>
</a>
</g>
</g>
<!-- Node8 -->
<g id="Node000008" class="node">
<title>Node8</title>
<g id="a_Node000008"><a xlink:href="read__file_8c.html" target="_top" xlink:title=" ">
<polygon fill="white" stroke="#666666" points="1176,-771841.44 1010,-771841.44 1010,-771822.94 1176,-771822.94 1176,-771841.44"/>
<text text-anchor="middle" x="1093" y="-771827.94" font-family="Helvetica,sans-Serif" font-size="10.00">examples/read_file.c</text>
</a>
</g>
</g>
<!-- Node2&#45;&gt;Node8 -->
<g id="edge7_Node000002_Node000008" class="edge">
<title>Node2&#45;&gt;Node8</title>
<g id="a_edge7_Node000002_Node000008"><a xlink:title=" ">
<path fill="none" stroke="#63b8ff" d="M995.03,-1543706.16C997.28,-1543694.15 999.86,-1543678.45 1001,-1543664.39 1216.81,-1540998.29 1093.48,-774787.95 1093,-771841.71"/>
<polygon fill="#63b8ff" stroke="#63b8ff" points="991.66,-1543705.13 993.16,-1543715.62 998.53,-1543706.49 991.66,-1543705.13"/>
</a>
</g>
</g>
<!-- Node9 -->
<g id="Node000009" class="node">
<title>Node9</title>
<g id="a_Node000009"><a xlink:href="read__file__ll_8c.html" target="_top" xlink:title=" ">
<polygon fill="white" stroke="#666666" points="1382.25,-771841.44 1193.75,-771841.44 1193.75,-771822.94 1382.25,-771822.94 1382.25,-771841.44"/>
<text text-anchor="middle" x="1288" y="-771827.94" font-family="Helvetica,sans-Serif" font-size="10.00">examples/read_file_ll.c</text>
</a>
</g>
</g>
<!-- Node2&#45;&gt;Node9 -->
<g id="edge8_Node000002_Node000009" class="edge">
<title>Node2&#45;&gt;Node9</title>
<g id="a_edge8_Node000002_Node000009"><a xlink:title=" ">
<path fill="none" stroke="#63b8ff" d="M1024.4,-1543713.17C1035.94,-1543708.94 1048.98,-1543704.31 1061,-1543700.39 1115.56,-1543682.59 1150.54,-1543710.27 1185,-1543664.39 1185,-1543664.39 1287.6,-774798.2 1288,-771841.74"/>
<polygon fill="#63b8ff" stroke="#63b8ff" points="1023.47,-1543709.78 1015.3,-1543716.54 1025.9,-1543716.35 1023.47,-1543709.78"/>
</a>
</g>
</g>
<!-- Node10 -->
<g id="Node000010" class="node">
<title>Node10</title>
<g id="a_Node000010"><a xlink:href="readme__example_8c.html" target="_top" xlink:title=" ">
<polygon fill="white" stroke="#666666" points="1603.75,-771841.44 1400.25,-771841.44 1400.25,-771822.94 1603.75,-771822.94 1603.75,-771841.44"/>
<text text-anchor="middle" x="1502" y="-771827.94" font-family="Helvetica,sans-Serif" font-size="10.00">examples/readme_example.c</text>
</a>
</g>
</g>
<!-- Node2&#45;&gt;Node10 -->
<g id="edge9_Node000002_Node000010" class="edge">
<title>Node2&#45;&gt;Node10</title>
<g id="a_edge9_Node000002_Node000010"><a xlink:title=" ">
<path fill="none" stroke="#63b8ff" d="M1021.3,-1543713C1033.45,-1543708.35 1047.69,-1543703.48 1061,-1543700.39 1132.85,-1543683.68 1341.74,-1543719.3 1391,-1543664.39 1391,-1543664.39 1501.57,-774798.2 1502,-771841.74"/>
<polygon fill="#63b8ff" stroke="#63b8ff" points="1020.24,-1543709.66 1012.24,-1543716.6 1022.82,-1543716.16 1020.24,-1543709.66"/>
</a>
</g>
</g>
<!-- Node11 -->
<g id="Node000011" class="node">
<title>Node11</title>
<g id="a_Node000011"><a xlink:href="traverse__dir_8c.html" target="_top" xlink:title=" ">
<polygon fill="white" stroke="#666666" points="1810.25,-771853.35 1621.75,-771853.35 1621.75,-771811.03 1810.25,-771811.03 1810.25,-771853.35"/>
<text text-anchor="middle" x="1716" y="-771839.85" font-family="Helvetica,sans-Serif" font-size="10.00">examples/traverse_dir.c</text>
</a>
</g>
</g>
<!-- Node2&#45;&gt;Node11 -->
<g id="edge10_Node000002_Node000011" class="edge">
<title>Node2&#45;&gt;Node11</title>
<g id="a_edge10_Node000002_Node000011"><a xlink:title=" ">
<path fill="none" stroke="#63b8ff" d="M1020.71,-1543712.9C1032.96,-1543708.15 1047.44,-1543703.23 1061,-1543700.39 1121.16,-1543687.77 1570.97,-1543709.24 1613,-1543664.39 1613,-1543664.39 1715.39,-776395.99 1716,-771853.44"/>
<polygon fill="#63b8ff" stroke="#63b8ff" points="1019.54,-1543709.6 1011.58,-1543716.59 1022.17,-1543716.09 1019.54,-1543709.6"/>
</a>
</g>
</g>
<!-- Node12 -->
<g id="Node000012" class="node">
<title>Node12</title>
<g id="a_Node000012"><a xlink:href="traverse__dir__ll_8c.html" target="_top" xlink:title=" ">
<polygon fill="white" stroke="#666666" points="2039.5,-771845.19 1828.5,-771845.19 1828.5,-771819.19 2039.5,-771819.19 2039.5,-771845.19"/>
<text text-anchor="middle" x="1934" y="-771831.69" font-family="Helvetica,sans-Serif" font-size="10.00">examples/traverse_dir_ll.c</text>
</a>
</g>
</g>
<!-- Node2&#45;&gt;Node12 -->
<g id="edge11_Node000002_Node000012" class="edge">
<title>Node2&#45;&gt;Node12</title>
<g id="a_edge11_Node000002_Node000012"><a xlink:title=" ">
<path fill="none" stroke="#63b8ff" d="M1020.69,-1543712.78C1032.93,-1543708.01 1047.41,-1543703.11 1061,-1543700.39 1143.67,-1543683.81 1760.81,-1543725.4 1819,-1543664.39 1819,-1543664.39 1933.47,-775409.31 1934,-771845.63"/>
<polygon fill="#63b8ff" stroke="#63b8ff" points="1019.51,-1543709.48 1011.56,-1543716.49 1022.14,-1543715.97 1019.51,-1543709.48"/>
</a>
</g>
</g>
</g>
</svg>
