<?xml version="1.0" encoding="UTF-8" standalone="no"?>
<!DOCTYPE svg PUBLIC "-//W3C//DTD SVG 1.1//EN"
 "http://www.w3.org/Graphics/SVG/1.1/DTD/svg11.dtd">
<!-- Generated by graphviz version 9.0.0 (20230911.1827)
 -->
<!-- Title: include/sqsh_tree.h Pages: 1 -->
<svg width="280pt" height="1447376pt"
 viewBox="0.00 0.00 279.75 1447376.03" xmlns="http://www.w3.org/2000/svg" xmlns:xlink="http://www.w3.org/1999/xlink">
<g id="graph0" class="graph" transform="scale(1 1) rotate(0) translate(4 1447372.03)">
<title>include/sqsh_tree.h</title>
<!-- Node1 -->
<g id="Node000001" class="node">
<title>Node1</title>
<g id="a_Node000001"><a xlink:title=" ">
<polygon fill="#999999" stroke="#666666" points="219,-1447368.03 60.5,-1447368.03 60.5,-1447349.53 219,-1447349.53 219,-1447368.03"/>
<text text-anchor="middle" x="139.75" y="-1447354.53" font-family="Helvetica,sans-Serif" font-size="10.00">include/sqsh_tree.h</text>
</a>
</g>
</g>
<!-- Node2 -->
<g id="Node000002" class="node">
<title>Node2</title>
<g id="a_Node000002"><a xlink:href="sqsh__common_8h.html" target="_top" xlink:title=" ">
<polygon fill="white" stroke="#666666" points="196.5,-1447251.53 83,-1447251.53 83,-723643.62 196.5,-723643.62 196.5,-1447251.53"/>
<text text-anchor="middle" x="139.75" y="-1447238.03" font-family="Helvetica,sans-Serif" font-size="10.00">sqsh_common.h</text>
</a>
</g>
</g>
<!-- Node1&#45;&gt;Node2 -->
<g id="edge1_Node000001_Node000002" class="edge">
<title>Node1&#45;&gt;Node2</title>
<g id="a_edge1_Node000001_Node000002"><a xlink:title=" ">
<path fill="none" stroke="#63b8ff" d="M134.87,-1447349.31C130.19,-1447340.64 123.44,-1447326.63 120.75,-1447313.53 118.42,-1447302.21 120.75,-1447299.09 120.75,-1447287.53 120.75,-1447279.4 120.75,-1447271.27 120.75,-1447263.14"/>
<polygon fill="#63b8ff" stroke="#63b8ff" points="124.25,-1447263.16 120.75,-1447253.16 117.25,-1447263.16 124.25,-1447263.16"/>
</a>
</g>
</g>
<!-- Node6 -->
<g id="Node000006" class="node">
<title>Node6</title>
<g id="a_Node000006"><a xlink:href="sqsh__file_8h.html" target="_top" xlink:title=" ">
<polygon fill="white" stroke="#666666" points="228,-1447313.53 129.5,-1447313.53 129.5,-1447287.53 228,-1447287.53 228,-1447313.53"/>
<text text-anchor="middle" x="178.75" y="-1447300.03" font-family="Helvetica,sans-Serif" font-size="10.00">sqsh_file.h</text>
</a>
</g>
</g>
<!-- Node1&#45;&gt;Node6 -->
<g id="edge5_Node000001_Node000006" class="edge">
<title>Node1&#45;&gt;Node6</title>
<g id="a_edge5_Node000001_Node000006"><a xlink:title=" ">
<path fill="none" stroke="#63b8ff" d="M145.5,-1447349.48C150.3,-1447342.57 157.34,-1447332.41 163.72,-1447323.21"/>
<polygon fill="#63b8ff" stroke="#63b8ff" points="166.55,-1447325.28 169.37,-1447315.06 160.79,-1447321.29 166.55,-1447325.28"/>
</a>
</g>
</g>
<!-- Node3 -->
<g id="Node000003" class="node">
<title>Node3</title>
<g id="a_Node000003"><a xlink:title=" ">
<polygon fill="#e0e0e0" stroke="#999999" points="83.5,-723514.56 0,-723514.56 0,-93.06 83.5,-93.06 83.5,-723514.56"/>
<text text-anchor="middle" x="41.75" y="-723501.06" font-family="Helvetica,sans-Serif" font-size="10.00">stdbool.h</text>
</a>
</g>
</g>
<!-- Node2&#45;&gt;Node3 -->
<g id="edge2_Node000002_Node000003" class="edge">
<title>Node2&#45;&gt;Node3</title>
<g id="a_edge2_Node000002_Node000003"><a xlink:title=" ">
<path fill="none" stroke="#63b8ff" d="M90.75,-723643.29C88.5,-706979.86 86.24,-690316.38 84,-673794.21"/>
<polygon fill="#63b8ff" stroke="#63b8ff" points="87.5,-673794.38 84,-673784.38 80.5,-673794.38 87.5,-673794.38"/>
</a>
</g>
</g>
<!-- Node4 -->
<g id="Node000004" class="node">
<title>Node4</title>
<g id="a_Node000004"><a xlink:title=" ">
<polygon fill="#e0e0e0" stroke="#999999" points="177.75,-361813.06 101.75,-361813.06 101.75,-361794.56 177.75,-361794.56 177.75,-361813.06"/>
<text text-anchor="middle" x="139.75" y="-361799.56" font-family="Helvetica,sans-Serif" font-size="10.00">stddef.h</text>
</a>
</g>
</g>
<!-- Node2&#45;&gt;Node4 -->
<g id="edge3_Node000002_Node000004" class="edge">
<title>Node2&#45;&gt;Node4</title>
<g id="a_edge3_Node000002_Node000004"><a xlink:title=" ">
<path fill="none" stroke="#63b8ff" d="M139.75,-723643.29C139.75,-543818.68 139.75,-363988.27 139.75,-361824.54"/>
<polygon fill="#63b8ff" stroke="#63b8ff" points="143.25,-361824.86 139.75,-361814.86 136.25,-361824.86 143.25,-361824.86"/>
</a>
</g>
</g>
<!-- Node5 -->
<g id="Node000005" class="node">
<title>Node5</title>
<g id="a_Node000005"><a xlink:title=" ">
<polygon fill="#e0e0e0" stroke="#999999" points="271.75,-723607.62 195.75,-723607.62 195.75,0 271.75,0 271.75,-723607.62"/>
<text text-anchor="middle" x="233.75" y="-723594.12" font-family="Helvetica,sans-Serif" font-size="10.00">stdint.h</text>
</a>
</g>
</g>
<!-- Node2&#45;&gt;Node5 -->
<g id="edge4_Node000002_Node000005" class="edge">
<title>Node2&#45;&gt;Node5</title>
<g id="a_edge4_Node000002_Node000005"><a xlink:title=" ">
<path fill="none" stroke="#63b8ff" d="M186.75,-723643.29C189.6,-701722.05 192.44,-679800.73 195.25,-658201.17"/>
<polygon fill="#63b8ff" stroke="#63b8ff" points="198.75,-658201.32 195.25,-658191.32 191.75,-658201.32 198.75,-658201.32"/>
</a>
</g>
</g>
<!-- Node6&#45;&gt;Node2 -->
<g id="edge6_Node000006_Node000002" class="edge">
<title>Node6&#45;&gt;Node2</title>
<g id="a_edge6_Node000006_Node000002"><a xlink:title=" ">
<path fill="none" stroke="#63b8ff" d="M178.75,-1447287.33C178.75,-1447281.42 178.75,-1447273.38 178.75,-1447263.22"/>
<polygon fill="#63b8ff" stroke="#63b8ff" points="182.25,-1447263.37 178.75,-1447253.37 175.25,-1447263.37 182.25,-1447263.37"/>
</a>
</g>
</g>
</g>
</svg>
