<?xml version="1.0" encoding="UTF-8" standalone="no"?>
<!DOCTYPE svg PUBLIC "-//W3C//DTD SVG 1.1//EN"
 "http://www.w3.org/Graphics/SVG/1.1/DTD/svg11.dtd">
<!-- Generated by graphviz version 9.0.0 (20230911.1827)
 -->
<!-- Title: include/sqsh_archive.h Pages: 1 -->
<!--zoomable 1263793 -->

<svg id="main" version="1.1" xmlns="http://www.w3.org/2000/svg" xmlns:xlink="http://www.w3.org/1999/xlink" xml:space="preserve" onload="init(evt)">
<style type="text/css"><![CDATA[
.node, .edge {opacity: 0.7;}
.node.selected, .edge.selected {opacity: 1;}
.edge:hover path { stroke: red; }
.edge:hover polygon { stroke: red; fill: red; }
]]></style>

<defs>
  <circle id="rim" cx="0" cy="0" r="7"/>
  <circle id="rim2" cx="0" cy="0" r="3.5"/>
  <g id="zoomPlus">
    <use xlink:href="#rim" fill="#404040"><set attributeName="fill" to="#808080" begin="zoomplus.mouseover" end="zoomplus.mouseout"/></use>
    <path d="M-4,0h8M0,-4v8" fill="none" stroke="white" stroke-width="1.5" pointer-events="none"/>
  </g>
  <g id="zoomMin">
    <use xlink:href="#rim" fill="#404040"><set attributeName="fill" to="#808080" begin="zoomminus.mouseover" end="zoomminus.mouseout"/></use>
    <path d="M-4,0h8" fill="none" stroke="white" stroke-width="1.5" pointer-events="none"/>
  </g>
  <g id="arrowUp" transform="translate(30 24)">
    <use xlink:href="#rim"/>
    <path pointer-events="none" fill="none" stroke="white" stroke-width="1.5" d="M0,-3.0v7 M-2.5,-0.5L0,-3.0L2.5,-0.5"/>
  </g>
  <g id="arrowRight" transform="rotate(90) translate(36 -43)">
    <use xlink:href="#rim"/>
    <path pointer-events="none" fill="none" stroke="white" stroke-width="1.5" d="M0,-3.0v7 M-2.5,-0.5L0,-3.0L2.5,-0.5"/>
  </g>
  <g id="arrowDown" transform="rotate(180) translate(-30 -48)">
    <use xlink:href="#rim"/>
    <path pointer-events="none" fill="none" stroke="white" stroke-width="1.5" d="M0,-3.0v7 M-2.5,-0.5L0,-3.0L2.5,-0.5"/>
  </g>
  <g id="arrowLeft" transform="rotate(270) translate(-36 17)">
    <use xlink:href="#rim"/>
    <path pointer-events="none" fill="none" stroke="white" stroke-width="1.5" d="M0,-3.0v7 M-2.5,-0.5L0,-3.0L2.5,-0.5"/>
  </g>
  <g id="resetDef">
    <use xlink:href="#rim2" fill="#404040"><set attributeName="fill" to="#808080" begin="reset.mouseover" end="reset.mouseout"/></use>
  </g>
</defs>
<script type="application/ecmascript">
var viewWidth = 2048;
var viewHeight = 1263793;
var sectionId = 'dynsection-1';
</script>
<script type="application/ecmascript" xlink:href="svg.min.js"/>
<svg id="graph" class="graph">
<g id="viewport">
<title>include/sqsh_archive.h</title>
<!-- Node1 -->
<g id="Node000001" class="node">
<title>Node1</title>
<g id="a_Node000001"><a xlink:title=" ">
<polygon fill="#999999" stroke="#666666" points="1162.5,-1263784.86 981.5,-1263784.86 981.5,-1263766.36 1162.5,-1263766.36 1162.5,-1263784.86"/>
<text text-anchor="middle" x="1072" y="-1263771.36" font-family="Helvetica,sans-Serif" font-size="10.00">include/sqsh_archive.h</text>
</a>
</g>
</g>
<!-- Node2 -->
<g id="Node000002" class="node">
<title>Node2</title>
<g id="a_Node000002"><a xlink:href="sqsh_8h.html" target="_top" xlink:title=" ">
<polygon fill="white" stroke="#666666" points="1051.5,-1263713.12 930.5,-1263713.12 930.5,-1263694.62 1051.5,-1263694.62 1051.5,-1263713.12"/>
<text text-anchor="middle" x="991" y="-1263699.62" font-family="Helvetica,sans-Serif" font-size="10.00">include/sqsh.h</text>
</a>
</g>
</g>
<!-- Node1&#45;&gt;Node2 -->
<g id="edge1_Node000001_Node000002" class="edge">
<title>Node1&#45;&gt;Node2</title>
<g id="a_edge1_Node000001_Node000002"><a xlink:title=" ">
<path fill="none" stroke="#63b8ff" d="M1053.38,-1263758.58C1037.09,-1263744.55 1014.05,-1263724.72 1001.01,-1263713.49"/>
<polygon fill="#63b8ff" stroke="#63b8ff" points="1051.06,-1263761.19 1060.92,-1263765.07 1055.63,-1263755.89 1051.06,-1263761.19"/>
</a>
</g>
</g>
<!-- Node13 -->
<g id="Node000013" class="node">
<title>Node13</title>
<g id="a_Node000013"><a xlink:href="sqsh__archive__private_8h.html" target="_top" xlink:title=" ">
<polygon fill="white" stroke="#666666" points="1236,-1263730.36 1070,-1263730.36 1070,-1263677.39 1236,-1263677.39 1236,-1263730.36"/>
<text text-anchor="start" x="1078" y="-1263716.86" font-family="Helvetica,sans-Serif" font-size="10.00">libsqsh/include/sqsh</text>
<text text-anchor="middle" x="1153" y="-1263706.36" font-family="Helvetica,sans-Serif" font-size="10.00">_archive_private.h</text>
</a>
</g>
</g>
<!-- Node1&#45;&gt;Node13 -->
<g id="edge12_Node000001_Node000013" class="edge">
<title>Node1&#45;&gt;Node13</title>
<g id="a_edge12_Node000001_Node000013"><a xlink:title=" ">
<path fill="none" stroke="#63b8ff" d="M1090.64,-1263758.56C1100.25,-1263750.28 1112.21,-1263739.98 1123.08,-1263730.63"/>
<polygon fill="#63b8ff" stroke="#63b8ff" points="1088.37,-1263755.89 1083.08,-1263765.07 1092.94,-1263761.19 1088.37,-1263755.89"/>
</a>
</g>
</g>
<!-- Node3 -->
<g id="Node000003" class="node">
<title>Node3</title>
<g id="a_Node000003"><a xlink:href="custom__mapper_8c.html" target="_top" xlink:title=" ">
<polygon fill="white" stroke="#666666" points="196,-1263548.29 0,-1263548.29 0,-93.1 196,-93.1 196,-1263548.29"/>
<text text-anchor="middle" x="98" y="-1263534.79" font-family="Helvetica,sans-Serif" font-size="10.00">examples/custom_mapper.c</text>
</a>
</g>
</g>
<!-- Node2&#45;&gt;Node3 -->
<g id="edge2_Node000002_Node000003" class="edge">
<title>Node2&#45;&gt;Node3</title>
<g id="a_edge2_Node000002_Node000003"><a xlink:title=" ">
<path fill="none" stroke="#63b8ff" d="M918.79,-1263702.68C733.59,-1263701.43 252.91,-1263693.19 205,-1263641.39 202.12,-1263638.28 199.29,-1263597.55 196.49,-1263519.79"/>
<polygon fill="#63b8ff" stroke="#63b8ff" points="918.75,-1263706.18 928.77,-1263702.74 918.8,-1263699.18 918.75,-1263706.18"/>
</a>
</g>
</g>
<!-- Node4 -->
<g id="Node000004" class="node">
<title>Node4</title>
<g id="a_Node000004"><a xlink:href="list__dir_8c.html" target="_top" xlink:title=" ">
<polygon fill="white" stroke="#666666" points="372.25,-1263641.39 213.75,-1263641.39 213.75,0 372.25,0 372.25,-1263641.39"/>
<text text-anchor="middle" x="293" y="-1263627.89" font-family="Helvetica,sans-Serif" font-size="10.00">examples/list_dir.c</text>
</a>
</g>
</g>
<!-- Node2&#45;&gt;Node4 -->
<g id="edge3_Node000002_Node000004" class="edge">
<title>Node2&#45;&gt;Node4</title>
<g id="a_edge3_Node000002_Node000004"><a xlink:title=" ">
<path fill="none" stroke="#63b8ff" d="M919.07,-1263700.93C765.49,-1263696.03 416.52,-1263680.66 381,-1263641.39 381,-1263641.39 377.85,-1241048.89 372.75,-1204408.25"/>
<polygon fill="#63b8ff" stroke="#63b8ff" points="918.61,-1263704.41 928.71,-1263701.23 918.83,-1263697.42 918.61,-1263704.41"/>
</a>
</g>
</g>
<!-- Node5 -->
<g id="Node000005" class="node">
<title>Node5</title>
<g id="a_Node000005"><a xlink:href="list__dir__ll_8c.html" target="_top" xlink:title=" ">
<polygon fill="white" stroke="#666666" points="571.5,-631829.94 390.5,-631829.94 390.5,-631811.44 571.5,-631811.44 571.5,-631829.94"/>
<text text-anchor="middle" x="481" y="-631816.44" font-family="Helvetica,sans-Serif" font-size="10.00">examples/list_dir_ll.c</text>
</a>
</g>
</g>
<!-- Node2&#45;&gt;Node5 -->
<g id="edge4_Node000002_Node000005" class="edge">
<title>Node2&#45;&gt;Node5</title>
<g id="a_edge4_Node000002_Node000005"><a xlink:title=" ">
<path fill="none" stroke="#63b8ff" d="M918.77,-1263702.9C812.75,-1263701.23 622.88,-1263691.16 580,-1263641.39 222.75,-1263226.79 479.9,-634516.46 481,-631830.33"/>
<polygon fill="#63b8ff" stroke="#63b8ff" points="918.46,-1263706.4 928.5,-1263703.03 918.55,-1263699.4 918.46,-1263706.4"/>
</a>
</g>
</g>
<!-- Node6 -->
<g id="Node000006" class="node">
<title>Node6</title>
<g id="a_Node000006"><a xlink:href="list__xattrs_8c.html" target="_top" xlink:title=" ">
<polygon fill="white" stroke="#666666" points="770.5,-1263595.51 589.5,-1263595.51 589.5,-45.88 770.5,-45.88 770.5,-1263595.51"/>
<text text-anchor="middle" x="680" y="-1263582.01" font-family="Helvetica,sans-Serif" font-size="10.00">examples/list_xattrs.c</text>
</a>
</g>
</g>
<!-- Node2&#45;&gt;Node6 -->
<g id="edge5_Node000002_Node000006" class="edge">
<title>Node2&#45;&gt;Node6</title>
<g id="a_edge5_Node000002_Node000006"><a xlink:title=" ">
<path fill="none" stroke="#63b8ff" d="M922.64,-1263692.11C867.54,-1263681.88 796.44,-1263664.6 779,-1263641.39 776.3,-1263637.79 773.63,-1263591.67 771,-1263503.73"/>
<polygon fill="#63b8ff" stroke="#63b8ff" points="921.83,-1263695.52 932.29,-1263693.86 923.08,-1263688.63 921.83,-1263695.52"/>
</a>
</g>
</g>
<!-- Node7 -->
<g id="Node000007" class="node">
<title>Node7</title>
<g id="a_Node000007"><a xlink:href="list__xattrs__ll_8c.html" target="_top" xlink:title=" ">
<polygon fill="white" stroke="#666666" points="991.75,-631829.94 788.25,-631829.94 788.25,-631811.44 991.75,-631811.44 991.75,-631829.94"/>
<text text-anchor="middle" x="890" y="-631816.44" font-family="Helvetica,sans-Serif" font-size="10.00">examples/list_xattrs_ll.c</text>
</a>
</g>
</g>
<!-- Node2&#45;&gt;Node7 -->
<g id="edge6_Node000002_Node000007" class="edge">
<title>Node2&#45;&gt;Node7</title>
<g id="a_edge6_Node000002_Node000007"><a xlink:title=" ">
<path fill="none" stroke="#63b8ff" d="M991,-1263682.76C990.34,-1259597.77 890.43,-634503.98 890,-631830.29"/>
<polygon fill="#63b8ff" stroke="#63b8ff" points="987.5,-1263682.72 991,-1263692.72 994.5,-1263682.72 987.5,-1263682.72"/>
</a>
</g>
</g>
<!-- Node8 -->
<g id="Node000008" class="node">
<title>Node8</title>
<g id="a_Node000008"><a xlink:href="read__file_8c.html" target="_top" xlink:title=" ">
<polygon fill="white" stroke="#666666" points="1176,-631829.94 1010,-631829.94 1010,-631811.44 1176,-631811.44 1176,-631829.94"/>
<text text-anchor="middle" x="1093" y="-631816.44" font-family="Helvetica,sans-Serif" font-size="10.00">examples/read_file.c</text>
</a>
</g>
</g>
<!-- Node2&#45;&gt;Node8 -->
<g id="edge7_Node000002_Node000008" class="edge">
<title>Node2&#45;&gt;Node8</title>
<g id="a_edge7_Node000002_Node000008"><a xlink:title=" ">
<path fill="none" stroke="#63b8ff" d="M995.03,-1263683.21C997.28,-1263671.19 999.86,-1263655.47 1001,-1263641.39 1177.45,-1261459.38 1093.36,-634508.91 1093,-631830.3"/>
<polygon fill="#63b8ff" stroke="#63b8ff" points="991.66,-1263682.2 993.16,-1263692.68 998.53,-1263683.55 991.66,-1263682.2"/>
</a>
</g>
</g>
<!-- Node9 -->
<g id="Node000009" class="node">
<title>Node9</title>
<g id="a_Node000009"><a xlink:href="read__file__ll_8c.html" target="_top" xlink:title=" ">
<polygon fill="white" stroke="#666666" points="1382.25,-631829.94 1193.75,-631829.94 1193.75,-631811.44 1382.25,-631811.44 1382.25,-631829.94"/>
<text text-anchor="middle" x="1288" y="-631816.44" font-family="Helvetica,sans-Serif" font-size="10.00">examples/read_file_ll.c</text>
</a>
</g>
</g>
<!-- Node2&#45;&gt;Node9 -->
<g id="edge8_Node000002_Node000009" class="edge">
<title>Node2&#45;&gt;Node9</title>
<g id="a_edge8_Node000002_Node000009"><a xlink:title=" ">
<path fill="none" stroke="#63b8ff" d="M1024.13,-1263690.3C1035.73,-1263686.03 1048.89,-1263681.34 1061,-1263677.39 1115.55,-1263659.56 1150.54,-1263687.27 1185,-1263641.39 1513.68,-1263203.79 1288.96,-634516.37 1288,-631830.32"/>
<polygon fill="#63b8ff" stroke="#63b8ff" points="1023.14,-1263686.93 1014.98,-1263693.7 1025.58,-1263693.49 1023.14,-1263686.93"/>
</a>
</g>
</g>
<!-- Node10 -->
<g id="Node000010" class="node">
<title>Node10</title>
<g id="a_Node000010"><a xlink:href="readme__example_8c.html" target="_top" xlink:title=" ">
<polygon fill="white" stroke="#666666" points="1603.75,-631829.94 1400.25,-631829.94 1400.25,-631811.44 1603.75,-631811.44 1603.75,-631829.94"/>
<text text-anchor="middle" x="1502" y="-631816.44" font-family="Helvetica,sans-Serif" font-size="10.00">examples/readme_example.c</text>
</a>
</g>
</g>
<!-- Node2&#45;&gt;Node10 -->
<g id="edge9_Node000002_Node000010" class="edge">
<title>Node2&#45;&gt;Node10</title>
<g id="a_edge9_Node000002_Node000010"><a xlink:title=" ">
<path fill="none" stroke="#63b8ff" d="M1021.3,-1263690.03C1033.45,-1263685.37 1047.69,-1263680.49 1061,-1263677.39 1132.84,-1263660.65 1341.74,-1263696.3 1391,-1263641.39 1756.44,-1263233.99 1503.09,-634516.49 1502,-631830.33"/>
<polygon fill="#63b8ff" stroke="#63b8ff" points="1020.23,-1263686.69 1012.23,-1263693.64 1022.82,-1263693.2 1020.23,-1263686.69"/>
</a>
</g>
</g>
<!-- Node11 -->
<g id="Node000011" class="node">
<title>Node11</title>
<g id="a_Node000011"><a xlink:href="traverse__dir_8c.html" target="_top" xlink:title=" ">
<polygon fill="white" stroke="#666666" points="1810.25,-631841.93 1621.75,-631841.93 1621.75,-631799.46 1810.25,-631799.46 1810.25,-631841.93"/>
<text text-anchor="middle" x="1716" y="-631828.43" font-family="Helvetica,sans-Serif" font-size="10.00">examples/traverse_dir.c</text>
</a>
</g>
</g>
<!-- Node2&#45;&gt;Node11 -->
<g id="edge10_Node000002_Node000011" class="edge">
<title>Node2&#45;&gt;Node11</title>
<g id="a_edge10_Node000002_Node000011"><a xlink:title=" ">
<path fill="none" stroke="#63b8ff" d="M1020.71,-1263689.94C1032.96,-1263685.17 1047.43,-1263680.24 1061,-1263677.39 1121.15,-1263664.75 1570.97,-1263686.24 1613,-1263641.39 1986.78,-1263242.5 1717.79,-635977.03 1716.01,-631842.23"/>
<polygon fill="#63b8ff" stroke="#63b8ff" points="1019.53,-1263686.64 1011.58,-1263693.64 1022.16,-1263693.13 1019.53,-1263686.64"/>
</a>
</g>
</g>
<!-- Node12 -->
<g id="Node000012" class="node">
<title>Node12</title>
<g id="a_Node000012"><a xlink:href="traverse__dir__ll_8c.html" target="_top" xlink:title=" ">
<polygon fill="white" stroke="#666666" points="2039.5,-631833.69 1828.5,-631833.69 1828.5,-631807.69 2039.5,-631807.69 2039.5,-631833.69"/>
<text text-anchor="middle" x="1934" y="-631820.19" font-family="Helvetica,sans-Serif" font-size="10.00">examples/traverse_dir_ll.c</text>
</a>
</g>
</g>
<!-- Node2&#45;&gt;Node12 -->
<g id="edge11_Node000002_Node000012" class="edge">
<title>Node2&#45;&gt;Node12</title>
<g id="a_edge11_Node000002_Node000012"><a xlink:title=" ">
<path fill="none" stroke="#63b8ff" d="M1020.42,-1263689.92C1032.72,-1263685.1 1047.31,-1263680.14 1061,-1263677.39 1143.66,-1263660.78 1760.8,-1263702.4 1819,-1263641.39 2196.57,-1263245.53 1935.35,-635054.82 1934.01,-631834.12"/>
<polygon fill="#63b8ff" stroke="#63b8ff" points="1019.19,-1263686.64 1011.26,-1263693.67 1021.84,-1263693.12 1019.19,-1263686.64"/>
</a>
</g>
</g>
</g>
</svg>

<g id="navigator" transform="translate(0 0)" fill="#404254">
  <rect fill="#f2f5e9" fill-opacity="0.5" stroke="#606060" stroke-width=".5" x="0" y="0" width="60" height="60"/>
  <use id="zoomplus" xlink:href="#zoomPlus" x="17" y="9" onmousedown="handleZoom(evt,'in')"/>
  <use id="zoomminus" xlink:href="#zoomMin" x="42" y="9" onmousedown="handleZoom(evt,'out')"/>
  <use id="reset" xlink:href="#resetDef" x="30" y="36" onmousedown="handleReset()"/>
   <use id="arrowup" xlink:href="#arrowUp" x="0" y="0" onmousedown="handlePan(0,-1)"/>
  <use id="arrowright" xlink:href="#arrowRight" x="0" y="0" onmousedown="handlePan(1,0)"/>
  <use id="arrowdown" xlink:href="#arrowDown" x="0" y="0" onmousedown="handlePan(0,1)"/>
  <use id="arrowleft" xlink:href="#arrowLeft" x="0" y="0" onmousedown="handlePan(-1,0)"/>
</g>
<svg viewBox="0 0 15 15" width="100%" height="30px" preserveAspectRatio="xMaxYMin meet">
 <g id="arrow_out" transform="scale(0.3 0.3)">
  <a xlink:href="sqsh__archive_8h__dep__incl_org.svg" target="_base">
   <rect id="button" ry="5" rx="5" y="6" x="6" height="38" width="38"
        fill="#f2f5e9" fill-opacity="0.5" stroke="#606060" stroke-width="1.0"/>
   <path id="arrow"
     d="M 11.500037,31.436501 C 11.940474,20.09759 22.043105,11.32322 32.158766,21.979434 L 37.068811,17.246167 C 37.068811,17.246167 37.088388,32 37.088388,32 L 22.160133,31.978069 C 22.160133,31.978069 26.997745,27.140456 26.997745,27.140456 C 18.528582,18.264221 13.291696,25.230495 11.500037,31.436501 z"
     style="fill:#404040;"/>
  </a>
 </g>
</svg>

<style type='text/css'>
<![CDATA[
[data-mouse-over-selected='false'] { opacity: 0.7; }
[data-mouse-over-selected='true']  { opacity: 1.0; }
]]>
</style>
<script type="application/ecmascript"><![CDATA[
document.addEventListener('DOMContentLoaded', (event) => {
  highlightEdges();
  highlightAdjacentNodes();
});
]]></script>
</svg>
