<?xml version="1.0" encoding="UTF-8" standalone="no"?>
<!DOCTYPE svg PUBLIC "-//W3C//DTD SVG 1.1//EN"
 "http://www.w3.org/Graphics/SVG/1.1/DTD/svg11.dtd">
<!-- Generated by graphviz version 8.0.5 (20230430.1635)
 -->
<!-- Title: include/sqsh_data.h Pages: 1 -->
<!--zoomable 238 -->
<svg id="main" version="1.1" xmlns="http://www.w3.org/2000/svg" xmlns:xlink="http://www.w3.org/1999/xlink" xml:space="preserve" onload="init(evt)">
<style type="text/css"><![CDATA[
.edge:hover path { stroke: red; }
.edge:hover polygon { stroke: red; fill: red; }
]]></style>
<script type="text/javascript"><![CDATA[
var edges = document.getElementsByTagName('g');
if (edges && edges.length) {
  for (var i=0;i<edges.length;i++) {
    if (edges[i].id.substr(0,4)=='edge') {
      edges[i].setAttribute('class','edge');
    }
  }
}
]]></script>
        <defs>
                <circle id="rim" cx="0" cy="0" r="7"/>
                <circle id="rim2" cx="0" cy="0" r="3.5"/>
                <g id="zoomPlus">
                        <use xlink:href="#rim" fill="#404040">
                                <set attributeName="fill" to="#808080" begin="zoomplus.mouseover" end="zoomplus.mouseout"/>
                        </use>
                        <path d="M-4,0h8M0,-4v8" fill="none" stroke="white" stroke-width="1.5" pointer-events="none"/>
                </g>
                <g id="zoomMin">
                        <use xlink:href="#rim" fill="#404040">
                                <set attributeName="fill" to="#808080" begin="zoomminus.mouseover" end="zoomminus.mouseout"/>
                        </use>
                        <path d="M-4,0h8" fill="none" stroke="white" stroke-width="1.5" pointer-events="none"/>
                </g>
                <g id="dirArrow">
                        <path fill="none" stroke="white" stroke-width="1.5" d="M0,-3.0v7 M-2.5,-0.5L0,-3.0L2.5,-0.5"/>
                </g>
               <g id="resetDef">
                       <use xlink:href="#rim2" fill="#404040">
                               <set attributeName="fill" to="#808080" begin="reset.mouseover" end="reset.mouseout"/>
                       </use>
               </g>
        </defs>

<script type="text/javascript">
var viewWidth = 1582;
var viewHeight = 238;
var sectionId = 'dynsection-1';
</script>
<script xlink:href="svgpan.js"/>
<svg id="graph" class="graph">
<g id="viewport">
<title>include/sqsh_data.h</title>
<!-- Node1 -->
<g id="node1" class="node">
<title>Node1</title>
<g id="a_node1"><a xlink:title=" ">
<polygon fill="#999999" stroke="#666666" points="1094.5,-229.66 936,-229.66 936,-211.16 1094.5,-211.16 1094.5,-229.66"/>
<text text-anchor="middle" x="1015.25" y="-216.16" font-family="Helvetica,sans-Serif" font-size="10.00">include/sqsh_data.h</text>
</a>
</g>
</g>
<!-- Node2 -->
<g id="node2" class="node">
<title>Node2</title>
<g id="a_node2"><a xlink:href="sqsh__archive_8h.html" target="_top" xlink:title=" ">
<polygon fill="white" stroke="#666666" points="1201.75,-175.16 1020.75,-175.16 1020.75,-156.66 1201.75,-156.66 1201.75,-175.16"/>
<text text-anchor="middle" x="1111.25" y="-161.66" font-family="Helvetica,sans-Serif" font-size="10.00">include/sqsh_archive.h</text>
</a>
</g>
</g>
<!-- Node1&#45;&gt;Node2 -->
<g id="edge1" class="edge">
<title>Node1&#45;&gt;Node2</title>
<path fill="none" stroke="#63b8ff" d="M1040.64,-205.52C1058.01,-196.03 1080.5,-183.73 1095.37,-175.59"/>
<polygon fill="#63b8ff" stroke="#63b8ff" points="1039.2,-202.87 1032.1,-210.74 1042.56,-209.01 1039.2,-202.87"/>
</g>
<!-- Node12 -->
<g id="node12" class="node">
<title>Node12</title>
<g id="a_node12"><a xlink:href="sqsh__xattr_8h.html" target="_top" xlink:title=" ">
<polygon fill="white" stroke="#666666" points="1002.25,-175.16 836.25,-175.16 836.25,-156.66 1002.25,-156.66 1002.25,-175.16"/>
<text text-anchor="middle" x="919.25" y="-161.66" font-family="Helvetica,sans-Serif" font-size="10.00">include/sqsh_xattr.h</text>
</a>
</g>
</g>
<!-- Node1&#45;&gt;Node12 -->
<g id="edge11" class="edge">
<title>Node1&#45;&gt;Node12</title>
<path fill="none" stroke="#63b8ff" d="M989.86,-205.52C972.49,-196.03 950,-183.73 935.13,-175.59"/>
<polygon fill="#63b8ff" stroke="#63b8ff" points="987.94,-209.01 998.4,-210.74 991.3,-202.87 987.94,-209.01"/>
</g>
<!-- Node3 -->
<g id="node3" class="node">
<title>Node3</title>
<g id="a_node3"><a xlink:href="sqsh_8h.html" target="_top" xlink:title=" ">
<polygon fill="white" stroke="#666666" points="939.75,-120.66 818.75,-120.66 818.75,-78.33 939.75,-78.33 939.75,-120.66"/>
<text text-anchor="middle" x="879.25" y="-107.16" font-family="Helvetica,sans-Serif" font-size="10.00">include/sqsh.h</text>
</a>
</g>
</g>
<!-- Node2&#45;&gt;Node3 -->
<g id="edge2" class="edge">
<title>Node2&#45;&gt;Node3</title>
<path fill="none" stroke="#63b8ff" d="M1069.78,-153.4C1033.67,-143.37 980.84,-128.7 939.97,-117.35"/>
<polygon fill="#63b8ff" stroke="#63b8ff" points="1068.39,-156.92 1078.96,-156.22 1070.26,-150.18 1068.39,-156.92"/>
</g>
<!-- Node11 -->
<g id="node11" class="node">
<title>Node11</title>
<g id="a_node11"><a xlink:href="sqsh__archive__private_8h.html" target="_top" xlink:title=" ">
<polygon fill="white" stroke="#666666" points="1574.25,-35.67 1408.25,-35.67 1408.25,-6.67 1574.25,-6.67 1574.25,-35.67"/>
<text text-anchor="start" x="1416.25" y="-22.17" font-family="Helvetica,sans-Serif" font-size="10.00">libsqsh/include/sqsh</text>
<text text-anchor="middle" x="1491.25" y="-11.67" font-family="Helvetica,sans-Serif" font-size="10.00">_archive_private.h</text>
</a>
</g>
</g>
<!-- Node2&#45;&gt;Node11 -->
<g id="edge10" class="edge">
<title>Node2&#45;&gt;Node11</title>
<path fill="none" stroke="#63b8ff" d="M1175.32,-154.26C1212.97,-146.98 1261.1,-135.87 1302.25,-120.66 1365.59,-97.25 1434.67,-57.16 1469.12,-36.07"/>
<polygon fill="#63b8ff" stroke="#63b8ff" points="1175.17,-150.92 1166,-156.22 1176.47,-157.8 1175.17,-150.92"/>
</g>
<!-- Node4 -->
<g id="node4" class="node">
<title>Node4</title>
<g id="a_node4"><a xlink:href="list__dir_8c.html" target="_top" xlink:title=" ">
<polygon fill="white" stroke="#666666" points="158.5,-34.17 0,-34.17 0,-8.17 158.5,-8.17 158.5,-34.17"/>
<text text-anchor="middle" x="79.25" y="-20.67" font-family="Helvetica,sans-Serif" font-size="10.00">examples/list_dir.c</text>
</a>
</g>
</g>
<!-- Node3&#45;&gt;Node4 -->
<g id="edge3" class="edge">
<title>Node3&#45;&gt;Node4</title>
<path fill="none" stroke="#63b8ff" d="M807.54,-96.31C678.7,-91.62 399.78,-77.95 167.25,-42.33 154.39,-40.36 140.62,-37.55 127.88,-34.65"/>
<polygon fill="#63b8ff" stroke="#63b8ff" points="807.3,-99.84 817.42,-96.7 807.55,-92.85 807.3,-99.84"/>
</g>
<!-- Node5 -->
<g id="node5" class="node">
<title>Node5</title>
<g id="a_node5"><a xlink:href="list__dir__ll_8c.html" target="_top" xlink:title=" ">
<polygon fill="white" stroke="#666666" points="357.75,-30.42 176.75,-30.42 176.75,-11.92 357.75,-11.92 357.75,-30.42"/>
<text text-anchor="middle" x="267.25" y="-16.92" font-family="Helvetica,sans-Serif" font-size="10.00">examples/list_dir_ll.c</text>
</a>
</g>
</g>
<!-- Node3&#45;&gt;Node5 -->
<g id="edge4" class="edge">
<title>Node3&#45;&gt;Node5</title>
<path fill="none" stroke="#63b8ff" d="M807.79,-92.76C708.42,-84.31 523.03,-66.83 366.25,-42.33 346.15,-39.19 323.94,-34.75 305.65,-30.84"/>
<polygon fill="#63b8ff" stroke="#63b8ff" points="807.34,-96.32 817.6,-93.67 807.93,-89.34 807.34,-96.32"/>
</g>
<!-- Node6 -->
<g id="node6" class="node">
<title>Node6</title>
<g id="a_node6"><a xlink:href="list__xattrs_8c.html" target="_top" xlink:title=" ">
<polygon fill="white" stroke="#666666" points="556.75,-30.42 375.75,-30.42 375.75,-11.92 556.75,-11.92 556.75,-30.42"/>
<text text-anchor="middle" x="466.25" y="-16.92" font-family="Helvetica,sans-Serif" font-size="10.00">examples/list_xattrs.c</text>
</a>
</g>
</g>
<!-- Node3&#45;&gt;Node6 -->
<g id="edge5" class="edge">
<title>Node3&#45;&gt;Node6</title>
<path fill="none" stroke="#63b8ff" d="M807.66,-86.19C743.96,-75.13 648.29,-58.21 565.25,-42.33 546.3,-38.71 525.36,-34.47 507.63,-30.82"/>
<polygon fill="#63b8ff" stroke="#63b8ff" points="806.94,-89.79 817.39,-88.05 808.13,-82.9 806.94,-89.79"/>
</g>
<!-- Node7 -->
<g id="node7" class="node">
<title>Node7</title>
<g id="a_node7"><a xlink:href="list__xattrs__ll_8c.html" target="_top" xlink:title=" ">
<polygon fill="white" stroke="#666666" points="778,-30.42 574.5,-30.42 574.5,-11.92 778,-11.92 778,-30.42"/>
<text text-anchor="middle" x="676.25" y="-16.92" font-family="Helvetica,sans-Serif" font-size="10.00">examples/list_xattrs_ll.c</text>
</a>
</g>
</g>
<!-- Node3&#45;&gt;Node7 -->
<g id="edge6" class="edge">
<title>Node3&#45;&gt;Node7</title>
<path fill="none" stroke="#63b8ff" d="M814.02,-73.97C774.8,-59.22 727.26,-41.34 699.52,-30.91"/>
<polygon fill="#63b8ff" stroke="#63b8ff" points="812.72,-77.6 823.32,-77.84 815.19,-71.04 812.72,-77.6"/>
</g>
<!-- Node8 -->
<g id="node8" class="node">
<title>Node8</title>
<g id="a_node8"><a xlink:href="read__file_8c.html" target="_top" xlink:title=" ">
<polygon fill="white" stroke="#666666" points="962.25,-42.33 796.25,-42.33 796.25,0 962.25,0 962.25,-42.33"/>
<text text-anchor="middle" x="879.25" y="-28.83" font-family="Helvetica,sans-Serif" font-size="10.00">examples/read_file.c</text>
</a>
</g>
</g>
<!-- Node3&#45;&gt;Node8 -->
<g id="edge7" class="edge">
<title>Node3&#45;&gt;Node8</title>
<path fill="none" stroke="#63b8ff" d="M879.25,-67.19C879.25,-58.92 879.25,-50.21 879.25,-42.68"/>
<polygon fill="#63b8ff" stroke="#63b8ff" points="875.75,-67.04 879.25,-77.04 882.75,-67.04 875.75,-67.04"/>
</g>
<!-- Node9 -->
<g id="node9" class="node">
<title>Node9</title>
<g id="a_node9"><a xlink:href="read__file__ll_8c.html" target="_top" xlink:title=" ">
<polygon fill="white" stroke="#666666" points="1168.5,-34.17 980,-34.17 980,-8.17 1168.5,-8.17 1168.5,-34.17"/>
<text text-anchor="middle" x="1074.25" y="-20.67" font-family="Helvetica,sans-Serif" font-size="10.00">examples/read_file_ll.c</text>
</a>
</g>
</g>
<!-- Node3&#45;&gt;Node9 -->
<g id="edge8" class="edge">
<title>Node3&#45;&gt;Node9</title>
<path fill="none" stroke="#63b8ff" d="M942.19,-73.86C975.68,-60.75 1015.42,-45.19 1042.49,-34.6"/>
<polygon fill="#63b8ff" stroke="#63b8ff" points="941.06,-70.93 933.02,-77.84 943.61,-77.45 941.06,-70.93"/>
</g>
<!-- Node10 -->
<g id="node10" class="node">
<title>Node10</title>
<g id="a_node10"><a xlink:href="readme__example_8c.html" target="_top" xlink:title=" ">
<polygon fill="white" stroke="#666666" points="1390,-30.42 1186.5,-30.42 1186.5,-11.92 1390,-11.92 1390,-30.42"/>
<text text-anchor="middle" x="1288.25" y="-16.92" font-family="Helvetica,sans-Serif" font-size="10.00">examples/readme_example.c</text>
</a>
</g>
</g>
<!-- Node3&#45;&gt;Node10 -->
<g id="edge9" class="edge">
<title>Node3&#45;&gt;Node10</title>
<path fill="none" stroke="#63b8ff" d="M950.72,-85.16C1034.31,-69.56 1170.28,-44.18 1241.45,-30.9"/>
<polygon fill="#63b8ff" stroke="#63b8ff" points="950.23,-81.87 941.04,-87.15 951.51,-88.76 950.23,-81.87"/>
</g>
<!-- Node12&#45;&gt;Node3 -->
<g id="edge12" class="edge">
<title>Node12&#45;&gt;Node3</title>
<path fill="none" stroke="#63b8ff" d="M908.12,-146.99C903.1,-138.91 897.14,-129.31 891.95,-120.94"/>
<polygon fill="#63b8ff" stroke="#63b8ff" points="905.61,-148.57 913.86,-155.22 911.55,-144.88 905.61,-148.57"/>
</g>
<!-- Node13 -->
<g id="node13" class="node">
<title>Node13</title>
<g id="a_node13"><a xlink:href="sqsh__xattr__private_8h.html" target="_top" xlink:title=" ">
<polygon fill="white" stroke="#666666" points="1293.25,-114 1127.25,-114 1127.25,-85 1293.25,-85 1293.25,-114"/>
<text text-anchor="start" x="1135.25" y="-100.5" font-family="Helvetica,sans-Serif" font-size="10.00">libsqsh/include/sqsh</text>
<text text-anchor="middle" x="1210.25" y="-90" font-family="Helvetica,sans-Serif" font-size="10.00">_xattr_private.h</text>
</a>
</g>
</g>
<!-- Node12&#45;&gt;Node13 -->
<g id="edge13" class="edge">
<title>Node12&#45;&gt;Node13</title>
<path fill="none" stroke="#63b8ff" d="M969.2,-153.85C1018.43,-142.96 1093.83,-126.27 1147.17,-114.46"/>
<polygon fill="#63b8ff" stroke="#63b8ff" points="968.5,-150.64 959.5,-156.22 970.02,-157.48 968.5,-150.64"/>
</g>
<!-- Node13&#45;&gt;Node11 -->
<g id="edge14" class="edge">
<title>Node13&#45;&gt;Node11</title>
<path fill="none" stroke="#63b8ff" d="M1271.89,-81.75C1322.24,-68.07 1392.58,-48.97 1439.91,-36.11"/>
<polygon fill="#63b8ff" stroke="#63b8ff" points="1271.2,-78.58 1262.46,-84.58 1273.03,-85.34 1271.2,-78.58"/>
</g>
</g>
</svg>
        <g id="navigator" transform="translate(0 0)" fill="#404254">
                <rect fill="#f2f5e9" fill-opacity="0.5" stroke="#606060" stroke-width=".5" x="0" y="0" width="60" height="60"/>
                <use id="zoomplus" xlink:href="#zoomPlus" x="17" y="9" onmousedown="handleZoom(evt,'in')"/>
                <use id="zoomminus" xlink:href="#zoomMin" x="42" y="9" onmousedown="handleZoom(evt,'out')"/>
                <use id="reset" xlink:href="#resetDef" x="30" y="36" onmousedown="handleReset()"/>
                <g id="arrowUp" xlink:href="#dirArrow" transform="translate(30 24)" onmousedown="handlePan(0,-1)">
                  <use xlink:href="#rim" fill="#404040">
                        <set attributeName="fill" to="#808080" begin="arrowUp.mouseover" end="arrowUp.mouseout"/>
                  </use>
                  <path fill="none" stroke="white" stroke-width="1.5" d="M0,-3.0v7 M-2.5,-0.5L0,-3.0L2.5,-0.5"/>
                </g>
                <g id="arrowRight" xlink:href="#dirArrow" transform="rotate(90) translate(36 -43)" onmousedown="handlePan(1,0)">
                  <use xlink:href="#rim" fill="#404040">
                        <set attributeName="fill" to="#808080" begin="arrowRight.mouseover" end="arrowRight.mouseout"/>
                  </use>
                  <path fill="none" stroke="white" stroke-width="1.5" d="M0,-3.0v7 M-2.5,-0.5L0,-3.0L2.5,-0.5"/>
                </g>
                <g id="arrowDown" xlink:href="#dirArrow" transform="rotate(180) translate(-30 -48)" onmousedown="handlePan(0,1)">
                  <use xlink:href="#rim" fill="#404040">
                        <set attributeName="fill" to="#808080" begin="arrowDown.mouseover" end="arrowDown.mouseout"/>
                  </use>
                  <path fill="none" stroke="white" stroke-width="1.5" d="M0,-3.0v7 M-2.5,-0.5L0,-3.0L2.5,-0.5"/>
                </g>
                <g id="arrowLeft" xlink:href="#dirArrow" transform="rotate(270) translate(-36 17)" onmousedown="handlePan(-1,0)">
                  <use xlink:href="#rim" fill="#404040">
                        <set attributeName="fill" to="#808080" begin="arrowLeft.mouseover" end="arrowLeft.mouseout"/>
                  </use>
                  <path fill="none" stroke="white" stroke-width="1.5" d="M0,-3.0v7 M-2.5,-0.5L0,-3.0L2.5,-0.5"/>
                </g>
        </g>
        <svg viewBox="0 0 15 15" width="100%" height="30px" preserveAspectRatio="xMaxYMin meet">
         <g id="arrow_out" transform="scale(0.3 0.3)">
          <a xlink:href="sqsh__data_8h__dep__incl_org.svg" target="_base">
           <rect id="button" ry="5" rx="5" y="6" x="6" height="38" width="38"
                fill="#f2f5e9" fill-opacity="0.5" stroke="#606060" stroke-width="1.0"/>
           <path id="arrow"
             d="M 11.500037,31.436501 C 11.940474,20.09759 22.043105,11.32322 32.158766,21.979434 L 37.068811,17.246167 C 37.068811,17.246167 37.088388,32 37.088388,32 L 22.160133,31.978069 C 22.160133,31.978069 26.997745,27.140456 26.997745,27.140456 C 18.528582,18.264221 13.291696,25.230495 11.500037,31.436501 z"
             style="fill:#404040;"/>
          </a>
         </g>
        </svg>
</svg>
