<?xml version="1.0" encoding="UTF-8" standalone="no"?>
<!DOCTYPE svg PUBLIC "-//W3C//DTD SVG 1.1//EN"
 "http://www.w3.org/Graphics/SVG/1.1/DTD/svg11.dtd">
<!-- Generated by graphviz version 8.0.5 (20230430.1635)
 -->
<!-- Title: include/sqsh_posix.h Pages: 1 -->
<svg width="1398pt" height="759543pt"
 viewBox="0.00 0.00 1398.00 759543.10" xmlns="http://www.w3.org/2000/svg" xmlns:xlink="http://www.w3.org/1999/xlink">
<g id="graph0" class="graph" transform="scale(1 1) rotate(0) translate(4 759539.1)">
<title>include/sqsh_posix.h</title>
<!-- Node1 -->
<g id="node1" class="node">
<title>Node1</title>
<g id="a_node1"><a xlink:title=" ">
<polygon fill="#999999" stroke="#666666" points="759.25,-759535.1 593.25,-759535.1 593.25,-759516.6 759.25,-759516.6 759.25,-759535.1"/>
<text text-anchor="middle" x="676.25" y="-759521.6" font-family="Helvetica,sans-Serif" font-size="10.00">include/sqsh_posix.h</text>
</a>
</g>
</g>
<!-- Node2 -->
<g id="node2" class="node">
<title>Node2</title>
<g id="a_node2"><a xlink:href="sqsh_8h.html" target="_top" xlink:title=" ">
<polygon fill="white" stroke="#666666" points="736.75,-759480.6 615.75,-759480.6 615.75,-759462.1 736.75,-759462.1 736.75,-759480.6"/>
<text text-anchor="middle" x="676.25" y="-759467.1" font-family="Helvetica,sans-Serif" font-size="10.00">include/sqsh.h</text>
</a>
</g>
</g>
<!-- Node1&#45;&gt;Node2 -->
<g id="edge1" class="edge">
<title>Node1&#45;&gt;Node2</title>
<path fill="none" stroke="#63b8ff" d="M676.25,-759505.32C676.25,-759496.89 676.25,-759487.47 676.25,-759480.86"/>
<polygon fill="#63b8ff" stroke="#63b8ff" points="672.75,-759505.18 676.25,-759515.18 679.75,-759505.18 672.75,-759505.18"/>
</g>
<!-- Node3 -->
<g id="node3" class="node">
<title>Node3</title>
<g id="a_node3"><a xlink:href="list__dir_8c.html" target="_top" xlink:title=" ">
<polygon fill="white" stroke="#666666" points="158.5,-379722.3 0,-379722.3 0,-379703.8 158.5,-379703.8 158.5,-379722.3"/>
<text text-anchor="middle" x="79.25" y="-379708.8" font-family="Helvetica,sans-Serif" font-size="10.00">examples/list_dir.c</text>
</a>
</g>
</g>
<!-- Node2&#45;&gt;Node3 -->
<g id="edge2" class="edge">
<title>Node2&#45;&gt;Node3</title>
<path fill="none" stroke="#63b8ff" d="M604.35,-759469.36C471,-759466.78 196.19,-759457.66 167.25,-759426.1 -54.92,-759183.84 78.51,-381795.68 79.25,-379722.62"/>
<polygon fill="#63b8ff" stroke="#63b8ff" points="604.19,-759472.88 614.25,-759469.57 604.32,-759465.88 604.19,-759472.88"/>
</g>
<!-- Node4 -->
<g id="node4" class="node">
<title>Node4</title>
<g id="a_node4"><a xlink:href="list__dir__ll_8c.html" target="_top" xlink:title=" ">
<polygon fill="white" stroke="#666666" points="357.75,-759425.47 176.75,-759425.47 176.75,-0.63 357.75,-0.63 357.75,-759425.47"/>
<text text-anchor="middle" x="267.25" y="-759411.97" font-family="Helvetica,sans-Serif" font-size="10.00">examples/list_dir_ll.c</text>
</a>
</g>
</g>
<!-- Node2&#45;&gt;Node4 -->
<g id="edge3" class="edge">
<title>Node2&#45;&gt;Node4</title>
<path fill="none" stroke="#63b8ff" d="M604.27,-759470.53C522.5,-759469.01 396.44,-759460.89 366.25,-759426.1 363.53,-759422.97 360.86,-759359.74 358.25,-759237.93"/>
<polygon fill="#63b8ff" stroke="#63b8ff" points="604.2,-759474.04 614.26,-759470.7 604.31,-759467.04 604.2,-759474.04"/>
</g>
<!-- Node5 -->
<g id="node5" class="node">
<title>Node5</title>
<g id="a_node5"><a xlink:href="list__xattrs_8c.html" target="_top" xlink:title=" ">
<polygon fill="white" stroke="#666666" points="556.75,-759426.1 375.75,-759426.1 375.75,0 556.75,0 556.75,-759426.1"/>
<text text-anchor="middle" x="466.25" y="-759412.6" font-family="Helvetica,sans-Serif" font-size="10.00">examples/list_xattrs.c</text>
</a>
</g>
</g>
<!-- Node2&#45;&gt;Node5 -->
<g id="edge4" class="edge">
<title>Node2&#45;&gt;Node5</title>
<path fill="none" stroke="#63b8ff" d="M610.14,-759458.22C592.66,-759451.67 575.76,-759441.6 565.25,-759426.1 562.55,-759422.11 559.88,-759397.9 557.24,-759353.75"/>
<polygon fill="#63b8ff" stroke="#63b8ff" points="608.86,-759461.82 619.46,-759461.68 611.09,-759455.18 608.86,-759461.82"/>
</g>
<!-- Node6 -->
<g id="node6" class="node">
<title>Node6</title>
<g id="a_node6"><a xlink:href="list__xattrs__ll_8c.html" target="_top" xlink:title=" ">
<polygon fill="white" stroke="#666666" points="778,-379722.3 574.5,-379722.3 574.5,-379703.8 778,-379703.8 778,-379722.3"/>
<text text-anchor="middle" x="676.25" y="-379708.8" font-family="Helvetica,sans-Serif" font-size="10.00">examples/list_xattrs_ll.c</text>
</a>
</g>
</g>
<!-- Node2&#45;&gt;Node6 -->
<g id="edge5" class="edge">
<title>Node2&#45;&gt;Node6</title>
<path fill="none" stroke="#63b8ff" d="M676.25,-759450.85C676.25,-756339.03 676.25,-381782.94 676.25,-379722.58"/>
<polygon fill="#63b8ff" stroke="#63b8ff" points="672.75,-759450.77 676.25,-759460.77 679.75,-759450.77 672.75,-759450.77"/>
</g>
<!-- Node7 -->
<g id="node7" class="node">
<title>Node7</title>
<g id="a_node7"><a xlink:href="read__file_8c.html" target="_top" xlink:title=" ">
<polygon fill="white" stroke="#666666" points="962.25,-379722.3 796.25,-379722.3 796.25,-379703.8 962.25,-379703.8 962.25,-379722.3"/>
<text text-anchor="middle" x="879.25" y="-379708.8" font-family="Helvetica,sans-Serif" font-size="10.00">examples/read_file.c</text>
</a>
</g>
</g>
<!-- Node2&#45;&gt;Node7 -->
<g id="edge6" class="edge">
<title>Node2&#45;&gt;Node7</title>
<path fill="none" stroke="#63b8ff" d="M742.36,-759458.22C759.84,-759451.67 776.74,-759441.6 787.25,-759426.1 971.72,-759154.04 879.76,-381795.51 879.25,-379722.62"/>
<polygon fill="#63b8ff" stroke="#63b8ff" points="741.41,-759455.18 733.04,-759461.68 743.64,-759461.82 741.41,-759455.18"/>
</g>
<!-- Node8 -->
<g id="node8" class="node">
<title>Node8</title>
<g id="a_node8"><a xlink:href="read__file__ll_8c.html" target="_top" xlink:title=" ">
<polygon fill="white" stroke="#666666" points="1168.5,-379734.3 980,-379734.3 980,-379691.81 1168.5,-379691.81 1168.5,-379734.3"/>
<text text-anchor="middle" x="1074.25" y="-379720.8" font-family="Helvetica,sans-Serif" font-size="10.00">examples/read_file_ll.c</text>
</a>
</g>
</g>
<!-- Node2&#45;&gt;Node8 -->
<g id="edge7" class="edge">
<title>Node2&#45;&gt;Node8</title>
<path fill="none" stroke="#63b8ff" d="M747.66,-759469.92C825.56,-759467.75 942.96,-759458.94 971.25,-759426.1 1185.45,-759177.44 1075.2,-382949.6 1074.26,-379734.77"/>
<polygon fill="#63b8ff" stroke="#63b8ff" points="747.86,-759466.44 737.95,-759470.18 748.03,-759473.44 747.86,-759466.44"/>
</g>
<!-- Node9 -->
<g id="node9" class="node">
<title>Node9</title>
<g id="a_node9"><a xlink:href="readme__example_8c.html" target="_top" xlink:title=" ">
<polygon fill="white" stroke="#666666" points="1390,-379726.05 1186.5,-379726.05 1186.5,-379700.05 1390,-379700.05 1390,-379726.05"/>
<text text-anchor="middle" x="1288.25" y="-379712.55" font-family="Helvetica,sans-Serif" font-size="10.00">examples/readme_example.c</text>
</a>
</g>
</g>
<!-- Node2&#45;&gt;Node9 -->
<g id="edge8" class="edge">
<title>Node2&#45;&gt;Node9</title>
<path fill="none" stroke="#63b8ff" d="M747.52,-759469.27C878.97,-759466.53 1148.82,-759457.14 1177.25,-759426.1 1399.13,-759183.83 1288.98,-382211.31 1288.25,-379726.39"/>
<polygon fill="#63b8ff" stroke="#63b8ff" points="747.7,-759465.78 737.77,-759469.48 747.84,-759472.78 747.7,-759465.78"/>
</g>
</g>
</svg>
