<?xml version="1.0" encoding="UTF-8" standalone="no"?>
<!DOCTYPE svg PUBLIC "-//W3C//DTD SVG 1.1//EN"
 "http://www.w3.org/Graphics/SVG/1.1/DTD/svg11.dtd">
<!-- Generated by graphviz version 8.0.5 (20230430.1635)
 -->
<!-- Title: include/sqsh_common.h Pages: 1 -->
<!--zoomable 1148999 -->
<svg id="main" version="1.1" xmlns="http://www.w3.org/2000/svg" xmlns:xlink="http://www.w3.org/1999/xlink" xml:space="preserve" onload="init(evt)">
<style type="text/css"><![CDATA[
.edge:hover path { stroke: red; }
.edge:hover polygon { stroke: red; fill: red; }
]]></style>
<script type="text/javascript"><![CDATA[
var edges = document.getElementsByTagName('g');
if (edges && edges.length) {
  for (var i=0;i<edges.length;i++) {
    if (edges[i].id.substr(0,4)=='edge') {
      edges[i].setAttribute('class','edge');
    }
  }
}
]]></script>
        <defs>
                <circle id="rim" cx="0" cy="0" r="7"/>
                <circle id="rim2" cx="0" cy="0" r="3.5"/>
                <g id="zoomPlus">
                        <use xlink:href="#rim" fill="#404040">
                                <set attributeName="fill" to="#808080" begin="zoomplus.mouseover" end="zoomplus.mouseout"/>
                        </use>
                        <path d="M-4,0h8M0,-4v8" fill="none" stroke="white" stroke-width="1.5" pointer-events="none"/>
                </g>
                <g id="zoomMin">
                        <use xlink:href="#rim" fill="#404040">
                                <set attributeName="fill" to="#808080" begin="zoomminus.mouseover" end="zoomminus.mouseout"/>
                        </use>
                        <path d="M-4,0h8" fill="none" stroke="white" stroke-width="1.5" pointer-events="none"/>
                </g>
                <g id="dirArrow">
                        <path fill="none" stroke="white" stroke-width="1.5" d="M0,-3.0v7 M-2.5,-0.5L0,-3.0L2.5,-0.5"/>
                </g>
               <g id="resetDef">
                       <use xlink:href="#rim2" fill="#404040">
                               <set attributeName="fill" to="#808080" begin="reset.mouseover" end="reset.mouseout"/>
                       </use>
               </g>
        </defs>

<script type="text/javascript">
var viewWidth = 2070;
var viewHeight = 1148999;
var sectionId = 'dynsection-1';
</script>
<script xlink:href="svgpan.js"/>
<svg id="graph" class="graph">
<g id="viewport">
<title>include/sqsh_common.h</title>
<!-- Node1 -->
<g id="node1" class="node">
<title>Node1</title>
<g id="a_node1"><a xlink:title=" ">
<polygon fill="#999999" stroke="#666666" points="927.63,-1148991.42 754.13,-1148991.42 754.13,-1148972.85 927.63,-1148972.85 927.63,-1148991.42"/>
<text text-anchor="middle" x="840.88" y="-1148977.92" font-family="Helvetica,sans-Serif" font-size="10.00">include/sqsh_common.h</text>
</a>
</g>
</g>
<!-- Node2 -->
<g id="node2" class="node">
<title>Node2</title>
<g id="a_node2"><a xlink:href="sqsh_8h.html" target="_top" xlink:title=" ">
<polygon fill="white" stroke="#666666" points="1118.38,-1148787.5 997.38,-1148787.5 997.38,-1148769 1118.38,-1148769 1118.38,-1148787.5"/>
<text text-anchor="middle" x="1057.88" y="-1148774" font-family="Helvetica,sans-Serif" font-size="10.00">include/sqsh.h</text>
</a>
</g>
</g>
<!-- Node1&#45;&gt;Node2 -->
<g id="edge1" class="edge">
<title>Node1&#45;&gt;Node2</title>
<path fill="none" stroke="#63b8ff" d="M823.89,-1148965.06C810.69,-1148950.56 796.28,-1148928.81 806.88,-1148910.85 850.84,-1148836.39 952.74,-1148802.14 1012.31,-1148787.99"/>
<polygon fill="#63b8ff" stroke="#63b8ff" points="820.83,-1148966.97 830.32,-1148971.68 825.84,-1148962.08 820.83,-1148966.97"/>
</g>
<!-- Node11 -->
<g id="node11" class="node">
<title>Node11</title>
<g id="a_node11"><a xlink:href="sqsh__archive_8h.html" target="_top" xlink:title=" ">
<polygon fill="white" stroke="#666666" points="417.38,-1148866.68 236.38,-1148866.68 236.38,-1148840.68 417.38,-1148840.68 417.38,-1148866.68"/>
<text text-anchor="middle" x="326.88" y="-1148853.18" font-family="Helvetica,sans-Serif" font-size="10.00">include/sqsh_archive.h</text>
</a>
</g>
</g>
<!-- Node1&#45;&gt;Node11 -->
<g id="edge10" class="edge">
<title>Node1&#45;&gt;Node11</title>
<path fill="none" stroke="#63b8ff" d="M795.03,-1148969.86C699.06,-1148946.24 477.64,-1148891.77 377.59,-1148867.15"/>
<polygon fill="#63b8ff" stroke="#63b8ff" points="794.01,-1148973.46 804.55,-1148972.45 795.68,-1148966.66 794.01,-1148973.46"/>
</g>
<!-- Node13 -->
<g id="node13" class="node">
<title>Node13</title>
<g id="a_node13"><a xlink:href="sqsh__data_8h.html" target="_top" xlink:title=" ">
<polygon fill="white" stroke="#666666" points="502.13,-1148933.1 343.63,-1148933.1 343.63,-1148914.6 502.13,-1148914.6 502.13,-1148933.1"/>
<text text-anchor="middle" x="422.88" y="-1148919.6" font-family="Helvetica,sans-Serif" font-size="10.00">include/sqsh_data.h</text>
</a>
</g>
</g>
<!-- Node1&#45;&gt;Node13 -->
<g id="edge13" class="edge">
<title>Node1&#45;&gt;Node13</title>
<path fill="none" stroke="#63b8ff" d="M765.13,-1148970.94C685.78,-1148960.25 562.47,-1148943.65 487.54,-1148933.56"/>
<polygon fill="#63b8ff" stroke="#63b8ff" points="764.65,-1148974.54 775.03,-1148972.41 765.58,-1148967.6 764.65,-1148974.54"/>
</g>
<!-- Node14 -->
<g id="node14" class="node">
<title>Node14</title>
<g id="a_node14"><a xlink:href="sqsh__xattr_8h.html" target="_top" xlink:title=" ">
<polygon fill="white" stroke="#666666" points="601.88,-1148862.93 435.88,-1148862.93 435.88,-1148844.43 601.88,-1148844.43 601.88,-1148862.93"/>
<text text-anchor="middle" x="518.88" y="-1148849.43" font-family="Helvetica,sans-Serif" font-size="10.00">include/sqsh_xattr.h</text>
</a>
</g>
</g>
<!-- Node1&#45;&gt;Node14 -->
<g id="edge51" class="edge">
<title>Node1&#45;&gt;Node14</title>
<path fill="none" stroke="#63b8ff" d="M808.6,-1148968.46C743.15,-1148942.76 596.3,-1148885.08 540.74,-1148863.26"/>
<polygon fill="#63b8ff" stroke="#63b8ff" points="807.16,-1148972.05 817.75,-1148972.45 809.72,-1148965.53 807.16,-1148972.05"/>
</g>
<!-- Node22 -->
<g id="node22" class="node">
<title>Node22</title>
<g id="a_node22"><a xlink:href="sqsh__easy_8h.html" target="_top" xlink:title=" ">
<polygon fill="white" stroke="#666666" points="974.13,-1148936.85 815.63,-1148936.85 815.63,-1148910.85 974.13,-1148910.85 974.13,-1148936.85"/>
<text text-anchor="middle" x="894.88" y="-1148923.35" font-family="Helvetica,sans-Serif" font-size="10.00">include/sqsh_easy.h</text>
</a>
</g>
</g>
<!-- Node1&#45;&gt;Node22 -->
<g id="edge31" class="edge">
<title>Node1&#45;&gt;Node22</title>
<path fill="none" stroke="#63b8ff" d="M856.29,-1148965.08C864.81,-1148956.2 875.22,-1148945.34 883.09,-1148937.15"/>
<polygon fill="#63b8ff" stroke="#63b8ff" points="854.25,-1148962.19 849.85,-1148971.83 859.3,-1148967.04 854.25,-1148962.19"/>
</g>
<!-- Node23 -->
<g id="node23" class="node">
<title>Node23</title>
<g id="a_node23"><a xlink:href="sqsh__error_8h.html" target="_top" xlink:title=" ">
<polygon fill="white" stroke="#666666" points="1617.88,-1148862.93 1451.88,-1148862.93 1451.88,-1148844.43 1617.88,-1148844.43 1617.88,-1148862.93"/>
<text text-anchor="middle" x="1534.88" y="-1148849.43" font-family="Helvetica,sans-Serif" font-size="10.00">include/sqsh_error.h</text>
</a>
</g>
</g>
<!-- Node1&#45;&gt;Node23 -->
<g id="edge33" class="edge">
<title>Node1&#45;&gt;Node23</title>
<path fill="none" stroke="#63b8ff" d="M938.61,-1148977.09C1067.3,-1148971.03 1286.34,-1148958 1363.88,-1148936.85 1426.17,-1148919.87 1493.31,-1148880.72 1521.37,-1148863.3"/>
<polygon fill="#63b8ff" stroke="#63b8ff" points="938.8,-1148973.62 928.97,-1148977.58 939.12,-1148980.62 938.8,-1148973.62"/>
</g>
<!-- Node24 -->
<g id="node24" class="node">
<title>Node24</title>
<g id="a_node24"><a xlink:href="sqsh__file_8h.html" target="_top" xlink:title=" ">
<polygon fill="white" stroke="#666666" points="1151.13,-1148933.1 992.63,-1148933.1 992.63,-1148914.6 1151.13,-1148914.6 1151.13,-1148933.1"/>
<text text-anchor="middle" x="1071.88" y="-1148919.6" font-family="Helvetica,sans-Serif" font-size="10.00">include/sqsh_file.h</text>
</a>
</g>
</g>
<!-- Node1&#45;&gt;Node24 -->
<g id="edge36" class="edge">
<title>Node1&#45;&gt;Node24</title>
<path fill="none" stroke="#63b8ff" d="M887.14,-1148969.87C931.11,-1148959.15 996.3,-1148943.27 1036.34,-1148933.51"/>
<polygon fill="#63b8ff" stroke="#63b8ff" points="886.61,-1148966.64 877.72,-1148972.41 888.27,-1148973.44 886.61,-1148966.64"/>
</g>
<!-- Node26 -->
<g id="node26" class="node">
<title>Node26</title>
<g id="a_node26"><a xlink:href="sqsh__tree_8h.html" target="_top" xlink:title=" ">
<polygon fill="white" stroke="#666666" points="1434.13,-1148874.85 1275.63,-1148874.85 1275.63,-1148832.5 1434.13,-1148832.5 1434.13,-1148874.85"/>
<text text-anchor="middle" x="1354.88" y="-1148861.35" font-family="Helvetica,sans-Serif" font-size="10.00">include/sqsh_tree.h</text>
</a>
</g>
</g>
<!-- Node1&#45;&gt;Node26 -->
<g id="edge50" class="edge">
<title>Node1&#45;&gt;Node26</title>
<path fill="none" stroke="#63b8ff" d="M938.89,-1148978.99C1076.99,-1148974.99 1315.29,-1148964.18 1343.88,-1148936.85 1360.22,-1148921.24 1360.65,-1148893.87 1358.55,-1148875.04"/>
<polygon fill="#63b8ff" stroke="#63b8ff" points="938.8,-1148975.51 928.9,-1148979.3 939,-1148982.51 938.8,-1148975.51"/>
</g>
<!-- Node27 -->
<g id="node27" class="node">
<title>Node27</title>
<g id="a_node27"><a xlink:href="sqsh__posix_8h.html" target="_top" xlink:title=" ">
<polygon fill="white" stroke="#666666" points="1334.88,-1148936.85 1168.88,-1148936.85 1168.88,-1148910.85 1334.88,-1148910.85 1334.88,-1148936.85"/>
<text text-anchor="middle" x="1251.88" y="-1148923.35" font-family="Helvetica,sans-Serif" font-size="10.00">include/sqsh_posix.h</text>
</a>
</g>
</g>
<!-- Node1&#45;&gt;Node27 -->
<g id="edge45" class="edge">
<title>Node1&#45;&gt;Node27</title>
<path fill="none" stroke="#63b8ff" d="M915.34,-1148970.94C986.69,-1148961.17 1094.18,-1148946.45 1168.4,-1148936.29"/>
<polygon fill="#63b8ff" stroke="#63b8ff" points="915.08,-1148967.58 905.65,-1148972.41 916.03,-1148974.52 915.08,-1148967.58"/>
</g>
<!-- Node28 -->
<g id="node28" class="node">
<title>Node28</title>
<g id="a_node28"><a xlink:href="sqsh__table_8h.html" target="_top" xlink:title=" ">
<polygon fill="white" stroke="#666666" points="785.88,-1148862.93 619.88,-1148862.93 619.88,-1148844.43 785.88,-1148844.43 785.88,-1148862.93"/>
<text text-anchor="middle" x="702.88" y="-1148849.43" font-family="Helvetica,sans-Serif" font-size="10.00">include/sqsh_table.h</text>
</a>
</g>
</g>
<!-- Node1&#45;&gt;Node28 -->
<g id="edge47" class="edge">
<title>Node1&#45;&gt;Node28</title>
<path fill="none" stroke="#63b8ff" d="M815.76,-1148966.81C802.66,-1148958.79 786.73,-1148948.15 773.88,-1148936.85 746.84,-1148913.08 720.63,-1148879.04 709.06,-1148863.28"/>
<polygon fill="#63b8ff" stroke="#63b8ff" points="813.75,-1148970.28 824.13,-1148972.4 817.33,-1148964.27 813.75,-1148970.28"/>
</g>
<!-- Node3 -->
<g id="node3" class="node">
<title>Node3</title>
<g id="a_node3"><a xlink:href="list__dir_8c.html" target="_top" xlink:title=" ">
<polygon fill="white" stroke="#666666" points="807.13,-1148724 648.63,-1148724 648.63,-153.85 807.13,-153.85 807.13,-1148724"/>
<text text-anchor="middle" x="727.88" y="-1148710.5" font-family="Helvetica,sans-Serif" font-size="10.00">examples/list_dir.c</text>
</a>
</g>
</g>
<!-- Node2&#45;&gt;Node3 -->
<g id="edge2" class="edge">
<title>Node2&#45;&gt;Node3</title>
<path fill="none" stroke="#63b8ff" d="M1000.9,-1148766.57C931.22,-1148753.23 821.74,-1148731.29 815.88,-1148724 813.09,-1148720.53 810.34,-1148671.2 807.63,-1148576.84"/>
<polygon fill="#63b8ff" stroke="#63b8ff" points="999.82,-1148770.11 1010.29,-1148768.55 1001.13,-1148763.24 999.82,-1148770.11"/>
</g>
<!-- Node4 -->
<g id="node4" class="node">
<title>Node4</title>
<g id="a_node4"><a xlink:href="list__dir__ll_8c.html" target="_top" xlink:title=" ">
<polygon fill="white" stroke="#666666" points="1006.38,-574448.18 825.38,-574448.18 825.38,-574429.68 1006.38,-574429.68 1006.38,-574448.18"/>
<text text-anchor="middle" x="915.88" y="-574434.68" font-family="Helvetica,sans-Serif" font-size="10.00">examples/list_dir_ll.c</text>
</a>
</g>
</g>
<!-- Node2&#45;&gt;Node4 -->
<g id="edge3" class="edge">
<title>Node2&#45;&gt;Node4</title>
<path fill="none" stroke="#63b8ff" d="M1039.93,-1148761.12C1030.51,-1148751.42 1019.9,-1148738.21 1014.88,-1148724 683.36,-1147786.04 914.86,-576956.74 915.88,-574448.22"/>
<polygon fill="#63b8ff" stroke="#63b8ff" points="1037.11,-1148763.24 1046.73,-1148767.68 1041.99,-1148758.21 1037.11,-1148763.24"/>
</g>
<!-- Node5 -->
<g id="node5" class="node">
<title>Node5</title>
<g id="a_node5"><a xlink:href="list__xattrs_8c.html" target="_top" xlink:title=" ">
<polygon fill="white" stroke="#666666" points="1205.38,-574460.1 1024.38,-574460.1 1024.38,-574417.75 1205.38,-574417.75 1205.38,-574460.1"/>
<text text-anchor="middle" x="1114.88" y="-574446.6" font-family="Helvetica,sans-Serif" font-size="10.00">examples/list_xattrs.c</text>
</a>
</g>
</g>
<!-- Node2&#45;&gt;Node5 -->
<g id="edge4" class="edge">
<title>Node2&#45;&gt;Node5</title>
<path fill="none" stroke="#63b8ff" d="M1057.88,-1148757.96C1058.26,-1144948.38 1114.49,-578372.41 1114.88,-574460.28"/>
<polygon fill="#63b8ff" stroke="#63b8ff" points="1054.38,-1148757.95 1057.88,-1148767.95 1061.38,-1148757.95 1054.38,-1148757.95"/>
</g>
<!-- Node6 -->
<g id="node6" class="node">
<title>Node6</title>
<g id="a_node6"><a xlink:href="list__xattrs__ll_8c.html" target="_top" xlink:title=" ">
<polygon fill="white" stroke="#666666" points="1426.63,-574451.93 1223.13,-574451.93 1223.13,-574425.93 1426.63,-574425.93 1426.63,-574451.93"/>
<text text-anchor="middle" x="1324.88" y="-574438.43" font-family="Helvetica,sans-Serif" font-size="10.00">examples/list_xattrs_ll.c</text>
</a>
</g>
</g>
<!-- Node2&#45;&gt;Node6 -->
<g id="edge5" class="edge">
<title>Node2&#45;&gt;Node6</title>
<path fill="none" stroke="#63b8ff" d="M1129.29,-1148771.38C1160.9,-1148764.8 1195.3,-1148751.32 1214.88,-1148724 1504.56,-1148319.94 1325.85,-577518.15 1324.89,-574452.32"/>
<polygon fill="#63b8ff" stroke="#63b8ff" points="1128.89,-1148768.08 1119.7,-1148773.35 1130.17,-1148774.96 1128.89,-1148768.08"/>
</g>
<!-- Node7 -->
<g id="node7" class="node">
<title>Node7</title>
<g id="a_node7"><a xlink:href="read__file_8c.html" target="_top" xlink:title=" ">
<polygon fill="white" stroke="#666666" points="1610.88,-574448.18 1444.88,-574448.18 1444.88,-574429.68 1610.88,-574429.68 1610.88,-574448.18"/>
<text text-anchor="middle" x="1527.88" y="-574434.68" font-family="Helvetica,sans-Serif" font-size="10.00">examples/read_file.c</text>
</a>
</g>
</g>
<!-- Node2&#45;&gt;Node7 -->
<g id="edge6" class="edge">
<title>Node2&#45;&gt;Node7</title>
<path fill="none" stroke="#63b8ff" d="M1129.28,-1148777.85C1227.6,-1148776.97 1396.96,-1148768.78 1435.88,-1148724 1762.18,-1148348.57 1528.91,-576959.21 1527.89,-574448.23"/>
<polygon fill="#63b8ff" stroke="#63b8ff" points="1129.51,-1148774.35 1119.53,-1148777.92 1129.55,-1148781.35 1129.51,-1148774.35"/>
</g>
<!-- Node8 -->
<g id="node8" class="node">
<title>Node8</title>
<g id="a_node8"><a xlink:href="read__file__ll_8c.html" target="_top" xlink:title=" ">
<polygon fill="white" stroke="#666666" points="1817.13,-574448.18 1628.63,-574448.18 1628.63,-574429.68 1817.13,-574429.68 1817.13,-574448.18"/>
<text text-anchor="middle" x="1722.88" y="-574434.68" font-family="Helvetica,sans-Serif" font-size="10.00">examples/read_file_ll.c</text>
</a>
</g>
</g>
<!-- Node2&#45;&gt;Node8 -->
<g id="edge7" class="edge">
<title>Node2&#45;&gt;Node8</title>
<path fill="none" stroke="#63b8ff" d="M1129.58,-1148775.73C1273.69,-1148771.93 1587.48,-1148759.61 1619.88,-1148724 1954.64,-1148356.09 1723.9,-576959.25 1722.89,-574448.23"/>
<polygon fill="#63b8ff" stroke="#63b8ff" points="1129.58,-1148772.26 1119.68,-1148776.01 1129.76,-1148779.25 1129.58,-1148772.26"/>
</g>
<!-- Node9 -->
<g id="node9" class="node">
<title>Node9</title>
<g id="a_node9"><a xlink:href="readme__example_8c.html" target="_top" xlink:title=" ">
<polygon fill="white" stroke="#666666" points="2038.63,-574448.18 1835.13,-574448.18 1835.13,-574429.68 2038.63,-574429.68 2038.63,-574448.18"/>
<text text-anchor="middle" x="1936.88" y="-574434.68" font-family="Helvetica,sans-Serif" font-size="10.00">examples/readme_example.c</text>
</a>
</g>
</g>
<!-- Node2&#45;&gt;Node9 -->
<g id="edge8" class="edge">
<title>Node2&#45;&gt;Node9</title>
<path fill="none" stroke="#63b8ff" d="M1129.49,-1148777.71C1311.17,-1148778.13 1778.97,-1148774.27 1825.88,-1148724 2165.26,-1148360.35 1937.89,-576959.26 1936.89,-574448.23"/>
<polygon fill="#63b8ff" stroke="#63b8ff" points="1129.73,-1148774.21 1119.72,-1148777.68 1129.71,-1148781.21 1129.73,-1148774.21"/>
</g>
<!-- Node10 -->
<g id="node10" class="node">
<title>Node10</title>
<g id="a_node10"><a xlink:href="traverse__dir__ll_8c.html" target="_top" xlink:title=" ">
<polygon fill="white" stroke="#666666" points="630.38,-574460.1 419.38,-574460.1 419.38,-574417.75 630.38,-574417.75 630.38,-574460.1"/>
<text text-anchor="middle" x="524.88" y="-574446.6" font-family="Helvetica,sans-Serif" font-size="10.00">examples/traverse_dir_ll.c</text>
</a>
</g>
</g>
<!-- Node2&#45;&gt;Node10 -->
<g id="edge9" class="edge">
<title>Node2&#45;&gt;Node10</title>
<path fill="none" stroke="#63b8ff" d="M1003.96,-1148766.56C991.18,-1148764.22 977.57,-1148761.88 964.88,-1148760 893,-1148749.37 688.36,-1148778.13 639.88,-1148724 308.46,-1148353.92 523.39,-578391.37 524.87,-574460.35"/>
<polygon fill="#63b8ff" stroke="#63b8ff" points="1002.99,-1148770.13 1013.46,-1148768.52 1004.28,-1148763.25 1002.99,-1148770.13"/>
</g>
<!-- Node11&#45;&gt;Node2 -->
<g id="edge11" class="edge">
<title>Node11&#45;&gt;Node2</title>
<path fill="none" stroke="#63b8ff" d="M393.32,-1148838.16C404.49,-1148836.04 415.99,-1148834.06 426.88,-1148832.5 635.03,-1148802.82 884.35,-1148787.77 997.15,-1148782.05"/>
<polygon fill="#63b8ff" stroke="#63b8ff" points="392.89,-1148834.88 383.75,-1148840.23 394.23,-1148841.75 392.89,-1148834.88"/>
</g>
<!-- Node12 -->
<g id="node12" class="node">
<title>Node12</title>
<g id="a_node12"><a xlink:href="sqsh__archive__private_8h.html" target="_top" xlink:title=" ">
<polygon fill="white" stroke="#666666" points="400.88,-105.92 234.88,-105.92 234.88,-76.92 400.88,-76.92 400.88,-105.92"/>
<text text-anchor="start" x="242.88" y="-92.42" font-family="Helvetica,sans-Serif" font-size="10.00">libsqsh/include/sqsh</text>
<text text-anchor="middle" x="317.88" y="-81.92" font-family="Helvetica,sans-Serif" font-size="10.00">_archive_private.h</text>
</a>
</g>
</g>
<!-- Node11&#45;&gt;Node12 -->
<g id="edge12" class="edge">
<title>Node11&#45;&gt;Node12</title>
<path fill="none" stroke="#63b8ff" d="M273.9,-1148835.98C255.36,-1148827.3 236.53,-1148814.61 225.88,-1148796.5 225.88,-1148796.5 225.88,-153.85 225.88,-153.85 237.66,-131.83 261.2,-116.34 281.52,-106.42"/>
<polygon fill="#63b8ff" stroke="#63b8ff" points="272.25,-1148839.51 282.82,-1148840.28 275.03,-1148833.09 272.25,-1148839.51"/>
</g>
<!-- Node13&#45;&gt;Node11 -->
<g id="edge14" class="edge">
<title>Node13&#45;&gt;Node11</title>
<path fill="none" stroke="#63b8ff" d="M401.97,-1148908C384.78,-1148895.79 360.69,-1148878.69 344.47,-1148867.17"/>
<polygon fill="#63b8ff" stroke="#63b8ff" points="399.54,-1148911.28 409.72,-1148914.22 403.6,-1148905.57 399.54,-1148911.28"/>
</g>
<!-- Node13&#45;&gt;Node14 -->
<g id="edge15" class="edge">
<title>Node13&#45;&gt;Node14</title>
<path fill="none" stroke="#63b8ff" d="M443.98,-1148907.87C463.25,-1148894.18 491.08,-1148874.42 506.82,-1148863.24"/>
<polygon fill="#63b8ff" stroke="#63b8ff" points="442.17,-1148905.57 436.04,-1148914.22 446.22,-1148911.28 442.17,-1148905.57"/>
</g>
<!-- Node16 -->
<g id="node16" class="node">
<title>Node16</title>
<g id="a_node16"><a xlink:href="sqsh__extract__private_8h.html" target="_top" xlink:title=" ">
<polygon fill="white" stroke="#666666" points="189.88,-1148868.18 23.88,-1148868.18 23.88,-1148839.18 189.88,-1148839.18 189.88,-1148868.18"/>
<text text-anchor="start" x="31.88" y="-1148854.68" font-family="Helvetica,sans-Serif" font-size="10.00">libsqsh/include/sqsh</text>
<text text-anchor="middle" x="106.88" y="-1148844.18" font-family="Helvetica,sans-Serif" font-size="10.00">_extract_private.h</text>
</a>
</g>
</g>
<!-- Node13&#45;&gt;Node16 -->
<g id="edge19" class="edge">
<title>Node13&#45;&gt;Node16</title>
<path fill="none" stroke="#63b8ff" d="M372.09,-1148911.89C317.62,-1148900.14 230.97,-1148881.45 171.64,-1148868.65"/>
<polygon fill="#63b8ff" stroke="#63b8ff" points="371.03,-1148915.46 381.54,-1148914.15 372.5,-1148908.62 371.03,-1148915.46"/>
</g>
<!-- Node14&#45;&gt;Node2 -->
<g id="edge16" class="edge">
<title>Node14&#45;&gt;Node2</title>
<path fill="none" stroke="#63b8ff" d="M564.88,-1148841.67C579.53,-1148838.41 595.83,-1148835.04 610.88,-1148832.5 748.25,-1148809.32 911.03,-1148792.6 997.24,-1148784.59"/>
<polygon fill="#63b8ff" stroke="#63b8ff" points="564.53,-1148838.39 555.55,-1148844.01 566.08,-1148845.21 564.53,-1148838.39"/>
</g>
<!-- Node15 -->
<g id="node15" class="node">
<title>Node15</title>
<g id="a_node15"><a xlink:href="sqsh__xattr__private_8h.html" target="_top" xlink:title=" ">
<polygon fill="white" stroke="#666666" points="400.88,-574453.43 234.88,-574453.43 234.88,-574424.43 400.88,-574424.43 400.88,-574453.43"/>
<text text-anchor="start" x="242.88" y="-574439.93" font-family="Helvetica,sans-Serif" font-size="10.00">libsqsh/include/sqsh</text>
<text text-anchor="middle" x="317.88" y="-574429.43" font-family="Helvetica,sans-Serif" font-size="10.00">_xattr_private.h</text>
</a>
</g>
</g>
<!-- Node14&#45;&gt;Node15 -->
<g id="edge17" class="edge">
<title>Node14&#45;&gt;Node15</title>
<path fill="none" stroke="#63b8ff" d="M498.9,-1148837.09C472.6,-1148815.17 427.65,-1148772.44 409.88,-1148724 67.59,-1147790.59 316.46,-577689.79 317.88,-574453.75"/>
<polygon fill="#63b8ff" stroke="#63b8ff" points="496.38,-1148840.36 506.35,-1148843.95 500.79,-1148834.93 496.38,-1148840.36"/>
</g>
<!-- Node15&#45;&gt;Node12 -->
<g id="edge18" class="edge">
<title>Node15&#45;&gt;Node12</title>
<path fill="none" stroke="#63b8ff" d="M317.88,-574413.38C317.88,-570117.67 317.88,-3326.46 317.88,-106.2"/>
<polygon fill="#63b8ff" stroke="#63b8ff" points="314.38,-574413.07 317.88,-574423.07 321.38,-574413.07 314.38,-574413.07"/>
</g>
<!-- Node17 -->
<g id="node17" class="node">
<title>Node17</title>
<g id="a_node17"><a xlink:href="sqsh__file__private_8h.html" target="_top" xlink:title=" ">
<polygon fill="white" stroke="#666666" points="178.88,-574453.43 12.88,-574453.43 12.88,-574424.43 178.88,-574424.43 178.88,-574453.43"/>
<text text-anchor="start" x="20.88" y="-574439.93" font-family="Helvetica,sans-Serif" font-size="10.00">libsqsh/include/sqsh</text>
<text text-anchor="middle" x="95.88" y="-574429.43" font-family="Helvetica,sans-Serif" font-size="10.00">_file_private.h</text>
</a>
</g>
</g>
<!-- Node16&#45;&gt;Node17 -->
<g id="edge20" class="edge">
<title>Node16&#45;&gt;Node17</title>
<path fill="none" stroke="#63b8ff" d="M48.96,-1148834.37C31.36,-1148825.79 14.02,-1148813.57 3.88,-1148796.5 -4.4,-1148782.55 3.88,-1148776.23 3.88,-1148760 24.25,-894472.56 95.34,-576853.82 95.88,-574453.61"/>
<polygon fill="#63b8ff" stroke="#63b8ff" points="47.16,-1148837.85 57.71,-1148838.77 50.04,-1148831.47 47.16,-1148837.85"/>
</g>
<!-- Node20 -->
<g id="node20" class="node">
<title>Node20</title>
<g id="a_node20"><a xlink:href="sqsh__metablock__private_8h.html" target="_top" xlink:title=" ">
<polygon fill="white" stroke="#666666" points="178.88,-1148796.5 12.88,-1148796.5 12.88,-1148760 178.88,-1148760 178.88,-1148796.5"/>
<text text-anchor="start" x="20.88" y="-1148783" font-family="Helvetica,sans-Serif" font-size="10.00">libsqsh/include/sqsh</text>
<text text-anchor="middle" x="95.88" y="-1148772.5" font-family="Helvetica,sans-Serif" font-size="10.00">_metablock_private.h</text>
</a>
</g>
</g>
<!-- Node16&#45;&gt;Node20 -->
<g id="edge25" class="edge">
<title>Node16&#45;&gt;Node20</title>
<path fill="none" stroke="#63b8ff" d="M103.2,-1148828.12C101.67,-1148817.9 99.93,-1148806.26 98.53,-1148796.9"/>
<polygon fill="#63b8ff" stroke="#63b8ff" points="99.87,-1148828.5 104.81,-1148837.87 106.79,-1148827.46 99.87,-1148828.5"/>
</g>
<!-- Node21 -->
<g id="node21" class="node">
<title>Node21</title>
<g id="a_node21"><a xlink:href="sqsh__table__private_8h.html" target="_top" xlink:title=" ">
<polygon fill="white" stroke="#666666" points="400.88,-1148792.75 234.88,-1148792.75 234.88,-1148763.75 400.88,-1148763.75 400.88,-1148792.75"/>
<text text-anchor="start" x="242.88" y="-1148779.25" font-family="Helvetica,sans-Serif" font-size="10.00">libsqsh/include/sqsh</text>
<text text-anchor="middle" x="317.88" y="-1148768.75" font-family="Helvetica,sans-Serif" font-size="10.00">_table_private.h</text>
</a>
</g>
</g>
<!-- Node16&#45;&gt;Node21 -->
<g id="edge29" class="edge">
<title>Node16&#45;&gt;Node21</title>
<path fill="none" stroke="#63b8ff" d="M157.13,-1148835.19C194.06,-1148822.34 243.57,-1148805.11 277.85,-1148793.18"/>
<polygon fill="#63b8ff" stroke="#63b8ff" points="156.36,-1148832.1 148.07,-1148838.69 158.66,-1148838.71 156.36,-1148832.1"/>
</g>
<!-- Node17&#45;&gt;Node12 -->
<g id="edge21" class="edge">
<title>Node17&#45;&gt;Node12</title>
<path fill="none" stroke="#63b8ff" d="M95.88,-574413.37C94.63,-570106.02 -69.7,-575.38 192.88,-153.85 207.58,-130.25 234.3,-115.45 259.27,-106.32"/>
<polygon fill="#63b8ff" stroke="#63b8ff" points="92.38,-574413.09 95.88,-574423.08 99.38,-574413.08 92.38,-574413.09"/>
</g>
<!-- Node18 -->
<g id="node18" class="node">
<title>Node18</title>
<g id="a_node18"><a xlink:href="sqsh__directory__private_8h.html" target="_top" xlink:title=" ">
<polygon fill="white" stroke="#666666" points="178.88,-117.85 12.88,-117.85 12.88,-65 178.88,-65 178.88,-117.85"/>
<text text-anchor="start" x="20.88" y="-104.35" font-family="Helvetica,sans-Serif" font-size="10.00">libsqsh/include/sqsh</text>
<text text-anchor="middle" x="95.88" y="-70" font-family="Helvetica,sans-Serif" font-size="10.00">_directory_private.h</text>
</a>
</g>
</g>
<!-- Node17&#45;&gt;Node18 -->
<g id="edge22" class="edge">
<title>Node17&#45;&gt;Node18</title>
<path fill="none" stroke="#63b8ff" d="M95.88,-574413.4C95.88,-570123.26 95.88,-4506.52 95.88,-118.09"/>
<polygon fill="#63b8ff" stroke="#63b8ff" points="92.38,-574413.07 95.88,-574423.07 99.38,-574413.07 92.38,-574413.07"/>
</g>
<!-- Node19 -->
<g id="node19" class="node">
<title>Node19</title>
<g id="a_node19"><a xlink:href="sqsh__tree__private_8h.html" target="_top" xlink:title=" ">
<polygon fill="white" stroke="#666666" points="289.88,-29 123.88,-29 123.88,0 289.88,0 289.88,-29"/>
<text text-anchor="start" x="131.88" y="-15.5" font-family="Helvetica,sans-Serif" font-size="10.00">libsqsh/include/sqsh</text>
<text text-anchor="middle" x="206.88" y="-5" font-family="Helvetica,sans-Serif" font-size="10.00">_tree_private.h</text>
</a>
</g>
</g>
<!-- Node17&#45;&gt;Node19 -->
<g id="edge24" class="edge">
<title>Node17&#45;&gt;Node19</title>
<path fill="none" stroke="#63b8ff" d="M95.88,-574413.52C95.1,-570132.84 -7.71,-4121.79 192.88,-153.85 195.2,-108.04 201.79,-54.02 205.03,-29.21"/>
<polygon fill="#63b8ff" stroke="#63b8ff" points="92.38,-574413.17 95.88,-574423.17 99.38,-574413.17 92.38,-574413.17"/>
</g>
<!-- Node18&#45;&gt;Node19 -->
<g id="edge23" class="edge">
<title>Node18&#45;&gt;Node19</title>
<path fill="none" stroke="#63b8ff" d="M142.9,-58.69C158.1,-48.43 174.17,-37.58 186.4,-29.32"/>
<polygon fill="#63b8ff" stroke="#63b8ff" points="141.41,-56.14 135.08,-64.64 145.33,-61.95 141.41,-56.14"/>
</g>
<!-- Node20&#45;&gt;Node15 -->
<g id="edge28" class="edge">
<title>Node20&#45;&gt;Node15</title>
<path fill="none" stroke="#63b8ff" d="M156.24,-1148754.39C168.85,-1148746.7 180.54,-1148736.74 187.88,-1148724 436.24,-1148293.4 318.56,-577692.65 317.88,-574453.77"/>
<polygon fill="#63b8ff" stroke="#63b8ff" points="154.97,-1148751.65 147.95,-1148759.59 158.38,-1148757.76 154.97,-1148751.65"/>
</g>
<!-- Node20&#45;&gt;Node17 -->
<g id="edge27" class="edge">
<title>Node20&#45;&gt;Node17</title>
<path fill="none" stroke="#63b8ff" d="M95.88,-1148749.02C95.88,-1144143.45 95.88,-577671.84 95.88,-574453.69"/>
<polygon fill="#63b8ff" stroke="#63b8ff" points="92.38,-1148748.6 95.88,-1148758.6 99.38,-1148748.6 92.38,-1148748.6"/>
</g>
<!-- Node20&#45;&gt;Node18 -->
<g id="edge26" class="edge">
<title>Node20&#45;&gt;Node18</title>
<path fill="none" stroke="#63b8ff" d="M35.52,-1148754.39C22.91,-1148746.71 11.23,-1148736.74 3.88,-1148724 3.88,-1148724 3.88,-153.85 3.88,-153.85 11.76,-139.12 24.91,-127.3 38.84,-118.12"/>
<polygon fill="#63b8ff" stroke="#63b8ff" points="33.38,-1148757.77 43.81,-1148759.59 36.8,-1148751.66 33.38,-1148757.77"/>
</g>
<!-- Node21&#45;&gt;Node15 -->
<g id="edge30" class="edge">
<title>Node21&#45;&gt;Node15</title>
<path fill="none" stroke="#63b8ff" d="M317.88,-1148752.71C317.88,-1144457.06 317.88,-577673.92 317.88,-574453.7"/>
<polygon fill="#63b8ff" stroke="#63b8ff" points="314.38,-1148752.4 317.88,-1148762.4 321.38,-1148752.4 314.38,-1148752.4"/>
</g>
<!-- Node22&#45;&gt;Node2 -->
<g id="edge32" class="edge">
<title>Node22&#45;&gt;Node2</title>
<path fill="none" stroke="#63b8ff" d="M917.04,-1148903.33C953.08,-1148871.58 1022.93,-1148810.04 1048.34,-1148787.66"/>
<polygon fill="#63b8ff" stroke="#63b8ff" points="915.25,-1148900.12 910.06,-1148909.36 919.88,-1148905.38 915.25,-1148900.12"/>
</g>
<!-- Node23&#45;&gt;Node2 -->
<g id="edge34" class="edge">
<title>Node23&#45;&gt;Node2</title>
<path fill="none" stroke="#63b8ff" d="M1487.67,-1148841.58C1473.34,-1148838.41 1457.51,-1148835.11 1442.88,-1148832.5 1328.96,-1148812.17 1194.89,-1148795.18 1118.79,-1148786.18"/>
<polygon fill="#63b8ff" stroke="#63b8ff" points="1486.78,-1148845.19 1497.3,-1148843.97 1488.31,-1148838.36 1486.78,-1148845.19"/>
</g>
<!-- Node23&#45;&gt;Node12 -->
<g id="edge35" class="edge">
<title>Node23&#45;&gt;Node12</title>
<path fill="none" stroke="#63b8ff" d="M1629.05,-1148852.96C1717.16,-1148850.3 1850.99,-1148838.66 1958.88,-1148796.5 2011.02,-1148776.13 2036.09,-1148773.69 2061.88,-1148724 2061.88,-1148724 2061.88,-153.85 2061.88,-153.85 2003.62,-93.5 740.57,-91.6 401.19,-92.18"/>
<polygon fill="#63b8ff" stroke="#63b8ff" points="1629.17,-1148849.48 1619.27,-1148853.25 1629.36,-1148856.48 1629.17,-1148849.48"/>
</g>
<!-- Node24&#45;&gt;Node2 -->
<g id="edge37" class="edge">
<title>Node24&#45;&gt;Node2</title>
<path fill="none" stroke="#63b8ff" d="M1046,-1148908.35C1034.18,-1148900.19 1021.38,-1148888.83 1014.88,-1148874.85 1006.94,-1148857.79 1008.61,-1148850.25 1014.88,-1148832.5 1021.37,-1148814.13 1037.2,-1148797.44 1047.73,-1148787.82"/>
<polygon fill="#63b8ff" stroke="#63b8ff" points="1043.83,-1148911.75 1054.14,-1148914.19 1047.6,-1148905.85 1043.83,-1148911.75"/>
</g>
<!-- Node24&#45;&gt;Node17 -->
<g id="edge44" class="edge">
<title>Node24&#45;&gt;Node17</title>
<path fill="none" stroke="#63b8ff" d="M1038.62,-1148910.48C987.01,-1148891.64 884.29,-1148855.51 794.88,-1148832.5 792.93,-1148832 227.16,-1148725.55 225.88,-1148724 -91.04,-1148341.03 94.82,-577692.92 95.88,-574453.77"/>
<polygon fill="#63b8ff" stroke="#63b8ff" points="1037.24,-1148914.07 1047.83,-1148914.23 1039.65,-1148907.5 1037.24,-1148914.07"/>
</g>
<!-- Node25 -->
<g id="node25" class="node">
<title>Node25</title>
<g id="a_node25"><a xlink:href="sqsh__directory_8h.html" target="_top" xlink:title=" ">
<polygon fill="white" stroke="#666666" points="1219.88,-1148862.93 1023.88,-1148862.93 1023.88,-1148844.43 1219.88,-1148844.43 1219.88,-1148862.93"/>
<text text-anchor="middle" x="1121.88" y="-1148849.43" font-family="Helvetica,sans-Serif" font-size="10.00">include/sqsh_directory.h</text>
</a>
</g>
</g>
<!-- Node24&#45;&gt;Node25 -->
<g id="edge38" class="edge">
<title>Node24&#45;&gt;Node25</title>
<path fill="none" stroke="#63b8ff" d="M1084.45,-1148905.71C1094.45,-1148892.08 1108,-1148873.6 1115.76,-1148863.03"/>
<polygon fill="#63b8ff" stroke="#63b8ff" points="1081.31,-1148903.08 1078.21,-1148913.22 1086.95,-1148907.22 1081.31,-1148903.08"/>
</g>
<!-- Node24&#45;&gt;Node26 -->
<g id="edge41" class="edge">
<title>Node24&#45;&gt;Node26</title>
<path fill="none" stroke="#63b8ff" d="M1118.61,-1148911.59C1161.14,-1148901.35 1224.8,-1148886.01 1275.33,-1148873.84"/>
<polygon fill="#63b8ff" stroke="#63b8ff" points="1117.91,-1148908.4 1109.01,-1148914.15 1119.55,-1148915.21 1117.91,-1148908.4"/>
</g>
<!-- Node25&#45;&gt;Node2 -->
<g id="edge39" class="edge">
<title>Node25&#45;&gt;Node2</title>
<path fill="none" stroke="#63b8ff" d="M1107.37,-1148836.03C1094.35,-1148821.09 1075.76,-1148799.76 1065.47,-1148787.95"/>
<polygon fill="#63b8ff" stroke="#63b8ff" points="1105.08,-1148837.73 1114.29,-1148842.97 1110.36,-1148833.13 1105.08,-1148837.73"/>
</g>
<!-- Node25&#45;&gt;Node18 -->
<g id="edge40" class="edge">
<title>Node25&#45;&gt;Node18</title>
<path fill="none" stroke="#63b8ff" d="M1195.37,-1148842.45C1218.28,-1148839.26 1243.63,-1148835.74 1266.88,-1148832.5 1440.44,-1148808.37 1932.82,-1148856.15 2047.88,-1148724 2047.88,-1148724 2047.88,-153.85 2047.88,-153.85 2012.44,-117.7 276.22,-123.23 225.88,-117.85 210.68,-116.22 194.6,-113.73 179.13,-110.92"/>
<polygon fill="#63b8ff" stroke="#63b8ff" points="1195.11,-1148839.09 1185.69,-1148843.94 1196.08,-1148846.02 1195.11,-1148839.09"/>
</g>
<!-- Node26&#45;&gt;Node2 -->
<g id="edge42" class="edge">
<title>Node26&#45;&gt;Node2</title>
<path fill="none" stroke="#63b8ff" d="M1264.69,-1148830.38C1206.97,-1148816.11 1135.29,-1148798.39 1093.26,-1148788"/>
<polygon fill="#63b8ff" stroke="#63b8ff" points="1263.74,-1148834 1274.29,-1148833 1265.42,-1148827.2 1263.74,-1148834"/>
</g>
<!-- Node26&#45;&gt;Node19 -->
<g id="edge43" class="edge">
<title>Node26&#45;&gt;Node19</title>
<path fill="none" stroke="#63b8ff" d="M1445.19,-1148832.4C1573.08,-1148816.66 1853.64,-1148833.91 1958.88,-1148796.5 2011.63,-1148777.76 2036.09,-1148773.69 2061.88,-1148724 2061.88,-1148724 2061.88,-153.85 2061.88,-153.85 1939.98,-22.52 635.24,-14.92 290.19,-15.22"/>
<polygon fill="#63b8ff" stroke="#63b8ff" points="1444.84,-1148829.05 1435.4,-1148833.86 1445.78,-1148835.99 1444.84,-1148829.05"/>
</g>
<!-- Node27&#45;&gt;Node2 -->
<g id="edge46" class="edge">
<title>Node27&#45;&gt;Node2</title>
<path fill="none" stroke="#63b8ff" d="M1252,-1148899.79C1250.86,-1148879.54 1246.02,-1148850.56 1228.88,-1148832.5 1200.42,-1148802.5 1155.38,-1148789.3 1118.66,-1148783.54"/>
<polygon fill="#63b8ff" stroke="#63b8ff" points="1248.53,-1148899.66 1252.31,-1148909.56 1255.52,-1148899.46 1248.53,-1148899.66"/>
</g>
<!-- Node28&#45;&gt;Node2 -->
<g id="edge48" class="edge">
<title>Node28&#45;&gt;Node2</title>
<path fill="none" stroke="#63b8ff" d="M754.78,-1148841.87C769.37,-1148838.83 785.24,-1148835.54 799.88,-1148832.5 875.79,-1148816.78 964.28,-1148798.53 1015.42,-1148788"/>
<polygon fill="#63b8ff" stroke="#63b8ff" points="754.49,-1148838.56 745.42,-1148844.02 755.92,-1148845.41 754.49,-1148838.56"/>
</g>
<!-- Node28&#45;&gt;Node21 -->
<g id="edge49" class="edge">
<title>Node28&#45;&gt;Node21</title>
<path fill="none" stroke="#63b8ff" d="M654.47,-1148841.72C640.43,-1148838.63 625.06,-1148835.35 610.88,-1148832.5 539.53,-1148818.2 458.07,-1148803.53 399.18,-1148793.22"/>
<polygon fill="#63b8ff" stroke="#63b8ff" points="653.38,-1148845.28 663.9,-1148844.03 654.89,-1148838.45 653.38,-1148845.28"/>
</g>
</g>
</svg>
        <g id="navigator" transform="translate(0 0)" fill="#404254">
                <rect fill="#f2f5e9" fill-opacity="0.5" stroke="#606060" stroke-width=".5" x="0" y="0" width="60" height="60"/>
                <use id="zoomplus" xlink:href="#zoomPlus" x="17" y="9" onmousedown="handleZoom(evt,'in')"/>
                <use id="zoomminus" xlink:href="#zoomMin" x="42" y="9" onmousedown="handleZoom(evt,'out')"/>
                <use id="reset" xlink:href="#resetDef" x="30" y="36" onmousedown="handleReset()"/>
                <g id="arrowUp" xlink:href="#dirArrow" transform="translate(30 24)" onmousedown="handlePan(0,-1)">
                  <use xlink:href="#rim" fill="#404040">
                        <set attributeName="fill" to="#808080" begin="arrowUp.mouseover" end="arrowUp.mouseout"/>
                  </use>
                  <path fill="none" stroke="white" stroke-width="1.5" d="M0,-3.0v7 M-2.5,-0.5L0,-3.0L2.5,-0.5"/>
                </g>
                <g id="arrowRight" xlink:href="#dirArrow" transform="rotate(90) translate(36 -43)" onmousedown="handlePan(1,0)">
                  <use xlink:href="#rim" fill="#404040">
                        <set attributeName="fill" to="#808080" begin="arrowRight.mouseover" end="arrowRight.mouseout"/>
                  </use>
                  <path fill="none" stroke="white" stroke-width="1.5" d="M0,-3.0v7 M-2.5,-0.5L0,-3.0L2.5,-0.5"/>
                </g>
                <g id="arrowDown" xlink:href="#dirArrow" transform="rotate(180) translate(-30 -48)" onmousedown="handlePan(0,1)">
                  <use xlink:href="#rim" fill="#404040">
                        <set attributeName="fill" to="#808080" begin="arrowDown.mouseover" end="arrowDown.mouseout"/>
                  </use>
                  <path fill="none" stroke="white" stroke-width="1.5" d="M0,-3.0v7 M-2.5,-0.5L0,-3.0L2.5,-0.5"/>
                </g>
                <g id="arrowLeft" xlink:href="#dirArrow" transform="rotate(270) translate(-36 17)" onmousedown="handlePan(-1,0)">
                  <use xlink:href="#rim" fill="#404040">
                        <set attributeName="fill" to="#808080" begin="arrowLeft.mouseover" end="arrowLeft.mouseout"/>
                  </use>
                  <path fill="none" stroke="white" stroke-width="1.5" d="M0,-3.0v7 M-2.5,-0.5L0,-3.0L2.5,-0.5"/>
                </g>
        </g>
        <svg viewBox="0 0 15 15" width="100%" height="30px" preserveAspectRatio="xMaxYMin meet">
         <g id="arrow_out" transform="scale(0.3 0.3)">
          <a xlink:href="sqsh__common_8h__dep__incl_org.svg" target="_base">
           <rect id="button" ry="5" rx="5" y="6" x="6" height="38" width="38"
                fill="#f2f5e9" fill-opacity="0.5" stroke="#606060" stroke-width="1.0"/>
           <path id="arrow"
             d="M 11.500037,31.436501 C 11.940474,20.09759 22.043105,11.32322 32.158766,21.979434 L 37.068811,17.246167 C 37.068811,17.246167 37.088388,32 37.088388,32 L 22.160133,31.978069 C 22.160133,31.978069 26.997745,27.140456 26.997745,27.140456 C 18.528582,18.264221 13.291696,25.230495 11.500037,31.436501 z"
             style="fill:#404040;"/>
          </a>
         </g>
        </svg>
</svg>
