<?xml version="1.0" encoding="UTF-8" standalone="no"?>
<!DOCTYPE svg PUBLIC "-//W3C//DTD SVG 1.1//EN"
 "http://www.w3.org/Graphics/SVG/1.1/DTD/svg11.dtd">
<!-- Generated by graphviz version 9.0.0 (20230911.1827)
 -->
<!-- Title: libsqsh/include/sqsh_table_private.h Pages: 1 -->
<svg width="853pt" height="4471034pt"
 viewBox="0.00 0.00 852.51 4471033.58" xmlns="http://www.w3.org/2000/svg" xmlns:xlink="http://www.w3.org/1999/xlink">
<g id="graph0" class="graph" transform="scale(1 1) rotate(0) translate(4 4471029.58)">
<title>libsqsh/include/sqsh_table_private.h</title>
<!-- Node1 -->
<g id="Node000001" class="node">
<title>Node1</title>
<g id="a_Node000001"><a xlink:title=" ">
<polygon fill="#999999" stroke="#666666" points="370.76,-4471025.58 204.76,-4471025.58 204.76,-4470996.58 370.76,-4470996.58 370.76,-4471025.58"/>
<text text-anchor="start" x="212.76" y="-4471012.08" font-family="Helvetica,sans-Serif" font-size="10.00">libsqsh/include/sqsh</text>
<text text-anchor="middle" x="287.76" y="-4471001.58" font-family="Helvetica,sans-Serif" font-size="10.00">_table_private.h</text>
</a>
</g>
</g>
<!-- Node2 -->
<g id="Node000002" class="node">
<title>Node2</title>
<g id="a_Node000002"><a xlink:href="sqsh__extract__private_8h.html" target="_top" xlink:title=" ">
<polygon fill="white" stroke="#666666" points="378.26,-4470960.58 197.26,-4470960.58 197.26,-2980812.41 378.26,-2980812.41 378.26,-4470960.58"/>
<text text-anchor="middle" x="287.76" y="-4470947.08" font-family="Helvetica,sans-Serif" font-size="10.00">sqsh_extract_private.h</text>
</a>
</g>
</g>
<!-- Node1&#45;&gt;Node2 -->
<g id="edge1_Node000001_Node000002" class="edge">
<title>Node1&#45;&gt;Node2</title>
<g id="a_edge1_Node000001_Node000002"><a xlink:title=" ">
<path fill="none" stroke="#63b8ff" d="M287.76,-4470996.11C287.76,-4470990.12 287.76,-4470982.21 287.76,-4470972.39"/>
<polygon fill="#63b8ff" stroke="#63b8ff" points="291.26,-4470972.49 287.76,-4470962.49 284.26,-4470972.49 291.26,-4470972.49"/>
</a>
</g>
</g>
<!-- Node10 -->
<g id="Node000010" class="node">
<title>Node10</title>
<g id="a_Node000010"><a xlink:href="sqsh__mapper__private_8h.html" target="_top" xlink:title=" ">
<polygon fill="white" stroke="#666666" points="640.51,-3725899.5 467.01,-3725899.5 467.01,-3725873.5 640.51,-3725873.5 640.51,-3725899.5"/>
<text text-anchor="middle" x="553.76" y="-3725886" font-family="Helvetica,sans-Serif" font-size="10.00">sqsh_mapper_private.h</text>
</a>
</g>
</g>
<!-- Node1&#45;&gt;Node10 -->
<g id="edge9_Node000001_Node000010" class="edge">
<title>Node1&#45;&gt;Node10</title>
<g id="a_edge9_Node000001_Node000010"><a xlink:title=" ">
<path fill="none" stroke="#63b8ff" d="M341.47,-4470996.12C359.34,-4470988.64 377.34,-4470977.37 387.76,-4470960.58 1067.91,-4469865.27 557.12,-3730735.1 553.78,-3725911.21"/>
<polygon fill="#63b8ff" stroke="#63b8ff" points="557.28,-3725911.31 553.77,-3725901.31 550.28,-3725911.32 557.28,-3725911.31"/>
</a>
</g>
</g>
<!-- Node13 -->
<g id="Node000013" class="node">
<title>Node13</title>
<g id="a_Node000013"><a xlink:href="sqsh__table_8h.html" target="_top" xlink:title=" ">
<polygon fill="white" stroke="#666666" points="129.76,-3725895.75 23.76,-3725895.75 23.76,-3725877.25 129.76,-3725877.25 129.76,-3725895.75"/>
<text text-anchor="middle" x="76.76" y="-3725882.25" font-family="Helvetica,sans-Serif" font-size="10.00">sqsh_table.h</text>
</a>
</g>
</g>
<!-- Node1&#45;&gt;Node13 -->
<g id="edge15_Node000001_Node000013" class="edge">
<title>Node1&#45;&gt;Node13</title>
<g id="a_edge15_Node000001_Node000013"><a xlink:title=" ">
<path fill="none" stroke="#63b8ff" d="M234.05,-4470996.12C216.17,-4470988.64 198.18,-4470977.37 187.76,-4470960.58 -152.39,-4470412.76 75.39,-3730331.16 76.75,-3725907.41"/>
<polygon fill="#63b8ff" stroke="#63b8ff" points="80.25,-3725907.52 76.76,-3725897.52 73.25,-3725907.52 80.25,-3725907.52"/>
</a>
</g>
</g>
<!-- Node3 -->
<g id="Node000003" class="node">
<title>Node3</title>
<g id="a_Node000003"><a xlink:title=" ">
<polygon fill="#e0e0e0" stroke="#999999" points="220.76,-2980776.41 54.76,-2980776.41 54.76,-1490360.38 220.76,-1490360.38 220.76,-2980776.41"/>
<text text-anchor="middle" x="137.76" y="-2980762.91" font-family="Helvetica,sans-Serif" font-size="10.00">cextras/collection.h</text>
</a>
</g>
</g>
<!-- Node2&#45;&gt;Node3 -->
<g id="edge2_Node000002_Node000003" class="edge">
<title>Node2&#45;&gt;Node3</title>
<g id="a_edge2_Node000002_Node000003"><a xlink:title=" ">
<path fill="none" stroke="#63b8ff" d="M212.77,-2980811.92C212.77,-2980803.95 212.77,-2980795.98 212.77,-2980788.01"/>
<polygon fill="#63b8ff" stroke="#63b8ff" points="216.27,-2980788.26 212.76,-2980778.26 209.27,-2980788.26 216.27,-2980788.26"/>
</a>
</g>
</g>
<!-- Node4 -->
<g id="Node000004" class="node">
<title>Node4</title>
<g id="a_Node000004"><a xlink:href="sqsh__data_8h.html" target="_top" xlink:title=" ">
<polygon fill="white" stroke="#666666" points="337.01,-2980642.18 238.51,-2980642.18 238.51,-1490494.62 337.01,-1490494.62 337.01,-2980642.18"/>
<text text-anchor="middle" x="287.76" y="-2980628.68" font-family="Helvetica,sans-Serif" font-size="10.00">sqsh_data.h</text>
</a>
</g>
</g>
<!-- Node2&#45;&gt;Node4 -->
<g id="edge3_Node000002_Node000004" class="edge">
<title>Node2&#45;&gt;Node4</title>
<g id="a_edge3_Node000002_Node000004"><a xlink:title=" ">
<path fill="none" stroke="#63b8ff" d="M287.76,-2980811.92C287.76,-2980759.18 287.76,-2980706.43 287.76,-2980653.68"/>
<polygon fill="#63b8ff" stroke="#63b8ff" points="291.26,-2980653.94 287.76,-2980643.94 284.26,-2980653.94 291.26,-2980653.94"/>
</a>
</g>
</g>
<!-- Node9 -->
<g id="Node000009" class="node">
<title>Node9</title>
<g id="a_Node000009"><a xlink:title=" ">
<polygon fill="#e0e0e0" stroke="#999999" points="520.76,-2235589.59 354.76,-2235589.59 354.76,-2235547.2 520.76,-2235547.2 520.76,-2235589.59"/>
<text text-anchor="middle" x="437.76" y="-2235576.09" font-family="Helvetica,sans-Serif" font-size="10.00">sqsh_utils_private.h</text>
</a>
</g>
</g>
<!-- Node2&#45;&gt;Node9 -->
<g id="edge8_Node000002_Node000009" class="edge">
<title>Node2&#45;&gt;Node9</title>
<g id="a_edge8_Node000002_Node000009"><a xlink:title=" ">
<path fill="none" stroke="#63b8ff" d="M362.75,-2980811.92C400.05,-2610204.34 437.36,-2239568.89 437.76,-2235601.53"/>
<polygon fill="#63b8ff" stroke="#63b8ff" points="441.26,-2235601.58 437.76,-2235591.58 434.26,-2235601.58 441.26,-2235601.58"/>
</a>
</g>
</g>
<!-- Node5 -->
<g id="Node000005" class="node">
<title>Node5</title>
<g id="a_Node000005"><a xlink:href="sqsh__common_8h.html" target="_top" xlink:title=" ">
<polygon fill="white" stroke="#666666" points="545.51,-1490324.38 432.01,-1490324.38 432.01,-54.5 545.51,-54.5 545.51,-1490324.38"/>
<text text-anchor="middle" x="488.76" y="-1490310.88" font-family="Helvetica,sans-Serif" font-size="10.00">sqsh_common.h</text>
</a>
</g>
</g>
<!-- Node4&#45;&gt;Node5 -->
<g id="edge4_Node000004_Node000005" class="edge">
<title>Node4&#45;&gt;Node5</title>
<g id="a_edge4_Node000004_Node000005"><a xlink:title=" ">
<path fill="none" stroke="#63b8ff" d="M337.51,-1555289.81C340.13,-1533391.44 342.88,-1511703.98 345.76,-1490360.38 367.48,-1329322.83 401.89,-1148709.4 431.51,-1005632.03"/>
<polygon fill="#63b8ff" stroke="#63b8ff" points="435.01,-1005632.09 431.51,-1005622.09 428.01,-1005632.09 435.01,-1005632.09"/>
</a>
</g>
</g>
<!-- Node6 -->
<g id="Node000006" class="node">
<title>Node6</title>
<g id="a_Node000006"><a xlink:title=" ">
<polygon fill="#e0e0e0" stroke="#999999" points="579.51,-18.5 496.01,-18.5 496.01,0 579.51,0 579.51,-18.5"/>
<text text-anchor="middle" x="537.76" y="-5" font-family="Helvetica,sans-Serif" font-size="10.00">stdbool.h</text>
</a>
</g>
</g>
<!-- Node5&#45;&gt;Node6 -->
<g id="edge5_Node000005_Node000006" class="edge">
<title>Node5&#45;&gt;Node6</title>
<g id="a_edge5_Node000005_Node000006"><a xlink:title=" ">
<path fill="none" stroke="#63b8ff" d="M537.76,-54.2C537.76,-44.69 537.76,-36.72 537.76,-30.29"/>
<polygon fill="#63b8ff" stroke="#63b8ff" points="541.26,-30.49 537.76,-20.49 534.26,-30.49 541.26,-30.49"/>
</a>
</g>
</g>
<!-- Node7 -->
<g id="Node000007" class="node">
<title>Node7</title>
<g id="a_Node000007"><a xlink:title=" ">
<polygon fill="#e0e0e0" stroke="#999999" points="749.76,-18.5 673.76,-18.5 673.76,0 749.76,0 749.76,-18.5"/>
<text text-anchor="middle" x="711.76" y="-5" font-family="Helvetica,sans-Serif" font-size="10.00">stddef.h</text>
</a>
</g>
</g>
<!-- Node5&#45;&gt;Node7 -->
<g id="edge6_Node000005_Node000007" class="edge">
<title>Node5&#45;&gt;Node7</title>
<g id="a_edge6_Node000005_Node000007"><a xlink:title=" ">
<path fill="none" stroke="#63b8ff" d="M546.01,-553881.58C611.79,-334082.91 710.87,-2993.44 711.75,-30.28"/>
<polygon fill="#63b8ff" stroke="#63b8ff" points="715.25,-30.33 711.76,-20.33 708.25,-30.33 715.25,-30.33"/>
</a>
</g>
</g>
<!-- Node8 -->
<g id="Node000008" class="node">
<title>Node8</title>
<g id="a_Node000008"><a xlink:title=" ">
<polygon fill="#e0e0e0" stroke="#999999" points="477.76,-18.5 401.76,-18.5 401.76,0 477.76,0 477.76,-18.5"/>
<text text-anchor="middle" x="439.76" y="-5" font-family="Helvetica,sans-Serif" font-size="10.00">stdint.h</text>
</a>
</g>
</g>
<!-- Node5&#45;&gt;Node8 -->
<g id="edge7_Node000005_Node000008" class="edge">
<title>Node5&#45;&gt;Node8</title>
<g id="a_edge7_Node000005_Node000008"><a xlink:title=" ">
<path fill="none" stroke="#63b8ff" d="M439.76,-54.2C439.76,-44.69 439.76,-36.72 439.76,-30.29"/>
<polygon fill="#63b8ff" stroke="#63b8ff" points="443.26,-30.49 439.76,-20.49 436.26,-30.49 443.26,-30.49"/>
</a>
</g>
</g>
<!-- Node10&#45;&gt;Node9 -->
<g id="edge14_Node000010_Node000009" class="edge">
<title>Node10&#45;&gt;Node9</title>
<g id="a_edge14_Node000010_Node000009"><a xlink:title=" ">
<path fill="none" stroke="#63b8ff" d="M553.76,-3725873.37C553.38,-3720990.76 438.38,-2243533.58 437.76,-2235601.45"/>
<polygon fill="#63b8ff" stroke="#63b8ff" points="441.26,-2235601.51 437.76,-2235591.51 434.26,-2235601.51 441.26,-2235601.51"/>
</a>
</g>
</g>
<!-- Node11 -->
<g id="Node000011" class="node">
<title>Node11</title>
<g id="a_Node000011"><a xlink:href="sqsh__mapper_8h.html" target="_top" xlink:title=" ">
<polygon fill="white" stroke="#666666" points="844.51,-2235577.65 731.01,-2235577.65 731.01,-2235559.15 844.51,-2235559.15 844.51,-2235577.65"/>
<text text-anchor="middle" x="787.76" y="-2235564.15" font-family="Helvetica,sans-Serif" font-size="10.00">sqsh_mapper.h</text>
</a>
</g>
</g>
<!-- Node10&#45;&gt;Node11 -->
<g id="edge10_Node000010_Node000011" class="edge">
<title>Node10&#45;&gt;Node11</title>
<g id="a_edge10_Node000010_Node000011"><a xlink:title=" ">
<path fill="none" stroke="#63b8ff" d="M553.76,-3725873C554.5,-3723258.72 669.93,-3310884.96 721.76,-2980776.41 773.56,-2650896.19 787.65,-2238875.3 787.76,-2235589.18"/>
<polygon fill="#63b8ff" stroke="#63b8ff" points="791.26,-2235589.46 787.76,-2235579.46 784.26,-2235589.46 791.26,-2235589.46"/>
</a>
</g>
</g>
<!-- Node12 -->
<g id="Node000012" class="node">
<title>Node12</title>
<g id="a_Node000012"><a xlink:title=" ">
<polygon fill="#e0e0e0" stroke="#999999" points="712.51,-2235577.65 539.01,-2235577.65 539.01,-2235559.15 712.51,-2235559.15 712.51,-2235577.65"/>
<text text-anchor="middle" x="625.76" y="-2235564.15" font-family="Helvetica,sans-Serif" font-size="10.00">sqsh_reader_private.h</text>
</a>
</g>
</g>
<!-- Node10&#45;&gt;Node12 -->
<g id="edge13_Node000010_Node000012" class="edge">
<title>Node10&#45;&gt;Node12</title>
<g id="a_edge13_Node000010_Node000012"><a xlink:title=" ">
<path fill="none" stroke="#63b8ff" d="M553.76,-3725873.37C554,-3720987.92 625.46,-2241815.54 625.76,-2235589.11"/>
<polygon fill="#63b8ff" stroke="#63b8ff" points="629.26,-2235589.31 625.76,-2235579.31 622.26,-2235589.31 629.26,-2235589.31"/>
</a>
</g>
</g>
<!-- Node11&#45;&gt;Node5 -->
<g id="edge11_Node000011_Node000005" class="edge">
<title>Node11&#45;&gt;Node5</title>
<g id="a_edge11_Node000011_Node000005"><a xlink:title=" ">
<path fill="none" stroke="#63b8ff" d="M787.76,-2235558.85C787.76,-2233394.85 788.03,-1820694.25 721.76,-1490360.38 680.5,-1284691.53 600.63,-1047092.29 546.01,-896536.42"/>
<polygon fill="#63b8ff" stroke="#63b8ff" points="549.51,-896536.74 546.01,-896526.74 542.51,-896536.74 549.51,-896536.74"/>
</a>
</g>
</g>
<!-- Node11&#45;&gt;Node7 -->
<g id="edge12_Node000011_Node000007" class="edge">
<title>Node11&#45;&gt;Node7</title>
<g id="a_edge12_Node000011_Node000007"><a xlink:title=" ">
<path fill="none" stroke="#63b8ff" d="M787.76,-2235558.85C787.59,-2230530.37 712.02,-7692.53 711.76,-30.11"/>
<polygon fill="#63b8ff" stroke="#63b8ff" points="715.26,-30.29 711.76,-20.29 708.26,-30.29 715.26,-30.29"/>
</a>
</g>
</g>
<!-- Node13&#45;&gt;Node5 -->
<g id="edge16_Node000013_Node000005" class="edge">
<title>Node13&#45;&gt;Node5</title>
<g id="a_edge16_Node000013_Node000005"><a xlink:title=" ">
<path fill="none" stroke="#63b8ff" d="M76.76,-3725876.95C76.63,-3723713.24 52.63,-3311066.87 45.76,-2980776.41 38.87,-2649572.85 -52.69,-1821563.93 45.76,-1490360.38 119.14,-1243496.49 329.26,-950630.05 431.5,-817500.78"/>
<polygon fill="#63b8ff" stroke="#63b8ff" points="435,-817500.87 431.51,-817490.86 428,-817500.86 435,-817500.87"/>
</a>
</g>
</g>
</g>
</svg>
