<?xml version="1.0" encoding="UTF-8" standalone="no"?>
<!DOCTYPE svg PUBLIC "-//W3C//DTD SVG 1.1//EN"
 "http://www.w3.org/Graphics/SVG/1.1/DTD/svg11.dtd">
<!-- Generated by graphviz version 9.0.0 (20230911.1827)
 -->
<!-- Title: libsqsh/include/sqsh_xattr_private.h Pages: 1 -->
<!--zoomable 2034044 -->

<svg id="main" version="1.1" xmlns="http://www.w3.org/2000/svg" xmlns:xlink="http://www.w3.org/1999/xlink" xml:space="preserve" onload="init(evt)">
<style type="text/css"><![CDATA[
.node, .edge {opacity: 0.7;}
.node.selected, .edge.selected {opacity: 1;}
.edge:hover path { stroke: red; }
.edge:hover polygon { stroke: red; fill: red; }
]]></style>

<defs>
  <circle id="rim" cx="0" cy="0" r="7"/>
  <circle id="rim2" cx="0" cy="0" r="3.5"/>
  <g id="zoomPlus">
    <use xlink:href="#rim" fill="#404040"><set attributeName="fill" to="#808080" begin="zoomplus.mouseover" end="zoomplus.mouseout"/></use>
    <path d="M-4,0h8M0,-4v8" fill="none" stroke="white" stroke-width="1.5" pointer-events="none"/>
  </g>
  <g id="zoomMin">
    <use xlink:href="#rim" fill="#404040"><set attributeName="fill" to="#808080" begin="zoomminus.mouseover" end="zoomminus.mouseout"/></use>
    <path d="M-4,0h8" fill="none" stroke="white" stroke-width="1.5" pointer-events="none"/>
  </g>
  <g id="arrowUp" transform="translate(30 24)">
    <use xlink:href="#rim"/>
    <path pointer-events="none" fill="none" stroke="white" stroke-width="1.5" d="M0,-3.0v7 M-2.5,-0.5L0,-3.0L2.5,-0.5"/>
  </g>
  <g id="arrowRight" transform="rotate(90) translate(36 -43)">
    <use xlink:href="#rim"/>
    <path pointer-events="none" fill="none" stroke="white" stroke-width="1.5" d="M0,-3.0v7 M-2.5,-0.5L0,-3.0L2.5,-0.5"/>
  </g>
  <g id="arrowDown" transform="rotate(180) translate(-30 -48)">
    <use xlink:href="#rim"/>
    <path pointer-events="none" fill="none" stroke="white" stroke-width="1.5" d="M0,-3.0v7 M-2.5,-0.5L0,-3.0L2.5,-0.5"/>
  </g>
  <g id="arrowLeft" transform="rotate(270) translate(-36 17)">
    <use xlink:href="#rim"/>
    <path pointer-events="none" fill="none" stroke="white" stroke-width="1.5" d="M0,-3.0v7 M-2.5,-0.5L0,-3.0L2.5,-0.5"/>
  </g>
  <g id="resetDef">
    <use xlink:href="#rim2" fill="#404040"><set attributeName="fill" to="#808080" begin="reset.mouseover" end="reset.mouseout"/></use>
  </g>
</defs>
<script type="application/ecmascript">
var viewWidth = 1013;
var viewHeight = 2034044;
var sectionId = 'dynsection-0';
</script>
<script type="application/ecmascript" xlink:href="svg.min.js"/>
<svg id="graph" class="graph">
<g id="viewport">
<title>libsqsh/include/sqsh_xattr_private.h</title>
<!-- Node1 -->
<g id="Node000001" class="node">
<title>Node1</title>
<g id="a_Node000001"><a xlink:title=" ">
<polygon fill="#999999" stroke="#666666" points="735.75,-2034036.08 569.75,-2034036.08 569.75,-2034007.08 735.75,-2034007.08 735.75,-2034036.08"/>
<text text-anchor="start" x="577.75" y="-2034022.58" font-family="Helvetica,sans-Serif" font-size="10.00">libsqsh/include/sqsh</text>
<text text-anchor="middle" x="652.75" y="-2034012.08" font-family="Helvetica,sans-Serif" font-size="10.00">_xattr_private.h</text>
</a>
</g>
</g>
<!-- Node2 -->
<g id="Node000002" class="node">
<title>Node2</title>
<g id="a_Node000002"><a xlink:href="sqsh__metablock__private_8h.html" target="_top" xlink:title=" ">
<polygon fill="white" stroke="#666666" points="551.75,-2033959.11 355.75,-2033959.11 355.75,-2033940.6 551.75,-2033940.6 551.75,-2033959.11"/>
<text text-anchor="middle" x="453.75" y="-2033945.61" font-family="Helvetica,sans-Serif" font-size="10.00">sqsh_metablock_private.h</text>
</a>
</g>
</g>
<!-- Node1&#45;&gt;Node2 -->
<g id="edge1_Node000001_Node000002" class="edge">
<title>Node1&#45;&gt;Node2</title>
<g id="a_edge1_Node000001_Node000002"><a xlink:title=" ">
<path fill="none" stroke="#63b8ff" d="M612.96,-2034006.64C576.83,-2033993.98 524.03,-2033975.48 489.29,-2033963.31"/>
<polygon fill="#63b8ff" stroke="#63b8ff" points="490.71,-2033960.1 480.12,-2033960.09 488.4,-2033966.7 490.71,-2033960.1"/>
</a>
</g>
</g>
<!-- Node14 -->
<g id="Node000014" class="node">
<title>Node14</title>
<g id="a_Node000014"><a xlink:href="sqsh__table__private_8h.html" target="_top" xlink:title=" ">
<polygon fill="white" stroke="#666666" points="735.75,-2033971.08 569.75,-2033971.08 569.75,-2033928.63 735.75,-2033928.63 735.75,-2033971.08"/>
<text text-anchor="middle" x="652.75" y="-2033957.58" font-family="Helvetica,sans-Serif" font-size="10.00">sqsh_table_private.h</text>
</a>
</g>
</g>
<!-- Node1&#45;&gt;Node14 -->
<g id="edge16_Node000001_Node000014" class="edge">
<title>Node1&#45;&gt;Node14</title>
<g id="a_edge16_Node000001_Node000014"><a xlink:title=" ">
<path fill="none" stroke="#63b8ff" d="M652.75,-2034006.8C652.75,-2033999.95 652.75,-2033991.36 652.75,-2033982.98"/>
<polygon fill="#63b8ff" stroke="#63b8ff" points="656.25,-2033982.99 652.75,-2033972.99 649.25,-2033982.99 656.25,-2033982.99"/>
</a>
</g>
</g>
<!-- Node16 -->
<g id="Node000016" class="node">
<title>Node16</title>
<g id="a_Node000016"><a xlink:href="sqsh__xattr_8h.html" target="_top" xlink:title=" ">
<polygon fill="white" stroke="#666666" points="908.75,-1694861.7 802.75,-1694861.7 802.75,-1694843.2 908.75,-1694843.2 908.75,-1694861.7"/>
<text text-anchor="middle" x="855.75" y="-1694848.2" font-family="Helvetica,sans-Serif" font-size="10.00">sqsh_xattr.h</text>
</a>
</g>
</g>
<!-- Node1&#45;&gt;Node16 -->
<g id="edge21_Node000001_Node000016" class="edge">
<title>Node1&#45;&gt;Node16</title>
<g id="a_edge21_Node000001_Node000016"><a xlink:title=" ">
<path fill="none" stroke="#63b8ff" d="M688.26,-2034006.73C706.6,-2033998.36 728.47,-2033986.33 744.75,-2033971.08 774.74,-2033942.97 782.42,-2033932.15 793.75,-2033892.63 1116.8,-2032766.06 858.08,-1697854.89 855.77,-1694873.47"/>
<polygon fill="#63b8ff" stroke="#63b8ff" points="859.27,-1694873.64 855.76,-1694863.64 852.27,-1694873.65 859.27,-1694873.64"/>
</a>
</g>
</g>
<!-- Node3 -->
<g id="Node000003" class="node">
<title>Node3</title>
<g id="a_Node000003"><a xlink:href="sqsh__extract__private_8h.html" target="_top" xlink:title=" ">
<polygon fill="white" stroke="#666666" points="660.25,-1694861.7 479.25,-1694861.7 479.25,-1694843.2 660.25,-1694843.2 660.25,-1694861.7"/>
<text text-anchor="middle" x="569.75" y="-1694848.2" font-family="Helvetica,sans-Serif" font-size="10.00">sqsh_extract_private.h</text>
</a>
</g>
</g>
<!-- Node2&#45;&gt;Node3 -->
<g id="edge2_Node000002_Node000003" class="edge">
<title>Node2&#45;&gt;Node3</title>
<g id="a_edge2_Node000002_Node000003"><a xlink:title=" ">
<path fill="none" stroke="#63b8ff" d="M457.21,-2033940.27C461.39,-2033929.4 468.18,-2033909.98 470.75,-2033892.63 813.98,-2031573.94 571.93,-1697844.28 569.76,-1694873.4"/>
<polygon fill="#63b8ff" stroke="#63b8ff" points="573.26,-1694873.61 569.76,-1694863.61 566.26,-1694873.61 573.26,-1694873.61"/>
</a>
</g>
</g>
<!-- Node11 -->
<g id="Node000011" class="node">
<title>Node11</title>
<g id="a_Node000011"><a xlink:href="sqsh__mapper__private_8h.html" target="_top" xlink:title=" ">
<polygon fill="white" stroke="#666666" points="461.5,-2033892.63 288,-2033892.63 288,-1355812.26 461.5,-1355812.26 461.5,-2033892.63"/>
<text text-anchor="middle" x="374.75" y="-2033879.13" font-family="Helvetica,sans-Serif" font-size="10.00">sqsh_mapper_private.h</text>
</a>
</g>
</g>
<!-- Node2&#45;&gt;Node11 -->
<g id="edge10_Node000002_Node000011" class="edge">
<title>Node2&#45;&gt;Node11</title>
<g id="a_edge10_Node000002_Node000011"><a xlink:title=" ">
<path fill="none" stroke="#63b8ff" d="M453.75,-2033940.14C453.75,-2033932.82 453.74,-2033920.9 453.74,-2033904.42"/>
<polygon fill="#63b8ff" stroke="#63b8ff" points="457.24,-2033904.44 453.74,-2033894.44 450.24,-2033904.44 457.24,-2033904.44"/>
</a>
</g>
</g>
<!-- Node4 -->
<g id="Node000004" class="node">
<title>Node4</title>
<g id="a_Node000004"><a xlink:title=" ">
<polygon fill="#e0e0e0" stroke="#999999" points="673.75,-1355776.26 507.75,-1355776.26 507.75,-1355733.81 673.75,-1355733.81 673.75,-1355776.26"/>
<text text-anchor="middle" x="590.75" y="-1355762.76" font-family="Helvetica,sans-Serif" font-size="10.00">cextras/collection.h</text>
</a>
</g>
</g>
<!-- Node3&#45;&gt;Node4 -->
<g id="edge3_Node000003_Node000004" class="edge">
<title>Node3&#45;&gt;Node4</title>
<g id="a_edge3_Node000003_Node000004"><a xlink:title=" ">
<path fill="none" stroke="#63b8ff" d="M569.75,-1694842.73C569.87,-1692878.61 590.52,-1359548.43 590.75,-1355788.09"/>
<polygon fill="#63b8ff" stroke="#63b8ff" points="594.25,-1355788.12 590.75,-1355778.12 587.25,-1355788.12 594.25,-1355788.12"/>
</a>
</g>
</g>
<!-- Node5 -->
<g id="Node000005" class="node">
<title>Node5</title>
<g id="a_Node000005"><a xlink:href="sqsh__data_8h.html" target="_top" xlink:title=" ">
<polygon fill="white" stroke="#666666" points="790,-1355768.04 691.5,-1355768.04 691.5,-1355742.04 790,-1355742.04 790,-1355768.04"/>
<text text-anchor="middle" x="740.75" y="-1355754.54" font-family="Helvetica,sans-Serif" font-size="10.00">sqsh_data.h</text>
</a>
</g>
</g>
<!-- Node3&#45;&gt;Node5 -->
<g id="edge4_Node000003_Node000005" class="edge">
<title>Node3&#45;&gt;Node5</title>
<g id="a_edge4_Node000003_Node000005"><a xlink:title=" ">
<path fill="none" stroke="#63b8ff" d="M569.75,-1694842.75C568.84,-1692870.89 414.12,-1356340.55 669.75,-1355812.26 677.43,-1355796.39 692,-1355783.63 705.96,-1355774.31"/>
<polygon fill="#63b8ff" stroke="#63b8ff" points="707.51,-1355777.47 714.14,-1355769.21 703.8,-1355771.53 707.51,-1355777.47"/>
</a>
</g>
</g>
<!-- Node10 -->
<g id="Node000010" class="node">
<title>Node10</title>
<g id="a_Node000010"><a xlink:title=" ">
<polygon fill="#e0e0e0" stroke="#999999" points="489.75,-1355764.29 323.75,-1355764.29 323.75,-1355745.79 489.75,-1355745.79 489.75,-1355764.29"/>
<text text-anchor="middle" x="406.75" y="-1355750.79" font-family="Helvetica,sans-Serif" font-size="10.00">sqsh_utils_private.h</text>
</a>
</g>
</g>
<!-- Node3&#45;&gt;Node10 -->
<g id="edge9_Node000003_Node000010" class="edge">
<title>Node3&#45;&gt;Node10</title>
<g id="a_edge9_Node000003_Node000010"><a xlink:title=" ">
<path fill="none" stroke="#63b8ff" d="M569.75,-1694842.75C570.59,-1692870.93 712.81,-1356346.9 470.75,-1355812.26 462.82,-1355794.74 446.44,-1355780.52 432.24,-1355770.76"/>
<polygon fill="#63b8ff" stroke="#63b8ff" points="434.46,-1355768.03 424.15,-1355765.55 430.66,-1355773.91 434.46,-1355768.03"/>
</a>
</g>
</g>
<!-- Node6 -->
<g id="Node000006" class="node">
<title>Node6</title>
<g id="a_Node000006"><a xlink:href="sqsh__common_8h.html" target="_top" xlink:title=" ">
<polygon fill="white" stroke="#666666" points="797.5,-1355697.81 684,-1355697.81 684,-677867 797.5,-677867 797.5,-1355697.81"/>
<text text-anchor="middle" x="740.75" y="-1355684.31" font-family="Helvetica,sans-Serif" font-size="10.00">sqsh_common.h</text>
</a>
</g>
</g>
<!-- Node5&#45;&gt;Node6 -->
<g id="edge5_Node000005_Node000006" class="edge">
<title>Node5&#45;&gt;Node6</title>
<g id="a_edge5_Node000005_Node000006"><a xlink:title=" ">
<path fill="none" stroke="#63b8ff" d="M740.75,-1355741.76C740.75,-1355734.35 740.75,-1355723.61 740.75,-1355709.54"/>
<polygon fill="#63b8ff" stroke="#63b8ff" points="744.25,-1355709.65 740.75,-1355699.65 737.25,-1355709.65 744.25,-1355709.65"/>
</a>
</g>
</g>
<!-- Node7 -->
<g id="Node000007" class="node">
<title>Node7</title>
<g id="a_Node000007"><a xlink:title=" ">
<polygon fill="#e0e0e0" stroke="#999999" points="831.5,-677831 748,-677831 748,0 831.5,0 831.5,-677831"/>
<text text-anchor="middle" x="789.75" y="-677817.5" font-family="Helvetica,sans-Serif" font-size="10.00">stdbool.h</text>
</a>
</g>
</g>
<!-- Node6&#45;&gt;Node7 -->
<g id="edge6_Node000006_Node000007" class="edge">
<title>Node6&#45;&gt;Node7</title>
<g id="a_edge6_Node000006_Node000007"><a xlink:title=" ">
<path fill="none" stroke="#63b8ff" d="M765.25,-677866.89C765.25,-677858.87 765.25,-677850.85 765.25,-677842.83"/>
<polygon fill="#63b8ff" stroke="#63b8ff" points="768.75,-677843.01 765.25,-677833.01 761.75,-677843.01 768.75,-677843.01"/>
</a>
</g>
</g>
<!-- Node8 -->
<g id="Node000008" class="node">
<title>Node8</title>
<g id="a_Node000008"><a xlink:title=" ">
<polygon fill="#e0e0e0" stroke="#999999" points="536.75,-338928.5 460.75,-338928.5 460.75,-338902.5 536.75,-338902.5 536.75,-338928.5"/>
<text text-anchor="middle" x="498.75" y="-338915" font-family="Helvetica,sans-Serif" font-size="10.00">stddef.h</text>
</a>
</g>
</g>
<!-- Node6&#45;&gt;Node8 -->
<g id="edge7_Node000006_Node000008" class="edge">
<title>Node6&#45;&gt;Node8</title>
<g id="a_edge7_Node000006_Node000008"><a xlink:title=" ">
<path fill="none" stroke="#63b8ff" d="M683.5,-856419.12C612.3,-656982.69 499.88,-342084.12 498.76,-338940.22"/>
<polygon fill="#63b8ff" stroke="#63b8ff" points="502.26,-338940.33 498.75,-338930.33 495.26,-338940.33 502.26,-338940.33"/>
</a>
</g>
</g>
<!-- Node9 -->
<g id="Node000009" class="node">
<title>Node9</title>
<g id="a_Node000009"><a xlink:title=" ">
<polygon fill="#e0e0e0" stroke="#999999" points="729.75,-338924.75 653.75,-338924.75 653.75,-338906.25 729.75,-338906.25 729.75,-338924.75"/>
<text text-anchor="middle" x="691.75" y="-338911.25" font-family="Helvetica,sans-Serif" font-size="10.00">stdint.h</text>
</a>
</g>
</g>
<!-- Node6&#45;&gt;Node9 -->
<g id="edge8_Node000006_Node000009" class="edge">
<title>Node6&#45;&gt;Node9</title>
<g id="a_edge8_Node000006_Node000009"><a xlink:title=" ">
<path fill="none" stroke="#63b8ff" d="M716.25,-677866.89C704.08,-509458.59 691.9,-341044.38 691.75,-338936.5"/>
<polygon fill="#63b8ff" stroke="#63b8ff" points="695.25,-338936.76 691.75,-338926.76 688.25,-338936.76 695.25,-338936.76"/>
</a>
</g>
</g>
<!-- Node11&#45;&gt;Node10 -->
<g id="edge15_Node000011_Node000010" class="edge">
<title>Node11&#45;&gt;Node10</title>
<g id="a_edge15_Node000011_Node000010"><a xlink:title=" ">
<path fill="none" stroke="#63b8ff" d="M406.74,-1355812.16C406.75,-1355797.06 406.75,-1355784.99 406.75,-1355775.97"/>
<polygon fill="#63b8ff" stroke="#63b8ff" points="410.25,-1355776.14 406.75,-1355766.14 403.25,-1355776.14 410.25,-1355776.14"/>
</a>
</g>
</g>
<!-- Node12 -->
<g id="Node000012" class="node">
<title>Node12</title>
<g id="a_Node000012"><a xlink:href="sqsh__mapper_8h.html" target="_top" xlink:title=" ">
<polygon fill="white" stroke="#666666" points="305.5,-1355764.29 192,-1355764.29 192,-1355745.79 305.5,-1355745.79 305.5,-1355764.29"/>
<text text-anchor="middle" x="248.75" y="-1355750.79" font-family="Helvetica,sans-Serif" font-size="10.00">sqsh_mapper.h</text>
</a>
</g>
</g>
<!-- Node11&#45;&gt;Node12 -->
<g id="edge11_Node000011_Node000012" class="edge">
<title>Node11&#45;&gt;Node12</title>
<g id="a_edge11_Node000011_Node000012"><a xlink:title=" ">
<path fill="none" stroke="#63b8ff" d="M287.5,-1460041.4C266.14,-1402547.26 249.16,-1356868.75 248.76,-1355776.06"/>
<polygon fill="#63b8ff" stroke="#63b8ff" points="252.26,-1355776.24 248.75,-1355766.24 245.26,-1355776.24 252.26,-1355776.24"/>
</a>
</g>
</g>
<!-- Node13 -->
<g id="Node000013" class="node">
<title>Node13</title>
<g id="a_Node000013"><a xlink:title=" ">
<polygon fill="#e0e0e0" stroke="#999999" points="173.5,-1355768.04 0,-1355768.04 0,-1355742.04 173.5,-1355742.04 173.5,-1355768.04"/>
<text text-anchor="middle" x="86.75" y="-1355754.54" font-family="Helvetica,sans-Serif" font-size="10.00">sqsh_reader_private.h</text>
</a>
</g>
</g>
<!-- Node11&#45;&gt;Node13 -->
<g id="edge14_Node000011_Node000013" class="edge">
<title>Node11&#45;&gt;Node13</title>
<g id="a_edge14_Node000011_Node000013"><a xlink:title=" ">
<path fill="none" stroke="#63b8ff" d="M287.5,-1592122.14C203.39,-1493083.88 88.52,-1357834.55 86.77,-1355779.73"/>
<polygon fill="#63b8ff" stroke="#63b8ff" points="90.27,-1355779.88 86.76,-1355769.88 83.27,-1355779.89 90.27,-1355779.88"/>
</a>
</g>
</g>
<!-- Node12&#45;&gt;Node6 -->
<g id="edge12_Node000012_Node000006" class="edge">
<title>Node12&#45;&gt;Node6</title>
<g id="a_edge12_Node000012_Node000006"><a xlink:title=" ">
<path fill="none" stroke="#63b8ff" d="M265.12,-1355745.4C280.9,-1355736.05 303.81,-1355719.52 313.75,-1355697.81 1080.04,-1354024.62 909.04,-1147754.61 798.01,-1057868.66"/>
<polygon fill="#63b8ff" stroke="#63b8ff" points="801.51,-1057868.85 798,-1057858.86 794.51,-1057868.86 801.51,-1057868.85"/>
</a>
</g>
</g>
<!-- Node12&#45;&gt;Node8 -->
<g id="edge13_Node000012_Node000008" class="edge">
<title>Node12&#45;&gt;Node8</title>
<g id="a_edge13_Node000012_Node000008"><a xlink:title=" ">
<path fill="none" stroke="#63b8ff" d="M248.75,-1355745.45C249.59,-1352352.94 497.36,-344565.16 498.74,-338940.14"/>
<polygon fill="#63b8ff" stroke="#63b8ff" points="502.24,-338940.33 498.75,-338930.33 495.24,-338940.33 502.24,-338940.33"/>
</a>
</g>
</g>
<!-- Node14&#45;&gt;Node3 -->
<g id="edge17_Node000014_Node000003" class="edge">
<title>Node14&#45;&gt;Node3</title>
<g id="a_edge17_Node000014_Node000003"><a xlink:title=" ">
<path fill="none" stroke="#63b8ff" d="M652.74,-2033928.17C652.01,-2030906.17 570.48,-1697838.33 569.75,-1694873.36"/>
<polygon fill="#63b8ff" stroke="#63b8ff" points="573.26,-1694873.59 569.75,-1694863.59 566.26,-1694873.6 573.26,-1694873.59"/>
</a>
</g>
</g>
<!-- Node14&#45;&gt;Node11 -->
<g id="edge18_Node000014_Node000011" class="edge">
<title>Node14&#45;&gt;Node11</title>
<g id="a_edge18_Node000014_Node000011"><a xlink:title=" ">
<path fill="none" stroke="#63b8ff" d="M569.87,-2033928.2C524.54,-2033916.07 476.26,-2033901.44 469.75,-2033892.63 -50.33,-2033188.98 150.23,-1846227.87 287.48,-1750278.06"/>
<polygon fill="#63b8ff" stroke="#63b8ff" points="290.98,-1750278.32 287.5,-1750268.32 283.98,-1750278.31 290.98,-1750278.32"/>
</a>
</g>
</g>
<!-- Node15 -->
<g id="Node000015" class="node">
<title>Node15</title>
<g id="a_Node000015"><a xlink:href="sqsh__table_8h.html" target="_top" xlink:title=" ">
<polygon fill="white" stroke="#666666" points="784.75,-1694861.7 678.75,-1694861.7 678.75,-1694843.2 784.75,-1694843.2 784.75,-1694861.7"/>
<text text-anchor="middle" x="731.75" y="-1694848.2" font-family="Helvetica,sans-Serif" font-size="10.00">sqsh_table.h</text>
</a>
</g>
</g>
<!-- Node14&#45;&gt;Node15 -->
<g id="edge19_Node000014_Node000015" class="edge">
<title>Node14&#45;&gt;Node15</title>
<g id="a_edge19_Node000014_Node000015"><a xlink:title=" ">
<path fill="none" stroke="#63b8ff" d="M660.07,-2033928.32C663.45,-2033917.8 667.07,-2033904.69 668.75,-2033892.63 830.81,-2032731.91 732.63,-1697854.59 731.76,-1694873.47"/>
<polygon fill="#63b8ff" stroke="#63b8ff" points="735.26,-1694873.64 731.75,-1694863.64 728.26,-1694873.64 735.26,-1694873.64"/>
</a>
</g>
</g>
<!-- Node15&#45;&gt;Node6 -->
<g id="edge20_Node000015_Node000006" class="edge">
<title>Node15&#45;&gt;Node6</title>
<g id="a_edge20_Node000015_Node000006"><a xlink:title=" ">
<path fill="none" stroke="#63b8ff" d="M731.75,-1694842.79C731.16,-1692881.52 631.68,-1358154.2 793.75,-1355812.26 794.87,-1355796.14 797.64,-1355792.37 798.75,-1355776.26 800.05,-1355757.44 798.75,-1355752.68 798.75,-1355733.81 798.51,-1352943.12 798.26,-1350139.5 798,-1347324.4"/>
<polygon fill="#63b8ff" stroke="#63b8ff" points="801.5,-1347324.55 798,-1347314.55 794.5,-1347324.55 801.5,-1347324.55"/>
</a>
</g>
</g>
<!-- Node16&#45;&gt;Node5 -->
<g id="edge23_Node000016_Node000005" class="edge">
<title>Node16&#45;&gt;Node5</title>
<g id="a_edge23_Node000016_Node000005"><a xlink:title=" ">
<path fill="none" stroke="#63b8ff" d="M855.76,-1694842.76C857.93,-1692874.19 1226.99,-1356903.15 793.75,-1355812.26 788.14,-1355798.13 777.12,-1355785.5 766.57,-1355775.81"/>
<polygon fill="#63b8ff" stroke="#63b8ff" points="768.96,-1355773.24 759.1,-1355769.37 764.39,-1355778.55 768.96,-1355773.24"/>
</a>
</g>
</g>
<!-- Node16&#45;&gt;Node6 -->
<g id="edge22_Node000016_Node000006" class="edge">
<title>Node16&#45;&gt;Node6</title>
<g id="a_edge22_Node000016_Node000006"><a xlink:title=" ">
<path fill="none" stroke="#63b8ff" d="M855.75,-1694842.83C855.62,-1693380.16 839.21,-1505864.01 813.75,-1355733.81 809.09,-1328253.91 803.7,-1299520.81 798,-1270906.13"/>
<polygon fill="#63b8ff" stroke="#63b8ff" points="801.5,-1270906.18 798,-1270896.18 794.5,-1270906.18 801.5,-1270906.18"/>
</a>
</g>
</g>
</g>
</svg>

<g id="navigator" transform="translate(0 0)" fill="#404254">
  <rect fill="#f2f5e9" fill-opacity="0.5" stroke="#606060" stroke-width=".5" x="0" y="0" width="60" height="60"/>
  <use id="zoomplus" xlink:href="#zoomPlus" x="17" y="9" onmousedown="handleZoom(evt,'in')"/>
  <use id="zoomminus" xlink:href="#zoomMin" x="42" y="9" onmousedown="handleZoom(evt,'out')"/>
  <use id="reset" xlink:href="#resetDef" x="30" y="36" onmousedown="handleReset()"/>
   <use id="arrowup" xlink:href="#arrowUp" x="0" y="0" onmousedown="handlePan(0,-1)"/>
  <use id="arrowright" xlink:href="#arrowRight" x="0" y="0" onmousedown="handlePan(1,0)"/>
  <use id="arrowdown" xlink:href="#arrowDown" x="0" y="0" onmousedown="handlePan(0,1)"/>
  <use id="arrowleft" xlink:href="#arrowLeft" x="0" y="0" onmousedown="handlePan(-1,0)"/>
</g>
<svg viewBox="0 0 15 15" width="100%" height="30px" preserveAspectRatio="xMaxYMin meet">
 <g id="arrow_out" transform="scale(0.3 0.3)">
  <a xlink:href="sqsh__xattr__private_8h__incl_org.svg" target="_base">
   <rect id="button" ry="5" rx="5" y="6" x="6" height="38" width="38"
        fill="#f2f5e9" fill-opacity="0.5" stroke="#606060" stroke-width="1.0"/>
   <path id="arrow"
     d="M 11.500037,31.436501 C 11.940474,20.09759 22.043105,11.32322 32.158766,21.979434 L 37.068811,17.246167 C 37.068811,17.246167 37.088388,32 37.088388,32 L 22.160133,31.978069 C 22.160133,31.978069 26.997745,27.140456 26.997745,27.140456 C 18.528582,18.264221 13.291696,25.230495 11.500037,31.436501 z"
     style="fill:#404040;"/>
  </a>
 </g>
</svg>

<style type='text/css'>
<![CDATA[
[data-mouse-over-selected='false'] { opacity: 0.7; }
[data-mouse-over-selected='true']  { opacity: 1.0; }
]]>
</style>
<script type="application/ecmascript"><![CDATA[
document.addEventListener('DOMContentLoaded', (event) => {
  highlightEdges();
  highlightAdjacentNodes();
});
]]></script>
</svg>
