<?xml version="1.0" encoding="UTF-8" standalone="no"?>
<!DOCTYPE svg PUBLIC "-//W3C//DTD SVG 1.1//EN"
 "http://www.w3.org/Graphics/SVG/1.1/DTD/svg11.dtd">
<!-- Generated by graphviz version 9.0.0 (20230911.1827)
 -->
<!-- Title: include/sqsh_mapper.h Pages: 1 -->
<svg width="309pt" height="884288pt"
 viewBox="0.00 0.00 308.52 884287.60" xmlns="http://www.w3.org/2000/svg" xmlns:xlink="http://www.w3.org/1999/xlink">
<g id="graph0" class="graph" transform="scale(1 1) rotate(0) translate(4 884283.6)">
<title>include/sqsh_mapper.h</title>
<!-- Node1 -->
<g id="Node000001" class="node">
<title>Node1</title>
<g id="a_Node000001"><a xlink:title=" ">
<polygon fill="#999999" stroke="#666666" points="272.5,-884279.6 99,-884279.6 99,-884261.1 272.5,-884261.1 272.5,-884279.6"/>
<text text-anchor="middle" x="185.75" y="-884266.1" font-family="Helvetica,sans-Serif" font-size="10.00">include/sqsh_mapper.h</text>
</a>
</g>
</g>
<!-- Node2 -->
<g id="Node000002" class="node">
<title>Node2</title>
<g id="a_Node000002"><a xlink:href="sqsh__common_8h.html" target="_top" xlink:title=" ">
<polygon fill="white" stroke="#666666" points="200.5,-884225.1 87,-884225.1 87,-884206.6 200.5,-884206.6 200.5,-884225.1"/>
<text text-anchor="middle" x="143.75" y="-884211.6" font-family="Helvetica,sans-Serif" font-size="10.00">sqsh_common.h</text>
</a>
</g>
</g>
<!-- Node1&#45;&gt;Node2 -->
<g id="edge1_Node000001_Node000002" class="edge">
<title>Node1&#45;&gt;Node2</title>
<g id="a_edge1_Node000001_Node000002"><a xlink:title=" ">
<path fill="none" stroke="#63b8ff" d="M178.81,-884260.68C173.07,-884253.5 164.71,-884243.06 157.6,-884234.17"/>
<polygon fill="#63b8ff" stroke="#63b8ff" points="160.48,-884232.16 151.5,-884226.54 155.02,-884236.54 160.48,-884232.16"/>
</a>
</g>
</g>
<!-- Node4 -->
<g id="Node000004" class="node">
<title>Node4</title>
<g id="a_Node000004"><a xlink:title=" ">
<polygon fill="#e0e0e0" stroke="#999999" points="271.75,-442094.55 195.75,-442094.55 195.75,-442076.05 271.75,-442076.05 271.75,-442094.55"/>
<text text-anchor="middle" x="233.75" y="-442081.05" font-family="Helvetica,sans-Serif" font-size="10.00">stddef.h</text>
</a>
</g>
</g>
<!-- Node1&#45;&gt;Node4 -->
<g id="edge5_Node000001_Node000004" class="edge">
<title>Node1&#45;&gt;Node4</title>
<g id="a_edge5_Node000001_Node000004"><a xlink:title=" ">
<path fill="none" stroke="#63b8ff" d="M192.12,-884260.75C198.01,-884252.2 206.35,-884238.49 209.75,-884225.1 397.81,-883483.98 235.03,-445524.95 233.76,-442106.42"/>
<polygon fill="#63b8ff" stroke="#63b8ff" points="237.26,-442106.5 233.75,-442096.5 230.26,-442106.5 237.26,-442106.5"/>
</a>
</g>
</g>
<!-- Node3 -->
<g id="Node000003" class="node">
<title>Node3</title>
<g id="a_Node000003"><a xlink:title=" ">
<polygon fill="#e0e0e0" stroke="#999999" points="83.5,-884077.17 0,-884077.17 0,-93.43 83.5,-93.43 83.5,-884077.17"/>
<text text-anchor="middle" x="41.75" y="-884063.67" font-family="Helvetica,sans-Serif" font-size="10.00">stdbool.h</text>
</a>
</g>
</g>
<!-- Node2&#45;&gt;Node3 -->
<g id="edge2_Node000002_Node000003" class="edge">
<title>Node2&#45;&gt;Node3</title>
<g id="a_edge2_Node000002_Node000003"><a xlink:title=" ">
<path fill="none" stroke="#63b8ff" d="M128.02,-884206.3C115.87,-884198.71 99.95,-884186.38 92.75,-884170.6 89.77,-884164.08 86.89,-884003.63 84.1,-883694.99"/>
<polygon fill="#63b8ff" stroke="#63b8ff" points="87.6,-883694.96 84.01,-883685 80.6,-883695.03 87.6,-883694.96"/>
</a>
</g>
</g>
<!-- Node2&#45;&gt;Node4 -->
<g id="edge3_Node000002_Node000004" class="edge">
<title>Node2&#45;&gt;Node4</title>
<g id="a_edge3_Node000002_Node000004"><a xlink:title=" ">
<path fill="none" stroke="#63b8ff" d="M156.24,-884206.35C166.62,-884198.46 180.63,-884185.69 186.75,-884170.6 330.52,-883816.41 234.51,-445527.54 233.75,-442106.43"/>
<polygon fill="#63b8ff" stroke="#63b8ff" points="237.25,-442106.51 233.75,-442096.51 230.25,-442106.51 237.25,-442106.51"/>
</a>
</g>
</g>
<!-- Node5 -->
<g id="Node000005" class="node">
<title>Node5</title>
<g id="a_Node000005"><a xlink:title=" ">
<polygon fill="#e0e0e0" stroke="#999999" points="177.75,-884170.6 101.75,-884170.6 101.75,0 177.75,0 177.75,-884170.6"/>
<text text-anchor="middle" x="139.75" y="-884157.1" font-family="Helvetica,sans-Serif" font-size="10.00">stdint.h</text>
</a>
</g>
</g>
<!-- Node2&#45;&gt;Node5 -->
<g id="edge4_Node000002_Node000005" class="edge">
<title>Node2&#45;&gt;Node5</title>
<g id="a_edge4_Node000002_Node000005"><a xlink:title=" ">
<path fill="none" stroke="#63b8ff" d="M143.75,-884206.15C143.75,-884200.73 143.75,-884192.78 143.75,-884182.32"/>
<polygon fill="#63b8ff" stroke="#63b8ff" points="147.25,-884182.53 143.75,-884172.53 140.25,-884182.53 147.25,-884182.53"/>
</a>
</g>
</g>
</g>
</svg>
