<?xml version="1.0" encoding="UTF-8" standalone="no"?>
<!DOCTYPE svg PUBLIC "-//W3C//DTD SVG 1.1//EN"
 "http://www.w3.org/Graphics/SVG/1.1/DTD/svg11.dtd">
<!-- Generated by graphviz version 8.0.5 (20230430.1635)
 -->
<!-- Title: include/sqsh.h Pages: 1 -->
<svg width="1179pt" height="324pt"
 viewBox="0.00 0.00 1179.00 323.84" xmlns="http://www.w3.org/2000/svg" xmlns:xlink="http://www.w3.org/1999/xlink">
<g id="graph0" class="graph" transform="scale(1 1) rotate(0) translate(4 319.84)">
<title>include/sqsh.h</title>
<!-- Node1 -->
<g id="node1" class="node">
<title>Node1</title>
<g id="a_node1"><a xlink:title=" ">
<polygon fill="#999999" stroke="#666666" points="743.5,-315.84 622.5,-315.84 622.5,-297.34 743.5,-297.34 743.5,-315.84"/>
<text text-anchor="middle" x="683" y="-302.34" font-family="Helvetica,sans-Serif" font-size="10.00">include/sqsh.h</text>
</a>
</g>
</g>
<!-- Node2 -->
<g id="node2" class="node">
<title>Node2</title>
<g id="a_node2"><a xlink:href="sqsh__archive_8h.html" target="_top" xlink:title=" ">
<polygon fill="white" stroke="#666666" points="654.5,-249.37 533.5,-249.37 533.5,-230.87 654.5,-230.87 654.5,-249.37"/>
<text text-anchor="middle" x="594" y="-235.87" font-family="Helvetica,sans-Serif" font-size="10.00">sqsh_archive.h</text>
</a>
</g>
</g>
<!-- Node1&#45;&gt;Node2 -->
<g id="edge1" class="edge">
<title>Node1&#45;&gt;Node2</title>
<path fill="none" stroke="#63b8ff" d="M671,-296.9C656.58,-286.46 632.17,-268.77 614.7,-256.11"/>
<polygon fill="#63b8ff" stroke="#63b8ff" points="616.96,-252.71 606.81,-249.68 612.86,-258.38 616.96,-252.71"/>
</g>
<!-- Node3 -->
<g id="node3" class="node">
<title>Node3</title>
<g id="a_node3"><a xlink:href="sqsh__common_8h.html" target="_top" xlink:title=" ">
<polygon fill="white" stroke="#666666" points="633.75,-120.89 520.25,-120.89 520.25,-78.45 633.75,-78.45 633.75,-120.89"/>
<text text-anchor="middle" x="577" y="-107.39" font-family="Helvetica,sans-Serif" font-size="10.00">sqsh_common.h</text>
</a>
</g>
</g>
<!-- Node1&#45;&gt;Node3 -->
<g id="edge8" class="edge">
<title>Node1&#45;&gt;Node3</title>
<path fill="none" stroke="#63b8ff" d="M736.45,-296.87C774.94,-289.37 822.09,-277.25 834,-261.34 845.31,-246.24 842.04,-235.96 834,-218.89 800.61,-147.97 708.95,-119.53 644.66,-108.17"/>
<polygon fill="#63b8ff" stroke="#63b8ff" points="645.63,-104.61 635.19,-106.42 644.48,-111.52 645.63,-104.61"/>
</g>
<!-- Node8 -->
<g id="node8" class="node">
<title>Node8</title>
<g id="a_node8"><a xlink:href="sqsh__directory_8h.html" target="_top" xlink:title=" ">
<polygon fill="white" stroke="#666666" points="1171,-261.34 1035,-261.34 1035,-218.89 1171,-218.89 1171,-261.34"/>
<text text-anchor="middle" x="1103" y="-247.84" font-family="Helvetica,sans-Serif" font-size="10.00">sqsh_directory.h</text>
</a>
</g>
</g>
<!-- Node1&#45;&gt;Node8 -->
<g id="edge9" class="edge">
<title>Node1&#45;&gt;Node8</title>
<path fill="none" stroke="#63b8ff" d="M743.77,-299.7C811.68,-292.64 924.74,-279.45 1021,-261.34 1021.98,-261.16 1022.96,-260.97 1023.95,-260.78"/>
<polygon fill="#63b8ff" stroke="#63b8ff" points="1024.58,-264.02 1033.67,-258.58 1023.17,-257.16 1024.58,-264.02"/>
</g>
<!-- Node9 -->
<g id="node9" class="node">
<title>Node9</title>
<g id="a_node9"><a xlink:href="sqsh__file_8h.html" target="_top" xlink:title=" ">
<polygon fill="white" stroke="#666666" points="1046.25,-179.14 947.75,-179.14 947.75,-160.64 1046.25,-160.64 1046.25,-179.14"/>
<text text-anchor="middle" x="997" y="-165.64" font-family="Helvetica,sans-Serif" font-size="10.00">sqsh_file.h</text>
</a>
</g>
</g>
<!-- Node1&#45;&gt;Node9 -->
<g id="edge19" class="edge">
<title>Node1&#45;&gt;Node9</title>
<path fill="none" stroke="#63b8ff" d="M743.87,-305.31C823.13,-303.55 955.42,-295.42 988,-261.34 1005.96,-242.56 1004.54,-210.51 1001.24,-190.04"/>
<polygon fill="#63b8ff" stroke="#63b8ff" points="1004.54,-189.67 999.21,-180.51 997.66,-190.99 1004.54,-189.67"/>
</g>
<!-- Node10 -->
<g id="node10" class="node">
<title>Node10</title>
<g id="a_node10"><a xlink:href="sqsh__easy_8h.html" target="_top" xlink:title=" ">
<polygon fill="white" stroke="#666666" points="267.25,-249.37 168.75,-249.37 168.75,-230.87 267.25,-230.87 267.25,-249.37"/>
<text text-anchor="middle" x="218" y="-235.87" font-family="Helvetica,sans-Serif" font-size="10.00">sqsh_easy.h</text>
</a>
</g>
</g>
<!-- Node1&#45;&gt;Node10 -->
<g id="edge12" class="edge">
<title>Node1&#45;&gt;Node10</title>
<path fill="none" stroke="#63b8ff" d="M622.3,-303.29C542.14,-299.28 396.99,-288.64 276,-261.34 267.22,-259.36 257.93,-256.49 249.42,-253.53"/>
<polygon fill="#63b8ff" stroke="#63b8ff" points="250.74,-249.92 240.15,-249.79 248.35,-256.5 250.74,-249.92"/>
</g>
<!-- Node14 -->
<g id="node14" class="node">
<title>Node14</title>
<g id="a_node14"><a xlink:href="sqsh__error_8h.html" target="_top" xlink:title=" ">
<polygon fill="white" stroke="#666666" points="106,-179.14 0,-179.14 0,-160.64 106,-160.64 106,-179.14"/>
<text text-anchor="middle" x="53" y="-165.64" font-family="Helvetica,sans-Serif" font-size="10.00">sqsh_error.h</text>
</a>
</g>
</g>
<!-- Node1&#45;&gt;Node14 -->
<g id="edge17" class="edge">
<title>Node1&#45;&gt;Node14</title>
<path fill="none" stroke="#63b8ff" d="M622.05,-305.05C502.56,-303.23 242.07,-295.37 160,-261.34 120.88,-245.12 85.47,-209.12 66.83,-187.75"/>
<polygon fill="#63b8ff" stroke="#63b8ff" points="69.04,-185.95 59.9,-180.59 63.7,-190.48 69.04,-185.95"/>
</g>
<!-- Node15 -->
<g id="node15" class="node">
<title>Node15</title>
<g id="a_node15"><a xlink:href="sqsh__mapper_8h.html" target="_top" xlink:title=" ">
<polygon fill="white" stroke="#666666" points="824.75,-249.37 711.25,-249.37 711.25,-230.87 824.75,-230.87 824.75,-249.37"/>
<text text-anchor="middle" x="768" y="-235.87" font-family="Helvetica,sans-Serif" font-size="10.00">sqsh_mapper.h</text>
</a>
</g>
</g>
<!-- Node1&#45;&gt;Node15 -->
<g id="edge20" class="edge">
<title>Node1&#45;&gt;Node15</title>
<path fill="none" stroke="#63b8ff" d="M694.46,-296.9C708.23,-286.46 731.54,-268.77 748.23,-256.11"/>
<polygon fill="#63b8ff" stroke="#63b8ff" points="749.87,-258.51 755.72,-249.68 745.64,-252.93 749.87,-258.51"/>
</g>
<!-- Node16 -->
<g id="node16" class="node">
<title>Node16</title>
<g id="a_node16"><a xlink:href="sqsh__posix_8h.html" target="_top" xlink:title=" ">
<polygon fill="white" stroke="#666666" points="391,-253.12 285,-253.12 285,-227.12 391,-227.12 391,-253.12"/>
<text text-anchor="middle" x="338" y="-239.62" font-family="Helvetica,sans-Serif" font-size="10.00">sqsh_posix.h</text>
</a>
</g>
</g>
<!-- Node1&#45;&gt;Node16 -->
<g id="edge21" class="edge">
<title>Node1&#45;&gt;Node16</title>
<path fill="none" stroke="#63b8ff" d="M622,-298.92C564.31,-291.94 475.56,-279.45 400,-261.34 394.43,-260.01 388.63,-258.41 382.92,-256.7"/>
<polygon fill="#63b8ff" stroke="#63b8ff" points="384.39,-253.18 373.8,-253.55 382.31,-259.87 384.39,-253.18"/>
</g>
<!-- Node17 -->
<g id="node17" class="node">
<title>Node17</title>
<g id="a_node17"><a xlink:href="sqsh__table_8h.html" target="_top" xlink:title=" ">
<polygon fill="white" stroke="#666666" points="750,-179.14 644,-179.14 644,-160.64 750,-160.64 750,-179.14"/>
<text text-anchor="middle" x="697" y="-165.64" font-family="Helvetica,sans-Serif" font-size="10.00">sqsh_table.h</text>
</a>
</g>
</g>
<!-- Node1&#45;&gt;Node17 -->
<g id="edge24" class="edge">
<title>Node1&#45;&gt;Node17</title>
<path fill="none" stroke="#63b8ff" d="M683.88,-297.17C686.09,-275.91 691.93,-219.66 695.02,-189.93"/>
<polygon fill="#63b8ff" stroke="#63b8ff" points="698.57,-190.63 696.12,-180.32 691.61,-189.9 698.57,-190.63"/>
</g>
<!-- Node18 -->
<g id="node18" class="node">
<title>Node18</title>
<g id="a_node18"><a xlink:href="sqsh__tree_8h.html" target="_top" xlink:title=" ">
<polygon fill="white" stroke="#666666" points="979.25,-249.37 880.75,-249.37 880.75,-230.87 979.25,-230.87 979.25,-249.37"/>
<text text-anchor="middle" x="930" y="-235.87" font-family="Helvetica,sans-Serif" font-size="10.00">sqsh_tree.h</text>
</a>
</g>
</g>
<!-- Node1&#45;&gt;Node18 -->
<g id="edge26" class="edge">
<title>Node1&#45;&gt;Node18</title>
<path fill="none" stroke="#63b8ff" d="M723.06,-296.86C760.49,-288.5 817.81,-275.13 867,-261.34 875.81,-258.87 885.23,-255.98 894.03,-253.17"/>
<polygon fill="#63b8ff" stroke="#63b8ff" points="894.95,-256.23 903.38,-249.82 892.79,-249.57 894.95,-256.23"/>
</g>
<!-- Node19 -->
<g id="node19" class="node">
<title>Node19</title>
<g id="a_node19"><a xlink:href="sqsh__xattr_8h.html" target="_top" xlink:title=" ">
<polygon fill="white" stroke="#666666" points="515,-249.37 409,-249.37 409,-230.87 515,-230.87 515,-249.37"/>
<text text-anchor="middle" x="462" y="-235.87" font-family="Helvetica,sans-Serif" font-size="10.00">sqsh_xattr.h</text>
</a>
</g>
</g>
<!-- Node1&#45;&gt;Node19 -->
<g id="edge29" class="edge">
<title>Node1&#45;&gt;Node19</title>
<path fill="none" stroke="#63b8ff" d="M650.52,-296.88C618.5,-288.2 568.24,-274.33 525,-261.34 516.4,-258.76 507.17,-255.86 498.5,-253.09"/>
<polygon fill="#63b8ff" stroke="#63b8ff" points="499.88,-249.54 489.29,-249.8 497.74,-256.2 499.88,-249.54"/>
</g>
<!-- Node2&#45;&gt;Node3 -->
<g id="edge2" class="edge">
<title>Node2&#45;&gt;Node3</title>
<path fill="none" stroke="#63b8ff" d="M595.49,-230.4C597.81,-215.3 601.57,-183.36 597,-156.89 595.54,-148.45 592.94,-139.59 590.08,-131.46"/>
<polygon fill="#63b8ff" stroke="#63b8ff" points="593.05,-130.43 586.25,-122.3 586.5,-132.9 593.05,-130.43"/>
</g>
<!-- Node7 -->
<g id="node7" class="node">
<title>Node7</title>
<g id="a_node7"><a xlink:href="sqsh__data_8h.html" target="_top" xlink:title=" ">
<polygon fill="white" stroke="#666666" points="588.25,-179.14 489.75,-179.14 489.75,-160.64 588.25,-160.64 588.25,-179.14"/>
<text text-anchor="middle" x="539" y="-165.64" font-family="Helvetica,sans-Serif" font-size="10.00">sqsh_data.h</text>
</a>
</g>
</g>
<!-- Node2&#45;&gt;Node7 -->
<g id="edge6" class="edge">
<title>Node2&#45;&gt;Node7</title>
<path fill="none" stroke="#63b8ff" d="M587.03,-230.48C578.39,-219.76 563.46,-201.24 552.54,-187.68"/>
<polygon fill="#63b8ff" stroke="#63b8ff" points="554.74,-185.84 545.74,-180.25 549.29,-190.23 554.74,-185.84"/>
</g>
<!-- Node4 -->
<g id="node4" class="node">
<title>Node4</title>
<g id="a_node4"><a xlink:title=" ">
<polygon fill="#e0e0e0" stroke="#999999" points="520.75,-42.45 437.25,-42.45 437.25,0 520.75,0 520.75,-42.45"/>
<text text-anchor="middle" x="479" y="-28.95" font-family="Helvetica,sans-Serif" font-size="10.00">stdbool.h</text>
</a>
</g>
</g>
<!-- Node3&#45;&gt;Node4 -->
<g id="edge3" class="edge">
<title>Node3&#45;&gt;Node4</title>
<path fill="none" stroke="#63b8ff" d="M550.48,-77.98C539.26,-69.23 526.03,-58.91 514.02,-49.54"/>
<polygon fill="#63b8ff" stroke="#63b8ff" points="516.58,-46.32 506.54,-42.93 512.27,-51.84 516.58,-46.32"/>
</g>
<!-- Node5 -->
<g id="node5" class="node">
<title>Node5</title>
<g id="a_node5"><a xlink:title=" ">
<polygon fill="#e0e0e0" stroke="#999999" points="615,-30.47 539,-30.47 539,-11.97 615,-11.97 615,-30.47"/>
<text text-anchor="middle" x="577" y="-16.97" font-family="Helvetica,sans-Serif" font-size="10.00">stddef.h</text>
</a>
</g>
</g>
<!-- Node3&#45;&gt;Node5 -->
<g id="edge4" class="edge">
<title>Node3&#45;&gt;Node5</title>
<path fill="none" stroke="#63b8ff" d="M577,-78.18C577,-66.75 577,-52.6 577,-41.39"/>
<polygon fill="#63b8ff" stroke="#63b8ff" points="580.5,-41.64 577,-31.64 573.5,-41.64 580.5,-41.64"/>
</g>
<!-- Node6 -->
<g id="node6" class="node">
<title>Node6</title>
<g id="a_node6"><a xlink:title=" ">
<polygon fill="#e0e0e0" stroke="#999999" points="709,-30.47 633,-30.47 633,-11.97 709,-11.97 709,-30.47"/>
<text text-anchor="middle" x="671" y="-16.97" font-family="Helvetica,sans-Serif" font-size="10.00">stdint.h</text>
</a>
</g>
</g>
<!-- Node3&#45;&gt;Node6 -->
<g id="edge5" class="edge">
<title>Node3&#45;&gt;Node6</title>
<path fill="none" stroke="#63b8ff" d="M602.19,-78.18C617.89,-65.41 637.77,-49.25 652.12,-37.58"/>
<polygon fill="#63b8ff" stroke="#63b8ff" points="654.1,-39.67 659.65,-30.64 649.68,-34.24 654.1,-39.67"/>
</g>
<!-- Node7&#45;&gt;Node3 -->
<g id="edge7" class="edge">
<title>Node7&#45;&gt;Node3</title>
<path fill="none" stroke="#63b8ff" d="M543.81,-160.25C547.97,-152.79 554.24,-141.54 560.21,-130.82"/>
<polygon fill="#63b8ff" stroke="#63b8ff" points="563.73,-132.68 565.54,-122.24 557.62,-129.28 563.73,-132.68"/>
</g>
<!-- Node8&#45;&gt;Node9 -->
<g id="edge10" class="edge">
<title>Node8&#45;&gt;Node9</title>
<path fill="none" stroke="#63b8ff" d="M1070.91,-218.46C1054.31,-207.78 1034.46,-195.01 1019.51,-185.38"/>
<polygon fill="#63b8ff" stroke="#63b8ff" points="1021.78,-182.04 1011.48,-179.57 1018,-187.93 1021.78,-182.04"/>
</g>
<!-- Node9&#45;&gt;Node3 -->
<g id="edge11" class="edge">
<title>Node9&#45;&gt;Node3</title>
<path fill="none" stroke="#63b8ff" d="M947.53,-160.75C939.66,-159.45 931.61,-158.14 924,-156.89 827.09,-141.08 714.93,-122.93 644.97,-111.64"/>
<polygon fill="#63b8ff" stroke="#63b8ff" points="645.54,-108.02 635.11,-109.88 644.42,-114.93 645.54,-108.02"/>
</g>
<!-- Node10&#45;&gt;Node3 -->
<g id="edge13" class="edge">
<title>Node10&#45;&gt;Node3</title>
<path fill="none" stroke="#63b8ff" d="M202.32,-230.49C176.57,-215.25 130.34,-182.76 153,-156.89 176.08,-130.55 395.43,-112.5 509.22,-104.83"/>
<polygon fill="#63b8ff" stroke="#63b8ff" points="509.15,-108.27 518.89,-104.12 508.68,-101.29 509.15,-108.27"/>
</g>
<!-- Node11 -->
<g id="node11" class="node">
<title>Node11</title>
<g id="a_node11"><a xlink:title=" ">
<polygon fill="#e0e0e0" stroke="#999999" points="230.25,-182.89 161.75,-182.89 161.75,-156.89 230.25,-156.89 230.25,-182.89"/>
<text text-anchor="middle" x="196" y="-169.39" font-family="Helvetica,sans-Serif" font-size="10.00">fcntl.h</text>
</a>
</g>
</g>
<!-- Node10&#45;&gt;Node11 -->
<g id="edge14" class="edge">
<title>Node10&#45;&gt;Node11</title>
<path fill="none" stroke="#63b8ff" d="M215.21,-230.48C212.21,-221.16 207.3,-205.95 203.2,-193.23"/>
<polygon fill="#63b8ff" stroke="#63b8ff" points="206.27,-192.35 199.87,-183.91 199.61,-194.5 206.27,-192.35"/>
</g>
<!-- Node12 -->
<g id="node12" class="node">
<title>Node12</title>
<g id="a_node12"><a xlink:title=" ">
<polygon fill="#e0e0e0" stroke="#999999" points="396.25,-179.14 327.75,-179.14 327.75,-160.64 396.25,-160.64 396.25,-179.14"/>
<text text-anchor="middle" x="362" y="-165.64" font-family="Helvetica,sans-Serif" font-size="10.00">stdio.h</text>
</a>
</g>
</g>
<!-- Node10&#45;&gt;Node12 -->
<g id="edge15" class="edge">
<title>Node10&#45;&gt;Node12</title>
<path fill="none" stroke="#63b8ff" d="M236.24,-230.48C260.91,-218.79 305.14,-197.83 334.03,-184.15"/>
<polygon fill="#63b8ff" stroke="#63b8ff" points="335.37,-186.91 342.91,-179.46 332.37,-180.58 335.37,-186.91"/>
</g>
<!-- Node13 -->
<g id="node13" class="node">
<title>Node13</title>
<g id="a_node13"><a xlink:title=" ">
<polygon fill="#e0e0e0" stroke="#999999" points="309.5,-179.14 248.5,-179.14 248.5,-160.64 309.5,-160.64 309.5,-179.14"/>
<text text-anchor="middle" x="279" y="-165.64" font-family="Helvetica,sans-Serif" font-size="10.00">time.h</text>
</a>
</g>
</g>
<!-- Node10&#45;&gt;Node13 -->
<g id="edge16" class="edge">
<title>Node10&#45;&gt;Node13</title>
<path fill="none" stroke="#63b8ff" d="M225.73,-230.48C235.4,-219.65 252.19,-200.88 264.34,-187.29"/>
<polygon fill="#63b8ff" stroke="#63b8ff" points="266.47,-190.04 270.53,-180.25 261.25,-185.37 266.47,-190.04"/>
</g>
<!-- Node14&#45;&gt;Node3 -->
<g id="edge18" class="edge">
<title>Node14&#45;&gt;Node3</title>
<path fill="none" stroke="#63b8ff" d="M99.8,-160.17C106.57,-159.01 113.46,-157.88 120,-156.89 257.72,-136.11 419.66,-117.57 509.07,-107.85"/>
<polygon fill="#63b8ff" stroke="#63b8ff" points="509.3,-111.24 518.87,-106.68 508.55,-104.28 509.3,-111.24"/>
</g>
<!-- Node16&#45;&gt;Node3 -->
<g id="edge22" class="edge">
<title>Node16&#45;&gt;Node3</title>
<path fill="none" stroke="#63b8ff" d="M355.7,-226.78C379.9,-210.11 424.88,-179.86 465,-156.89 483.65,-146.22 504.57,-135.42 523.25,-126.17"/>
<polygon fill="#63b8ff" stroke="#63b8ff" points="524.64,-128.89 532.07,-121.34 521.55,-122.61 524.64,-128.89"/>
</g>
<!-- Node16&#45;&gt;Node12 -->
<g id="edge23" class="edge">
<title>Node16&#45;&gt;Node12</title>
<path fill="none" stroke="#63b8ff" d="M342.29,-226.92C345.93,-216.58 351.2,-201.58 355.38,-189.71"/>
<polygon fill="#63b8ff" stroke="#63b8ff" points="358.95,-191.12 358.96,-180.53 352.34,-188.8 358.95,-191.12"/>
</g>
<!-- Node17&#45;&gt;Node3 -->
<g id="edge25" class="edge">
<title>Node17&#45;&gt;Node3</title>
<path fill="none" stroke="#63b8ff" d="M681.8,-160.25C666.98,-151.83 643.69,-138.58 622.82,-126.72"/>
<polygon fill="#63b8ff" stroke="#63b8ff" points="624.86,-123.29 614.44,-121.39 621.4,-129.37 624.86,-123.29"/>
</g>
<!-- Node18&#45;&gt;Node3 -->
<g id="edge27" class="edge">
<title>Node18&#45;&gt;Node3</title>
<path fill="none" stroke="#63b8ff" d="M926.05,-230.48C917.76,-213.4 896.82,-175.35 867,-156.89 799.33,-115.01 707.14,-103.24 645.02,-100.47"/>
<polygon fill="#63b8ff" stroke="#63b8ff" points="645.29,-96.94 635.17,-100.07 645.03,-103.94 645.29,-96.94"/>
</g>
<!-- Node18&#45;&gt;Node9 -->
<g id="edge28" class="edge">
<title>Node18&#45;&gt;Node9</title>
<path fill="none" stroke="#63b8ff" d="M938.49,-230.48C949.22,-219.55 967.9,-200.52 981.27,-186.91"/>
<polygon fill="#63b8ff" stroke="#63b8ff" points="983.28,-189.84 987.79,-180.25 978.29,-184.93 983.28,-189.84"/>
</g>
<!-- Node19&#45;&gt;Node3 -->
<g id="edge30" class="edge">
<title>Node19&#45;&gt;Node3</title>
<path fill="none" stroke="#63b8ff" d="M461.84,-230.52C461.98,-214.48 464.34,-179.56 481,-156.89 489.93,-144.75 502.34,-134.78 515.28,-126.8"/>
<polygon fill="#63b8ff" stroke="#63b8ff" points="516.84,-129.36 523.75,-121.33 513.34,-123.3 516.84,-129.36"/>
</g>
<!-- Node19&#45;&gt;Node7 -->
<g id="edge31" class="edge">
<title>Node19&#45;&gt;Node7</title>
<path fill="none" stroke="#63b8ff" d="M471.75,-230.48C484.2,-219.45 505.97,-200.16 521.36,-186.52"/>
<polygon fill="#63b8ff" stroke="#63b8ff" points="523.4,-189.5 528.57,-180.25 518.76,-184.26 523.4,-189.5"/>
</g>
</g>
</svg>
