<?xml version="1.0" encoding="UTF-8" standalone="no"?>
<!DOCTYPE svg PUBLIC "-//W3C//DTD SVG 1.1//EN"
 "http://www.w3.org/Graphics/SVG/1.1/DTD/svg11.dtd">
<!-- Generated by graphviz version 8.0.5 (20230430.1635)
 -->
<!-- Title: libsqsh/include/sqsh_metablock_private.h Pages: 1 -->
<svg width="798pt" height="1524168pt"
 viewBox="0.00 0.00 798.25 1524168.05" xmlns="http://www.w3.org/2000/svg" xmlns:xlink="http://www.w3.org/1999/xlink">
<g id="graph0" class="graph" transform="scale(1 1) rotate(0) translate(4 1524164.05)">
<title>libsqsh/include/sqsh_metablock_private.h</title>
<!-- Node1 -->
<g id="node1" class="node">
<title>Node1</title>
<g id="a_node1"><a xlink:title=" ">
<polygon fill="#999999" stroke="#666666" points="417.75,-1524160.05 251.75,-1524160.05 251.75,-762166.71 417.75,-762166.71 417.75,-1524160.05"/>
<text text-anchor="start" x="259.75" y="-1524146.55" font-family="Helvetica,sans-Serif" font-size="10.00">libsqsh/include/sqsh</text>
<text text-anchor="middle" x="334.75" y="-1143153.87" font-family="Helvetica,sans-Serif" font-size="10.00">_metablock_private.h</text>
</a>
</g>
</g>
<!-- Node2 -->
<g id="node2" class="node">
<title>Node2</title>
<g id="a_node2"><a xlink:href="sqsh__extract__private_8h.html" target="_top" xlink:title=" ">
<polygon fill="white" stroke="#666666" points="328.25,-762130.71 147.25,-762130.71 147.25,-381131.3 328.25,-381131.3 328.25,-762130.71"/>
<text text-anchor="middle" x="237.75" y="-762117.21" font-family="Helvetica,sans-Serif" font-size="10.00">sqsh_extract_private.h</text>
</a>
</g>
</g>
<!-- Node1&#45;&gt;Node2 -->
<g id="edge1" class="edge">
<title>Node1&#45;&gt;Node2</title>
<path fill="none" stroke="#63b8ff" d="M270.09,-762166.37C270.09,-762158.16 270.08,-762149.95 270.08,-762141.73"/>
<polygon fill="#63b8ff" stroke="#63b8ff" points="273.58,-762141.94 270.08,-762131.94 266.58,-762141.94 273.58,-762141.94"/>
</g>
<!-- Node5 -->
<g id="node5" class="node">
<title>Node5</title>
<g id="a_node5"><a xlink:href="sqsh__mapper__private_8h.html" target="_top" xlink:title=" ">
<polygon fill="white" stroke="#666666" points="519.5,-571640.26 346,-571640.26 346,-571621.76 519.5,-571621.76 519.5,-571640.26"/>
<text text-anchor="middle" x="432.75" y="-571626.76" font-family="Helvetica,sans-Serif" font-size="10.00">sqsh_mapper_private.h</text>
</a>
</g>
</g>
<!-- Node1&#45;&gt;Node5 -->
<g id="edge4" class="edge">
<title>Node1&#45;&gt;Node5</title>
<path fill="none" stroke="#63b8ff" d="M400.08,-762166.37C417.92,-658134.17 432.5,-573114.27 432.75,-571651.18"/>
<polygon fill="#63b8ff" stroke="#63b8ff" points="436.25,-571651.45 432.75,-571641.45 429.25,-571651.45 436.25,-571651.45"/>
</g>
<!-- Node3 -->
<g id="node3" class="node">
<title>Node3</title>
<g id="a_node3"><a xlink:title=" ">
<polygon fill="#e0e0e0" stroke="#999999" points="357.75,-381095.3 191.75,-381095.3 191.75,0 357.75,0 357.75,-381095.3"/>
<text text-anchor="middle" x="274.75" y="-381081.8" font-family="Helvetica,sans-Serif" font-size="10.00">cextras/collection.h</text>
</a>
</g>
</g>
<!-- Node2&#45;&gt;Node3 -->
<g id="edge2" class="edge">
<title>Node2&#45;&gt;Node3</title>
<path fill="none" stroke="#63b8ff" d="M256.25,-381131.03C256.25,-381122.82 256.25,-381114.61 256.25,-381106.39"/>
<polygon fill="#63b8ff" stroke="#63b8ff" points="259.75,-381106.6 256.25,-381096.6 252.75,-381106.59 259.75,-381106.6"/>
</g>
<!-- Node4 -->
<g id="node4" class="node">
<title>Node4</title>
<g id="a_node4"><a xlink:title=" ">
<polygon fill="#e0e0e0" stroke="#999999" points="173.5,-190556.9 0,-190556.9 0,-190538.4 173.5,-190538.4 173.5,-190556.9"/>
<text text-anchor="middle" x="86.75" y="-190543.4" font-family="Helvetica,sans-Serif" font-size="10.00">sqsh_thread_private.h</text>
</a>
</g>
</g>
<!-- Node2&#45;&gt;Node4 -->
<g id="edge3" class="edge">
<title>Node2&#45;&gt;Node4</title>
<path fill="none" stroke="#63b8ff" d="M162.27,-381131.03C124.82,-286636.26 87.38,-192127.81 86.76,-190568.22"/>
<polygon fill="#63b8ff" stroke="#63b8ff" points="90.26,-190568.26 86.75,-190558.26 83.26,-190568.26 90.26,-190568.26"/>
</g>
<!-- Node5&#45;&gt;Node3 -->
<g id="edge8" class="edge">
<title>Node5&#45;&gt;Node3</title>
<path fill="none" stroke="#63b8ff" d="M432.75,-571621.4C432.32,-570583.4 393.04,-475847.74 353.76,-381106.44"/>
<polygon fill="#63b8ff" stroke="#63b8ff" points="357.26,-381106.6 353.75,-381096.6 350.26,-381106.6 357.26,-381106.6"/>
</g>
<!-- Node5&#45;&gt;Node4 -->
<g id="edge7" class="edge">
<title>Node5&#45;&gt;Node4</title>
<path fill="none" stroke="#63b8ff" d="M432.78,-571621.36C438.4,-570152.71 1155.9,-382163.5 336.75,-381131.3 293.06,-381076.25 226.44,-381150.36 182.75,-381095.3 -21.69,-380837.7 85.48,-192769.17 86.74,-190568.12"/>
<polygon fill="#63b8ff" stroke="#63b8ff" points="90.24,-190568.34 86.75,-190558.34 83.24,-190568.34 90.24,-190568.34"/>
</g>
<!-- Node6 -->
<g id="node6" class="node">
<title>Node6</title>
<g id="a_node6"><a xlink:href="sqsh__mapper_8h.html" target="_top" xlink:title=" ">
<polygon fill="white" stroke="#666666" points="489.5,-190556.9 376,-190556.9 376,-190538.4 489.5,-190538.4 489.5,-190556.9"/>
<text text-anchor="middle" x="432.75" y="-190543.4" font-family="Helvetica,sans-Serif" font-size="10.00">sqsh_mapper.h</text>
</a>
</g>
</g>
<!-- Node5&#45;&gt;Node6 -->
<g id="edge5" class="edge">
<title>Node5&#45;&gt;Node6</title>
<path fill="none" stroke="#63b8ff" d="M432.75,-571621.4C432.75,-569548.17 432.75,-193685.17 432.75,-190568.15"/>
<polygon fill="#63b8ff" stroke="#63b8ff" points="436.25,-190568.21 432.75,-190558.21 429.25,-190568.21 436.25,-190568.21"/>
</g>
<!-- Node7 -->
<g id="node7" class="node">
<title>Node7</title>
<g id="a_node7"><a xlink:title=" ">
<polygon fill="#e0e0e0" stroke="#999999" points="681.5,-190568.84 508,-190568.84 508,-190526.46 681.5,-190526.46 681.5,-190568.84"/>
<text text-anchor="middle" x="594.75" y="-190555.34" font-family="Helvetica,sans-Serif" font-size="10.00">sqsh_reader_private.h</text>
</a>
</g>
</g>
<!-- Node5&#45;&gt;Node7 -->
<g id="edge6" class="edge">
<title>Node5&#45;&gt;Node7</title>
<path fill="none" stroke="#63b8ff" d="M432.75,-571621.4C433.63,-569550.46 593.06,-194513.71 594.74,-190579.82"/>
<polygon fill="#63b8ff" stroke="#63b8ff" points="598.24,-190580.05 594.74,-190570.05 591.24,-190580.05 598.24,-190580.05"/>
</g>
<!-- Node8 -->
<g id="node8" class="node">
<title>Node8</title>
<g id="a_node8"><a xlink:title=" ">
<polygon fill="#e0e0e0" stroke="#999999" points="790.25,-381048.17 699.25,-381048.17 699.25,-47.14 790.25,-47.14 790.25,-381048.17"/>
<text text-anchor="middle" x="744.75" y="-381034.67" font-family="Helvetica,sans-Serif" font-size="10.00">sys/wait.h</text>
</a>
</g>
</g>
<!-- Node5&#45;&gt;Node8 -->
<g id="edge9" class="edge">
<title>Node5&#45;&gt;Node8</title>
<path fill="none" stroke="#63b8ff" d="M432.77,-571621.28C434.73,-570519.35 621.78,-465332.95 690.75,-381095.3 693.55,-377675.42 696.21,-374221.02 698.74,-370740.45"/>
<polygon fill="#63b8ff" stroke="#63b8ff" points="702.24,-370740.61 698.75,-370730.61 695.24,-370740.61 702.24,-370740.61"/>
</g>
</g>
</svg>
