<?xml version="1.0" encoding="UTF-8" standalone="no"?>
<!DOCTYPE svg PUBLIC "-//W3C//DTD SVG 1.1//EN"
 "http://www.w3.org/Graphics/SVG/1.1/DTD/svg11.dtd">
<!-- Generated by graphviz version 9.0.0 (20230911.1827)
 -->
<!-- Title: libsqsh/include/sqsh_directory_private.h Pages: 1 -->
<svg width="885pt" height="7078778pt"
 viewBox="0.00 0.00 884.75 7078777.51" xmlns="http://www.w3.org/2000/svg" xmlns:xlink="http://www.w3.org/1999/xlink">
<g id="graph0" class="graph" transform="scale(1 1) rotate(0) translate(4 7078773.51)">
<title>libsqsh/include/sqsh_directory_private.h</title>
<!-- Node1 -->
<g id="Node000001" class="node">
<title>Node1</title>
<g id="a_Node000001"><a xlink:title=" ">
<polygon fill="#999999" stroke="#666666" points="638,-7078769.51 472,-7078769.51 472,-5596123.64 638,-5596123.64 638,-7078769.51"/>
<text text-anchor="start" x="480" y="-7078756.01" font-family="Helvetica,sans-Serif" font-size="10.00">libsqsh/include/sqsh</text>
<text text-anchor="middle" x="555" y="-5596128.73" font-family="Helvetica,sans-Serif" font-size="10.00">_directory_private.h</text>
</a>
</g>
</g>
<!-- Node2 -->
<g id="Node000002" class="node">
<title>Node2</title>
<g id="a_Node000002"><a xlink:href="sqsh__directory_8h.html" target="_top" xlink:title=" ">
<polygon fill="white" stroke="#666666" points="820,-5596087.64 684,-5596087.64 684,-4113628.88 820,-4113628.88 820,-5596087.64"/>
<text text-anchor="middle" x="752" y="-5596074.14" font-family="Helvetica,sans-Serif" font-size="10.00">sqsh_directory.h</text>
</a>
</g>
</g>
<!-- Node1&#45;&gt;Node2 -->
<g id="edge1_Node000001_Node000002" class="edge">
<title>Node1&#45;&gt;Node2</title>
<g id="a_edge1_Node000001_Node000002"><a xlink:title=" ">
<path fill="none" stroke="#63b8ff" d="M638.5,-5709039.73C653.5,-5596130.4 668.98,-5479643.15 683.5,-5370388.89"/>
<polygon fill="#63b8ff" stroke="#63b8ff" points="687,-5370389.15 683.5,-5370379.15 680,-5370389.15 687,-5370389.15"/>
</a>
</g>
</g>
<!-- Node8 -->
<g id="Node000008" class="node">
<title>Node8</title>
<g id="a_Node000008"><a xlink:href="sqsh__file__private_8h.html" target="_top" xlink:title=" ">
<polygon fill="white" stroke="#666666" points="634.25,-4854867.51 475.75,-4854867.51 475.75,-4854849.01 634.25,-4854849.01 634.25,-4854867.51"/>
<text text-anchor="middle" x="555" y="-4854854.01" font-family="Helvetica,sans-Serif" font-size="10.00">sqsh_file_private.h</text>
</a>
</g>
</g>
<!-- Node1&#45;&gt;Node8 -->
<g id="edge7_Node000001_Node000008" class="edge">
<title>Node1&#45;&gt;Node8</title>
<g id="a_edge7_Node000001_Node000008"><a xlink:title=" ">
<path fill="none" stroke="#63b8ff" d="M555,-5596123.26C555,-5227045.82 555,-4857978.02 555,-4854878.92"/>
<polygon fill="#63b8ff" stroke="#63b8ff" points="558.5,-4854879.16 555,-4854869.16 551.5,-4854879.16 558.5,-4854879.16"/>
</a>
</g>
</g>
<!-- Node16 -->
<g id="Node000016" class="node">
<title>Node16</title>
<g id="a_Node000016"><a xlink:href="sqsh__metablock__private_8h.html" target="_top" xlink:title=" ">
<polygon fill="white" stroke="#666666" points="511,-3372379.77 315,-3372379.77 315,-3372361.27 511,-3372361.27 511,-3372379.77"/>
<text text-anchor="middle" x="413" y="-3372366.27" font-family="Helvetica,sans-Serif" font-size="10.00">sqsh_metablock_private.h</text>
</a>
</g>
</g>
<!-- Node1&#45;&gt;Node16 -->
<g id="edge25_Node000001_Node000016" class="edge">
<title>Node1&#45;&gt;Node16</title>
<g id="a_edge25_Node000001_Node000016"><a xlink:title=" ">
<path fill="none" stroke="#63b8ff" d="M471.5,-5654264.82C469.88,-5634658.93 468.37,-5615234.21 467,-5596087.64 396.51,-4610060.41 412.92,-3378097.81 413,-3372391.42"/>
<polygon fill="#63b8ff" stroke="#63b8ff" points="416.5,-3372391.66 413,-3372381.66 409.5,-3372391.66 416.5,-3372391.66"/>
</a>
</g>
</g>
<!-- Node3 -->
<g id="Node000003" class="node">
<title>Node3</title>
<g id="a_Node000003"><a xlink:href="sqsh__file_8h.html" target="_top" xlink:title=" ">
<polygon fill="white" stroke="#666666" points="810.25,-4113592.88 711.75,-4113592.88 711.75,-2631148.16 810.25,-2631148.16 810.25,-4113592.88"/>
<text text-anchor="middle" x="761" y="-4113579.38" font-family="Helvetica,sans-Serif" font-size="10.00">sqsh_file.h</text>
</a>
</g>
</g>
<!-- Node2&#45;&gt;Node3 -->
<g id="edge2_Node000002_Node000003" class="edge">
<title>Node2&#45;&gt;Node3</title>
<g id="a_edge2_Node000002_Node000003"><a xlink:title=" ">
<path fill="none" stroke="#63b8ff" d="M756.5,-4113628.44C756.5,-4113620.45 756.5,-4113612.47 756.5,-4113604.48"/>
<polygon fill="#63b8ff" stroke="#63b8ff" points="760,-4113604.7 756.5,-4113594.7 753,-4113604.7 760,-4113604.7"/>
</a>
</g>
</g>
<!-- Node4 -->
<g id="Node000004" class="node">
<title>Node4</title>
<g id="a_Node000004"><a xlink:href="sqsh__common_8h.html" target="_top" xlink:title=" ">
<polygon fill="white" stroke="#666666" points="533.75,-80.5 420.25,-80.5 420.25,-62 533.75,-62 533.75,-80.5"/>
<text text-anchor="middle" x="477" y="-67" font-family="Helvetica,sans-Serif" font-size="10.00">sqsh_common.h</text>
</a>
</g>
</g>
<!-- Node3&#45;&gt;Node4 -->
<g id="edge3_Node000003_Node000004" class="edge">
<title>Node3&#45;&gt;Node4</title>
<g id="a_edge3_Node000003_Node000004"><a xlink:title=" ">
<path fill="none" stroke="#63b8ff" d="M792.87,-2631147.86C806.32,-2282557.81 820.39,-1861190.76 827,-1482506.01 827,-1482506.01 827,-116.5 827,-116.5 808.71,-95.75 641.93,-82.25 545.35,-76.1"/>
<polygon fill="#63b8ff" stroke="#63b8ff" points="545.65,-72.61 535.45,-75.48 545.21,-79.6 545.65,-72.61"/>
</a>
</g>
</g>
<!-- Node5 -->
<g id="Node000005" class="node">
<title>Node5</title>
<g id="a_Node000005"><a xlink:title=" ">
<polygon fill="#e0e0e0" stroke="#999999" points="512.75,-22.25 429.25,-22.25 429.25,-3.75 512.75,-3.75 512.75,-22.25"/>
<text text-anchor="middle" x="471" y="-8.75" font-family="Helvetica,sans-Serif" font-size="10.00">stdbool.h</text>
</a>
</g>
</g>
<!-- Node4&#45;&gt;Node5 -->
<g id="edge4_Node000004_Node000005" class="edge">
<title>Node4&#45;&gt;Node5</title>
<g id="a_edge4_Node000004_Node000005"><a xlink:title=" ">
<path fill="none" stroke="#63b8ff" d="M476.11,-61.95C475.33,-54.64 474.17,-43.7 473.14,-34.11"/>
<polygon fill="#63b8ff" stroke="#63b8ff" points="476.63,-33.78 472.09,-24.21 469.67,-34.52 476.63,-33.78"/>
</a>
</g>
</g>
<!-- Node6 -->
<g id="Node000006" class="node">
<title>Node6</title>
<g id="a_Node000006"><a xlink:title=" ">
<polygon fill="#e0e0e0" stroke="#999999" points="607,-22.25 531,-22.25 531,-3.75 607,-3.75 607,-22.25"/>
<text text-anchor="middle" x="569" y="-8.75" font-family="Helvetica,sans-Serif" font-size="10.00">stddef.h</text>
</a>
</g>
</g>
<!-- Node4&#45;&gt;Node6 -->
<g id="edge5_Node000004_Node000006" class="edge">
<title>Node4&#45;&gt;Node6</title>
<g id="a_edge5_Node000004_Node000006"><a xlink:title=" ">
<path fill="none" stroke="#63b8ff" d="M490.97,-61.71C505.43,-52.87 528.26,-38.91 545.5,-28.37"/>
<polygon fill="#63b8ff" stroke="#63b8ff" points="546.9,-31.62 553.6,-23.41 543.25,-25.64 546.9,-31.62"/>
</a>
</g>
</g>
<!-- Node7 -->
<g id="Node000007" class="node">
<title>Node7</title>
<g id="a_Node000007"><a xlink:title=" ">
<polygon fill="#e0e0e0" stroke="#999999" points="225,-26 149,-26 149,0 225,0 225,-26"/>
<text text-anchor="middle" x="187" y="-12.5" font-family="Helvetica,sans-Serif" font-size="10.00">stdint.h</text>
</a>
</g>
</g>
<!-- Node4&#45;&gt;Node7 -->
<g id="edge6_Node000004_Node000007" class="edge">
<title>Node4&#45;&gt;Node7</title>
<g id="a_edge6_Node000004_Node000007"><a xlink:title=" ">
<path fill="none" stroke="#63b8ff" d="M432.01,-61.52C378.98,-51.24 291.17,-34.21 236.33,-23.57"/>
<polygon fill="#63b8ff" stroke="#63b8ff" points="237.12,-20.16 226.64,-21.69 235.79,-27.03 237.12,-20.16"/>
</a>
</g>
</g>
<!-- Node8&#45;&gt;Node3 -->
<g id="edge8_Node000008_Node000003" class="edge">
<title>Node8&#45;&gt;Node3</title>
<g id="a_edge8_Node000008_Node000003"><a xlink:title=" ">
<path fill="none" stroke="#63b8ff" d="M555,-4854848.54C554.05,-4851924.41 314.72,-4114861.61 675,-4113628.88 680.33,-4113610.66 692.67,-4113611.11 698,-4113592.88 956.99,-4112706.6 876.75,-3731474.39 810.75,-3516172.14"/>
<polygon fill="#63b8ff" stroke="#63b8ff" points="814.25,-3516172.25 810.75,-3516162.26 807.25,-3516172.26 814.25,-3516172.25"/>
</a>
</g>
</g>
<!-- Node8&#45;&gt;Node7 -->
<g id="edge24_Node000008_Node000007" class="edge">
<title>Node8&#45;&gt;Node7</title>
<g id="a_edge24_Node000008_Node000007"><a xlink:title=" ">
<path fill="none" stroke="#63b8ff" d="M555,-4854848.76C554.11,-4852696.21 385.63,-4442179.08 306,-4113592.88 84.47,-3199475.21 0,-2970945.78 0,-2056828.08 0,-2056828.08 0,-2056828.08 0,-741310.25 0,-741310.25 19,-116.5 19,-116.5 44.28,-71.47 98.27,-43.88 138.26,-28.84"/>
<polygon fill="#63b8ff" stroke="#63b8ff" points="139.22,-32.21 147.44,-25.53 136.85,-25.62 139.22,-32.21"/>
</a>
</g>
</g>
<!-- Node9 -->
<g id="Node000009" class="node">
<title>Node9</title>
<g id="a_Node000009"><a xlink:href="sqsh__extract__private_8h.html" target="_top" xlink:title=" ">
<polygon fill="white" stroke="#666666" points="464.5,-2631112.16 283.5,-2631112.16 283.5,-1482542.01 464.5,-1482542.01 464.5,-2631112.16"/>
<text text-anchor="middle" x="374" y="-2631098.66" font-family="Helvetica,sans-Serif" font-size="10.00">sqsh_extract_private.h</text>
</a>
</g>
</g>
<!-- Node8&#45;&gt;Node9 -->
<g id="edge9_Node000008_Node000009" class="edge">
<title>Node8&#45;&gt;Node9</title>
<g id="a_edge9_Node000008_Node000009"><a xlink:title=" ">
<path fill="none" stroke="#63b8ff" d="M555,-4854848.76C554.92,-4849838.29 520,-2631148.16 520,-2631148.16 508.35,-2631124.57 484.65,-2631135.75 473,-2631112.16 -211.38,-2629726.18 105.78,-2285400.03 282.99,-2130646.74"/>
<polygon fill="#63b8ff" stroke="#63b8ff" points="286.49,-2130646.75 283,-2130636.75 279.49,-2130646.74 286.49,-2130646.75"/>
</a>
</g>
</g>
<!-- Node13 -->
<g id="Node000013" class="node">
<title>Node13</title>
<g id="a_Node000013"><a xlink:href="sqsh__mapper__private_8h.html" target="_top" xlink:title=" ">
<polygon fill="white" stroke="#666666" points="655.75,-2056836.33 482.25,-2056836.33 482.25,-2056817.83 655.75,-2056817.83 655.75,-2056836.33"/>
<text text-anchor="middle" x="569" y="-2056822.83" font-family="Helvetica,sans-Serif" font-size="10.00">sqsh_mapper_private.h</text>
</a>
</g>
</g>
<!-- Node8&#45;&gt;Node13 -->
<g id="edge14_Node000008_Node000013" class="edge">
<title>Node8&#45;&gt;Node13</title>
<g id="a_edge14_Node000008_Node000013"><a xlink:title=" ">
<path fill="none" stroke="#63b8ff" d="M555,-4854848.76C555.03,-4849233.17 568.96,-2065510.44 569,-2056848.34"/>
<polygon fill="#63b8ff" stroke="#63b8ff" points="572.5,-2056848.35 569,-2056838.35 565.5,-2056848.35 572.5,-2056848.35"/>
</a>
</g>
</g>
<!-- Node15 -->
<g id="Node000015" class="node">
<title>Node15</title>
<g id="a_Node000015"><a xlink:title=" ">
<polygon fill="#e0e0e0" stroke="#999999" points="817.75,-741320.5 644.25,-741320.5 644.25,-741302 817.75,-741302 817.75,-741320.5"/>
<text text-anchor="middle" x="731" y="-741307" font-family="Helvetica,sans-Serif" font-size="10.00">sqsh_reader_private.h</text>
</a>
</g>
</g>
<!-- Node8&#45;&gt;Node15 -->
<g id="edge23_Node000008_Node000015" class="edge">
<title>Node8&#45;&gt;Node15</title>
<g id="a_edge23_Node000008_Node000015"><a xlink:title=" ">
<path fill="none" stroke="#63b8ff" d="M555,-4854848.64C555.21,-4851087.65 623.36,-3617935.24 665,-2631112.16 700.35,-1793301.74 730.85,-746562.55 731,-741331.94"/>
<polygon fill="#63b8ff" stroke="#63b8ff" points="734.5,-741332.32 731,-741322.31 727.5,-741332.31 734.5,-741332.32"/>
</a>
</g>
</g>
<!-- Node8&#45;&gt;Node16 -->
<g id="edge20_Node000008_Node000016" class="edge">
<title>Node8&#45;&gt;Node16</title>
<g id="a_edge20_Node000008_Node000016"><a xlink:title=" ">
<path fill="none" stroke="#63b8ff" d="M555,-4854848.88C554.61,-4850796.96 413.6,-3378678.24 413,-3372391.71"/>
<polygon fill="#63b8ff" stroke="#63b8ff" points="416.5,-3372391.77 413,-3372381.77 409.5,-3372391.77 416.5,-3372391.77"/>
</a>
</g>
</g>
<!-- Node10 -->
<g id="Node000010" class="node">
<title>Node10</title>
<g id="a_Node000010"><a xlink:title=" ">
<polygon fill="#e0e0e0" stroke="#999999" points="310,-1482505.06 144,-1482505.06 144,-117.44 310,-117.44 310,-1482505.06"/>
<text text-anchor="middle" x="227" y="-1482491.56" font-family="Helvetica,sans-Serif" font-size="10.00">cextras/collection.h</text>
</a>
</g>
</g>
<!-- Node9&#45;&gt;Node10 -->
<g id="edge10_Node000009_Node000010" class="edge">
<title>Node9&#45;&gt;Node10</title>
<g id="a_edge10_Node000009_Node000010"><a xlink:title=" ">
<path fill="none" stroke="#63b8ff" d="M309.83,-1482541.61C309.83,-1482533.31 309.83,-1482525 309.82,-1482516.7"/>
<polygon fill="#63b8ff" stroke="#63b8ff" points="313.32,-1482516.89 309.82,-1482506.89 306.32,-1482516.89 313.32,-1482516.89"/>
</a>
</g>
</g>
<!-- Node11 -->
<g id="Node000011" class="node">
<title>Node11</title>
<g id="a_Node000011"><a xlink:href="sqsh__data_8h.html" target="_top" xlink:title=" ">
<polygon fill="white" stroke="#666666" points="126.25,-1482506.01 27.75,-1482506.01 27.75,-116.5 126.25,-116.5 126.25,-1482506.01"/>
<text text-anchor="middle" x="77" y="-1482492.51" font-family="Helvetica,sans-Serif" font-size="10.00">sqsh_data.h</text>
</a>
</g>
</g>
<!-- Node9&#45;&gt;Node11 -->
<g id="edge11_Node000009_Node000011" class="edge">
<title>Node9&#45;&gt;Node11</title>
<g id="a_edge11_Node000009_Node000011"><a xlink:title=" ">
<path fill="none" stroke="#63b8ff" d="M283,-1875761.13C230.06,-1762702.6 167.54,-1614121.27 135,-1482506.01 132.12,-1470862.3 129.37,-1459115.7 126.75,-1447288.03"/>
<polygon fill="#63b8ff" stroke="#63b8ff" points="130.25,-1447288.17 126.75,-1447278.17 123.25,-1447288.17 130.25,-1447288.17"/>
</a>
</g>
</g>
<!-- Node12 -->
<g id="Node000012" class="node">
<title>Node12</title>
<g id="a_Node000012"><a xlink:title=" ">
<polygon fill="#e0e0e0" stroke="#999999" points="494,-741324.25 328,-741324.25 328,-741298.25 494,-741298.25 494,-741324.25"/>
<text text-anchor="middle" x="411" y="-741310.75" font-family="Helvetica,sans-Serif" font-size="10.00">sqsh_utils_private.h</text>
</a>
</g>
</g>
<!-- Node9&#45;&gt;Node12 -->
<g id="edge13_Node000009_Node000012" class="edge">
<title>Node9&#45;&gt;Node12</title>
<g id="a_edge13_Node000009_Node000012"><a xlink:title=" ">
<path fill="none" stroke="#63b8ff" d="M390.15,-1482541.61C400.07,-1129936.4 410.9,-744804.46 411,-741335.86"/>
<polygon fill="#63b8ff" stroke="#63b8ff" points="414.5,-741335.9 411,-741325.9 407.5,-741335.9 414.5,-741335.9"/>
</a>
</g>
</g>
<!-- Node11&#45;&gt;Node4 -->
<g id="edge12_Node000011_Node000004" class="edge">
<title>Node11&#45;&gt;Node4</title>
<g id="a_edge12_Node000011_Node000004"><a xlink:title=" ">
<path fill="none" stroke="#63b8ff" d="M126.75,-105545.08C131.73,-41864.79 135,-116.5 135,-116.5 152.74,-96.32 313.77,-82.68 408.4,-76.34"/>
<polygon fill="#63b8ff" stroke="#63b8ff" points="408.63,-79.83 418.37,-75.68 408.17,-72.84 408.63,-79.83"/>
</a>
</g>
</g>
<!-- Node13&#45;&gt;Node12 -->
<g id="edge19_Node000013_Node000012" class="edge">
<title>Node13&#45;&gt;Node12</title>
<g id="a_edge19_Node000013_Node000012"><a xlink:title=" ">
<path fill="none" stroke="#63b8ff" d="M569,-2056817.62C568.54,-2052984.3 411.77,-747745.81 411,-741335.94"/>
<polygon fill="#63b8ff" stroke="#63b8ff" points="414.5,-741336.08 411,-741326.08 407.5,-741336.08 414.5,-741336.08"/>
</a>
</g>
</g>
<!-- Node14 -->
<g id="Node000014" class="node">
<title>Node14</title>
<g id="a_Node000014"><a xlink:href="sqsh__mapper_8h.html" target="_top" xlink:title=" ">
<polygon fill="white" stroke="#666666" points="625.75,-741320.5 512.25,-741320.5 512.25,-741302 625.75,-741302 625.75,-741320.5"/>
<text text-anchor="middle" x="569" y="-741307" font-family="Helvetica,sans-Serif" font-size="10.00">sqsh_mapper.h</text>
</a>
</g>
</g>
<!-- Node13&#45;&gt;Node14 -->
<g id="edge15_Node000013_Node000014" class="edge">
<title>Node13&#45;&gt;Node14</title>
<g id="a_edge15_Node000013_Node000014"><a xlink:title=" ">
<path fill="none" stroke="#63b8ff" d="M569,-2056817.62C569,-2052983.48 569,-747186.92 569,-741332"/>
<polygon fill="#63b8ff" stroke="#63b8ff" points="572.5,-741332.2 569,-741322.2 565.5,-741332.2 572.5,-741332.2"/>
</a>
</g>
</g>
<!-- Node13&#45;&gt;Node15 -->
<g id="edge18_Node000013_Node000015" class="edge">
<title>Node13&#45;&gt;Node15</title>
<g id="a_edge18_Node000013_Node000015"><a xlink:title=" ">
<path fill="none" stroke="#63b8ff" d="M569,-2056817.62C569.47,-2052983.48 730.28,-747186.92 731,-741332"/>
<polygon fill="#63b8ff" stroke="#63b8ff" points="734.5,-741332.2 731,-741322.2 727.5,-741332.2 734.5,-741332.2"/>
</a>
</g>
</g>
<!-- Node14&#45;&gt;Node4 -->
<g id="edge16_Node000014_Node000004" class="edge">
<title>Node14&#45;&gt;Node4</title>
<g id="a_edge16_Node000014_Node000004"><a xlink:title=" ">
<path fill="none" stroke="#63b8ff" d="M569,-741301.52C569.41,-738375.1 671.58,-736.1 503,-116.5 500.46,-107.16 495.39,-97.78 490.4,-90.08"/>
<polygon fill="#63b8ff" stroke="#63b8ff" points="493.36,-88.19 484.76,-82.01 487.62,-92.21 493.36,-88.19"/>
</a>
</g>
</g>
<!-- Node14&#45;&gt;Node6 -->
<g id="edge17_Node000014_Node000006" class="edge">
<title>Node14&#45;&gt;Node6</title>
<g id="a_edge17_Node000014_Node000006"><a xlink:title=" ">
<path fill="none" stroke="#63b8ff" d="M569,-741301.51C569,-738381.08 569,-4465.77 569,-34.15"/>
<polygon fill="#63b8ff" stroke="#63b8ff" points="572.5,-34.22 569,-24.22 565.5,-34.22 572.5,-34.22"/>
</a>
</g>
</g>
<!-- Node16&#45;&gt;Node9 -->
<g id="edge21_Node000016_Node000009" class="edge">
<title>Node16&#45;&gt;Node9</title>
<g id="a_edge21_Node000016_Node000009"><a xlink:title=" ">
<path fill="none" stroke="#63b8ff" d="M413,-3372361.06C412.94,-3370279.27 401.5,-2984378.22 391.03,-2631123.57"/>
<polygon fill="#63b8ff" stroke="#63b8ff" points="394.53,-2631123.72 391.03,-2631113.72 387.53,-2631123.72 394.53,-2631123.72"/>
</a>
</g>
</g>
<!-- Node16&#45;&gt;Node13 -->
<g id="edge22_Node000016_Node000013" class="edge">
<title>Node16&#45;&gt;Node13</title>
<g id="a_edge22_Node000016_Node000013"><a xlink:title=" ">
<path fill="none" stroke="#63b8ff" d="M413,-3372361.06C413.46,-3368526.83 568.3,-2062702.87 569,-2056847.83"/>
<polygon fill="#63b8ff" stroke="#63b8ff" points="572.5,-2056848.03 569,-2056838.03 565.5,-2056848.03 572.5,-2056848.03"/>
</a>
</g>
</g>
</g>
</svg>
