<?xml version="1.0" encoding="UTF-8" standalone="no"?>
<!DOCTYPE svg PUBLIC "-//W3C//DTD SVG 1.1//EN"
 "http://www.w3.org/Graphics/SVG/1.1/DTD/svg11.dtd">
<!-- Generated by graphviz version 9.0.0 (20230911.1827)
 -->
<!-- Title: include/sqsh_archive.h Pages: 1 -->
<!--zoomable 1109627 -->

<svg id="main" version="1.1" xmlns="http://www.w3.org/2000/svg" xmlns:xlink="http://www.w3.org/1999/xlink" xml:space="preserve" onload="init(evt)">
<style type="text/css"><![CDATA[
.node, .edge {opacity: 0.7;}
.node.selected, .edge.selected {opacity: 1;}
.edge:hover path { stroke: red; }
.edge:hover polygon { stroke: red; fill: red; }
]]></style>

<defs>
  <circle id="rim" cx="0" cy="0" r="7"/>
  <circle id="rim2" cx="0" cy="0" r="3.5"/>
  <g id="zoomPlus">
    <use xlink:href="#rim" fill="#404040"><set attributeName="fill" to="#808080" begin="zoomplus.mouseover" end="zoomplus.mouseout"/></use>
    <path d="M-4,0h8M0,-4v8" fill="none" stroke="white" stroke-width="1.5" pointer-events="none"/>
  </g>
  <g id="zoomMin">
    <use xlink:href="#rim" fill="#404040"><set attributeName="fill" to="#808080" begin="zoomminus.mouseover" end="zoomminus.mouseout"/></use>
    <path d="M-4,0h8" fill="none" stroke="white" stroke-width="1.5" pointer-events="none"/>
  </g>
  <g id="arrowUp" transform="translate(30 24)">
    <use xlink:href="#rim"/>
    <path pointer-events="none" fill="none" stroke="white" stroke-width="1.5" d="M0,-3.0v7 M-2.5,-0.5L0,-3.0L2.5,-0.5"/>
  </g>
  <g id="arrowRight" transform="rotate(90) translate(36 -43)">
    <use xlink:href="#rim"/>
    <path pointer-events="none" fill="none" stroke="white" stroke-width="1.5" d="M0,-3.0v7 M-2.5,-0.5L0,-3.0L2.5,-0.5"/>
  </g>
  <g id="arrowDown" transform="rotate(180) translate(-30 -48)">
    <use xlink:href="#rim"/>
    <path pointer-events="none" fill="none" stroke="white" stroke-width="1.5" d="M0,-3.0v7 M-2.5,-0.5L0,-3.0L2.5,-0.5"/>
  </g>
  <g id="arrowLeft" transform="rotate(270) translate(-36 17)">
    <use xlink:href="#rim"/>
    <path pointer-events="none" fill="none" stroke="white" stroke-width="1.5" d="M0,-3.0v7 M-2.5,-0.5L0,-3.0L2.5,-0.5"/>
  </g>
  <g id="resetDef">
    <use xlink:href="#rim2" fill="#404040"><set attributeName="fill" to="#808080" begin="reset.mouseover" end="reset.mouseout"/></use>
  </g>
</defs>
<script type="application/ecmascript">
var viewWidth = 2048;
var viewHeight = 1109627;
var sectionId = 'dynsection-1';
</script>
<script type="application/ecmascript" xlink:href="svg.min.js"/>
<svg id="graph" class="graph">
<g id="viewport">
<title>include/sqsh_archive.h</title>
<!-- Node1 -->
<g id="Node000001" class="node">
<title>Node1</title>
<g id="a_Node000001"><a xlink:title=" ">
<polygon fill="#999999" stroke="#666666" points="1162.5,-1109618.72 981.5,-1109618.72 981.5,-1109600.22 1162.5,-1109600.22 1162.5,-1109618.72"/>
<text text-anchor="middle" x="1072" y="-1109605.22" font-family="Helvetica,sans-Serif" font-size="10.00">include/sqsh_archive.h</text>
</a>
</g>
</g>
<!-- Node2 -->
<g id="Node000002" class="node">
<title>Node2</title>
<g id="a_Node000002"><a xlink:href="sqsh_8h.html" target="_top" xlink:title=" ">
<polygon fill="white" stroke="#666666" points="1051.5,-1109547.01 930.5,-1109547.01 930.5,-1109528.51 1051.5,-1109528.51 1051.5,-1109547.01"/>
<text text-anchor="middle" x="991" y="-1109533.51" font-family="Helvetica,sans-Serif" font-size="10.00">include/sqsh.h</text>
</a>
</g>
</g>
<!-- Node1&#45;&gt;Node2 -->
<g id="edge1_Node000001_Node000002" class="edge">
<title>Node1&#45;&gt;Node2</title>
<g id="a_edge1_Node000001_Node000002"><a xlink:title=" ">
<path fill="none" stroke="#63b8ff" d="M1053.38,-1109592.45C1037.09,-1109578.43 1014.05,-1109558.6 1001.01,-1109547.38"/>
<polygon fill="#63b8ff" stroke="#63b8ff" points="1051.06,-1109595.06 1060.92,-1109598.93 1055.62,-1109589.76 1051.06,-1109595.06"/>
</a>
</g>
</g>
<!-- Node13 -->
<g id="Node000013" class="node">
<title>Node13</title>
<g id="a_Node000013"><a xlink:href="sqsh__archive__private_8h.html" target="_top" xlink:title=" ">
<polygon fill="white" stroke="#666666" points="1236,-1109564.22 1070,-1109564.22 1070,-1109511.31 1236,-1109511.31 1236,-1109564.22"/>
<text text-anchor="start" x="1078" y="-1109550.72" font-family="Helvetica,sans-Serif" font-size="10.00">libsqsh/include/sqsh</text>
<text text-anchor="middle" x="1153" y="-1109540.22" font-family="Helvetica,sans-Serif" font-size="10.00">_archive_private.h</text>
</a>
</g>
</g>
<!-- Node1&#45;&gt;Node13 -->
<g id="edge12_Node000001_Node000013" class="edge">
<title>Node1&#45;&gt;Node13</title>
<g id="a_edge12_Node000001_Node000013"><a xlink:title=" ">
<path fill="none" stroke="#63b8ff" d="M1090.64,-1109592.43C1100.25,-1109584.16 1112.21,-1109573.86 1123.08,-1109564.51"/>
<polygon fill="#63b8ff" stroke="#63b8ff" points="1088.38,-1109589.76 1083.08,-1109598.93 1092.94,-1109595.06 1088.38,-1109589.76"/>
</a>
</g>
</g>
<!-- Node3 -->
<g id="Node000003" class="node">
<title>Node3</title>
<g id="a_Node000003"><a xlink:href="custom__mapper_8c.html" target="_top" xlink:title=" ">
<polygon fill="white" stroke="#666666" points="196,-1109475.31 0,-1109475.31 0,0 196,0 196,-1109475.31"/>
<text text-anchor="middle" x="98" y="-1109461.81" font-family="Helvetica,sans-Serif" font-size="10.00">examples/custom_mapper.c</text>
</a>
</g>
</g>
<!-- Node2&#45;&gt;Node3 -->
<g id="edge2_Node000002_Node000003" class="edge">
<title>Node2&#45;&gt;Node3</title>
<g id="a_edge2_Node000002_Node000003"><a xlink:title=" ">
<path fill="none" stroke="#63b8ff" d="M918.79,-1109536.57C733.6,-1109535.33 252.91,-1109527.11 205,-1109475.31 202.12,-1109472.2 199.28,-1109426.14 196.49,-1109337.89"/>
<polygon fill="#63b8ff" stroke="#63b8ff" points="918.75,-1109540.07 928.77,-1109536.63 918.8,-1109533.07 918.75,-1109540.07"/>
</a>
</g>
</g>
<!-- Node4 -->
<g id="Node000004" class="node">
<title>Node4</title>
<g id="a_Node000004"><a xlink:href="list__dir_8c.html" target="_top" xlink:title=" ">
<polygon fill="white" stroke="#666666" points="372.25,-1109382.21 213.75,-1109382.21 213.75,-93.1 372.25,-93.1 372.25,-1109382.21"/>
<text text-anchor="middle" x="293" y="-1109368.71" font-family="Helvetica,sans-Serif" font-size="10.00">examples/list_dir.c</text>
</a>
</g>
</g>
<!-- Node2&#45;&gt;Node4 -->
<g id="edge3_Node000002_Node000004" class="edge">
<title>Node2&#45;&gt;Node4</title>
<g id="a_edge3_Node000002_Node000004"><a xlink:title=" ">
<path fill="none" stroke="#63b8ff" d="M919.07,-1109534.82C765.49,-1109529.94 416.52,-1109514.59 381,-1109475.31 378.21,-1109472.22 375.45,-1109427.66 372.74,-1109342.35"/>
<polygon fill="#63b8ff" stroke="#63b8ff" points="918.61,-1109538.31 928.71,-1109535.12 918.83,-1109531.31 918.61,-1109538.31"/>
</a>
</g>
</g>
<!-- Node5 -->
<g id="Node000005" class="node">
<title>Node5</title>
<g id="a_Node000005"><a xlink:href="list__dir__ll_8c.html" target="_top" xlink:title=" ">
<polygon fill="white" stroke="#666666" points="571.5,-554746.91 390.5,-554746.91 390.5,-554728.41 571.5,-554728.41 571.5,-554746.91"/>
<text text-anchor="middle" x="481" y="-554733.41" font-family="Helvetica,sans-Serif" font-size="10.00">examples/list_dir_ll.c</text>
</a>
</g>
</g>
<!-- Node2&#45;&gt;Node5 -->
<g id="edge4_Node000002_Node000005" class="edge">
<title>Node2&#45;&gt;Node5</title>
<g id="a_edge4_Node000002_Node000005"><a xlink:title=" ">
<path fill="none" stroke="#63b8ff" d="M918.77,-1109536.8C812.75,-1109535.14 622.89,-1109525.08 580,-1109475.31 266.36,-1109111.35 480.03,-557239.71 481,-554747.13"/>
<polygon fill="#63b8ff" stroke="#63b8ff" points="918.46,-1109540.3 928.5,-1109536.93 918.55,-1109533.3 918.46,-1109540.3"/>
</a>
</g>
</g>
<!-- Node6 -->
<g id="Node000006" class="node">
<title>Node6</title>
<g id="a_Node000006"><a xlink:href="list__xattrs_8c.html" target="_top" xlink:title=" ">
<polygon fill="white" stroke="#666666" points="770.5,-1109428.09 589.5,-1109428.09 589.5,-47.22 770.5,-47.22 770.5,-1109428.09"/>
<text text-anchor="middle" x="680" y="-1109414.59" font-family="Helvetica,sans-Serif" font-size="10.00">examples/list_xattrs.c</text>
</a>
</g>
</g>
<!-- Node2&#45;&gt;Node6 -->
<g id="edge5_Node000002_Node000006" class="edge">
<title>Node2&#45;&gt;Node6</title>
<g id="a_edge5_Node000002_Node000006"><a xlink:title=" ">
<path fill="none" stroke="#63b8ff" d="M922.64,-1109526.02C867.54,-1109515.79 796.44,-1109498.53 779,-1109475.31 776.29,-1109471.71 773.62,-1109419.47 771,-1109319.53"/>
<polygon fill="#63b8ff" stroke="#63b8ff" points="921.83,-1109529.43 932.29,-1109527.76 923.08,-1109522.54 921.83,-1109529.43"/>
</a>
</g>
</g>
<!-- Node7 -->
<g id="Node000007" class="node">
<title>Node7</title>
<g id="a_Node000007"><a xlink:href="list__xattrs__ll_8c.html" target="_top" xlink:title=" ">
<polygon fill="white" stroke="#666666" points="991.75,-554746.91 788.25,-554746.91 788.25,-554728.41 991.75,-554728.41 991.75,-554746.91"/>
<text text-anchor="middle" x="890" y="-554733.41" font-family="Helvetica,sans-Serif" font-size="10.00">examples/list_xattrs_ll.c</text>
</a>
</g>
</g>
<!-- Node2&#45;&gt;Node7 -->
<g id="edge6_Node000002_Node000007" class="edge">
<title>Node2&#45;&gt;Node7</title>
<g id="a_edge6_Node000002_Node000007"><a xlink:title=" ">
<path fill="none" stroke="#63b8ff" d="M991,-1109517.08C990.31,-1105731.45 890.45,-557227.39 890,-554747.09"/>
<polygon fill="#63b8ff" stroke="#63b8ff" points="987.5,-1109516.78 991,-1109526.78 994.5,-1109516.78 987.5,-1109516.78"/>
</a>
</g>
</g>
<!-- Node8 -->
<g id="Node000008" class="node">
<title>Node8</title>
<g id="a_Node000008"><a xlink:href="read__file_8c.html" target="_top" xlink:title=" ">
<polygon fill="white" stroke="#666666" points="1176,-554746.91 1010,-554746.91 1010,-554728.41 1176,-554728.41 1176,-554746.91"/>
<text text-anchor="middle" x="1093" y="-554733.41" font-family="Helvetica,sans-Serif" font-size="10.00">examples/read_file.c</text>
</a>
</g>
</g>
<!-- Node2&#45;&gt;Node8 -->
<g id="edge7_Node000002_Node000008" class="edge">
<title>Node2&#45;&gt;Node8</title>
<g id="a_edge7_Node000002_Node000008"><a xlink:title=" ">
<path fill="none" stroke="#63b8ff" d="M995.03,-1109517.11C997.28,-1109505.1 999.86,-1109489.39 1001,-1109475.31 1311,-1105644.2 1093.99,-557224.05 1093,-554747.07"/>
<polygon fill="#63b8ff" stroke="#63b8ff" points="991.66,-1109516.09 993.16,-1109526.58 998.53,-1109517.45 991.66,-1109516.09"/>
</a>
</g>
</g>
<!-- Node9 -->
<g id="Node000009" class="node">
<title>Node9</title>
<g id="a_Node000009"><a xlink:href="read__file__ll_8c.html" target="_top" xlink:title=" ">
<polygon fill="white" stroke="#666666" points="1382.25,-554746.91 1193.75,-554746.91 1193.75,-554728.41 1382.25,-554728.41 1382.25,-554746.91"/>
<text text-anchor="middle" x="1288" y="-554733.41" font-family="Helvetica,sans-Serif" font-size="10.00">examples/read_file_ll.c</text>
</a>
</g>
</g>
<!-- Node2&#45;&gt;Node9 -->
<g id="edge8_Node000002_Node000009" class="edge">
<title>Node2&#45;&gt;Node9</title>
<g id="a_edge8_Node000002_Node000009"><a xlink:title=" ">
<path fill="none" stroke="#63b8ff" d="M1024.13,-1109524.21C1035.73,-1109519.95 1048.89,-1109515.27 1061,-1109511.31 1115.55,-1109493.5 1150.54,-1109521.2 1185,-1109475.31 1473.55,-1109091.15 1288.84,-557239.62 1288,-554747.12"/>
<polygon fill="#63b8ff" stroke="#63b8ff" points="1023.14,-1109520.84 1014.99,-1109527.6 1025.58,-1109527.41 1023.14,-1109520.84"/>
</a>
</g>
</g>
<!-- Node10 -->
<g id="Node000010" class="node">
<title>Node10</title>
<g id="a_Node000010"><a xlink:href="readme__example_8c.html" target="_top" xlink:title=" ">
<polygon fill="white" stroke="#666666" points="1603.75,-554746.91 1400.25,-554746.91 1400.25,-554728.41 1603.75,-554728.41 1603.75,-554746.91"/>
<text text-anchor="middle" x="1502" y="-554733.41" font-family="Helvetica,sans-Serif" font-size="10.00">examples/readme_example.c</text>
</a>
</g>
</g>
<!-- Node2&#45;&gt;Node10 -->
<g id="edge9_Node000002_Node000010" class="edge">
<title>Node2&#45;&gt;Node10</title>
<g id="a_edge9_Node000002_Node000010"><a xlink:title=" ">
<path fill="none" stroke="#63b8ff" d="M1021.3,-1109523.95C1033.45,-1109519.29 1047.69,-1109514.41 1061,-1109511.31 1132.85,-1109494.59 1341.74,-1109530.23 1391,-1109475.31 1711.82,-1109117.66 1502.95,-557239.74 1502,-554747.13"/>
<polygon fill="#63b8ff" stroke="#63b8ff" points="1020.24,-1109520.6 1012.24,-1109527.55 1022.82,-1109527.11 1020.24,-1109520.6"/>
</a>
</g>
</g>
<!-- Node11 -->
<g id="Node000011" class="node">
<title>Node11</title>
<g id="a_Node000011"><a xlink:href="traverse__dir_8c.html" target="_top" xlink:title=" ">
<polygon fill="white" stroke="#666666" points="1810.25,-554758.86 1621.75,-554758.86 1621.75,-554716.45 1810.25,-554716.45 1810.25,-554758.86"/>
<text text-anchor="middle" x="1716" y="-554745.36" font-family="Helvetica,sans-Serif" font-size="10.00">examples/traverse_dir.c</text>
</a>
</g>
</g>
<!-- Node2&#45;&gt;Node11 -->
<g id="edge10_Node000002_Node000011" class="edge">
<title>Node2&#45;&gt;Node11</title>
<g id="a_edge10_Node000002_Node000011"><a xlink:title=" ">
<path fill="none" stroke="#63b8ff" d="M1020.71,-1109523.85C1032.96,-1109519.09 1047.44,-1109514.16 1061,-1109511.31 1121.15,-1109498.68 1570.97,-1109520.16 1613,-1109475.31 1941.11,-1109125.17 1717.58,-558623.09 1716.01,-554759.09"/>
<polygon fill="#63b8ff" stroke="#63b8ff" points="1019.54,-1109520.55 1011.58,-1109527.55 1022.16,-1109527.04 1019.54,-1109520.55"/>
</a>
</g>
</g>
<!-- Node12 -->
<g id="Node000012" class="node">
<title>Node12</title>
<g id="a_Node000012"><a xlink:href="traverse__dir__ll_8c.html" target="_top" xlink:title=" ">
<polygon fill="white" stroke="#666666" points="2039.5,-554750.66 1828.5,-554750.66 1828.5,-554724.66 2039.5,-554724.66 2039.5,-554750.66"/>
<text text-anchor="middle" x="1934" y="-554737.16" font-family="Helvetica,sans-Serif" font-size="10.00">examples/traverse_dir_ll.c</text>
</a>
</g>
</g>
<!-- Node2&#45;&gt;Node12 -->
<g id="edge11_Node000002_Node000012" class="edge">
<title>Node2&#45;&gt;Node12</title>
<g id="a_edge11_Node000002_Node000012"><a xlink:title=" ">
<path fill="none" stroke="#63b8ff" d="M1020.69,-1109523.73C1032.93,-1109518.95 1047.41,-1109514.04 1061,-1109511.31 1143.67,-1109494.72 1760.8,-1109536.33 1819,-1109475.31 2150.46,-1109127.81 1935.18,-557746.08 1934,-554750.9"/>
<polygon fill="#63b8ff" stroke="#63b8ff" points="1019.5,-1109520.43 1011.56,-1109527.45 1022.14,-1109526.91 1019.5,-1109520.43"/>
</a>
</g>
</g>
</g>
</svg>

<g id="navigator" transform="translate(0 0)" fill="#404254">
  <rect fill="#f2f5e9" fill-opacity="0.5" stroke="#606060" stroke-width=".5" x="0" y="0" width="60" height="60"/>
  <use id="zoomplus" xlink:href="#zoomPlus" x="17" y="9" onmousedown="handleZoom(evt,'in')"/>
  <use id="zoomminus" xlink:href="#zoomMin" x="42" y="9" onmousedown="handleZoom(evt,'out')"/>
  <use id="reset" xlink:href="#resetDef" x="30" y="36" onmousedown="handleReset()"/>
   <use id="arrowup" xlink:href="#arrowUp" x="0" y="0" onmousedown="handlePan(0,-1)"/>
  <use id="arrowright" xlink:href="#arrowRight" x="0" y="0" onmousedown="handlePan(1,0)"/>
  <use id="arrowdown" xlink:href="#arrowDown" x="0" y="0" onmousedown="handlePan(0,1)"/>
  <use id="arrowleft" xlink:href="#arrowLeft" x="0" y="0" onmousedown="handlePan(-1,0)"/>
</g>
<svg viewBox="0 0 15 15" width="100%" height="30px" preserveAspectRatio="xMaxYMin meet">
 <g id="arrow_out" transform="scale(0.3 0.3)">
  <a xlink:href="sqsh__archive_8h__dep__incl_org.svg" target="_base">
   <rect id="button" ry="5" rx="5" y="6" x="6" height="38" width="38"
        fill="#f2f5e9" fill-opacity="0.5" stroke="#606060" stroke-width="1.0"/>
   <path id="arrow"
     d="M 11.500037,31.436501 C 11.940474,20.09759 22.043105,11.32322 32.158766,21.979434 L 37.068811,17.246167 C 37.068811,17.246167 37.088388,32 37.088388,32 L 22.160133,31.978069 C 22.160133,31.978069 26.997745,27.140456 26.997745,27.140456 C 18.528582,18.264221 13.291696,25.230495 11.500037,31.436501 z"
     style="fill:#404040;"/>
  </a>
 </g>
</svg>

<style type='text/css'>
<![CDATA[
[data-mouse-over-selected='false'] { opacity: 0.7; }
[data-mouse-over-selected='true']  { opacity: 1.0; }
]]>
</style>
<script type="application/ecmascript"><![CDATA[
document.addEventListener('DOMContentLoaded', (event) => {
  highlightEdges();
  highlightAdjacentNodes();
});
]]></script>
</svg>
