<?xml version="1.0" encoding="UTF-8" standalone="no"?>
<!DOCTYPE svg PUBLIC "-//W3C//DTD SVG 1.1//EN"
 "http://www.w3.org/Graphics/SVG/1.1/DTD/svg11.dtd">
<!-- Generated by graphviz version 9.0.0 (20230911.1827)
 -->
<!-- Title: libsqsh/include/sqsh_tree_private.h Pages: 1 -->
<!--zoomable 57553 -->

<svg id="main" version="1.1" xmlns="http://www.w3.org/2000/svg" xmlns:xlink="http://www.w3.org/1999/xlink" xml:space="preserve" onload="init(evt)">
<style type="text/css"><![CDATA[
.node, .edge {opacity: 0.7;}
.node.selected, .edge.selected {opacity: 1;}
.edge:hover path { stroke: red; }
.edge:hover polygon { stroke: red; fill: red; }
]]></style>

<defs>
  <circle id="rim" cx="0" cy="0" r="7"/>
  <circle id="rim2" cx="0" cy="0" r="3.5"/>
  <g id="zoomPlus">
    <use xlink:href="#rim" fill="#404040"><set attributeName="fill" to="#808080" begin="zoomplus.mouseover" end="zoomplus.mouseout"/></use>
    <path d="M-4,0h8M0,-4v8" fill="none" stroke="white" stroke-width="1.5" pointer-events="none"/>
  </g>
  <g id="zoomMin">
    <use xlink:href="#rim" fill="#404040"><set attributeName="fill" to="#808080" begin="zoomminus.mouseover" end="zoomminus.mouseout"/></use>
    <path d="M-4,0h8" fill="none" stroke="white" stroke-width="1.5" pointer-events="none"/>
  </g>
  <g id="arrowUp" transform="translate(30 24)">
    <use xlink:href="#rim"/>
    <path pointer-events="none" fill="none" stroke="white" stroke-width="1.5" d="M0,-3.0v7 M-2.5,-0.5L0,-3.0L2.5,-0.5"/>
  </g>
  <g id="arrowRight" transform="rotate(90) translate(36 -43)">
    <use xlink:href="#rim"/>
    <path pointer-events="none" fill="none" stroke="white" stroke-width="1.5" d="M0,-3.0v7 M-2.5,-0.5L0,-3.0L2.5,-0.5"/>
  </g>
  <g id="arrowDown" transform="rotate(180) translate(-30 -48)">
    <use xlink:href="#rim"/>
    <path pointer-events="none" fill="none" stroke="white" stroke-width="1.5" d="M0,-3.0v7 M-2.5,-0.5L0,-3.0L2.5,-0.5"/>
  </g>
  <g id="arrowLeft" transform="rotate(270) translate(-36 17)">
    <use xlink:href="#rim"/>
    <path pointer-events="none" fill="none" stroke="white" stroke-width="1.5" d="M0,-3.0v7 M-2.5,-0.5L0,-3.0L2.5,-0.5"/>
  </g>
  <g id="resetDef">
    <use xlink:href="#rim2" fill="#404040"><set attributeName="fill" to="#808080" begin="reset.mouseover" end="reset.mouseout"/></use>
  </g>
</defs>
<script type="application/ecmascript">
var viewWidth = 1014;
var viewHeight = 57553;
var sectionId = 'dynsection-0';
</script>
<script type="application/ecmascript" xlink:href="svg.min.js"/>
<svg id="graph" class="graph">
<g id="viewport">
<title>libsqsh/include/sqsh_tree_private.h</title>
<!-- Node1 -->
<g id="Node000001" class="node">
<title>Node1</title>
<g id="a_Node000001"><a xlink:title=" ">
<polygon fill="#999999" stroke="#666666" points="849.96,-57545.37 683.96,-57545.37 683.96,-57516.37 849.96,-57516.37 849.96,-57545.37"/>
<text text-anchor="start" x="691.96" y="-57531.87" font-family="Helvetica,sans-Serif" font-size="10.00">libsqsh/include/sqsh</text>
<text text-anchor="middle" x="766.96" y="-57521.37" font-family="Helvetica,sans-Serif" font-size="10.00">_tree_private.h</text>
</a>
</g>
</g>
<!-- Node2 -->
<g id="Node000002" class="node">
<title>Node2</title>
<g id="a_Node000002"><a xlink:href="sqsh__directory__private_8h.html" target="_top" xlink:title=" ">
<polygon fill="white" stroke="#666666" points="710.96,-57480.37 514.96,-57480.37 514.96,-43281.2 710.96,-43281.2 710.96,-57480.37"/>
<text text-anchor="middle" x="612.96" y="-57466.87" font-family="Helvetica,sans-Serif" font-size="10.00">sqsh_directory_private.h</text>
</a>
</g>
</g>
<!-- Node1&#45;&gt;Node2 -->
<g id="edge1_Node000001_Node000002" class="edge">
<title>Node1&#45;&gt;Node2</title>
<g id="a_edge1_Node000001_Node000002"><a xlink:title=" ">
<path fill="none" stroke="#63b8ff" d="M762.07,-57516.21C758.81,-57506.38 754.79,-57492.74 752.96,-57480.37 505.29,-55815.48 482.01,-53906.97 514.2,-52488.46"/>
<polygon fill="#63b8ff" stroke="#63b8ff" points="517.69,-52488.6 514.42,-52478.52 510.7,-52488.44 517.69,-52488.6"/>
</a>
</g>
</g>
<!-- Node18 -->
<g id="Node000018" class="node">
<title>Node18</title>
<g id="a_Node000018"><a xlink:href="sqsh__tree_8h.html" target="_top" xlink:title=" ">
<polygon fill="white" stroke="#666666" points="845.21,-36019.04 746.71,-36019.04 746.71,-36000.54 845.21,-36000.54 845.21,-36019.04"/>
<text text-anchor="middle" x="795.96" y="-36005.54" font-family="Helvetica,sans-Serif" font-size="10.00">sqsh_tree.h</text>
</a>
</g>
</g>
<!-- Node1&#45;&gt;Node18 -->
<g id="edge27_Node000001_Node000018" class="edge">
<title>Node1&#45;&gt;Node18</title>
<g id="a_edge27_Node000001_Node000018"><a xlink:title=" ">
<path fill="none" stroke="#63b8ff" d="M766.97,-57516.13C767.46,-57148.14 777.59,-49460.88 785.96,-43281.2 790.15,-40182.75 795.49,-36341.53 795.93,-36030.93"/>
<polygon fill="#63b8ff" stroke="#63b8ff" points="799.43,-36030.95 795.94,-36020.95 792.43,-36030.94 799.43,-36030.95"/>
</a>
</g>
</g>
<!-- Node19 -->
<g id="Node000019" class="node">
<title>Node19</title>
<g id="a_Node000019"><a xlink:title=" ">
<polygon fill="#e0e0e0" stroke="#999999" points="930.96,-50390.03 794.96,-50390.03 794.96,-50371.53 930.96,-50371.53 930.96,-50390.03"/>
<text text-anchor="middle" x="862.96" y="-50376.53" font-family="Helvetica,sans-Serif" font-size="10.00">cextras/memory.h</text>
</a>
</g>
</g>
<!-- Node1&#45;&gt;Node19 -->
<g id="edge30_Node000001_Node000019" class="edge">
<title>Node1&#45;&gt;Node19</title>
<g id="a_edge30_Node000001_Node000019"><a xlink:title=" ">
<path fill="none" stroke="#63b8ff" d="M771.87,-57516.21C775.15,-57506.39 779.17,-57492.74 780.96,-57480.37 1213.89,-54486.08 891.95,-50707.25 864.75,-50401.61"/>
<polygon fill="#63b8ff" stroke="#63b8ff" points="868.25,-50401.45 863.87,-50391.8 861.27,-50402.07 868.25,-50401.45"/>
</a>
</g>
</g>
<!-- Node3 -->
<g id="Node000003" class="node">
<title>Node3</title>
<g id="a_Node000003"><a xlink:href="sqsh__directory_8h.html" target="_top" xlink:title=" ">
<polygon fill="white" stroke="#666666" points="728.96,-43245.2 592.96,-43245.2 592.96,-28774.38 728.96,-28774.38 728.96,-43245.2"/>
<text text-anchor="middle" x="660.96" y="-43231.7" font-family="Helvetica,sans-Serif" font-size="10.00">sqsh_directory.h</text>
</a>
</g>
</g>
<!-- Node2&#45;&gt;Node3 -->
<g id="edge2_Node000002_Node000003" class="edge">
<title>Node2&#45;&gt;Node3</title>
<g id="a_edge2_Node000002_Node000003"><a xlink:title=" ">
<path fill="none" stroke="#63b8ff" d="M636.67,-43280.79C636.7,-43272.83 636.72,-43264.87 636.75,-43256.91"/>
<polygon fill="#63b8ff" stroke="#63b8ff" points="640.25,-43257.18 636.78,-43247.17 633.25,-43257.16 640.25,-43257.18"/>
</a>
</g>
</g>
<!-- Node9 -->
<g id="Node000009" class="node">
<title>Node9</title>
<g id="a_Node000009"><a xlink:href="sqsh__file__private_8h.html" target="_top" xlink:title=" ">
<polygon fill="white" stroke="#666666" points="537.21,-36031.01 378.71,-36031.01 378.71,-35988.57 537.21,-35988.57 537.21,-36031.01"/>
<text text-anchor="middle" x="457.96" y="-36017.51" font-family="Helvetica,sans-Serif" font-size="10.00">sqsh_file_private.h</text>
</a>
</g>
</g>
<!-- Node2&#45;&gt;Node9 -->
<g id="edge8_Node000002_Node000009" class="edge">
<title>Node2&#45;&gt;Node9</title>
<g id="a_edge8_Node000002_Node000009"><a xlink:title=" ">
<path fill="none" stroke="#63b8ff" d="M536.38,-43280.79C499.45,-39857.35 462.24,-36408.01 458.3,-36042.64"/>
<polygon fill="#63b8ff" stroke="#63b8ff" points="461.8,-36042.64 458.19,-36032.68 454.8,-36042.72 461.8,-36042.64"/>
</a>
</g>
</g>
<!-- Node17 -->
<g id="Node000017" class="node">
<title>Node17</title>
<g id="a_Node000017"><a xlink:href="sqsh__metablock__private_8h.html" target="_top" xlink:title=" ">
<polygon fill="white" stroke="#666666" points="609.96,-21648.35 413.96,-21648.35 413.96,-21629.85 609.96,-21629.85 609.96,-21648.35"/>
<text text-anchor="middle" x="511.96" y="-21634.85" font-family="Helvetica,sans-Serif" font-size="10.00">sqsh_metablock_private.h</text>
</a>
</g>
</g>
<!-- Node2&#45;&gt;Node17 -->
<g id="edge26_Node000002_Node000017" class="edge">
<title>Node2&#45;&gt;Node17</title>
<g id="a_edge26_Node000002_Node000017"><a xlink:title=" ">
<path fill="none" stroke="#63b8ff" d="M584.07,-43280.94C584.03,-43269.01 583.99,-43257.1 583.96,-43245.2 562.44,-36813.74 569.72,-35205.83 545.96,-28774.38 534.72,-25733.93 513.77,-21964.64 512.07,-21659.87"/>
<polygon fill="#63b8ff" stroke="#63b8ff" points="515.57,-21660.08 512.01,-21650.1 508.57,-21660.12 515.57,-21660.08"/>
</a>
</g>
</g>
<!-- Node4 -->
<g id="Node000004" class="node">
<title>Node4</title>
<g id="a_Node000004"><a xlink:href="sqsh__file_8h.html" target="_top" xlink:title=" ">
<polygon fill="white" stroke="#666666" points="805.21,-28738.38 706.71,-28738.38 706.71,-14539.82 805.21,-14539.82 805.21,-28738.38"/>
<text text-anchor="middle" x="755.96" y="-28724.88" font-family="Helvetica,sans-Serif" font-size="10.00">sqsh_file.h</text>
</a>
</g>
</g>
<!-- Node3&#45;&gt;Node4 -->
<g id="edge3_Node000003_Node000004" class="edge">
<title>Node3&#45;&gt;Node4</title>
<g id="a_edge3_Node000003_Node000004"><a xlink:title=" ">
<path fill="none" stroke="#63b8ff" d="M708.79,-28774.13C708.84,-28766.12 708.89,-28758.11 708.95,-28750.1"/>
<polygon fill="#63b8ff" stroke="#63b8ff" points="712.45,-28750.32 709.01,-28740.29 705.45,-28750.27 712.45,-28750.32"/>
</a>
</g>
</g>
<!-- Node5 -->
<g id="Node000005" class="node">
<title>Node5</title>
<g id="a_Node000005"><a xlink:href="sqsh__common_8h.html" target="_top" xlink:title=" ">
<polygon fill="white" stroke="#666666" points="839.71,-14363.38 726.21,-14363.38 726.21,-54.5 839.71,-54.5 839.71,-14363.38"/>
<text text-anchor="middle" x="782.96" y="-14349.88" font-family="Helvetica,sans-Serif" font-size="10.00">sqsh_common.h</text>
</a>
</g>
</g>
<!-- Node4&#45;&gt;Node5 -->
<g id="edge4_Node000004_Node000005" class="edge">
<title>Node4&#45;&gt;Node5</title>
<g id="a_edge4_Node000004_Node000005"><a xlink:title=" ">
<path fill="none" stroke="#63b8ff" d="M805.69,-20174.68C850.1,-18712.6 905.99,-16400.61 890.96,-14399.38 881,-13073.58 860.71,-11610.36 840.38,-10351.96"/>
<polygon fill="#63b8ff" stroke="#63b8ff" points="843.89,-10352.33 840.23,-10342.39 836.89,-10352.44 843.89,-10352.33"/>
</a>
</g>
</g>
<!-- Node6 -->
<g id="Node000006" class="node">
<title>Node6</title>
<g id="a_Node000006"><a xlink:title=" ">
<polygon fill="#e0e0e0" stroke="#999999" points="824.71,-18.5 741.21,-18.5 741.21,0 824.71,0 824.71,-18.5"/>
<text text-anchor="middle" x="782.96" y="-5" font-family="Helvetica,sans-Serif" font-size="10.00">stdbool.h</text>
</a>
</g>
</g>
<!-- Node5&#45;&gt;Node6 -->
<g id="edge5_Node000005_Node000006" class="edge">
<title>Node5&#45;&gt;Node6</title>
<g id="a_edge5_Node000005_Node000006"><a xlink:title=" ">
<path fill="none" stroke="#63b8ff" d="M782.96,-54.35C782.96,-44.81 782.96,-36.77 782.96,-30.28"/>
<polygon fill="#63b8ff" stroke="#63b8ff" points="786.46,-30.35 782.96,-20.35 779.46,-30.35 786.46,-30.35"/>
</a>
</g>
</g>
<!-- Node7 -->
<g id="Node000007" class="node">
<title>Node7</title>
<g id="a_Node000007"><a xlink:title=" ">
<polygon fill="#e0e0e0" stroke="#999999" points="624.96,-18.5 548.96,-18.5 548.96,0 624.96,0 624.96,-18.5"/>
<text text-anchor="middle" x="586.96" y="-5" font-family="Helvetica,sans-Serif" font-size="10.00">stddef.h</text>
</a>
</g>
</g>
<!-- Node5&#45;&gt;Node7 -->
<g id="edge6_Node000005_Node000007" class="edge">
<title>Node5&#45;&gt;Node7</title>
<g id="a_edge6_Node000005_Node000007"><a xlink:title=" ">
<path fill="none" stroke="#63b8ff" d="M725.71,-5105.81C670.63,-3082.94 594.64,-292.39 587.5,-30.2"/>
<polygon fill="#63b8ff" stroke="#63b8ff" points="591,-30.25 587.23,-20.35 584,-30.44 591,-30.25"/>
</a>
</g>
</g>
<!-- Node8 -->
<g id="Node000008" class="node">
<title>Node8</title>
<g id="a_Node000008"><a xlink:title=" ">
<polygon fill="#e0e0e0" stroke="#999999" points="340.96,-18.5 264.96,-18.5 264.96,0 340.96,0 340.96,-18.5"/>
<text text-anchor="middle" x="302.96" y="-5" font-family="Helvetica,sans-Serif" font-size="10.00">stdint.h</text>
</a>
</g>
</g>
<!-- Node5&#45;&gt;Node8 -->
<g id="edge7_Node000005_Node000008" class="edge">
<title>Node5&#45;&gt;Node8</title>
<g id="a_edge7_Node000005_Node000008"><a xlink:title=" ">
<path fill="none" stroke="#63b8ff" d="M725.71,-6349.56C603.33,-4514.43 325.58,-349.51 304.26,-29.77"/>
<polygon fill="#63b8ff" stroke="#63b8ff" points="307.78,-29.96 303.62,-20.21 300.79,-30.43 307.78,-29.96"/>
</a>
</g>
</g>
<!-- Node9&#45;&gt;Node4 -->
<g id="edge9_Node000009_Node000004" class="edge">
<title>Node9&#45;&gt;Node4</title>
<g id="a_edge9_Node000009_Node000004"><a xlink:title=" ">
<path fill="none" stroke="#63b8ff" d="M455.47,-35988.08C410.23,-35607.59 -228.2,-30097.1 583.96,-28774.38 601.85,-28745.24 634.1,-28767.55 651.96,-28738.38 948.01,-28254.72 872.13,-24797.68 806.09,-22892.54"/>
<polygon fill="#63b8ff" stroke="#63b8ff" points="809.6,-22892.76 805.76,-22882.89 802.6,-22893.01 809.6,-22892.76"/>
</a>
</g>
</g>
<!-- Node9&#45;&gt;Node8 -->
<g id="edge25_Node000009_Node000008" class="edge">
<title>Node9&#45;&gt;Node8</title>
<g id="a_edge25_Node000009_Node000008"><a xlink:title=" ">
<path fill="none" stroke="#63b8ff" d="M456.92,-35988.27C441.1,-35675.03 249.1,-31837.04 176.96,-28738.38 29.48,-22404.44 63.96,-20819.26 63.96,-14483.6 63.96,-14483.6 63.96,-14483.6 63.96,-14411.38 63.96,-8196.29 289.25,-474.51 302.36,-30.34"/>
<polygon fill="#63b8ff" stroke="#63b8ff" points="305.86,-30.5 302.65,-20.4 298.86,-30.29 305.86,-30.5"/>
</a>
</g>
</g>
<!-- Node10 -->
<g id="Node000010" class="node">
<title>Node10</title>
<g id="a_Node000010"><a xlink:href="sqsh__extract__private_8h.html" target="_top" xlink:title=" ">
<polygon fill="white" stroke="#666666" points="728.46,-14495.6 547.46,-14495.6 547.46,-14469.6 728.46,-14469.6 728.46,-14495.6"/>
<text text-anchor="middle" x="637.96" y="-14482.1" font-family="Helvetica,sans-Serif" font-size="10.00">sqsh_extract_private.h</text>
</a>
</g>
</g>
<!-- Node9&#45;&gt;Node10 -->
<g id="edge10_Node000009_Node000010" class="edge">
<title>Node9&#45;&gt;Node10</title>
<g id="a_edge10_Node000009_Node000010"><a xlink:title=" ">
<path fill="none" stroke="#63b8ff" d="M452.72,-35988.14C371.87,-35665.18 -601.54,-31623 583.96,-28774.38 592.53,-28753.78 610.55,-28759.06 618.96,-28738.38 764.56,-28380.42 644.06,-15143.83 638.18,-14507.32"/>
<polygon fill="#63b8ff" stroke="#63b8ff" points="641.68,-14507.46 638.08,-14497.49 634.68,-14507.52 641.68,-14507.46"/>
</a>
</g>
</g>
<!-- Node14 -->
<g id="Node000014" class="node">
<title>Node14</title>
<g id="a_Node000014"><a xlink:href="sqsh__mapper__private_8h.html" target="_top" xlink:title=" ">
<polygon fill="white" stroke="#666666" points="472.71,-14503.82 299.21,-14503.82 299.21,-14461.38 472.71,-14461.38 472.71,-14503.82"/>
<text text-anchor="middle" x="385.96" y="-14490.32" font-family="Helvetica,sans-Serif" font-size="10.00">sqsh_mapper_private.h</text>
</a>
</g>
</g>
<!-- Node9&#45;&gt;Node14 -->
<g id="edge15_Node000009_Node000014" class="edge">
<title>Node9&#45;&gt;Node14</title>
<g id="a_edge15_Node000009_Node000014"><a xlink:title=" ">
<path fill="none" stroke="#63b8ff" d="M457.76,-35988.26C454.76,-35674.91 418.31,-31835.62 404.96,-28738.38 378.65,-22636.67 385.39,-15065.67 385.92,-14515.45"/>
<polygon fill="#63b8ff" stroke="#63b8ff" points="389.42,-14515.61 385.93,-14505.6 382.42,-14515.6 389.42,-14515.61"/>
</a>
</g>
</g>
<!-- Node16 -->
<g id="Node000016" class="node">
<title>Node16</title>
<g id="a_Node000016"><a xlink:title=" ">
<polygon fill="#e0e0e0" stroke="#999999" points="265.71,-14421.63 92.21,-14421.63 92.21,-14403.13 265.71,-14403.13 265.71,-14421.63"/>
<text text-anchor="middle" x="178.96" y="-14408.13" font-family="Helvetica,sans-Serif" font-size="10.00">sqsh_reader_private.h</text>
</a>
</g>
</g>
<!-- Node9&#45;&gt;Node16 -->
<g id="edge24_Node000009_Node000016" class="edge">
<title>Node9&#45;&gt;Node16</title>
<g id="a_edge24_Node000009_Node000016"><a xlink:title=" ">
<path fill="none" stroke="#63b8ff" d="M457.69,-35988.18C448.21,-35254.16 188.55,-15156.33 179.21,-14433.37"/>
<polygon fill="#63b8ff" stroke="#63b8ff" points="182.71,-14433.36 179.08,-14423.41 175.71,-14433.46 182.71,-14433.36"/>
</a>
</g>
</g>
<!-- Node9&#45;&gt;Node17 -->
<g id="edge21_Node000009_Node000017" class="edge">
<title>Node9&#45;&gt;Node17</title>
<g id="a_edge21_Node000009_Node000017"><a xlink:title=" ">
<path fill="none" stroke="#63b8ff" d="M458.03,-35988.28C460.25,-35397.64 509.7,-22241.29 511.88,-21659.96"/>
<polygon fill="#63b8ff" stroke="#63b8ff" points="515.38,-21660.1 511.92,-21650.09 508.38,-21660.08 515.38,-21660.1"/>
</a>
</g>
</g>
<!-- Node11 -->
<g id="Node000011" class="node">
<title>Node11</title>
<g id="a_Node000011"><a xlink:title=" ">
<polygon fill="#e0e0e0" stroke="#999999" points="765.96,-14421.63 599.96,-14421.63 599.96,-14403.13 765.96,-14403.13 765.96,-14421.63"/>
<text text-anchor="middle" x="682.96" y="-14408.13" font-family="Helvetica,sans-Serif" font-size="10.00">cextras/collection.h</text>
</a>
</g>
</g>
<!-- Node10&#45;&gt;Node11 -->
<g id="edge11_Node000010_Node000011" class="edge">
<title>Node10&#45;&gt;Node11</title>
<g id="a_edge11_Node000010_Node000011"><a xlink:title=" ">
<path fill="none" stroke="#63b8ff" d="M646,-14469.41C652.96,-14458.85 663.12,-14443.45 671.03,-14431.46"/>
<polygon fill="#63b8ff" stroke="#63b8ff" points="673.84,-14433.55 676.43,-14423.28 668,-14429.7 673.84,-14433.55"/>
</a>
</g>
</g>
<!-- Node12 -->
<g id="Node000012" class="node">
<title>Node12</title>
<g id="a_Node000012"><a xlink:href="sqsh__data_8h.html" target="_top" xlink:title=" ">
<polygon fill="white" stroke="#666666" points="882.21,-14421.63 783.71,-14421.63 783.71,-14403.13 882.21,-14403.13 882.21,-14421.63"/>
<text text-anchor="middle" x="832.96" y="-14408.13" font-family="Helvetica,sans-Serif" font-size="10.00">sqsh_data.h</text>
</a>
</g>
</g>
<!-- Node10&#45;&gt;Node12 -->
<g id="edge12_Node000010_Node000012" class="edge">
<title>Node10&#45;&gt;Node12</title>
<g id="a_edge12_Node000010_Node000012"><a xlink:title=" ">
<path fill="none" stroke="#63b8ff" d="M673.27,-14469.25C708.43,-14456.95 762.1,-14438.17 797.36,-14425.84"/>
<polygon fill="#63b8ff" stroke="#63b8ff" points="798.4,-14429.18 806.68,-14422.57 796.09,-14422.57 798.4,-14429.18"/>
</a>
</g>
</g>
<!-- Node13 -->
<g id="Node000013" class="node">
<title>Node13</title>
<g id="a_Node000013"><a xlink:title=" ">
<polygon fill="#e0e0e0" stroke="#999999" points="581.96,-14421.63 415.96,-14421.63 415.96,-14403.13 581.96,-14403.13 581.96,-14421.63"/>
<text text-anchor="middle" x="498.96" y="-14408.13" font-family="Helvetica,sans-Serif" font-size="10.00">sqsh_utils_private.h</text>
</a>
</g>
</g>
<!-- Node10&#45;&gt;Node13 -->
<g id="edge14_Node000010_Node000013" class="edge">
<title>Node10&#45;&gt;Node13</title>
<g id="a_edge14_Node000010_Node000013"><a xlink:title=" ">
<path fill="none" stroke="#63b8ff" d="M612.78,-14469.25C588.52,-14457.34 551.89,-14439.36 526.78,-14427.04"/>
<polygon fill="#63b8ff" stroke="#63b8ff" points="528.34,-14423.91 517.82,-14422.64 525.25,-14430.19 528.34,-14423.91"/>
</a>
</g>
</g>
<!-- Node12&#45;&gt;Node5 -->
<g id="edge13_Node000012_Node000005" class="edge">
<title>Node12&#45;&gt;Node5</title>
<g id="a_edge13_Node000012_Node000005"><a xlink:title=" ">
<path fill="none" stroke="#63b8ff" d="M832.9,-14402.84C832.85,-14396.71 832.79,-14387.34 832.7,-14374.86"/>
<polygon fill="#63b8ff" stroke="#63b8ff" points="836.2,-14375.14 832.63,-14365.16 829.2,-14375.18 836.2,-14375.14"/>
</a>
</g>
</g>
<!-- Node14&#45;&gt;Node13 -->
<g id="edge20_Node000014_Node000013" class="edge">
<title>Node14&#45;&gt;Node13</title>
<g id="a_edge20_Node000014_Node000013"><a xlink:title=" ">
<path fill="none" stroke="#63b8ff" d="M420.17,-14460.95C437.86,-14450.27 459.02,-14437.49 474.96,-14427.87"/>
<polygon fill="#63b8ff" stroke="#63b8ff" points="476.54,-14431.01 483.29,-14422.84 472.92,-14425.01 476.54,-14431.01"/>
</a>
</g>
</g>
<!-- Node15 -->
<g id="Node000015" class="node">
<title>Node15</title>
<g id="a_Node000015"><a xlink:href="sqsh__mapper_8h.html" target="_top" xlink:title=" ">
<polygon fill="white" stroke="#666666" points="397.71,-14425.38 284.21,-14425.38 284.21,-14399.38 397.71,-14399.38 397.71,-14425.38"/>
<text text-anchor="middle" x="340.96" y="-14411.88" font-family="Helvetica,sans-Serif" font-size="10.00">sqsh_mapper.h</text>
</a>
</g>
</g>
<!-- Node14&#45;&gt;Node15 -->
<g id="edge16_Node000014_Node000015" class="edge">
<title>Node14&#45;&gt;Node15</title>
<g id="a_edge16_Node000014_Node000015"><a xlink:title=" ">
<path fill="none" stroke="#63b8ff" d="M372.45,-14461.13C367.01,-14452.88 360.71,-14443.34 355.19,-14434.97"/>
<polygon fill="#63b8ff" stroke="#63b8ff" points="358.21,-14433.19 349.78,-14426.77 352.37,-14437.04 358.21,-14433.19"/>
</a>
</g>
</g>
<!-- Node14&#45;&gt;Node16 -->
<g id="edge19_Node000014_Node000016" class="edge">
<title>Node14&#45;&gt;Node16</title>
<g id="a_edge19_Node000014_Node000016"><a xlink:title=" ">
<path fill="none" stroke="#63b8ff" d="M323.29,-14460.95C288.26,-14449.4 245.79,-14435.41 216.03,-14425.6"/>
<polygon fill="#63b8ff" stroke="#63b8ff" points="217.31,-14422.34 206.72,-14422.53 215.12,-14428.99 217.31,-14422.34"/>
</a>
</g>
</g>
<!-- Node15&#45;&gt;Node5 -->
<g id="edge17_Node000015_Node000005" class="edge">
<title>Node15&#45;&gt;Node5</title>
<g id="a_edge17_Node000015_Node000005"><a xlink:title=" ">
<path fill="none" stroke="#63b8ff" d="M366.29,-14399.05C379.98,-14390.94 395.73,-14378.94 403.96,-14363.38 927.97,-13372.21 901.85,-10228.8 840.59,-8456.47"/>
<polygon fill="#63b8ff" stroke="#63b8ff" points="844.09,-8456.49 840.25,-8446.62 837.1,-8456.73 844.09,-8456.49"/>
</a>
</g>
</g>
<!-- Node15&#45;&gt;Node7 -->
<g id="edge18_Node000015_Node000007" class="edge">
<title>Node15&#45;&gt;Node7</title>
<g id="a_edge18_Node000015_Node000007"><a xlink:title=" ">
<path fill="none" stroke="#63b8ff" d="M341.17,-14398.91C349.11,-13933.76 576.67,-612.21 586.62,-29.92"/>
<polygon fill="#63b8ff" stroke="#63b8ff" points="590.11,-30.4 586.78,-20.34 583.11,-30.28 590.11,-30.4"/>
</a>
</g>
</g>
<!-- Node17&#45;&gt;Node10 -->
<g id="edge22_Node000017_Node000010" class="edge">
<title>Node17&#45;&gt;Node10</title>
<g id="a_edge22_Node000017_Node000010"><a xlink:title=" ">
<path fill="none" stroke="#63b8ff" d="M511.33,-21629.61C496.52,-21425.49 226.17,-17584.4 623.96,-14539.82 625.4,-14528.78 628.21,-14516.78 630.94,-14506.71"/>
<polygon fill="#63b8ff" stroke="#63b8ff" points="634.21,-14507.98 633.6,-14497.41 627.48,-14506.06 634.21,-14507.98"/>
</a>
</g>
</g>
<!-- Node17&#45;&gt;Node14 -->
<g id="edge23_Node000017_Node000014" class="edge">
<title>Node17&#45;&gt;Node14</title>
<g id="a_edge23_Node000017_Node000014"><a xlink:title=" ">
<path fill="none" stroke="#63b8ff" d="M512.58,-21629.61C527.39,-21425.49 797.74,-17584.4 399.96,-14539.82 398.9,-14531.78 397.13,-14523.23 395.18,-14515.28"/>
<polygon fill="#63b8ff" stroke="#63b8ff" points="398.59,-14514.46 392.67,-14505.67 391.82,-14516.24 398.59,-14514.46"/>
</a>
</g>
</g>
<!-- Node18&#45;&gt;Node4 -->
<g id="edge29_Node000018_Node000004" class="edge">
<title>Node18&#45;&gt;Node4</title>
<g id="a_edge29_Node000018_Node000004"><a xlink:title=" ">
<path fill="none" stroke="#63b8ff" d="M795.93,-36000.23C795.38,-35803.94 785.53,-32265.03 775.75,-28749.92"/>
<polygon fill="#63b8ff" stroke="#63b8ff" points="779.25,-28750.14 775.72,-28740.15 772.25,-28750.16 779.25,-28750.14"/>
</a>
</g>
</g>
<!-- Node18&#45;&gt;Node5 -->
<g id="edge28_Node000018_Node000005" class="edge">
<title>Node18&#45;&gt;Node5</title>
<g id="a_edge28_Node000018_Node000005"><a xlink:title=" ">
<path fill="none" stroke="#63b8ff" d="M796.15,-36000.05C804.22,-35634.18 1061.39,-23852.32 904.96,-14399.38 884.22,-13146.17 860.98,-11770.09 840.39,-10560.28"/>
<polygon fill="#63b8ff" stroke="#63b8ff" points="843.9,-10560.63 840.23,-10550.69 836.9,-10560.75 843.9,-10560.63"/>
</a>
</g>
</g>
</g>
</svg>

<g id="navigator" transform="translate(0 0)" fill="#404254">
  <rect fill="#f2f5e9" fill-opacity="0.5" stroke="#606060" stroke-width=".5" x="0" y="0" width="60" height="60"/>
  <use id="zoomplus" xlink:href="#zoomPlus" x="17" y="9" onmousedown="handleZoom(evt,'in')"/>
  <use id="zoomminus" xlink:href="#zoomMin" x="42" y="9" onmousedown="handleZoom(evt,'out')"/>
  <use id="reset" xlink:href="#resetDef" x="30" y="36" onmousedown="handleReset()"/>
   <use id="arrowup" xlink:href="#arrowUp" x="0" y="0" onmousedown="handlePan(0,-1)"/>
  <use id="arrowright" xlink:href="#arrowRight" x="0" y="0" onmousedown="handlePan(1,0)"/>
  <use id="arrowdown" xlink:href="#arrowDown" x="0" y="0" onmousedown="handlePan(0,1)"/>
  <use id="arrowleft" xlink:href="#arrowLeft" x="0" y="0" onmousedown="handlePan(-1,0)"/>
</g>
<svg viewBox="0 0 15 15" width="100%" height="30px" preserveAspectRatio="xMaxYMin meet">
 <g id="arrow_out" transform="scale(0.3 0.3)">
  <a xlink:href="sqsh__tree__private_8h__incl_org.svg" target="_base">
   <rect id="button" ry="5" rx="5" y="6" x="6" height="38" width="38"
        fill="#f2f5e9" fill-opacity="0.5" stroke="#606060" stroke-width="1.0"/>
   <path id="arrow"
     d="M 11.500037,31.436501 C 11.940474,20.09759 22.043105,11.32322 32.158766,21.979434 L 37.068811,17.246167 C 37.068811,17.246167 37.088388,32 37.088388,32 L 22.160133,31.978069 C 22.160133,31.978069 26.997745,27.140456 26.997745,27.140456 C 18.528582,18.264221 13.291696,25.230495 11.500037,31.436501 z"
     style="fill:#404040;"/>
  </a>
 </g>
</svg>

<style type='text/css'>
<![CDATA[
[data-mouse-over-selected='false'] { opacity: 0.7; }
[data-mouse-over-selected='true']  { opacity: 1.0; }
]]>
</style>
<script type="application/ecmascript"><![CDATA[
document.addEventListener('DOMContentLoaded', (event) => {
  highlightEdges();
  highlightAdjacentNodes();
});
]]></script>
</svg>
