<?xml version="1.0" encoding="UTF-8" standalone="no"?>
<!DOCTYPE svg PUBLIC "-//W3C//DTD SVG 1.1//EN"
 "http://www.w3.org/Graphics/SVG/1.1/DTD/svg11.dtd">
<!-- Generated by graphviz version 8.0.5 (20230430.1635)
 -->
<!-- Title: include/sqsh.h Pages: 1 -->
<svg width="1405pt" height="1128753pt"
 viewBox="0.00 0.00 1405.09 1128752.66" xmlns="http://www.w3.org/2000/svg" xmlns:xlink="http://www.w3.org/1999/xlink">
<g id="graph0" class="graph" transform="scale(1 1) rotate(0) translate(4 1128748.66)">
<title>include/sqsh.h</title>
<!-- Node1 -->
<g id="node1" class="node">
<title>Node1</title>
<g id="a_node1"><a xlink:title=" ">
<polygon fill="#999999" stroke="#666666" points="743.84,-1128744.66 622.84,-1128744.66 622.84,-1128726.16 743.84,-1128726.16 743.84,-1128744.66"/>
<text text-anchor="middle" x="683.34" y="-1128731.16" font-family="Helvetica,sans-Serif" font-size="10.00">include/sqsh.h</text>
</a>
</g>
</g>
<!-- Node2 -->
<g id="node2" class="node">
<title>Node2</title>
<g id="a_node2"><a xlink:href="list__dir_8c.html" target="_top" xlink:title=" ">
<polygon fill="white" stroke="#666666" points="165.59,-1128690.16 7.09,-1128690.16 7.09,0 165.59,0 165.59,-1128690.16"/>
<text text-anchor="middle" x="86.34" y="-1128676.66" font-family="Helvetica,sans-Serif" font-size="10.00">examples/list_dir.c</text>
</a>
</g>
</g>
<!-- Node1&#45;&gt;Node2 -->
<g id="edge1" class="edge">
<title>Node1&#45;&gt;Node2</title>
<path fill="none" stroke="#63b8ff" d="M611.44,-1128733.42C478.08,-1128730.84 203.27,-1128721.72 174.34,-1128690.16 7.65,-1128508.38 -13.5,-985467.79 6.59,-843460.07"/>
<polygon fill="#63b8ff" stroke="#63b8ff" points="611.27,-1128736.94 621.34,-1128733.63 611.4,-1128729.94 611.27,-1128736.94"/>
</g>
<!-- Node3 -->
<g id="node3" class="node">
<title>Node3</title>
<g id="a_node3"><a xlink:href="list__dir__ll_8c.html" target="_top" xlink:title=" ">
<polygon fill="white" stroke="#666666" points="364.84,-1128632.5 183.84,-1128632.5 183.84,-57.66 364.84,-57.66 364.84,-1128632.5"/>
<text text-anchor="middle" x="274.34" y="-1128619" font-family="Helvetica,sans-Serif" font-size="10.00">examples/list_dir_ll.c</text>
</a>
</g>
</g>
<!-- Node1&#45;&gt;Node3 -->
<g id="edge2" class="edge">
<title>Node1&#45;&gt;Node3</title>
<path fill="none" stroke="#63b8ff" d="M611.36,-1128734.59C529.58,-1128733.07 403.52,-1128724.95 373.34,-1128690.16 370.63,-1128687.04 367.96,-1128643.79 365.33,-1128561.08"/>
<polygon fill="#63b8ff" stroke="#63b8ff" points="611.29,-1128738.1 621.34,-1128734.76 611.4,-1128731.1 611.29,-1128738.1"/>
</g>
<!-- Node4 -->
<g id="node4" class="node">
<title>Node4</title>
<g id="a_node4"><a xlink:href="list__xattrs_8c.html" target="_top" xlink:title=" ">
<polygon fill="white" stroke="#666666" points="563.84,-564354.33 382.84,-564354.33 382.84,-564335.83 563.84,-564335.83 563.84,-564354.33"/>
<text text-anchor="middle" x="473.34" y="-564340.83" font-family="Helvetica,sans-Serif" font-size="10.00">examples/list_xattrs.c</text>
</a>
</g>
</g>
<!-- Node1&#45;&gt;Node4 -->
<g id="edge3" class="edge">
<title>Node1&#45;&gt;Node4</title>
<path fill="none" stroke="#63b8ff" d="M617.23,-1128722.28C599.75,-1128715.73 582.85,-1128705.66 572.34,-1128690.16 298.04,-1128285.6 472.54,-566890.29 473.33,-564354.7"/>
<polygon fill="#63b8ff" stroke="#63b8ff" points="615.95,-1128725.87 626.54,-1128725.74 618.17,-1128719.24 615.95,-1128725.87"/>
</g>
<!-- Node5 -->
<g id="node5" class="node">
<title>Node5</title>
<g id="a_node5"><a xlink:href="list__xattrs__ll_8c.html" target="_top" xlink:title=" ">
<polygon fill="white" stroke="#666666" points="785.09,-564354.33 581.59,-564354.33 581.59,-564335.83 785.09,-564335.83 785.09,-564354.33"/>
<text text-anchor="middle" x="683.34" y="-564340.83" font-family="Helvetica,sans-Serif" font-size="10.00">examples/list_xattrs_ll.c</text>
</a>
</g>
</g>
<!-- Node1&#45;&gt;Node5 -->
<g id="edge4" class="edge">
<title>Node1&#45;&gt;Node5</title>
<path fill="none" stroke="#63b8ff" d="M683.34,-1128715.08C683.34,-1124931.51 683.34,-566877.99 683.34,-564354.66"/>
<polygon fill="#63b8ff" stroke="#63b8ff" points="679.84,-1128714.79 683.34,-1128724.79 686.84,-1128714.79 679.84,-1128714.79"/>
</g>
<!-- Node6 -->
<g id="node6" class="node">
<title>Node6</title>
<g id="a_node6"><a xlink:href="read__file_8c.html" target="_top" xlink:title=" ">
<polygon fill="white" stroke="#666666" points="969.34,-564366.26 803.34,-564366.26 803.34,-564323.9 969.34,-564323.9 969.34,-564366.26"/>
<text text-anchor="middle" x="886.34" y="-564352.76" font-family="Helvetica,sans-Serif" font-size="10.00">examples/read_file.c</text>
</a>
</g>
</g>
<!-- Node1&#45;&gt;Node6 -->
<g id="edge5" class="edge">
<title>Node1&#45;&gt;Node6</title>
<path fill="none" stroke="#63b8ff" d="M749.44,-1128722.28C766.92,-1128715.73 783.83,-1128705.66 794.34,-1128690.16 1068.29,-1128286.1 887.6,-568263.15 886.34,-564366.51"/>
<polygon fill="#63b8ff" stroke="#63b8ff" points="748.5,-1128719.24 740.13,-1128725.74 750.72,-1128725.87 748.5,-1128719.24"/>
</g>
<!-- Node7 -->
<g id="node7" class="node">
<title>Node7</title>
<g id="a_node7"><a xlink:href="read__file__ll_8c.html" target="_top" xlink:title=" ">
<polygon fill="white" stroke="#666666" points="1175.59,-564358.08 987.09,-564358.08 987.09,-564332.08 1175.59,-564332.08 1175.59,-564358.08"/>
<text text-anchor="middle" x="1081.34" y="-564344.58" font-family="Helvetica,sans-Serif" font-size="10.00">examples/read_file_ll.c</text>
</a>
</g>
</g>
<!-- Node1&#45;&gt;Node7 -->
<g id="edge6" class="edge">
<title>Node1&#45;&gt;Node7</title>
<path fill="none" stroke="#63b8ff" d="M754.75,-1128733.98C832.65,-1128731.81 950.05,-1128723 978.34,-1128690.16 1297.18,-1128319.99 1082.51,-567405.5 1081.34,-564358.54"/>
<polygon fill="#63b8ff" stroke="#63b8ff" points="754.94,-1128730.5 745.03,-1128734.24 755.12,-1128737.5 754.94,-1128730.5"/>
</g>
<!-- Node8 -->
<g id="node8" class="node">
<title>Node8</title>
<g id="a_node8"><a xlink:href="readme__example_8c.html" target="_top" xlink:title=" ">
<polygon fill="white" stroke="#666666" points="1397.09,-564354.33 1193.59,-564354.33 1193.59,-564335.83 1397.09,-564335.83 1397.09,-564354.33"/>
<text text-anchor="middle" x="1295.34" y="-564340.83" font-family="Helvetica,sans-Serif" font-size="10.00">examples/readme_example.c</text>
</a>
</g>
</g>
<!-- Node1&#45;&gt;Node8 -->
<g id="edge7" class="edge">
<title>Node1&#45;&gt;Node8</title>
<path fill="none" stroke="#63b8ff" d="M754.61,-1128733.33C886.05,-1128730.59 1155.91,-1128721.2 1184.34,-1128690.16 1514.43,-1128329.69 1296.33,-566890.49 1295.34,-564354.7"/>
<polygon fill="#63b8ff" stroke="#63b8ff" points="754.79,-1128729.84 744.86,-1128733.54 754.93,-1128736.84 754.79,-1128729.84"/>
</g>
</g>
</svg>
