<?xml version="1.0" encoding="UTF-8" standalone="no"?>
<!DOCTYPE svg PUBLIC "-//W3C//DTD SVG 1.1//EN"
 "http://www.w3.org/Graphics/SVG/1.1/DTD/svg11.dtd">
<!-- Generated by graphviz version 9.0.0 (20230911.1827)
 -->
<!-- Title: include/sqsh_file.h Pages: 1 -->
<svg width="288pt" height="510302pt"
 viewBox="0.00 0.00 287.87 510301.99" xmlns="http://www.w3.org/2000/svg" xmlns:xlink="http://www.w3.org/1999/xlink">
<g id="graph0" class="graph" transform="scale(1 1) rotate(0) translate(4 510297.99)">
<title>include/sqsh_file.h</title>
<!-- Node1 -->
<g id="Node000001" class="node">
<title>Node1</title>
<g id="a_Node000001"><a xlink:title=" ">
<polygon fill="#999999" stroke="#666666" points="219,-510293.99 60.5,-510293.99 60.5,-510275.49 219,-510275.49 219,-510293.99"/>
<text text-anchor="middle" x="139.75" y="-510280.49" font-family="Helvetica,sans-Serif" font-size="10.00">include/sqsh_file.h</text>
</a>
</g>
</g>
<!-- Node2 -->
<g id="Node000002" class="node">
<title>Node2</title>
<g id="a_Node000002"><a xlink:href="sqsh__common_8h.html" target="_top" xlink:title=" ">
<polygon fill="white" stroke="#666666" points="196.5,-510239.49 83,-510239.49 83,-510220.99 196.5,-510220.99 196.5,-510239.49"/>
<text text-anchor="middle" x="139.75" y="-510225.99" font-family="Helvetica,sans-Serif" font-size="10.00">sqsh_common.h</text>
</a>
</g>
</g>
<!-- Node1&#45;&gt;Node2 -->
<g id="edge1_Node000001_Node000002" class="edge">
<title>Node1&#45;&gt;Node2</title>
<g id="a_edge1_Node000001_Node000002"><a xlink:title=" ">
<path fill="none" stroke="#63b8ff" d="M139.75,-510275.07C139.75,-510268.57 139.75,-510259.41 139.75,-510251.15"/>
<polygon fill="#63b8ff" stroke="#63b8ff" points="143.25,-510251.26 139.75,-510241.26 136.25,-510251.26 143.25,-510251.26"/>
</a>
</g>
</g>
<!-- Node3 -->
<g id="Node000003" class="node">
<title>Node3</title>
<g id="a_Node000003"><a xlink:title=" ">
<polygon fill="#e0e0e0" stroke="#999999" points="83.5,-510184.99 0,-510184.99 0,0 83.5,0 83.5,-510184.99"/>
<text text-anchor="middle" x="41.75" y="-510171.49" font-family="Helvetica,sans-Serif" font-size="10.00">stdbool.h</text>
</a>
</g>
</g>
<!-- Node2&#45;&gt;Node3 -->
<g id="edge2_Node000002_Node000003" class="edge">
<title>Node2&#45;&gt;Node3</title>
<g id="a_edge2_Node000002_Node000003"><a xlink:title=" ">
<path fill="none" stroke="#63b8ff" d="M125.68,-510220.7C114.41,-510212.96 99.42,-510200.42 92.75,-510184.99 89.82,-510178.2 86.97,-510100.61 84.2,-509954.57"/>
<polygon fill="#63b8ff" stroke="#63b8ff" points="87.71,-509954.93 84.03,-509944.99 80.71,-509955.06 87.71,-509954.93"/>
</a>
</g>
</g>
<!-- Node4 -->
<g id="Node000004" class="node">
<title>Node4</title>
<g id="a_Node000004"><a xlink:title=" ">
<polygon fill="#e0e0e0" stroke="#999999" points="177.75,-255101.74 101.75,-255101.74 101.75,-255083.24 177.75,-255083.24 177.75,-255101.74"/>
<text text-anchor="middle" x="139.75" y="-255088.24" font-family="Helvetica,sans-Serif" font-size="10.00">stddef.h</text>
</a>
</g>
</g>
<!-- Node2&#45;&gt;Node4 -->
<g id="edge3_Node000002_Node000004" class="edge">
<title>Node2&#45;&gt;Node4</title>
<g id="a_edge3_Node000002_Node000004"><a xlink:title=" ">
<path fill="none" stroke="#63b8ff" d="M139.75,-510220.63C139.75,-508527.88 139.75,-257682.48 139.75,-255113.36"/>
<polygon fill="#63b8ff" stroke="#63b8ff" points="143.25,-255113.56 139.75,-255103.56 136.25,-255113.56 143.25,-255113.56"/>
</a>
</g>
</g>
<!-- Node5 -->
<g id="Node000005" class="node">
<title>Node5</title>
<g id="a_Node000005"><a xlink:title=" ">
<polygon fill="#e0e0e0" stroke="#999999" points="271.75,-255101.74 195.75,-255101.74 195.75,-255083.24 271.75,-255083.24 271.75,-255101.74"/>
<text text-anchor="middle" x="233.75" y="-255088.24" font-family="Helvetica,sans-Serif" font-size="10.00">stdint.h</text>
</a>
</g>
</g>
<!-- Node2&#45;&gt;Node5 -->
<g id="edge4_Node000002_Node000005" class="edge">
<title>Node2&#45;&gt;Node5</title>
<g id="a_edge4_Node000002_Node000005"><a xlink:title=" ">
<path fill="none" stroke="#63b8ff" d="M153.82,-510220.7C165.09,-510212.96 180.08,-510200.42 186.75,-510184.99 361.51,-509780.53 235.06,-257695.31 233.76,-255113.46"/>
<polygon fill="#63b8ff" stroke="#63b8ff" points="237.26,-255113.6 233.76,-255103.6 230.26,-255113.6 237.26,-255113.6"/>
</a>
</g>
</g>
</g>
</svg>
