<?xml version="1.0" encoding="UTF-8" standalone="no"?>
<!DOCTYPE svg PUBLIC "-//W3C//DTD SVG 1.1//EN"
 "http://www.w3.org/Graphics/SVG/1.1/DTD/svg11.dtd">
<!-- Generated by graphviz version 8.0.5 (20230430.1635)
 -->
<!-- Title: include/sqsh_table.h Pages: 1 -->
<svg width="290pt" height="1144695pt"
 viewBox="0.00 0.00 290.30 1144694.83" xmlns="http://www.w3.org/2000/svg" xmlns:xlink="http://www.w3.org/1999/xlink">
<g id="graph0" class="graph" transform="scale(1 1) rotate(0) translate(4 1144690.83)">
<title>include/sqsh_table.h</title>
<!-- Node1 -->
<g id="node1" class="node">
<title>Node1</title>
<g id="a_node1"><a xlink:title=" ">
<polygon fill="#999999" stroke="#666666" points="233.3,-1144686.83 67.3,-1144686.83 67.3,-1144668.33 233.3,-1144668.33 233.3,-1144686.83"/>
<text text-anchor="middle" x="150.3" y="-1144673.33" font-family="Helvetica,sans-Serif" font-size="10.00">include/sqsh_table.h</text>
</a>
</g>
</g>
<!-- Node2 -->
<g id="node2" class="node">
<title>Node2</title>
<g id="a_node2"><a xlink:href="sqsh__common_8h.html" target="_top" xlink:title=" ">
<polygon fill="white" stroke="#666666" points="207.05,-1144632.33 93.55,-1144632.33 93.55,-1144613.83 207.05,-1144613.83 207.05,-1144632.33"/>
<text text-anchor="middle" x="150.3" y="-1144618.83" font-family="Helvetica,sans-Serif" font-size="10.00">sqsh_common.h</text>
</a>
</g>
</g>
<!-- Node1&#45;&gt;Node2 -->
<g id="edge1" class="edge">
<title>Node1&#45;&gt;Node2</title>
<path fill="none" stroke="#63b8ff" d="M150.3,-1144667.91C150.3,-1144661.26 150.3,-1144651.82 150.3,-1144643.41"/>
<polygon fill="#63b8ff" stroke="#63b8ff" points="153.8,-1144643.59 150.3,-1144633.59 146.8,-1144643.59 153.8,-1144643.59"/>
</g>
<!-- Node3 -->
<g id="node3" class="node">
<title>Node3</title>
<g id="a_node3"><a xlink:title=" ">
<polygon fill="#e0e0e0" stroke="#999999" points="94.05,-1144577.8 10.55,-1144577.8 10.55,-0.04 94.05,-0.04 94.05,-1144577.8"/>
<text text-anchor="middle" x="52.3" y="-1144564.3" font-family="Helvetica,sans-Serif" font-size="10.00">stdbool.h</text>
</a>
</g>
</g>
<!-- Node2&#45;&gt;Node3 -->
<g id="edge2" class="edge">
<title>Node2&#45;&gt;Node3</title>
<path fill="none" stroke="#63b8ff" d="M136.23,-1144613.54C124.96,-1144605.8 109.97,-1144593.26 103.3,-1144577.83 -8.74,-1144318.49 -9.84,-959272.89 10.05,-799696.28"/>
<polygon fill="#63b8ff" stroke="#63b8ff" points="13.55,-799696.33 10.05,-799686.33 6.55,-799696.33 13.55,-799696.33"/>
</g>
<!-- Node4 -->
<g id="node4" class="node">
<title>Node4</title>
<g id="a_node4"><a xlink:title=" ">
<polygon fill="#e0e0e0" stroke="#999999" points="188.3,-1144577.83 112.3,-1144577.83 112.3,0 188.3,0 188.3,-1144577.83"/>
<text text-anchor="middle" x="150.3" y="-1144564.33" font-family="Helvetica,sans-Serif" font-size="10.00">stddef.h</text>
</a>
</g>
</g>
<!-- Node2&#45;&gt;Node4 -->
<g id="edge3" class="edge">
<title>Node2&#45;&gt;Node4</title>
<path fill="none" stroke="#63b8ff" d="M150.3,-1144613.34C150.3,-1144607.86 150.3,-1144599.82 150.3,-1144589.22"/>
<polygon fill="#63b8ff" stroke="#63b8ff" points="153.8,-1144589.28 150.3,-1144579.28 146.8,-1144589.28 153.8,-1144589.28"/>
</g>
<!-- Node5 -->
<g id="node5" class="node">
<title>Node5</title>
<g id="a_node5"><a xlink:title=" ">
<polygon fill="#e0e0e0" stroke="#999999" points="282.3,-572298.17 206.3,-572298.17 206.3,-572279.67 282.3,-572279.67 282.3,-572298.17"/>
<text text-anchor="middle" x="244.3" y="-572284.67" font-family="Helvetica,sans-Serif" font-size="10.00">stdint.h</text>
</a>
</g>
</g>
<!-- Node2&#45;&gt;Node5 -->
<g id="edge4" class="edge">
<title>Node2&#45;&gt;Node5</title>
<path fill="none" stroke="#63b8ff" d="M164.37,-1144613.54C175.64,-1144605.8 190.63,-1144593.26 197.3,-1144577.83 197.3,-1144577.83 243.98,-576157.64 244.3,-572309.54"/>
<polygon fill="#63b8ff" stroke="#63b8ff" points="247.8,-572309.66 244.3,-572299.66 240.8,-572309.66 247.8,-572309.66"/>
</g>
</g>
</svg>
