<?xml version="1.0" encoding="UTF-8" standalone="no"?>
<!DOCTYPE svg PUBLIC "-//W3C//DTD SVG 1.1//EN"
 "http://www.w3.org/Graphics/SVG/1.1/DTD/svg11.dtd">
<!-- Generated by graphviz version 9.0.0 (20230911.1827)
 -->
<!-- Title: include/sqsh_error.h Pages: 1 -->
<svg width="280pt" height="611182pt"
 viewBox="0.00 0.00 279.75 611181.51" xmlns="http://www.w3.org/2000/svg" xmlns:xlink="http://www.w3.org/1999/xlink">
<g id="graph0" class="graph" transform="scale(1 1) rotate(0) translate(4 611177.51)">
<title>include/sqsh_error.h</title>
<!-- Node1 -->
<g id="Node000001" class="node">
<title>Node1</title>
<g id="a_Node000001"><a xlink:title=" ">
<polygon fill="#999999" stroke="#666666" points="222.75,-611173.51 56.75,-611173.51 56.75,-611155.01 222.75,-611155.01 222.75,-611173.51"/>
<text text-anchor="middle" x="139.75" y="-611160.01" font-family="Helvetica,sans-Serif" font-size="10.00">include/sqsh_error.h</text>
</a>
</g>
</g>
<!-- Node2 -->
<g id="Node000002" class="node">
<title>Node2</title>
<g id="a_Node000002"><a xlink:href="sqsh__common_8h.html" target="_top" xlink:title=" ">
<polygon fill="white" stroke="#666666" points="196.5,-611119.01 83,-611119.01 83,-611100.51 196.5,-611100.51 196.5,-611119.01"/>
<text text-anchor="middle" x="139.75" y="-611105.51" font-family="Helvetica,sans-Serif" font-size="10.00">sqsh_common.h</text>
</a>
</g>
</g>
<!-- Node1&#45;&gt;Node2 -->
<g id="edge1_Node000001_Node000002" class="edge">
<title>Node1&#45;&gt;Node2</title>
<g id="a_edge1_Node000001_Node000002"><a xlink:title=" ">
<path fill="none" stroke="#63b8ff" d="M139.75,-611154.59C139.75,-611148.09 139.75,-611138.94 139.75,-611130.67"/>
<polygon fill="#63b8ff" stroke="#63b8ff" points="143.25,-611130.78 139.75,-611120.78 136.25,-611130.78 143.25,-611130.78"/>
</a>
</g>
</g>
<!-- Node3 -->
<g id="Node000003" class="node">
<title>Node3</title>
<g id="a_Node000003"><a xlink:title=" ">
<polygon fill="#e0e0e0" stroke="#999999" points="83.5,-611064.51 0,-611064.51 0,0 83.5,0 83.5,-611064.51"/>
<text text-anchor="middle" x="41.75" y="-611051.01" font-family="Helvetica,sans-Serif" font-size="10.00">stdbool.h</text>
</a>
</g>
</g>
<!-- Node2&#45;&gt;Node3 -->
<g id="edge2_Node000002_Node000003" class="edge">
<title>Node2&#45;&gt;Node3</title>
<g id="a_edge2_Node000002_Node000003"><a xlink:title=" ">
<path fill="none" stroke="#63b8ff" d="M125.68,-611100.22C114.41,-611092.48 99.42,-611079.94 92.75,-611064.51 89.72,-611057.51 86.83,-610798.11 84.06,-610300.84"/>
<polygon fill="#63b8ff" stroke="#63b8ff" points="87.56,-610300.92 84.01,-610290.93 80.56,-610300.95 87.56,-610300.92"/>
</a>
</g>
</g>
<!-- Node4 -->
<g id="Node000004" class="node">
<title>Node4</title>
<g id="a_Node000004"><a xlink:title=" ">
<polygon fill="#e0e0e0" stroke="#999999" points="177.75,-305541.51 101.75,-305541.51 101.75,-305523.01 177.75,-305523.01 177.75,-305541.51"/>
<text text-anchor="middle" x="139.75" y="-305528.01" font-family="Helvetica,sans-Serif" font-size="10.00">stddef.h</text>
</a>
</g>
</g>
<!-- Node2&#45;&gt;Node4 -->
<g id="edge3_Node000002_Node000004" class="edge">
<title>Node2&#45;&gt;Node4</title>
<g id="a_edge3_Node000002_Node000004"><a xlink:title=" ">
<path fill="none" stroke="#63b8ff" d="M139.75,-611100.24C139.75,-609255.17 139.75,-308359.88 139.75,-305553.02"/>
<polygon fill="#63b8ff" stroke="#63b8ff" points="143.25,-305553.24 139.75,-305543.24 136.25,-305553.24 143.25,-305553.24"/>
</a>
</g>
</g>
<!-- Node5 -->
<g id="Node000005" class="node">
<title>Node5</title>
<g id="a_Node000005"><a xlink:title=" ">
<polygon fill="#e0e0e0" stroke="#999999" points="271.75,-305541.51 195.75,-305541.51 195.75,-305523.01 271.75,-305523.01 271.75,-305541.51"/>
<text text-anchor="middle" x="233.75" y="-305528.01" font-family="Helvetica,sans-Serif" font-size="10.00">stdint.h</text>
</a>
</g>
</g>
<!-- Node2&#45;&gt;Node5 -->
<g id="edge4_Node000002_Node000005" class="edge">
<title>Node2&#45;&gt;Node5</title>
<g id="a_edge4_Node000002_Node000005"><a xlink:title=" ">
<path fill="none" stroke="#63b8ff" d="M153.82,-611100.22C165.09,-611092.48 180.08,-611079.94 186.75,-611064.51 291.45,-610822.18 234.29,-308374.5 233.75,-305553.12"/>
<polygon fill="#63b8ff" stroke="#63b8ff" points="237.25,-305553.28 233.75,-305543.28 230.25,-305553.28 237.25,-305553.28"/>
</a>
</g>
</g>
</g>
</svg>
