<?xml version="1.0" encoding="UTF-8" standalone="no"?>
<!DOCTYPE svg PUBLIC "-//W3C//DTD SVG 1.1//EN"
 "http://www.w3.org/Graphics/SVG/1.1/DTD/svg11.dtd">
<!-- Generated by graphviz version 9.0.0 (20230911.1827)
 -->
<!-- Title: include/sqsh_utils.h Pages: 1 -->
<svg width="280pt" height="1329322pt"
 viewBox="0.00 0.00 279.75 1329321.51" xmlns="http://www.w3.org/2000/svg" xmlns:xlink="http://www.w3.org/1999/xlink">
<g id="graph0" class="graph" transform="scale(1 1) rotate(0) translate(4 1329317.51)">
<title>include/sqsh_utils.h</title>
<!-- Node1 -->
<g id="Node000001" class="node">
<title>Node1</title>
<g id="a_Node000001"><a xlink:title=" ">
<polygon fill="#999999" stroke="#666666" points="222.75,-1329313.51 56.75,-1329313.51 56.75,-1329295.01 222.75,-1329295.01 222.75,-1329313.51"/>
<text text-anchor="middle" x="139.75" y="-1329300.01" font-family="Helvetica,sans-Serif" font-size="10.00">include/sqsh_utils.h</text>
</a>
</g>
</g>
<!-- Node2 -->
<g id="Node000002" class="node">
<title>Node2</title>
<g id="a_Node000002"><a xlink:href="sqsh__common_8h.html" target="_top" xlink:title=" ">
<polygon fill="white" stroke="#666666" points="196.5,-1329259.01 83,-1329259.01 83,-1329240.51 196.5,-1329240.51 196.5,-1329259.01"/>
<text text-anchor="middle" x="139.75" y="-1329245.51" font-family="Helvetica,sans-Serif" font-size="10.00">sqsh_common.h</text>
</a>
</g>
</g>
<!-- Node1&#45;&gt;Node2 -->
<g id="edge1_Node000001_Node000002" class="edge">
<title>Node1&#45;&gt;Node2</title>
<g id="a_edge1_Node000001_Node000002"><a xlink:title=" ">
<path fill="none" stroke="#63b8ff" d="M139.75,-1329294.59C139.75,-1329288.09 139.75,-1329278.94 139.75,-1329270.67"/>
<polygon fill="#63b8ff" stroke="#63b8ff" points="143.25,-1329270.78 139.75,-1329260.78 136.25,-1329270.78 143.25,-1329270.78"/>
</a>
</g>
</g>
<!-- Node3 -->
<g id="Node000003" class="node">
<title>Node3</title>
<g id="a_Node000003"><a xlink:title=" ">
<polygon fill="#e0e0e0" stroke="#999999" points="83.5,-1329204.51 0,-1329204.51 0,0 83.5,0 83.5,-1329204.51"/>
<text text-anchor="middle" x="41.75" y="-1329191.01" font-family="Helvetica,sans-Serif" font-size="10.00">stdbool.h</text>
</a>
</g>
</g>
<!-- Node2&#45;&gt;Node3 -->
<g id="edge2_Node000002_Node000003" class="edge">
<title>Node2&#45;&gt;Node3</title>
<g id="a_edge2_Node000002_Node000003"><a xlink:title=" ">
<path fill="none" stroke="#63b8ff" d="M125.68,-1329240.22C114.41,-1329232.48 99.42,-1329219.94 92.75,-1329204.51 92.75,-1329204.51 89.21,-1283106.02 84,-1215190.76"/>
<polygon fill="#63b8ff" stroke="#63b8ff" points="87.5,-1215191 84,-1215181 80.5,-1215191 87.5,-1215191"/>
</a>
</g>
</g>
<!-- Node4 -->
<g id="Node000004" class="node">
<title>Node4</title>
<g id="a_Node000004"><a xlink:title=" ">
<polygon fill="#e0e0e0" stroke="#999999" points="177.75,-664611.51 101.75,-664611.51 101.75,-664593.01 177.75,-664593.01 177.75,-664611.51"/>
<text text-anchor="middle" x="139.75" y="-664598.01" font-family="Helvetica,sans-Serif" font-size="10.00">stddef.h</text>
</a>
</g>
</g>
<!-- Node2&#45;&gt;Node4 -->
<g id="edge3_Node000002_Node000004" class="edge">
<title>Node2&#45;&gt;Node4</title>
<g id="a_edge3_Node000002_Node000004"><a xlink:title=" ">
<path fill="none" stroke="#63b8ff" d="M139.75,-1329240.19C139.75,-1326501.8 139.75,-668795.06 139.75,-664623.19"/>
<polygon fill="#63b8ff" stroke="#63b8ff" points="143.25,-664623.31 139.75,-664613.31 136.25,-664623.31 143.25,-664623.31"/>
</a>
</g>
</g>
<!-- Node5 -->
<g id="Node000005" class="node">
<title>Node5</title>
<g id="a_Node000005"><a xlink:title=" ">
<polygon fill="#e0e0e0" stroke="#999999" points="271.75,-664611.51 195.75,-664611.51 195.75,-664593.01 271.75,-664593.01 271.75,-664611.51"/>
<text text-anchor="middle" x="233.75" y="-664598.01" font-family="Helvetica,sans-Serif" font-size="10.00">stdint.h</text>
</a>
</g>
</g>
<!-- Node2&#45;&gt;Node5 -->
<g id="edge4_Node000002_Node000005" class="edge">
<title>Node2&#45;&gt;Node5</title>
<g id="a_edge4_Node000002_Node000005"><a xlink:title=" ">
<path fill="none" stroke="#63b8ff" d="M153.82,-1329240.22C165.09,-1329232.48 180.08,-1329219.94 186.75,-1329204.51 186.75,-1329204.51 233.45,-668812.2 233.75,-664623.27"/>
<polygon fill="#63b8ff" stroke="#63b8ff" points="237.25,-664623.34 233.75,-664613.34 230.25,-664623.34 237.25,-664623.34"/>
</a>
</g>
</g>
</g>
</svg>
