<?xml version="1.0" encoding="UTF-8" standalone="no"?>
<!DOCTYPE svg PUBLIC "-//W3C//DTD SVG 1.1//EN"
 "http://www.w3.org/Graphics/SVG/1.1/DTD/svg11.dtd">
<!-- Generated by graphviz version 8.0.5 (20230430.1635)
 -->
<!-- Title: include/sqsh_mapper.h Pages: 1 -->
<!--zoomable 5621376 -->
<svg id="main" version="1.1" xmlns="http://www.w3.org/2000/svg" xmlns:xlink="http://www.w3.org/1999/xlink" xml:space="preserve" onload="init(evt)">
<style type="text/css"><![CDATA[
.edge:hover path { stroke: red; }
.edge:hover polygon { stroke: red; fill: red; }
]]></style>
<script type="text/javascript"><![CDATA[
var edges = document.getElementsByTagName('g');
if (edges && edges.length) {
  for (var i=0;i<edges.length;i++) {
    if (edges[i].id.substr(0,4)=='edge') {
      edges[i].setAttribute('class','edge');
    }
  }
}
]]></script>
        <defs>
                <circle id="rim" cx="0" cy="0" r="7"/>
                <circle id="rim2" cx="0" cy="0" r="3.5"/>
                <g id="zoomPlus">
                        <use xlink:href="#rim" fill="#404040">
                                <set attributeName="fill" to="#808080" begin="zoomplus.mouseover" end="zoomplus.mouseout"/>
                        </use>
                        <path d="M-4,0h8M0,-4v8" fill="none" stroke="white" stroke-width="1.5" pointer-events="none"/>
                </g>
                <g id="zoomMin">
                        <use xlink:href="#rim" fill="#404040">
                                <set attributeName="fill" to="#808080" begin="zoomminus.mouseover" end="zoomminus.mouseout"/>
                        </use>
                        <path d="M-4,0h8" fill="none" stroke="white" stroke-width="1.5" pointer-events="none"/>
                </g>
                <g id="dirArrow">
                        <path fill="none" stroke="white" stroke-width="1.5" d="M0,-3.0v7 M-2.5,-0.5L0,-3.0L2.5,-0.5"/>
                </g>
               <g id="resetDef">
                       <use xlink:href="#rim2" fill="#404040">
                               <set attributeName="fill" to="#808080" begin="reset.mouseover" end="reset.mouseout"/>
                       </use>
               </g>
        </defs>

<script type="text/javascript">
var viewWidth = 2129;
var viewHeight = 5621376;
var sectionId = 'dynsection-0';
</script>
<script xlink:href="svgpan.js"/>
<svg id="graph" class="graph">
<g id="viewport">
<title>include/sqsh_mapper.h</title>
<!-- Node1 -->
<g id="node1" class="node">
<title>Node1</title>
<g id="a_node1"><a xlink:title=" ">
<polygon fill="#999999" stroke="#666666" points="1419.12,-5621367.93 1245.62,-5621367.93 1245.62,-4216003.13 1419.12,-4216003.13 1419.12,-5621367.93"/>
<text text-anchor="middle" x="1332.37" y="-5621354.43" font-family="Helvetica,sans-Serif" font-size="10.00">include/sqsh_mapper.h</text>
</a>
</g>
</g>
<!-- Node2 -->
<g id="node2" class="node">
<title>Node2</title>
<g id="a_node2"><a xlink:href="sqsh_8h.html" target="_top" xlink:title=" ">
<polygon fill="white" stroke="#666666" points="981.87,-4215949.9 860.87,-4215949.9 860.87,-4215931.4 981.87,-4215931.4 981.87,-4215949.9"/>
<text text-anchor="middle" x="921.37" y="-4215936.4" font-family="Helvetica,sans-Serif" font-size="10.00">include/sqsh.h</text>
</a>
</g>
</g>
<!-- Node1&#45;&gt;Node2 -->
<g id="edge1" class="edge">
<title>Node1&#45;&gt;Node2</title>
<path fill="none" stroke="#63b8ff" d="M1245.11,-4769490.52C1124.8,-4563778.89 922.53,-4217932.78 921.37,-4215950.21"/>
<polygon fill="#63b8ff" stroke="#63b8ff" points="1241.61,-4769490.41 1245.12,-4769500.41 1248.61,-4769490.41 1241.61,-4769490.41"/>
</g>
<!-- Node11 -->
<g id="node11" class="node">
<title>Node11</title>
<g id="a_node11"><a xlink:href="sqsh__mapper__private_8h.html" target="_top" xlink:title=" ">
<polygon fill="white" stroke="#666666" points="1918.37,-4215967.13 1752.37,-4215967.13 1752.37,-4215914.18 1918.37,-4215914.18 1918.37,-4215967.13"/>
<text text-anchor="start" x="1760.37" y="-4215953.63" font-family="Helvetica,sans-Serif" font-size="10.00">libsqsh/include/sqsh</text>
<text text-anchor="middle" x="1835.37" y="-4215943.13" font-family="Helvetica,sans-Serif" font-size="10.00">_mapper_private.h</text>
</a>
</g>
</g>
<!-- Node1&#45;&gt;Node11 -->
<g id="edge10" class="edge">
<title>Node1&#45;&gt;Node11</title>
<path fill="none" stroke="#63b8ff" d="M1419.62,-4796776.61C1562.96,-4596522.35 1832.78,-4219552.25 1835.35,-4215967.4"/>
<polygon fill="#63b8ff" stroke="#63b8ff" points="1416.12,-4796776.49 1419.62,-4796786.5 1423.12,-4796776.5 1416.12,-4796776.49"/>
</g>
<!-- Node3 -->
<g id="node3" class="node">
<title>Node3</title>
<g id="a_node3"><a xlink:href="list__dir_8c.html" target="_top" xlink:title=" ">
<polygon fill="white" stroke="#666666" points="1642.62,-3513253.64 1484.12,-3513253.64 1484.12,-3513235.14 1642.62,-3513235.14 1642.62,-3513253.64"/>
<text text-anchor="middle" x="1563.37" y="-3513240.14" font-family="Helvetica,sans-Serif" font-size="10.00">examples/list_dir.c</text>
</a>
</g>
</g>
<!-- Node2&#45;&gt;Node3 -->
<g id="edge2" class="edge">
<title>Node2&#45;&gt;Node3</title>
<path fill="none" stroke="#63b8ff" d="M993.02,-4215936.92C1135.35,-4215930.75 1442.79,-4215913.45 1474.37,-4215878.18 1474.37,-4215878.18 1563.01,-3516072.97 1563.37,-3513253.93"/>
<polygon fill="#63b8ff" stroke="#63b8ff" points="993.08,-4215933.45 983.24,-4215937.38 993.38,-4215940.45 993.08,-4215933.45"/>
</g>
<!-- Node4 -->
<g id="node4" class="node">
<title>Node4</title>
<g id="a_node4"><a xlink:href="list__dir__ll_8c.html" target="_top" xlink:title=" ">
<polygon fill="white" stroke="#666666" points="204.87,-3513265.62 23.87,-3513265.62 23.87,-3513223.17 204.87,-3513223.17 204.87,-3513265.62"/>
<text text-anchor="middle" x="114.37" y="-3513252.12" font-family="Helvetica,sans-Serif" font-size="10.00">examples/list_dir_ll.c</text>
</a>
</g>
</g>
<!-- Node2&#45;&gt;Node4 -->
<g id="edge3" class="edge">
<title>Node2&#45;&gt;Node4</title>
<path fill="none" stroke="#63b8ff" d="M849.68,-4215938.79C678.28,-4215936 255.8,-4215924.45 213.37,-4215878.18 -197.59,-4215430.06 112.42,-3517610.09 114.36,-3513265.76"/>
<polygon fill="#63b8ff" stroke="#63b8ff" points="849.55,-4215942.31 859.6,-4215938.97 849.66,-4215935.31 849.55,-4215942.31"/>
</g>
<!-- Node5 -->
<g id="node5" class="node">
<title>Node5</title>
<g id="a_node5"><a xlink:href="list__xattrs_8c.html" target="_top" xlink:title=" ">
<polygon fill="white" stroke="#666666" points="403.87,-3513257.39 222.87,-3513257.39 222.87,-3513231.39 403.87,-3513231.39 403.87,-3513257.39"/>
<text text-anchor="middle" x="313.37" y="-3513243.89" font-family="Helvetica,sans-Serif" font-size="10.00">examples/list_xattrs.c</text>
</a>
</g>
</g>
<!-- Node2&#45;&gt;Node5 -->
<g id="edge4" class="edge">
<title>Node2&#45;&gt;Node5</title>
<path fill="none" stroke="#63b8ff" d="M849.89,-4215936.19C716.59,-4215929 440.9,-4215910.37 412.37,-4215878.18 412.37,-4215878.18 313.84,-3516629.25 313.37,-3513257.62"/>
<polygon fill="#63b8ff" stroke="#63b8ff" points="849.61,-4215939.73 859.79,-4215936.77 849.99,-4215932.74 849.61,-4215939.73"/>
</g>
<!-- Node6 -->
<g id="node6" class="node">
<title>Node6</title>
<g id="a_node6"><a xlink:href="list__xattrs__ll_8c.html" target="_top" xlink:title=" ">
<polygon fill="white" stroke="#666666" points="625.12,-3513253.64 421.62,-3513253.64 421.62,-3513235.14 625.12,-3513235.14 625.12,-3513253.64"/>
<text text-anchor="middle" x="523.37" y="-3513240.14" font-family="Helvetica,sans-Serif" font-size="10.00">examples/list_xattrs_ll.c</text>
</a>
</g>
</g>
<!-- Node2&#45;&gt;Node6 -->
<g id="edge5" class="edge">
<title>Node2&#45;&gt;Node6</title>
<path fill="none" stroke="#63b8ff" d="M849.54,-4215934.37C773.53,-4215927.12 660.93,-4215911.03 634.37,-4215878.18 251.63,-4215404.86 522.27,-3516071.06 523.36,-3513253.93"/>
<polygon fill="#63b8ff" stroke="#63b8ff" points="849.19,-4215937.95 859.47,-4215935.38 849.83,-4215930.98 849.19,-4215937.95"/>
</g>
<!-- Node7 -->
<g id="node7" class="node">
<title>Node7</title>
<g id="a_node7"><a xlink:href="read__file_8c.html" target="_top" xlink:title=" ">
<polygon fill="white" stroke="#666666" points="809.37,-4215860.36 643.37,-4215860.36 643.37,-2810628.43 809.37,-2810628.43 809.37,-4215860.36"/>
<text text-anchor="middle" x="726.37" y="-4215846.86" font-family="Helvetica,sans-Serif" font-size="10.00">examples/read_file.c</text>
</a>
</g>
</g>
<!-- Node2&#45;&gt;Node7 -->
<g id="edge6" class="edge">
<title>Node2&#45;&gt;Node7</title>
<path fill="none" stroke="#63b8ff" d="M881.28,-4215926.95C858.47,-4215917.43 831.83,-4215901.89 818.37,-4215878.18 815.48,-4215873.1 812.65,-4215803.81 809.86,-4215671.53"/>
<polygon fill="#63b8ff" stroke="#63b8ff" points="879.85,-4215930.54 890.43,-4215930.91 882.39,-4215924.02 879.85,-4215930.54"/>
</g>
<!-- Node8 -->
<g id="node8" class="node">
<title>Node8</title>
<g id="a_node8"><a xlink:href="read__file__ll_8c.html" target="_top" xlink:title=" ">
<polygon fill="white" stroke="#666666" points="1015.62,-4215850.79 827.12,-4215850.79 827.12,-2810637.99 1015.62,-2810637.99 1015.62,-4215850.79"/>
<text text-anchor="middle" x="921.37" y="-4215837.29" font-family="Helvetica,sans-Serif" font-size="10.00">examples/read_file_ll.c</text>
</a>
</g>
</g>
<!-- Node2&#45;&gt;Node8 -->
<g id="edge7" class="edge">
<title>Node2&#45;&gt;Node8</title>
<path fill="none" stroke="#63b8ff" d="M921.37,-4215920.36C921.37,-4215905.66 921.37,-4215882.59 921.37,-4215851.21"/>
<polygon fill="#63b8ff" stroke="#63b8ff" points="917.87,-4215920.11 921.37,-4215930.11 924.87,-4215920.11 917.87,-4215920.11"/>
</g>
<!-- Node9 -->
<g id="node9" class="node">
<title>Node9</title>
<g id="a_node9"><a xlink:href="readme__example_8c.html" target="_top" xlink:title=" ">
<polygon fill="white" stroke="#666666" points="1237.12,-3513253.64 1033.62,-3513253.64 1033.62,-3513235.14 1237.12,-3513235.14 1237.12,-3513253.64"/>
<text text-anchor="middle" x="1135.37" y="-3513240.14" font-family="Helvetica,sans-Serif" font-size="10.00">examples/readme_example.c</text>
</a>
</g>
</g>
<!-- Node2&#45;&gt;Node9 -->
<g id="edge8" class="edge">
<title>Node2&#45;&gt;Node9</title>
<path fill="none" stroke="#63b8ff" d="M961.45,-4215926.95C984.26,-4215917.43 1010.9,-4215901.89 1024.37,-4215878.18 1324.93,-4215348.86 1136.13,-3516070.84 1135.37,-3513253.92"/>
<polygon fill="#63b8ff" stroke="#63b8ff" points="960.34,-4215924.02 952.3,-4215930.91 962.89,-4215930.54 960.34,-4215924.02"/>
</g>
<!-- Node10 -->
<g id="node10" class="node">
<title>Node10</title>
<g id="a_node10"><a xlink:href="traverse__dir__ll_8c.html" target="_top" xlink:title=" ">
<polygon fill="white" stroke="#666666" points="1465.87,-3513257.39 1254.87,-3513257.39 1254.87,-3513231.39 1465.87,-3513231.39 1465.87,-3513257.39"/>
<text text-anchor="middle" x="1360.37" y="-3513243.89" font-family="Helvetica,sans-Serif" font-size="10.00">examples/traverse_dir_ll.c</text>
</a>
</g>
</g>
<!-- Node2&#45;&gt;Node10 -->
<g id="edge9" class="edge">
<title>Node2&#45;&gt;Node10</title>
<path fill="none" stroke="#63b8ff" d="M993.26,-4215936.42C1079.04,-4215930.88 1214.86,-4215916.19 1246.37,-4215878.18 1634.61,-4215409.69 1361.69,-3516626.99 1360.37,-3513257.62"/>
<polygon fill="#63b8ff" stroke="#63b8ff" points="993.04,-4215932.99 983.28,-4215937.1 993.47,-4215939.97 993.04,-4215932.99"/>
</g>
<!-- Node12 -->
<g id="node12" class="node">
<title>Node12</title>
<g id="a_node12"><a xlink:href="sqsh__file__private_8h.html" target="_top" xlink:title=" ">
<polygon fill="white" stroke="#666666" points="2121.37,-2810574.6 1955.37,-2810574.6 1955.37,-153.95 2121.37,-153.95 2121.37,-2810574.6"/>
<text text-anchor="start" x="1963.37" y="-2810561.1" font-family="Helvetica,sans-Serif" font-size="10.00">libsqsh/include/sqsh</text>
<text text-anchor="middle" x="2038.37" y="-1405354.72" font-family="Helvetica,sans-Serif" font-size="10.00">_file_private.h</text>
</a>
</g>
</g>
<!-- Node11&#45;&gt;Node12 -->
<g id="edge11" class="edge">
<title>Node11&#45;&gt;Node12</title>
<path fill="none" stroke="#63b8ff" d="M1929.33,-4215930.91C1963.35,-4215922.68 1998.5,-4215907.16 2019.37,-4215878.18 2019.37,-4215878.18 2024.12,-3513218.79 2028.87,-2810574.99"/>
<polygon fill="#63b8ff" stroke="#63b8ff" points="1928.83,-4215927.66 1919.83,-4215933.24 1930.35,-4215934.49 1928.83,-4215927.66"/>
</g>
<!-- Node16 -->
<g id="node16" class="node">
<title>Node16</title>
<g id="a_node16"><a xlink:href="sqsh__metablock__private_8h.html" target="_top" xlink:title=" ">
<polygon fill="white" stroke="#666666" points="2010.37,-4215878.18 1844.37,-4215878.18 1844.37,-2810610.6 2010.37,-2810610.6 2010.37,-4215878.18"/>
<text text-anchor="start" x="1852.37" y="-4215864.68" font-family="Helvetica,sans-Serif" font-size="10.00">libsqsh/include/sqsh</text>
<text text-anchor="middle" x="1927.37" y="-2810639.55" font-family="Helvetica,sans-Serif" font-size="10.00">_metablock_private.h</text>
</a>
</g>
</g>
<!-- Node11&#45;&gt;Node16 -->
<g id="edge16" class="edge">
<title>Node11&#45;&gt;Node16</title>
<path fill="none" stroke="#63b8ff" d="M1835.37,-4215902.86C1835.51,-4214828.82 1838.72,-4190308.69 1843.87,-4151016.59"/>
<polygon fill="#63b8ff" stroke="#63b8ff" points="1831.87,-4215902.75 1835.37,-4215912.75 1838.87,-4215902.75 1831.87,-4215902.75"/>
</g>
<!-- Node18 -->
<g id="node18" class="node">
<title>Node18</title>
<g id="a_node18"><a xlink:href="sqsh__table__private_8h.html" target="_top" xlink:title=" ">
<polygon fill="white" stroke="#666666" points="1826.37,-3513270.87 1660.37,-3513270.87 1660.37,-3513217.92 1826.37,-3513217.92 1826.37,-3513270.87"/>
<text text-anchor="start" x="1668.37" y="-3513257.37" font-family="Helvetica,sans-Serif" font-size="10.00">libsqsh/include/sqsh</text>
<text text-anchor="middle" x="1743.37" y="-3513222.92" font-family="Helvetica,sans-Serif" font-size="10.00">_table_private.h</text>
</a>
</g>
</g>
<!-- Node11&#45;&gt;Node18 -->
<g id="edge21" class="edge">
<title>Node11&#45;&gt;Node18</title>
<path fill="none" stroke="#63b8ff" d="M1835.36,-4215902.99C1834.6,-4210103.16 1744.01,-3518131.27 1743.37,-3513271.11"/>
<polygon fill="#63b8ff" stroke="#63b8ff" points="1831.86,-4215902.75 1835.36,-4215912.75 1838.86,-4215902.75 1831.86,-4215902.75"/>
</g>
<!-- Node13 -->
<g id="node13" class="node">
<title>Node13</title>
<g id="a_node13"><a xlink:href="sqsh__archive__private_8h.html" target="_top" xlink:title=" ">
<polygon fill="white" stroke="#666666" points="1863.37,-105.98 1697.37,-105.98 1697.37,-76.97 1863.37,-76.97 1863.37,-105.98"/>
<text text-anchor="start" x="1705.37" y="-92.48" font-family="Helvetica,sans-Serif" font-size="10.00">libsqsh/include/sqsh</text>
<text text-anchor="middle" x="1780.37" y="-81.97" font-family="Helvetica,sans-Serif" font-size="10.00">_archive_private.h</text>
</a>
</g>
</g>
<!-- Node12&#45;&gt;Node13 -->
<g id="edge12" class="edge">
<title>Node12&#45;&gt;Node13</title>
<path fill="none" stroke="#63b8ff" d="M1954.86,-698515.47C1913.53,-348633.2 1872.37,-153.95 1872.37,-153.95 1860.5,-131.76 1836.69,-116.18 1816.26,-106.26"/>
<polygon fill="#63b8ff" stroke="#63b8ff" points="1951.36,-698515.23 1954.87,-698525.23 1958.36,-698515.23 1951.36,-698515.23"/>
</g>
<!-- Node14 -->
<g id="node14" class="node">
<title>Node14</title>
<g id="a_node14"><a xlink:href="sqsh__directory__private_8h.html" target="_top" xlink:title=" ">
<polygon fill="white" stroke="#666666" points="2047.37,-117.95 1881.37,-117.95 1881.37,-65 2047.37,-65 2047.37,-117.95"/>
<text text-anchor="start" x="1889.37" y="-104.45" font-family="Helvetica,sans-Serif" font-size="10.00">libsqsh/include/sqsh</text>
<text text-anchor="middle" x="1964.37" y="-93.95" font-family="Helvetica,sans-Serif" font-size="10.00">_directory_private.h</text>
</a>
</g>
</g>
<!-- Node12&#45;&gt;Node14 -->
<g id="edge13" class="edge">
<title>Node12&#45;&gt;Node14</title>
<path fill="none" stroke="#63b8ff" d="M1964.37,-142.78C1964.37,-133.24 1964.37,-125.06 1964.37,-118.23"/>
<polygon fill="#63b8ff" stroke="#63b8ff" points="1960.87,-142.67 1964.37,-152.67 1967.87,-142.67 1960.87,-142.67"/>
</g>
<!-- Node15 -->
<g id="node15" class="node">
<title>Node15</title>
<g id="a_node15"><a xlink:href="sqsh__tree__private_8h.html" target="_top" xlink:title=" ">
<polygon fill="white" stroke="#666666" points="2102.37,-29 1936.37,-29 1936.37,0 2102.37,0 2102.37,-29"/>
<text text-anchor="start" x="1944.37" y="-15.5" font-family="Helvetica,sans-Serif" font-size="10.00">libsqsh/include/sqsh</text>
<text text-anchor="middle" x="2019.37" y="-5" font-family="Helvetica,sans-Serif" font-size="10.00">_tree_private.h</text>
</a>
</g>
</g>
<!-- Node12&#45;&gt;Node15 -->
<g id="edge15" class="edge">
<title>Node12&#45;&gt;Node15</title>
<path fill="none" stroke="#63b8ff" d="M2056.37,-142.8C2056.37,-134.51 2056.37,-126.23 2056.37,-117.95 2056.37,-94.42 2063.79,-87.33 2056.37,-65 2051.83,-51.36 2041.91,-38.43 2033.48,-29.22"/>
<polygon fill="#63b8ff" stroke="#63b8ff" points="2052.87,-142.69 2056.37,-152.69 2059.87,-142.69 2052.87,-142.69"/>
</g>
<!-- Node14&#45;&gt;Node15 -->
<g id="edge14" class="edge">
<title>Node14&#45;&gt;Node15</title>
<path fill="none" stroke="#63b8ff" d="M1989.78,-55.83C1996.67,-46.45 2003.72,-36.82 2009.22,-29.33"/>
<polygon fill="#63b8ff" stroke="#63b8ff" points="1986.39,-53.54 1983.29,-63.67 1992.03,-57.68 1986.39,-53.54"/>
</g>
<!-- Node16&#45;&gt;Node12 -->
<g id="edge18" class="edge">
<title>Node16&#45;&gt;Node12</title>
<path fill="none" stroke="#63b8ff" d="M1964.37,-2810599.42C1964.37,-2810591.19 1964.37,-2810582.96 1964.37,-2810574.72"/>
<polygon fill="#63b8ff" stroke="#63b8ff" points="1960.87,-2810599.24 1964.37,-2810609.24 1967.87,-2810599.24 1960.87,-2810599.24"/>
</g>
<!-- Node16&#45;&gt;Node14 -->
<g id="edge17" class="edge">
<title>Node16&#45;&gt;Node14</title>
<path fill="none" stroke="#63b8ff" d="M1931.17,-2810599.32C1936.71,-1785364.41 1946.37,-153.95 1946.37,-153.95 1948.07,-142.06 1951.54,-129.26 1954.98,-118.44"/>
<polygon fill="#63b8ff" stroke="#63b8ff" points="1927.67,-2810599.32 1931.17,-2810609.32 1934.67,-2810599.32 1927.67,-2810599.32"/>
</g>
<!-- Node17 -->
<g id="node17" class="node">
<title>Node17</title>
<g id="a_node17"><a xlink:href="sqsh__xattr__private_8h.html" target="_top" xlink:title=" ">
<polygon fill="white" stroke="#666666" points="1863.37,-1405382.53 1697.37,-1405382.53 1697.37,-1405346.03 1863.37,-1405346.03 1863.37,-1405382.53"/>
<text text-anchor="start" x="1705.37" y="-1405369.03" font-family="Helvetica,sans-Serif" font-size="10.00">libsqsh/include/sqsh</text>
<text text-anchor="middle" x="1780.37" y="-1405351.03" font-family="Helvetica,sans-Serif" font-size="10.00">_xattr_private.h</text>
</a>
</g>
</g>
<!-- Node16&#45;&gt;Node17 -->
<g id="edge19" class="edge">
<title>Node16&#45;&gt;Node17</title>
<path fill="none" stroke="#63b8ff" d="M1878.36,-2810599.31C1835.73,-2199185.41 1780.67,-1409667.07 1780.37,-1405382.79"/>
<polygon fill="#63b8ff" stroke="#63b8ff" points="1874.86,-2810599.24 1878.37,-2810609.24 1881.86,-2810599.24 1874.86,-2810599.24"/>
</g>
<!-- Node17&#45;&gt;Node13 -->
<g id="edge20" class="edge">
<title>Node17&#45;&gt;Node13</title>
<path fill="none" stroke="#63b8ff" d="M1780.37,-1405335C1780.37,-1398101.18 1780.37,-5125.01 1780.37,-106.07"/>
<polygon fill="#63b8ff" stroke="#63b8ff" points="1776.87,-1405334.68 1780.37,-1405344.68 1783.87,-1405334.68 1776.87,-1405334.68"/>
</g>
<!-- Node18&#45;&gt;Node17 -->
<g id="edge22" class="edge">
<title>Node18&#45;&gt;Node17</title>
<path fill="none" stroke="#63b8ff" d="M1743.37,-3513207.2C1743.54,-3503178.88 1780.24,-1412404.24 1780.37,-1405383"/>
<polygon fill="#63b8ff" stroke="#63b8ff" points="1739.87,-3513206.77 1743.37,-3513216.77 1746.87,-3513206.77 1739.87,-3513206.77"/>
</g>
</g>
</svg>
        <g id="navigator" transform="translate(0 0)" fill="#404254">
                <rect fill="#f2f5e9" fill-opacity="0.5" stroke="#606060" stroke-width=".5" x="0" y="0" width="60" height="60"/>
                <use id="zoomplus" xlink:href="#zoomPlus" x="17" y="9" onmousedown="handleZoom(evt,'in')"/>
                <use id="zoomminus" xlink:href="#zoomMin" x="42" y="9" onmousedown="handleZoom(evt,'out')"/>
                <use id="reset" xlink:href="#resetDef" x="30" y="36" onmousedown="handleReset()"/>
                <g id="arrowUp" xlink:href="#dirArrow" transform="translate(30 24)" onmousedown="handlePan(0,-1)">
                  <use xlink:href="#rim" fill="#404040">
                        <set attributeName="fill" to="#808080" begin="arrowUp.mouseover" end="arrowUp.mouseout"/>
                  </use>
                  <path fill="none" stroke="white" stroke-width="1.5" d="M0,-3.0v7 M-2.5,-0.5L0,-3.0L2.5,-0.5"/>
                </g>
                <g id="arrowRight" xlink:href="#dirArrow" transform="rotate(90) translate(36 -43)" onmousedown="handlePan(1,0)">
                  <use xlink:href="#rim" fill="#404040">
                        <set attributeName="fill" to="#808080" begin="arrowRight.mouseover" end="arrowRight.mouseout"/>
                  </use>
                  <path fill="none" stroke="white" stroke-width="1.5" d="M0,-3.0v7 M-2.5,-0.5L0,-3.0L2.5,-0.5"/>
                </g>
                <g id="arrowDown" xlink:href="#dirArrow" transform="rotate(180) translate(-30 -48)" onmousedown="handlePan(0,1)">
                  <use xlink:href="#rim" fill="#404040">
                        <set attributeName="fill" to="#808080" begin="arrowDown.mouseover" end="arrowDown.mouseout"/>
                  </use>
                  <path fill="none" stroke="white" stroke-width="1.5" d="M0,-3.0v7 M-2.5,-0.5L0,-3.0L2.5,-0.5"/>
                </g>
                <g id="arrowLeft" xlink:href="#dirArrow" transform="rotate(270) translate(-36 17)" onmousedown="handlePan(-1,0)">
                  <use xlink:href="#rim" fill="#404040">
                        <set attributeName="fill" to="#808080" begin="arrowLeft.mouseover" end="arrowLeft.mouseout"/>
                  </use>
                  <path fill="none" stroke="white" stroke-width="1.5" d="M0,-3.0v7 M-2.5,-0.5L0,-3.0L2.5,-0.5"/>
                </g>
        </g>
        <svg viewBox="0 0 15 15" width="100%" height="30px" preserveAspectRatio="xMaxYMin meet">
         <g id="arrow_out" transform="scale(0.3 0.3)">
          <a xlink:href="sqsh__mapper_8h__dep__incl_org.svg" target="_base">
           <rect id="button" ry="5" rx="5" y="6" x="6" height="38" width="38"
                fill="#f2f5e9" fill-opacity="0.5" stroke="#606060" stroke-width="1.0"/>
           <path id="arrow"
             d="M 11.500037,31.436501 C 11.940474,20.09759 22.043105,11.32322 32.158766,21.979434 L 37.068811,17.246167 C 37.068811,17.246167 37.088388,32 37.088388,32 L 22.160133,31.978069 C 22.160133,31.978069 26.997745,27.140456 26.997745,27.140456 C 18.528582,18.264221 13.291696,25.230495 11.500037,31.436501 z"
             style="fill:#404040;"/>
          </a>
         </g>
        </svg>
</svg>
