<?xml version="1.0" encoding="UTF-8" standalone="no"?>
<!DOCTYPE svg PUBLIC "-//W3C//DTD SVG 1.1//EN"
 "http://www.w3.org/Graphics/SVG/1.1/DTD/svg11.dtd">
<!-- Generated by graphviz version 9.0.0 (20230911.1827)
 -->
<!-- Title: SqshTreeTraversalStackElement Pages: 1 -->
<svg width="358pt" height="1806608pt"
 viewBox="0.00 0.00 358.06 1806607.77" xmlns="http://www.w3.org/2000/svg" xmlns:xlink="http://www.w3.org/1999/xlink">
<g id="graph0" class="graph" transform="scale(1 1) rotate(0) translate(4 1806603.77)">
<title>SqshTreeTraversalStackElement</title>
<!-- Node1 -->
<g id="Node000001" class="node">
<title>Node1</title>
<g id="a_Node000001"><a xlink:title="A walker over the contents of a file.">
<polygon fill="#999999" stroke="#666666" points="294.56,-80910.18 61.06,-80910.18 61.06,-80891.68 294.56,-80891.68 294.56,-80910.18"/>
<text text-anchor="middle" x="177.81" y="-80896.68" font-family="Helvetica,sans-Serif" font-size="10.00">SqshTreeTraversalStackElement</text>
</a>
</g>
</g>
<!-- Node1&#45;&gt;Node1 -->
<g id="edge3_Node000001_Node000001" class="edge">
<title>Node1&#45;&gt;Node1</title>
<g id="a_edge3_Node000001_Node000001"><a xlink:title=" ">
<path fill="none" stroke="#9a32cd" stroke-dasharray="5,2" d="M177.82,-80921.91C222.74,-188768.69 312.56,-188761.7 312.56,-80900.93 312.56,26963.65 222.73,26966.84 177.81,-80891.36"/>
<polygon fill="#9a32cd" stroke="#9a32cd" points="181.32,-80922 177.82,-80912.01 174.32,-80922.01 181.32,-80922"/>
</a>
</g>
<text text-anchor="middle" x="331.31" y="-80896.68" font-family="Helvetica,sans-Serif" font-size="10.00" fill="grey"> next</text>
</g>
<!-- Node2 -->
<g id="Node000002" class="node">
<title>Node2</title>
<g id="a_Node000002"><a xlink:href="structSqshDirectoryIterator.html" target="_top" xlink:title="A directory iterator.">
<polygon fill="white" stroke="#666666" points="193.56,-1806599.77 20.06,-1806599.77 20.06,-943833.82 193.56,-943833.82 193.56,-1806599.77"/>
<text text-anchor="middle" x="106.81" y="-1806586.27" font-family="Helvetica,sans-Serif" font-size="10.00">SqshDirectoryIterator</text>
</a>
</g>
</g>
<!-- Node2&#45;&gt;Node1 -->
<g id="edge1_Node000001_Node000002" class="edge">
<title>Node2&#45;&gt;Node1</title>
<g id="a_edge1_Node000001_Node000002"><a xlink:title=" ">
<path fill="none" stroke="#9a32cd" stroke-dasharray="5,2" d="M34.94,-943822.09C-14.29,-567625.48 -39.25,-81587.22 160.31,-80928.18 162.28,-80921.68 166.45,-80915.31 170.22,-80910.48"/>
<polygon fill="#9a32cd" stroke="#9a32cd" points="31.44,-943821.88 34.94,-943831.88 38.44,-943821.88 31.44,-943821.88"/>
</a>
</g>
<text text-anchor="middle" x="193.56" y="-512367.75" font-family="Helvetica,sans-Serif" font-size="10.00" fill="grey"> iterator</text>
</g>
<!-- Node3 -->
<g id="Node000003" class="node">
<title>Node3</title>
<g id="a_Node000003"><a xlink:href="structSqshFile.html" target="_top" xlink:title="The Inode context.">
<polygon fill="white" stroke="#666666" points="287.81,-1375226.05 211.81,-1375226.05 211.81,-1375207.54 287.81,-1375207.54 287.81,-1375226.05"/>
<text text-anchor="middle" x="249.81" y="-1375212.55" font-family="Helvetica,sans-Serif" font-size="10.00">SqshFile</text>
</a>
</g>
</g>
<!-- Node3&#45;&gt;Node1 -->
<g id="edge2_Node000001_Node000003" class="edge">
<title>Node3&#45;&gt;Node1</title>
<g id="a_edge2_Node000001_Node000003"><a xlink:title=" ">
<path fill="none" stroke="#9a32cd" stroke-dasharray="5,2" d="M249.81,-1375195.78C249.71,-1369340.21 227.81,-80928.18 227.81,-80928.18 222.99,-80920.2 214.86,-80914.53 206.55,-80910.56"/>
<polygon fill="#9a32cd" stroke="#9a32cd" points="246.31,-1375195.61 249.81,-1375205.61 253.31,-1375195.61 246.31,-1375195.61"/>
</a>
</g>
<text text-anchor="middle" x="260.56" y="-943806.32" font-family="Helvetica,sans-Serif" font-size="10.00" fill="grey"> file</text>
</g>
</g>
</svg>
