<?xml version="1.0" encoding="UTF-8" standalone="no"?>
<!DOCTYPE svg PUBLIC "-//W3C//DTD SVG 1.1//EN"
 "http://www.w3.org/Graphics/SVG/1.1/DTD/svg11.dtd">
<!-- Generated by graphviz version 8.0.5 (20230430.1635)
 -->
<!-- Title: SqshMapper Pages: 1 -->
<svg width="428pt" height="1368095pt"
 viewBox="0.00 0.00 427.90 1368095.26" xmlns="http://www.w3.org/2000/svg" xmlns:xlink="http://www.w3.org/1999/xlink">
<g id="graph0" class="graph" transform="scale(1 1) rotate(0) translate(4 1368091.26)">
<title>SqshMapper</title>
<!-- Node1 -->
<g id="node1" class="node">
<title>Node1</title>
<g id="a_node1"><a xlink:title="The mapper that is used to map chunks of the archive into memory.">
<polygon fill="#999999" stroke="#666666" points="257.9,-18.5 166.9,-18.5 166.9,0 257.9,0 257.9,-18.5"/>
<text text-anchor="middle" x="212.4" y="-5" font-family="Helvetica,sans-Serif" font-size="10.00">SqshMapper</text>
</a>
</g>
</g>
<!-- Node2 -->
<g id="node2" class="node">
<title>Node2</title>
<g id="a_node2"><a xlink:href="structSqshMmapMapper.html" target="_top" xlink:title="The mmap mapper.">
<polygon fill="white" stroke="#666666" points="125.9,-684089.13 4.9,-684089.13 4.9,-684070.63 125.9,-684070.63 125.9,-684089.13"/>
<text text-anchor="middle" x="65.4" y="-684075.63" font-family="Helvetica,sans-Serif" font-size="10.00">SqshMmapMapper</text>
</a>
</g>
</g>
<!-- Node2&#45;&gt;Node1 -->
<g id="edge1" class="edge">
<title>Node2&#45;&gt;Node1</title>
<path fill="none" stroke="#9a32cd" stroke-dasharray="5,2" d="M65.39,-684059.47C64.26,-679874.97 -119.68,-606.65 135.4,-72.5 147.47,-47.22 175.39,-28.89 194.07,-18.92"/>
<polygon fill="#9a32cd" stroke="#9a32cd" points="61.89,-684059.32 65.39,-684069.32 68.89,-684059.32 61.89,-684059.32"/>
<text text-anchor="middle" x="178.65" y="-41.25" font-family="Helvetica,sans-Serif" font-size="10.00"> mm</text>
</g>
<!-- Node3 -->
<g id="node3" class="node">
<title>Node3</title>
<g id="a_node3"><a xlink:href="structSqshStaticMapper.html" target="_top" xlink:title="The static mapper.">
<polygon fill="white" stroke="#666666" points="280.4,-1368087.26 144.4,-1368087.26 144.4,-72.5 280.4,-72.5 280.4,-1368087.26"/>
<text text-anchor="middle" x="212.4" y="-1368073.76" font-family="Helvetica,sans-Serif" font-size="10.00">SqshStaticMapper</text>
</a>
</g>
</g>
<!-- Node3&#45;&gt;Node1 -->
<g id="edge2" class="edge">
<title>Node3&#45;&gt;Node1</title>
<path fill="none" stroke="#9a32cd" stroke-dasharray="5,2" d="M212.4,-61.33C212.4,-41.39 212.4,-27.26 212.4,-18.99"/>
<polygon fill="#9a32cd" stroke="#9a32cd" points="208.9,-61.29 212.4,-71.29 215.9,-61.29 208.9,-61.29"/>
<text text-anchor="middle" x="223.65" y="-45" font-family="Helvetica,sans-Serif" font-size="10.00"> sm</text>
</g>
<!-- Node4 -->
<g id="node4" class="node">
<title>Node4</title>
<g id="a_node4"><a xlink:href="structSqshCurlMapper.html" target="_top" xlink:title="The curl mapper.">
<polygon fill="white" stroke="#666666" points="419.9,-1368087.22 298.9,-1368087.22 298.9,-72.54 419.9,-72.54 419.9,-1368087.22"/>
<text text-anchor="middle" x="359.4" y="-1368073.72" font-family="Helvetica,sans-Serif" font-size="10.00">SqshCurlMapper</text>
</a>
</g>
</g>
<!-- Node4&#45;&gt;Node1 -->
<g id="edge3" class="edge">
<title>Node4&#45;&gt;Node1</title>
<path fill="none" stroke="#9a32cd" stroke-dasharray="5,2" d="M298.24,-372.61C295.35,-179.58 292.41,-78.8 289.4,-72.5 277.32,-47.22 249.41,-28.89 230.72,-18.92"/>
<polygon fill="#9a32cd" stroke="#9a32cd" points="294.75,-372.41 298.4,-382.36 301.75,-372.31 294.75,-372.41"/>
<text text-anchor="middle" x="286.65" y="-41.25" font-family="Helvetica,sans-Serif" font-size="10.00"> cl</text>
</g>
</g>
</svg>
