<?xml version="1.0" encoding="UTF-8" standalone="no"?>
<!DOCTYPE svg PUBLIC "-//W3C//DTD SVG 1.1//EN"
 "http://www.w3.org/Graphics/SVG/1.1/DTD/svg11.dtd">
<!-- Generated by graphviz version 9.0.0 (20230911.1827)
 -->
<!-- Title: SqshTreeTraversalStackElement Pages: 1 -->
<svg width="283pt" height="33142pt"
 viewBox="0.00 0.00 282.50 33142.25" xmlns="http://www.w3.org/2000/svg" xmlns:xlink="http://www.w3.org/1999/xlink">
<g id="graph0" class="graph" transform="scale(1 1) rotate(0) translate(4 33138.25)">
<title>SqshTreeTraversalStackElement</title>
<!-- Node1 -->
<g id="Node000001" class="node">
<title>Node1</title>
<g id="a_Node000001"><a xlink:title="A walker over the contents of a file.">
<polygon fill="#999999" stroke="#666666" points="274.5,-33045.38 41,-33045.38 41,0 274.5,0 274.5,-33045.38"/>
<text text-anchor="middle" x="157.75" y="-33031.88" font-family="Helvetica,sans-Serif" font-size="10.00">SqshTreeTraversalStackElement</text>
</a>
</g>
</g>
<!-- Node2 -->
<g id="Node000002" class="node">
<title>Node2</title>
<g id="a_Node000002"><a xlink:href="structSqshDirectoryIterator.html" target="_top" xlink:title="A directory iterator.">
<polygon fill="white" stroke="#666666" points="173.5,-33134.25 0,-33134.25 0,-33115.75 173.5,-33115.75 173.5,-33134.25"/>
<text text-anchor="middle" x="86.75" y="-33120.75" font-family="Helvetica,sans-Serif" font-size="10.00">SqshDirectoryIterator</text>
</a>
</g>
</g>
<!-- Node2&#45;&gt;Node1 -->
<g id="edge1_Node000001_Node000002" class="edge">
<title>Node2&#45;&gt;Node1</title>
<g id="a_edge1_Node000001_Node000002"><a xlink:title=" ">
<path fill="none" stroke="#9a32cd" stroke-dasharray="5,2" d="M86.84,-33104.07C86.89,-33090.95 86.97,-33071.44 87.08,-33045.8"/>
<polygon fill="#9a32cd" stroke="#9a32cd" points="83.34,-33103.89 86.79,-33113.91 90.34,-33103.92 83.34,-33103.89"/>
</a>
</g>
<text text-anchor="middle" x="121.5" y="-33076.32" font-family="Helvetica,sans-Serif" font-size="10.00" fill="grey"> iterator</text>
</g>
<!-- Node3 -->
<g id="Node000003" class="node">
<title>Node3</title>
<g id="a_Node000003"><a xlink:href="structSqshFile.html" target="_top" xlink:title="The Inode context.">
<polygon fill="white" stroke="#666666" points="267.75,-33134.25 191.75,-33134.25 191.75,-33115.75 267.75,-33115.75 267.75,-33134.25"/>
<text text-anchor="middle" x="229.75" y="-33120.75" font-family="Helvetica,sans-Serif" font-size="10.00">SqshFile</text>
</a>
</g>
</g>
<!-- Node3&#45;&gt;Node1 -->
<g id="edge2_Node000001_Node000003" class="edge">
<title>Node3&#45;&gt;Node1</title>
<g id="a_edge2_Node000001_Node000003"><a xlink:title=" ">
<path fill="none" stroke="#9a32cd" stroke-dasharray="5,2" d="M229.66,-33104.07C229.61,-33090.95 229.52,-33071.44 229.41,-33045.8"/>
<polygon fill="#9a32cd" stroke="#9a32cd" points="226.16,-33103.92 229.71,-33113.91 233.16,-33103.89 226.16,-33103.92"/>
</a>
</g>
<text text-anchor="middle" x="247.5" y="-33088.25" font-family="Helvetica,sans-Serif" font-size="10.00" fill="grey"> file</text>
</g>
</g>
</svg>
