<?xml version="1.0" encoding="UTF-8" standalone="no"?>
<!DOCTYPE svg PUBLIC "-//W3C//DTD SVG 1.1//EN"
 "http://www.w3.org/Graphics/SVG/1.1/DTD/svg11.dtd">
<!-- Generated by graphviz version 9.0.0 (20230911.1827)
 -->
<!-- Title: examples/traverse_dir.c Pages: 1 -->
<svg width="1275pt" height="1539437pt"
 viewBox="0.00 0.00 1275.13 1539436.74" xmlns="http://www.w3.org/2000/svg" xmlns:xlink="http://www.w3.org/1999/xlink">
<g id="graph0" class="graph" transform="scale(1 1) rotate(0) translate(4 1539432.74)">
<title>examples/traverse_dir.c</title>
<!-- Node1 -->
<g id="Node000001" class="node">
<title>Node1</title>
<g id="a_Node000001"><a xlink:title=" ">
<polygon fill="#999999" stroke="#666666" points="1022.61,-1539428.74 834.11,-1539428.74 834.11,-1539410.24 1022.61,-1539410.24 1022.61,-1539428.74"/>
<text text-anchor="middle" x="928.36" y="-1539415.24" font-family="Helvetica,sans-Serif" font-size="10.00">examples/traverse_dir.c</text>
</a>
</g>
</g>
<!-- Node2 -->
<g id="Node000002" class="node">
<title>Node2</title>
<g id="a_Node000002"><a xlink:title=" ">
<polygon fill="#e0e0e0" stroke="#999999" points="626.36,-1539374.24 550.36,-1539374.24 550.36,-1154570.88 626.36,-1154570.88 626.36,-1539374.24"/>
<text text-anchor="middle" x="588.36" y="-1539360.74" font-family="Helvetica,sans-Serif" font-size="10.00">assert.h</text>
</a>
</g>
</g>
<!-- Node1&#45;&gt;Node2 -->
<g id="edge1_Node000001_Node000002" class="edge">
<title>Node1&#45;&gt;Node2</title>
<g id="a_edge1_Node000001_Node000002"><a xlink:title=" ">
<path fill="none" stroke="#63b8ff" d="M833.65,-1539417.06C758.34,-1539413.68 661.56,-1539403.54 636.36,-1539374.24 -117.72,-1538497.5 397.58,-1395008.04 549.82,-1356429.46"/>
<polygon fill="#63b8ff" stroke="#63b8ff" points="553.32,-1356429.51 549.86,-1356419.5 546.32,-1356429.49 553.32,-1356429.51"/>
</a>
</g>
</g>
<!-- Node3 -->
<g id="Node000003" class="node">
<title>Node3</title>
<g id="a_Node000003"><a xlink:href="sqsh_8h.html" target="_top" xlink:title=" ">
<polygon fill="white" stroke="#666666" points="705.86,-1539371.97 644.86,-1539371.97 644.86,-1154573.15 705.86,-1154573.15 705.86,-1539371.97"/>
<text text-anchor="middle" x="675.36" y="-1539358.47" font-family="Helvetica,sans-Serif" font-size="10.00">sqsh.h</text>
</a>
</g>
</g>
<!-- Node1&#45;&gt;Node3 -->
<g id="edge2_Node000001_Node000003" class="edge">
<title>Node1&#45;&gt;Node3</title>
<g id="a_edge2_Node000001_Node000003"><a xlink:title=" ">
<path fill="none" stroke="#63b8ff" d="M928.35,-1539409.98C926.84,-1538263.81 773.6,-1421697.23 706.38,-1370564.99"/>
<polygon fill="#63b8ff" stroke="#63b8ff" points="709.88,-1370565.09 706.36,-1370555.09 702.88,-1370565.1 709.88,-1370565.09"/>
</a>
</g>
</g>
<!-- Node14 -->
<g id="Node000014" class="node">
<title>Node14</title>
<g id="a_Node000014"><a xlink:title=" ">
<polygon fill="#e0e0e0" stroke="#999999" points="1146.61,-769692.11 1078.11,-769692.11 1078.11,-384893.4 1146.61,-384893.4 1146.61,-769692.11"/>
<text text-anchor="middle" x="1112.36" y="-769678.61" font-family="Helvetica,sans-Serif" font-size="10.00">stdio.h</text>
</a>
</g>
</g>
<!-- Node1&#45;&gt;Node14 -->
<g id="edge39_Node000001_Node000014" class="edge">
<title>Node1&#45;&gt;Node14</title>
<g id="a_edge39_Node000001_Node000014"><a xlink:title=" ">
<path fill="none" stroke="#63b8ff" d="M928.37,-1539409.9C929.28,-1537852.97 1054.02,-1324967.84 1093.36,-1154534.88 1122.97,-1026257.61 1127.72,-881945.49 1125.07,-769703.61"/>
<polygon fill="#63b8ff" stroke="#63b8ff" points="1128.57,-769703.89 1125.07,-769693.89 1121.57,-769703.89 1128.57,-769703.89"/>
</a>
</g>
</g>
<!-- Node23 -->
<g id="Node000023" class="node">
<title>Node23</title>
<g id="a_Node000023"><a xlink:title=" ">
<polygon fill="#e0e0e0" stroke="#999999" points="1216.36,-1346993.72 1140.36,-1346993.72 1140.36,-1346951.4 1216.36,-1346951.4 1216.36,-1346993.72"/>
<text text-anchor="middle" x="1178.36" y="-1346980.22" font-family="Helvetica,sans-Serif" font-size="10.00">stdlib.h</text>
</a>
</g>
</g>
<!-- Node1&#45;&gt;Node23 -->
<g id="edge40_Node000001_Node000023" class="edge">
<title>Node1&#45;&gt;Node23</title>
<g id="a_edge40_Node000001_Node000023"><a xlink:title=" ">
<path fill="none" stroke="#63b8ff" d="M1015.44,-1539409.75C1061.79,-1539403.11 1112.13,-1539392 1126.36,-1539374.24 1333.69,-1539115.53 1180.68,-1349832.61 1178.39,-1347005.55"/>
<polygon fill="#63b8ff" stroke="#63b8ff" points="1181.89,-1347005.61 1178.38,-1346995.61 1174.89,-1347005.62 1181.89,-1347005.61"/>
</a>
</g>
</g>
<!-- Node4 -->
<g id="Node000004" class="node">
<title>Node4</title>
<g id="a_Node000004"><a xlink:href="sqsh__archive_8h.html" target="_top" xlink:title=" ">
<polygon fill="white" stroke="#666666" points="534.86,-962142.08 413.86,-962142.08 413.86,-962123.58 534.86,-962123.58 534.86,-962142.08"/>
<text text-anchor="middle" x="474.36" y="-962128.58" font-family="Helvetica,sans-Serif" font-size="10.00">sqsh_archive.h</text>
</a>
</g>
</g>
<!-- Node3&#45;&gt;Node4 -->
<g id="edge3_Node000003_Node000004" class="edge">
<title>Node3&#45;&gt;Node4</title>
<g id="a_edge3_Node000003_Node000004"><a xlink:title=" ">
<path fill="none" stroke="#63b8ff" d="M706.36,-1338194.89C834.9,-1300664.65 1289.46,-1155532.85 635.36,-1154570.88 610.91,-1154534.91 568.82,-1154570.84 544.36,-1154534.88 357.62,-1154260.29 472.99,-964375.75 474.35,-962153.49"/>
<polygon fill="#63b8ff" stroke="#63b8ff" points="477.85,-962153.85 474.36,-962143.85 470.85,-962153.85 477.85,-962153.85"/>
</a>
</g>
</g>
<!-- Node5 -->
<g id="Node000005" class="node">
<title>Node5</title>
<g id="a_Node000005"><a xlink:href="sqsh__common_8h.html" target="_top" xlink:title=" ">
<polygon fill="white" stroke="#666666" points="561.11,-384854.72 447.61,-384854.72 447.61,-384836.22 561.11,-384836.22 561.11,-384854.72"/>
<text text-anchor="middle" x="504.36" y="-384841.22" font-family="Helvetica,sans-Serif" font-size="10.00">sqsh_common.h</text>
</a>
</g>
</g>
<!-- Node3&#45;&gt;Node5 -->
<g id="edge10_Node000003_Node000005" class="edge">
<title>Node3&#45;&gt;Node5</title>
<g id="a_edge10_Node000003_Node000005"><a xlink:title=" ">
<path fill="none" stroke="#63b8ff" d="M706.36,-1339472.36C848.69,-1304084.34 1400.66,-1155465.09 635.36,-1154570.88 568.09,-1154492.27 472.63,-1154613.49 405.36,-1154534.88 405.36,-1154534.88 405.36,-769730.79 405.36,-769730.79 405.58,-769714.78 406.14,-769710.79 406.36,-769694.79 406.36,-769694.79 473.36,-384890.72 473.36,-384890.72 476.46,-384880.91 482.59,-384871.38 488.59,-384863.7"/>
<polygon fill="#63b8ff" stroke="#63b8ff" points="491.13,-384866.12 494.91,-384856.22 485.78,-384861.6 491.13,-384866.12"/>
</a>
</g>
</g>
<!-- Node10 -->
<g id="Node000010" class="node">
<title>Node10</title>
<g id="a_Node000010"><a xlink:href="sqsh__directory_8h.html" target="_top" xlink:title=" ">
<polygon fill="white" stroke="#666666" points="813.36,-1154424.67 677.36,-1154424.67 677.36,-769841 813.36,-769841 813.36,-1154424.67"/>
<text text-anchor="middle" x="745.36" y="-1154411.17" font-family="Helvetica,sans-Serif" font-size="10.00">sqsh_directory.h</text>
</a>
</g>
</g>
<!-- Node3&#45;&gt;Node10 -->
<g id="edge11_Node000003_Node000010" class="edge">
<title>Node3&#45;&gt;Node10</title>
<g id="a_edge11_Node000003_Node000010"><a xlink:title=" ">
<path fill="none" stroke="#63b8ff" d="M706.36,-1176543.42C707.7,-1169203.18 709.04,-1161819.68 710.38,-1154436.42"/>
<polygon fill="#63b8ff" stroke="#63b8ff" points="713.88,-1154436.43 710.38,-1154426.43 706.88,-1154436.43 713.88,-1154436.43"/>
</a>
</g>
</g>
<!-- Node11 -->
<g id="Node000011" class="node">
<title>Node11</title>
<g id="a_Node000011"><a xlink:href="sqsh__file_8h.html" target="_top" xlink:title=" ">
<polygon fill="white" stroke="#666666" points="797.61,-769694.79 699.11,-769694.79 699.11,-384890.72 797.61,-384890.72 797.61,-769694.79"/>
<text text-anchor="middle" x="748.36" y="-769681.29" font-family="Helvetica,sans-Serif" font-size="10.00">sqsh_file.h</text>
</a>
</g>
</g>
<!-- Node3&#45;&gt;Node11 -->
<g id="edge21_Node000003_Node000011" class="edge">
<title>Node3&#45;&gt;Node11</title>
<g id="a_edge21_Node000003_Node000011"><a xlink:title=" ">
<path fill="none" stroke="#63b8ff" d="M706.36,-1315931.75C742.67,-1277893.95 800.61,-1211475.79 822.36,-1154534.88 887.68,-983510.85 855.24,-940754.83 822.36,-769730.79 817.26,-743182.54 808.19,-714574.1 798.12,-687742.44"/>
<polygon fill="#63b8ff" stroke="#63b8ff" points="801.62,-687742.59 798.11,-687732.59 794.62,-687742.59 801.62,-687742.59"/>
</a>
</g>
</g>
<!-- Node12 -->
<g id="Node000012" class="node">
<title>Node12</title>
<g id="a_Node000012"><a xlink:href="sqsh__easy_8h.html" target="_top" xlink:title=" ">
<polygon fill="white" stroke="#666666" points="1084.61,-1154534.88 986.11,-1154534.88 986.11,-769730.79 1084.61,-769730.79 1084.61,-1154534.88"/>
<text text-anchor="middle" x="1035.36" y="-1154521.38" font-family="Helvetica,sans-Serif" font-size="10.00">sqsh_easy.h</text>
</a>
</g>
</g>
<!-- Node3&#45;&gt;Node12 -->
<g id="edge14_Node000003_Node000012" class="edge">
<title>Node3&#45;&gt;Node12</title>
<g id="a_edge14_Node000003_Node000012"><a xlink:title=" ">
<path fill="none" stroke="#63b8ff" d="M706.36,-1331395.83C770.06,-1298652.21 914.87,-1220276.89 976.36,-1154534.88 979.6,-1151067.32 982.68,-1147564.61 985.6,-1144035.3"/>
<polygon fill="#63b8ff" stroke="#63b8ff" points="989.1,-1144035.5 985.61,-1144025.5 982.1,-1144035.49 989.1,-1144035.5"/>
</a>
</g>
</g>
<!-- Node16 -->
<g id="Node000016" class="node">
<title>Node16</title>
<g id="a_Node000016"><a xlink:href="sqsh__error_8h.html" target="_top" xlink:title=" ">
<polygon fill="white" stroke="#666666" points="238.36,-577302.01 132.36,-577302.01 132.36,-577283.5 238.36,-577283.5 238.36,-577302.01"/>
<text text-anchor="middle" x="185.36" y="-577288.51" font-family="Helvetica,sans-Serif" font-size="10.00">sqsh_error.h</text>
</a>
</g>
</g>
<!-- Node3&#45;&gt;Node16 -->
<g id="edge19_Node000003_Node000016" class="edge">
<title>Node3&#45;&gt;Node16</title>
<g id="a_edge19_Node000003_Node000016"><a xlink:title=" ">
<path fill="none" stroke="#63b8ff" d="M706.36,-1339762.04C852.32,-1304900.77 1431.43,-1155442.22 635.36,-1154570.88 575.61,-1154505.48 298.11,-1154600.28 238.36,-1154534.88 238.36,-1154534.88 185.72,-581194.88 185.36,-577313.55"/>
<polygon fill="#63b8ff" stroke="#63b8ff" points="188.86,-577313.62 185.36,-577303.62 181.86,-577313.62 188.86,-577313.62"/>
</a>
</g>
</g>
<!-- Node17 -->
<g id="Node000017" class="node">
<title>Node17</title>
<g id="a_Node000017"><a xlink:href="sqsh__mapper_8h.html" target="_top" xlink:title=" ">
<polygon fill="white" stroke="#666666" points="114.11,-577305.76 0.61,-577305.76 0.61,-577279.76 114.11,-577279.76 114.11,-577305.76"/>
<text text-anchor="middle" x="57.36" y="-577292.26" font-family="Helvetica,sans-Serif" font-size="10.00">sqsh_mapper.h</text>
</a>
</g>
</g>
<!-- Node3&#45;&gt;Node17 -->
<g id="edge22_Node000003_Node000017" class="edge">
<title>Node3&#45;&gt;Node17</title>
<g id="a_edge22_Node000003_Node000017"><a xlink:title=" ">
<path fill="none" stroke="#63b8ff" d="M706.36,-1339795.75C852.76,-1304996.85 1435.19,-1155439.29 635.36,-1154570.88 569.5,-1154499.37 265.22,-1154606.39 199.36,-1154534.88 -138.85,-1154167.69 55.9,-581578.12 57.35,-577317.65"/>
<polygon fill="#63b8ff" stroke="#63b8ff" points="60.85,-577317.73 57.36,-577307.73 53.85,-577317.73 60.85,-577317.73"/>
</a>
</g>
</g>
<!-- Node18 -->
<g id="Node000018" class="node">
<title>Node18</title>
<g id="a_Node000018"><a xlink:href="sqsh__posix_8h.html" target="_top" xlink:title=" ">
<polygon fill="white" stroke="#666666" points="1246.36,-962142.08 1140.36,-962142.08 1140.36,-962123.58 1246.36,-962123.58 1246.36,-962142.08"/>
<text text-anchor="middle" x="1193.36" y="-962128.58" font-family="Helvetica,sans-Serif" font-size="10.00">sqsh_posix.h</text>
</a>
</g>
</g>
<!-- Node3&#45;&gt;Node18 -->
<g id="edge25_Node000003_Node000018" class="edge">
<title>Node3&#45;&gt;Node18</title>
<g id="a_edge25_Node000003_Node000018"><a xlink:title=" ">
<path fill="none" stroke="#63b8ff" d="M706.36,-1335695.15C786.5,-1306030.52 1000.73,-1223359.78 1093.36,-1154534.88 1207.55,-1069695.44 1193.59,-963812.7 1193.36,-962153.58"/>
<polygon fill="#63b8ff" stroke="#63b8ff" points="1196.86,-962153.76 1193.36,-962143.76 1189.86,-962153.76 1196.86,-962153.76"/>
</a>
</g>
</g>
<!-- Node19 -->
<g id="Node000019" class="node">
<title>Node19</title>
<g id="a_Node000019"><a xlink:href="sqsh__table_8h.html" target="_top" xlink:title=" ">
<polygon fill="white" stroke="#666666" points="362.36,-577302.01 256.36,-577302.01 256.36,-577283.51 362.36,-577283.51 362.36,-577302.01"/>
<text text-anchor="middle" x="309.36" y="-577288.51" font-family="Helvetica,sans-Serif" font-size="10.00">sqsh_table.h</text>
</a>
</g>
</g>
<!-- Node3&#45;&gt;Node19 -->
<g id="edge29_Node000003_Node000019" class="edge">
<title>Node3&#45;&gt;Node19</title>
<g id="a_edge29_Node000003_Node000019"><a xlink:title=" ">
<path fill="none" stroke="#63b8ff" d="M706.36,-1339757.99C852.27,-1304889.24 1431,-1155442.55 635.36,-1154570.88 576.24,-1154506.11 301.48,-1154599.66 242.36,-1154534.88 242.36,-1154534.88 242.36,-769730.79 242.36,-769730.79 243.48,-769714.67 246.24,-769710.9 247.36,-769694.79 430.95,-767044.7 310.8,-579530.85 309.37,-577313.58"/>
<polygon fill="#63b8ff" stroke="#63b8ff" points="312.87,-577313.93 309.37,-577303.93 305.87,-577313.93 312.87,-577313.93"/>
</a>
</g>
</g>
<!-- Node20 -->
<g id="Node000020" class="node">
<title>Node20</title>
<g id="a_Node000020"><a xlink:href="sqsh__tree_8h.html" target="_top" xlink:title=" ">
<polygon fill="white" stroke="#666666" points="967.61,-962142.08 869.11,-962142.08 869.11,-962123.58 967.61,-962123.58 967.61,-962142.08"/>
<text text-anchor="middle" x="918.36" y="-962128.58" font-family="Helvetica,sans-Serif" font-size="10.00">sqsh_tree.h</text>
</a>
</g>
</g>
<!-- Node3&#45;&gt;Node20 -->
<g id="edge31_Node000003_Node000020" class="edge">
<title>Node3&#45;&gt;Node20</title>
<g id="a_edge31_Node000003_Node000020"><a xlink:title=" ">
<path fill="none" stroke="#63b8ff" d="M706.36,-1319448.09C747.23,-1282096.84 818.27,-1213273.33 855.36,-1154534.88 908.93,-1069695.39 918.22,-963812.7 918.36,-962153.58"/>
<polygon fill="#63b8ff" stroke="#63b8ff" points="921.86,-962153.76 918.36,-962143.76 914.86,-962153.76 921.86,-962153.76"/>
</a>
</g>
</g>
<!-- Node21 -->
<g id="Node000021" class="node">
<title>Node21</title>
<g id="a_Node000021"><a xlink:href="sqsh__utils_8h.html" target="_top" xlink:title=" ">
<polygon fill="white" stroke="#666666" points="357.36,-962142.08 251.36,-962142.08 251.36,-962123.58 357.36,-962123.58 357.36,-962142.08"/>
<text text-anchor="middle" x="304.36" y="-962128.58" font-family="Helvetica,sans-Serif" font-size="10.00">sqsh_utils.h</text>
</a>
</g>
</g>
<!-- Node3&#45;&gt;Node21 -->
<g id="edge34_Node000003_Node000021" class="edge">
<title>Node3&#45;&gt;Node21</title>
<g id="a_edge34_Node000003_Node000021"><a xlink:title=" ">
<path fill="none" stroke="#63b8ff" d="M706.36,-1339563.73C849.82,-1304340.08 1410.12,-1155458.26 635.36,-1154570.88 557.48,-1154481.67 449.25,-1154624.08 371.36,-1154534.88 152.94,-1154284.74 302.59,-964376.04 304.35,-962153.5"/>
<polygon fill="#63b8ff" stroke="#63b8ff" points="307.85,-962153.85 304.35,-962143.85 300.85,-962153.85 307.85,-962153.85"/>
</a>
</g>
</g>
<!-- Node22 -->
<g id="Node000022" class="node">
<title>Node22</title>
<g id="a_Node000022"><a xlink:href="sqsh__xattr_8h.html" target="_top" xlink:title=" ">
<polygon fill="white" stroke="#666666" points="659.36,-962145.83 553.36,-962145.83 553.36,-962119.83 659.36,-962119.83 659.36,-962145.83"/>
<text text-anchor="middle" x="606.36" y="-962132.33" font-family="Helvetica,sans-Serif" font-size="10.00">sqsh_xattr.h</text>
</a>
</g>
</g>
<!-- Node3&#45;&gt;Node22 -->
<g id="edge36_Node000003_Node000022" class="edge">
<title>Node3&#45;&gt;Node22</title>
<g id="a_edge36_Node000003_Node000022"><a xlink:title=" ">
<path fill="none" stroke="#63b8ff" d="M644.36,-1174073.5C626.18,-1072684.54 606.69,-963991.22 606.37,-962157.37"/>
<polygon fill="#63b8ff" stroke="#63b8ff" points="609.87,-962157.58 606.36,-962147.58 602.87,-962157.58 609.87,-962157.58"/>
</a>
</g>
</g>
<!-- Node4&#45;&gt;Node5 -->
<g id="edge4_Node000004_Node000005" class="edge">
<title>Node4&#45;&gt;Node5</title>
<g id="a_edge4_Node000004_Node000005"><a xlink:title=" ">
<path fill="none" stroke="#63b8ff" d="M474.36,-962123.49C474.41,-959597.92 485.36,-384890.72 485.36,-384890.72 487.17,-384881.92 490.81,-384872.71 494.43,-384864.98"/>
<polygon fill="#63b8ff" stroke="#63b8ff" points="497.43,-384866.8 498.8,-384856.3 491.18,-384863.65 497.43,-384866.8"/>
</a>
</g>
</g>
<!-- Node9 -->
<g id="Node000009" class="node">
<title>Node9</title>
<g id="a_Node000009"><a xlink:href="sqsh__data_8h.html" target="_top" xlink:title=" ">
<polygon fill="white" stroke="#666666" points="592.61,-577302.01 494.11,-577302.01 494.11,-577283.51 592.61,-577283.51 592.61,-577302.01"/>
<text text-anchor="middle" x="543.36" y="-577288.51" font-family="Helvetica,sans-Serif" font-size="10.00">sqsh_data.h</text>
</a>
</g>
</g>
<!-- Node4&#45;&gt;Node9 -->
<g id="edge8_Node000004_Node000009" class="edge">
<title>Node4&#45;&gt;Node9</title>
<g id="a_edge8_Node000004_Node000009"><a xlink:title=" ">
<path fill="none" stroke="#63b8ff" d="M474.36,-962123.14C474.74,-960029.54 542.79,-580484.39 543.36,-577313.73"/>
<polygon fill="#63b8ff" stroke="#63b8ff" points="546.86,-577313.92 543.36,-577303.92 539.86,-577313.91 546.86,-577313.92"/>
</a>
</g>
</g>
<!-- Node6 -->
<g id="Node000006" class="node">
<title>Node6</title>
<g id="a_Node000006"><a xlink:title=" ">
<polygon fill="#e0e0e0" stroke="#999999" points="546.11,-384689.8 462.61,-384689.8 462.61,-110.42 546.11,-110.42 546.11,-384689.8"/>
<text text-anchor="middle" x="504.36" y="-384676.3" font-family="Helvetica,sans-Serif" font-size="10.00">stdbool.h</text>
</a>
</g>
</g>
<!-- Node5&#45;&gt;Node6 -->
<g id="edge5_Node000005_Node000006" class="edge">
<title>Node5&#45;&gt;Node6</title>
<g id="a_edge5_Node000005_Node000006"><a xlink:title=" ">
<path fill="none" stroke="#63b8ff" d="M504.36,-384835.96C504.36,-384818.29 504.36,-384773.19 504.36,-384701.31"/>
<polygon fill="#63b8ff" stroke="#63b8ff" points="507.86,-384701.55 504.36,-384691.55 500.86,-384701.55 507.86,-384701.55"/>
</a>
</g>
</g>
<!-- Node7 -->
<g id="Node000007" class="node">
<title>Node7</title>
<g id="a_Node000007"><a xlink:title=" ">
<polygon fill="#e0e0e0" stroke="#999999" points="366.36,-384800.22 290.36,-384800.22 290.36,0 366.36,0 366.36,-384800.22"/>
<text text-anchor="middle" x="328.36" y="-384786.72" font-family="Helvetica,sans-Serif" font-size="10.00">stddef.h</text>
</a>
</g>
</g>
<!-- Node5&#45;&gt;Node7 -->
<g id="edge6_Node000005_Node000007" class="edge">
<title>Node5&#45;&gt;Node7</title>
<g id="a_edge6_Node000005_Node000007"><a xlink:title=" ">
<path fill="none" stroke="#63b8ff" d="M488.64,-384835.92C476.49,-384828.33 460.57,-384816 453.36,-384800.22 6.49,-383821.7 198.16,-259700.92 289.84,-211361.82"/>
<polygon fill="#63b8ff" stroke="#63b8ff" points="293.34,-211362 289.86,-211351.99 286.34,-211361.98 293.34,-211362"/>
</a>
</g>
</g>
<!-- Node8 -->
<g id="Node000008" class="node">
<title>Node8</title>
<g id="a_Node000008"><a xlink:title=" ">
<polygon fill="#e0e0e0" stroke="#999999" points="945.36,-192409.36 869.36,-192409.36 869.36,-192390.86 945.36,-192390.86 945.36,-192409.36"/>
<text text-anchor="middle" x="907.36" y="-192395.86" font-family="Helvetica,sans-Serif" font-size="10.00">stdint.h</text>
</a>
</g>
</g>
<!-- Node5&#45;&gt;Node8 -->
<g id="edge7_Node000005_Node000008" class="edge">
<title>Node5&#45;&gt;Node8</title>
<g id="a_edge7_Node000005_Node000008"><a xlink:title=" ">
<path fill="none" stroke="#63b8ff" d="M520.08,-384835.91C532.23,-384828.32 548.14,-384816 555.36,-384800.22 1660.3,-382384.51 916.28,-194640.96 907.44,-192420.96"/>
<polygon fill="#63b8ff" stroke="#63b8ff" points="910.94,-192421.28 907.4,-192411.3 903.94,-192421.31 910.94,-192421.28"/>
</a>
</g>
</g>
<!-- Node9&#45;&gt;Node5 -->
<g id="edge9_Node000009_Node000005" class="edge">
<title>Node9&#45;&gt;Node5</title>
<g id="a_edge9_Node000009_Node000005"><a xlink:title=" ">
<path fill="none" stroke="#63b8ff" d="M543.36,-577283.24C543.06,-575823.3 504.82,-387098.06 504.37,-384866.42"/>
<polygon fill="#63b8ff" stroke="#63b8ff" points="507.87,-384866.7 504.36,-384856.71 500.87,-384866.71 507.87,-384866.7"/>
</a>
</g>
</g>
<!-- Node10&#45;&gt;Node11 -->
<g id="edge12_Node000010_Node000011" class="edge">
<title>Node10&#45;&gt;Node11</title>
<g id="a_edge12_Node000010_Node000011"><a xlink:title=" ">
<path fill="none" stroke="#63b8ff" d="M746.86,-769840.51C746.86,-769795.83 746.86,-769751.15 746.86,-769706.47"/>
<polygon fill="#63b8ff" stroke="#63b8ff" points="750.36,-769706.63 746.86,-769696.63 743.36,-769706.63 750.36,-769706.63"/>
</a>
</g>
</g>
<!-- Node11&#45;&gt;Node5 -->
<g id="edge13_Node000011_Node000005" class="edge">
<title>Node11&#45;&gt;Node5</title>
<g id="a_edge13_Node000011_Node000005"><a xlink:title=" ">
<path fill="none" stroke="#63b8ff" d="M698.61,-394414.41C681.56,-388409.83 660.43,-384927.12 634.36,-384890.72 619.98,-384870.65 595.95,-384859.57 572.43,-384853.5"/>
<polygon fill="#63b8ff" stroke="#63b8ff" points="573.34,-384850.12 562.82,-384851.31 571.79,-384856.94 573.34,-384850.12"/>
</a>
</g>
</g>
<!-- Node12&#45;&gt;Node5 -->
<g id="edge15_Node000012_Node000005" class="edge">
<title>Node12&#45;&gt;Node5</title>
<g id="a_edge15_Node000012_Node000005"><a xlink:title=" ">
<path fill="none" stroke="#63b8ff" d="M985.62,-769930.77C982.62,-769803.31 979.54,-769735.9 976.36,-769730.79 957.25,-769700.07 922.47,-769725.51 903.36,-769694.79 903.36,-769694.79 850.36,-384890.72 850.36,-384890.72 832.34,-384870.25 668.29,-384856.67 572.7,-384850.43"/>
<polygon fill="#63b8ff" stroke="#63b8ff" points="573.11,-384846.95 562.9,-384849.8 572.66,-384853.94 573.11,-384846.95"/>
</a>
</g>
</g>
<!-- Node13 -->
<g id="Node000013" class="node">
<title>Node13</title>
<g id="a_Node000013"><a xlink:title=" ">
<polygon fill="#e0e0e0" stroke="#999999" points="1059.61,-577313.91 991.11,-577313.91 991.11,-577271.6 1059.61,-577271.6 1059.61,-577313.91"/>
<text text-anchor="middle" x="1025.36" y="-577300.41" font-family="Helvetica,sans-Serif" font-size="10.00">fcntl.h</text>
</a>
</g>
</g>
<!-- Node12&#45;&gt;Node13 -->
<g id="edge16_Node000012_Node000013" class="edge">
<title>Node12&#45;&gt;Node13</title>
<g id="a_edge16_Node000012_Node000013"><a xlink:title=" ">
<path fill="none" stroke="#63b8ff" d="M1030.36,-769730.41C1027.89,-674523.41 1025.41,-579310.66 1025.36,-577325.35"/>
<polygon fill="#63b8ff" stroke="#63b8ff" points="1028.86,-577325.69 1025.36,-577315.69 1021.86,-577325.69 1028.86,-577325.69"/>
</a>
</g>
</g>
<!-- Node12&#45;&gt;Node14 -->
<g id="edge17_Node000012_Node000014" class="edge">
<title>Node12&#45;&gt;Node14</title>
<g id="a_edge17_Node000012_Node000014"><a xlink:title=" ">
<path fill="none" stroke="#63b8ff" d="M1073.86,-769730.41C1075.11,-763472.11 1076.36,-757213.78 1077.61,-750981.9"/>
<polygon fill="#63b8ff" stroke="#63b8ff" points="1081.11,-750982 1077.61,-750972 1074.11,-750982 1081.11,-750982"/>
</a>
</g>
</g>
<!-- Node15 -->
<g id="Node000015" class="node">
<title>Node15</title>
<g id="a_Node000015"><a xlink:title=" ">
<polygon fill="#e0e0e0" stroke="#999999" points="972.86,-577302.01 911.86,-577302.01 911.86,-577283.51 972.86,-577283.51 972.86,-577302.01"/>
<text text-anchor="middle" x="942.36" y="-577288.51" font-family="Helvetica,sans-Serif" font-size="10.00">time.h</text>
</a>
</g>
</g>
<!-- Node12&#45;&gt;Node15 -->
<g id="edge18_Node000012_Node000015" class="edge">
<title>Node12&#45;&gt;Node15</title>
<g id="a_edge18_Node000012_Node000015"><a xlink:title=" ">
<path fill="none" stroke="#63b8ff" d="M985.61,-782940.99C984.5,-778481.26 983.42,-774060.17 982.36,-769694.79 961.86,-684855.29 942.67,-578972.62 942.36,-577313.5"/>
<polygon fill="#63b8ff" stroke="#63b8ff" points="945.87,-577313.68 942.36,-577303.68 938.87,-577313.68 945.87,-577313.68"/>
</a>
</g>
</g>
<!-- Node16&#45;&gt;Node5 -->
<g id="edge20_Node000016_Node000005" class="edge">
<title>Node16&#45;&gt;Node5</title>
<g id="a_edge20_Node000016_Node000005"><a xlink:title=" ">
<path fill="none" stroke="#63b8ff" d="M185.35,-577283.25C184.19,-575816.91 32.92,-385145.15 247.36,-384890.72 271.05,-384862.62 368.06,-384852.36 435.86,-384848.62"/>
<polygon fill="#63b8ff" stroke="#63b8ff" points="436,-384852.12 445.81,-384848.11 435.64,-384845.13 436,-384852.12"/>
</a>
</g>
</g>
<!-- Node17&#45;&gt;Node5 -->
<g id="edge23_Node000017_Node000005" class="edge">
<title>Node17&#45;&gt;Node5</title>
<g id="a_edge23_Node000017_Node000005"><a xlink:title=" ">
<path fill="none" stroke="#63b8ff" d="M57.35,-577279.39C55.92,-575513.23 -97.8,-385138.97 123.36,-384890.72 143.75,-384867.84 331.85,-384854.98 435.9,-384849.57"/>
<polygon fill="#63b8ff" stroke="#63b8ff" points="435.92,-384853.07 445.73,-384849.07 435.56,-384846.08 435.92,-384853.07"/>
</a>
</g>
</g>
<!-- Node17&#45;&gt;Node7 -->
<g id="edge24_Node000017_Node000007" class="edge">
<title>Node17&#45;&gt;Node7</title>
<g id="a_edge24_Node000017_Node000007"><a xlink:title=" ">
<path fill="none" stroke="#63b8ff" d="M57.36,-577279.36C57.44,-575961.69 63.53,-469869.92 123.36,-384890.72 163.87,-327352.09 242.62,-260138.87 289.85,-222291.92"/>
<polygon fill="#63b8ff" stroke="#63b8ff" points="293.35,-222292.18 289.86,-222282.17 286.35,-222292.17 293.35,-222292.18"/>
</a>
</g>
</g>
<!-- Node18&#45;&gt;Node5 -->
<g id="edge26_Node000018_Node000005" class="edge">
<title>Node18&#45;&gt;Node5</title>
<g id="a_edge26_Node000018_Node000005"><a xlink:title=" ">
<path fill="none" stroke="#63b8ff" d="M1193.36,-962123.49C1193.19,-959597.92 1155.36,-384890.72 1155.36,-384890.72 1116.2,-384848.82 731.61,-384845.52 572.61,-384845.97"/>
<polygon fill="#63b8ff" stroke="#63b8ff" points="573.06,-384842.47 563.07,-384846.01 573.08,-384849.47 573.06,-384842.47"/>
</a>
</g>
</g>
<!-- Node18&#45;&gt;Node8 -->
<g id="edge27_Node000018_Node000008" class="edge">
<title>Node18&#45;&gt;Node8</title>
<g id="a_edge27_Node000018_Node000008"><a xlink:title=" ">
<path fill="none" stroke="#63b8ff" d="M1193.37,-962123.24C1194.39,-960214.22 1366.07,-640674.99 1181.36,-384890.72 1120.07,-300012.1 910.69,-194080.75 907.4,-192420.87"/>
<polygon fill="#63b8ff" stroke="#63b8ff" points="910.9,-192421.03 907.38,-192411.04 903.9,-192421.05 910.9,-192421.03"/>
</a>
</g>
</g>
<!-- Node18&#45;&gt;Node14 -->
<g id="edge28_Node000018_Node000014" class="edge">
<title>Node18&#45;&gt;Node14</title>
<g id="a_edge28_Node000018_Node000014"><a xlink:title=" ">
<path fill="none" stroke="#63b8ff" d="M1193.36,-962123.14C1193.12,-960974.82 1168.98,-846272.25 1147.11,-742405.13"/>
<polygon fill="#63b8ff" stroke="#63b8ff" points="1150.61,-742405.35 1147.11,-742395.35 1143.61,-742405.35 1150.61,-742405.35"/>
</a>
</g>
</g>
<!-- Node19&#45;&gt;Node5 -->
<g id="edge30_Node000019_Node000005" class="edge">
<title>Node19&#45;&gt;Node5</title>
<g id="a_edge30_Node000019_Node000005"><a xlink:title=" ">
<path fill="none" stroke="#63b8ff" d="M309.36,-577283.26C308.39,-575817.04 183.25,-385161.7 376.36,-384890.72 390.26,-384871.22 413.35,-384860.24 436.13,-384854.07"/>
<polygon fill="#63b8ff" stroke="#63b8ff" points="436.86,-384857.5 445.77,-384851.77 435.23,-384850.69 436.86,-384857.5"/>
</a>
</g>
</g>
<!-- Node20&#45;&gt;Node5 -->
<g id="edge32_Node000020_Node000005" class="edge">
<title>Node20&#45;&gt;Node5</title>
<g id="a_edge32_Node000020_Node000005"><a xlink:title=" ">
<path fill="none" stroke="#63b8ff" d="M918.36,-962123.42C918.02,-961036.16 884.49,-854783.87 866.36,-769694.79 866.36,-769694.79 806.36,-384890.72 806.36,-384890.72 776.8,-384856.52 652.51,-384848.25 572.88,-384846.54"/>
<polygon fill="#63b8ff" stroke="#63b8ff" points="573.05,-384843.05 562.99,-384846.36 572.92,-384850.04 573.05,-384843.05"/>
</a>
</g>
</g>
<!-- Node20&#45;&gt;Node11 -->
<g id="edge33_Node000020_Node000011" class="edge">
<title>Node20&#45;&gt;Node11</title>
<g id="a_edge33_Node000020_Node000011"><a xlink:title=" ">
<path fill="none" stroke="#63b8ff" d="M918.36,-962123.34C918.81,-960657.42 976.04,-770040.88 855.36,-769730.79 847.49,-769710.56 830.23,-769715.02 822.36,-769694.79 689.71,-769353.97 680.12,-711726.75 698.61,-659636.34"/>
<polygon fill="#63b8ff" stroke="#63b8ff" points="702.11,-659636.52 698.61,-659626.52 695.11,-659636.52 702.11,-659636.52"/>
</a>
</g>
</g>
<!-- Node21&#45;&gt;Node5 -->
<g id="edge35_Node000021_Node000005" class="edge">
<title>Node21&#45;&gt;Node5</title>
<g id="a_edge35_Node000021_Node000005"><a xlink:title=" ">
<path fill="none" stroke="#63b8ff" d="M304.37,-962123.42C304.85,-961036.16 351.79,-854783.87 371.36,-769694.79 371.36,-769694.79 414.36,-384890.72 414.36,-384890.72 423.65,-384875.81 439.6,-384865.78 455.51,-384859.1"/>
<polygon fill="#63b8ff" stroke="#63b8ff" points="456.36,-384862.52 464.48,-384855.71 453.89,-384855.97 456.36,-384862.52"/>
</a>
</g>
</g>
<!-- Node22&#45;&gt;Node5 -->
<g id="edge37_Node000022_Node000005" class="edge">
<title>Node22&#45;&gt;Node5</title>
<g id="a_edge37_Node000022_Node000005"><a xlink:title=" ">
<path fill="none" stroke="#63b8ff" d="M606.36,-962119.37C606.33,-959035.58 601.36,-384890.72 601.36,-384890.72 591.67,-384875.65 575.44,-384865.65 559,-384859.04"/>
<polygon fill="#63b8ff" stroke="#63b8ff" points="560.25,-384855.77 549.66,-384855.68 557.88,-384862.36 560.25,-384855.77"/>
</a>
</g>
</g>
<!-- Node22&#45;&gt;Node9 -->
<g id="edge38_Node000022_Node000009" class="edge">
<title>Node22&#45;&gt;Node9</title>
<g id="a_edge38_Node000022_Node000009"><a xlink:title=" ">
<path fill="none" stroke="#63b8ff" d="M606.36,-962119.78C605.96,-959656.4 543.88,-580481.28 543.36,-577313.71"/>
<polygon fill="#63b8ff" stroke="#63b8ff" points="546.86,-577313.91 543.36,-577303.91 539.86,-577313.91 546.86,-577313.91"/>
</a>
</g>
</g>
</g>
</svg>
